<?xml version="1.0" encoding="utf-8" standalone="no"?>
<!DOCTYPE svg PUBLIC "-//W3C//DTD SVG 1.1//EN" "http://www.w3.org/Graphics/SVG/1.1/DTD/svg11.dtd">

<svg version="1.1" height="700pt" width="700pt" xmlns="http://www.w3.org/2000/svg" xmlns:xlink="http://www.w3.org/1999/xlink">
<desc>
Map version: 1.1.3
Copyright (c) 2020 Highsoft AS, Based on data from Kadaster / Centraal Bureau voor de Statistiek, 2014
</desc>
<title>Groningen</title>
<g id="admin2">

<g id="NL">
  <desc xmlns="http://www.highcharts.com/svg/namespace">
    <name>Netherlands</name>
    <labelrank>5</labelrank>
    <country-abbrev>Neth.</country-abbrev>
    <subregion>Western Europe</subregion>
    <region-wb>Europe &amp; Central Asia</region-wb>
    <iso-a3>NLD</iso-a3>
    <iso-a2>NL</iso-a2>
    <woe-id>-90</woe-id>
    <continent>Europe</continent>
    <hc-key>nl</hc-key>
    <hc-a2>NE</hc-a2>
  </desc>
</g>

<g id="NL.GR">
  <desc xmlns="http://www.highcharts.com/svg/namespace">
    <labelrank>7</labelrank>
    <hasc>NL.GR</hasc>
    <alt-name>Groninga|Groningue</alt-name>
    <woe-id>2346376</woe-id>
    <subregion>NULL</subregion>
    <fips>NL04</fips>
    <postal-code>GR</postal-code>
    <name>Groningen</name>
    <country>Netherlands</country>
    <type-en>Province</type-en>
    <region>NULL</region>
    <longitude>6.73067</longitude>
    <woe-name>Groningen</woe-name>
    <latitude>53.279</latitude>
    <woe-label>Groningen, NL, Netherlands</woe-label>
    <type>Provincie</type>
    <hc-key>nl-gr</hc-key>
    <hc-a2>GR</hc-a2>
  </desc>
</g>

<path fill="#CEE3F5" stroke="#6E6E6E" stroke-width="0.4" id="NL.GR.GM1651" d="M153.2,53.1 L152.1,42.7 L152.6,40.5 L154.2,49.3 Z M154.9,30.7 L156.8,37.9 L154.1,35.1 L149.5,35.7 L146.4,41.9 L143.7,37.5 L144.2,34.9 L148.0,31.9 Z M254.7,32.8 L254.2,35.5 L250.9,35.6 L247.8,31.5 L251.3,30.3 Z M201.3,19.2 L201.7,20.7 L194.3,21.6 L190.8,19.5 L199.5,17.8 Z M258.1,19.5 L259.1,20.5 L255.0,20.5 L254.7,19.3 Z M244.8,12.1 L253.6,14.3 L255.2,13.4 L262.5,17.0 L267.3,22.2 L256.7,16.8 L240.1,23.8 L238.8,23.6 L238.6,17.3 L240.0,14.6 Z M189.8,1.0 L195.3,4.1 L207.6,16.9 L207.0,18.3 L196.8,9.4 L194.5,6.3 L192.1,7.0 L188.8,5.4 L187.6,7.0 L195.8,10.8 L203.0,16.7 L208.0,22.1 L204.0,21.8 L200.0,17.3 L191.0,19.1 L190.1,20.3 L189.2,29.0 L185.8,36.0 L183.7,33.8 L179.4,21.7 L173.6,11.7 L173.8,9.7 L178.0,3.7 L182.1,0.6 L184.9,0.0 Z M210.0,155.5 L209.0,152.3 L216.5,153.5 L217.3,144.4 L222.1,144.3 L225.4,128.3 L224.8,125.2 L224.7,124.4 L224.1,121.0 L223.9,119.6 L248.1,113.8 L257.9,110.6 L260.4,108.2 L269.5,105.6 L271.7,104.0 L280.4,101.0 L287.5,97.8 L310.9,93.8 L337.9,90.8 L347.0,92.1 L358.2,96.4 L369.2,102.7 L378.2,94.8 L388.2,98.6 L390.3,102.0 L388.8,107.1 L378.5,104.3 L377.8,106.5 L387.2,109.4 L386.5,111.7 L381.6,110.3 L381.4,112.6 L389.3,114.6 L391.5,114.1 L396.6,115.6 L397.5,112.7 L392.2,110.4 L395.2,102.0 L402.8,105.4 L408.6,109.4 L416.8,118.0 L417.8,122.3 L412.7,135.5 L411.7,148.8 L405.1,145.2 L401.6,142.2 L394.6,134.5 L364.6,151.7 L362.2,147.4 L360.1,147.9 L359.8,145.7 L359.2,145.1 L359.1,144.9 L358.9,144.9 L358.6,144.6 L357.2,144.5 L353.5,149.3 L350.3,152.4 L344.5,155.7 L342.4,156.8 L338.9,159.2 L330.1,169.7 L325.9,174.1 L324.8,175.0 L324.4,175.3 L322.2,177.1 L318.4,180.1 L318.2,180.3 L318.0,180.4 L317.2,181.4 L314.0,184.3 L313.1,184.9 L310.8,186.2 L310.8,186.2 L310.7,186.3 L309.7,188.0 L309.6,188.1 L308.6,189.0 L308.4,188.9 L305.5,186.4 L304.9,186.6 L304.6,186.4 L301.5,184.9 L300.3,185.2 L299.8,185.9 L299.8,185.9 L299.7,185.9 L298.8,185.5 L298.4,184.9 L298.4,184.9 L298.3,184.7 L298.0,184.6 L298.1,184.6 L298.0,184.6 L296.8,184.7 L293.4,186.5 L290.4,184.6 L290.4,184.6 L290.4,184.6 L290.3,184.5 L290.0,184.6 L286.9,185.7 L285.5,184.9 L285.5,185.0 L285.3,185.1 L284.6,185.3 L283.8,186.0 L283.6,186.3 L282.7,186.6 L280.1,186.5 L280.0,186.3 L279.3,185.5 L279.1,185.2 L277.0,185.6 L277.2,187.1 L273.3,188.0 L273.2,188.0 L272.7,188.1 L270.6,188.0 L270.5,188.1 L269.7,188.3 L269.2,188.7 L269.2,188.8 L267.6,189.5 L267.4,191.4 L268.4,198.0 L267.5,198.5 L267.4,199.1 L267.3,199.4 L267.1,199.5 L267.1,199.4 L266.9,199.5 L265.2,200.0 L264.5,200.0 L263.2,199.9 L262.7,200.3 L262.4,201.1 L260.9,200.6 L259.3,200.7 L256.5,200.7 L255.8,200.7 L255.8,200.7 L255.8,200.7 L255.8,200.7 L255.8,200.7 L255.7,200.7 L255.7,200.7 L255.6,200.4 L255.7,200.2 L255.8,199.7 L255.7,200.2 L255.6,200.3 L253.6,199.9 L249.9,202.3 L248.6,203.0 L248.0,203.2 L247.5,204.8 L246.8,205.5 L245.8,206.5 L245.6,206.6 L245.4,206.8 L245.1,206.7 L245.1,206.7 L244.8,206.5 L241.9,205.1 L238.6,201.6 L238.6,200.2 L238.2,199.0 L237.3,198.1 L236.7,197.6 L234.9,191.8 L234.6,191.4 L234.1,191.6 L231.7,190.9 L230.4,191.5 L228.2,190.5 L227.7,190.6 L225.3,189.8 L228.1,179.2 L227.9,177.6 L226.1,175.0 L225.8,174.3 L225.5,172.7 L224.1,172.1 L222.4,170.6 L219.1,172.3 L214.2,165.9 L213.7,166.0 L212.5,166.2 L210.8,166.4 L209.3,164.5 Z M255.8,200.7 L255.8,200.7 L255.7,200.7 L255.8,200.7 L255.8,200.7 L255.8,200.7 Z">
  <desc xmlns="http://www.highcharts.com/svg/namespace">
    <name>Eemsmond</name>
    <hc-middle-x>0.55</hc-middle-x>
    <hc-middle-y>0.70</hc-middle-y>
    <hc-key>nl-gr-gm1651</hc-key>
    <hc-a2>EE</hc-a2>
  </desc>
</path>

<path fill="#CEE3F5" stroke="#6E6E6E" stroke-width="0.4" id="NL.GR.GM1663" d="M21.6,168.7 L26.2,169.9 L27.2,171.6 L26.9,178.3 L20.8,177.7 L12.7,171.0 L13.3,168.2 L16.1,169.0 L17.5,172.5 L19.1,166.9 Z M15.9,154.9 L17.3,156.5 L15.0,158.3 L14.4,155.5 Z M41.2,150.8 L42.0,152.0 L38.2,153.5 L34.9,152.4 L36.9,150.8 Z M86.9,214.6 L86.7,214.1 L85.6,212.7 L79.6,208.6 L75.0,204.3 L77.9,205.5 L72.7,201.0 L67.9,199.4 L64.9,197.0 L59.1,195.5 L56.9,193.7 L50.9,193.0 L45.7,197.3 L41.6,197.9 L41.0,190.2 L49.5,187.7 L52.5,184.5 L55.1,184.1 L52.1,181.3 L44.5,183.7 L41.8,181.9 L47.1,177.8 L44.3,173.4 L41.8,175.9 L34.8,176.7 L28.7,175.0 L30.7,170.4 L34.8,170.9 L42.7,169.9 L38.1,168.3 L34.8,168.6 L31.7,167.0 L23.7,166.6 L18.8,164.3 L15.1,163.9 L14.0,161.3 L15.2,159.2 L23.9,159.7 L24.6,157.2 L22.3,155.6 L21.8,152.3 L15.9,148.9 L12.7,148.4 L14.1,140.6 L15.7,139.5 L23.4,140.1 L25.7,144.0 L30.5,147.6 L32.1,151.1 L36.0,155.0 L43.2,154.4 L45.1,152.4 L42.9,148.2 L36.2,147.0 L29.5,141.6 L30.5,139.3 L25.8,138.9 L20.1,134.4 L19.8,132.4 L23.1,132.8 L22.7,134.5 L26.3,135.6 L33.1,134.6 L49.6,129.8 L54.4,129.5 L60.9,131.9 L77.3,142.2 L81.8,147.0 L85.0,149.1 L88.8,148.8 L97.4,143.5 L97.9,142.0 L115.6,135.5 L118.7,132.7 L119.3,134.2 L129.5,131.0 L135.2,132.3 L147.9,130.1 L155.8,127.7 L169.9,126.4 L187.4,123.1 L193.2,122.8 L199.9,123.4 L207.0,123.1 L213.4,120.3 L216.9,120.5 L223.7,118.8 L224.1,121.0 L224.7,124.4 L224.8,125.2 L214.2,127.4 L213.9,127.5 L210.1,124.9 L206.3,125.3 L205.4,129.8 L204.8,133.1 L203.3,132.9 L200.1,140.4 L200.8,142.5 L200.3,142.4 L200.0,142.5 L199.8,142.6 L199.6,142.8 L200.2,144.3 L202.9,145.4 L202.6,145.4 L200.7,145.5 L199.6,146.4 L199.5,146.6 L199.5,146.7 L199.4,147.5 L200.9,149.8 L200.3,150.4 L198.3,151.1 L196.8,151.0 L196.2,151.0 L196.0,151.3 L196.0,151.3 L194.9,153.6 L191.4,150.9 L188.6,150.7 L188.5,150.7 L187.7,150.8 L186.8,151.9 L184.9,155.9 L184.9,157.2 L184.2,157.3 L183.4,158.0 L178.5,157.8 L177.7,160.8 L181.9,176.6 L184.2,182.4 L180.8,184.8 L179.5,185.7 L178.9,187.9 L185.7,193.8 L185.4,200.7 L185.4,200.7 L185.5,202.4 L185.9,202.9 L183.4,204.8 L180.4,203.6 L179.1,209.3 L174.4,208.9 L173.8,211.4 L173.3,211.7 L172.1,212.4 L169.8,213.7 L168.8,214.3 L168.7,214.5 L167.1,217.0 L164.0,218.4 L165.3,223.6 L161.6,227.1 L161.3,227.2 L158.2,227.6 L158.2,227.6 L158.1,227.0 L158.1,225.6 L157.9,223.6 L155.4,218.4 L153.6,217.0 L153.2,217.0 L150.5,218.1 L145.7,217.0 L145.2,216.9 L144.9,217.2 L144.5,217.8 L144.1,218.4 L143.9,218.9 L143.0,220.9 L141.3,223.5 L135.9,225.1 L135.6,225.2 L124.6,224.0 L117.7,222.2 L115.8,223.4 L113.4,228.1 L109.7,228.8 L107.0,225.4 L102.5,224.4 L97.2,227.2 L96.6,227.5 L93.3,227.1 L93.1,227.1 L93.1,227.1 L88.3,223.2 L88.2,217.9 Z M46.3,170.5 L45.8,173.8 L47.7,176.4 L47.6,174.1 Z M72.9,202.3 L73.2,202.5 L74.0,203.4 L74.0,203.4 L73.4,202.8 Z">
  <desc xmlns="http://www.highcharts.com/svg/namespace">
    <name>De Marne</name>
    <hc-middle-x>0.47</hc-middle-x>
    <hc-middle-y>0.55</hc-middle-y>
    <hc-key>nl-gr-gm1663</hc-key>
    <hc-a2>DM</hc-a2>
  </desc>
</path>

<path fill="#CEE3F5" stroke="#6E6E6E" stroke-width="0.4" id="NL.GR.GM1895" d="M600.0,312.6 L600.3,316.0 L598.6,317.2 L598.7,314.0 Z M542.6,230.3 L548.2,229.1 L576.8,228.2 L548.2,229.2 Z M433.0,323.2 L430.8,324.4 L430.2,324.7 L429.6,324.9 L428.7,325.2 L428.7,325.3 L427.5,320.7 L426.5,316.7 L427.2,313.2 L427.3,313.2 L427.6,313.3 L427.8,312.0 L427.8,312.0 L428.0,310.8 L428.4,308.0 L428.4,308.0 L431.2,307.5 L434.3,311.9 L438.1,314.2 L443.6,307.3 L446.3,309.5 L448.1,307.3 L448.5,303.1 L452.5,295.7 L461.9,292.6 L477.1,286.6 L487.8,286.8 L487.6,292.7 L492.4,300.0 L498.1,297.4 L501.4,294.1 L504.0,294.5 L512.7,306.3 L513.9,305.4 L518.4,311.2 L525.4,305.8 L523.9,304.3 L528.4,299.7 L532.5,297.9 L536.1,298.3 L539.3,302.3 L544.3,304.0 L550.7,303.9 L557.7,306.3 L562.2,309.2 L564.2,308.5 L569.4,311.5 L571.5,309.0 L577.7,312.5 L579.2,314.6 L581.7,313.9 L586.6,316.4 L597.7,318.8 L600.4,316.1 L601.7,327.0 L600.5,326.8 L603.9,340.0 L603.9,356.3 L598.1,365.1 L609.1,373.1 L602.1,375.8 L595.3,376.5 L587.6,390.3 L586.5,397.1 L582.9,397.2 L579.8,399.0 L579.3,399.2 L579.0,400.0 L577.5,403.6 L561.2,390.8 L559.1,395.3 L558.7,396.1 L558.0,396.6 L553.9,398.8 L549.6,399.5 L541.2,404.2 L539.9,405.3 L538.5,406.1 L538.6,406.0 L538.4,406.1 L537.6,406.5 L535.8,407.0 L533.0,406.6 L531.5,405.8 L531.5,405.8 L528.6,404.9 L523.4,406.2 L516.5,412.0 L506.1,418.7 L504.7,420.6 L503.8,421.6 L501.2,424.2 L499.8,425.6 L499.4,426.1 L498.1,427.3 L497.1,428.3 L497.1,428.3 L497.1,428.4 L496.9,428.5 L496.8,428.7 L496.8,428.7 L496.3,429.6 L496.1,431.0 L496.0,431.3 L496.0,431.5 L496.0,431.4 L496.0,431.5 L494.8,432.7 L493.3,432.9 L492.3,432.0 L468.9,431.3 L464.5,428.2 L457.0,435.6 L455.9,436.0 L456.2,434.7 L453.1,422.7 L453.6,422.4 L453.6,422.4 L451.1,411.1 L450.9,410.7 L450.5,410.9 L450.6,404.9 L450.6,404.9 L448.6,389.5 L444.8,389.3 L444.0,382.0 L436.9,383.0 L436.7,379.4 L421.6,381.5 L426.9,376.3 L425.5,373.6 L425.5,373.6 L425.5,373.6 L426.0,373.6 L426.6,373.4 L426.7,373.4 L426.8,373.2 L427.2,372.8 L427.5,371.6 L427.5,371.6 L427.3,371.1 L426.9,369.9 L426.7,369.3 L426.7,368.3 L426.8,367.4 L427.0,367.4 L428.1,365.8 L429.4,362.3 L429.3,361.5 L430.0,360.1 L431.2,357.8 L433.5,358.5 L434.1,357.7 L434.4,356.5 L435.0,355.1 L430.2,353.7 L435.0,344.7 L432.7,342.4 L438.0,337.4 L434.4,329.7 L435.9,328.9 Z M444.1,382.1 L444.1,382.1 L444.1,382.1 L444.1,382.1 Z M550.1,233.1 L549.1,233.2 L549.1,233.2 L549.1,233.2 L549.1,233.2 L550.1,233.1 Z M550.1,233.1 L568.3,231.9 L568.4,236.4 L558.6,236.4 L563.2,236.2 L563.5,232.3 L558.8,232.6 L558.6,236.4 L553.6,236.4 L553.8,232.9 L550.1,233.1 Z M568.2,232.6 L563.6,232.3 L563.3,236.4 L568.3,236.4 Z M558.5,235.7 L558.7,232.6 L553.9,232.9 L553.6,236.4 Z M549.1,233.2 L549.9,236.9 L549.0,233.2 L549.1,233.2 L549.1,233.2 Z">
  <desc xmlns="http://www.highcharts.com/svg/namespace">
    <name>Oldambt</name>
    <hc-middle-x>0.43</hc-middle-x>
    <hc-middle-y>0.64</hc-middle-y>
    <hc-key>nl-gr-gm1895</hc-key>
    <hc-a2>OL</hc-a2>
  </desc>
</path>

<path fill="#CEE3F5" stroke="#6E6E6E" stroke-width="0.4" id="NL.GR.GM0037" d="M486.4,621.3 L480.2,615.8 L436.0,549.0 L393.7,501.4 L396.2,499.5 L398.0,501.2 L405.6,496.3 L415.3,510.2 L420.6,504.2 L422.9,508.2 L435.6,522.4 L439.6,525.3 L447.7,529.0 L467.2,495.7 L469.0,490.1 L470.9,489.5 L480.8,472.4 L482.6,476.5 L483.8,474.3 L485.9,474.7 L494.5,481.5 L506.2,480.5 L509.6,480.8 L513.0,479.4 L518.8,482.7 L521.0,485.3 L518.9,494.9 L514.5,495.2 L513.7,502.5 L520.7,501.5 L524.0,503.7 L522.1,506.7 L521.7,512.5 L520.3,515.4 L521.6,519.8 L524.9,519.1 L526.9,522.5 L530.2,524.0 L531.4,528.8 L514.8,540.5 L512.3,589.3 L509.2,591.0 L508.0,610.4 L492.2,611.6 L488.2,616.5 Z">
  <desc xmlns="http://www.highcharts.com/svg/namespace">
    <name>Stadskanaal</name>
    <hc-middle-x>0.64</hc-middle-x>
    <hc-middle-y>0.50</hc-middle-y>
    <hc-key>nl-gr-gm0037</hc-key>
    <hc-a2>ST</hc-a2>
  </desc>
</path>

<path fill="#CEE3F5" stroke="#6E6E6E" stroke-width="0.4" id="NL.GR.GM0056" d="M152.5,227.8 L152.3,233.8 L150.5,239.1 L147.6,242.7 L149.2,249.0 L153.1,249.6 L155.4,254.6 L152.7,257.8 L150.7,257.5 L148.3,261.5 L151.7,262.8 L152.6,265.3 L159.6,260.9 L160.6,263.1 L164.1,263.4 L168.0,260.8 L172.3,265.2 L176.1,265.3 L178.0,272.9 L183.1,272.2 L182.8,275.2 L188.3,276.0 L194.0,274.3 L195.9,275.7 L196.5,286.6 L198.2,290.0 L192.9,296.2 L191.0,295.3 L189.0,297.6 L184.9,296.1 L184.9,294.4 L180.5,293.2 L180.0,298.2 L175.5,312.7 L169.6,333.7 L155.5,330.8 L153.2,327.1 L149.4,316.9 L148.1,318.1 L141.9,318.7 L140.7,320.7 L136.3,323.5 L132.9,315.4 L127.3,305.8 L124.7,307.1 L123.9,304.5 L121.2,305.9 L120.9,302.5 L117.0,303.3 L117.5,298.3 L112.2,299.3 L112.4,295.4 L109.6,296.0 L110.2,289.3 L101.9,290.7 L102.0,288.5 L88.2,290.3 L83.9,291.8 L77.1,291.8 L63.7,293.8 L62.1,286.1 L62.9,283.5 L37.1,282.3 L40.2,281.2 L41.7,275.6 L46.2,270.8 L50.5,271.2 L51.5,268.8 L49.2,262.4 L50.7,252.1 L53.5,249.6 L58.0,249.2 L59.4,250.6 L63.2,244.3 L63.3,242.0 L65.7,238.3 L72.3,236.3 L75.1,233.5 L74.1,231.4 L67.3,228.9 L72.0,201.8 L72.9,202.3 L72.9,202.3 L73.4,202.8 L74.0,203.4 L74.0,203.4 L75.1,207.7 L75.0,204.3 L75.0,204.3 L75.0,204.3 L75.0,204.4 L79.6,208.6 L85.6,212.7 L86.9,214.6 L87.5,215.4 L88.2,217.9 L88.3,223.2 L89.5,225.1 L92.6,227.0 L93.0,227.0 L93.1,227.1 L93.3,227.1 L93.8,227.3 L94.3,227.3 L95.4,227.6 L95.9,227.5 L96.6,227.5 L97.2,227.2 L97.8,227.0 L102.5,224.4 L107.0,225.4 L109.7,228.8 L113.4,228.1 L115.8,223.4 L120.4,223.0 L121.8,223.5 L123.4,223.7 L124.6,224.0 L125.7,224.1 L125.9,224.1 L128.3,224.1 L130.3,224.2 L135.9,225.1 L136.3,225.2 L136.6,225.3 L137.5,224.9 L141.3,223.5 L143.9,218.9 L144.5,217.8 L144.7,217.3 L144.9,217.2 L145.7,217.0 L146.2,216.8 L150.5,218.1 L153.6,217.0 L154.1,216.9 L155.4,218.4 L157.9,223.6 L158.2,227.6 L158.2,227.6 L158.2,227.6 Z M75.0,204.3 L75.0,204.3 L75.0,204.3 L75.0,204.3 L75.0,204.3 Z">
  <desc xmlns="http://www.highcharts.com/svg/namespace">
    <name>Zuidhorn</name>
    <hc-middle-x>0.55</hc-middle-x>
    <hc-middle-y>0.50</hc-middle-y>
    <hc-key>nl-gr-gm0056</hc-key>
    <hc-a2>ZU</hc-a2>
  </desc>
</path>

<path fill="#CEE3F5" stroke="#6E6E6E" stroke-width="0.4" id="NL.GR.GM0053" d="M152.5,227.8 L158.2,227.6 L158.2,227.6 L158.4,228.2 L159.6,228.2 L160.0,228.3 L160.9,227.4 L161.3,227.2 L165.3,223.6 L164.0,218.4 L167.1,217.0 L168.2,214.6 L168.7,214.5 L168.7,214.5 L169.8,213.7 L171.9,212.1 L172.1,212.4 L172.5,212.9 L172.7,213.1 L173.0,212.3 L173.3,211.7 L174.4,208.9 L179.1,209.3 L180.4,203.6 L183.4,204.8 L185.9,202.9 L185.4,200.7 L185.1,199.0 L185.0,199.0 L185.7,193.8 L178.9,187.9 L180.8,184.8 L181.3,184.0 L181.4,183.9 L184.2,182.4 L181.9,176.6 L177.7,160.8 L179.9,158.8 L181.8,158.8 L182.2,158.5 L183.4,158.0 L185.0,157.1 L185.0,157.1 L186.8,151.9 L188.6,150.7 L189.0,150.4 L189.0,150.4 L189.1,150.4 L191.4,150.9 L194.9,153.6 L195.7,151.4 L195.7,151.4 L196.0,151.3 L196.8,151.0 L200.9,149.8 L199.5,146.7 L200.7,145.5 L202.5,145.9 L202.6,145.4 L202.9,145.4 L202.8,143.7 L202.8,143.7 L202.8,143.7 L200.2,144.3 L202.2,142.3 L202.5,142.3 L202.5,142.1 L202.7,142.1 L202.7,141.7 L202.8,141.4 L202.7,141.4 L200.1,140.4 L203.3,132.9 L204.8,133.1 L206.3,125.3 L210.1,124.9 L214.2,127.4 L214.2,127.4 L214.3,127.5 L219.0,126.5 L223.6,125.5 L224.8,125.2 L225.4,128.3 L222.1,144.3 L217.3,144.4 L216.5,153.5 L209.0,152.3 L208.1,154.9 L208.7,155.1 L208.7,155.4 L210.0,155.5 L210.1,160.5 L210.0,160.7 L209.3,164.5 L210.8,166.4 L212.0,165.5 L212.5,166.2 L212.8,166.6 L213.7,166.0 L214.1,165.7 L214.2,165.9 L219.1,172.3 L222.5,170.6 L224.1,172.1 L225.2,173.2 L225.8,174.3 L226.1,175.0 L228.1,179.2 L228.2,179.4 L225.3,189.8 L227.7,190.6 L230.4,191.5 L234.9,191.8 L237.3,198.1 L238.6,201.6 L236.9,203.7 L234.3,203.4 L233.1,207.5 L233.5,213.3 L229.9,228.8 L228.5,233.3 L225.1,266.2 L224.3,270.8 L221.0,280.4 L213.8,280.9 L214.5,284.5 L206.7,286.5 L205.7,288.0 L202.7,285.9 L198.0,287.4 L196.5,286.6 L195.9,275.7 L194.0,274.3 L188.3,276.0 L182.8,275.2 L183.1,272.2 L178.0,272.9 L176.1,265.3 L172.3,265.2 L168.0,260.8 L164.1,263.4 L160.6,263.1 L159.6,260.9 L152.6,265.3 L151.7,262.8 L148.3,261.5 L150.7,257.5 L152.7,257.8 L155.4,254.6 L153.1,249.6 L149.2,249.0 L147.6,242.7 L150.5,239.1 L152.3,233.8 Z M185.0,157.1 L185.0,157.1 L185.1,157.1 Z">
  <desc xmlns="http://www.highcharts.com/svg/namespace">
    <name>Winsum</name>
    <hc-middle-x>0.56</hc-middle-x>
    <hc-middle-y>0.64</hc-middle-y>
    <hc-key>nl-gr-gm0053</hc-key>
    <hc-a2>WI</hc-a2>
  </desc>
</path>

<path fill="#CEE3F5" stroke="#6E6E6E" stroke-width="0.4" id="NL.GR.GM0047" d="M393.7,501.4 L371.5,476.4 L367.2,471.7 L361.5,425.2 L364.0,424.1 L362.6,420.5 L373.1,416.2 L374.1,418.8 L398.8,421.3 L403.5,422.2 L403.7,420.5 L409.4,420.4 L410.7,417.6 L420.7,418.9 L438.6,422.7 L445.2,425.5 L452.7,426.9 L453.8,436.7 L452.8,450.2 L450.6,451.3 L442.5,463.6 L434.8,471.9 L433.8,473.8 L430.8,486.3 L435.6,490.2 L435.7,494.3 L427.9,494.3 L428.3,498.2 L419.4,499.3 L420.6,504.2 L415.3,510.2 L405.6,496.3 L398.0,501.2 L396.2,499.5 Z">
  <desc xmlns="http://www.highcharts.com/svg/namespace">
    <name>Veendam</name>
    <hc-middle-x>0.44</hc-middle-x>
    <hc-middle-y>0.48</hc-middle-y>
    <hc-key>nl-gr-gm0047</hc-key>
    <hc-a2>VE</hc-a2>
  </desc>
</path>

<path fill="#CEE3F5" stroke="#6E6E6E" stroke-width="0.4" id="NL.GR.GM1730" d="M346.2,448.2 L329.9,455.3 L327.8,457.3 L330.7,459.7 L320.9,465.9 L316.5,467.5 L309.1,472.1 L307.8,470.7 L300.5,475.2 L296.9,470.1 L287.3,462.0 L279.5,458.3 L277.2,456.3 L272.0,457.9 L272.4,460.4 L274.8,460.0 L280.1,468.6 L280.5,470.6 L284.0,473.2 L283.7,476.3 L280.5,477.9 L281.7,481.2 L278.7,483.3 L274.1,483.5 L267.0,492.7 L265.9,496.4 L268.2,498.9 L270.1,511.6 L260.0,511.4 L243.9,504.2 L245.9,500.1 L247.2,491.9 L246.9,486.0 L245.4,480.1 L243.1,477.5 L236.0,480.0 L235.1,478.3 L229.0,478.6 L228.5,482.6 L225.7,482.7 L225.5,477.8 L217.0,478.7 L217.4,481.5 L213.6,490.4 L215.0,493.5 L213.8,498.3 L211.7,501.2 L208.5,499.0 L203.9,498.0 L201.3,492.7 L198.7,490.3 L191.0,491.4 L187.6,489.5 L191.8,479.9 L193.7,471.4 L193.3,464.8 L189.7,456.9 L180.8,440.1 L177.8,431.2 L177.8,426.3 L175.8,417.5 L186.3,415.4 L187.7,418.1 L194.5,413.5 L193.8,408.6 L210.1,407.4 L210.9,401.1 L209.1,397.5 L210.1,395.0 L207.9,389.0 L210.3,382.5 L208.2,380.0 L210.2,376.7 L209.7,373.2 L203.4,362.3 L201.7,355.8 L196.6,345.6 L198.4,344.1 L206.7,347.0 L209.0,357.4 L213.2,363.2 L217.1,361.1 L223.1,372.6 L225.2,383.7 L235.5,378.4 L236.7,383.9 L238.7,385.7 L237.1,387.4 L238.8,395.9 L245.7,396.9 L249.4,402.2 L253.8,405.9 L253.2,408.5 L256.3,409.9 L257.8,415.1 L261.0,418.5 L260.8,424.1 L261.9,426.2 L265.5,427.7 L266.0,432.6 L264.9,434.5 L288.5,424.3 L300.1,421.3 L324.4,423.7 L332.5,432.7 L346.2,448.2 L346.2,448.2 Z">
  <desc xmlns="http://www.highcharts.com/svg/namespace">
    <name>Tynaarlo</name>
    <hc-middle-x>0.45</hc-middle-x>
    <hc-middle-y>0.65</hc-middle-y>
    <hc-key>nl-gr-gm1730</hc-key>
    <hc-a2>TY</hc-a2>
  </desc>
</path>

<path fill="#CEE3F5" stroke="#6E6E6E" stroke-width="0.4" id="NL.GR.GM0048" d="M486.4,621.3 L488.2,616.5 L492.2,611.6 L508.0,610.4 L509.2,591.0 L512.3,589.3 L514.8,540.5 L531.4,528.8 L530.2,524.0 L526.9,522.5 L524.9,519.1 L521.6,519.8 L520.3,515.4 L521.7,512.5 L522.1,506.7 L524.0,503.7 L520.7,501.5 L513.7,502.5 L514.5,495.2 L518.9,494.9 L521.0,485.3 L524.6,487.0 L525.9,490.2 L533.9,485.9 L538.3,492.3 L539.0,494.6 L542.4,494.6 L549.5,507.6 L582.4,493.7 L592.7,492.8 L596.7,535.8 L599.2,539.6 L594.5,545.8 L576.8,602.0 L530.0,675.4 L519.7,688.7 L522.6,700.0 L510.8,699.4 L510.8,693.0 L513.3,688.4 L509.1,690.3 L507.3,686.7 L505.5,686.8 L499.7,677.0 L496.4,672.7 L494.7,673.3 L493.0,665.8 L478.2,665.3 L497.2,624.6 Z">
  <desc xmlns="http://www.highcharts.com/svg/namespace">
    <name>Vlagtwedde</name>
    <hc-middle-x>0.54</hc-middle-x>
    <hc-middle-y>0.42</hc-middle-y>
    <hc-key>nl-gr-gm0048</hc-key>
    <hc-a2>VL</hc-a2>
  </desc>
</path>

<path fill="#CEE3F5" stroke="#6E6E6E" stroke-width="0.4" id="NL.GR.GM0765" d="M483.8,474.3 L482.6,476.5 L480.8,472.4 L470.9,489.5 L469.0,490.1 L467.2,495.7 L447.7,529.0 L439.6,525.3 L435.6,522.4 L422.9,508.2 L420.6,504.2 L419.4,499.3 L428.3,498.2 L427.9,494.3 L435.7,494.3 L435.6,490.2 L430.8,486.3 L433.8,473.8 L434.8,471.9 L442.5,463.6 L450.6,451.3 L452.8,450.2 L453.8,436.7 L454.9,436.3 L455.9,436.0 L457.0,435.6 L464.5,428.2 L468.9,431.3 L492.3,432.0 L493.3,432.9 L491.0,435.4 L493.3,439.6 L500.4,446.0 Z">
  <desc xmlns="http://www.highcharts.com/svg/namespace">
    <name>Pekela</name>
    <hc-middle-x>0.48</hc-middle-x>
    <hc-middle-y>0.46</hc-middle-y>
    <hc-key>nl-gr-gm0765</hc-key>
    <hc-a2>PE</hc-a2>
  </desc>
</path>

<path fill="#CEE3F5" stroke="#6E6E6E" stroke-width="0.4" id="NL.GR.GM1987" d="M455.9,436.0 L454.9,436.3 L453.8,436.7 L452.7,426.9 L445.2,425.5 L438.6,422.7 L420.7,418.9 L410.7,417.6 L409.4,420.4 L403.7,420.5 L403.5,422.2 L398.8,421.3 L374.1,418.8 L373.1,416.2 L362.6,420.5 L357.6,408.4 L362.9,406.2 L362.4,405.0 L367.7,402.9 L365.9,398.6 L372.3,399.4 L371.1,396.1 L371.0,382.4 L375.2,371.5 L374.7,365.5 L378.1,362.6 L370.1,362.2 L369.2,361.3 L374.2,356.3 L370.9,353.8 L372.9,349.4 L378.2,345.5 L385.0,344.3 L387.3,342.7 L386.9,339.9 L390.6,337.9 L394.7,337.2 L395.7,332.3 L409.3,327.2 L413.1,324.0 L417.8,326.8 L422.9,327.5 L428.7,325.3 L428.7,325.3 L429.6,324.9 L430.8,324.4 L431.8,324.0 L433.0,323.2 L436.0,328.9 L435.9,328.9 L434.4,329.7 L436.6,335.7 L436.6,335.7 L436.6,335.7 L436.6,335.7 L436.6,335.7 L438.0,337.4 L432.7,342.4 L435.0,344.7 L433.7,346.3 L432.4,348.6 L430.2,353.7 L435.0,355.1 L433.5,358.5 L433.5,358.5 L431.2,357.8 L430.8,359.5 L430.0,360.1 L429.8,360.2 L429.6,360.4 L429.5,360.5 L429.5,360.6 L428.1,365.8 L426.7,369.3 L426.7,369.8 L427.3,371.1 L427.5,371.6 L426.8,373.2 L426.8,373.3 L426.7,373.4 L426.6,373.4 L425.5,373.6 L425.5,373.6 L425.3,373.7 L425.1,373.7 L425.0,373.8 L426.9,376.3 L421.6,381.4 L421.6,381.5 L436.7,379.4 L436.9,382.9 L436.9,383.0 L444.0,382.0 L444.1,382.1 L444.1,382.1 L444.1,382.1 L444.1,382.1 L444.8,389.3 L448.6,389.5 L450.6,404.9 L450.6,404.8 L450.6,404.9 L450.6,404.9 L451.1,411.1 L453.6,422.4 L453.7,422.6 L453.1,422.7 L456.2,434.7 Z M436.6,335.7 L436.6,335.6 L436.6,335.7 L436.6,335.7 L436.6,335.7 L436.6,335.7 Z M444.1,382.1 L444.1,382.1 L444.1,382.1 L444.1,382.1 L444.1,382.1 Z">
  <desc xmlns="http://www.highcharts.com/svg/namespace">
    <name>Menterwolde</name>
    <hc-middle-x>0.47</hc-middle-x>
    <hc-middle-y>0.54</hc-middle-y>
    <hc-key>nl-gr-gm1987</hc-key>
    <hc-a2>ME</hc-a2>
  </desc>
</path>

<path fill="#CEE3F5" stroke="#6E6E6E" stroke-width="0.4" id="NL.GR.GM0024" d="M283.8,186.0 L285.3,185.1 L285.5,184.9 L290.0,184.6 L290.4,184.6 L290.4,184.6 L293.4,186.5 L295.8,186.0 L298.0,184.6 L298.4,184.9 L299.7,185.9 L299.8,185.9 L301.5,184.9 L304.4,186.5 L304.6,186.4 L308.6,189.0 L309.7,188.0 L313.1,184.9 L318.4,180.1 L324.4,175.3 L324.8,175.0 L330.1,169.7 L338.9,159.2 L350.3,152.4 L356.9,144.5 L357.2,144.5 L358.9,144.9 L359.1,144.9 L359.2,145.1 L360.1,147.9 L362.2,147.4 L364.6,151.7 L362.9,152.6 L361.5,153.5 L355.7,156.8 L355.7,156.8 L357.5,162.1 L359.8,166.4 L360.1,166.9 L361.9,170.3 L366.5,178.7 L366.6,180.7 L366.8,182.4 L369.9,185.6 L369.2,186.7 L368.6,187.5 L368.3,187.9 L369.3,188.8 L371.1,190.6 L374.4,193.9 L377.0,192.4 L380.6,193.6 L382.5,198.1 L381.4,202.3 L380.9,204.3 L381.0,204.4 L381.0,204.4 L381.0,204.4 L381.0,204.4 L381.0,204.4 L381.0,204.4 L381.0,204.4 L381.0,204.4 L381.6,206.6 L385.2,206.0 L385.5,208.7 L386.6,208.6 L387.1,208.6 L386.9,210.3 L386.4,216.4 L389.2,222.6 L386.5,225.9 L380.3,224.7 L372.9,227.4 L370.9,226.5 L369.2,228.6 L369.9,235.0 L368.3,236.1 L370.9,240.3 L372.8,245.6 L370.3,246.9 L374.1,253.9 L357.7,262.6 L349.6,267.1 L347.7,263.7 L349.6,262.6 L348.2,259.8 L349.7,258.7 L345.5,252.5 L343.1,255.2 L340.3,250.9 L338.8,251.6 L336.1,247.6 L334.3,242.9 L337.0,241.0 L330.5,237.8 L327.6,239.2 L325.3,245.0 L313.7,240.2 L302.2,251.8 L297.8,247.4 L293.1,244.4 L285.9,242.4 L282.1,240.4 L275.7,240.9 L272.9,234.3 L262.6,234.2 L259.0,225.5 L259.8,223.7 L257.6,218.9 L252.6,219.0 L250.7,213.4 L247.6,212.8 L255.0,211.7 L254.8,208.5 L252.9,208.8 L249.9,202.3 L253.6,199.9 L255.7,200.2 L255.7,200.2 L259.3,200.7 L262.4,201.1 L264.5,200.0 L268.4,198.0 L267.6,189.5 L273.2,188.0 L274.7,188.0 L277.2,187.1 L277.0,185.6 L279.1,185.2 L279.7,186.3 L280.0,186.3 L282.7,186.6 Z M255.8,200.7 L255.8,200.7 L255.8,200.7 L255.8,200.7 Z">
  <desc xmlns="http://www.highcharts.com/svg/namespace">
    <name>Loppersum</name>
    <hc-middle-x>0.52</hc-middle-x>
    <hc-middle-y>0.58</hc-middle-y>
    <hc-key>nl-gr-gm0024</hc-key>
    <hc-a2>LO</hc-a2>
  </desc>
</path>

<path fill="#CEE3F5" stroke="#6E6E6E" stroke-width="0.4" id="NL.GR.GM0005" d="M249.9,202.3 L252.9,208.8 L254.8,208.5 L255.0,211.7 L247.6,212.8 L250.7,213.4 L252.6,219.0 L257.6,218.9 L259.8,223.7 L259.0,225.5 L262.6,234.2 L272.9,234.3 L275.7,240.9 L282.1,240.4 L279.9,244.8 L275.8,255.7 L264.5,280.6 L268.7,287.0 L269.4,295.1 L260.2,296.6 L259.8,294.6 L252.9,294.5 L252.9,292.2 L241.4,289.8 L243.0,283.4 L241.3,284.3 L230.6,284.0 L230.3,282.0 L221.5,282.8 L221.0,280.4 L224.3,270.8 L225.1,266.2 L228.5,233.3 L229.9,228.8 L233.5,213.3 L233.1,207.5 L234.3,203.4 L236.9,203.7 L238.6,201.6 L241.9,205.1 L245.6,206.6 L246.3,206.4 L246.8,205.5 L248.0,203.2 Z">
  <desc xmlns="http://www.highcharts.com/svg/namespace">
    <name>Bedum</name>
    <hc-middle-x>0.51</hc-middle-x>
    <hc-middle-y>0.57</hc-middle-y>
    <hc-key>nl-gr-gm0005</hc-key>
    <hc-a2>BE</hc-a2>
  </desc>
</path>

<path fill="#CEE3F5" stroke="#6E6E6E" stroke-width="0.4" id="NL.GR.GM0040" d="M428.7,325.3 L422.9,327.5 L417.8,326.8 L413.1,324.0 L409.3,327.2 L395.7,332.3 L394.7,337.2 L390.6,337.9 L386.9,339.9 L387.3,342.7 L385.0,344.3 L378.2,345.5 L372.9,349.4 L370.9,353.8 L374.2,356.3 L369.2,361.3 L368.3,362.3 L356.5,365.5 L342.2,366.8 L342.0,375.6 L347.3,375.9 L347.3,377.3 L333.0,377.1 L329.6,376.6 L314.7,371.5 L312.9,369.4 L295.2,344.8 L291.5,344.8 L286.2,343.1 L283.7,340.0 L276.2,328.1 L273.4,318.7 L271.9,316.8 L273.8,315.0 L273.8,310.9 L277.9,308.8 L288.3,301.4 L316.6,285.8 L325.6,279.9 L332.8,276.5 L349.6,267.1 L357.7,262.6 L374.1,253.9 L375.3,256.3 L380.3,254.1 L381.8,260.4 L392.0,261.6 L395.3,255.1 L400.5,255.9 L400.7,257.2 L411.7,254.8 L416.1,254.9 L417.5,262.3 L418.1,265.5 L420.5,266.5 L416.2,270.2 L415.5,270.8 L415.6,272.9 L427.5,273.4 L428.1,273.4 L428.1,273.4 L427.6,279.1 L427.1,283.4 L428.4,283.6 L427.8,288.3 L429.4,288.4 L429.2,291.6 L428.6,299.4 L427.2,307.5 L428.4,308.0 L427.3,313.2 L426.5,316.7 L428.7,325.2 Z">
  <desc xmlns="http://www.highcharts.com/svg/namespace">
    <name>Slochteren</name>
    <hc-middle-x>0.52</hc-middle-x>
    <hc-middle-y>0.50</hc-middle-y>
    <hc-key>nl-gr-gm0040</hc-key>
    <hc-a2>SL</hc-a2>
  </desc>
</path>

<path fill="#CEE3F5" stroke="#6E6E6E" stroke-width="0.4" id="NL.GR.GM0007" d="M582.9,397.2 L586.5,397.1 L586.5,403.8 L582.5,411.2 L580.1,412.9 L581.0,423.1 L583.8,426.5 L582.0,428.8 L593.3,437.2 L590.4,467.9 L592.7,492.8 L582.4,493.7 L549.5,507.6 L542.4,494.6 L539.0,494.6 L538.3,492.3 L533.9,485.9 L525.9,490.2 L524.6,487.0 L521.0,485.3 L518.8,482.7 L513.0,479.4 L509.6,480.8 L506.2,480.5 L494.5,481.5 L485.9,474.7 L483.8,474.3 L500.4,446.0 L493.3,439.6 L491.0,435.4 L493.3,432.9 L496.0,431.5 L496.0,431.5 L496.0,431.4 L496.1,431.0 L496.8,428.7 L496.8,428.7 L497.1,428.4 L497.1,428.3 L506.1,418.7 L516.5,412.0 L523.4,406.2 L528.6,404.9 L531.5,405.8 L535.8,407.0 L549.6,399.5 L553.9,398.8 L559.1,395.3 L559.9,394.3 L561.2,390.8 L577.5,403.6 L579.3,399.2 Z">
  <desc xmlns="http://www.highcharts.com/svg/namespace">
    <name>Bellingwedde</name>
    <hc-middle-x>0.58</hc-middle-x>
    <hc-middle-y>0.52</hc-middle-y>
    <hc-key>nl-gr-gm0007</hc-key>
    <hc-a2>BE</hc-a2>
  </desc>
</path>

<path fill="#CEE3F5" stroke="#6E6E6E" stroke-width="0.4" id="NL.GR.GM0009" d="M273.8,310.9 L272.7,306.2 L269.4,295.1 L268.7,287.0 L264.5,280.6 L275.8,255.7 L279.9,244.8 L282.1,240.4 L285.9,242.4 L293.1,244.4 L297.8,247.4 L302.2,251.8 L313.7,240.2 L325.3,245.0 L327.6,239.2 L330.5,237.8 L337.0,241.0 L334.3,242.9 L336.1,247.6 L338.8,251.6 L340.3,250.9 L343.1,255.2 L345.5,252.5 L349.7,258.7 L348.2,259.8 L349.6,262.6 L347.7,263.7 L349.6,267.1 L332.8,276.5 L325.6,279.9 L316.6,285.8 L288.3,301.4 L277.9,308.8 Z">
  <desc xmlns="http://www.highcharts.com/svg/namespace">
    <name>Ten Boer</name>
    <hc-middle-x>0.51</hc-middle-x>
    <hc-middle-y>0.38</hc-middle-y>
    <hc-key>nl-gr-gm0009</hc-key>
    <hc-a2>TB</hc-a2>
  </desc>
</path>

<path fill="#CEE3F5" stroke="#6E6E6E" stroke-width="0.4" id="NL.GR.GM0014" d="M269.4,295.1 L272.7,306.2 L273.8,310.9 L273.8,315.0 L271.9,316.8 L273.4,318.7 L276.2,328.1 L283.7,340.0 L286.2,343.1 L279.9,347.6 L276.1,351.3 L270.2,353.8 L274.2,356.2 L269.9,358.0 L250.0,347.1 L245.0,348.6 L246.5,352.8 L236.1,356.9 L235.8,359.5 L230.4,359.7 L227.8,357.9 L222.8,360.2 L222.1,358.4 L217.1,361.1 L213.2,363.2 L209.0,357.4 L206.7,347.0 L198.4,344.1 L193.6,341.8 L187.5,343.5 L183.5,338.5 L179.8,337.9 L168.7,341.0 L170.9,337.0 L169.6,333.7 L175.5,312.7 L180.0,298.2 L180.5,293.2 L184.9,294.4 L184.9,296.1 L189.0,297.6 L191.0,295.3 L192.9,296.2 L198.2,290.0 L196.5,286.6 L198.0,287.4 L202.7,285.9 L205.7,288.0 L206.7,286.5 L214.5,284.5 L213.8,280.9 L221.0,280.4 L221.5,282.8 L230.3,282.0 L230.6,284.0 L241.3,284.3 L243.0,283.4 L241.4,289.8 L252.9,292.2 L252.9,294.5 L259.8,294.6 L260.2,296.6 Z">
  <desc xmlns="http://www.highcharts.com/svg/namespace">
    <name>Groningen</name>
    <hc-middle-x>0.47</hc-middle-x>
    <hc-middle-y>0.48</hc-middle-y>
    <hc-key>nl-gr-gm0014</hc-key>
    <hc-a2>GR</hc-a2>
  </desc>
</path>

<path fill="#CEE3F5" stroke="#6E6E6E" stroke-width="0.4" id="NL.GR.GM0018" d="M269.9,358.0 L274.2,356.2 L270.2,353.8 L276.1,351.3 L279.9,347.6 L286.2,343.1 L291.5,344.8 L295.2,344.8 L312.9,369.4 L314.7,371.5 L329.6,376.6 L333.0,377.1 L347.3,377.3 L347.3,375.9 L342.0,375.6 L342.2,366.8 L356.5,365.5 L368.3,362.3 L369.2,361.3 L370.1,362.2 L378.1,362.6 L374.7,365.5 L375.2,371.5 L371.0,382.4 L371.1,396.1 L372.3,399.4 L365.9,398.6 L367.7,402.9 L362.4,405.0 L362.9,406.2 L357.6,408.4 L362.6,420.5 L364.0,424.1 L361.5,425.2 L367.2,471.7 L354.6,457.6 L346.2,448.2 L346.2,448.2 L324.4,423.7 L300.1,421.3 L297.4,399.9 L295.8,395.0 L298.0,393.1 L297.4,389.5 L294.5,383.3 L290.9,378.6 L282.4,372.2 L279.9,363.3 Z">
  <desc xmlns="http://www.highcharts.com/svg/namespace">
    <name>Hoogezand-Sappemeer</name>
    <hc-middle-x>0.56</hc-middle-x>
    <hc-middle-y>0.41</hc-middle-y>
    <hc-key>nl-gr-gm0018</hc-key>
    <hc-a2>HS</hc-a2>
  </desc>
</path>

<path fill="#CEE3F5" stroke="#6E6E6E" stroke-width="0.4" id="NL.GR.GM0010" d="M415.6,272.9 L416.2,270.2 L417.2,269.0 L420.5,266.5 L418.1,265.5 L417.0,262.7 L417.0,262.7 L417.5,262.3 L417.9,262.0 L417.7,261.5 L417.7,261.3 L417.7,261.1 L417.6,260.9 L417.0,258.6 L416.1,254.9 L416.3,253.1 L416.3,252.1 L416.4,251.5 L416.4,250.7 L416.5,249.6 L416.6,248.4 L416.8,245.2 L416.9,243.6 L416.7,243.7 L415.4,244.1 L415.4,243.3 L415.1,242.1 L415.0,241.8 L414.1,237.0 L414.5,232.1 L414.5,231.2 L414.6,230.7 L414.6,230.0 L414.3,229.5 L413.8,229.0 L413.8,229.0 L413.8,229.0 L413.8,229.0 L413.8,229.0 L413.8,229.0 L413.8,228.9 L413.8,228.4 L413.9,226.3 L413.8,225.3 L413.8,225.3 L413.8,225.3 L413.8,225.3 L413.9,225.0 L414.0,224.7 L414.3,224.4 L414.3,223.6 L414.4,222.4 L414.7,220.3 L414.7,218.4 L414.9,217.4 L414.5,216.2 L414.5,216.2 L414.9,215.5 L415.0,215.4 L415.2,215.3 L415.1,215.1 L415.6,213.4 L416.2,213.2 L416.2,213.2 L416.2,213.2 L416.3,213.0 L416.3,212.1 L416.3,212.0 L416.4,211.8 L416.3,211.7 L416.2,211.3 L416.3,210.0 L416.3,209.9 L416.3,209.5 L413.4,208.2 L410.7,207.2 L410.0,208.3 L410.3,208.6 L410.7,209.0 L410.3,209.8 L410.3,209.9 L410.2,210.2 L410.0,210.5 L409.8,210.8 L409.6,211.4 L407.1,211.4 L405.8,210.8 L405.8,211.0 L405.7,211.2 L405.7,211.2 L405.7,211.3 L405.7,211.5 L405.6,211.9 L405.6,212.1 L405.5,212.3 L403.2,211.6 L403.2,211.6 L403.1,211.2 L402.4,210.1 L402.1,210.8 L401.5,210.7 L401.2,210.6 L399.5,210.0 L398.9,210.1 L398.6,210.1 L398.6,210.1 L398.5,210.1 L398.2,210.0 L398.1,210.0 L397.4,209.7 L397.2,209.6 L396.4,209.5 L396.2,209.2 L396.2,209.2 L396.2,209.2 L396.1,209.1 L396.1,209.1 L396.1,209.2 L396.0,209.2 L395.9,209.2 L395.5,209.2 L392.9,210.3 L392.9,210.3 L392.8,210.3 L392.4,209.6 L391.2,208.3 L390.5,208.8 L390.4,208.7 L390.0,208.4 L389.8,208.3 L389.8,208.5 L389.2,209.1 L388.1,208.6 L387.9,208.7 L387.8,209.0 L388.0,209.7 L386.9,210.3 L386.4,210.1 L387.1,208.6 L386.8,208.9 L386.6,208.6 L385.6,208.6 L385.2,206.0 L384.1,206.0 L381.6,206.6 L381.0,204.4 L381.0,204.4 L381.0,204.4 L381.0,204.4 L381.0,204.4 L381.0,204.4 L381.0,204.4 L381.0,204.4 L381.5,202.6 L381.4,202.3 L381.2,201.5 L381.6,200.8 L382.5,198.1 L380.6,193.6 L380.2,194.2 L378.2,194.3 L377.0,192.4 L374.4,193.9 L371.9,191.4 L371.1,190.6 L370.2,189.7 L369.3,188.8 L368.4,187.9 L368.6,187.5 L368.7,187.2 L369.2,186.7 L369.7,186.1 L369.9,185.6 L367.5,183.1 L366.8,182.4 L366.8,182.5 L367.5,181.8 L366.6,180.7 L365.5,179.3 L366.5,178.7 L362.2,170.8 L361.9,170.3 L360.2,167.1 L360.1,166.9 L359.9,166.6 L359.8,166.4 L359.7,166.3 L357.5,162.1 L357.1,160.5 L355.7,156.8 L355.7,156.8 L355.7,156.8 L361.5,153.5 L362.9,152.6 L362.9,152.6 L364.1,152.0 L364.6,151.7 L394.6,134.5 L401.6,142.2 L405.1,145.2 L411.7,148.8 L414.4,151.7 L419.3,161.0 L417.7,163.1 L420.5,167.7 L419.4,175.7 L422.1,185.5 L423.4,199.6 L426.0,207.5 L429.9,208.0 L435.3,212.6 L442.0,220.1 L445.5,221.0 L449.8,225.5 L449.3,227.6 L455.8,230.9 L464.5,233.3 L475.1,238.1 L464.5,234.3 L451.2,230.3 L447.1,226.7 L444.1,221.9 L442.3,222.7 L442.2,225.9 L440.4,226.9 L448.4,230.3 L447.3,233.3 L450.3,231.3 L460.2,236.0 L463.9,235.7 L479.2,242.8 L481.6,245.7 L487.7,241.6 L488.4,245.3 L486.9,248.9 L496.1,252.7 L502.2,251.6 L508.1,255.8 L520.3,256.0 L525.2,255.7 L527.7,252.4 L530.8,252.1 L534.2,249.6 L538.7,248.7 L530.1,258.3 L528.3,265.2 L529.4,271.4 L525.3,284.5 L525.6,289.2 L532.5,297.9 L528.4,299.7 L523.9,304.3 L525.4,305.8 L518.4,311.2 L513.9,305.4 L512.7,306.3 L504.0,294.5 L501.4,294.1 L498.1,297.4 L492.4,300.0 L487.6,292.7 L487.8,286.8 L477.1,286.6 L461.9,292.6 L452.5,295.7 L448.5,303.1 L448.1,307.3 L446.3,309.5 L443.6,307.3 L438.1,314.2 L434.3,311.9 L431.2,307.5 L428.4,308.0 L428.4,307.9 L427.2,307.5 L428.6,299.4 L429.0,294.9 L429.2,291.6 L429.4,288.4 L429.4,288.4 L427.8,288.3 L427.8,288.3 L427.8,288.2 L428.4,283.6 L427.1,283.4 L427.6,279.1 L427.6,279.1 L427.5,279.1 L428.1,273.4 L428.1,273.4 L428.1,273.4 L428.1,273.4 L427.6,273.7 L427.5,273.4 L427.4,273.3 L427.4,273.3 L427.4,273.1 L427.4,273.1 L427.4,273.1 L423.1,272.8 L421.5,272.8 L420.9,272.8 L420.2,272.8 L419.4,272.7 L418.9,272.7 L418.5,272.7 Z M477.1,242.6 L479.1,242.8 L469.0,238.4 L469.6,238.7 Z M413.8,229.0 L413.8,229.0 L413.8,229.0 L413.8,229.0 L413.8,229.0 L413.8,229.0 Z M380.9,204.3 L381.0,204.4 L381.0,204.4 L381.0,204.4 L381.0,204.4 Z M381.0,204.4 L381.0,204.4 L381.0,204.4 L381.0,204.4 L381.0,204.4 L381.0,204.4 Z">
  <desc xmlns="http://www.highcharts.com/svg/namespace">
    <name>Delfzijl</name>
    <hc-middle-x>0.61</hc-middle-x>
    <hc-middle-y>0.72</hc-middle-y>
    <hc-key>nl-gr-gm0010</hc-key>
    <hc-a2>DE</hc-a2>
  </desc>
</path>

<path fill="#CEE3F5" stroke="#6E6E6E" stroke-width="0.4" id="NL.GR.GM0003" d="M416.6,248.4 L416.4,250.7 L416.3,252.1 L416.1,254.9 L411.7,254.8 L400.7,257.2 L400.5,255.9 L395.3,255.1 L392.0,261.6 L381.8,260.4 L380.3,254.1 L375.3,256.3 L374.1,253.9 L370.3,246.9 L372.8,245.6 L370.9,240.3 L368.3,236.1 L369.9,235.0 L369.2,228.6 L370.9,226.5 L372.9,227.4 L380.3,224.7 L386.5,225.9 L389.2,222.6 L386.4,216.4 L386.9,210.3 L390.4,208.7 L391.2,208.3 L392.8,210.3 L392.9,210.3 L395.9,209.2 L396.1,209.2 L396.1,209.1 L396.2,209.2 L398.9,210.1 L403.2,211.6 L405.5,212.3 L405.6,211.9 L405.7,211.3 L405.7,211.2 L405.8,210.8 L409.6,211.4 L410.3,208.6 L410.7,207.2 L416.3,209.5 L416.3,210.0 L416.3,211.7 L416.3,212.0 L416.3,213.0 L416.2,213.2 L416.2,213.2 L415.1,215.1 L415.0,215.4 L414.5,216.2 L414.5,216.2 L414.0,224.7 L413.8,229.0 L413.8,229.0 L414.6,230.0 L414.5,231.2 L414.1,237.0 L415.1,242.1 L415.4,244.1 L416.9,243.6 Z">
  <desc xmlns="http://www.highcharts.com/svg/namespace">
    <name>Appingedam</name>
    <hc-middle-x>0.50</hc-middle-x>
    <hc-middle-y>0.50</hc-middle-y>
    <hc-key>nl-gr-gm0003</hc-key>
    <hc-a2>AP</hc-a2>
  </desc>
</path>

<path fill="#CEE3F5" stroke="#6E6E6E" stroke-width="0.4" id="NL.GR.GM0022" d="M136.3,323.5 L140.7,320.7 L141.9,318.7 L148.1,318.1 L149.4,316.9 L153.2,327.1 L155.5,330.8 L169.6,333.7 L170.9,337.0 L168.7,341.0 L159.5,344.1 L156.4,352.4 L151.5,354.2 L148.7,356.5 L136.1,360.8 L134.7,362.2 L132.7,371.3 L128.1,374.6 L125.6,378.5 L120.0,383.8 L120.3,387.8 L109.7,413.7 L107.8,427.8 L103.8,428.1 L96.0,447.0 L68.7,435.1 L64.7,414.9 L77.0,413.3 L75.9,405.2 L99.2,401.4 L97.4,391.8 L94.4,370.3 L93.0,371.1 L92.9,367.3 L98.5,364.5 L97.1,355.7 L99.3,354.9 L97.4,340.7 L92.4,344.1 L91.3,341.8 L91.3,334.2 L101.5,330.4 L107.5,331.5 L110.0,328.3 L112.8,327.0 L120.0,327.0 L121.1,324.6 L130.4,325.0 Z">
  <desc xmlns="http://www.highcharts.com/svg/namespace">
    <name>Leek</name>
    <hc-middle-x>0.53</hc-middle-x>
    <hc-middle-y>0.27</hc-middle-y>
    <hc-key>nl-gr-gm0022</hc-key>
    <hc-a2>LE</hc-a2>
  </desc>
</path>

<path fill="#CEE3F5" stroke="#6E6E6E" stroke-width="0.4" id="NL.GR.GM0017" d="M300.1,421.3 L288.5,424.3 L264.9,434.5 L266.0,432.6 L265.5,427.7 L261.9,426.2 L260.8,424.1 L261.0,418.5 L257.8,415.1 L256.3,409.9 L253.2,408.5 L253.8,405.9 L249.4,402.2 L245.7,396.9 L238.8,395.9 L237.1,387.4 L238.7,385.7 L236.7,383.9 L235.5,378.4 L225.2,383.7 L223.1,372.6 L217.1,361.1 L222.1,358.4 L222.8,360.2 L227.8,357.9 L230.4,359.7 L235.8,359.5 L236.1,356.9 L246.5,352.8 L245.0,348.6 L250.0,347.1 L269.9,358.0 L279.9,363.3 L282.4,372.2 L290.9,378.6 L294.5,383.3 L297.4,389.5 L298.0,393.1 L295.8,395.0 L297.4,399.9 Z">
  <desc xmlns="http://www.highcharts.com/svg/namespace">
    <name>Haren</name>
    <hc-middle-x>0.62</hc-middle-x>
    <hc-middle-y>0.52</hc-middle-y>
    <hc-key>nl-gr-gm0017</hc-key>
    <hc-a2>HA</hc-a2>
  </desc>
</path>

<path fill="#CEE3F5" stroke="#6E6E6E" stroke-width="0.4" id="NL.GR.GM0015" d="M0.2,397.2 L0.0,396.4 L2.3,366.8 L4.9,363.2 L9.2,351.7 L13.7,343.4 L16.1,341.8 L16.6,336.8 L21.5,335.8 L28.0,329.9 L31.4,324.5 L31.5,322.2 L34.7,318.9 L35.0,314.4 L32.3,311.5 L32.3,307.5 L26.2,302.8 L27.1,300.2 L32.6,298.8 L28.7,295.5 L32.9,293.1 L36.3,292.7 L36.0,287.6 L39.0,284.9 L37.1,282.3 L62.9,283.5 L62.1,286.1 L63.7,293.8 L77.1,291.8 L83.9,291.8 L88.2,290.3 L102.0,288.5 L101.9,290.7 L110.2,289.3 L109.6,296.0 L112.4,295.4 L112.2,299.3 L117.5,298.3 L117.0,303.3 L120.9,302.5 L121.2,305.9 L123.9,304.5 L124.7,307.1 L127.3,305.8 L132.9,315.4 L136.3,323.5 L130.4,325.0 L121.1,324.6 L120.0,327.0 L112.8,327.0 L110.0,328.3 L107.5,331.5 L101.5,330.4 L91.3,334.2 L88.6,335.5 L85.0,334.3 L85.1,338.9 L82.8,339.0 L83.0,342.0 L63.8,346.1 L64.6,351.1 L66.4,353.4 L59.2,356.0 L41.1,361.9 L41.5,363.8 L36.3,366.5 L36.5,369.2 L35.0,374.9 L32.7,376.4 L33.1,378.6 L28.5,382.2 L9.3,393.4 Z">
  <desc xmlns="http://www.highcharts.com/svg/namespace">
    <name>Grootegast</name>
    <hc-middle-x>0.45</hc-middle-x>
    <hc-middle-y>0.34</hc-middle-y>
    <hc-key>nl-gr-gm0015</hc-key>
    <hc-a2>GR</hc-a2>
  </desc>
</path>

<path fill="#CEE3F5" stroke="#6E6E6E" stroke-width="0.4" id="NL.GR.GM0025" d="M0.2,397.2 L9.3,393.4 L28.5,382.2 L33.1,378.6 L32.7,376.4 L35.0,374.9 L36.5,369.2 L36.3,366.5 L41.5,363.8 L41.1,361.9 L59.2,356.0 L66.4,353.4 L64.6,351.1 L63.8,346.1 L83.0,342.0 L82.8,339.0 L85.1,338.9 L85.0,334.3 L88.6,335.5 L91.3,334.2 L91.3,341.8 L92.4,344.1 L97.4,340.7 L99.3,354.9 L97.1,355.7 L98.5,364.5 L92.9,367.3 L93.0,371.1 L94.4,370.3 L97.4,391.8 L99.2,401.4 L75.9,405.2 L77.0,413.3 L64.7,414.9 L68.7,435.1 L65.3,433.6 L61.2,426.7 L56.2,422.4 L49.7,419.3 L47.2,418.9 L33.4,419.3 L26.6,417.6 L16.5,416.7 L7.9,406.7 L2.0,398.1 Z">
  <desc xmlns="http://www.highcharts.com/svg/namespace">
    <name>Marum</name>
    <hc-middle-x>0.57</hc-middle-x>
    <hc-middle-y>0.57</hc-middle-y>
    <hc-key>nl-gr-gm0025</hc-key>
    <hc-a2>MA</hc-a2>
  </desc>
</path>
</g>

<text x="350" y="714" text-anchor="middle" font-family="Verdana" font-size="8" stroke-opacity="0.6">Copyright (c) 2020 Highsoft AS, Based on data from Kadaster / Centraal Bureau voor de Statistiek, 2014</text>

</svg>