<?xml version="1.0" encoding="utf-8" standalone="no"?>
<!DOCTYPE svg PUBLIC "-//W3C//DTD SVG 1.1//EN" "http://www.w3.org/Graphics/SVG/1.1/DTD/svg11.dtd">

<svg version="1.1" height="700pt" width="700pt" xmlns="http://www.w3.org/2000/svg" xmlns:xlink="http://www.w3.org/1999/xlink">
<desc>
Map version: 2.1.0
Copyright (c) 2023 Highsoft AS, Based on data from Natural Earth
</desc>
<title>Togo</title>
<g id="admin1">

<g id="TG">
  <desc xmlns="http://www.highcharts.com/svg/namespace">
    <name>Togo</name>
    <labelrank>6</labelrank>
    <country-abbrev>Togo</country-abbrev>
    <subregion>Western Africa</subregion>
    <region-wb>Sub-Saharan Africa</region-wb>
    <iso-a3>TGO</iso-a3>
    <iso-a2>TG</iso-a2>
    <woe-id>23424965</woe-id>
    <continent>Africa</continent>
    <hc-key>tg</hc-key>
    <hc-a2>TO</hc-a2>
  </desc>
</g>

<path fill="#CEE3F5" stroke="#6E6E6E" stroke-width="0.4" id="TG.MA" d="M234.9,588.8 L238.2,591.9 L238.4,593.8 L237.4,599.6 L237.5,602.0 L239.9,610.6 L239.3,612.7 L236.2,616.9 L235.0,620.0 L237.7,623.1 L239.2,625.8 L238.9,629.4 L240.2,631.9 L243.5,634.6 L247.2,635.0 L247.7,637.5 L250.9,640.6 L250.7,645.0 L251.9,647.0 L256.1,649.4 L259.6,655.1 L264.9,675.7 L262.0,675.9 L244.2,680.0 L241.3,681.6 L242.3,684.5 L215.9,688.8 L193.9,695.4 L183.9,699.7 L182.0,700.0 L182.3,695.1 L180.7,692.9 L169.2,691.6 L167.3,690.6 L162.9,684.8 L159.8,683.0 L157.6,679.9 L154.0,668.8 L143.5,668.7 L138.8,666.6 L134.3,661.2 L130.9,658.9 L124.0,655.5 L121.1,652.5 L117.3,645.9 L116.4,642.5 L116.6,639.6 L123.8,638.6 L131.0,634.7 L135.1,629.3 L140.9,623.4 L142.4,619.0 L143.0,613.6 L142.7,607.0 L144.7,602.2 L150.0,600.3 L172.7,601.7 L174.1,604.0 L177.1,604.7 L178.3,606.2 L181.2,607.6 L184.4,611.8 L190.0,613.9 L197.8,606.2 L207.4,599.1 L213.3,597.5 L216.2,597.4 L221.0,598.7 L223.5,598.7 L228.4,596.6 L233.0,590.2 Z">
  <desc xmlns="http://www.highcharts.com/svg/namespace">
    <labelrank>6</labelrank>
    <hasc>TG.MA</hasc>
    <alt-name>Région Maritime</alt-name>
    <woe-id>56048437</woe-id>
    <subregion>NULL</subregion>
    <fips>TO24</fips>
    <postal-code>MA</postal-code>
    <name>Maritime</name>
    <country>Togo</country>
    <type-en>Region</type-en>
    <region>NULL</region>
    <longitude>1.24665</longitude>
    <woe-name>Maritime</woe-name>
    <latitude>6.42521</latitude>
    <woe-label>Maritime Region, TG, Togo</woe-label>
    <type>Région</type>
    <hc-middle-x>0.56</hc-middle-x>
    <hc-middle-y>0.55</hc-middle-y>
    <hc-key>tg-ma</hc-key>
    <hc-a2>MA</hc-a2>
  </desc>
</path>

<path fill="#CEE3F5" stroke="#6E6E6E" stroke-width="0.4" id="TG.KA" d="M93.4,318.0 L86.7,320.1 L89.7,315.8 L88.0,309.0 L81.5,297.6 L79.6,293.3 L81.1,289.1 L83.4,284.8 L84.2,278.1 L88.2,274.1 L89.9,271.2 L89.9,269.0 L88.2,264.0 L88.3,261.3 L92.4,257.7 L94.6,244.8 L93.8,241.6 L91.3,239.4 L87.2,237.9 L88.4,234.6 L87.3,232.0 L80.0,229.2 L77.4,228.8 L71.8,229.1 L66.6,230.5 L65.5,234.4 L63.9,236.4 L57.6,238.6 L52.4,238.8 L51.8,236.9 L53.0,235.3 L52.1,231.1 L57.8,230.0 L61.7,228.0 L61.1,225.1 L55.6,225.6 L51.5,222.7 L52.5,217.0 L59.4,217.8 L62.7,217.7 L65.2,216.1 L69.6,217.8 L71.8,217.2 L72.8,215.3 L71.6,212.4 L68.9,211.8 L63.3,213.2 L59.0,212.7 L56.9,209.8 L56.8,205.7 L58.8,201.8 L62.4,205.7 L64.7,207.0 L67.2,206.7 L69.1,202.6 L68.1,198.0 L65.6,194.0 L65.4,191.4 L68.4,180.7 L67.9,173.5 L69.3,169.5 L72.2,165.6 L69.4,158.6 L70.2,155.6 L69.4,154.3 L74.0,154.2 L75.6,153.4 L77.4,155.4 L79.3,159.2 L79.3,163.1 L86.2,166.1 L92.1,166.5 L92.2,169.5 L93.4,171.9 L96.9,175.2 L99.3,175.8 L103.0,174.7 L109.1,174.4 L111.9,175.6 L114.6,175.5 L114.8,172.7 L113.1,166.6 L115.9,159.2 L116.0,153.0 L118.3,147.1 L122.4,141.4 L123.4,138.4 L122.8,135.1 L125.0,133.9 L129.2,134.2 L133.0,137.0 L138.7,133.8 L145.0,135.3 L147.4,133.2 L154.4,133.7 L156.2,132.6 L158.6,128.8 L204.4,159.6 L206.1,164.4 L206.5,201.6 L207.6,208.1 L206.9,215.3 L203.6,220.8 L203.4,225.5 L204.8,228.8 L206.8,230.9 L209.2,229.8 L210.7,233.7 L211.6,247.8 L213.6,253.3 L216.2,257.4 L210.7,261.7 L208.2,263.0 L205.7,262.9 L186.7,268.2 L182.3,268.2 L175.5,266.7 L173.4,266.7 L163.0,268.0 L158.3,269.1 L156.7,271.8 L156.2,275.0 L156.4,282.7 L158.3,287.4 L157.6,289.0 L151.4,294.6 L149.1,295.6 L141.5,296.9 L133.1,295.5 L128.7,293.8 L126.7,290.8 L121.7,290.5 L120.4,291.0 L118.2,294.4 L115.3,296.4 L112.8,299.2 L108.0,301.0 L106.6,305.3 L101.0,308.9 L100.1,311.0 L101.3,312.5 L100.7,314.4 L96.1,315.5 Z">
  <desc xmlns="http://www.highcharts.com/svg/namespace">
    <labelrank>6</labelrank>
    <hasc>TG.KA</hasc>
    <alt-name>Région de la Kara</alt-name>
    <woe-id>56048435</woe-id>
    <subregion>NULL</subregion>
    <fips>TO23</fips>
    <postal-code>KA</postal-code>
    <name>Kara</name>
    <country>Togo</country>
    <type-en>Region</type-en>
    <region>NULL</region>
    <longitude>0.8213510000000001</longitude>
    <woe-name>Kara</woe-name>
    <latitude>9.58879</latitude>
    <woe-label>Kara Region, TG, Togo</woe-label>
    <type>Région</type>
    <hc-middle-x>0.50</hc-middle-x>
    <hc-middle-y>0.46</hc-middle-y>
    <hc-key>tg-ka</hc-key>
    <hc-a2>KA</hc-a2>
  </desc>
</path>

<path fill="#CEE3F5" stroke="#6E6E6E" stroke-width="0.4" id="TG.CE" d="M102.3,450.9 L101.0,441.7 L101.1,433.9 L99.8,428.7 L98.7,418.8 L101.2,415.2 L101.0,413.2 L99.0,411.0 L98.6,407.8 L101.5,406.6 L108.4,400.9 L116.8,396.9 L117.8,394.8 L117.3,391.4 L114.6,390.2 L114.1,383.1 L108.8,378.6 L107.1,373.4 L104.7,368.3 L95.6,364.0 L92.1,361.3 L86.4,355.5 L80.9,351.7 L75.5,344.0 L71.5,335.3 L70.3,328.4 L71.3,327.1 L74.7,327.4 L76.1,330.6 L79.2,325.6 L83.7,326.6 L85.2,325.8 L86.6,320.1 L93.4,318.0 L96.1,315.5 L100.7,314.4 L101.3,312.5 L100.1,311.0 L101.0,308.9 L106.6,305.3 L108.0,301.0 L112.8,299.2 L115.3,296.4 L118.2,294.4 L120.4,291.0 L121.7,290.5 L126.7,290.8 L128.7,293.8 L133.1,295.5 L141.5,296.9 L149.1,295.6 L151.4,294.6 L157.6,289.0 L158.3,287.4 L156.4,282.7 L156.2,275.0 L156.7,271.8 L158.3,269.1 L163.0,268.0 L173.4,266.7 L175.5,266.7 L182.3,268.2 L186.7,268.2 L205.7,262.9 L208.2,263.0 L210.7,261.7 L216.2,257.4 L216.9,258.5 L236.4,279.0 L239.2,284.0 L241.0,291.1 L241.6,359.2 L242.5,362.4 L246.1,366.9 L246.1,370.7 L241.6,378.2 L240.6,385.2 L241.0,385.8 L190.3,384.9 L189.5,388.3 L189.3,394.3 L190.5,397.8 L191.5,403.2 L191.2,405.6 L193.4,409.0 L194.0,413.8 L192.9,418.5 L191.9,429.2 L190.0,433.1 L190.6,436.5 L186.4,439.4 L182.2,440.7 L170.5,443.0 L163.7,442.4 L161.2,441.4 L151.8,439.6 L138.5,441.2 L134.5,440.9 L133.1,443.0 L130.6,444.1 L119.5,445.5 L112.1,449.8 Z">
  <desc xmlns="http://www.highcharts.com/svg/namespace">
    <labelrank>6</labelrank>
    <hasc>TG.CE</hasc>
    <alt-name>Région Centrale, Région du Centre</alt-name>
    <woe-id>56048436</woe-id>
    <subregion>NULL</subregion>
    <fips>TO22</fips>
    <postal-code>CE</postal-code>
    <name>Centre</name>
    <country>Togo</country>
    <type-en>Region</type-en>
    <region>NULL</region>
    <longitude>1.00462</longitude>
    <woe-name>Centre</woe-name>
    <latitude>8.5878</latitude>
    <woe-label>Centrale Region, TG, Togo</woe-label>
    <type>Région</type>
    <hc-middle-x>0.55</hc-middle-x>
    <hc-middle-y>0.47</hc-middle-y>
    <hc-key>tg-ce</hc-key>
    <hc-a2>CE</hc-a2>
  </desc>
</path>

<path fill="#CEE3F5" stroke="#6E6E6E" stroke-width="0.4" id="TG.SA" d="M158.6,128.8 L156.2,132.6 L154.4,133.7 L147.4,133.2 L145.0,135.3 L138.7,133.8 L133.0,137.0 L129.2,134.2 L125.0,133.9 L122.8,135.1 L123.4,138.4 L122.4,141.4 L118.3,147.1 L116.0,153.0 L115.9,159.2 L113.1,166.6 L114.8,172.7 L114.6,175.5 L111.9,175.6 L109.1,174.4 L103.0,174.7 L99.3,175.8 L96.9,175.2 L93.4,171.9 L92.2,169.5 L92.1,166.5 L86.2,166.1 L79.3,163.1 L79.3,159.2 L77.4,155.4 L75.6,153.4 L75.7,148.3 L71.4,145.8 L70.1,142.2 L70.9,132.4 L70.7,127.7 L72.8,121.5 L76.2,119.0 L72.1,116.0 L64.1,117.0 L65.3,114.2 L61.6,109.8 L60.1,107.3 L60.7,103.1 L57.9,101.4 L53.8,102.8 L48.9,101.1 L47.5,103.2 L46.1,102.8 L39.2,89.7 L37.1,87.4 L29.8,82.8 L27.1,78.3 L24.8,76.2 L20.5,74.8 L17.5,72.4 L14.3,71.9 L10.0,69.8 L8.6,66.9 L8.7,64.0 L10.1,58.5 L10.9,52.7 L13.9,47.9 L17.9,44.9 L17.4,39.3 L20.5,25.4 L24.5,21.3 L25.3,14.6 L24.9,10.3 L22.9,7.0 L18.3,5.2 L15.7,5.3 L8.5,6.7 L3.2,4.4 L1.0,2.3 L0.0,0.0 L89.3,19.1 L88.9,22.4 L91.1,23.0 L89.4,28.9 L106.6,23.0 L115.2,21.4 L146.2,21.0 L142.6,29.6 L142.2,32.3 L143.9,38.1 L141.7,42.2 L140.7,48.3 L139.0,50.8 L131.4,57.9 L129.4,62.5 L130.4,75.0 L130.3,80.4 L128.2,88.2 L126.2,102.4 L126.3,105.6 L127.4,107.7 Z">
  <desc xmlns="http://www.highcharts.com/svg/namespace">
    <labelrank>6</labelrank>
    <hasc>TG.SA</hasc>
    <alt-name>Région des Savanes</alt-name>
    <woe-id>56048434</woe-id>
    <subregion>NULL</subregion>
    <fips>TO26</fips>
    <postal-code>SA</postal-code>
    <name>Savanes</name>
    <country>Togo</country>
    <type-en>Region</type-en>
    <region>NULL</region>
    <longitude>0.415303</longitude>
    <woe-name>Savanes</woe-name>
    <latitude>10.5136</latitude>
    <woe-label>Savanes Region, TG, Togo</woe-label>
    <type>Région</type>
    <hc-middle-x>0.49</hc-middle-x>
    <hc-middle-y>0.35</hc-middle-y>
    <hc-key>tg-sa</hc-key>
    <hc-a2>SA</hc-a2>
  </desc>
</path>

<path fill="#CEE3F5" stroke="#6E6E6E" stroke-width="0.4" id="TG.PL" d="M241.0,385.8 L242.5,387.3 L244.0,399.2 L243.2,437.2 L243.4,575.9 L240.9,576.6 L230.4,576.5 L233.1,586.4 L234.9,588.8 L233.0,590.2 L228.4,596.6 L223.5,598.7 L221.0,598.7 L216.2,597.4 L213.3,597.5 L207.4,599.1 L197.8,606.2 L190.0,613.9 L184.4,611.8 L181.2,607.6 L178.3,606.2 L177.1,604.7 L174.1,604.0 L172.7,601.7 L150.0,600.3 L144.7,602.2 L142.7,607.0 L143.0,613.6 L142.4,619.0 L140.9,623.4 L135.1,629.3 L131.0,634.7 L123.8,638.6 L116.6,639.6 L118.6,634.4 L116.9,632.7 L110.4,632.4 L109.2,630.2 L105.5,627.1 L104.7,624.2 L105.9,617.2 L104.6,612.7 L100.2,609.4 L97.8,608.9 L93.0,600.2 L89.9,598.1 L90.4,593.8 L93.4,589.0 L93.7,586.6 L92.1,583.7 L88.2,580.6 L86.6,578.5 L96.5,576.3 L98.3,575.3 L101.0,570.5 L101.1,564.5 L100.5,558.2 L101.0,552.8 L104.4,544.5 L105.8,538.1 L107.6,533.0 L107.8,530.0 L105.6,520.9 L104.7,519.7 L99.6,521.5 L94.4,521.6 L90.0,517.8 L87.8,511.6 L87.2,504.8 L87.7,496.7 L90.5,492.2 L96.5,489.9 L97.2,488.0 L97.7,479.9 L99.5,477.1 L103.5,477.8 L103.1,475.1 L103.4,467.8 L102.2,459.9 L102.3,450.9 L112.1,449.8 L119.5,445.5 L130.6,444.1 L133.1,443.0 L134.5,440.9 L138.5,441.2 L151.8,439.6 L161.2,441.4 L163.7,442.4 L170.5,443.0 L182.2,440.7 L186.4,439.4 L190.6,436.5 L190.0,433.1 L191.9,429.2 L192.9,418.5 L194.0,413.8 L193.4,409.0 L191.2,405.6 L191.5,403.2 L190.5,397.8 L189.3,394.3 L189.5,388.3 L190.3,384.9 Z">
  <desc xmlns="http://www.highcharts.com/svg/namespace">
    <labelrank>6</labelrank>
    <hasc>TG.PL</hasc>
    <alt-name>Région des Plateaux</alt-name>
    <woe-id>56048438</woe-id>
    <subregion>NULL</subregion>
    <fips>TO25</fips>
    <postal-code>PL</postal-code>
    <name>Plateaux</name>
    <country>Togo</country>
    <type-en>Region</type-en>
    <region>NULL</region>
    <longitude>1.05973</longitude>
    <woe-name>Plateaux</woe-name>
    <latitude>7.38285</latitude>
    <woe-label>Plateaux Region, TG, Togo</woe-label>
    <type>Région</type>
    <hc-middle-x>0.49</hc-middle-x>
    <hc-middle-y>0.51</hc-middle-y>
    <hc-key>tg-pl</hc-key>
    <hc-a2>PL</hc-a2>
  </desc>
</path>
</g>

<text x="350" y="714" text-anchor="middle" font-family="Verdana" font-size="8" stroke-opacity="0.6">Copyright (c) 2023 Highsoft AS, Based on data from Natural Earth</text>

</svg>