<?xml version="1.0" encoding="utf-8" standalone="no"?>
<!DOCTYPE svg PUBLIC "-//W3C//DTD SVG 1.1//EN" "http://www.w3.org/Graphics/SVG/1.1/DTD/svg11.dtd">

<svg version="1.1" height="700pt" width="700pt" xmlns="http://www.w3.org/2000/svg" xmlns:xlink="http://www.w3.org/1999/xlink">
<desc>
Map version: 1.1.3
Copyright (c) 2020 Highsoft AS, Based on data from Natural Earth
</desc>
<title>Fiji</title>
<g id="admin1">

<g id="FJ">
  <desc xmlns="http://www.highcharts.com/svg/namespace">
    <name>Fiji</name>
    <labelrank>6</labelrank>
    <country-abbrev>Fiji</country-abbrev>
    <subregion>Melanesia</subregion>
    <region-wb>East Asia &amp; Pacific</region-wb>
    <iso-a3>FJI</iso-a3>
    <iso-a2>FJ</iso-a2>
    <woe-id>23424813</woe-id>
    <continent>Oceania</continent>
    <hc-key>fj</hc-key>
    <hc-a2>FI</hc-a2>
  </desc>
</g>

<path fill="#CEE3F5" stroke="#6E6E6E" stroke-width="0.4" id="FJ.5722" d="M412.1,6.2 L411.5,7.1 L409.5,6.7 L407.3,4.7 L404.1,3.1 L401.7,2.9 L401.2,2.4 L400.1,0.7 L400.7,0.0 L408.8,3.4 L410.7,4.7 Z">
  <desc xmlns="http://www.highcharts.com/svg/namespace">
    <labelrank>20</labelrank>
    <hasc>-99</hasc>
    <alt-name>NULL</alt-name>
    <woe-id>-99</woe-id>
    <subregion>NULL</subregion>
    <fips>NULL</fips>
    <postal-code>NULL</postal-code>
    <name>NULL</name>
    <country>Fiji</country>
    <type-en>NULL</type-en>
    <region>NULL</region>
    <longitude>-179.912</longitude>
    <woe-name>NULL</woe-name>
    <latitude>-15.7332</latitude>
    <woe-label>NULL</woe-label>
    <type>NULL</type>
    <hc-middle-x>0.50</hc-middle-x>
    <hc-middle-y>0.49</hc-middle-y>
    <hc-key>fj-5722</hc-key>
    <hc-a2>NU</hc-a2>
  </desc>
</path>

<path fill="#CEE3F5" stroke="#6E6E6E" stroke-width="0.4" id="FJ.2561" d="M142.3,379.5 L140.2,380.1 L137.8,378.4 L139.5,377.8 L138.8,376.5 L139.3,375.8 L139.6,373.6 L140.3,371.1 L141.8,370.7 L143.3,371.9 L144.1,374.5 L143.7,377.5 Z M183.2,258.2 L185.6,258.3 L187.3,258.6 L189.7,260.3 L193.3,265.3 L194.3,266.4 L197.2,266.7 L200.0,267.7 L202.4,269.5 L204.0,272.2 L204.1,275.7 L202.7,278.3 L201.1,280.7 L200.2,283.2 L199.3,287.0 L199.8,288.1 L203.4,290.8 L204.0,291.4 L204.1,293.1 L203.6,294.6 L203.5,296.1 L204.8,297.3 L206.5,296.6 L207.4,297.1 L207.2,298.1 L205.8,299.1 L207.5,299.8 L208.4,300.8 L208.6,302.3 L207.7,304.0 L205.8,303.0 L206.8,306.0 L202.5,307.1 L203.0,311.1 L205.5,315.4 L207.2,317.4 L209.9,317.7 L211.0,318.4 L211.8,319.6 L213.2,321.3 L214.1,323.1 L215.5,323.2 L216.4,322.9 L217.1,322.0 L217.9,320.3 L218.7,320.3 L218.4,321.3 L217.0,324.2 L217.0,327.5 L216.4,329.5 L215.1,331.4 L213.6,332.9 L212.3,333.9 L205.5,337.3 L202.2,340.6 L202.2,337.7 L198.3,339.3 L196.7,339.6 L198.3,337.3 L198.4,336.8 L197.7,335.4 L196.4,335.2 L195.2,334.3 L193.9,334.1 L190.1,336.2 L188.3,336.8 L188.6,339.6 L186.3,341.4 L183.3,342.2 L181.9,342.1 L182.2,339.2 L179.7,336.7 L178.6,336.1 L177.2,335.8 L175.5,335.8 L176.3,336.8 L174.9,338.9 L172.6,339.7 L172.7,339.3 L171.6,338.0 L169.9,338.0 L166.5,339.2 L164.6,341.3 L163.0,341.7 L160.3,342.1 L158.8,343.6 L158.3,344.4 L157.6,346.5 L157.0,347.4 L155.8,348.1 L153.0,349.1 L151.9,349.9 L148.0,354.5 L145.7,356.5 L143.2,357.1 L142.1,357.1 L141.3,358.1 L138.3,355.3 L128.3,358.9 L123.9,358.2 L121.1,357.9 L120.2,357.2 L119.3,358.1 L117.7,359.1 L115.8,359.5 L114.2,358.7 L112.5,358.4 L110.5,359.6 L108.9,360.2 L108.2,357.8 L107.7,357.1 L106.7,357.4 L104.2,359.1 L103.4,358.8 L100.8,356.5 L99.8,354.8 L93.9,353.2 L95.0,351.4 L95.4,349.6 L95.8,345.7 L96.6,343.7 L99.6,339.1 L99.7,338.2 L98.6,337.4 L95.4,337.3 L93.7,336.8 L92.8,335.2 L92.0,332.4 L91.9,329.9 L92.5,328.9 L94.3,326.2 L95.0,324.9 L95.9,322.1 L96.8,320.7 L98.0,319.7 L100.5,319.0 L103.8,319.1 L114.2,321.8 L117.2,321.6 L120.3,320.8 L122.6,319.3 L123.9,315.1 L123.5,313.1 L121.1,310.8 L121.0,309.6 L121.9,306.6 L121.6,305.4 L119.7,303.4 L119.0,302.4 L119.2,300.4 L120.8,297.3 L121.1,295.5 L121.6,294.6 L127.8,287.7 L130.7,285.3 L133.4,283.9 L135.1,282.2 L136.0,280.9 L136.1,278.5 L134.8,277.6 L133.8,277.7 L131.3,279.2 L130.1,280.3 L126.1,284.8 L124.8,285.7 L123.9,285.5 L123.5,284.3 L123.7,276.5 L124.0,275.1 L124.7,273.7 L126.6,270.8 L127.1,269.5 L127.2,266.9 L126.2,264.2 L125.9,262.7 L126.2,261.5 L126.9,260.8 L128.3,261.3 L129.5,262.3 L132.4,265.6 L135.9,271.3 L138.2,273.5 L139.5,274.3 L141.5,274.9 L144.0,275.1 L151.5,274.9 L155.8,273.8 L158.0,273.1 L159.4,271.9 L159.8,271.2 L160.1,269.4 L160.9,268.4 L162.9,269.0 L166.2,271.4 L168.8,272.0 L171.4,271.9 L173.5,272.4 L177.7,274.2 L179.2,274.5 L180.3,274.2 L181.2,273.2 L181.8,271.8 L183.0,265.5 L183.2,259.3 Z">
  <desc xmlns="http://www.highcharts.com/svg/namespace">
    <labelrank>7</labelrank>
    <hasc>FJ.CE</hasc>
    <alt-name>NULL</alt-name>
    <woe-id>2345335</woe-id>
    <subregion>NULL</subregion>
    <fips>FJ01</fips>
    <postal-code>NULL</postal-code>
    <name>Central</name>
    <country>Fiji</country>
    <type-en>Division</type-en>
    <region>NULL</region>
    <longitude>178.132</longitude>
    <woe-name>Central</woe-name>
    <latitude>-18.3823</latitude>
    <woe-label>Central, FJ, Fiji</woe-label>
    <type>Division</type>
    <hc-middle-x>0.58</hc-middle-x>
    <hc-middle-y>0.36</hc-middle-y>
    <hc-key>fj-2561</hc-key>
    <hc-a2>CE</hc-a2>
  </desc>
</path>

<path fill="#CEE3F5" stroke="#6E6E6E" stroke-width="0.4" id="FJ.2560" d="M559.7,699.3 L560.7,700.0 L559.2,699.9 L558.2,699.0 L557.7,698.0 L557.8,697.0 L558.5,695.9 L558.6,697.1 L559.0,698.3 Z M627.6,582.3 L626.6,584.0 L626.1,583.3 L626.4,582.4 L628.1,580.5 Z M603.9,489.4 L602.6,490.4 L602.2,489.7 L602.5,488.8 L605.1,484.1 L606.2,483.2 L606.6,485.9 L606.2,488.6 L605.2,489.3 Z M364.0,486.3 L364.6,488.5 L360.6,489.5 L359.0,489.6 L357.1,489.3 L356.5,488.7 L356.3,487.5 L357.5,486.9 L358.0,485.6 L360.9,486.6 L360.0,484.4 L358.7,482.2 L358.5,480.5 L361.3,479.8 L362.8,480.9 L363.5,483.4 Z M583.9,481.7 L580.0,482.2 L580.8,484.2 L582.9,486.2 L585.3,487.4 L587.3,487.1 L586.8,489.9 L584.2,489.6 L579.5,487.0 L578.4,485.6 L578.8,482.9 L580.9,480.6 L584.7,480.3 Z M534.4,460.2 L532.6,462.4 L530.3,462.3 L528.9,459.2 L529.4,456.1 L530.9,454.0 L532.8,453.8 L534.4,456.3 Z M174.7,451.6 L175.7,453.5 L180.1,453.7 L181.1,455.9 L182.2,455.8 L187.0,456.7 L188.5,457.3 L189.5,459.1 L190.2,461.7 L190.0,464.1 L187.2,465.5 L185.2,466.8 L184.3,466.0 L182.9,465.6 L180.3,465.1 L180.9,466.3 L180.9,467.4 L180.4,468.3 L179.3,468.9 L177.8,468.5 L174.7,468.3 L171.5,468.4 L169.2,468.9 L170.2,465.1 L168.1,465.8 L166.4,465.1 L168.2,463.2 L164.7,461.8 L161.2,463.3 L155.5,468.0 L153.4,468.6 L151.3,468.6 L149.7,469.0 L149.0,470.4 L149.0,473.4 L148.8,474.0 L148.2,472.0 L146.9,473.0 L146.4,474.6 L146.7,476.0 L147.7,476.7 L149.7,477.1 L150.3,478.3 L150.0,481.9 L149.6,482.9 L148.7,483.8 L147.5,484.4 L146.4,484.4 L145.2,483.5 L145.0,482.3 L145.4,478.6 L143.4,480.2 L142.7,480.5 L140.8,480.6 L139.5,482.0 L138.8,483.2 L137.9,484.1 L135.9,484.4 L133.8,484.1 L130.3,482.7 L128.6,482.4 L125.7,484.3 L124.1,484.5 L123.5,482.5 L122.5,482.5 L121.5,483.1 L120.1,482.8 L117.1,480.7 L121.1,476.6 L123.5,475.7 L126.2,476.8 L127.6,475.6 L128.0,472.5 L129.1,471.0 L130.5,470.3 L132.0,470.3 L139.5,472.2 L140.8,472.0 L141.6,471.0 L142.2,468.2 L143.6,467.1 L145.4,468.5 L146.6,467.3 L147.1,464.7 L147.1,462.2 L149.0,459.1 L153.8,457.2 L159.1,456.9 L162.8,458.4 L163.9,454.4 L164.8,453.7 L166.9,453.6 L167.5,453.3 L168.6,452.0 L169.7,451.7 L172.2,452.3 L173.3,452.4 Z M416.4,452.7 L419.8,456.7 L416.9,461.0 L415.8,456.2 L413.0,455.7 L410.7,457.7 L410.9,460.5 L412.1,463.2 L410.2,463.7 L408.4,462.0 L411.4,452.1 Z M195.5,448.2 L195.0,449.6 L193.2,449.0 L191.5,451.8 L190.3,451.6 L186.7,449.1 L187.0,447.5 L188.2,445.3 L188.5,444.3 L189.9,442.9 L192.6,442.1 L194.7,442.5 L194.0,444.8 L195.1,445.9 L195.6,447.0 Z M536.8,447.9 L534.6,447.6 L537.8,445.1 L539.6,444.2 L541.5,443.8 L539.6,446.3 L537.8,447.6 Z M594.2,417.3 L593.1,418.0 L591.9,417.9 L590.7,415.7 L591.4,414.0 L593.0,413.5 L594.5,414.6 L594.7,416.0 Z M377.1,407.7 L378.0,408.8 L379.9,408.0 L380.5,408.0 L381.0,409.6 L378.4,411.7 L378.3,414.6 L375.8,415.2 L374.4,412.8 L374.4,410.4 L372.9,409.3 L371.9,407.9 L369.2,406.4 L368.9,404.8 L371.6,403.6 L376.7,401.7 L382.0,400.5 L384.1,400.3 L385.3,402.0 L384.2,403.7 L381.0,404.4 L379.5,405.8 Z M558.3,358.3 L553.7,358.3 L552.5,357.9 L550.1,356.3 L547.3,354.2 L550.1,350.2 L554.9,347.9 L558.0,350.6 L560.3,352.3 L560.7,354.9 L559.9,357.3 Z M523.1,323.7 L520.7,324.3 L518.9,323.3 L517.6,321.7 L516.3,318.5 L519.0,316.5 L520.2,317.0 L522.7,318.5 L523.1,321.8 Z M299.7,314.2 L302.9,320.1 L304.1,321.4 L306.1,325.2 L306.4,332.8 L304.7,338.3 L300.7,335.9 L299.4,334.2 L298.4,330.3 L297.6,328.7 L295.0,325.4 L294.1,323.8 L293.5,321.4 L293.0,322.9 L293.3,325.8 L293.0,326.7 L291.8,327.1 L291.1,326.1 L290.6,322.0 L290.8,318.0 L289.2,315.2 L288.9,313.8 L290.4,314.6 L291.3,314.7 L294.2,312.3 L297.6,312.8 Z M625.2,319.3 L621.5,319.5 L618.5,318.7 L614.3,316.9 L613.6,312.4 L616.4,308.5 L622.4,308.1 L624.0,309.0 L626.4,310.8 L628.6,313.1 L629.6,315.5 L628.2,318.0 Z M315.7,299.3 L314.5,300.6 L313.8,299.9 L312.9,297.4 L311.9,296.1 L310.8,294.4 L310.4,292.5 L311.1,290.7 L313.4,291.9 L315.7,292.6 L315.5,293.7 L314.8,294.5 L315.6,296.7 L315.9,298.1 Z M489.4,289.1 L487.3,291.1 L483.8,290.5 L482.0,288.8 L482.2,286.2 L484.1,284.1 L487.1,283.9 L489.6,286.2 Z M227.9,288.5 L227.0,290.6 L226.1,289.5 L225.1,290.2 L224.3,290.0 L223.6,289.1 L221.8,288.8 L219.8,283.4 L218.9,280.8 L220.6,282.7 L222.8,286.2 L225.6,288.0 Z M228.6,284.9 L226.3,285.9 L225.0,283.5 L222.5,275.5 L224.1,271.3 L227.5,269.2 L228.3,268.4 L230.4,267.8 L232.9,269.3 L234.7,274.4 L235.0,276.4 L235.4,278.3 L234.6,281.9 L233.7,283.3 Z M263.1,273.1 L262.1,273.1 L261.5,271.4 L260.8,270.2 L259.7,269.2 L258.4,268.2 L257.3,266.3 L257.4,264.8 L258.6,264.2 L260.3,265.3 L261.2,266.7 L262.8,271.1 Z M509.3,248.3 L506.6,248.6 L504.5,246.7 L504.1,244.1 L505.4,242.2 L508.2,242.0 L509.6,243.6 L510.1,246.2 Z M510.4,221.3 L509.3,222.2 L507.9,222.0 L506.8,220.7 L506.9,218.0 L508.3,217.2 L510.0,217.8 L510.8,219.6 Z M314.1,233.8 L310.5,236.7 L309.5,235.9 L309.5,227.5 L309.2,225.2 L308.6,223.2 L307.6,221.2 L308.0,219.4 L307.9,217.5 L308.9,216.0 L314.4,215.2 L315.7,214.8 L316.9,214.9 L318.3,216.0 L318.3,216.8 L318.8,221.8 L318.5,225.4 L317.6,228.6 L316.2,231.3 Z M530.6,224.1 L530.0,226.7 L528.0,225.1 L528.4,222.4 L530.1,219.7 L531.9,218.1 L531.4,216.3 L532.1,215.5 L533.2,215.0 L533.8,214.2 L533.8,212.3 L533.6,211.5 L530.7,209.6 L527.7,209.1 L526.5,208.4 L526.0,207.3 L525.6,203.5 L527.5,204.3 L528.7,205.9 L530.2,207.3 L533.0,207.5 L537.3,209.6 L539.4,211.0 L540.3,212.9 L538.2,217.4 L538.0,218.2 L535.4,219.1 L532.7,221.3 Z">
  <desc xmlns="http://www.highcharts.com/svg/namespace">
    <labelrank>7</labelrank>
    <hasc>FJ.CE</hasc>
    <alt-name>NULL</alt-name>
    <woe-id>2345336</woe-id>
    <subregion>NULL</subregion>
    <fips>FJ02</fips>
    <postal-code>NULL</postal-code>
    <name>Eastern</name>
    <country>Fiji</country>
    <type-en>Division</type-en>
    <region>NULL</region>
    <longitude>-178.72</longitude>
    <woe-name>Eastern</woe-name>
    <latitude>-20.6657</latitude>
    <woe-label>Eastern, FJ, Fiji</woe-label>
    <type>Division</type>
    <hc-middle-x>0.11</hc-middle-x>
    <hc-middle-y>0.52</hc-middle-y>
    <hc-key>fj-2560</hc-key>
    <hc-a2>EA</hc-a2>
  </desc>
</path>

<path fill="#CEE3F5" stroke="#6E6E6E" stroke-width="0.4" id="FJ.2569" d="M162.2,151.6 L163.8,151.8 L167.5,151.8 L167.0,154.7 L167.8,156.2 L167.5,156.7 L163.9,156.6 L161.6,157.5 L160.6,155.8 L160.2,150.8 L161.1,150.8 Z M382.2,132.8 L377.6,132.7 L381.4,131.5 L381.3,129.5 L381.8,129.0 L384.6,128.5 L386.0,127.6 L386.9,126.1 L387.0,129.0 L386.3,131.2 L384.7,132.6 Z M206.6,120.7 L205.7,122.2 L204.4,123.3 L202.5,123.9 L200.0,123.7 L198.6,123.2 L198.2,122.7 L202.0,120.7 L203.1,121.5 L204.3,121.7 L205.4,121.4 Z M309.1,87.9 L306.9,88.1 L304.6,87.9 L302.4,87.1 L302.4,86.1 L307.1,86.2 L309.0,86.5 L310.8,87.1 Z M393.3,151.1 L394.7,149.1 L404.8,138.4 L407.3,136.9 L410.1,136.1 L411.8,136.6 L413.0,138.2 L414.2,142.2 L414.7,144.6 L414.7,146.1 L416.4,147.1 L417.6,148.2 L418.3,149.4 L417.6,150.5 L412.7,155.2 L411.4,157.7 L411.0,159.0 L410.7,162.3 L409.3,162.3 L408.1,162.8 L399.8,168.1 L395.5,171.8 L393.2,176.3 L392.1,177.8 L390.6,179.1 L388.6,180.3 L386.9,181.1 L385.2,181.5 L383.5,181.5 L382.0,181.1 L381.3,178.8 L378.8,176.6 L378.3,174.7 L379.0,172.7 L380.6,171.0 L383.9,168.5 L388.8,161.3 L389.6,159.4 L390.2,157.1 Z M393.6,109.6 L394.8,107.5 L398.4,105.0 L399.2,103.5 L400.3,103.0 L405.6,101.4 L407.5,101.2 L407.5,102.1 L405.7,102.7 L406.7,104.0 L406.7,105.1 L404.5,105.8 L403.3,105.9 L402.7,106.5 L402.1,107.8 L402.1,109.2 L403.3,109.8 L404.2,110.7 L402.4,112.5 L400.1,114.2 L393.5,116.7 L391.8,116.9 L391.4,116.3 L391.4,115.2 L391.8,113.5 Z M393.9,64.4 L385.4,72.1 L384.3,72.5 L381.9,72.6 L380.7,73.0 L379.6,74.1 L378.4,76.3 L377.4,77.4 L375.5,79.1 L374.5,80.3 L374.6,80.8 L373.5,81.4 L371.7,84.7 L366.3,92.4 L363.9,94.1 L363.9,97.1 L361.5,101.3 L358.1,105.0 L355.0,106.6 L352.0,107.5 L339.0,116.3 L338.1,117.0 L336.8,120.1 L336.6,121.8 L336.7,124.0 L336.4,126.3 L335.3,128.3 L333.8,129.6 L330.3,131.8 L328.8,133.0 L326.5,136.4 L325.7,136.9 L323.5,137.8 L322.7,138.3 L324.1,139.8 L324.5,142.3 L324.1,144.9 L322.7,147.0 L323.7,148.0 L325.8,146.4 L328.3,145.7 L330.6,146.2 L332.1,148.1 L334.0,146.5 L337.1,142.9 L339.1,142.3 L340.4,142.0 L342.1,141.3 L343.6,140.3 L344.7,137.0 L346.0,136.3 L348.8,135.6 L349.8,132.6 L352.5,131.8 L353.5,130.2 L355.0,126.7 L355.9,125.4 L357.1,124.7 L359.5,123.8 L360.5,121.6 L361.7,120.9 L363.8,120.2 L368.3,117.3 L370.9,115.1 L372.1,112.9 L373.4,112.0 L380.5,108.7 L382.4,106.2 L383.3,105.8 L385.4,105.7 L385.8,106.3 L385.8,107.5 L387.3,110.9 L386.7,112.2 L384.9,114.4 L383.3,118.4 L378.6,127.0 L378.7,129.3 L378.0,130.1 L375.8,130.0 L372.9,133.7 L376.5,134.0 L378.8,135.6 L380.0,138.3 L380.3,141.5 L382.2,141.4 L384.6,141.9 L386.6,143.3 L386.8,145.5 L385.5,146.4 L383.4,146.0 L379.3,144.4 L381.2,148.3 L378.5,147.3 L376.5,148.8 L374.9,148.1 L374.1,146.3 L374.7,144.4 L369.8,144.2 L367.9,143.3 L366.5,141.4 L363.7,142.4 L360.7,142.2 L358.2,141.6 L356.3,141.4 L354.9,142.0 L352.7,143.8 L351.1,144.2 L349.4,144.3 L348.1,144.6 L347.2,145.4 L346.8,147.1 L346.0,145.3 L345.1,145.3 L343.6,148.1 L338.7,151.3 L336.7,153.9 L334.4,151.7 L331.6,151.5 L326.0,152.9 L321.7,153.0 L319.3,153.5 L317.2,154.7 L312.5,153.1 L308.7,152.9 L298.0,153.7 L299.5,152.4 L300.4,150.4 L301.6,148.7 L304.1,147.8 L305.9,146.9 L305.1,145.1 L305.4,143.1 L303.8,142.1 L299.6,141.2 L296.2,138.5 L293.9,137.2 L292.9,137.8 L291.5,137.8 L281.1,141.8 L278.5,143.5 L274.5,146.9 L275.3,149.3 L274.5,151.2 L272.7,152.7 L270.8,153.7 L266.7,152.5 L263.8,156.0 L260.5,166.0 L263.9,163.9 L265.4,163.6 L268.0,164.1 L266.7,165.8 L262.8,168.5 L261.4,170.0 L260.5,170.0 L258.7,169.2 L253.4,167.6 L251.6,166.6 L250.4,163.5 L247.7,162.9 L247.0,162.1 L246.6,160.8 L246.5,159.4 L245.6,159.4 L245.6,162.2 L243.5,161.0 L242.0,160.7 L239.0,162.2 L233.6,167.1 L233.0,168.4 L231.6,173.8 L230.6,174.7 L229.4,175.4 L229.0,176.2 L230.8,177.6 L226.0,180.9 L225.6,181.5 L221.7,181.7 L220.0,181.5 L217.9,180.6 L216.0,178.8 L214.5,174.9 L213.5,170.4 L213.1,166.6 L211.8,163.8 L209.1,161.1 L207.3,157.9 L208.5,153.6 L205.6,152.6 L204.4,151.6 L203.9,149.8 L195.5,153.9 L191.6,154.6 L188.1,151.7 L189.0,150.8 L187.5,149.5 L187.2,147.9 L187.8,147.0 L189.0,147.9 L189.9,147.9 L189.6,145.2 L190.9,142.9 L195.5,139.1 L195.5,142.0 L196.6,140.9 L197.1,139.3 L197.8,138.3 L199.2,139.1 L199.9,137.0 L201.6,133.7 L202.0,131.5 L199.1,133.0 L197.2,132.8 L195.8,131.2 L194.6,128.6 L199.7,126.7 L201.1,126.6 L202.1,127.2 L203.7,129.5 L204.7,130.4 L206.1,130.9 L210.4,131.5 L214.5,134.1 L215.9,134.3 L217.7,133.9 L218.4,133.4 L219.5,131.5 L227.1,125.0 L229.1,124.1 L230.4,125.4 L230.8,129.5 L232.6,128.7 L233.1,127.7 L232.6,124.2 L233.2,122.6 L237.3,116.9 L238.1,118.9 L238.2,119.8 L239.9,118.5 L240.1,116.0 L241.0,116.0 L242.4,117.8 L243.9,116.5 L245.5,114.2 L247.0,112.9 L248.5,112.2 L248.1,110.4 L247.0,108.2 L246.6,106.3 L249.3,107.4 L250.1,104.9 L251.4,104.8 L253.1,106.3 L255.2,106.0 L258.9,104.8 L265.2,104.0 L272.3,101.5 L276.4,100.6 L280.6,100.8 L282.0,100.6 L283.8,97.5 L287.2,96.8 L288.1,96.3 L290.5,96.2 L294.5,97.2 L298.4,97.7 L300.5,95.8 L302.6,97.6 L303.8,97.0 L304.9,95.6 L306.6,94.8 L307.5,95.3 L308.4,97.2 L309.4,97.6 L311.7,97.3 L312.7,97.6 L312.5,95.5 L311.6,93.5 L310.4,91.9 L309.0,91.0 L310.4,89.6 L311.9,89.2 L313.4,89.3 L314.6,90.0 L315.3,87.6 L316.5,85.1 L318.1,83.9 L320.1,85.3 L321.1,82.8 L321.3,80.6 L321.9,78.8 L323.9,77.6 L328.8,78.0 L330.7,77.2 L328.6,74.7 L330.4,74.7 L331.6,75.6 L332.5,76.9 L333.2,78.7 L334.4,73.7 L335.1,71.9 L335.8,73.6 L337.0,74.4 L338.5,74.9 L339.8,75.8 L341.0,74.6 L342.0,74.5 L342.8,75.3 L343.5,76.8 L343.5,74.6 L344.1,73.8 L345.8,73.9 L346.7,73.5 L347.1,72.4 L347.1,70.9 L348.1,71.1 L349.6,71.9 L352.2,72.1 L353.3,71.8 L353.8,70.5 L354.4,69.6 L357.8,68.2 L361.8,65.9 L362.7,68.1 L362.9,71.3 L364.0,73.0 L365.7,72.3 L368.6,69.7 L370.6,69.2 L372.0,69.7 L372.2,70.5 L371.6,71.4 L370.5,72.0 L372.0,72.6 L373.5,72.6 L374.2,73.0 L375.9,70.9 L380.7,67.1 L381.7,65.8 L391.6,61.6 L393.9,61.6 L395.6,60.0 L397.6,59.1 L402.3,57.7 L400.9,60.6 L399.1,62.4 L396.7,63.5 Z">
  <desc xmlns="http://www.highcharts.com/svg/namespace">
    <labelrank>7</labelrank>
    <hasc>FJ.W</hasc>
    <alt-name>NULL</alt-name>
    <woe-id>2345337</woe-id>
    <subregion>NULL</subregion>
    <fips>FJ03</fips>
    <postal-code>NULL</postal-code>
    <name>Northern</name>
    <country>Fiji</country>
    <type-en>Division</type-en>
    <region>NULL</region>
    <longitude>178.308</longitude>
    <woe-name>Northern</woe-name>
    <latitude>-16.8107</latitude>
    <woe-label>Northern, FJ, Fiji</woe-label>
    <type>Division</type>
    <hc-middle-x>0.39</hc-middle-x>
    <hc-middle-y>0.64</hc-middle-y>
    <hc-key>fj-2569</hc-key>
    <hc-a2>NO</hc-a2>
  </desc>
</path>

<path fill="#CEE3F5" stroke="#6E6E6E" stroke-width="0.4" id="FJ.2559" d="M77.1,398.0 L78.1,404.7 L76.1,403.4 L74.5,401.1 L73.2,398.4 L72.4,396.1 L72.1,394.0 L72.3,392.9 L74.2,390.3 L74.7,390.8 L76.1,391.3 L76.8,392.8 L77.0,394.6 Z M7.5,216.2 L9.3,219.0 L8.4,219.2 L7.9,220.4 L6.0,223.2 L4.2,224.9 L2.5,225.4 L1.1,224.0 L0.8,221.7 L1.4,219.7 L1.5,218.2 L0.0,217.3 L0.0,216.2 L3.6,217.6 L5.2,217.5 Z M26.7,191.7 L26.1,193.5 L24.9,194.8 L23.9,197.4 L19.9,200.2 L19.4,202.5 L17.9,201.4 L17.5,200.6 L16.2,201.5 L15.3,202.4 L14.8,203.7 L14.8,205.5 L11.0,204.6 L11.0,203.6 L12.9,203.5 L12.4,202.2 L12.1,200.3 L12.3,198.5 L14.5,197.2 L15.0,195.9 L15.2,194.3 L15.7,193.0 L16.6,192.0 L19.6,189.5 L20.7,189.1 L20.9,189.7 L22.5,192.2 L23.1,192.9 L23.9,192.9 L24.4,191.9 L25.7,188.1 L26.6,189.7 Z M41.4,171.7 L40.5,172.5 L37.4,167.8 L38.2,166.4 L41.4,164.7 L40.4,162.6 L42.1,161.8 L44.8,162.1 L46.9,162.8 L42.8,166.1 L41.6,167.7 L43.3,168.6 L42.9,169.7 Z M53.6,153.5 L51.7,155.6 L50.7,158.0 L48.8,157.1 L47.2,158.6 L46.0,158.8 L45.0,158.1 L45.9,153.7 L46.0,152.3 L46.9,152.3 L48.6,154.0 L51.2,152.7 L56.2,147.3 L62.4,142.1 L64.3,139.0 L62.6,135.8 L65.2,135.9 L66.8,137.1 L67.2,139.0 L66.3,141.5 L65.3,143.0 L63.1,144.7 L62.1,146.6 Z M93.9,353.2 L82.5,350.2 L79.1,349.7 L75.3,348.8 L68.1,345.4 L64.9,345.9 L60.7,344.1 L59.1,343.9 L52.3,344.3 L51.1,344.1 L49.6,343.4 L47.3,341.2 L37.8,338.9 L33.6,337.0 L30.6,332.6 L29.7,333.7 L29.1,332.2 L28.7,327.8 L27.0,325.3 L26.8,323.5 L26.1,322.8 L23.7,321.4 L23.6,320.6 L24.1,319.4 L22.6,317.0 L22.1,315.5 L22.5,314.5 L24.3,312.0 L24.8,310.6 L24.7,308.8 L23.4,306.7 L23.0,305.3 L23.9,302.5 L26.1,301.4 L32.2,300.9 L35.8,299.5 L36.8,298.9 L38.1,297.3 L38.3,296.1 L37.7,293.6 L37.7,288.7 L37.9,286.9 L38.4,286.6 L39.3,287.0 L44.1,288.3 L45.1,288.2 L46.5,286.9 L46.6,286.0 L45.9,283.8 L45.7,282.3 L44.6,276.8 L42.4,275.8 L41.2,274.7 L40.3,271.5 L42.1,270.1 L44.5,268.9 L46.4,265.5 L49.4,264.7 L50.5,264.1 L51.0,262.4 L50.8,259.5 L52.2,258.2 L53.8,260.0 L55.1,259.5 L55.7,257.9 L55.1,256.3 L56.0,254.2 L57.2,252.4 L58.4,251.7 L59.7,253.3 L60.5,253.3 L66.1,248.5 L71.6,245.2 L72.4,244.3 L72.8,243.0 L73.9,242.7 L75.7,243.2 L74.9,244.7 L75.4,247.2 L76.4,249.8 L77.2,251.3 L78.0,250.4 L76.6,247.0 L76.6,245.4 L77.1,243.6 L78.1,242.9 L82.6,240.3 L83.5,239.9 L88.7,241.7 L89.4,240.9 L89.7,239.3 L90.3,237.6 L90.9,236.9 L93.9,235.2 L96.6,234.7 L97.5,233.3 L99.6,232.3 L100.1,232.6 L100.1,236.0 L99.2,238.6 L98.3,239.8 L100.5,240.3 L102.3,239.2 L104.0,237.3 L105.8,235.8 L108.7,237.7 L112.7,238.1 L116.7,237.6 L119.7,236.8 L123.6,234.9 L125.2,233.7 L126.6,232.4 L128.3,231.1 L131.5,231.0 L133.6,229.9 L137.9,230.6 L143.0,229.7 L147.0,227.2 L148.2,223.2 L151.2,224.2 L154.9,225.9 L158.1,228.1 L159.4,230.3 L159.8,232.0 L161.3,234.8 L161.3,236.6 L160.4,238.2 L157.0,241.6 L155.8,243.3 L157.2,244.1 L157.5,245.2 L156.9,246.3 L155.8,247.2 L157.6,246.8 L161.2,242.5 L163.6,241.4 L166.8,241.7 L169.7,242.7 L171.9,244.5 L173.4,247.1 L173.6,248.3 L173.2,249.9 L173.4,250.9 L176.3,253.3 L177.1,254.3 L182.8,258.2 L183.2,258.2 L183.2,259.3 L183.0,265.5 L181.8,271.8 L181.2,273.2 L180.3,274.2 L179.2,274.5 L177.7,274.2 L173.5,272.4 L171.4,271.9 L168.8,272.0 L166.2,271.4 L162.9,269.0 L160.9,268.4 L160.1,269.4 L159.8,271.2 L159.4,271.9 L158.0,273.1 L155.8,273.8 L151.5,274.9 L144.0,275.1 L141.5,274.9 L139.5,274.3 L138.2,273.5 L135.9,271.3 L132.4,265.6 L129.5,262.3 L128.3,261.3 L126.9,260.8 L126.2,261.5 L125.9,262.7 L126.2,264.2 L127.2,266.9 L127.1,269.5 L126.6,270.8 L124.7,273.7 L124.0,275.1 L123.7,276.5 L123.5,284.3 L123.9,285.5 L124.8,285.7 L126.1,284.8 L130.1,280.3 L131.3,279.2 L133.8,277.7 L134.8,277.6 L136.1,278.5 L136.0,280.9 L135.1,282.2 L133.4,283.9 L130.7,285.3 L127.8,287.7 L121.6,294.6 L121.1,295.5 L120.8,297.3 L119.2,300.4 L119.0,302.4 L119.7,303.4 L121.6,305.4 L121.9,306.6 L121.0,309.6 L121.1,310.8 L123.5,313.1 L123.9,315.1 L122.6,319.3 L120.3,320.8 L117.2,321.6 L114.2,321.8 L103.8,319.1 L100.5,319.0 L98.0,319.7 L96.8,320.7 L95.9,322.1 L95.0,324.9 L94.3,326.2 L92.5,328.9 L91.9,329.9 L92.0,332.4 L92.8,335.2 L93.7,336.8 L95.4,337.3 L98.6,337.4 L99.7,338.2 L99.6,339.1 L96.6,343.7 L95.8,345.7 L95.4,349.6 L95.0,351.4 Z">
  <desc xmlns="http://www.highcharts.com/svg/namespace">
    <labelrank>7</labelrank>
    <hasc>FJ.W</hasc>
    <alt-name>NULL</alt-name>
    <woe-id>2345338</woe-id>
    <subregion>NULL</subregion>
    <fips>FJ05</fips>
    <postal-code>NULL</postal-code>
    <name>Western</name>
    <country>Fiji</country>
    <type-en>Division</type-en>
    <region>NULL</region>
    <longitude>174.61</longitude>
    <woe-name>Western</woe-name>
    <latitude>-21.6878</latitude>
    <woe-label>Western, FJ, Fiji</woe-label>
    <type>Division</type>
    <hc-middle-x>0.48</hc-middle-x>
    <hc-middle-y>0.56</hc-middle-y>
    <hc-key>fj-2559</hc-key>
    <hc-a2>WE</hc-a2>
  </desc>
</path>
</g>

<text x="350" y="714" text-anchor="middle" font-family="Verdana" font-size="8" stroke-opacity="0.6">Copyright (c) 2020 Highsoft AS, Based on data from Natural Earth</text>

</svg>