<?xml version="1.0" encoding="utf-8" standalone="no"?>
<!DOCTYPE svg PUBLIC "-//W3C//DTD SVG 1.1//EN" "http://www.w3.org/Graphics/SVG/1.1/DTD/svg11.dtd">

<svg version="1.1" height="700pt" width="700pt" xmlns="http://www.w3.org/2000/svg" xmlns:xlink="http://www.w3.org/1999/xlink">
<desc>
Map version: 1.1.3
Copyright (c) 2020 Highsoft AS, Based on data from Natural Earth
</desc>
<title>Vanuatu</title>
<g id="admin1">

<g id="VU">
  <desc xmlns="http://www.highcharts.com/svg/namespace">
    <name>Vanuatu</name>
    <labelrank>4</labelrank>
    <country-abbrev>Van.</country-abbrev>
    <subregion>Melanesia</subregion>
    <region-wb>East Asia &amp; Pacific</region-wb>
    <iso-a3>VUT</iso-a3>
    <iso-a2>VU</iso-a2>
    <woe-id>23424907</woe-id>
    <continent>Oceania</continent>
    <hc-key>vu</hc-key>
    <hc-a2>VA</hc-a2>
  </desc>
</g>

<path fill="#CEE3F5" stroke="#6E6E6E" stroke-width="0.4" id="VU.TR" d="M94.9,104.9 L100.7,107.8 L101.5,108.5 L102.2,109.4 L101.5,114.5 L101.2,115.4 L100.7,115.9 L98.2,120.0 L96.9,121.4 L95.9,121.9 L94.8,122.0 L88.5,121.4 L87.2,121.9 L85.9,121.8 L83.1,120.4 L82.7,119.9 L83.1,118.7 L84.1,116.9 L83.5,111.6 L83.8,109.8 L84.4,109.0 L85.4,108.4 L87.6,106.6 L90.7,106.6 L91.5,106.2 L93.0,105.0 L94.0,104.7 Z M100.0,76.3 L101.2,76.5 L101.1,77.7 L99.3,77.6 L97.7,78.7 L96.0,79.6 L94.0,80.0 L91.6,80.2 L92.2,80.6 L91.6,81.5 L92.6,83.8 L91.3,85.5 L89.3,85.6 L88.3,83.2 L88.3,81.2 L87.9,79.9 L87.0,78.9 L85.2,77.5 L83.0,74.1 L82.4,72.1 L82.6,69.5 L83.4,67.4 L84.7,65.8 L86.4,64.6 L90.5,62.9 L91.9,62.9 L93.3,63.7 L94.9,65.6 L97.6,70.8 L98.8,71.6 L97.6,73.2 L96.9,73.6 L97.5,75.0 Z M110.7,60.2 L108.9,60.5 L107.3,60.5 L106.6,61.5 L105.8,61.6 L105.6,60.7 L109.1,56.1 L110.5,55.0 L112.2,54.5 L113.1,55.1 L113.5,56.5 L113.5,58.1 L113.1,59.2 Z M77.7,44.9 L78.7,45.3 L79.8,45.1 L81.0,44.3 L80.7,46.8 L79.6,47.8 L77.8,47.8 L75.7,47.6 L74.8,46.1 L74.0,44.6 L74.0,43.0 L75.1,41.6 L77.6,41.0 L79.2,41.9 L79.1,43.2 L77.1,43.6 Z M16.6,34.7 L15.0,37.8 L13.7,33.9 L15.2,33.2 Z M11.2,19.1 L9.5,19.7 L7.9,19.3 L6.7,18.2 L6.0,16.6 L7.4,15.3 L9.4,14.6 L11.3,14.7 L12.5,16.0 L12.4,17.7 Z M4.6,11.7 L4.0,11.9 L2.5,11.1 L1.7,10.1 L1.4,8.7 L1.5,6.7 L2.1,4.0 L2.2,3.0 L1.9,2.3 L1.0,1.1 L0.9,0.0 L4.1,0.9 L4.8,1.4 L5.2,2.4 L5.6,4.6 L6.0,6.0 L5.4,7.1 L6.0,8.7 L5.5,8.9 L5.4,10.7 Z">
  <desc xmlns="http://www.highcharts.com/svg/namespace">
    <labelrank>9</labelrank>
    <hasc>VU.TR</hasc>
    <alt-name>NULL</alt-name>
    <woe-id>20069883</woe-id>
    <subregion>NULL</subregion>
    <fips>NH07</fips>
    <postal-code>TR</postal-code>
    <name>Torba</name>
    <country>Vanuatu</country>
    <type-en>Province</type-en>
    <region>NULL</region>
    <longitude>167.5</longitude>
    <woe-name>Torba</woe-name>
    <latitude>-14.2328</latitude>
    <woe-label>Torba, VU, Vanuatu</woe-label>
    <type>Province</type>
    <hc-middle-x>0.81</hc-middle-x>
    <hc-middle-y>0.93</hc-middle-y>
    <hc-key>vu-tr</hc-key>
    <hc-a2>TR</hc-a2>
  </desc>
</path>

<path fill="#CEE3F5" stroke="#6E6E6E" stroke-width="0.4" id="VU.SN" d="M65.9,259.0 L63.3,259.9 L61.4,259.9 L60.1,259.2 L57.5,257.3 L56.2,256.7 L53.6,256.0 L52.4,255.2 L50.9,252.6 L51.2,250.0 L53.0,248.1 L56.0,247.3 L62.6,248.2 L66.0,249.4 L66.3,251.1 L65.1,254.1 L65.8,256.9 Z M63.8,245.0 L62.4,246.1 L60.2,245.4 L59.9,245.8 L58.9,246.1 L56.5,245.5 L54.4,244.0 L59.0,239.4 L60.7,238.7 L62.0,238.7 L62.3,239.1 L60.9,239.4 L60.9,240.1 L61.9,240.3 L62.2,240.9 L61.5,242.1 L63.7,243.3 Z M58.7,184.0 L57.8,184.4 L57.0,184.3 L56.3,183.8 L54.2,181.5 L53.8,180.4 L55.5,180.9 L57.9,182.8 L59.5,183.1 Z M27.0,202.5 L29.4,202.6 L33.6,202.2 L37.0,202.2 L38.8,199.5 L40.5,198.1 L41.2,197.2 L41.4,195.9 L42.1,185.2 L41.9,184.0 L41.4,182.5 L42.5,181.1 L44.2,180.1 L45.5,179.7 L52.5,180.4 L52.5,181.1 L50.8,181.4 L50.0,182.2 L49.8,183.4 L50.0,187.4 L49.7,188.4 L48.5,189.7 L50.1,189.9 L50.7,191.0 L51.1,194.3 L52.6,199.1 L52.9,200.9 L55.2,199.3 L56.4,199.0 L58.1,199.7 L57.6,201.5 L59.3,209.2 L58.8,210.8 L57.7,211.4 L58.6,212.9 L60.6,213.7 L61.5,214.7 L62.4,216.9 L62.2,218.7 L61.7,220.3 L61.2,220.8 L60.5,219.5 L59.9,219.5 L60.5,222.7 L62.1,227.7 L64.2,232.2 L66.5,234.1 L67.2,234.6 L67.4,235.5 L66.8,237.4 L66.1,238.0 L63.8,237.4 L60.3,237.4 L59.0,237.8 L57.4,239.1 L53.8,243.3 L52.2,244.3 L50.3,244.6 L49.2,244.4 L46.7,243.2 L43.2,242.8 L39.2,242.9 L35.6,243.8 L33.2,245.8 L34.2,246.8 L33.4,246.9 L31.4,246.5 L30.2,247.2 L29.4,248.9 L28.8,249.7 L26.9,250.6 L24.8,250.4 L22.7,249.3 L21.1,247.6 L22.3,245.8 L22.3,243.4 L21.4,241.3 L18.2,239.8 L16.8,238.4 L14.8,235.1 L13.8,232.1 L13.2,231.4 L10.7,228.9 L10.0,226.8 L8.7,225.0 L8.4,224.1 L9.5,221.3 L10.0,218.4 L11.3,214.5 L11.7,212.5 L11.6,208.0 L11.1,205.8 L8.9,202.5 L8.4,200.6 L8.0,196.6 L7.1,192.9 L7.1,191.6 L8.1,190.0 L6.4,189.4 L5.5,188.0 L5.0,186.1 L4.8,184.3 L4.4,182.6 L2.4,179.6 L1.7,178.0 L0.0,170.6 L0.1,169.1 L0.8,167.5 L1.2,165.2 L1.1,162.9 L0.5,161.5 L3.1,156.2 L2.9,153.8 L3.3,152.7 L6.2,151.8 L7.3,150.7 L8.3,151.6 L9.9,155.5 L10.7,156.0 L11.2,157.0 L11.5,159.2 L11.9,159.4 L14.0,162.2 L14.8,164.6 L15.4,165.7 L17.3,166.7 L21.1,169.6 L20.2,170.5 L20.6,172.8 L22.2,177.5 L23.1,182.0 L23.5,186.8 L23.4,188.0 L24.5,189.1 L24.8,189.8 L26.0,201.7 Z">
  <desc xmlns="http://www.highcharts.com/svg/namespace">
    <labelrank>9</labelrank>
    <hasc>VU.SN</hasc>
    <alt-name>NULL</alt-name>
    <woe-id>20069884</woe-id>
    <subregion>NULL</subregion>
    <fips>NH13</fips>
    <postal-code>SN</postal-code>
    <name>Sanma</name>
    <country>Vanuatu</country>
    <type-en>Province</type-en>
    <region>NULL</region>
    <longitude>167.155</longitude>
    <woe-name>Sanma</woe-name>
    <latitude>-15.6781</latitude>
    <woe-label>Sanma, VU, Vanuatu</woe-label>
    <type>Province</type>
    <hc-middle-x>0.52</hc-middle-x>
    <hc-middle-y>0.61</hc-middle-y>
    <hc-key>vu-sn</hc-key>
    <hc-a2>SN</hc-a2>
  </desc>
</path>

<path fill="#CEE3F5" stroke="#6E6E6E" stroke-width="0.4" id="VU.TF" d="M298.4,699.6 L297.7,700.0 L296.8,699.1 L295.7,698.6 L293.3,697.9 L290.6,696.5 L289.4,695.5 L289.3,693.2 L290.0,690.8 L291.1,689.2 L292.3,688.9 L294.7,688.6 L297.2,688.5 L298.9,689.2 L300.7,690.6 L302.1,691.5 L303.3,692.5 L304.1,694.3 L303.1,696.7 L302.4,697.9 L301.5,698.8 L300.5,699.2 Z M264.1,640.4 L263.2,641.3 L261.4,641.1 L257.5,639.9 L256.0,639.1 L252.4,634.5 L251.5,633.7 L249.6,633.6 L248.9,633.3 L248.4,631.6 L246.8,630.0 L246.6,629.2 L243.6,624.6 L243.3,623.6 L243.2,622.2 L243.4,619.7 L243.9,617.3 L245.7,615.8 L245.8,614.6 L245.4,612.3 L246.3,610.3 L248.0,609.1 L249.8,608.6 L253.4,608.6 L254.9,607.9 L256.4,609.2 L256.4,610.6 L255.8,612.2 L255.4,614.3 L256.5,621.6 L257.3,623.0 L259.2,623.8 L261.4,624.5 L263.3,625.4 L266.2,627.1 L267.6,628.1 L269.5,628.9 L268.9,630.1 L265.6,634.1 L264.8,638.3 Z M242.5,551.5 L246.2,552.0 L246.6,551.6 L247.8,551.4 L248.1,551.6 L248.0,552.4 L248.8,552.9 L249.7,554.4 L249.9,555.0 L248.8,555.1 L242.9,556.5 L245.1,559.3 L245.4,560.3 L246.0,560.5 L248.8,562.0 L249.7,562.7 L252.5,564.2 L254.4,566.0 L255.5,568.2 L255.8,571.2 L254.9,573.6 L253.1,574.8 L251.1,575.6 L250.0,577.3 L248.2,575.8 L240.1,571.2 L239.0,570.9 L237.9,571.4 L237.2,571.3 L234.3,570.4 L233.5,570.0 L232.5,569.0 L230.3,567.4 L228.8,566.6 L223.8,564.8 L223.6,563.1 L225.3,558.8 L225.3,557.5 L225.0,556.4 L223.7,554.4 L223.6,553.7 L224.3,546.8 L224.9,544.8 L226.2,542.9 L229.0,540.9 L232.7,540.0 L236.4,540.1 L239.5,541.9 L240.4,543.4 L240.7,545.3 L240.7,548.9 L241.1,550.6 Z">
  <desc xmlns="http://www.highcharts.com/svg/namespace">
    <labelrank>9</labelrank>
    <hasc>VU.TF</hasc>
    <alt-name>NULL</alt-name>
    <woe-id>20069887</woe-id>
    <subregion>NULL</subregion>
    <fips>NH15</fips>
    <postal-code>TF</postal-code>
    <name>Tafea</name>
    <country>Vanuatu</country>
    <type-en>Province</type-en>
    <region>NULL</region>
    <longitude>169.818</longitude>
    <woe-name>Tafea</woe-name>
    <latitude>-20.1892</latitude>
    <woe-label>Tafea, VU, Vanuatu</woe-label>
    <type>Province</type>
    <hc-middle-x>0.14</hc-middle-x>
    <hc-middle-y>0.09</hc-middle-y>
    <hc-key>vu-tf</hc-key>
    <hc-a2>TF</hc-a2>
  </desc>
</path>

<path fill="#CEE3F5" stroke="#6E6E6E" stroke-width="0.4" id="VU.ML" d="M169.2,337.5 L167.2,337.6 L165.9,337.2 L165.2,336.1 L164.1,333.5 L166.8,333.0 L168.0,332.9 L169.1,333.6 L170.2,335.1 L170.2,336.6 Z M159.3,333.1 L157.6,334.0 L156.1,334.0 L155.5,333.1 L156.5,331.4 L157.4,327.8 L158.5,327.0 L161.0,326.8 L160.1,328.3 L160.0,331.6 Z M166.9,316.1 L163.7,318.6 L153.8,318.8 L152.5,319.1 L151.1,319.7 L149.8,320.1 L148.6,319.6 L147.6,318.7 L146.3,317.9 L145.1,317.6 L143.9,317.9 L141.5,316.1 L140.2,315.9 L138.8,316.5 L138.0,315.3 L134.9,313.4 L133.4,312.2 L132.1,311.4 L130.5,310.7 L129.5,309.8 L130.0,308.5 L128.8,307.3 L130.0,306.1 L132.3,305.0 L135.1,304.4 L136.5,303.5 L137.4,303.3 L141.5,303.4 L143.5,302.4 L147.0,298.9 L148.3,298.1 L148.8,297.6 L150.3,293.8 L151.1,293.4 L153.2,292.9 L155.0,295.0 L156.4,298.2 L158.2,304.3 L158.5,307.2 L160.2,309.1 L166.8,312.7 L167.5,313.6 L167.6,315.0 Z M83.3,295.0 L85.2,295.6 L86.6,297.0 L87.6,297.3 L87.9,296.9 L87.3,294.3 L87.7,294.2 L88.5,295.2 L89.8,297.3 L89.7,298.2 L89.0,299.2 L89.1,300.0 L91.2,301.0 L92.3,301.4 L93.6,300.1 L94.2,302.3 L95.4,304.1 L96.5,304.8 L98.6,305.5 L99.9,306.1 L101.9,308.1 L103.1,309.8 L104.4,310.5 L107.0,309.5 L108.2,310.1 L108.2,310.9 L107.5,312.2 L109.2,314.1 L113.2,317.5 L115.5,317.1 L116.8,319.3 L117.5,324.1 L115.7,327.3 L115.5,329.0 L116.9,330.1 L117.1,328.3 L117.5,327.0 L118.1,326.1 L119.2,325.2 L120.1,325.2 L120.8,326.4 L121.4,327.9 L122.0,328.9 L119.8,331.2 L117.9,331.7 L116.8,333.3 L115.2,335.3 L115.2,336.8 L114.2,337.4 L112.6,337.4 L112.0,336.6 L111.6,335.5 L111.0,334.6 L107.7,333.9 L107.2,333.7 L106.6,332.8 L105.3,332.8 L103.9,333.0 L103.1,332.9 L101.3,332.2 L99.2,332.9 L97.3,334.2 L96.2,335.2 L97.4,336.4 L98.3,336.5 L97.3,337.7 L96.2,338.2 L93.8,338.5 L91.8,340.4 L90.1,339.8 L89.9,341.0 L89.3,341.0 L88.5,340.0 L86.0,339.1 L84.9,336.9 L83.7,335.8 L82.5,334.5 L82.4,332.3 L83.0,332.3 L83.3,333.0 L84.7,334.0 L85.5,334.3 L85.3,332.7 L84.8,330.8 L84.0,328.9 L81.7,325.8 L81.3,324.8 L81.2,323.3 L81.2,321.0 L80.8,320.4 L79.3,319.7 L79.1,317.7 L79.2,311.7 L79.7,310.5 L78.8,305.8 L78.8,303.5 L78.6,302.8 L77.7,302.5 L77.1,300.5 L73.8,295.2 L71.8,296.5 L71.2,295.8 L69.7,297.6 L65.4,300.4 L63.2,298.4 L62.0,297.8 L61.0,298.4 L60.3,297.4 L59.7,294.4 L59.0,293.4 L57.5,291.9 L57.2,290.7 L57.6,288.4 L60.5,283.1 L60.1,276.7 L60.2,275.5 L61.2,273.4 L62.2,273.2 L65.1,271.2 L75.3,275.3 L75.1,278.7 L80.7,285.9 L79.0,289.3 L80.2,289.8 L81.1,290.4 L81.5,291.4 L80.9,292.6 Z">
  <desc xmlns="http://www.highcharts.com/svg/namespace">
    <labelrank>9</labelrank>
    <hasc>VU.ML</hasc>
    <alt-name>NULL</alt-name>
    <woe-id>20069886</woe-id>
    <subregion>NULL</subregion>
    <fips>NH16</fips>
    <postal-code>ML</postal-code>
    <name>Malampa</name>
    <country>Vanuatu</country>
    <type-en>Province</type-en>
    <region>NULL</region>
    <longitude>167.494</longitude>
    <woe-name>Malampa</woe-name>
    <latitude>-16.3765</latitude>
    <woe-label>Malampa, VU, Vanuatu</woe-label>
    <type>Province</type>
    <hc-middle-x>0.32</hc-middle-x>
    <hc-middle-y>0.60</hc-middle-y>
    <hc-key>vu-ml</hc-key>
    <hc-a2>ML</hc-a2>
  </desc>
</path>

<path fill="#CEE3F5" stroke="#6E6E6E" stroke-width="0.4" id="VU.PM" d="M158.5,284.3 L156.4,284.5 L155.3,283.8 L154.8,282.4 L154.5,278.5 L153.0,272.6 L152.0,265.2 L149.9,259.7 L149.1,256.3 L148.9,252.5 L149.4,248.5 L151.8,241.0 L152.5,233.2 L154.5,233.1 L155.1,237.6 L155.3,238.6 L155.9,239.4 L157.0,240.2 L157.1,241.7 L156.3,247.6 L156.4,249.2 L157.7,252.3 L157.6,255.2 L157.9,256.6 L160.0,262.8 L160.6,267.8 L161.1,269.2 L162.1,271.5 L162.5,273.2 L162.7,277.0 L162.4,280.4 L161.1,282.9 Z M125.0,234.2 L122.8,234.9 L113.0,234.7 L111.1,234.1 L107.9,232.4 L107.3,231.3 L108.3,229.7 L119.8,218.9 L121.9,218.3 L123.5,218.1 L128.0,216.3 L136.1,215.1 L138.5,215.5 L138.5,216.4 L136.3,218.5 L135.1,219.9 L133.8,221.9 L132.8,224.1 L132.1,227.8 L131.3,229.1 Z M155.5,223.8 L154.9,226.7 L153.7,226.2 L152.6,226.2 L150.4,226.6 L150.9,224.4 L150.8,222.0 L149.8,217.4 L150.5,214.0 L150.6,203.7 L149.7,201.5 L147.7,186.5 L148.1,184.7 L147.4,183.8 L147.2,182.9 L147.5,181.8 L148.3,180.7 L149.1,180.3 L150.3,181.0 L151.2,182.7 L151.9,184.6 L152.2,185.9 L152.3,188.1 L153.4,193.5 L153.2,196.6 L153.3,197.5 L154.4,200.7 L154.5,201.8 L154.5,205.2 L154.8,206.0 L156.1,207.6 L156.4,208.5 L156.0,215.1 L156.5,216.5 L156.3,218.3 L155.6,221.0 Z">
  <desc xmlns="http://www.highcharts.com/svg/namespace">
    <labelrank>9</labelrank>
    <hasc>VU.PM</hasc>
    <alt-name>NULL</alt-name>
    <woe-id>20069885</woe-id>
    <subregion>NULL</subregion>
    <fips>NH17</fips>
    <postal-code>PM</postal-code>
    <name>Penama</name>
    <country>Vanuatu</country>
    <type-en>Province</type-en>
    <region>NULL</region>
    <longitude>168.195</longitude>
    <woe-name>Penama</woe-name>
    <latitude>-15.7575</latitude>
    <woe-label>Penama, VU, Vanuatu</woe-label>
    <type>Province</type>
    <hc-middle-x>0.88</hc-middle-x>
    <hc-middle-y>0.82</hc-middle-y>
    <hc-key>vu-pm</hc-key>
    <hc-a2>PM</hc-a2>
  </desc>
</path>

<path fill="#CEE3F5" stroke="#6E6E6E" stroke-width="0.4" id="VU.SE" d="M165.7,435.2 L166.2,435.8 L167.8,434.8 L174.3,433.9 L175.7,434.2 L177.0,435.1 L177.5,437.4 L179.2,438.4 L180.1,439.8 L180.8,441.6 L181.3,443.5 L182.1,445.1 L183.9,445.8 L184.4,446.8 L185.1,448.6 L185.7,449.2 L186.6,449.5 L187.6,449.3 L188.9,448.6 L189.0,450.3 L186.1,455.8 L185.3,458.3 L184.6,459.4 L183.4,459.9 L181.0,460.4 L180.1,461.5 L178.9,461.5 L177.8,460.3 L171.2,461.8 L170.5,461.8 L168.9,460.8 L168.4,459.1 L168.0,458.9 L167.0,460.1 L166.4,457.5 L165.8,458.1 L164.3,457.9 L163.3,458.8 L163.9,455.4 L163.3,455.4 L162.3,456.6 L160.8,457.3 L157.5,458.0 L157.5,457.4 L159.2,456.2 L161.2,455.6 L162.9,454.7 L163.4,452.7 L162.0,453.2 L161.6,452.8 L161.3,450.7 L159.6,450.0 L158.1,449.2 L156.9,449.0 L155.7,449.3 L154.5,449.9 L153.8,450.6 L152.5,452.7 L151.9,453.2 L150.9,453.5 L150.3,453.1 L150.0,452.1 L148.7,451.2 L149.0,450.0 L151.4,445.3 L152.5,444.1 L154.9,442.4 L155.9,441.4 L159.7,436.0 L162.2,434.0 L165.0,433.5 Z M154.7,437.0 L154.0,438.0 L154.3,435.1 L157.2,432.4 L160.6,431.2 L162.4,432.9 L161.2,433.3 L159.1,434.4 L157.9,434.7 L155.7,436.2 Z M169.6,428.4 L168.1,428.9 L166.1,427.5 L165.1,425.3 L165.6,422.6 L166.6,422.1 L167.8,423.2 L168.9,425.0 Z M167.6,391.1 L166.6,391.2 L165.7,390.7 L166.2,389.6 L167.3,388.5 L168.2,387.9 L171.9,386.1 L173.1,386.1 L175.3,386.7 L174.5,387.3 L172.1,388.6 L170.7,390.4 Z M189.0,376.4 L187.9,377.0 L186.4,376.8 L185.5,376.4 L185.2,375.6 L185.7,374.2 L185.7,372.2 L187.4,370.7 L189.8,370.6 L191.5,372.4 Z M153.7,340.8 L155.3,342.8 L156.9,346.5 L157.8,347.3 L158.5,351.1 L159.3,352.0 L160.0,351.9 L161.6,350.9 L162.5,350.7 L164.1,351.3 L165.1,352.1 L166.0,353.6 L166.6,355.1 L167.4,356.3 L169.1,356.8 L169.8,358.4 L170.6,359.6 L172.3,360.1 L177.2,360.0 L179.4,360.8 L180.9,363.0 L179.6,363.5 L179.8,364.8 L180.4,366.4 L180.2,367.6 L179.2,367.1 L178.2,367.6 L173.4,364.7 L171.9,363.0 L170.4,362.3 L168.6,361.7 L167.2,361.4 L163.3,362.2 L160.5,363.8 L157.8,364.8 L154.0,363.9 L152.8,363.1 L150.1,360.4 L149.6,359.5 L149.8,356.8 L149.6,355.8 L148.2,354.5 L147.5,353.6 L147.5,352.8 L147.9,351.6 L148.1,348.1 L148.6,346.6 L150.3,344.8 L150.5,343.5 L150.3,342.0 L149.9,340.5 L150.8,341.1 L152.8,340.5 Z">
  <desc xmlns="http://www.highcharts.com/svg/namespace">
    <labelrank>9</labelrank>
    <hasc>VU.SE</hasc>
    <alt-name>NULL</alt-name>
    <woe-id>20069888</woe-id>
    <subregion>NULL</subregion>
    <fips>NH18</fips>
    <postal-code>SE</postal-code>
    <name>Shefa</name>
    <country>Vanuatu</country>
    <type-en>Province</type-en>
    <region>NULL</region>
    <longitude>168.301</longitude>
    <woe-name>Shefa</woe-name>
    <latitude>-16.7385</latitude>
    <woe-label>Shefa, VU, Vanuatu</woe-label>
    <type>Province</type>
    <hc-middle-x>0.52</hc-middle-x>
    <hc-middle-y>0.89</hc-middle-y>
    <hc-key>vu-se</hc-key>
    <hc-a2>SE</hc-a2>
  </desc>
</path>
</g>

<text x="350" y="714" text-anchor="middle" font-family="Verdana" font-size="8" stroke-opacity="0.6">Copyright (c) 2020 Highsoft AS, Based on data from Natural Earth</text>

</svg>