<?xml version="1.0" encoding="utf-8" standalone="no"?>
<!DOCTYPE svg PUBLIC "-//W3C//DTD SVG 1.1//EN" "http://www.w3.org/Graphics/SVG/1.1/DTD/svg11.dtd">

<svg version="1.1" height="700pt" width="700pt" xmlns="http://www.w3.org/2000/svg" xmlns:xlink="http://www.w3.org/1999/xlink">
<desc>
Map version: 1.1.3
Copyright (c) 2020 Highsoft AS, Based on data from Natural Earth
</desc>
<title>Mexico</title>
<g id="admin1">

<g id="MX">
  <desc xmlns="http://www.highcharts.com/svg/namespace">
    <name>Mexico</name>
    <labelrank>2</labelrank>
    <country-abbrev>Mex.</country-abbrev>
    <subregion>Central America</subregion>
    <region-wb>Latin America &amp; Caribbean</region-wb>
    <iso-a3>MEX</iso-a3>
    <iso-a2>MX</iso-a2>
    <woe-id>23424900</woe-id>
    <continent>North America</continent>
    <hc-key>mx</hc-key>
    <hc-a2>ME</hc-a2>
  </desc>
</g>

<path fill="#CEE3F5" stroke="#6E6E6E" stroke-width="0.4" id="MX.3622" d="M626.7,238.9 L628.8,241.3 L628.5,243.4 L626.9,242.6 L627.8,241.2 Z">
  <desc xmlns="http://www.highcharts.com/svg/namespace">
    <labelrank>20</labelrank>
    <hasc>-99</hasc>
    <alt-name>NULL</alt-name>
    <woe-id>-99</woe-id>
    <subregion>NULL</subregion>
    <fips>NULL</fips>
    <postal-code>NULL</postal-code>
    <name>NULL</name>
    <country>Mexico</country>
    <type-en>NULL</type-en>
    <region>NULL</region>
    <longitude>-89.66330000000001</longitude>
    <woe-name>NULL</woe-name>
    <latitude>22.3858</latitude>
    <woe-label>NULL</woe-label>
    <type>NULL</type>
    <hc-middle-x>0.53</hc-middle-x>
    <hc-middle-y>0.50</hc-middle-y>
    <hc-key>mx-3622</hc-key>
    <hc-a2>NU</hc-a2>
  </desc>
</path>

<path fill="#CEE3F5" stroke="#6E6E6E" stroke-width="0.4" id="MX.BC" d="M65.7,112.1 L65.5,113.7 L63.1,111.9 L61.9,112.0 L64.8,108.6 L65.6,105.1 L66.5,108.1 Z M2.3,85.3 L1.0,85.7 L0.0,81.2 L0.2,79.2 L2.7,81.7 Z M86.5,116.2 L88.2,114.3 L87.7,116.3 Z M88.8,116.4 L88.6,115.6 L89.4,116.4 Z M83.5,6.0 L80.8,6.7 L78.4,11.0 L79.8,14.4 L79.7,20.1 L81.6,23.2 L82.3,26.5 L80.4,29.5 L80.1,32.9 L78.9,38.3 L80.2,41.2 L79.7,42.2 L81.9,44.0 L82.1,48.8 L81.6,51.4 L82.6,56.7 L81.4,62.5 L83.6,67.9 L85.7,69.6 L86.2,72.7 L90.0,73.9 L93.1,77.8 L98.6,82.9 L101.4,86.9 L100.6,87.6 L102.9,91.9 L102.8,95.8 L104.8,94.3 L106.3,98.3 L108.3,97.5 L109.6,99.9 L111.1,105.8 L113.2,107.2 L116.5,107.8 L115.6,111.5 L117.3,113.8 L116.6,115.6 L117.5,118.6 L102.2,117.4 L89.6,116.4 L88.7,113.4 L90.1,111.5 L88.7,110.1 L90.9,105.4 L88.6,100.6 L86.4,100.1 L82.6,93.2 L80.2,92.1 L79.6,88.9 L77.8,88.2 L73.0,81.4 L68.6,79.7 L66.7,77.1 L63.4,74.5 L62.4,74.6 L58.5,70.7 L58.8,67.3 L56.7,65.6 L57.5,62.4 L57.0,56.1 L52.9,52.4 L53.8,46.3 L53.3,44.2 L51.2,42.9 L49.9,40.4 L48.1,40.2 L49.2,35.6 L48.7,33.8 L45.4,28.0 L42.6,24.9 L43.5,22.4 L41.6,19.9 L43.4,20.8 L44.7,17.6 L42.0,16.0 L40.4,13.9 L39.0,7.4 L37.5,6.4 L36.1,1.9 L36.2,0.0 L85.9,1.1 L84.0,3.8 Z M107.0,89.3 L102.4,83.1 L103.0,79.8 L104.3,79.9 L107.4,84.1 L106.9,85.9 L110.8,86.7 L111.7,94.2 Z">
  <desc xmlns="http://www.highcharts.com/svg/namespace">
    <labelrank>4</labelrank>
    <hasc>MX.BN</hasc>
    <alt-name>NULL</alt-name>
    <woe-id>2346265</woe-id>
    <subregion>NULL</subregion>
    <fips>MX02</fips>
    <postal-code>BC</postal-code>
    <name>Baja California</name>
    <country>Mexico</country>
    <type-en>State</type-en>
    <region>NULL</region>
    <longitude>-115.209</longitude>
    <woe-name>Baja California</woe-name>
    <latitude>30.3399</latitude>
    <woe-label>Baja California, MX, Mexico</woe-label>
    <type>Estado</type>
    <hc-middle-x>0.53</hc-middle-x>
    <hc-middle-y>0.23</hc-middle-y>
    <hc-key>mx-bc</hc-key>
    <hc-a2>BC</hc-a2>
  </desc>
</path>

<path fill="#CEE3F5" stroke="#6E6E6E" stroke-width="0.4" id="MX.BS" d="M177.1,214.8 L175.7,214.9 L174.9,213.6 L174.3,209.4 Z M129.5,203.8 L131.8,203.8 L135.5,207.6 L135.0,209.4 Z M165.1,204.8 L166.6,206.8 L165.7,208.4 L163.9,204.2 Z M160.5,192.9 L161.8,196.7 L159.0,194.9 L157.8,192.9 Z M125.9,192.2 L124.3,196.9 L122.5,196.7 L125.0,191.4 L126.8,185.5 L127.2,186.6 L125.6,190.8 Z M151.6,167.3 L147.5,173.1 L148.0,170.6 L148.9,167.9 Z M86.5,116.2 L87.7,116.3 L88.5,118.1 L88.8,116.4 L89.4,116.4 L89.4,116.5 L89.6,116.4 L102.2,117.4 L117.5,118.6 L117.0,121.8 L120.5,127.1 L125.2,129.6 L126.7,134.6 L128.5,137.5 L128.1,138.4 L130.6,140.5 L133.6,141.6 L131.9,144.3 L134.9,148.1 L134.0,150.3 L136.4,154.4 L138.8,154.3 L136.0,150.9 L135.4,146.9 L136.1,146.5 L141.4,151.7 L141.1,154.6 L143.8,156.1 L143.2,158.9 L144.6,160.7 L144.4,162.6 L145.9,167.0 L144.8,169.6 L145.7,174.1 L147.7,176.1 L149.6,180.5 L151.7,180.8 L151.5,182.4 L153.8,189.9 L156.8,193.2 L158.8,198.3 L157.2,201.2 L156.7,204.3 L157.8,209.0 L160.3,212.7 L164.8,215.3 L166.0,212.9 L165.3,210.4 L167.7,209.9 L168.9,212.1 L172.5,214.5 L172.8,217.3 L176.3,217.0 L176.3,220.7 L179.0,223.5 L179.2,227.1 L183.7,229.4 L184.7,231.9 L184.6,235.8 L182.1,240.2 L178.0,242.0 L173.7,245.6 L172.4,245.6 L169.3,241.9 L168.1,234.6 L165.2,229.1 L159.4,225.5 L149.6,214.8 L140.4,208.7 L137.2,205.3 L136.0,202.5 L135.5,203.7 L133.2,203.3 L132.4,200.6 L129.9,197.5 L127.2,197.5 L126.1,195.0 L126.9,187.8 L128.1,185.7 L128.5,181.0 L127.9,180.8 L128.3,174.4 L126.6,167.8 L124.6,166.3 L123.7,163.2 L121.6,161.0 L120.4,161.6 L115.6,158.0 L108.7,152.0 L108.9,150.7 L106.8,147.2 L107.5,142.9 L104.1,148.0 L102.5,146.8 L99.4,146.6 L98.4,148.3 L96.4,148.0 L94.6,146.1 L92.9,142.3 L89.9,140.9 L88.9,141.3 L86.7,138.0 L84.2,136.7 L82.9,137.2 L78.9,134.2 L78.8,130.1 L77.0,128.2 L74.1,126.9 L71.9,122.7 L70.8,123.1 L68.2,120.5 L67.9,118.0 L77.5,121.0 L79.7,121.2 L83.7,119.0 L84.3,122.5 L87.0,124.3 L87.9,126.0 L89.3,124.5 L91.3,125.0 L92.1,123.5 L89.9,122.6 L88.1,123.5 L86.9,120.4 L87.2,117.5 L84.9,118.8 Z">
  <desc xmlns="http://www.highcharts.com/svg/namespace">
    <labelrank>4</labelrank>
    <hasc>MX.BS</hasc>
    <alt-name>NULL</alt-name>
    <woe-id>2346266</woe-id>
    <subregion>NULL</subregion>
    <fips>MX03</fips>
    <postal-code>BS</postal-code>
    <name>Baja California Sur</name>
    <country>Mexico</country>
    <type-en>State</type-en>
    <region>NULL</region>
    <longitude>-111.452</longitude>
    <woe-name>Baja California Sur</woe-name>
    <latitude>25.0656</latitude>
    <woe-label>Baja California Sur, MX, Mexico</woe-label>
    <type>Estado</type>
    <hc-middle-x>0.43</hc-middle-x>
    <hc-middle-y>0.21</hc-middle-y>
    <hc-key>mx-bs</hc-key>
    <hc-a2>BS</hc-a2>
  </desc>
</path>

<path fill="#CEE3F5" stroke="#6E6E6E" stroke-width="0.4" id="MX.SO" d="M128.8,101.7 L122.8,97.6 L125.0,95.5 L124.9,92.9 L126.4,90.0 L129.8,89.6 L129.8,91.8 L131.3,94.7 Z M84.7,25.2 L83.7,25.7 L82.1,24.1 L83.1,23.2 Z M207.6,152.1 L193.5,162.9 L191.1,162.4 L191.2,158.8 L185.5,152.5 L185.4,154.1 L182.5,154.2 L180.3,153.4 L178.5,151.0 L176.3,144.9 L169.5,142.2 L167.1,139.8 L164.5,138.3 L166.7,138.4 L163.4,134.6 L162.8,130.8 L163.9,129.4 L163.3,125.9 L165.3,125.2 L159.3,122.9 L158.5,121.3 L157.5,124.9 L155.2,121.8 L153.9,122.3 L150.0,119.3 L145.7,111.1 L140.8,108.9 L139.9,105.8 L136.1,101.4 L136.7,100.4 L134.5,98.8 L132.2,95.6 L132.1,92.6 L130.9,90.6 L130.8,87.5 L128.8,87.8 L127.1,85.8 L128.2,83.8 L122.4,72.5 L121.1,72.0 L121.5,65.7 L119.4,63.5 L119.5,59.7 L117.2,57.0 L115.6,53.5 L114.8,50.0 L117.1,41.8 L113.5,39.3 L107.0,37.6 L105.9,36.1 L105.1,32.5 L102.9,30.7 L99.5,29.5 L97.5,32.0 L94.8,31.7 L88.2,26.6 L86.6,24.4 L84.6,24.1 L79.7,20.1 L79.8,14.4 L78.4,11.0 L80.8,6.7 L83.5,6.0 L149.7,36.4 L158.5,40.4 L159.8,40.6 L201.9,42.8 L199.9,54.7 L204.8,59.6 L206.9,60.5 L209.1,62.9 L209.7,74.2 L209.3,75.1 L207.5,89.3 L205.5,89.4 L206.7,104.6 L206.1,108.5 L208.1,115.5 L205.9,117.4 L200.9,116.0 L196.8,116.2 L195.1,118.5 L197.5,125.1 L199.9,126.9 L200.6,128.8 L202.8,130.9 L202.5,132.2 L205.0,135.0 L205.2,139.7 L204.2,142.8 L206.4,146.2 L208.5,147.6 L208.5,147.6 L208.6,147.8 L208.6,147.8 Z M190.1,165.1 L190.8,163.5 L190.3,165.0 L190.3,165.0 Z M191.5,164.5 L191.7,162.8 L193.1,163.5 L192.5,163.9 Z">
  <desc xmlns="http://www.highcharts.com/svg/namespace">
    <labelrank>4</labelrank>
    <hasc>MX.SO</hasc>
    <alt-name>NULL</alt-name>
    <woe-id>2346289</woe-id>
    <subregion>NULL</subregion>
    <fips>MX26</fips>
    <postal-code>SO</postal-code>
    <name>Sonora</name>
    <country>Mexico</country>
    <type-en>State</type-en>
    <region>NULL</region>
    <longitude>-110.485</longitude>
    <woe-name>Sonora</woe-name>
    <latitude>29.5293</latitude>
    <woe-label>Sonora, MX, Mexico</woe-label>
    <type>Estado</type>
    <hc-middle-x>0.64</hc-middle-x>
    <hc-middle-y>0.40</hc-middle-y>
    <hc-key>mx-so</hc-key>
    <hc-a2>SO</hc-a2>
  </desc>
</path>

<path fill="#CEE3F5" stroke="#6E6E6E" stroke-width="0.4" id="MX.CL" d="M146.7,344.7 L143.4,343.6 L145.0,341.2 L147.0,343.8 Z M311.2,348.3 L305.7,343.9 L297.7,340.4 L298.3,339.0 L291.7,337.3 L293.0,335.0 L294.4,335.4 L300.4,333.2 L302.5,329.6 L304.1,328.9 L309.0,331.4 L313.5,329.2 L314.3,331.1 L316.7,333.3 L316.1,338.7 L317.2,341.7 L314.2,343.5 L313.8,345.6 Z">
  <desc xmlns="http://www.highcharts.com/svg/namespace">
    <labelrank>7</labelrank>
    <hasc>MX.CL</hasc>
    <alt-name>NULL</alt-name>
    <woe-id>2346271</woe-id>
    <subregion>NULL</subregion>
    <fips>MX08</fips>
    <postal-code>CL</postal-code>
    <name>Colima</name>
    <country>Mexico</country>
    <type-en>State</type-en>
    <region>NULL</region>
    <longitude>-103.915</longitude>
    <woe-name>Colima</woe-name>
    <latitude>19.1325</latitude>
    <woe-label>Colima, MX, Mexico</woe-label>
    <type>Estado</type>
    <hc-middle-x>0.96</hc-middle-x>
    <hc-middle-y>0.45</hc-middle-y>
    <hc-key>mx-cl</hc-key>
    <hc-a2>CL</hc-a2>
  </desc>
</path>

<path fill="#CEE3F5" stroke="#6E6E6E" stroke-width="0.4" id="MX.NA" d="M245.8,275.8 L248.2,276.8 L248.0,279.1 L246.0,278.1 Z M298.1,261.2 L298.0,261.9 L297.7,262.6 L296.2,266.9 L302.9,274.1 L301.6,278.6 L300.4,280.5 L306.4,283.9 L305.5,286.4 L303.3,288.0 L300.1,288.9 L300.4,293.6 L299.1,296.2 L298.7,299.9 L294.4,296.7 L293.4,295.2 L291.2,294.8 L288.8,292.7 L287.2,292.5 L284.3,294.5 L280.5,294.8 L276.0,300.4 L274.4,298.5 L271.8,298.8 L272.3,296.0 L275.6,292.1 L277.3,291.4 L277.8,288.0 L277.2,284.6 L278.2,281.0 L273.4,278.4 L268.6,269.9 L268.0,267.6 L268.1,262.6 L266.6,256.5 L269.1,255.6 L272.4,256.9 L272.9,255.6 L271.9,252.4 L270.1,249.8 L272.8,247.2 L272.4,245.1 L274.2,244.0 L279.9,244.4 L284.0,246.9 L285.3,249.9 L282.9,252.7 L283.4,255.9 L287.8,252.7 L290.2,253.9 L292.0,257.9 L294.4,258.9 L297.6,257.5 Z">
  <desc xmlns="http://www.highcharts.com/svg/namespace">
    <labelrank>4</labelrank>
    <hasc>MX.NA</hasc>
    <alt-name>NULL</alt-name>
    <woe-id>2346281</woe-id>
    <subregion>NULL</subregion>
    <fips>MX18</fips>
    <postal-code>NA</postal-code>
    <name>Nayarit</name>
    <country>Mexico</country>
    <type-en>State</type-en>
    <region>NULL</region>
    <longitude>-104.824</longitude>
    <woe-name>Nayarit</woe-name>
    <latitude>21.7934</latitude>
    <woe-label>Nayarit, MX, Mexico</woe-label>
    <type>Estado</type>
    <hc-middle-x>0.66</hc-middle-x>
    <hc-middle-y>0.50</hc-middle-y>
    <hc-key>mx-na</hc-key>
    <hc-a2>NA</hc-a2>
  </desc>
</path>

<path fill="#CEE3F5" stroke="#6E6E6E" stroke-width="0.4" id="MX.CM" d="M592.5,335.8 L589.4,337.9 L585.7,338.6 L591.7,335.2 Z M649.9,351.5 L649.8,354.9 L607.3,358.1 L606.7,358.5 L606.4,354.5 L603.6,354.5 L598.6,352.8 L592.6,352.1 L591.3,356.0 L586.0,356.3 L583.5,355.0 L578.7,351.5 L578.4,344.3 L573.6,344.7 L572.1,343.7 L570.4,340.2 L580.1,338.3 L582.7,338.4 L584.9,340.2 L581.4,340.4 L586.6,343.0 L591.4,343.8 L593.4,342.0 L597.3,340.2 L598.6,336.1 L594.9,334.1 L594.4,332.9 L600.5,329.1 L605.5,325.0 L609.8,319.4 L609.7,311.8 L610.5,309.4 L614.6,305.6 L613.8,302.0 L613.7,293.6 L613.0,290.6 L613.5,285.4 L614.9,283.2 L615.3,290.0 L618.9,290.6 L620.7,292.6 L623.2,292.7 L624.1,291.2 L626.1,294.6 L628.0,295.8 L629.6,298.9 L634.1,301.5 L636.1,304.5 L638.7,307.1 L639.9,310.1 L641.0,311.4 L647.0,315.5 L650.3,319.9 L650.5,324.5 L649.2,326.4 L649.2,333.1 L652.0,345.0 L649.5,349.5 Z">
  <desc xmlns="http://www.highcharts.com/svg/namespace">
    <labelrank>6</labelrank>
    <hasc>MX.CM</hasc>
    <alt-name>NULL</alt-name>
    <woe-id>2346267</woe-id>
    <subregion>NULL</subregion>
    <fips>MX04</fips>
    <postal-code>CM</postal-code>
    <name>Campeche</name>
    <country>Mexico</country>
    <type-en>State</type-en>
    <region>NULL</region>
    <longitude>-90.2807</longitude>
    <woe-name>Campeche</woe-name>
    <latitude>18.6624</latitude>
    <woe-label>Campeche, MX, Mexico</woe-label>
    <type>Estado</type>
    <hc-middle-x>0.69</hc-middle-x>
    <hc-middle-y>0.60</hc-middle-y>
    <hc-key>mx-cm</hc-key>
    <hc-a2>CM</hc-a2>
  </desc>
</path>

<path fill="#CEE3F5" stroke="#6E6E6E" stroke-width="0.4" id="MX.QR" d="M700.0,281.1 L696.5,287.9 L695.1,289.4 L694.3,285.1 L695.7,282.1 Z M679.0,260.0 L680.2,260.7 L686.2,260.6 L687.7,259.7 L688.2,257.5 L685.0,257.8 L688.1,256.0 L691.4,257.0 L693.4,259.7 L695.7,259.8 L696.7,265.4 L698.5,266.3 L697.0,270.1 L696.2,274.3 L692.4,280.7 L688.8,284.2 L684.7,292.2 L684.8,300.1 L680.9,305.3 L679.2,305.5 L679.2,307.3 L681.2,308.2 L681.1,309.8 L683.5,308.0 L686.4,308.1 L686.8,309.6 L681.8,313.0 L681.4,316.4 L682.6,316.8 L684.1,314.2 L686.1,314.0 L683.9,321.7 L683.2,328.1 L681.9,330.4 L681.4,337.3 L680.4,339.1 L680.2,342.7 L679.4,339.5 L677.4,336.8 L673.9,335.7 L675.3,330.8 L674.1,326.3 L671.9,329.3 L669.1,336.3 L664.3,336.9 L661.8,343.4 L660.0,345.0 L659.4,348.2 L656.3,352.5 L652.1,350.1 L649.9,351.5 L649.5,349.5 L652.0,345.0 L649.2,333.1 L649.2,326.4 L650.5,324.5 L650.3,319.9 L647.0,315.5 L641.0,311.4 L639.9,310.1 L640.6,305.8 L644.5,304.9 L647.7,302.4 L651.0,301.7 L655.5,297.9 L661.3,294.8 L662.7,291.7 L665.0,290.4 L667.3,287.3 L670.8,287.6 L673.2,286.0 L678.1,281.5 L680.6,273.5 L679.0,269.8 L679.9,265.0 Z">
  <desc xmlns="http://www.highcharts.com/svg/namespace">
    <labelrank>4</labelrank>
    <hasc>MX.QR</hasc>
    <alt-name>NULL</alt-name>
    <woe-id>2346286</woe-id>
    <subregion>NULL</subregion>
    <fips>MX23</fips>
    <postal-code>QR</postal-code>
    <name>Quintana Roo</name>
    <country>Mexico</country>
    <type-en>State</type-en>
    <region>NULL</region>
    <longitude>-88.34399999999999</longitude>
    <woe-name>Quintana Roo</woe-name>
    <latitude>19.3861</latitude>
    <woe-label>Quintana Roo, MX, Mexico</woe-label>
    <type>Estado</type>
    <hc-middle-x>0.44</hc-middle-x>
    <hc-middle-y>0.63</hc-middle-y>
    <hc-key>mx-qr</hc-key>
    <hc-a2>QR</hc-a2>
  </desc>
</path>

<path fill="#CEE3F5" stroke="#6E6E6E" stroke-width="0.4" id="MX.MX" d="M427.6,338.3 L426.2,339.6 L423.8,339.6 L423.2,337.9 L420.3,336.9 L420.8,336.1 L419.5,331.0 L416.3,325.4 L413.4,330.6 L412.2,330.6 L411.8,333.6 L412.9,335.8 L411.9,338.6 L412.6,340.9 L408.9,344.2 L408.4,347.3 L406.6,347.0 L404.6,345.2 L401.8,348.7 L400.3,347.7 L395.3,349.1 L393.6,352.0 L390.7,354.5 L388.6,353.0 L388.9,351.1 L386.9,348.4 L386.3,343.7 L382.5,343.1 L389.7,333.7 L388.9,332.1 L392.8,329.7 L391.4,326.2 L393.3,317.2 L397.1,311.5 L397.3,309.5 L399.4,308.1 L404.1,312.3 L406.2,311.6 L407.7,313.9 L407.0,316.5 L408.7,317.5 L410.2,321.1 L414.2,315.6 L418.4,314.0 L420.5,316.6 L419.7,319.3 L420.9,319.6 L422.7,317.6 L425.8,318.4 L428.0,320.9 L426.9,324.7 L425.8,324.8 L427.4,327.7 L426.8,329.4 L427.8,334.2 Z">
  <desc xmlns="http://www.highcharts.com/svg/namespace">
    <labelrank>4</labelrank>
    <hasc>MX.MX</hasc>
    <alt-name>NULL</alt-name>
    <woe-id>2346278</woe-id>
    <subregion>NULL</subregion>
    <fips>MX15</fips>
    <postal-code>MX</postal-code>
    <name>México</name>
    <country>Mexico</country>
    <type-en>State</type-en>
    <region>NULL</region>
    <longitude>-99.74160000000001</longitude>
    <woe-name>México</woe-name>
    <latitude>19.3275</latitude>
    <woe-label>Mexico, MX, Mexico</woe-label>
    <type>Estado</type>
    <hc-middle-x>0.45</hc-middle-x>
    <hc-middle-y>0.45</hc-middle-y>
    <hc-key>mx-mx</hc-key>
    <hc-a2>MX</hc-a2>
  </desc>
</path>

<path fill="#CEE3F5" stroke="#6E6E6E" stroke-width="0.4" id="MX.MO" d="M420.3,336.9 L423.2,337.9 L423.8,339.6 L426.2,339.6 L427.6,338.3 L427.5,341.5 L425.8,343.4 L427.3,346.4 L425.5,346.3 L427.4,352.6 L424.3,351.1 L418.9,354.8 L415.4,349.9 L414.3,352.4 L412.3,352.5 L410.5,350.7 L408.4,347.3 L408.9,344.2 L412.6,340.9 L411.9,338.6 L412.9,335.8 L418.5,337.7 Z">
  <desc xmlns="http://www.highcharts.com/svg/namespace">
    <labelrank>4</labelrank>
    <hasc>MX.MR</hasc>
    <alt-name>NULL</alt-name>
    <woe-id>2346280</woe-id>
    <subregion>NULL</subregion>
    <fips>MX17</fips>
    <postal-code>MO</postal-code>
    <name>Morelos</name>
    <country>Mexico</country>
    <type-en>State</type-en>
    <region>NULL</region>
    <longitude>-99.07850000000001</longitude>
    <woe-name>Morelos</woe-name>
    <latitude>18.742</latitude>
    <woe-label>Morelos, MX, Mexico</woe-label>
    <type>Estado</type>
    <hc-middle-x>0.52</hc-middle-x>
    <hc-middle-y>0.52</hc-middle-y>
    <hc-key>mx-mo</hc-key>
    <hc-a2>MO</hc-a2>
  </desc>
</path>

<path fill="#CEE3F5" stroke="#6E6E6E" stroke-width="0.4" id="MX.DF" d="M420.3,336.9 L418.5,337.7 L412.9,335.8 L411.8,333.6 L412.2,330.6 L413.4,330.6 L416.3,325.4 L419.5,331.0 L420.8,336.1 Z">
  <desc xmlns="http://www.highcharts.com/svg/namespace">
    <labelrank>4</labelrank>
    <hasc>MX.DF</hasc>
    <alt-name>NULL</alt-name>
    <woe-id>2346272</woe-id>
    <subregion>NULL</subregion>
    <fips>MX09</fips>
    <postal-code>DF</postal-code>
    <name>Distrito Federal</name>
    <country>Mexico</country>
    <type-en>Federal District</type-en>
    <region>NULL</region>
    <longitude>-99.1369</longitude>
    <woe-name>Distrito Federal</woe-name>
    <latitude>19.3266</latitude>
    <woe-label>Distrito Federal, MX, Mexico</woe-label>
    <type>Distrito Federal</type>
    <hc-middle-x>0.44</hc-middle-x>
    <hc-middle-y>0.59</hc-middle-y>
    <hc-key>mx-df</hc-key>
    <hc-a2>DF</hc-a2>
  </desc>
</path>

<path fill="#CEE3F5" stroke="#6E6E6E" stroke-width="0.4" id="MX.QT" d="M399.4,308.1 L397.3,309.5 L397.1,311.5 L393.3,317.2 L392.0,316.3 L392.0,313.7 L389.4,310.7 L387.4,309.3 L384.8,305.4 L384.6,302.9 L382.8,298.2 L385.0,292.6 L388.2,294.3 L389.7,293.4 L391.3,294.6 L393.1,293.7 L394.1,287.8 L396.2,286.7 L399.2,287.7 L401.8,285.5 L399.9,284.5 L399.9,281.4 L401.4,279.0 L404.8,281.9 L409.1,280.8 L413.0,275.5 L415.5,281.8 L415.2,284.0 L416.8,284.5 L416.9,286.7 L412.8,288.2 L409.7,288.5 L410.0,290.5 L408.7,293.7 L407.0,295.3 L406.4,297.7 L407.2,299.4 L404.1,301.7 L399.8,303.2 Z">
  <desc xmlns="http://www.highcharts.com/svg/namespace">
    <labelrank>4</labelrank>
    <hasc>MX.QE</hasc>
    <alt-name>NULL</alt-name>
    <woe-id>2346285</woe-id>
    <subregion>NULL</subregion>
    <fips>MX22</fips>
    <postal-code>QT</postal-code>
    <name>Querétaro</name>
    <country>Mexico</country>
    <type-en>State</type-en>
    <region>NULL</region>
    <longitude>-99.9663</longitude>
    <woe-name>Querétaro</woe-name>
    <latitude>20.7392</latitude>
    <woe-label>Queretaro de Arteaga, MX, Mexico</woe-label>
    <type>Estado</type>
    <hc-middle-x>0.32</hc-middle-x>
    <hc-middle-y>0.57</hc-middle-y>
    <hc-key>mx-qt</hc-key>
    <hc-a2>QT</hc-a2>
  </desc>
</path>

<path fill="#CEE3F5" stroke="#6E6E6E" stroke-width="0.4" id="MX.TB" d="M606.7,358.5 L607.6,372.0 L597.2,372.7 L598.2,370.7 L595.4,368.9 L595.5,367.8 L592.2,366.7 L590.2,361.9 L587.9,361.7 L587.1,357.9 L582.9,357.7 L579.5,360.8 L574.5,363.3 L573.0,365.6 L567.3,371.5 L563.9,370.9 L562.1,368.3 L560.2,367.5 L559.4,363.0 L559.4,358.5 L557.4,359.4 L554.8,357.7 L552.0,358.2 L550.2,366.3 L548.1,368.5 L546.4,372.9 L545.1,371.9 L545.6,368.8 L542.7,365.9 L537.8,364.0 L536.9,362.3 L534.4,361.2 L534.8,358.5 L532.5,353.4 L538.8,350.6 L538.5,351.8 L541.0,351.1 L542.8,349.2 L545.0,349.3 L545.2,347.5 L548.3,346.7 L556.3,346.2 L561.9,345.3 L565.4,341.4 L570.4,340.2 L572.1,343.7 L573.6,344.7 L578.4,344.3 L578.7,351.5 L583.5,355.0 L586.0,356.3 L591.3,356.0 L592.6,352.1 L598.6,352.8 L603.6,354.5 L606.4,354.5 Z">
  <desc xmlns="http://www.highcharts.com/svg/namespace">
    <labelrank>4</labelrank>
    <hasc>MX.TB</hasc>
    <alt-name>NULL</alt-name>
    <woe-id>2346290</woe-id>
    <subregion>NULL</subregion>
    <fips>MX32</fips>
    <postal-code>TB</postal-code>
    <name>Tabasco</name>
    <country>Mexico</country>
    <type-en>State</type-en>
    <region>NULL</region>
    <longitude>-92.8274</longitude>
    <woe-name>Tabasco</woe-name>
    <latitude>18.1252</latitude>
    <woe-label>Tabasco, MX, Mexico</woe-label>
    <type>Estado</type>
    <hc-middle-x>0.48</hc-middle-x>
    <hc-middle-y>0.45</hc-middle-y>
    <hc-key>mx-tb</hc-key>
    <hc-a2>TB</hc-a2>
  </desc>
</path>

<path fill="#CEE3F5" stroke="#6E6E6E" stroke-width="0.4" id="MX.CS" d="M536.3,404.6 L539.4,406.9 L535.8,405.6 Z M597.2,372.7 L600.7,374.1 L606.4,380.4 L614.5,384.0 L617.2,387.7 L617.4,390.3 L619.5,390.0 L623.6,392.8 L622.2,394.3 L622.9,397.9 L621.6,400.2 L592.2,402.2 L591.6,402.8 L582.0,422.0 L582.1,423.2 L585.4,427.1 L583.6,429.1 L582.9,433.6 L583.8,436.3 L582.0,440.2 L570.6,429.7 L567.0,425.4 L563.5,423.5 L557.4,418.1 L546.9,410.4 L539.9,406.6 L542.0,406.1 L540.9,404.6 L536.4,403.4 L537.4,400.3 L535.0,394.7 L536.9,390.8 L536.9,387.1 L539.6,385.4 L540.4,382.1 L540.1,378.7 L545.4,374.8 L546.4,372.9 L548.1,368.5 L550.2,366.3 L552.0,358.2 L554.8,357.7 L557.4,359.4 L559.4,358.5 L559.4,363.0 L560.2,367.5 L562.1,368.3 L563.9,370.9 L567.3,371.5 L573.0,365.6 L574.5,363.3 L579.5,360.8 L582.9,357.7 L587.1,357.9 L587.9,361.7 L590.2,361.9 L592.2,366.7 L595.5,367.8 L595.4,368.9 L598.2,370.7 Z">
  <desc xmlns="http://www.highcharts.com/svg/namespace">
    <labelrank>4</labelrank>
    <hasc>MX.CP</hasc>
    <alt-name>NULL</alt-name>
    <woe-id>2346268</woe-id>
    <subregion>NULL</subregion>
    <fips>MX05</fips>
    <postal-code>CS</postal-code>
    <name>Chiapas</name>
    <country>Mexico</country>
    <type-en>State</type-en>
    <region>NULL</region>
    <longitude>-92.581</longitude>
    <woe-name>Chiapas</woe-name>
    <latitude>16.527</latitude>
    <woe-label>Chiapas, MX, Mexico</woe-label>
    <type>Estado</type>
    <hc-middle-x>0.47</hc-middle-x>
    <hc-middle-y>0.43</hc-middle-y>
    <hc-key>mx-cs</hc-key>
    <hc-a2>CS</hc-a2>
  </desc>
</path>

<path fill="#CEE3F5" stroke="#6E6E6E" stroke-width="0.4" id="MX.NL" d="M394.4,128.5 L395.9,129.6 L396.6,130.9 L392.4,133.4 L392.6,135.1 L395.3,135.4 L397.7,143.7 L396.8,147.2 L397.5,149.5 L400.5,150.8 L398.7,154.6 L400.5,154.4 L404.0,155.8 L404.7,157.1 L403.9,159.7 L404.7,162.0 L405.9,161.3 L407.7,163.6 L409.5,163.9 L410.6,169.2 L413.0,168.3 L416.0,171.1 L417.6,168.9 L422.9,170.1 L423.2,170.8 L423.8,182.7 L426.2,183.8 L416.9,192.4 L413.6,191.7 L410.4,194.8 L411.1,200.1 L408.2,199.0 L404.2,201.2 L402.8,203.5 L400.5,203.8 L398.7,205.5 L399.4,207.8 L401.6,206.8 L402.4,210.8 L401.7,215.8 L402.3,217.6 L405.2,220.0 L402.4,224.7 L397.1,225.5 L394.7,230.7 L395.9,234.4 L392.8,233.5 L391.0,235.0 L392.6,236.0 L392.6,237.7 L386.6,237.6 L386.3,239.1 L384.1,238.2 L383.3,233.7 L383.6,231.4 L382.6,227.9 L382.7,224.0 L380.5,221.5 L380.0,219.2 L379.6,213.0 L374.7,206.3 L375.8,201.9 L375.2,198.4 L376.5,196.7 L374.2,194.9 L375.6,192.3 L378.0,190.7 L380.8,190.2 L384.1,191.0 L386.7,190.5 L388.0,188.8 L385.7,187.3 L382.4,187.4 L379.7,185.8 L377.6,183.0 L379.7,183.7 L377.8,181.1 L376.4,181.0 L373.5,177.0 L373.4,172.9 L371.7,171.9 L371.4,169.9 L369.1,168.2 L367.5,165.2 L365.1,163.1 L374.9,154.2 L375.9,156.9 L378.5,153.3 L379.0,146.8 L376.4,145.3 L375.5,147.2 L373.7,146.3 L373.5,142.7 L377.2,139.8 L381.3,138.4 L382.2,133.0 L383.3,130.6 L386.4,128.3 L391.1,131.8 Z">
  <desc xmlns="http://www.highcharts.com/svg/namespace">
    <labelrank>4</labelrank>
    <hasc>MX.NL</hasc>
    <alt-name>NULL</alt-name>
    <woe-id>2346282</woe-id>
    <subregion>NULL</subregion>
    <fips>MX19</fips>
    <postal-code>NL</postal-code>
    <name>Nuevo León</name>
    <country>Mexico</country>
    <type-en>State</type-en>
    <region>NULL</region>
    <longitude>-99.83069999999999</longitude>
    <woe-name>Nuevo León</woe-name>
    <latitude>25.6178</latitude>
    <woe-label>Nuevo Leon, MX, Mexico</woe-label>
    <type>Estado</type>
    <hc-middle-x>0.52</hc-middle-x>
    <hc-middle-y>0.51</hc-middle-y>
    <hc-key>mx-nl</hc-key>
    <hc-a2>NL</hc-a2>
  </desc>
</path>

<path fill="#CEE3F5" stroke="#6E6E6E" stroke-width="0.4" id="MX.SI" d="M190.3,165.0 L190.3,166.9 L191.5,164.5 L192.5,163.9 L193.1,163.5 L194.1,165.7 L193.5,162.9 L207.6,152.1 L208.5,147.6 L208.5,147.6 L210.7,145.6 L213.3,146.5 L214.4,148.2 L218.2,149.6 L218.6,152.1 L222.0,157.4 L222.7,166.0 L223.4,167.2 L230.8,168.9 L232.3,170.1 L234.0,175.3 L236.9,177.2 L240.9,180.9 L238.1,184.2 L237.4,186.1 L236.6,191.7 L238.4,198.2 L240.6,201.1 L242.3,201.4 L244.5,203.5 L247.3,208.9 L247.9,211.6 L249.8,213.5 L252.0,213.6 L255.0,211.2 L256.7,211.2 L259.8,213.8 L262.0,218.9 L263.9,219.2 L262.7,222.1 L263.1,227.6 L264.6,231.1 L267.0,233.6 L267.6,237.6 L270.6,240.9 L274.1,241.2 L274.2,244.0 L272.4,245.1 L272.8,247.2 L270.1,249.8 L271.9,252.4 L272.9,255.6 L272.4,256.9 L269.1,255.6 L266.6,256.5 L264.9,253.4 L261.8,249.9 L259.8,248.8 L255.7,243.4 L251.1,239.0 L249.1,234.7 L247.2,233.2 L242.8,227.6 L240.9,224.1 L238.0,220.8 L230.6,215.2 L230.0,214.1 L222.0,208.5 L227.0,211.3 L228.4,210.5 L227.6,207.8 L225.3,209.0 L218.5,204.5 L220.7,207.1 L217.2,204.2 L216.4,200.9 L217.8,201.1 L216.6,195.8 L216.1,200.0 L213.9,198.5 L211.2,193.0 L214.3,196.3 L214.4,194.3 L217.1,195.7 L215.1,192.9 L212.7,191.5 L210.1,191.7 L209.6,189.1 L209.0,191.6 L207.7,189.0 L202.6,185.7 L200.0,186.2 L193.3,182.1 L196.5,181.2 L198.2,178.3 L193.0,181.0 L192.2,179.4 L189.4,179.0 L189.7,177.6 L186.5,175.6 L186.9,170.2 L190.1,165.1 L190.3,165.0 Z">
  <desc xmlns="http://www.highcharts.com/svg/namespace">
    <labelrank>4</labelrank>
    <hasc>MX.SI</hasc>
    <alt-name>NULL</alt-name>
    <woe-id>2346288</woe-id>
    <subregion>NULL</subregion>
    <fips>MX25</fips>
    <postal-code>SI</postal-code>
    <name>Sinaloa</name>
    <country>Mexico</country>
    <type-en>State</type-en>
    <region>NULL</region>
    <longitude>-108.001</longitude>
    <woe-name>Sinaloa</woe-name>
    <latitude>25.6041</latitude>
    <woe-label>Sinaloa, MX, Mexico</woe-label>
    <type>Estado</type>
    <hc-middle-x>0.39</hc-middle-x>
    <hc-middle-y>0.33</hc-middle-y>
    <hc-key>mx-si</hc-key>
    <hc-a2>SI</hc-a2>
  </desc>
</path>

<path fill="#CEE3F5" stroke="#6E6E6E" stroke-width="0.4" id="MX.CH" d="M208.5,147.6 L208.5,147.6 L206.4,146.2 L204.2,142.8 L205.2,139.7 L205.0,135.0 L202.5,132.2 L202.8,130.9 L200.6,128.8 L199.9,126.9 L197.5,125.1 L195.1,118.5 L196.8,116.2 L200.9,116.0 L205.9,117.4 L208.1,115.5 L206.1,108.5 L206.7,104.6 L205.5,89.4 L207.5,89.3 L209.3,75.1 L209.7,74.2 L209.1,62.9 L206.9,60.5 L204.8,59.6 L199.9,54.7 L201.9,42.8 L217.5,43.4 L217.9,32.6 L252.8,33.6 L256.0,35.0 L257.4,38.4 L259.9,41.6 L263.2,42.9 L268.0,48.2 L271.6,50.8 L272.3,52.5 L276.3,56.2 L279.1,57.2 L283.6,60.4 L286.1,63.4 L286.8,66.8 L290.4,72.1 L290.4,78.1 L292.7,81.8 L293.5,84.7 L297.3,87.8 L299.0,88.1 L303.5,92.6 L309.0,94.1 L311.6,96.5 L314.3,97.1 L318.0,100.1 L319.2,100.0 L305.5,126.7 L312.9,157.3 L306.1,154.6 L302.3,154.3 L299.8,155.5 L293.6,163.9 L291.9,164.4 L286.8,161.1 L283.5,160.7 L282.7,161.8 L280.7,159.5 L276.1,161.7 L271.2,159.0 L268.6,155.9 L265.8,156.0 L261.1,152.5 L259.7,154.9 L258.3,154.7 L258.0,157.8 L256.8,159.1 L256.7,162.2 L252.2,163.8 L253.4,168.5 L252.8,170.8 L250.1,172.6 L249.5,177.7 L245.6,181.2 L240.9,180.9 L236.9,177.2 L234.0,175.3 L232.3,170.1 L230.8,168.9 L223.4,167.2 L222.7,166.0 L222.0,157.4 L218.6,152.1 L218.2,149.6 L214.4,148.2 L213.3,146.5 L210.7,145.6 L208.6,147.8 Z">
  <desc xmlns="http://www.highcharts.com/svg/namespace">
    <labelrank>6</labelrank>
    <hasc>MX.CH</hasc>
    <alt-name>NULL</alt-name>
    <woe-id>2346269</woe-id>
    <subregion>NULL</subregion>
    <fips>MX06</fips>
    <postal-code>CH</postal-code>
    <name>Chihuahua</name>
    <country>Mexico</country>
    <type-en>State</type-en>
    <region>NULL</region>
    <longitude>-106.232</longitude>
    <woe-name>Chihuahua</woe-name>
    <latitude>28.973</latitude>
    <woe-label>Chihuahua, MX, Mexico</woe-label>
    <type>Estado</type>
    <hc-middle-x>0.45</hc-middle-x>
    <hc-middle-y>0.49</hc-middle-y>
    <hc-key>mx-ch</hc-key>
    <hc-a2>CH</hc-a2>
  </desc>
</path>

<path fill="#CEE3F5" stroke="#6E6E6E" stroke-width="0.4" id="MX.VE" d="M532.5,353.4 L534.8,358.5 L534.4,361.2 L536.9,362.3 L537.8,364.0 L542.7,365.9 L545.6,368.8 L545.1,371.9 L546.4,372.9 L545.4,374.8 L540.1,378.7 L515.1,378.4 L513.6,375.0 L511.7,374.3 L507.3,369.9 L508.2,366.2 L499.1,371.9 L494.8,371.6 L491.9,365.7 L494.8,360.5 L493.2,357.5 L490.4,356.6 L486.9,357.3 L484.1,356.0 L483.5,354.0 L480.4,350.6 L479.5,348.0 L475.1,346.4 L473.5,345.1 L474.3,348.3 L472.3,351.4 L470.5,348.1 L463.4,349.6 L462.7,346.0 L458.6,345.3 L458.0,342.3 L460.3,339.7 L459.2,333.8 L462.8,333.2 L465.6,330.4 L459.9,329.5 L455.6,327.0 L457.6,326.1 L455.9,323.9 L457.3,321.0 L457.4,316.2 L460.8,311.5 L460.8,309.9 L454.9,307.4 L453.4,308.0 L451.9,310.5 L448.5,309.4 L446.5,307.4 L446.4,303.4 L448.1,302.7 L449.4,303.8 L451.2,301.6 L450.4,299.8 L447.7,299.4 L446.7,295.2 L443.9,294.2 L442.4,296.5 L442.2,300.9 L441.1,302.5 L440.5,298.3 L438.4,297.7 L433.6,304.0 L432.6,303.3 L431.4,305.6 L429.9,305.9 L428.2,303.3 L429.5,299.6 L431.0,298.3 L431.9,293.4 L435.5,294.4 L435.4,291.8 L437.6,288.5 L435.7,286.6 L434.0,286.9 L434.2,284.6 L432.4,286.7 L429.2,284.2 L430.3,281.9 L428.6,280.9 L428.2,277.9 L425.6,276.0 L425.9,274.1 L429.4,271.8 L427.0,268.8 L429.5,266.8 L431.4,262.6 L431.0,259.9 L425.4,256.4 L429.4,255.9 L432.6,256.4 L432.7,255.0 L434.7,254.6 L437.2,257.1 L441.7,258.4 L442.5,260.5 L444.3,259.2 L445.0,263.4 L448.6,269.6 L451.0,272.2 L455.5,275.9 L455.0,279.4 L453.5,282.9 L452.1,279.0 L453.9,278.1 L454.1,276.1 L451.6,274.2 L448.2,270.3 L446.0,266.9 L447.8,274.4 L449.7,277.6 L451.7,278.0 L451.6,279.9 L455.6,288.1 L459.0,293.9 L460.3,297.8 L463.1,300.9 L471.6,309.1 L477.0,315.9 L479.6,323.8 L481.7,329.1 L484.6,331.1 L486.3,333.7 L488.9,335.0 L489.9,337.8 L492.2,340.3 L489.6,339.8 L493.2,342.2 L498.8,343.6 L495.0,342.0 L500.4,342.9 L507.0,342.5 L512.0,346.0 L516.5,346.5 L522.2,354.4 L524.9,355.3 Z">
  <desc xmlns="http://www.highcharts.com/svg/namespace">
    <labelrank>7</labelrank>
    <hasc>MX.VE</hasc>
    <alt-name>NULL</alt-name>
    <woe-id>2346293</woe-id>
    <subregion>NULL</subregion>
    <fips>MX30</fips>
    <postal-code>VE</postal-code>
    <name>Veracruz</name>
    <country>Mexico</country>
    <type-en>State</type-en>
    <region>NULL</region>
    <longitude>-96.5953</longitude>
    <woe-name>Veracruz</woe-name>
    <latitude>19.0926</latitude>
    <woe-label>Veracruz-Llave, MX, Mexico</woe-label>
    <type>Estado</type>
    <hc-middle-x>0.75</hc-middle-x>
    <hc-middle-y>0.88</hc-middle-y>
    <hc-key>mx-ve</hc-key>
    <hc-a2>VE</hc-a2>
  </desc>
</path>

<path fill="#CEE3F5" stroke="#6E6E6E" stroke-width="0.4" id="MX.ZA" d="M297.7,262.6 L298.0,261.9 L298.1,261.2 L300.4,253.5 L300.9,242.1 L302.1,240.4 L302.6,234.4 L306.3,231.3 L306.8,229.2 L308.7,229.8 L309.3,228.3 L307.7,226.3 L308.3,224.5 L307.1,222.7 L308.5,222.2 L308.4,219.2 L312.3,217.0 L315.6,212.7 L317.5,212.4 L318.2,210.6 L321.5,209.0 L331.4,210.9 L338.2,209.2 L338.0,200.8 L334.1,194.7 L335.9,193.6 L344.9,192.6 L351.7,194.6 L353.8,197.8 L357.8,199.1 L357.2,202.1 L360.6,202.2 L363.2,200.0 L366.4,201.0 L368.7,204.7 L374.7,206.3 L373.8,208.7 L371.1,211.1 L365.8,220.3 L356.7,227.4 L355.6,229.2 L353.1,230.5 L350.7,233.5 L347.8,236.0 L345.1,234.8 L344.0,238.2 L342.8,239.0 L344.4,242.1 L343.9,245.0 L347.0,250.4 L350.7,252.9 L353.5,256.9 L355.1,257.6 L358.0,256.4 L359.0,254.3 L364.1,254.1 L365.3,256.7 L363.6,259.6 L365.0,266.1 L360.7,272.2 L358.4,270.0 L355.2,269.3 L353.4,268.0 L350.3,265.5 L349.8,261.9 L348.0,261.5 L346.0,259.6 L345.0,260.1 L343.2,257.4 L342.0,259.1 L338.4,261.3 L335.9,261.3 L335.3,263.6 L331.1,270.4 L330.8,272.3 L332.9,274.8 L332.6,278.2 L335.7,279.1 L334.7,283.1 L332.0,285.7 L326.6,285.9 L326.4,291.7 L322.5,290.9 L316.2,288.2 L314.3,288.2 L313.3,286.8 L311.1,287.4 L311.8,283.7 L311.1,280.3 L312.6,281.2 L315.9,278.5 L315.7,273.3 L318.5,270.6 L321.0,269.2 L324.0,268.8 L325.5,267.0 L324.6,265.4 L326.4,262.7 L326.2,261.4 L323.2,261.1 L323.3,259.7 L319.1,256.4 L317.9,259.0 L319.4,260.5 L317.4,263.0 L316.5,265.6 L312.3,265.6 L312.2,261.1 L313.8,256.3 L312.7,254.7 L310.4,255.4 L308.4,264.6 L307.6,260.6 L308.4,255.2 L309.6,253.9 L310.0,251.2 L305.4,250.4 L305.3,255.1 L306.7,257.1 L306.0,260.1 L302.1,260.7 Z">
  <desc xmlns="http://www.highcharts.com/svg/namespace">
    <labelrank>6</labelrank>
    <hasc>MX.ZA</hasc>
    <alt-name>NULL</alt-name>
    <woe-id>2346295</woe-id>
    <subregion>NULL</subregion>
    <fips>MX32</fips>
    <postal-code>ZA</postal-code>
    <name>Zacatecas</name>
    <country>Mexico</country>
    <type-en>State</type-en>
    <region>NULL</region>
    <longitude>-102.579</longitude>
    <woe-name>Zacatecas</woe-name>
    <latitude>23.3785</latitude>
    <woe-label>Zacatecas, MX, Mexico</woe-label>
    <type>Estado</type>
    <hc-middle-x>0.37</hc-middle-x>
    <hc-middle-y>0.46</hc-middle-y>
    <hc-key>mx-za</hc-key>
    <hc-a2>ZA</hc-a2>
  </desc>
</path>

<path fill="#CEE3F5" stroke="#6E6E6E" stroke-width="0.4" id="MX.AG" d="M353.4,268.0 L352.3,269.5 L348.8,271.8 L348.2,274.1 L344.8,276.3 L338.5,275.7 L335.8,274.2 L332.9,274.8 L330.8,272.3 L331.1,270.4 L335.3,263.6 L335.9,261.3 L338.4,261.3 L342.0,259.1 L343.2,257.4 L345.0,260.1 L346.0,259.6 L348.0,261.5 L349.8,261.9 L350.3,265.5 Z">
  <desc xmlns="http://www.highcharts.com/svg/namespace">
    <labelrank>9</labelrank>
    <hasc>MX.AG</hasc>
    <alt-name>NULL</alt-name>
    <woe-id>2346264</woe-id>
    <subregion>NULL</subregion>
    <fips>MX01</fips>
    <postal-code>AG</postal-code>
    <name>Aguascalientes</name>
    <country>Mexico</country>
    <type-en>State</type-en>
    <region>NULL</region>
    <longitude>-102.351</longitude>
    <woe-name>Aguascalientes</woe-name>
    <latitude>22.0375</latitude>
    <woe-label>Aguascalientes, MX, Mexico</woe-label>
    <type>Estado</type>
    <hc-middle-x>0.49</hc-middle-x>
    <hc-middle-y>0.60</hc-middle-y>
    <hc-key>mx-ag</hc-key>
    <hc-a2>AG</hc-a2>
  </desc>
</path>

<path fill="#CEE3F5" stroke="#6E6E6E" stroke-width="0.4" id="MX.JA" d="M332.9,274.8 L335.8,274.2 L338.5,275.7 L344.8,276.3 L348.2,274.1 L348.8,271.8 L352.3,269.5 L353.4,268.0 L355.2,269.3 L358.4,270.0 L360.7,272.2 L359.4,273.7 L360.4,277.1 L358.2,280.0 L359.8,284.0 L357.2,286.8 L355.3,286.9 L353.5,288.9 L349.3,295.6 L348.4,299.1 L350.9,301.5 L350.9,303.2 L348.2,307.3 L345.0,308.5 L343.7,307.9 L339.2,309.1 L335.2,311.5 L326.1,314.3 L326.2,316.9 L333.1,317.8 L334.6,320.1 L332.3,321.1 L332.6,324.2 L334.0,326.8 L333.8,329.3 L336.8,329.0 L338.3,331.4 L335.9,335.2 L334.2,334.6 L330.7,335.9 L328.3,339.4 L324.3,341.7 L321.3,339.7 L320.1,341.4 L317.2,341.7 L316.1,338.7 L316.7,333.3 L314.3,331.1 L313.5,329.2 L309.0,331.4 L304.1,328.9 L302.5,329.6 L300.4,333.2 L294.4,335.4 L293.0,335.0 L291.7,337.3 L288.5,335.4 L286.8,335.4 L282.1,332.1 L280.5,327.4 L276.8,324.9 L270.6,316.1 L270.0,312.0 L266.7,307.0 L269.5,305.1 L275.1,304.5 L277.1,302.9 L276.0,300.4 L280.5,294.8 L284.3,294.5 L287.2,292.5 L288.8,292.7 L291.2,294.8 L293.4,295.2 L294.4,296.7 L298.7,299.9 L299.1,296.2 L300.4,293.6 L300.1,288.9 L303.3,288.0 L305.5,286.4 L306.4,283.9 L300.4,280.5 L301.6,278.6 L302.9,274.1 L296.2,266.9 L297.7,262.6 L302.1,260.7 L306.0,260.1 L306.7,257.1 L305.3,255.1 L305.4,250.4 L310.0,251.2 L309.6,253.9 L308.4,255.2 L307.6,260.6 L308.4,264.6 L310.4,255.4 L312.7,254.7 L313.8,256.3 L312.2,261.1 L312.3,265.6 L316.5,265.6 L317.4,263.0 L319.4,260.5 L317.9,259.0 L319.1,256.4 L323.3,259.7 L323.2,261.1 L326.2,261.4 L326.4,262.7 L324.6,265.4 L325.5,267.0 L324.0,268.8 L321.0,269.2 L318.5,270.6 L315.7,273.3 L315.9,278.5 L312.6,281.2 L311.1,280.3 L311.8,283.7 L311.1,287.4 L313.3,286.8 L314.3,288.2 L316.2,288.2 L322.5,290.9 L326.4,291.7 L326.6,285.9 L332.0,285.7 L334.7,283.1 L335.7,279.1 L332.6,278.2 Z">
  <desc xmlns="http://www.highcharts.com/svg/namespace">
    <labelrank>4</labelrank>
    <hasc>MX.JA</hasc>
    <alt-name>NULL</alt-name>
    <woe-id>2346277</woe-id>
    <subregion>NULL</subregion>
    <fips>MX14</fips>
    <postal-code>JA</postal-code>
    <name>Jalisco</name>
    <country>Mexico</country>
    <type-en>State</type-en>
    <region>NULL</region>
    <longitude>-103.602</longitude>
    <woe-name>Jalisco</woe-name>
    <latitude>20.3026</latitude>
    <woe-label>Jalisco, MX, Mexico</woe-label>
    <type>Estado</type>
    <hc-middle-x>0.48</hc-middle-x>
    <hc-middle-y>0.62</hc-middle-y>
    <hc-key>mx-ja</hc-key>
    <hc-a2>JA</hc-a2>
  </desc>
</path>

<path fill="#CEE3F5" stroke="#6E6E6E" stroke-width="0.4" id="MX.MI" d="M389.4,310.7 L392.0,313.7 L392.0,316.3 L393.3,317.2 L391.4,326.2 L392.8,329.7 L388.9,332.1 L389.7,333.7 L382.5,343.1 L381.1,345.0 L380.4,343.6 L378.7,345.3 L380.2,351.9 L383.0,354.0 L381.2,356.3 L381.1,354.3 L378.2,352.2 L374.8,352.2 L373.4,351.3 L368.1,351.4 L362.7,353.0 L359.2,350.6 L354.8,350.7 L353.5,353.5 L354.0,357.5 L352.8,359.6 L347.5,360.7 L347.4,366.5 L337.5,363.6 L334.2,363.2 L327.7,360.4 L325.6,360.2 L319.9,358.5 L316.8,356.9 L315.0,353.1 L311.9,350.5 L311.2,348.3 L313.8,345.6 L314.2,343.5 L317.2,341.7 L320.1,341.4 L321.3,339.7 L324.3,341.7 L328.3,339.4 L330.7,335.9 L334.2,334.6 L335.9,335.2 L338.3,331.4 L336.8,329.0 L333.8,329.3 L334.0,326.8 L332.6,324.2 L332.3,321.1 L334.6,320.1 L333.1,317.8 L326.2,316.9 L326.1,314.3 L335.2,311.5 L339.2,309.1 L343.7,307.9 L345.0,308.5 L348.2,307.3 L351.6,307.7 L352.7,311.6 L357.6,311.6 L359.1,309.0 L362.7,308.3 L364.6,309.9 L363.8,315.1 L368.9,315.4 L369.6,313.8 L373.3,314.0 L373.0,317.4 L375.3,317.9 L377.2,316.7 L378.5,318.2 L383.3,317.2 L383.8,318.1 L387.1,316.7 L386.9,314.1 Z">
  <desc xmlns="http://www.highcharts.com/svg/namespace">
    <labelrank>4</labelrank>
    <hasc>MX.MC</hasc>
    <alt-name>NULL</alt-name>
    <woe-id>2346279</woe-id>
    <subregion>NULL</subregion>
    <fips>MX16</fips>
    <postal-code>MI</postal-code>
    <name>Michoacán</name>
    <country>Mexico</country>
    <type-en>State</type-en>
    <region>NULL</region>
    <longitude>-101.936</longitude>
    <woe-name>Michoacán</woe-name>
    <latitude>19.2458</latitude>
    <woe-label>Michoacan de Ocampo, MX, Mexico</woe-label>
    <type>Estado</type>
    <hc-middle-x>0.51</hc-middle-x>
    <hc-middle-y>0.49</hc-middle-y>
    <hc-key>mx-mi</hc-key>
    <hc-a2>MI</hc-a2>
  </desc>
</path>

<path fill="#CEE3F5" stroke="#6E6E6E" stroke-width="0.4" id="MX.OA" d="M536.4,403.4 L535.0,401.5 L533.1,402.2 L528.4,400.3 L528.1,402.0 L533.0,403.2 L536.3,404.6 L535.8,405.6 L528.0,402.9 L521.9,402.9 L524.5,400.7 L522.8,398.8 L520.3,400.6 L518.1,397.4 L513.3,401.6 L519.4,402.0 L509.4,404.4 L506.7,406.5 L504.9,409.1 L492.7,413.1 L486.4,416.9 L481.8,416.8 L478.9,417.8 L476.0,416.7 L472.1,416.2 L467.9,414.6 L464.6,412.4 L462.1,411.7 L450.2,411.0 L440.7,405.8 L431.7,403.4 L435.5,402.0 L437.1,400.4 L436.7,397.3 L439.0,396.9 L438.8,393.9 L440.6,393.8 L442.6,391.9 L444.0,385.9 L440.5,381.5 L438.7,381.4 L436.2,378.7 L436.2,375.3 L434.6,371.4 L435.9,366.1 L435.4,365.3 L437.8,364.7 L439.3,362.2 L445.0,361.5 L445.9,363.9 L447.8,363.8 L449.5,362.1 L447.4,359.0 L449.4,354.9 L452.1,353.4 L451.4,357.3 L453.7,359.5 L455.0,362.2 L456.6,362.2 L459.0,358.4 L461.9,357.5 L465.7,358.7 L468.9,355.6 L471.0,354.5 L472.3,351.4 L474.3,348.3 L473.5,345.1 L475.1,346.4 L479.5,348.0 L480.4,350.6 L483.5,354.0 L484.1,356.0 L486.9,357.3 L490.4,356.6 L493.2,357.5 L494.8,360.5 L491.9,365.7 L494.8,371.6 L499.1,371.9 L508.2,366.2 L507.3,369.9 L511.7,374.3 L513.6,375.0 L515.1,378.4 L540.1,378.7 L540.4,382.1 L539.6,385.4 L536.9,387.1 L536.9,390.8 L535.0,394.7 L537.4,400.3 Z">
  <desc xmlns="http://www.highcharts.com/svg/namespace">
    <labelrank>6</labelrank>
    <hasc>MX.OA</hasc>
    <alt-name>NULL</alt-name>
    <woe-id>2346283</woe-id>
    <subregion>NULL</subregion>
    <fips>MX20</fips>
    <postal-code>OA</postal-code>
    <name>Oaxaca</name>
    <country>Mexico</country>
    <type-en>State</type-en>
    <region>NULL</region>
    <longitude>-96.20869999999999</longitude>
    <woe-name>Oaxaca</woe-name>
    <latitude>16.94</latitude>
    <woe-label>Oaxaca, MX, Mexico</woe-label>
    <type>Estado</type>
    <hc-middle-x>0.39</hc-middle-x>
    <hc-middle-y>0.52</hc-middle-y>
    <hc-key>mx-oa</hc-key>
    <hc-a2>OA</hc-a2>
  </desc>
</path>

<path fill="#CEE3F5" stroke="#6E6E6E" stroke-width="0.4" id="MX.PU" d="M427.6,338.3 L427.8,334.2 L426.8,329.4 L427.4,327.7 L431.4,328.1 L434.2,332.8 L438.0,335.9 L441.1,333.3 L444.0,334.4 L445.8,333.1 L446.2,330.7 L449.8,331.2 L450.8,329.2 L447.6,327.3 L445.7,327.7 L445.6,325.1 L441.1,323.0 L441.2,321.7 L438.6,322.2 L436.1,317.5 L439.2,312.2 L438.3,309.2 L435.8,309.5 L435.9,306.8 L437.7,306.4 L441.1,302.5 L442.2,300.9 L442.4,296.5 L443.9,294.2 L446.7,295.2 L447.7,299.4 L450.4,299.8 L451.2,301.6 L449.4,303.8 L448.1,302.7 L446.4,303.4 L446.5,307.4 L448.5,309.4 L451.9,310.5 L453.4,308.0 L454.9,307.4 L460.8,309.9 L460.8,311.5 L457.4,316.2 L457.3,321.0 L455.9,323.9 L457.6,326.1 L455.6,327.0 L459.9,329.5 L465.6,330.4 L462.8,333.2 L459.2,333.8 L460.3,339.7 L458.0,342.3 L458.6,345.3 L462.7,346.0 L463.4,349.6 L470.5,348.1 L472.3,351.4 L471.0,354.5 L468.9,355.6 L465.7,358.7 L461.9,357.5 L459.0,358.4 L456.6,362.2 L455.0,362.2 L453.7,359.5 L451.4,357.3 L452.1,353.4 L449.4,354.9 L447.4,359.0 L449.5,362.1 L447.8,363.8 L445.9,363.9 L445.0,361.5 L439.3,362.2 L437.8,364.7 L435.4,365.3 L433.7,363.7 L430.6,364.0 L425.1,362.2 L424.1,360.2 L422.0,359.7 L419.4,357.5 L418.9,354.8 L424.3,351.1 L427.4,352.6 L425.5,346.3 L427.3,346.4 L425.8,343.4 L427.5,341.5 Z">
  <desc xmlns="http://www.highcharts.com/svg/namespace">
    <labelrank>7</labelrank>
    <hasc>MX.PU</hasc>
    <alt-name>NULL</alt-name>
    <woe-id>2346284</woe-id>
    <subregion>NULL</subregion>
    <fips>MX21</fips>
    <postal-code>PU</postal-code>
    <name>Puebla</name>
    <country>Mexico</country>
    <type-en>State</type-en>
    <region>NULL</region>
    <longitude>-97.88890000000001</longitude>
    <woe-name>Puebla</woe-name>
    <latitude>18.549</latitude>
    <woe-label>Puebla, MX, Mexico</woe-label>
    <type>Estado</type>
    <hc-middle-x>0.49</hc-middle-x>
    <hc-middle-y>0.73</hc-middle-y>
    <hc-key>mx-pu</hc-key>
    <hc-a2>PU</hc-a2>
  </desc>
</path>

<path fill="#CEE3F5" stroke="#6E6E6E" stroke-width="0.4" id="MX.GR" d="M418.9,354.8 L419.4,357.5 L422.0,359.7 L424.1,360.2 L425.1,362.2 L430.6,364.0 L433.7,363.7 L435.4,365.3 L435.9,366.1 L434.6,371.4 L436.2,375.3 L436.2,378.7 L438.7,381.4 L440.5,381.5 L444.0,385.9 L442.6,391.9 L440.6,393.8 L438.8,393.9 L439.0,396.9 L436.7,397.3 L437.1,400.4 L435.5,402.0 L431.7,403.4 L426.4,397.8 L424.6,398.5 L412.5,395.5 L407.1,395.2 L403.9,394.2 L398.0,390.0 L373.2,381.9 L373.3,381.0 L370.3,378.4 L363.9,375.8 L363.0,373.7 L359.5,372.5 L358.9,370.7 L355.6,367.2 L350.4,364.8 L347.4,366.5 L347.5,360.7 L352.8,359.6 L354.0,357.5 L353.5,353.5 L354.8,350.7 L359.2,350.6 L362.7,353.0 L368.1,351.4 L373.4,351.3 L374.8,352.2 L378.2,352.2 L381.1,354.3 L381.2,356.3 L383.0,354.0 L380.2,351.9 L378.7,345.3 L380.4,343.6 L381.1,345.0 L382.5,343.1 L386.3,343.7 L386.9,348.4 L388.9,351.1 L388.6,353.0 L390.7,354.5 L393.6,352.0 L395.3,349.1 L400.3,347.7 L401.8,348.7 L404.6,345.2 L406.6,347.0 L408.4,347.3 L410.5,350.7 L412.3,352.5 L414.3,352.4 L415.4,349.9 Z">
  <desc xmlns="http://www.highcharts.com/svg/namespace">
    <labelrank>4</labelrank>
    <hasc>MX.GR</hasc>
    <alt-name>NULL</alt-name>
    <woe-id>2346275</woe-id>
    <subregion>NULL</subregion>
    <fips>MX12</fips>
    <postal-code>GR</postal-code>
    <name>Guerrero</name>
    <country>Mexico</country>
    <type-en>State</type-en>
    <region>NULL</region>
    <longitude>-100.091</longitude>
    <woe-name>Guerrero</woe-name>
    <latitude>17.7608</latitude>
    <woe-label>Guerrero, MX, Mexico</woe-label>
    <type>Estado</type>
    <hc-middle-x>0.58</hc-middle-x>
    <hc-middle-y>0.44</hc-middle-y>
    <hc-key>mx-gr</hc-key>
    <hc-a2>GR</hc-a2>
  </desc>
</path>

<path fill="#CEE3F5" stroke="#6E6E6E" stroke-width="0.4" id="MX.TL" d="M427.4,327.7 L425.8,324.8 L426.9,324.7 L428.8,323.5 L434.0,324.3 L435.7,321.3 L438.6,322.2 L441.2,321.7 L441.1,323.0 L445.6,325.1 L445.7,327.7 L447.6,327.3 L450.8,329.2 L449.8,331.2 L446.2,330.7 L445.8,333.1 L444.0,334.4 L441.1,333.3 L438.0,335.9 L434.2,332.8 L431.4,328.1 Z">
  <desc xmlns="http://www.highcharts.com/svg/namespace">
    <labelrank>7</labelrank>
    <hasc>MX.TL</hasc>
    <alt-name>NULL</alt-name>
    <woe-id>2346292</woe-id>
    <subregion>NULL</subregion>
    <fips>MX29</fips>
    <postal-code>TL</postal-code>
    <name>Tlaxcala</name>
    <country>Mexico</country>
    <type-en>State</type-en>
    <region>NULL</region>
    <longitude>-98.161</longitude>
    <woe-name>Tlaxcala</woe-name>
    <latitude>19.3956</latitude>
    <woe-label>Tlaxcala, MX, Mexico</woe-label>
    <type>Estado</type>
    <hc-middle-x>0.49</hc-middle-x>
    <hc-middle-y>0.43</hc-middle-y>
    <hc-key>mx-tl</hc-key>
    <hc-a2>TL</hc-a2>
  </desc>
</path>

<path fill="#CEE3F5" stroke="#6E6E6E" stroke-width="0.4" id="MX.TM" d="M392.6,237.7 L392.6,236.0 L391.0,235.0 L392.8,233.5 L395.9,234.4 L394.7,230.7 L397.1,225.5 L402.4,224.7 L405.2,220.0 L402.3,217.6 L401.7,215.8 L402.4,210.8 L401.6,206.8 L399.4,207.8 L398.7,205.5 L400.5,203.8 L402.8,203.5 L404.2,201.2 L408.2,199.0 L411.1,200.1 L410.4,194.8 L413.6,191.7 L416.9,192.4 L426.2,183.8 L423.8,182.7 L423.2,170.8 L422.9,170.1 L417.6,168.9 L416.0,171.1 L413.0,168.3 L410.6,169.2 L409.5,163.9 L407.7,163.6 L405.9,161.3 L404.7,162.0 L403.9,159.7 L404.7,157.1 L404.0,155.8 L400.5,154.4 L398.7,154.6 L400.5,150.8 L397.5,149.5 L396.8,147.2 L397.7,143.7 L395.3,135.4 L392.6,135.1 L392.4,133.4 L396.6,130.9 L399.0,131.3 L401.1,133.0 L401.9,136.5 L401.0,139.3 L403.0,141.8 L402.4,145.7 L403.9,146.8 L405.2,150.5 L407.2,151.2 L407.7,156.7 L410.5,157.9 L411.3,160.7 L417.6,161.4 L421.1,164.3 L422.4,163.8 L427.1,165.2 L430.4,167.9 L439.5,167.7 L443.5,168.9 L448.0,172.4 L451.4,169.6 L454.1,169.3 L453.9,175.2 L450.9,183.5 L448.1,188.7 L444.7,204.9 L443.8,217.2 L444.0,223.7 L443.5,235.3 L444.4,242.3 L442.3,248.2 L442.5,252.9 L444.3,259.2 L442.5,260.5 L441.7,258.4 L437.2,257.1 L434.7,254.6 L432.7,255.0 L432.6,256.4 L429.4,255.9 L425.4,256.4 L422.1,256.9 L421.1,257.9 L418.2,257.8 L411.2,256.0 L408.1,250.7 L407.3,251.7 L404.3,249.8 L404.9,252.2 L402.0,251.6 L394.5,248.8 L393.3,246.7 L395.9,244.4 L395.9,243.0 L393.4,239.4 L392.0,240.6 Z M441.8,203.9 L440.9,207.1 L443.0,206.5 L443.2,212.6 L442.6,218.5 L443.5,221.8 L443.8,211.4 L444.4,204.0 L446.5,191.8 L448.8,186.0 L448.8,182.8 L446.6,181.8 L446.7,183.6 L445.6,185.5 L442.8,184.4 L442.3,187.0 L443.2,189.4 L442.0,194.0 L444.7,194.8 L442.7,196.6 L444.0,202.3 L443.1,205.9 Z">
  <desc xmlns="http://www.highcharts.com/svg/namespace">
    <labelrank>4</labelrank>
    <hasc>MX.TM</hasc>
    <alt-name>NULL</alt-name>
    <woe-id>2346291</woe-id>
    <subregion>NULL</subregion>
    <fips>MX28</fips>
    <postal-code>TM</postal-code>
    <name>Tamaulipas</name>
    <country>Mexico</country>
    <type-en>State</type-en>
    <region>NULL</region>
    <longitude>-98.5197</longitude>
    <woe-name>Tamaulipas</woe-name>
    <latitude>24.0808</latitude>
    <woe-label>Tamaulipas, MX, Mexico</woe-label>
    <type>Estado</type>
    <hc-middle-x>0.51</hc-middle-x>
    <hc-middle-y>0.73</hc-middle-y>
    <hc-key>mx-tm</hc-key>
    <hc-a2>TM</hc-a2>
  </desc>
</path>

<path fill="#CEE3F5" stroke="#6E6E6E" stroke-width="0.4" id="MX.CO" d="M319.2,100.0 L322.7,101.0 L323.6,99.2 L328.7,95.1 L327.9,93.9 L330.3,86.3 L332.3,82.6 L335.8,81.6 L338.1,81.7 L339.8,78.9 L344.3,81.0 L354.3,81.5 L356.1,80.3 L356.6,81.6 L359.1,81.3 L360.0,83.7 L362.6,85.1 L362.2,88.2 L367.0,88.7 L367.5,90.4 L371.8,93.1 L373.0,95.4 L375.0,96.8 L376.1,101.3 L378.4,104.2 L379.0,106.5 L381.2,109.2 L383.8,116.2 L385.7,118.3 L388.4,119.5 L390.6,123.3 L392.8,125.4 L394.4,128.5 L391.1,131.8 L386.4,128.3 L383.3,130.6 L382.2,133.0 L381.3,138.4 L377.2,139.8 L373.5,142.7 L373.7,146.3 L375.5,147.2 L376.4,145.3 L379.0,146.8 L378.5,153.3 L375.9,156.9 L374.9,154.2 L365.1,163.1 L367.5,165.2 L369.1,168.2 L371.4,169.9 L371.7,171.9 L373.4,172.9 L373.5,177.0 L376.4,181.0 L377.8,181.1 L379.7,183.7 L377.6,183.0 L379.7,185.8 L382.4,187.4 L385.7,187.3 L388.0,188.8 L386.7,190.5 L384.1,191.0 L380.8,190.2 L378.0,190.7 L375.6,192.3 L374.2,194.9 L376.5,196.7 L375.2,198.4 L375.8,201.9 L374.7,206.3 L368.7,204.7 L366.4,201.0 L363.2,200.0 L360.6,202.2 L357.2,202.1 L357.8,199.1 L353.8,197.8 L351.7,194.6 L344.9,192.6 L335.9,193.6 L334.1,194.7 L330.4,199.1 L330.3,203.2 L327.5,201.4 L323.8,200.4 L321.3,198.6 L320.8,195.0 L318.3,193.4 L315.6,189.7 L317.5,186.8 L316.1,183.8 L319.7,180.0 L319.1,169.8 L320.4,166.4 L320.3,164.0 L312.9,157.3 L305.5,126.7 Z">
  <desc xmlns="http://www.highcharts.com/svg/namespace">
    <labelrank>4</labelrank>
    <hasc>MX.CA</hasc>
    <alt-name>NULL</alt-name>
    <woe-id>2346270</woe-id>
    <subregion>NULL</subregion>
    <fips>MX07</fips>
    <postal-code>CO</postal-code>
    <name>Coahuila</name>
    <country>Mexico</country>
    <type-en>State</type-en>
    <region>NULL</region>
    <longitude>-101.885</longitude>
    <woe-name>Coahuila</woe-name>
    <latitude>27.4473</latitude>
    <woe-label>Coahuila de Zaragoza, MX, Mexico</woe-label>
    <type>Estado</type>
    <hc-middle-x>0.45</hc-middle-x>
    <hc-middle-y>0.42</hc-middle-y>
    <hc-key>mx-co</hc-key>
    <hc-a2>CO</hc-a2>
  </desc>
</path>

<path fill="#CEE3F5" stroke="#6E6E6E" stroke-width="0.4" id="MX.YU" d="M614.9,283.2 L614.0,283.4 L615.6,278.0 L620.7,274.3 L627.6,270.7 L642.7,267.2 L652.2,263.9 L654.2,261.8 L657.8,260.4 L661.6,260.5 L665.0,258.6 L668.9,258.6 L675.0,259.5 L672.6,260.2 L679.0,260.0 L679.9,265.0 L679.0,269.8 L680.6,273.5 L678.1,281.5 L673.2,286.0 L670.8,287.6 L667.3,287.3 L665.0,290.4 L662.7,291.7 L661.3,294.8 L655.5,297.9 L651.0,301.7 L647.7,302.4 L644.5,304.9 L640.6,305.8 L639.9,310.1 L638.7,307.1 L636.1,304.5 L634.1,301.5 L629.6,298.9 L628.0,295.8 L626.1,294.6 L624.1,291.2 L623.2,292.7 L620.7,292.6 L618.9,290.6 L615.3,290.0 Z">
  <desc xmlns="http://www.highcharts.com/svg/namespace">
    <labelrank>4</labelrank>
    <hasc>MX.YU</hasc>
    <alt-name>NULL</alt-name>
    <woe-id>2346294</woe-id>
    <subregion>NULL</subregion>
    <fips>MX31</fips>
    <postal-code>YU</postal-code>
    <name>Yucatán</name>
    <country>Mexico</country>
    <type-en>State</type-en>
    <region>NULL</region>
    <longitude>-88.9836</longitude>
    <woe-name>Yucatán</woe-name>
    <latitude>20.663</latitude>
    <woe-label>Yucatan, MX, Mexico</woe-label>
    <type>Estado</type>
    <hc-middle-x>0.48</hc-middle-x>
    <hc-middle-y>0.43</hc-middle-y>
    <hc-key>mx-yu</hc-key>
    <hc-a2>YU</hc-a2>
  </desc>
</path>

<path fill="#CEE3F5" stroke="#6E6E6E" stroke-width="0.4" id="MX.DG" d="M240.9,180.9 L245.6,181.2 L249.5,177.7 L250.1,172.6 L252.8,170.8 L253.4,168.5 L252.2,163.8 L256.7,162.2 L256.8,159.1 L258.0,157.8 L258.3,154.7 L259.7,154.9 L261.1,152.5 L265.8,156.0 L268.6,155.9 L271.2,159.0 L276.1,161.7 L280.7,159.5 L282.7,161.8 L283.5,160.7 L286.8,161.1 L291.9,164.4 L293.6,163.9 L299.8,155.5 L302.3,154.3 L306.1,154.6 L312.9,157.3 L320.3,164.0 L320.4,166.4 L319.1,169.8 L319.7,180.0 L316.1,183.8 L317.5,186.8 L315.6,189.7 L318.3,193.4 L320.8,195.0 L321.3,198.6 L323.8,200.4 L327.5,201.4 L330.3,203.2 L330.4,199.1 L334.1,194.7 L338.0,200.8 L338.2,209.2 L331.4,210.9 L321.5,209.0 L318.2,210.6 L317.5,212.4 L315.6,212.7 L312.3,217.0 L308.4,219.2 L308.5,222.2 L307.1,222.7 L308.3,224.5 L307.7,226.3 L309.3,228.3 L308.7,229.8 L306.8,229.2 L306.3,231.3 L302.6,234.4 L302.1,240.4 L300.9,242.1 L300.4,253.5 L298.1,261.2 L297.6,257.5 L294.4,258.9 L292.0,257.9 L290.2,253.9 L287.8,252.7 L283.4,255.9 L282.9,252.7 L285.3,249.9 L284.0,246.9 L279.9,244.4 L274.2,244.0 L274.1,241.2 L270.6,240.9 L267.6,237.6 L267.0,233.6 L264.6,231.1 L263.1,227.6 L262.7,222.1 L263.9,219.2 L262.0,218.9 L259.8,213.8 L256.7,211.2 L255.0,211.2 L252.0,213.6 L249.8,213.5 L247.9,211.6 L247.3,208.9 L244.5,203.5 L242.3,201.4 L240.6,201.1 L238.4,198.2 L236.6,191.7 L237.4,186.1 L238.1,184.2 Z">
  <desc xmlns="http://www.highcharts.com/svg/namespace">
    <labelrank>6</labelrank>
    <hasc>MX.DU</hasc>
    <alt-name>NULL</alt-name>
    <woe-id>2346273</woe-id>
    <subregion>NULL</subregion>
    <fips>MX10</fips>
    <postal-code>DG</postal-code>
    <name>Durango</name>
    <country>Mexico</country>
    <type-en>State</type-en>
    <region>NULL</region>
    <longitude>-104.808</longitude>
    <woe-name>Durango</woe-name>
    <latitude>24.566</latitude>
    <woe-label>Durango, MX, Mexico</woe-label>
    <type>Estado</type>
    <hc-middle-x>0.51</hc-middle-x>
    <hc-middle-y>0.48</hc-middle-y>
    <hc-key>mx-dg</hc-key>
    <hc-a2>DG</hc-a2>
  </desc>
</path>

<path fill="#CEE3F5" stroke="#6E6E6E" stroke-width="0.4" id="MX.GJ" d="M399.9,281.4 L399.9,284.5 L401.8,285.5 L399.2,287.7 L396.2,286.7 L394.1,287.8 L393.1,293.7 L391.3,294.6 L389.7,293.4 L388.2,294.3 L385.0,292.6 L382.8,298.2 L384.6,302.9 L384.8,305.4 L387.4,309.3 L389.4,310.7 L386.9,314.1 L387.1,316.7 L383.8,318.1 L383.3,317.2 L378.5,318.2 L377.2,316.7 L375.3,317.9 L373.0,317.4 L373.3,314.0 L369.6,313.8 L368.9,315.4 L363.8,315.1 L364.6,309.9 L362.7,308.3 L359.1,309.0 L357.6,311.6 L352.7,311.6 L351.6,307.7 L348.2,307.3 L350.9,303.2 L350.9,301.5 L348.4,299.1 L349.3,295.6 L353.5,288.9 L355.3,286.9 L357.2,286.8 L359.8,284.0 L358.2,280.0 L360.4,277.1 L359.4,273.7 L360.7,272.2 L362.3,272.6 L365.1,271.3 L366.6,273.7 L373.3,274.1 L381.0,280.1 L383.8,279.5 L384.7,276.3 L385.9,275.5 L393.3,278.3 L396.0,280.5 Z">
  <desc xmlns="http://www.highcharts.com/svg/namespace">
    <labelrank>7</labelrank>
    <hasc>MX.GJ</hasc>
    <alt-name>NULL</alt-name>
    <woe-id>2346274</woe-id>
    <subregion>NULL</subregion>
    <fips>MX11</fips>
    <postal-code>GJ</postal-code>
    <name>Guanajuato</name>
    <country>Mexico</country>
    <type-en>State</type-en>
    <region>NULL</region>
    <longitude>-100.904</longitude>
    <woe-name>Guanajuato</woe-name>
    <latitude>20.8141</latitude>
    <woe-label>Guanajuato, MX, Mexico</woe-label>
    <type>Estado</type>
    <hc-middle-x>0.46</hc-middle-x>
    <hc-middle-y>0.43</hc-middle-y>
    <hc-key>mx-gj</hc-key>
    <hc-a2>GJ</hc-a2>
  </desc>
</path>

<path fill="#CEE3F5" stroke="#6E6E6E" stroke-width="0.4" id="MX.SL" d="M392.6,237.7 L392.0,240.6 L393.4,239.4 L395.9,243.0 L395.9,244.4 L393.3,246.7 L394.5,248.8 L402.0,251.6 L404.9,252.2 L404.3,249.8 L407.3,251.7 L408.1,250.7 L411.2,256.0 L418.2,257.8 L421.1,257.9 L422.1,256.9 L425.4,256.4 L431.0,259.9 L431.4,262.6 L429.5,266.8 L427.0,268.8 L429.4,271.8 L425.9,274.1 L425.6,276.0 L428.2,277.9 L428.6,280.9 L427.1,281.5 L427.1,285.5 L421.9,286.5 L419.2,283.8 L416.8,284.5 L415.2,284.0 L415.5,281.8 L413.0,275.5 L409.1,280.8 L404.8,281.9 L401.4,279.0 L399.9,281.4 L396.0,280.5 L393.3,278.3 L385.9,275.5 L384.7,276.3 L383.8,279.5 L381.0,280.1 L373.3,274.1 L366.6,273.7 L365.1,271.3 L362.3,272.6 L360.7,272.2 L365.0,266.1 L363.6,259.6 L365.3,256.7 L364.1,254.1 L359.0,254.3 L358.0,256.4 L355.1,257.6 L353.5,256.9 L350.7,252.9 L347.0,250.4 L343.9,245.0 L344.4,242.1 L342.8,239.0 L344.0,238.2 L345.1,234.8 L347.8,236.0 L350.7,233.5 L353.1,230.5 L355.6,229.2 L356.7,227.4 L365.8,220.3 L371.1,211.1 L373.8,208.7 L374.7,206.3 L379.6,213.0 L380.0,219.2 L380.5,221.5 L382.7,224.0 L382.6,227.9 L383.6,231.4 L383.3,233.7 L384.1,238.2 L386.3,239.1 L386.6,237.6 Z">
  <desc xmlns="http://www.highcharts.com/svg/namespace">
    <labelrank>7</labelrank>
    <hasc>MX.SL</hasc>
    <alt-name>NULL</alt-name>
    <woe-id>2346287</woe-id>
    <subregion>NULL</subregion>
    <fips>MX24</fips>
    <postal-code>SL</postal-code>
    <name>San Luis Potosí</name>
    <country>Mexico</country>
    <type-en>State</type-en>
    <region>NULL</region>
    <longitude>-100.324</longitude>
    <woe-name>San Luis Potosí</woe-name>
    <latitude>22.4465</latitude>
    <woe-label>San Luis Potosi, MX, Mexico</woe-label>
    <type>Estado</type>
    <hc-middle-x>0.39</hc-middle-x>
    <hc-middle-y>0.59</hc-middle-y>
    <hc-key>mx-sl</hc-key>
    <hc-a2>SL</hc-a2>
  </desc>
</path>

<path fill="#CEE3F5" stroke="#6E6E6E" stroke-width="0.4" id="MX.HG" d="M428.6,280.9 L430.3,281.9 L429.2,284.2 L432.4,286.7 L434.2,284.6 L434.0,286.9 L435.7,286.6 L437.6,288.5 L435.4,291.8 L435.5,294.4 L431.9,293.4 L431.0,298.3 L429.5,299.6 L428.2,303.3 L429.9,305.9 L431.4,305.6 L432.6,303.3 L433.6,304.0 L438.4,297.7 L440.5,298.3 L441.1,302.5 L437.7,306.4 L435.9,306.8 L435.8,309.5 L438.3,309.2 L439.2,312.2 L436.1,317.5 L438.6,322.2 L435.7,321.3 L434.0,324.3 L428.8,323.5 L426.9,324.7 L428.0,320.9 L425.8,318.4 L422.7,317.6 L420.9,319.6 L419.7,319.3 L420.5,316.6 L418.4,314.0 L414.2,315.6 L410.2,321.1 L408.7,317.5 L407.0,316.5 L407.7,313.9 L406.2,311.6 L404.1,312.3 L399.4,308.1 L399.8,303.2 L404.1,301.7 L407.2,299.4 L406.4,297.7 L407.0,295.3 L408.7,293.7 L410.0,290.5 L409.7,288.5 L412.8,288.2 L416.9,286.7 L416.8,284.5 L419.2,283.8 L421.9,286.5 L427.1,285.5 L427.1,281.5 Z">
  <desc xmlns="http://www.highcharts.com/svg/namespace">
    <labelrank>4</labelrank>
    <hasc>MX.HI</hasc>
    <alt-name>NULL</alt-name>
    <woe-id>2346276</woe-id>
    <subregion>NULL</subregion>
    <fips>MX13</fips>
    <postal-code>HG</postal-code>
    <name>Hidalgo</name>
    <country>Mexico</country>
    <type-en>State</type-en>
    <region>NULL</region>
    <longitude>-98.9221</longitude>
    <woe-name>Hidalgo</woe-name>
    <latitude>20.5354</latitude>
    <woe-label>Hidalgo, MX, Mexico</woe-label>
    <type>Estado</type>
    <hc-middle-x>0.50</hc-middle-x>
    <hc-middle-y>0.57</hc-middle-y>
    <hc-key>mx-hg</hc-key>
    <hc-a2>HG</hc-a2>
  </desc>
</path>
</g>

<text x="350" y="714" text-anchor="middle" font-family="Verdana" font-size="8" stroke-opacity="0.6">Copyright (c) 2020 Highsoft AS, Based on data from Natural Earth</text>

</svg>