<?xml version="1.0" encoding="utf-8" standalone="no"?>
<!DOCTYPE svg PUBLIC "-//W3C//DTD SVG 1.1//EN" "http://www.w3.org/Graphics/SVG/1.1/DTD/svg11.dtd">

<svg version="1.1" height="700pt" width="700pt" xmlns="http://www.w3.org/2000/svg" xmlns:xlink="http://www.w3.org/1999/xlink">
<desc>
Map version: 2.1.0
Copyright (c) 2023 Highsoft AS, Based on data from Natural Earth
</desc>
<title>Nepal</title>
<g id="admin1">

<g id="NP">
  <desc xmlns="http://www.highcharts.com/svg/namespace">
    <name>Nepal</name>
    <labelrank>3</labelrank>
    <country-abbrev>Nepal</country-abbrev>
    <subregion>Southern Asia</subregion>
    <region-wb>South Asia</region-wb>
    <iso-a3>NPL</iso-a3>
    <iso-a2>NP</iso-a2>
    <woe-id>23424911</woe-id>
    <continent>Asia</continent>
    <hc-key>np</hc-key>
    <hc-a2>NE</hc-a2>
  </desc>
</g>

<path fill="#CEE3F5" stroke="#6E6E6E" stroke-width="0.4" id="NP.750" d="M42.2,166.5 L39.0,167.4 L38.0,170.4 L38.7,176.5 L36.6,176.8 L33.0,172.5 L29.8,171.5 L26.5,172.2 L23.9,170.2 L21.6,165.5 L18.7,164.2 L16.7,161.3 L9.5,158.3 L6.7,154.5 L0.1,151.2 L0.0,143.6 L1.6,140.4 L5.6,137.8 L6.8,128.6 L8.5,125.0 L11.1,123.8 L14.3,124.0 L17.0,122.3 L15.4,116.8 L15.8,115.4 L19.1,116.2 L20.9,109.9 L21.0,105.9 L18.9,105.3 L17.9,100.4 L15.5,95.6 L15.8,93.9 L19.2,92.5 L20.0,90.4 L25.1,85.3 L25.1,83.1 L27.1,81.8 L30.0,77.7 L30.1,75.6 L27.5,68.1 L28.7,63.0 L30.9,61.2 L35.9,59.9 L37.7,58.4 L43.9,50.0 L45.7,44.9 L52.7,42.7 L58.7,37.7 L62.3,32.5 L67.4,28.6 L69.0,26.1 L67.9,23.6 L71.9,19.7 L73.5,22.6 L75.0,22.9 L80.6,21.0 L82.1,21.8 L87.8,33.0 L88.6,37.2 L85.5,39.8 L82.0,45.5 L81.6,47.3 L84.2,50.4 L86.1,59.0 L86.2,62.3 L84.8,64.9 L81.3,65.6 L78.6,67.1 L72.4,68.1 L68.3,70.5 L63.6,71.1 L60.9,74.2 L62.2,80.5 L59.7,84.8 L60.8,86.4 L65.0,87.3 L72.0,94.5 L69.3,98.0 L63.0,100.7 L61.8,101.9 L58.9,108.3 L57.8,112.8 L55.2,116.6 L52.9,118.3 L47.4,120.4 L44.2,123.8 L42.4,129.6 L41.2,131.0 L38.8,137.0 L39.5,142.4 L39.3,151.8 L41.1,155.2 L42.3,159.3 Z">
  <desc xmlns="http://www.highcharts.com/svg/namespace">
    <labelrank>6</labelrank>
    <hasc>NP.SP</hasc>
    <alt-name>NULL</alt-name>
    <woe-id>23706807</woe-id>
    <subregion>Sudur Pashchimanchal</subregion>
    <fips>NP09</fips>
    <postal-code>NULL</postal-code>
    <name>Mahakali</name>
    <country>Nepal</country>
    <type-en>Administrative Zone</type-en>
    <region>Far-Western</region>
    <longitude>80.5573</longitude>
    <woe-name>Mahakali</woe-name>
    <latitude>29.5205</latitude>
    <woe-label>NULL</woe-label>
    <type>Anchal</type>
    <hc-middle-x>0.43</hc-middle-x>
    <hc-middle-y>0.52</hc-middle-y>
    <hc-key>np-750</hc-key>
    <hc-a2>MA</hc-a2>
  </desc>
</path>

<path fill="#CEE3F5" stroke="#6E6E6E" stroke-width="0.4" id="NP.751" d="M85.6,194.5 L81.6,193.7 L80.5,190.5 L76.6,190.3 L72.0,188.4 L70.7,184.1 L66.1,183.6 L63.1,182.4 L58.5,178.1 L54.3,176.6 L51.8,172.3 L44.6,169.7 L44.0,166.6 L42.2,166.5 L42.3,159.3 L41.1,155.2 L39.3,151.8 L39.5,142.4 L38.8,137.0 L41.2,131.0 L42.4,129.6 L44.2,123.8 L47.4,120.4 L52.9,118.3 L55.2,116.6 L57.8,112.8 L58.9,108.3 L61.8,101.9 L63.0,100.7 L69.3,98.0 L72.0,94.5 L65.0,87.3 L60.8,86.4 L59.7,84.8 L62.2,80.5 L60.9,74.2 L63.6,71.1 L68.3,70.5 L72.4,68.1 L78.6,67.1 L81.3,65.6 L84.8,64.9 L86.2,62.3 L86.1,59.0 L84.2,50.4 L81.6,47.3 L82.0,45.5 L85.5,39.8 L88.6,37.2 L89.7,38.3 L93.9,37.7 L97.8,39.4 L100.6,37.7 L100.4,35.0 L103.9,32.9 L111.6,37.4 L116.9,37.4 L119.5,43.7 L119.7,48.2 L123.8,49.8 L125.9,46.6 L129.5,45.2 L137.3,45.2 L140.8,47.0 L145.2,48.0 L146.4,50.7 L143.2,54.8 L142.2,62.3 L139.9,69.7 L141.3,74.5 L146.8,77.3 L147.6,78.8 L147.1,84.3 L142.5,87.9 L141.1,90.8 L141.2,97.1 L142.9,100.5 L142.4,102.2 L137.0,103.3 L132.7,100.5 L126.5,101.9 L122.6,105.5 L121.4,107.5 L122.5,110.9 L121.8,116.8 L122.4,119.6 L127.8,123.7 L120.1,129.0 L116.2,133.5 L116.0,135.5 L117.6,139.3 L118.8,140.0 L123.2,146.6 L127.4,151.8 L129.9,157.8 L126.5,159.7 L125.0,157.2 L125.2,154.2 L121.6,149.9 L118.9,145.5 L117.5,145.0 L110.1,146.0 L106.4,144.0 L99.1,144.7 L97.4,144.2 L93.0,140.8 L86.1,138.1 L81.3,140.9 L80.9,142.1 L85.1,146.5 L89.6,149.9 L93.0,148.7 L95.2,152.2 L99.4,153.9 L97.7,149.3 L100.8,152.5 L102.3,158.7 L105.0,164.9 L104.6,170.8 L91.4,185.4 L86.6,189.2 Z">
  <desc xmlns="http://www.highcharts.com/svg/namespace">
    <labelrank>6</labelrank>
    <hasc>NP.SP</hasc>
    <alt-name>Sudur Pashchimanchal</alt-name>
    <woe-id>23706812</woe-id>
    <subregion>Sudur Pashchimanchal</subregion>
    <fips>NP14</fips>
    <postal-code>NULL</postal-code>
    <name>Seti</name>
    <country>Nepal</country>
    <type-en>District</type-en>
    <region>Far-Western</region>
    <longitude>81.163</longitude>
    <woe-name>Seti</woe-name>
    <latitude>29.312</latitude>
    <woe-label>NULL</woe-label>
    <type>Vikas Kshetra</type>
    <hc-middle-x>0.55</hc-middle-x>
    <hc-middle-y>0.40</hc-middle-y>
    <hc-key>np-751</hc-key>
    <hc-a2>SE</hc-a2>
  </desc>
</path>

<path fill="#CEE3F5" stroke="#6E6E6E" stroke-width="0.4" id="NP.752" d="M428.3,194.1 L428.8,196.8 L432.9,197.8 L436.2,196.5 L439.0,198.9 L443.6,199.8 L447.1,198.3 L450.9,200.1 L453.7,199.6 L455.6,197.3 L458.1,196.4 L462.0,198.0 L465.8,197.5 L469.6,198.1 L473.6,200.2 L475.8,196.6 L478.8,194.7 L480.2,191.9 L481.1,198.2 L482.5,200.6 L486.1,204.4 L494.1,208.3 L497.9,214.8 L498.1,217.8 L499.8,221.2 L504.1,225.5 L503.8,231.3 L506.5,234.2 L512.8,233.6 L511.2,240.3 L511.6,245.8 L508.3,248.0 L506.4,250.6 L503.3,256.9 L496.2,265.9 L493.1,271.8 L494.3,277.6 L492.4,279.9 L487.4,281.0 L485.1,285.4 L483.0,286.1 L470.6,285.7 L467.5,283.9 L465.3,281.9 L460.6,280.2 L454.1,279.3 L448.6,276.5 L446.5,274.5 L445.5,270.7 L444.0,268.4 L442.9,261.3 L440.7,256.6 L435.6,255.5 L428.5,253.1 L422.6,253.6 L415.7,255.4 L411.5,257.3 L406.1,256.9 L405.0,253.9 L403.0,252.3 L395.3,252.0 L394.8,249.1 L392.7,245.9 L393.4,242.4 L397.4,245.3 L400.3,245.1 L401.4,243.4 L401.0,238.7 L398.7,234.4 L399.2,232.4 L402.9,228.2 L407.1,219.7 L408.6,218.0 L414.0,215.7 L416.6,212.1 L417.9,206.6 L419.8,203.6 L424.0,199.8 L425.5,196.4 Z">
  <desc xmlns="http://www.highcharts.com/svg/namespace">
    <labelrank>6</labelrank>
    <hasc>NP.MM</hasc>
    <alt-name>Madhyamanchal</alt-name>
    <woe-id>23706799</woe-id>
    <subregion>Madhyamanchal</subregion>
    <fips>NP01</fips>
    <postal-code>NULL</postal-code>
    <name>Bagmati</name>
    <country>Nepal</country>
    <type-en>District</type-en>
    <region>Central</region>
    <longitude>85.3494</longitude>
    <woe-name>Bagmati</woe-name>
    <latitude>27.8491</latitude>
    <woe-label>NULL</woe-label>
    <type>Vikas Kshetra</type>
    <hc-middle-x>0.54</hc-middle-x>
    <hc-middle-y>0.49</hc-middle-y>
    <hc-key>np-752</hc-key>
    <hc-a2>BA</hc-a2>
  </desc>
</path>

<path fill="#CEE3F5" stroke="#6E6E6E" stroke-width="0.4" id="NP.753" d="M525.7,357.0 L523.6,357.2 L516.5,353.2 L513.9,352.4 L508.8,353.8 L501.6,360.1 L497.8,361.0 L496.6,358.0 L494.2,358.5 L488.1,353.5 L487.0,350.2 L487.4,343.0 L485.4,338.3 L477.5,334.5 L470.8,337.5 L464.0,341.4 L459.4,341.5 L456.9,344.4 L456.7,338.4 L458.6,331.8 L461.2,327.5 L462.0,323.7 L461.2,319.4 L462.8,314.9 L468.0,307.1 L469.3,299.9 L467.6,294.5 L463.0,291.5 L462.3,288.6 L467.5,283.9 L470.6,285.7 L483.0,286.1 L485.1,285.4 L487.4,281.0 L492.4,279.9 L494.3,277.6 L493.1,271.8 L496.2,265.9 L503.3,256.9 L506.4,250.6 L508.3,248.0 L511.6,245.8 L511.2,240.3 L512.8,233.6 L514.6,232.9 L517.6,229.7 L516.0,226.8 L516.1,224.1 L514.3,222.1 L514.7,218.6 L513.2,215.4 L520.4,207.5 L522.1,207.7 L523.2,211.9 L522.1,215.5 L525.0,222.1 L531.5,223.6 L535.1,227.1 L538.9,226.9 L542.7,229.6 L545.5,230.0 L550.4,227.2 L551.9,223.9 L556.3,229.3 L557.0,231.7 L557.8,239.2 L559.2,245.4 L555.8,254.5 L553.9,256.6 L548.7,258.5 L544.8,262.4 L540.7,267.4 L533.4,274.9 L532.1,276.8 L530.0,283.2 L531.2,287.6 L530.7,290.3 L528.6,294.2 L530.1,295.2 L534.9,294.9 L539.7,296.2 L544.8,300.2 L541.8,304.5 L539.6,306.6 L541.2,308.8 L542.8,314.0 L542.2,319.1 L536.4,322.0 L534.1,325.7 L532.0,326.5 L527.8,325.3 L526.2,325.8 L524.6,328.6 L525.8,333.0 L526.1,338.8 L529.8,346.2 L529.5,348.0 Z">
  <desc xmlns="http://www.highcharts.com/svg/namespace">
    <labelrank>6</labelrank>
    <hasc>NP.MM</hasc>
    <alt-name>NULL</alt-name>
    <woe-id>23706803</woe-id>
    <subregion>Madhyamanchal</subregion>
    <fips>NP05</fips>
    <postal-code>NULL</postal-code>
    <name>Janakpur</name>
    <country>Nepal</country>
    <type-en>Administrative Zone</type-en>
    <region>Central</region>
    <longitude>85.9718</longitude>
    <woe-name>Janakpur</woe-name>
    <latitude>27.179</latitude>
    <woe-label>NULL</woe-label>
    <type>Anchal</type>
    <hc-middle-x>0.49</hc-middle-x>
    <hc-middle-y>0.60</hc-middle-y>
    <hc-key>np-753</hc-key>
    <hc-a2>JA</hc-a2>
  </desc>
</path>

<path fill="#CEE3F5" stroke="#6E6E6E" stroke-width="0.4" id="NP.754" d="M393.4,242.4 L392.7,245.9 L394.8,249.1 L395.3,252.0 L403.0,252.3 L405.0,253.9 L406.1,256.9 L411.5,257.3 L415.7,255.4 L422.6,253.6 L428.5,253.1 L435.6,255.5 L440.7,256.6 L442.9,261.3 L444.0,268.4 L445.5,270.7 L446.5,274.5 L448.6,276.5 L454.1,279.3 L460.6,280.2 L465.3,281.9 L467.5,283.9 L462.3,288.6 L463.0,291.5 L467.6,294.5 L469.3,299.9 L468.0,307.1 L462.8,314.9 L461.2,319.4 L462.0,323.7 L461.2,327.5 L458.6,331.8 L456.7,338.4 L456.9,344.4 L455.3,345.7 L451.1,346.8 L443.0,344.9 L440.4,342.4 L439.9,336.2 L436.5,334.9 L429.7,337.2 L427.5,337.1 L427.4,334.3 L421.7,332.3 L419.1,326.8 L412.8,324.4 L408.4,321.5 L404.9,323.0 L394.4,320.5 L392.7,317.7 L395.4,311.2 L395.4,303.7 L393.0,296.6 L390.8,293.5 L388.2,291.8 L363.4,287.9 L361.5,286.8 L357.8,281.9 L354.4,282.2 L352.6,279.0 L348.7,276.9 L348.3,275.2 L345.1,275.6 L340.9,281.1 L339.1,282.3 L331.7,281.7 L333.1,280.5 L333.3,277.3 L334.8,275.0 L331.9,274.2 L332.9,272.0 L340.5,272.4 L344.1,271.0 L347.0,272.9 L353.3,263.5 L354.7,264.1 L357.3,260.9 L361.7,260.7 L368.3,257.0 L370.7,257.8 L373.0,256.3 L374.2,253.8 L372.9,251.0 L377.1,250.8 L375.8,247.6 L376.6,245.3 L380.4,243.6 L386.6,238.8 L390.5,239.1 Z">
  <desc xmlns="http://www.highcharts.com/svg/namespace">
    <labelrank>6</labelrank>
    <hasc>NP.MM</hasc>
    <alt-name>NULL</alt-name>
    <woe-id>23706809</woe-id>
    <subregion>Madhyamanchal</subregion>
    <fips>NP11</fips>
    <postal-code>NULL</postal-code>
    <name>Narayani</name>
    <country>Nepal</country>
    <type-en>Administrative Zone</type-en>
    <region>Central</region>
    <longitude>84.72020000000001</longitude>
    <woe-name>Narayani</woe-name>
    <latitude>27.3731</latitude>
    <woe-label>NULL</woe-label>
    <type>Anchal</type>
    <hc-middle-x>0.64</hc-middle-x>
    <hc-middle-y>0.46</hc-middle-y>
    <hc-key>np-754</hc-key>
    <hc-a2>NA</hc-a2>
  </desc>
</path>

<path fill="#CEE3F5" stroke="#6E6E6E" stroke-width="0.4" id="NP.755" d="M594.3,361.9 L589.3,364.6 L588.5,366.8 L584.9,370.2 L582.7,371.0 L577.6,370.0 L575.6,372.9 L574.0,372.7 L567.8,369.3 L560.0,365.9 L557.6,363.5 L551.8,361.6 L543.7,358.1 L541.1,358.5 L537.6,355.5 L529.2,358.5 L525.7,357.0 L529.5,348.0 L529.8,346.2 L526.1,338.8 L525.8,333.0 L524.6,328.6 L526.2,325.8 L527.8,325.3 L532.0,326.5 L534.1,325.7 L536.4,322.0 L542.2,319.1 L542.8,314.0 L541.2,308.8 L539.6,306.6 L541.8,304.5 L544.8,300.2 L539.7,296.2 L534.9,294.9 L530.1,295.2 L528.6,294.2 L530.7,290.3 L531.2,287.6 L530.0,283.2 L532.1,276.8 L533.4,274.9 L540.7,267.4 L544.8,262.4 L548.7,258.5 L553.9,256.6 L555.8,254.5 L559.2,245.4 L557.8,239.2 L557.0,231.7 L556.3,229.3 L551.9,223.9 L551.7,220.0 L553.4,216.5 L553.7,212.1 L555.8,210.7 L559.6,213.1 L563.7,210.3 L567.0,210.9 L569.8,212.9 L570.7,218.2 L573.4,219.0 L579.4,218.5 L581.8,220.3 L584.1,224.1 L588.2,224.9 L591.8,224.0 L591.9,230.2 L593.9,237.9 L593.5,242.0 L594.4,248.3 L593.1,254.0 L591.9,263.7 L590.6,270.0 L587.7,275.0 L588.9,278.5 L592.6,284.2 L592.9,287.1 L590.3,289.5 L589.6,291.6 L590.4,295.9 L589.9,303.5 L590.8,306.1 L593.9,310.0 L595.3,324.6 L598.2,325.0 L608.4,322.1 L612.9,322.4 L613.3,324.0 L611.8,330.5 L608.3,333.2 L602.6,339.9 L599.4,342.1 L597.8,350.2 L596.2,353.6 L597.0,358.2 Z">
  <desc xmlns="http://www.highcharts.com/svg/namespace">
    <labelrank>6</labelrank>
    <hasc>NP.PW</hasc>
    <alt-name>NULL</alt-name>
    <woe-id>23706811</woe-id>
    <subregion>Eastern|Purwanchal</subregion>
    <fips>NP13</fips>
    <postal-code>NULL</postal-code>
    <name>Sagarmatha</name>
    <country>Nepal</country>
    <type-en>Administrative Zone</type-en>
    <region>East</region>
    <longitude>86.66070000000001</longitude>
    <woe-name>Sagarmatha</woe-name>
    <latitude>27.2719</latitude>
    <woe-label>NULL</woe-label>
    <type>Anchal</type>
    <hc-middle-x>0.49</hc-middle-x>
    <hc-middle-y>0.61</hc-middle-y>
    <hc-key>np-755</hc-key>
    <hc-a2>SA</hc-a2>
  </desc>
</path>

<path fill="#CEE3F5" stroke="#6E6E6E" stroke-width="0.4" id="NP.756" d="M656.7,369.5 L651.5,372.8 L648.4,372.1 L642.0,368.9 L639.3,368.6 L633.7,369.8 L631.3,371.4 L629.0,376.3 L626.8,377.2 L621.9,375.1 L619.4,371.5 L612.2,373.2 L609.7,372.3 L607.5,369.8 L604.9,363.8 L603.2,355.7 L602.2,355.8 L597.5,360.6 L594.3,361.9 L597.0,358.2 L596.2,353.6 L597.8,350.2 L599.4,342.1 L602.6,339.9 L608.3,333.2 L611.8,330.5 L613.3,324.0 L612.9,322.4 L608.4,322.1 L598.2,325.0 L595.3,324.6 L593.9,310.0 L590.8,306.1 L589.9,303.5 L590.4,295.9 L589.6,291.6 L590.3,289.5 L592.9,287.1 L592.6,284.2 L588.9,278.5 L587.7,275.0 L590.6,270.0 L591.9,263.7 L593.1,254.0 L594.4,248.3 L593.5,242.0 L593.9,237.9 L591.9,230.2 L591.8,224.0 L593.8,223.9 L598.8,227.8 L603.8,233.7 L607.2,235.3 L613.8,234.6 L618.8,235.7 L622.5,232.5 L626.8,232.0 L625.6,236.5 L627.1,236.4 L639.3,232.6 L641.0,233.0 L643.1,235.5 L648.3,233.4 L652.0,234.2 L648.7,244.0 L646.5,247.3 L641.9,247.1 L640.2,254.0 L636.4,261.3 L635.6,265.2 L634.3,276.6 L635.3,278.6 L640.7,283.9 L646.2,285.3 L658.5,289.5 L660.3,292.8 L658.6,294.7 L657.5,298.0 L652.4,300.6 L649.2,303.0 L639.3,315.2 L641.3,317.9 L643.5,323.3 L645.1,325.2 L650.3,327.2 L654.8,332.8 L656.5,337.6 L655.1,345.7 L656.0,366.7 Z">
  <desc xmlns="http://www.highcharts.com/svg/namespace">
    <labelrank>6</labelrank>
    <hasc>NP.PW</hasc>
    <alt-name>Eastern|Purwanchal</alt-name>
    <woe-id>23706805</woe-id>
    <subregion>Eastern|Purwanchal</subregion>
    <fips>NP07</fips>
    <postal-code>NULL</postal-code>
    <name>Bhojpur</name>
    <country>Nepal</country>
    <type-en>District</type-en>
    <region>East</region>
    <longitude>87.3229</longitude>
    <woe-name>Kosi</woe-name>
    <latitude>27.0937</latitude>
    <woe-label>NULL</woe-label>
    <type>Vikas Kshetra</type>
    <hc-middle-x>0.46</hc-middle-x>
    <hc-middle-y>0.51</hc-middle-y>
    <hc-key>np-756</hc-key>
    <hc-a2>BH</hc-a2>
  </desc>
</path>

<path fill="#CEE3F5" stroke="#6E6E6E" stroke-width="0.4" id="NP.757" d="M656.7,369.5 L656.0,366.7 L655.1,345.7 L656.5,337.6 L654.8,332.8 L650.3,327.2 L645.1,325.2 L643.5,323.3 L641.3,317.9 L639.3,315.2 L649.2,303.0 L652.4,300.6 L657.5,298.0 L658.6,294.7 L660.3,292.8 L658.5,289.5 L646.2,285.3 L640.7,283.9 L635.3,278.6 L634.3,276.6 L635.6,265.2 L636.4,261.3 L640.2,254.0 L641.9,247.1 L646.5,247.3 L648.7,244.0 L652.0,234.2 L656.2,234.5 L660.6,231.2 L664.2,224.5 L666.8,225.1 L673.5,225.0 L676.3,226.1 L681.7,224.8 L687.5,227.1 L693.5,228.7 L692.8,231.7 L693.5,235.6 L691.6,240.6 L690.0,248.8 L685.2,258.2 L683.3,263.2 L685.1,269.4 L683.2,274.5 L685.3,279.7 L684.9,282.1 L681.9,290.0 L682.0,296.8 L680.9,301.2 L684.6,306.5 L687.5,308.0 L690.7,311.4 L698.3,325.1 L700.0,334.8 L699.7,338.6 L698.5,342.9 L695.0,350.8 L693.5,357.1 L693.3,363.3 L691.0,368.1 L687.9,371.7 L685.2,372.1 L679.8,368.4 L678.5,365.9 L675.7,363.6 L674.0,363.7 L671.5,366.0 L666.9,364.9 L665.8,365.4 L664.8,369.0 L662.1,369.6 L659.4,368.0 Z">
  <desc xmlns="http://www.highcharts.com/svg/namespace">
    <labelrank>6</labelrank>
    <hasc>NP.PW</hasc>
    <alt-name>NULL</alt-name>
    <woe-id>23706808</woe-id>
    <subregion>Eastern|Purwanchal</subregion>
    <fips>NP10</fips>
    <postal-code>NULL</postal-code>
    <name>Mechi</name>
    <country>Nepal</country>
    <type-en>Administrative Zone</type-en>
    <region>East</region>
    <longitude>87.80750000000001</longitude>
    <woe-name>Mechi</woe-name>
    <latitude>27.1587</latitude>
    <woe-label>NULL</woe-label>
    <type>Anchal</type>
    <hc-middle-x>0.52</hc-middle-x>
    <hc-middle-y>0.49</hc-middle-y>
    <hc-key>np-757</hc-key>
    <hc-a2>ME</hc-a2>
  </desc>
</path>

<path fill="#CEE3F5" stroke="#6E6E6E" stroke-width="0.4" id="NP.354" d="M224.5,260.0 L222.7,259.3 L211.9,262.2 L204.6,263.1 L201.3,262.1 L196.7,257.5 L190.0,254.2 L179.7,245.9 L174.5,243.6 L171.1,240.5 L175.0,236.3 L177.8,236.5 L180.9,235.4 L182.0,233.5 L182.1,229.8 L181.0,227.4 L176.4,223.5 L174.2,223.1 L168.8,218.0 L167.7,216.1 L170.1,210.0 L174.6,207.6 L171.7,202.4 L170.0,200.4 L164.8,198.4 L164.3,193.9 L163.0,191.4 L163.3,189.1 L167.1,186.9 L168.0,184.6 L167.5,181.1 L166.0,177.4 L167.0,174.5 L169.9,170.8 L173.8,172.3 L179.8,172.6 L182.0,171.4 L183.7,167.9 L189.0,162.9 L193.0,157.3 L197.8,154.3 L206.9,146.9 L210.0,140.0 L213.9,136.4 L218.8,137.8 L224.7,143.0 L226.1,149.6 L231.3,152.7 L234.8,151.9 L239.1,152.2 L244.2,151.8 L247.2,152.6 L259.9,158.7 L263.3,159.5 L262.9,162.2 L259.3,168.1 L254.8,170.2 L250.3,171.5 L247.4,173.2 L249.0,176.5 L247.9,177.8 L244.6,178.5 L242.7,181.7 L243.8,182.5 L241.8,185.7 L246.6,192.3 L247.6,194.9 L255.6,200.8 L258.6,204.1 L259.1,206.7 L254.2,209.9 L252.5,211.9 L255.0,218.0 L251.7,221.5 L249.5,230.4 L251.8,234.0 L251.4,236.6 L244.1,239.8 L238.9,240.0 L235.2,243.4 L231.9,247.6 L236.9,250.1 L238.9,252.1 L235.2,253.4 L231.0,253.0 L226.6,254.7 Z">
  <desc xmlns="http://www.highcharts.com/svg/namespace">
    <labelrank>6</labelrank>
    <hasc>NP.MP</hasc>
    <alt-name>NULL</alt-name>
    <woe-id>23706810</woe-id>
    <subregion>Madhya Pashchimanchal</subregion>
    <fips>NP12</fips>
    <postal-code>NULL</postal-code>
    <name>Rapti</name>
    <country>Nepal</country>
    <type-en>Administrative Zone</type-en>
    <region>Mid-Western</region>
    <longitude>82.5518</longitude>
    <woe-name>Rapti</woe-name>
    <latitude>28.3268</latitude>
    <woe-label>NULL</woe-label>
    <type>Anchal</type>
    <hc-middle-x>0.54</hc-middle-x>
    <hc-middle-y>0.52</hc-middle-y>
    <hc-key>np-354</hc-key>
    <hc-a2>RA</hc-a2>
  </desc>
</path>

<path fill="#CEE3F5" stroke="#6E6E6E" stroke-width="0.4" id="NP.1278" d="M354.0,140.4 L354.8,141.7 L359.2,144.1 L365.0,145.2 L366.9,146.3 L371.0,151.0 L373.5,157.2 L377.6,157.6 L382.2,159.6 L386.9,160.2 L389.1,163.0 L393.4,164.6 L393.1,169.0 L399.8,170.6 L403.6,174.3 L405.7,174.8 L410.4,174.3 L413.8,175.0 L416.7,171.2 L420.7,169.1 L423.1,165.2 L425.0,164.7 L429.9,167.4 L434.1,168.6 L434.8,169.7 L433.3,176.2 L431.2,177.4 L430.2,181.8 L427.6,184.1 L428.4,189.4 L428.3,194.1 L425.5,196.4 L424.0,199.8 L419.8,203.6 L417.9,206.6 L416.6,212.1 L414.0,215.7 L408.6,218.0 L407.1,219.7 L402.9,228.2 L399.2,232.4 L398.7,234.4 L401.0,238.7 L401.4,243.4 L400.3,245.1 L397.4,245.3 L393.4,242.4 L390.5,239.1 L386.6,238.8 L380.4,243.6 L376.6,245.3 L375.8,247.6 L377.1,250.8 L372.9,251.0 L371.0,248.6 L367.4,250.8 L365.1,251.1 L362.8,247.5 L362.4,244.6 L360.4,242.9 L356.7,242.3 L349.0,242.4 L345.3,241.6 L340.5,238.1 L336.7,237.7 L330.9,240.5 L325.3,240.0 L322.5,240.9 L318.9,237.8 L315.4,236.8 L308.5,237.1 L306.3,238.1 L301.2,236.5 L293.9,236.3 L292.9,237.3 L289.4,234.7 L291.2,232.7 L295.2,233.3 L301.0,231.2 L302.2,229.1 L307.0,227.5 L309.0,224.9 L312.0,216.4 L316.7,210.2 L317.9,207.2 L317.5,204.0 L313.0,197.7 L312.2,194.5 L310.1,191.3 L312.9,188.8 L314.7,183.4 L317.7,179.4 L319.0,172.1 L322.5,168.8 L321.8,166.7 L318.1,162.6 L318.5,160.6 L321.7,158.7 L327.1,153.9 L330.7,149.8 L336.7,149.3 L342.5,144.5 L348.4,143.0 Z">
  <desc xmlns="http://www.highcharts.com/svg/namespace">
    <labelrank>6</labelrank>
    <hasc>NP.PM</hasc>
    <alt-name>Western|Pashchimanchal</alt-name>
    <woe-id>23706802</woe-id>
    <subregion>Western|Pashchimanchal</subregion>
    <fips>NP04</fips>
    <postal-code>NULL</postal-code>
    <name>Gandaki</name>
    <country>Nepal</country>
    <type-en>District</type-en>
    <region>West</region>
    <longitude>84.3034</longitude>
    <woe-name>Gandaki</woe-name>
    <latitude>28.3293</latitude>
    <woe-label>NULL</woe-label>
    <type>Vikas Kshetra</type>
    <hc-middle-x>0.51</hc-middle-x>
    <hc-middle-y>0.51</hc-middle-y>
    <hc-key>np-1278</hc-key>
    <hc-a2>GA</hc-a2>
  </desc>
</path>

<path fill="#CEE3F5" stroke="#6E6E6E" stroke-width="0.4" id="NP.746" d="M171.1,240.5 L164.7,239.5 L162.2,240.6 L156.9,246.0 L154.5,245.9 L145.5,240.3 L140.3,235.2 L134.0,233.5 L129.4,229.2 L120.6,224.3 L119.7,221.1 L115.2,216.3 L112.0,215.8 L110.3,219.0 L107.7,219.9 L105.4,216.2 L106.7,215.7 L105.6,213.4 L100.6,207.7 L97.7,199.4 L94.0,196.1 L85.6,194.5 L86.6,189.2 L91.4,185.4 L104.6,170.8 L105.0,164.9 L102.3,158.7 L100.8,152.5 L97.7,149.3 L99.4,153.9 L95.2,152.2 L93.0,148.7 L89.6,149.9 L85.1,146.5 L80.9,142.1 L81.3,140.9 L86.1,138.1 L93.0,140.8 L97.4,144.2 L99.1,144.7 L106.4,144.0 L110.1,146.0 L117.5,145.0 L118.9,145.5 L121.6,149.9 L125.2,154.2 L125.0,157.2 L126.5,159.7 L129.9,157.8 L127.4,151.8 L123.2,146.6 L118.8,140.0 L117.6,139.3 L116.0,135.5 L116.2,133.5 L120.1,129.0 L127.8,123.7 L130.0,126.3 L130.0,130.3 L142.0,134.1 L148.0,135.3 L152.9,137.4 L159.6,138.0 L167.2,134.4 L171.3,137.5 L173.4,137.1 L175.7,133.8 L180.1,129.1 L188.4,125.2 L196.1,125.0 L200.0,126.7 L200.5,128.7 L199.7,132.9 L200.8,134.9 L204.0,135.8 L206.9,134.2 L213.9,136.4 L210.0,140.0 L206.9,146.9 L197.8,154.3 L193.0,157.3 L189.0,162.9 L183.7,167.9 L182.0,171.4 L179.8,172.6 L173.8,172.3 L169.9,170.8 L167.0,174.5 L166.0,177.4 L167.5,181.1 L168.0,184.6 L167.1,186.9 L163.3,189.1 L163.0,191.4 L164.3,193.9 L164.8,198.4 L170.0,200.4 L171.7,202.4 L174.6,207.6 L170.1,210.0 L167.7,216.1 L168.8,218.0 L174.2,223.1 L176.4,223.5 L181.0,227.4 L182.1,229.8 L182.0,233.5 L180.9,235.4 L177.8,236.5 L175.0,236.3 Z">
  <desc xmlns="http://www.highcharts.com/svg/namespace">
    <labelrank>6</labelrank>
    <hasc>NP.MP</hasc>
    <alt-name>Madhya Pashchimanchal</alt-name>
    <woe-id>23706800</woe-id>
    <subregion>Madhya Pashchimanchal</subregion>
    <fips>NP02</fips>
    <postal-code>NULL</postal-code>
    <name>Bheri</name>
    <country>Nepal</country>
    <type-en>District</type-en>
    <region>Mid-Western</region>
    <longitude>81.78019999999999</longitude>
    <woe-name>Bheri</woe-name>
    <latitude>28.4501</latitude>
    <woe-label>NULL</woe-label>
    <type>Vikas Kshetra</type>
    <hc-middle-x>0.37</hc-middle-x>
    <hc-middle-y>0.47</hc-middle-y>
    <hc-key>np-746</hc-key>
    <hc-a2>BH</hc-a2>
  </desc>
</path>

<path fill="#CEE3F5" stroke="#6E6E6E" stroke-width="0.4" id="NP.747" d="M259.1,206.7 L258.6,204.1 L255.6,200.8 L247.6,194.9 L246.6,192.3 L241.8,185.7 L243.8,182.5 L242.7,181.7 L244.6,178.5 L247.9,177.8 L249.0,176.5 L247.4,173.2 L250.3,171.5 L254.8,170.2 L259.3,168.1 L262.9,162.2 L263.3,159.5 L267.9,160.5 L275.5,160.8 L279.6,159.9 L290.8,155.1 L291.9,153.5 L294.6,145.5 L296.0,142.8 L301.8,135.1 L302.7,126.2 L305.8,121.2 L305.2,117.9 L306.8,113.3 L310.5,110.8 L316.7,110.5 L323.0,107.6 L324.2,105.8 L329.4,104.7 L332.0,107.4 L335.1,106.7 L337.1,108.8 L340.2,107.8 L342.5,108.7 L343.7,112.3 L347.3,112.5 L347.9,113.8 L345.5,118.5 L346.1,120.4 L348.8,123.7 L349.4,126.7 L354.2,129.6 L352.3,137.9 L354.0,140.4 L348.4,143.0 L342.5,144.5 L336.7,149.3 L330.7,149.8 L327.1,153.9 L321.7,158.7 L318.5,160.6 L318.1,162.6 L321.8,166.7 L322.5,168.8 L319.0,172.1 L317.7,179.4 L314.7,183.4 L312.9,188.8 L310.1,191.3 L312.2,194.5 L313.0,197.7 L317.5,204.0 L317.9,207.2 L316.7,210.2 L312.0,216.4 L309.0,224.9 L307.0,227.5 L302.2,229.1 L300.9,226.6 L298.9,226.3 L298.5,222.9 L293.9,219.0 L287.7,217.7 L285.2,216.4 L281.9,213.1 L273.7,210.5 L269.0,206.4 L265.8,205.4 Z">
  <desc xmlns="http://www.highcharts.com/svg/namespace">
    <labelrank>6</labelrank>
    <hasc>NP.PM</hasc>
    <alt-name>Dhaulagiri</alt-name>
    <woe-id>23706801</woe-id>
    <subregion>Western|Pashchimanchal</subregion>
    <fips>NP03</fips>
    <postal-code>NULL</postal-code>
    <name>Dhawalagiri</name>
    <country>Nepal</country>
    <type-en>Administrative Zone</type-en>
    <region>West</region>
    <longitude>83.5602</longitude>
    <woe-name>Dhawalagiri</woe-name>
    <latitude>28.4801</latitude>
    <woe-label>NULL</woe-label>
    <type>Anchal</type>
    <hc-middle-x>0.39</hc-middle-x>
    <hc-middle-y>0.62</hc-middle-y>
    <hc-key>np-747</hc-key>
    <hc-a2>DH</hc-a2>
  </desc>
</path>

<path fill="#CEE3F5" stroke="#6E6E6E" stroke-width="0.4" id="NP.748" d="M263.3,159.5 L259.9,158.7 L247.2,152.6 L244.2,151.8 L239.1,152.2 L234.8,151.9 L231.3,152.7 L226.1,149.6 L224.7,143.0 L218.8,137.8 L213.9,136.4 L206.9,134.2 L204.0,135.8 L200.8,134.9 L199.7,132.9 L200.5,128.7 L200.0,126.7 L196.1,125.0 L188.4,125.2 L180.1,129.1 L175.7,133.8 L173.4,137.1 L171.3,137.5 L167.2,134.4 L159.6,138.0 L152.9,137.4 L148.0,135.3 L142.0,134.1 L130.0,130.3 L130.0,126.3 L127.8,123.7 L122.4,119.6 L121.8,116.8 L122.5,110.9 L121.4,107.5 L122.6,105.5 L126.5,101.9 L132.7,100.5 L137.0,103.3 L142.4,102.2 L142.9,100.5 L141.2,97.1 L141.1,90.8 L142.5,87.9 L147.1,84.3 L147.6,78.8 L146.8,77.3 L141.3,74.5 L139.9,69.7 L142.2,62.3 L143.2,54.8 L146.4,50.7 L145.2,48.0 L140.8,47.0 L137.3,45.2 L129.5,45.2 L125.9,46.6 L123.8,49.8 L119.7,48.2 L119.5,43.7 L116.9,37.4 L111.6,37.4 L103.9,32.9 L104.7,27.2 L108.5,27.0 L111.4,23.2 L113.0,16.7 L112.3,14.3 L112.5,9.4 L113.8,6.7 L113.8,3.9 L117.0,4.1 L121.8,7.9 L124.9,7.9 L125.8,4.2 L129.6,2.2 L130.8,0.0 L134.5,0.3 L144.6,4.8 L146.4,5.3 L151.8,4.0 L155.4,5.5 L159.9,5.6 L162.3,8.0 L169.0,6.9 L172.2,7.8 L171.7,14.8 L172.9,19.0 L177.9,22.0 L175.7,27.5 L177.1,32.7 L179.6,34.1 L182.6,33.2 L186.4,35.5 L191.7,36.2 L194.1,38.9 L198.1,38.9 L201.8,42.4 L204.9,44.3 L210.5,46.4 L217.0,54.3 L218.5,55.3 L222.9,55.4 L223.1,59.9 L228.3,63.8 L230.8,67.0 L233.7,68.4 L235.5,71.3 L240.8,68.5 L243.5,70.8 L247.2,70.7 L252.1,74.8 L253.9,78.1 L256.0,78.7 L257.1,75.2 L262.9,74.2 L265.0,75.4 L265.9,77.6 L270.6,80.7 L271.6,83.4 L270.3,86.6 L271.7,88.6 L277.1,87.4 L279.4,89.6 L279.6,94.0 L282.2,96.0 L282.8,99.6 L285.8,101.7 L286.6,104.4 L291.4,107.1 L292.2,108.6 L293.6,115.2 L299.2,117.9 L303.9,118.5 L305.2,117.9 L305.8,121.2 L302.7,126.2 L301.8,135.1 L296.0,142.8 L294.6,145.5 L291.9,153.5 L290.8,155.1 L279.6,159.9 L275.5,160.8 L267.9,160.5 Z">
  <desc xmlns="http://www.highcharts.com/svg/namespace">
    <labelrank>6</labelrank>
    <hasc>NP.MP</hasc>
    <alt-name>NULL</alt-name>
    <woe-id>23706804</woe-id>
    <subregion>Madhya Pashchimanchal</subregion>
    <fips>NP06</fips>
    <postal-code>NULL</postal-code>
    <name>Karnali</name>
    <country>Nepal</country>
    <type-en>Administrative Zone</type-en>
    <region>Mid-Western</region>
    <longitude>82.4637</longitude>
    <woe-name>Karnali</woe-name>
    <latitude>29.474</latitude>
    <woe-label>NULL</woe-label>
    <type>Anchal</type>
    <hc-middle-x>0.50</hc-middle-x>
    <hc-middle-y>0.56</hc-middle-y>
    <hc-key>np-748</hc-key>
    <hc-a2>KA</hc-a2>
  </desc>
</path>

<path fill="#CEE3F5" stroke="#6E6E6E" stroke-width="0.4" id="NP.749" d="M302.2,229.1 L301.0,231.2 L295.2,233.3 L291.2,232.7 L289.4,234.7 L292.9,237.3 L293.9,236.3 L301.2,236.5 L306.3,238.1 L308.5,237.1 L315.4,236.8 L318.9,237.8 L322.5,240.9 L325.3,240.0 L330.9,240.5 L336.7,237.7 L340.5,238.1 L345.3,241.6 L349.0,242.4 L356.7,242.3 L360.4,242.9 L362.4,244.6 L362.8,247.5 L365.1,251.1 L367.4,250.8 L371.0,248.6 L372.9,251.0 L374.2,253.8 L373.0,256.3 L370.7,257.8 L368.3,257.0 L361.7,260.7 L357.3,260.9 L354.7,264.1 L353.3,263.5 L347.0,272.9 L344.1,271.0 L340.5,272.4 L332.9,272.0 L331.9,274.2 L334.8,275.0 L333.3,277.3 L333.1,280.5 L331.7,281.7 L324.2,283.3 L327.5,287.6 L328.1,290.2 L326.2,291.9 L321.6,289.9 L309.6,283.8 L303.3,281.6 L293.9,280.6 L285.9,280.7 L283.7,281.5 L283.3,284.7 L284.6,286.5 L282.2,291.6 L279.1,294.1 L275.2,293.6 L272.7,289.5 L267.3,284.8 L264.2,283.6 L253.7,283.8 L248.2,282.6 L242.1,279.8 L231.5,279.2 L229.5,277.0 L228.6,273.4 L227.6,266.2 L226.5,262.5 L224.5,260.0 L226.6,254.7 L231.0,253.0 L235.2,253.4 L238.9,252.1 L236.9,250.1 L231.9,247.6 L235.2,243.4 L238.9,240.0 L244.1,239.8 L251.4,236.6 L251.8,234.0 L249.5,230.4 L251.7,221.5 L255.0,218.0 L252.5,211.9 L254.2,209.9 L259.1,206.7 L265.8,205.4 L269.0,206.4 L273.7,210.5 L281.9,213.1 L285.2,216.4 L287.7,217.7 L293.9,219.0 L298.5,222.9 L298.9,226.3 L300.9,226.6 Z">
  <desc xmlns="http://www.highcharts.com/svg/namespace">
    <labelrank>6</labelrank>
    <hasc>NP.PM</hasc>
    <alt-name>NULL</alt-name>
    <woe-id>23706806</woe-id>
    <subregion>Western|Pashchimanchal</subregion>
    <fips>NP08</fips>
    <postal-code>NULL</postal-code>
    <name>Lumbini</name>
    <country>Nepal</country>
    <type-en>Administrative Zone</type-en>
    <region>West</region>
    <longitude>83.55</longitude>
    <woe-name>Lumbini</woe-name>
    <latitude>27.695</latitude>
    <woe-label>NULL</woe-label>
    <type>Anchal</type>
    <hc-middle-x>0.38</hc-middle-x>
    <hc-middle-y>0.57</hc-middle-y>
    <hc-key>np-749</hc-key>
    <hc-a2>LU</hc-a2>
  </desc>
</path>
</g>

<text x="350" y="714" text-anchor="middle" font-family="Verdana" font-size="8" stroke-opacity="0.6">Copyright (c) 2023 Highsoft AS, Based on data from Natural Earth</text>

</svg>