<?xml version="1.0" encoding="utf-8" standalone="no"?>
<!DOCTYPE svg PUBLIC "-//W3C//DTD SVG 1.1//EN" "http://www.w3.org/Graphics/SVG/1.1/DTD/svg11.dtd">

<svg version="1.1" height="700pt" width="700pt" xmlns="http://www.w3.org/2000/svg" xmlns:xlink="http://www.w3.org/1999/xlink">
<desc>
Map version: 2.1.0
Copyright (c) 2023 Highsoft AS, Based on data from Natural Earth
</desc>
<title>Kenya</title>
<g id="admin1">

<g id="KE">
  <desc xmlns="http://www.highcharts.com/svg/namespace">
    <name>Kenya</name>
    <labelrank>2</labelrank>
    <country-abbrev>Ken.</country-abbrev>
    <subregion>Eastern Africa</subregion>
    <region-wb>Sub-Saharan Africa</region-wb>
    <iso-a3>KEN</iso-a3>
    <iso-a2>KE</iso-a2>
    <woe-id>23424863</woe-id>
    <continent>Africa</continent>
    <hc-key>ke</hc-key>
    <hc-a2>KE</hc-a2>
  </desc>
</g>

<path fill="#CEE3F5" stroke="#6E6E6E" stroke-width="0.4" id="KE.CO" d="M523.8,513.8 L519.6,516.9 L517.9,516.0 L510.9,519.2 L508.9,518.1 L510.7,514.2 L515.2,512.2 L516.7,509.8 L522.4,511.5 Z M288.6,563.3 L292.2,563.3 L304.3,556.9 L309.3,561.2 L313.4,563.0 L320.1,573.5 L326.7,578.1 L333.6,576.6 L342.1,581.3 L351.9,582.3 L352.1,583.9 L358.5,581.6 L370.0,580.5 L340.2,536.8 L344.5,536.8 L352.3,531.2 L365.5,504.9 L366.0,501.3 L364.1,490.2 L367.0,484.6 L366.7,445.6 L357.6,425.4 L324.6,368.9 L328.3,368.5 L334.1,364.8 L345.5,366.0 L348.6,367.8 L362.2,369.8 L364.7,367.0 L371.1,365.8 L377.4,372.2 L389.2,372.7 L398.2,376.7 L406.7,383.6 L410.1,388.0 L412.9,398.3 L417.6,404.8 L421.6,405.8 L425.8,412.7 L427.5,423.6 L431.4,436.2 L435.0,442.3 L433.5,444.8 L436.3,446.0 L439.9,453.7 L441.9,469.7 L447.7,480.2 L448.2,487.4 L447.4,494.1 L449.9,501.1 L448.8,502.1 L451.7,512.8 L455.6,511.3 L511.7,486.4 L550.9,483.9 L540.7,497.2 L532.5,505.0 L528.8,504.0 L527.9,501.6 L525.4,506.5 L519.9,505.6 L514.0,510.3 L510.5,507.6 L506.7,511.5 L505.3,507.0 L501.9,504.6 L501.5,508.5 L503.6,508.3 L506.5,522.9 L510.5,525.5 L508.5,527.8 L504.2,523.7 L500.2,524.9 L497.1,528.1 L497.0,531.8 L499.5,534.2 L494.4,539.4 L491.0,540.8 L486.6,546.1 L484.1,547.0 L477.4,545.0 L467.7,547.5 L457.1,554.5 L452.1,562.1 L453.0,565.3 L451.2,574.5 L452.3,577.5 L455.7,578.8 L451.3,584.0 L450.5,588.9 L448.0,592.4 L448.7,597.4 L445.8,601.1 L437.3,606.3 L432.2,617.0 L431.4,621.1 L429.0,623.7 L422.9,621.3 L425.9,625.2 L428.4,624.2 L429.7,629.2 L423.9,645.3 L422.0,647.0 L416.5,645.2 L420.9,649.0 L417.6,654.7 L413.5,650.2 L412.3,653.0 L407.8,653.6 L409.1,655.6 L414.0,656.2 L415.2,659.3 L411.5,665.5 L406.0,682.2 L404.8,681.3 L402.0,685.7 L399.6,693.1 L399.1,688.7 L396.4,695.5 L393.2,696.9 L388.7,694.1 L386.1,694.9 L380.8,700.0 L278.0,626.4 L274.5,618.1 L272.1,616.5 L265.6,616.2 L264.9,608.3 L270.7,604.9 L272.9,601.9 L271.4,593.1 L281.9,591.7 L283.7,579.9 Z">
  <desc xmlns="http://www.highcharts.com/svg/namespace">
    <labelrank>4</labelrank>
    <hasc>KE.CO</hasc>
    <alt-name>NULL</alt-name>
    <woe-id>2345938</woe-id>
    <subregion>NULL</subregion>
    <fips>KE02</fips>
    <postal-code>CO</postal-code>
    <name>Coast</name>
    <country>Kenya</country>
    <type-en>Province</type-en>
    <region>NULL</region>
    <longitude>39.5816</longitude>
    <woe-name>Coast</woe-name>
    <latitude>-2.51514</latitude>
    <woe-label>Coast, KE, Kenya</woe-label>
    <type>Mkoa</type>
    <hc-middle-x>0.43</hc-middle-x>
    <hc-middle-y>0.66</hc-middle-y>
    <hc-key>ke-co</hc-key>
    <hc-a2>CO</hc-a2>
  </desc>
</path>

<path fill="#CEE3F5" stroke="#6E6E6E" stroke-width="0.4" id="KE.NY" d="M5.9,399.0 L0.0,397.3 L0.7,395.6 L6.2,394.3 L8.5,397.4 Z M19.8,391.2 L15.7,394.6 L12.7,394.0 L16.1,389.6 Z M56.3,465.1 L9.4,439.2 L9.2,433.2 L13.7,435.6 L14.2,429.0 L17.3,426.0 L16.7,424.3 L9.2,420.6 L8.2,415.7 L6.7,415.9 L7.4,409.4 L9.9,407.0 L8.1,403.5 L15.7,400.5 L17.7,393.6 L20.2,393.1 L24.7,396.7 L29.3,397.7 L30.1,395.0 L32.7,395.6 L35.7,400.7 L40.6,397.5 L40.3,395.0 L37.2,393.7 L36.6,388.1 L44.9,386.1 L53.3,388.1 L58.8,387.3 L58.5,383.8 L64.9,385.4 L61.8,377.2 L57.2,373.0 L57.5,369.3 L53.0,369.5 L51.0,371.5 L43.9,373.9 L40.7,376.1 L36.4,375.2 L30.1,376.0 L29.1,378.9 L32.2,382.2 L31.3,384.9 L27.6,387.7 L26.0,391.3 L21.2,384.7 L22.4,382.2 L17.4,378.2 L12.8,376.5 L10.2,373.2 L13.8,367.8 L9.5,367.7 L8.7,370.8 L3.6,363.7 L5.5,357.0 L9.5,354.5 L10.6,348.1 L14.4,344.9 L17.9,344.6 L20.5,341.2 L29.7,340.9 L32.7,343.7 L33.4,347.5 L37.3,351.5 L38.0,354.3 L41.9,357.0 L40.8,362.8 L43.0,364.5 L47.6,363.1 L50.9,364.4 L59.1,363.6 L62.7,365.4 L71.8,366.1 L76.0,364.9 L80.1,367.3 L84.9,364.5 L92.2,365.8 L93.4,369.5 L100.4,376.7 L100.1,380.2 L96.1,380.0 L91.1,375.3 L85.5,372.3 L80.3,378.3 L79.5,385.1 L76.8,390.6 L79.0,395.3 L80.6,408.7 L80.2,413.6 L82.0,419.4 L77.9,422.9 L74.9,427.7 L55.5,433.2 L50.9,432.6 L45.7,436.0 L49.9,447.2 L53.5,452.1 Z">
  <desc xmlns="http://www.highcharts.com/svg/namespace">
    <labelrank>4</labelrank>
    <hasc>KE.NY</hasc>
    <alt-name>NULL</alt-name>
    <woe-id>2345942</woe-id>
    <subregion>NULL</subregion>
    <fips>KE07</fips>
    <postal-code>NY</postal-code>
    <name>Nyanza</name>
    <country>Kenya</country>
    <type-en>Province</type-en>
    <region>NULL</region>
    <longitude>34.4239</longitude>
    <woe-name>Nyanza</woe-name>
    <latitude>-0.511452</latitude>
    <woe-label>Nyanza, KE, Kenya</woe-label>
    <type>Mkoa</type>
    <hc-middle-x>0.43</hc-middle-x>
    <hc-middle-y>0.58</hc-middle-y>
    <hc-key>ke-ny</hc-key>
    <hc-a2>NY</hc-a2>
  </desc>
</path>

<path fill="#CEE3F5" stroke="#6E6E6E" stroke-width="0.4" id="KE.CE" d="M231.5,452.2 L228.8,449.8 L221.9,450.4 L217.4,445.2 L214.7,447.8 L208.1,447.4 L202.1,452.4 L198.5,456.7 L194.7,454.6 L186.3,453.3 L185.8,451.8 L188.5,443.8 L191.2,443.2 L191.8,435.0 L187.0,419.1 L187.8,415.4 L186.1,407.4 L182.2,405.0 L178.5,405.2 L176.2,391.9 L167.9,391.1 L164.3,383.2 L165.8,368.7 L168.3,363.0 L173.8,359.0 L178.5,358.4 L183.6,354.5 L186.9,358.7 L192.9,362.5 L196.1,362.7 L189.7,366.5 L188.9,370.4 L192.1,373.0 L197.9,373.8 L208.0,372.1 L211.7,373.5 L209.9,378.4 L213.3,383.4 L219.7,384.2 L223.6,379.8 L224.2,374.6 L222.2,370.2 L228.2,361.7 L244.9,374.5 L253.1,393.9 L253.6,401.8 L256.5,405.6 L256.8,416.9 L247.2,420.4 L242.9,417.8 L240.5,418.2 L239.6,425.7 L242.3,428.0 L245.5,433.6 L249.0,433.2 L248.4,437.9 L245.3,441.6 L243.0,440.0 L237.6,440.7 L234.5,443.3 L234.8,445.8 Z">
  <desc xmlns="http://www.highcharts.com/svg/namespace">
    <labelrank>4</labelrank>
    <hasc>KE.CE</hasc>
    <alt-name>NULL</alt-name>
    <woe-id>2345937</woe-id>
    <subregion>NULL</subregion>
    <fips>KE01</fips>
    <postal-code>CE</postal-code>
    <name>Central</name>
    <country>Kenya</country>
    <type-en>Province</type-en>
    <region>NULL</region>
    <longitude>36.8463</longitude>
    <woe-name>Central</woe-name>
    <latitude>-0.709986</latitude>
    <woe-label>Central, KE, Kenya</woe-label>
    <type>Mkoa</type>
    <hc-middle-x>0.60</hc-middle-x>
    <hc-middle-y>0.60</hc-middle-y>
    <hc-key>ke-ce</hc-key>
    <hc-a2>CE</hc-a2>
  </desc>
</path>

<path fill="#CEE3F5" stroke="#6E6E6E" stroke-width="0.4" id="KE.NA" d="M198.5,456.7 L202.1,452.4 L208.1,447.4 L214.7,447.8 L217.4,445.2 L221.9,450.4 L228.8,449.8 L231.5,452.2 L227.1,456.7 L220.1,456.0 L215.5,460.8 L215.2,464.9 L212.5,464.9 L202.9,461.0 Z">
  <desc xmlns="http://www.highcharts.com/svg/namespace">
    <labelrank>9</labelrank>
    <hasc>KE.NA</hasc>
    <alt-name>Federal Area|Nairobi District|Masai District</alt-name>
    <woe-id>2345940</woe-id>
    <subregion>NULL</subregion>
    <fips>KE05</fips>
    <postal-code>NA</postal-code>
    <name>Nairobi</name>
    <country>Kenya</country>
    <type-en>National Capital Area</type-en>
    <region>NULL</region>
    <longitude>36.9039</longitude>
    <woe-name>Nairobi</woe-name>
    <latitude>-1.29384</latitude>
    <woe-label>Nairobi Area, KE, Kenya</woe-label>
    <type>National Capital Area</type>
    <hc-middle-x>0.50</hc-middle-x>
    <hc-middle-y>0.46</hc-middle-y>
    <hc-key>ke-na</hc-key>
    <hc-a2>NA</hc-a2>
  </desc>
</path>

<path fill="#CEE3F5" stroke="#6E6E6E" stroke-width="0.4" id="KE.565" d="M212.5,464.9 L215.2,464.9 L215.5,460.8 L220.1,456.0 L227.1,456.7 L231.5,452.2 L234.8,445.8 L234.5,443.3 L237.6,440.7 L243.0,440.0 L245.3,441.6 L248.4,437.9 L249.0,433.2 L245.5,433.6 L242.3,428.0 L239.6,425.7 L240.5,418.2 L242.9,417.8 L247.2,420.4 L256.8,416.9 L256.5,405.6 L253.6,401.8 L253.1,393.9 L244.9,374.5 L228.2,361.7 L237.3,358.2 L247.9,348.3 L250.5,337.9 L247.3,331.1 L245.9,325.0 L213.2,320.8 L212.2,318.9 L216.0,313.8 L217.0,308.3 L229.5,305.9 L237.1,308.9 L239.3,307.6 L243.3,310.2 L249.6,320.4 L256.3,319.7 L263.1,321.5 L272.6,314.6 L282.1,312.9 L285.4,309.7 L288.2,310.2 L294.5,305.3 L298.6,305.8 L297.1,281.2 L290.3,271.3 L289.6,261.6 L283.7,255.0 L280.1,256.8 L262.7,260.8 L261.6,260.0 L256.7,248.4 L249.9,241.0 L249.2,236.1 L244.0,231.9 L240.2,224.5 L232.2,217.8 L219.6,217.4 L214.3,202.6 L209.5,198.0 L203.6,181.4 L200.1,180.1 L199.7,185.2 L195.7,189.4 L190.0,190.4 L188.1,188.4 L187.1,179.1 L181.7,173.4 L181.3,166.7 L177.2,157.8 L168.3,150.9 L167.0,148.0 L164.4,149.2 L158.8,147.6 L160.4,138.3 L160.4,131.3 L153.6,129.2 L153.0,127.4 L153.3,42.5 L166.3,42.2 L170.1,43.1 L194.8,42.7 L197.1,43.7 L211.1,43.6 L223.5,48.1 L230.4,54.4 L292.9,94.6 L297.2,100.2 L302.0,102.8 L307.4,102.2 L322.8,104.0 L330.6,102.0 L342.4,104.1 L342.5,102.2 L346.9,106.6 L359.4,110.0 L371.9,109.0 L380.1,112.6 L385.6,113.1 L388.4,111.5 L389.5,126.0 L390.7,132.6 L390.4,143.9 L386.3,147.7 L375.2,153.5 L373.9,157.6 L364.9,177.7 L358.7,181.5 L362.9,203.5 L362.9,209.4 L371.9,225.4 L375.8,228.5 L380.4,237.8 L391.7,245.4 L395.4,250.1 L399.7,253.0 L388.3,257.5 L387.2,259.2 L399.3,291.1 L397.9,293.1 L389.3,296.4 L382.2,305.1 L378.5,311.8 L354.4,320.9 L351.2,325.3 L345.6,326.6 L342.7,328.9 L344.7,330.8 L348.7,347.6 L347.9,352.8 L348.6,367.8 L345.5,366.0 L334.1,364.8 L328.3,368.5 L324.6,368.9 L357.6,425.4 L366.7,445.6 L367.0,484.6 L364.1,490.2 L366.0,501.3 L365.5,504.9 L352.3,531.2 L344.5,536.8 L340.2,536.8 L370.0,580.5 L358.5,581.6 L352.1,583.9 L351.9,582.3 L342.1,581.3 L333.6,576.6 L326.7,578.1 L320.1,573.5 L313.4,563.0 L309.3,561.2 L304.3,556.9 L292.2,563.3 L288.6,563.3 L287.1,557.9 L265.6,533.2 L265.2,531.1 L269.6,528.5 L272.0,519.5 L265.1,518.3 L249.2,508.5 L243.7,507.2 L235.0,500.5 L232.9,495.5 L233.5,491.3 L221.7,477.1 L219.3,472.1 L220.5,468.3 L213.7,468.4 Z">
  <desc xmlns="http://www.highcharts.com/svg/namespace">
    <labelrank>4</labelrank>
    <hasc>KE.NA</hasc>
    <alt-name>Federal Area|Nairobi District|Masai District</alt-name>
    <woe-id>2345939</woe-id>
    <subregion>NULL</subregion>
    <fips>KE03</fips>
    <postal-code>NULL</postal-code>
    <name>Eastern</name>
    <country>Kenya</country>
    <type-en>National Capital Area</type-en>
    <region>NULL</region>
    <longitude>37.7915</longitude>
    <woe-name>Eastern</woe-name>
    <latitude>2.60695</latitude>
    <woe-label>Eastern, KE, Kenya</woe-label>
    <type>National Capital Area</type>
    <hc-middle-x>0.56</hc-middle-x>
    <hc-middle-y>0.25</hc-middle-y>
    <hc-key>ke-565</hc-key>
    <hc-a2>EA</hc-a2>
  </desc>
</path>

<path fill="#CEE3F5" stroke="#6E6E6E" stroke-width="0.4" id="KE.RV" d="M153.3,42.5 L153.0,127.4 L153.6,129.2 L160.4,131.3 L160.4,138.3 L158.8,147.6 L164.4,149.2 L167.0,148.0 L168.3,150.9 L177.2,157.8 L181.3,166.7 L181.7,173.4 L187.1,179.1 L188.1,188.4 L190.0,190.4 L195.7,189.4 L199.7,185.2 L200.1,180.1 L203.6,181.4 L209.5,198.0 L214.3,202.6 L219.6,217.4 L232.2,217.8 L240.2,224.5 L244.0,231.9 L249.2,236.1 L249.9,241.0 L256.7,248.4 L261.6,260.0 L262.7,260.8 L280.1,256.8 L283.7,255.0 L289.6,261.6 L290.3,271.3 L297.1,281.2 L298.6,305.8 L294.5,305.3 L288.2,310.2 L285.4,309.7 L282.1,312.9 L272.6,314.6 L263.1,321.5 L256.3,319.7 L249.6,320.4 L243.3,310.2 L239.3,307.6 L237.1,308.9 L229.5,305.9 L217.0,308.3 L216.0,313.8 L212.2,318.9 L213.2,320.8 L245.9,325.0 L247.3,331.1 L250.5,337.9 L247.9,348.3 L237.3,358.2 L228.2,361.7 L222.2,370.2 L224.2,374.6 L223.6,379.8 L219.7,384.2 L213.3,383.4 L209.9,378.4 L211.7,373.5 L208.0,372.1 L197.9,373.8 L192.1,373.0 L188.9,370.4 L189.7,366.5 L196.1,362.7 L192.9,362.5 L186.9,358.7 L183.6,354.5 L178.5,358.4 L173.8,359.0 L168.3,363.0 L165.8,368.7 L164.3,383.2 L167.9,391.1 L176.2,391.9 L178.5,405.2 L182.2,405.0 L186.1,407.4 L187.8,415.4 L187.0,419.1 L191.8,435.0 L191.2,443.2 L188.5,443.8 L185.8,451.8 L186.3,453.3 L194.7,454.6 L198.5,456.7 L202.9,461.0 L212.5,464.9 L213.7,468.4 L220.5,468.3 L219.3,472.1 L221.7,477.1 L233.5,491.3 L232.9,495.5 L235.0,500.5 L243.7,507.2 L249.2,508.5 L265.1,518.3 L272.0,519.5 L269.6,528.5 L265.2,531.1 L265.6,533.2 L287.1,557.9 L288.6,563.3 L283.7,579.9 L281.9,591.7 L271.4,593.1 L268.9,582.5 L56.3,465.1 L53.5,452.1 L49.9,447.2 L45.7,436.0 L50.9,432.6 L55.5,433.2 L74.9,427.7 L77.9,422.9 L82.0,419.4 L80.2,413.6 L80.6,408.7 L79.0,395.3 L76.8,390.6 L79.5,385.1 L80.3,378.3 L85.5,372.3 L91.1,375.3 L96.1,380.0 L100.1,380.2 L100.4,376.7 L93.4,369.5 L92.2,365.8 L84.9,364.5 L80.1,367.3 L76.0,364.9 L71.8,366.1 L62.7,365.4 L59.1,363.6 L70.2,350.2 L71.9,344.3 L71.5,336.2 L68.7,329.0 L64.8,326.5 L65.4,321.9 L70.6,321.8 L74.4,317.7 L83.0,317.4 L89.1,309.9 L87.8,304.8 L85.0,301.0 L80.4,299.3 L74.0,299.4 L71.1,302.0 L62.0,303.4 L49.4,289.3 L45.3,283.4 L46.2,279.8 L53.8,275.7 L62.1,274.1 L63.0,271.2 L60.7,262.8 L65.0,259.3 L68.3,251.0 L72.5,248.5 L75.3,242.0 L75.4,228.0 L77.0,223.8 L73.8,218.8 L74.5,211.3 L67.2,193.5 L67.3,188.9 L71.4,184.2 L68.8,180.9 L68.0,175.9 L63.8,175.4 L60.8,169.1 L57.4,157.0 L54.5,155.1 L50.9,156.4 L46.2,150.2 L44.1,139.3 L36.0,133.1 L35.4,124.2 L32.5,118.2 L32.7,111.2 L36.9,105.4 L36.6,98.0 L30.5,93.7 L25.8,95.4 L22.2,89.6 L16.7,90.5 L15.6,86.7 L19.7,83.0 L10.9,82.7 L12.6,76.8 L9.3,73.3 L9.9,67.5 L7.0,60.3 L3.3,57.9 L32.8,29.2 L53.5,18.8 L95.6,3.4 L96.8,5.8 L107.6,0.0 L109.2,1.9 L106.4,7.5 L113.6,7.5 L119.1,9.2 L115.5,18.1 L121.9,29.7 L128.3,31.9 L129.2,26.7 L134.0,25.5 L134.2,29.8 L144.3,29.8 L145.7,37.9 Z">
  <desc xmlns="http://www.highcharts.com/svg/namespace">
    <labelrank>4</labelrank>
    <hasc>KE.</hasc>
    <alt-name>NULL</alt-name>
    <woe-id>2345943</woe-id>
    <subregion>NULL</subregion>
    <fips>KE08</fips>
    <postal-code>RV</postal-code>
    <name>Rift Valley</name>
    <country>Kenya</country>
    <type-en>Province</type-en>
    <region>NULL</region>
    <longitude>36.0169</longitude>
    <woe-name>Rift Valley</woe-name>
    <latitude>1.15655</latitude>
    <woe-label>Rift Valley, KE, Kenya</woe-label>
    <type>Mkoa</type>
    <hc-middle-x>0.50</hc-middle-x>
    <hc-middle-y>0.46</hc-middle-y>
    <hc-key>ke-rv</hc-key>
    <hc-a2>RV</hc-a2>
  </desc>
</path>

<path fill="#CEE3F5" stroke="#6E6E6E" stroke-width="0.4" id="KE.WE" d="M3.6,363.7 L1.2,358.9 L2.7,355.4 L4.2,346.8 L3.6,345.3 L10.4,336.5 L9.5,332.5 L11.8,329.0 L14.9,319.4 L22.3,315.7 L26.3,307.6 L32.2,304.1 L37.7,292.4 L37.7,289.1 L40.9,283.4 L45.3,283.4 L49.4,289.3 L62.0,303.4 L71.1,302.0 L74.0,299.4 L80.4,299.3 L85.0,301.0 L87.8,304.8 L89.1,309.9 L83.0,317.4 L74.4,317.7 L70.6,321.8 L65.4,321.9 L64.8,326.5 L68.7,329.0 L71.5,336.2 L71.9,344.3 L70.2,350.2 L59.1,363.6 L50.9,364.4 L47.6,363.1 L43.0,364.5 L40.8,362.8 L41.9,357.0 L38.0,354.3 L37.3,351.5 L33.4,347.5 L32.7,343.7 L29.7,340.9 L20.5,341.2 L17.9,344.6 L14.4,344.9 L10.6,348.1 L9.5,354.5 L5.5,357.0 Z">
  <desc xmlns="http://www.highcharts.com/svg/namespace">
    <labelrank>4</labelrank>
    <hasc>KE.WE</hasc>
    <alt-name>NULL</alt-name>
    <woe-id>2345944</woe-id>
    <subregion>NULL</subregion>
    <fips>KE09</fips>
    <postal-code>WE</postal-code>
    <name>Western</name>
    <country>Kenya</country>
    <type-en>Province</type-en>
    <region>NULL</region>
    <longitude>34.5306</longitude>
    <woe-name>Western</woe-name>
    <latitude>0.537049</latitude>
    <woe-label>NULL</woe-label>
    <type>Mkoa</type>
    <hc-middle-x>0.47</hc-middle-x>
    <hc-middle-y>0.48</hc-middle-y>
    <hc-key>ke-we</hc-key>
    <hc-a2>WE</hc-a2>
  </desc>
</path>

<path fill="#CEE3F5" stroke="#6E6E6E" stroke-width="0.4" id="KE.NE" d="M388.4,111.5 L389.5,113.4 L398.6,113.7 L402.4,117.1 L405.8,117.8 L408.6,111.1 L420.9,99.4 L428.4,84.5 L452.8,72.6 L465.8,68.0 L467.0,66.1 L490.0,57.3 L494.6,54.3 L500.5,59.3 L503.5,63.5 L512.1,68.5 L516.8,75.0 L520.0,77.5 L527.3,79.3 L542.8,78.4 L554.2,75.8 L559.3,76.6 L562.4,74.8 L572.2,78.2 L575.8,76.2 L536.7,132.3 L510.4,158.2 L509.4,160.2 L509.6,183.1 L509.8,363.3 L510.6,425.8 L549.9,476.5 L550.9,483.9 L511.7,486.4 L455.6,511.3 L451.7,512.8 L448.8,502.1 L449.9,501.1 L447.4,494.1 L448.2,487.4 L447.7,480.2 L441.9,469.7 L439.9,453.7 L436.3,446.0 L433.5,444.8 L435.0,442.3 L431.4,436.2 L427.5,423.6 L425.8,412.7 L421.6,405.8 L417.6,404.8 L412.9,398.3 L410.1,388.0 L406.7,383.6 L398.2,376.7 L389.2,372.7 L377.4,372.2 L371.1,365.8 L364.7,367.0 L362.2,369.8 L348.6,367.8 L347.9,352.8 L348.7,347.6 L344.7,330.8 L342.7,328.9 L345.6,326.6 L351.2,325.3 L354.4,320.9 L378.5,311.8 L382.2,305.1 L389.3,296.4 L397.9,293.1 L399.3,291.1 L387.2,259.2 L388.3,257.5 L399.7,253.0 L395.4,250.1 L391.7,245.4 L380.4,237.8 L375.8,228.5 L371.9,225.4 L362.9,209.4 L362.9,203.5 L358.7,181.5 L364.9,177.7 L373.9,157.6 L375.2,153.5 L386.3,147.7 L390.4,143.9 L390.7,132.6 L389.5,126.0 Z">
  <desc xmlns="http://www.highcharts.com/svg/namespace">
    <labelrank>4</labelrank>
    <hasc>KE.NE</hasc>
    <alt-name>NULL</alt-name>
    <woe-id>2345941</woe-id>
    <subregion>NULL</subregion>
    <fips>KE06</fips>
    <postal-code>NE</postal-code>
    <name>North-Eastern</name>
    <country>Kenya</country>
    <type-en>Province</type-en>
    <region>NULL</region>
    <longitude>40.2748</longitude>
    <woe-name>North-Eastern</woe-name>
    <latitude>1.01482</latitude>
    <woe-label>North-Eastern, KE, Kenya</woe-label>
    <type>Mkoa</type>
    <hc-middle-x>0.40</hc-middle-x>
    <hc-middle-y>0.45</hc-middle-y>
    <hc-key>ke-ne</hc-key>
    <hc-a2>NE</hc-a2>
  </desc>
</path>
</g>

<text x="350" y="714" text-anchor="middle" font-family="Verdana" font-size="8" stroke-opacity="0.6">Copyright (c) 2023 Highsoft AS, Based on data from Natural Earth</text>

</svg>