<?xml version="1.0" encoding="utf-8" standalone="no"?>
<!DOCTYPE svg PUBLIC "-//W3C//DTD SVG 1.1//EN" "http://www.w3.org/Graphics/SVG/1.1/DTD/svg11.dtd">

<svg version="1.1" height="700pt" width="700pt" xmlns="http://www.w3.org/2000/svg" xmlns:xlink="http://www.w3.org/1999/xlink">
<desc>
Map version: 1.1.3
Copyright (c) 2020 Highsoft AS, Based on data from Natural Earth
</desc>
<title>Brazil</title>
<g id="admin1">

<g id="BR">
  <desc xmlns="http://www.highcharts.com/svg/namespace">
    <name>Brazil</name>
    <labelrank>2</labelrank>
    <country-abbrev>Brazil</country-abbrev>
    <subregion>South America</subregion>
    <region-wb>Latin America &amp; Caribbean</region-wb>
    <iso-a3>BRA</iso-a3>
    <iso-a2>BR</iso-a2>
    <woe-id>23424768</woe-id>
    <continent>South America</continent>
    <hc-key>br</hc-key>
    <hc-a2>BR</hc-a2>
  </desc>
</g>

<path fill="#CEE3F5" stroke="#6E6E6E" stroke-width="0.4" id="BR.SP" d="M501.6,524.5 L501.0,526.7 L498.8,527.3 L497.9,526.2 L500.1,523.5 Z M370.9,500.9 L374.3,496.6 L376.4,495.9 L379.2,493.6 L381.8,492.4 L384.3,490.2 L385.3,487.4 L388.0,483.8 L389.9,482.5 L388.8,480.4 L392.9,476.8 L392.8,473.7 L397.0,468.5 L397.2,465.3 L402.3,459.3 L405.5,458.2 L408.0,454.8 L410.1,452.9 L413.7,451.5 L415.4,449.6 L417.7,449.4 L419.1,450.8 L426.8,452.1 L432.5,452.2 L435.2,453.2 L437.1,453.0 L436.7,456.6 L437.9,458.9 L439.0,459.0 L440.9,456.3 L442.1,457.9 L442.0,460.9 L443.7,461.1 L443.5,458.5 L444.3,456.8 L454.8,456.2 L457.3,457.0 L458.8,454.8 L459.8,456.4 L460.7,454.5 L463.5,454.0 L464.5,455.0 L467.6,453.9 L468.1,455.3 L471.4,458.5 L470.3,462.4 L472.6,464.3 L473.2,466.3 L471.4,469.3 L471.1,471.3 L472.3,472.5 L472.6,475.2 L473.7,476.5 L474.4,480.2 L477.6,479.6 L482.6,481.6 L482.8,482.8 L479.7,487.8 L480.3,491.0 L478.9,492.4 L480.5,493.7 L478.7,497.0 L479.6,498.6 L483.7,501.0 L482.2,503.7 L483.8,504.9 L483.9,506.7 L487.4,507.7 L491.4,506.7 L492.2,507.4 L494.1,506.4 L493.2,504.6 L495.9,502.7 L497.8,503.9 L499.8,504.0 L505.9,501.1 L509.7,500.2 L510.7,500.6 L512.7,503.9 L514.3,504.4 L519.7,504.2 L520.4,506.2 L518.5,508.3 L515.1,508.6 L509.6,510.8 L509.3,513.4 L508.3,514.6 L510.3,517.4 L507.6,517.0 L504.9,518.4 L504.5,520.0 L503.2,519.4 L502.3,520.9 L500.6,520.8 L498.3,522.3 L498.6,525.2 L491.2,523.6 L486.4,524.9 L486.0,527.3 L483.1,527.0 L478.8,528.9 L472.5,532.4 L471.9,534.3 L468.8,536.4 L462.6,539.9 L458.6,543.0 L456.8,545.0 L458.0,542.4 L456.1,544.8 L456.8,545.3 L455.7,547.8 L453.4,549.6 L454.3,548.3 L452.4,548.1 L451.3,544.3 L448.3,543.2 L446.6,545.3 L445.8,544.8 L446.3,540.4 L447.3,539.3 L445.3,538.0 L442.5,538.2 L438.5,536.9 L437.5,537.9 L434.1,537.3 L433.9,534.9 L435.4,531.5 L432.6,526.9 L429.5,522.8 L430.4,520.1 L428.9,516.3 L429.6,514.6 L429.3,511.9 L427.8,509.1 L424.9,507.8 L424.0,505.5 L418.6,506.1 L413.1,505.4 L410.4,505.8 L408.9,503.6 L405.1,502.5 L401.1,500.3 L397.9,500.9 L392.4,499.5 L389.3,497.8 L386.8,500.0 L374.6,498.6 Z">
  <desc xmlns="http://www.highcharts.com/svg/namespace">
    <labelrank>2</labelrank>
    <hasc>BR.SP</hasc>
    <alt-name>NULL</alt-name>
    <woe-id>2344868</woe-id>
    <subregion>NULL</subregion>
    <fips>BR32</fips>
    <postal-code>SP</postal-code>
    <name>São Paulo</name>
    <country>Brazil</country>
    <type-en>State</type-en>
    <region>NULL</region>
    <longitude>-48.5206</longitude>
    <woe-name>São Paulo</woe-name>
    <latitude>-22.2267</latitude>
    <woe-label>Sao Paulo, BR, Brazil</woe-label>
    <type>Estado</type>
    <hc-middle-x>0.43</hc-middle-x>
    <hc-middle-y>0.34</hc-middle-y>
    <hc-key>br-sp</hc-key>
    <hc-a2>SP</hc-a2>
  </desc>
</path>

<path fill="#CEE3F5" stroke="#6E6E6E" stroke-width="0.4" id="BR.MA" d="M527.6,145.9 L527.9,148.2 L526.1,150.2 L527.1,144.5 Z M575.7,145.3 L575.6,150.2 L572.7,153.8 L568.8,157.4 L564.5,158.2 L563.7,157.7 L560.5,162.2 L560.7,163.8 L559.4,166.2 L554.7,172.0 L555.4,174.7 L557.0,176.7 L555.4,179.6 L555.3,181.7 L557.0,184.7 L557.8,188.8 L557.3,191.5 L553.3,196.6 L552.3,197.1 L552.7,205.0 L554.6,207.4 L556.6,208.7 L556.4,212.8 L555.3,216.2 L554.1,217.6 L550.2,217.7 L545.5,219.1 L541.7,216.5 L535.2,217.6 L531.2,221.8 L530.3,223.7 L527.7,224.3 L522.9,228.7 L521.1,228.1 L517.3,230.3 L512.4,231.4 L509.2,233.5 L507.9,237.0 L507.2,242.1 L504.3,247.1 L502.7,251.9 L500.7,253.4 L499.7,256.0 L501.0,260.5 L501.1,263.2 L502.8,265.6 L502.0,266.9 L501.4,275.4 L499.7,278.5 L499.8,281.0 L497.3,279.0 L492.7,278.2 L490.6,275.2 L490.0,272.5 L487.2,270.4 L489.6,267.0 L489.2,266.0 L485.8,264.3 L484.5,262.5 L484.3,259.9 L482.6,258.1 L480.1,257.5 L483.3,253.8 L483.8,249.4 L485.5,246.8 L490.7,246.2 L489.9,244.7 L491.4,240.3 L491.0,238.4 L489.5,237.3 L484.2,238.2 L481.6,239.6 L479.2,236.2 L475.8,232.6 L473.2,228.8 L473.0,225.7 L470.6,226.2 L468.9,224.1 L470.7,223.5 L473.0,220.9 L473.5,215.3 L475.0,211.4 L475.7,206.9 L474.8,204.6 L475.1,200.4 L473.8,198.1 L474.1,195.3 L472.9,193.3 L469.6,191.7 L467.5,191.5 L467.1,189.7 L464.7,188.8 L461.9,189.2 L458.6,187.5 L455.8,187.9 L453.7,190.4 L451.7,190.9 L451.5,190.6 L468.4,177.4 L471.0,177.6 L472.3,176.5 L474.6,172.8 L475.9,171.7 L477.6,168.2 L481.7,163.9 L482.5,159.6 L483.9,156.0 L486.1,154.7 L488.9,150.5 L489.3,146.9 L490.6,146.1 L489.0,144.1 L493.3,140.0 L493.6,135.1 L495.6,134.0 L497.2,129.5 L497.2,127.3 L495.4,126.0 L497.4,125.0 L497.5,121.5 L499.6,116.6 L501.7,113.9 L501.1,116.4 L502.8,115.9 L505.1,117.6 L506.1,115.2 L507.3,117.8 L506.9,119.4 L509.3,117.7 L509.5,120.3 L510.7,119.5 L510.2,121.9 L513.5,118.7 L513.7,120.3 L512.4,121.4 L513.2,126.3 L515.0,125.2 L515.4,122.3 L517.4,121.2 L519.9,121.9 L521.4,120.5 L520.6,122.8 L522.6,125.6 L527.6,128.2 L527.9,131.6 L524.5,135.8 L525.6,135.9 L528.1,133.7 L529.8,134.6 L530.5,136.6 L529.9,138.3 L527.8,137.6 L527.8,139.5 L525.6,143.6 L524.6,149.3 L525.7,150.0 L522.8,152.6 L522.8,153.6 L525.3,152.2 L529.1,148.2 L530.3,141.0 L535.7,138.3 L536.1,141.1 L534.5,143.2 L530.8,145.2 L533.6,144.8 L533.3,146.8 L534.8,144.8 L535.8,145.1 L536.7,142.6 L538.3,141.0 L541.1,140.6 L540.3,139.3 L541.6,138.6 L542.7,135.9 L544.1,135.7 L543.6,137.6 L546.8,141.2 L547.5,139.4 L546.8,137.3 L549.4,137.4 L560.1,141.4 L564.7,144.9 L568.1,145.1 L568.6,146.5 L571.4,145.9 L573.9,146.6 L572.6,144.8 L571.0,145.4 L568.4,144.7 L568.6,143.7 L570.9,145.2 L571.2,143.7 Z">
  <desc xmlns="http://www.highcharts.com/svg/namespace">
    <labelrank>2</labelrank>
    <hasc>BR.MA</hasc>
    <alt-name>São Luíz de Maranhão</alt-name>
    <woe-id>2344854</woe-id>
    <subregion>NULL</subregion>
    <fips>BR13</fips>
    <postal-code>MA</postal-code>
    <name>Maranhão</name>
    <country>Brazil</country>
    <type-en>State</type-en>
    <region>NULL</region>
    <longitude>-45.389</longitude>
    <woe-name>Maranhão</woe-name>
    <latitude>-5.01897</latitude>
    <woe-label>Maranhao, BR, Brazil</woe-label>
    <type>Estado</type>
    <hc-middle-x>0.51</hc-middle-x>
    <hc-middle-y>0.42</hc-middle-y>
    <hc-key>br-ma</hc-key>
    <hc-a2>MA</hc-a2>
  </desc>
</path>

<path fill="#CEE3F5" stroke="#6E6E6E" stroke-width="0.4" id="BR.PA" d="M461.1,113.2 L459.5,111.9 L461.6,109.5 L462.2,111.3 Z M414.2,105.2 L413.9,107.6 L409.4,109.5 L409.9,106.8 Z M407.1,104.7 L408.4,106.1 L406.0,113.2 L405.1,112.8 L403.3,116.0 L397.0,120.7 L395.0,121.3 L393.9,120.2 L395.4,117.0 L399.1,113.7 L399.0,109.9 L402.0,105.6 L405.6,104.0 Z M404.4,103.0 L406.4,98.7 L408.1,97.2 L408.4,99.5 L407.5,100.9 Z M413.0,100.2 L410.4,99.0 L412.1,94.9 L415.3,93.9 L417.8,96.3 Z M438.4,93.5 L440.9,94.9 L439.2,96.9 L434.2,97.4 L432.1,96.6 L435.8,93.7 Z M421.2,94.7 L419.0,94.8 L417.7,93.5 L418.1,91.4 L421.1,92.5 Z M425.2,90.0 L427.2,90.8 L428.5,89.4 L430.5,89.5 L435.4,87.8 L437.0,87.8 L437.6,89.3 L434.7,91.1 L432.2,94.5 L429.0,95.7 L427.9,94.4 L422.9,93.9 L422.5,90.9 Z M422.9,85.3 L423.3,88.6 L421.4,91.7 L419.8,91.0 L421.8,87.2 L421.4,84.9 L422.5,83.6 Z M428.6,84.3 L428.3,85.6 L424.1,88.3 L423.7,85.2 L424.8,84.1 L427.9,83.1 Z M437.6,124.9 L435.0,126.5 L432.3,127.3 L429.0,126.0 L428.6,124.5 L426.3,126.6 L425.0,125.9 L424.8,123.8 L423.7,127.0 L421.8,127.5 L418.2,126.3 L418.5,124.9 L414.6,120.3 L414.8,114.2 L419.0,115.9 L414.8,113.0 L415.1,106.6 L417.3,99.5 L418.6,98.2 L421.7,97.7 L422.5,96.6 L427.4,97.1 L435.4,99.1 L438.8,98.7 L443.2,97.3 L449.3,97.7 L449.1,98.6 L453.9,98.7 L457.4,99.4 L458.4,101.4 L456.9,103.5 L455.4,110.8 L453.1,112.7 L453.5,114.2 L449.9,116.5 L450.8,117.7 L450.1,120.2 L448.1,118.0 L447.4,118.7 L450.0,120.6 L445.9,122.2 L444.4,119.9 L443.7,123.6 L441.8,123.8 L440.0,122.2 L440.4,124.3 L438.0,123.2 Z M499.6,116.6 L497.5,121.5 L497.4,125.0 L495.4,126.0 L497.2,127.3 L497.2,129.5 L495.6,134.0 L493.6,135.1 L493.3,140.0 L489.0,144.1 L490.6,146.1 L489.3,146.9 L488.9,150.5 L486.1,154.7 L483.9,156.0 L482.5,159.6 L481.7,163.9 L477.6,168.2 L475.9,171.7 L474.6,172.8 L472.3,176.5 L471.0,177.6 L468.4,177.4 L451.5,190.6 L451.7,190.9 L454.7,192.0 L458.1,191.8 L462.0,196.2 L459.4,197.6 L460.6,201.0 L458.6,202.1 L459.4,204.3 L456.8,205.6 L457.5,209.0 L455.5,208.8 L453.6,210.3 L452.2,214.4 L446.3,216.4 L442.9,218.6 L442.5,219.7 L443.1,224.4 L439.7,229.3 L439.4,231.0 L440.8,233.1 L443.4,234.8 L442.7,239.3 L440.6,245.1 L439.4,246.1 L436.0,252.8 L432.6,254.7 L427.2,261.8 L425.4,268.6 L423.9,271.1 L405.1,270.0 L337.7,265.8 L313.4,264.2 L309.6,262.6 L307.9,263.0 L306.7,260.8 L303.0,260.0 L302.0,256.8 L298.5,255.2 L295.2,252.2 L293.4,251.6 L291.6,245.9 L292.3,242.2 L289.7,238.9 L287.7,232.6 L284.7,227.6 L283.3,226.3 L281.8,222.2 L278.6,219.5 L277.3,214.9 L280.3,211.2 L307.6,151.8 L314.1,137.5 L314.0,135.4 L312.2,133.4 L309.7,134.5 L307.7,133.7 L307.8,131.5 L303.1,129.4 L301.6,127.2 L297.1,125.7 L291.3,123.2 L288.2,120.6 L282.2,116.9 L278.1,113.5 L277.2,110.2 L273.8,108.5 L271.6,105.9 L271.8,102.5 L269.8,101.1 L269.4,90.7 L267.6,71.2 L269.0,72.9 L271.2,73.2 L272.9,71.7 L275.8,72.0 L275.9,68.9 L278.2,68.0 L279.2,66.2 L282.5,67.5 L284.7,67.5 L285.4,65.0 L288.9,64.2 L293.0,64.1 L295.4,60.7 L297.0,59.5 L298.9,59.8 L301.3,58.5 L302.9,60.4 L306.6,61.2 L309.6,60.1 L314.5,60.2 L320.8,61.9 L322.5,61.0 L322.7,58.3 L319.0,53.0 L320.9,51.8 L321.3,49.6 L326.1,51.9 L328.2,51.2 L331.9,51.3 L333.7,49.7 L339.5,49.3 L341.3,51.0 L343.2,50.8 L344.2,54.2 L342.8,58.8 L343.9,63.0 L350.5,63.2 L354.0,65.1 L355.7,67.8 L357.0,67.5 L359.1,69.6 L363.2,69.4 L365.1,70.3 L365.4,72.5 L367.2,72.2 L366.7,74.1 L367.6,77.9 L370.4,80.8 L373.1,81.9 L372.8,87.8 L374.4,90.3 L374.8,93.7 L376.6,98.2 L378.2,98.0 L381.8,101.8 L381.7,104.7 L383.6,106.3 L383.8,110.4 L385.9,110.3 L386.7,113.9 L392.1,116.4 L394.8,115.4 L394.5,118.5 L391.9,119.9 L389.6,118.8 L384.6,121.3 L380.8,122.4 L380.4,123.4 L385.5,122.7 L388.1,121.9 L388.6,125.2 L390.9,123.7 L394.6,122.8 L399.1,119.8 L406.3,116.6 L408.2,114.5 L410.5,113.3 L410.9,111.5 L414.3,111.5 L414.1,113.7 L411.9,114.9 L414.3,116.8 L414.4,120.5 L416.7,123.6 L417.3,125.9 L414.2,129.3 L416.4,128.9 L417.2,127.0 L421.1,129.4 L421.4,131.7 L424.0,128.7 L426.2,129.1 L427.1,127.9 L429.5,127.5 L431.3,128.4 L431.6,131.4 L432.5,128.8 L435.3,129.2 L437.2,126.8 L437.4,128.1 L441.0,125.5 L442.1,126.4 L440.5,128.7 L439.0,133.9 L437.1,138.0 L437.2,139.9 L434.6,142.6 L437.5,141.9 L439.2,139.0 L439.4,137.2 L441.1,134.3 L442.9,129.7 L444.9,126.5 L447.7,123.4 L449.0,123.4 L447.6,126.8 L450.5,123.8 L453.5,119.6 L455.5,123.1 L457.5,124.3 L456.4,121.9 L459.2,121.2 L456.0,120.8 L456.4,117.8 L459.0,118.4 L459.6,116.1 L456.8,115.7 L457.5,114.1 L461.5,113.3 L462.6,110.9 L462.3,108.8 L464.4,106.6 L465.8,108.8 L465.7,106.1 L468.3,106.7 L469.9,104.5 L472.4,106.9 L472.6,105.1 L474.2,108.5 L476.3,108.6 L474.8,105.4 L481.8,106.9 L481.7,109.8 L483.9,107.5 L485.0,108.9 L486.4,107.6 L488.5,110.6 L490.3,110.4 L490.2,112.0 L492.1,110.7 L492.5,113.2 L495.3,113.1 L498.0,111.4 L497.1,115.3 L499.4,114.2 Z">
  <desc xmlns="http://www.highcharts.com/svg/namespace">
    <labelrank>2</labelrank>
    <hasc>BR.PA</hasc>
    <alt-name>NULL</alt-name>
    <woe-id>2344857</woe-id>
    <subregion>NULL</subregion>
    <fips>BR16</fips>
    <postal-code>PA</postal-code>
    <name>Pará</name>
    <country>Brazil</country>
    <type-en>State</type-en>
    <region>NULL</region>
    <longitude>-52.6491</longitude>
    <woe-name>Pará</woe-name>
    <latitude>-4.44313</latitude>
    <woe-label>Para, BR, Brazil</woe-label>
    <type>Estado</type>
    <hc-middle-x>0.39</hc-middle-x>
    <hc-middle-y>0.55</hc-middle-y>
    <hc-key>br-pa</hc-key>
    <hc-a2>PA</hc-a2>
  </desc>
</path>

<path fill="#CEE3F5" stroke="#6E6E6E" stroke-width="0.4" id="BR.SC" d="M444.0,594.4 L443.8,593.0 L444.8,589.9 L444.8,587.4 L446.2,586.8 L447.0,588.1 L446.3,590.5 Z M444.5,569.3 L442.6,567.3 L445.2,564.8 L446.1,566.0 Z M444.8,561.4 L444.7,564.6 L442.2,565.7 L441.4,562.7 L441.8,566.9 L444.1,569.6 L443.1,571.7 L442.7,574.6 L444.3,575.7 L443.6,576.8 L443.6,581.6 L445.0,581.9 L445.4,583.6 L443.5,583.7 L444.2,585.9 L442.6,588.3 L443.7,590.4 L442.5,591.3 L443.6,595.2 L441.9,601.4 L439.7,606.3 L439.6,604.2 L438.4,603.7 L438.6,606.0 L439.7,607.0 L439.1,608.5 L437.1,609.0 L430.5,613.8 L427.1,617.3 L424.4,620.7 L420.7,618.2 L418.7,619.1 L419.1,621.1 L417.3,619.7 L417.4,618.2 L419.0,616.4 L420.0,616.6 L421.0,613.9 L421.0,611.1 L423.6,608.1 L425.1,607.6 L424.3,605.4 L422.3,605.0 L417.9,605.4 L417.0,604.8 L410.7,603.2 L408.3,599.2 L406.9,598.7 L406.6,596.8 L404.7,595.2 L403.6,593.1 L401.3,592.1 L397.7,588.5 L396.2,588.5 L394.5,586.8 L392.6,587.5 L390.6,587.0 L388.8,584.0 L386.3,582.9 L385.4,583.8 L383.0,583.2 L382.0,581.9 L377.9,582.9 L375.3,580.8 L373.5,581.8 L372.3,579.7 L368.1,581.4 L368.7,580.0 L367.2,579.2 L365.1,580.1 L365.1,581.3 L362.3,580.6 L359.7,580.8 L361.8,575.6 L361.2,572.4 L361.6,566.7 L362.6,564.6 L365.8,565.1 L367.5,564.3 L371.3,566.6 L376.2,566.0 L379.0,567.2 L386.2,568.2 L389.2,570.6 L391.4,571.0 L397.3,571.1 L398.6,572.9 L401.6,571.3 L400.9,568.0 L401.5,566.6 L404.4,564.7 L407.2,565.5 L409.9,564.7 L411.4,561.9 L414.4,561.2 L416.7,561.7 L422.7,561.2 L428.3,565.1 L433.2,563.2 L436.3,561.3 Z">
  <desc xmlns="http://www.highcharts.com/svg/namespace">
    <labelrank>2</labelrank>
    <hasc>BR.SC</hasc>
    <alt-name>Santa Catharina</alt-name>
    <woe-id>2344867</woe-id>
    <subregion>NULL</subregion>
    <fips>BR26</fips>
    <postal-code>SC</postal-code>
    <name>Santa Catarina</name>
    <country>Brazil</country>
    <type-en>State</type-en>
    <region>NULL</region>
    <longitude>-51.1586</longitude>
    <woe-name>Santa Catarina</woe-name>
    <latitude>-27.0392</latitude>
    <woe-label>Santa Catarina, BR, Brazil</woe-label>
    <type>Estado</type>
    <hc-middle-x>0.73</hc-middle-x>
    <hc-middle-y>0.33</hc-middle-y>
    <hc-key>br-sc</hc-key>
    <hc-a2>SC</hc-a2>
  </desc>
</path>

<path fill="#CEE3F5" stroke="#6E6E6E" stroke-width="0.4" id="BR.BA" d="M621.3,342.2 L620.3,347.1 L620.1,344.2 L619.1,342.2 Z M593.1,425.1 L593.4,421.2 L589.0,417.0 L589.2,415.3 L587.0,413.8 L588.0,411.5 L587.9,409.2 L589.0,405.5 L590.1,404.4 L593.1,404.8 L594.2,399.1 L596.2,398.9 L597.8,396.2 L599.9,394.9 L601.4,391.2 L595.4,385.4 L591.3,384.4 L590.2,384.7 L588.0,383.1 L586.4,383.4 L583.3,382.0 L579.5,383.8 L576.6,382.4 L576.3,378.3 L569.0,370.8 L566.6,371.8 L564.0,371.9 L555.7,366.9 L554.8,367.0 L549.4,362.0 L544.7,361.0 L540.0,363.5 L536.3,362.4 L533.6,360.9 L533.4,359.1 L535.1,355.2 L534.3,354.6 L526.0,353.0 L521.7,354.6 L516.8,357.6 L515.9,359.0 L512.0,361.0 L509.9,361.3 L508.1,363.3 L505.6,364.8 L504.0,364.6 L501.1,367.9 L497.4,367.8 L494.8,369.9 L496.6,365.2 L495.9,363.1 L497.9,360.0 L497.1,357.1 L498.0,353.8 L494.5,350.7 L492.4,344.9 L492.3,341.1 L493.9,336.6 L495.5,335.7 L495.8,333.9 L494.2,333.2 L494.8,329.8 L496.0,327.9 L493.4,325.6 L494.8,322.2 L494.9,320.4 L492.2,318.9 L491.9,313.5 L494.2,311.3 L496.7,310.0 L495.3,308.3 L493.7,308.4 L493.8,306.3 L496.3,305.3 L496.7,304.1 L494.8,303.1 L490.7,302.1 L488.3,298.8 L490.2,296.3 L492.0,292.6 L494.4,291.1 L493.2,288.8 L497.1,285.8 L501.2,283.8 L503.1,281.4 L505.8,281.4 L508.1,284.3 L508.6,286.7 L510.7,289.7 L515.4,291.9 L520.0,291.3 L520.6,290.0 L524.5,287.4 L526.6,286.7 L530.2,287.5 L531.9,286.9 L534.3,284.5 L535.7,284.1 L539.6,277.1 L540.1,272.8 L539.4,271.8 L538.0,266.0 L540.1,266.3 L541.7,264.4 L544.5,263.9 L545.7,265.9 L549.2,266.1 L550.2,265.3 L553.7,267.1 L555.0,268.7 L556.8,268.2 L559.2,269.1 L559.9,267.7 L561.5,268.0 L564.8,264.6 L567.6,264.5 L569.6,262.9 L573.0,263.9 L575.1,261.8 L575.2,259.0 L579.4,258.3 L581.8,254.3 L585.6,254.3 L590.3,257.2 L590.1,260.5 L590.7,262.6 L593.3,263.9 L593.5,266.3 L592.2,268.2 L594.6,268.9 L598.5,266.7 L599.9,266.7 L601.1,262.2 L603.9,262.2 L607.8,260.0 L607.9,257.4 L611.6,256.6 L611.7,254.3 L616.9,252.2 L618.9,252.8 L620.1,255.0 L623.4,256.2 L624.5,257.3 L626.5,257.0 L629.1,258.4 L629.9,260.8 L632.3,258.1 L632.5,260.5 L634.2,262.2 L635.8,261.4 L637.1,267.8 L637.7,269.4 L640.9,270.7 L641.1,271.7 L640.2,273.1 L641.4,278.1 L644.5,282.1 L644.2,286.3 L643.2,288.4 L643.9,292.3 L640.5,294.4 L636.6,293.5 L635.7,296.9 L637.8,299.4 L638.5,302.0 L639.8,303.4 L639.3,305.6 L642.0,307.3 L642.8,308.9 L645.2,309.7 L648.3,309.1 L650.4,308.4 L649.1,310.1 L644.7,318.8 L637.1,329.3 L632.1,334.5 L628.7,335.9 L629.3,334.0 L629.0,330.4 L627.0,329.9 L625.4,328.3 L624.2,331.6 L622.7,332.3 L625.8,332.9 L627.3,335.1 L620.6,339.9 L620.5,341.9 L619.0,341.7 L619.9,347.4 L619.5,350.4 L617.3,348.2 L619.0,351.2 L617.9,352.1 L619.1,353.4 L620.3,351.6 L620.3,353.6 L618.9,357.3 L618.9,359.2 L617.0,365.8 L617.6,368.4 L617.5,376.1 L618.2,385.1 L619.1,387.5 L615.0,398.2 L613.1,404.8 L613.2,406.6 L611.3,411.4 L611.2,419.5 L611.8,421.0 L609.2,424.2 L605.2,426.5 L602.8,429.8 L601.8,432.1 L593.5,425.7 Z">
  <desc xmlns="http://www.highcharts.com/svg/namespace">
    <labelrank>2</labelrank>
    <hasc>BR.BA</hasc>
    <alt-name>Ba¡a</alt-name>
    <woe-id>2344848</woe-id>
    <subregion>NULL</subregion>
    <fips>BR05</fips>
    <postal-code>BA</postal-code>
    <name>Bahia</name>
    <country>Brazil</country>
    <type-en>State</type-en>
    <region>NULL</region>
    <longitude>-41.8027</longitude>
    <woe-name>Bahia</woe-name>
    <latitude>-12.3651</latitude>
    <woe-label>Bahia, BR, Brazil</woe-label>
    <type>Estado</type>
    <hc-middle-x>0.56</hc-middle-x>
    <hc-middle-y>0.35</hc-middle-y>
    <hc-key>br-ba</hc-key>
    <hc-a2>BA</hc-a2>
  </desc>
</path>

<path fill="#CEE3F5" stroke="#6E6E6E" stroke-width="0.4" id="BR.AP" d="M427.8,78.0 L427.3,77.5 L430.4,75.6 L427.3,81.2 L424.2,81.4 L425.1,79.3 Z M420.8,56.7 L420.7,55.6 L423.5,59.8 L420.8,61.0 L419.7,58.9 Z M394.8,115.4 L392.1,116.4 L386.7,113.9 L385.9,110.3 L383.8,110.4 L383.6,106.3 L381.7,104.7 L381.8,101.8 L378.2,98.0 L376.6,98.2 L374.8,93.7 L374.4,90.3 L372.8,87.8 L373.1,81.9 L370.4,80.8 L367.6,77.9 L366.7,74.1 L367.2,72.2 L365.4,72.5 L365.1,70.3 L363.2,69.4 L359.1,69.6 L357.0,67.5 L355.7,67.8 L354.0,65.1 L350.5,63.2 L343.9,63.0 L342.8,58.8 L344.2,54.2 L343.2,50.8 L344.5,51.0 L344.5,53.2 L347.0,53.3 L348.5,55.1 L354.7,57.0 L360.2,53.4 L365.5,54.6 L368.9,52.7 L370.9,54.5 L375.8,55.8 L377.3,54.3 L380.4,52.5 L383.1,48.7 L382.8,47.5 L386.7,40.0 L386.6,38.7 L389.0,36.4 L392.8,30.0 L393.3,28.5 L396.0,25.5 L396.9,23.5 L399.6,21.9 L400.3,19.3 L402.0,21.3 L400.9,16.8 L401.7,15.3 L404.0,16.7 L406.9,20.2 L407.8,22.7 L407.8,29.4 L408.9,24.8 L409.6,25.2 L409.4,34.3 L412.1,44.2 L412.8,44.7 L415.7,52.1 L416.9,55.8 L420.7,62.2 L425.8,62.1 L429.0,63.3 L430.7,64.9 L431.4,70.4 L430.7,71.9 L426.6,73.3 L430.5,72.9 L431.1,73.8 L426.0,78.3 L423.5,80.1 L420.7,83.2 L418.2,88.0 L414.9,91.7 L412.4,92.0 L409.9,95.1 L405.4,96.4 L406.6,97.0 L405.3,98.6 L403.1,103.2 L398.6,108.1 L398.1,113.3 Z">
  <desc xmlns="http://www.highcharts.com/svg/namespace">
    <labelrank>2</labelrank>
    <hasc>BR.AP</hasc>
    <alt-name>NULL</alt-name>
    <woe-id>2344846</woe-id>
    <subregion>NULL</subregion>
    <fips>BR03</fips>
    <postal-code>AP</postal-code>
    <name>Amapá</name>
    <country>Brazil</country>
    <type-en>State</type-en>
    <region>NULL</region>
    <longitude>-51.6842</longitude>
    <woe-name>Amapá</woe-name>
    <latitude>1.41157</latitude>
    <woe-label>Amapa, BR, Brazil</woe-label>
    <type>Estado</type>
    <hc-middle-x>0.61</hc-middle-x>
    <hc-middle-y>0.58</hc-middle-y>
    <hc-key>br-ap</hc-key>
    <hc-a2>AP</hc-a2>
  </desc>
</path>

<path fill="#CEE3F5" stroke="#6E6E6E" stroke-width="0.4" id="BR.MS" d="M355.8,523.2 L353.1,525.0 L350.2,522.6 L346.6,520.6 L341.6,523.6 L337.4,524.5 L334.1,523.8 L333.3,519.5 L331.9,517.1 L332.1,513.1 L331.7,510.4 L330.0,506.4 L329.6,503.1 L330.0,499.7 L328.2,498.1 L327.8,495.5 L325.9,494.2 L320.5,493.6 L318.5,492.3 L316.7,489.9 L315.2,490.3 L312.7,493.3 L311.9,492.5 L309.8,493.9 L303.5,492.2 L300.7,492.7 L296.9,492.2 L296.1,490.9 L293.0,491.7 L290.6,489.8 L291.5,487.4 L291.0,486.5 L291.9,483.5 L291.2,482.4 L291.3,479.3 L292.4,477.1 L292.4,471.8 L292.9,470.3 L291.3,469.5 L292.2,468.5 L290.8,467.5 L292.2,466.5 L290.1,465.7 L289.8,461.0 L288.2,460.1 L286.8,456.3 L291.8,452.9 L287.2,448.5 L292.6,436.3 L293.9,436.0 L292.7,433.7 L296.4,420.6 L293.2,414.6 L293.2,412.6 L295.4,414.0 L298.5,414.8 L303.4,413.3 L306.0,410.9 L306.2,409.5 L308.1,407.8 L309.7,404.8 L317.1,404.1 L318.4,402.9 L321.0,402.3 L326.4,405.2 L329.5,405.9 L330.7,407.9 L336.9,411.1 L341.7,410.4 L345.1,408.1 L348.1,408.0 L349.9,409.2 L350.4,410.8 L354.7,410.0 L358.0,407.0 L360.2,404.3 L362.6,403.4 L361.4,410.3 L359.5,411.1 L357.3,414.9 L361.8,416.8 L369.0,416.7 L373.3,417.0 L373.2,422.0 L374.4,423.7 L375.8,422.9 L377.9,423.8 L376.0,428.2 L376.4,428.9 L380.7,429.7 L382.8,429.4 L385.4,431.4 L386.6,431.4 L390.2,433.8 L397.2,437.2 L401.2,437.9 L402.8,439.5 L405.8,440.1 L408.7,443.5 L407.5,448.5 L408.0,454.8 L405.5,458.2 L402.3,459.3 L397.2,465.3 L397.0,468.5 L392.8,473.7 L392.9,476.8 L388.8,480.4 L389.9,482.5 L388.0,483.8 L385.3,487.4 L384.3,490.2 L381.8,492.4 L379.2,493.6 L376.4,495.9 L374.3,496.6 L370.9,500.9 L365.8,503.2 L363.8,504.8 L363.1,508.1 L361.7,511.5 L358.0,513.8 L356.0,520.8 Z">
  <desc xmlns="http://www.highcharts.com/svg/namespace">
    <labelrank>2</labelrank>
    <hasc>BR.MS</hasc>
    <alt-name>NULL</alt-name>
    <woe-id>2344853</woe-id>
    <subregion>NULL</subregion>
    <fips>BR11</fips>
    <postal-code>MS</postal-code>
    <name>Mato Grosso do Sul</name>
    <country>Brazil</country>
    <type-en>State</type-en>
    <region>NULL</region>
    <longitude>-54.5502</longitude>
    <woe-name>Mato Grosso do Sul</woe-name>
    <latitude>-20.6756</latitude>
    <woe-label>Mato Grosso do Sul, BR, Brazil</woe-label>
    <type>Estado</type>
    <hc-middle-x>0.46</hc-middle-x>
    <hc-middle-y>0.47</hc-middle-y>
    <hc-key>br-ms</hc-key>
    <hc-a2>MS</hc-a2>
  </desc>
</path>

<path fill="#CEE3F5" stroke="#6E6E6E" stroke-width="0.4" id="BR.MG" d="M408.0,454.8 L407.5,448.5 L408.7,443.5 L410.3,443.7 L410.8,440.3 L414.0,437.1 L415.9,437.1 L416.7,433.9 L419.8,430.1 L425.5,428.4 L428.8,428.7 L434.1,426.6 L436.3,428.9 L440.3,425.1 L443.4,423.7 L455.9,424.7 L457.4,425.6 L461.3,426.5 L465.6,424.3 L467.4,422.3 L472.2,419.8 L471.1,416.6 L472.6,412.8 L472.3,410.6 L468.2,408.8 L468.8,406.6 L475.0,400.4 L473.2,394.7 L470.1,391.5 L472.0,388.2 L473.0,383.5 L473.0,383.5 L473.0,383.5 L473.0,383.5 L473.0,383.5 L474.3,383.4 L476.1,381.4 L476.9,381.8 L481.3,380.2 L480.8,375.6 L479.7,372.7 L481.2,370.8 L479.9,369.1 L480.7,365.9 L483.4,365.4 L485.1,366.4 L486.7,365.9 L486.2,361.5 L487.4,360.0 L489.6,361.2 L491.1,363.7 L494.9,364.1 L495.9,363.1 L496.6,365.2 L494.8,369.9 L497.4,367.8 L501.1,367.9 L504.0,364.6 L505.6,364.8 L508.1,363.3 L509.9,361.3 L512.0,361.0 L515.9,359.0 L516.8,357.6 L521.7,354.6 L526.0,353.0 L534.3,354.6 L535.1,355.2 L533.4,359.1 L533.6,360.9 L536.3,362.4 L540.0,363.5 L544.7,361.0 L549.4,362.0 L554.8,367.0 L555.7,366.9 L564.0,371.9 L566.6,371.8 L569.0,370.8 L576.3,378.3 L576.6,382.4 L579.5,383.8 L583.3,382.0 L586.4,383.4 L588.0,383.1 L590.2,384.7 L591.3,384.4 L595.4,385.4 L601.4,391.2 L599.9,394.9 L597.8,396.2 L596.2,398.9 L594.2,399.1 L593.1,404.8 L590.1,404.4 L589.0,405.5 L587.9,409.2 L588.0,411.5 L587.0,413.8 L589.2,415.3 L589.0,417.0 L593.4,421.2 L593.1,425.1 L589.5,423.2 L585.3,424.1 L581.1,424.1 L583.2,426.5 L580.9,426.5 L578.3,427.7 L576.7,429.7 L578.9,432.7 L578.2,436.1 L579.9,437.2 L579.7,439.3 L574.4,439.8 L576.6,440.6 L577.3,443.3 L579.0,445.5 L579.1,448.2 L578.3,451.4 L574.7,454.6 L573.9,458.3 L571.8,459.8 L570.4,463.9 L569.7,464.4 L564.5,463.9 L562.0,466.6 L562.9,467.8 L562.3,471.8 L561.3,474.1 L559.4,476.3 L557.2,476.4 L554.5,483.8 L553.2,485.0 L551.6,489.0 L553.0,490.6 L540.0,495.3 L534.9,494.5 L532.9,495.4 L527.0,495.1 L522.2,496.8 L520.1,498.0 L516.3,497.9 L512.5,499.7 L509.7,500.2 L505.9,501.1 L499.8,504.0 L497.8,503.9 L495.9,502.7 L493.2,504.6 L494.1,506.4 L492.2,507.4 L491.4,506.7 L487.4,507.7 L483.9,506.7 L483.8,504.9 L482.2,503.7 L483.7,501.0 L479.6,498.6 L478.7,497.0 L480.5,493.7 L478.9,492.4 L480.3,491.0 L479.7,487.8 L482.8,482.8 L482.6,481.6 L477.6,479.6 L474.4,480.2 L473.7,476.5 L472.6,475.2 L472.3,472.5 L471.1,471.3 L471.4,469.3 L473.2,466.3 L472.6,464.3 L470.3,462.4 L471.4,458.5 L468.1,455.3 L467.6,453.9 L464.5,455.0 L463.5,454.0 L460.7,454.5 L459.8,456.4 L458.8,454.8 L457.3,457.0 L454.8,456.2 L444.3,456.8 L443.5,458.5 L443.7,461.1 L442.0,460.9 L442.1,457.9 L440.9,456.3 L439.0,459.0 L437.9,458.9 L436.7,456.6 L437.1,453.0 L435.2,453.2 L432.5,452.2 L426.8,452.1 L419.1,450.8 L417.7,449.4 L415.4,449.6 L413.7,451.5 L410.1,452.9 Z">
  <desc xmlns="http://www.highcharts.com/svg/namespace">
    <labelrank>2</labelrank>
    <hasc>BR.MG</hasc>
    <alt-name>Minas|Minas Geraes</alt-name>
    <woe-id>2344856</woe-id>
    <subregion>NULL</subregion>
    <fips>BR15</fips>
    <postal-code>MG</postal-code>
    <name>Minas Gerais</name>
    <country>Brazil</country>
    <type-en>State</type-en>
    <region>NULL</region>
    <longitude>-44.4808</longitude>
    <woe-name>Minas Gerais</woe-name>
    <latitude>-18.5895</latitude>
    <woe-label>Minas Gerais, BR, Brazil</woe-label>
    <type>Estado</type>
    <hc-middle-x>0.60</hc-middle-x>
    <hc-middle-y>0.45</hc-middle-y>
    <hc-key>br-mg</hc-key>
    <hc-a2>MG</hc-a2>
  </desc>
</path>

<path fill="#CEE3F5" stroke="#6E6E6E" stroke-width="0.4" id="BR.GO" d="M472.0,388.2 L470.1,391.5 L473.2,394.7 L475.0,400.4 L468.8,406.6 L468.2,408.8 L472.3,410.6 L472.6,412.8 L471.1,416.6 L472.2,419.8 L467.4,422.3 L465.6,424.3 L461.3,426.5 L457.4,425.6 L455.9,424.7 L443.4,423.7 L440.3,425.1 L436.3,428.9 L434.1,426.6 L428.8,428.7 L425.5,428.4 L419.8,430.1 L416.7,433.9 L415.9,437.1 L414.0,437.1 L410.8,440.3 L410.3,443.7 L408.7,443.5 L405.8,440.1 L402.8,439.5 L401.2,437.9 L397.2,437.2 L390.2,433.8 L386.6,431.4 L385.4,431.4 L382.8,429.4 L380.7,429.7 L376.4,428.9 L376.0,428.2 L377.9,423.8 L375.8,422.9 L374.4,423.7 L373.2,422.0 L373.3,417.0 L370.1,408.9 L370.8,403.9 L373.5,399.9 L374.0,396.5 L377.7,394.3 L380.7,390.4 L381.0,388.6 L380.1,386.2 L382.4,385.0 L382.4,384.0 L386.0,381.7 L387.4,379.5 L393.8,377.6 L397.4,370.0 L397.8,367.0 L400.3,364.4 L403.7,362.5 L406.2,362.9 L407.6,361.3 L409.9,354.7 L409.5,352.6 L410.8,347.6 L412.0,347.3 L412.0,340.3 L413.2,339.7 L413.9,337.3 L415.6,335.2 L417.2,331.7 L417.0,329.0 L418.6,326.8 L418.8,324.9 L419.5,322.3 L421.2,319.5 L424.8,317.0 L425.0,318.4 L422.5,323.9 L423.1,326.5 L432.8,331.0 L438.0,332.4 L439.6,328.0 L442.5,323.3 L444.6,321.9 L445.0,323.6 L448.0,325.9 L448.9,329.9 L448.7,334.5 L450.2,334.2 L450.8,331.4 L455.9,331.7 L459.8,329.7 L459.3,331.6 L467.8,335.0 L467.2,331.3 L468.6,330.7 L470.3,334.0 L478.2,330.6 L482.9,330.2 L486.1,327.7 L493.4,325.6 L496.0,327.9 L494.8,329.8 L494.2,333.2 L495.8,333.9 L495.5,335.7 L493.9,336.6 L492.3,341.1 L492.4,344.9 L494.5,350.7 L498.0,353.8 L497.1,357.1 L497.9,360.0 L495.9,363.1 L494.9,364.1 L491.1,363.7 L489.6,361.2 L487.4,360.0 L486.2,361.5 L486.7,365.9 L485.1,366.4 L483.4,365.4 L480.7,365.9 L479.9,369.1 L481.2,370.8 L479.7,372.7 L480.8,375.6 L481.3,380.2 L476.9,381.8 L476.1,381.4 L474.3,383.4 L473.0,383.5 L472.1,382.4 L473.2,375.4 L471.2,373.7 L458.1,373.1 L457.0,376.7 L457.6,377.5 L456.2,379.4 L457.8,383.0 L473.0,383.5 L473.0,383.5 L473.0,383.5 Z">
  <desc xmlns="http://www.highcharts.com/svg/namespace">
    <labelrank>2</labelrank>
    <hasc>BR.GO</hasc>
    <alt-name>Goiáz|Goyáz</alt-name>
    <woe-id>2344852</woe-id>
    <subregion>NULL</subregion>
    <fips>BR29</fips>
    <postal-code>GO</postal-code>
    <name>Goiás</name>
    <country>Brazil</country>
    <type-en>State</type-en>
    <region>NULL</region>
    <longitude>-49.5786</longitude>
    <woe-name>Goiás</woe-name>
    <latitude>-15.863</latitude>
    <woe-label>Goias, BR, Brazil</woe-label>
    <type>Estado</type>
    <hc-middle-x>0.51</hc-middle-x>
    <hc-middle-y>0.54</hc-middle-y>
    <hc-key>br-go</hc-key>
    <hc-a2>GO</hc-a2>
  </desc>
</path>

<path fill="#CEE3F5" stroke="#6E6E6E" stroke-width="0.4" id="BR.RS" d="M424.4,620.7 L422.8,622.8 L418.9,629.3 L414.3,640.8 L407.7,651.1 L400.9,658.7 L394.4,663.9 L389.8,666.6 L386.3,670.4 L387.5,666.9 L386.4,665.2 L387.0,664.3 L388.9,665.4 L392.3,664.1 L396.8,659.3 L399.5,658.4 L400.5,656.5 L401.0,651.3 L403.3,651.4 L404.2,648.8 L407.7,646.5 L408.6,643.9 L408.6,638.7 L409.8,641.1 L411.0,638.2 L410.0,635.9 L408.9,637.5 L405.4,637.8 L405.0,640.1 L403.2,638.9 L403.6,637.2 L400.2,635.3 L399.5,632.2 L398.7,636.1 L400.8,638.6 L399.1,643.3 L397.7,643.9 L397.9,647.8 L396.5,648.0 L396.0,650.2 L396.6,651.4 L393.8,652.3 L393.5,654.5 L389.1,655.3 L387.8,657.5 L387.7,661.4 L387.2,660.0 L386.3,662.2 L384.6,662.8 L384.1,665.5 L385.4,666.1 L384.1,667.1 L384.4,669.2 L386.4,668.3 L386.2,670.7 L383.7,672.7 L381.8,676.6 L380.3,682.0 L377.9,687.4 L374.9,691.3 L368.1,697.6 L366.4,698.7 L364.0,697.0 L365.5,694.8 L365.2,689.6 L367.4,686.5 L368.3,687.1 L369.8,684.7 L370.4,681.8 L372.3,682.3 L374.1,684.1 L376.3,683.0 L378.5,678.0 L378.5,676.4 L376.7,673.5 L377.6,670.8 L376.5,671.1 L375.0,673.8 L375.7,674.5 L372.5,676.4 L372.2,677.9 L369.7,679.3 L366.0,677.6 L362.5,673.5 L362.1,671.5 L360.6,668.3 L356.1,665.3 L355.1,665.8 L350.0,661.6 L349.7,660.0 L348.0,658.0 L344.5,657.4 L341.3,654.4 L340.4,655.5 L337.7,653.7 L336.2,650.7 L332.5,647.0 L328.4,651.1 L326.1,651.3 L326.0,646.2 L322.4,642.1 L320.3,640.7 L316.2,636.5 L313.0,634.0 L309.2,634.1 L307.1,637.5 L302.1,637.4 L300.9,635.8 L302.5,635.0 L305.2,632.0 L305.7,629.0 L308.7,627.8 L315.1,619.8 L315.9,617.0 L319.1,615.0 L319.4,613.2 L320.8,611.9 L321.0,610.1 L322.6,609.4 L325.1,606.5 L325.3,604.9 L327.1,604.2 L327.9,602.2 L330.1,603.3 L330.7,601.8 L329.0,600.1 L331.6,598.0 L334.2,597.3 L336.2,594.3 L338.4,593.2 L340.8,593.0 L339.9,591.9 L342.6,591.1 L342.8,589.1 L348.6,586.6 L351.6,584.9 L352.5,585.5 L354.3,582.2 L355.7,582.9 L357.7,580.6 L359.7,580.8 L362.3,580.6 L365.1,581.3 L365.1,580.1 L367.2,579.2 L368.7,580.0 L368.1,581.4 L372.3,579.7 L373.5,581.8 L375.3,580.8 L377.9,582.9 L382.0,581.9 L383.0,583.2 L385.4,583.8 L386.3,582.9 L388.8,584.0 L390.6,587.0 L392.6,587.5 L394.5,586.8 L396.2,588.5 L397.7,588.5 L401.3,592.1 L403.6,593.1 L404.7,595.2 L406.6,596.8 L406.9,598.7 L408.3,599.2 L410.7,603.2 L417.0,604.8 L417.9,605.4 L422.3,605.0 L424.3,605.4 L425.1,607.6 L423.6,608.1 L421.0,611.1 L421.0,613.9 L420.0,616.6 L419.0,616.4 L417.4,618.2 L417.3,619.7 L419.1,621.1 L418.7,619.1 L420.7,618.2 Z">
  <desc xmlns="http://www.highcharts.com/svg/namespace">
    <labelrank>2</labelrank>
    <hasc>BR.RS</hasc>
    <alt-name>NULL</alt-name>
    <woe-id>2344864</woe-id>
    <subregion>NULL</subregion>
    <fips>BR23</fips>
    <postal-code>RS</postal-code>
    <name>Rio Grande do Sul</name>
    <country>Brazil</country>
    <type-en>State</type-en>
    <region>NULL</region>
    <longitude>-53.656</longitude>
    <woe-name>Rio Grande do Sul</woe-name>
    <latitude>-29.7277</latitude>
    <woe-label>Rio Grande do Sul, BR, Brazil</woe-label>
    <type>Estado</type>
    <hc-middle-x>0.52</hc-middle-x>
    <hc-middle-y>0.36</hc-middle-y>
    <hc-key>br-rs</hc-key>
    <hc-a2>RS</hc-a2>
  </desc>
</path>

<path fill="#CEE3F5" stroke="#6E6E6E" stroke-width="0.4" id="BR.TO" d="M499.8,281.0 L501.9,281.3 L503.1,281.4 L501.2,283.8 L497.1,285.8 L493.2,288.8 L494.4,291.1 L492.0,292.6 L490.2,296.3 L488.3,298.8 L490.7,302.1 L494.8,303.1 L496.7,304.1 L496.3,305.3 L493.8,306.3 L493.7,308.4 L495.3,308.3 L496.7,310.0 L494.2,311.3 L491.9,313.5 L492.2,318.9 L494.9,320.4 L494.8,322.2 L493.4,325.6 L486.1,327.7 L482.9,330.2 L478.2,330.6 L470.3,334.0 L468.6,330.7 L467.2,331.3 L467.8,335.0 L459.3,331.6 L459.8,329.7 L455.9,331.7 L450.8,331.4 L450.2,334.2 L448.7,334.5 L448.9,329.9 L448.0,325.9 L445.0,323.6 L444.6,321.9 L442.5,323.3 L439.6,328.0 L438.0,332.4 L432.8,331.0 L423.1,326.5 L422.5,323.9 L425.0,318.4 L424.8,317.0 L421.2,319.5 L419.5,322.3 L418.8,324.9 L416.9,324.2 L415.7,321.0 L416.7,317.4 L415.7,313.1 L415.5,309.7 L416.1,307.5 L415.2,304.5 L416.2,302.7 L414.6,300.7 L417.0,292.3 L416.6,290.6 L417.3,285.6 L418.7,283.9 L420.4,280.0 L421.3,275.8 L422.6,274.3 L423.9,271.1 L425.4,268.6 L427.2,261.8 L432.6,254.7 L436.0,252.8 L439.4,246.1 L440.6,245.1 L442.7,239.3 L443.4,234.8 L440.8,233.1 L439.4,231.0 L439.7,229.3 L443.1,224.4 L442.5,219.7 L442.9,218.6 L446.3,216.4 L452.2,214.4 L453.6,210.3 L455.5,208.8 L457.5,209.0 L456.8,205.6 L459.4,204.3 L458.6,202.1 L460.6,201.0 L459.4,197.6 L462.0,196.2 L458.1,191.8 L454.7,192.0 L451.7,190.9 L453.7,190.4 L455.8,187.9 L458.6,187.5 L461.9,189.2 L464.7,188.8 L467.1,189.7 L467.5,191.5 L469.6,191.7 L472.9,193.3 L474.1,195.3 L473.8,198.1 L475.1,200.4 L474.8,204.6 L475.7,206.9 L475.0,211.4 L473.5,215.3 L473.0,220.9 L470.7,223.5 L468.9,224.1 L470.6,226.2 L473.0,225.7 L473.2,228.8 L475.8,232.6 L479.2,236.2 L481.6,239.6 L484.2,238.2 L489.5,237.3 L491.0,238.4 L491.4,240.3 L489.9,244.7 L490.7,246.2 L485.5,246.8 L483.8,249.4 L483.3,253.8 L480.1,257.5 L482.6,258.1 L484.3,259.9 L484.5,262.5 L485.8,264.3 L489.2,266.0 L489.6,267.0 L487.2,270.4 L490.0,272.5 L490.6,275.2 L492.7,278.2 L497.3,279.0 Z">
  <desc xmlns="http://www.highcharts.com/svg/namespace">
    <labelrank>2</labelrank>
    <hasc>BR.TO</hasc>
    <alt-name>NULL</alt-name>
    <woe-id>2344870</woe-id>
    <subregion>NULL</subregion>
    <fips>BR31</fips>
    <postal-code>TO</postal-code>
    <name>Tocantins</name>
    <country>Brazil</country>
    <type-en>State</type-en>
    <region>NULL</region>
    <longitude>-48.2502</longitude>
    <woe-name>Tocantins</woe-name>
    <latitude>-10.223</latitude>
    <woe-label>Tocantins, BR, Brazil</woe-label>
    <type>Estado</type>
    <hc-middle-x>0.47</hc-middle-x>
    <hc-middle-y>0.58</hc-middle-y>
    <hc-key>br-to</hc-key>
    <hc-a2>TO</hc-a2>
  </desc>
</path>

<path fill="#CEE3F5" stroke="#6E6E6E" stroke-width="0.4" id="BR.PI" d="M503.1,281.4 L501.9,281.3 L499.8,281.0 L499.7,278.5 L501.4,275.4 L502.0,266.9 L502.8,265.6 L501.1,263.2 L501.0,260.5 L499.7,256.0 L500.7,253.4 L502.7,251.9 L504.3,247.1 L507.2,242.1 L507.9,237.0 L509.2,233.5 L512.4,231.4 L517.3,230.3 L521.1,228.1 L522.9,228.7 L527.7,224.3 L530.3,223.7 L531.2,221.8 L535.2,217.6 L541.7,216.5 L545.5,219.1 L550.2,217.7 L554.1,217.6 L555.3,216.2 L556.4,212.8 L556.6,208.7 L554.6,207.4 L552.7,205.0 L552.3,197.1 L553.3,196.6 L557.3,191.5 L557.8,188.8 L557.0,184.7 L555.3,181.7 L555.4,179.6 L557.0,176.7 L555.4,174.7 L554.7,172.0 L559.4,166.2 L560.7,163.8 L560.5,162.2 L563.7,157.7 L564.5,158.2 L568.8,157.4 L572.7,153.8 L575.6,150.2 L575.7,145.3 L576.3,144.9 L578.7,147.4 L584.7,148.2 L586.3,149.9 L586.2,151.1 L583.1,155.5 L582.6,157.7 L584.3,162.7 L585.5,164.5 L586.4,168.8 L588.3,171.3 L589.1,174.1 L586.2,177.9 L586.9,184.8 L589.1,189.5 L588.9,192.0 L591.0,194.1 L591.8,205.0 L593.2,209.5 L593.7,213.9 L594.7,217.0 L598.8,218.5 L599.9,219.9 L596.7,226.9 L597.4,230.5 L594.7,231.2 L595.8,235.0 L595.0,237.2 L597.0,238.6 L596.9,242.2 L596.0,244.0 L593.2,246.1 L589.9,249.4 L588.3,249.1 L584.7,253.0 L581.8,254.3 L579.4,258.3 L575.2,259.0 L575.1,261.8 L573.0,263.9 L569.6,262.9 L567.6,264.5 L564.8,264.6 L561.5,268.0 L559.9,267.7 L559.2,269.1 L556.8,268.2 L555.0,268.7 L553.7,267.1 L550.2,265.3 L549.2,266.1 L545.7,265.9 L544.5,263.9 L541.7,264.4 L540.1,266.3 L538.0,266.0 L539.4,271.8 L540.1,272.8 L539.6,277.1 L535.7,284.1 L534.3,284.5 L531.9,286.9 L530.2,287.5 L526.6,286.7 L524.5,287.4 L520.6,290.0 L520.0,291.3 L515.4,291.9 L510.7,289.7 L508.6,286.7 L508.1,284.3 L505.8,281.4 Z">
  <desc xmlns="http://www.highcharts.com/svg/namespace">
    <labelrank>2</labelrank>
    <hasc>BR.PI</hasc>
    <alt-name>Piauhy</alt-name>
    <woe-id>2344861</woe-id>
    <subregion>NULL</subregion>
    <fips>BR20</fips>
    <postal-code>PI</postal-code>
    <name>Piauí</name>
    <country>Brazil</country>
    <type-en>State</type-en>
    <region>NULL</region>
    <longitude>-43.1974</longitude>
    <woe-name>Piauí</woe-name>
    <latitude>-8.086980000000001</latitude>
    <woe-label>Piaui, BR, Brazil</woe-label>
    <type>Estado</type>
    <hc-middle-x>0.51</hc-middle-x>
    <hc-middle-y>0.66</hc-middle-y>
    <hc-key>br-pi</hc-key>
    <hc-a2>PI</hc-a2>
  </desc>
</path>

<path fill="#CEE3F5" stroke="#6E6E6E" stroke-width="0.4" id="BR.AL" d="M692.2,262.7 L689.2,267.8 L686.3,270.5 L681.8,276.4 L680.0,274.7 L679.8,277.4 L675.4,283.4 L671.4,286.7 L668.4,291.2 L667.5,289.4 L665.6,289.4 L664.8,286.4 L663.6,286.7 L661.3,285.5 L659.4,283.3 L659.4,281.6 L654.7,279.2 L653.3,277.4 L648.6,275.7 L641.1,271.7 L640.9,270.7 L637.7,269.4 L637.1,267.8 L639.8,265.2 L642.0,264.5 L644.8,261.6 L646.1,259.5 L647.2,261.7 L650.1,261.2 L655.8,267.0 L660.1,269.4 L662.0,267.7 L666.5,268.5 L670.7,267.0 L674.9,263.7 L676.9,261.5 L680.7,261.3 L682.1,262.3 L686.6,260.9 L687.9,261.9 Z">
  <desc xmlns="http://www.highcharts.com/svg/namespace">
    <labelrank>2</labelrank>
    <hasc>BR.AL</hasc>
    <alt-name>NULL</alt-name>
    <woe-id>2344845</woe-id>
    <subregion>NULL</subregion>
    <fips>BR02</fips>
    <postal-code>AL</postal-code>
    <name>Alagoas</name>
    <country>Brazil</country>
    <type-en>State</type-en>
    <region>NULL</region>
    <longitude>-36.6917</longitude>
    <woe-name>Alagoas</woe-name>
    <latitude>-9.773910000000001</latitude>
    <woe-label>Alagoas, BR, Brazil</woe-label>
    <type>Estado</type>
    <hc-middle-x>0.62</hc-middle-x>
    <hc-middle-y>0.61</hc-middle-y>
    <hc-key>br-al</hc-key>
    <hc-a2>AL</hc-a2>
  </desc>
</path>

<path fill="#CEE3F5" stroke="#6E6E6E" stroke-width="0.4" id="BR.PB" d="M697.5,217.4 L697.3,219.6 L698.3,224.7 L699.1,225.3 L697.9,229.3 L699.4,226.7 L700.0,229.9 L699.4,237.1 L698.0,237.1 L695.0,234.4 L691.4,233.7 L689.5,235.1 L687.3,235.0 L686.1,238.6 L680.7,240.4 L680.4,241.3 L670.5,241.2 L670.0,242.8 L667.8,243.0 L666.1,244.5 L666.6,245.9 L663.8,248.4 L660.5,249.4 L657.7,247.0 L657.4,243.5 L654.0,243.8 L657.3,239.5 L656.9,235.9 L660.2,234.8 L660.2,232.9 L656.1,230.3 L652.8,231.6 L650.6,233.9 L647.8,235.1 L642.8,239.1 L639.7,239.0 L637.8,240.4 L636.2,237.5 L633.1,238.7 L630.1,235.8 L633.3,229.9 L630.8,227.3 L630.0,222.3 L632.0,219.9 L631.5,218.7 L633.9,213.0 L638.2,215.4 L640.9,215.8 L642.3,214.4 L646.1,212.6 L647.7,209.6 L656.7,207.1 L658.2,208.8 L654.1,213.8 L653.4,216.1 L652.0,216.8 L651.8,219.1 L655.0,219.6 L657.0,222.0 L661.2,220.0 L664.7,221.2 L664.9,224.2 L666.0,225.1 L668.4,224.3 L669.8,221.7 L669.3,218.9 L671.0,218.7 L669.8,216.0 L670.3,214.1 L672.3,212.8 L673.9,212.9 L674.5,214.9 L680.4,216.1 L684.9,215.5 L688.6,216.4 L691.4,217.7 L696.0,218.0 Z">
  <desc xmlns="http://www.highcharts.com/svg/namespace">
    <labelrank>2</labelrank>
    <hasc>BR.PB</hasc>
    <alt-name>Parahyba</alt-name>
    <woe-id>2344858</woe-id>
    <subregion>NULL</subregion>
    <fips>BR17</fips>
    <postal-code>PB</postal-code>
    <name>Paraíba</name>
    <country>Brazil</country>
    <type-en>State</type-en>
    <region>NULL</region>
    <longitude>-36.2726</longitude>
    <woe-name>Paraíba</woe-name>
    <latitude>-7.34234</latitude>
    <woe-label>Paraiba, BR, Brazil</woe-label>
    <type>Estado</type>
    <hc-middle-x>0.73</hc-middle-x>
    <hc-middle-y>0.46</hc-middle-y>
    <hc-key>br-pb</hc-key>
    <hc-a2>PB</hc-a2>
  </desc>
</path>

<path fill="#CEE3F5" stroke="#6E6E6E" stroke-width="0.4" id="BR.CE" d="M633.9,213.0 L631.5,218.7 L632.0,219.9 L630.0,222.3 L630.8,227.3 L633.3,229.9 L630.1,235.8 L627.9,236.6 L625.1,239.9 L623.2,239.9 L622.7,238.0 L620.3,236.6 L618.5,234.1 L615.2,232.6 L613.2,230.7 L609.7,230.1 L605.9,231.1 L597.4,230.5 L596.7,226.9 L599.9,219.9 L598.8,218.5 L594.7,217.0 L593.7,213.9 L593.2,209.5 L591.8,205.0 L591.0,194.1 L588.9,192.0 L589.1,189.5 L586.9,184.8 L586.2,177.9 L589.1,174.1 L588.3,171.3 L586.4,168.8 L585.5,164.5 L584.3,162.7 L582.6,157.7 L583.1,155.5 L586.2,151.1 L586.3,149.9 L585.9,147.5 L588.3,147.6 L598.4,146.7 L599.8,145.9 L609.1,147.2 L614.1,150.8 L615.6,150.8 L618.0,152.8 L620.3,153.5 L625.2,157.2 L626.9,157.5 L628.1,159.6 L630.1,160.4 L632.7,162.8 L635.9,163.3 L637.7,166.5 L639.9,168.3 L642.4,171.9 L646.9,176.1 L648.4,176.5 L649.4,178.7 L651.2,180.5 L656.3,182.3 L657.8,184.8 L652.3,186.5 L649.0,188.9 L645.3,196.3 L642.9,199.0 L641.3,203.9 L638.1,207.4 L636.0,207.1 L633.0,210.7 L632.5,213.2 Z">
  <desc xmlns="http://www.highcharts.com/svg/namespace">
    <labelrank>2</labelrank>
    <hasc>BR.CE</hasc>
    <alt-name>NULL</alt-name>
    <woe-id>2344849</woe-id>
    <subregion>NULL</subregion>
    <fips>BR06</fips>
    <postal-code>CE</postal-code>
    <name>Ceará</name>
    <country>Brazil</country>
    <type-en>State</type-en>
    <region>NULL</region>
    <longitude>-39.3429</longitude>
    <woe-name>Ceará</woe-name>
    <latitude>-5.37602</latitude>
    <woe-label>Ceara, BR, Brazil</woe-label>
    <type>Estado</type>
    <hc-middle-x>0.42</hc-middle-x>
    <hc-middle-y>0.43</hc-middle-y>
    <hc-key>br-ce</hc-key>
    <hc-a2>CE</hc-a2>
  </desc>
</path>

<path fill="#CEE3F5" stroke="#6E6E6E" stroke-width="0.4" id="BR.SE" d="M668.4,291.2 L665.3,292.0 L659.3,295.8 L656.7,299.0 L654.4,303.3 L652.4,304.8 L651.4,307.2 L649.4,307.0 L648.3,309.1 L645.2,309.7 L642.8,308.9 L642.0,307.3 L639.3,305.6 L639.8,303.4 L638.5,302.0 L637.8,299.4 L635.7,296.9 L636.6,293.5 L640.5,294.4 L643.9,292.3 L643.2,288.4 L644.2,286.3 L644.5,282.1 L641.4,278.1 L640.2,273.1 L641.1,271.7 L648.6,275.7 L653.3,277.4 L654.7,279.2 L659.4,281.6 L659.4,283.3 L661.3,285.5 L663.6,286.7 L664.8,286.4 L665.6,289.4 L667.5,289.4 Z">
  <desc xmlns="http://www.highcharts.com/svg/namespace">
    <labelrank>2</labelrank>
    <hasc>BR.SE</hasc>
    <alt-name>NULL</alt-name>
    <woe-id>2344869</woe-id>
    <subregion>NULL</subregion>
    <fips>BR28</fips>
    <postal-code>SE</postal-code>
    <name>Sergipe</name>
    <country>Brazil</country>
    <type-en>State</type-en>
    <region>NULL</region>
    <longitude>-37.3836</longitude>
    <woe-name>Sergipe</woe-name>
    <latitude>-10.5918</latitude>
    <woe-label>Sergipe, BR, Brazil</woe-label>
    <type>Estado</type>
    <hc-middle-x>0.60</hc-middle-x>
    <hc-middle-y>0.73</hc-middle-y>
    <hc-key>br-se</hc-key>
    <hc-a2>SE</hc-a2>
  </desc>
</path>

<path fill="#CEE3F5" stroke="#6E6E6E" stroke-width="0.4" id="BR.RR" d="M188.3,54.2 L188.3,50.9 L180.3,50.7 L176.4,49.9 L177.4,45.6 L175.4,41.2 L173.4,38.0 L173.0,32.6 L173.8,29.4 L171.7,27.1 L168.0,24.7 L165.7,22.0 L163.0,17.3 L164.2,16.7 L167.0,19.8 L171.0,19.3 L175.3,20.5 L176.4,23.7 L177.6,24.3 L179.8,23.1 L184.3,23.4 L186.3,24.9 L187.9,22.8 L190.4,23.7 L195.5,29.6 L196.7,30.2 L199.1,29.7 L199.9,28.5 L199.3,24.2 L199.7,22.0 L203.4,21.7 L203.8,20.1 L206.6,19.3 L210.0,20.8 L212.9,19.6 L214.7,19.9 L218.6,18.0 L221.3,18.1 L223.3,15.0 L226.2,14.6 L226.2,13.2 L228.8,13.8 L231.3,13.3 L233.3,10.1 L235.8,9.1 L238.5,6.5 L238.8,4.8 L237.5,0.9 L241.4,1.6 L245.7,0.0 L249.8,3.3 L248.9,9.8 L246.8,13.6 L250.5,13.8 L255.1,16.0 L254.3,19.7 L257.8,24.1 L255.1,28.2 L252.2,29.9 L252.5,34.3 L250.0,39.6 L249.2,46.3 L250.9,50.5 L251.0,52.3 L253.8,54.1 L253.7,61.5 L255.5,61.7 L254.9,63.0 L256.9,63.7 L262.8,70.0 L267.6,71.2 L269.4,90.7 L253.3,90.6 L248.7,90.7 L246.8,92.4 L243.5,99.0 L242.1,104.1 L243.4,105.9 L243.0,107.4 L240.7,108.1 L239.9,109.7 L235.9,110.0 L234.5,107.1 L232.4,104.7 L229.2,103.6 L222.9,106.2 L221.5,107.9 L220.7,111.8 L221.0,113.2 L220.0,117.7 L220.3,120.3 L217.5,119.3 L215.3,119.5 L212.6,115.4 L209.4,113.6 L205.6,109.7 L204.0,108.7 L204.5,107.3 L206.3,107.7 L207.5,106.3 L206.5,103.2 L206.4,100.9 L204.5,98.8 L202.7,94.4 L203.6,93.0 L202.9,91.6 L203.6,87.0 L204.4,85.0 L203.5,81.5 L205.1,80.2 L202.0,69.1 L199.0,65.7 L200.3,63.3 L200.5,59.5 L197.9,58.2 L195.1,58.2 L192.6,55.3 L189.8,55.5 Z">
  <desc xmlns="http://www.highcharts.com/svg/namespace">
    <labelrank>2</labelrank>
    <hasc>BR.RR</hasc>
    <alt-name>Rio Branco</alt-name>
    <woe-id>2344866</woe-id>
    <subregion>NULL</subregion>
    <fips>BR25</fips>
    <postal-code>RR</postal-code>
    <name>Roraima</name>
    <country>Brazil</country>
    <type-en>State</type-en>
    <region>NULL</region>
    <longitude>-61.3325</longitude>
    <woe-name>Roraima</woe-name>
    <latitude>1.93803</latitude>
    <woe-label>Roraima, BR, Brazil</woe-label>
    <type>Estado</type>
    <hc-middle-x>0.59</hc-middle-x>
    <hc-middle-y>0.51</hc-middle-y>
    <hc-key>br-rr</hc-key>
    <hc-a2>RR</hc-a2>
  </desc>
</path>

<path fill="#CEE3F5" stroke="#6E6E6E" stroke-width="0.4" id="BR.PE" d="M692.2,262.7 L687.9,261.9 L686.6,260.9 L682.1,262.3 L680.7,261.3 L676.9,261.5 L674.9,263.7 L670.7,267.0 L666.5,268.5 L662.0,267.7 L660.1,269.4 L655.8,267.0 L650.1,261.2 L647.2,261.7 L646.1,259.5 L644.8,261.6 L642.0,264.5 L639.8,265.2 L637.1,267.8 L635.8,261.4 L634.2,262.2 L632.5,260.5 L632.3,258.1 L629.9,260.8 L629.1,258.4 L626.5,257.0 L624.5,257.3 L623.4,256.2 L620.1,255.0 L618.9,252.8 L616.9,252.2 L611.7,254.3 L611.6,256.6 L607.9,257.4 L607.8,260.0 L603.9,262.2 L601.1,262.2 L599.9,266.7 L598.5,266.7 L594.6,268.9 L592.2,268.2 L593.5,266.3 L593.3,263.9 L590.7,262.6 L590.1,260.5 L590.3,257.2 L585.6,254.3 L581.8,254.3 L584.7,253.0 L588.3,249.1 L589.9,249.4 L593.2,246.1 L596.0,244.0 L596.9,242.2 L597.0,238.6 L595.0,237.2 L595.8,235.0 L594.7,231.2 L597.4,230.5 L605.9,231.1 L609.7,230.1 L613.2,230.7 L615.2,232.6 L618.5,234.1 L620.3,236.6 L622.7,238.0 L623.2,239.9 L625.1,239.9 L627.9,236.6 L630.1,235.8 L633.1,238.7 L636.2,237.5 L637.8,240.4 L639.7,239.0 L642.8,239.1 L647.8,235.1 L650.6,233.9 L652.8,231.6 L656.1,230.3 L660.2,232.9 L660.2,234.8 L656.9,235.9 L657.3,239.5 L654.0,243.8 L657.4,243.5 L657.7,247.0 L660.5,249.4 L663.8,248.4 L666.6,245.9 L666.1,244.5 L667.8,243.0 L670.0,242.8 L670.5,241.2 L680.4,241.3 L680.7,240.4 L686.1,238.6 L687.3,235.0 L689.5,235.1 L691.4,233.7 L695.0,234.4 L698.0,237.1 L699.5,238.6 L698.6,242.4 L699.1,244.0 L696.7,250.2 L696.5,252.3 L692.7,260.7 Z">
  <desc xmlns="http://www.highcharts.com/svg/namespace">
    <labelrank>2</labelrank>
    <hasc>BR.PE</hasc>
    <alt-name>Pernambouc</alt-name>
    <woe-id>2344860</woe-id>
    <subregion>NULL</subregion>
    <fips>BR30</fips>
    <postal-code>PE</postal-code>
    <name>Pernambuco</name>
    <country>Brazil</country>
    <type-en>State</type-en>
    <region>NULL</region>
    <longitude>-37.2958</longitude>
    <woe-name>Pernambuco</woe-name>
    <latitude>-8.47283</latitude>
    <woe-label>Pernambuco, BR, Brazil</woe-label>
    <type>Estado</type>
    <hc-middle-x>0.55</hc-middle-x>
    <hc-middle-y>0.52</hc-middle-y>
    <hc-key>br-pe</hc-key>
    <hc-a2>PE</hc-a2>
  </desc>
</path>

<path fill="#CEE3F5" stroke="#6E6E6E" stroke-width="0.4" id="BR.PR" d="M362.6,564.6 L360.9,560.4 L359.9,559.4 L359.8,556.5 L358.6,553.3 L355.1,551.9 L355.4,551.0 L350.6,552.6 L349.6,553.5 L347.4,552.3 L347.2,549.8 L350.4,548.6 L349.7,547.4 L354.4,546.1 L351.0,545.7 L350.9,544.4 L352.5,543.0 L350.6,542.1 L351.0,539.4 L352.5,540.5 L351.8,538.4 L352.6,537.1 L354.7,536.9 L352.8,535.8 L352.5,533.3 L353.4,529.3 L352.3,527.0 L353.1,525.0 L355.8,523.2 L356.0,520.8 L358.0,513.8 L361.7,511.5 L363.1,508.1 L363.8,504.8 L365.8,503.2 L370.9,500.9 L374.6,498.6 L386.8,500.0 L389.3,497.8 L392.4,499.5 L397.9,500.9 L401.1,500.3 L405.1,502.5 L408.9,503.6 L410.4,505.8 L413.1,505.4 L418.6,506.1 L424.0,505.5 L424.9,507.8 L427.8,509.1 L429.3,511.9 L429.6,514.6 L428.9,516.3 L430.4,520.1 L429.5,522.8 L432.6,526.9 L435.4,531.5 L433.9,534.9 L434.1,537.3 L437.5,537.9 L438.5,536.9 L442.5,538.2 L445.3,538.0 L447.3,539.3 L446.3,540.4 L445.8,544.8 L446.6,545.3 L448.3,543.2 L451.3,544.3 L452.4,548.1 L454.3,548.3 L453.4,549.6 L451.3,552.3 L448.6,553.3 L449.6,548.1 L448.8,549.4 L447.4,548.3 L448.0,551.3 L447.2,552.3 L444.3,551.7 L442.7,550.3 L444.6,553.3 L446.1,553.1 L448.7,554.2 L447.5,555.1 L444.8,561.4 L436.3,561.3 L433.2,563.2 L428.3,565.1 L422.7,561.2 L416.7,561.7 L414.4,561.2 L411.4,561.9 L409.9,564.7 L407.2,565.5 L404.4,564.7 L401.5,566.6 L400.9,568.0 L401.6,571.3 L398.6,572.9 L397.3,571.1 L391.4,571.0 L389.2,570.6 L386.2,568.2 L379.0,567.2 L376.2,566.0 L371.3,566.6 L367.5,564.3 L365.8,565.1 Z">
  <desc xmlns="http://www.highcharts.com/svg/namespace">
    <labelrank>2</labelrank>
    <hasc>BR.PR</hasc>
    <alt-name>NULL</alt-name>
    <woe-id>2344859</woe-id>
    <subregion>NULL</subregion>
    <fips>BR18</fips>
    <postal-code>PR</postal-code>
    <name>Paraná</name>
    <country>Brazil</country>
    <type-en>State</type-en>
    <region>NULL</region>
    <longitude>-51.3228</longitude>
    <woe-name>Paraná</woe-name>
    <latitude>-24.6618</latitude>
    <woe-label>Parana, BR, Brazil</woe-label>
    <type>Estado</type>
    <hc-middle-x>0.45</hc-middle-x>
    <hc-middle-y>0.50</hc-middle-y>
    <hc-key>br-pr</hc-key>
    <hc-a2>PR</hc-a2>
  </desc>
</path>

<path fill="#CEE3F5" stroke="#6E6E6E" stroke-width="0.4" id="BR.ES" d="M561.3,474.1 L562.3,471.8 L562.9,467.8 L562.0,466.6 L564.5,463.9 L569.7,464.4 L570.4,463.9 L571.8,459.8 L573.9,458.3 L574.7,454.6 L578.3,451.4 L579.1,448.2 L579.0,445.5 L577.3,443.3 L576.6,440.6 L574.4,439.8 L579.7,439.3 L579.9,437.2 L578.2,436.1 L578.9,432.7 L576.7,429.7 L578.3,427.7 L580.9,426.5 L583.2,426.5 L581.1,424.1 L585.3,424.1 L589.5,423.2 L593.1,425.1 L593.5,425.7 L601.8,432.1 L600.0,438.6 L599.8,442.6 L600.0,448.9 L599.5,452.1 L597.1,456.3 L593.6,458.0 L590.7,462.9 L589.2,467.1 L587.2,466.1 L587.1,467.8 L588.9,467.9 L587.1,471.0 L581.9,476.8 L580.2,476.8 L578.5,480.2 L575.6,484.3 L574.0,483.1 L570.7,483.1 L567.8,482.3 L563.4,480.3 L563.3,475.0 Z">
  <desc xmlns="http://www.highcharts.com/svg/namespace">
    <labelrank>2</labelrank>
    <hasc>BR.ES</hasc>
    <alt-name>Espiritu Santo</alt-name>
    <woe-id>2344851</woe-id>
    <subregion>NULL</subregion>
    <fips>BR08</fips>
    <postal-code>ES</postal-code>
    <name>Espírito Santo</name>
    <country>Brazil</country>
    <type-en>State</type-en>
    <region>NULL</region>
    <longitude>-40.5436</longitude>
    <woe-name>Espírito Santo</woe-name>
    <latitude>-19.6916</latitude>
    <woe-label>Espirito Santo, BR, Brazil</woe-label>
    <type>Estado</type>
    <hc-middle-x>0.35</hc-middle-x>
    <hc-middle-y>0.81</hc-middle-y>
    <hc-key>br-es</hc-key>
    <hc-a2>ES</hc-a2>
  </desc>
</path>

<path fill="#CEE3F5" stroke="#6E6E6E" stroke-width="0.4" id="BR.RJ" d="M510.3,517.4 L508.3,514.6 L509.3,513.4 L509.6,510.8 L515.1,508.6 L518.5,508.3 L520.4,506.2 L519.7,504.2 L514.3,504.4 L512.7,503.9 L510.7,500.6 L509.7,500.2 L512.5,499.7 L516.3,497.9 L520.1,498.0 L522.2,496.8 L527.0,495.1 L532.9,495.4 L534.9,494.5 L540.0,495.3 L553.0,490.6 L551.6,489.0 L553.2,485.0 L554.5,483.8 L557.2,476.4 L559.4,476.3 L561.3,474.1 L563.3,475.0 L563.4,480.3 L567.8,482.3 L570.7,483.1 L574.0,483.1 L575.6,484.3 L575.5,486.0 L573.5,488.7 L574.6,496.6 L574.0,497.8 L569.7,499.8 L562.4,501.7 L557.1,505.9 L556.4,508.9 L558.0,510.5 L556.3,511.2 L554.9,513.4 L545.6,512.4 L544.4,512.8 L538.8,512.5 L537.3,510.9 L539.0,508.9 L538.5,506.9 L535.2,508.1 L536.8,510.9 L535.7,512.7 L522.6,513.5 L529.3,512.4 L525.1,510.3 L523.4,510.5 L518.9,513.0 L521.2,514.8 L517.2,515.5 L516.5,514.4 L518.8,512.8 L518.8,511.6 L515.6,511.3 L511.1,513.0 L510.8,514.9 L514.0,516.2 L512.7,517.6 Z">
  <desc xmlns="http://www.highcharts.com/svg/namespace">
    <labelrank>2</labelrank>
    <hasc>BR.RJ</hasc>
    <alt-name>NULL</alt-name>
    <woe-id>2344862</woe-id>
    <subregion>NULL</subregion>
    <fips>BR21</fips>
    <postal-code>RJ</postal-code>
    <name>Rio de Janeiro</name>
    <country>Brazil</country>
    <type-en>State</type-en>
    <region>NULL</region>
    <longitude>-43.1152</longitude>
    <woe-name>Rio de Janeiro</woe-name>
    <latitude>-22.4049</latitude>
    <woe-label>Rio de Janeiro, BR, Brazil</woe-label>
    <type>Estado</type>
    <hc-middle-x>0.72</hc-middle-x>
    <hc-middle-y>0.56</hc-middle-y>
    <hc-key>br-rj</hc-key>
    <hc-a2>RJ</hc-a2>
  </desc>
</path>

<path fill="#CEE3F5" stroke="#6E6E6E" stroke-width="0.4" id="BR.RN" d="M633.9,213.0 L632.5,213.2 L633.0,210.7 L636.0,207.1 L638.1,207.4 L641.3,203.9 L642.9,199.0 L645.3,196.3 L649.0,188.9 L652.3,186.5 L657.8,184.8 L659.6,186.7 L663.8,187.0 L665.7,189.1 L669.7,190.6 L672.3,189.9 L677.5,190.3 L679.9,189.4 L688.6,191.5 L690.1,192.8 L692.8,198.0 L694.6,206.3 L695.3,207.8 L695.4,211.4 L696.4,212.3 L697.5,217.4 L696.0,218.0 L691.4,217.7 L688.6,216.4 L684.9,215.5 L680.4,216.1 L674.5,214.9 L673.9,212.9 L672.3,212.8 L670.3,214.1 L669.8,216.0 L671.0,218.7 L669.3,218.9 L669.8,221.7 L668.4,224.3 L666.0,225.1 L664.9,224.2 L664.7,221.2 L661.2,220.0 L657.0,222.0 L655.0,219.6 L651.8,219.1 L652.0,216.8 L653.4,216.1 L654.1,213.8 L658.2,208.8 L656.7,207.1 L647.7,209.6 L646.1,212.6 L642.3,214.4 L640.9,215.8 L638.2,215.4 Z">
  <desc xmlns="http://www.highcharts.com/svg/namespace">
    <labelrank>2</labelrank>
    <hasc>BR.RN</hasc>
    <alt-name>NULL</alt-name>
    <woe-id>2344863</woe-id>
    <subregion>NULL</subregion>
    <fips>BR22</fips>
    <postal-code>RN</postal-code>
    <name>Rio Grande do Norte</name>
    <country>Brazil</country>
    <type-en>State</type-en>
    <region>NULL</region>
    <longitude>-36.5472</longitude>
    <woe-name>Rio Grande do Norte</woe-name>
    <latitude>-5.66157</latitude>
    <woe-label>Rio Grande do Norte, BR, Brazil</woe-label>
    <type>Estado</type>
    <hc-middle-x>0.53</hc-middle-x>
    <hc-middle-y>0.53</hc-middle-y>
    <hc-key>br-rn</hc-key>
    <hc-a2>RN</hc-a2>
  </desc>
</path>

<path fill="#CEE3F5" stroke="#6E6E6E" stroke-width="0.4" id="BR.AM" d="M188.3,54.2 L189.8,55.5 L192.6,55.3 L195.1,58.2 L197.9,58.2 L200.5,59.5 L200.3,63.3 L199.0,65.7 L202.0,69.1 L205.1,80.2 L203.5,81.5 L204.4,85.0 L203.6,87.0 L202.9,91.6 L203.6,93.0 L202.7,94.4 L204.5,98.8 L206.4,100.9 L206.5,103.2 L207.5,106.3 L206.3,107.7 L204.5,107.3 L204.0,108.7 L205.6,109.7 L209.4,113.6 L212.6,115.4 L215.3,119.5 L217.5,119.3 L220.3,120.3 L220.0,117.7 L221.0,113.2 L220.7,111.8 L221.5,107.9 L222.9,106.2 L229.2,103.6 L232.4,104.7 L234.5,107.1 L235.9,110.0 L239.9,109.7 L240.7,108.1 L243.0,107.4 L243.4,105.9 L242.1,104.1 L243.5,99.0 L246.8,92.4 L248.7,90.7 L253.3,90.6 L269.4,90.7 L269.8,101.1 L271.8,102.5 L271.6,105.9 L273.8,108.5 L277.2,110.2 L278.1,113.5 L282.2,116.9 L288.2,120.6 L291.3,123.2 L297.1,125.7 L301.6,127.2 L303.1,129.4 L307.8,131.5 L307.7,133.7 L309.7,134.5 L312.2,133.4 L314.0,135.4 L314.1,137.5 L307.6,151.8 L280.3,211.2 L277.3,214.9 L278.6,219.5 L281.8,222.2 L283.3,226.3 L282.0,227.7 L282.0,230.8 L279.0,234.9 L280.3,240.3 L279.8,242.8 L278.1,245.6 L278.5,247.9 L276.3,251.7 L221.7,252.9 L219.8,251.5 L217.7,252.5 L217.0,254.6 L212.4,253.1 L211.7,250.3 L209.3,249.6 L208.0,246.2 L205.0,245.9 L201.6,240.6 L198.4,239.7 L187.1,239.8 L186.2,242.8 L183.8,243.3 L183.4,245.0 L180.5,246.0 L179.2,247.9 L180.5,249.6 L179.2,252.3 L176.9,252.5 L177.2,257.0 L170.9,257.5 L168.7,258.9 L165.5,258.2 L163.0,260.8 L163.4,262.5 L160.2,266.6 L157.7,263.4 L154.3,265.9 L150.6,267.1 L148.3,269.4 L145.3,266.7 L137.0,266.8 L137.0,269.0 L135.2,271.1 L131.1,273.3 L129.6,275.0 L75.7,251.6 L65.5,246.5 L24.2,237.6 L3.4,229.6 L4.0,225.5 L5.4,223.7 L10.8,219.2 L13.8,218.3 L15.0,216.2 L12.9,209.5 L14.5,205.7 L16.8,202.4 L17.2,197.8 L18.5,194.1 L18.0,191.5 L23.1,189.3 L29.8,184.2 L32.9,181.2 L38.2,178.7 L40.1,179.2 L43.0,178.0 L45.5,178.1 L46.8,176.6 L52.6,176.6 L55.0,172.7 L58.5,171.5 L59.4,172.9 L62.2,171.7 L64.3,172.3 L64.4,174.0 L66.3,175.5 L67.1,174.1 L70.1,174.9 L70.8,172.8 L80.0,116.7 L79.1,113.2 L77.4,111.8 L75.8,108.3 L76.6,106.7 L75.7,104.1 L70.1,100.4 L67.8,97.1 L68.2,83.8 L76.0,82.7 L78.1,81.2 L80.6,82.9 L84.7,82.7 L83.7,81.5 L84.4,78.7 L82.0,75.5 L80.5,75.0 L71.8,75.1 L71.8,63.0 L76.8,61.9 L80.9,62.9 L102.3,63.0 L100.2,61.0 L101.7,57.7 L103.4,59.3 L105.3,62.5 L109.0,61.4 L112.6,57.0 L115.4,55.4 L117.1,56.3 L121.1,63.4 L121.9,66.5 L121.4,71.7 L122.0,73.2 L125.4,72.3 L133.8,80.1 L138.3,81.3 L141.6,80.0 L145.7,76.9 L148.7,76.9 L149.8,79.0 L148.6,81.2 L149.0,82.8 L151.0,82.1 L153.3,78.1 L155.5,77.9 L156.7,74.2 L158.7,74.0 L162.1,71.6 L164.0,72.0 L167.3,68.9 L169.8,67.3 L170.1,69.4 L174.8,66.1 L175.7,64.8 L176.2,60.4 L177.3,59.2 L181.5,58.7 L184.1,56.6 L187.8,55.8 Z">
  <desc xmlns="http://www.highcharts.com/svg/namespace">
    <labelrank>2</labelrank>
    <hasc>BR.AM</hasc>
    <alt-name>Amazone</alt-name>
    <woe-id>2344847</woe-id>
    <subregion>NULL</subregion>
    <fips>BR04</fips>
    <postal-code>AM</postal-code>
    <name>Amazonas</name>
    <country>Brazil</country>
    <type-en>State</type-en>
    <region>NULL</region>
    <longitude>-63.7853</longitude>
    <woe-name>Amazonas</woe-name>
    <latitude>-4.21774</latitude>
    <woe-label>Amazonas, BR, Brazil</woe-label>
    <type>Estado</type>
    <hc-middle-x>0.56</hc-middle-x>
    <hc-middle-y>0.56</hc-middle-y>
    <hc-key>br-am</hc-key>
    <hc-a2>AM</hc-a2>
  </desc>
</path>

<path fill="#CEE3F5" stroke="#6E6E6E" stroke-width="0.4" id="BR.MT" d="M283.3,226.3 L284.7,227.6 L287.7,232.6 L289.7,238.9 L292.3,242.2 L291.6,245.9 L293.4,251.6 L295.2,252.2 L298.5,255.2 L302.0,256.8 L303.0,260.0 L306.7,260.8 L307.9,263.0 L309.6,262.6 L313.4,264.2 L337.7,265.8 L405.1,270.0 L423.9,271.1 L422.6,274.3 L421.3,275.8 L420.4,280.0 L418.7,283.9 L417.3,285.6 L416.6,290.6 L417.0,292.3 L414.6,300.7 L416.2,302.7 L415.2,304.5 L416.1,307.5 L415.5,309.7 L415.7,313.1 L416.7,317.4 L415.7,321.0 L416.9,324.2 L418.8,324.9 L418.6,326.8 L417.0,329.0 L417.2,331.7 L415.6,335.2 L413.9,337.3 L413.2,339.7 L412.0,340.3 L412.0,347.3 L410.8,347.6 L409.5,352.6 L409.9,354.7 L407.6,361.3 L406.2,362.9 L403.7,362.5 L400.3,364.4 L397.8,367.0 L397.4,370.0 L393.8,377.6 L387.4,379.5 L386.0,381.7 L382.4,384.0 L382.4,385.0 L380.1,386.2 L381.0,388.6 L380.7,390.4 L377.7,394.3 L374.0,396.5 L373.5,399.9 L370.8,403.9 L370.1,408.9 L373.3,417.0 L369.0,416.7 L361.8,416.8 L357.3,414.9 L359.5,411.1 L361.4,410.3 L362.6,403.4 L360.2,404.3 L358.0,407.0 L354.7,410.0 L350.4,410.8 L349.9,409.2 L348.1,408.0 L345.1,408.1 L341.7,410.4 L336.9,411.1 L330.7,407.9 L329.5,405.9 L326.4,405.2 L321.0,402.3 L318.4,402.9 L317.1,404.1 L309.7,404.8 L308.1,407.8 L306.2,409.5 L306.0,410.9 L303.4,413.3 L298.5,414.8 L295.4,414.0 L293.2,412.6 L292.0,409.4 L288.3,408.4 L284.4,405.5 L281.8,404.4 L280.2,397.6 L279.9,394.0 L281.9,390.8 L282.1,386.9 L280.0,387.7 L251.2,387.4 L250.3,386.5 L248.9,373.6 L242.7,366.5 L248.1,366.3 L247.5,357.9 L244.3,351.7 L244.2,348.5 L245.5,346.4 L244.0,343.0 L239.5,340.7 L245.3,336.2 L247.2,329.8 L248.4,328.0 L250.4,327.2 L251.7,323.6 L253.3,321.6 L254.7,317.4 L253.5,314.8 L253.5,312.8 L251.7,309.0 L250.4,308.8 L249.5,303.3 L252.8,299.4 L251.1,295.1 L246.2,294.1 L244.4,294.5 L243.3,292.7 L225.1,293.0 L224.2,292.2 L224.9,282.9 L223.2,279.8 L222.9,276.2 L223.7,272.6 L222.9,270.2 L224.4,268.5 L221.9,262.8 L223.3,261.1 L222.8,259.4 L224.0,255.5 L221.7,252.9 L276.3,251.7 L278.5,247.9 L278.1,245.6 L279.8,242.8 L280.3,240.3 L279.0,234.9 L282.0,230.8 L282.0,227.7 Z">
  <desc xmlns="http://www.highcharts.com/svg/namespace">
    <labelrank>2</labelrank>
    <hasc>BR.MT</hasc>
    <alt-name>Matto Grosso</alt-name>
    <woe-id>2344855</woe-id>
    <subregion>NULL</subregion>
    <fips>BR14</fips>
    <postal-code>MT</postal-code>
    <name>Mato Grosso</name>
    <country>Brazil</country>
    <type-en>State</type-en>
    <region>NULL</region>
    <longitude>-55.9235</longitude>
    <woe-name>Mato Grosso</woe-name>
    <latitude>-13.3926</latitude>
    <woe-label>Mato Grosso, BR, Brazil</woe-label>
    <type>Estado</type>
    <hc-middle-x>0.49</hc-middle-x>
    <hc-middle-y>0.55</hc-middle-y>
    <hc-key>br-mt</hc-key>
    <hc-a2>MT</hc-a2>
  </desc>
</path>

<path fill="#CEE3F5" stroke="#6E6E6E" stroke-width="0.4" id="BR.DF" d="M473.0,383.5 L473.0,383.5 L473.0,383.5 L457.8,383.0 L456.2,379.4 L457.6,377.5 L457.0,376.7 L458.1,373.1 L471.2,373.7 L473.2,375.4 L472.1,382.4 L473.0,383.5 L473.0,383.5 Z">
  <desc xmlns="http://www.highcharts.com/svg/namespace">
    <labelrank>7</labelrank>
    <hasc>BR.DF</hasc>
    <alt-name>NULL</alt-name>
    <woe-id>2344850</woe-id>
    <subregion>NULL</subregion>
    <fips>BR07</fips>
    <postal-code>DF</postal-code>
    <name>Distrito Federal</name>
    <country>Brazil</country>
    <type-en>Federal District</type-en>
    <region>NULL</region>
    <longitude>-47.7902</longitude>
    <woe-name>Distrito Federal</woe-name>
    <latitude>-15.7665</latitude>
    <woe-label>Distrito Federal, BR, Brazil</woe-label>
    <type>Distrito Federal</type>
    <hc-middle-x>0.89</hc-middle-x>
    <hc-middle-y>0.52</hc-middle-y>
    <hc-key>br-df</hc-key>
    <hc-a2>DF</hc-a2>
  </desc>
</path>

<path fill="#CEE3F5" stroke="#6E6E6E" stroke-width="0.4" id="BR.AC" d="M132.9,276.3 L128.5,279.7 L125.8,282.8 L123.4,284.2 L121.0,284.3 L118.4,287.0 L116.7,287.7 L114.5,291.6 L111.9,290.8 L107.8,291.7 L104.6,297.1 L99.0,299.8 L96.0,300.2 L96.4,298.1 L85.1,297.2 L79.4,298.1 L75.2,297.4 L69.5,300.4 L66.8,300.1 L65.0,298.3 L63.2,299.8 L62.1,278.2 L63.7,275.8 L62.1,272.9 L63.8,270.3 L57.8,274.9 L55.4,277.9 L52.9,279.1 L52.3,280.4 L48.9,281.8 L34.7,282.5 L35.2,280.3 L33.2,278.1 L32.3,273.9 L30.0,273.0 L23.2,272.0 L16.0,272.3 L20.2,266.0 L19.9,264.1 L16.1,259.3 L12.8,257.2 L12.6,254.9 L9.5,253.1 L6.7,246.4 L4.6,245.4 L4.3,243.9 L5.7,242.2 L3.4,241.0 L0.0,237.8 L1.9,234.5 L5.2,233.0 L3.4,229.6 L24.2,237.6 L65.5,246.5 L75.7,251.6 L129.6,275.0 Z">
  <desc xmlns="http://www.highcharts.com/svg/namespace">
    <labelrank>2</labelrank>
    <hasc>BR.</hasc>
    <alt-name>NULL</alt-name>
    <woe-id>2344844</woe-id>
    <subregion>NULL</subregion>
    <fips>BR01</fips>
    <postal-code>AC</postal-code>
    <name>Acre</name>
    <country>Brazil</country>
    <type-en>State</type-en>
    <region>NULL</region>
    <longitude>-70.2976</longitude>
    <woe-name>Acre</woe-name>
    <latitude>-8.9285</latitude>
    <woe-label>Acre, BR, Brazil</woe-label>
    <type>Estado</type>
    <hc-middle-x>0.49</hc-middle-x>
    <hc-middle-y>0.52</hc-middle-y>
    <hc-key>br-ac</hc-key>
    <hc-a2>AC</hc-a2>
  </desc>
</path>

<path fill="#CEE3F5" stroke="#6E6E6E" stroke-width="0.4" id="BR.RO" d="M239.5,340.7 L236.4,338.8 L234.2,338.6 L233.7,337.3 L232.0,338.3 L228.5,338.0 L226.6,338.9 L224.3,338.4 L219.8,338.9 L217.0,335.9 L213.9,331.6 L209.4,331.9 L208.8,331.1 L205.6,330.3 L204.7,329.2 L202.6,329.7 L200.4,327.2 L199.6,327.3 L197.7,323.8 L194.9,324.7 L192.2,324.2 L190.3,322.2 L187.4,320.9 L184.9,320.6 L182.8,322.3 L178.9,322.1 L177.6,321.3 L174.4,321.1 L172.7,319.6 L173.0,317.6 L168.6,315.7 L167.1,313.6 L163.5,313.1 L162.1,308.7 L159.8,308.6 L159.2,304.6 L158.0,304.4 L155.9,298.1 L157.4,295.0 L157.0,292.8 L155.6,291.8 L155.8,289.7 L154.8,288.5 L155.1,285.2 L157.2,280.9 L156.2,275.7 L156.6,273.8 L155.4,271.8 L153.9,271.3 L151.7,274.2 L149.4,272.8 L140.9,273.9 L136.3,275.7 L132.9,276.3 L129.6,275.0 L131.1,273.3 L135.2,271.1 L137.0,269.0 L137.0,266.8 L145.3,266.7 L148.3,269.4 L150.6,267.1 L154.3,265.9 L157.7,263.4 L160.2,266.6 L163.4,262.5 L163.0,260.8 L165.5,258.2 L168.7,258.9 L170.9,257.5 L177.2,257.0 L176.9,252.5 L179.2,252.3 L180.5,249.6 L179.2,247.9 L180.5,246.0 L183.4,245.0 L183.8,243.3 L186.2,242.8 L187.1,239.8 L198.4,239.7 L201.6,240.6 L205.0,245.9 L208.0,246.2 L209.3,249.6 L211.7,250.3 L212.4,253.1 L217.0,254.6 L217.7,252.5 L219.8,251.5 L221.7,252.9 L224.0,255.5 L222.8,259.4 L223.3,261.1 L221.9,262.8 L224.4,268.5 L222.9,270.2 L223.7,272.6 L222.9,276.2 L223.2,279.8 L224.9,282.9 L224.2,292.2 L225.1,293.0 L243.3,292.7 L244.4,294.5 L246.2,294.1 L251.1,295.1 L252.8,299.4 L249.5,303.3 L250.4,308.8 L251.7,309.0 L253.5,312.8 L253.5,314.8 L254.7,317.4 L253.3,321.6 L251.7,323.6 L250.4,327.2 L248.4,328.0 L247.2,329.8 L245.3,336.2 Z">
  <desc xmlns="http://www.highcharts.com/svg/namespace">
    <labelrank>2</labelrank>
    <hasc>BR.</hasc>
    <alt-name>Guaporé</alt-name>
    <woe-id>2344865</woe-id>
    <subregion>Guaporé</subregion>
    <fips>BR24</fips>
    <postal-code>RO</postal-code>
    <name>Rondônia</name>
    <country>Brazil</country>
    <type-en>State</type-en>
    <region>NULL</region>
    <longitude>-63.1439</longitude>
    <woe-name>Rondônia</woe-name>
    <latitude>-10.9712</latitude>
    <woe-label>Rondonia, BR, Brazil</woe-label>
    <type>Estado</type>
    <hc-middle-x>0.59</hc-middle-x>
    <hc-middle-y>0.58</hc-middle-y>
    <hc-key>br-ro</hc-key>
    <hc-a2>RO</hc-a2>
  </desc>
</path>
</g>

<text x="350" y="714" text-anchor="middle" font-family="Verdana" font-size="8" stroke-opacity="0.6">Copyright (c) 2020 Highsoft AS, Based on data from Natural Earth</text>

</svg>