<?xml version="1.0" encoding="utf-8" standalone="no"?>
<!DOCTYPE svg PUBLIC "-//W3C//DTD SVG 1.1//EN" "http://www.w3.org/Graphics/SVG/1.1/DTD/svg11.dtd">

<svg version="1.1" height="700pt" width="700pt" xmlns="http://www.w3.org/2000/svg" xmlns:xlink="http://www.w3.org/1999/xlink">
<desc>
Map version: 2.1.0
Copyright (c) 2023 Highsoft AS, Based on data from GeoBasis-DE / BKG 2014
</desc>
<title>Berlin</title>
<g id="admin2">

<g id="DE">
  <desc xmlns="http://www.highcharts.com/svg/namespace">
    <name>Germany</name>
    <labelrank>2</labelrank>
    <country-abbrev>Ger.</country-abbrev>
    <subregion>Western Europe</subregion>
    <region-wb>Europe &amp; Central Asia</region-wb>
    <iso-a3>DEU</iso-a3>
    <iso-a2>DE</iso-a2>
    <woe-id>23424829</woe-id>
    <continent>Europe</continent>
    <hc-key>de</hc-key>
    <hc-a2>GE</hc-a2>
  </desc>
</g>

<g id="DE.BE">
  <desc xmlns="http://www.highcharts.com/svg/namespace">
    <labelrank>9</labelrank>
    <hasc>DE.BE</hasc>
    <alt-name>NULL</alt-name>
    <woe-id>2345496</woe-id>
    <subregion>NULL</subregion>
    <fips>GM16</fips>
    <postal-code>BE</postal-code>
    <name>Berlin</name>
    <country>Germany</country>
    <type-en>State</type-en>
    <region>NULL</region>
    <longitude>13.4213</longitude>
    <woe-name>Berlin</woe-name>
    <latitude>52.5131</latitude>
    <woe-label>Berlin, DE, Germany</woe-label>
    <type>Land</type>
    <hc-key>de-be</hc-key>
    <hc-a2>BE</hc-a2>
  </desc>
</g>

<path fill="#CEE3F5" stroke="#6E6E6E" stroke-width="0.4" id="DE.BE.11000000" d="M544.2,222.8 L552.6,225.0 L569.7,227.2 L566.2,233.2 L560.8,233.8 L559.9,246.8 L565.6,245.7 L577.3,246.0 L592.1,247.3 L593.8,254.2 L578.8,265.2 L571.1,273.1 L567.6,278.0 L563.5,287.4 L560.6,300.9 L558.6,306.4 L565.0,308.2 L548.6,330.8 L547.0,339.5 L550.0,340.9 L544.9,348.2 L548.7,349.7 L550.8,347.2 L554.9,348.6 L554.8,351.7 L559.5,352.1 L559.8,342.9 L562.9,343.3 L569.3,339.4 L575.2,333.1 L583.1,334.3 L590.0,337.5 L595.4,342.2 L600.2,343.0 L602.6,342.1 L606.5,344.0 L610.5,347.8 L614.9,350.3 L618.9,355.7 L623.2,357.6 L633.7,359.2 L634.6,362.9 L634.1,368.4 L635.4,374.6 L641.6,376.0 L642.9,370.0 L641.2,359.0 L636.8,354.5 L638.4,352.4 L651.0,362.4 L654.1,362.5 L658.5,372.1 L667.3,382.2 L670.6,383.1 L673.2,382.0 L677.5,384.9 L692.4,387.3 L693.7,388.5 L693.4,394.8 L698.5,395.8 L697.1,402.3 L700.0,402.8 L699.1,406.6 L691.5,405.2 L693.5,397.5 L689.6,397.8 L682.9,403.6 L681.9,410.5 L676.6,410.3 L676.2,413.3 L678.7,413.6 L678.2,417.2 L680.9,417.9 L679.3,423.5 L676.5,422.6 L669.7,433.1 L670.5,434.7 L667.6,440.2 L672.5,450.0 L675.0,451.0 L677.0,455.5 L673.7,458.2 L673.1,465.1 L669.4,468.5 L666.5,468.0 L661.4,470.8 L658.9,469.7 L655.1,470.6 L654.2,469.3 L650.5,471.8 L646.4,476.2 L643.1,477.0 L639.6,482.1 L636.1,485.2 L635.7,482.1 L634.4,485.2 L628.0,492.6 L624.2,492.6 L623.1,496.0 L626.5,496.9 L631.8,500.9 L635.7,499.8 L633.9,506.7 L637.7,506.0 L637.2,510.9 L628.4,523.5 L625.5,524.5 L620.1,521.6 L615.2,521.1 L606.7,526.2 L602.2,534.3 L601.6,539.4 L598.1,542.5 L597.4,546.2 L592.3,551.0 L591.2,557.4 L586.2,566.2 L586.8,571.6 L583.4,573.7 L577.4,570.7 L572.5,564.2 L570.7,558.7 L572.3,556.6 L572.5,542.4 L572.9,537.5 L575.7,531.7 L580.8,527.7 L582.0,523.4 L581.7,519.3 L576.4,518.0 L578.1,507.0 L567.7,508.9 L562.0,499.5 L540.2,511.1 L538.8,506.5 L539.5,503.2 L535.8,497.1 L531.5,492.9 L527.9,490.9 L526.6,485.9 L526.6,481.3 L525.4,478.4 L519.9,481.5 L496.3,488.4 L465.8,487.2 L465.3,479.5 L468.7,467.3 L461.1,470.8 L458.2,471.2 L451.1,465.9 L444.5,466.0 L422.6,470.8 L411.2,473.7 L407.7,475.2 L405.3,463.1 L401.8,453.4 L395.8,435.2 L389.5,433.2 L384.6,434.9 L373.7,439.9 L357.7,446.8 L344.1,451.3 L343.8,456.0 L353.2,490.7 L353.0,492.4 L346.3,508.7 L325.7,507.0 L312.4,505.6 L311.1,487.5 L300.9,488.1 L293.7,487.7 L295.4,478.6 L282.0,470.7 L275.1,464.6 L265.2,454.9 L265.4,448.1 L232.8,468.5 L218.9,447.2 L216.4,439.7 L206.1,448.4 L198.0,456.3 L194.4,458.6 L188.6,459.9 L185.1,459.6 L179.1,456.8 L173.3,456.5 L168.1,459.0 L167.2,447.1 L164.0,432.0 L142.7,433.0 L139.5,432.7 L129.0,437.4 L121.6,440.2 L111.6,441.5 L73.8,462.0 L73.9,467.5 L72.1,473.1 L86.2,470.8 L86.4,474.1 L80.5,476.7 L73.2,477.3 L67.2,475.7 L59.7,474.6 L56.3,472.7 L45.4,484.8 L47.4,486.2 L46.8,489.0 L44.0,488.5 L40.0,485.0 L40.4,481.0 L45.6,481.4 L51.6,474.6 L48.0,471.4 L49.6,469.1 L46.7,467.7 L40.1,472.6 L37.8,472.0 L30.2,463.1 L24.8,460.0 L20.8,454.2 L22.1,452.0 L20.3,450.4 L25.2,449.5 L24.1,444.2 L18.2,445.1 L15.4,449.1 L12.9,447.7 L12.9,445.2 L9.2,445.3 L10.5,448.8 L9.2,450.5 L2.3,446.3 L0.0,433.0 L7.5,429.4 L10.9,423.9 L12.7,423.4 L17.0,425.6 L18.0,423.5 L25.3,416.8 L24.8,411.5 L30.1,405.4 L34.9,402.3 L36.5,399.6 L32.8,395.9 L32.2,391.7 L28.4,388.7 L22.1,380.3 L25.0,374.4 L25.7,365.7 L24.0,363.5 L24.0,354.1 L27.1,350.2 L31.1,340.6 L31.4,332.1 L39.2,330.0 L63.0,300.0 L82.4,279.4 L62.7,267.1 L60.5,266.5 L58.1,263.0 L41.3,266.4 L31.4,267.3 L32.7,258.9 L34.0,243.4 L38.6,229.8 L39.8,221.7 L45.6,200.4 L48.6,204.9 L51.5,206.6 L59.3,207.8 L62.8,203.3 L61.6,194.1 L63.7,185.6 L66.0,181.4 L69.0,172.5 L69.1,163.1 L65.7,154.6 L55.4,159.2 L47.4,160.6 L45.8,154.8 L43.3,154.8 L44.3,147.4 L49.9,147.3 L54.7,146.0 L65.0,140.8 L70.2,133.4 L73.6,130.3 L81.0,128.1 L90.9,134.3 L101.4,137.4 L109.9,143.5 L117.8,145.4 L124.9,149.1 L125.6,146.2 L136.0,148.0 L137.6,142.3 L136.5,138.1 L127.2,128.9 L120.3,118.8 L120.2,114.5 L125.3,111.1 L134.0,93.3 L135.9,92.3 L138.8,85.0 L139.8,78.6 L149.9,80.0 L163.6,78.9 L166.6,80.3 L177.8,79.5 L185.0,81.0 L186.1,68.2 L183.5,61.2 L182.9,57.4 L189.4,59.0 L204.0,56.6 L205.1,37.3 L203.1,37.1 L204.6,23.4 L216.7,26.2 L230.1,26.0 L232.7,29.3 L222.7,35.9 L230.7,52.2 L231.3,56.5 L229.4,59.4 L230.3,63.0 L225.4,64.6 L229.8,71.4 L230.7,76.5 L224.5,78.0 L224.6,80.1 L235.7,78.7 L252.0,83.8 L259.8,88.6 L267.8,87.3 L268.3,85.0 L274.8,85.2 L276.3,87.4 L279.9,86.4 L283.2,87.2 L298.1,79.4 L299.7,77.6 L299.4,73.8 L308.3,65.5 L314.0,63.3 L315.8,55.5 L319.1,48.8 L322.0,45.3 L324.3,45.3 L333.1,55.2 L339.1,53.2 L343.5,59.8 L351.0,66.8 L355.2,63.3 L360.8,62.8 L360.5,56.7 L361.2,52.1 L367.2,50.3 L368.3,43.9 L374.4,42.1 L382.4,42.3 L381.8,44.7 L387.8,45.6 L394.5,40.2 L398.4,38.9 L402.1,35.6 L402.4,31.2 L390.5,29.7 L383.0,22.9 L378.6,20.7 L387.6,10.2 L394.3,13.2 L404.0,0.0 L407.6,2.5 L404.3,9.1 L404.3,14.7 L407.8,12.2 L417.3,7.5 L414.2,26.9 L420.0,34.4 L429.3,40.6 L435.0,43.8 L442.7,50.1 L449.0,46.8 L450.7,50.6 L453.4,50.3 L452.3,61.3 L447.7,77.2 L435.4,83.7 L434.9,94.4 L432.7,95.7 L427.8,109.5 L426.0,119.0 L428.3,118.9 L437.7,141.0 L452.6,139.9 L457.6,141.0 L478.2,148.4 L487.1,154.8 L491.4,158.8 L495.7,165.2 L499.4,172.5 L502.5,173.9 L507.7,172.5 L510.2,177.1 L513.9,177.4 L516.4,191.5 L516.6,195.1 L519.6,201.7 L519.8,208.8 L517.8,215.6 Z">
  <desc xmlns="http://www.highcharts.com/svg/namespace">
    <name>Berlin</name>
    <bundesland>DE.BE</bundesland>
    <hc-middle-x>0.47</hc-middle-x>
    <hc-middle-y>0.49</hc-middle-y>
    <hc-key>de-be-11000000</hc-key>
    <hc-a2>BE</hc-a2>
  </desc>
</path>
</g>

<text x="350" y="714" text-anchor="middle" font-family="Verdana" font-size="8" stroke-opacity="0.6">Copyright (c) 2023 Highsoft AS, Based on data from GeoBasis-DE / BKG 2014</text>

</svg>