<?xml version="1.0" encoding="utf-8" standalone="no"?>
<!DOCTYPE svg PUBLIC "-//W3C//DTD SVG 1.1//EN" "http://www.w3.org/Graphics/SVG/1.1/DTD/svg11.dtd">

<svg version="1.1" height="700pt" width="700pt" xmlns="http://www.w3.org/2000/svg" xmlns:xlink="http://www.w3.org/1999/xlink">
<desc>
Map version: 1.1.3
Copyright (c) 2020 Highsoft AS, Based on data from GeoBasis-DE / BKG 2014
</desc>
<title>Hamburg</title>
<g id="admin3">

<g id="DE.HH">
  <desc xmlns="http://www.highcharts.com/svg/namespace">
    <labelrank>9</labelrank>
    <hasc>DE.HH</hasc>
    <alt-name>NULL</alt-name>
    <woe-id>2345484</woe-id>
    <subregion>NULL</subregion>
    <fips>GM04</fips>
    <postal-code>HH</postal-code>
    <name>Hamburg</name>
    <country>Germany</country>
    <type-en>State</type-en>
    <region>NULL</region>
    <longitude>10.0344</longitude>
    <woe-name>Hamburg</woe-name>
    <latitude>53.559</latitude>
    <woe-label>Hamburg, DE, Germany</woe-label>
    <type>Land</type>
    <hc-key>de-hh</hc-key>
    <hc-a2>HA</hc-a2>
  </desc>
</g>

<g id="DE">
  <desc xmlns="http://www.highcharts.com/svg/namespace">
    <name>Germany</name>
    <labelrank>2</labelrank>
    <country-abbrev>Ger.</country-abbrev>
    <subregion>Western Europe</subregion>
    <region-wb>Europe &amp; Central Asia</region-wb>
    <iso-a3>DEU</iso-a3>
    <iso-a2>DE</iso-a2>
    <woe-id>23424829</woe-id>
    <continent>Europe</continent>
    <hc-key>de</hc-key>
    <hc-a2>GE</hc-a2>
  </desc>
</g>

<g id="DE.HH.02000000">
  <desc xmlns="http://www.highcharts.com/svg/namespace">
    <name>Hamburg</name>
    <bundesland>DE.HH</bundesland>
    <hc-key>de-hh-02000000</hc-key>
    <hc-a2>HA</hc-a2>
  </desc>
</g>

<path fill="#CEE3F5" stroke="#6E6E6E" stroke-width="0.4" id="DE.HH.02000000.02000000" d="M29.8,22.3 L30.5,22.1 L33.6,24.1 L35.0,25.6 L35.0,27.0 L34.1,28.8 L31.1,30.7 L28.3,31.9 L24.2,31.2 L23.9,30.6 L24.0,28.5 L24.5,25.3 L25.0,23.3 L26.2,21.1 L27.8,20.0 L28.4,20.1 L30.1,21.7 Z M10.8,3.1 L10.2,4.8 L9.0,5.8 L8.2,8.1 L7.3,9.2 L7.1,10.8 L6.6,11.4 L4.2,12.5 L2.7,13.0 L1.7,12.8 L0.4,11.8 L0.0,10.6 L0.4,7.4 L1.3,5.1 L2.1,4.1 L3.9,3.2 L5.3,3.4 L6.3,4.1 L7.3,3.5 L5.3,2.4 L5.6,1.0 L7.3,0.0 L9.3,0.2 L11.0,1.9 Z M642.7,154.1 L641.2,152.4 L638.5,153.5 L639.4,154.9 L635.3,157.3 L635.2,158.6 L636.6,160.1 L636.2,166.1 L633.6,168.8 L634.0,170.3 L632.1,172.0 L630.4,172.8 L629.3,172.8 L630.4,175.6 L631.0,175.2 L634.0,176.0 L634.6,175.6 L634.9,177.1 L636.7,178.0 L634.9,178.1 L635.1,179.3 L636.1,179.4 L637.2,178.3 L638.7,180.0 L640.0,180.2 L641.3,179.6 L641.8,180.7 L641.7,182.2 L643.3,183.2 L645.1,182.6 L646.8,185.7 L646.8,186.7 L648.7,187.4 L649.9,188.3 L649.6,189.5 L651.0,193.1 L650.5,194.4 L647.8,198.4 L649.9,198.8 L651.2,199.8 L652.2,199.2 L655.3,199.3 L659.6,200.9 L657.9,203.0 L658.0,206.0 L656.0,207.6 L654.7,206.9 L653.8,207.4 L653.9,208.5 L652.3,209.5 L647.8,213.9 L648.6,215.6 L649.3,215.3 L650.1,217.3 L650.3,219.9 L650.8,221.7 L650.5,223.3 L649.0,224.6 L650.0,228.1 L650.5,228.1 L652.7,231.7 L651.6,232.9 L650.6,231.4 L639.5,232.9 L638.7,232.0 L639.1,231.4 L638.1,231.0 L637.0,233.8 L634.6,236.5 L634.6,239.4 L633.9,241.5 L633.0,243.0 L633.7,245.7 L636.6,246.8 L637.9,248.3 L637.6,250.0 L635.2,252.8 L634.6,256.2 L635.7,256.6 L635.1,257.5 L635.2,259.4 L635.8,259.3 L636.3,261.5 L637.9,260.5 L640.5,260.7 L640.4,262.4 L639.1,265.0 L639.5,265.8 L638.7,267.9 L639.3,270.9 L639.8,271.6 L642.0,272.1 L644.4,273.3 L648.0,275.9 L649.2,275.5 L653.0,274.9 L656.7,271.2 L658.3,275.6 L659.3,276.0 L660.0,277.0 L659.8,278.6 L661.8,280.2 L661.0,281.8 L660.0,282.4 L659.9,284.1 L660.5,284.2 L661.8,285.7 L662.9,286.3 L665.5,285.4 L666.6,285.7 L666.0,289.1 L666.8,289.9 L667.3,293.8 L668.7,294.3 L669.1,294.9 L671.5,295.9 L672.5,297.4 L673.7,296.8 L675.5,297.6 L675.3,299.1 L677.0,298.6 L677.6,300.0 L677.4,301.9 L680.2,303.1 L679.0,305.4 L681.6,306.9 L685.1,309.3 L687.3,311.1 L687.8,312.1 L689.6,312.9 L690.0,313.6 L688.8,314.7 L690.5,317.5 L691.7,318.3 L693.4,318.2 L694.4,312.7 L696.4,312.4 L700.0,314.0 L696.2,319.2 L696.0,320.2 L697.6,321.4 L697.3,322.8 L693.5,323.3 L693.7,324.2 L692.0,324.7 L686.0,329.2 L684.6,330.0 L679.4,331.8 L677.2,332.8 L674.3,335.5 L673.6,336.9 L670.0,345.9 L668.7,347.3 L667.5,348.0 L665.2,348.3 L663.3,348.3 L658.9,347.5 L656.2,346.7 L652.5,346.4 L647.5,347.8 L645.1,347.7 L642.7,346.8 L640.9,345.7 L638.5,343.5 L636.6,341.5 L635.5,339.7 L633.7,335.9 L631.7,333.4 L629.3,331.6 L627.7,331.3 L624.4,331.3 L621.8,330.5 L620.1,329.5 L618.8,327.9 L617.2,324.7 L616.2,321.9 L614.8,319.5 L612.3,316.4 L609.5,313.6 L608.7,313.0 L605.4,312.0 L603.6,310.9 L598.8,306.8 L597.6,308.5 L595.7,310.1 L595.3,311.7 L596.2,312.5 L595.2,314.5 L598.0,315.5 L596.7,317.5 L593.1,317.3 L591.8,319.3 L588.6,318.2 L587.6,317.5 L585.3,320.4 L589.4,322.9 L590.7,324.7 L588.4,326.5 L588.0,327.5 L586.6,327.8 L586.9,328.4 L582.7,328.9 L580.6,331.2 L578.7,330.5 L577.5,334.2 L576.0,333.9 L575.2,336.0 L574.2,336.4 L574.4,337.1 L570.9,337.6 L571.8,334.8 L571.0,333.4 L569.3,332.0 L566.9,333.1 L565.7,331.9 L566.5,329.9 L561.3,327.7 L560.6,329.9 L558.7,333.9 L555.1,333.8 L553.8,334.2 L553.5,335.1 L552.2,334.8 L549.3,338.3 L545.6,337.3 L546.1,335.5 L547.4,333.6 L549.2,331.6 L548.5,328.8 L548.9,327.8 L550.5,325.8 L551.0,324.4 L550.1,323.1 L549.2,320.6 L548.4,320.7 L548.1,317.1 L547.2,316.6 L546.0,314.0 L545.2,313.6 L544.5,312.0 L543.5,312.2 L542.6,311.5 L542.5,313.0 L541.4,311.6 L539.2,314.9 L538.8,315.8 L537.7,316.2 L533.2,321.0 L531.6,319.7 L531.1,320.3 L531.0,322.0 L530.4,322.6 L528.8,322.8 L528.3,324.7 L530.0,327.4 L529.2,328.8 L528.0,326.2 L527.0,325.6 L522.5,319.6 L519.3,315.6 L514.8,312.1 L511.0,308.9 L508.7,308.7 L508.2,306.0 L507.2,306.1 L507.1,304.6 L505.9,304.5 L506.1,301.0 L505.4,301.1 L505.9,299.1 L505.8,295.7 L506.1,293.0 L506.6,292.0 L506.6,289.9 L505.4,290.1 L503.0,289.5 L499.4,291.0 L499.2,290.4 L500.0,285.8 L494.2,282.6 L492.3,280.5 L493.2,276.9 L494.4,273.3 L495.1,271.8 L497.3,272.7 L496.8,270.4 L495.9,268.8 L494.5,267.7 L495.0,266.7 L492.7,260.5 L495.2,259.1 L497.5,261.0 L501.0,262.9 L501.9,263.7 L503.6,264.3 L507.3,266.3 L511.6,267.5 L514.6,265.1 L514.4,264.6 L509.2,261.1 L509.5,259.8 L510.9,258.8 L513.0,256.6 L514.0,256.2 L515.6,256.9 L519.9,257.7 L523.0,258.6 L524.1,258.1 L525.2,258.8 L528.0,259.8 L534.2,260.6 L546.0,260.8 L552.0,260.8 L554.9,260.5 L555.5,257.7 L550.5,258.3 L546.1,258.0 L540.1,257.9 L536.3,257.7 L532.5,257.0 L530.1,256.3 L528.5,256.6 L520.4,254.6 L515.3,253.2 L509.1,251.6 L500.7,248.7 L497.6,248.1 L494.5,246.9 L492.5,247.1 L490.4,246.7 L487.3,246.6 L481.1,245.7 L482.1,239.6 L482.0,238.2 L484.1,237.7 L483.4,236.4 L482.2,236.6 L481.7,235.4 L483.0,234.6 L483.5,232.7 L485.1,231.2 L485.7,229.3 L484.6,227.3 L484.3,225.7 L486.1,221.8 L488.7,222.6 L489.9,217.4 L487.9,216.1 L489.5,213.0 L490.2,209.0 L491.5,208.7 L491.5,207.1 L493.9,207.1 L493.5,210.0 L494.1,214.1 L500.1,216.9 L501.0,216.9 L501.7,218.4 L503.1,217.8 L504.3,219.3 L503.8,220.4 L502.0,220.8 L501.3,221.4 L502.0,223.2 L504.4,225.9 L504.4,226.5 L506.4,228.2 L506.8,227.8 L507.9,229.3 L511.1,232.4 L514.3,233.4 L515.7,232.9 L517.4,231.7 L518.6,231.5 L518.8,228.5 L519.8,228.4 L519.6,226.9 L521.8,227.0 L521.5,225.9 L523.1,225.1 L524.2,225.4 L526.4,224.0 L526.3,222.4 L527.4,220.7 L527.7,219.2 L530.0,217.9 L530.6,215.5 L531.6,214.0 L534.0,211.4 L536.3,210.0 L537.8,209.8 L536.1,209.1 L537.1,206.9 L538.0,205.9 L539.5,205.1 L538.7,204.2 L540.1,203.7 L540.4,202.0 L541.7,200.6 L541.6,199.0 L543.2,197.7 L543.3,195.4 L543.1,191.5 L544.7,190.7 L546.6,190.3 L546.8,189.4 L547.8,189.9 L549.0,189.2 L549.4,190.0 L554.3,191.2 L558.0,190.6 L559.1,191.7 L560.7,192.2 L561.1,191.4 L563.2,192.4 L564.5,192.2 L565.4,193.1 L566.7,192.0 L568.5,193.4 L569.0,192.4 L570.3,193.2 L571.4,192.8 L572.5,193.9 L574.0,193.1 L574.5,191.8 L573.5,188.7 L574.9,187.1 L575.0,183.3 L574.4,180.1 L575.4,175.3 L577.3,172.7 L580.6,172.8 L592.8,172.2 L596.4,175.3 L597.5,174.6 L603.2,173.6 L602.0,170.2 L602.4,169.6 L600.4,169.5 L600.0,168.0 L601.8,167.7 L602.6,164.1 L604.7,161.6 L606.1,161.0 L605.7,160.2 L606.6,158.3 L603.1,157.1 L604.5,155.2 L603.0,154.0 L603.6,153.3 L605.1,154.1 L606.8,152.2 L605.5,151.4 L607.5,148.2 L612.0,148.9 L613.2,149.9 L615.0,149.9 L615.6,151.5 L617.4,151.8 L619.0,151.5 L619.7,150.5 L620.7,152.1 L621.9,152.3 L623.8,148.5 L628.7,144.6 L630.5,145.2 L632.8,141.9 L636.5,139.8 L637.0,136.8 L638.1,136.6 L640.1,137.2 L643.2,139.5 L645.2,140.4 L646.6,141.4 L648.3,141.0 L647.5,146.5 L644.1,154.6 Z M495.7,254.4 L497.6,254.3 L498.3,253.6 L497.7,252.9 L495.9,252.7 L495.9,252.3 L492.7,252.1 L491.6,251.8 L483.4,250.8 L484.3,250.4 L489.5,251.1 L491.1,251.0 L493.3,251.7 L494.7,251.6 L497.6,252.1 L499.1,253.7 L499.1,254.5 L497.3,255.0 L495.7,254.9 Z M479.6,250.5 L479.7,250.2 L480.1,250.3 L480.3,250.5 Z">
  <desc xmlns="http://www.highcharts.com/svg/namespace">
    <name>Hamburg</name>
    <hc-middle-x>0.83</hc-middle-x>
    <hc-middle-y>0.72</hc-middle-y>
    <hc-key>de-hh-02000000-02000000</hc-key>
    <hc-a2>HA</hc-a2>
  </desc>
</path>
</g>

<g id="__border_lines__">
<path fill="none" stroke="#551111" stroke-width="0.4" id="__de-hh-all-all_border_lines__" d="M29.8,22.3 L30.5,22.1 L33.6,24.1 L35.0,25.6 L35.0,27.0 L34.1,28.8 L31.1,30.7 L28.3,31.9 L24.2,31.2 L23.9,30.6 L24.0,28.5 L24.5,25.3 L25.0,23.3 L26.2,21.1 L27.8,20.0 L28.4,20.1 L30.1,21.7 Z M10.8,3.1 L10.2,4.8 L9.0,5.8 L8.2,8.1 L7.3,9.2 L7.1,10.8 L6.6,11.4 L4.2,12.5 L2.7,13.0 L1.7,12.8 L0.4,11.8 L0.0,10.6 L0.4,7.4 L1.3,5.1 L2.1,4.1 L3.9,3.2 L5.3,3.4 L6.3,4.1 L7.3,3.5 L5.3,2.4 L5.6,1.0 L7.3,0.0 L9.3,0.2 L11.0,1.9 Z M642.7,154.1 L641.2,152.4 L638.5,153.5 L639.4,154.9 L635.3,157.3 L635.2,158.6 L636.6,160.1 L636.2,166.1 L633.6,168.8 L634.0,170.3 L632.1,172.0 L630.4,172.8 L629.3,172.8 L630.4,175.6 L631.0,175.2 L634.0,176.0 L634.6,175.6 L634.9,177.1 L636.7,178.0 L634.9,178.1 L635.1,179.3 L636.1,179.4 L637.2,178.3 L638.7,180.0 L640.0,180.2 L641.3,179.6 L641.8,180.7 L641.7,182.2 L643.3,183.2 L645.1,182.6 L646.8,185.7 L646.8,186.7 L648.7,187.4 L649.9,188.3 L649.6,189.5 L651.0,193.1 L650.5,194.4 L647.8,198.4 L649.9,198.8 L651.2,199.8 L652.2,199.2 L655.3,199.3 L659.6,200.9 L657.9,203.0 L658.0,206.0 L656.0,207.6 L654.7,206.9 L653.8,207.4 L653.9,208.5 L652.3,209.5 L647.8,213.9 L648.6,215.6 L649.3,215.3 L650.1,217.3 L650.3,219.9 L650.8,221.7 L650.5,223.3 L649.0,224.6 L650.0,228.1 L650.5,228.1 L652.7,231.7 L651.6,232.9 L650.6,231.4 L639.5,232.9 L638.7,232.0 L639.1,231.4 L638.1,231.0 L637.0,233.8 L634.6,236.5 L634.6,239.4 L633.9,241.5 L633.0,243.0 L633.7,245.7 L636.6,246.8 L637.9,248.3 L637.6,250.0 L635.2,252.8 L634.6,256.2 L635.7,256.6 L635.1,257.5 L635.2,259.4 L635.8,259.3 L636.3,261.5 L637.9,260.5 L640.5,260.7 L640.4,262.4 L639.1,265.0 L639.5,265.8 L638.7,267.9 L639.3,270.9 L639.8,271.6 L642.0,272.1 L644.4,273.3 L648.0,275.9 L649.2,275.5 L653.0,274.9 L656.7,271.2 L658.3,275.6 L659.3,276.0 L660.0,277.0 L659.8,278.6 L661.8,280.2 L661.0,281.8 L660.0,282.4 L659.9,284.1 L660.5,284.2 L661.8,285.7 L662.9,286.3 L665.5,285.4 L666.6,285.7 L666.0,289.1 L666.8,289.9 L667.3,293.8 L668.7,294.3 L669.1,294.9 L671.5,295.9 L672.5,297.4 L673.7,296.8 L675.5,297.6 L675.3,299.1 L677.0,298.6 L677.6,300.0 L677.4,301.9 L680.2,303.1 L679.0,305.4 L681.6,306.9 L685.1,309.3 L687.3,311.1 L687.8,312.1 L689.6,312.9 L690.0,313.6 L688.8,314.7 L690.5,317.5 L691.7,318.3 L693.4,318.2 L694.4,312.7 L696.4,312.4 L700.0,314.0 L696.2,319.2 L696.0,320.2 L697.6,321.4 L697.3,322.8 L693.5,323.3 L693.7,324.2 L692.0,324.7 L686.0,329.2 L684.6,330.0 L679.4,331.8 L677.2,332.8 L674.3,335.5 L673.6,336.9 L670.0,345.9 L668.7,347.3 L667.5,348.0 L665.2,348.3 L663.3,348.3 L658.9,347.5 L656.2,346.7 L652.5,346.4 L647.5,347.8 L645.1,347.7 L642.7,346.8 L640.9,345.7 L638.5,343.5 L636.6,341.5 L635.5,339.7 L633.7,335.9 L631.7,333.4 L629.3,331.6 L627.7,331.3 L624.4,331.3 L621.8,330.5 L620.1,329.5 L618.8,327.9 L617.2,324.7 L616.2,321.9 L614.8,319.5 L612.3,316.4 L609.5,313.6 L608.7,313.0 L605.4,312.0 L603.6,310.9 L598.8,306.8 L597.6,308.5 L595.7,310.1 L595.3,311.7 L596.2,312.5 L595.2,314.5 L598.0,315.5 L596.7,317.5 L593.1,317.3 L591.8,319.3 L588.6,318.2 L587.6,317.5 L585.3,320.4 L589.4,322.9 L590.7,324.7 L588.4,326.5 L588.0,327.5 L586.6,327.8 L586.9,328.4 L582.7,328.9 L580.6,331.2 L578.7,330.5 L577.5,334.2 L576.0,333.9 L575.2,336.0 L574.2,336.4 L574.4,337.1 L570.9,337.6 L571.8,334.8 L571.0,333.4 L569.3,332.0 L566.9,333.1 L565.7,331.9 L566.5,329.9 L561.3,327.7 L560.6,329.9 L558.7,333.9 L555.1,333.8 L553.8,334.2 L553.5,335.1 L552.2,334.8 L549.3,338.3 L545.6,337.3 L546.1,335.5 L547.4,333.6 L549.2,331.6 L548.5,328.8 L548.9,327.8 L550.5,325.8 L551.0,324.4 L550.1,323.1 L549.2,320.6 L548.4,320.7 L548.1,317.1 L547.2,316.6 L546.0,314.0 L545.2,313.6 L544.5,312.0 L543.5,312.2 L542.6,311.5 L542.5,313.0 L541.4,311.6 L539.2,314.9 L538.8,315.8 L537.7,316.2 L533.2,321.0 L531.6,319.7 L531.1,320.3 L531.0,322.0 L530.4,322.6 L528.8,322.8 L528.3,324.7 L530.0,327.4 L529.2,328.8 L528.0,326.2 L527.0,325.6 L522.5,319.6 L519.3,315.6 L514.8,312.1 L511.0,308.9 L508.7,308.7 L508.2,306.0 L507.2,306.1 L507.1,304.6 L505.9,304.5 L506.1,301.0 L505.4,301.1 L505.9,299.1 L505.8,295.7 L506.1,293.0 L506.6,292.0 L506.6,289.9 L505.4,290.1 L503.0,289.5 L499.4,291.0 L499.2,290.4 L500.0,285.8 L494.2,282.6 L492.3,280.5 L493.2,276.9 L494.4,273.3 L495.1,271.8 L497.3,272.7 L496.8,270.4 L495.9,268.8 L494.5,267.7 L495.0,266.7 L492.7,260.5 L495.2,259.1 L497.5,261.0 L501.0,262.9 L501.9,263.7 L503.6,264.3 L507.3,266.3 L511.6,267.5 L514.6,265.1 L514.4,264.6 L509.2,261.1 L509.5,259.8 L510.9,258.8 L513.0,256.6 L514.0,256.2 L515.6,256.9 L519.9,257.7 L523.0,258.6 L524.1,258.1 L525.2,258.8 L528.0,259.8 L534.2,260.6 L546.0,260.8 L552.0,260.8 L554.9,260.5 L555.5,257.7 L550.5,258.3 L546.1,258.0 L540.1,257.9 L536.3,257.7 L532.5,257.0 L530.1,256.3 L528.5,256.6 L520.4,254.6 L515.3,253.2 L509.1,251.6 L500.7,248.7 L497.6,248.1 L494.5,246.9 L492.5,247.1 L490.4,246.7 L487.3,246.6 L481.1,245.7 L482.1,239.6 L482.0,238.2 L484.1,237.7 L483.4,236.4 L482.2,236.6 L481.7,235.4 L483.0,234.6 L483.5,232.7 L485.1,231.2 L485.7,229.3 L484.6,227.3 L484.3,225.7 L486.1,221.8 L488.7,222.6 L489.9,217.4 L487.9,216.1 L489.5,213.0 L490.2,209.0 L491.5,208.7 L491.5,207.1 L493.9,207.1 L493.5,210.0 L494.1,214.1 L500.1,216.9 L501.0,216.9 L501.7,218.4 L503.1,217.8 L504.3,219.3 L503.8,220.4 L502.0,220.8 L501.3,221.4 L502.0,223.2 L504.4,225.9 L504.4,226.5 L506.4,228.2 L506.8,227.8 L507.9,229.3 L511.1,232.4 L514.3,233.4 L515.7,232.9 L517.4,231.7 L518.6,231.5 L518.8,228.5 L519.8,228.4 L519.6,226.9 L521.8,227.0 L521.5,225.9 L523.1,225.1 L524.2,225.4 L526.4,224.0 L526.3,222.4 L527.4,220.7 L527.7,219.2 L530.0,217.9 L530.6,215.5 L531.6,214.0 L534.0,211.4 L536.3,210.0 L537.8,209.8 L536.1,209.1 L537.1,206.9 L538.0,205.9 L539.5,205.1 L538.7,204.2 L540.1,203.7 L540.4,202.0 L541.7,200.6 L541.6,199.0 L543.2,197.7 L543.3,195.4 L543.1,191.5 L544.7,190.7 L546.6,190.3 L546.8,189.4 L547.8,189.9 L549.0,189.2 L549.4,190.0 L554.3,191.2 L558.0,190.6 L559.1,191.7 L560.7,192.2 L561.1,191.4 L563.2,192.4 L564.5,192.2 L565.4,193.1 L566.7,192.0 L568.5,193.4 L569.0,192.4 L570.3,193.2 L571.4,192.8 L572.5,193.9 L574.0,193.1 L574.5,191.8 L573.5,188.7 L574.9,187.1 L575.0,183.3 L574.4,180.1 L575.4,175.3 L577.3,172.7 L580.6,172.8 L592.8,172.2 L596.4,175.3 L597.5,174.6 L603.2,173.6 L602.0,170.2 L602.4,169.6 L600.4,169.5 L600.0,168.0 L601.8,167.7 L602.6,164.1 L604.7,161.6 L606.1,161.0 L605.7,160.2 L606.6,158.3 L603.1,157.1 L604.5,155.2 L603.0,154.0 L603.6,153.3 L605.1,154.1 L606.8,152.2 L605.5,151.4 L607.5,148.2 L612.0,148.9 L613.2,149.9 L615.0,149.9 L615.6,151.5 L617.4,151.8 L619.0,151.5 L619.7,150.5 L620.7,152.1 L621.9,152.3 L623.8,148.5 L628.7,144.6 L630.5,145.2 L632.8,141.9 L636.5,139.8 L637.0,136.8 L638.1,136.6 L640.1,137.2 L643.2,139.5 L645.2,140.4 L646.6,141.4 L648.3,141.0 L647.5,146.5 L644.1,154.6 Z M495.7,254.4 L497.6,254.3 L498.3,253.6 L497.7,252.9 L495.9,252.7 L495.9,252.3 L492.7,252.1 L491.6,251.8 L483.4,250.8 L484.3,250.4 L489.5,251.1 L491.1,251.0 L493.3,251.7 L494.7,251.6 L497.6,252.1 L499.1,253.7 L499.1,254.5 L497.3,255.0 L495.7,254.9 Z M479.6,250.5 L479.7,250.2 L480.1,250.3 L480.3,250.5 Z" />
</g>
<text x="350" y="714" text-anchor="middle" font-family="Verdana" font-size="8" stroke-opacity="0.6">Copyright (c) 2020 Highsoft AS, Based on data from GeoBasis-DE / BKG 2014</text>

</svg>