<?xml version="1.0" encoding="utf-8" standalone="no"?>
<!DOCTYPE svg PUBLIC "-//W3C//DTD SVG 1.1//EN" "http://www.w3.org/Graphics/SVG/1.1/DTD/svg11.dtd">

<svg version="1.1" height="700pt" width="700pt" xmlns="http://www.w3.org/2000/svg" xmlns:xlink="http://www.w3.org/1999/xlink">
<desc>
Map version: 2.1.0
Copyright (c) 2023 Highsoft AS, Based on data from GeoBasis-DE / BKG 2014
</desc>
<title>Rheinland-Pfalz</title>
<g id="admin2">

<g id="DE.RP">
  <desc xmlns="http://www.highcharts.com/svg/namespace">
    <labelrank>3</labelrank>
    <hasc>DE.RP</hasc>
    <alt-name>Rhineland-Palatinate</alt-name>
    <woe-id>2345488</woe-id>
    <subregion>NULL</subregion>
    <fips>GM08</fips>
    <postal-code>RP</postal-code>
    <name>Rheinland-Pfalz</name>
    <country>Germany</country>
    <type-en>State</type-en>
    <region>NULL</region>
    <longitude>7.36974</longitude>
    <woe-name>Rheinland-Pfalz</woe-name>
    <latitude>49.8685</latitude>
    <woe-label>Rhineland-Palatinate, DE, Germany</woe-label>
    <type>Land</type>
    <hc-key>de-rp</hc-key>
    <hc-a2>RP</hc-a2>
  </desc>
</g>

<g id="DE">
  <desc xmlns="http://www.highcharts.com/svg/namespace">
    <name>Germany</name>
    <labelrank>2</labelrank>
    <country-abbrev>Ger.</country-abbrev>
    <subregion>Western Europe</subregion>
    <region-wb>Europe &amp; Central Asia</region-wb>
    <iso-a3>DEU</iso-a3>
    <iso-a2>DE</iso-a2>
    <woe-id>23424829</woe-id>
    <continent>Europe</continent>
    <hc-key>de</hc-key>
    <hc-a2>GE</hc-a2>
  </desc>
</g>

<path fill="#CEE3F5" stroke="#6E6E6E" stroke-width="0.4" id="DE.RP.07211000" d="M131.8,381.2 L131.9,383.6 L133.7,386.1 L132.5,388.2 L134.0,390.7 L136.8,391.1 L140.2,393.4 L136.5,395.1 L131.5,396.4 L131.2,400.6 L133.3,399.7 L136.6,401.3 L137.9,404.0 L139.4,404.3 L139.1,406.8 L134.3,408.1 L133.3,406.5 L129.6,408.0 L127.1,410.3 L127.1,412.3 L128.8,413.2 L129.9,411.2 L131.9,415.4 L136.8,420.1 L139.7,420.0 L137.8,423.0 L135.3,420.6 L133.0,421.6 L133.6,423.7 L132.1,426.0 L132.7,427.5 L130.2,427.4 L128.9,429.9 L122.5,430.2 L121.8,428.8 L119.7,429.6 L118.5,432.3 L116.8,433.3 L114.0,431.8 L109.6,433.1 L109.1,429.9 L112.1,425.5 L109.2,426.1 L101.0,429.9 L99.0,431.8 L97.4,431.8 L98.1,427.8 L96.2,422.3 L97.4,420.1 L96.6,418.4 L102.4,412.4 L106.2,413.4 L111.7,410.1 L109.6,407.9 L105.8,407.2 L105.4,404.4 L108.0,404.6 L107.1,402.6 L112.4,403.5 L115.1,403.0 L114.6,401.5 L116.0,398.8 L115.9,396.4 L118.7,395.4 L121.0,393.1 L121.8,389.6 L124.8,382.3 L125.2,379.1 L129.2,377.7 Z">
  <desc xmlns="http://www.highcharts.com/svg/namespace">
    <name>Trier</name>
    <bundesland>DE.RP</bundesland>
    <hc-middle-x>0.51</hc-middle-x>
    <hc-middle-y>0.71</hc-middle-y>
    <hc-key>de-rp-07211000</hc-key>
    <hc-a2>TR</hc-a2>
  </desc>
</path>

<path fill="#CEE3F5" stroke="#6E6E6E" stroke-width="0.4" id="DE.RP.07138000" d="M364.6,120.8 L367.0,122.6 L364.0,127.8 L364.3,124.3 L362.1,122.0 Z M254.9,110.2 L255.7,108.6 L263.8,108.8 L264.8,109.9 L266.7,109.0 L274.1,107.6 L275.9,105.6 L277.7,105.9 L279.7,104.3 L282.3,105.5 L283.3,104.2 L288.1,101.7 L287.5,96.1 L291.3,90.2 L289.8,88.2 L290.5,84.9 L288.0,84.6 L289.3,83.5 L292.0,77.5 L297.2,79.0 L299.4,77.6 L303.0,80.6 L306.9,80.2 L309.4,86.8 L311.9,89.5 L312.8,94.2 L316.5,95.2 L315.2,99.1 L316.4,103.4 L313.9,107.3 L315.5,110.8 L311.4,110.7 L308.3,113.5 L308.9,115.4 L312.9,115.9 L311.9,117.1 L313.6,125.9 L316.8,126.8 L318.2,129.8 L322.8,130.1 L326.4,132.8 L326.8,130.2 L330.6,123.0 L332.7,120.6 L330.7,119.1 L329.1,116.4 L329.2,110.2 L332.6,112.4 L334.1,110.8 L334.3,115.5 L337.4,113.3 L336.1,111.6 L336.8,109.5 L335.9,104.2 L339.3,103.9 L340.4,101.7 L344.5,103.6 L345.3,105.1 L347.8,102.1 L350.0,101.4 L350.9,103.1 L354.2,102.3 L355.0,104.6 L357.0,103.8 L360.0,105.0 L362.3,110.4 L364.8,112.6 L360.0,115.9 L359.1,115.6 L356.6,122.5 L360.0,122.9 L361.5,127.5 L360.8,132.2 L362.8,129.5 L363.1,131.7 L365.2,134.3 L362.3,138.2 L364.5,138.6 L364.8,141.0 L363.0,146.2 L359.0,147.1 L356.8,149.3 L358.0,151.3 L356.7,154.1 L358.9,156.1 L356.9,159.4 L355.7,157.5 L353.6,157.8 L352.2,161.0 L349.1,160.3 L345.7,160.6 L341.8,162.1 L340.0,164.4 L340.7,168.2 L339.5,169.3 L335.7,168.9 L335.6,173.5 L330.6,177.7 L330.7,182.0 L329.6,184.2 L326.1,183.1 L322.7,183.6 L320.4,185.6 L315.4,186.4 L313.0,186.1 L308.0,182.1 L305.6,176.8 L301.5,174.5 L294.9,174.7 L291.6,172.7 L284.8,165.7 L283.5,162.7 L279.5,157.7 L275.3,151.7 L273.1,147.5 L269.7,136.1 L268.8,131.7 L266.2,127.7 L262.9,126.1 L256.3,123.9 L254.2,121.1 L255.2,117.1 Z M359.8,133.6 L359.8,132.7 L356.7,131.6 L357.4,134.4 Z">
  <desc xmlns="http://www.highcharts.com/svg/namespace">
    <name>Neuwied</name>
    <bundesland>DE.RP</bundesland>
    <hc-middle-x>0.51</hc-middle-x>
    <hc-middle-y>0.66</hc-middle-y>
    <hc-key>de-rp-07138000</hc-key>
    <hc-a2>NE</hc-a2>
  </desc>
</path>

<path fill="#CEE3F5" stroke="#6E6E6E" stroke-width="0.4" id="DE.RP.07143000" d="M359.8,133.6 L357.4,134.4 L356.7,131.6 L359.8,132.7 Z M441.4,87.4 L445.8,88.3 L450.4,84.5 L451.0,85.6 L454.7,85.4 L457.1,87.4 L460.6,92.6 L457.1,97.0 L457.0,101.8 L460.6,107.5 L463.7,110.9 L463.1,115.7 L460.4,118.6 L465.2,121.4 L466.2,124.4 L465.0,128.5 L461.5,137.3 L462.8,139.5 L458.5,140.3 L456.8,142.0 L458.2,145.3 L452.1,144.9 L451.4,143.8 L447.6,143.9 L446.7,140.0 L442.9,138.6 L442.2,137.1 L440.2,139.0 L438.1,139.3 L438.1,141.5 L433.7,146.7 L432.7,146.3 L430.0,149.3 L430.8,151.0 L427.7,153.0 L429.2,157.6 L426.7,158.7 L426.7,162.5 L428.2,163.2 L428.6,166.7 L430.2,167.5 L431.6,170.4 L433.7,171.1 L433.7,173.9 L431.5,176.5 L429.1,176.9 L428.8,178.4 L425.6,179.1 L428.7,180.5 L427.7,181.3 L426.9,186.1 L425.4,187.4 L423.4,187.0 L423.0,188.8 L424.6,190.2 L423.3,191.9 L419.0,193.4 L417.0,187.1 L411.4,188.5 L408.1,191.8 L404.9,191.3 L404.2,192.9 L405.2,197.9 L401.3,197.6 L398.3,194.9 L397.2,197.3 L400.5,200.2 L403.9,200.2 L402.7,203.7 L403.1,205.4 L400.7,207.6 L401.5,209.6 L399.1,210.6 L397.6,208.2 L395.3,209.4 L391.6,208.7 L390.8,206.2 L387.7,206.2 L384.6,205.0 L382.1,205.5 L379.9,207.3 L378.8,201.7 L380.0,201.3 L383.3,197.4 L382.7,193.8 L380.4,192.8 L378.6,193.6 L376.2,196.7 L374.6,197.4 L376.1,193.8 L375.9,191.4 L373.3,192.9 L371.1,198.0 L372.0,201.4 L370.2,204.0 L367.8,203.7 L362.8,206.3 L361.9,208.3 L360.4,205.5 L362.1,203.4 L359.6,202.3 L360.0,200.8 L355.0,197.8 L354.0,196.6 L351.5,197.0 L350.6,195.1 L351.9,191.3 L357.4,191.1 L358.9,189.4 L356.4,186.6 L357.3,183.8 L352.9,180.9 L350.9,178.9 L348.8,175.1 L352.0,171.6 L351.6,170.1 L349.0,171.7 L346.6,176.0 L343.9,172.0 L344.8,169.9 L340.7,168.2 L340.0,164.4 L341.8,162.1 L345.7,160.6 L349.1,160.3 L352.2,161.0 L353.6,157.8 L355.7,157.5 L356.9,159.4 L358.9,156.1 L356.7,154.1 L358.0,151.3 L356.8,149.3 L359.0,147.1 L363.0,146.2 L364.8,141.0 L364.5,138.6 L362.3,138.2 L365.2,134.3 L363.1,131.7 L362.8,129.5 L360.8,132.2 L361.5,127.5 L360.0,122.9 L356.6,122.5 L359.1,115.6 L360.0,115.9 L364.8,112.6 L365.3,112.7 L364.9,106.3 L365.7,101.4 L363.2,99.3 L364.0,94.9 L366.2,94.3 L369.6,95.1 L370.8,93.3 L370.8,89.4 L368.7,87.9 L365.1,87.5 L364.4,83.0 L368.6,79.8 L371.4,79.3 L373.2,76.3 L370.1,77.5 L368.9,76.2 L371.0,73.8 L373.8,74.9 L376.5,73.9 L374.9,71.3 L377.6,72.0 L380.6,74.1 L381.9,72.4 L384.8,74.6 L388.8,74.7 L389.4,76.7 L387.7,79.9 L390.8,83.2 L395.8,81.7 L401.0,87.1 L399.4,88.2 L399.8,91.1 L403.0,92.6 L407.4,93.6 L408.3,92.5 L404.2,90.2 L405.9,87.3 L408.0,80.5 L410.7,79.4 L413.7,80.2 L417.0,82.5 L420.5,83.0 L425.4,89.1 L424.2,94.0 L430.7,94.9 L433.6,90.6 L438.8,87.5 Z M364.6,120.8 L362.1,122.0 L364.3,124.3 L364.0,127.8 L367.0,122.6 Z">
  <desc xmlns="http://www.highcharts.com/svg/namespace">
    <name>Westerwaldkreis</name>
    <bundesland>DE.RP</bundesland>
    <hc-middle-x>0.43</hc-middle-x>
    <hc-middle-y>0.55</hc-middle-y>
    <hc-key>de-rp-07143000</hc-key>
    <hc-a2>WE</hc-a2>
  </desc>
</path>

<path fill="#CEE3F5" stroke="#6E6E6E" stroke-width="0.4" id="DE.RP.07313000" d="M451.4,626.1 L448.3,628.2 L447.9,630.9 L446.2,632.7 L440.0,632.7 L440.1,631.1 L437.7,629.6 L438.2,627.5 L440.2,627.0 L439.9,625.0 L441.7,621.9 L438.5,621.9 L438.8,620.5 L434.3,619.7 L430.1,619.7 L429.6,618.5 L435.4,617.9 L435.1,616.6 L440.5,615.8 L438.7,610.5 L439.6,608.5 L445.7,607.0 L450.1,605.2 L450.9,606.2 L453.9,605.8 L455.4,607.4 L461.6,607.5 L462.6,612.2 L461.8,614.9 L466.8,614.1 L464.7,616.3 L464.4,619.9 L466.5,619.8 L466.9,623.2 L465.8,626.5 L466.5,629.8 L461.6,628.0 L461.1,625.8 L455.5,627.6 Z M423.9,625.2 L422.4,627.2 L419.9,624.5 L421.4,623.3 Z M396.2,587.0 L395.3,586.3 L395.3,576.3 L401.2,577.0 L404.3,575.6 L407.4,575.8 L409.1,577.7 L411.2,578.1 L411.3,583.3 L412.2,584.0 L415.1,582.0 L417.5,583.1 L417.6,586.7 L416.9,591.3 L419.2,594.1 L417.3,595.8 L413.1,594.8 L412.0,592.1 L410.2,591.9 L408.5,589.9 L411.0,587.4 L413.3,588.3 L413.5,586.1 L408.2,585.0 L408.0,586.4 L404.3,588.5 L403.6,587.4 L400.1,588.3 L397.9,589.9 Z">
  <desc xmlns="http://www.highcharts.com/svg/namespace">
    <name>Landau in der Pfalz</name>
    <bundesland>DE.RP</bundesland>
    <hc-middle-x>0.74</hc-middle-x>
    <hc-middle-y>0.76</hc-middle-y>
    <hc-key>de-rp-07313000</hc-key>
    <hc-a2>LI</hc-a2>
  </desc>
</path>

<path fill="#CEE3F5" stroke="#6E6E6E" stroke-width="0.4" id="DE.RP.07317000" d="M327.7,633.7 L330.3,628.9 L329.9,626.7 L331.2,624.9 L327.7,625.2 L324.1,627.5 L316.5,619.3 L315.4,617.0 L313.3,615.9 L314.2,611.1 L312.9,610.7 L315.3,608.9 L315.7,610.1 L322.3,608.0 L326.1,603.0 L333.2,603.6 L333.0,606.8 L334.2,605.9 L336.6,606.8 L336.4,609.1 L339.3,607.8 L344.6,607.2 L345.1,605.4 L349.9,605.5 L347.5,610.2 L346.0,611.2 L347.9,612.9 L345.2,617.1 L345.5,620.4 L340.1,623.3 L342.1,625.6 L340.6,628.7 L335.4,629.8 L334.5,628.5 L329.9,634.3 L327.0,635.0 Z">
  <desc xmlns="http://www.highcharts.com/svg/namespace">
    <name>Pirmasens</name>
    <bundesland>DE.RP</bundesland>
    <hc-middle-x>0.58</hc-middle-x>
    <hc-middle-y>0.39</hc-middle-y>
    <hc-key>de-rp-07317000</hc-key>
    <hc-a2>PI</hc-a2>
  </desc>
</path>

<path fill="#CEE3F5" stroke="#6E6E6E" stroke-width="0.4" id="DE.RP.07131000" d="M159.5,200.2 L160.1,197.5 L156.2,195.2 L153.8,190.2 L153.1,187.3 L155.2,184.8 L155.2,181.7 L156.6,179.3 L153.7,177.8 L153.7,173.7 L151.1,175.3 L147.9,173.6 L147.5,171.8 L152.3,168.5 L152.9,165.7 L151.3,164.5 L151.1,161.3 L149.4,162.8 L148.0,160.6 L151.3,160.0 L153.5,156.6 L161.0,154.4 L162.1,155.5 L163.3,161.2 L168.7,163.7 L172.8,167.9 L175.4,167.2 L177.8,164.3 L183.4,162.9 L183.0,159.7 L184.5,157.3 L182.8,154.7 L185.0,151.1 L180.9,149.4 L183.1,145.7 L180.1,144.8 L179.6,142.3 L183.9,141.1 L183.4,142.4 L185.7,143.0 L190.8,139.6 L188.9,132.9 L191.0,130.8 L195.6,129.9 L196.7,132.1 L201.1,132.0 L202.9,129.2 L206.1,129.6 L210.3,125.4 L214.8,119.4 L219.6,115.3 L220.2,117.4 L221.8,117.4 L222.4,120.2 L228.2,122.6 L230.4,120.5 L232.1,117.2 L232.1,114.6 L233.9,113.6 L235.3,115.7 L238.4,117.8 L240.2,118.0 L240.6,114.7 L241.8,112.9 L245.9,113.8 L246.2,111.5 L249.8,109.9 L250.1,105.6 L252.0,101.3 L254.8,100.9 L254.9,110.2 L255.2,117.1 L254.2,121.1 L256.3,123.9 L262.9,126.1 L266.2,127.7 L268.8,131.7 L269.7,136.1 L273.1,147.5 L275.3,151.7 L279.5,157.7 L283.5,162.7 L280.8,164.5 L280.8,166.0 L277.4,167.3 L274.9,166.3 L272.9,168.4 L273.1,170.0 L270.3,171.6 L271.1,172.5 L270.0,179.7 L265.3,179.8 L263.1,180.5 L263.6,183.1 L265.6,181.3 L269.6,183.5 L269.8,185.5 L267.9,186.7 L267.2,190.0 L263.4,191.6 L260.3,189.4 L259.3,187.4 L257.3,187.1 L256.8,184.5 L255.5,186.0 L250.6,186.3 L248.7,184.9 L245.7,184.9 L244.5,186.7 L241.4,188.0 L238.6,191.2 L234.1,192.5 L234.6,189.5 L232.9,186.5 L228.1,187.4 L227.5,190.5 L222.2,188.3 L217.8,189.7 L216.5,191.2 L214.8,190.6 L213.3,193.6 L209.1,195.2 L207.7,192.0 L205.7,195.6 L206.8,196.9 L203.6,202.3 L200.3,204.6 L201.0,205.9 L200.8,208.2 L197.0,210.1 L197.8,213.1 L193.5,212.6 L191.3,217.3 L191.6,218.1 L187.7,220.4 L185.2,219.9 L181.5,217.4 L179.8,217.3 L179.8,215.3 L175.1,215.7 L174.3,214.4 L171.1,213.3 L167.1,215.9 L163.2,213.7 L162.4,211.8 L157.4,212.6 L157.8,210.4 L159.3,210.4 L160.8,208.1 L158.8,206.2 L160.5,204.7 L158.9,203.8 L161.4,201.1 Z">
  <desc xmlns="http://www.highcharts.com/svg/namespace">
    <name>Ahrweiler</name>
    <bundesland>DE.RP</bundesland>
    <hc-middle-x>0.49</hc-middle-x>
    <hc-middle-y>0.56</hc-middle-y>
    <hc-key>de-rp-07131000</hc-key>
    <hc-a2>AH</hc-a2>
  </desc>
</path>

<path fill="#CEE3F5" stroke="#6E6E6E" stroke-width="0.4" id="DE.RP.07319000" d="M530.2,430.2 L528.3,433.2 L523.9,435.7 L519.5,436.7 L513.7,439.4 L511.0,441.4 L509.6,443.7 L509.4,448.7 L512.4,455.4 L514.8,466.0 L517.6,471.0 L521.6,475.2 L522.6,478.2 L520.5,478.8 L514.2,474.5 L510.6,475.5 L510.3,474.0 L507.6,474.0 L506.0,478.0 L503.4,476.2 L501.4,478.1 L493.3,479.9 L491.8,480.8 L486.3,480.2 L486.1,479.2 L485.2,475.3 L485.4,469.7 L483.5,470.0 L482.1,466.5 L482.9,459.4 L483.8,458.3 L491.5,456.7 L490.1,451.8 L487.6,450.8 L486.8,444.7 L493.7,443.3 L495.3,445.2 L498.2,444.9 L498.6,446.5 L506.2,447.0 L505.5,442.5 L507.9,442.5 L507.3,437.0 L508.1,437.0 L508.6,430.2 L512.6,430.2 L514.4,432.2 L514.5,429.1 L519.7,428.0 L524.9,431.7 L528.4,430.0 Z">
  <desc xmlns="http://www.highcharts.com/svg/namespace">
    <name>Worms</name>
    <bundesland>DE.RP</bundesland>
    <hc-middle-x>0.40</hc-middle-x>
    <hc-middle-y>0.63</hc-middle-y>
    <hc-key>de-rp-07319000</hc-key>
    <hc-a2>WO</hc-a2>
  </desc>
</path>

<path fill="#CEE3F5" stroke="#6E6E6E" stroke-width="0.4" id="DE.RP.07137000" d="M201.0,205.9 L200.3,204.6 L203.6,202.3 L206.8,196.9 L205.7,195.6 L207.7,192.0 L209.1,195.2 L213.3,193.6 L214.8,190.6 L216.5,191.2 L217.8,189.7 L222.2,188.3 L227.5,190.5 L228.1,187.4 L232.9,186.5 L234.6,189.5 L234.1,192.5 L238.6,191.2 L241.4,188.0 L244.5,186.7 L245.7,184.9 L248.7,184.9 L250.6,186.3 L255.5,186.0 L256.8,184.5 L257.3,187.1 L259.3,187.4 L260.3,189.4 L263.4,191.6 L267.2,190.0 L267.9,186.7 L269.8,185.5 L269.6,183.5 L265.6,181.3 L263.6,183.1 L263.1,180.5 L265.3,179.8 L270.0,179.7 L271.1,172.5 L270.3,171.6 L273.1,170.0 L272.9,168.4 L274.9,166.3 L277.4,167.3 L280.8,166.0 L280.8,164.5 L283.5,162.7 L284.8,165.7 L291.6,172.7 L294.9,174.7 L301.5,174.5 L305.6,176.8 L308.0,182.1 L313.0,186.1 L315.4,186.4 L320.4,185.6 L322.7,183.6 L326.1,183.1 L329.6,184.2 L330.7,182.0 L330.6,177.7 L335.6,173.5 L335.7,168.9 L339.5,169.3 L340.7,168.2 L344.8,169.9 L343.9,172.0 L346.6,176.0 L349.0,171.7 L351.6,170.1 L352.0,171.6 L348.8,175.1 L350.9,178.9 L352.9,180.9 L357.3,183.8 L356.4,186.6 L358.9,189.4 L357.4,191.1 L351.9,191.3 L350.6,195.1 L351.5,197.0 L354.0,196.6 L355.0,197.8 L350.4,199.0 L350.2,200.7 L347.7,199.5 L345.1,201.2 L343.3,199.9 L343.8,197.9 L341.2,193.9 L336.8,190.3 L334.2,187.3 L329.7,191.6 L326.3,193.5 L326.1,196.2 L323.8,197.2 L320.6,197.1 L319.6,198.9 L314.5,203.8 L314.8,206.7 L316.9,209.3 L316.1,211.6 L318.1,215.2 L319.9,213.2 L324.4,214.1 L325.3,218.1 L320.9,222.8 L322.1,228.2 L326.2,231.2 L327.8,229.9 L329.8,232.2 L333.8,229.4 L334.1,228.2 L336.9,227.2 L339.2,229.8 L341.1,228.6 L349.1,236.8 L351.3,240.3 L351.2,243.3 L347.7,245.8 L347.2,244.0 L343.6,242.6 L342.3,239.4 L339.9,241.3 L336.6,240.9 L334.0,242.5 L332.8,241.0 L328.5,241.0 L325.3,238.3 L320.5,242.4 L319.2,246.1 L318.7,250.3 L315.1,252.1 L313.6,255.7 L311.9,256.9 L309.5,260.7 L307.2,261.5 L306.8,259.3 L304.5,261.4 L305.6,258.9 L305.3,255.9 L302.7,258.0 L300.3,256.3 L300.8,258.5 L298.5,260.7 L299.3,262.7 L297.1,263.4 L300.5,269.4 L297.5,271.1 L295.7,274.1 L293.3,274.9 L292.0,273.4 L289.5,274.6 L286.9,267.5 L285.6,268.5 L284.4,266.9 L281.2,266.4 L286.0,265.1 L287.3,263.8 L290.2,257.5 L286.3,256.1 L285.7,254.3 L282.6,258.0 L282.5,261.5 L281.5,260.3 L274.1,260.8 L271.4,258.0 L269.9,259.5 L270.6,256.6 L273.1,258.1 L275.4,255.8 L274.6,253.1 L272.7,253.1 L268.4,245.9 L264.9,241.7 L259.7,240.5 L259.4,238.4 L257.7,238.9 L255.8,237.6 L252.4,239.2 L248.5,237.1 L245.6,236.5 L246.5,235.2 L246.0,231.6 L243.9,233.4 L242.9,230.9 L240.9,231.0 L238.2,233.0 L238.3,234.1 L234.2,236.7 L231.9,237.1 L231.0,235.2 L232.0,233.2 L229.4,234.4 L226.6,233.3 L221.2,234.2 L219.4,230.9 L213.5,227.4 L207.9,225.6 L208.1,228.4 L203.7,226.9 L203.3,225.1 L201.2,224.2 L198.2,220.9 L201.8,218.7 L201.8,216.5 L205.2,216.4 L208.4,212.7 L213.0,211.1 L207.3,208.9 L206.6,205.8 Z">
  <desc xmlns="http://www.highcharts.com/svg/namespace">
    <name>Mayen-Koblenz</name>
    <bundesland>DE.RP</bundesland>
    <hc-middle-x>0.48</hc-middle-x>
    <hc-middle-y>0.50</hc-middle-y>
    <hc-key>de-rp-07137000</hc-key>
    <hc-a2>MK</hc-a2>
  </desc>
</path>

<path fill="#CEE3F5" stroke="#6E6E6E" stroke-width="0.4" id="DE.RP.07231000" d="M250.9,371.3 L253.9,374.7 L252.7,376.0 L254.1,377.4 L254.5,375.4 L259.1,379.8 L259.8,382.7 L248.6,390.7 L242.7,396.8 L236.1,401.9 L232.5,405.8 L228.4,408.8 L227.8,410.6 L228.8,415.6 L227.2,418.3 L224.3,419.6 L220.7,425.5 L217.6,428.2 L214.8,432.4 L211.7,435.3 L208.4,439.5 L205.4,442.6 L203.6,442.2 L199.1,445.0 L193.8,443.0 L194.7,441.4 L192.8,438.8 L190.2,437.3 L190.7,433.1 L192.6,430.8 L191.0,427.0 L187.7,426.4 L186.5,422.6 L181.0,419.6 L180.7,418.1 L177.8,417.5 L177.6,414.1 L176.3,413.8 L175.3,409.8 L173.8,408.1 L170.6,406.5 L171.9,404.8 L175.6,403.7 L177.0,402.3 L177.1,398.7 L179.4,396.9 L181.9,398.5 L187.7,396.7 L188.1,394.3 L186.8,391.6 L179.6,390.6 L177.0,388.2 L175.4,384.2 L174.1,383.8 L172.8,380.1 L173.5,378.4 L171.8,377.1 L172.1,374.9 L170.7,371.1 L169.4,373.0 L169.7,376.2 L166.0,377.1 L164.8,375.5 L160.3,376.8 L159.4,378.1 L157.4,376.9 L153.7,380.6 L152.0,378.8 L153.5,377.2 L150.8,371.3 L145.1,370.6 L146.0,366.2 L144.3,365.8 L141.9,367.2 L138.8,370.3 L135.6,367.8 L136.9,366.9 L134.5,361.2 L134.8,355.8 L131.9,354.0 L131.7,351.7 L133.2,352.7 L133.9,348.4 L133.3,345.8 L130.6,344.8 L128.2,339.7 L131.4,337.4 L135.8,332.8 L139.1,333.3 L136.7,329.0 L136.9,326.7 L133.1,319.5 L134.2,316.1 L132.9,314.0 L137.4,311.5 L133.1,306.4 L132.5,300.8 L133.9,297.6 L134.3,295.9 L138.0,295.2 L140.7,295.6 L141.3,293.4 L145.6,289.4 L145.0,287.6 L146.6,286.1 L151.2,287.7 L151.2,289.7 L160.2,285.8 L161.9,284.4 L169.9,282.0 L172.4,286.0 L174.6,286.9 L174.4,290.4 L177.8,292.4 L180.4,298.5 L180.6,302.2 L181.7,302.6 L188.9,297.7 L190.8,300.7 L194.6,297.7 L194.7,294.5 L197.3,294.6 L198.1,300.1 L202.7,299.2 L206.7,303.5 L207.0,305.9 L211.5,306.5 L214.6,305.0 L218.3,307.0 L221.5,306.4 L224.2,308.1 L223.8,312.0 L225.2,312.8 L225.1,317.2 L230.0,320.8 L232.2,330.2 L234.3,330.4 L234.6,333.6 L238.2,332.7 L243.9,335.3 L245.9,335.3 L244.5,338.7 L247.1,342.5 L249.5,343.9 L251.3,348.9 L258.6,351.6 L253.7,360.4 L250.6,361.9 L250.1,364.6 L248.6,365.9 Z">
  <desc xmlns="http://www.highcharts.com/svg/namespace">
    <name>Bernkastel-Wittlich</name>
    <bundesland>DE.RP</bundesland>
    <hc-middle-x>0.45</hc-middle-x>
    <hc-middle-y>0.38</hc-middle-y>
    <hc-key>de-rp-07231000</hc-key>
    <hc-a2>BW</hc-a2>
  </desc>
</path>

<path fill="#CEE3F5" stroke="#6E6E6E" stroke-width="0.4" id="DE.RP.07134000" d="M208.4,439.5 L211.7,435.3 L214.8,432.4 L217.6,428.2 L220.7,425.5 L224.3,419.6 L227.2,418.3 L228.8,415.6 L227.8,410.6 L228.4,408.8 L232.5,405.8 L236.1,401.9 L242.7,396.8 L248.6,390.7 L259.8,382.7 L259.1,379.8 L254.5,375.4 L254.1,377.4 L252.7,376.0 L253.9,374.7 L250.9,371.3 L255.3,367.9 L258.3,369.3 L264.4,366.5 L265.7,369.4 L264.2,372.7 L267.2,374.0 L268.5,372.6 L271.1,372.2 L274.1,366.8 L275.8,366.4 L277.4,368.2 L282.0,367.0 L288.6,368.2 L290.3,369.3 L289.8,371.8 L290.1,380.7 L288.6,381.5 L291.0,382.5 L289.4,385.8 L288.4,385.2 L290.5,393.3 L290.1,394.6 L292.3,397.4 L292.0,399.9 L294.5,401.5 L300.7,407.2 L299.5,412.7 L295.3,414.4 L293.9,418.6 L294.0,420.9 L295.7,420.9 L299.7,425.4 L302.7,422.2 L305.2,420.9 L305.9,423.8 L308.9,424.6 L312.4,432.0 L310.2,433.4 L311.1,437.1 L314.4,435.4 L318.3,435.5 L319.0,436.4 L317.4,439.4 L317.9,443.3 L318.9,444.4 L316.5,446.2 L306.7,446.0 L304.7,447.7 L302.2,447.1 L300.1,448.8 L300.5,450.2 L298.1,453.1 L295.6,454.2 L295.7,457.4 L296.8,457.8 L298.2,461.8 L298.3,466.1 L299.8,468.0 L298.7,470.6 L299.3,473.8 L297.7,475.9 L294.0,476.7 L289.0,475.0 L285.8,472.8 L284.8,474.8 L283.4,473.3 L280.8,474.3 L274.0,482.4 L274.3,484.4 L270.5,485.9 L271.7,488.0 L268.3,487.8 L267.7,489.0 L261.2,489.8 L260.6,490.6 L260.2,486.1 L259.0,485.7 L257.5,482.2 L259.0,478.0 L257.1,478.6 L255.3,481.5 L252.9,481.4 L252.5,483.2 L248.7,484.5 L245.4,483.3 L245.5,480.1 L241.0,480.0 L237.2,477.1 L237.3,472.2 L234.5,472.3 L232.3,470.4 L228.6,472.8 L224.6,472.9 L218.8,470.1 L217.9,471.6 L213.3,462.8 L211.3,460.4 L204.2,457.0 L209.6,451.8 L209.9,450.1 L208.2,445.8 L210.7,444.0 L213.1,444.0 Z">
  <desc xmlns="http://www.highcharts.com/svg/namespace">
    <name>Birkenfeld</name>
    <bundesland>DE.RP</bundesland>
    <hc-middle-x>0.52</hc-middle-x>
    <hc-middle-y>0.61</hc-middle-y>
    <hc-key>de-rp-07134000</hc-key>
    <hc-a2>BI</hc-a2>
  </desc>
</path>

<path fill="#CEE3F5" stroke="#6E6E6E" stroke-width="0.4" id="DE.RP.07235000" d="M208.4,439.5 L213.1,444.0 L210.7,444.0 L208.2,445.8 L209.9,450.1 L209.6,451.8 L204.2,457.0 L200.5,460.9 L198.4,459.7 L194.4,463.4 L195.8,458.2 L191.9,458.7 L186.5,461.6 L186.0,458.1 L182.3,459.4 L183.3,464.2 L181.0,463.9 L176.0,465.2 L173.0,464.3 L171.1,466.2 L169.8,469.6 L166.8,466.9 L164.8,467.9 L161.9,473.5 L160.4,472.4 L159.4,475.8 L154.5,472.5 L150.9,474.3 L146.1,479.9 L143.0,480.7 L138.9,484.1 L135.9,483.1 L129.9,485.4 L128.1,489.3 L125.6,491.7 L124.1,487.0 L119.6,488.8 L117.0,485.8 L115.4,490.0 L111.9,489.1 L108.9,490.9 L109.1,493.5 L106.1,493.6 L107.0,495.8 L105.6,497.4 L101.9,497.2 L100.0,495.5 L100.0,493.1 L96.5,488.9 L94.4,490.4 L90.7,489.1 L87.0,492.9 L85.1,492.5 L85.2,490.4 L81.5,492.0 L78.8,491.0 L76.5,487.8 L73.5,486.9 L70.9,488.8 L70.2,486.8 L65.9,484.9 L62.1,486.8 L59.9,484.8 L57.5,485.1 L54.4,483.7 L54.5,480.8 L49.8,476.8 L50.0,475.0 L52.5,473.8 L54.3,474.8 L55.0,473.0 L53.6,469.5 L56.0,466.7 L60.1,465.0 L62.2,461.8 L64.9,459.3 L66.6,453.9 L69.6,447.1 L68.7,445.5 L66.4,445.2 L67.4,442.3 L71.4,439.3 L74.0,435.2 L78.9,433.1 L82.9,428.6 L85.5,427.6 L83.1,423.8 L84.6,422.6 L86.4,424.6 L87.7,423.3 L84.5,419.8 L84.4,413.6 L88.6,410.4 L88.5,407.9 L86.8,405.9 L88.6,402.9 L86.3,401.2 L86.6,399.6 L89.6,397.9 L92.0,394.9 L89.6,392.2 L88.1,395.8 L86.1,393.3 L82.4,392.4 L79.4,389.0 L82.7,387.7 L81.6,387.1 L86.3,382.9 L89.4,382.0 L92.9,383.1 L92.8,379.9 L91.3,378.0 L95.3,374.8 L98.8,374.3 L101.9,372.9 L103.8,373.3 L105.1,371.4 L105.3,366.9 L110.0,363.3 L110.2,365.2 L108.7,368.7 L110.2,369.8 L113.1,368.1 L116.9,370.9 L118.1,368.1 L120.6,366.2 L126.5,363.9 L125.5,362.3 L127.1,361.6 L127.0,359.7 L129.8,358.9 L130.6,356.5 L134.5,361.2 L136.9,366.9 L135.6,367.8 L138.8,370.3 L141.9,367.2 L144.3,365.8 L146.0,366.2 L145.1,370.6 L150.8,371.3 L153.5,377.2 L152.0,378.8 L153.7,380.6 L157.4,376.9 L159.4,378.1 L160.3,376.8 L164.8,375.5 L166.0,377.1 L169.7,376.2 L169.4,373.0 L170.7,371.1 L172.1,374.9 L171.8,377.1 L173.5,378.4 L172.8,380.1 L174.1,383.8 L175.4,384.2 L177.0,388.2 L179.6,390.6 L186.8,391.6 L188.1,394.3 L187.7,396.7 L181.9,398.5 L179.4,396.9 L177.1,398.7 L177.0,402.3 L175.6,403.7 L171.9,404.8 L170.6,406.5 L173.8,408.1 L175.3,409.8 L176.3,413.8 L177.6,414.1 L177.8,417.5 L180.7,418.1 L181.0,419.6 L186.5,422.6 L187.7,426.4 L191.0,427.0 L192.6,430.8 L190.7,433.1 L190.2,437.3 L192.8,438.8 L194.7,441.4 L193.8,443.0 L199.1,445.0 L203.6,442.2 L205.4,442.6 Z M131.8,381.2 L129.2,377.7 L125.2,379.1 L124.8,382.3 L121.8,389.6 L121.0,393.1 L118.7,395.4 L115.9,396.4 L116.0,398.8 L114.6,401.5 L115.1,403.0 L112.4,403.5 L107.1,402.6 L108.0,404.6 L105.4,404.4 L105.8,407.2 L109.6,407.9 L111.7,410.1 L106.2,413.4 L102.4,412.4 L96.6,418.4 L97.4,420.1 L96.2,422.3 L98.1,427.8 L97.4,431.8 L99.0,431.8 L101.0,429.9 L109.2,426.1 L112.1,425.5 L109.1,429.9 L109.6,433.1 L114.0,431.8 L116.8,433.3 L118.5,432.3 L119.7,429.6 L121.8,428.8 L122.5,430.2 L128.9,429.9 L130.2,427.4 L132.7,427.5 L132.1,426.0 L133.6,423.7 L133.0,421.6 L135.3,420.6 L137.8,423.0 L139.7,420.0 L136.8,420.1 L131.9,415.4 L129.9,411.2 L128.8,413.2 L127.1,412.3 L127.1,410.3 L129.6,408.0 L133.3,406.5 L134.3,408.1 L139.1,406.8 L139.4,404.3 L137.9,404.0 L136.6,401.3 L133.3,399.7 L131.2,400.6 L131.5,396.4 L136.5,395.1 L140.2,393.4 L136.8,391.1 L134.0,390.7 L132.5,388.2 L133.7,386.1 L131.9,383.6 Z">
  <desc xmlns="http://www.highcharts.com/svg/namespace">
    <name>Trier-Saarburg</name>
    <bundesland>DE.RP</bundesland>
    <hc-middle-x>0.55</hc-middle-x>
    <hc-middle-y>0.70</hc-middle-y>
    <hc-key>de-rp-07235000</hc-key>
    <hc-a2>TS</hc-a2>
  </desc>
</path>

<path fill="#CEE3F5" stroke="#6E6E6E" stroke-width="0.4" id="DE.RP.07141000" d="M347.7,245.8 L351.2,243.3 L351.3,240.3 L349.1,236.8 L341.1,228.6 L338.0,222.5 L338.0,217.3 L344.3,217.5 L346.9,218.3 L349.2,217.0 L351.9,217.9 L355.3,212.7 L355.4,210.6 L358.7,207.9 L359.0,205.5 L360.4,205.5 L361.9,208.3 L362.8,206.3 L367.8,203.7 L370.2,204.0 L372.0,201.4 L371.1,198.0 L373.3,192.9 L375.9,191.4 L376.1,193.8 L374.6,197.4 L376.2,196.7 L378.6,193.6 L380.4,192.8 L382.7,193.8 L383.3,197.4 L380.0,201.3 L378.8,201.7 L379.9,207.3 L382.1,205.5 L384.6,205.0 L387.7,206.2 L390.8,206.2 L391.6,208.7 L395.3,209.4 L397.6,208.2 L399.1,210.6 L401.5,209.6 L400.7,207.6 L403.1,205.4 L402.7,203.7 L403.9,200.2 L400.5,200.2 L397.2,197.3 L398.3,194.9 L401.3,197.6 L405.2,197.9 L404.2,192.9 L404.9,191.3 L408.1,191.8 L411.4,188.5 L417.0,187.1 L419.0,193.4 L423.3,191.9 L424.6,190.2 L427.1,189.6 L428.7,192.1 L427.5,192.8 L435.8,193.0 L436.0,198.9 L439.5,198.8 L440.6,197.6 L441.0,201.2 L444.1,202.1 L445.8,204.3 L448.1,211.0 L447.5,217.7 L449.5,217.2 L453.9,218.6 L454.9,220.5 L453.8,224.7 L456.7,227.2 L458.3,231.6 L458.1,236.3 L455.9,238.3 L453.7,242.4 L451.2,240.4 L448.3,241.9 L449.2,240.2 L447.3,239.7 L446.8,237.6 L441.5,237.2 L438.5,238.2 L438.5,240.5 L435.3,242.7 L437.5,243.5 L440.3,248.3 L443.6,251.2 L437.6,256.0 L438.1,257.8 L432.8,256.9 L430.8,254.6 L431.7,253.1 L428.5,251.8 L429.6,250.4 L427.7,249.7 L426.7,253.7 L423.7,255.2 L419.5,255.9 L418.2,259.5 L412.1,260.2 L409.2,262.7 L410.2,264.6 L403.4,269.5 L404.7,272.2 L403.6,273.6 L405.4,276.4 L409.0,278.4 L412.2,281.9 L414.6,282.9 L412.2,286.1 L413.3,291.5 L412.6,292.9 L413.2,297.3 L409.0,291.8 L407.1,290.4 L403.5,293.1 L399.1,290.8 L397.9,288.4 L394.5,289.8 L394.0,294.0 L392.2,294.5 L391.2,300.6 L393.0,302.5 L390.2,304.5 L389.0,303.7 L384.8,303.4 L383.1,306.2 L379.9,309.7 L378.0,309.7 L377.5,305.6 L376.0,303.9 L371.4,297.8 L367.1,293.7 L366.6,291.6 L370.3,287.2 L369.8,285.2 L367.4,283.6 L366.8,280.3 L363.8,277.8 L362.3,275.0 L358.6,272.7 L355.4,272.3 L351.3,270.7 L349.2,268.9 L349.8,264.7 L348.5,260.2 L343.9,255.8 L342.9,252.8 L340.4,250.2 L336.0,249.4 L334.6,247.2 L336.9,244.5 L339.7,244.0 Z">
  <desc xmlns="http://www.highcharts.com/svg/namespace">
    <name>Rhein-Lahn-Kreis</name>
    <bundesland>DE.RP</bundesland>
    <hc-middle-x>0.31</hc-middle-x>
    <hc-middle-y>0.50</hc-middle-y>
    <hc-key>de-rp-07141000</hc-key>
    <hc-a2>RL</hc-a2>
  </desc>
</path>

<path fill="#CEE3F5" stroke="#6E6E6E" stroke-width="0.4" id="DE.RP.07233000" d="M74.2,211.2 L74.0,207.3 L71.8,207.5 L69.5,203.1 L69.9,201.4 L68.2,198.6 L70.3,196.6 L67.9,197.3 L68.5,195.7 L66.5,193.7 L67.3,190.8 L65.8,189.2 L72.2,187.6 L74.0,190.8 L72.4,192.8 L73.8,193.4 L75.7,197.0 L77.9,194.1 L80.0,194.3 L80.2,197.0 L82.7,198.7 L81.7,201.2 L82.0,204.0 L80.6,206.7 L83.2,204.6 L87.8,206.1 L89.5,203.2 L92.5,201.4 L93.1,198.8 L94.9,199.0 L98.5,195.6 L101.7,195.4 L101.3,196.8 L105.0,195.8 L107.3,193.3 L110.2,193.1 L111.0,191.3 L115.1,189.4 L115.9,192.0 L115.2,194.1 L118.0,193.5 L120.0,194.3 L120.2,196.9 L119.1,199.6 L119.4,202.5 L122.1,204.8 L125.3,204.0 L127.1,200.9 L126.9,197.2 L129.5,195.7 L133.7,200.6 L135.8,204.9 L136.3,208.6 L137.9,206.2 L144.0,203.0 L148.8,202.6 L152.8,200.2 L154.1,201.3 L155.6,200.0 L159.5,200.2 L161.4,201.1 L158.9,203.8 L160.5,204.7 L158.8,206.2 L160.8,208.1 L159.3,210.4 L157.8,210.4 L157.4,212.6 L162.4,211.8 L163.2,213.7 L167.1,215.9 L171.1,213.3 L174.3,214.4 L175.1,215.7 L179.8,215.3 L179.8,217.3 L181.5,217.4 L185.2,219.9 L187.7,220.4 L191.6,218.1 L191.3,217.3 L193.5,212.6 L197.8,213.1 L197.0,210.1 L200.8,208.2 L201.0,205.9 L206.6,205.8 L207.3,208.9 L213.0,211.1 L208.4,212.7 L205.2,216.4 L201.8,216.5 L201.8,218.7 L198.2,220.9 L201.2,224.2 L203.3,225.1 L203.7,226.9 L208.1,228.4 L207.9,225.6 L213.5,227.4 L219.4,230.9 L219.8,231.9 L215.3,243.3 L216.3,244.7 L212.7,245.1 L210.6,249.9 L208.6,249.7 L204.9,251.9 L204.5,249.0 L202.3,245.7 L200.6,246.7 L198.1,245.6 L196.7,248.1 L193.2,250.1 L194.2,252.2 L192.8,253.6 L193.0,258.6 L194.7,262.9 L194.9,265.6 L196.5,267.1 L195.6,270.7 L196.6,272.0 L192.6,273.3 L195.8,276.7 L197.2,280.2 L201.1,281.1 L201.2,282.5 L198.4,284.0 L197.3,294.6 L194.7,294.5 L194.6,297.7 L190.8,300.7 L188.9,297.7 L181.7,302.6 L180.6,302.2 L180.4,298.5 L177.8,292.4 L174.4,290.4 L174.6,286.9 L172.4,286.0 L169.9,282.0 L161.9,284.4 L160.2,285.8 L151.2,289.7 L151.2,287.7 L146.6,286.1 L145.0,287.6 L145.6,289.4 L141.3,293.4 L140.7,295.6 L138.0,295.2 L134.3,295.9 L133.9,297.6 L131.9,296.0 L132.0,293.3 L129.9,295.0 L125.4,293.7 L123.0,290.2 L122.6,287.7 L120.0,285.3 L114.9,289.4 L111.5,288.2 L107.4,287.9 L107.7,285.1 L109.3,284.9 L105.3,281.6 L107.7,281.6 L108.3,278.9 L99.9,274.7 L101.0,271.2 L103.4,270.7 L101.5,267.7 L104.1,264.8 L103.6,262.4 L101.0,260.5 L103.3,259.5 L105.4,260.6 L107.0,258.2 L109.8,257.4 L111.6,253.5 L109.7,252.1 L111.2,249.6 L109.6,249.4 L110.6,247.0 L108.5,246.0 L107.9,247.2 L104.2,245.1 L104.0,242.7 L105.4,240.0 L102.3,236.7 L97.9,237.7 L95.1,233.4 L94.7,229.1 L93.2,225.0 L89.3,224.7 L85.8,225.6 L86.6,223.2 L85.6,221.9 L83.5,214.7 L80.8,215.8 L81.4,217.5 L79.1,220.5 L78.3,218.5 L73.0,214.4 Z">
  <desc xmlns="http://www.highcharts.com/svg/namespace">
    <name>Vulkaneifel</name>
    <bundesland>DE.RP</bundesland>
    <hc-middle-x>0.55</hc-middle-x>
    <hc-middle-y>0.49</hc-middle-y>
    <hc-key>de-rp-07233000</hc-key>
    <hc-a2>VU</hc-a2>
  </desc>
</path>

<path fill="#CEE3F5" stroke="#6E6E6E" stroke-width="0.4" id="DE.RP.07318000" d="M534.8,568.2 L531.0,571.6 L530.1,574.9 L531.9,578.0 L536.4,579.7 L538.5,582.0 L538.9,585.0 L537.3,587.4 L533.8,588.6 L528.3,585.2 L525.8,584.7 L522.7,582.1 L519.2,580.6 L519.3,578.0 L518.3,575.5 L520.0,572.3 L512.8,567.6 L515.6,564.2 L520.1,557.1 L523.7,555.4 L524.0,559.1 L525.2,559.0 L526.3,562.8 L528.2,564.4 L528.4,560.7 L529.8,559.0 L533.9,561.0 L534.8,559.5 L538.2,559.1 L539.7,560.5 L536.6,560.4 L534.5,561.6 L534.1,563.8 Z">
  <desc xmlns="http://www.highcharts.com/svg/namespace">
    <name>Speyer</name>
    <bundesland>DE.RP</bundesland>
    <hc-middle-x>0.74</hc-middle-x>
    <hc-middle-y>0.31</hc-middle-y>
    <hc-key>de-rp-07318000</hc-key>
    <hc-a2>SP</hc-a2>
  </desc>
</path>

<path fill="#CEE3F5" stroke="#6E6E6E" stroke-width="0.4" id="DE.RP.07314000" d="M524.3,497.0 L529.3,515.5 L533.3,521.4 L533.2,523.8 L529.7,525.6 L528.6,529.4 L531.5,531.7 L535.4,531.8 L536.3,533.0 L532.4,534.5 L529.4,533.4 L524.4,536.0 L523.5,535.5 L521.3,537.7 L515.8,536.2 L514.9,532.9 L513.5,531.8 L510.4,524.8 L509.3,524.7 L509.0,521.9 L501.1,525.2 L498.4,525.7 L497.1,521.2 L496.0,521.4 L495.6,518.2 L498.0,516.8 L506.3,515.1 L511.8,511.9 L511.9,508.7 L514.9,504.7 L513.3,504.0 L514.3,497.9 L517.4,494.0 L518.8,496.0 Z">
  <desc xmlns="http://www.highcharts.com/svg/namespace">
    <name>Ludwigshafen am Rhein</name>
    <bundesland>DE.RP</bundesland>
    <hc-middle-x>0.65</hc-middle-x>
    <hc-middle-y>0.65</hc-middle-y>
    <hc-key>de-rp-07314000</hc-key>
    <hc-a2>LA</hc-a2>
  </desc>
</path>

<path fill="#CEE3F5" stroke="#6E6E6E" stroke-width="0.4" id="DE.RP.07331000" d="M530.2,430.2 L528.4,430.0 L524.9,431.7 L519.7,428.0 L514.5,429.1 L514.4,432.2 L512.6,430.2 L508.6,430.2 L508.1,437.0 L507.3,437.0 L507.9,442.5 L505.5,442.5 L506.2,447.0 L498.6,446.5 L498.2,444.9 L495.3,445.2 L493.7,443.3 L486.8,444.7 L487.6,450.8 L490.1,451.8 L491.5,456.7 L483.8,458.3 L482.9,459.4 L482.1,466.5 L483.5,470.0 L485.4,469.7 L485.2,475.3 L486.1,479.2 L480.8,480.2 L478.8,476.9 L479.8,475.8 L477.6,472.4 L476.0,472.2 L474.5,468.3 L469.5,465.7 L462.7,467.7 L462.4,466.3 L463.8,459.1 L463.0,455.3 L461.0,454.2 L458.0,449.8 L455.3,450.7 L454.5,448.0 L453.1,448.0 L451.2,440.9 L448.5,442.0 L445.1,440.8 L441.3,441.9 L440.9,440.5 L438.1,438.3 L432.1,437.1 L432.0,436.2 L426.5,440.4 L421.5,440.8 L418.6,439.3 L419.1,434.9 L420.7,432.0 L419.7,430.2 L414.4,428.8 L414.7,425.6 L416.2,423.6 L416.2,420.2 L413.6,420.9 L409.3,424.9 L406.3,422.3 L406.3,421.3 L409.8,417.2 L412.5,416.4 L413.1,412.2 L412.0,408.8 L412.8,404.3 L411.0,403.2 L411.7,400.4 L415.5,398.1 L414.9,396.0 L417.0,395.5 L420.0,392.9 L422.2,391.9 L422.1,393.5 L425.5,393.4 L427.6,390.1 L432.0,386.2 L435.5,386.3 L435.0,385.0 L437.4,382.8 L440.1,382.1 L443.3,379.7 L439.7,375.0 L447.8,373.5 L449.1,373.7 L455.8,369.9 L457.8,373.0 L460.4,373.1 L465.2,372.0 L465.4,370.2 L469.1,369.8 L471.3,372.9 L471.0,374.9 L472.5,375.6 L472.2,378.1 L473.5,381.1 L475.4,381.5 L474.9,384.1 L476.4,383.8 L477.6,386.4 L475.5,388.9 L471.7,389.9 L473.0,396.9 L476.4,397.5 L481.7,397.2 L481.1,399.3 L482.1,403.1 L479.8,405.8 L481.3,409.0 L481.6,416.5 L486.3,416.8 L488.1,419.9 L489.8,419.5 L492.6,423.6 L495.8,421.4 L495.1,419.0 L497.0,415.1 L498.9,414.7 L498.6,412.8 L500.1,411.0 L504.5,411.1 L509.3,412.0 L512.3,409.6 L514.6,405.8 L519.8,404.4 L522.5,410.4 L523.1,414.2 L525.2,417.0 L529.5,417.9 L534.9,416.7 L537.6,418.1 L537.3,420.9 L532.0,426.6 Z">
  <desc xmlns="http://www.highcharts.com/svg/namespace">
    <name>Alzey-Worms</name>
    <bundesland>DE.RP</bundesland>
    <hc-middle-x>0.41</hc-middle-x>
    <hc-middle-y>0.49</hc-middle-y>
    <hc-key>de-rp-07331000</hc-key>
    <hc-a2>AW</hc-a2>
  </desc>
</path>

<path fill="#CEE3F5" stroke="#6E6E6E" stroke-width="0.4" id="DE.RP.07336000" d="M286.7,553.6 L279.9,556.6 L280.5,552.8 L277.2,552.6 L277.5,550.7 L268.7,549.9 L268.4,548.9 L264.5,547.0 L262.2,547.1 L262.3,545.5 L264.5,543.7 L262.4,538.8 L258.7,534.5 L256.0,534.7 L253.6,530.5 L254.8,528.6 L252.8,526.9 L257.5,524.8 L265.6,519.7 L266.5,517.6 L264.7,513.7 L261.3,512.7 L261.7,504.1 L262.4,501.8 L265.1,499.8 L266.0,501.5 L268.0,499.7 L265.6,496.8 L266.3,495.6 L260.6,494.5 L260.6,490.6 L261.2,489.8 L267.7,489.0 L268.3,487.8 L271.7,488.0 L270.5,485.9 L274.3,484.4 L274.0,482.4 L280.8,474.3 L283.4,473.3 L284.8,474.8 L285.8,472.8 L289.0,475.0 L294.0,476.7 L297.7,475.9 L299.3,473.8 L298.7,470.6 L299.8,468.0 L298.3,466.1 L298.2,461.8 L296.8,457.8 L295.7,457.4 L295.6,454.2 L298.1,453.1 L300.5,450.2 L300.1,448.8 L302.2,447.1 L304.7,447.7 L306.7,446.0 L316.5,446.2 L318.9,444.4 L317.9,443.3 L317.4,439.4 L319.0,436.4 L318.3,435.5 L322.1,433.5 L322.3,437.6 L324.6,438.9 L327.2,443.2 L330.7,442.5 L333.8,443.8 L335.8,445.7 L340.3,443.4 L343.7,444.2 L345.7,443.4 L348.1,439.3 L350.6,438.6 L350.3,440.6 L352.8,443.9 L350.4,444.5 L350.7,448.2 L352.8,449.7 L350.9,451.0 L351.0,453.1 L348.8,454.4 L349.0,457.3 L347.7,458.1 L348.6,460.8 L350.2,461.5 L353.3,460.2 L359.4,455.8 L363.3,458.1 L364.8,457.0 L364.9,459.9 L362.8,460.5 L362.4,462.5 L363.7,464.6 L359.4,465.9 L357.7,467.3 L359.7,471.3 L358.3,473.2 L359.4,475.5 L357.4,478.3 L356.8,476.7 L353.7,477.1 L351.7,479.2 L347.1,478.4 L344.2,482.9 L348.5,483.9 L349.1,487.8 L346.4,490.7 L343.6,495.3 L337.2,497.8 L336.3,501.6 L331.3,498.6 L328.7,501.3 L325.1,502.9 L320.3,502.5 L319.2,499.5 L318.0,499.7 L318.1,503.2 L313.8,506.9 L308.7,510.4 L306.6,509.8 L307.7,512.1 L304.7,516.6 L302.1,518.2 L302.6,520.4 L299.0,525.1 L301.1,526.2 L302.4,528.9 L301.7,531.8 L298.7,532.9 L296.9,535.4 L296.0,534.2 L293.8,535.7 L290.4,535.7 L292.7,537.1 L288.9,542.5 L287.5,547.0 L289.1,548.9 L286.0,549.6 L288.8,551.3 Z">
  <desc xmlns="http://www.highcharts.com/svg/namespace">
    <name>Kusel</name>
    <bundesland>DE.RP</bundesland>
    <hc-middle-x>0.45</hc-middle-x>
    <hc-middle-y>0.45</hc-middle-y>
    <hc-key>de-rp-07336000</hc-key>
    <hc-a2>KU</hc-a2>
  </desc>
</path>

<path fill="#CEE3F5" stroke="#6E6E6E" stroke-width="0.4" id="DE.RP.07232000" d="M74.2,211.2 L73.0,214.4 L78.3,218.5 L79.1,220.5 L81.4,217.5 L80.8,215.8 L83.5,214.7 L85.6,221.9 L86.6,223.2 L85.8,225.6 L89.3,224.7 L93.2,225.0 L94.7,229.1 L95.1,233.4 L97.9,237.7 L102.3,236.7 L105.4,240.0 L104.0,242.7 L104.2,245.1 L107.9,247.2 L108.5,246.0 L110.6,247.0 L109.6,249.4 L111.2,249.6 L109.7,252.1 L111.6,253.5 L109.8,257.4 L107.0,258.2 L105.4,260.6 L103.3,259.5 L101.0,260.5 L103.6,262.4 L104.1,264.8 L101.5,267.7 L103.4,270.7 L101.0,271.2 L99.9,274.7 L108.3,278.9 L107.7,281.6 L105.3,281.6 L109.3,284.9 L107.7,285.1 L107.4,287.9 L111.5,288.2 L114.9,289.4 L120.0,285.3 L122.6,287.7 L123.0,290.2 L125.4,293.7 L129.9,295.0 L132.0,293.3 L131.9,296.0 L133.9,297.6 L132.5,300.8 L133.1,306.4 L137.4,311.5 L132.9,314.0 L134.2,316.1 L133.1,319.5 L136.9,326.7 L136.7,329.0 L139.1,333.3 L135.8,332.8 L131.4,337.4 L128.2,339.7 L130.6,344.8 L133.3,345.8 L133.9,348.4 L133.2,352.7 L131.7,351.7 L131.9,354.0 L134.8,355.8 L134.5,361.2 L130.6,356.5 L129.8,358.9 L127.0,359.7 L127.1,361.6 L125.5,362.3 L126.5,363.9 L120.6,366.2 L118.1,368.1 L116.9,370.9 L113.1,368.1 L110.2,369.8 L108.7,368.7 L110.2,365.2 L110.0,363.3 L105.3,366.9 L105.1,371.4 L103.8,373.3 L101.9,372.9 L98.8,374.3 L95.3,374.8 L91.3,378.0 L92.8,379.9 L92.9,383.1 L89.4,382.0 L86.3,382.9 L81.6,387.1 L82.7,387.7 L79.4,389.0 L78.2,388.5 L74.6,392.2 L71.7,391.2 L69.4,392.4 L68.1,390.5 L64.6,389.7 L61.7,388.0 L54.4,377.7 L48.9,378.4 L48.3,381.0 L45.8,382.5 L44.3,381.2 L44.8,376.7 L43.8,375.5 L42.5,370.4 L39.0,371.4 L38.2,368.8 L35.6,367.1 L34.6,367.7 L31.5,366.1 L28.0,360.8 L25.3,359.2 L23.9,355.4 L25.5,354.4 L24.6,351.7 L22.1,351.0 L23.8,348.9 L24.3,346.2 L21.9,343.3 L23.7,341.4 L20.9,341.2 L20.2,339.7 L17.6,341.7 L16.7,338.8 L16.8,335.1 L15.1,334.8 L14.3,336.7 L15.4,339.1 L13.8,340.0 L12.9,337.0 L11.5,336.2 L10.5,332.5 L11.7,328.9 L8.9,327.7 L7.6,325.2 L5.7,324.9 L7.4,320.9 L3.1,316.5 L5.0,317.3 L6.8,315.0 L3.4,312.5 L4.4,309.0 L1.7,303.6 L0.0,302.3 L0.1,299.7 L3.7,297.1 L2.8,295.7 L0.8,296.4 L2.2,294.1 L2.3,289.9 L4.3,290.3 L3.3,287.1 L5.6,286.2 L4.6,284.7 L5.6,282.9 L4.1,281.8 L6.0,279.2 L6.8,275.3 L8.6,275.1 L10.4,273.0 L10.1,270.1 L7.3,270.7 L5.5,268.0 L8.3,267.7 L9.1,266.3 L7.6,263.0 L9.2,262.6 L9.2,260.2 L12.1,262.4 L12.5,260.4 L18.4,260.2 L19.1,257.1 L18.1,250.4 L16.7,246.7 L14.2,245.1 L16.6,243.4 L16.4,240.2 L22.1,238.7 L25.8,232.8 L30.5,231.0 L32.6,231.3 L35.7,229.3 L37.5,230.5 L40.1,230.0 L43.4,225.7 L42.2,224.4 L43.5,219.8 L45.1,217.5 L44.7,215.1 L47.7,214.2 L47.0,212.1 L48.7,210.7 L49.8,211.7 L52.0,209.8 L53.6,212.8 L56.6,213.4 L59.3,216.2 L59.6,213.6 L61.6,214.3 L64.5,211.2 L66.0,211.6 L71.9,210.5 Z">
  <desc xmlns="http://www.highcharts.com/svg/namespace">
    <name>Eifelkreis Bitburg-Prüm</name>
    <bundesland>DE.RP</bundesland>
    <hc-middle-x>0.47</hc-middle-x>
    <hc-middle-y>0.45</hc-middle-y>
    <hc-key>de-rp-07232000</hc-key>
    <hc-a2>EB</hc-a2>
  </desc>
</path>

<path fill="#CEE3F5" stroke="#6E6E6E" stroke-width="0.4" id="DE.RP.07132000" d="M364.8,112.6 L362.3,110.4 L360.0,105.0 L357.0,103.8 L355.0,104.6 L354.2,102.3 L350.9,103.1 L350.0,101.4 L347.8,102.1 L345.3,105.1 L344.5,103.6 L340.4,101.7 L339.3,103.9 L335.9,104.2 L336.8,109.5 L336.1,111.6 L337.4,113.3 L334.3,115.5 L334.1,110.8 L332.6,112.4 L329.2,110.2 L329.1,116.4 L330.7,119.1 L332.7,120.6 L330.6,123.0 L326.8,130.2 L326.4,132.8 L322.8,130.1 L318.2,129.8 L316.8,126.8 L313.6,125.9 L311.9,117.1 L312.9,115.9 L308.9,115.4 L308.3,113.5 L311.4,110.7 L315.5,110.8 L313.9,107.3 L316.4,103.4 L315.2,99.1 L316.5,95.2 L312.8,94.2 L311.9,89.5 L309.4,86.8 L306.9,80.2 L307.9,78.6 L310.5,77.9 L315.7,78.0 L320.8,73.9 L324.9,74.3 L325.2,72.7 L332.1,68.3 L333.6,69.6 L339.1,71.5 L341.5,70.2 L341.9,67.3 L341.1,65.2 L343.3,61.5 L347.2,60.2 L355.5,61.2 L357.0,59.3 L356.6,54.9 L358.8,55.0 L360.2,57.2 L361.6,51.1 L360.1,48.9 L361.2,46.4 L357.7,44.4 L358.9,43.3 L365.9,41.0 L367.3,38.0 L368.9,38.2 L369.1,35.7 L372.6,32.2 L374.2,33.4 L379.0,34.8 L379.9,34.3 L378.1,31.8 L380.8,30.1 L376.9,26.4 L379.3,22.0 L378.1,18.9 L379.8,14.7 L376.4,13.0 L376.9,10.2 L374.4,9.2 L375.9,7.8 L379.2,7.7 L383.5,4.6 L385.8,0.8 L387.3,0.0 L391.9,0.9 L393.1,3.3 L397.4,5.8 L398.8,4.4 L400.3,6.0 L396.2,12.5 L396.6,14.0 L394.6,18.3 L395.1,21.3 L398.7,22.8 L402.1,23.3 L404.0,22.6 L407.0,24.2 L408.0,27.5 L412.1,33.7 L414.9,35.0 L419.3,33.7 L422.6,34.6 L423.7,33.6 L425.7,35.4 L426.0,38.2 L428.2,39.2 L426.7,45.7 L426.9,50.1 L425.6,51.6 L425.9,56.0 L424.8,56.6 L425.8,60.2 L429.2,64.8 L432.8,66.9 L438.1,74.2 L441.6,77.4 L442.2,82.4 L441.4,87.4 L438.8,87.5 L433.6,90.6 L430.7,94.9 L424.2,94.0 L425.4,89.1 L420.5,83.0 L417.0,82.5 L413.7,80.2 L410.7,79.4 L408.0,80.5 L405.9,87.3 L404.2,90.2 L408.3,92.5 L407.4,93.6 L403.0,92.6 L399.8,91.1 L399.4,88.2 L401.0,87.1 L395.8,81.7 L390.8,83.2 L387.7,79.9 L389.4,76.7 L388.8,74.7 L384.8,74.6 L381.9,72.4 L380.6,74.1 L377.6,72.0 L374.9,71.3 L376.5,73.9 L373.8,74.9 L371.0,73.8 L368.9,76.2 L370.1,77.5 L373.2,76.3 L371.4,79.3 L368.6,79.8 L364.4,83.0 L365.1,87.5 L368.7,87.9 L370.8,89.4 L370.8,93.3 L369.6,95.1 L366.2,94.3 L364.0,94.9 L363.2,99.3 L365.7,101.4 L364.9,106.3 L365.3,112.7 Z">
  <desc xmlns="http://www.highcharts.com/svg/namespace">
    <name>Altenkirchen (Westerwald)</name>
    <bundesland>DE.RP</bundesland>
    <hc-middle-x>0.70</hc-middle-x>
    <hc-middle-y>0.41</hc-middle-y>
    <hc-key>de-rp-07132000</hc-key>
    <hc-a2>A(</hc-a2>
  </desc>
</path>

<path fill="#CEE3F5" stroke="#6E6E6E" stroke-width="0.4" id="DE.RP.07135000" d="M219.4,230.9 L221.2,234.2 L226.6,233.3 L229.4,234.4 L232.0,233.2 L231.0,235.2 L231.9,237.1 L234.2,236.7 L238.3,234.1 L238.2,233.0 L240.9,231.0 L242.9,230.9 L243.9,233.4 L246.0,231.6 L246.5,235.2 L245.6,236.5 L248.5,237.1 L252.4,239.2 L255.8,237.6 L257.7,238.9 L259.4,238.4 L259.7,240.5 L264.9,241.7 L268.4,245.9 L272.7,253.1 L274.6,253.1 L275.4,255.8 L273.1,258.1 L270.6,256.6 L269.9,259.5 L271.4,258.0 L274.1,260.8 L281.5,260.3 L282.5,261.5 L282.6,258.0 L285.7,254.3 L286.3,256.1 L290.2,257.5 L287.3,263.8 L286.0,265.1 L281.2,266.4 L284.4,266.9 L285.6,268.5 L286.9,267.5 L289.5,274.6 L287.6,275.9 L285.2,280.1 L286.7,280.2 L287.7,283.9 L291.3,285.7 L292.3,289.8 L294.2,291.7 L292.4,294.3 L287.9,297.2 L283.9,302.5 L280.2,302.4 L279.3,308.9 L276.1,309.1 L274.3,307.1 L273.5,307.9 L276.3,310.4 L279.0,317.5 L280.0,321.4 L282.3,326.1 L280.7,328.1 L277.6,327.3 L277.4,329.8 L270.7,333.6 L266.4,333.2 L267.3,337.6 L265.6,341.5 L262.1,340.9 L260.4,339.3 L258.4,344.3 L256.2,345.1 L250.0,342.2 L247.1,342.5 L244.5,338.7 L245.9,335.3 L243.9,335.3 L238.2,332.7 L234.6,333.6 L234.3,330.4 L232.2,330.2 L230.0,320.8 L225.1,317.2 L225.2,312.8 L223.8,312.0 L224.2,308.1 L221.5,306.4 L218.3,307.0 L214.6,305.0 L211.5,306.5 L207.0,305.9 L206.7,303.5 L202.7,299.2 L198.1,300.1 L197.3,294.6 L198.4,284.0 L201.2,282.5 L201.1,281.1 L197.2,280.2 L195.8,276.7 L192.6,273.3 L196.6,272.0 L195.6,270.7 L196.5,267.1 L194.9,265.6 L194.7,262.9 L193.0,258.6 L192.8,253.6 L194.2,252.2 L193.2,250.1 L196.7,248.1 L198.1,245.6 L200.6,246.7 L202.3,245.7 L204.5,249.0 L204.9,251.9 L208.6,249.7 L210.6,249.9 L212.7,245.1 L216.3,244.7 L215.3,243.3 L219.8,231.9 Z">
  <desc xmlns="http://www.highcharts.com/svg/namespace">
    <name>Cochem-Zell</name>
    <bundesland>DE.RP</bundesland>
    <hc-middle-x>0.49</hc-middle-x>
    <hc-middle-y>0.41</hc-middle-y>
    <hc-key>de-rp-07135000</hc-key>
    <hc-a2>CZ</hc-a2>
  </desc>
</path>

<path fill="#CEE3F5" stroke="#6E6E6E" stroke-width="0.4" id="DE.RP.07311000" d="M524.3,485.5 L522.9,488.3 L522.3,492.0 L524.3,497.0 L518.8,496.0 L517.4,494.0 L514.3,497.9 L513.3,504.0 L514.9,504.7 L511.9,508.7 L511.8,511.9 L506.3,515.1 L498.0,516.8 L497.9,509.3 L499.0,509.2 L498.4,501.3 L501.1,497.6 L498.8,494.0 L504.7,493.8 L504.9,491.2 L509.1,490.0 L508.6,487.6 L510.1,486.5 L513.7,488.5 L515.8,488.6 L514.8,487.1 L517.3,485.1 L519.4,485.3 L520.7,482.8 Z">
  <desc xmlns="http://www.highcharts.com/svg/namespace">
    <name>Frankenthal (Pfalz)</name>
    <bundesland>DE.RP</bundesland>
    <hc-middle-x>0.88</hc-middle-x>
    <hc-middle-y>0.29</hc-middle-y>
    <hc-key>de-rp-07311000</hc-key>
    <hc-a2>F(</hc-a2>
  </desc>
</path>

<path fill="#CEE3F5" stroke="#6E6E6E" stroke-width="0.4" id="DE.RP.07315000" d="M472.6,322.0 L481.5,323.5 L485.0,324.8 L491.2,331.0 L495.3,337.0 L499.2,340.4 L502.5,344.1 L505.2,348.7 L507.0,352.8 L507.1,355.9 L504.9,356.7 L503.3,354.1 L499.8,355.5 L498.3,355.3 L498.7,353.3 L496.4,355.1 L492.8,355.4 L492.7,359.0 L489.8,361.1 L490.2,363.3 L487.9,365.0 L485.5,371.6 L480.5,369.9 L481.2,366.0 L480.9,362.5 L484.8,355.9 L484.4,353.2 L480.7,353.0 L478.4,349.7 L475.1,349.2 L472.4,351.2 L471.3,347.6 L469.8,345.9 L462.8,347.1 L461.8,343.9 L461.8,340.4 L464.1,338.7 L463.5,336.4 L465.1,335.7 L464.6,333.2 L468.0,333.2 L471.0,332.1 L474.0,328.5 L475.9,324.5 L472.9,323.4 Z">
  <desc xmlns="http://www.highcharts.com/svg/namespace">
    <name>Mainz</name>
    <bundesland>DE.RP</bundesland>
    <hc-middle-x>0.56</hc-middle-x>
    <hc-middle-y>0.38</hc-middle-y>
    <hc-key>de-rp-07315000</hc-key>
    <hc-a2>MA</hc-a2>
  </desc>
</path>

<path fill="#CEE3F5" stroke="#6E6E6E" stroke-width="0.4" id="DE.RP.07333000" d="M406.3,421.3 L406.3,422.3 L409.3,424.9 L413.6,420.9 L416.2,420.2 L416.2,423.6 L414.7,425.6 L414.4,428.8 L419.7,430.2 L420.7,432.0 L419.1,434.9 L418.6,439.3 L421.5,440.8 L426.5,440.4 L432.0,436.2 L432.1,437.1 L438.1,438.3 L440.9,440.5 L441.3,441.9 L445.1,440.8 L448.5,442.0 L451.2,440.9 L453.1,448.0 L454.5,448.0 L455.3,450.7 L458.0,449.8 L461.0,454.2 L463.0,455.3 L463.8,459.1 L462.4,466.3 L461.1,468.6 L456.3,471.4 L454.4,474.6 L454.7,477.3 L452.9,478.5 L453.6,481.2 L451.0,483.5 L447.7,484.0 L448.6,487.2 L447.0,487.2 L450.3,492.0 L444.6,495.3 L441.5,495.9 L438.6,498.7 L437.1,502.6 L431.7,506.0 L430.1,510.0 L428.6,511.5 L424.4,513.3 L420.5,513.0 L418.4,514.2 L416.8,513.1 L416.9,507.3 L415.6,505.6 L415.7,502.8 L417.8,499.2 L415.0,500.6 L407.5,498.3 L405.0,498.5 L402.5,500.9 L401.4,499.9 L397.4,502.7 L394.5,502.4 L390.2,505.4 L388.5,505.5 L388.7,503.3 L390.5,502.2 L388.9,499.4 L386.6,499.2 L382.2,496.6 L379.3,497.6 L378.7,496.6 L374.5,498.5 L372.5,494.4 L374.1,491.7 L377.1,489.1 L375.6,486.5 L370.2,484.8 L367.5,481.8 L367.3,479.7 L368.6,475.5 L366.3,479.4 L362.7,477.8 L357.4,478.3 L359.4,475.5 L358.3,473.2 L359.7,471.3 L357.7,467.3 L359.4,465.9 L363.7,464.6 L362.4,462.5 L362.8,460.5 L364.9,459.9 L364.8,457.0 L363.3,458.1 L359.4,455.8 L358.4,454.0 L360.6,453.8 L361.2,451.3 L363.6,449.1 L363.4,445.0 L367.0,440.0 L364.2,434.1 L366.0,431.3 L374.4,423.5 L372.5,418.4 L375.9,416.5 L377.6,421.2 L379.4,419.7 L381.6,420.4 L381.9,418.7 L387.7,421.1 L391.0,419.6 L392.2,417.5 L396.4,416.3 L398.2,419.8 L404.4,418.9 Z">
  <desc xmlns="http://www.highcharts.com/svg/namespace">
    <name>Donnersbergkreis</name>
    <bundesland>DE.RP</bundesland>
    <hc-middle-x>0.47</hc-middle-x>
    <hc-middle-y>0.48</hc-middle-y>
    <hc-key>de-rp-07333000</hc-key>
    <hc-a2>DO</hc-a2>
  </desc>
</path>

<path fill="#CEE3F5" stroke="#6E6E6E" stroke-width="0.4" id="DE.RP.07133000" d="M420.0,392.9 L417.0,395.5 L414.9,396.0 L415.5,398.1 L411.7,400.4 L411.0,403.2 L412.8,404.3 L412.0,408.8 L413.1,412.2 L412.5,416.4 L409.8,417.2 L406.3,421.3 L404.4,418.9 L398.2,419.8 L396.4,416.3 L392.2,417.5 L391.0,419.6 L387.7,421.1 L381.9,418.7 L381.6,420.4 L379.4,419.7 L377.6,421.2 L375.9,416.5 L372.5,418.4 L374.4,423.5 L366.0,431.3 L364.2,434.1 L367.0,440.0 L363.4,445.0 L363.6,449.1 L361.2,451.3 L360.6,453.8 L358.4,454.0 L359.4,455.8 L353.3,460.2 L350.2,461.5 L348.6,460.8 L347.7,458.1 L349.0,457.3 L348.8,454.4 L351.0,453.1 L350.9,451.0 L352.8,449.7 L350.7,448.2 L350.4,444.5 L352.8,443.9 L350.3,440.6 L350.6,438.6 L348.1,439.3 L345.7,443.4 L343.7,444.2 L340.3,443.4 L335.8,445.7 L333.8,443.8 L330.7,442.5 L327.2,443.2 L324.6,438.9 L322.3,437.6 L322.1,433.5 L318.3,435.5 L314.4,435.4 L311.1,437.1 L310.2,433.4 L312.4,432.0 L308.9,424.6 L305.9,423.8 L305.2,420.9 L302.7,422.2 L299.7,425.4 L295.7,420.9 L294.0,420.9 L293.9,418.6 L295.3,414.4 L299.5,412.7 L300.7,407.2 L294.5,401.5 L292.0,399.9 L292.3,397.4 L290.1,394.6 L290.5,393.3 L288.4,385.2 L289.4,385.8 L291.0,382.5 L294.1,381.8 L294.4,383.2 L297.1,384.5 L295.7,386.6 L296.7,388.1 L303.0,383.3 L307.0,379.1 L310.9,380.7 L311.6,381.8 L314.7,380.1 L324.4,369.1 L327.9,369.1 L331.0,367.8 L333.0,364.8 L336.3,361.6 L341.4,359.0 L344.5,355.6 L348.7,357.4 L351.7,354.0 L351.0,349.2 L353.4,347.2 L352.7,344.2 L356.2,341.0 L362.2,340.1 L357.6,334.1 L357.8,332.5 L362.7,333.8 L368.6,333.5 L369.7,333.1 L374.0,335.2 L376.1,337.2 L377.3,342.6 L380.8,344.7 L384.0,347.7 L387.3,348.6 L388.2,351.5 L384.4,351.7 L383.6,355.2 L386.5,356.8 L393.4,353.6 L396.4,354.3 L398.9,356.5 L400.6,356.1 L403.8,358.3 L405.6,358.2 L405.6,361.9 L408.2,364.7 L407.8,367.2 L409.0,368.1 L410.2,375.5 L416.6,376.0 L417.3,378.4 L421.3,385.4 L420.1,387.9 L418.0,388.2 Z">
  <desc xmlns="http://www.highcharts.com/svg/namespace">
    <name>Bad Kreuznach</name>
    <bundesland>DE.RP</bundesland>
    <hc-middle-x>0.53</hc-middle-x>
    <hc-middle-y>0.45</hc-middle-y>
    <hc-key>de-rp-07133000</hc-key>
    <hc-a2>BK</hc-a2>
  </desc>
</path>

<path fill="#CEE3F5" stroke="#6E6E6E" stroke-width="0.4" id="DE.RP.07111000" d="M355.0,197.8 L360.0,200.8 L359.6,202.3 L362.1,203.4 L360.4,205.5 L359.0,205.5 L358.7,207.9 L355.4,210.6 L355.3,212.7 L351.9,217.9 L349.2,217.0 L346.9,218.3 L344.3,217.5 L338.0,217.3 L338.0,222.5 L341.1,228.6 L339.2,229.8 L336.9,227.2 L334.1,228.2 L333.8,229.4 L329.8,232.2 L327.8,229.9 L326.2,231.2 L322.1,228.2 L320.9,222.8 L325.3,218.1 L324.4,214.1 L319.9,213.2 L318.1,215.2 L316.1,211.6 L316.9,209.3 L314.8,206.7 L314.5,203.8 L319.6,198.9 L320.6,197.1 L323.8,197.2 L326.1,196.2 L326.3,193.5 L329.7,191.6 L334.2,187.3 L336.8,190.3 L341.2,193.9 L343.8,197.9 L343.3,199.9 L345.1,201.2 L347.7,199.5 L350.2,200.7 L350.4,199.0 Z">
  <desc xmlns="http://www.highcharts.com/svg/namespace">
    <name>Koblenz</name>
    <bundesland>DE.RP</bundesland>
    <hc-middle-x>0.43</hc-middle-x>
    <hc-middle-y>0.47</hc-middle-y>
    <hc-key>de-rp-07111000</hc-key>
    <hc-a2>KO</hc-a2>
  </desc>
</path>

<path fill="#CEE3F5" stroke="#6E6E6E" stroke-width="0.4" id="DE.RP.07312000" d="M391.2,559.0 L390.9,559.4 L389.3,560.1 L387.0,560.2 L383.7,558.3 L383.6,556.7 L381.1,555.3 L379.0,552.5 L374.5,549.4 L373.0,547.1 L368.9,546.8 L366.7,548.2 L362.0,547.1 L359.2,547.3 L357.0,550.3 L355.4,550.2 L355.2,546.9 L352.1,545.6 L351.9,542.0 L350.6,540.5 L348.4,535.6 L346.5,536.1 L345.6,534.3 L341.1,535.9 L340.4,532.8 L342.5,533.2 L342.3,528.3 L347.5,528.5 L350.7,527.5 L358.0,530.1 L357.5,526.3 L352.6,523.4 L352.0,521.2 L353.6,518.8 L352.9,514.1 L358.3,511.4 L362.1,513.5 L366.2,519.4 L370.3,518.4 L370.7,514.0 L373.9,514.4 L375.4,513.4 L377.8,515.3 L380.7,515.5 L381.9,518.1 L380.2,519.8 L380.8,521.5 L383.6,523.6 L390.6,522.5 L394.0,527.6 L393.6,530.2 L396.6,538.1 L396.1,542.7 L387.2,547.0 L383.6,547.0 L384.8,552.1 L387.5,551.2 L385.6,554.4 L390.8,557.5 Z">
  <desc xmlns="http://www.highcharts.com/svg/namespace">
    <name>Kaiserslautern</name>
    <bundesland>DE.RP</bundesland>
    <hc-middle-x>0.53</hc-middle-x>
    <hc-middle-y>0.45</hc-middle-y>
    <hc-key>de-rp-07312000</hc-key>
    <hc-a2>KA</hc-a2>
  </desc>
</path>

<path fill="#CEE3F5" stroke="#6E6E6E" stroke-width="0.4" id="DE.RP.07332000" d="M389.3,560.1 L390.9,559.4 L391.2,559.0 L393.2,555.0 L397.4,554.7 L399.4,552.8 L402.3,553.1 L404.5,550.0 L408.5,548.3 L413.0,550.2 L414.9,549.2 L415.7,546.6 L417.3,545.7 L415.2,542.3 L415.0,539.9 L418.0,537.7 L422.9,536.3 L422.1,534.5 L427.0,534.1 L426.8,532.0 L423.4,533.7 L422.6,532.7 L424.7,530.3 L425.5,527.9 L421.8,531.7 L418.7,531.3 L415.4,524.3 L416.5,523.3 L415.6,520.8 L415.1,515.7 L418.4,514.2 L420.5,513.0 L424.4,513.3 L428.6,511.5 L430.1,510.0 L431.7,506.0 L437.1,502.6 L438.6,498.7 L441.5,495.9 L444.6,495.3 L450.3,492.0 L447.0,487.2 L448.6,487.2 L447.7,484.0 L451.0,483.5 L453.6,481.2 L452.9,478.5 L454.7,477.3 L454.4,474.6 L456.3,471.4 L461.1,468.6 L462.4,466.3 L462.7,467.7 L469.5,465.7 L474.5,468.3 L476.0,472.2 L477.6,472.4 L479.8,475.8 L478.8,476.9 L480.8,480.2 L486.1,479.2 L486.3,480.2 L491.8,480.8 L491.3,485.4 L492.4,493.7 L491.8,496.4 L488.6,498.3 L485.9,498.6 L486.3,501.3 L488.1,501.4 L489.3,508.5 L488.0,510.5 L489.9,510.2 L490.4,511.8 L485.6,514.0 L481.7,514.2 L481.9,515.3 L485.0,514.6 L483.9,516.4 L485.3,519.4 L489.2,519.0 L490.5,526.0 L491.9,530.3 L486.8,530.9 L486.9,531.8 L480.9,532.7 L480.1,534.0 L481.2,540.3 L485.9,539.4 L486.2,541.9 L489.3,550.2 L492.1,552.3 L495.2,558.4 L493.8,559.0 L496.3,564.6 L499.3,576.9 L498.6,578.2 L495.2,576.5 L493.6,577.0 L489.9,575.3 L484.9,574.0 L478.4,570.4 L478.6,565.5 L476.3,565.3 L477.2,558.6 L478.3,557.3 L477.8,553.9 L474.4,554.4 L472.1,551.8 L468.4,552.7 L468.2,550.1 L465.4,549.2 L460.5,549.4 L457.0,546.2 L457.9,550.5 L454.6,553.1 L452.9,551.1 L449.4,549.2 L448.7,556.2 L450.8,557.2 L450.0,558.8 L447.1,560.5 L443.7,559.5 L437.7,562.9 L433.5,562.7 L432.2,561.5 L429.5,563.1 L428.0,565.7 L425.9,566.0 L423.9,567.6 L422.4,566.4 L421.7,569.4 L419.6,571.1 L411.9,574.2 L411.2,578.1 L409.1,577.7 L407.4,575.8 L404.3,575.6 L401.2,577.0 L395.3,576.3 L393.7,574.6 L392.6,569.4 L390.1,569.0 L390.2,570.4 L387.1,572.5 L385.5,568.6 L386.2,564.9 L387.8,561.2 Z">
  <desc xmlns="http://www.highcharts.com/svg/namespace">
    <name>Bad Dürkheim</name>
    <bundesland>DE.RP</bundesland>
    <hc-middle-x>0.60</hc-middle-x>
    <hc-middle-y>0.55</hc-middle-y>
    <hc-key>de-rp-07332000</hc-key>
    <hc-a2>BD</hc-a2>
  </desc>
</path>

<path fill="#CEE3F5" stroke="#6E6E6E" stroke-width="0.4" id="DE.RP.07340000" d="M387.1,572.5 L390.2,570.4 L390.1,569.0 L392.6,569.4 L393.7,574.6 L395.3,576.3 L395.3,586.3 L396.2,587.0 L395.2,589.0 L392.4,590.8 L388.0,590.7 L386.0,592.9 L385.9,599.2 L390.7,596.0 L397.2,598.9 L398.4,600.7 L396.8,602.4 L394.8,602.5 L395.2,605.2 L398.2,604.3 L402.7,604.9 L404.5,609.8 L402.4,612.6 L405.7,613.1 L406.0,615.6 L399.7,619.2 L403.1,620.1 L404.5,623.4 L406.0,624.4 L404.0,628.0 L404.6,629.5 L400.9,633.7 L401.2,635.0 L399.0,636.9 L395.2,632.6 L392.1,633.6 L391.2,638.1 L389.3,640.0 L391.0,640.6 L392.6,645.3 L395.1,646.8 L402.9,645.5 L404.4,646.6 L403.7,649.1 L405.0,651.2 L403.9,655.0 L399.0,654.8 L398.6,658.5 L400.4,659.7 L396.9,667.6 L399.6,670.0 L399.6,668.5 L402.1,667.2 L403.9,671.3 L398.9,669.9 L395.4,672.8 L393.9,675.4 L390.8,674.5 L389.7,671.5 L385.3,670.3 L381.9,667.5 L380.7,665.3 L377.0,663.6 L375.5,666.3 L372.7,666.8 L371.0,669.9 L368.1,670.6 L364.4,669.9 L362.4,671.1 L362.3,667.0 L360.2,668.5 L356.9,668.0 L356.3,666.7 L353.2,667.3 L354.3,668.9 L350.5,669.1 L348.7,670.4 L339.0,666.8 L339.0,660.5 L336.5,660.0 L331.8,656.7 L324.8,657.8 L320.3,655.5 L315.5,651.4 L312.6,642.9 L310.3,642.4 L308.3,637.8 L306.7,637.3 L306.8,635.3 L310.6,632.4 L310.7,631.0 L308.3,630.8 L307.9,625.7 L301.7,626.3 L299.5,627.8 L297.3,625.7 L294.7,627.2 L295.4,625.1 L294.5,621.8 L296.8,620.3 L281.4,623.2 L278.1,624.2 L278.3,627.7 L274.5,627.3 L273.0,623.7 L271.3,622.7 L272.0,619.6 L267.8,617.8 L270.8,612.2 L272.9,612.9 L275.2,612.1 L277.7,607.8 L278.7,610.7 L281.8,610.7 L286.2,609.3 L288.8,607.2 L292.0,607.9 L292.2,605.3 L287.1,602.4 L289.2,597.6 L289.7,593.8 L295.4,589.8 L298.0,590.3 L297.1,587.2 L293.4,586.2 L291.3,583.4 L289.5,584.4 L288.5,582.5 L289.6,578.2 L288.6,573.4 L285.9,573.3 L285.5,571.7 L282.1,572.4 L285.6,569.1 L288.3,562.8 L285.4,560.2 L288.1,559.2 L286.0,556.6 L288.1,555.2 L291.5,558.4 L293.0,558.1 L297.0,559.7 L300.4,562.4 L302.3,562.5 L305.4,564.9 L306.7,564.8 L310.6,561.6 L311.9,561.3 L314.6,563.7 L315.9,567.1 L317.2,564.7 L319.1,565.9 L324.2,561.2 L325.2,558.0 L327.4,554.4 L334.4,552.9 L336.1,554.9 L335.3,556.9 L336.4,558.8 L340.3,559.3 L338.9,564.0 L340.0,565.3 L343.2,564.9 L349.5,565.5 L349.6,568.8 L352.3,567.0 L356.3,567.1 L358.7,565.6 L366.8,565.6 L370.4,564.7 L371.7,566.4 L371.5,570.7 L372.2,575.6 L373.5,576.7 L377.5,576.0 L377.6,578.0 L379.3,578.4 L382.3,574.4 L386.1,574.7 Z M327.7,633.7 L327.0,635.0 L329.9,634.3 L334.5,628.5 L335.4,629.8 L340.6,628.7 L342.1,625.6 L340.1,623.3 L345.5,620.4 L345.2,617.1 L347.9,612.9 L346.0,611.2 L347.5,610.2 L349.9,605.5 L345.1,605.4 L344.6,607.2 L339.3,607.8 L336.4,609.1 L336.6,606.8 L334.2,605.9 L333.0,606.8 L333.2,603.6 L326.1,603.0 L322.3,608.0 L315.7,610.1 L315.3,608.9 L312.9,610.7 L314.2,611.1 L313.3,615.9 L315.4,617.0 L316.5,619.3 L324.1,627.5 L327.7,625.2 L331.2,624.9 L329.9,626.7 L330.3,628.9 Z">
  <desc xmlns="http://www.highcharts.com/svg/namespace">
    <name>Südwestpfalz</name>
    <bundesland>DE.RP</bundesland>
    <hc-middle-x>0.74</hc-middle-x>
    <hc-middle-y>0.57</hc-middle-y>
    <hc-key>de-rp-07340000</hc-key>
    <hc-a2>SÜ</hc-a2>
  </desc>
</path>

<path fill="#CEE3F5" stroke="#6E6E6E" stroke-width="0.4" id="DE.RP.07335000" d="M389.3,560.1 L387.8,561.2 L386.2,564.9 L385.5,568.6 L387.1,572.5 L386.1,574.7 L382.3,574.4 L379.3,578.4 L377.6,578.0 L377.5,576.0 L373.5,576.7 L372.2,575.6 L371.5,570.7 L371.7,566.4 L370.4,564.7 L366.8,565.6 L358.7,565.6 L356.3,567.1 L352.3,567.0 L349.6,568.8 L349.5,565.5 L343.2,564.9 L340.0,565.3 L338.9,564.0 L340.3,559.3 L336.4,558.8 L335.3,556.9 L336.1,554.9 L334.4,552.9 L327.4,554.4 L325.2,558.0 L324.2,561.2 L319.1,565.9 L317.2,564.7 L315.9,567.1 L314.6,563.7 L311.9,561.3 L310.6,561.6 L306.7,564.8 L305.4,564.9 L302.3,562.5 L300.4,562.4 L297.0,559.7 L293.0,558.1 L291.5,558.4 L288.1,555.2 L287.9,554.2 L286.7,553.6 L288.8,551.3 L286.0,549.6 L289.1,548.9 L287.5,547.0 L288.9,542.5 L292.7,537.1 L290.4,535.7 L293.8,535.7 L296.0,534.2 L296.9,535.4 L298.7,532.9 L301.7,531.8 L302.4,528.9 L301.1,526.2 L299.0,525.1 L302.6,520.4 L302.1,518.2 L304.7,516.6 L307.7,512.1 L306.6,509.8 L308.7,510.4 L313.8,506.9 L318.1,503.2 L318.0,499.7 L319.2,499.5 L320.3,502.5 L325.1,502.9 L328.7,501.3 L331.3,498.6 L336.3,501.6 L337.2,497.8 L343.6,495.3 L346.4,490.7 L349.1,487.8 L348.5,483.9 L344.2,482.9 L347.1,478.4 L351.7,479.2 L353.7,477.1 L356.8,476.7 L357.4,478.3 L362.7,477.8 L366.3,479.4 L368.6,475.5 L367.3,479.7 L367.5,481.8 L370.2,484.8 L375.6,486.5 L377.1,489.1 L374.1,491.7 L372.5,494.4 L374.5,498.5 L378.7,496.6 L379.3,497.6 L382.2,496.6 L386.6,499.2 L388.9,499.4 L390.5,502.2 L388.7,503.3 L388.5,505.5 L390.2,505.4 L394.5,502.4 L397.4,502.7 L401.4,499.9 L402.5,500.9 L405.0,498.5 L407.5,498.3 L415.0,500.6 L417.8,499.2 L415.7,502.8 L415.6,505.6 L416.9,507.3 L416.8,513.1 L418.4,514.2 L415.1,515.7 L415.6,520.8 L416.5,523.3 L415.4,524.3 L418.7,531.3 L421.8,531.7 L425.5,527.9 L424.7,530.3 L422.6,532.7 L423.4,533.7 L426.8,532.0 L427.0,534.1 L422.1,534.5 L422.9,536.3 L418.0,537.7 L415.0,539.9 L415.2,542.3 L417.3,545.7 L415.7,546.6 L414.9,549.2 L413.0,550.2 L408.5,548.3 L404.5,550.0 L402.3,553.1 L399.4,552.8 L397.4,554.7 L393.2,555.0 L391.2,559.0 L390.8,557.5 L385.6,554.4 L387.5,551.2 L384.8,552.1 L383.6,547.0 L387.2,547.0 L396.1,542.7 L396.6,538.1 L393.6,530.2 L394.0,527.6 L390.6,522.5 L383.6,523.6 L380.8,521.5 L380.2,519.8 L381.9,518.1 L380.7,515.5 L377.8,515.3 L375.4,513.4 L373.9,514.4 L370.7,514.0 L370.3,518.4 L366.2,519.4 L362.1,513.5 L358.3,511.4 L352.9,514.1 L353.6,518.8 L352.0,521.2 L352.6,523.4 L357.5,526.3 L358.0,530.1 L350.7,527.5 L347.5,528.5 L342.3,528.3 L342.5,533.2 L340.4,532.8 L341.1,535.9 L345.6,534.3 L346.5,536.1 L348.4,535.6 L350.6,540.5 L351.9,542.0 L352.1,545.6 L355.2,546.9 L355.4,550.2 L357.0,550.3 L359.2,547.3 L362.0,547.1 L366.7,548.2 L368.9,546.8 L373.0,547.1 L374.5,549.4 L379.0,552.5 L381.1,555.3 L383.6,556.7 L383.7,558.3 L387.0,560.2 Z">
  <desc xmlns="http://www.highcharts.com/svg/namespace">
    <name>Kaiserslautern</name>
    <bundesland>DE.RP</bundesland>
    <hc-middle-x>0.30</hc-middle-x>
    <hc-middle-y>0.47</hc-middle-y>
    <hc-key>de-rp-07335000</hc-key>
    <hc-a2>KA</hc-a2>
  </desc>
</path>

<path fill="#CEE3F5" stroke="#6E6E6E" stroke-width="0.4" id="DE.RP.07316000" d="M425.9,566.0 L428.0,565.7 L429.5,563.1 L432.2,561.5 L433.5,562.7 L437.7,562.9 L443.7,559.5 L447.1,560.5 L450.0,558.8 L450.8,557.2 L448.7,556.2 L449.4,549.2 L452.9,551.1 L454.6,553.1 L457.9,550.5 L457.0,546.2 L460.5,549.4 L465.4,549.2 L468.2,550.1 L468.4,552.7 L472.1,551.8 L474.4,554.4 L477.8,553.9 L478.3,557.3 L477.2,558.6 L476.3,565.3 L478.6,565.5 L478.4,570.4 L484.9,574.0 L489.9,575.3 L493.6,577.0 L495.2,576.5 L498.6,578.2 L499.3,578.4 L499.3,579.4 L496.2,579.4 L496.5,580.5 L492.1,581.1 L484.3,583.5 L483.5,581.8 L477.4,583.4 L471.3,583.2 L472.3,578.4 L469.0,578.6 L468.6,577.4 L462.4,576.7 L457.4,577.9 L454.5,576.6 L450.3,576.4 L445.0,573.4 L440.8,575.1 L438.5,573.6 L434.6,573.1 L432.1,574.5 L428.9,574.0 L428.7,572.8 L431.3,569.8 L426.1,567.3 Z">
  <desc xmlns="http://www.highcharts.com/svg/namespace">
    <name>Neustadt an der Weinstraße</name>
    <bundesland>DE.RP</bundesland>
    <hc-middle-x>0.52</hc-middle-x>
    <hc-middle-y>0.50</hc-middle-y>
    <hc-key>de-rp-07316000</hc-key>
    <hc-a2>NA</hc-a2>
  </desc>
</path>

<path fill="#CEE3F5" stroke="#6E6E6E" stroke-width="0.4" id="DE.RP.07338000" d="M524.3,485.5 L520.7,482.8 L519.4,485.3 L517.3,485.1 L514.8,487.1 L515.8,488.6 L513.7,488.5 L510.1,486.5 L508.6,487.6 L509.1,490.0 L504.9,491.2 L504.7,493.8 L498.8,494.0 L501.1,497.6 L498.4,501.3 L499.0,509.2 L497.9,509.3 L498.0,516.8 L495.6,518.2 L496.0,521.4 L497.1,521.2 L498.4,525.7 L501.1,525.2 L509.0,521.9 L509.3,524.7 L510.4,524.8 L513.5,531.8 L514.9,532.9 L515.8,536.2 L521.3,537.7 L523.5,535.5 L524.4,536.0 L529.4,533.4 L532.4,534.5 L536.3,533.0 L535.4,531.8 L541.5,532.2 L543.4,534.0 L543.6,536.3 L541.7,541.1 L540.8,546.5 L539.0,548.3 L533.7,551.7 L533.2,555.0 L535.0,556.7 L536.4,556.0 L540.2,551.8 L541.7,551.2 L541.8,555.6 L539.8,562.4 L534.8,568.2 L534.1,563.8 L534.5,561.6 L536.6,560.4 L539.7,560.5 L538.2,559.1 L534.8,559.5 L533.9,561.0 L529.8,559.0 L528.4,560.7 L528.2,564.4 L526.3,562.8 L525.2,559.0 L524.0,559.1 L523.7,555.4 L520.1,557.1 L515.6,564.2 L512.8,567.6 L520.0,572.3 L518.3,575.5 L519.3,578.0 L519.2,580.6 L522.7,582.1 L525.8,584.7 L528.3,585.2 L533.8,588.6 L530.8,591.0 L528.8,594.2 L525.5,597.5 L521.2,600.2 L520.6,598.6 L516.3,599.9 L513.6,595.7 L511.0,593.7 L510.8,588.9 L509.6,587.5 L507.5,588.5 L506.6,586.7 L502.1,584.9 L501.5,583.1 L499.9,583.5 L500.8,582.1 L499.3,579.4 L499.3,578.4 L498.6,578.2 L499.3,576.9 L496.3,564.6 L493.8,559.0 L495.2,558.4 L492.1,552.3 L489.3,550.2 L486.2,541.9 L485.9,539.4 L481.2,540.3 L480.1,534.0 L480.9,532.7 L486.9,531.8 L486.8,530.9 L491.9,530.3 L490.5,526.0 L489.2,519.0 L485.3,519.4 L483.9,516.4 L485.0,514.6 L481.9,515.3 L481.7,514.2 L485.6,514.0 L490.4,511.8 L489.9,510.2 L488.0,510.5 L489.3,508.5 L488.1,501.4 L486.3,501.3 L485.9,498.6 L488.6,498.3 L491.8,496.4 L492.4,493.7 L491.3,485.4 L491.8,480.8 L493.3,479.9 L501.4,478.1 L503.4,476.2 L506.0,478.0 L507.6,474.0 L510.3,474.0 L510.6,475.5 L514.2,474.5 L520.5,478.8 L522.6,478.2 L524.6,483.6 Z">
  <desc xmlns="http://www.highcharts.com/svg/namespace">
    <name>Rhein-Pfalz-Kreis</name>
    <bundesland>DE.RP</bundesland>
    <hc-middle-x>0.48</hc-middle-x>
    <hc-middle-y>0.58</hc-middle-y>
    <hc-key>de-rp-07338000</hc-key>
    <hc-a2>RP</hc-a2>
  </desc>
</path>

<path fill="#CEE3F5" stroke="#6E6E6E" stroke-width="0.4" id="DE.RP.07320000" d="M267.8,617.8 L264.5,613.6 L262.9,609.0 L264.0,605.7 L260.9,603.1 L261.0,601.0 L264.3,597.9 L264.3,595.9 L266.5,593.8 L268.8,597.2 L269.4,593.8 L272.7,591.5 L274.0,588.2 L271.8,586.4 L276.5,585.2 L278.9,586.7 L280.4,585.7 L283.7,581.1 L282.4,579.8 L282.7,576.6 L285.3,575.7 L285.9,573.3 L288.6,573.4 L289.6,578.2 L288.5,582.5 L289.5,584.4 L291.3,583.4 L293.4,586.2 L297.1,587.2 L298.0,590.3 L295.4,589.8 L289.7,593.8 L289.2,597.6 L287.1,602.4 L292.2,605.3 L292.0,607.9 L288.8,607.2 L286.2,609.3 L281.8,610.7 L278.7,610.7 L277.7,607.8 L275.2,612.1 L272.9,612.9 L270.8,612.2 Z">
  <desc xmlns="http://www.highcharts.com/svg/namespace">
    <name>Zweibrücken</name>
    <bundesland>DE.RP</bundesland>
    <hc-middle-x>0.41</hc-middle-x>
    <hc-middle-y>0.66</hc-middle-y>
    <hc-key>de-rp-07320000</hc-key>
    <hc-a2>ZW</hc-a2>
  </desc>
</path>

<path fill="#CEE3F5" stroke="#6E6E6E" stroke-width="0.4" id="DE.RP.07337000" d="M499.3,579.4 L500.8,582.1 L499.9,583.5 L499.1,585.2 L494.6,588.4 L487.1,589.5 L483.0,590.8 L483.7,595.0 L479.3,596.2 L480.5,601.6 L479.5,603.2 L480.8,606.3 L480.4,613.8 L477.0,613.3 L475.4,614.1 L476.0,616.9 L475.2,618.8 L475.4,627.7 L478.2,627.2 L481.1,628.0 L484.6,627.2 L485.0,632.0 L486.4,634.1 L484.3,636.6 L486.2,643.7 L484.3,643.1 L478.4,644.3 L476.9,643.2 L477.2,645.8 L473.7,646.9 L473.8,649.6 L469.2,647.0 L469.4,645.9 L466.5,645.3 L465.4,642.5 L464.2,642.6 L464.5,639.6 L461.4,641.6 L456.2,643.2 L452.4,641.4 L452.7,649.4 L452.1,652.4 L448.6,653.0 L448.6,657.7 L447.7,656.7 L444.4,657.0 L442.4,662.2 L437.7,661.6 L438.0,666.4 L440.9,665.6 L440.9,668.6 L442.4,676.0 L441.7,681.8 L440.0,683.9 L440.3,688.0 L439.3,685.8 L436.1,682.8 L429.0,680.0 L423.7,677.3 L420.7,678.3 L418.6,677.9 L416.8,672.8 L412.0,669.8 L411.9,667.8 L408.8,666.8 L406.7,671.9 L405.3,672.8 L403.9,671.3 L402.1,667.2 L399.6,668.5 L399.6,670.0 L396.9,667.6 L400.4,659.7 L398.6,658.5 L399.0,654.8 L403.9,655.0 L405.0,651.2 L403.7,649.1 L404.4,646.6 L402.9,645.5 L395.1,646.8 L392.6,645.3 L391.0,640.6 L389.3,640.0 L391.2,638.1 L392.1,633.6 L395.2,632.6 L399.0,636.9 L401.2,635.0 L400.9,633.7 L404.6,629.5 L404.0,628.0 L406.0,624.4 L404.5,623.4 L403.1,620.1 L399.7,619.2 L406.0,615.6 L405.7,613.1 L402.4,612.6 L404.5,609.8 L402.7,604.9 L398.2,604.3 L395.2,605.2 L394.8,602.5 L396.8,602.4 L398.4,600.7 L397.2,598.9 L390.7,596.0 L385.9,599.2 L386.0,592.9 L388.0,590.7 L392.4,590.8 L395.2,589.0 L396.2,587.0 L397.9,589.9 L400.1,588.3 L403.6,587.4 L404.3,588.5 L408.0,586.4 L408.2,585.0 L413.5,586.1 L413.3,588.3 L411.0,587.4 L408.5,589.9 L410.2,591.9 L412.0,592.1 L413.1,594.8 L417.3,595.8 L419.2,594.1 L416.9,591.3 L417.6,586.7 L417.5,583.1 L415.1,582.0 L412.2,584.0 L411.3,583.3 L411.2,578.1 L411.9,574.2 L419.6,571.1 L421.7,569.4 L422.4,566.4 L423.9,567.6 L425.9,566.0 L426.1,567.3 L431.3,569.8 L428.7,572.8 L428.9,574.0 L432.1,574.5 L434.6,573.1 L438.5,573.6 L440.8,575.1 L445.0,573.4 L450.3,576.4 L454.5,576.6 L457.4,577.9 L462.4,576.7 L468.6,577.4 L469.0,578.6 L472.3,578.4 L471.3,583.2 L477.4,583.4 L483.5,581.8 L484.3,583.5 L492.1,581.1 L496.5,580.5 L496.2,579.4 Z M451.4,626.1 L455.5,627.6 L461.1,625.8 L461.6,628.0 L466.5,629.8 L465.8,626.5 L466.9,623.2 L466.5,619.8 L464.4,619.9 L464.7,616.3 L466.8,614.1 L461.8,614.9 L462.6,612.2 L461.6,607.5 L455.4,607.4 L453.9,605.8 L450.9,606.2 L450.1,605.2 L445.7,607.0 L439.6,608.5 L438.7,610.5 L440.5,615.8 L435.1,616.6 L435.4,617.9 L429.6,618.5 L430.1,619.7 L434.3,619.7 L438.8,620.5 L438.5,621.9 L441.7,621.9 L439.9,625.0 L440.2,627.0 L438.2,627.5 L437.7,629.6 L440.1,631.1 L440.0,632.7 L446.2,632.7 L447.9,630.9 L448.3,628.2 Z M423.9,625.2 L421.4,623.3 L419.9,624.5 L422.4,627.2 Z">
  <desc xmlns="http://www.highcharts.com/svg/namespace">
    <name>Südliche Weinstraße</name>
    <bundesland>DE.RP</bundesland>
    <hc-middle-x>0.28</hc-middle-x>
    <hc-middle-y>0.44</hc-middle-y>
    <hc-key>de-rp-07337000</hc-key>
    <hc-a2>SW</hc-a2>
  </desc>
</path>

<path fill="#CEE3F5" stroke="#6E6E6E" stroke-width="0.4" id="DE.RP.07339000" d="M507.1,355.9 L509.4,363.1 L509.2,368.1 L506.9,374.2 L507.7,379.1 L510.2,382.6 L515.3,384.8 L516.5,387.6 L514.9,393.9 L515.8,398.9 L519.8,404.4 L514.6,405.8 L512.3,409.6 L509.3,412.0 L504.5,411.1 L500.1,411.0 L498.6,412.8 L498.9,414.7 L497.0,415.1 L495.1,419.0 L495.8,421.4 L492.6,423.6 L489.8,419.5 L488.1,419.9 L486.3,416.8 L481.6,416.5 L481.3,409.0 L479.8,405.8 L482.1,403.1 L481.1,399.3 L481.7,397.2 L476.4,397.5 L473.0,396.9 L471.7,389.9 L475.5,388.9 L477.6,386.4 L476.4,383.8 L474.9,384.1 L475.4,381.5 L473.5,381.1 L472.2,378.1 L472.5,375.6 L471.0,374.9 L471.3,372.9 L469.1,369.8 L465.4,370.2 L465.2,372.0 L460.4,373.1 L457.8,373.0 L455.8,369.9 L449.1,373.7 L447.8,373.5 L439.7,375.0 L443.3,379.7 L440.1,382.1 L437.4,382.8 L435.0,385.0 L435.5,386.3 L432.0,386.2 L427.6,390.1 L425.5,393.4 L422.1,393.5 L422.2,391.9 L420.0,392.9 L418.0,388.2 L420.1,387.9 L421.3,385.4 L417.3,378.4 L416.6,376.0 L410.2,375.5 L409.0,368.1 L407.8,367.2 L408.2,364.7 L405.6,361.9 L405.6,358.2 L403.8,358.3 L400.6,356.1 L398.9,356.5 L396.4,354.3 L393.4,353.6 L386.5,356.8 L383.6,355.2 L384.4,351.7 L388.2,351.5 L387.3,348.6 L384.0,347.7 L380.8,344.7 L377.3,342.6 L376.1,337.2 L374.0,335.2 L369.7,333.1 L368.6,333.5 L363.8,329.1 L360.8,328.4 L359.0,321.5 L357.0,322.7 L353.5,321.8 L354.7,318.8 L362.4,310.5 L370.0,306.7 L371.9,304.9 L376.0,303.9 L377.5,305.6 L378.0,309.7 L377.9,313.3 L382.0,317.6 L385.1,319.4 L390.0,325.3 L394.7,328.2 L396.6,330.6 L398.2,339.8 L399.5,342.2 L403.1,343.5 L412.1,342.7 L414.5,343.0 L421.6,341.7 L430.6,337.4 L436.0,334.0 L439.6,332.6 L445.7,332.1 L450.4,330.4 L453.7,328.2 L458.8,325.7 L462.3,325.0 L470.5,322.0 L472.6,322.0 L472.9,323.4 L475.9,324.5 L474.0,328.5 L471.0,332.1 L468.0,333.2 L464.6,333.2 L465.1,335.7 L463.5,336.4 L464.1,338.7 L461.8,340.4 L461.8,343.9 L462.8,347.1 L469.8,345.9 L471.3,347.6 L472.4,351.2 L475.1,349.2 L478.4,349.7 L480.7,353.0 L484.4,353.2 L484.8,355.9 L480.9,362.5 L481.2,366.0 L480.5,369.9 L485.5,371.6 L487.9,365.0 L490.2,363.3 L489.8,361.1 L492.7,359.0 L492.8,355.4 L496.4,355.1 L498.7,353.3 L498.3,355.3 L499.8,355.5 L503.3,354.1 L504.9,356.7 Z">
  <desc xmlns="http://www.highcharts.com/svg/namespace">
    <name>Mainz-Bingen</name>
    <bundesland>DE.RP</bundesland>
    <hc-middle-x>0.53</hc-middle-x>
    <hc-middle-y>0.44</hc-middle-y>
    <hc-key>de-rp-07339000</hc-key>
    <hc-a2>MB</hc-a2>
  </desc>
</path>

<path fill="#CEE3F5" stroke="#6E6E6E" stroke-width="0.4" id="DE.RP.07140000" d="M376.0,303.9 L371.9,304.9 L370.0,306.7 L362.4,310.5 L354.7,318.8 L353.5,321.8 L357.0,322.7 L359.0,321.5 L360.8,328.4 L363.8,329.1 L368.6,333.5 L362.7,333.8 L357.8,332.5 L357.6,334.1 L362.2,340.1 L356.2,341.0 L352.7,344.2 L353.4,347.2 L351.0,349.2 L351.7,354.0 L348.7,357.4 L344.5,355.6 L341.4,359.0 L336.3,361.6 L333.0,364.8 L331.0,367.8 L327.9,369.1 L324.4,369.1 L314.7,380.1 L311.6,381.8 L310.9,380.7 L307.0,379.1 L303.0,383.3 L296.7,388.1 L295.7,386.6 L297.1,384.5 L294.4,383.2 L294.1,381.8 L291.0,382.5 L288.6,381.5 L290.1,380.7 L289.8,371.8 L290.3,369.3 L288.6,368.2 L282.0,367.0 L277.4,368.2 L275.8,366.4 L274.1,366.8 L271.1,372.2 L268.5,372.6 L267.2,374.0 L264.2,372.7 L265.7,369.4 L264.4,366.5 L258.3,369.3 L255.3,367.9 L250.9,371.3 L248.6,365.9 L250.1,364.6 L250.6,361.9 L253.7,360.4 L258.6,351.6 L251.3,348.9 L249.5,343.9 L247.1,342.5 L250.0,342.2 L256.2,345.1 L258.4,344.3 L260.4,339.3 L262.1,340.9 L265.6,341.5 L267.3,337.6 L266.4,333.2 L270.7,333.6 L277.4,329.8 L277.6,327.3 L280.7,328.1 L282.3,326.1 L280.0,321.4 L279.0,317.5 L276.3,310.4 L273.5,307.9 L274.3,307.1 L276.1,309.1 L279.3,308.9 L280.2,302.4 L283.9,302.5 L287.9,297.2 L292.4,294.3 L294.2,291.7 L292.3,289.8 L291.3,285.7 L287.7,283.9 L286.7,280.2 L285.2,280.1 L287.6,275.9 L289.5,274.6 L292.0,273.4 L293.3,274.9 L295.7,274.1 L297.5,271.1 L300.5,269.4 L297.1,263.4 L299.3,262.7 L298.5,260.7 L300.8,258.5 L300.3,256.3 L302.7,258.0 L305.3,255.9 L305.6,258.9 L304.5,261.4 L306.8,259.3 L307.2,261.5 L309.5,260.7 L311.9,256.9 L313.6,255.7 L315.1,252.1 L318.7,250.3 L319.2,246.1 L320.5,242.4 L325.3,238.3 L328.5,241.0 L332.8,241.0 L334.0,242.5 L336.6,240.9 L339.9,241.3 L342.3,239.4 L343.6,242.6 L347.2,244.0 L347.7,245.8 L339.7,244.0 L336.9,244.5 L334.6,247.2 L336.0,249.4 L340.4,250.2 L342.9,252.8 L343.9,255.8 L348.5,260.2 L349.8,264.7 L349.2,268.9 L351.3,270.7 L355.4,272.3 L358.6,272.7 L362.3,275.0 L363.8,277.8 L366.8,280.3 L367.4,283.6 L369.8,285.2 L370.3,287.2 L366.6,291.6 L367.1,293.7 L371.4,297.8 Z">
  <desc xmlns="http://www.highcharts.com/svg/namespace">
    <name>Rhein-Hunsrück-Kreis</name>
    <bundesland>DE.RP</bundesland>
    <hc-middle-x>0.56</hc-middle-x>
    <hc-middle-y>0.47</hc-middle-y>
    <hc-key>de-rp-07140000</hc-key>
    <hc-a2>RH</hc-a2>
  </desc>
</path>

<path fill="#CEE3F5" stroke="#6E6E6E" stroke-width="0.4" id="DE.RP.07334000" d="M440.3,688.0 L440.0,683.9 L441.7,681.8 L442.4,676.0 L440.9,668.6 L440.9,665.6 L438.0,666.4 L437.7,661.6 L442.4,662.2 L444.4,657.0 L447.7,656.7 L448.6,657.7 L448.6,653.0 L452.1,652.4 L452.7,649.4 L452.4,641.4 L456.2,643.2 L461.4,641.6 L464.5,639.6 L464.2,642.6 L465.4,642.5 L466.5,645.3 L469.4,645.9 L469.2,647.0 L473.8,649.6 L473.7,646.9 L477.2,645.8 L476.9,643.2 L478.4,644.3 L484.3,643.1 L486.2,643.7 L484.3,636.6 L486.4,634.1 L485.0,632.0 L484.6,627.2 L481.1,628.0 L478.2,627.2 L475.4,627.7 L475.2,618.8 L476.0,616.9 L475.4,614.1 L477.0,613.3 L480.4,613.8 L480.8,606.3 L479.5,603.2 L480.5,601.6 L479.3,596.2 L483.7,595.0 L483.0,590.8 L487.1,589.5 L494.6,588.4 L499.1,585.2 L499.9,583.5 L501.5,583.1 L502.1,584.9 L506.6,586.7 L507.5,588.5 L509.6,587.5 L510.8,588.9 L511.0,593.7 L513.6,595.7 L516.3,599.9 L520.6,598.6 L521.2,600.2 L518.3,602.2 L515.3,606.8 L514.6,610.8 L516.4,609.1 L518.9,609.1 L519.3,610.6 L517.7,615.1 L514.6,618.4 L513.7,622.8 L511.0,628.1 L510.4,630.4 L511.6,634.7 L508.6,652.0 L507.2,655.5 L505.2,658.5 L501.0,662.9 L498.2,667.0 L495.3,674.0 L493.7,683.6 L491.3,688.9 L488.9,691.8 L478.4,700.0 L476.1,696.7 L474.4,696.9 L470.8,699.8 L469.6,696.2 L464.0,695.5 L460.1,696.1 L456.1,695.2 L453.2,692.7 L452.3,693.3 L447.9,691.4 L445.7,691.6 Z">
  <desc xmlns="http://www.highcharts.com/svg/namespace">
    <name>Germersheim</name>
    <bundesland>DE.RP</bundesland>
    <hc-middle-x>0.39</hc-middle-x>
    <hc-middle-y>0.74</hc-middle-y>
    <hc-key>de-rp-07334000</hc-key>
    <hc-a2>GE</hc-a2>
  </desc>
</path>
</g>

<text x="350" y="714" text-anchor="middle" font-family="Verdana" font-size="8" stroke-opacity="0.6">Copyright (c) 2023 Highsoft AS, Based on data from GeoBasis-DE / BKG 2014</text>

</svg>