<?xml version="1.0" encoding="utf-8" standalone="no"?>
<!DOCTYPE svg PUBLIC "-//W3C//DTD SVG 1.1//EN" "http://www.w3.org/Graphics/SVG/1.1/DTD/svg11.dtd">

<svg version="1.1" height="700pt" width="700pt" xmlns="http://www.w3.org/2000/svg" xmlns:xlink="http://www.w3.org/1999/xlink">
<desc>
Map version: 1.1.3
Copyright (c) 2020 Highsoft AS, Based on data from GeoBasis-DE / BKG 2014
</desc>
<title>Sachsen</title>
<g id="admin2">

<g id="DE">
  <desc xmlns="http://www.highcharts.com/svg/namespace">
    <name>Germany</name>
    <labelrank>2</labelrank>
    <country-abbrev>Ger.</country-abbrev>
    <subregion>Western Europe</subregion>
    <region-wb>Europe &amp; Central Asia</region-wb>
    <iso-a3>DEU</iso-a3>
    <iso-a2>DE</iso-a2>
    <woe-id>23424829</woe-id>
    <continent>Europe</continent>
    <hc-key>de</hc-key>
    <hc-a2>GE</hc-a2>
  </desc>
</g>

<g id="DE.SN">
  <desc xmlns="http://www.highcharts.com/svg/namespace">
    <labelrank>3</labelrank>
    <hasc>DE.SN</hasc>
    <alt-name>Saxony</alt-name>
    <woe-id>2345493</woe-id>
    <subregion>NULL</subregion>
    <fips>GM13</fips>
    <postal-code>SN</postal-code>
    <name>Sachsen</name>
    <country>Germany</country>
    <type-en>State</type-en>
    <region>NULL</region>
    <longitude>13.4596</longitude>
    <woe-name>Sachsen</woe-name>
    <latitude>51.0053</latitude>
    <woe-label>Saxony, DE, Germany</woe-label>
    <type>Land</type>
    <hc-key>de-sn</hc-key>
    <hc-a2>SA</hc-a2>
  </desc>
</g>

<path fill="#CEE3F5" stroke="#6E6E6E" stroke-width="0.4" id="DE.SN.14522000" d="M394.5,297.9 L392.6,298.2 L388.4,300.8 L388.8,302.8 L383.3,304.8 L380.5,303.7 L376.0,303.8 L374.0,303.0 L370.8,304.1 L368.8,306.0 L366.4,306.4 L366.5,307.7 L369.3,311.0 L370.4,315.8 L369.1,317.4 L369.4,319.1 L367.3,319.0 L363.5,323.2 L364.3,325.8 L366.1,325.4 L365.7,329.0 L360.7,330.8 L359.5,330.6 L356.2,326.9 L357.9,326.3 L359.2,323.8 L357.4,323.1 L357.0,325.1 L350.9,322.1 L349.1,319.9 L346.6,320.5 L345.2,319.6 L346.2,315.7 L341.8,314.4 L343.4,313.2 L341.9,311.2 L340.0,312.9 L338.4,308.6 L336.3,305.7 L332.8,302.5 L332.9,299.7 L332.1,294.9 L334.2,295.2 L331.3,288.8 L326.8,289.5 L323.8,291.3 L321.5,291.7 L320.9,293.1 L318.2,291.1 L315.8,291.4 L312.9,293.3 L310.5,291.6 L310.3,289.6 L312.4,284.8 L308.4,281.3 L306.2,280.1 L304.4,282.0 L301.2,278.9 L298.1,279.3 L297.3,278.1 L287.8,277.3 L287.7,279.1 L286.2,278.4 L282.0,281.9 L280.2,279.7 L277.1,278.8 L278.1,276.0 L276.4,273.9 L272.8,275.1 L270.3,277.8 L266.9,274.3 L265.4,271.0 L262.4,268.6 L263.6,267.3 L260.6,264.1 L262.9,258.9 L262.8,256.5 L260.0,255.6 L259.2,254.1 L257.2,254.6 L253.8,252.4 L249.3,252.4 L248.5,254.3 L249.3,248.0 L252.0,245.0 L249.8,242.0 L250.1,239.1 L247.2,237.6 L242.3,238.1 L241.9,239.9 L239.6,238.8 L235.2,240.2 L233.0,238.4 L230.0,238.0 L230.4,235.3 L228.3,233.9 L224.0,234.4 L222.2,235.6 L219.4,235.6 L214.6,239.9 L213.7,242.9 L212.7,242.6 L209.4,246.1 L207.7,246.2 L207.0,244.3 L203.5,245.9 L202.3,244.7 L203.4,243.3 L200.9,241.8 L198.2,238.0 L197.1,238.6 L195.8,236.0 L195.8,232.3 L193.9,231.4 L190.9,233.6 L186.9,231.3 L185.3,232.7 L181.5,229.1 L179.8,225.8 L176.8,225.5 L174.4,223.6 L172.0,218.8 L170.5,211.5 L170.5,208.1 L169.6,205.4 L173.2,206.2 L174.9,204.6 L179.5,204.9 L180.7,203.4 L184.8,204.4 L189.3,196.9 L194.8,200.3 L197.6,198.7 L196.3,198.5 L194.5,194.8 L194.5,192.9 L190.8,191.5 L191.0,189.4 L193.0,188.6 L193.4,186.7 L194.9,186.5 L194.2,183.4 L194.9,181.8 L192.2,178.2 L192.6,175.8 L194.6,173.0 L194.5,170.4 L196.7,169.6 L198.7,166.9 L197.3,166.4 L197.7,163.3 L199.0,162.8 L204.2,164.3 L205.9,163.3 L208.6,164.9 L209.4,163.7 L212.3,164.3 L211.4,166.3 L213.7,168.4 L220.0,167.8 L220.9,166.5 L227.8,168.1 L231.1,166.4 L230.2,165.3 L232.4,162.5 L229.4,158.0 L230.6,157.8 L231.8,155.0 L230.4,154.5 L229.0,151.7 L226.5,149.6 L223.7,149.6 L222.1,146.8 L224.9,144.4 L225.1,142.0 L229.5,138.0 L230.0,133.0 L232.3,132.2 L231.3,131.3 L232.4,128.3 L234.2,126.9 L238.8,127.9 L239.5,125.2 L242.3,124.7 L247.3,123.0 L253.9,124.2 L255.1,125.5 L254.0,127.1 L256.3,126.9 L256.5,128.9 L259.3,129.8 L259.4,132.0 L265.0,131.6 L265.9,130.2 L265.7,127.4 L266.7,126.6 L269.5,127.7 L272.8,125.8 L274.8,128.5 L279.3,128.1 L278.2,124.5 L287.7,125.5 L287.9,122.9 L293.3,123.2 L292.9,122.1 L295.7,121.0 L298.9,122.5 L300.8,127.0 L300.2,128.5 L297.4,129.0 L299.4,132.0 L300.8,132.3 L301.9,139.2 L301.1,141.5 L304.2,141.6 L304.8,143.7 L306.6,144.0 L308.1,146.8 L310.4,146.3 L309.9,151.3 L308.7,156.8 L309.7,159.3 L308.3,163.1 L304.1,163.2 L303.8,166.9 L305.0,165.6 L309.4,164.2 L309.2,166.4 L310.7,169.3 L309.8,176.0 L311.0,179.0 L310.1,180.5 L307.0,180.2 L307.8,183.9 L312.2,184.9 L309.9,186.9 L310.9,189.1 L306.9,192.7 L306.2,196.5 L303.7,198.2 L305.4,200.1 L314.3,192.0 L318.2,191.9 L319.9,191.0 L325.1,190.3 L329.3,187.1 L333.9,185.6 L338.6,185.4 L341.4,189.0 L346.1,191.6 L350.3,193.6 L352.1,196.2 L348.4,200.8 L346.8,204.8 L348.9,210.1 L357.1,209.5 L357.0,211.6 L353.5,214.2 L350.8,214.6 L351.8,215.8 L348.3,218.5 L346.8,223.1 L352.7,223.6 L351.1,224.6 L350.6,228.4 L353.2,230.2 L352.6,233.2 L353.8,238.0 L355.1,238.2 L359.5,241.1 L360.8,243.7 L362.4,250.0 L365.2,253.8 L363.9,256.2 L361.8,256.8 L363.3,257.9 L362.5,259.3 L365.2,260.2 L366.9,263.9 L368.6,262.8 L371.3,263.1 L372.7,267.2 L374.4,268.8 L378.4,269.7 L374.4,270.5 L373.4,271.5 L375.4,272.2 L372.6,277.3 L372.7,279.6 L377.8,283.2 L382.3,281.9 L384.2,284.0 L387.0,291.6 L391.1,294.1 Z">
  <desc xmlns="http://www.highcharts.com/svg/namespace">
    <name>Mittelsachsen</name>
    <bundesland>DE.SN</bundesland>
    <hc-middle-x>0.45</hc-middle-x>
    <hc-middle-y>0.38</hc-middle-y>
    <hc-key>de-sn-14522000</hc-key>
    <hc-a2>MI</hc-a2>
  </desc>
</path>

<path fill="#CEE3F5" stroke="#6E6E6E" stroke-width="0.4" id="DE.SN.14511000" d="M209.4,246.1 L212.7,242.6 L213.7,242.9 L214.6,239.9 L219.4,235.6 L222.2,235.6 L224.0,234.4 L228.3,233.9 L230.4,235.3 L230.0,238.0 L233.0,238.4 L235.2,240.2 L239.6,238.8 L241.9,239.9 L242.3,238.1 L247.2,237.6 L250.1,239.1 L249.8,242.0 L252.0,245.0 L249.3,248.0 L248.5,254.3 L249.3,252.4 L253.8,252.4 L257.2,254.6 L259.2,254.1 L260.0,255.6 L262.8,256.5 L262.9,258.9 L260.6,264.1 L263.6,267.3 L262.4,268.6 L256.3,278.8 L255.4,281.1 L253.1,280.7 L249.6,277.6 L249.1,281.9 L243.5,286.4 L243.2,287.6 L240.7,284.5 L237.2,286.3 L237.2,289.8 L235.2,290.5 L231.7,289.4 L228.0,285.6 L227.5,282.7 L225.1,283.1 L225.1,281.6 L228.8,279.2 L227.3,275.1 L224.6,276.9 L222.8,276.5 L223.7,273.9 L217.8,270.5 L216.7,268.9 L211.3,273.5 L206.6,274.6 L202.8,273.7 L203.0,272.8 L202.3,268.1 L200.6,267.3 L201.0,265.1 L196.6,262.7 L196.5,261.5 L191.9,262.8 L194.1,260.6 L194.4,258.8 L197.2,260.5 L200.4,260.7 L200.5,258.6 L202.1,261.0 L203.3,257.9 L205.4,257.9 L204.3,256.5 L209.4,252.5 Z">
  <desc xmlns="http://www.highcharts.com/svg/namespace">
    <name>Chemnitz</name>
    <bundesland>DE.SN</bundesland>
    <hc-middle-x>0.63</hc-middle-x>
    <hc-middle-y>0.44</hc-middle-y>
    <hc-key>de-sn-14511000</hc-key>
    <hc-a2>CH</hc-a2>
  </desc>
</path>

<path fill="#CEE3F5" stroke="#6E6E6E" stroke-width="0.4" id="DE.SN.14626000" d="M571.6,18.8 L571.4,15.1 L572.2,14.1 L582.9,12.9 L586.2,14.7 L588.3,13.2 L591.8,12.7 L593.2,11.5 L592.6,8.0 L596.0,8.1 L598.0,5.4 L600.4,5.7 L600.9,7.7 L604.3,8.7 L605.3,14.5 L606.6,16.2 L611.3,16.0 L612.8,14.9 L618.3,14.8 L620.5,16.1 L623.7,13.1 L625.2,7.9 L627.6,7.2 L625.5,0.2 L627.8,0.0 L632.6,5.4 L632.0,7.6 L628.6,12.0 L629.7,14.6 L632.4,16.3 L632.9,18.4 L631.9,19.8 L632.3,22.5 L633.8,24.8 L637.1,26.1 L639.1,25.7 L640.4,27.2 L647.0,27.7 L648.9,28.9 L650.1,31.6 L651.6,31.1 L654.7,32.5 L655.3,34.0 L659.1,37.5 L662.0,37.4 L663.2,39.1 L666.8,38.2 L668.8,40.1 L671.1,39.4 L674.2,40.0 L675.2,43.2 L679.5,43.5 L681.5,46.6 L681.4,48.2 L683.8,52.6 L685.3,53.9 L684.6,57.2 L682.0,57.7 L683.7,59.4 L683.8,62.9 L682.0,65.1 L684.1,67.8 L684.2,69.3 L681.9,70.0 L683.6,71.8 L684.3,75.8 L687.4,77.5 L686.2,80.2 L683.4,81.8 L685.3,82.7 L686.3,86.5 L686.1,88.7 L689.5,95.2 L692.8,97.4 L693.8,102.9 L695.0,102.7 L698.2,105.3 L698.4,110.8 L700.0,112.1 L699.0,113.4 L699.3,117.3 L696.3,119.2 L699.2,122.4 L697.1,123.4 L696.8,126.2 L694.6,128.2 L694.3,132.9 L692.6,136.3 L693.9,139.5 L692.0,141.0 L692.9,144.0 L691.3,147.6 L691.9,149.3 L689.6,150.6 L691.1,155.4 L689.0,158.2 L690.2,161.3 L688.6,166.8 L687.4,166.3 L686.3,170.2 L687.5,172.0 L686.6,173.9 L687.5,175.7 L685.8,177.0 L686.4,180.5 L684.0,182.4 L684.7,183.1 L682.8,187.8 L683.2,189.3 L680.9,191.0 L679.1,198.0 L676.7,200.4 L677.4,203.2 L675.4,207.9 L672.8,209.1 L673.5,211.4 L673.0,216.1 L669.7,217.0 L670.0,218.4 L667.6,224.5 L668.3,227.7 L667.2,229.5 L663.6,231.2 L661.9,235.8 L658.7,237.9 L656.6,241.6 L651.4,247.0 L650.9,248.9 L652.6,252.4 L651.7,255.9 L649.3,258.8 L647.7,263.7 L647.1,268.6 L645.4,268.2 L642.5,269.5 L639.7,269.7 L638.2,268.0 L636.0,268.0 L635.5,266.4 L633.6,266.4 L630.8,268.6 L628.9,268.3 L629.5,265.2 L627.0,262.2 L623.0,263.2 L617.4,259.2 L613.8,259.4 L610.5,257.2 L607.3,256.3 L607.3,253.9 L608.6,252.5 L610.2,247.4 L611.2,242.5 L614.9,239.7 L614.8,232.7 L614.3,230.7 L611.8,231.3 L609.5,232.8 L607.1,232.8 L599.6,236.6 L595.6,235.2 L594.7,232.8 L597.3,228.4 L599.1,227.1 L600.2,223.5 L602.5,219.8 L603.3,211.4 L599.4,209.2 L598.8,206.8 L594.9,204.5 L589.2,205.6 L590.3,203.3 L587.2,200.4 L581.3,199.2 L582.1,195.4 L583.5,191.9 L581.4,190.7 L579.8,191.7 L578.3,189.9 L579.6,185.6 L575.9,182.5 L576.5,181.1 L579.1,180.0 L585.8,178.6 L591.4,178.2 L594.6,178.7 L597.6,175.3 L596.3,172.0 L600.2,170.5 L597.7,167.3 L598.3,165.2 L602.3,165.4 L605.4,166.4 L607.6,166.1 L605.1,164.2 L606.0,161.8 L608.5,162.3 L611.9,160.8 L612.5,156.7 L616.8,152.5 L619.9,155.6 L621.8,155.5 L620.8,151.6 L621.3,149.5 L623.4,149.3 L623.1,147.1 L625.2,144.5 L623.9,142.7 L619.3,140.3 L621.0,139.4 L621.9,137.3 L621.8,133.8 L618.2,134.0 L614.5,131.5 L615.4,128.7 L613.9,127.1 L612.3,130.0 L608.4,127.1 L610.4,123.6 L611.5,123.3 L611.8,120.7 L609.6,117.3 L606.8,116.8 L608.1,115.0 L609.1,110.4 L606.6,109.8 L604.1,107.0 L603.7,104.5 L605.3,100.3 L602.9,100.6 L604.0,99.1 L601.2,98.8 L602.8,96.2 L599.2,94.6 L596.4,96.9 L593.1,90.7 L591.2,89.8 L590.4,87.8 L591.5,83.0 L589.8,86.1 L587.7,86.4 L586.6,91.1 L587.2,92.9 L583.1,93.2 L577.8,95.5 L576.3,91.9 L576.3,88.2 L575.3,86.8 L573.3,86.8 L574.4,83.3 L579.3,75.5 L578.0,73.2 L580.3,68.0 L582.5,65.1 L580.5,64.3 L584.0,64.4 L585.4,63.1 L584.9,61.5 L587.5,57.0 L586.9,55.4 L584.4,55.1 L584.0,51.5 L579.0,50.6 L579.8,48.4 L581.6,46.8 L580.2,44.6 L577.5,43.4 L576.4,41.8 L577.5,40.7 L576.6,38.7 L577.4,35.4 L579.5,34.9 L577.6,34.0 L576.9,30.4 L575.6,29.6 L569.8,29.4 L572.5,22.8 Z">
  <desc xmlns="http://www.highcharts.com/svg/namespace">
    <name>Görlitz</name>
    <bundesland>DE.SN</bundesland>
    <hc-middle-x>0.61</hc-middle-x>
    <hc-middle-y>0.58</hc-middle-y>
    <hc-key>de-sn-14626000</hc-key>
    <hc-a2>GÖ</hc-a2>
  </desc>
</path>

<path fill="#CEE3F5" stroke="#6E6E6E" stroke-width="0.4" id="DE.SN.14521000" d="M360.7,330.8 L358.6,334.3 L355.2,337.0 L352.3,341.7 L347.2,338.4 L344.8,338.6 L343.6,336.4 L342.3,336.8 L339.8,332.3 L339.5,330.1 L336.7,327.5 L336.6,325.9 L334.5,326.3 L332.0,324.4 L333.2,332.4 L331.0,335.3 L325.3,337.4 L323.6,339.3 L321.6,338.7 L320.3,341.1 L320.9,342.7 L320.9,348.1 L315.3,349.1 L313.8,350.1 L311.9,344.5 L311.2,343.8 L307.1,344.0 L306.2,342.9 L304.3,345.8 L301.1,348.4 L301.5,351.5 L299.3,352.9 L298.7,355.5 L299.8,356.6 L299.7,359.0 L295.3,365.5 L294.9,368.2 L292.0,370.3 L292.4,374.0 L288.2,374.5 L283.5,372.5 L279.1,373.1 L279.5,370.9 L278.3,369.0 L275.5,370.4 L271.3,374.1 L265.8,375.0 L261.2,374.4 L258.4,370.8 L255.8,371.8 L256.0,374.6 L253.9,378.7 L252.7,386.2 L253.7,390.6 L252.0,394.1 L247.2,397.6 L245.0,401.8 L239.9,403.9 L236.1,404.3 L233.8,406.3 L233.9,404.8 L228.7,400.4 L227.3,400.9 L224.9,398.2 L215.0,391.7 L212.5,389.4 L208.7,387.4 L207.9,390.7 L205.6,392.5 L206.3,397.2 L203.0,390.8 L189.5,396.3 L188.3,400.0 L183.2,404.6 L183.0,408.2 L177.5,403.7 L175.7,401.2 L173.2,402.8 L169.5,403.2 L165.1,401.1 L163.2,401.3 L160.0,404.3 L155.8,404.0 L156.0,398.3 L146.0,391.1 L138.0,383.8 L136.6,381.8 L137.1,376.7 L136.7,373.6 L133.5,375.9 L129.5,371.8 L131.2,370.9 L129.0,370.0 L132.2,368.7 L132.2,366.4 L131.0,366.1 L133.9,362.6 L136.7,361.1 L141.4,360.4 L142.7,358.1 L144.5,357.3 L145.0,355.2 L145.9,353.6 L149.4,351.2 L154.6,351.7 L157.4,353.4 L162.1,351.7 L164.2,349.5 L164.7,347.1 L162.6,346.2 L158.0,345.6 L156.0,343.9 L157.5,339.7 L161.0,338.1 L159.4,333.5 L162.0,331.1 L166.8,331.6 L168.6,330.7 L169.6,326.2 L172.4,323.7 L177.5,325.3 L181.1,328.0 L180.9,326.3 L184.9,324.7 L184.8,323.0 L186.5,323.3 L186.6,320.4 L183.4,318.9 L183.9,315.4 L186.1,315.1 L186.4,312.7 L187.8,310.9 L188.7,307.4 L185.4,306.7 L186.6,303.5 L182.6,303.4 L180.0,302.5 L174.3,299.4 L171.7,296.9 L173.7,293.1 L175.6,293.3 L177.3,294.9 L178.0,292.1 L174.2,284.3 L176.6,285.3 L178.5,284.4 L182.2,284.2 L182.2,287.5 L183.2,289.6 L185.4,289.1 L188.0,290.0 L191.3,285.6 L190.5,285.1 L188.2,279.2 L190.1,279.1 L194.3,275.9 L197.3,278.8 L199.9,276.9 L199.9,274.8 L203.0,272.8 L202.8,273.7 L206.6,274.6 L211.3,273.5 L216.7,268.9 L217.8,270.5 L223.7,273.9 L222.8,276.5 L224.6,276.9 L227.3,275.1 L228.8,279.2 L225.1,281.6 L225.1,283.1 L227.5,282.7 L228.0,285.6 L231.7,289.4 L235.2,290.5 L237.2,289.8 L237.2,286.3 L240.7,284.5 L243.2,287.6 L243.5,286.4 L249.1,281.9 L249.6,277.6 L253.1,280.7 L255.4,281.1 L256.3,278.8 L262.4,268.6 L265.4,271.0 L266.9,274.3 L270.3,277.8 L272.8,275.1 L276.4,273.9 L278.1,276.0 L277.1,278.8 L280.2,279.7 L282.0,281.9 L286.2,278.4 L287.7,279.1 L287.8,277.3 L297.3,278.1 L298.1,279.3 L301.2,278.9 L304.4,282.0 L306.2,280.1 L308.4,281.3 L312.4,284.8 L310.3,289.6 L310.5,291.6 L312.9,293.3 L315.8,291.4 L318.2,291.1 L320.9,293.1 L321.5,291.7 L323.8,291.3 L326.8,289.5 L331.3,288.8 L334.2,295.2 L332.1,294.9 L332.9,299.7 L332.8,302.5 L336.3,305.7 L338.4,308.6 L340.0,312.9 L341.9,311.2 L343.4,313.2 L341.8,314.4 L346.2,315.7 L345.2,319.6 L346.6,320.5 L349.1,319.9 L350.9,322.1 L357.0,325.1 L357.4,323.1 L359.2,323.8 L357.9,326.3 L356.2,326.9 L359.5,330.6 Z">
  <desc xmlns="http://www.highcharts.com/svg/namespace">
    <name>Erzgebirgskreis</name>
    <bundesland>DE.SN</bundesland>
    <hc-middle-x>0.52</hc-middle-x>
    <hc-middle-y>0.47</hc-middle-y>
    <hc-key>de-sn-14521000</hc-key>
    <hc-a2>ER</hc-a2>
  </desc>
</path>

<path fill="#CEE3F5" stroke="#6E6E6E" stroke-width="0.4" id="DE.SN.14523000" d="M155.8,404.0 L150.1,406.5 L147.4,405.9 L143.5,407.1 L139.8,406.9 L139.0,409.0 L133.8,416.2 L134.9,421.5 L132.5,424.1 L129.9,421.2 L123.6,425.8 L122.1,428.5 L122.4,430.5 L121.0,432.1 L119.4,431.5 L114.9,431.5 L113.6,432.4 L114.2,434.2 L113.5,437.0 L114.5,439.5 L112.4,443.3 L109.6,443.4 L107.2,444.6 L104.5,448.6 L104.9,449.6 L102.7,452.6 L102.2,455.4 L104.1,459.4 L101.7,461.3 L97.8,459.0 L98.1,462.0 L97.1,465.0 L98.2,468.0 L96.5,467.5 L95.6,471.2 L98.8,476.5 L96.7,478.7 L96.2,482.1 L97.7,483.7 L94.3,483.5 L90.8,482.2 L88.9,482.3 L87.8,478.3 L85.2,476.3 L84.7,474.4 L87.6,472.5 L88.0,469.9 L86.4,470.6 L86.9,468.3 L89.3,466.2 L85.1,461.8 L83.4,462.3 L80.8,460.5 L80.5,459.2 L77.5,456.7 L80.2,453.8 L81.0,455.5 L83.1,455.1 L83.5,453.0 L81.0,448.6 L79.4,449.5 L75.7,448.3 L72.0,448.5 L69.4,447.6 L69.6,441.8 L68.4,440.4 L69.1,435.6 L66.6,434.0 L66.3,430.2 L58.8,430.0 L54.2,431.0 L53.1,432.1 L50.5,431.6 L50.9,430.3 L49.0,429.5 L47.7,431.0 L47.1,429.3 L45.4,428.8 L45.7,425.9 L43.1,427.8 L39.7,425.5 L38.5,427.6 L37.0,426.1 L32.6,426.3 L31.7,422.4 L30.4,422.9 L29.0,420.0 L25.6,420.4 L25.1,417.6 L21.8,418.9 L20.4,418.0 L22.0,416.6 L22.6,413.8 L21.3,412.1 L22.7,410.1 L21.4,408.5 L22.7,405.8 L20.7,404.8 L18.6,401.4 L17.6,403.0 L15.6,403.2 L15.0,400.9 L16.4,398.9 L14.0,396.7 L14.6,395.6 L12.3,392.9 L11.2,393.8 L9.0,392.6 L10.6,391.1 L9.6,389.8 L4.7,388.6 L2.4,385.6 L6.2,382.0 L9.3,382.2 L12.3,378.9 L13.2,380.7 L15.5,382.6 L14.6,380.4 L16.0,379.2 L14.4,377.9 L15.7,373.8 L18.5,374.1 L19.7,371.3 L16.9,368.1 L15.5,364.6 L14.6,365.5 L12.7,363.0 L13.3,359.1 L11.7,357.3 L9.5,358.6 L10.0,360.5 L3.4,360.3 L0.0,352.1 L2.6,348.4 L11.0,347.1 L12.6,343.7 L14.1,342.7 L12.2,336.7 L14.9,336.2 L18.6,333.6 L20.5,330.5 L21.4,332.1 L26.9,328.6 L25.0,324.8 L29.3,323.0 L29.9,320.9 L32.0,320.2 L34.3,323.3 L32.3,325.4 L30.6,328.3 L33.8,333.1 L36.1,333.3 L36.9,334.6 L35.8,339.0 L36.8,339.2 L32.6,343.7 L35.9,348.7 L41.9,349.5 L44.6,348.6 L45.8,346.2 L46.1,341.2 L51.3,340.6 L54.3,344.9 L56.2,344.5 L57.0,342.5 L63.3,343.0 L64.4,340.5 L61.0,338.6 L59.3,339.8 L53.4,337.3 L54.8,334.3 L58.7,333.3 L61.8,331.6 L62.7,328.2 L61.7,326.4 L62.7,323.8 L66.9,323.6 L68.4,325.5 L68.1,329.2 L71.5,329.1 L71.0,326.0 L73.2,323.8 L73.5,319.8 L75.5,320.4 L76.1,322.2 L81.2,325.1 L83.7,322.8 L88.2,324.0 L88.1,319.7 L91.8,319.4 L95.8,317.1 L97.0,313.4 L100.1,313.1 L99.4,310.5 L100.5,308.6 L104.6,309.5 L104.3,311.2 L106.4,313.0 L109.1,309.7 L113.5,309.9 L113.1,312.8 L113.7,315.7 L117.2,316.7 L117.7,319.0 L119.2,318.9 L120.4,321.9 L122.5,322.6 L122.8,324.5 L119.9,328.3 L122.8,329.1 L126.8,331.4 L128.4,334.1 L126.1,335.3 L123.5,344.4 L124.0,347.2 L125.6,349.4 L130.6,348.4 L132.5,351.7 L135.0,350.8 L137.7,351.0 L140.1,349.0 L140.2,351.8 L143.2,352.9 L142.9,354.4 L145.0,355.2 L144.5,357.3 L142.7,358.1 L141.4,360.4 L136.7,361.1 L133.9,362.6 L131.0,366.1 L132.2,366.4 L132.2,368.7 L129.0,370.0 L131.2,370.9 L129.5,371.8 L133.5,375.9 L136.7,373.6 L137.1,376.7 L136.6,381.8 L138.0,383.8 L146.0,391.1 L156.0,398.3 Z">
  <desc xmlns="http://www.highcharts.com/svg/namespace">
    <name>Vogtlandkreis</name>
    <bundesland>DE.SN</bundesland>
    <hc-middle-x>0.49</hc-middle-x>
    <hc-middle-y>0.46</hc-middle-y>
    <hc-key>de-sn-14523000</hc-key>
    <hc-a2>VO</hc-a2>
  </desc>
</path>

<path fill="#CEE3F5" stroke="#6E6E6E" stroke-width="0.4" id="DE.SN.14524000" d="M209.4,246.1 L209.4,252.5 L204.3,256.5 L205.4,257.9 L203.3,257.9 L202.1,261.0 L200.5,258.6 L200.4,260.7 L197.2,260.5 L194.4,258.8 L194.1,260.6 L191.9,262.8 L196.5,261.5 L196.6,262.7 L201.0,265.1 L200.6,267.3 L202.3,268.1 L203.0,272.8 L199.9,274.8 L199.9,276.9 L197.3,278.8 L194.3,275.9 L190.1,279.1 L188.2,279.2 L190.5,285.1 L191.3,285.6 L188.0,290.0 L185.4,289.1 L183.2,289.6 L182.2,287.5 L182.2,284.2 L178.5,284.4 L176.6,285.3 L174.2,284.3 L178.0,292.1 L177.3,294.9 L175.6,293.3 L173.7,293.1 L171.7,296.9 L174.3,299.4 L180.0,302.5 L182.6,303.4 L186.6,303.5 L185.4,306.7 L188.7,307.4 L187.8,310.9 L186.4,312.7 L186.1,315.1 L183.9,315.4 L183.4,318.9 L186.6,320.4 L186.5,323.3 L184.8,323.0 L184.9,324.7 L180.9,326.3 L181.1,328.0 L177.5,325.3 L172.4,323.7 L169.6,326.2 L168.6,330.7 L166.8,331.6 L162.0,331.1 L159.4,333.5 L161.0,338.1 L157.5,339.7 L156.0,343.9 L158.0,345.6 L162.6,346.2 L164.7,347.1 L164.2,349.5 L162.1,351.7 L157.4,353.4 L154.6,351.7 L149.4,351.2 L145.9,353.6 L145.0,355.2 L142.9,354.4 L143.2,352.9 L140.2,351.8 L140.1,349.0 L137.7,351.0 L135.0,350.8 L132.5,351.7 L130.6,348.4 L125.6,349.4 L124.0,347.2 L123.5,344.4 L126.1,335.3 L128.4,334.1 L126.8,331.4 L122.8,329.1 L119.9,328.3 L122.8,324.5 L122.5,322.6 L120.4,321.9 L119.2,318.9 L117.7,319.0 L117.2,316.7 L113.7,315.7 L113.1,312.8 L113.5,309.9 L109.1,309.7 L106.4,313.0 L104.3,311.2 L104.6,309.5 L100.5,308.6 L101.3,306.9 L99.7,305.6 L98.3,306.4 L95.1,305.3 L90.9,304.9 L88.4,301.7 L89.2,299.7 L86.6,294.5 L90.5,291.4 L89.4,287.0 L83.4,288.4 L81.1,285.3 L82.0,279.4 L84.7,276.3 L85.3,277.4 L89.5,279.1 L94.1,274.7 L95.5,271.3 L95.1,269.2 L91.3,269.8 L87.5,269.2 L87.7,265.5 L85.5,262.1 L87.9,259.0 L89.2,261.4 L92.7,260.6 L93.2,262.2 L95.0,261.4 L95.0,258.5 L96.6,257.4 L97.2,259.8 L98.7,259.7 L97.4,255.8 L98.0,255.3 L99.7,259.2 L102.7,258.3 L108.7,257.9 L109.2,252.8 L112.1,251.5 L112.7,250.1 L117.6,248.8 L121.8,249.0 L122.2,246.8 L124.5,247.4 L123.2,250.5 L124.8,252.9 L126.9,251.4 L129.7,251.5 L129.5,249.7 L131.1,247.4 L130.3,245.1 L131.3,243.5 L134.8,242.6 L133.9,239.0 L139.0,236.4 L139.7,234.7 L145.1,234.9 L145.8,234.0 L144.8,231.3 L147.8,230.1 L148.6,231.8 L151.4,232.6 L156.3,230.9 L159.1,232.7 L167.6,231.2 L169.4,230.2 L170.6,231.5 L173.8,232.5 L174.1,229.6 L177.0,227.1 L176.8,225.5 L179.8,225.8 L181.5,229.1 L185.3,232.7 L186.9,231.3 L190.9,233.6 L193.9,231.4 L195.8,232.3 L195.8,236.0 L197.1,238.6 L198.2,238.0 L200.9,241.8 L203.4,243.3 L202.3,244.7 L203.5,245.9 L207.0,244.3 L207.7,246.2 Z">
  <desc xmlns="http://www.highcharts.com/svg/namespace">
    <name>Zwickau</name>
    <bundesland>DE.SN</bundesland>
    <hc-middle-x>0.53</hc-middle-x>
    <hc-middle-y>0.45</hc-middle-y>
    <hc-key>de-sn-14524000</hc-key>
    <hc-a2>ZW</hc-a2>
  </desc>
</path>

<path fill="#CEE3F5" stroke="#6E6E6E" stroke-width="0.4" id="DE.SN.14729000" d="M148.2,73.0 L156.1,68.6 L158.5,70.2 L163.9,68.1 L165.2,66.7 L166.1,69.1 L167.2,68.8 L168.1,65.8 L170.7,65.3 L173.1,66.1 L173.2,62.9 L174.9,62.8 L175.3,58.0 L179.4,56.5 L181.1,59.0 L182.2,56.2 L180.7,54.3 L182.1,53.8 L182.3,51.6 L181.0,50.6 L181.2,45.9 L182.8,46.4 L185.3,43.3 L186.1,44.6 L188.9,43.9 L189.0,42.7 L191.4,44.6 L195.7,45.1 L197.1,41.9 L204.1,42.5 L208.1,40.7 L212.2,37.5 L214.1,39.2 L217.5,40.7 L218.1,43.4 L226.9,45.9 L231.7,46.0 L233.2,49.0 L236.8,50.1 L240.6,54.0 L241.0,56.6 L243.4,56.6 L245.0,59.0 L243.3,60.7 L243.8,64.0 L241.2,63.5 L240.0,64.5 L239.3,62.1 L236.6,62.2 L236.9,67.3 L238.3,72.0 L239.8,70.7 L241.5,71.7 L241.7,73.5 L243.6,73.8 L241.3,79.0 L237.4,78.0 L237.4,79.2 L235.2,81.1 L234.6,87.8 L236.6,89.0 L234.1,89.2 L229.7,91.0 L230.7,91.8 L228.5,94.6 L228.5,96.3 L234.4,100.8 L233.6,103.2 L234.8,104.5 L237.1,104.6 L236.3,106.4 L237.4,108.0 L239.9,107.2 L241.1,110.3 L239.4,111.3 L239.7,115.1 L236.5,119.0 L239.0,120.7 L235.5,121.1 L236.7,124.2 L239.5,125.2 L238.8,127.9 L234.2,126.9 L232.4,128.3 L231.3,131.3 L232.3,132.2 L230.0,133.0 L229.5,138.0 L225.1,142.0 L224.9,144.4 L222.1,146.8 L223.7,149.6 L226.5,149.6 L229.0,151.7 L230.4,154.5 L231.8,155.0 L230.6,157.8 L229.4,158.0 L232.4,162.5 L230.2,165.3 L231.1,166.4 L227.8,168.1 L220.9,166.5 L220.0,167.8 L213.7,168.4 L211.4,166.3 L212.3,164.3 L209.4,163.7 L208.6,164.9 L205.9,163.3 L204.2,164.3 L199.0,162.8 L197.7,163.3 L197.3,166.4 L198.7,166.9 L196.7,169.6 L194.5,170.4 L194.6,173.0 L192.6,175.8 L192.2,178.2 L194.9,181.8 L194.2,183.4 L194.9,186.5 L193.4,186.7 L193.0,188.6 L191.0,189.4 L190.8,191.5 L194.5,192.9 L194.5,194.8 L196.3,198.5 L197.6,198.7 L194.8,200.3 L189.3,196.9 L184.8,204.4 L180.7,203.4 L179.5,204.9 L174.9,204.6 L173.2,206.2 L169.6,205.4 L169.5,203.9 L167.6,201.9 L167.7,199.8 L166.2,201.2 L161.8,202.2 L161.0,204.1 L160.0,201.8 L155.3,198.9 L152.6,199.4 L150.0,197.6 L153.0,196.2 L152.0,192.7 L153.0,189.8 L148.6,190.1 L148.0,191.7 L146.0,192.0 L147.2,188.8 L145.2,185.8 L145.8,182.4 L145.2,180.0 L146.7,179.6 L145.3,175.7 L144.2,174.9 L138.3,175.4 L136.9,174.4 L136.1,168.3 L134.3,170.7 L127.9,170.2 L125.5,172.0 L123.3,170.3 L122.1,168.1 L117.9,170.2 L114.8,169.2 L113.2,167.5 L114.0,164.1 L108.7,160.6 L105.7,164.0 L102.7,162.6 L98.7,165.0 L97.0,161.8 L91.4,161.5 L86.6,159.9 L84.7,157.6 L85.4,152.9 L86.5,154.1 L89.3,150.9 L85.9,148.1 L79.6,146.3 L80.1,140.1 L81.1,139.6 L83.9,132.1 L79.6,131.3 L75.5,132.5 L75.4,129.4 L78.3,129.1 L79.4,127.6 L79.0,124.8 L82.2,120.5 L81.0,120.4 L80.0,113.3 L79.7,106.2 L76.3,105.8 L76.3,103.0 L74.7,103.1 L76.3,96.3 L75.7,93.5 L73.2,93.9 L72.8,87.7 L71.4,84.2 L75.2,84.1 L76.4,81.7 L81.7,81.0 L85.7,78.3 L87.6,78.6 L87.8,77.2 L92.0,76.3 L92.6,75.2 L93.8,78.7 L95.6,80.8 L92.2,81.1 L90.9,82.8 L91.0,85.8 L92.3,87.4 L93.5,92.7 L96.1,92.6 L96.2,95.9 L99.8,98.8 L96.1,98.5 L95.7,97.0 L93.2,96.7 L93.9,99.0 L92.6,99.3 L93.1,104.1 L94.8,109.3 L93.0,111.7 L94.4,113.5 L99.9,112.0 L102.2,112.6 L106.5,112.3 L105.9,110.3 L107.6,107.4 L108.7,107.4 L109.1,103.1 L110.9,102.7 L111.7,104.1 L115.6,98.6 L115.1,94.1 L116.1,94.1 L118.9,97.5 L120.2,95.1 L121.8,99.0 L127.8,99.4 L132.8,98.5 L136.0,99.6 L136.1,104.5 L142.6,108.5 L145.8,107.6 L144.1,107.2 L145.2,101.7 L146.2,99.8 L147.6,100.1 L147.7,97.6 L148.9,92.7 L156.1,92.2 L154.8,88.3 L157.3,85.9 L153.9,83.2 L156.6,81.5 L154.4,79.3 L154.4,77.1 L150.3,77.7 Z">
  <desc xmlns="http://www.highcharts.com/svg/namespace">
    <name>Leipzig</name>
    <bundesland>DE.SN</bundesland>
    <hc-middle-x>0.66</hc-middle-x>
    <hc-middle-y>0.52</hc-middle-y>
    <hc-key>de-sn-14729000</hc-key>
    <hc-a2>LE</hc-a2>
  </desc>
</path>

<path fill="#CEE3F5" stroke="#6E6E6E" stroke-width="0.4" id="DE.SN.14612000" d="M380.9,181.8 L382.6,180.9 L382.6,177.7 L385.1,174.7 L383.8,171.5 L385.1,170.2 L386.9,170.7 L388.5,169.2 L390.6,168.8 L398.2,172.4 L400.7,171.3 L404.5,174.0 L405.0,172.5 L406.5,173.4 L407.2,172.1 L405.1,170.0 L406.3,168.1 L405.6,165.7 L407.2,165.2 L407.4,166.7 L409.1,165.9 L409.1,163.4 L410.5,160.2 L410.2,158.5 L412.0,156.2 L416.7,158.6 L417.8,157.1 L419.7,158.2 L422.5,154.8 L420.5,154.0 L421.0,150.9 L419.2,150.4 L417.9,148.3 L419.0,146.3 L417.2,143.5 L422.1,144.2 L425.2,146.9 L427.0,147.5 L429.9,146.7 L430.5,149.7 L435.7,153.7 L438.0,154.8 L438.8,152.6 L442.6,150.4 L446.6,151.8 L448.4,156.6 L444.5,158.1 L445.0,161.0 L446.5,162.2 L448.6,166.5 L450.7,167.8 L449.9,169.3 L452.9,171.3 L453.0,174.6 L451.7,176.4 L450.0,175.0 L449.1,176.5 L450.2,178.1 L447.3,180.2 L453.0,181.7 L455.6,183.6 L455.7,184.7 L459.8,183.8 L458.8,182.0 L459.8,180.4 L462.4,180.0 L462.4,181.6 L465.0,184.2 L465.0,186.6 L463.4,188.2 L464.7,189.3 L464.0,191.5 L464.3,194.6 L463.2,196.2 L460.3,196.7 L458.8,200.4 L457.9,199.4 L454.5,200.7 L453.1,199.6 L451.9,202.0 L452.6,205.6 L449.3,207.2 L449.2,208.7 L446.5,209.9 L446.9,211.4 L444.2,210.8 L441.2,207.7 L440.1,209.6 L438.4,208.6 L435.5,212.4 L434.0,212.3 L432.2,213.7 L428.2,212.0 L426.6,213.0 L426.2,209.5 L424.5,208.6 L422.0,209.2 L420.9,204.5 L418.0,204.5 L415.8,202.3 L413.0,201.3 L411.3,202.3 L409.3,201.8 L408.2,203.1 L404.0,203.8 L402.8,199.3 L399.3,198.6 L398.9,194.1 L400.0,192.2 L396.9,192.5 L394.3,193.8 L391.1,192.6 L388.4,192.4 L385.9,193.2 L384.9,191.2 L386.0,189.4 L381.4,188.9 L380.7,186.5 L381.8,184.4 Z">
  <desc xmlns="http://www.highcharts.com/svg/namespace">
    <name>Dresden</name>
    <bundesland>DE.SN</bundesland>
    <hc-middle-x>0.58</hc-middle-x>
    <hc-middle-y>0.59</hc-middle-y>
    <hc-key>de-sn-14612000</hc-key>
    <hc-a2>DR</hc-a2>
  </desc>
</path>

<path fill="#CEE3F5" stroke="#6E6E6E" stroke-width="0.4" id="DE.SN.14627000" d="M422.1,144.2 L417.2,143.5 L419.0,146.3 L417.9,148.3 L419.2,150.4 L421.0,150.9 L420.5,154.0 L422.5,154.8 L419.7,158.2 L417.8,157.1 L416.7,158.6 L412.0,156.2 L410.2,158.5 L410.5,160.2 L409.1,163.4 L409.1,165.9 L407.4,166.7 L407.2,165.2 L405.6,165.7 L406.3,168.1 L405.1,170.0 L407.2,172.1 L406.5,173.4 L405.0,172.5 L404.5,174.0 L400.7,171.3 L398.2,172.4 L390.6,168.8 L388.5,169.2 L386.9,170.7 L385.1,170.2 L383.8,171.5 L385.1,174.7 L382.6,177.7 L382.6,180.9 L380.9,181.8 L379.8,181.5 L377.1,183.7 L370.9,183.4 L369.3,183.9 L365.5,183.2 L360.1,180.7 L353.0,184.8 L348.4,184.4 L347.0,187.9 L347.4,189.5 L346.1,191.6 L341.4,189.0 L338.6,185.4 L333.9,185.6 L329.3,187.1 L325.1,190.3 L319.9,191.0 L318.2,191.9 L314.3,192.0 L305.4,200.1 L303.7,198.2 L306.2,196.5 L306.9,192.7 L310.9,189.1 L309.9,186.9 L312.2,184.9 L307.8,183.9 L307.0,180.2 L310.1,180.5 L311.0,179.0 L309.8,176.0 L310.7,169.3 L309.2,166.4 L309.4,164.2 L305.0,165.6 L303.8,166.9 L304.1,163.2 L308.3,163.1 L309.7,159.3 L308.7,156.8 L309.9,151.3 L310.4,146.3 L308.1,146.8 L306.6,144.0 L304.8,143.7 L304.2,141.6 L301.1,141.5 L301.9,139.2 L300.8,132.3 L299.4,132.0 L297.4,129.0 L300.2,128.5 L300.8,127.0 L298.9,122.5 L298.8,120.6 L300.8,119.1 L298.4,116.7 L299.7,115.0 L298.8,112.7 L301.4,112.3 L303.2,109.2 L301.1,106.2 L301.4,102.3 L302.9,100.7 L301.1,94.3 L300.6,88.2 L302.6,83.4 L300.0,80.7 L301.2,79.1 L298.6,78.1 L301.0,76.7 L299.8,73.0 L296.7,72.3 L298.7,67.6 L298.6,65.6 L302.9,62.1 L304.4,65.5 L311.0,66.0 L315.4,69.4 L315.8,67.4 L313.4,65.7 L313.7,63.9 L319.4,64.4 L319.3,60.5 L324.4,58.2 L325.0,56.6 L328.7,55.2 L327.1,51.4 L329.9,51.4 L330.8,54.3 L335.3,52.8 L339.2,56.1 L340.6,54.9 L338.5,51.5 L340.4,52.2 L341.8,48.1 L344.9,46.0 L346.4,47.5 L345.6,48.8 L346.8,50.8 L348.8,51.7 L350.3,54.8 L348.8,57.4 L350.4,57.3 L351.3,55.6 L354.2,54.1 L355.1,57.0 L358.4,57.5 L357.8,61.0 L363.9,62.5 L364.5,64.2 L366.3,63.6 L370.3,64.6 L371.0,70.8 L370.6,71.9 L373.8,71.9 L374.7,76.0 L375.5,76.1 L376.6,72.6 L377.8,72.7 L380.8,70.5 L385.1,71.0 L384.6,71.9 L386.3,74.4 L385.9,76.2 L390.9,75.7 L394.2,76.7 L397.7,76.2 L400.5,76.6 L402.1,74.2 L405.1,77.2 L407.0,75.0 L411.8,78.7 L414.8,78.4 L417.3,79.6 L420.4,78.0 L421.4,76.1 L423.9,76.9 L422.5,78.2 L425.5,79.5 L426.4,77.1 L432.3,75.7 L434.7,77.0 L438.3,74.6 L438.0,76.5 L440.2,78.3 L442.3,85.5 L442.4,88.6 L436.1,87.0 L436.1,89.8 L434.3,94.3 L431.4,97.5 L429.6,100.5 L433.8,107.4 L430.9,108.1 L432.8,109.3 L430.8,110.7 L434.7,112.8 L434.6,114.0 L431.9,115.8 L433.0,119.2 L429.6,118.3 L429.5,121.9 L430.2,123.2 L432.5,123.4 L432.5,125.4 L430.3,125.3 L428.7,127.3 L426.2,126.0 L425.4,129.5 L421.2,130.2 L425.4,132.1 L424.8,133.9 L428.4,136.5 L427.4,138.6 L426.1,138.4 L422.9,140.6 Z">
  <desc xmlns="http://www.highcharts.com/svg/namespace">
    <name>Meißen</name>
    <bundesland>DE.SN</bundesland>
    <hc-middle-x>0.43</hc-middle-x>
    <hc-middle-y>0.51</hc-middle-y>
    <hc-key>de-sn-14627000</hc-key>
    <hc-a2>ME</hc-a2>
  </desc>
</path>

<path fill="#CEE3F5" stroke="#6E6E6E" stroke-width="0.4" id="DE.SN.14628000" d="M541.9,187.5 L538.4,187.4 L535.0,193.1 L532.3,192.6 L534.8,195.3 L535.0,197.1 L533.1,199.8 L534.0,201.0 L530.3,203.5 L529.6,205.0 L531.0,206.4 L528.8,209.1 L528.8,210.7 L532.6,212.4 L533.9,214.1 L537.5,213.7 L540.3,211.8 L542.9,211.6 L544.4,212.6 L543.7,216.1 L540.6,216.1 L538.3,218.5 L541.4,220.1 L540.3,222.5 L543.2,223.9 L548.1,224.6 L550.9,226.9 L552.9,226.6 L554.0,228.0 L556.8,226.8 L559.8,229.8 L559.9,233.1 L556.3,235.6 L557.0,238.5 L556.7,241.6 L553.8,242.6 L548.2,241.1 L548.1,243.8 L541.7,245.1 L538.8,246.6 L535.1,245.9 L533.6,243.7 L530.4,242.7 L528.0,244.6 L525.2,245.7 L522.8,245.3 L523.2,249.9 L520.6,255.1 L519.1,254.7 L516.3,257.5 L508.1,259.1 L507.0,259.0 L500.6,263.6 L494.9,264.8 L491.3,266.2 L488.7,268.8 L488.6,270.9 L484.7,271.7 L480.4,271.4 L478.9,273.4 L472.2,270.2 L469.3,268.1 L465.0,271.1 L461.2,272.4 L461.6,274.7 L457.9,278.3 L453.3,278.5 L450.2,276.8 L448.7,277.4 L449.3,279.8 L446.5,284.7 L447.0,287.7 L449.7,291.0 L447.8,294.8 L444.7,296.2 L440.6,294.4 L439.6,299.4 L437.0,300.4 L434.9,299.8 L432.9,300.7 L430.3,299.5 L428.6,297.5 L425.0,297.7 L422.2,296.4 L420.7,297.5 L417.8,296.5 L416.1,298.6 L413.8,299.4 L411.2,297.1 L408.0,300.0 L406.6,302.8 L402.1,301.7 L397.6,297.5 L394.5,297.9 L391.1,294.1 L387.0,291.6 L384.2,284.0 L382.3,281.9 L377.8,283.2 L372.7,279.6 L372.6,277.3 L375.4,272.2 L373.4,271.5 L374.4,270.5 L378.4,269.7 L374.4,268.8 L372.7,267.2 L371.3,263.1 L368.6,262.8 L366.9,263.9 L365.2,260.2 L362.5,259.3 L363.3,257.9 L361.8,256.8 L363.9,256.2 L365.2,253.8 L362.4,250.0 L360.8,243.7 L359.5,241.1 L355.1,238.2 L353.8,238.0 L352.6,233.2 L353.2,230.2 L350.6,228.4 L351.1,224.6 L352.7,223.6 L346.8,223.1 L348.3,218.5 L351.8,215.8 L350.8,214.6 L353.5,214.2 L357.0,211.6 L357.1,209.5 L348.9,210.1 L346.8,204.8 L348.4,200.8 L352.1,196.2 L350.3,193.6 L346.1,191.6 L347.4,189.5 L347.0,187.9 L348.4,184.4 L353.0,184.8 L360.1,180.7 L365.5,183.2 L369.3,183.9 L370.9,183.4 L377.1,183.7 L379.8,181.5 L380.9,181.8 L381.8,184.4 L380.7,186.5 L381.4,188.9 L386.0,189.4 L384.9,191.2 L385.9,193.2 L388.4,192.4 L391.1,192.6 L394.3,193.8 L396.9,192.5 L400.0,192.2 L398.9,194.1 L399.3,198.6 L402.8,199.3 L404.0,203.8 L408.2,203.1 L409.3,201.8 L411.3,202.3 L413.0,201.3 L415.8,202.3 L418.0,204.5 L420.9,204.5 L422.0,209.2 L424.5,208.6 L426.2,209.5 L426.6,213.0 L428.2,212.0 L432.2,213.7 L434.0,212.3 L435.5,212.4 L438.4,208.6 L440.1,209.6 L441.2,207.7 L444.2,210.8 L446.9,211.4 L446.5,209.9 L449.2,208.7 L449.3,207.2 L452.6,205.6 L451.9,202.0 L453.1,199.6 L454.5,200.7 L457.9,199.4 L458.8,200.4 L460.3,196.7 L463.2,196.2 L464.3,194.6 L464.0,191.5 L464.7,189.3 L463.4,188.2 L465.0,186.6 L465.0,184.2 L467.4,184.1 L468.5,181.8 L471.6,181.8 L473.2,183.0 L473.5,181.6 L476.4,182.3 L478.2,181.7 L480.6,182.7 L483.0,176.4 L483.8,175.9 L486.1,180.1 L495.7,180.5 L497.3,178.3 L500.3,176.9 L501.7,174.9 L504.0,178.8 L503.9,180.3 L507.9,183.0 L511.6,181.5 L510.0,180.1 L511.9,180.0 L513.4,175.8 L517.4,176.3 L524.5,179.3 L526.2,180.5 L528.2,183.9 L527.8,185.5 L530.2,184.9 L533.4,180.8 L535.7,181.1 L538.3,182.8 L542.5,183.0 Z">
  <desc xmlns="http://www.highcharts.com/svg/namespace">
    <name>Sächsische Schweiz-Osterzgebirge</name>
    <bundesland>DE.SN</bundesland>
    <hc-middle-x>0.50</hc-middle-x>
    <hc-middle-y>0.50</hc-middle-y>
    <hc-key>de-sn-14628000</hc-key>
    <hc-a2>SS</hc-a2>
  </desc>
</path>

<path fill="#CEE3F5" stroke="#6E6E6E" stroke-width="0.4" id="DE.SN.14625000" d="M579.8,191.7 L580.4,194.2 L580.0,198.7 L576.1,197.9 L576.3,196.5 L574.1,194.5 L571.6,194.3 L564.5,199.9 L561.6,200.2 L557.6,198.3 L556.1,196.7 L556.0,193.2 L554.2,193.2 L551.5,190.8 L545.6,192.8 L543.8,189.4 L541.9,187.5 L542.5,183.0 L538.3,182.8 L535.7,181.1 L533.4,180.8 L530.2,184.9 L527.8,185.5 L528.2,183.9 L526.2,180.5 L524.5,179.3 L517.4,176.3 L513.4,175.8 L511.9,180.0 L510.0,180.1 L511.6,181.5 L507.9,183.0 L503.9,180.3 L504.0,178.8 L501.7,174.9 L500.3,176.9 L497.3,178.3 L495.7,180.5 L486.1,180.1 L483.8,175.9 L483.0,176.4 L480.6,182.7 L478.2,181.7 L476.4,182.3 L473.5,181.6 L473.2,183.0 L471.6,181.8 L468.5,181.8 L467.4,184.1 L465.0,184.2 L462.4,181.6 L462.4,180.0 L459.8,180.4 L458.8,182.0 L459.8,183.8 L455.7,184.7 L455.6,183.6 L453.0,181.7 L447.3,180.2 L450.2,178.1 L449.1,176.5 L450.0,175.0 L451.7,176.4 L453.0,174.6 L452.9,171.3 L449.9,169.3 L450.7,167.8 L448.6,166.5 L446.5,162.2 L445.0,161.0 L444.5,158.1 L448.4,156.6 L446.6,151.8 L442.6,150.4 L438.8,152.6 L438.0,154.8 L435.7,153.7 L430.5,149.7 L429.9,146.7 L427.0,147.5 L425.2,146.9 L422.1,144.2 L422.9,140.6 L426.1,138.4 L427.4,138.6 L428.4,136.5 L424.8,133.9 L425.4,132.1 L421.2,130.2 L425.4,129.5 L426.2,126.0 L428.7,127.3 L430.3,125.3 L432.5,125.4 L432.5,123.4 L430.2,123.2 L429.5,121.9 L429.6,118.3 L433.0,119.2 L431.9,115.8 L434.6,114.0 L434.7,112.8 L430.8,110.7 L432.8,109.3 L430.9,108.1 L433.8,107.4 L429.6,100.5 L431.4,97.5 L434.3,94.3 L436.1,89.8 L436.1,87.0 L442.4,88.6 L442.3,85.5 L440.2,78.3 L438.0,76.5 L438.3,74.6 L438.3,72.7 L444.4,72.9 L445.4,74.6 L448.5,75.3 L454.4,73.9 L454.1,72.6 L458.5,71.5 L462.3,69.8 L464.6,67.9 L468.1,69.1 L467.5,75.3 L474.1,76.5 L473.5,72.2 L475.9,69.8 L476.1,67.8 L480.2,68.5 L479.7,66.9 L477.8,66.9 L477.6,65.3 L480.1,64.2 L482.2,61.3 L483.9,60.7 L482.5,57.3 L484.3,57.4 L482.3,55.2 L483.6,53.6 L488.0,51.5 L485.8,49.0 L486.4,46.1 L482.2,42.3 L482.9,39.5 L490.2,42.3 L493.7,39.8 L490.5,35.1 L493.6,34.7 L495.4,33.3 L496.4,27.8 L498.0,25.1 L500.0,24.7 L503.9,25.5 L505.5,24.9 L502.8,21.0 L504.4,17.7 L513.4,19.3 L515.5,18.8 L517.8,19.5 L520.8,19.1 L524.2,21.6 L526.8,21.9 L528.1,23.4 L530.3,21.8 L533.9,21.8 L538.1,24.4 L540.0,24.5 L544.5,26.4 L544.9,30.7 L547.8,31.2 L548.9,26.9 L553.3,24.8 L556.0,21.8 L558.4,21.5 L558.5,18.8 L561.0,18.8 L563.3,20.4 L570.2,17.9 L571.6,18.8 L572.5,22.8 L569.8,29.4 L575.6,29.6 L576.9,30.4 L577.6,34.0 L579.5,34.9 L577.4,35.4 L576.6,38.7 L577.5,40.7 L576.4,41.8 L577.5,43.4 L580.2,44.6 L581.6,46.8 L579.8,48.4 L579.0,50.6 L584.0,51.5 L584.4,55.1 L586.9,55.4 L587.5,57.0 L584.9,61.5 L585.4,63.1 L584.0,64.4 L580.5,64.3 L582.5,65.1 L580.3,68.0 L578.0,73.2 L579.3,75.5 L574.4,83.3 L573.3,86.8 L575.3,86.8 L576.3,88.2 L576.3,91.9 L577.8,95.5 L583.1,93.2 L587.2,92.9 L586.6,91.1 L587.7,86.4 L589.8,86.1 L591.5,83.0 L590.4,87.8 L591.2,89.8 L593.1,90.7 L596.4,96.9 L599.2,94.6 L602.8,96.2 L601.2,98.8 L604.0,99.1 L602.9,100.6 L605.3,100.3 L603.7,104.5 L604.1,107.0 L606.6,109.8 L609.1,110.4 L608.1,115.0 L606.8,116.8 L609.6,117.3 L611.8,120.7 L611.5,123.3 L610.4,123.6 L608.4,127.1 L612.3,130.0 L613.9,127.1 L615.4,128.7 L614.5,131.5 L618.2,134.0 L621.8,133.8 L621.9,137.3 L621.0,139.4 L619.3,140.3 L623.9,142.7 L625.2,144.5 L623.1,147.1 L623.4,149.3 L621.3,149.5 L620.8,151.6 L621.8,155.5 L619.9,155.6 L616.8,152.5 L612.5,156.7 L611.9,160.8 L608.5,162.3 L606.0,161.8 L605.1,164.2 L607.6,166.1 L605.4,166.4 L602.3,165.4 L598.3,165.2 L597.7,167.3 L600.2,170.5 L596.3,172.0 L597.6,175.3 L594.6,178.7 L591.4,178.2 L585.8,178.6 L579.1,180.0 L576.5,181.1 L575.9,182.5 L579.6,185.6 L578.3,189.9 Z">
  <desc xmlns="http://www.highcharts.com/svg/namespace">
    <name>Bautzen</name>
    <bundesland>DE.SN</bundesland>
    <hc-middle-x>0.53</hc-middle-x>
    <hc-middle-y>0.51</hc-middle-y>
    <hc-key>de-sn-14625000</hc-key>
    <hc-a2>BA</hc-a2>
  </desc>
</path>

<path fill="#CEE3F5" stroke="#6E6E6E" stroke-width="0.4" id="DE.SN.14713000" d="M92.6,75.2 L92.2,72.2 L92.9,67.3 L91.6,66.7 L96.2,64.2 L96.4,60.9 L98.6,58.5 L95.9,57.5 L94.7,55.1 L97.8,56.4 L97.7,53.4 L99.3,53.0 L98.9,50.6 L108.4,51.8 L113.0,51.6 L118.4,52.1 L119.8,50.6 L122.2,50.0 L126.8,52.3 L128.6,48.3 L132.7,49.5 L136.8,48.2 L136.7,42.2 L139.3,43.8 L143.2,44.3 L143.3,47.8 L147.7,48.3 L147.8,51.5 L146.7,53.1 L143.8,53.1 L143.7,52.2 L140.2,52.5 L139.8,55.4 L142.1,58.6 L142.3,61.1 L140.8,62.0 L141.5,64.5 L143.7,64.8 L141.3,70.1 L144.0,72.6 L148.2,73.0 L150.3,77.7 L154.4,77.1 L154.4,79.3 L156.6,81.5 L153.9,83.2 L157.3,85.9 L154.8,88.3 L156.1,92.2 L148.9,92.7 L147.7,97.6 L147.6,100.1 L146.2,99.8 L145.2,101.7 L144.1,107.2 L145.8,107.6 L142.6,108.5 L136.1,104.5 L136.0,99.6 L132.8,98.5 L127.8,99.4 L121.8,99.0 L120.2,95.1 L118.9,97.5 L116.1,94.1 L115.1,94.1 L115.6,98.6 L111.7,104.1 L110.9,102.7 L109.1,103.1 L108.7,107.4 L107.6,107.4 L105.9,110.3 L106.5,112.3 L102.2,112.6 L99.9,112.0 L94.4,113.5 L93.0,111.7 L94.8,109.3 L93.1,104.1 L92.6,99.3 L93.9,99.0 L93.2,96.7 L95.7,97.0 L96.1,98.5 L99.8,98.8 L96.2,95.9 L96.1,92.6 L93.5,92.7 L92.3,87.4 L91.0,85.8 L90.9,82.8 L92.2,81.1 L95.6,80.8 L93.8,78.7 Z">
  <desc xmlns="http://www.highcharts.com/svg/namespace">
    <name>Leipzig</name>
    <bundesland>DE.SN</bundesland>
    <hc-middle-x>0.44</hc-middle-x>
    <hc-middle-y>0.43</hc-middle-y>
    <hc-key>de-sn-14713000</hc-key>
    <hc-a2>LE</hc-a2>
  </desc>
</path>
</g>

<text x="350" y="714" text-anchor="middle" font-family="Verdana" font-size="8" stroke-opacity="0.6">Copyright (c) 2020 Highsoft AS, Based on data from GeoBasis-DE / BKG 2014</text>

</svg>