<?xml version="1.0" encoding="utf-8" standalone="no"?>
<!DOCTYPE svg PUBLIC "-//W3C//DTD SVG 1.1//EN" "http://www.w3.org/Graphics/SVG/1.1/DTD/svg11.dtd">

<svg version="1.1" height="700pt" width="700pt" xmlns="http://www.w3.org/2000/svg" xmlns:xlink="http://www.w3.org/1999/xlink">
<desc>
Map version: 1.1.3
Copyright (c) 2020 Highsoft AS, Based on data from GeoBasis-DE / BKG 2014
</desc>
<title>Saarland</title>
<g id="admin2">

<g id="DE">
  <desc xmlns="http://www.highcharts.com/svg/namespace">
    <name>Germany</name>
    <labelrank>2</labelrank>
    <country-abbrev>Ger.</country-abbrev>
    <subregion>Western Europe</subregion>
    <region-wb>Europe &amp; Central Asia</region-wb>
    <iso-a3>DEU</iso-a3>
    <iso-a2>DE</iso-a2>
    <woe-id>23424829</woe-id>
    <continent>Europe</continent>
    <hc-key>de</hc-key>
    <hc-a2>GE</hc-a2>
  </desc>
</g>

<g id="DE.SL">
  <desc xmlns="http://www.highcharts.com/svg/namespace">
    <labelrank>3</labelrank>
    <hasc>DE.SL</hasc>
    <alt-name>NULL</alt-name>
    <woe-id>2345489</woe-id>
    <subregion>NULL</subregion>
    <fips>GM09</fips>
    <postal-code>SL</postal-code>
    <name>Saarland</name>
    <country>Germany</country>
    <type-en>State</type-en>
    <region>NULL</region>
    <longitude>6.86625</longitude>
    <woe-name>Saarland</woe-name>
    <latitude>49.4026</latitude>
    <woe-label>Saarland, DE, Germany</woe-label>
    <type>Land</type>
    <hc-key>de-sl</hc-key>
    <hc-a2>SA</hc-a2>
  </desc>
</g>

<path fill="#CEE3F5" stroke="#6E6E6E" stroke-width="0.4" id="DE.SL.10042000" d="M130.5,218.4 L129.8,216.5 L127.6,216.1 L126.5,211.9 L121.2,206.3 L119.1,203.0 L118.1,203.9 L115.8,201.2 L109.4,200.9 L102.4,195.2 L99.3,190.7 L92.7,184.9 L83.9,183.3 L74.3,172.7 L72.5,169.6 L68.5,168.9 L63.7,171.2 L60.5,167.9 L55.4,165.2 L53.6,166.7 L49.0,161.3 L49.9,160.4 L46.3,156.6 L44.2,157.2 L40.4,156.2 L36.3,161.6 L28.7,166.6 L27.9,166.0 L21.8,168.3 L12.8,165.8 L12.5,167.5 L9.4,167.8 L7.0,165.0 L7.1,163.1 L4.2,162.1 L4.8,152.4 L6.1,141.4 L5.2,133.4 L5.8,129.3 L4.7,121.0 L2.3,112.0 L0.0,101.9 L0.3,96.2 L3.2,92.2 L6.8,89.4 L9.0,86.1 L14.2,81.0 L15.9,78.0 L25.1,82.1 L32.0,81.2 L38.6,83.7 L38.7,86.9 L41.4,86.3 L45.7,82.6 L49.6,81.4 L57.8,85.7 L58.7,88.0 L60.9,88.7 L62.2,87.0 L62.8,91.6 L64.3,92.8 L71.9,87.2 L74.8,87.0 L80.6,90.0 L83.9,93.4 L87.4,99.3 L91.9,101.8 L95.4,102.2 L96.3,100.2 L101.1,97.3 L103.5,98.4 L106.1,97.7 L105.8,103.7 L107.5,105.5 L109.0,104.0 L111.2,104.8 L122.1,93.7 L126.3,95.7 L132.9,97.6 L136.3,95.9 L139.3,93.1 L140.0,95.8 L142.3,96.2 L145.9,99.6 L149.3,105.6 L149.3,112.4 L155.0,117.5 L156.9,118.0 L159.6,116.2 L165.9,118.1 L169.2,115.6 L169.9,113.2 L167.3,107.0 L169.8,105.3 L171.8,106.8 L176.0,106.6 L177.4,103.6 L175.4,99.0 L182.1,96.8 L184.3,93.7 L187.8,93.2 L191.1,95.1 L191.2,97.6 L194.4,96.3 L198.2,91.4 L197.7,85.7 L199.1,84.0 L202.4,89.5 L202.8,91.6 L206.7,93.0 L219.9,87.5 L220.7,91.9 L222.1,94.6 L222.9,100.3 L224.2,101.3 L226.9,96.6 L229.5,96.3 L231.4,94.2 L236.9,83.0 L246.6,80.2 L250.4,77.5 L254.4,76.3 L255.1,78.1 L259.6,79.4 L263.2,79.1 L269.7,75.5 L275.1,69.2 L284.3,66.9 L290.5,60.9 L292.4,57.1 L294.7,55.6 L298.2,50.6 L300.6,48.9 L308.6,45.1 L312.8,48.6 L314.4,51.1 L315.8,49.0 L323.1,54.9 L326.4,50.3 L325.9,44.9 L328.0,44.6 L330.5,48.2 L338.9,31.8 L344.7,28.9 L347.5,29.2 L348.1,32.3 L353.3,36.8 L353.8,31.7 L356.4,29.3 L360.4,31.8 L361.0,30.4 L357.3,26.8 L358.0,24.8 L361.7,24.4 L361.8,29.2 L363.8,34.2 L363.1,37.4 L363.6,40.9 L370.5,48.2 L373.5,44.5 L376.6,43.7 L379.1,44.5 L382.9,41.9 L387.5,41.7 L389.4,39.6 L392.4,41.4 L396.3,41.3 L402.8,45.0 L405.0,41.8 L404.0,47.0 L404.1,51.8 L405.9,54.0 L401.6,57.1 L404.1,58.7 L403.1,62.5 L399.8,66.4 L399.8,68.7 L401.8,70.0 L398.9,73.6 L399.6,74.9 L404.2,75.2 L404.2,78.8 L407.1,78.8 L408.3,81.6 L406.6,84.0 L402.3,87.4 L403.9,90.0 L403.7,94.3 L404.6,95.6 L403.6,105.8 L400.9,108.5 L402.8,117.0 L401.5,122.1 L402.6,125.2 L401.7,130.8 L396.0,131.1 L390.3,134.9 L385.5,136.9 L383.6,138.7 L381.3,137.2 L379.8,138.3 L377.3,134.1 L371.1,140.3 L368.7,144.2 L362.3,150.2 L358.9,151.7 L351.1,158.0 L346.7,162.3 L337.7,161.0 L332.3,158.6 L331.3,160.1 L323.9,165.0 L323.9,166.6 L320.8,166.0 L316.2,168.0 L314.2,170.6 L310.1,172.4 L304.4,167.8 L299.8,171.2 L296.5,178.9 L294.3,181.3 L294.7,184.2 L293.1,187.0 L296.0,188.0 L296.6,191.4 L293.7,192.4 L291.9,196.9 L293.1,199.2 L290.7,199.7 L290.3,202.5 L287.9,205.1 L285.5,205.1 L291.5,209.5 L292.3,215.1 L291.0,222.2 L291.3,225.2 L293.4,226.9 L288.2,234.7 L281.8,238.6 L269.2,240.6 L265.6,242.9 L262.8,246.7 L260.0,247.9 L255.6,245.9 L252.0,250.0 L248.5,252.1 L245.6,254.9 L242.1,255.8 L237.4,258.5 L239.3,260.5 L236.3,263.7 L231.1,265.3 L231.4,267.1 L226.1,268.4 L225.9,269.8 L222.5,269.9 L220.8,267.4 L221.8,263.7 L221.5,259.8 L215.6,257.0 L214.0,255.5 L206.4,251.6 L200.7,241.7 L193.5,232.6 L188.0,228.3 L185.0,230.4 L183.3,228.5 L180.4,230.6 L178.6,229.5 L175.9,231.4 L173.5,235.7 L165.4,236.6 L163.1,239.1 L160.0,240.1 L159.3,241.9 L154.2,240.1 L153.3,238.9 L149.8,239.8 L147.6,238.7 L148.5,236.1 L145.2,232.1 L145.3,228.8 L143.7,227.0 L140.2,219.9 L135.7,222.4 Z">
  <desc xmlns="http://www.highcharts.com/svg/namespace">
    <name>Merzig-Wadern</name>
    <bundesland>DE.SL</bundesland>
    <hc-middle-x>0.58</hc-middle-x>
    <hc-middle-y>0.50</hc-middle-y>
    <hc-key>de-sl-10042000</hc-key>
    <hc-a2>MW</hc-a2>
  </desc>
</path>

<path fill="#CEE3F5" stroke="#6E6E6E" stroke-width="0.4" id="DE.SL.10043000" d="M599.9,218.7 L602.0,220.6 L602.8,224.4 L605.1,224.3 L605.4,227.0 L608.4,226.2 L613.4,226.6 L614.8,228.9 L617.4,230.2 L619.7,233.6 L622.3,233.8 L624.8,236.7 L624.3,239.1 L626.4,243.4 L620.1,249.6 L613.8,249.5 L610.2,253.0 L605.2,254.4 L600.9,254.0 L598.1,259.6 L599.1,261.7 L596.6,262.8 L597.5,266.0 L592.1,267.2 L589.6,268.8 L588.1,272.1 L579.6,279.8 L577.1,282.4 L576.2,287.9 L577.9,288.5 L577.7,290.7 L579.7,292.2 L585.0,290.3 L588.0,292.0 L590.1,297.2 L591.0,302.4 L589.6,306.1 L584.6,311.6 L587.6,314.5 L587.3,318.7 L589.1,318.4 L588.9,320.6 L591.5,323.3 L596.1,324.3 L598.9,327.3 L604.2,327.0 L604.3,329.5 L606.9,330.9 L601.9,336.3 L596.5,334.3 L591.8,338.4 L588.1,340.0 L592.5,343.6 L593.6,347.0 L588.7,350.7 L581.0,354.7 L553.5,364.6 L549.3,366.7 L547.3,362.0 L553.2,357.2 L550.8,352.9 L552.8,347.9 L546.5,349.7 L542.2,349.3 L538.5,353.0 L537.6,355.3 L535.3,357.2 L533.2,355.5 L531.4,352.2 L520.9,351.8 L518.4,350.2 L509.1,342.9 L508.2,344.4 L505.4,342.6 L504.7,339.3 L499.8,337.8 L498.7,336.2 L501.2,334.7 L500.3,331.2 L503.6,327.6 L498.5,319.3 L504.1,317.2 L504.2,314.9 L501.2,312.4 L496.7,311.9 L496.0,313.1 L492.8,309.8 L490.4,311.7 L487.3,307.9 L485.7,303.6 L480.1,306.7 L477.0,306.1 L476.5,308.3 L477.4,312.5 L476.7,315.6 L474.3,321.5 L471.7,321.9 L467.8,318.5 L468.3,317.1 L467.7,310.4 L468.6,308.0 L461.9,303.5 L459.8,305.8 L457.4,306.3 L457.8,299.4 L451.4,301.2 L446.2,301.5 L443.8,298.8 L436.8,299.2 L441.2,293.9 L442.7,290.1 L438.5,290.2 L430.7,289.2 L425.8,290.3 L422.2,289.1 L414.6,290.7 L412.9,289.2 L407.4,292.1 L403.6,291.2 L403.1,288.2 L398.2,281.5 L400.0,276.4 L398.4,273.4 L394.2,273.5 L390.5,269.1 L388.2,267.4 L386.6,261.3 L387.5,257.9 L384.8,256.4 L387.2,253.2 L382.3,248.2 L377.2,250.0 L377.0,247.1 L381.4,243.3 L378.0,241.1 L375.2,236.7 L373.1,231.0 L377.7,228.8 L378.0,223.0 L383.1,220.3 L382.6,218.0 L383.7,215.9 L384.6,218.0 L390.8,220.8 L391.4,219.6 L397.1,221.1 L402.4,218.2 L402.2,217.3 L407.1,213.3 L411.6,213.7 L415.0,211.3 L422.6,208.9 L427.9,208.3 L426.4,210.3 L428.2,211.7 L430.8,211.4 L436.5,212.9 L436.3,215.2 L439.9,216.0 L442.5,220.3 L444.6,220.2 L445.8,222.7 L449.2,223.2 L451.2,224.7 L455.3,223.8 L461.5,220.4 L462.4,224.0 L463.9,225.9 L466.1,231.2 L467.4,231.7 L467.4,235.6 L469.7,238.6 L476.1,236.1 L484.0,237.5 L485.7,235.3 L487.5,235.4 L491.1,233.0 L491.1,228.6 L492.8,226.1 L497.5,228.1 L499.8,227.2 L502.1,224.2 L499.0,223.7 L501.9,219.6 L507.1,221.5 L510.8,218.4 L512.4,218.8 L513.3,221.4 L515.9,220.4 L516.6,217.7 L518.1,218.8 L517.3,222.1 L518.8,223.1 L519.6,228.3 L523.3,230.9 L529.7,232.9 L534.9,230.6 L539.1,230.1 L544.1,225.9 L552.8,223.3 L559.4,222.3 L559.4,218.9 L563.1,216.1 L569.1,214.8 L568.6,211.6 L570.2,207.9 L573.8,209.9 L576.2,212.5 L582.5,220.9 L585.7,220.3 L588.1,222.7 L590.8,220.9 Z">
  <desc xmlns="http://www.highcharts.com/svg/namespace">
    <name>Neunkirchen</name>
    <bundesland>DE.SL</bundesland>
    <hc-middle-x>0.53</hc-middle-x>
    <hc-middle-y>0.43</hc-middle-y>
    <hc-key>de-sl-10043000</hc-key>
    <hc-a2>NE</hc-a2>
  </desc>
</path>

<path fill="#CEE3F5" stroke="#6E6E6E" stroke-width="0.4" id="DE.SL.10044000" d="M422.6,208.9 L415.0,211.3 L411.6,213.7 L407.1,213.3 L402.2,217.3 L402.4,218.2 L397.1,221.1 L391.4,219.6 L390.8,220.8 L384.6,218.0 L383.7,215.9 L382.6,218.0 L383.1,220.3 L378.0,223.0 L377.7,228.8 L373.1,231.0 L375.2,236.7 L378.0,241.1 L381.4,243.3 L377.0,247.1 L377.2,250.0 L382.3,248.2 L387.2,253.2 L384.8,256.4 L387.5,257.9 L386.6,261.3 L388.2,267.4 L390.5,269.1 L388.1,270.5 L385.7,270.0 L386.4,272.8 L385.0,274.2 L384.3,271.2 L382.2,271.3 L381.5,279.2 L379.0,280.2 L375.1,278.5 L372.8,283.4 L368.8,286.4 L366.3,285.5 L366.2,288.8 L362.5,291.4 L353.4,294.6 L352.6,296.5 L349.0,296.7 L347.2,299.2 L344.2,300.3 L338.0,299.8 L335.4,298.1 L334.6,299.4 L338.0,302.8 L340.8,302.4 L343.2,309.4 L345.7,311.4 L347.3,316.0 L340.9,321.6 L347.3,331.2 L342.2,337.0 L341.9,339.3 L344.5,344.0 L345.5,347.4 L344.4,349.7 L340.1,351.0 L336.3,356.5 L335.9,353.9 L333.1,351.8 L331.0,353.3 L333.1,356.3 L335.7,357.9 L334.4,360.8 L331.4,361.8 L328.6,361.1 L329.9,366.5 L327.5,368.8 L329.4,373.3 L327.6,376.6 L321.1,376.6 L315.5,374.6 L307.0,373.3 L303.3,378.4 L309.0,379.7 L309.1,383.0 L315.7,392.4 L312.2,392.5 L312.0,390.2 L305.4,392.6 L302.0,399.6 L296.2,407.9 L292.8,409.1 L287.8,409.1 L288.4,413.3 L287.4,414.9 L284.5,415.3 L283.5,412.7 L278.4,416.1 L276.5,420.6 L272.7,423.2 L270.1,423.4 L266.1,425.7 L261.3,425.1 L249.1,421.9 L248.5,419.0 L245.1,421.3 L236.5,429.0 L234.1,426.6 L224.1,431.4 L221.9,430.6 L217.7,432.2 L214.1,427.3 L212.8,422.6 L214.7,416.7 L213.9,414.4 L213.5,408.4 L211.1,404.3 L215.2,398.4 L213.5,397.0 L210.8,392.5 L206.4,390.3 L205.4,388.0 L201.4,390.5 L197.6,391.0 L195.2,384.0 L199.4,377.3 L200.5,374.0 L199.4,367.8 L202.4,364.4 L196.3,361.9 L195.7,360.7 L191.1,363.1 L190.3,357.2 L185.1,354.0 L181.7,347.8 L177.1,347.6 L173.9,343.7 L172.5,340.7 L167.4,340.2 L165.8,341.5 L164.2,336.9 L162.2,335.9 L159.2,330.1 L156.5,327.0 L152.4,324.2 L149.0,319.5 L149.2,318.1 L153.6,311.4 L147.3,303.9 L145.1,306.2 L142.1,305.9 L142.3,302.6 L140.5,298.9 L137.3,297.1 L134.8,294.1 L133.6,290.7 L133.9,287.9 L132.9,284.0 L140.0,281.3 L141.8,283.2 L145.0,284.0 L147.6,287.6 L147.1,289.2 L149.4,290.7 L150.7,285.5 L152.4,285.1 L152.1,282.2 L155.3,281.2 L159.2,273.2 L157.5,273.7 L157.1,271.0 L154.2,268.4 L146.5,271.5 L147.7,267.8 L147.5,263.3 L149.9,255.2 L148.5,253.5 L145.1,253.7 L142.9,249.2 L133.9,250.7 L131.7,246.1 L126.5,244.1 L126.6,238.2 L123.0,237.7 L121.3,235.8 L119.0,236.6 L116.9,228.1 L117.9,225.2 L124.8,219.6 L127.4,220.6 L130.5,218.4 L135.7,222.4 L140.2,219.9 L143.7,227.0 L145.3,228.8 L145.2,232.1 L148.5,236.1 L147.6,238.7 L149.8,239.8 L153.3,238.9 L154.2,240.1 L159.3,241.9 L160.0,240.1 L163.1,239.1 L165.4,236.6 L173.5,235.7 L175.9,231.4 L178.6,229.5 L180.4,230.6 L183.3,228.5 L185.0,230.4 L188.0,228.3 L193.5,232.6 L200.7,241.7 L206.4,251.6 L214.0,255.5 L215.6,257.0 L221.5,259.8 L221.8,263.7 L220.8,267.4 L222.5,269.9 L225.9,269.8 L226.1,268.4 L231.4,267.1 L231.1,265.3 L236.3,263.7 L239.3,260.5 L237.4,258.5 L242.1,255.8 L245.6,254.9 L248.5,252.1 L252.0,250.0 L255.6,245.9 L260.0,247.9 L262.8,246.7 L265.6,242.9 L269.2,240.6 L281.8,238.6 L288.2,234.7 L293.4,226.9 L291.3,225.2 L291.0,222.2 L292.3,215.1 L291.5,209.5 L285.5,205.1 L287.9,205.1 L290.3,202.5 L290.7,199.7 L293.1,199.2 L291.9,196.9 L293.7,192.4 L296.6,191.4 L296.0,188.0 L293.1,187.0 L294.7,184.2 L294.3,181.3 L296.5,178.9 L299.8,171.2 L304.4,167.8 L310.1,172.4 L314.2,170.6 L316.2,168.0 L320.8,166.0 L323.9,166.6 L323.9,165.0 L331.3,160.1 L332.3,158.6 L337.7,161.0 L346.7,162.3 L351.1,158.0 L358.9,151.7 L362.3,150.2 L368.7,144.2 L371.1,140.3 L375.2,144.1 L376.7,149.9 L379.5,151.4 L381.5,154.4 L378.1,155.9 L377.2,158.9 L374.2,159.3 L370.9,161.9 L375.8,168.3 L378.5,170.7 L380.1,174.6 L385.2,170.8 L387.5,172.0 L390.9,171.0 L394.9,167.1 L401.5,158.3 L406.4,155.6 L410.1,157.3 L411.8,161.5 L409.5,163.6 L412.7,168.3 L410.4,170.9 L411.2,174.9 L415.5,174.0 L416.1,175.1 L412.8,178.3 L411.3,182.9 L414.9,192.2 L412.8,194.2 L417.6,193.5 L420.9,196.9 L421.3,205.1 Z">
  <desc xmlns="http://www.highcharts.com/svg/namespace">
    <name>Saarlouis</name>
    <bundesland>DE.SL</bundesland>
    <hc-middle-x>0.59</hc-middle-x>
    <hc-middle-y>0.51</hc-middle-y>
    <hc-key>de-sl-10044000</hc-key>
    <hc-a2>SA</hc-a2>
  </desc>
</path>

<path fill="#CEE3F5" stroke="#6E6E6E" stroke-width="0.4" id="DE.SL.10041000" d="M490.6,501.1 L486.9,504.0 L483.2,505.1 L477.9,504.1 L477.1,509.8 L478.9,513.3 L477.5,515.9 L482.5,524.9 L482.0,527.5 L473.7,531.1 L469.9,533.3 L467.6,537.4 L467.4,541.1 L466.1,543.6 L459.7,545.9 L456.0,544.6 L453.0,541.5 L451.1,536.5 L452.2,525.3 L453.3,521.4 L452.6,517.5 L449.8,509.4 L444.8,501.4 L443.6,496.9 L444.5,491.3 L442.2,488.7 L441.2,485.0 L441.9,479.5 L445.6,472.7 L445.5,466.8 L446.8,463.3 L442.4,463.8 L438.8,465.4 L437.6,461.3 L433.6,463.3 L430.2,466.5 L429.1,460.2 L422.8,459.5 L421.3,456.2 L418.3,452.8 L406.8,443.6 L405.0,443.5 L396.0,449.9 L390.4,444.9 L385.7,438.2 L383.0,435.5 L382.0,429.5 L375.7,429.6 L373.2,428.3 L368.9,428.8 L368.8,431.7 L363.8,436.6 L356.3,437.9 L351.3,442.4 L337.8,436.1 L336.0,432.0 L331.0,428.3 L328.3,427.7 L319.2,434.1 L313.9,436.8 L312.7,439.1 L316.7,441.7 L318.9,445.4 L322.0,448.7 L323.3,452.3 L321.8,457.6 L325.7,463.8 L326.9,464.8 L329.0,470.2 L329.0,473.1 L327.0,477.4 L324.8,477.0 L317.0,478.8 L317.6,483.6 L316.9,488.1 L318.7,495.3 L309.4,501.3 L303.0,497.9 L298.0,494.1 L292.0,493.0 L288.4,489.4 L281.6,487.4 L280.0,485.0 L273.3,482.3 L260.4,485.7 L252.8,483.4 L248.2,485.7 L245.1,486.4 L239.1,480.4 L237.4,476.9 L233.0,474.0 L227.3,460.3 L241.5,442.5 L237.9,433.7 L236.5,429.0 L245.1,421.3 L248.5,419.0 L249.1,421.9 L261.3,425.1 L266.1,425.7 L270.1,423.4 L272.7,423.2 L276.5,420.6 L278.4,416.1 L283.5,412.7 L284.5,415.3 L287.4,414.9 L288.4,413.3 L287.8,409.1 L292.8,409.1 L296.2,407.9 L302.0,399.6 L305.4,392.6 L312.0,390.2 L312.2,392.5 L315.7,392.4 L309.1,383.0 L309.0,379.7 L303.3,378.4 L307.0,373.3 L315.5,374.6 L321.1,376.6 L327.6,376.6 L329.4,373.3 L327.5,368.8 L329.9,366.5 L328.6,361.1 L331.4,361.8 L334.4,360.8 L335.7,357.9 L333.1,356.3 L331.0,353.3 L333.1,351.8 L335.9,353.9 L336.3,356.5 L340.1,351.0 L344.4,349.7 L345.5,347.4 L344.5,344.0 L341.9,339.3 L342.2,337.0 L347.3,331.2 L340.9,321.6 L347.3,316.0 L345.7,311.4 L343.2,309.4 L340.8,302.4 L338.0,302.8 L334.6,299.4 L335.4,298.1 L338.0,299.8 L344.2,300.3 L347.2,299.2 L349.0,296.7 L352.6,296.5 L353.4,294.6 L362.5,291.4 L366.2,288.8 L366.3,285.5 L368.8,286.4 L372.8,283.4 L375.1,278.5 L379.0,280.2 L381.5,279.2 L382.2,271.3 L384.3,271.2 L385.0,274.2 L386.4,272.8 L385.7,270.0 L388.1,270.5 L390.5,269.1 L394.2,273.5 L398.4,273.4 L400.0,276.4 L398.2,281.5 L403.1,288.2 L403.6,291.2 L407.4,292.1 L412.9,289.2 L414.6,290.7 L422.2,289.1 L425.8,290.3 L430.7,289.2 L438.5,290.2 L442.7,290.1 L441.2,293.9 L436.8,299.2 L443.8,298.8 L446.2,301.5 L451.4,301.2 L457.8,299.4 L457.4,306.3 L459.8,305.8 L461.9,303.5 L468.6,308.0 L467.7,310.4 L468.3,317.1 L467.8,318.5 L471.7,321.9 L474.3,321.5 L476.7,315.6 L477.4,312.5 L476.5,308.3 L477.0,306.1 L480.1,306.7 L485.7,303.6 L487.3,307.9 L490.4,311.7 L492.8,309.8 L496.0,313.1 L496.7,311.9 L501.2,312.4 L504.2,314.9 L504.1,317.2 L498.5,319.3 L503.6,327.6 L500.3,331.2 L501.2,334.7 L498.7,336.2 L499.8,337.8 L504.7,339.3 L505.4,342.6 L502.2,345.8 L497.8,347.7 L495.5,347.9 L492.4,350.5 L490.8,348.3 L488.5,352.1 L489.7,353.9 L486.3,356.1 L483.8,355.3 L481.9,357.2 L484.4,364.7 L483.3,369.1 L484.1,370.4 L478.5,371.8 L479.8,378.3 L474.8,377.4 L472.0,377.9 L469.9,381.0 L467.6,381.1 L467.1,385.4 L468.5,389.2 L467.4,391.3 L471.1,396.9 L476.5,394.7 L481.1,397.7 L478.4,403.7 L482.5,405.1 L483.0,408.3 L487.0,407.0 L488.7,403.5 L494.4,399.5 L497.7,399.7 L499.4,396.0 L502.0,399.1 L501.5,401.5 L504.6,402.6 L505.2,404.6 L507.8,406.1 L509.5,409.2 L512.7,409.8 L511.4,411.9 L512.0,414.4 L509.5,426.4 L506.8,432.4 L509.6,439.1 L512.2,437.5 L515.6,438.1 L516.7,441.9 L514.7,444.2 L512.3,442.3 L510.8,444.1 L509.7,449.2 L503.9,454.6 L502.3,460.3 L503.8,462.5 L500.8,462.9 L499.4,465.9 L495.4,467.7 L494.8,470.7 L496.2,472.8 L498.6,480.5 L501.1,479.2 L507.1,480.5 L508.7,479.9 L510.2,484.4 L507.5,487.4 L503.4,487.0 L493.9,495.2 L493.1,498.0 L490.6,498.8 Z">
  <desc xmlns="http://www.highcharts.com/svg/namespace">
    <name>Regionalverband Saarbrücken</name>
    <bundesland>DE.SL</bundesland>
    <hc-middle-x>0.63</hc-middle-x>
    <hc-middle-y>0.36</hc-middle-y>
    <hc-key>de-sl-10041000</hc-key>
    <hc-a2>RS</hc-a2>
  </desc>
</path>

<path fill="#CEE3F5" stroke="#6E6E6E" stroke-width="0.4" id="DE.SL.10045000" d="M490.6,501.1 L490.6,498.8 L493.1,498.0 L493.9,495.2 L503.4,487.0 L507.5,487.4 L510.2,484.4 L508.7,479.9 L507.1,480.5 L501.1,479.2 L498.6,480.5 L496.2,472.8 L494.8,470.7 L495.4,467.7 L499.4,465.9 L500.8,462.9 L503.8,462.5 L502.3,460.3 L503.9,454.6 L509.7,449.2 L510.8,444.1 L512.3,442.3 L514.7,444.2 L516.7,441.9 L515.6,438.1 L512.2,437.5 L509.6,439.1 L506.8,432.4 L509.5,426.4 L512.0,414.4 L511.4,411.9 L512.7,409.8 L509.5,409.2 L507.8,406.1 L505.2,404.6 L504.6,402.6 L501.5,401.5 L502.0,399.1 L499.4,396.0 L497.7,399.7 L494.4,399.5 L488.7,403.5 L487.0,407.0 L483.0,408.3 L482.5,405.1 L478.4,403.7 L481.1,397.7 L476.5,394.7 L471.1,396.9 L467.4,391.3 L468.5,389.2 L467.1,385.4 L467.6,381.1 L469.9,381.0 L472.0,377.9 L474.8,377.4 L479.8,378.3 L478.5,371.8 L484.1,370.4 L483.3,369.1 L484.4,364.7 L481.9,357.2 L483.8,355.3 L486.3,356.1 L489.7,353.9 L488.5,352.1 L490.8,348.3 L492.4,350.5 L495.5,347.9 L497.8,347.7 L502.2,345.8 L505.4,342.6 L508.2,344.4 L509.1,342.9 L518.4,350.2 L520.9,351.8 L531.4,352.2 L533.2,355.5 L535.3,357.2 L537.6,355.3 L538.5,353.0 L542.2,349.3 L546.5,349.7 L552.8,347.9 L550.8,352.9 L553.2,357.2 L547.3,362.0 L549.3,366.7 L553.5,364.6 L581.0,354.7 L588.7,350.7 L593.6,347.0 L592.5,343.6 L588.1,340.0 L591.8,338.4 L596.5,334.3 L601.9,336.3 L606.9,330.9 L604.3,329.5 L604.2,327.0 L598.9,327.3 L596.1,324.3 L591.5,323.3 L588.9,320.6 L589.1,318.4 L587.3,318.7 L587.6,314.5 L584.6,311.6 L589.6,306.1 L591.0,302.4 L590.1,297.2 L588.0,292.0 L585.0,290.3 L579.7,292.2 L577.7,290.7 L577.9,288.5 L576.2,287.9 L577.1,282.4 L579.6,279.8 L588.1,272.1 L589.6,268.8 L592.1,267.2 L597.5,266.0 L596.6,262.8 L599.1,261.7 L598.1,259.6 L600.9,254.0 L605.2,254.4 L610.2,253.0 L613.8,249.5 L620.1,249.6 L626.4,243.4 L629.4,247.2 L627.3,250.9 L630.4,253.5 L624.0,258.8 L625.7,259.3 L623.7,263.4 L630.4,262.9 L633.7,263.6 L632.9,265.1 L641.7,268.5 L642.7,271.5 L646.4,272.8 L650.5,272.9 L651.8,274.3 L655.6,272.7 L661.9,272.5 L668.4,273.8 L667.6,279.3 L670.5,278.7 L677.2,279.9 L676.7,284.2 L675.4,284.9 L675.5,291.1 L683.7,288.3 L695.3,282.3 L698.9,284.0 L699.3,286.9 L693.3,291.1 L693.6,292.6 L699.4,298.8 L697.3,301.0 L691.5,301.5 L690.7,305.2 L696.6,304.6 L696.4,307.3 L700.0,309.2 L698.0,310.8 L699.1,312.3 L697.0,316.0 L697.2,318.9 L694.8,319.6 L694.4,323.4 L692.2,327.5 L686.1,334.1 L684.6,333.9 L681.8,337.2 L683.8,339.4 L687.1,335.5 L691.8,335.4 L693.0,341.6 L690.1,344.1 L691.2,346.8 L688.2,345.8 L685.9,346.3 L683.5,349.6 L683.9,352.7 L682.6,354.8 L682.9,359.1 L684.7,362.2 L686.5,362.7 L679.0,374.2 L676.9,376.2 L673.8,373.9 L672.4,375.5 L672.5,379.0 L668.9,377.7 L665.6,374.6 L666.2,373.1 L662.1,374.5 L656.5,375.2 L651.6,378.4 L652.5,380.5 L658.1,383.6 L657.9,386.6 L654.4,393.3 L648.8,397.5 L648.2,396.7 L644.7,399.7 L646.6,402.8 L644.2,409.4 L642.9,409.9 L638.5,405.8 L636.0,402.0 L636.1,400.0 L632.2,400.8 L632.7,402.2 L629.7,406.1 L629.9,411.8 L624.4,417.1 L622.1,417.5 L620.1,421.1 L623.6,422.8 L619.7,427.0 L623.2,431.1 L629.0,434.8 L628.7,441.8 L625.7,444.3 L625.7,447.1 L627.6,449.0 L624.0,451.8 L625.3,454.7 L629.0,452.9 L630.4,457.8 L633.6,460.9 L636.6,466.1 L640.6,471.0 L644.4,471.3 L652.2,475.4 L650.0,479.4 L650.3,484.3 L651.8,486.2 L655.1,487.3 L657.0,491.0 L657.1,493.4 L659.6,497.9 L662.3,499.8 L667.1,499.7 L668.0,502.7 L670.8,500.5 L668.3,504.0 L667.0,507.8 L668.0,516.3 L667.7,518.5 L663.5,517.6 L655.9,518.1 L653.3,516.0 L645.5,516.3 L635.6,522.6 L633.7,525.4 L631.8,531.9 L628.6,534.2 L627.5,538.3 L623.5,544.3 L619.9,546.6 L612.6,544.4 L613.7,537.7 L612.3,536.7 L609.5,538.6 L606.8,536.7 L602.6,537.1 L601.4,538.2 L590.1,533.1 L587.6,530.2 L581.2,531.4 L577.3,533.7 L570.6,534.9 L562.7,535.4 L559.5,537.3 L559.2,539.7 L556.6,544.5 L554.5,542.9 L554.3,538.1 L550.5,533.7 L550.4,531.5 L548.2,531.6 L547.2,528.1 L545.9,529.3 L541.7,529.0 L542.2,530.7 L539.3,530.4 L535.1,531.8 L533.3,530.5 L529.4,537.0 L529.3,538.8 L526.8,537.7 L523.0,533.7 L518.4,532.9 L516.7,530.8 L513.4,529.9 L510.7,526.5 L510.6,523.4 L507.4,516.3 L504.0,516.1 L501.7,517.5 L494.7,518.3 L492.2,519.3 L491.6,513.6 L492.4,511.3 L497.3,507.5 L498.7,505.4 L495.3,504.8 L494.0,501.7 Z">
  <desc xmlns="http://www.highcharts.com/svg/namespace">
    <name>Saarpfalz-Kreis</name>
    <bundesland>DE.SL</bundesland>
    <hc-middle-x>0.45</hc-middle-x>
    <hc-middle-y>0.64</hc-middle-y>
    <hc-key>de-sl-10045000</hc-key>
    <hc-a2>SK</hc-a2>
  </desc>
</path>

<path fill="#CEE3F5" stroke="#6E6E6E" stroke-width="0.4" id="DE.SL.10046000" d="M599.9,218.7 L590.8,220.9 L588.1,222.7 L585.7,220.3 L582.5,220.9 L576.2,212.5 L573.8,209.9 L570.2,207.9 L568.6,211.6 L569.1,214.8 L563.1,216.1 L559.4,218.9 L559.4,222.3 L552.8,223.3 L544.1,225.9 L539.1,230.1 L534.9,230.6 L529.7,232.9 L523.3,230.9 L519.6,228.3 L518.8,223.1 L517.3,222.1 L518.1,218.8 L516.6,217.7 L515.9,220.4 L513.3,221.4 L512.4,218.8 L510.8,218.4 L507.1,221.5 L501.9,219.6 L499.0,223.7 L502.1,224.2 L499.8,227.2 L497.5,228.1 L492.8,226.1 L491.1,228.6 L491.1,233.0 L487.5,235.4 L485.7,235.3 L484.0,237.5 L476.1,236.1 L469.7,238.6 L467.4,235.6 L467.4,231.7 L466.1,231.2 L463.9,225.9 L462.4,224.0 L461.5,220.4 L455.3,223.8 L451.2,224.7 L449.2,223.2 L445.8,222.7 L444.6,220.2 L442.5,220.3 L439.9,216.0 L436.3,215.2 L436.5,212.9 L430.8,211.4 L428.2,211.7 L426.4,210.3 L427.9,208.3 L422.6,208.9 L421.3,205.1 L420.9,196.9 L417.6,193.5 L412.8,194.2 L414.9,192.2 L411.3,182.9 L412.8,178.3 L416.1,175.1 L415.5,174.0 L411.2,174.9 L410.4,170.9 L412.7,168.3 L409.5,163.6 L411.8,161.5 L410.1,157.3 L406.4,155.6 L401.5,158.3 L394.9,167.1 L390.9,171.0 L387.5,172.0 L385.2,170.8 L380.1,174.6 L378.5,170.7 L375.8,168.3 L370.9,161.9 L374.2,159.3 L377.2,158.9 L378.1,155.9 L381.5,154.4 L379.5,151.4 L376.7,149.9 L375.2,144.1 L371.1,140.3 L377.3,134.1 L379.8,138.3 L381.3,137.2 L383.6,138.7 L385.5,136.9 L390.3,134.9 L396.0,131.1 L401.7,130.8 L402.6,125.2 L401.5,122.1 L402.8,117.0 L400.9,108.5 L403.6,105.8 L404.6,95.6 L403.7,94.3 L403.9,90.0 L402.3,87.4 L406.6,84.0 L408.3,81.6 L407.1,78.8 L404.2,78.8 L404.2,75.2 L399.6,74.9 L398.9,73.6 L401.8,70.0 L399.8,68.7 L399.8,66.4 L403.1,62.5 L404.1,58.7 L401.6,57.1 L405.9,54.0 L404.1,51.8 L404.0,47.0 L405.0,41.8 L402.8,45.0 L396.3,41.3 L392.4,41.4 L389.4,39.6 L387.5,41.7 L382.9,41.9 L379.1,44.5 L376.6,43.7 L373.5,44.5 L370.5,48.2 L363.6,40.9 L363.1,37.4 L363.8,34.2 L361.8,29.2 L361.7,24.4 L361.0,22.6 L362.9,21.1 L367.2,23.3 L371.7,23.9 L374.9,22.1 L381.9,21.6 L384.1,23.4 L385.0,26.3 L387.3,26.1 L388.3,24.1 L386.4,23.2 L386.2,20.0 L391.0,22.6 L392.9,20.8 L390.8,18.3 L390.6,15.3 L392.5,12.6 L390.1,9.6 L389.9,7.0 L395.5,3.1 L398.4,2.2 L400.7,3.0 L400.2,6.2 L401.0,12.4 L402.3,13.4 L407.4,7.7 L408.3,9.5 L418.2,4.8 L420.7,2.8 L420.1,6.1 L426.8,5.3 L429.5,3.5 L429.6,6.5 L427.1,9.2 L427.4,13.4 L425.5,16.2 L425.4,18.6 L429.6,15.5 L432.4,11.4 L437.1,7.8 L443.3,11.2 L448.6,6.6 L454.1,0.0 L469.1,7.9 L474.7,9.8 L480.7,16.9 L483.2,22.9 L488.2,30.0 L491.3,36.6 L490.5,38.4 L492.7,39.5 L494.0,42.4 L496.8,38.2 L501.9,39.5 L501.4,37.1 L503.8,37.5 L504.6,43.1 L508.3,43.6 L513.7,46.5 L517.9,47.0 L525.5,46.0 L530.2,44.0 L532.2,40.1 L536.3,39.1 L538.8,40.1 L542.7,44.5 L547.5,46.1 L550.9,44.2 L551.8,48.8 L550.1,55.7 L550.4,58.7 L556.2,61.3 L559.2,64.4 L559.4,68.3 L561.5,67.2 L574.8,67.5 L577.4,70.3 L574.4,76.7 L576.8,79.2 L584.2,80.4 L586.8,79.7 L589.0,77.2 L590.9,77.8 L595.3,76.4 L596.4,71.4 L603.3,71.4 L607.7,66.8 L608.7,62.9 L611.0,61.0 L614.4,61.2 L612.2,66.9 L610.2,69.6 L609.9,73.7 L613.4,77.7 L614.2,83.8 L617.8,85.1 L616.9,94.4 L618.2,98.5 L618.9,109.7 L628.1,112.5 L635.7,112.7 L633.5,116.2 L636.0,120.3 L638.8,121.7 L640.7,124.8 L638.7,126.5 L639.2,128.1 L634.6,130.1 L633.1,128.8 L632.1,124.9 L628.8,126.2 L624.3,130.9 L626.6,135.5 L622.1,137.5 L621.5,142.3 L623.8,143.6 L622.0,146.8 L624.4,147.5 L624.8,149.4 L622.0,153.1 L620.8,160.3 L621.0,162.8 L618.4,164.5 L627.0,166.0 L628.2,167.0 L631.0,165.6 L633.8,172.7 L635.6,174.0 L636.1,177.2 L633.2,180.7 L633.5,183.1 L631.0,185.1 L625.8,187.5 L623.3,189.7 L623.7,192.2 L615.5,194.1 L614.5,198.0 L609.8,198.3 L604.1,200.9 L600.4,201.6 L596.1,204.1 L597.0,205.8 L602.0,209.3 L598.4,214.9 Z">
  <desc xmlns="http://www.highcharts.com/svg/namespace">
    <name>St. Wendel</name>
    <bundesland>DE.SL</bundesland>
    <hc-middle-x>0.49</hc-middle-x>
    <hc-middle-y>0.56</hc-middle-y>
    <hc-key>de-sl-10046000</hc-key>
    <hc-a2>SW</hc-a2>
  </desc>
</path>
</g>

<text x="350" y="714" text-anchor="middle" font-family="Verdana" font-size="8" stroke-opacity="0.6">Copyright (c) 2020 Highsoft AS, Based on data from GeoBasis-DE / BKG 2014</text>

</svg>