<?xml version="1.0" encoding="utf-8" standalone="no"?>
<!DOCTYPE svg PUBLIC "-//W3C//DTD SVG 1.1//EN" "http://www.w3.org/Graphics/SVG/1.1/DTD/svg11.dtd">

<svg version="1.1" height="700pt" width="700pt" xmlns="http://www.w3.org/2000/svg" xmlns:xlink="http://www.w3.org/1999/xlink">
<desc>
Map version: 2.1.0
Copyright (c) 2023 Highsoft AS, Based on data from Natural Earth
</desc>
<title>Centre (2015)</title>
<g id="admin2">

<g id="FR.F">
  <desc xmlns="http://www.highcharts.com/svg/namespace">
    <name>Centre</name>
    <hc-key>fr-f</hc-key>
    <hc-a2>CE</hc-a2>
  </desc>
</g>

<g id="FR">
  <desc xmlns="http://www.highcharts.com/svg/namespace">
    <name>France</name>
    <labelrank>2</labelrank>
    <country-abbrev>Fr.</country-abbrev>
    <subregion>Western Europe</subregion>
    <region-wb>Europe &amp; Central Asia</region-wb>
    <iso-a3>FRA</iso-a3>
    <iso-a2>FR</iso-a2>
    <woe-id>-90</woe-id>
    <continent>Europe</continent>
    <hc-key>fr</hc-key>
    <hc-a2>FR</hc-a2>
  </desc>
</g>

<path fill="#CEE3F5" stroke="#6E6E6E" stroke-width="0.4" id="FR.F.IN" d="M380.2,683.0 L373.3,684.5 L367.0,681.8 L356.4,681.7 L348.8,678.6 L332.1,677.9 L328.3,678.8 L322.7,682.6 L318.6,680.8 L313.2,674.2 L309.8,674.3 L307.7,678.4 L307.9,683.8 L306.5,687.0 L302.7,688.9 L292.8,687.3 L286.8,692.1 L281.5,691.8 L279.7,686.7 L277.1,684.6 L272.2,685.3 L265.4,683.2 L262.8,683.9 L250.3,696.3 L244.3,700.0 L236.1,694.1 L233.2,688.9 L229.6,687.2 L227.0,688.5 L223.9,693.2 L213.1,694.8 L208.2,694.4 L200.1,689.3 L203.6,678.3 L201.5,674.7 L197.9,672.6 L194.1,668.2 L195.6,658.5 L192.0,651.9 L186.9,649.1 L175.2,648.8 L173.0,647.7 L171.8,641.8 L160.7,635.8 L156.5,631.8 L152.8,626.4 L151.4,618.5 L151.8,611.3 L153.5,606.2 L153.1,600.4 L149.7,592.7 L147.2,589.6 L154.0,585.5 L158.3,591.9 L165.7,588.8 L170.9,575.8 L177.1,545.6 L177.7,538.5 L181.5,536.6 L181.6,523.9 L185.0,519.2 L190.0,516.6 L199.9,514.1 L204.0,514.5 L212.4,518.9 L215.1,519.1 L221.3,512.7 L225.9,504.4 L228.4,504.7 L230.5,496.2 L237.6,494.9 L238.9,489.1 L238.1,483.1 L232.7,473.7 L250.8,463.2 L259.7,460.9 L269.4,463.8 L270.7,458.1 L273.9,455.2 L282.1,455.4 L284.3,448.1 L290.6,449.2 L296.9,451.6 L306.5,447.3 L327.3,466.5 L327.3,474.2 L324.6,480.6 L315.0,490.3 L318.7,492.7 L335.4,497.9 L339.1,497.2 L346.5,493.5 L350.4,492.7 L359.9,493.9 L363.7,495.8 L366.1,500.3 L365.8,506.1 L364.1,511.4 L365.5,515.6 L370.1,520.1 L373.4,526.5 L373.4,530.7 L370.6,542.0 L372.3,545.9 L378.6,549.9 L379.8,555.5 L373.7,561.8 L370.1,569.9 L369.9,578.8 L375.9,583.9 L375.7,590.0 L369.4,595.0 L367.9,597.5 L368.6,602.6 L370.6,604.2 L378.4,605.8 L382.4,609.6 L382.0,617.9 L387.0,621.9 L389.8,628.7 L388.6,636.9 L384.2,645.4 L384.2,648.5 L387.5,651.8 L390.7,661.1 L390.1,667.9 L383.5,675.2 Z">
  <desc xmlns="http://www.highcharts.com/svg/namespace">
    <labelrank>3</labelrank>
    <hasc>FR.IN</hasc>
    <alt-name>NULL</alt-name>
    <woe-id>12597125</woe-id>
    <subregion>NULL</subregion>
    <fips>FRA3</fips>
    <name>Indre</name>
    <type>Metropolitan department</type>
    <region>Centre</region>
    <longitude>1.61636</longitude>
    <woe-name>Indre</woe-name>
    <latitude>46.8003</latitude>
    <woe-label>NULL</woe-label>
    <hc-middle-x>0.54</hc-middle-x>
    <hc-middle-y>0.55</hc-middle-y>
    <hc-key>fr-f-in</hc-key>
    <hc-a2>IN</hc-a2>
  </desc>
</path>

<path fill="#CEE3F5" stroke="#6E6E6E" stroke-width="0.4" id="FR.F.IL" d="M232.7,473.7 L238.1,483.1 L238.9,489.1 L237.6,494.9 L230.5,496.2 L228.4,504.7 L225.9,504.4 L221.3,512.7 L215.1,519.1 L212.4,518.9 L204.0,514.5 L199.9,514.1 L190.0,516.6 L185.0,519.2 L181.6,523.9 L181.5,536.6 L177.7,538.5 L177.1,545.6 L170.9,575.8 L165.7,588.8 L158.3,591.9 L154.0,585.5 L147.2,589.6 L138.3,581.5 L117.3,548.3 L113.8,536.6 L110.1,530.2 L104.3,527.1 L94.2,520.2 L91.4,520.2 L91.7,524.9 L93.8,530.0 L89.9,533.0 L75.2,533.2 L70.2,534.8 L65.8,537.8 L57.5,535.9 L49.4,536.5 L46.0,535.6 L42.7,532.0 L41.9,528.0 L42.4,519.0 L44.1,510.2 L43.3,507.3 L37.8,506.4 L35.7,502.3 L32.8,501.3 L23.6,503.1 L22.0,500.4 L23.3,494.6 L22.6,490.4 L16.7,491.1 L13.1,489.9 L13.2,485.0 L11.2,483.2 L8.1,485.1 L4.3,484.5 L0.0,475.7 L3.5,455.1 L7.4,439.9 L11.8,431.0 L17.2,424.3 L22.5,415.9 L21.8,408.4 L25.7,395.4 L32.0,382.4 L31.0,373.5 L31.9,366.7 L36.6,355.3 L49.7,358.8 L60.1,362.3 L63.5,360.9 L62.3,354.2 L62.9,350.5 L67.3,348.9 L71.5,351.6 L75.1,351.5 L80.1,346.8 L87.5,345.3 L97.4,340.6 L102.5,339.9 L105.0,337.9 L104.6,334.2 L108.8,330.5 L113.6,330.3 L122.2,336.0 L128.7,333.6 L146.4,339.0 L150.1,342.9 L150.6,346.9 L149.0,355.8 L152.0,359.8 L156.3,358.9 L160.0,354.3 L168.6,352.3 L173.1,354.4 L174.0,360.2 L176.0,362.2 L182.2,360.2 L186.7,367.4 L187.5,372.2 L184.4,378.6 L184.4,381.3 L188.1,385.1 L193.7,395.6 L196.1,403.5 L196.8,413.1 L195.5,422.7 L191.6,435.0 L194.9,441.3 L203.2,447.5 L209.4,446.6 L217.1,448.5 L223.1,454.4 Z">
  <desc xmlns="http://www.highcharts.com/svg/namespace">
    <labelrank>3</labelrank>
    <hasc>FR.IL</hasc>
    <alt-name>NULL</alt-name>
    <woe-id>12597121</woe-id>
    <subregion>NULL</subregion>
    <fips>FRA3</fips>
    <name>Indre-et-Loire</name>
    <type>Metropolitan department</type>
    <region>Centre</region>
    <longitude>0.713649</longitude>
    <woe-name>Indre-et-Loire</woe-name>
    <latitude>47.2903</latitude>
    <woe-label>NULL</woe-label>
    <hc-middle-x>0.49</hc-middle-x>
    <hc-middle-y>0.47</hc-middle-y>
    <hc-key>fr-f-il</hc-key>
    <hc-a2>IL</hc-a2>
  </desc>
</path>

<path fill="#CEE3F5" stroke="#6E6E6E" stroke-width="0.4" id="FR.F.EL" d="M148.4,225.8 L148.3,223.5 L163.3,213.5 L162.3,210.4 L151.6,207.9 L142.9,200.9 L146.5,198.5 L148.4,194.8 L143.2,182.7 L143.7,172.8 L139.7,166.4 L142.3,160.5 L149.3,159.3 L161.7,154.4 L170.9,147.0 L177.5,134.9 L177.4,132.8 L172.9,126.5 L171.9,122.3 L173.2,114.1 L172.0,110.4 L162.8,99.6 L155.4,93.7 L150.7,83.4 L149.9,71.3 L155.9,65.2 L160.2,62.4 L177.4,58.0 L184.9,57.2 L190.3,50.1 L200.7,49.1 L202.4,43.2 L206.1,42.7 L211.0,47.1 L216.3,48.5 L222.6,48.1 L229.6,50.0 L241.5,43.8 L245.2,40.5 L247.3,34.2 L250.5,29.0 L254.6,25.4 L261.9,21.6 L264.8,18.5 L265.4,13.7 L264.0,7.9 L265.4,4.3 L272.6,0.0 L281.9,19.4 L285.9,25.7 L286.7,31.9 L284.9,41.4 L286.6,48.3 L291.7,51.5 L291.5,55.2 L286.1,64.0 L286.7,67.0 L290.9,70.2 L292.4,75.0 L296.5,80.8 L307.7,89.3 L308.8,95.6 L311.1,99.4 L316.4,103.0 L319.1,110.2 L319.0,119.5 L320.7,123.7 L325.5,128.6 L338.8,135.2 L345.3,133.9 L346.7,135.2 L347.3,143.8 L353.5,152.1 L355.1,161.9 L360.0,166.6 L360.8,169.1 L355.6,175.8 L355.7,178.7 L358.6,180.8 L354.8,186.8 L354.4,192.2 L356.1,201.4 L353.7,207.3 L345.5,210.5 L340.1,224.2 L333.6,232.0 L329.9,233.1 L325.4,231.7 L321.7,232.3 L310.8,236.9 L300.9,234.7 L295.9,235.1 L292.9,237.2 L287.1,245.0 L284.3,245.7 L278.7,242.9 L275.9,243.4 L271.9,249.4 L272.4,258.2 L263.5,255.9 L259.9,257.1 L245.3,265.8 L236.9,266.7 L223.7,259.9 L216.4,261.8 L213.1,259.1 L207.7,249.5 L200.4,241.3 L196.2,234.2 L187.7,231.7 L184.3,227.3 L183.8,220.0 L182.4,217.3 L177.6,217.8 L172.6,221.4 L166.3,223.3 L154.8,223.6 Z">
  <desc xmlns="http://www.highcharts.com/svg/namespace">
    <labelrank>3</labelrank>
    <hasc>FR.EL</hasc>
    <alt-name>NULL</alt-name>
    <woe-id>12597129</woe-id>
    <subregion>NULL</subregion>
    <fips>FRA3</fips>
    <name>Eure-et-Loir</name>
    <type>Metropolitan department</type>
    <region>Centre</region>
    <longitude>1.36704</longitude>
    <woe-name>Eure-et-Loir</woe-name>
    <latitude>48.3564</latitude>
    <woe-label>NULL</woe-label>
    <hc-middle-x>0.48</hc-middle-x>
    <hc-middle-y>0.60</hc-middle-y>
    <hc-key>fr-f-el</hc-key>
    <hc-a2>EL</hc-a2>
  </desc>
</path>

<path fill="#CEE3F5" stroke="#6E6E6E" stroke-width="0.4" id="FR.F.LC" d="M327.3,466.5 L306.5,447.3 L296.9,451.6 L290.6,449.2 L284.3,448.1 L282.1,455.4 L273.9,455.2 L270.7,458.1 L269.4,463.8 L259.7,460.9 L250.8,463.2 L232.7,473.7 L223.1,454.4 L217.1,448.5 L209.4,446.6 L203.2,447.5 L194.9,441.3 L191.6,435.0 L195.5,422.7 L196.8,413.1 L196.1,403.5 L193.7,395.6 L188.1,385.1 L184.4,381.3 L184.4,378.6 L187.5,372.2 L186.7,367.4 L182.2,360.2 L176.0,362.2 L174.0,360.2 L173.1,354.4 L168.6,352.3 L160.0,354.3 L156.3,358.9 L152.0,359.8 L149.0,355.8 L150.6,346.9 L150.1,342.9 L146.4,339.0 L128.7,333.6 L122.2,336.0 L113.6,330.3 L108.8,330.5 L104.6,334.2 L103.3,330.9 L105.6,325.1 L109.8,320.9 L120.2,316.2 L125.6,312.8 L130.1,308.4 L135.1,293.6 L135.5,283.7 L137.4,276.2 L146.4,268.6 L148.8,263.7 L147.8,259.9 L148.1,254.0 L149.7,248.3 L149.2,244.0 L144.7,243.3 L141.7,236.4 L144.6,232.5 L150.1,232.1 L151.9,229.4 L148.4,225.8 L154.8,223.6 L166.3,223.3 L172.6,221.4 L177.6,217.8 L182.4,217.3 L183.8,220.0 L184.3,227.3 L187.7,231.7 L196.2,234.2 L200.4,241.3 L207.7,249.5 L213.1,259.1 L216.4,261.8 L223.7,259.9 L236.9,266.7 L245.3,265.8 L259.9,257.1 L263.5,255.9 L272.4,258.2 L278.2,258.0 L281.1,263.7 L280.1,266.6 L276.1,271.3 L275.2,274.4 L282.8,280.6 L282.6,290.9 L277.2,296.5 L274.1,301.3 L280.6,309.4 L276.4,316.8 L285.6,326.2 L288.9,324.2 L291.2,318.5 L297.9,323.7 L305.1,327.0 L307.2,329.3 L309.8,342.5 L314.0,348.5 L319.8,352.2 L325.5,351.6 L329.2,344.8 L330.0,339.0 L333.2,336.5 L338.3,338.5 L347.7,345.6 L353.1,346.5 L389.9,343.4 L399.4,347.3 L402.1,358.7 L388.1,363.3 L382.5,367.5 L381.6,375.3 L383.9,378.0 L391.6,378.0 L394.6,380.2 L398.7,390.8 L404.3,399.8 L405.2,407.9 L402.6,415.5 L397.4,415.4 L385.7,411.0 L381.0,414.0 L378.8,420.5 L379.6,429.2 L384.6,443.1 L382.8,449.1 L375.7,453.4 L366.5,454.5 L357.3,453.1 L348.0,449.1 L341.3,455.4 L340.4,464.2 L336.8,467.8 L333.5,468.4 Z">
  <desc xmlns="http://www.highcharts.com/svg/namespace">
    <labelrank>3</labelrank>
    <hasc>FR.LC</hasc>
    <alt-name>NULL</alt-name>
    <woe-id>12597147</woe-id>
    <subregion>NULL</subregion>
    <fips>FRA3</fips>
    <name>Loir-et-Cher</name>
    <type>Metropolitan department</type>
    <region>Centre</region>
    <longitude>1.59234</longitude>
    <woe-name>Loir-et-Cher</woe-name>
    <latitude>47.5484</latitude>
    <woe-label>NULL</woe-label>
    <hc-middle-x>0.53</hc-middle-x>
    <hc-middle-y>0.54</hc-middle-y>
    <hc-key>fr-f-lc</hc-key>
    <hc-a2>LC</hc-a2>
  </desc>
</path>

<path fill="#CEE3F5" stroke="#6E6E6E" stroke-width="0.4" id="FR.F.CH" d="M380.2,683.0 L383.5,675.2 L390.1,667.9 L390.7,661.1 L387.5,651.8 L384.2,648.5 L384.2,645.4 L388.6,636.9 L389.8,628.7 L387.0,621.9 L382.0,617.9 L382.4,609.6 L378.4,605.8 L370.6,604.2 L368.6,602.6 L367.9,597.5 L369.4,595.0 L375.7,590.0 L375.9,583.9 L369.9,578.8 L370.1,569.9 L373.7,561.8 L379.8,555.5 L378.6,549.9 L372.3,545.9 L370.6,542.0 L373.4,530.7 L373.4,526.5 L370.1,520.1 L365.5,515.6 L364.1,511.4 L365.8,506.1 L366.1,500.3 L363.7,495.8 L359.9,493.9 L350.4,492.7 L346.5,493.5 L339.1,497.2 L335.4,497.9 L318.7,492.7 L315.0,490.3 L324.6,480.6 L327.3,474.2 L327.3,466.5 L333.5,468.4 L336.8,467.8 L340.4,464.2 L341.3,455.4 L348.0,449.1 L357.3,453.1 L366.5,454.5 L375.7,453.4 L382.8,449.1 L384.6,443.1 L379.6,429.2 L378.8,420.5 L381.0,414.0 L385.7,411.0 L397.4,415.4 L402.6,415.5 L405.2,407.9 L404.3,399.8 L398.7,390.8 L394.6,380.2 L391.6,378.0 L383.9,378.0 L381.6,375.3 L382.5,367.5 L388.1,363.3 L402.1,358.7 L412.2,358.5 L421.7,364.8 L426.4,365.9 L435.9,362.4 L439.1,362.9 L447.7,371.1 L452.0,372.5 L461.9,372.2 L465.2,374.7 L472.8,387.1 L479.2,394.2 L482.4,396.1 L487.0,395.7 L492.4,385.3 L496.2,385.7 L504.1,392.8 L508.0,392.5 L514.5,388.0 L518.3,386.6 L521.6,392.1 L524.3,399.2 L528.5,404.9 L527.4,415.9 L524.5,423.6 L520.1,430.6 L518.3,436.2 L521.5,442.0 L526.4,444.8 L531.1,451.1 L536.1,455.2 L537.6,459.3 L539.4,469.0 L543.7,480.3 L547.4,494.4 L547.0,504.9 L548.0,508.8 L553.9,515.1 L555.2,534.4 L551.3,550.9 L554.8,562.5 L547.6,578.2 L546.8,584.0 L536.8,583.3 L528.5,586.0 L516.6,593.8 L511.1,601.5 L505.1,600.2 L499.0,604.9 L492.7,602.2 L489.6,599.2 L485.5,603.8 L476.7,611.1 L472.0,611.3 L470.4,618.8 L464.3,618.8 L462.4,620.3 L465.1,626.2 L464.0,635.0 L469.9,644.7 L469.1,649.1 L453.5,653.7 L444.7,654.2 L439.4,655.7 L429.2,656.3 L418.0,662.0 L413.3,668.4 L408.9,670.6 L401.7,683.7 L383.2,682.4 Z">
  <desc xmlns="http://www.highcharts.com/svg/namespace">
    <labelrank>3</labelrank>
    <hasc>FR.CH</hasc>
    <alt-name>NULL</alt-name>
    <woe-id>12597136</woe-id>
    <subregion>NULL</subregion>
    <fips>FRA3</fips>
    <name>Cher</name>
    <type>Metropolitan department</type>
    <region>Centre</region>
    <longitude>2.51907</longitude>
    <woe-name>Cher</woe-name>
    <latitude>47.1356</latitude>
    <woe-label>NULL</woe-label>
    <hc-middle-x>0.59</hc-middle-x>
    <hc-middle-y>0.47</hc-middle-y>
    <hc-key>fr-f-ch</hc-key>
    <hc-a2>CH</hc-a2>
  </desc>
</path>

<path fill="#CEE3F5" stroke="#6E6E6E" stroke-width="0.4" id="FR.F.LT" d="M402.1,358.7 L399.4,347.3 L389.9,343.4 L353.1,346.5 L347.7,345.6 L338.3,338.5 L333.2,336.5 L330.0,339.0 L329.2,344.8 L325.5,351.6 L319.8,352.2 L314.0,348.5 L309.8,342.5 L307.2,329.3 L305.1,327.0 L297.9,323.7 L291.2,318.5 L288.9,324.2 L285.6,326.2 L276.4,316.8 L280.6,309.4 L274.1,301.3 L277.2,296.5 L282.6,290.9 L282.8,280.6 L275.2,274.4 L276.1,271.3 L280.1,266.6 L281.1,263.7 L278.2,258.0 L272.4,258.2 L271.9,249.4 L275.9,243.4 L278.7,242.9 L284.3,245.7 L287.1,245.0 L292.9,237.2 L295.9,235.1 L300.9,234.7 L310.8,236.9 L321.7,232.3 L325.4,231.7 L329.9,233.1 L333.6,232.0 L340.1,224.2 L345.5,210.5 L353.7,207.3 L356.1,201.4 L354.4,192.2 L354.8,186.8 L358.6,180.8 L384.8,175.1 L391.0,172.3 L395.2,165.6 L398.3,164.4 L402.4,167.9 L403.7,171.5 L406.9,173.5 L411.6,172.2 L415.9,167.8 L417.8,167.6 L425.8,172.4 L432.9,171.4 L436.5,177.4 L439.5,188.9 L449.6,195.8 L453.3,200.7 L450.8,207.6 L452.4,212.6 L450.3,215.2 L444.1,214.2 L441.8,216.9 L441.7,220.2 L444.7,222.9 L450.0,223.6 L459.4,221.4 L484.2,223.6 L490.3,220.5 L495.2,215.0 L502.9,213.6 L505.6,215.9 L504.2,220.8 L509.6,221.3 L527.8,214.7 L533.4,215.1 L542.7,218.5 L546.1,223.0 L549.4,236.2 L552.4,240.4 L558.0,245.0 L561.6,249.9 L562.7,256.6 L558.3,268.4 L556.7,270.7 L549.4,275.8 L545.1,280.9 L541.1,281.3 L539.8,284.0 L540.6,290.7 L543.5,298.2 L541.1,303.1 L541.3,310.7 L538.1,314.3 L532.2,316.6 L526.3,320.4 L515.8,321.3 L511.1,324.7 L510.4,329.9 L511.5,333.7 L516.9,335.8 L525.7,344.1 L529.2,351.9 L527.5,357.8 L528.6,362.6 L534.0,369.6 L535.6,373.9 L531.8,375.2 L524.7,375.3 L515.4,380.2 L514.9,382.3 L518.3,386.6 L514.5,388.0 L508.0,392.5 L504.1,392.8 L496.2,385.7 L492.4,385.3 L487.0,395.7 L482.4,396.1 L479.2,394.2 L472.8,387.1 L465.2,374.7 L461.9,372.2 L452.0,372.5 L447.7,371.1 L439.1,362.9 L435.9,362.4 L426.4,365.9 L421.7,364.8 L412.2,358.5 Z">
  <desc xmlns="http://www.highcharts.com/svg/namespace">
    <labelrank>3</labelrank>
    <hasc>FR.LT</hasc>
    <alt-name>NULL</alt-name>
    <woe-id>12597141</woe-id>
    <subregion>NULL</subregion>
    <fips>FRA3</fips>
    <name>Loiret</name>
    <type>Metropolitan department</type>
    <region>Centre</region>
    <longitude>2.19238</longitude>
    <woe-name>Loiret</woe-name>
    <latitude>47.9007</latitude>
    <woe-label>NULL</woe-label>
    <hc-middle-x>0.58</hc-middle-x>
    <hc-middle-y>0.50</hc-middle-y>
    <hc-key>fr-f-lt</hc-key>
    <hc-a2>LT</hc-a2>
  </desc>
</path>
</g>

<text x="350" y="714" text-anchor="middle" font-family="Verdana" font-size="8" stroke-opacity="0.6">Copyright (c) 2023 Highsoft AS, Based on data from Natural Earth</text>

</svg>