<?xml version="1.0" encoding="utf-8" standalone="no"?>
<!DOCTYPE svg PUBLIC "-//W3C//DTD SVG 1.1//EN" "http://www.w3.org/Graphics/SVG/1.1/DTD/svg11.dtd">

<svg version="1.1" height="700pt" width="700pt" xmlns="http://www.w3.org/2000/svg" xmlns:xlink="http://www.w3.org/1999/xlink">
<desc>
Map version: 2.1.0
Copyright (c) 2023 Highsoft AS, Based on data from Natural Earth
</desc>
<title>Franche-Comté (2015)</title>
<g id="admin2">

<g id="FR">
  <desc xmlns="http://www.highcharts.com/svg/namespace">
    <name>France</name>
    <labelrank>2</labelrank>
    <country-abbrev>Fr.</country-abbrev>
    <subregion>Western Europe</subregion>
    <region-wb>Europe &amp; Central Asia</region-wb>
    <iso-a3>FRA</iso-a3>
    <iso-a2>FR</iso-a2>
    <woe-id>-90</woe-id>
    <continent>Europe</continent>
    <hc-key>fr</hc-key>
    <hc-a2>FR</hc-a2>
  </desc>
</g>

<g id="FR.I">
  <desc xmlns="http://www.highcharts.com/svg/namespace">
    <name>Franche-Comté</name>
    <hc-key>fr-i</hc-key>
    <hc-a2>FC</hc-a2>
  </desc>
</g>

<path fill="#CEE3F5" stroke="#6E6E6E" stroke-width="0.4" id="FR.I.HN" d="M80.5,283.9 L75.8,276.3 L75.0,267.7 L75.3,256.4 L74.4,250.5 L66.9,243.8 L65.0,240.3 L64.1,225.0 L60.9,219.6 L53.5,217.0 L52.3,214.8 L55.0,203.1 L56.8,200.8 L67.7,197.8 L70.8,193.0 L77.0,186.0 L78.2,180.0 L77.2,174.0 L73.1,166.0 L74.4,158.5 L69.9,151.0 L64.4,150.0 L55.3,158.3 L46.2,153.5 L55.9,133.4 L59.9,128.5 L72.6,126.6 L77.3,124.8 L82.1,125.2 L96.3,134.6 L104.9,135.9 L131.5,127.9 L136.7,123.1 L137.8,118.1 L137.4,106.8 L140.4,94.5 L138.1,83.1 L142.8,74.8 L172.2,55.6 L175.6,52.6 L183.6,40.9 L192.3,38.0 L194.0,34.0 L192.6,28.5 L197.9,26.9 L202.1,22.7 L207.1,13.4 L210.5,10.2 L213.5,12.2 L213.9,17.2 L212.6,22.3 L214.2,26.0 L217.3,25.0 L222.7,20.1 L231.9,13.9 L237.1,6.7 L242.3,1.5 L250.1,0.0 L262.8,3.3 L268.1,7.4 L272.1,13.7 L271.7,21.2 L275.3,25.4 L280.0,27.1 L288.1,32.3 L294.8,32.7 L298.7,31.6 L304.7,27.2 L309.6,25.7 L323.5,25.1 L333.8,29.8 L356.8,45.8 L362.1,47.5 L371.4,47.7 L378.0,45.1 L382.3,40.6 L386.5,33.5 L388.5,32.0 L394.8,34.7 L404.8,48.2 L410.4,53.4 L422.2,59.3 L427.7,65.0 L447.5,81.0 L433.0,98.5 L427.4,109.3 L425.4,121.4 L425.8,125.0 L432.1,149.0 L431.9,166.3 L432.4,169.5 L437.8,180.9 L436.6,186.3 L428.9,194.2 L408.3,187.6 L398.1,190.5 L391.4,196.0 L386.2,196.8 L378.6,194.5 L375.2,198.0 L370.0,209.6 L366.5,213.5 L352.2,205.0 L346.8,210.1 L342.8,209.0 L336.0,201.9 L331.5,201.3 L307.5,205.0 L303.0,207.0 L299.2,210.5 L289.9,231.5 L285.5,235.8 L281.9,236.1 L274.3,234.0 L269.3,234.9 L265.5,239.1 L262.6,246.1 L256.1,249.3 L247.2,248.4 L244.9,250.2 L237.6,259.9 L233.4,263.4 L211.9,270.3 L206.1,270.2 L195.9,266.7 L192.7,266.9 L137.8,296.4 L128.8,295.8 L124.6,293.2 L119.9,293.2 L105.9,296.7 L97.3,294.9 L85.7,286.6 L82.6,282.8 Z">
  <desc xmlns="http://www.highcharts.com/svg/namespace">
    <labelrank>3</labelrank>
    <hasc>FR.HN</hasc>
    <alt-name>Franco-Condado</alt-name>
    <woe-id>12597119</woe-id>
    <subregion>NULL</subregion>
    <fips>FRA6</fips>
    <name>Haute-Saône</name>
    <type>Metropolitan department</type>
    <region>Franche-Comté</region>
    <longitude>6.16722</longitude>
    <woe-name>Haute-Saône</woe-name>
    <latitude>47.6973</latitude>
    <woe-label>NULL</woe-label>
    <hc-middle-x>0.44</hc-middle-x>
    <hc-middle-y>0.50</hc-middle-y>
    <hc-key>fr-i-hn</hc-key>
    <hc-a2>HN</hc-a2>
  </desc>
</path>

<path fill="#CEE3F5" stroke="#6E6E6E" stroke-width="0.4" id="FR.I.DB" d="M471.3,242.2 L467.7,242.9 L467.0,250.5 L459.9,254.5 L455.7,259.6 L452.1,265.9 L450.6,271.0 L483.3,268.6 L488.4,266.3 L496.4,273.6 L499.2,277.8 L497.0,282.2 L488.6,286.1 L484.5,291.4 L480.5,292.2 L475.2,297.3 L473.2,305.6 L474.0,315.6 L455.0,328.8 L446.8,336.8 L441.3,345.3 L422.8,361.5 L414.5,364.1 L414.6,371.0 L409.5,373.7 L408.4,376.2 L401.4,378.5 L394.9,387.3 L398.0,394.8 L391.4,403.8 L372.5,417.2 L342.5,425.6 L328.9,433.0 L324.3,447.0 L328.8,457.8 L328.9,467.9 L325.2,475.1 L320.4,488.1 L320.6,492.3 L324.0,496.7 L323.9,503.5 L322.7,506.8 L316.5,512.7 L307.1,517.3 L296.7,527.5 L276.4,537.8 L237.8,570.7 L233.9,575.4 L234.6,580.8 L239.0,586.1 L233.0,583.3 L224.6,576.5 L217.9,568.3 L216.4,561.5 L220.3,555.5 L228.6,548.9 L228.6,544.0 L225.0,534.9 L227.5,529.5 L257.1,508.1 L261.1,502.5 L227.7,468.8 L224.6,467.1 L218.0,466.8 L212.1,463.6 L206.0,453.6 L204.0,448.2 L203.7,432.0 L202.3,426.4 L196.6,415.3 L193.3,411.7 L183.9,406.4 L162.6,400.7 L153.8,391.3 L150.2,392.2 L145.3,397.2 L141.1,397.4 L138.2,393.2 L139.7,387.1 L144.5,382.7 L147.3,377.3 L146.7,370.1 L147.6,366.6 L153.8,360.1 L158.5,350.1 L158.3,343.0 L150.3,327.1 L135.2,315.1 L133.7,312.0 L131.0,300.5 L128.8,295.8 L137.8,296.4 L192.7,266.9 L195.9,266.7 L206.1,270.2 L211.9,270.3 L233.4,263.4 L237.6,259.9 L244.9,250.2 L247.2,248.4 L256.1,249.3 L262.6,246.1 L265.5,239.1 L269.3,234.9 L274.3,234.0 L281.9,236.1 L285.5,235.8 L289.9,231.5 L299.2,210.5 L303.0,207.0 L307.5,205.0 L331.5,201.3 L336.0,201.9 L342.8,209.0 L346.8,210.1 L352.2,205.0 L366.5,213.5 L370.0,209.6 L375.2,198.0 L378.6,194.5 L386.2,196.8 L391.4,196.0 L398.1,190.5 L408.3,187.6 L428.9,194.2 L436.6,186.3 L441.3,192.6 L447.4,192.7 L454.0,190.9 L460.2,191.4 L464.1,194.4 L466.9,198.7 L468.0,204.0 L465.0,213.8 L465.1,217.7 L469.9,233.4 Z">
  <desc xmlns="http://www.highcharts.com/svg/namespace">
    <labelrank>3</labelrank>
    <hasc>FR.DB</hasc>
    <alt-name>Franco-Condado</alt-name>
    <woe-id>12597116</woe-id>
    <subregion>NULL</subregion>
    <fips>FRA6</fips>
    <name>Doubs</name>
    <type>Metropolitan department</type>
    <region>Franche-Comté</region>
    <longitude>6.31895</longitude>
    <woe-name>Doubs</woe-name>
    <latitude>47.1584</latitude>
    <woe-label>NULL</woe-label>
    <hc-middle-x>0.53</hc-middle-x>
    <hc-middle-y>0.34</hc-middle-y>
    <hc-key>fr-i-db</hc-key>
    <hc-a2>DB</hc-a2>
  </desc>
</path>

<path fill="#CEE3F5" stroke="#6E6E6E" stroke-width="0.4" id="FR.I.TB" d="M471.3,242.2 L469.9,233.4 L465.1,217.7 L465.0,213.8 L468.0,204.0 L466.9,198.7 L464.1,194.4 L460.2,191.4 L454.0,190.9 L447.4,192.7 L441.3,192.6 L436.6,186.3 L437.8,180.9 L432.4,169.5 L431.9,166.3 L432.1,149.0 L425.8,125.0 L425.4,121.4 L427.4,109.3 L433.0,98.5 L447.5,81.0 L449.0,82.3 L456.4,83.4 L456.5,90.1 L459.8,94.8 L497.6,118.1 L504.6,126.4 L505.9,131.5 L506.6,140.8 L504.8,151.7 L502.0,157.1 L497.2,163.4 L496.2,170.5 L499.9,174.6 L505.1,174.5 L511.4,176.9 L525.9,193.9 L529.7,201.2 L529.9,210.9 L527.5,219.0 L523.4,216.8 L517.0,215.3 L503.3,217.4 L496.3,216.1 L491.4,213.5 L481.3,217.3 L481.8,221.8 L484.5,227.5 L485.7,232.3 L483.6,235.7 L474.9,241.5 Z">
  <desc xmlns="http://www.highcharts.com/svg/namespace">
    <labelrank>3</labelrank>
    <hasc>FR.TB</hasc>
    <alt-name>Franco-Condado</alt-name>
    <woe-id>12597154</woe-id>
    <subregion>NULL</subregion>
    <fips>FRA6</fips>
    <name>Territoire de Belfort</name>
    <type>Metropolitan department</type>
    <region>Franche-Comté</region>
    <longitude>6.93675</longitude>
    <woe-name>Belfort</woe-name>
    <latitude>47.6568</latitude>
    <woe-label>NULL</woe-label>
    <hc-middle-x>0.44</hc-middle-x>
    <hc-middle-y>0.47</hc-middle-y>
    <hc-key>fr-i-tb</hc-key>
    <hc-a2>TB</hc-a2>
  </desc>
</path>

<path fill="#CEE3F5" stroke="#6E6E6E" stroke-width="0.4" id="FR.I.JU" d="M128.8,295.8 L131.0,300.5 L133.7,312.0 L135.2,315.1 L150.3,327.1 L158.3,343.0 L158.5,350.1 L153.8,360.1 L147.6,366.6 L146.7,370.1 L147.3,377.3 L144.5,382.7 L139.7,387.1 L138.2,393.2 L141.1,397.4 L145.3,397.2 L150.2,392.2 L153.8,391.3 L162.6,400.7 L183.9,406.4 L193.3,411.7 L196.6,415.3 L202.3,426.4 L203.7,432.0 L204.0,448.2 L206.0,453.6 L212.1,463.6 L218.0,466.8 L224.6,467.1 L227.7,468.8 L261.1,502.5 L257.1,508.1 L227.5,529.5 L225.0,534.9 L228.6,544.0 L228.6,548.9 L220.3,555.5 L216.4,561.5 L217.9,568.3 L224.6,576.5 L233.0,583.3 L239.0,586.1 L241.1,588.5 L230.8,600.6 L220.4,616.9 L217.1,620.2 L215.9,624.7 L217.0,628.3 L216.9,638.0 L214.9,641.8 L202.8,654.0 L198.5,660.4 L188.6,670.2 L183.6,678.7 L178.5,682.6 L173.0,689.0 L162.9,697.2 L157.5,699.3 L151.2,700.0 L120.8,697.2 L116.4,694.4 L114.9,684.5 L112.3,680.3 L98.9,666.9 L93.4,670.8 L85.1,679.6 L83.5,684.0 L75.7,686.3 L72.3,690.8 L64.0,694.7 L58.8,698.8 L51.3,696.3 L47.9,691.8 L47.8,687.9 L49.8,678.7 L48.5,674.3 L40.3,672.0 L37.0,666.3 L27.4,662.6 L23.0,656.9 L20.4,644.2 L15.3,639.4 L8.6,636.8 L6.3,632.1 L6.8,617.8 L12.9,614.7 L33.0,611.0 L37.9,607.7 L39.2,601.6 L34.6,595.8 L27.2,591.5 L24.5,588.7 L22.5,581.6 L23.7,572.7 L27.2,567.8 L34.6,564.2 L37.2,559.4 L38.4,553.2 L41.3,548.1 L41.9,543.2 L41.2,535.8 L36.6,514.0 L35.1,509.1 L30.1,504.5 L29.6,498.5 L33.1,493.6 L33.0,488.6 L25.4,481.3 L24.0,478.7 L26.1,472.9 L31.8,470.5 L48.8,468.9 L51.3,467.4 L55.3,460.0 L55.2,457.8 L45.7,453.8 L38.2,446.1 L30.9,444.3 L20.6,437.3 L6.1,420.0 L0.0,404.8 L5.1,401.1 L14.3,396.7 L17.3,392.6 L15.1,380.3 L17.1,375.3 L25.5,371.7 L29.1,369.2 L38.5,366.0 L44.8,359.4 L68.9,323.0 L71.3,318.5 L72.9,307.7 L80.5,283.9 L82.6,282.8 L85.7,286.6 L97.3,294.9 L105.9,296.7 L119.9,293.2 L124.6,293.2 Z">
  <desc xmlns="http://www.highcharts.com/svg/namespace">
    <labelrank>3</labelrank>
    <hasc>FR.JU</hasc>
    <alt-name>Franco-Condado</alt-name>
    <woe-id>12597120</woe-id>
    <subregion>NULL</subregion>
    <fips>FRA6</fips>
    <name>Jura</name>
    <type>Metropolitan department</type>
    <region>Franche-Comté</region>
    <longitude>5.72845</longitude>
    <woe-name>Jura Mountains</woe-name>
    <latitude>46.732</latitude>
    <woe-label>NULL</woe-label>
    <hc-middle-x>0.47</hc-middle-x>
    <hc-middle-y>0.52</hc-middle-y>
    <hc-key>fr-i-ju</hc-key>
    <hc-a2>JU</hc-a2>
  </desc>
</path>
</g>

<text x="350" y="714" text-anchor="middle" font-family="Verdana" font-size="8" stroke-opacity="0.6">Copyright (c) 2023 Highsoft AS, Based on data from Natural Earth</text>

</svg>