<?xml version="1.0" encoding="utf-8" standalone="no"?>
<!DOCTYPE svg PUBLIC "-//W3C//DTD SVG 1.1//EN" "http://www.w3.org/Graphics/SVG/1.1/DTD/svg11.dtd">

<svg version="1.1" height="700pt" width="700pt" xmlns="http://www.w3.org/2000/svg" xmlns:xlink="http://www.w3.org/1999/xlink">
<desc>
Map version: 1.1.3
Copyright (c) 2020 Highsoft AS, Based on data from Natural Earth
</desc>
<title>Martinique (2015)</title>
<g id="admin2">

<g id="FR.MQ">
  <desc xmlns="http://www.highcharts.com/svg/namespace">
    <name>Martinique</name>
    <hc-key>fr-mq</hc-key>
    <hc-a2>MA</hc-a2>
  </desc>
</g>

<g id="FR">
  <desc xmlns="http://www.highcharts.com/svg/namespace">
    <name>France</name>
    <labelrank>2</labelrank>
    <country-abbrev>Fr.</country-abbrev>
    <subregion>Western Europe</subregion>
    <region-wb>Europe &amp; Central Asia</region-wb>
    <iso-a3>FRA</iso-a3>
    <iso-a2>FR</iso-a2>
    <woe-id>-90</woe-id>
    <continent>Europe</continent>
    <hc-key>fr</hc-key>
    <hc-a2>FR</hc-a2>
  </desc>
</g>

<path fill="#CEE3F5" stroke="#6E6E6E" stroke-width="0.4" id="FR.MQ.MQ" d="M365.2,136.3 L391.5,188.3 L412.4,170.9 L441.9,156.0 L476.0,146.8 L510.8,146.1 L500.7,154.7 L491.8,160.6 L487.6,166.6 L491.1,176.2 L460.5,208.1 L442.7,179.4 L431.6,187.4 L427.7,216.0 L431.1,249.4 L443.3,243.7 L453.9,244.3 L463.1,249.7 L471.0,258.3 L431.4,280.2 L442.4,291.1 L424.7,300.4 L427.4,313.3 L440.0,317.5 L452.4,300.4 L501.5,321.4 L490.5,322.6 L484.8,325.4 L479.9,328.6 L471.7,331.9 L481.0,354.6 L492.3,366.1 L522.0,382.7 L526.4,390.4 L528.6,400.6 L534.1,409.4 L548.2,413.2 L558.6,417.6 L563.7,428.8 L564.8,442.5 L563.6,454.9 L582.6,443.6 L577.3,463.1 L576.7,482.2 L581.8,500.1 L594.0,516.1 L585.1,520.9 L581.5,525.0 L579.1,529.8 L574.3,536.8 L593.6,545.9 L601.7,566.4 L606.6,590.0 L615.9,608.2 L616.0,618.3 L598.2,626.4 L580.8,670.3 L565.8,690.6 L549.4,697.9 L528.7,700.0 L511.3,692.4 L504.8,670.7 L513.4,655.3 L529.9,649.9 L543.9,641.9 L545.1,619.0 L530.8,598.1 L510.9,606.5 L487.8,621.2 L464.3,619.7 L465.3,604.5 L455.5,602.7 L415.3,610.1 L329.9,599.5 L307.0,603.1 L270.9,618.1 L249.3,621.6 L237.0,614.7 L204.4,569.8 L205.0,558.6 L203.1,552.5 L196.6,547.7 L183.3,540.2 L222.9,497.9 L261.1,478.8 L273.4,466.8 L289.0,489.4 L311.8,496.0 L332.8,488.1 L343.3,466.2 L338.2,456.7 L327.0,441.1 L316.1,420.2 L312.7,394.8 L291.0,402.4 L273.2,406.1 L257.6,406.8 L242.0,405.7 L211.3,407.9 L203.0,406.0 L196.7,399.6 L187.3,381.7 L181.9,375.4 L129.5,340.4 L103.0,315.3 L91.4,288.7 L90.3,279.2 L87.1,271.2 L82.1,264.0 L75.8,257.1 L70.2,246.4 L72.5,236.4 L77.3,226.7 L80.0,216.5 L76.4,198.5 L67.7,181.3 L56.6,166.5 L14.5,123.2 L4.0,104.8 L0.0,83.5 L3.7,63.2 L13.4,46.6 L26.2,34.6 L83.8,1.2 L135.0,0.0 L184.6,15.6 L249.3,56.4 L306.8,81.3 L330.8,96.6 L336.9,107.4 L340.7,120.6 L348.1,131.7 Z">
  <desc xmlns="http://www.highcharts.com/svg/namespace">
    <labelrank>4</labelrank>
    <hasc>FR.MQ</hasc>
    <alt-name>NULL</alt-name>
    <woe-id>23424884</woe-id>
    <subregion>NULL</subregion>
    <fips>NULL</fips>
    <name>Martinique</name>
    <type>Overseas department</type>
    <region>Martinique</region>
    <longitude>-61.064</longitude>
    <woe-name>Martinique</woe-name>
    <latitude>14.7245</latitude>
    <woe-label>NULL</woe-label>
    <hc-middle-x>0.44</hc-middle-x>
    <hc-middle-y>0.36</hc-middle-y>
    <hc-key>fr-mq-mq</hc-key>
    <hc-a2>MQ</hc-a2>
  </desc>
</path>
</g>

<text x="350" y="714" text-anchor="middle" font-family="Verdana" font-size="8" stroke-opacity="0.6">Copyright (c) 2020 Highsoft AS, Based on data from Natural Earth</text>

</svg>