<?xml version="1.0" encoding="utf-8" standalone="no"?>
<!DOCTYPE svg PUBLIC "-//W3C//DTD SVG 1.1//EN" "http://www.w3.org/Graphics/SVG/1.1/DTD/svg11.dtd">

<svg version="1.1" height="700pt" width="700pt" xmlns="http://www.w3.org/2000/svg" xmlns:xlink="http://www.w3.org/1999/xlink">
<desc>
Map version: 2.1.0
Copyright (c) 2023 Highsoft AS, Based on data from Natural Earth
</desc>
<title>Midi-Pyrénées (2015)</title>
<g id="admin2">

<g id="FR.N">
  <desc xmlns="http://www.highcharts.com/svg/namespace">
    <name>Midi-Pyrénées</name>
    <hc-key>fr-n</hc-key>
    <hc-a2>MP</hc-a2>
  </desc>
</g>

<g id="FR">
  <desc xmlns="http://www.highcharts.com/svg/namespace">
    <name>France</name>
    <labelrank>2</labelrank>
    <country-abbrev>Fr.</country-abbrev>
    <subregion>Western Europe</subregion>
    <region-wb>Europe &amp; Central Asia</region-wb>
    <iso-a3>FRA</iso-a3>
    <iso-a2>FR</iso-a2>
    <woe-id>-90</woe-id>
    <continent>Europe</continent>
    <hc-key>fr</hc-key>
    <hc-a2>FR</hc-a2>
  </desc>
</g>

<path fill="#CEE3F5" stroke="#6E6E6E" stroke-width="0.4" id="FR.N.HP" d="M46.8,427.2 L43.4,426.3 L41.8,421.8 L42.6,416.5 L45.1,412.7 L49.4,413.1 L51.5,417.4 L49.3,425.0 Z M42.2,447.4 L37.3,444.6 L37.1,437.6 L41.6,432.8 L45.9,435.5 L47.5,441.4 L44.1,446.7 Z M144.5,592.3 L137.3,594.0 L129.9,593.2 L128.6,589.4 L123.6,584.8 L120.1,585.9 L111.2,596.4 L108.5,596.7 L101.9,586.0 L89.1,581.4 L82.4,584.1 L70.9,585.4 L56.3,590.2 L49.8,590.6 L42.5,587.4 L39.4,583.7 L35.1,582.0 L34.5,578.5 L30.4,574.4 L27.3,566.2 L27.9,561.8 L19.0,564.4 L14.1,563.6 L12.0,558.8 L1.4,551.8 L0.0,540.8 L0.1,533.9 L6.4,524.0 L6.8,517.7 L5.8,512.1 L7.5,508.2 L13.0,502.6 L16.0,501.1 L23.3,500.9 L25.9,497.9 L24.8,493.0 L25.2,486.4 L28.0,482.6 L35.3,478.4 L39.4,469.9 L44.2,468.9 L46.5,466.7 L49.5,456.9 L55.6,451.0 L57.3,446.5 L55.6,440.5 L57.6,432.1 L60.1,429.2 L65.0,427.7 L67.3,425.1 L64.5,413.5 L65.4,404.0 L64.3,401.1 L61.0,401.7 L57.4,405.7 L54.7,403.9 L54.3,398.9 L56.0,395.8 L61.1,394.5 L60.1,389.3 L55.9,378.3 L50.2,372.2 L48.5,367.2 L44.9,364.5 L48.9,360.4 L53.8,357.2 L59.1,355.6 L64.4,356.6 L65.9,366.0 L69.3,375.4 L72.3,376.0 L81.5,382.2 L87.3,383.8 L88.8,390.9 L91.7,396.2 L89.8,403.1 L90.3,407.4 L93.8,409.9 L99.5,418.0 L105.2,419.2 L117.5,416.5 L121.9,418.3 L124.3,422.5 L128.0,425.0 L134.9,421.4 L138.7,428.6 L141.2,429.5 L149.7,429.0 L175.1,435.8 L176.5,440.8 L174.4,444.1 L167.3,450.4 L167.5,458.2 L165.9,460.3 L160.7,461.8 L155.2,468.7 L143.1,480.5 L165.2,495.7 L164.0,499.6 L158.5,510.1 L158.8,513.3 L166.9,508.7 L172.9,506.6 L176.0,514.4 L179.6,525.8 L167.2,543.3 L161.3,548.0 L151.5,546.4 L147.7,547.1 L145.2,551.8 L143.8,557.8 L142.9,573.3 L144.8,588.6 Z">
  <desc xmlns="http://www.highcharts.com/svg/namespace">
    <labelrank>3</labelrank>
    <hasc>FR.HP</hasc>
    <alt-name>NULL</alt-name>
    <woe-id>12597169</woe-id>
    <subregion>NULL</subregion>
    <fips>FRB3</fips>
    <name>Hautes-Pyrénées</name>
    <type>Metropolitan department</type>
    <region>Midi-Pyrénées</region>
    <longitude>0.13923</longitude>
    <woe-name>Hautes-Pyrénées</woe-name>
    <latitude>43.0599</latitude>
    <woe-label>NULL</woe-label>
    <hc-middle-x>0.54</hc-middle-x>
    <hc-middle-y>0.60</hc-middle-y>
    <hc-key>fr-n-hp</hc-key>
    <hc-a2>HP</hc-a2>
  </desc>
</path>

<path fill="#CEE3F5" stroke="#6E6E6E" stroke-width="0.4" id="FR.N.AG" d="M377.8,451.5 L376.6,457.3 L378.9,464.2 L380.5,472.6 L390.8,480.7 L403.0,484.7 L410.3,489.1 L418.5,490.1 L423.6,495.5 L425.0,502.2 L421.8,506.7 L422.6,509.5 L426.2,512.2 L428.0,516.0 L430.5,525.9 L430.1,529.8 L423.8,532.2 L421.0,536.2 L426.1,540.2 L427.8,543.5 L429.0,550.5 L427.5,554.4 L418.6,557.9 L410.6,559.1 L406.5,566.2 L411.6,569.4 L415.4,574.6 L415.1,581.4 L423.1,587.0 L429.8,587.9 L441.7,584.8 L447.4,586.4 L453.0,594.4 L458.6,596.7 L461.9,600.3 L462.7,603.9 L459.9,607.3 L449.5,605.3 L432.1,607.1 L427.4,610.5 L424.0,615.7 L423.2,622.6 L419.3,628.3 L415.6,629.0 L407.0,626.3 L401.9,626.4 L386.1,628.9 L384.5,626.6 L377.2,623.2 L378.9,618.1 L357.6,615.6 L345.6,607.5 L337.2,609.7 L331.2,609.3 L328.2,619.2 L324.0,620.8 L321.4,617.2 L318.4,608.5 L311.7,597.4 L307.4,595.4 L308.3,591.8 L304.0,590.5 L280.9,590.0 L274.6,591.8 L269.4,589.1 L264.5,577.9 L261.3,574.9 L257.4,573.6 L241.5,572.1 L237.1,568.6 L233.6,568.6 L230.0,570.8 L223.5,565.6 L218.0,563.3 L214.1,545.1 L215.2,539.3 L221.2,534.9 L222.4,529.3 L224.7,526.4 L229.7,526.6 L237.7,524.7 L244.5,519.0 L245.7,514.0 L244.0,501.7 L244.2,495.9 L246.0,492.5 L253.8,488.9 L257.0,482.0 L259.0,480.3 L263.4,480.4 L269.5,477.8 L272.4,478.1 L282.6,484.9 L288.5,494.5 L291.7,495.0 L300.7,486.4 L297.6,482.0 L288.7,477.6 L288.0,474.5 L291.0,470.7 L295.0,469.6 L303.7,469.3 L312.1,466.1 L316.5,463.2 L318.3,459.4 L316.0,456.3 L306.1,451.9 L303.5,448.6 L304.4,442.0 L308.2,439.7 L313.0,440.4 L317.0,442.9 L325.4,451.9 L326.1,454.3 L324.7,460.8 L329.1,464.3 L333.9,464.2 L338.3,461.0 L341.1,455.2 L338.2,447.5 L339.7,444.2 L343.2,443.3 L350.4,449.9 L354.0,452.0 L358.9,451.3 L362.1,452.7 L364.4,456.8 L367.5,456.1 L372.8,449.4 Z">
  <desc xmlns="http://www.highcharts.com/svg/namespace">
    <labelrank>3</labelrank>
    <hasc>FR.AG</hasc>
    <alt-name>NULL</alt-name>
    <woe-id>12597197</woe-id>
    <subregion>NULL</subregion>
    <fips>FRB3</fips>
    <name>Ariège</name>
    <type>Metropolitan department</type>
    <region>Midi-Pyrénées</region>
    <longitude>1.53654</longitude>
    <woe-name>Ariège</woe-name>
    <latitude>42.9046</latitude>
    <woe-label>NULL</woe-label>
    <hc-middle-x>0.44</hc-middle-x>
    <hc-middle-y>0.52</hc-middle-y>
    <hc-key>fr-n-ag</hc-key>
    <hc-a2>AG</hc-a2>
  </desc>
</path>

<path fill="#CEE3F5" stroke="#6E6E6E" stroke-width="0.4" id="FR.N.TA" d="M606.2,345.1 L603.0,347.9 L600.4,352.7 L597.2,355.4 L576.9,364.2 L572.5,364.0 L564.5,359.7 L558.2,358.6 L552.2,360.3 L548.6,369.2 L548.9,379.2 L553.9,384.8 L555.6,388.6 L553.7,394.0 L555.8,401.9 L554.8,404.0 L545.4,411.6 L538.3,413.6 L518.7,411.6 L501.3,412.8 L485.6,409.6 L481.8,408.2 L477.9,409.2 L475.8,412.0 L476.2,418.2 L473.4,422.9 L470.2,422.6 L464.2,418.5 L450.0,420.6 L445.0,418.9 L439.3,412.8 L438.2,408.5 L439.9,401.1 L443.4,396.7 L438.6,391.0 L433.9,391.4 L430.4,396.6 L424.4,397.5 L419.4,392.6 L411.9,386.9 L404.1,375.5 L400.9,372.7 L395.3,370.9 L376.5,359.1 L379.7,354.3 L384.2,352.5 L382.4,345.9 L375.7,339.0 L369.4,320.6 L369.1,318.0 L363.2,315.7 L357.5,312.3 L357.5,306.0 L352.1,294.5 L353.5,285.8 L352.3,277.8 L355.1,274.3 L363.0,274.9 L365.0,273.8 L369.4,267.3 L376.9,261.6 L379.9,257.6 L380.3,252.4 L374.3,245.0 L371.9,240.7 L373.2,235.8 L378.2,233.9 L394.9,241.2 L399.5,234.9 L408.9,228.7 L417.2,229.1 L422.2,224.5 L429.8,225.0 L431.6,223.0 L433.8,228.4 L439.3,226.9 L455.9,217.6 L464.1,218.3 L473.0,224.2 L478.4,230.3 L485.8,230.9 L490.7,235.6 L498.7,237.7 L505.1,241.7 L507.6,244.7 L510.4,252.9 L519.5,255.2 L522.4,258.4 L530.6,272.0 L529.3,276.2 L530.8,282.5 L535.9,288.1 L538.6,301.1 L542.2,310.4 L547.3,318.4 L558.0,329.8 L564.3,334.4 L570.5,336.0 L576.3,334.4 L584.6,329.6 L600.5,334.0 L604.0,337.7 Z">
  <desc xmlns="http://www.highcharts.com/svg/namespace">
    <labelrank>3</labelrank>
    <hasc>FR.TA</hasc>
    <alt-name>NULL</alt-name>
    <woe-id>12597192</woe-id>
    <subregion>NULL</subregion>
    <fips>FRB3</fips>
    <name>Tarn</name>
    <type>Metropolitan department</type>
    <region>Midi-Pyrénées</region>
    <longitude>2.13731</longitude>
    <woe-name>Tarn</woe-name>
    <latitude>43.8024</latitude>
    <woe-label>NULL</woe-label>
    <hc-middle-x>0.43</hc-middle-x>
    <hc-middle-y>0.50</hc-middle-y>
    <hc-key>fr-n-ta</hc-key>
    <hc-a2>TA</hc-a2>
  </desc>
</path>

<path fill="#CEE3F5" stroke="#6E6E6E" stroke-width="0.4" id="FR.N.TG" d="M431.6,223.0 L429.8,225.0 L422.2,224.5 L417.2,229.1 L408.9,228.7 L399.5,234.9 L394.9,241.2 L378.2,233.9 L373.2,235.8 L371.9,240.7 L374.3,245.0 L380.3,252.4 L379.9,257.6 L376.9,261.6 L369.4,267.3 L365.0,273.8 L363.0,274.9 L355.1,274.3 L352.3,277.8 L353.5,285.8 L345.2,290.4 L340.3,288.4 L334.4,294.5 L329.8,295.4 L319.9,293.9 L306.2,302.0 L309.9,305.4 L316.8,309.7 L296.0,321.2 L291.4,321.3 L287.5,317.9 L281.3,310.4 L276.2,310.4 L270.0,313.0 L260.5,312.5 L242.3,316.7 L232.0,316.1 L234.1,309.2 L232.0,299.9 L231.5,290.2 L228.5,282.8 L215.3,281.7 L210.2,279.3 L207.8,275.7 L212.7,272.7 L222.8,260.1 L224.5,256.1 L222.8,249.4 L219.3,248.7 L209.2,254.4 L208.0,248.6 L205.3,244.7 L207.5,236.8 L210.0,233.7 L215.4,230.9 L217.1,226.0 L220.0,224.3 L228.1,226.8 L233.7,224.5 L233.2,220.8 L229.8,216.5 L236.2,211.6 L243.4,196.9 L243.8,191.9 L235.4,187.3 L233.4,183.2 L236.3,174.4 L236.4,169.4 L239.9,166.5 L245.2,170.0 L248.8,170.8 L263.7,169.9 L266.2,167.2 L272.8,164.1 L276.2,163.9 L277.9,166.2 L275.2,175.9 L275.5,179.6 L280.7,186.5 L293.4,193.9 L299.4,195.6 L305.8,192.7 L308.4,196.0 L304.8,203.2 L306.0,204.8 L315.4,208.1 L319.9,208.5 L333.3,201.4 L337.2,197.9 L340.1,192.8 L345.7,196.1 L349.8,202.7 L352.9,205.7 L356.8,205.6 L359.6,203.3 L357.4,193.8 L358.4,190.4 L361.6,189.2 L366.3,189.8 L369.2,195.9 L372.9,195.8 L378.6,189.0 L393.8,182.5 L408.2,182.1 L414.7,179.8 L412.7,182.4 L412.2,191.8 L416.4,194.4 L430.7,196.2 L429.1,202.8 L421.4,206.5 L419.1,212.2 L420.8,218.0 L431.0,221.6 Z">
  <desc xmlns="http://www.highcharts.com/svg/namespace">
    <labelrank>3</labelrank>
    <hasc>FR.TG</hasc>
    <alt-name>NULL</alt-name>
    <woe-id>12597168</woe-id>
    <subregion>NULL</subregion>
    <fips>FRB3</fips>
    <name>Tarn-et-Garonne</name>
    <type>Metropolitan department</type>
    <region>Midi-Pyrénées</region>
    <longitude>1.23277</longitude>
    <woe-name>Tarn-et-Garonne</woe-name>
    <latitude>44.0657</latitude>
    <woe-label>NULL</woe-label>
    <hc-middle-x>0.37</hc-middle-x>
    <hc-middle-y>0.53</hc-middle-y>
    <hc-key>fr-n-tg</hc-key>
    <hc-a2>TG</hc-a2>
  </desc>
</path>

<path fill="#CEE3F5" stroke="#6E6E6E" stroke-width="0.4" id="FR.N.AV" d="M474.3,108.9 L476.0,102.6 L491.6,97.3 L495.4,97.7 L499.9,101.6 L503.8,99.5 L513.7,100.0 L519.5,99.3 L524.6,95.8 L532.1,86.7 L534.6,82.1 L535.2,77.3 L537.7,71.4 L542.0,65.7 L545.0,55.5 L569.0,30.1 L571.4,31.2 L577.3,40.8 L577.3,47.3 L579.0,48.8 L585.9,47.5 L594.2,58.5 L597.5,66.6 L605.0,70.1 L604.9,72.5 L601.4,75.5 L602.8,78.6 L604.8,92.2 L608.5,98.7 L614.6,104.0 L630.2,124.3 L633.5,131.2 L632.9,139.1 L635.8,147.5 L642.8,156.3 L643.8,160.6 L642.8,168.4 L641.0,173.3 L642.0,182.4 L644.7,186.9 L644.7,190.5 L640.7,200.6 L645.1,201.7 L655.4,207.7 L658.9,210.7 L660.8,217.9 L663.7,218.9 L677.1,217.5 L682.2,218.1 L685.7,220.9 L687.0,224.5 L680.6,229.3 L677.9,233.5 L677.8,238.7 L675.9,242.3 L670.6,245.4 L674.2,249.8 L679.0,249.0 L684.0,253.3 L690.4,254.5 L697.4,260.2 L700.0,263.5 L699.2,267.1 L690.1,276.8 L683.6,282.8 L680.9,291.6 L677.2,294.9 L668.5,295.8 L661.8,301.8 L660.8,308.2 L656.7,313.4 L653.0,314.7 L641.8,313.9 L634.4,312.3 L630.6,312.8 L627.9,315.5 L627.3,321.9 L629.5,326.7 L628.1,333.4 L627.6,343.1 L624.5,345.8 L616.4,343.3 L606.2,345.1 L604.0,337.7 L600.5,334.0 L584.6,329.6 L576.3,334.4 L570.5,336.0 L564.3,334.4 L558.0,329.8 L547.3,318.4 L542.2,310.4 L538.6,301.1 L535.9,288.1 L530.8,282.5 L529.3,276.2 L530.6,272.0 L522.4,258.4 L519.5,255.2 L510.4,252.9 L507.6,244.7 L505.1,241.7 L498.7,237.7 L490.7,235.6 L485.8,230.9 L478.4,230.3 L473.0,224.2 L464.1,218.3 L455.9,217.6 L439.3,226.9 L433.8,228.4 L431.6,223.0 L431.0,221.6 L420.8,218.0 L419.1,212.2 L421.4,206.5 L429.1,202.8 L430.7,196.2 L416.4,194.4 L412.2,191.8 L412.7,182.4 L414.7,179.8 L418.5,177.3 L418.5,174.3 L413.8,167.4 L411.2,161.6 L406.5,142.1 L423.8,134.1 L434.7,125.4 L441.8,121.9 L448.4,117.7 L462.6,119.1 L469.6,117.2 L474.0,114.7 Z">
  <desc xmlns="http://www.highcharts.com/svg/namespace">
    <labelrank>3</labelrank>
    <hasc>FR.AV</hasc>
    <alt-name>NULL</alt-name>
    <woe-id>12597173</woe-id>
    <subregion>NULL</subregion>
    <fips>FRB3</fips>
    <name>Aveyron</name>
    <type>Metropolitan department</type>
    <region>Midi-Pyrénées</region>
    <longitude>2.66383</longitude>
    <woe-name>Aveyron</woe-name>
    <latitude>44.2884</latitude>
    <woe-label>NULL</woe-label>
    <hc-middle-x>0.56</hc-middle-x>
    <hc-middle-y>0.51</hc-middle-y>
    <hc-key>fr-n-av</hc-key>
    <hc-a2>AV</hc-a2>
  </desc>
</path>

<path fill="#CEE3F5" stroke="#6E6E6E" stroke-width="0.4" id="FR.N.HG" d="M439.3,412.8 L424.2,414.7 L418.5,416.7 L413.7,419.8 L410.6,419.0 L410.0,414.5 L405.7,412.1 L398.6,421.2 L397.1,424.7 L398.2,432.2 L395.2,434.8 L385.4,436.1 L382.2,439.0 L382.0,442.3 L379.2,445.9 L377.8,451.5 L372.8,449.4 L367.5,456.1 L364.4,456.8 L362.1,452.7 L358.9,451.3 L354.0,452.0 L350.4,449.9 L343.2,443.3 L339.7,444.2 L338.2,447.5 L341.1,455.2 L338.3,461.0 L333.9,464.2 L329.1,464.3 L324.7,460.8 L326.1,454.3 L325.4,451.9 L317.0,442.9 L313.0,440.4 L308.2,439.7 L304.4,442.0 L303.5,448.6 L306.1,451.9 L316.0,456.3 L318.3,459.4 L316.5,463.2 L312.1,466.1 L303.7,469.3 L295.0,469.6 L291.0,470.7 L288.0,474.5 L288.7,477.6 L297.6,482.0 L300.7,486.4 L291.7,495.0 L288.5,494.5 L282.6,484.9 L272.4,478.1 L269.5,477.8 L263.4,480.4 L259.0,480.3 L257.0,482.0 L253.8,488.9 L246.0,492.5 L244.2,495.9 L244.0,501.7 L245.7,514.0 L244.5,519.0 L237.7,524.7 L229.7,526.6 L224.7,526.4 L222.4,529.3 L221.2,534.9 L215.2,539.3 L214.1,545.1 L218.0,563.3 L210.1,558.4 L203.3,558.0 L193.7,554.5 L185.3,554.3 L180.9,555.8 L180.2,564.9 L177.4,571.9 L179.3,574.8 L176.0,579.5 L178.6,580.5 L181.9,587.3 L181.6,591.3 L177.5,594.8 L170.9,593.7 L147.5,593.7 L144.5,592.3 L144.8,588.6 L142.9,573.3 L143.8,557.8 L145.2,551.8 L147.7,547.1 L151.5,546.4 L161.3,548.0 L167.2,543.3 L179.6,525.8 L176.0,514.4 L172.9,506.6 L166.9,508.7 L158.8,513.3 L158.5,510.1 L164.0,499.6 L165.2,495.7 L143.1,480.5 L155.2,468.7 L160.7,461.8 L165.9,460.3 L167.5,458.2 L167.3,450.4 L174.4,444.1 L176.5,440.8 L175.1,435.8 L180.9,435.5 L185.7,432.8 L195.3,420.5 L201.7,417.2 L206.5,412.2 L209.5,410.7 L232.2,412.9 L236.2,415.6 L244.5,424.2 L248.1,425.5 L253.0,420.9 L254.7,412.7 L255.4,396.1 L259.3,384.8 L262.5,380.6 L273.8,381.1 L282.1,374.9 L285.1,365.5 L276.6,356.3 L262.5,346.9 L258.5,337.9 L253.5,334.5 L245.6,325.2 L242.3,316.7 L260.5,312.5 L270.0,313.0 L276.2,310.4 L281.3,310.4 L287.5,317.9 L291.4,321.3 L296.0,321.2 L316.8,309.7 L309.9,305.4 L306.2,302.0 L319.9,293.9 L329.8,295.4 L334.4,294.5 L340.3,288.4 L345.2,290.4 L353.5,285.8 L352.1,294.5 L357.5,306.0 L357.5,312.3 L363.2,315.7 L369.1,318.0 L369.4,320.6 L375.7,339.0 L382.4,345.9 L384.2,352.5 L379.7,354.3 L376.5,359.1 L395.3,370.9 L400.9,372.7 L404.1,375.5 L411.9,386.9 L419.4,392.6 L424.4,397.5 L430.4,396.6 L433.9,391.4 L438.6,391.0 L443.4,396.7 L439.9,401.1 L438.2,408.5 Z">
  <desc xmlns="http://www.highcharts.com/svg/namespace">
    <labelrank>3</labelrank>
    <hasc>FR.HG</hasc>
    <alt-name>NULL</alt-name>
    <woe-id>12597186</woe-id>
    <subregion>NULL</subregion>
    <fips>FRB3</fips>
    <name>Haute-Garonne</name>
    <type>Metropolitan department</type>
    <region>Midi-Pyrénées</region>
    <longitude>1.41673</longitude>
    <woe-name>Haute-Garonne</woe-name>
    <latitude>43.5457</latitude>
    <woe-label>NULL</woe-label>
    <hc-middle-x>0.47</hc-middle-x>
    <hc-middle-y>0.48</hc-middle-y>
    <hc-key>fr-n-hg</hc-key>
    <hc-a2>HG</hc-a2>
  </desc>
</path>

<path fill="#CEE3F5" stroke="#6E6E6E" stroke-width="0.4" id="FR.N.GE" d="M242.3,316.7 L245.6,325.2 L253.5,334.5 L258.5,337.9 L262.5,346.9 L276.6,356.3 L285.1,365.5 L282.1,374.9 L273.8,381.1 L262.5,380.6 L259.3,384.8 L255.4,396.1 L254.7,412.7 L253.0,420.9 L248.1,425.5 L244.5,424.2 L236.2,415.6 L232.2,412.9 L209.5,410.7 L206.5,412.2 L201.7,417.2 L195.3,420.5 L185.7,432.8 L180.9,435.5 L175.1,435.8 L149.7,429.0 L141.2,429.5 L138.7,428.6 L134.9,421.4 L128.0,425.0 L124.3,422.5 L121.9,418.3 L117.5,416.5 L105.2,419.2 L99.5,418.0 L93.8,409.9 L90.3,407.4 L89.8,403.1 L91.7,396.2 L88.8,390.9 L87.3,383.8 L81.5,382.2 L72.3,376.0 L69.3,375.4 L65.9,366.0 L64.4,356.6 L59.1,355.6 L53.8,357.2 L48.9,360.4 L44.9,364.5 L27.9,360.2 L21.7,360.5 L19.0,353.0 L16.4,351.1 L19.6,344.8 L20.7,339.9 L19.3,336.4 L26.7,332.3 L30.8,322.3 L28.4,317.7 L28.9,309.7 L32.3,302.2 L33.9,296.3 L30.7,288.2 L27.0,283.4 L29.0,279.5 L37.7,273.8 L44.2,275.2 L50.1,274.9 L55.9,269.1 L64.4,264.6 L69.2,267.9 L69.4,270.6 L66.7,276.6 L69.1,279.6 L78.3,281.4 L81.7,280.1 L83.4,275.6 L82.6,269.1 L85.2,264.9 L90.1,263.1 L97.5,266.3 L102.5,261.7 L105.4,256.7 L109.8,254.1 L121.7,259.7 L126.6,259.6 L134.1,255.2 L137.8,254.7 L151.3,248.5 L154.9,246.0 L162.6,247.2 L175.1,242.9 L178.1,242.5 L183.7,245.5 L189.9,251.8 L193.8,251.2 L205.3,244.7 L208.0,248.6 L209.2,254.4 L219.3,248.7 L222.8,249.4 L224.5,256.1 L222.8,260.1 L212.7,272.7 L207.8,275.7 L210.2,279.3 L215.3,281.7 L228.5,282.8 L231.5,290.2 L232.0,299.9 L234.1,309.2 L232.0,316.1 Z">
  <desc xmlns="http://www.highcharts.com/svg/namespace">
    <labelrank>3</labelrank>
    <hasc>FR.GE</hasc>
    <alt-name>NULL</alt-name>
    <woe-id>12597194</woe-id>
    <subregion>NULL</subregion>
    <fips>FRB3</fips>
    <name>Gers</name>
    <type>Metropolitan department</type>
    <region>Midi-Pyrénées</region>
    <longitude>0.537496</longitude>
    <woe-name>Gers</woe-name>
    <latitude>43.6809</latitude>
    <woe-label>NULL</woe-label>
    <hc-middle-x>0.57</hc-middle-x>
    <hc-middle-y>0.52</hc-middle-y>
    <hc-key>fr-n-ge</hc-key>
    <hc-a2>GE</hc-a2>
  </desc>
</path>

<path fill="#CEE3F5" stroke="#6E6E6E" stroke-width="0.4" id="FR.N.LO" d="M474.3,108.9 L474.0,114.7 L469.6,117.2 L462.6,119.1 L448.4,117.7 L441.8,121.9 L434.7,125.4 L423.8,134.1 L406.5,142.1 L411.2,161.6 L413.8,167.4 L418.5,174.3 L418.5,177.3 L414.7,179.8 L408.2,182.1 L393.8,182.5 L378.6,189.0 L372.9,195.8 L369.2,195.9 L366.3,189.8 L361.6,189.2 L358.4,190.4 L357.4,193.8 L359.6,203.3 L356.8,205.6 L352.9,205.7 L349.8,202.7 L345.7,196.1 L340.1,192.8 L337.2,197.9 L333.3,201.4 L319.9,208.5 L315.4,208.1 L306.0,204.8 L304.8,203.2 L308.4,196.0 L305.8,192.7 L299.4,195.6 L293.4,193.9 L280.7,186.5 L275.5,179.6 L275.2,175.9 L277.9,166.2 L276.2,163.9 L272.8,164.1 L266.2,167.2 L267.0,156.2 L261.7,149.9 L258.9,141.4 L258.8,134.8 L255.4,129.2 L257.9,124.2 L266.8,120.0 L272.9,114.9 L279.7,107.5 L288.0,93.0 L290.6,90.7 L299.0,88.3 L303.1,84.7 L308.6,82.2 L314.9,73.7 L313.2,68.2 L313.7,64.2 L315.9,61.0 L321.1,59.8 L324.4,56.6 L329.4,48.2 L334.4,44.0 L336.4,40.7 L336.0,34.9 L338.4,28.1 L334.7,15.1 L335.7,11.0 L346.1,3.8 L353.8,0.0 L356.7,4.4 L363.0,2.5 L368.2,4.3 L377.0,10.2 L383.0,15.8 L386.7,22.1 L392.2,25.1 L396.0,28.5 L402.0,29.2 L411.4,26.1 L421.6,20.5 L424.9,20.1 L429.8,22.5 L434.4,20.0 L439.1,19.1 L448.8,19.1 L450.9,23.8 L452.2,39.0 L454.8,46.9 L462.2,59.1 L465.0,64.8 L466.2,70.2 L463.2,83.9 L461.3,89.4 L465.0,91.5 L467.1,94.6 L468.2,101.7 L470.0,106.6 Z">
  <desc xmlns="http://www.highcharts.com/svg/namespace">
    <labelrank>3</labelrank>
    <hasc>FR.LO</hasc>
    <alt-name>NULL</alt-name>
    <woe-id>12597172</woe-id>
    <subregion>NULL</subregion>
    <fips>FRB3</fips>
    <name>Lot</name>
    <type>Metropolitan department</type>
    <region>Midi-Pyrénées</region>
    <longitude>1.61079</longitude>
    <woe-name>Lot</woe-name>
    <latitude>44.6327</latitude>
    <woe-label>NULL</woe-label>
    <hc-middle-x>0.49</hc-middle-x>
    <hc-middle-y>0.50</hc-middle-y>
    <hc-key>fr-n-lo</hc-key>
    <hc-a2>LO</hc-a2>
  </desc>
</path>
</g>

<text x="350" y="714" text-anchor="middle" font-family="Verdana" font-size="8" stroke-opacity="0.6">Copyright (c) 2023 Highsoft AS, Based on data from Natural Earth</text>

</svg>