<?xml version="1.0" encoding="utf-8" standalone="no"?>
<!DOCTYPE svg PUBLIC "-//W3C//DTD SVG 1.1//EN" "http://www.w3.org/Graphics/SVG/1.1/DTD/svg11.dtd">

<svg version="1.1" height="700pt" width="700pt" xmlns="http://www.w3.org/2000/svg" xmlns:xlink="http://www.w3.org/1999/xlink">
<desc>
Map version: 1.1.3
Copyright (c) 2020 Highsoft AS, Based on data from Natural Earth
</desc>
<title>Basse-Normandie (2015)</title>
<g id="admin2">

<g id="FR">
  <desc xmlns="http://www.highcharts.com/svg/namespace">
    <name>France</name>
    <labelrank>2</labelrank>
    <country-abbrev>Fr.</country-abbrev>
    <subregion>Western Europe</subregion>
    <region-wb>Europe &amp; Central Asia</region-wb>
    <iso-a3>FRA</iso-a3>
    <iso-a2>FR</iso-a2>
    <woe-id>-90</woe-id>
    <continent>Europe</continent>
    <hc-key>fr</hc-key>
    <hc-a2>FR</hc-a2>
  </desc>
</g>

<g id="FR.P">
  <desc xmlns="http://www.highcharts.com/svg/namespace">
    <name>Basse-Normandie</name>
    <hc-key>fr-p</hc-key>
    <hc-a2>BN</hc-a2>
  </desc>
</g>

<path fill="#CEE3F5" stroke="#6E6E6E" stroke-width="0.4" id="FR.P.CV" d="M194.2,131.9 L197.8,130.8 L195.2,124.9 L196.8,120.0 L200.6,115.6 L204.6,113.6 L235.3,114.4 L263.2,124.2 L303.1,125.4 L313.2,128.1 L318.9,128.5 L327.3,123.5 L333.0,124.7 L343.2,128.8 L359.1,128.3 L363.2,129.8 L370.4,134.2 L382.2,136.5 L404.5,149.0 L410.3,143.4 L447.3,133.1 L458.0,127.5 L464.1,121.6 L471.4,118.2 L476.6,109.2 L491.6,97.4 L521.9,89.1 L524.8,104.0 L525.3,114.3 L526.6,123.1 L526.3,132.3 L529.7,138.9 L533.6,142.2 L540.9,143.1 L543.2,145.3 L542.8,149.7 L535.4,154.2 L534.6,158.8 L536.8,163.8 L543.5,169.2 L546.8,173.5 L549.7,182.5 L556.2,193.8 L556.7,196.2 L553.7,205.0 L555.7,215.6 L553.1,217.1 L547.2,217.2 L546.2,219.9 L547.5,225.1 L550.6,229.2 L557.3,233.8 L559.5,236.9 L560.8,242.2 L560.6,254.9 L558.4,261.9 L552.9,256.2 L549.3,256.1 L541.4,262.7 L537.6,263.4 L533.2,262.2 L529.2,259.3 L526.8,254.6 L522.9,255.2 L519.3,262.2 L514.0,265.8 L505.7,266.0 L499.2,271.3 L495.4,270.5 L490.3,262.7 L485.1,264.4 L474.3,281.1 L429.1,310.4 L388.7,300.9 L385.4,302.3 L384.0,308.2 L382.1,311.2 L375.5,308.0 L368.6,299.8 L364.9,296.8 L357.7,295.8 L346.5,303.8 L317.8,311.9 L313.6,311.8 L305.2,308.5 L301.0,308.0 L297.8,310.0 L296.4,314.6 L298.8,320.7 L295.7,324.1 L280.0,328.9 L276.2,331.7 L269.7,339.9 L265.0,341.9 L251.5,335.1 L237.4,331.7 L228.2,335.2 L216.7,335.0 L205.4,331.0 L203.8,328.7 L203.1,322.8 L201.4,321.1 L192.3,319.0 L192.8,313.8 L195.7,308.9 L202.8,301.8 L212.3,297.4 L217.2,291.1 L217.4,288.4 L210.8,281.1 L210.5,276.2 L212.3,271.7 L215.7,269.5 L226.0,271.9 L229.5,271.2 L237.0,264.6 L249.7,248.6 L257.1,244.3 L255.0,239.2 L251.2,215.2 L250.0,211.7 L242.9,199.6 L241.7,192.3 L244.2,184.5 L243.7,179.5 L241.0,178.9 L227.2,184.6 L221.2,184.3 L193.9,156.9 L190.4,149.2 L194.5,138.9 Z">
  <desc xmlns="http://www.highcharts.com/svg/namespace">
    <labelrank>3</labelrank>
    <hasc>FR.CV</hasc>
    <alt-name>Baja Normand¡a|Lower Normandy</alt-name>
    <woe-id>12597127</woe-id>
    <subregion>NULL</subregion>
    <fips>FR99</fips>
    <name>Calvados</name>
    <type>Metropolitan department</type>
    <region>Basse-Normandie</region>
    <longitude>-0.288724</longitude>
    <woe-name>Calvados</woe-name>
    <latitude>49.0601</latitude>
    <woe-label>NULL</woe-label>
    <hc-middle-x>0.51</hc-middle-x>
    <hc-middle-y>0.51</hc-middle-y>
    <hc-key>fr-p-cv</hc-key>
    <hc-a2>CV</hc-a2>
  </desc>
</path>

<path fill="#CEE3F5" stroke="#6E6E6E" stroke-width="0.4" id="FR.P.MH" d="M262.3,431.3 L253.7,433.3 L244.9,429.8 L238.8,432.8 L231.1,435.2 L223.1,435.5 L211.1,433.8 L204.9,431.1 L201.1,427.9 L176.8,421.6 L166.6,421.7 L159.9,431.3 L156.0,434.3 L150.4,436.5 L139.7,445.5 L133.0,448.2 L123.9,447.5 L119.7,443.3 L111.7,437.4 L104.4,424.7 L102.3,419.8 L100.8,413.1 L97.6,405.2 L91.6,393.1 L89.2,385.4 L91.6,384.8 L110.3,386.9 L135.6,380.7 L144.3,383.8 L140.4,377.7 L135.1,375.1 L126.1,374.4 L123.7,377.2 L120.6,370.0 L112.4,367.7 L108.1,363.7 L105.9,355.4 L97.0,347.7 L94.9,339.3 L94.6,329.4 L93.4,321.0 L90.5,315.5 L84.8,314.1 L84.7,311.5 L88.0,309.9 L91.9,302.5 L93.5,285.4 L95.0,281.7 L97.1,284.7 L98.4,277.4 L93.4,272.7 L95.5,252.0 L97.0,246.7 L100.1,244.9 L105.8,247.5 L105.8,245.3 L101.2,243.3 L96.0,243.4 L91.6,246.0 L89.2,253.0 L85.0,244.4 L85.0,235.9 L86.4,228.5 L83.1,227.8 L82.0,221.2 L84.5,211.9 L90.6,206.5 L87.7,204.3 L86.0,206.6 L82.2,194.3 L80.6,180.9 L82.3,177.4 L86.6,177.0 L95.0,179.4 L95.0,177.2 L84.0,173.0 L78.9,172.9 L77.2,179.7 L73.5,175.4 L69.4,162.3 L65.8,158.2 L69.0,155.5 L62.2,150.3 L59.3,146.4 L57.4,140.9 L62.2,140.8 L62.2,138.6 L59.0,131.3 L57.3,131.4 L55.5,137.6 L51.1,134.9 L45.8,129.2 L41.1,126.5 L42.8,121.7 L33.8,124.3 L31.5,121.8 L30.7,117.2 L31.2,99.9 L26.0,89.1 L24.6,82.8 L14.9,69.6 L16.3,64.6 L22.7,58.5 L24.2,54.9 L25.0,43.7 L24.9,37.8 L19.8,25.4 L17.7,22.9 L10.2,21.6 L0.0,17.4 L1.7,8.9 L1.2,3.6 L2.2,0.9 L8.4,0.0 L17.9,4.7 L24.4,3.7 L27.8,6.1 L28.7,10.4 L30.9,12.4 L34.5,12.0 L39.7,13.7 L55.0,15.7 L72.4,21.4 L76.1,21.0 L76.9,25.3 L80.7,25.2 L86.3,20.8 L93.9,23.0 L100.5,21.2 L104.1,17.7 L109.9,9.4 L113.2,6.8 L123.8,3.2 L128.0,2.7 L155.9,7.2 L157.8,8.2 L160.0,16.6 L165.3,27.3 L166.5,33.5 L160.7,37.8 L158.4,46.1 L153.3,46.3 L149.8,48.9 L148.9,57.4 L152.0,64.4 L156.1,70.6 L159.8,80.3 L178.0,102.3 L180.4,107.6 L181.4,115.4 L181.0,119.3 L178.6,125.1 L179.4,128.7 L186.4,126.2 L190.8,130.8 L194.2,131.9 L194.5,138.9 L190.4,149.2 L193.9,156.9 L221.2,184.3 L227.2,184.6 L241.0,178.9 L243.7,179.5 L244.2,184.5 L241.7,192.3 L242.9,199.6 L250.0,211.7 L251.2,215.2 L255.0,239.2 L257.1,244.3 L249.7,248.6 L237.0,264.6 L229.5,271.2 L226.0,271.9 L215.7,269.5 L212.3,271.7 L210.5,276.2 L210.8,281.1 L217.4,288.4 L217.2,291.1 L212.3,297.4 L202.8,301.8 L195.7,308.9 L192.8,313.8 L192.3,319.0 L201.4,321.1 L203.1,322.8 L203.8,328.7 L205.4,331.0 L216.7,335.0 L228.2,335.2 L237.4,331.7 L251.5,335.1 L265.0,341.9 L264.9,350.4 L270.2,350.8 L290.2,364.8 L283.4,374.3 L283.6,378.9 L287.4,391.4 L280.0,410.2 L267.4,422.6 Z">
  <desc xmlns="http://www.highcharts.com/svg/namespace">
    <labelrank>3</labelrank>
    <hasc>FR.MH</hasc>
    <alt-name>Baja Normand¡a|Lower Normandy</alt-name>
    <woe-id>12591801</woe-id>
    <subregion>NULL</subregion>
    <fips>FR99</fips>
    <name>Manche</name>
    <type>Metropolitan department</type>
    <region>Basse-Normandie</region>
    <longitude>-1.34727</longitude>
    <woe-name>Manche</woe-name>
    <latitude>49.1637</latitude>
    <woe-label>NULL</woe-label>
    <hc-middle-x>0.51</hc-middle-x>
    <hc-middle-y>0.50</hc-middle-y>
    <hc-key>fr-p-mh</hc-key>
    <hc-a2>MH</hc-a2>
  </desc>
</path>

<path fill="#CEE3F5" stroke="#6E6E6E" stroke-width="0.4" id="FR.P.OR" d="M558.4,261.9 L553.9,273.9 L555.4,279.6 L560.4,284.2 L564.9,285.0 L570.3,284.4 L588.6,288.6 L593.0,287.7 L597.0,284.8 L600.5,284.3 L603.8,287.9 L606.2,295.4 L617.8,310.2 L624.3,314.2 L633.2,316.2 L637.6,319.1 L642.2,327.5 L640.7,334.6 L635.8,341.4 L636.0,344.0 L640.4,346.2 L645.7,353.3 L657.1,357.6 L659.4,373.4 L666.6,386.5 L669.9,389.5 L677.0,393.4 L690.2,406.7 L692.2,411.5 L691.4,422.4 L693.1,427.8 L699.6,435.5 L700.0,438.3 L695.0,448.0 L692.6,455.0 L686.2,462.0 L681.2,465.6 L665.4,473.2 L656.4,475.6 L653.6,483.6 L654.6,486.3 L659.4,491.7 L659.8,504.6 L665.1,513.4 L667.9,520.0 L665.7,525.1 L661.3,528.6 L654.8,530.7 L649.9,529.7 L644.0,526.3 L638.9,521.1 L633.5,513.0 L629.0,508.0 L623.8,506.3 L622.0,508.0 L613.1,508.1 L592.6,503.3 L589.1,501.6 L588.0,492.6 L584.9,489.0 L579.6,490.7 L574.8,490.3 L568.2,486.6 L561.8,480.8 L557.3,467.8 L556.7,457.8 L557.5,448.2 L555.5,439.8 L550.7,436.3 L540.5,432.2 L533.6,431.6 L512.9,437.4 L501.4,445.2 L498.2,451.2 L494.2,455.9 L485.6,459.4 L484.2,465.8 L479.6,467.8 L469.9,465.8 L455.9,468.1 L454.2,450.0 L450.8,444.6 L446.5,444.2 L438.6,439.3 L430.3,430.1 L427.7,425.4 L427.1,421.4 L428.8,414.8 L425.6,410.6 L410.6,405.3 L408.1,408.4 L409.0,413.2 L407.4,417.8 L402.2,421.0 L396.8,421.1 L391.0,423.5 L386.7,430.3 L383.3,431.1 L367.2,427.3 L355.2,426.6 L348.0,428.9 L340.2,438.0 L335.8,441.1 L315.4,446.6 L313.1,446.0 L309.6,440.3 L307.3,440.2 L295.7,443.6 L293.0,448.8 L288.6,452.1 L286.4,451.6 L281.0,446.8 L275.4,449.0 L272.4,446.0 L266.3,434.6 L262.3,431.3 L267.4,422.6 L280.0,410.2 L287.4,391.4 L283.6,378.9 L283.4,374.3 L290.2,364.8 L270.2,350.8 L264.9,350.4 L265.0,341.9 L269.7,339.9 L276.2,331.7 L280.0,328.9 L295.7,324.1 L298.8,320.7 L296.4,314.6 L297.8,310.0 L301.0,308.0 L305.2,308.5 L313.6,311.8 L317.8,311.9 L346.5,303.8 L357.7,295.8 L364.9,296.8 L368.6,299.8 L375.5,308.0 L382.1,311.2 L384.0,308.2 L385.4,302.3 L388.7,300.9 L429.1,310.4 L474.3,281.1 L485.1,264.4 L490.3,262.7 L495.4,270.5 L499.2,271.3 L505.7,266.0 L514.0,265.8 L519.3,262.2 L522.9,255.2 L526.8,254.6 L529.2,259.3 L533.2,262.2 L537.6,263.4 L541.4,262.7 L549.3,256.1 L552.9,256.2 Z">
  <desc xmlns="http://www.highcharts.com/svg/namespace">
    <labelrank>3</labelrank>
    <hasc>FR.OR</hasc>
    <alt-name>Baja Normand¡a|Lower Normandy</alt-name>
    <woe-id>12597150</woe-id>
    <subregion>NULL</subregion>
    <fips>FR99</fips>
    <name>Orne</name>
    <type>Metropolitan department</type>
    <region>Basse-Normandie</region>
    <longitude>0.06321400000000001</longitude>
    <woe-name>Orne</woe-name>
    <latitude>48.6533</latitude>
    <woe-label>NULL</woe-label>
    <hc-middle-x>0.68</hc-middle-x>
    <hc-middle-y>0.47</hc-middle-y>
    <hc-key>fr-p-or</hc-key>
    <hc-a2>OR</hc-a2>
  </desc>
</path>
</g>

<text x="350" y="714" text-anchor="middle" font-family="Verdana" font-size="8" stroke-opacity="0.6">Copyright (c) 2020 Highsoft AS, Based on data from Natural Earth</text>

</svg>