<?xml version="1.0" encoding="utf-8" standalone="no"?>
<!DOCTYPE svg PUBLIC "-//W3C//DTD SVG 1.1//EN" "http://www.w3.org/Graphics/SVG/1.1/DTD/svg11.dtd">

<svg version="1.1" height="700pt" width="700pt" xmlns="http://www.w3.org/2000/svg" xmlns:xlink="http://www.w3.org/1999/xlink">
<desc>
Map version: 1.1.3
Copyright (c) 2020 Highsoft AS, Based on data from Natural Earth
</desc>
<title>Canada</title>
<g id="admin1">

<g id="CA">
  <desc xmlns="http://www.highcharts.com/svg/namespace">
    <name>Canada</name>
    <labelrank>2</labelrank>
    <country-abbrev>Can.</country-abbrev>
    <subregion>Northern America</subregion>
    <region-wb>North America</region-wb>
    <iso-a3>CAN</iso-a3>
    <iso-a2>CA</iso-a2>
    <woe-id>23424775</woe-id>
    <continent>North America</continent>
    <hc-key>ca</hc-key>
    <hc-a2>CA</hc-a2>
  </desc>
</g>

<path fill="#CEE3F5" stroke="#6E6E6E" stroke-width="0.4" id="CA.5682" d="M626.1,412.7 L625.8,413.3 L625.5,413.3 L625.8,412.8 Z">
  <desc xmlns="http://www.highcharts.com/svg/namespace">
    <labelrank>20</labelrank>
    <hasc>-99</hasc>
    <alt-name>NULL</alt-name>
    <woe-id>-99</woe-id>
    <subregion>NULL</subregion>
    <fips>NULL</fips>
    <postal-code>NULL</postal-code>
    <name>NULL</name>
    <country>Canada</country>
    <type-en>NULL</type-en>
    <region>NULL</region>
    <longitude>-61.4664</longitude>
    <woe-name>NULL</woe-name>
    <latitude>47.7941</latitude>
    <woe-label>NULL</woe-label>
    <type>NULL</type>
    <hc-middle-x>0.52</hc-middle-x>
    <hc-middle-y>0.50</hc-middle-y>
    <hc-key>ca-5682</hc-key>
    <hc-a2>NU</hc-a2>
  </desc>
</path>

<path fill="#CEE3F5" stroke="#6E6E6E" stroke-width="0.4" id="CA.BC" d="M33.0,455.9 L32.8,459.3 L31.2,458.7 L30.6,455.6 Z M44.5,451.9 L47.9,452.4 L49.2,454.0 L46.9,454.5 Z M40.6,422.0 L34.7,424.3 L37.5,420.8 L42.5,420.2 Z M35.3,413.3 L33.1,417.0 L34.6,412.0 L37.3,411.9 Z M26.9,402.5 L27.9,404.5 L26.6,405.1 L26.4,401.5 L23.8,397.1 L23.9,393.2 L27.2,398.5 Z M34.3,400.0 L34.2,402.7 L32.6,402.2 L34.1,398.1 L37.0,398.0 Z M24.9,390.8 L23.5,389.7 L24.7,388.1 L27.0,387.8 L27.9,389.9 Z M50.9,463.6 L53.0,465.8 L53.9,469.2 L50.7,464.8 L50.9,463.6 L50.9,463.6 Z M50.9,463.6 L50.9,463.6 L50.9,463.6 L50.9,463.6 L50.8,463.5 L50.9,463.6 L50.9,463.6 Z M105.7,329.5 L131.4,337.7 L107.6,421.1 L108.6,425.2 L107.3,424.7 L107.9,427.8 L110.7,429.5 L111.1,431.9 L112.8,433.3 L113.4,431.9 L115.0,434.1 L115.4,437.7 L117.2,441.1 L116.9,445.6 L118.9,444.4 L120.8,446.1 L119.8,447.7 L121.3,450.2 L123.8,450.3 L125.5,457.2 L128.0,456.5 L131.7,467.1 L134.7,470.2 L134.1,471.8 L136.4,474.1 L137.2,477.0 L139.0,477.1 L140.4,480.4 L140.1,488.7 L138.5,491.3 L140.8,497.3 L142.2,497.8 L143.1,500.8 L63.8,480.3 L62.4,478.5 L60.7,479.3 L60.9,471.9 L58.4,472.5 L55.4,469.4 L55.1,467.7 L57.7,465.3 L56.7,463.8 L55.1,465.3 L50.9,463.6 L50.9,463.6 L50.9,463.6 L51.8,459.3 L53.3,457.9 L48.8,459.5 L50.9,455.9 L50.6,453.2 L48.4,451.3 L45.4,451.7 L37.6,447.3 L38.3,445.5 L40.9,444.4 L41.0,442.0 L35.7,442.1 L32.5,438.0 L31.6,434.1 L35.7,430.3 L37.8,430.1 L42.9,432.0 L37.8,429.2 L33.3,431.3 L33.3,428.0 L34.9,424.8 L37.5,423.4 L43.5,422.4 L42.4,419.6 L36.4,420.9 L36.2,416.2 L34.0,418.2 L38.1,410.7 L36.3,411.9 L35.1,410.5 L36.1,406.5 L34.5,403.2 L35.1,399.6 L36.5,399.9 L37.8,397.3 L40.5,394.6 L36.7,396.9 L33.6,397.8 L31.4,400.5 L28.7,390.7 L30.4,388.2 L28.7,387.9 L28.1,384.8 L31.2,380.0 L35.3,377.2 L30.0,379.4 L37.6,374.1 L39.5,367.0 L41.4,365.7 L41.4,362.8 L39.4,361.7 L39.4,360.0 L36.2,355.7 L33.9,351.6 L32.4,351.0 L33.2,348.2 L31.9,346.5 L33.5,344.6 L31.7,342.9 L33.2,341.8 L32.9,336.9 L33.2,322.6 L32.2,316.9 L30.7,314.3 L31.0,311.1 L30.3,307.7 L29.0,306.5 L29.0,304.1 L30.4,302.9 L29.2,298.2 L22.4,297.6 L19.5,300.9 L17.6,301.9 L16.2,301.2 L10.8,301.9 L12.1,297.2 L9.8,287.3 L10.3,285.4 L8.9,282.6 L9.0,282.7 Z M33.9,420.3 L34.1,422.1 L36.0,419.5 L36.0,421.4 L32.9,425.2 L32.1,430.8 L30.5,429.7 L30.7,427.6 L32.3,426.9 L31.3,424.2 L32.7,422.5 L31.8,418.6 Z M32.1,402.1 L31.2,405.4 L32.9,402.6 L35.5,405.9 L35.5,408.1 L32.8,412.9 L33.4,412.9 L33.0,415.3 L31.5,414.7 L31.6,413.0 L31.9,412.9 L31.4,412.8 L33.2,408.8 L28.8,413.9 L28.2,407.3 L29.5,410.0 L31.0,404.9 L29.9,403.9 Z M29.6,405.0 L28.6,405.4 L28.4,400.5 L26.6,393.3 L26.6,395.6 L24.9,392.9 L27.8,390.7 L29.6,394.3 L31.2,400.9 L29.6,400.9 Z M56.3,485.1 L53.4,487.1 L50.6,485.3 L44.6,480.0 L41.1,475.3 L45.2,473.4 L40.3,473.3 L36.5,469.1 L36.5,466.9 L34.4,465.4 L33.4,460.0 L35.5,460.1 L33.5,458.0 L33.1,454.6 L29.7,454.6 L30.7,451.5 L29.1,452.4 L28.6,449.0 L24.5,448.4 L26.5,447.0 L23.7,440.4 L23.8,437.9 L29.0,438.3 L31.0,439.6 L31.3,442.2 L34.7,445.7 L41.4,450.0 L48.3,456.1 L46.8,460.2 L48.4,463.8 L47.4,464.1 L49.0,468.8 L55.1,474.2 L58.0,480.3 L56.6,480.4 Z M11.8,396.9 L9.4,401.2 L10.3,402.5 L9.2,407.6 L10.5,407.7 L11.0,411.4 L9.1,412.0 L7.8,403.8 L5.8,398.5 L5.7,395.0 L5.0,391.9 L8.9,393.6 L11.6,393.4 Z M8.4,376.9 L13.2,380.6 L13.1,384.2 L8.9,384.9 L11.0,386.8 L13.5,384.2 L13.8,382.5 L18.2,382.4 L14.3,386.4 L11.4,391.7 L7.7,393.0 L5.8,392.2 L4.7,389.8 L7.1,388.7 L4.3,385.5 L5.8,383.4 L5.1,381.7 Z">
  <desc xmlns="http://www.highcharts.com/svg/namespace">
    <labelrank>2</labelrank>
    <hasc>CA.BC</hasc>
    <alt-name>Colombie britannique|New Caledonia</alt-name>
    <woe-id>2344916</woe-id>
    <subregion>British Columbia</subregion>
    <fips>CA02</fips>
    <postal-code>BC</postal-code>
    <name>British Columbia</name>
    <country>Canada</country>
    <type-en>Province</type-en>
    <region>Western Canada</region>
    <longitude>-124.662</longitude>
    <woe-name>British Columbia</woe-name>
    <latitude>54.6943</latitude>
    <woe-label>British Columbia, CA, Canada</woe-label>
    <type>Province</type>
    <hc-middle-x>0.53</hc-middle-x>
    <hc-middle-y>0.54</hc-middle-y>
    <hc-key>ca-bc</hc-key>
    <hc-a2>BC</hc-a2>
  </desc>
</path>

<path fill="#CEE3F5" stroke="#6E6E6E" stroke-width="0.4" id="CA.NU" d="M299.9,219.2 L299.8,217.7 L298.1,219.3 L296.1,219.3 L294.2,216.1 L293.1,217.9 L288.1,215.0 L286.2,214.3 L284.5,211.1 L283.9,208.0 L285.3,203.4 L283.1,200.7 L283.9,196.6 L283.3,193.9 L285.3,192.0 L287.0,193.6 L287.6,190.8 L285.3,190.0 L287.6,186.3 L288.0,184.0 L290.6,183.1 L288.3,183.7 L287.3,175.7 L284.7,171.4 L284.8,166.6 L283.5,159.7 L283.7,158.4 L285.3,157.8 L287.1,158.6 L284.8,155.9 L285.0,154.2 L286.9,152.6 L291.0,151.1 L294.5,151.3 L296.9,153.0 L299.6,152.0 L302.0,152.0 L305.4,152.9 L302.2,163.7 L301.0,169.2 L299.1,171.5 L294.6,170.9 L291.4,171.6 L292.7,172.4 L294.9,175.7 L293.7,178.0 L292.8,182.4 L290.9,182.9 L292.1,187.7 L292.8,185.8 L295.0,185.9 L294.8,187.5 L299.1,191.3 L300.1,194.1 L300.3,199.0 L303.1,200.8 L305.4,204.0 L306.2,206.3 L307.0,204.7 L308.5,207.3 L306.3,208.2 L305.1,207.5 L303.8,209.3 L305.8,208.8 L306.7,209.6 L305.5,212.0 L302.9,214.8 L305.9,214.9 L308.6,217.1 L310.0,214.3 L312.0,216.2 L314.2,215.5 L316.6,216.6 L316.5,219.4 L311.7,219.4 L314.6,221.6 L316.8,224.7 L316.4,225.8 L317.3,228.7 L317.0,230.9 L318.7,231.5 L319.3,233.4 L320.3,231.2 L321.1,227.2 L320.3,221.6 L321.4,218.4 L323.4,218.2 L324.9,220.1 L329.3,223.2 L331.9,229.6 L331.5,231.6 L329.8,229.7 L328.9,231.1 L331.1,237.9 L336.4,242.8 L337.4,244.3 L339.6,243.6 L340.0,241.2 L341.6,241.4 L340.5,237.1 L342.5,231.2 L341.9,227.4 L342.3,226.0 L341.4,221.6 L342.8,220.7 L345.8,220.4 L343.7,219.5 L345.0,217.7 L344.0,216.7 L346.0,216.0 L341.4,214.6 L339.5,211.2 L339.9,209.6 L338.8,208.6 L339.2,205.6 L340.7,206.3 L341.3,204.9 L343.9,204.2 L347.2,205.3 L346.3,204.0 L348.0,204.1 L347.6,205.5 L352.4,204.4 L351.2,202.9 L352.9,202.7 L352.9,204.8 L354.0,206.8 L350.6,207.1 L355.5,207.5 L356.6,208.9 L361.0,209.1 L361.8,210.4 L359.9,213.7 L363.3,214.7 L363.8,216.6 L360.9,220.5 L358.4,220.5 L357.9,221.8 L360.1,222.1 L360.3,224.6 L362.2,224.7 L362.8,227.9 L367.2,230.6 L369.1,232.5 L369.6,239.3 L367.4,240.3 L367.0,243.5 L365.4,247.0 L363.4,247.8 L362.9,251.0 L361.2,251.4 L359.9,249.2 L357.7,248.2 L357.3,245.4 L356.7,247.3 L354.6,245.3 L354.5,244.1 L351.9,245.2 L356.8,247.7 L356.7,249.0 L358.5,250.3 L361.1,253.6 L359.5,254.0 L357.8,252.7 L355.3,253.1 L357.3,254.8 L352.0,254.8 L350.2,251.1 L348.1,252.6 L345.3,252.6 L343.1,254.9 L344.4,256.2 L349.2,257.3 L349.0,259.2 L346.9,261.6 L347.1,264.1 L343.2,270.9 L340.1,271.5 L335.7,268.8 L334.0,268.2 L328.2,265.0 L326.4,266.1 L317.9,266.7 L321.0,268.1 L320.4,266.6 L327.1,267.4 L330.2,269.4 L333.6,272.9 L345.5,271.7 L346.4,272.9 L344.3,281.8 L343.2,282.6 L343.1,287.4 L339.2,291.4 L335.3,289.7 L337.3,292.1 L333.8,290.9 L332.0,288.7 L331.5,290.7 L332.6,292.8 L330.9,293.2 L332.0,294.9 L330.7,298.2 L328.7,297.6 L328.4,300.9 L325.1,298.7 L321.7,298.0 L317.3,297.9 L319.1,298.8 L317.2,301.5 L320.9,298.3 L324.1,301.1 L328.0,301.7 L329.6,306.1 L328.8,308.1 L327.5,308.2 L325.2,310.9 L320.6,310.3 L318.7,311.8 L322.1,313.2 L322.3,315.0 L319.2,315.2 L319.2,317.1 L317.7,316.6 L318.1,319.2 L315.9,320.9 L316.9,321.7 L315.6,323.7 L316.4,325.7 L312.8,324.5 L315.5,326.6 L311.1,331.8 L312.3,333.5 L310.5,333.7 L311.4,335.1 L309.6,340.5 L308.9,345.0 L307.4,345.2 L308.5,347.2 L307.8,352.9 L307.8,352.9 L307.8,352.9 L257.0,355.4 L257.0,355.4 L257.2,295.7 L255.7,295.3 L218.1,286.3 L213.8,284.9 L211.8,282.9 L206.2,274.1 L195.7,272.5 L159.1,227.8 L159.0,227.5 L165.2,206.3 L166.6,208.9 L173.8,213.6 L176.1,217.2 L185.8,222.7 L184.5,220.3 L186.5,220.0 L190.7,222.7 L192.9,225.5 L195.2,230.5 L194.2,232.5 L189.4,231.1 L190.2,232.6 L187.7,232.2 L187.9,234.7 L185.4,235.4 L187.2,237.6 L189.0,237.8 L193.6,240.4 L201.2,242.0 L201.9,241.2 L206.0,242.2 L210.1,241.4 L214.5,238.5 L215.8,243.5 L219.3,243.9 L220.0,249.2 L220.9,245.9 L222.1,246.9 L224.5,250.7 L224.8,254.1 L223.5,254.1 L223.1,256.6 L227.5,264.3 L226.0,260.7 L225.1,254.6 L227.1,257.6 L227.3,255.4 L228.7,256.7 L227.8,253.8 L226.8,253.8 L226.5,249.2 L227.0,247.8 L225.0,244.9 L224.7,250.3 L224.0,247.1 L225.5,242.6 L227.0,242.0 L226.2,239.3 L228.5,240.2 L230.1,239.1 L232.1,239.6 L233.1,237.7 L233.9,239.1 L234.0,236.2 L237.8,235.5 L238.5,232.4 L233.8,233.7 L233.2,236.8 L232.3,235.2 L230.3,237.1 L228.3,235.8 L226.4,236.8 L227.5,238.4 L223.8,238.2 L223.5,235.9 L221.5,236.2 L224.8,231.6 L230.0,230.9 L235.5,228.4 L238.1,229.1 L239.5,231.3 L239.6,234.0 L238.9,235.7 L242.2,238.5 L243.7,238.5 L244.2,241.3 L247.4,241.6 L249.2,241.0 L252.4,243.1 L253.3,244.7 L255.8,246.1 L257.5,245.1 L260.0,246.7 L261.5,245.4 L263.1,245.7 L264.3,244.3 L271.3,244.9 L272.4,245.9 L277.0,244.4 L275.0,242.4 L275.7,240.5 L278.5,245.0 L281.9,247.0 L281.4,245.8 L283.7,244.4 L280.4,241.1 L278.6,242.8 L276.8,241.7 L277.0,239.3 L274.7,236.5 L277.5,237.3 L279.9,236.2 L278.5,233.8 L282.3,234.6 L283.7,236.2 L283.5,237.5 L285.5,237.0 L286.6,237.9 L285.2,240.8 L289.7,236.5 L288.6,243.3 L288.9,246.2 L288.0,245.4 L287.6,248.5 L289.8,248.8 L289.0,251.6 L290.0,251.8 L291.7,249.5 L292.6,250.5 L291.4,252.6 L293.1,251.6 L294.4,255.0 L291.5,255.7 L288.5,255.3 L291.8,258.2 L290.3,256.1 L294.8,256.0 L294.1,252.4 L294.9,250.5 L293.4,248.2 L292.8,245.7 L291.5,244.7 L292.3,239.5 L295.5,239.8 L297.9,236.5 L298.4,234.5 L302.2,230.3 L300.5,230.9 L300.8,227.2 L298.9,225.5 L298.3,229.0 L295.6,229.4 L295.4,226.3 L297.6,224.7 L296.5,223.5 L296.7,220.9 L298.4,220.5 Z M299.9,219.2 L299.9,219.4 L299.9,219.4 L299.9,219.4 L298.6,221.9 L299.0,223.0 L300.9,219.7 L299.9,220.1 L299.9,219.4 L299.9,219.4 L299.9,219.4 L300.1,219.0 Z M429.3,424.7 L431.9,424.3 L435.8,426.8 L437.5,429.9 L434.6,430.1 L425.0,429.1 L425.8,426.5 Z M435.5,379.9 L435.3,374.7 L435.9,374.3 L437.1,377.8 Z M482.5,288.6 L484.9,289.3 L485.2,291.9 L483.7,294.3 L482.6,293.9 L481.5,289.2 Z M491.8,263.8 L489.6,262.6 L490.5,261.9 L494.4,263.9 L495.9,265.6 L496.2,268.3 L490.5,267.4 L492.3,264.6 Z M402.3,297.3 L404.0,298.6 L404.9,302.2 L404.1,308.6 L400.5,307.0 L399.1,305.1 L398.6,302.2 L399.8,297.7 Z M488.0,253.4 L489.6,252.3 L489.8,255.0 L487.6,255.5 Z M451.5,269.1 L453.7,269.2 L456.6,270.5 L456.0,271.8 L453.6,272.6 L448.8,269.8 Z M403.2,280.2 L407.8,279.3 L409.7,281.1 L409.8,282.4 L408.0,284.6 L403.0,281.9 Z M409.7,275.1 L412.8,275.4 L414.3,276.3 L413.9,278.0 L412.1,278.1 L408.6,276.7 Z M353.9,257.8 L354.9,258.0 L358.3,262.7 L357.8,264.0 L354.8,261.8 Z M357.8,255.8 L362.1,257.4 L361.9,259.0 L363.8,260.0 L365.7,259.6 L365.1,261.1 L362.7,261.0 L362.9,259.8 L360.2,260.3 L359.8,258.3 L358.0,257.3 Z M401.0,210.9 L405.9,210.4 L407.0,212.9 L402.1,215.1 L400.5,214.6 L398.8,212.1 Z M340.5,233.5 L340.0,236.6 L338.5,236.0 L336.9,232.4 L337.6,228.7 L339.4,229.7 Z M244.2,236.1 L241.5,233.9 L243.5,233.5 L244.5,234.6 Z M395.3,206.0 L397.0,208.8 L393.0,207.5 L392.7,204.5 Z M258.6,230.9 L259.1,232.5 L258.2,234.0 L255.7,232.3 L257.4,230.4 Z M266.8,228.0 L267.0,225.7 L267.8,227.1 L266.9,230.6 L266.0,231.8 L264.6,230.7 L264.5,227.9 Z M373.9,201.7 L375.5,202.4 L374.7,203.9 L374.4,208.7 L372.9,210.6 L371.5,209.6 L371.8,207.1 L372.8,206.5 L372.9,203.0 Z M380.4,198.8 L382.4,198.4 L382.0,201.4 L382.5,202.4 L380.8,202.8 L379.1,199.3 Z M284.3,218.8 L286.8,218.6 L287.1,221.6 L285.0,220.1 Z M289.1,217.7 L290.7,218.8 L290.7,220.8 L289.3,221.9 L288.9,218.5 L287.8,221.4 L287.9,218.1 Z M374.7,196.9 L374.7,198.5 L373.1,200.5 L371.4,200.9 L372.1,198.4 L373.6,196.3 Z M366.1,197.9 L368.2,198.9 L365.9,201.3 L366.2,202.2 L364.2,202.6 L361.5,200.5 L363.5,199.1 L365.1,199.7 Z M330.3,203.8 L331.9,203.4 L333.2,204.6 L330.3,205.7 L328.5,204.4 Z M263.9,203.6 L264.8,203.7 L266.1,206.8 L264.0,205.6 Z M394.1,167.0 L396.3,166.6 L396.7,168.1 L394.3,170.6 L393.2,169.4 Z M279.9,167.7 L280.8,168.6 L279.3,170.5 L278.3,168.4 L279.6,166.6 Z M251.3,136.6 L251.9,138.2 L250.8,139.9 L249.4,140.5 L246.9,138.8 L247.9,135.6 L250.0,134.4 Z M278.8,130.5 L280.3,131.7 L279.3,133.3 L278.2,133.4 L277.0,135.0 L276.1,133.0 Z M257.6,126.6 L255.2,129.7 L253.0,129.8 L254.1,127.5 L257.1,126.3 Z M285.8,128.1 L284.6,128.5 L283.4,125.8 L284.7,124.8 Z M338.1,110.4 L339.0,110.8 L338.4,112.7 L339.9,114.1 L338.4,114.3 L338.3,115.6 L337.0,115.0 Z M263.6,115.5 L260.2,117.8 L259.0,117.4 L261.5,115.2 Z M300.3,114.6 L299.2,115.4 L296.9,112.3 L296.8,111.2 L298.5,110.1 L299.7,111.2 L299.6,113.3 Z M274.5,54.2 L275.5,54.4 L275.4,55.6 L272.9,55.0 Z M419.1,177.4 L419.0,177.7 L418.9,177.3 L418.9,177.3 L418.9,177.3 L419.1,177.4 Z M270.9,154.9 L274.9,153.3 L275.3,154.0 L273.4,157.0 L270.2,158.2 L268.1,156.8 Z M250.8,126.9 L256.3,124.8 L256.7,125.2 L256.6,126.0 L251.8,127.7 Z M249.7,122.9 L255.4,121.5 L255.6,122.1 L256.0,123.8 L254.9,125.0 L251.4,125.6 L249.5,124.9 Z M249.9,116.2 L251.3,116.8 L254.2,119.2 L253.2,121.2 L249.6,121.2 L249.6,119.0 L248.8,117.0 Z M293.5,98.6 L295.4,98.7 L297.8,100.9 L298.3,102.8 L297.2,104.9 L294.2,103.8 L293.1,102.5 L292.7,99.3 Z M246.8,100.2 L248.3,103.0 L248.1,104.8 L249.0,104.8 L250.0,106.5 L249.8,108.9 L248.8,109.4 L246.3,106.4 L245.0,99.8 Z M260.5,98.7 L261.4,100.1 L259.4,100.4 L258.7,101.1 L256.6,100.3 L256.7,98.0 L259.1,98.0 Z M264.0,63.5 L264.9,64.1 L265.7,63.7 L266.9,66.2 L267.2,68.9 L266.9,70.7 L265.5,69.5 L264.6,67.4 L263.3,67.7 L262.9,65.4 Z M285.6,102.7 L284.1,103.3 L282.9,102.8 L277.5,103.3 L276.3,101.7 L276.4,100.0 L277.4,99.1 L278.8,98.2 L279.0,99.2 L280.4,98.3 L284.6,98.0 L286.0,98.7 Z M419.1,177.4 L420.0,175.3 L421.1,175.9 L420.9,177.7 L419.1,177.4 Z M222.8,175.8 L223.6,176.0 L222.8,175.3 L222.9,174.9 L223.8,175.3 L223.1,173.4 L223.2,172.2 L224.1,172.0 L223.3,171.5 L223.7,168.2 L224.6,169.8 L228.9,174.9 L228.5,177.9 L229.3,181.1 L229.0,183.3 L229.9,184.0 L229.3,186.1 L230.4,188.6 L231.6,188.7 L232.5,186.8 L234.0,186.5 L234.0,185.0 L232.0,181.4 L232.5,179.3 L231.6,175.9 L232.2,175.2 L231.5,172.4 L231.8,165.9 L233.1,166.2 L232.4,163.8 L234.1,164.3 L236.0,166.4 L237.4,164.8 L239.8,168.3 L241.4,169.5 L243.2,172.8 L243.2,177.7 L244.6,181.8 L244.2,182.7 L246.8,190.2 L247.1,193.7 L246.1,194.2 L245.3,197.1 L247.7,200.4 L248.2,202.6 L252.1,206.1 L252.2,203.7 L253.5,206.1 L257.8,209.7 L259.1,209.1 L259.9,211.9 L262.1,210.7 L263.1,216.3 L262.7,218.3 L260.9,218.1 L260.1,215.0 L259.2,218.6 L256.7,214.9 L255.8,216.9 L254.6,217.2 L255.0,219.8 L253.6,220.1 L250.4,217.6 L250.0,218.9 L253.3,222.3 L255.2,221.0 L257.2,220.9 L256.6,222.8 L258.7,225.6 L257.7,228.3 L252.2,230.6 L250.0,230.8 L244.9,228.4 L244.1,229.5 L240.7,228.0 L242.6,226.8 L237.7,224.7 L235.1,224.3 L235.8,221.3 L234.5,219.8 L232.5,221.6 L232.5,223.4 L230.2,226.3 L227.0,227.2 L223.9,226.8 L221.5,229.5 L217.9,230.5 L212.7,230.2 L212.0,232.0 L210.0,231.9 L211.9,230.6 L202.3,230.2 L201.3,230.7 L198.5,228.4 L197.5,225.1 L198.7,221.8 L198.3,219.6 L195.1,217.6 L191.0,217.4 L187.3,215.8 L184.6,212.8 L184.1,210.0 L185.1,210.5 L183.5,206.3 L183.9,204.7 L204.3,208.9 L204.0,211.3 L206.0,211.4 L206.2,209.2 L218.4,211.0 Z M229.1,125.6 L231.3,124.5 L231.9,123.1 L230.8,121.2 L229.7,121.0 L230.2,117.2 L232.0,115.2 L233.6,112.5 L235.0,112.1 L235.8,114.8 L234.8,115.4 L235.4,118.2 L236.5,120.9 L234.7,124.3 L237.0,124.2 L237.6,125.6 L236.6,126.6 L239.7,127.1 L240.1,128.9 L240.3,126.3 L241.5,124.6 L244.4,125.9 L245.2,127.4 L245.5,130.8 L244.0,133.2 L244.2,135.3 L242.5,138.6 L242.6,139.6 L239.7,140.2 L238.7,141.3 L236.8,140.8 L236.3,139.2 L234.7,140.7 L233.3,140.9 L232.0,138.5 L228.8,141.2 L227.2,141.1 L228.4,131.0 L232.4,132.3 L232.8,130.4 L232.1,128.4 L229.0,126.1 Z M233.2,93.2 L234.4,94.0 L232.9,95.7 Z M234.3,84.4 L235.6,86.0 L236.1,88.1 L235.4,90.3 L233.6,89.8 L234.3,84.7 Z M505.6,278.6 L505.7,279.2 L502.6,278.7 L503.7,277.6 L505.9,278.2 Z M429.3,380.9 L430.6,379.4 L431.1,375.5 L432.0,374.2 L434.1,378.2 L433.3,378.4 L432.6,384.0 L431.2,384.2 L430.7,381.2 L429.6,385.8 L428.3,385.1 Z M481.4,250.0 L484.9,252.1 L486.5,254.3 L484.8,254.6 L483.1,252.3 L475.0,253.5 L473.0,252.1 L472.4,253.6 L465.9,251.7 L462.8,250.1 L465.3,252.8 L461.4,251.6 L456.9,251.3 L455.7,252.6 L457.3,253.8 L463.4,256.4 L464.0,255.1 L466.2,256.8 L468.5,256.7 L473.2,258.4 L474.2,259.7 L475.4,258.6 L479.4,260.1 L482.0,261.8 L483.6,261.7 L483.8,264.6 L485.7,265.4 L484.1,267.0 L480.3,266.7 L478.2,267.6 L476.0,267.1 L468.3,269.7 L464.7,269.6 L459.6,267.9 L460.1,266.1 L456.6,267.1 L455.2,268.6 L453.0,268.0 L448.5,268.4 L444.0,267.6 L442.8,265.5 L439.9,265.3 L442.7,264.3 L444.1,261.4 L442.2,261.9 L441.6,260.3 L439.2,262.1 L436.2,259.1 L436.1,261.2 L434.5,261.5 L431.6,259.5 L431.2,258.2 L428.3,256.9 L429.2,259.4 L425.8,255.1 L426.1,258.1 L424.7,255.0 L422.9,255.2 L424.2,258.9 L421.6,253.9 L420.2,257.0 L420.1,260.0 L412.5,259.5 L412.0,264.6 L409.3,266.2 L409.7,267.2 L406.6,266.7 L405.6,268.0 L402.1,267.4 L398.7,264.4 L398.6,262.0 L397.5,260.2 L398.0,258.6 L400.9,255.3 L399.2,254.0 L398.9,252.1 L403.3,251.1 L409.4,251.6 L411.9,252.7 L411.5,254.7 L414.0,257.2 L414.5,256.6 L412.7,253.4 L410.8,251.8 L407.8,250.6 L412.2,249.8 L412.0,247.8 L415.0,247.3 L416.9,243.4 L420.4,243.0 L417.9,240.1 L415.2,239.2 L411.1,236.5 L414.1,228.9 L415.0,224.9 L414.4,221.0 L416.2,218.9 L416.1,216.5 L414.9,216.3 L413.3,213.8 L411.1,212.2 L410.8,210.9 L408.4,209.8 L406.3,206.0 L402.3,206.7 L400.7,205.8 L400.4,202.1 L397.7,202.2 L400.1,203.9 L398.8,205.1 L396.9,204.6 L395.8,205.7 L395.1,204.2 L396.8,204.5 L394.5,201.3 L392.7,201.3 L393.6,199.1 L392.0,200.3 L392.3,202.1 L389.9,201.0 L390.1,203.1 L387.6,207.0 L386.3,207.8 L385.7,205.0 L384.4,203.4 L385.2,202.4 L387.5,202.2 L388.9,200.4 L387.5,197.9 L381.7,196.3 L378.5,196.0 L379.9,194.7 L379.1,193.4 L376.0,193.7 L375.3,194.5 L373.5,189.7 L372.1,189.0 L370.1,190.5 L367.3,187.8 L365.4,187.3 L365.5,188.7 L364.0,188.4 L363.9,190.1 L366.9,190.0 L369.8,193.7 L369.4,195.7 L365.9,197.6 L364.2,196.1 L362.0,196.7 L358.3,196.4 L355.0,197.1 L356.9,198.2 L358.1,197.9 L361.2,200.6 L360.7,201.4 L356.3,198.8 L352.7,197.9 L356.0,199.6 L354.4,201.7 L352.9,201.9 L349.4,200.4 L346.7,202.2 L341.6,202.6 L338.0,202.1 L336.0,202.7 L339.0,203.6 L336.5,204.1 L332.0,201.6 L331.6,200.0 L330.3,200.7 L329.0,198.9 L328.2,200.2 L329.7,201.5 L325.9,201.6 L325.8,203.0 L323.6,202.1 L325.5,201.9 L321.2,200.6 L316.4,195.1 L317.5,194.4 L315.4,192.5 L317.6,193.0 L319.8,192.3 L321.5,193.3 L326.0,192.5 L326.1,191.6 L323.6,190.2 L322.9,188.6 L321.9,189.5 L313.7,189.4 L312.5,187.8 L312.1,185.6 L312.6,183.2 L310.8,181.3 L310.9,179.0 L312.5,177.4 L310.6,176.3 L310.5,171.7 L311.3,170.9 L310.8,168.4 L312.1,168.7 L311.3,164.6 L311.8,161.4 L313.6,157.0 L315.6,153.7 L319.4,150.9 L322.1,150.1 L325.9,149.8 L327.2,150.5 L327.0,151.7 L325.1,154.6 L324.0,158.0 L322.9,165.5 L323.5,167.9 L325.5,169.6 L326.2,171.0 L325.9,173.9 L326.8,176.7 L328.7,179.3 L332.5,182.6 L335.2,183.2 L336.2,185.2 L334.8,185.5 L333.5,187.3 L331.5,187.9 L330.8,189.5 L328.3,191.2 L330.7,190.6 L332.6,188.0 L336.6,186.8 L337.0,190.2 L337.8,189.2 L336.4,185.0 L336.9,182.0 L335.4,179.3 L333.0,180.2 L331.1,178.8 L330.8,177.2 L328.5,175.9 L330.5,174.6 L329.9,172.0 L331.9,171.7 L336.5,173.9 L332.1,171.1 L331.5,170.0 L329.1,169.3 L327.7,167.1 L326.8,163.4 L327.1,162.1 L328.8,162.1 L333.2,163.1 L328.5,161.2 L327.0,161.4 L328.0,159.3 L331.3,159.7 L333.8,159.4 L330.6,159.1 L327.7,158.1 L328.5,155.5 L330.9,157.4 L329.2,155.3 L335.1,148.4 L340.3,147.1 L342.3,149.2 L344.0,153.2 L346.3,153.6 L347.4,156.9 L349.9,159.0 L349.5,161.6 L350.4,164.3 L349.3,167.4 L351.5,168.3 L349.6,168.9 L351.2,170.1 L352.4,168.7 L351.5,167.0 L352.7,161.6 L354.4,163.5 L355.5,162.3 L357.4,163.5 L358.0,166.2 L357.7,168.0 L360.1,167.9 L358.8,166.7 L358.0,164.0 L358.6,161.8 L362.4,162.1 L358.4,160.8 L358.0,158.5 L360.5,154.9 L363.4,153.9 L365.0,155.0 L371.6,154.4 L374.0,157.2 L373.3,161.4 L374.2,159.1 L377.9,158.3 L379.0,159.6 L379.3,161.8 L376.6,164.8 L378.7,164.6 L378.6,167.8 L380.3,168.1 L379.0,166.3 L379.1,164.3 L381.0,161.7 L382.4,161.3 L382.3,165.7 L383.8,163.9 L384.1,165.6 L387.6,166.7 L387.4,164.6 L387.2,166.0 L386.2,165.9 L384.8,163.8 L385.9,163.3 L386.3,164.9 L386.4,163.3 L387.4,163.8 L387.2,162.8 L385.7,162.6 L387.3,160.6 L392.2,160.6 L395.7,162.8 L395.6,166.0 L393.0,167.1 L393.0,170.4 L393.8,172.0 L397.3,168.2 L397.1,165.9 L398.1,164.1 L400.4,165.8 L400.6,169.2 L399.5,172.0 L398.2,172.0 L398.1,174.1 L399.1,176.5 L398.5,172.6 L400.1,172.3 L402.1,178.1 L400.4,170.7 L403.3,165.2 L404.1,167.2 L402.7,169.9 L404.6,169.1 L405.4,165.9 L407.8,165.4 L411.8,165.5 L412.8,168.5 L409.4,172.3 L408.0,176.0 L409.0,175.8 L408.2,177.8 L410.0,176.4 L409.2,174.1 L412.9,171.0 L413.6,171.6 L412.3,177.7 L414.7,173.8 L415.7,170.8 L414.5,169.9 L414.9,168.0 L418.3,169.0 L421.1,170.7 L423.2,173.2 L420.0,174.1 L418.5,176.1 L418.9,177.3 L418.9,177.3 L418.9,177.3 L418.6,177.3 L416.7,178.1 L415.2,181.2 L417.7,178.5 L421.2,178.7 L422.3,175.7 L423.5,175.8 L423.1,177.4 L424.6,176.7 L427.4,177.1 L429.0,178.8 L424.6,181.4 L421.4,181.0 L417.5,182.4 L422.4,182.2 L420.8,183.2 L425.4,183.3 L424.5,184.9 L427.0,186.5 L420.4,189.4 L422.1,189.5 L426.4,188.5 L425.5,190.4 L430.1,189.0 L433.5,188.7 L433.6,190.3 L435.4,190.6 L437.5,192.9 L436.6,189.9 L437.8,188.7 L439.7,192.6 L440.6,191.0 L442.2,193.6 L441.7,191.4 L443.3,190.0 L444.0,190.9 L445.0,188.0 L446.6,188.1 L445.9,190.9 L447.1,192.1 L447.7,190.0 L449.8,189.7 L454.5,191.1 L454.0,192.4 L455.6,194.0 L452.1,197.5 L455.1,195.6 L453.6,197.9 L456.2,195.4 L456.6,192.4 L460.5,192.0 L460.0,193.9 L461.4,197.1 L462.8,194.8 L464.5,196.5 L464.3,194.1 L467.5,195.8 L465.4,193.8 L465.1,191.9 L467.7,191.4 L472.6,193.1 L472.9,196.4 L471.5,198.4 L474.3,197.2 L472.8,199.7 L470.6,199.4 L468.3,200.2 L470.9,200.8 L470.4,202.4 L472.9,202.0 L474.9,202.9 L473.0,205.0 L474.9,206.3 L475.3,208.8 L472.0,211.5 L469.2,209.8 L471.7,212.3 L471.0,215.0 L474.6,216.8 L476.1,221.2 L473.2,220.7 L472.6,219.0 L470.7,221.3 L468.2,219.1 L469.4,222.3 L465.7,220.2 L462.2,219.0 L462.0,217.5 L460.5,218.1 L459.2,214.9 L460.8,212.0 L460.2,210.9 L458.5,214.2 L456.2,216.1 L454.8,214.3 L450.5,213.0 L448.8,213.4 L447.2,211.7 L444.7,213.1 L447.5,215.3 L446.4,216.2 L442.8,215.6 L444.9,217.8 L449.4,218.8 L450.1,220.1 L446.5,222.7 L445.0,220.6 L442.6,219.7 L441.4,220.6 L445.1,221.7 L443.4,222.0 L445.8,224.8 L448.6,225.7 L448.8,228.1 L450.1,223.8 L451.6,224.0 L451.7,226.3 L453.8,225.6 L455.6,228.9 L455.4,226.4 L457.0,229.6 L458.1,229.7 L460.6,232.4 L458.9,229.6 L462.9,230.0 L463.9,232.4 L463.8,229.2 L466.7,229.6 L467.6,232.0 L468.3,228.9 L469.5,230.1 L468.7,232.1 L471.7,232.1 L471.7,234.2 L470.1,234.6 L474.6,236.2 L474.2,237.2 L477.4,236.0 L477.4,238.3 L478.5,236.6 L479.0,238.1 L480.6,237.4 L484.4,242.4 L480.0,238.6 L477.4,238.7 L477.4,239.3 L480.6,239.5 L483.4,244.2 L481.6,244.1 L478.3,241.0 L478.2,242.6 L485.5,248.6 L484.4,250.0 Z M378.8,306.7 L376.7,308.9 L374.0,304.6 L375.4,301.1 L376.1,297.5 L377.5,298.3 L379.5,296.4 L383.2,294.8 L384.9,294.9 L385.4,297.7 L383.7,300.4 L382.0,304.9 L380.0,307.5 Z M397.3,212.0 L397.4,214.4 L398.7,216.0 L400.1,219.5 L399.6,222.7 L397.6,225.1 L392.1,227.5 L390.1,225.5 L387.9,222.1 L387.7,219.7 L388.2,213.5 L389.7,211.7 L393.3,210.6 L395.9,210.7 Z M240.7,166.4 L239.0,163.5 L236.9,162.3 L238.9,159.1 L244.8,158.8 L247.4,161.7 L246.9,165.4 L243.6,171.9 Z M369.5,283.5 L370.7,286.8 L368.7,289.4 L367.4,289.7 L366.6,294.5 L363.1,298.2 L360.5,297.1 L359.5,292.0 L357.9,290.9 L355.1,292.6 L352.8,293.0 L351.8,294.6 L349.8,294.7 L349.4,292.7 L350.5,289.5 L354.2,286.2 L352.4,283.6 L351.2,279.7 L351.6,274.6 L350.3,269.8 L350.1,262.9 L352.1,260.1 L352.5,261.8 L354.1,261.3 L355.6,263.7 L354.4,265.1 L356.1,265.9 L358.2,268.9 L358.8,264.7 L361.8,266.2 L362.6,267.8 L366.9,267.7 L368.7,269.9 L372.2,271.4 L374.3,270.9 L378.8,273.3 L380.2,276.7 L381.4,276.8 L379.6,280.5 L383.0,278.5 L386.0,278.5 L385.6,276.9 L388.5,278.3 L388.2,279.7 L391.2,279.8 L389.9,281.4 L387.8,286.2 L380.4,285.0 L378.0,285.8 L378.1,283.3 L376.5,282.0 L373.5,283.2 L372.8,279.9 L370.0,281.9 Z M287.6,223.2 L289.2,228.1 L292.5,228.3 L291.1,230.9 L289.6,230.3 L287.3,234.1 L286.2,234.7 L283.4,233.4 L281.2,233.8 L279.5,232.2 L277.6,231.9 L276.8,229.9 L275.5,231.0 L273.7,229.9 L273.0,228.2 L272.0,230.0 L269.8,227.5 L270.3,225.9 L272.8,225.6 L275.8,222.9 L274.6,221.1 L274.8,219.1 L277.6,220.9 L275.7,218.7 L276.3,216.0 L277.6,214.5 L280.9,217.1 L283.2,219.8 Z M364.1,148.2 L364.8,150.2 L365.9,150.5 L365.3,152.0 L360.6,152.9 L357.5,153.8 L354.2,157.3 L352.5,157.7 L350.6,157.1 L348.7,154.7 L347.9,152.1 L345.3,152.2 L344.1,150.1 L343.1,146.2 L344.3,145.0 L348.8,145.6 L353.7,143.3 L358.1,144.0 L359.6,145.8 L361.1,146.0 L362.2,147.8 Z M261.1,179.8 L260.1,181.2 L258.4,180.0 L257.8,177.5 L255.0,175.1 L254.5,172.9 L255.7,169.6 L257.5,169.0 L259.7,171.8 L260.7,174.3 L264.4,174.0 L264.5,172.0 L266.0,170.6 L265.2,168.2 L263.6,168.0 L264.7,165.4 L262.5,166.3 L259.3,163.0 L260.9,161.4 L262.2,161.4 L263.2,163.2 L263.7,161.4 L261.7,160.2 L262.3,158.0 L264.2,157.8 L265.8,158.9 L265.0,156.7 L266.7,156.4 L267.1,157.7 L269.1,159.2 L273.7,157.9 L274.4,156.6 L277.0,157.0 L278.4,158.7 L278.3,160.4 L276.6,161.9 L277.9,163.8 L275.6,165.2 L273.2,169.2 L273.2,171.1 L274.8,169.1 L277.9,170.1 L278.0,171.7 L279.2,172.7 L280.1,170.9 L281.7,174.5 L282.6,177.5 L281.2,179.2 L281.7,180.0 L282.2,186.1 L280.4,186.7 L280.0,188.3 L278.3,189.6 L274.8,189.2 L275.8,191.0 L275.1,192.8 L272.8,194.9 L271.7,193.5 L270.4,193.9 L269.5,191.1 L267.3,186.6 L266.5,186.5 L263.7,182.0 L262.3,182.1 Z M278.7,137.3 L280.5,134.2 L280.8,132.6 L283.9,130.1 L285.8,130.5 L289.7,135.1 L289.5,136.0 L290.7,140.6 L290.4,144.1 L286.1,144.9 L284.6,144.2 L283.6,142.6 L281.3,142.5 L279.3,141.3 L278.3,140.3 Z M260.2,132.4 L259.9,132.0 L255.5,133.6 L255.4,130.9 L257.0,130.3 L256.9,128.1 L258.5,127.6 L260.2,129.4 L258.2,124.9 L260.1,122.4 L257.5,122.9 L257.2,121.8 L258.6,119.4 L260.0,119.7 L261.1,121.1 L261.1,122.6 L263.8,125.2 L264.5,127.3 L265.7,126.8 L264.2,124.1 L266.1,124.2 L265.0,123.1 L263.3,122.7 L264.9,121.5 L263.8,120.4 L262.6,120.5 L261.4,118.6 L263.9,116.5 L266.1,116.6 L267.9,119.2 L268.6,116.7 L273.0,118.5 L272.7,121.0 L273.9,123.4 L273.5,126.4 L273.9,127.7 L272.7,129.5 L274.8,130.4 L274.8,132.8 L275.4,134.4 L273.6,132.1 L272.7,136.2 L274.6,138.2 L273.1,138.9 L272.9,140.2 L267.8,140.9 L267.9,139.0 L266.8,141.2 L264.2,140.7 L263.8,137.4 L265.3,137.5 L262.4,135.7 L263.7,135.3 L262.6,134.5 L265.1,134.1 L264.2,133.1 L265.9,132.8 L265.8,131.2 L269.1,130.2 L263.2,131.3 Z M306.1,130.0 L306.6,129.1 L305.7,127.4 L306.7,126.4 L308.6,128.8 L309.9,126.9 L311.1,128.0 L311.2,126.1 L315.3,128.0 L314.7,129.1 L317.5,127.5 L315.9,126.7 L317.6,124.9 L318.6,125.0 L319.3,123.6 L321.1,123.6 L323.3,119.9 L325.9,120.5 L328.1,118.2 L332.6,117.8 L332.5,119.6 L335.3,118.7 L337.7,120.1 L336.6,121.4 L339.1,120.4 L340.8,122.7 L340.6,124.4 L338.4,127.4 L339.6,127.8 L341.5,126.6 L342.9,128.3 L340.4,131.0 L341.4,132.8 L340.2,134.1 L337.4,135.1 L336.1,137.1 L331.4,137.1 L329.5,133.4 L327.6,133.0 L328.9,134.3 L329.2,137.3 L326.6,139.1 L322.5,140.4 L321.8,139.9 L319.5,141.3 L316.8,141.0 L317.8,141.9 L310.3,143.1 L310.0,139.3 L309.1,137.4 L308.5,141.0 L307.9,139.2 L307.6,142.0 L304.7,143.7 L300.2,141.9 L300.7,139.1 L299.4,141.7 L300.1,143.1 L298.4,143.1 L296.2,141.5 L295.1,136.3 L293.6,135.3 L293.6,130.9 L294.5,129.4 L293.2,125.2 L291.3,123.6 L291.1,122.2 L288.9,118.7 L285.8,120.8 L283.4,120.2 L282.3,121.6 L281.5,120.8 L283.0,119.9 L279.5,119.3 L278.6,117.1 L276.9,115.2 L275.5,115.1 L277.3,113.4 L275.6,112.7 L275.4,110.9 L278.8,109.3 L280.8,110.2 L283.1,110.4 L284.6,111.5 L285.9,110.8 L287.9,113.1 L287.8,117.4 L288.6,114.9 L290.0,115.2 L294.0,113.1 L297.3,114.5 L297.8,115.9 L294.7,115.7 L294.7,116.5 L298.1,116.7 L302.3,117.6 L302.4,119.3 L295.9,120.8 L299.9,121.6 L299.6,122.2 L296.7,122.6 L297.6,124.1 L297.9,122.9 L300.5,123.4 L300.9,122.3 L304.1,124.9 L304.3,127.2 Z M277.5,96.9 L274.6,97.7 L274.3,98.9 L273.5,98.0 L273.8,96.9 L271.2,95.3 L271.5,94.5 L273.8,94.5 L273.9,93.7 L270.9,92.5 L270.1,90.0 L268.9,88.6 L270.0,87.4 L269.0,86.3 L268.8,84.4 L269.4,83.7 L271.5,83.9 L275.5,86.2 L275.3,87.6 L277.0,87.5 L278.8,88.4 L279.9,89.7 L278.4,91.6 L280.1,93.6 L279.8,95.7 Z M247.7,78.3 L248.5,75.8 L249.2,76.4 L253.2,75.6 L255.6,77.6 L256.3,79.6 L256.5,83.0 L256.9,81.0 L259.1,80.0 L261.0,82.2 L260.4,83.9 L261.3,84.6 L262.8,83.7 L264.3,85.7 L263.8,86.6 L265.4,87.2 L264.5,89.6 L264.8,91.6 L265.5,91.8 L267.2,94.9 L267.4,97.7 L266.9,98.5 L264.6,99.5 L262.4,98.3 L261.9,95.0 L260.8,93.2 L257.5,92.0 L255.6,92.7 L254.8,94.4 L254.2,93.3 L255.6,92.4 L255.8,90.6 L253.0,91.4 L252.0,92.5 L250.5,92.0 L249.4,90.6 L248.9,88.4 L250.1,87.3 L253.5,88.6 L253.6,84.3 L252.7,85.0 L251.5,84.3 L252.6,82.9 L252.0,81.3 L250.9,81.7 L249.7,84.0 L249.1,83.6 L250.3,80.8 L249.5,80.1 L247.8,80.5 Z M284.3,85.8 L282.2,83.3 L284.5,83.0 L281.9,82.3 L280.5,80.4 L282.3,78.8 L283.1,77.0 L287.0,76.6 L291.0,74.8 L289.1,74.9 L286.3,76.0 L284.7,75.7 L284.7,74.6 L286.7,73.9 L284.5,73.5 L284.3,72.5 L282.0,74.2 L281.0,75.9 L280.2,74.8 L281.0,73.8 L279.1,73.6 L279.1,74.9 L277.2,75.9 L277.3,74.9 L275.6,74.2 L275.8,71.9 L278.1,70.8 L279.1,68.5 L276.8,70.4 L275.0,70.5 L272.6,67.1 L273.9,66.6 L272.7,66.1 L272.1,63.1 L274.0,64.1 L277.1,64.2 L277.1,63.4 L278.9,62.0 L277.4,61.5 L276.7,62.8 L275.5,63.1 L274.8,61.3 L273.9,62.1 L272.3,61.1 L273.7,59.2 L274.9,59.1 L273.2,57.7 L273.3,56.3 L275.9,55.7 L278.7,56.7 L278.4,55.6 L277.0,55.6 L276.8,53.7 L274.3,52.7 L275.0,51.4 L274.2,51.2 L274.6,49.4 L275.4,48.6 L276.8,49.8 L277.6,48.4 L276.6,47.8 L279.5,47.6 L279.1,45.8 L277.8,46.1 L276.2,45.4 L276.5,43.7 L277.8,44.0 L278.7,43.3 L281.3,44.8 L282.5,46.1 L282.5,47.5 L283.6,48.8 L285.3,52.2 L286.3,52.7 L286.6,54.8 L290.2,54.6 L291.1,55.6 L291.1,58.2 L291.9,59.7 L294.6,60.7 L292.5,58.1 L292.7,55.7 L294.7,55.7 L295.8,59.1 L294.7,60.0 L295.2,61.0 L297.0,60.6 L298.3,62.9 L298.9,67.9 L300.1,66.5 L301.9,67.3 L303.1,66.9 L304.1,68.6 L306.0,70.6 L304.8,73.0 L302.4,75.1 L302.1,76.9 L301.1,75.6 L301.7,77.6 L300.8,81.6 L299.8,81.5 L298.6,77.6 L297.9,77.9 L299.0,81.9 L299.8,82.7 L300.0,85.2 L299.6,88.5 L299.4,85.1 L298.0,83.1 L297.4,83.2 L298.6,85.8 L298.6,89.6 L297.8,89.8 L293.7,83.9 L294.3,86.5 L295.0,87.0 L296.6,90.3 L295.1,89.7 L294.1,88.3 L293.5,89.0 L293.9,91.1 L292.3,91.4 L288.7,90.9 L286.6,89.3 L285.2,87.5 L285.5,86.9 L288.8,85.6 L285.4,84.9 Z M332.8,86.9 L334.5,88.4 L334.0,92.1 L331.8,94.3 L330.1,94.4 L329.3,95.4 L326.5,95.4 L323.2,93.6 L323.1,95.0 L325.2,96.0 L323.4,97.1 L324.2,98.8 L325.7,96.4 L329.5,96.7 L331.2,95.4 L333.2,96.8 L332.9,99.7 L334.5,99.1 L334.6,100.4 L335.8,97.3 L337.3,97.5 L338.7,99.2 L339.4,101.5 L338.1,105.2 L336.6,103.9 L336.1,108.5 L335.3,108.5 L332.3,111.9 L330.6,111.6 L330.9,108.9 L329.9,107.7 L326.6,108.6 L325.6,107.0 L325.9,110.3 L324.2,110.9 L321.0,111.2 L318.6,109.0 L319.1,111.5 L317.5,111.8 L315.9,110.4 L316.8,112.5 L319.1,113.6 L316.2,114.3 L311.9,113.9 L312.0,111.7 L310.9,113.3 L311.0,115.0 L308.4,114.0 L308.0,115.9 L305.1,115.6 L303.4,109.6 L303.2,111.2 L304.5,114.0 L303.4,112.9 L303.4,115.7 L300.3,113.8 L300.8,112.0 L300.0,109.6 L302.2,106.8 L303.3,104.7 L305.6,104.8 L307.3,101.8 L304.6,101.1 L304.3,99.1 L302.1,97.3 L301.6,94.9 L304.3,92.7 L307.7,93.6 L308.8,94.6 L310.1,97.5 L311.7,98.7 L315.0,99.4 L314.2,98.3 L315.9,97.6 L318.0,97.8 L316.4,96.3 L317.5,95.5 L318.2,91.8 L318.4,88.2 L317.3,87.6 L317.1,94.1 L316.0,96.1 L313.3,96.5 L312.6,97.6 L311.2,95.9 L312.8,95.5 L311.1,94.9 L310.9,92.6 L308.9,90.9 L310.3,88.8 L310.1,84.5 L309.5,84.5 L308.8,88.4 L306.7,89.7 L306.4,88.2 L305.3,87.8 L304.9,89.2 L302.7,89.6 L301.7,84.8 L302.3,83.2 L302.4,80.6 L303.0,79.0 L305.4,78.1 L306.5,76.4 L311.1,76.4 L314.4,77.8 L316.2,79.2 L314.9,77.4 L312.7,76.5 L312.5,75.8 L314.9,75.5 L316.5,74.4 L316.5,71.5 L315.5,72.3 L315.3,74.0 L314.3,74.8 L312.8,74.3 L309.1,75.2 L307.4,74.3 L307.7,72.5 L309.5,73.5 L311.1,73.4 L308.0,71.7 L306.7,68.6 L305.3,67.8 L304.5,65.9 L302.5,65.0 L300.0,64.6 L299.7,61.5 L302.7,61.5 L299.3,61.1 L298.2,59.0 L298.2,56.4 L299.5,55.8 L301.2,56.4 L305.1,55.7 L307.6,57.8 L310.9,60.1 L313.5,63.7 L314.0,62.8 L316.2,62.7 L317.8,61.4 L317.9,60.4 L315.2,62.2 L313.3,61.8 L312.0,59.1 L312.3,58.3 L310.2,57.9 L306.3,54.3 L308.9,52.1 L312.6,49.8 L313.1,48.7 L317.5,46.0 L312.8,47.4 L315.3,43.8 L317.4,42.1 L319.5,41.1 L319.1,40.3 L315.9,41.5 L314.2,42.9 L313.3,40.7 L314.4,35.1 L315.3,33.9 L315.4,32.5 L313.3,35.8 L312.3,41.2 L312.8,41.5 L312.6,44.0 L309.8,48.2 L306.1,50.8 L305.2,49.2 L307.1,47.4 L307.0,45.7 L306.0,47.5 L304.4,48.7 L303.2,48.2 L303.8,51.1 L302.5,52.2 L300.8,52.8 L298.2,52.9 L296.4,52.3 L296.5,50.5 L297.5,46.6 L298.6,45.1 L303.8,41.8 L304.4,40.8 L300.6,43.3 L298.0,44.6 L296.5,46.0 L295.2,50.5 L295.0,52.2 L292.8,51.9 L289.1,49.5 L289.1,48.3 L291.1,47.2 L293.0,47.0 L295.1,46.2 L297.2,42.7 L298.6,40.8 L297.4,40.9 L296.2,42.2 L295.1,44.3 L293.3,45.6 L292.1,45.7 L287.6,47.6 L285.9,45.4 L286.6,44.0 L288.0,43.8 L286.5,42.6 L287.9,41.3 L288.4,39.7 L290.4,38.7 L289.2,38.2 L288.1,39.1 L285.1,42.4 L284.1,41.1 L286.4,38.0 L285.3,38.3 L283.8,37.7 L283.5,39.6 L282.5,40.1 L281.1,38.9 L281.8,36.6 L282.8,36.4 L282.7,35.3 L285.2,33.6 L286.4,35.0 L287.1,31.0 L288.4,30.0 L289.9,30.1 L290.4,31.8 L291.3,31.3 L290.8,30.3 L292.6,30.0 L294.8,32.5 L293.7,30.7 L295.8,30.1 L291.0,28.9 L290.5,27.7 L292.8,26.7 L293.3,25.9 L291.8,23.3 L293.9,22.6 L293.6,23.5 L296.5,24.0 L299.0,27.0 L298.8,27.9 L301.0,27.5 L299.9,27.2 L298.4,25.4 L298.2,24.4 L299.6,24.8 L301.8,26.2 L305.8,27.4 L307.6,29.2 L308.3,29.1 L305.9,27.1 L305.9,26.4 L303.3,26.0 L298.3,23.0 L298.2,20.9 L300.2,20.5 L298.2,19.6 L298.2,18.1 L299.7,18.4 L301.2,19.5 L301.7,19.0 L298.6,16.1 L298.6,15.4 L301.1,15.3 L302.1,17.0 L302.2,16.1 L303.9,16.3 L305.0,15.6 L302.0,15.4 L302.0,14.2 L300.6,14.2 L300.6,12.9 L301.9,11.8 L303.1,13.1 L303.1,12.0 L303.9,13.0 L304.9,11.6 L306.6,12.0 L308.8,14.4 L310.5,15.0 L310.8,17.3 L311.2,14.2 L309.6,13.8 L307.4,11.4 L305.4,10.3 L307.3,8.4 L309.3,7.8 L311.1,7.7 L312.7,9.4 L316.0,10.8 L312.6,8.4 L312.8,5.7 L313.3,5.0 L314.9,4.1 L316.1,6.3 L317.9,6.6 L315.8,5.2 L316.3,3.3 L318.2,2.2 L319.2,4.0 L319.8,2.6 L320.4,3.5 L321.6,2.5 L322.0,3.2 L322.8,2.3 L325.1,1.5 L325.6,2.2 L325.1,4.8 L323.6,7.1 L323.7,8.1 L325.6,6.5 L326.9,2.4 L328.1,2.8 L327.6,0.8 L328.2,0.2 L328.8,1.3 L330.0,2.0 L329.8,0.6 L331.1,0.0 L331.7,1.7 L333.9,2.6 L334.8,3.4 L337.2,2.3 L339.0,3.2 L340.4,5.8 L339.6,7.4 L340.2,9.2 L338.9,15.7 L336.7,16.4 L335.9,18.1 L337.3,17.5 L336.8,18.8 L335.4,19.8 L332.7,22.4 L332.3,23.5 L334.5,21.2 L336.3,21.5 L334.5,24.8 L334.1,26.1 L331.8,30.0 L332.9,29.0 L338.2,20.5 L340.0,18.3 L341.1,20.5 L340.7,23.0 L339.8,24.3 L339.9,27.7 L338.6,33.4 L338.4,37.5 L338.9,39.7 L338.5,40.6 L337.0,41.3 L336.1,39.7 L334.5,39.3 L336.5,40.7 L336.8,41.7 L338.5,42.2 L338.5,43.5 L337.1,43.9 L334.8,47.7 L336.2,46.8 L337.8,44.7 L338.7,46.8 L337.4,48.3 L338.9,48.4 L338.6,51.3 L337.2,53.2 L335.2,53.4 L334.2,52.1 L330.8,52.2 L329.6,53.5 L333.2,53.4 L333.6,53.0 L335.7,56.0 L334.1,58.2 L332.4,59.0 L331.2,58.8 L332.0,60.4 L330.6,60.7 L328.3,60.0 L329.8,61.8 L327.4,62.6 L326.0,61.3 L325.4,61.8 L326.5,63.5 L324.9,63.6 L326.6,64.4 L329.6,63.1 L330.4,63.4 L334.3,61.9 L333.7,62.7 L335.4,64.5 L333.9,65.3 L331.3,65.2 L330.2,64.0 L325.1,66.4 L330.6,65.2 L327.4,68.1 L326.2,68.0 L326.5,72.1 L327.2,69.0 L329.5,67.0 L332.3,66.8 L332.5,67.6 L331.2,69.1 L334.2,67.6 L335.9,67.7 L336.7,69.0 L337.3,71.1 L336.1,72.9 L332.9,73.7 L334.5,74.3 L337.7,74.5 L337.3,77.5 L334.2,77.9 L333.6,78.9 L336.1,79.1 L338.0,78.7 L337.8,81.2 L336.6,80.7 L335.4,83.1 L334.3,82.8 L331.2,83.7 L330.8,84.8 L332.6,85.6 L333.7,85.2 Z">
  <desc xmlns="http://www.highcharts.com/svg/namespace">
    <labelrank>2</labelrank>
    <hasc>CA.NU</hasc>
    <alt-name>NULL</alt-name>
    <woe-id>20069920</woe-id>
    <subregion>NULL</subregion>
    <fips>CA10</fips>
    <postal-code>NU</postal-code>
    <name>Nunavut</name>
    <country>Canada</country>
    <type-en>Territory</type-en>
    <region>Northern Canada</region>
    <longitude>-97.1443</longitude>
    <woe-name>Nunavut</woe-name>
    <latitude>64.3853</latitude>
    <woe-label>Nunavut, CA, Canada</woe-label>
    <type>Territoire</type>
    <hc-middle-x>0.36</hc-middle-x>
    <hc-middle-y>0.66</hc-middle-y>
    <hc-key>ca-nu</hc-key>
    <hc-a2>NU</hc-a2>
  </desc>
</path>

<path fill="#CEE3F5" stroke="#6E6E6E" stroke-width="0.4" id="CA.NT" d="M218.4,109.4 L219.1,111.1 L218.2,112.0 L214.3,110.3 L216.1,108.9 Z M131.4,337.7 L105.7,329.5 L103.6,318.6 L105.0,317.5 L105.1,314.9 L99.6,315.5 L96.4,312.7 L95.2,313.6 L89.5,311.7 L90.6,308.0 L91.4,302.0 L89.3,300.5 L87.5,297.0 L86.4,289.9 L84.7,290.1 L82.8,288.4 L82.9,285.3 L84.6,283.6 L83.5,281.1 L83.3,277.2 L85.5,274.8 L84.2,273.9 L83.9,270.3 L86.6,269.0 L86.2,265.3 L86.8,264.4 L84.3,260.2 L84.8,253.4 L83.8,252.2 L80.8,252.2 L82.5,250.7 L81.5,247.5 L79.2,245.1 L82.1,242.5 L80.9,239.9 L82.0,238.6 L86.4,235.9 L86.1,231.6 L87.9,230.9 L87.3,229.3 L84.4,229.5 L85.4,228.4 L82.3,228.1 L81.7,225.7 L83.8,223.3 L82.7,222.4 L85.5,219.9 L85.4,217.1 L86.3,216.4 L86.2,213.4 L87.3,213.7 L75.9,207.4 L76.9,204.9 L78.8,202.9 L79.8,200.4 L79.8,197.7 L88.3,183.1 L89.8,184.4 L91.4,188.8 L92.2,187.5 L92.0,185.2 L90.8,184.6 L91.5,182.0 L93.8,179.7 L96.8,180.4 L97.2,179.5 L99.7,179.8 L100.7,181.4 L103.3,178.2 L103.0,180.9 L104.5,180.4 L104.1,182.4 L100.3,184.4 L104.2,183.9 L106.1,184.9 L109.2,182.3 L110.6,183.5 L111.3,182.0 L114.6,183.3 L117.7,181.7 L117.8,184.0 L120.0,181.6 L122.2,181.0 L125.2,183.3 L127.3,181.3 L127.6,183.6 L126.0,185.1 L120.6,185.9 L117.4,187.8 L117.3,186.6 L112.5,185.9 L110.8,187.9 L109.2,187.9 L107.7,189.6 L108.0,187.7 L105.0,189.8 L103.7,189.5 L101.6,191.5 L104.3,193.8 L105.4,190.0 L111.3,189.4 L113.6,187.5 L115.2,188.0 L115.3,189.9 L117.1,188.3 L115.4,191.7 L120.9,187.4 L127.3,187.8 L126.9,190.4 L131.7,187.7 L132.1,186.1 L133.8,185.4 L136.4,185.8 L134.7,184.2 L134.5,182.8 L135.7,180.8 L135.7,179.1 L137.9,183.8 L138.5,186.4 L137.9,193.7 L139.6,199.8 L141.5,202.0 L143.1,201.5 L142.2,199.2 L143.8,200.2 L143.0,198.2 L143.7,197.0 L145.5,196.9 L147.1,194.5 L147.0,193.3 L150.4,192.4 L148.9,194.7 L149.0,196.4 L148.0,198.2 L149.9,198.8 L146.5,203.0 L148.7,203.3 L150.0,204.4 L153.0,203.4 L154.4,199.7 L155.7,199.1 L159.9,200.8 L162.6,202.4 L165.2,206.3 L159.0,227.5 L159.1,227.8 L195.7,272.5 L206.2,274.1 L211.8,282.9 L213.8,284.9 L218.1,286.3 L255.7,295.3 L257.2,295.7 L257.0,355.4 L257.0,355.4 L200.6,351.8 Z M198.7,119.6 L200.3,119.3 L202.7,117.5 L203.3,118.2 L200.4,122.8 L197.1,125.6 L194.7,123.4 Z M219.9,91.4 L219.7,92.4 L221.2,94.4 L221.4,95.8 L219.3,97.0 L217.6,94.3 L217.1,92.7 Z M222.8,175.3 L221.9,174.2 L222.9,174.9 Z M223.2,172.2 L223.1,173.4 L222.7,172.8 Z M223.3,171.5 L221.4,170.1 L220.8,167.5 L223.7,168.2 Z M229.0,126.1 L228.9,125.8 L229.1,125.6 Z M229.7,121.0 L228.5,119.7 L228.8,117.8 L230.2,117.2 Z M228.4,131.0 L227.2,141.1 L224.5,141.9 L224.7,142.7 L220.1,145.4 L216.9,146.1 L214.5,146.0 L212.1,144.9 L209.8,140.9 L210.8,139.9 L213.9,139.3 L216.9,137.6 L221.6,138.0 L224.4,134.8 L222.7,135.5 L218.9,135.9 L219.3,134.8 L216.3,135.9 L212.7,135.6 L214.1,131.8 L215.8,131.0 L213.2,131.3 L210.9,135.3 L208.7,136.3 L207.9,135.7 L208.3,133.2 L205.9,135.7 L204.2,133.9 L204.6,131.8 L202.9,132.7 L200.0,130.9 L200.4,128.6 L202.1,127.2 L206.3,128.1 L208.3,126.9 L209.5,127.0 L210.6,125.6 L206.3,126.7 L202.4,125.8 L204.3,123.0 L211.6,123.4 L211.8,122.8 L207.0,122.4 L205.3,121.6 L206.3,120.7 L205.8,119.3 L206.8,117.9 L208.2,117.6 L212.2,118.9 L211.3,117.8 L209.6,117.4 L209.5,115.7 L211.2,114.4 L215.0,114.5 L215.7,115.1 L215.8,119.3 L219.4,118.7 L221.1,120.6 L221.0,122.6 L222.9,124.2 L221.2,125.4 L223.8,125.9 L223.4,129.3 L223.8,130.7 L226.6,130.3 Z M233.2,93.2 L232.9,95.7 L230.1,96.3 L230.3,97.9 L232.2,97.9 L232.2,100.0 L231.3,102.0 L229.1,103.1 L227.8,102.6 L224.9,103.8 L223.8,102.9 L223.5,101.4 L221.9,100.2 L222.7,94.6 L226.0,93.5 L231.0,92.9 Z M234.3,84.4 L234.3,84.7 L233.6,89.8 L232.6,90.3 L231.1,89.6 L230.3,88.4 L229.2,90.0 L228.1,89.9 L227.2,88.1 L224.2,89.2 L223.6,88.1 L224.1,87.2 L227.7,85.4 L228.7,85.7 L230.9,83.8 L233.2,83.0 Z M222.8,175.8 L218.4,211.0 L206.2,209.2 L206.0,211.4 L204.0,211.3 L204.3,208.9 L183.9,204.7 L183.5,206.3 L185.1,210.5 L184.1,210.0 L182.5,207.9 L182.4,204.5 L185.1,203.1 L189.8,202.8 L198.9,203.3 L202.2,204.4 L206.3,206.3 L208.6,205.6 L208.0,204.2 L210.9,205.4 L209.0,202.5 L205.7,201.2 L203.1,198.7 L200.9,197.8 L199.9,198.3 L187.0,198.2 L188.0,196.7 L185.5,195.9 L185.1,196.9 L181.8,191.8 L181.6,189.0 L184.8,187.6 L186.3,187.8 L193.1,186.5 L192.8,185.7 L195.1,185.0 L196.4,186.1 L196.5,184.9 L194.9,184.4 L186.6,185.0 L183.9,184.3 L183.6,182.8 L184.6,182.1 L186.8,182.1 L185.3,180.4 L183.4,181.2 L183.4,180.0 L180.8,179.8 L181.0,177.6 L182.0,175.5 L184.4,173.0 L187.1,172.4 L187.4,171.3 L185.8,169.1 L188.3,166.6 L189.8,166.0 L192.7,163.5 L194.8,163.3 L198.2,161.8 L201.0,161.2 L205.6,159.4 L206.8,160.3 L207.5,163.6 L206.3,168.2 L203.3,170.5 L204.3,171.3 L205.5,170.4 L207.1,171.1 L208.7,169.7 L208.0,169.1 L209.3,167.1 L211.1,165.9 L214.8,168.2 L218.1,171.3 L217.4,173.5 L214.6,175.8 L215.2,177.2 L216.8,175.7 L218.0,177.7 L218.0,175.9 L219.9,173.8 L221.3,174.1 Z M184.3,138.5 L186.6,141.4 L190.2,143.4 L190.1,146.5 L191.9,143.7 L194.7,143.5 L197.0,144.8 L198.6,147.4 L201.2,153.3 L202.2,154.3 L202.9,157.4 L200.8,158.8 L197.6,159.5 L193.8,161.6 L184.2,165.6 L182.3,169.4 L180.0,170.5 L178.0,169.8 L178.1,171.3 L176.1,173.4 L175.3,177.1 L173.3,179.7 L169.4,180.2 L168.6,178.6 L165.7,180.8 L160.7,181.9 L160.0,179.1 L160.2,175.9 L159.4,172.0 L157.3,169.7 L155.6,166.7 L152.9,165.6 L154.1,163.7 L158.1,159.4 L159.9,158.8 L161.1,154.4 L163.6,154.7 L162.9,151.9 L164.0,151.3 L166.2,148.0 L168.3,146.8 L168.9,145.2 L170.5,144.1 L169.5,142.4 L169.4,138.9 L170.0,135.4 L169.6,134.8 L175.5,135.3 L178.1,135.9 L182.4,135.9 L183.9,137.0 Z M211.8,97.6 L214.2,101.4 L214.2,102.1 L210.5,104.0 L210.7,105.4 L212.0,106.8 L210.9,107.6 L210.7,110.6 L208.9,112.0 L206.1,112.2 L206.0,114.8 L204.3,115.8 L202.5,113.2 L203.9,109.1 L204.8,108.0 L202.8,107.6 L202.1,108.2 L202.2,110.6 L199.6,111.1 L200.4,113.6 L199.2,114.2 L198.6,115.7 L197.2,116.3 L197.4,112.6 L196.3,113.6 L196.1,117.1 L194.1,119.3 L193.2,118.4 L191.9,118.8 L192.7,117.2 L191.9,116.4 L192.5,114.5 L192.0,113.5 L190.9,115.3 L190.6,117.1 L189.3,117.1 L188.0,114.6 L187.1,114.4 L185.6,115.6 L185.1,114.5 L186.1,113.1 L185.9,111.8 L184.5,112.5 L185.6,110.8 L187.9,108.9 L190.8,109.4 L193.3,106.5 L196.3,105.2 L198.0,102.7 L201.0,100.6 L201.7,99.3 L203.5,98.7 L206.6,99.1 L208.3,101.1 L210.5,100.0 L209.1,98.6 Z">
  <desc xmlns="http://www.highcharts.com/svg/namespace">
    <labelrank>2</labelrank>
    <hasc>CA.NT</hasc>
    <alt-name>Territoires du Nord-Ouest</alt-name>
    <woe-id>2344920</woe-id>
    <subregion>NULL</subregion>
    <fips>CA13</fips>
    <postal-code>NT</postal-code>
    <name>Northwest Territories</name>
    <country>Canada</country>
    <type-en>Territory</type-en>
    <region>Northern Canada</region>
    <longitude>-119.942</longitude>
    <woe-name>Northwest Territories</woe-name>
    <latitude>64.0831</latitude>
    <woe-label>Northwest Territories, CA, Canada</woe-label>
    <type>Territoire</type>
    <hc-middle-x>0.42</hc-middle-x>
    <hc-middle-y>0.76</hc-middle-y>
    <hc-key>ca-nt</hc-key>
    <hc-a2>NT</hc-a2>
  </desc>
</path>

<path fill="#CEE3F5" stroke="#6E6E6E" stroke-width="0.4" id="CA.AB" d="M131.4,337.7 L200.6,351.8 L181.1,506.7 L181.1,506.8 L157.3,503.3 L143.1,500.8 L142.2,497.8 L140.8,497.3 L138.5,491.3 L140.1,488.7 L140.4,480.4 L139.0,477.1 L137.2,477.0 L136.4,474.1 L134.1,471.8 L134.7,470.2 L131.7,467.1 L128.0,456.5 L125.5,457.2 L123.8,450.3 L121.3,450.2 L119.8,447.7 L120.8,446.1 L118.9,444.4 L116.9,445.6 L117.2,441.1 L115.4,437.7 L115.0,434.1 L113.4,431.9 L112.8,433.3 L111.1,431.9 L110.7,429.5 L107.9,427.8 L107.3,424.7 L108.6,425.2 L107.6,421.1 Z">
  <desc xmlns="http://www.highcharts.com/svg/namespace">
    <labelrank>2</labelrank>
    <hasc>CA.AB</hasc>
    <alt-name>NULL</alt-name>
    <woe-id>2344915</woe-id>
    <subregion>Prairies</subregion>
    <fips>CA01</fips>
    <postal-code>AB</postal-code>
    <name>Alberta</name>
    <country>Canada</country>
    <type-en>Province</type-en>
    <region>Western Canada</region>
    <longitude>-115</longitude>
    <woe-name>Alberta</woe-name>
    <latitude>55.2816</latitude>
    <woe-label>Alberta, CA, Canada</woe-label>
    <type>Province</type>
    <hc-middle-x>0.46</hc-middle-x>
    <hc-middle-y>0.50</hc-middle-y>
    <hc-key>ca-ab</hc-key>
    <hc-a2>AB</hc-a2>
  </desc>
</path>

<path fill="#CEE3F5" stroke="#6E6E6E" stroke-width="0.4" id="CA.NL" d="M593.5,322.8 L593.6,325.6 L592.0,327.0 L589.8,332.6 L587.1,334.5 L586.2,336.4 L587.8,339.3 L583.8,339.1 L581.1,339.9 L588.3,339.5 L587.8,342.8 L588.8,343.1 L590.0,338.5 L593.8,331.6 L592.8,330.9 L593.0,328.2 L596.4,322.7 L594.1,323.7 L594.6,321.7 L599.8,318.2 L606.1,321.5 L604.6,324.8 L606.3,324.2 L607.2,326.2 L607.8,323.6 L606.4,322.4 L609.9,317.5 L610.1,319.4 L616.0,318.4 L617.4,317.1 L618.8,320.1 L620.5,320.6 L619.8,323.8 L622.0,323.5 L625.1,326.1 L622.9,329.8 L625.7,327.8 L627.6,327.7 L627.5,329.9 L630.4,331.5 L630.4,334.9 L627.9,342.1 L628.3,344.7 L627.0,347.1 L621.8,340.6 L574.6,374.9 L571.8,371.1 L568.5,370.9 L568.6,369.0 L572.0,365.2 L569.5,364.9 L566.4,368.0 L566.9,370.2 L568.8,372.1 L571.1,377.5 L570.1,377.6 L572.6,380.6 L571.9,383.6 L568.8,382.6 L565.6,384.4 L560.8,382.0 L557.4,384.7 L553.4,383.3 L553.9,385.4 L551.7,383.5 L552.5,382.6 L550.4,380.1 L551.2,379.3 L547.0,374.7 L546.3,376.8 L546.8,377.9 L547.1,378.7 L546.5,381.2 L541.8,380.6 L539.5,378.0 L542.5,376.6 L540.9,372.1 L536.7,372.1 L533.5,369.8 L529.8,368.3 L530.0,365.7 L527.5,363.3 L528.8,361.5 L528.1,360.2 L530.5,360.6 L530.1,356.8 L525.3,354.1 L532.7,355.1 L529.3,349.2 L529.8,348.3 L534.0,350.1 L537.6,349.6 L539.9,351.1 L541.5,349.7 L542.3,345.7 L545.8,345.9 L548.0,344.8 L551.6,345.3 L554.2,343.3 L551.9,342.5 L551.3,340.2 L553.0,339.8 L550.9,335.7 L549.8,335.4 L550.9,332.5 L548.0,334.0 L545.9,330.1 L543.6,328.8 L545.5,325.9 L541.3,327.7 L540.4,325.2 L538.7,325.4 L537.6,323.9 L539.3,322.6 L535.8,320.8 L535.9,317.3 L534.1,312.8 L531.1,307.5 L528.0,307.7 L522.7,304.1 L524.0,298.2 L522.3,298.6 L521.2,296.7 L523.9,294.3 L521.5,293.2 L520.0,296.3 L517.9,295.5 L514.0,297.1 L513.6,295.6 L516.5,294.7 L513.4,291.6 L512.4,288.2 L511.4,290.1 L509.2,289.6 L507.8,286.3 L507.7,284.2 L505.5,283.9 L506.8,281.9 L504.2,281.1 L505.3,279.9 L505.3,279.9 L505.3,279.9 L505.3,279.9 L507.7,280.4 L507.8,281.7 L510.5,281.8 L512.8,285.3 L515.0,285.1 L516.9,287.0 L515.5,288.4 L519.1,286.9 L521.3,288.1 L520.3,291.6 L521.9,289.2 L526.8,290.6 L528.5,292.1 L527.5,296.2 L529.4,295.6 L531.5,292.9 L533.6,297.1 L531.1,299.1 L532.0,301.2 L532.3,298.7 L534.9,296.3 L538.5,298.3 L540.3,297.1 L542.9,297.3 L542.9,298.6 L540.0,298.6 L542.4,300.9 L545.3,300.5 L544.4,302.8 L544.8,305.1 L547.2,305.3 L550.0,303.9 L550.7,308.8 L549.3,309.8 L550.8,311.7 L545.1,312.9 L550.5,312.2 L556.5,310.9 L551.1,313.6 L551.1,315.0 L555.8,312.6 L555.2,314.7 L552.2,316.5 L553.8,316.8 L557.5,314.1 L559.4,315.7 L559.5,313.5 L561.5,315.0 L562.4,317.1 L567.9,314.8 L567.7,316.7 L571.6,318.0 L571.9,325.0 L573.1,319.3 L574.2,320.1 L575.1,317.0 L576.8,319.6 L578.9,317.5 L578.4,322.6 L579.5,318.5 L579.4,315.8 L581.4,315.3 L584.7,318.2 L592.6,314.2 L594.7,314.4 L596.0,313.1 L598.4,313.8 L596.9,317.3 L593.8,320.1 L594.3,321.4 Z M593.5,322.8 L593.5,322.5 L593.1,323.4 L593.1,323.4 L593.1,323.4 L593.1,323.4 L592.0,325.3 L588.4,329.7 L589.3,329.6 L592.4,325.3 L593.1,323.4 L593.1,323.4 L593.1,323.4 L593.1,323.4 Z M551.2,306.2 L552.0,308.3 L554.0,309.7 L551.4,309.5 Z M683.6,374.2 L683.6,374.4 L683.4,374.3 L683.4,374.3 L683.6,374.2 L683.6,374.2 Z M683.6,374.2 L682.9,370.2 L684.5,373.8 L683.6,374.2 L683.6,374.2 Z M505.9,278.2 L505.9,278.8 L505.7,279.2 L505.6,278.6 Z M505.8,279.4 L507.1,279.5 L505.3,279.9 L505.3,279.9 Z M505.3,279.9 L505.2,279.9 L505.3,279.9 L505.3,279.9 L505.3,279.9 L505.3,279.9 L505.3,279.9 Z M677.1,379.3 L678.5,376.6 L678.1,374.4 L676.3,377.6 L673.2,377.4 L675.1,380.8 L671.6,383.9 L671.7,381.4 L668.1,383.4 L663.9,388.9 L659.0,391.0 L656.1,393.6 L653.3,394.3 L646.3,402.2 L644.3,402.7 L641.3,400.2 L642.5,390.3 L643.5,387.4 L640.7,388.4 L637.2,392.6 L638.0,388.7 L640.5,387.8 L639.5,386.3 L637.9,380.1 L641.8,379.9 L640.0,378.5 L640.9,376.7 L638.0,377.6 L636.8,375.4 L638.4,372.6 L636.3,371.0 L634.6,363.9 L631.6,354.8 L632.7,351.6 L630.6,346.0 L634.0,337.6 L634.6,339.3 L637.2,335.7 L638.3,339.9 L634.7,341.4 L636.3,343.2 L638.7,341.8 L639.6,343.2 L642.1,360.5 L645.6,366.3 L645.0,361.3 L646.0,359.7 L645.1,355.6 L646.9,357.7 L648.1,355.4 L649.8,355.7 L651.0,353.3 L651.9,354.3 L649.9,360.1 L651.6,358.8 L651.9,363.5 L653.0,360.9 L655.7,361.0 L655.7,359.1 L658.7,358.5 L660.1,360.7 L662.7,357.2 L662.7,352.0 L664.5,352.9 L666.2,350.2 L672.6,349.1 L673.4,352.2 L672.0,354.7 L675.9,359.1 L679.2,357.7 L678.8,355.4 L681.0,355.4 L680.4,352.5 L682.1,352.9 L683.0,356.8 L681.5,357.7 L681.6,360.3 L684.5,368.0 L688.3,367.9 L686.7,365.4 L685.7,361.0 L687.6,357.8 L689.6,365.0 L691.9,366.7 L692.6,362.7 L691.3,360.3 L695.2,361.9 L696.2,365.9 L700.0,371.9 L699.5,375.3 L698.1,374.6 L697.2,377.8 L694.7,376.5 L691.8,372.1 L691.7,379.1 L689.8,379.2 L687.2,371.7 L682.4,368.0 L680.5,368.3 L682.2,374.1 L683.3,374.3 L683.3,374.3 L682.5,374.7 L681.1,377.6 L680.0,377.5 L680.4,381.9 L681.6,385.7 L678.5,389.5 L676.5,390.3 L675.5,387.9 L677.8,384.7 Z">
  <desc xmlns="http://www.highcharts.com/svg/namespace">
    <labelrank>2</labelrank>
    <hasc>CA.NF</hasc>
    <alt-name>Newfoundland|Terre-Neuve|Terre-Neuve-et-Labrador</alt-name>
    <woe-id>2344919</woe-id>
    <subregion>Atlantic Canada</subregion>
    <fips>CA05</fips>
    <postal-code>NL</postal-code>
    <name>Newfoundland and Labrador</name>
    <country>Canada</country>
    <type-en>Province</type-en>
    <region>Eastern Canada</region>
    <longitude>-56.2169</longitude>
    <woe-name>Newfoundland and Labrador</woe-name>
    <latitude>48.6598</latitude>
    <woe-label>Newfoundland and Labrador, CA, Canada</woe-label>
    <type>Province</type>
    <hc-middle-x>0.31</hc-middle-x>
    <hc-middle-y>0.61</hc-middle-y>
    <hc-key>ca-nl</hc-key>
    <hc-a2>NL</hc-a2>
  </desc>
</path>

<path fill="#CEE3F5" stroke="#6E6E6E" stroke-width="0.4" id="CA.SK" d="M200.6,351.8 L257.0,355.4 L256.8,414.5 L262.4,511.7 L252.3,511.7 L181.1,506.8 L181.1,506.7 Z">
  <desc xmlns="http://www.highcharts.com/svg/namespace">
    <labelrank>2</labelrank>
    <hasc>CA.SK</hasc>
    <alt-name>NULL</alt-name>
    <woe-id>2344925</woe-id>
    <subregion>Prairies</subregion>
    <fips>CA11</fips>
    <postal-code>SK</postal-code>
    <name>Saskatchewan</name>
    <country>Canada</country>
    <type-en>Province</type-en>
    <region>Western Canada</region>
    <longitude>-105.682</longitude>
    <woe-name>Saskatchewan</woe-name>
    <latitude>54.4965</latitude>
    <woe-label>Saskatchewan, CA, Canada</woe-label>
    <type>Province</type>
    <hc-middle-x>0.55</hc-middle-x>
    <hc-middle-y>0.51</hc-middle-y>
    <hc-key>ca-sk</hc-key>
    <hc-a2>SK</hc-a2>
  </desc>
</path>

<path fill="#CEE3F5" stroke="#6E6E6E" stroke-width="0.4" id="CA.MB" d="M257.0,355.4 L307.8,352.9 L307.8,352.9 L307.8,352.9 L308.2,357.8 L309.3,362.0 L309.2,366.6 L312.4,370.5 L313.9,369.1 L321.7,369.1 L322.3,372.1 L325.5,378.1 L326.2,381.0 L329.8,387.8 L328.4,393.6 L329.9,392.3 L331.9,392.2 L340.5,387.4 L343.9,387.3 L350.3,389.8 L357.3,390.3 L351.0,400.6 L342.2,415.0 L334.0,428.2 L326.1,440.9 L315.5,454.2 L320.3,503.2 L320.7,508.6 L262.4,511.7 L256.8,414.5 L257.0,357.0 Z">
  <desc xmlns="http://www.highcharts.com/svg/namespace">
    <labelrank>2</labelrank>
    <hasc>CA.MB</hasc>
    <alt-name>NULL</alt-name>
    <woe-id>2344917</woe-id>
    <subregion>Prairies</subregion>
    <fips>CA03</fips>
    <postal-code>MB</postal-code>
    <name>Manitoba</name>
    <country>Canada</country>
    <type-en>Province</type-en>
    <region>Western Canada</region>
    <longitude>-97.3828</longitude>
    <woe-name>Manitoba</woe-name>
    <latitude>54.85</latitude>
    <woe-label>Manitoba, CA, Canada</woe-label>
    <type>Province</type>
    <hc-middle-x>0.37</hc-middle-x>
    <hc-middle-y>0.43</hc-middle-y>
    <hc-key>ca-mb</hc-key>
    <hc-a2>MB</hc-a2>
  </desc>
</path>

<path fill="#CEE3F5" stroke="#6E6E6E" stroke-width="0.4" id="CA.QC" d="M546.8,377.9 L547.0,374.7 L551.2,379.3 L550.4,380.1 L552.5,382.6 L551.7,383.5 L553.9,385.4 L553.4,383.3 L557.4,384.7 L560.8,382.0 L565.6,384.4 L568.8,382.6 L571.9,383.6 L572.6,380.6 L568.8,372.1 L566.4,368.0 L569.5,364.9 L572.0,365.2 L568.6,369.0 L568.5,370.9 L571.8,371.1 L574.6,374.9 L621.8,340.6 L627.0,347.1 L625.2,346.9 L622.4,349.6 L621.7,352.9 L619.6,354.6 L617.5,362.0 L619.1,364.0 L617.5,368.2 L617.1,374.5 L615.8,377.5 L610.2,380.7 L604.9,387.2 L602.7,386.5 L592.3,392.5 L590.8,394.7 L587.2,395.4 L584.2,398.1 L582.1,398.6 L579.2,401.2 L576.0,402.4 L570.4,408.0 L567.3,408.6 L566.2,410.6 L564.8,417.3 L566.5,422.4 L566.3,424.5 L561.1,428.2 L559.8,430.7 L561.3,431.0 L558.4,433.7 L556.5,439.6 L556.4,447.2 L554.4,450.5 L552.0,449.8 L542.2,451.8 L545.0,452.2 L547.3,451.0 L551.8,450.3 L555.1,450.7 L555.8,456.0 L555.0,460.9 L553.2,462.7 L553.4,467.9 L551.9,470.3 L550.2,475.7 L545.8,478.6 L543.5,481.9 L541.7,486.8 L538.7,489.7 L538.3,492.3 L541.3,489.0 L542.3,485.6 L546.2,478.7 L547.6,478.6 L550.6,475.3 L552.5,469.9 L552.2,472.6 L555.6,468.5 L557.0,460.3 L560.2,446.2 L564.5,437.1 L574.0,423.7 L576.6,420.7 L581.5,416.8 L586.6,414.4 L590.8,413.8 L595.0,414.6 L596.5,415.9 L592.7,416.3 L597.6,417.5 L597.6,421.1 L595.3,423.9 L595.9,425.8 L592.0,431.6 L588.3,432.0 L586.6,431.2 L585.9,433.7 L582.3,435.7 L580.4,438.7 L576.6,442.9 L574.0,442.4 L569.8,444.8 L568.0,446.9 L570.5,451.6 L569.9,453.9 L566.6,458.2 L565.8,456.5 L563.8,457.2 L562.3,470.0 L563.6,474.0 L563.8,479.5 L565.0,480.8 L565.2,484.4 L563.8,487.7 L563.9,493.0 L562.3,492.2 L559.7,494.4 L559.9,498.7 L530.0,512.9 L531.9,511.0 L537.1,502.9 L538.4,502.5 L537.7,497.5 L538.2,493.0 L537.4,498.3 L537.6,502.4 L533.9,504.0 L535.0,505.0 L532.1,508.4 L530.4,507.7 L529.6,503.9 L526.8,503.9 L521.3,507.5 L516.7,512.2 L514.4,511.3 L511.9,513.0 L508.4,512.7 L505.4,509.3 L504.3,511.1 L495.7,508.3 L485.2,509.9 L481.7,508.2 L474.6,502.2 L471.5,497.7 L471.5,495.9 L455.5,450.3 L457.7,451.7 L455.4,450.0 L453.5,444.6 L453.0,443.2 L453.5,440.1 L454.8,441.6 L457.4,441.8 L459.2,444.5 L458.4,439.1 L455.6,437.7 L455.9,434.9 L457.6,431.9 L457.2,428.2 L455.5,426.0 L453.3,425.0 L452.6,422.8 L450.0,420.7 L448.6,415.8 L446.6,414.6 L445.2,407.4 L443.9,405.5 L441.2,406.2 L439.1,402.9 L436.1,401.1 L444.9,392.4 L448.3,387.3 L451.2,380.1 L450.7,379.8 L452.5,373.5 L452.2,370.3 L449.9,363.8 L446.7,357.6 L443.0,352.9 L439.7,349.9 L434.4,347.3 L430.9,346.9 L425.7,344.5 L424.8,341.4 L426.0,339.7 L426.3,336.2 L427.8,334.4 L426.4,332.0 L426.0,329.2 L428.8,326.3 L427.3,325.2 L428.1,323.5 L425.1,323.7 L426.3,322.2 L422.6,319.2 L423.3,317.1 L420.9,316.6 L421.8,314.5 L420.0,315.3 L417.7,314.4 L418.8,310.7 L417.2,305.8 L418.5,304.8 L415.9,302.5 L415.0,303.0 L413.1,300.7 L410.6,295.5 L413.2,290.1 L416.6,289.5 L426.5,289.7 L427.8,288.3 L432.1,289.0 L431.9,287.6 L433.7,286.8 L436.8,281.8 L440.6,282.8 L442.2,284.0 L445.2,283.6 L446.4,285.8 L449.0,285.5 L451.7,287.4 L453.9,286.7 L453.8,290.2 L458.8,292.2 L465.1,290.9 L467.0,289.5 L469.5,291.7 L470.4,287.4 L473.2,290.4 L471.9,292.9 L472.2,295.2 L473.9,297.6 L475.6,298.2 L476.0,301.6 L472.6,303.0 L471.1,304.5 L476.3,302.0 L478.3,302.6 L479.4,306.8 L481.5,309.8 L482.3,308.5 L484.5,309.2 L483.3,311.7 L485.9,310.1 L486.5,311.3 L483.9,312.3 L485.4,314.3 L483.1,317.4 L485.1,319.2 L485.3,316.5 L486.6,313.6 L489.5,311.7 L493.2,311.9 L495.9,314.2 L497.7,319.7 L497.5,321.4 L494.8,324.2 L493.8,326.4 L497.7,321.7 L498.0,319.9 L496.4,314.3 L500.9,313.5 L501.9,317.4 L504.2,310.2 L505.7,308.7 L505.2,303.8 L509.8,305.1 L507.5,303.7 L508.2,298.3 L506.2,296.4 L508.4,294.8 L505.7,293.0 L506.2,292.0 L504.0,290.1 L505.1,287.5 L505.0,285.3 L503.4,279.9 L505.8,279.4 L505.3,279.9 L505.3,279.9 L505.3,279.9 L505.3,279.9 L505.3,279.9 L505.3,279.9 L505.3,279.9 L505.3,279.9 L505.3,279.9 L505.3,279.9 L504.2,281.1 L506.8,281.9 L505.5,283.9 L507.7,284.2 L507.8,286.3 L509.2,289.6 L511.4,290.1 L512.4,288.2 L513.4,291.6 L516.5,294.7 L513.6,295.6 L514.0,297.1 L517.9,295.5 L520.0,296.3 L521.5,293.2 L523.9,294.3 L521.2,296.7 L522.3,298.6 L524.0,298.2 L522.7,304.1 L528.0,307.7 L531.1,307.5 L534.1,312.8 L535.9,317.3 L535.8,320.8 L539.3,322.6 L537.6,323.9 L540.4,325.2 L541.3,327.7 L545.5,325.9 L543.6,328.8 L545.9,330.1 L548.0,334.0 L550.9,332.5 L549.8,335.4 L550.9,335.7 L553.0,339.8 L551.3,340.2 L551.9,342.5 L554.2,343.3 L551.6,345.3 L548.0,344.8 L545.8,345.9 L542.3,345.7 L541.5,349.7 L539.9,351.1 L537.6,349.6 L534.0,350.1 L529.8,348.3 L529.3,349.2 L532.7,355.1 L525.3,354.1 L530.1,356.8 L530.5,360.6 L528.1,360.2 L527.5,363.3 L530.0,365.7 L529.8,368.3 L533.5,369.8 L536.7,372.1 L540.9,372.1 L542.5,376.6 L539.5,378.0 L541.8,380.6 L546.5,381.2 Z M585.4,403.5 L587.6,401.4 L594.4,399.0 L602.6,397.3 L606.7,397.9 L609.7,396.9 L613.1,399.0 L609.2,402.2 L601.3,404.7 L596.2,405.4 L594.8,404.2 L591.3,403.7 L586.4,404.6 Z">
  <desc xmlns="http://www.highcharts.com/svg/namespace">
    <labelrank>2</labelrank>
    <hasc>CA.QC</hasc>
    <alt-name>Lower Canada</alt-name>
    <woe-id>2344924</woe-id>
    <subregion>Qubec</subregion>
    <fips>CA10</fips>
    <postal-code>QC</postal-code>
    <name>Qubec</name>
    <country>Canada</country>
    <type-en>Province</type-en>
    <region>Eastern Canada</region>
    <longitude>-73.71680000000001</longitude>
    <woe-name>Qubec</woe-name>
    <latitude>52.2593</latitude>
    <woe-label>Quebec, CA, Canada</woe-label>
    <type>Province</type>
    <hc-middle-x>0.38</hc-middle-x>
    <hc-middle-y>0.41</hc-middle-y>
    <hc-key>ca-qc</hc-key>
    <hc-a2>QC</hc-a2>
  </desc>
</path>

<path fill="#CEE3F5" stroke="#6E6E6E" stroke-width="0.4" id="CA.ON" d="M455.4,450.0 L452.4,447.5 L451.9,444.8 L453.0,443.2 L453.5,444.6 Z M532.1,508.4 L531.2,510.9 L530.0,512.9 L528.5,513.4 L525.5,517.0 L521.6,525.9 L519.4,528.7 L515.8,530.9 L513.3,536.0 L509.0,538.0 L507.4,537.2 L498.1,542.7 L493.8,545.6 L490.8,549.4 L489.3,554.9 L490.6,555.8 L494.5,555.3 L496.8,553.1 L497.6,555.7 L499.8,557.2 L497.3,559.1 L492.1,561.1 L487.7,563.8 L485.4,568.0 L480.6,568.1 L476.3,569.8 L472.9,574.6 L472.9,576.6 L468.0,580.2 L467.5,583.8 L465.8,582.4 L462.9,584.0 L460.4,583.5 L459.9,580.1 L466.4,577.6 L466.0,575.3 L464.1,575.7 L464.2,567.8 L466.2,566.2 L469.2,560.7 L466.0,551.0 L466.5,547.1 L468.4,542.2 L466.0,537.3 L461.4,534.4 L465.3,533.4 L466.8,536.7 L469.9,536.2 L469.1,539.1 L470.8,538.3 L471.8,541.3 L473.0,539.0 L480.5,540.2 L480.7,536.8 L478.3,536.1 L480.3,534.3 L482.9,534.6 L477.5,531.1 L477.3,528.2 L474.1,528.5 L467.6,522.3 L463.6,523.5 L458.3,522.2 L453.4,523.9 L450.8,523.8 L445.0,525.6 L435.5,525.9 L437.1,527.1 L436.1,529.6 L432.6,525.2 L432.8,523.8 L428.1,524.8 L427.2,519.9 L424.6,519.1 L425.3,514.1 L420.1,510.8 L420.6,506.3 L419.6,505.7 L415.1,507.5 L410.8,507.7 L408.2,505.7 L405.0,500.2 L402.9,498.0 L400.0,498.1 L394.9,499.8 L387.4,498.3 L385.2,498.8 L387.1,501.1 L388.3,499.9 L392.0,500.7 L388.5,501.5 L386.7,504.2 L383.6,506.4 L385.4,503.0 L383.6,501.1 L382.6,508.2 L381.3,505.7 L377.9,508.2 L377.7,513.0 L375.5,515.2 L371.8,515.7 L369.7,514.5 L363.9,515.7 L362.3,514.2 L358.0,517.6 L355.3,517.2 L351.5,514.3 L348.4,516.2 L345.3,512.3 L339.4,511.7 L334.9,513.9 L333.6,512.3 L330.1,512.5 L325.4,510.8 L323.6,504.0 L320.3,503.2 L315.5,454.2 L326.1,440.9 L334.0,428.2 L342.2,415.0 L351.0,400.6 L357.3,390.3 L363.0,393.7 L365.8,394.4 L370.1,399.3 L375.1,399.8 L381.1,401.4 L386.1,402.0 L388.7,403.9 L391.2,404.2 L391.3,405.9 L393.1,404.7 L395.8,404.7 L400.9,402.1 L403.3,402.6 L414.7,401.2 L416.3,404.9 L416.4,411.5 L417.0,413.7 L419.2,415.4 L421.2,418.6 L421.3,421.6 L423.4,425.8 L422.7,426.9 L423.2,430.5 L431.5,435.5 L431.9,437.5 L434.7,439.7 L438.3,440.1 L442.8,443.0 L445.8,447.3 L448.8,447.2 L452.7,448.5 L455.5,450.3 L471.5,495.9 L471.5,497.7 L474.6,502.2 L481.7,508.2 L485.2,509.9 L495.7,508.3 L504.3,511.1 L505.4,509.3 L508.4,512.7 L511.9,513.0 L514.4,511.3 L516.7,512.2 L521.3,507.5 L526.8,503.9 L529.6,503.9 L530.4,507.7 Z M459.0,531.1 L449.5,530.0 L441.3,530.9 L442.1,529.0 L444.9,529.4 L447.4,527.6 L448.5,529.5 L452.7,525.6 L454.5,527.6 L455.7,525.2 L458.2,527.3 L460.1,527.4 Z">
  <desc xmlns="http://www.highcharts.com/svg/namespace">
    <labelrank>2</labelrank>
    <hasc>CA.ON</hasc>
    <alt-name>Upper Canada</alt-name>
    <woe-id>2344922</woe-id>
    <subregion>Ontario</subregion>
    <fips>CA08</fips>
    <postal-code>ON</postal-code>
    <name>Ontario</name>
    <country>Canada</country>
    <type-en>Province</type-en>
    <region>Eastern Canada</region>
    <longitude>-84.79430000000001</longitude>
    <woe-name>Ontario</woe-name>
    <latitude>50.5244</latitude>
    <woe-label>Ontario, CA, Canada</woe-label>
    <type>Province</type>
    <hc-middle-x>0.29</hc-middle-x>
    <hc-middle-y>0.37</hc-middle-y>
    <hc-key>ca-on</hc-key>
    <hc-a2>ON</hc-a2>
  </desc>
</path>

<path fill="#CEE3F5" stroke="#6E6E6E" stroke-width="0.4" id="CA.NB" d="M619.1,448.8 L618.4,449.8 L618.4,452.0 L617.5,454.4 L615.7,452.6 L615.9,457.2 L612.3,462.3 L609.0,468.5 L607.3,468.7 L605.4,472.9 L604.3,472.3 L601.5,475.6 L600.0,474.2 L596.6,476.6 L594.7,475.8 L593.3,472.4 L588.1,471.2 L587.0,468.8 L579.2,455.4 L573.7,453.4 L568.6,458.7 L566.6,458.2 L569.9,453.9 L570.5,451.6 L568.0,446.9 L569.8,444.8 L574.0,442.4 L576.6,442.9 L580.4,438.7 L583.6,435.5 L584.7,435.9 L589.6,434.7 L592.9,436.7 L595.3,432.7 L600.1,430.3 L599.4,426.5 L600.8,428.8 L599.6,432.4 L600.6,435.0 L600.7,439.8 L599.5,442.5 L604.0,439.6 L604.9,442.5 L613.2,448.4 L620.5,445.8 Z">
  <desc xmlns="http://www.highcharts.com/svg/namespace">
    <labelrank>2</labelrank>
    <hasc>CA.NB</hasc>
    <alt-name>Nouveau-Brunswick|Acadia</alt-name>
    <woe-id>2344918</woe-id>
    <subregion>Atlantic Canada</subregion>
    <fips>CA04</fips>
    <postal-code>NB</postal-code>
    <name>New Brunswick</name>
    <country>Canada</country>
    <type-en>Province</type-en>
    <region>Eastern Canada</region>
    <longitude>-66.4558</longitude>
    <woe-name>New Brunswick</woe-name>
    <latitude>46.5822</latitude>
    <woe-label>New Brunswick, CA, Canada</woe-label>
    <type>Province</type>
    <hc-middle-x>0.59</hc-middle-x>
    <hc-middle-y>0.51</hc-middle-y>
    <hc-key>ca-nb</hc-key>
    <hc-a2>NB</hc-a2>
  </desc>
</path>

<path fill="#CEE3F5" stroke="#6E6E6E" stroke-width="0.4" id="CA.NS" d="M618.4,452.0 L618.4,449.8 L619.1,448.8 L622.0,448.8 L624.7,447.1 L627.7,447.9 L628.5,445.8 L633.2,444.3 L635.5,444.6 L637.8,438.2 L639.6,440.2 L642.6,439.7 L643.3,438.0 L647.0,439.6 L646.2,441.8 L650.1,439.4 L650.1,441.5 L645.6,445.5 L644.2,449.9 L641.2,453.2 L638.1,459.3 L636.8,458.2 L636.5,461.2 L633.6,462.5 L635.4,464.6 L628.1,467.7 L629.9,471.2 L629.1,479.8 L627.7,483.3 L625.7,484.2 L626.3,485.9 L623.6,488.7 L619.5,485.9 L618.2,488.0 L614.8,484.2 L613.7,480.4 L614.5,476.3 L613.0,476.9 L618.7,463.8 L621.8,458.7 L623.3,461.4 L626.6,455.8 L630.0,452.7 L627.7,453.6 L619.1,458.8 L616.7,461.8 L616.1,460.4 Z M646.4,432.7 L645.5,434.7 L649.3,433.5 L648.6,432.2 L649.4,428.0 L647.8,431.1 L646.7,430.7 L646.8,425.7 L647.6,423.4 L652.8,422.4 L654.4,424.1 L652.5,432.1 L649.2,437.1 L645.4,438.6 L643.2,437.6 L639.7,434.2 L639.9,426.7 L638.8,421.3 L639.0,417.0 L640.9,415.9 L644.6,420.4 L645.7,425.9 L646.8,424.8 L646.0,429.2 Z">
  <desc xmlns="http://www.highcharts.com/svg/namespace">
    <labelrank>2</labelrank>
    <hasc>CA.NS</hasc>
    <alt-name>Acadia|Nouvelle-cosse</alt-name>
    <woe-id>2344921</woe-id>
    <subregion>Atlantic Canada</subregion>
    <fips>CA07</fips>
    <postal-code>NS</postal-code>
    <name>Nova Scotia</name>
    <country>Canada</country>
    <type-en>Province</type-en>
    <region>Eastern Canada</region>
    <longitude>-62.8113</longitude>
    <woe-name>Nova Scotia</woe-name>
    <latitude>45.2293</latitude>
    <woe-label>Nova Scotia, CA, Canada</woe-label>
    <type>Province</type>
    <hc-middle-x>0.23</hc-middle-x>
    <hc-middle-y>0.80</hc-middle-y>
    <hc-key>ca-ns</hc-key>
    <hc-a2>NS</hc-a2>
  </desc>
</path>

<path fill="#CEE3F5" stroke="#6E6E6E" stroke-width="0.4" id="CA.PE" d="M629.3,442.4 L627.4,442.2 L626.8,440.3 L624.3,442.8 L620.8,443.7 L618.5,442.2 L615.2,444.2 L613.6,441.9 L610.6,442.4 L611.1,435.5 L612.5,439.5 L618.4,441.3 L618.0,439.6 L622.6,439.4 L628.1,434.5 L632.7,431.7 L630.3,435.0 L631.9,440.7 Z">
  <desc xmlns="http://www.highcharts.com/svg/namespace">
    <labelrank>2</labelrank>
    <hasc>CA.PE</hasc>
    <alt-name>le de Saint-Jean|le du Prince-douard</alt-name>
    <woe-id>2344923</woe-id>
    <subregion>Atlantic Canada</subregion>
    <fips>CA09</fips>
    <postal-code>PE</postal-code>
    <name>Prince Edward Island</name>
    <country>Canada</country>
    <type-en>Province</type-en>
    <region>Eastern Canada</region>
    <longitude>-63.3862</longitude>
    <woe-name>Prince Edward Island</woe-name>
    <latitude>46.3417</latitude>
    <woe-label>Prince Edward Island, CA, Canada</woe-label>
    <type>Province</type>
    <hc-middle-x>0.76</hc-middle-x>
    <hc-middle-y>0.48</hc-middle-y>
    <hc-key>ca-pe</hc-key>
    <hc-a2>PE</hc-a2>
  </desc>
</path>

<path fill="#CEE3F5" stroke="#6E6E6E" stroke-width="0.4" id="CA.YT" d="M105.7,329.5 L9.0,282.7 L8.9,282.6 L8.7,281.3 L11.3,278.3 L8.1,276.5 L4.7,276.7 L3.1,273.9 L1.9,274.4 L0.0,271.3 L74.3,161.8 L77.2,164.6 L78.6,165.2 L81.0,168.6 L81.0,170.4 L82.7,175.9 L85.2,180.7 L87.0,183.0 L88.3,183.1 L79.8,197.7 L79.8,200.4 L78.8,202.9 L76.9,204.9 L75.9,207.4 L87.3,213.7 L86.2,213.4 L86.3,216.4 L85.4,217.1 L85.5,219.9 L82.7,222.4 L83.8,223.3 L81.7,225.7 L82.3,228.1 L85.4,228.4 L84.4,229.5 L87.3,229.3 L87.9,230.9 L86.1,231.6 L86.4,235.9 L82.0,238.6 L80.9,239.9 L82.1,242.5 L79.2,245.1 L81.5,247.5 L82.5,250.7 L80.8,252.2 L83.8,252.2 L84.8,253.4 L84.3,260.2 L86.8,264.4 L86.2,265.3 L86.6,269.0 L83.9,270.3 L84.2,273.9 L85.5,274.8 L83.3,277.2 L83.5,281.1 L84.6,283.6 L82.9,285.3 L82.8,288.4 L84.7,290.1 L86.4,289.9 L87.5,297.0 L89.3,300.5 L91.4,302.0 L90.6,308.0 L89.5,311.7 L95.2,313.6 L96.4,312.7 L99.6,315.5 L105.1,314.9 L105.0,317.5 L103.6,318.6 Z">
  <desc xmlns="http://www.highcharts.com/svg/namespace">
    <labelrank>2</labelrank>
    <hasc>CA.YT</hasc>
    <alt-name>Yukon Territory|Territoire du Yukon|Yukon|Yukn</alt-name>
    <woe-id>2344926</woe-id>
    <subregion>NULL</subregion>
    <fips>CA12</fips>
    <postal-code>YT</postal-code>
    <name>Yukon</name>
    <country>Canada</country>
    <type-en>Territory</type-en>
    <region>Northern Canada</region>
    <longitude>-135.7</longitude>
    <woe-name>Yukon</woe-name>
    <latitude>63.6088</latitude>
    <woe-label>Yukon Territory, CA, Canada</woe-label>
    <type>Territoire</type>
    <hc-middle-x>0.47</hc-middle-x>
    <hc-middle-y>0.52</hc-middle-y>
    <hc-key>ca-yt</hc-key>
    <hc-a2>YT</hc-a2>
  </desc>
</path>
</g>

<text x="350" y="714" text-anchor="middle" font-family="Verdana" font-size="8" stroke-opacity="0.6">Copyright (c) 2020 Highsoft AS, Based on data from Natural Earth</text>

</svg>