<?xml version="1.0" encoding="utf-8" standalone="no"?>
<!DOCTYPE svg PUBLIC "-//W3C//DTD SVG 1.1//EN" "http://www.w3.org/Graphics/SVG/1.1/DTD/svg11.dtd">

<svg version="1.1" height="700pt" width="700pt" xmlns="http://www.w3.org/2000/svg" xmlns:xlink="http://www.w3.org/1999/xlink">
<desc>
Map version: 2.1.0
Copyright (c) 2023 Highsoft AS, Adapted from Statistics Canada, Boundary files, 2011 Census. This does not constitute an endorsement by Statistics Canada of this product.
</desc>
<title>Nova Scotia</title>
<g id="admin2">

<g id="CA.NS">
  <desc xmlns="http://www.highcharts.com/svg/namespace">
    <labelrank>2</labelrank>
    <hasc>CA.NS</hasc>
    <alt-name>Acadia|Nouvelle-Écosse</alt-name>
    <woe-id>2344921</woe-id>
    <subregion>Atlantic Canada</subregion>
    <fips>CA07</fips>
    <postal-code>NS</postal-code>
    <name>Nova Scotia</name>
    <country>Canada</country>
    <type-en>Province</type-en>
    <region>Eastern Canada</region>
    <longitude>-62.8113</longitude>
    <woe-name>Nova Scotia</woe-name>
    <latitude>45.2293</latitude>
    <woe-label>Nova Scotia, CA, Canada</woe-label>
    <type>Province</type>
    <hc-key>ca-ns</hc-key>
    <hc-a2>NS</hc-a2>
  </desc>
</g>

<g id="CA">
  <desc xmlns="http://www.highcharts.com/svg/namespace">
    <name>Canada</name>
    <labelrank>2</labelrank>
    <country-abbrev>Can.</country-abbrev>
    <subregion>Northern America</subregion>
    <region-wb>North America</region-wb>
    <iso-a3>CAN</iso-a3>
    <iso-a2>CA</iso-a2>
    <woe-id>23424775</woe-id>
    <continent>North America</continent>
    <hc-key>ca</hc-key>
    <hc-a2>CA</hc-a2>
  </desc>
</g>

<path fill="#CEE3F5" stroke="#6E6E6E" stroke-width="0.4" id="CA.NS.1217" d="M692.5,171.1 L689.4,174.4 L691.1,177.2 L687.5,175.9 L687.0,177.3 L681.2,176.3 L682.0,175.3 L687.4,173.8 L689.5,171.5 Z M678.3,159.9 L673.2,166.5 L672.0,166.8 L671.7,163.0 L673.0,161.4 Z M592.3,205.9 L596.0,200.4 L599.4,198.2 L602.0,195.1 L606.4,192.3 L609.9,187.1 L617.5,181.4 L618.7,177.5 L614.4,181.2 L608.5,184.4 L600.5,186.5 L595.8,190.4 L594.5,192.5 L588.4,194.7 L586.3,193.8 L585.7,190.2 L583.9,189.2 L580.8,190.1 L579.4,188.6 L580.0,186.2 L582.4,185.8 L587.3,181.5 L590.0,178.1 L595.7,175.0 L602.2,169.5 L608.0,165.6 L614.6,157.9 L616.6,157.3 L620.0,149.5 L622.5,148.2 L627.2,147.8 L629.2,141.8 L624.6,145.8 L620.9,143.9 L616.3,147.3 L612.5,152.9 L610.7,154.4 L608.2,151.6 L616.9,142.3 L619.0,138.6 L620.1,139.0 L623.7,131.8 L628.9,129.7 L630.0,133.3 L631.6,134.0 L633.3,139.3 L637.9,140.3 L637.1,144.5 L632.6,150.6 L628.6,154.4 L628.1,156.7 L636.3,151.1 L638.6,157.8 L639.8,153.1 L638.8,149.0 L642.1,142.8 L646.1,139.1 L656.3,142.3 L651.1,146.2 L653.4,147.6 L658.9,145.3 L664.0,145.7 L666.0,150.2 L665.0,153.7 L667.0,151.4 L671.5,149.1 L678.6,151.8 L674.5,153.5 L673.6,156.3 L669.7,162.7 L671.8,164.2 L671.3,168.2 L668.1,170.5 L664.8,170.4 L663.5,172.5 L665.4,175.8 L671.1,176.6 L676.5,174.6 L678.5,175.9 L676.1,177.9 L678.9,179.7 L681.1,183.2 L680.4,184.7 L675.3,184.3 L674.2,185.7 L670.4,186.5 L669.3,188.9 L665.1,191.2 L663.3,189.6 L661.4,192.8 L663.2,193.3 L658.9,196.1 L654.3,196.5 L647.7,195.0 L643.7,199.2 L644.5,201.5 L646.6,200.9 L649.3,204.0 L653.7,204.3 L653.3,206.6 L649.9,209.9 L644.6,209.9 L641.1,212.2 L638.7,218.6 L617.1,212.5 Z">
  <desc xmlns="http://www.highcharts.com/svg/namespace">
    <name>Cape Breton</name>
    <type>CTY</type>
    <hc-middle-x>0.47</hc-middle-x>
    <hc-middle-y>0.52</hc-middle-y>
    <hc-key>ca-ns-1217</hc-key>
    <hc-a2>CB</hc-a2>
  </desc>
</path>

<path fill="#CEE3F5" stroke="#6E6E6E" stroke-width="0.4" id="CA.NS.1201" d="M79.2,541.3 L80.8,543.5 L83.2,543.9 L84.2,547.0 L77.9,554.0 L73.8,549.4 L78.1,547.1 L78.2,542.2 Z M103.3,539.7 L107.2,542.1 L105.7,543.4 L103.9,542.1 Z M98.0,537.1 L100.7,538.7 L101.1,545.3 L99.0,546.0 L99.0,540.5 Z M147.8,491.1 L148.4,495.5 L149.9,495.4 L152.7,502.1 L150.0,505.2 L150.2,507.0 L147.1,509.5 L145.4,506.6 L142.6,507.4 L143.3,512.5 L140.4,513.8 L141.4,516.4 L136.1,516.2 L136.4,508.2 L134.0,509.8 L133.7,513.7 L132.4,513.2 L131.2,516.5 L130.5,522.5 L128.7,519.6 L129.3,509.7 L126.9,511.0 L125.8,516.1 L121.8,507.5 L119.5,500.6 L119.7,506.0 L117.9,503.9 L120.5,511.9 L119.0,516.7 L119.6,518.9 L116.8,521.5 L113.1,519.3 L112.4,521.1 L116.2,526.0 L114.6,527.5 L112.3,525.9 L111.9,521.0 L109.4,520.4 L107.2,525.7 L108.8,528.0 L106.8,529.6 L108.4,533.1 L106.6,534.9 L107.0,539.1 L104.6,533.6 L102.4,537.3 L99.7,534.6 L97.3,530.4 L95.6,536.5 L96.2,539.6 L93.0,543.0 L94.4,546.2 L93.6,551.2 L91.3,548.8 L91.9,546.5 L90.4,543.9 L86.6,542.4 L84.5,539.0 L85.8,538.6 L82.8,533.6 L79.8,536.3 L78.7,540.5 L73.8,542.4 L74.0,545.5 L70.5,542.5 L66.3,544.3 L65.2,540.6 L65.9,536.1 L65.3,532.6 L64.0,532.2 L64.6,537.0 L61.4,535.3 L60.4,533.0 L61.3,528.8 L67.3,528.2 L79.4,522.9 L75.9,507.2 L85.1,482.0 L86.4,482.1 L93.3,465.8 L104.6,437.3 L131.8,470.7 Z">
  <desc xmlns="http://www.highcharts.com/svg/namespace">
    <name>Shelburne</name>
    <type>CTY</type>
    <hc-middle-x>0.49</hc-middle-x>
    <hc-middle-y>0.51</hc-middle-y>
    <hc-key>ca-ns-1201</hc-key>
    <hc-a2>SH</hc-a2>
  </desc>
</path>

<path fill="#CEE3F5" stroke="#6E6E6E" stroke-width="0.4" id="CA.NS.1209" d="M691.6,476.6 L687.6,478.8 L682.0,480.0 L670.4,480.6 L666.0,480.1 L664.0,478.9 L668.5,479.2 L682.9,478.2 L688.3,476.9 L692.1,475.1 L696.1,472.1 L700.0,467.9 L695.6,473.7 Z M300.4,383.2 L302.1,384.6 L303.7,388.4 L299.2,383.9 Z M385.1,288.8 L390.8,292.6 L400.9,300.5 L411.0,307.9 L417.8,313.7 L422.9,315.9 L424.4,318.1 L438.9,329.0 L442.0,332.1 L442.6,334.6 L440.2,338.5 L440.3,335.6 L437.7,336.1 L432.8,333.7 L433.9,337.0 L431.5,339.1 L424.7,342.5 L423.2,339.5 L422.6,342.6 L424.0,344.3 L420.3,343.9 L419.8,341.4 L415.9,345.5 L418.4,347.5 L414.6,348.4 L415.2,349.7 L410.4,350.2 L412.8,352.5 L410.7,353.8 L409.1,351.5 L410.7,349.6 L410.0,344.5 L408.2,342.7 L403.0,339.7 L408.7,345.0 L406.4,349.9 L403.9,351.6 L400.3,348.1 L401.1,351.6 L399.7,352.8 L403.0,359.9 L400.9,358.3 L398.6,352.6 L397.6,355.0 L394.8,354.1 L391.3,359.4 L391.1,361.3 L388.0,358.1 L385.5,358.2 L384.8,360.2 L380.1,360.4 L381.0,362.0 L375.1,361.0 L372.0,356.3 L368.8,356.2 L371.7,358.0 L372.8,360.2 L376.6,363.2 L372.6,366.5 L374.3,369.1 L376.5,369.9 L374.5,371.4 L370.4,371.4 L369.7,368.3 L361.8,369.0 L357.0,373.1 L355.0,371.8 L356.1,369.9 L353.9,366.7 L355.1,364.1 L354.6,361.6 L351.0,361.0 L351.3,364.4 L349.3,361.4 L348.0,362.0 L351.5,367.7 L354.9,369.7 L353.2,374.4 L350.7,376.7 L349.5,374.7 L346.9,374.0 L340.2,373.9 L338.4,372.4 L339.9,367.1 L340.3,361.4 L339.5,361.3 L337.9,367.0 L339.3,368.0 L336.4,371.9 L337.2,374.0 L333.4,376.1 L333.3,372.2 L331.3,371.5 L329.9,367.6 L328.7,369.6 L330.3,375.7 L329.3,377.9 L325.2,381.8 L317.4,381.3 L312.9,380.3 L313.6,375.6 L311.9,377.1 L308.4,375.4 L307.9,377.6 L311.4,380.1 L312.0,385.6 L308.8,384.1 L309.8,387.4 L308.6,388.8 L299.4,381.5 L297.2,378.1 L291.9,375.1 L296.2,379.9 L297.4,383.4 L296.0,384.7 L299.0,389.2 L297.4,393.5 L301.4,401.7 L298.0,406.5 L294.4,407.9 L294.8,405.1 L292.7,404.9 L290.1,410.4 L287.9,411.5 L289.6,405.9 L287.2,406.9 L280.7,405.0 L282.1,407.4 L279.8,408.7 L278.8,406.7 L275.0,403.5 L275.1,398.3 L273.7,402.1 L275.0,405.2 L272.1,406.0 L270.3,403.8 L273.6,398.1 L272.3,396.7 L270.3,401.8 L269.5,398.3 L267.0,397.8 L268.0,402.8 L263.4,401.0 L264.7,403.3 L259.8,402.7 L257.8,400.6 L257.5,393.1 L260.6,389.4 L258.1,386.5 L260.2,380.2 L258.2,381.9 L259.7,378.5 L261.6,377.5 L261.2,375.4 L259.2,377.4 L254.8,379.1 L252.3,378.9 L247.7,382.8 L246.1,382.4 L246.1,382.4 L246.0,382.3 L246.0,382.3 L245.9,382.2 L245.6,381.9 L245.4,381.7 L245.4,381.7 L245.5,381.2 L245.1,381.4 L245.1,381.4 L240.5,376.8 L227.2,362.9 L265.9,358.3 L268.0,359.3 L271.1,355.7 L272.9,351.4 L277.4,344.2 L287.0,338.0 L294.4,336.2 L296.6,339.7 L299.1,337.1 L300.1,338.8 L302.4,334.7 L304.8,334.3 L309.3,328.7 L310.9,328.8 L310.4,323.9 L312.2,320.5 L315.2,321.0 L315.1,324.5 L317.1,323.1 L318.4,324.7 L321.0,323.7 L353.5,307.4 L370.1,298.0 L374.8,293.5 L380.4,291.5 L385.1,288.8 L385.1,288.8 L385.1,288.8 Z">
  <desc xmlns="http://www.highcharts.com/svg/namespace">
    <name>Halifax</name>
    <type>CTY</type>
    <hc-middle-x>0.29</hc-middle-x>
    <hc-middle-y>0.24</hc-middle-y>
    <hc-key>ca-ns-1209</hc-key>
    <hc-a2>HA</hc-a2>
  </desc>
</path>

<path fill="#CEE3F5" stroke="#6E6E6E" stroke-width="0.4" id="CA.NS.1218" d="M640.0,1.2 L639.4,4.6 L637.2,4.7 L639.2,0.0 Z M560.0,187.5 L560.2,182.3 L566.0,177.9 L569.2,177.1 L567.0,174.6 L573.6,172.5 L574.1,174.3 L572.3,177.8 L576.3,172.6 L578.0,172.6 L583.5,169.6 L585.3,170.0 L580.9,177.9 L578.6,180.1 L578.2,188.1 L572.6,189.0 L571.8,190.6 L568.4,192.2 L565.3,191.9 L562.3,193.0 L560.1,188.4 L560.1,187.9 Z M610.7,154.4 L606.8,157.2 L601.3,163.1 L599.2,166.4 L593.7,169.4 L592.4,168.6 L593.6,165.5 L599.6,160.3 L602.1,154.5 L604.3,151.4 L607.4,149.5 L611.6,143.4 L614.8,140.7 L616.2,137.7 L618.8,135.1 L623.7,131.8 L620.1,139.0 L619.0,138.6 L616.9,142.3 L608.2,151.6 Z M599.0,29.7 L601.6,29.4 L603.8,32.9 L608.3,32.7 L613.4,27.7 L616.3,30.2 L614.8,33.6 L609.9,39.5 L609.0,43.2 L604.1,46.9 L605.9,48.6 L609.9,46.9 L611.6,49.7 L608.7,50.7 L610.6,52.7 L613.8,51.0 L618.9,52.1 L620.5,49.9 L624.8,53.0 L625.1,57.6 L623.0,60.8 L624.5,64.3 L623.2,71.6 L620.8,74.9 L622.2,76.6 L621.1,78.2 L617.2,78.7 L616.4,82.6 L618.4,83.4 L617.7,85.4 L614.5,87.4 L618.0,86.7 L621.7,87.2 L621.4,89.6 L616.5,98.7 L615.6,103.1 L614.0,105.9 L611.7,113.1 L611.9,116.3 L609.7,120.3 L605.7,124.9 L606.3,128.6 L601.1,139.1 L596.1,141.0 L599.1,142.1 L598.2,147.2 L599.3,149.1 L602.2,143.8 L604.4,136.8 L608.6,133.7 L613.4,128.7 L616.7,129.2 L616.2,135.2 L611.3,140.5 L608.2,145.3 L604.2,148.8 L599.9,157.1 L595.9,158.7 L597.4,160.1 L594.0,162.9 L587.5,166.2 L588.0,161.1 L583.6,166.4 L574.8,170.0 L572.6,168.9 L570.8,171.0 L567.7,168.4 L568.1,171.7 L565.3,172.9 L561.2,178.6 L560.7,180.9 L553.3,164.2 L560.2,149.5 L565.7,138.5 L582.4,106.4 L590.0,72.1 Z">
  <desc xmlns="http://www.highcharts.com/svg/namespace">
    <name>Victoria</name>
    <type>CTY</type>
    <hc-middle-x>0.47</hc-middle-x>
    <hc-middle-y>0.59</hc-middle-y>
    <hc-key>ca-ns-1218</hc-key>
    <hc-a2>VI</hc-a2>
  </desc>
</path>

<path fill="#CEE3F5" stroke="#6E6E6E" stroke-width="0.4" id="CA.NS.1203" d="M5.8,425.8 L4.7,429.6 L5.6,430.3 L2.6,433.0 L0.0,433.0 L4.2,426.8 Z M19.8,409.2 L19.7,413.5 L11.0,426.5 L7.2,431.4 L8.3,428.1 L6.6,427.3 L12.1,420.1 L18.1,410.8 Z M23.9,468.2 L21.9,464.2 L22.9,462.7 L21.8,457.7 L20.2,455.1 L18.2,455.7 L22.3,442.1 L24.9,439.9 L27.4,432.3 L27.3,428.0 L29.2,422.7 L29.6,418.2 L35.3,412.5 L39.6,405.2 L45.3,398.8 L47.8,397.1 L48.3,398.5 L53.8,393.6 L59.2,386.7 L57.5,383.8 L52.5,386.3 L49.8,384.9 L45.0,387.8 L43.1,390.5 L37.8,394.3 L33.8,399.5 L28.4,404.7 L21.5,413.3 L20.8,409.0 L30.5,397.0 L32.5,396.2 L38.1,389.4 L48.3,380.6 L52.3,379.6 L56.6,375.9 L63.2,371.7 L66.1,369.0 L69.7,373.4 L79.2,382.8 L81.0,387.6 L96.1,406.2 L111.7,425.9 L108.6,430.8 L104.6,437.3 L52.5,449.3 Z">
  <desc xmlns="http://www.highcharts.com/svg/namespace">
    <name>Digby</name>
    <type>CTY</type>
    <hc-middle-x>0.59</hc-middle-x>
    <hc-middle-y>0.50</hc-middle-y>
    <hc-key>ca-ns-1203</hc-key>
    <hc-a2>DI</hc-a2>
  </desc>
</path>

<path fill="#CEE3F5" stroke="#6E6E6E" stroke-width="0.4" id="CA.NS.1206" d="M211.1,441.5 L211.6,445.0 L213.4,442.7 L215.6,444.5 L214.6,447.3 L210.7,445.6 L209.0,446.3 Z M235.1,405.5 L235.8,406.8 L232.4,408.9 L232.9,406.6 Z M228.4,418.2 L228.5,419.4 L222.7,417.7 L225.2,416.5 Z M246.0,382.3 L245.1,388.9 L247.6,391.0 L249.7,395.7 L250.8,400.2 L246.5,398.3 L244.4,401.1 L244.7,403.3 L242.9,405.6 L239.6,404.3 L238.2,399.1 L239.2,396.1 L235.5,390.4 L234.0,390.8 L233.0,388.1 L232.0,389.9 L229.9,389.5 L228.8,392.6 L229.3,395.5 L226.1,395.8 L222.8,393.1 L219.4,392.4 L220.7,394.6 L218.4,394.2 L220.0,399.4 L217.4,405.8 L219.6,405.8 L214.8,408.5 L211.7,408.0 L215.3,410.0 L216.3,412.3 L218.4,412.9 L217.2,414.7 L224.7,415.2 L220.1,416.1 L221.8,417.7 L228.7,419.7 L226.5,422.4 L220.3,421.1 L219.6,419.2 L217.6,421.7 L215.2,420.6 L215.9,424.3 L220.1,427.7 L218.2,424.9 L224.1,426.5 L224.2,427.8 L220.4,428.2 L219.2,430.3 L221.4,432.2 L226.6,431.0 L224.2,433.2 L225.4,435.8 L223.1,434.9 L221.2,436.6 L216.9,435.2 L214.7,431.5 L212.3,435.7 L210.5,436.0 L207.9,439.1 L205.1,440.0 L205.1,444.5 L201.5,447.4 L200.4,446.9 L200.4,451.1 L199.1,453.0 L194.9,450.7 L191.3,450.2 L186.6,444.7 L160.0,411.7 L161.1,410.8 L162.1,405.7 L152.9,394.1 L152.9,394.1 L152.9,394.1 L171.2,376.1 L197.1,350.7 L197.7,351.3 L207.3,342.4 L209.0,344.1 L227.2,362.9 L240.5,376.8 L245.1,381.4 L245.4,381.7 Z M245.4,381.7 L245.7,382.1 L245.9,382.2 L245.6,381.9 Z M192.3,450.9 L192.3,450.6 L192.3,451.0 Z M191.3,450.3 L191.4,450.3 L191.5,450.4 Z M246.1,382.4 L246.0,382.4 L246.0,382.3 L246.1,382.4 Z">
  <desc xmlns="http://www.highcharts.com/svg/namespace">
    <name>Lunenburg</name>
    <type>CTY</type>
    <hc-middle-x>0.46</hc-middle-x>
    <hc-middle-y>0.41</hc-middle-y>
    <hc-key>ca-ns-1206</hc-key>
    <hc-a2>LU</hc-a2>
  </desc>
</path>

<path fill="#CEE3F5" stroke="#6E6E6E" stroke-width="0.4" id="CA.NS.1202" d="M37.1,517.6 L37.9,521.3 L36.0,521.5 L35.8,517.6 Z M47.9,499.5 L51.0,507.2 L47.1,503.6 L45.8,503.4 Z M47.5,507.5 L48.6,510.3 L46.9,508.6 L44.6,502.7 L46.5,504.7 Z M104.6,437.3 L93.3,465.8 L86.4,482.1 L85.1,482.0 L75.9,507.2 L79.4,522.9 L67.3,528.2 L61.3,528.8 L62.7,523.5 L63.3,517.7 L61.7,513.7 L60.3,515.4 L59.1,521.9 L60.5,522.8 L60.1,528.1 L57.8,527.8 L58.2,523.4 L57.4,520.4 L57.5,511.5 L55.5,510.6 L55.5,503.5 L52.6,498.7 L52.7,505.5 L50.7,503.4 L49.2,499.2 L50.3,499.0 L47.5,493.4 L45.2,499.2 L42.5,496.8 L44.6,502.2 L43.2,501.3 L42.3,503.9 L39.9,498.7 L40.2,493.2 L41.9,491.2 L38.5,491.8 L38.0,497.6 L42.6,507.5 L40.7,513.6 L39.6,507.2 L37.2,512.3 L36.8,515.5 L35.1,513.5 L35.7,507.9 L34.3,506.0 L32.0,507.7 L32.7,511.9 L30.3,508.1 L30.9,503.8 L28.9,501.0 L26.6,503.8 L26.1,507.2 L24.2,499.8 L25.6,495.7 L23.3,493.1 L23.4,488.9 L21.6,489.6 L22.7,484.7 L22.1,481.4 L23.8,477.3 L22.2,472.3 L23.9,468.2 L52.5,449.3 Z">
  <desc xmlns="http://www.highcharts.com/svg/namespace">
    <name>Yarmouth</name>
    <type>CTY</type>
    <hc-middle-x>0.42</hc-middle-x>
    <hc-middle-y>0.39</hc-middle-y>
    <hc-key>ca-ns-1202</hc-key>
    <hc-a2>YA</hc-a2>
  </desc>
</path>

<path fill="#CEE3F5" stroke="#6E6E6E" stroke-width="0.4" id="CA.NS.1212" d="M405.8,208.4 L405.3,210.2 L400.9,212.0 L396.4,211.9 L398.9,209.0 Z M385.1,288.8 L360.7,263.9 L354.8,258.2 L340.0,219.6 L345.7,217.5 L347.5,219.2 L349.1,217.7 L347.5,215.3 L342.9,212.4 L356.5,213.4 L360.5,215.2 L367.9,216.7 L384.3,218.0 L386.1,217.3 L385.2,220.0 L382.0,218.3 L378.7,218.2 L381.6,220.5 L380.9,222.1 L383.3,222.8 L386.9,221.3 L392.6,224.7 L391.9,227.0 L384.1,231.2 L380.0,230.5 L377.4,232.1 L376.8,234.8 L380.4,232.9 L382.1,234.7 L385.6,234.0 L389.3,238.3 L392.2,238.0 L391.1,236.1 L387.5,234.9 L387.0,231.8 L389.5,229.4 L392.6,230.4 L394.4,229.1 L399.2,229.9 L401.5,231.2 L402.7,235.1 L406.8,233.7 L409.1,234.0 L412.7,231.6 L420.6,230.1 L428.6,227.1 L433.7,223.5 L436.5,232.4 L449.0,272.6 L395.8,284.8 L388.9,286.6 L385.1,288.8 L385.1,288.8 Z">
  <desc xmlns="http://www.highcharts.com/svg/namespace">
    <name>Pictou</name>
    <type>CTY</type>
    <hc-middle-x>0.52</hc-middle-x>
    <hc-middle-y>0.60</hc-middle-y>
    <hc-key>ca-ns-1212</hc-key>
    <hc-a2>PI</hc-a2>
  </desc>
</path>

<path fill="#CEE3F5" stroke="#6E6E6E" stroke-width="0.4" id="CA.NS.1216" d="M566.2,250.8 L569.7,252.1 L567.2,253.2 L568.6,254.7 L566.0,256.5 L564.6,255.2 Z M546.2,247.2 L546.3,249.6 L542.2,249.8 L544.0,250.7 L541.4,251.7 L541.3,247.3 L545.4,246.5 Z M552.4,242.1 L558.1,240.1 L559.1,241.4 L566.1,240.0 L567.9,241.9 L571.9,242.0 L570.5,244.2 L566.1,245.2 L562.8,248.3 L562.9,250.8 L565.5,251.2 L563.9,254.1 L561.8,254.8 L561.3,257.9 L559.1,258.5 L557.2,256.6 L560.4,254.2 L560.5,251.9 L555.8,252.7 L551.2,251.7 L551.5,248.5 L546.5,244.6 Z M543.6,222.9 L549.6,225.6 L552.2,223.2 L557.0,220.7 L563.8,214.8 L569.7,214.6 L575.0,216.3 L579.3,219.1 L578.3,225.3 L577.3,227.2 L572.5,229.8 L576.0,231.4 L578.4,225.9 L581.6,225.8 L582.9,222.9 L585.9,225.1 L585.7,219.2 L582.2,216.9 L585.4,214.1 L585.5,210.5 L589.9,206.6 L592.3,205.9 L617.1,212.5 L638.7,218.6 L635.7,221.2 L631.7,221.6 L630.5,219.5 L627.2,223.7 L626.4,226.2 L619.6,230.8 L613.4,231.5 L612.0,228.8 L611.5,233.3 L606.9,233.3 L598.8,236.1 L598.4,237.6 L592.6,239.9 L591.6,241.7 L586.4,242.2 L587.2,240.1 L584.8,237.4 L573.3,235.8 L575.2,234.4 L572.8,230.9 L569.5,230.7 L570.8,233.3 L567.9,234.8 L562.6,233.3 L565.4,235.3 L562.8,236.5 L560.5,234.1 L558.0,238.8 L559.6,239.1 L553.6,239.8 L551.4,241.5 L543.8,244.5 L540.7,244.5 L544.4,241.3 L542.3,239.2 L536.7,239.9 L531.6,244.4 L530.5,247.1 L526.6,245.0 L522.2,238.7 L524.1,238.9 L524.8,239.1 L534.2,230.7 L543.0,223.4 L543.4,223.5 L543.2,223.3 L543.2,223.3 L543.4,223.2 Z M543.4,223.2 L543.4,223.2 L543.5,223.1 Z M544.2,222.5 L543.9,222.9 L543.7,222.9 L544.0,222.7 Z">
  <desc xmlns="http://www.highcharts.com/svg/namespace">
    <name>Richmond</name>
    <type>CTY</type>
    <hc-middle-x>0.65</hc-middle-x>
    <hc-middle-y>0.30</hc-middle-y>
    <hc-key>ca-ns-1216</hc-key>
    <hc-a2>RI</hc-a2>
  </desc>
</path>

<path fill="#CEE3F5" stroke="#6E6E6E" stroke-width="0.4" id="CA.NS.1214" d="M433.7,223.5 L440.3,217.7 L445.6,214.2 L448.7,213.9 L450.8,211.0 L456.9,205.3 L460.9,200.4 L464.4,199.0 L468.3,201.2 L465.7,203.3 L465.3,205.6 L467.0,211.9 L466.5,214.5 L469.1,221.0 L466.5,228.7 L467.4,230.3 L465.3,234.0 L463.0,234.4 L463.1,236.3 L465.3,235.2 L467.5,235.5 L467.7,232.4 L469.8,228.9 L474.4,229.6 L476.2,232.6 L479.7,234.3 L478.3,234.9 L477.1,240.4 L479.6,234.7 L483.0,233.5 L484.5,236.1 L488.6,234.9 L492.5,235.3 L495.8,237.3 L496.2,233.7 L498.9,233.1 L500.4,235.0 L500.7,232.1 L499.4,229.9 L501.9,226.9 L510.1,226.6 L512.3,228.3 L515.5,233.0 L506.4,238.3 L506.9,239.8 L500.7,244.7 L499.3,242.5 L484.8,251.4 L485.5,256.5 L464.1,270.1 L449.0,272.6 L436.5,232.4 Z">
  <desc xmlns="http://www.highcharts.com/svg/namespace">
    <name>Antigonish</name>
    <type>CTY</type>
    <hc-middle-x>0.28</hc-middle-x>
    <hc-middle-y>0.54</hc-middle-y>
    <hc-key>ca-ns-1214</hc-key>
    <hc-a2>AN</hc-a2>
  </desc>
</path>

<path fill="#CEE3F5" stroke="#6E6E6E" stroke-width="0.4" id="CA.NS.1210" d="M380.4,291.5 L374.8,293.5 L370.1,298.0 L353.5,307.4 L321.0,323.7 L318.4,324.7 L317.1,323.1 L315.1,324.5 L315.2,321.0 L315.0,316.2 L313.4,315.9 L314.9,310.1 L316.3,308.8 L315.0,300.2 L312.6,298.3 L312.7,294.8 L309.5,293.5 L308.7,289.8 L307.0,289.2 L305.9,282.8 L306.7,280.5 L310.8,278.0 L315.6,277.6 L317.8,276.3 L303.2,275.0 L293.4,271.6 L290.9,272.4 L288.6,271.2 L284.0,272.2 L278.8,270.3 L275.6,270.2 L266.7,273.0 L264.6,277.8 L261.6,276.8 L261.7,273.7 L258.3,270.9 L253.7,270.5 L252.5,272.0 L249.0,272.6 L246.6,271.6 L247.6,269.7 L244.2,269.5 L242.4,267.5 L240.3,264.4 L241.6,256.2 L239.6,248.3 L276.8,249.5 L280.1,257.2 L282.2,257.0 L286.8,254.1 L299.5,248.5 L309.4,237.4 L306.6,229.2 L308.7,227.0 L314.5,218.0 L316.2,218.5 L318.3,221.0 L323.2,221.5 L325.5,223.0 L327.8,219.5 L328.5,222.2 L333.4,219.8 L334.5,217.2 L337.5,217.4 L335.4,219.7 L340.0,219.6 L354.8,258.2 L360.7,263.9 L385.1,288.8 L385.1,288.8 L385.1,288.8 L385.1,288.8 L385.1,288.8 L385.1,288.8 Z">
  <desc xmlns="http://www.highcharts.com/svg/namespace">
    <name>Colchester</name>
    <type>CTY</type>
    <hc-middle-x>0.63</hc-middle-x>
    <hc-middle-y>0.50</hc-middle-y>
    <hc-key>ca-ns-1210</hc-key>
    <hc-a2>CO</hc-a2>
  </desc>
</path>

<path fill="#CEE3F5" stroke="#6E6E6E" stroke-width="0.4" id="CA.NS.1213" d="M385.1,288.8 L388.9,286.6 L395.8,284.8 L449.0,272.6 L464.1,270.1 L485.5,256.5 L484.8,251.4 L499.3,242.5 L500.7,244.7 L506.9,239.8 L506.4,238.3 L515.5,233.0 L519.3,235.3 L520.5,237.5 L521.0,242.2 L522.4,242.3 L526.2,247.5 L532.6,251.1 L535.1,251.0 L536.4,256.8 L534.7,260.1 L529.9,261.8 L528.0,264.5 L523.1,266.0 L518.1,266.5 L516.5,268.9 L509.1,269.4 L513.4,276.1 L516.3,276.8 L522.6,276.8 L527.8,275.8 L531.5,276.3 L533.9,277.7 L535.5,275.7 L540.1,276.1 L546.3,274.8 L550.5,276.8 L554.3,275.7 L562.9,277.6 L565.4,279.3 L562.9,280.3 L564.0,283.0 L562.6,283.9 L563.8,286.1 L561.3,286.0 L561.9,283.7 L559.0,284.7 L555.5,283.3 L559.0,286.8 L557.6,289.7 L555.9,288.7 L556.0,291.8 L552.0,292.4 L553.9,293.7 L548.4,295.6 L545.2,295.1 L545.6,291.7 L547.7,287.2 L542.5,290.2 L543.7,294.6 L541.5,295.9 L542.0,291.1 L540.0,290.1 L535.0,291.7 L532.7,289.7 L527.8,290.4 L523.9,295.8 L522.5,296.6 L525.1,298.5 L529.3,298.0 L529.9,299.4 L525.5,300.2 L523.7,302.3 L518.3,303.7 L515.0,301.3 L515.7,303.7 L513.0,305.7 L510.9,304.1 L506.0,303.4 L504.6,305.8 L500.4,306.6 L494.7,302.9 L493.7,304.8 L491.2,304.3 L487.9,299.4 L487.5,296.6 L485.5,296.1 L487.0,300.1 L490.1,304.4 L495.4,309.8 L490.8,310.8 L494.7,314.7 L489.7,314.4 L486.7,312.4 L486.7,314.8 L483.6,313.3 L481.9,315.2 L474.6,313.1 L477.5,318.4 L475.1,318.8 L472.7,316.7 L475.4,321.3 L474.1,322.9 L467.3,318.5 L471.0,324.3 L469.4,324.9 L463.8,321.1 L463.8,326.8 L461.8,324.4 L457.9,325.2 L454.8,328.1 L450.2,327.9 L455.0,329.3 L460.5,329.6 L461.0,331.8 L456.4,331.5 L453.8,332.8 L451.4,331.9 L452.2,334.2 L449.6,333.3 L444.7,333.5 L443.6,334.9 L442.0,332.1 L438.9,329.0 L424.4,318.1 L422.9,315.9 L417.8,313.7 L411.0,307.9 L400.9,300.5 L390.8,292.6 L385.1,288.8 L385.1,288.8 L385.1,288.8 L385.1,288.8 Z">
  <desc xmlns="http://www.highcharts.com/svg/namespace">
    <name>Guysborough</name>
    <type>CTY</type>
    <hc-middle-x>0.52</hc-middle-x>
    <hc-middle-y>0.53</hc-middle-y>
    <hc-key>ca-ns-1213</hc-key>
    <hc-a2>GU</hc-a2>
  </desc>
</path>

<path fill="#CEE3F5" stroke="#6E6E6E" stroke-width="0.4" id="CA.NS.1208" d="M230.0,310.8 L233.0,305.6 L235.0,305.0 L234.7,301.0 L241.4,297.0 L245.5,296.2 L246.8,294.6 L251.7,294.9 L252.4,292.9 L263.9,287.9 L266.0,289.3 L267.1,288.0 L272.6,286.3 L273.0,283.1 L276.7,282.6 L278.8,285.0 L283.4,281.5 L285.2,282.8 L298.0,282.8 L300.7,279.9 L305.9,282.8 L307.0,289.2 L308.7,289.8 L309.5,293.5 L312.7,294.8 L312.6,298.3 L315.0,300.2 L316.3,308.8 L314.9,310.1 L313.4,315.9 L315.0,316.2 L315.2,321.0 L312.2,320.5 L310.4,323.9 L310.9,328.8 L309.3,328.7 L304.8,334.3 L302.4,334.7 L300.1,338.8 L299.1,337.1 L296.6,339.7 L294.4,336.2 L287.0,338.0 L277.4,344.2 L272.9,351.4 L271.1,355.7 L268.0,359.3 L265.9,358.3 L227.2,362.9 L209.0,344.1 L207.3,342.4 L234.9,316.8 Z">
  <desc xmlns="http://www.highcharts.com/svg/namespace">
    <name>Hants</name>
    <type>CTY</type>
    <hc-middle-x>0.52</hc-middle-x>
    <hc-middle-y>0.52</hc-middle-y>
    <hc-key>ca-ns-1208</hc-key>
    <hc-a2>HA</hc-a2>
  </desc>
</path>

<path fill="#CEE3F5" stroke="#6E6E6E" stroke-width="0.4" id="CA.NS.1205" d="M69.7,373.4 L71.1,372.6 L68.7,369.9 L70.4,366.6 L80.0,359.2 L89.9,353.2 L95.4,350.5 L98.8,347.3 L104.6,343.4 L113.9,337.8 L115.8,338.0 L117.5,335.2 L122.4,333.0 L133.0,325.2 L135.0,324.9 L140.3,321.9 L142.4,319.1 L147.1,316.6 L166.0,362.0 L171.2,376.1 L152.9,394.1 L152.9,394.1 L152.9,394.1 L140.5,405.8 L131.1,404.7 L128.0,410.3 L111.7,425.9 L96.1,406.2 L81.0,387.6 L79.2,382.8 Z">
  <desc xmlns="http://www.highcharts.com/svg/namespace">
    <name>Annapolis</name>
    <type>CTY</type>
    <hc-middle-x>0.52</hc-middle-x>
    <hc-middle-y>0.53</hc-middle-y>
    <hc-key>ca-ns-1205</hc-key>
    <hc-a2>AN</hc-a2>
  </desc>
</path>

<path fill="#CEE3F5" stroke="#6E6E6E" stroke-width="0.4" id="CA.NS.1215" d="M543.7,222.9 L543.6,222.9 L543.5,223.1 L543.4,223.2 L543.4,223.2 L542.9,223.1 L543.0,223.4 L534.2,230.7 L524.8,239.1 L524.1,238.9 L519.5,233.5 L517.8,233.2 L513.2,225.1 L512.5,219.1 L511.0,213.7 L509.0,210.4 L509.3,208.5 L508.0,201.6 L509.6,197.2 L505.8,192.8 L504.8,188.2 L504.9,181.0 L502.6,176.0 L507.9,171.8 L510.2,169.1 L516.1,171.4 L518.5,171.5 L516.1,169.5 L513.3,169.8 L509.5,168.3 L511.2,162.0 L514.9,154.9 L516.5,153.3 L522.9,149.9 L526.4,147.2 L530.5,142.3 L531.7,137.1 L538.6,129.2 L540.1,123.9 L542.9,119.0 L546.2,116.9 L549.2,109.6 L549.8,103.1 L552.5,100.0 L553.8,96.2 L552.2,92.4 L550.5,92.8 L553.6,85.9 L554.8,86.2 L553.1,92.9 L554.6,93.2 L554.6,89.7 L556.2,86.0 L560.2,82.5 L560.0,80.3 L563.3,75.0 L565.4,68.3 L568.3,63.1 L571.1,60.5 L575.9,59.0 L578.7,54.7 L582.7,51.2 L586.5,45.5 L587.0,40.4 L589.7,34.6 L592.7,31.6 L595.0,27.6 L599.0,29.7 L590.0,72.1 L582.4,106.4 L565.7,138.5 L560.2,149.5 L553.3,164.2 L560.7,180.9 L559.6,182.1 L549.5,186.8 L546.8,185.0 L544.9,190.0 L548.9,189.4 L553.6,189.7 L555.0,187.5 L558.7,186.4 L560.0,187.5 L560.1,187.9 L560.1,188.4 L559.9,194.2 L551.0,195.3 L556.3,196.2 L557.5,194.9 L561.9,194.7 L563.6,197.5 L568.0,200.1 L564.3,201.0 L563.4,198.6 L560.1,198.9 L565.3,202.5 L564.8,204.8 L562.2,203.7 L558.2,205.1 L555.5,207.6 L549.2,211.3 L543.6,217.0 L545.2,218.3 L547.5,215.6 L546.9,219.6 L544.2,222.5 L544.0,222.7 Z M543.2,223.3 L543.0,223.2 L543.2,223.3 Z">
  <desc xmlns="http://www.highcharts.com/svg/namespace">
    <name>Inverness</name>
    <type>CTY</type>
    <hc-middle-x>0.33</hc-middle-x>
    <hc-middle-y>0.73</hc-middle-y>
    <hc-key>ca-ns-1215</hc-key>
    <hc-a2>IN</hc-a2>
  </desc>
</path>

<path fill="#CEE3F5" stroke="#6E6E6E" stroke-width="0.4" id="CA.NS.1207" d="M171.2,376.1 L166.0,362.0 L147.1,316.6 L161.2,308.0 L170.0,304.7 L174.0,302.3 L183.8,300.1 L206.7,291.4 L211.7,287.1 L211.4,283.0 L204.5,281.0 L201.8,278.9 L213.8,281.4 L218.5,284.4 L219.2,287.8 L216.5,290.8 L216.1,294.1 L212.8,299.7 L215.8,300.0 L216.4,303.8 L212.1,306.1 L213.5,308.0 L210.8,309.2 L212.6,310.6 L214.6,309.6 L213.8,313.4 L215.3,314.4 L217.8,312.9 L218.0,308.8 L222.9,308.1 L224.5,312.1 L225.1,310.0 L227.6,311.9 L230.0,310.8 L234.9,316.8 L207.3,342.4 L197.7,351.3 L197.1,350.7 Z">
  <desc xmlns="http://www.highcharts.com/svg/namespace">
    <name>Kings</name>
    <type>CTY</type>
    <hc-middle-x>0.45</hc-middle-x>
    <hc-middle-y>0.51</hc-middle-y>
    <hc-key>ca-ns-1207</hc-key>
    <hc-a2>KI</hc-a2>
  </desc>
</path>

<path fill="#CEE3F5" stroke="#6E6E6E" stroke-width="0.4" id="CA.NS.1204" d="M192.3,451.0 L192.3,451.0 L192.3,450.9 Z M104.6,437.3 L108.6,430.8 L111.7,425.9 L128.0,410.3 L131.1,404.7 L140.5,405.8 L152.9,394.1 L162.1,405.7 L161.1,410.8 L160.0,411.7 L186.6,444.7 L191.3,450.2 L191.1,450.3 L191.3,450.3 L191.5,450.4 L190.0,453.9 L193.5,455.7 L192.7,459.3 L190.1,464.8 L185.4,462.4 L181.7,467.2 L176.0,465.5 L175.9,466.5 L180.9,470.3 L181.1,474.7 L178.3,474.1 L173.3,479.8 L166.7,480.3 L163.2,479.8 L164.1,481.7 L160.4,484.5 L165.2,486.7 L167.7,491.8 L166.5,492.9 L163.8,491.5 L165.1,495.4 L162.6,496.4 L162.4,499.7 L159.9,498.0 L159.6,493.6 L155.4,490.5 L154.0,492.1 L157.2,494.7 L157.9,497.0 L156.0,499.1 L156.9,501.4 L154.0,502.8 L149.7,491.9 L147.8,491.1 L131.8,470.7 Z">
  <desc xmlns="http://www.highcharts.com/svg/namespace">
    <name>Queens</name>
    <type>CTY</type>
    <hc-middle-x>0.52</hc-middle-x>
    <hc-middle-y>0.46</hc-middle-y>
    <hc-key>ca-ns-1204</hc-key>
    <hc-a2>QU</hc-a2>
  </desc>
</path>

<path fill="#CEE3F5" stroke="#6E6E6E" stroke-width="0.4" id="CA.NS.1211" d="M316.2,218.5 L314.5,218.0 L308.7,227.0 L306.6,229.2 L309.4,237.4 L299.5,248.5 L286.8,254.1 L282.2,257.0 L280.1,257.2 L276.8,249.5 L239.6,248.3 L241.6,256.2 L240.3,264.4 L242.4,267.5 L241.2,269.6 L233.9,269.7 L229.7,270.6 L226.1,272.9 L219.0,270.8 L218.7,274.2 L214.2,272.8 L212.6,274.7 L207.2,272.0 L206.1,270.1 L200.8,270.3 L196.8,268.2 L193.6,268.2 L183.9,271.0 L180.7,273.6 L179.8,276.2 L179.8,281.1 L174.5,282.2 L173.1,284.6 L171.8,282.3 L173.1,278.5 L170.4,278.0 L165.6,275.1 L155.8,278.7 L159.2,264.0 L161.1,264.1 L164.4,259.4 L166.5,260.3 L171.4,257.3 L165.3,257.9 L171.4,253.7 L173.7,253.0 L183.2,247.8 L186.3,245.2 L186.8,242.6 L194.3,238.9 L203.5,229.4 L206.9,228.3 L209.3,223.2 L207.7,220.8 L209.4,218.5 L215.3,215.6 L214.8,211.9 L217.6,211.4 L219.9,208.5 L222.6,207.9 L223.6,210.6 L220.6,212.9 L218.8,216.0 L220.6,217.9 L222.8,216.2 L228.9,208.0 L225.8,205.4 L229.1,198.3 L230.7,197.6 L238.8,185.4 L249.3,186.0 L249.7,183.6 L251.5,181.9 L253.8,183.5 L256.9,183.1 L263.6,185.5 L268.0,188.5 L267.3,192.4 L272.2,195.3 L273.2,198.4 L278.3,201.0 L281.5,201.5 L284.8,204.0 L287.8,204.9 L285.6,206.7 L287.9,207.9 L289.5,205.0 L288.0,205.0 L286.9,201.4 L290.3,201.8 L292.9,200.8 L299.0,201.5 L308.0,200.9 L313.4,203.5 L313.7,204.8 L306.4,204.9 L312.3,207.7 L312.0,209.2 L305.1,209.2 L308.4,210.3 L310.5,212.0 L313.4,212.1 L311.8,210.2 L314.1,210.3 L317.6,212.6 L322.2,212.8 L326.7,210.9 L331.7,212.7 L326.2,215.2 L323.7,217.2 Z">
  <desc xmlns="http://www.highcharts.com/svg/namespace">
    <name>Cumberland</name>
    <type>CTY</type>
    <hc-middle-x>0.47</hc-middle-x>
    <hc-middle-y>0.49</hc-middle-y>
    <hc-key>ca-ns-1211</hc-key>
    <hc-a2>CU</hc-a2>
  </desc>
</path>
</g>

<text x="350" y="714" text-anchor="middle" font-family="Verdana" font-size="8" stroke-opacity="0.6">Copyright (c) 2023 Highsoft AS, Adapted from Statistics Canada, Boundary files, 2011 Census. This does not constitute an endorsement by Statistics Canada of this product.</text>

</svg>