<?xml version="1.0" encoding="utf-8" standalone="no"?>
<!DOCTYPE svg PUBLIC "-//W3C//DTD SVG 1.1//EN" "http://www.w3.org/Graphics/SVG/1.1/DTD/svg11.dtd">

<svg version="1.1" height="700pt" width="700pt" xmlns="http://www.w3.org/2000/svg" xmlns:xlink="http://www.w3.org/1999/xlink">
<desc>
Map version: 2.1.0
Copyright (c) 2023 Highsoft AS, Adapted from Statistics Canada, Boundary files, 2011 Census. This does not constitute an endorsement by Statistics Canada of this product.
</desc>
<title>Nunavut</title>
<g id="admin2">

<g id="CA">
  <desc xmlns="http://www.highcharts.com/svg/namespace">
    <name>Canada</name>
    <labelrank>2</labelrank>
    <country-abbrev>Can.</country-abbrev>
    <subregion>Northern America</subregion>
    <region-wb>North America</region-wb>
    <iso-a3>CAN</iso-a3>
    <iso-a2>CA</iso-a2>
    <woe-id>23424775</woe-id>
    <continent>North America</continent>
    <hc-key>ca</hc-key>
    <hc-a2>CA</hc-a2>
  </desc>
</g>

<g id="CA.NU">
  <desc xmlns="http://www.highcharts.com/svg/namespace">
    <labelrank>2</labelrank>
    <hasc>CA.NU</hasc>
    <alt-name>NULL</alt-name>
    <woe-id>20069920</woe-id>
    <subregion>NULL</subregion>
    <fips>CA10</fips>
    <postal-code>NU</postal-code>
    <name>Nunavut</name>
    <country>Canada</country>
    <type-en>Territory</type-en>
    <region>Northern Canada</region>
    <longitude>-97.1443</longitude>
    <woe-name>Nunavut</woe-name>
    <latitude>64.3853</latitude>
    <woe-label>Nunavut, CA, Canada</woe-label>
    <type>Territoire</type>
    <hc-key>ca-nu</hc-key>
    <hc-a2>NU</hc-a2>
  </desc>
</g>

<path fill="#CEE3F5" stroke="#6E6E6E" stroke-width="0.4" id="CA.NU.6204" d="M518.6,63.4 L517.2,63.7 L503.8,63.2 L490.7,64.8 L490.4,61.3 L496.1,58.7 L502.2,53.6 L514.7,49.7 L515.3,48.1 L501.0,51.9 L494.3,55.4 L491.8,57.9 L484.4,55.5 L489.6,58.3 L485.6,61.1 L488.0,61.6 L484.3,64.9 L479.8,66.7 L467.1,70.2 L450.8,72.8 L441.8,73.3 L442.2,70.5 L450.7,68.6 L448.5,67.8 L438.9,69.5 L433.9,68.0 L435.2,71.0 L433.7,73.2 L417.6,74.2 L407.2,73.6 L399.3,71.8 L401.8,68.4 L412.7,61.4 L437.3,57.9 L446.4,57.2 L451.3,55.8 L445.3,56.0 L433.3,57.8 L411.7,59.4 L406.3,61.5 L400.9,65.6 L395.2,68.6 L393.2,71.0 L382.6,69.5 L369.2,64.8 L367.6,63.1 L376.5,61.3 L384.3,60.5 L389.7,61.3 L399.5,60.7 L408.7,58.0 L415.4,54.9 L423.1,53.1 L420.8,52.0 L406.7,55.3 L404.1,57.0 L391.7,58.9 L382.2,58.8 L365.2,60.6 L359.5,59.4 L357.8,55.4 L361.5,54.0 L370.3,54.6 L361.5,51.7 L366.4,50.9 L375.3,46.7 L384.6,45.8 L380.8,44.9 L375.8,45.5 L355.8,50.6 L351.1,48.7 L359.9,45.1 L366.5,43.2 L353.7,42.3 L349.9,43.5 L350.0,45.2 L345.2,45.9 L343.9,44.3 L339.5,45.5 L338.3,43.1 L345.0,39.2 L355.1,36.2 L364.8,35.7 L369.0,38.6 L368.4,34.7 L374.9,36.9 L372.0,33.2 L383.8,29.8 L391.4,30.7 L394.2,32.6 L397.6,31.3 L405.0,31.5 L415.8,36.7 L411.0,33.2 L423.2,32.8 L411.4,31.3 L400.2,29.3 L397.7,26.7 L412.4,26.1 L415.7,24.8 L413.9,21.2 L410.3,19.6 L417.2,19.0 L424.1,19.4 L420.7,20.5 L435.0,22.7 L445.5,30.5 L447.3,30.1 L443.0,26.4 L443.3,24.6 L447.3,24.7 L452.5,27.1 L470.7,32.7 L479.4,33.8 L480.6,32.2 L471.9,31.4 L464.9,28.2 L456.6,26.3 L447.5,22.7 L448.7,18.5 L456.4,17.9 L450.4,15.4 L452.9,13.5 L461.0,14.4 L468.6,17.8 L472.1,17.2 L459.9,9.9 L463.2,9.1 L471.1,9.6 L476.9,11.7 L478.1,8.8 L474.2,7.8 L476.6,6.0 L485.7,4.6 L489.6,7.8 L493.4,5.5 L496.5,8.7 L498.3,4.9 L500.6,5.5 L498.0,8.1 L503.8,5.9 L512.4,8.1 L518.3,13.5 L525.8,15.2 L527.4,16.9 L531.9,14.9 L522.1,12.5 L521.9,10.7 L516.8,7.1 L508.4,4.2 L507.5,2.8 L514.6,1.3 L527.1,1.6 L533.9,3.0 L543.6,3.1 L548.8,5.1 L551.2,8.3 L564.0,12.6 L566.2,11.8 L559.0,9.9 L551.6,3.4 L554.6,5.2 L564.3,1.1 L577.4,1.0 L575.3,2.9 L578.0,5.5 L586.5,7.2 L579.5,3.1 L591.2,0.6 L597.6,0.9 L599.7,4.3 L603.3,3.2 L611.1,4.5 L614.8,3.7 L617.0,5.3 L623.3,4.9 L628.8,5.9 L638.6,6.0 L638.4,6.9 L621.8,12.6 L615.4,12.9 L612.1,14.9 L621.0,13.8 L625.6,14.1 L631.6,11.9 L646.3,8.3 L651.2,9.0 L651.3,7.3 L658.1,6.8 L657.5,9.3 L662.7,10.1 L665.9,8.7 L671.0,8.7 L672.5,10.9 L668.8,12.1 L675.0,14.3 L673.2,15.4 L678.4,16.2 L676.1,18.6 L686.2,17.6 L687.0,18.7 L693.1,18.8 L698.1,20.8 L700.0,23.7 L698.9,26.5 L693.6,28.4 L685.2,32.7 L676.9,35.6 L670.2,36.9 L661.7,40.8 L655.5,39.7 L646.4,41.3 L650.1,42.0 L644.6,43.2 L641.4,42.7 L639.6,44.5 L632.1,44.7 L633.8,43.5 L621.6,44.3 L615.8,45.2 L603.4,40.7 L614.8,45.6 L612.3,46.6 L621.9,45.4 L629.9,45.1 L635.0,46.6 L615.1,51.8 L595.9,56.0 L599.6,55.7 L595.2,58.4 L603.3,55.3 L616.9,53.1 L626.6,50.7 L648.1,46.9 L660.2,45.6 L660.8,47.7 L657.0,50.5 L647.3,54.1 L642.8,54.2 L635.8,59.2 L616.6,67.0 L606.4,73.2 L601.5,77.9 L592.5,78.6 L593.5,76.6 L588.8,73.6 L591.6,76.9 L590.1,78.5 L596.6,81.1 L594.1,82.9 L586.6,82.6 L576.4,85.1 L571.4,82.8 L567.5,82.3 L574.0,85.1 L568.7,86.3 L578.6,86.1 L587.0,84.4 L589.9,85.3 L587.9,88.1 L579.1,89.8 L585.5,90.9 L582.9,93.5 L578.2,95.3 L569.1,97.2 L561.0,95.7 L559.5,93.1 L550.1,92.6 L547.8,91.0 L541.1,91.9 L540.1,93.4 L548.3,93.5 L555.5,94.3 L558.9,97.9 L557.9,100.7 L551.9,101.3 L548.9,99.9 L548.0,102.9 L541.0,102.9 L536.6,101.8 L538.1,104.4 L525.0,103.1 L523.7,101.6 L511.0,100.5 L511.5,101.3 L521.5,102.1 L526.7,105.3 L513.6,104.7 L508.8,102.6 L511.7,105.7 L501.0,105.2 L509.6,107.4 L515.7,107.0 L524.3,107.3 L525.6,108.3 L541.5,108.1 L539.4,109.5 L544.0,112.9 L540.8,113.9 L526.6,111.7 L523.4,109.1 L513.5,109.6 L503.4,108.9 L498.9,109.9 L518.4,110.4 L524.5,111.6 L522.5,114.2 L528.4,115.0 L525.4,117.5 L533.7,117.2 L539.5,118.6 L539.0,123.6 L541.8,125.0 L537.4,126.2 L527.3,127.2 L520.5,126.1 L524.5,128.2 L532.1,129.0 L536.8,131.6 L532.7,132.4 L531.1,134.6 L517.7,133.6 L515.0,135.2 L522.5,136.4 L530.0,136.7 L529.3,139.0 L526.2,141.1 L523.7,139.7 L516.3,141.8 L516.4,143.2 L509.9,141.4 L500.1,141.1 L496.8,142.4 L502.2,145.5 L500.6,148.2 L505.2,150.1 L501.7,151.8 L498.0,155.6 L491.9,157.4 L492.4,155.4 L487.7,157.8 L482.1,157.1 L475.0,157.7 L474.5,159.7 L482.2,158.9 L486.5,159.5 L489.7,162.1 L485.2,166.9 L491.1,166.8 L492.6,167.8 L498.7,164.5 L502.7,166.1 L503.9,170.1 L503.3,173.8 L500.8,174.1 L497.0,178.3 L492.0,175.5 L489.8,179.3 L485.4,182.3 L482.9,181.8 L469.9,185.6 L465.2,184.2 L469.2,179.2 L463.3,177.3 L457.4,178.0 L453.5,176.9 L451.4,179.8 L445.2,180.1 L440.8,179.1 L434.6,179.1 L428.9,174.5 L428.9,177.3 L432.3,178.1 L423.6,178.9 L419.0,175.2 L420.2,179.4 L426.0,182.2 L416.4,182.5 L410.6,180.8 L403.1,180.0 L404.1,176.2 L400.5,178.4 L399.6,181.1 L390.7,178.3 L389.2,174.6 L388.6,181.2 L380.3,180.1 L380.3,177.5 L377.5,170.6 L375.9,171.9 L378.5,177.1 L375.8,179.4 L376.9,175.8 L375.5,175.0 L373.6,179.5 L371.1,179.2 L364.6,175.5 L367.6,173.0 L366.2,168.7 L375.5,165.0 L378.7,162.5 L388.3,161.5 L394.3,159.8 L394.5,155.8 L391.8,156.7 L387.4,156.0 L387.7,151.6 L381.4,148.6 L382.8,144.5 L392.3,142.5 L397.8,142.9 L405.4,145.2 L409.0,149.3 L409.8,154.5 L414.2,153.3 L414.9,155.3 L419.8,155.5 L425.7,157.7 L424.9,155.0 L437.5,156.1 L433.0,153.5 L438.1,152.3 L443.2,148.0 L448.4,141.9 L447.7,139.6 L441.3,145.3 L438.2,149.8 L432.3,152.8 L422.1,152.1 L416.0,148.2 L414.6,144.0 L419.8,142.6 L411.3,141.7 L419.4,138.4 L418.5,137.5 L421.7,131.2 L422.1,126.9 L419.9,131.3 L414.2,137.3 L404.5,138.2 L409.7,131.6 L405.0,134.9 L402.0,134.4 L399.7,136.8 L390.3,136.9 L389.7,129.7 L394.5,125.9 L397.7,120.9 L401.1,119.5 L411.3,118.3 L418.5,116.3 L425.6,118.2 L433.0,118.3 L443.7,122.2 L450.3,125.5 L452.1,124.9 L447.8,121.8 L440.4,119.4 L439.9,118.3 L449.3,118.6 L457.9,118.0 L458.7,114.3 L456.4,113.9 L453.6,116.4 L448.3,117.1 L444.2,116.0 L428.9,115.3 L422.9,113.8 L422.0,112.5 L425.2,110.4 L431.6,112.5 L432.3,111.0 L427.3,109.2 L425.3,103.4 L421.0,101.7 L419.0,98.1 L413.3,95.8 L404.3,94.6 L402.0,92.8 L404.0,88.6 L416.5,89.7 L402.7,87.7 L400.3,84.6 L401.8,79.9 L407.1,78.9 L415.5,80.7 L430.2,80.7 L436.3,82.3 L440.1,85.0 L453.5,91.8 L454.9,95.4 L458.4,96.2 L457.7,98.8 L460.7,97.5 L471.1,99.6 L470.9,98.5 L479.7,97.2 L481.6,95.7 L467.0,97.1 L460.3,95.5 L458.5,90.6 L459.3,89.0 L451.3,86.5 L440.6,79.1 L474.3,75.4 L475.5,73.6 L495.5,72.5 L500.9,71.7 L488.9,71.2 L478.6,71.4 L486.2,68.8 L503.0,65.7 L519.6,64.8 Z M518.6,63.4 L518.6,63.4 L518.6,63.4 L518.6,63.4 L518.6,63.4 L529.1,62.2 L535.4,60.7 L524.4,62.0 L518.6,63.4 L518.6,63.4 L518.6,63.4 L518.6,63.4 L518.6,63.4 Z M634.0,397.5 L634.6,397.8 L634.1,399.3 L632.3,398.2 L630.7,396.3 L633.4,397.3 L633.4,394.9 L631.4,394.0 L629.4,397.4 L625.6,396.1 L629.4,398.6 L625.3,399.2 L620.7,394.7 L621.9,399.8 L627.8,403.7 L629.1,406.3 L622.7,406.3 L619.0,407.3 L621.1,408.2 L620.7,411.8 L625.7,411.0 L628.6,411.7 L626.7,415.2 L630.0,415.3 L629.6,418.2 L634.1,421.7 L631.8,423.1 L633.7,423.8 L633.8,427.2 L635.0,425.2 L641.3,425.4 L643.8,430.2 L643.5,426.0 L646.1,426.9 L647.9,429.2 L646.3,433.0 L649.1,428.8 L651.8,431.2 L649.7,432.6 L652.7,431.8 L653.6,434.2 L652.1,437.1 L648.2,436.7 L647.8,438.3 L652.0,438.6 L652.3,442.5 L658.8,443.4 L654.5,446.5 L659.9,448.7 L660.3,455.6 L658.0,456.9 L656.3,454.1 L654.1,453.7 L656.7,458.8 L656.9,462.0 L658.8,463.2 L656.4,464.2 L652.0,462.1 L654.8,466.5 L654.5,468.7 L656.5,469.3 L654.0,471.1 L654.1,468.8 L651.8,469.4 L650.2,463.7 L648.3,465.4 L645.4,463.6 L637.1,460.5 L636.0,458.4 L634.4,460.5 L624.0,451.7 L622.3,451.3 L622.8,454.7 L619.2,451.9 L621.1,455.3 L620.8,457.6 L618.8,451.5 L614.6,449.3 L614.4,448.1 L607.4,447.4 L610.1,451.2 L613.5,453.5 L617.0,457.3 L623.9,460.4 L631.3,466.3 L634.1,467.7 L641.2,475.4 L643.8,476.1 L642.2,479.8 L643.1,481.9 L638.9,482.1 L634.2,479.4 L627.3,478.5 L627.4,477.4 L621.1,476.0 L614.5,475.5 L604.9,471.8 L600.7,467.9 L602.8,466.0 L595.8,464.9 L593.6,466.2 L589.8,463.7 L586.4,463.7 L581.7,460.1 L579.1,461.1 L576.3,459.0 L574.4,455.8 L575.5,454.7 L571.7,453.3 L576.6,453.9 L579.7,452.4 L577.2,451.1 L577.3,448.9 L574.1,446.9 L572.6,450.3 L567.5,447.2 L564.6,446.5 L562.8,442.8 L560.6,442.7 L560.3,439.4 L554.0,437.3 L549.6,433.5 L548.8,434.7 L552.1,436.8 L550.5,438.7 L546.5,434.3 L544.2,435.0 L544.5,432.4 L548.8,432.0 L545.8,430.2 L543.9,432.1 L539.9,428.6 L537.0,427.7 L543.0,432.3 L540.7,435.9 L534.4,434.5 L527.8,431.4 L527.4,435.6 L523.9,435.6 L521.6,437.7 L517.8,437.8 L518.7,440.4 L515.6,438.6 L510.8,437.5 L509.1,438.4 L507.4,436.2 L503.2,436.2 L499.4,431.2 L500.8,426.7 L499.9,424.7 L502.0,423.0 L509.7,420.2 L507.4,418.1 L509.9,416.8 L508.3,415.2 L512.2,416.2 L515.3,415.8 L524.8,419.1 L525.6,417.9 L530.2,418.9 L535.4,418.9 L535.8,416.4 L540.7,416.2 L542.1,417.8 L545.0,415.0 L549.8,413.7 L554.6,415.5 L551.5,409.1 L548.6,408.0 L543.6,403.3 L543.8,400.9 L549.5,398.0 L559.6,390.6 L562.4,384.9 L567.4,383.4 L569.0,379.6 L567.7,378.6 L565.3,370.4 L562.1,368.3 L560.2,360.3 L552.7,359.6 L549.2,356.7 L552.1,351.8 L546.3,350.2 L549.8,353.8 L546.3,354.8 L538.2,348.5 L540.7,347.4 L539.6,345.4 L535.1,347.1 L531.2,344.2 L529.6,347.4 L525.8,348.5 L521.1,351.2 L517.1,350.5 L519.2,347.5 L518.1,344.1 L521.1,343.6 L525.0,344.7 L529.8,343.1 L529.1,339.1 L522.8,336.0 L520.5,336.4 L516.6,333.2 L511.1,331.5 L515.7,329.8 L514.4,328.2 L507.6,326.8 L506.3,329.4 L505.3,327.7 L505.8,320.5 L504.1,318.7 L497.1,319.6 L492.3,314.5 L487.9,315.1 L484.4,313.4 L483.2,315.7 L487.1,317.4 L490.3,317.1 L492.6,319.9 L493.9,324.5 L492.2,326.4 L480.9,326.6 L475.4,323.5 L466.8,322.8 L458.3,321.3 L462.9,323.3 L468.8,328.2 L467.0,329.9 L464.2,327.5 L457.1,324.3 L453.4,321.6 L444.3,318.4 L453.7,322.6 L457.9,325.1 L457.5,326.6 L454.3,326.4 L453.1,328.4 L450.1,326.7 L448.8,330.0 L444.8,328.3 L447.2,327.7 L445.8,325.7 L440.9,323.6 L435.3,324.9 L423.4,323.9 L415.6,321.7 L410.5,321.8 L416.6,324.3 L410.6,324.0 L404.7,321.7 L401.0,318.9 L400.6,316.4 L403.7,313.9 L397.4,317.2 L396.4,314.2 L394.3,315.6 L396.0,318.0 L387.1,316.9 L387.1,318.8 L382.5,315.7 L376.3,314.3 L372.6,309.9 L368.7,307.2 L367.5,304.7 L370.1,304.1 L366.1,300.9 L370.7,302.2 L378.7,302.1 L380.8,303.9 L391.8,303.8 L392.6,302.3 L385.9,298.7 L386.2,297.1 L382.3,297.9 L364.8,296.2 L362.0,295.1 L360.4,290.1 L363.0,286.3 L359.4,282.6 L360.6,279.7 L365.8,277.2 L362.0,276.5 L361.2,273.6 L362.6,272.3 L363.7,267.6 L366.3,267.2 L366.1,263.8 L369.6,263.8 L368.2,259.0 L372.5,252.6 L380.9,246.0 L390.5,241.8 L400.2,239.7 L406.1,239.6 L418.4,240.7 L421.1,242.3 L420.1,243.9 L412.5,247.9 L406.2,253.2 L402.6,259.5 L399.4,262.6 L399.7,266.9 L403.2,269.6 L404.7,272.6 L402.3,276.5 L402.9,280.7 L406.3,285.7 L414.7,292.1 L421.8,294.5 L421.4,296.9 L417.8,296.3 L413.5,299.0 L408.1,298.9 L404.9,301.5 L398.5,302.6 L401.4,303.3 L405.4,302.4 L410.2,299.8 L415.0,298.9 L417.9,299.9 L422.1,304.2 L422.0,295.1 L425.0,292.8 L424.0,288.1 L421.1,289.1 L415.8,288.0 L412.8,285.5 L412.7,283.2 L407.2,281.4 L413.4,279.8 L414.9,275.7 L419.8,275.7 L428.2,280.7 L425.2,277.7 L420.0,274.8 L421.3,271.2 L418.3,272.9 L413.3,271.1 L411.8,267.8 L411.2,261.2 L415.7,259.5 L428.4,263.4 L417.6,258.7 L413.2,258.4 L414.9,255.8 L421.4,257.0 L431.9,258.0 L422.7,256.0 L417.3,253.9 L417.9,251.9 L429.6,248.2 L444.6,242.4 L459.3,242.5 L463.9,247.1 L464.2,253.2 L471.2,255.5 L472.1,257.0 L470.6,260.6 L475.5,264.9 L471.7,267.3 L472.1,268.5 L466.6,271.4 L465.5,273.6 L471.4,269.8 L472.2,272.7 L467.9,276.7 L471.6,279.1 L472.7,276.9 L475.6,276.9 L475.6,274.4 L479.8,271.7 L479.9,270.2 L484.9,271.9 L482.4,274.6 L484.2,275.7 L485.8,272.2 L488.8,273.8 L490.4,276.4 L489.7,279.2 L487.3,281.7 L493.7,283.0 L490.6,280.6 L491.9,274.1 L495.4,273.4 L507.4,276.8 L496.7,272.6 L495.0,270.9 L496.6,268.2 L502.0,265.6 L507.8,264.5 L516.4,265.1 L517.3,266.9 L527.4,268.1 L535.0,270.3 L537.8,276.5 L537.3,278.4 L545.7,279.4 L547.1,282.0 L545.6,285.0 L541.9,285.1 L542.6,288.5 L548.9,286.3 L553.3,286.1 L549.9,289.5 L548.1,293.3 L548.9,295.6 L550.3,291.2 L553.6,290.9 L552.6,293.2 L555.7,294.5 L552.3,297.4 L551.9,300.6 L554.2,296.5 L556.2,295.3 L559.7,296.6 L559.9,295.8 L557.1,295.0 L555.8,290.9 L560.4,291.5 L562.3,293.4 L559.7,294.2 L560.1,295.1 L560.4,294.0 L563.1,293.4 L565.6,288.5 L577.0,292.0 L582.0,297.4 L577.6,301.5 L573.4,300.3 L571.0,301.0 L568.0,305.3 L569.9,307.6 L579.9,305.1 L581.4,302.4 L586.3,300.2 L589.4,304.3 L585.8,308.6 L581.4,311.6 L576.6,311.0 L576.1,313.9 L578.4,311.6 L581.7,312.8 L578.0,322.0 L579.9,321.0 L583.7,310.7 L596.8,305.4 L598.2,305.8 L595.6,308.7 L589.8,311.3 L594.9,310.6 L601.9,307.2 L613.4,311.2 L615.5,313.2 L613.1,316.1 L602.6,318.5 L597.4,320.8 L611.7,319.5 L608.6,323.6 L605.8,324.4 L602.5,328.6 L606.4,325.4 L610.5,325.3 L614.9,322.6 L615.1,319.2 L617.5,317.2 L621.5,318.7 L627.7,324.6 L629.3,329.6 L625.8,329.9 L621.6,328.6 L617.8,329.0 L615.4,331.7 L610.8,331.3 L603.4,334.3 L610.3,332.5 L618.9,335.1 L625.5,332.5 L623.1,334.8 L628.3,335.2 L632.3,337.2 L634.7,339.8 L633.4,341.9 L628.9,340.7 L623.1,341.2 L616.7,338.3 L613.9,338.6 L606.8,337.4 L617.2,340.6 L612.2,339.9 L608.7,343.0 L613.9,341.0 L622.3,344.3 L618.2,345.9 L619.3,347.6 L614.3,346.7 L621.5,349.2 L618.1,349.4 L620.7,350.8 L611.7,347.8 L612.9,349.0 L603.4,348.5 L614.4,350.2 L617.9,352.2 L610.9,351.8 L613.9,353.1 L621.2,354.2 L625.4,353.8 L629.5,356.6 L629.2,354.2 L634.3,356.1 L633.5,358.7 L628.3,357.1 L621.3,358.3 L624.1,359.2 L625.9,357.9 L630.6,358.6 L633.5,360.4 L632.6,362.7 L638.8,362.7 L640.2,364.9 L642.8,364.8 L641.8,373.0 L644.8,365.8 L648.4,365.2 L648.6,367.1 L651.4,366.4 L653.1,364.4 L657.5,365.6 L654.7,366.9 L653.4,370.2 L655.2,369.4 L656.5,371.4 L657.0,368.8 L659.8,369.0 L665.0,373.2 L664.1,375.6 L667.0,379.2 L656.4,378.1 L666.4,379.8 L666.1,380.7 L659.2,382.1 L666.0,381.7 L667.5,380.4 L672.4,380.6 L676.7,378.6 L677.5,381.8 L674.3,383.0 L674.9,386.0 L672.6,386.9 L673.2,390.8 L673.8,387.2 L676.2,386.2 L677.1,383.0 L680.8,389.6 L680.4,386.5 L682.4,385.3 L685.4,390.7 L683.8,385.3 L686.5,386.6 L686.3,383.9 L689.8,384.4 L697.8,391.6 L696.1,394.4 L691.9,392.9 L694.5,395.4 L694.8,398.4 L690.6,399.4 L687.3,398.8 L687.0,396.8 L682.8,396.6 L687.5,400.9 L684.0,401.4 L688.2,402.1 L687.1,407.7 L683.3,409.0 L680.1,414.0 L674.0,410.4 L673.3,413.8 L670.9,412.6 L670.4,415.3 L675.5,418.7 L671.6,420.4 L672.7,422.3 L670.9,425.6 L666.8,423.0 L663.0,422.3 L661.2,418.2 L659.9,421.8 L658.5,421.7 L657.9,417.6 L654.4,416.3 L650.6,413.6 L648.3,409.6 L650.0,406.4 L655.9,404.3 L656.1,402.8 L649.1,405.3 L643.0,405.3 L643.6,402.9 L639.7,402.0 L636.1,400.0 L636.5,397.9 Z M647.8,433.2 L646.3,433.2 L646.0,433.8 Z M475.7,318.0 L476.1,319.2 L480.5,321.4 L480.9,318.9 Z M595.2,313.9 L598.4,314.6 L600.5,313.1 L597.4,314.2 Z M193.7,160.8 L196.6,161.8 L194.8,162.8 L191.6,162.7 Z M127.9,132.3 L127.9,123.6 L132.9,125.4 L135.0,127.8 L132.6,132.0 Z M127.9,140.0 L127.9,137.2 L131.2,138.9 L127.9,141.5 Z M204.7,135.4 L208.2,133.0 L210.6,134.7 L207.2,136.8 Z M306.4,133.9 L308.6,133.3 L310.4,135.3 L307.6,135.3 Z M308.1,189.8 L310.3,195.1 L306.0,195.4 L304.2,194.2 L303.9,190.6 Z M352.0,160.8 L350.2,161.6 L345.7,159.3 L350.1,158.8 Z M380.8,130.8 L383.6,128.8 L381.3,133.4 L379.3,132.6 Z M269.3,224.8 L273.4,221.7 L275.5,222.6 L274.2,224.5 Z M299.1,224.7 L292.8,223.4 L293.9,221.4 L296.2,221.4 Z M401.3,370.6 L398.4,369.8 L396.6,367.1 L398.0,365.7 L396.1,363.6 L399.7,359.0 L402.4,360.3 L403.6,366.1 Z M391.6,320.7 L398.5,322.2 L400.7,321.6 L402.3,323.8 L398.8,324.6 L392.8,323.2 Z M362.7,173.1 L361.1,178.0 L358.2,176.7 L353.7,171.7 L355.0,169.9 L360.8,168.9 L364.1,171.3 Z M278.2,253.9 L279.0,252.8 L282.6,255.8 L283.9,258.2 L282.3,260.4 L279.0,260.5 L277.1,256.9 Z M234.6,199.9 L231.7,199.7 L241.0,198.3 L241.7,199.1 Z M557.6,438.9 L558.9,439.6 L558.7,441.3 L556.5,441.2 Z M564.2,448.7 L561.3,447.6 L564.8,447.7 L564.9,449.6 Z M539.9,353.8 L538.1,352.7 L539.1,351.5 L542.5,353.6 Z M560.5,289.0 L563.4,288.5 L563.4,291.2 L559.9,290.3 Z M478.7,517.0 L478.6,518.6 L474.3,521.2 L476.4,518.5 Z M490.3,273.8 L489.0,271.7 L490.1,271.3 L492.8,273.1 Z M479.0,568.8 L480.3,567.5 L479.2,571.1 L478.4,570.6 Z M569.4,305.3 L573.3,301.3 L579.2,302.4 L578.7,304.5 L570.4,306.7 Z M503.0,145.8 L501.6,144.5 L506.3,143.6 L505.3,145.4 Z M501.7,443.6 L502.4,442.4 L507.1,442.4 L505.3,444.3 Z M547.3,360.2 L547.0,361.5 L543.8,356.3 L544.9,355.7 L547.7,358.2 Z M543.0,120.4 L547.1,121.4 L545.0,122.8 L540.2,121.1 Z M441.8,399.1 L443.9,399.4 L443.0,400.8 L439.7,399.8 Z M489.9,361.4 L487.7,360.8 L488.0,357.9 L492.1,359.5 Z M491.9,581.6 L489.3,583.2 L493.9,576.7 L493.6,580.7 Z M487.0,648.1 L487.0,648.8 L482.5,649.4 L482.2,648.3 L485.6,646.4 Z M494.3,354.7 L492.1,356.2 L490.5,354.5 L493.6,353.0 L491.0,351.8 L496.0,352.4 Z M548.8,468.8 L546.4,468.8 L544.3,467.5 L548.7,467.6 Z M508.4,449.2 L513.1,449.0 L517.9,452.1 L517.1,454.6 L513.9,454.1 L508.6,450.6 Z M535.7,350.9 L539.5,355.2 L538.8,358.2 L531.9,354.4 L533.7,350.3 Z M516.6,338.4 L514.6,341.4 L510.1,341.6 L509.2,336.5 L512.4,335.5 L516.9,336.1 Z M496.7,333.9 L491.5,334.4 L497.1,330.3 L500.0,329.2 L502.3,331.4 Z M548.5,1.2 L547.6,2.0 L541.0,1.3 L548.2,0.0 Z M460.0,335.4 L460.8,337.7 L456.8,336.2 L460.1,336.5 Z M413.3,151.6 L415.3,150.4 L419.5,150.6 L421.6,152.6 L419.2,153.5 Z M481.6,579.7 L481.4,578.8 L477.6,580.7 L477.6,578.6 L482.8,576.5 Z M621.4,346.9 L624.7,347.7 L624.2,349.9 L619.3,346.1 Z M664.0,446.0 L664.0,448.9 L663.0,447.1 L661.8,445.6 Z M654.8,435.9 L656.7,436.7 L653.8,438.9 L653.3,436.6 Z M667.3,376.1 L665.4,374.3 L666.4,372.4 L668.6,374.2 Z M647.4,363.0 L646.0,361.7 L648.4,362.1 L649.5,365.7 Z M625.7,408.6 L628.2,408.4 L626.4,410.2 L622.5,410.8 L623.0,408.1 Z M657.3,506.8 L660.9,508.7 L657.7,509.1 L655.7,507.1 Z M654.7,484.8 L651.4,482.0 L653.9,481.4 L656.4,483.7 Z M682.2,381.3 L685.0,381.9 L680.4,385.2 L679.1,384.1 Z M672.8,378.3 L672.7,379.8 L668.0,379.5 L669.4,378.2 Z M641.0,359.8 L639.8,360.1 L638.2,362.1 L633.9,360.9 Z M651.2,484.1 L658.6,487.1 L656.9,492.0 L648.9,487.4 Z M661.7,470.1 L662.4,471.4 L658.1,473.4 L655.2,472.1 L657.3,469.5 Z M615.7,506.0 L619.0,505.1 L621.0,507.3 L619.3,510.3 L615.2,511.9 L613.8,510.7 Z M663.7,449.9 L662.7,450.9 L665.4,456.5 L661.8,454.0 L660.2,450.3 Z M661.7,448.1 L660.4,449.2 L658.2,447.0 L655.3,446.7 L658.6,444.5 L658.9,446.9 Z M684.1,412.0 L684.1,409.8 L686.0,409.8 L687.7,411.2 Z M621.2,330.3 L622.1,331.5 L619.8,333.9 L615.3,332.6 Z M372.5,383.4 L372.5,379.6 L372.4,372.8 L372.2,360.0 L372.2,359.5 L372.4,359.2 L372.2,359.4 L372.2,349.4 L372.3,339.6 L375.0,342.8 L381.5,346.4 L384.6,349.7 L385.1,353.8 L386.8,357.5 L385.2,361.1 L382.1,360.3 L382.1,357.5 L379.8,359.3 L381.0,362.0 L379.6,365.4 L382.9,371.8 L384.8,372.7 L392.0,379.9 L392.9,383.2 L393.4,380.6 L396.6,380.6 L397.8,376.9 L400.7,378.3 L402.5,373.2 L401.7,371.6 L406.4,365.6 L409.2,364.0 L409.0,361.4 L411.3,356.9 L410.9,352.4 L413.2,349.2 L422.0,350.2 L421.1,348.4 L418.0,348.5 L417.9,345.6 L422.0,346.1 L418.9,343.2 L418.3,344.5 L414.4,343.3 L416.4,342.7 L414.8,340.4 L413.3,334.7 L413.6,329.2 L415.5,327.8 L418.8,328.5 L420.9,327.1 L424.7,326.9 L429.7,327.9 L430.5,329.0 L433.6,327.7 L435.7,330.4 L447.4,330.6 L449.1,334.0 L451.8,334.3 L451.6,334.8 L451.4,335.6 L449.1,334.0 L449.3,334.5 L447.1,334.9 L452.2,336.6 L452.8,339.0 L449.9,340.4 L458.5,339.3 L462.7,340.8 L462.8,342.8 L458.4,345.9 L459.8,348.2 L461.8,347.3 L463.9,349.5 L463.5,352.2 L459.4,354.7 L457.1,354.5 L455.3,356.7 L448.1,354.7 L447.3,357.1 L453.0,358.4 L448.8,358.8 L452.0,360.0 L450.9,362.2 L453.2,363.0 L453.7,367.1 L461.5,373.1 L464.1,376.2 L462.5,379.0 L460.8,386.2 L457.1,385.2 L453.9,386.6 L453.0,391.0 L450.4,390.7 L447.8,393.8 L443.1,394.0 L443.0,395.3 L439.4,397.6 L436.7,397.6 L435.2,394.6 L431.9,393.5 L431.2,391.2 L426.4,389.0 L426.7,387.3 L424.0,385.7 L419.4,385.9 L418.7,385.1 L405.6,385.1 L372.6,385.1 Z M451.2,353.6 L455.2,352.1 L454.2,348.9 L450.6,347.7 L452.4,349.5 L450.1,351.3 L448.0,349.9 L446.7,352.8 Z M188.3,244.6 L188.7,244.6 L189.0,244.7 Z M187.3,244.5 L187.4,244.5 L187.5,244.5 Z M172.5,242.4 L179.4,241.5 L183.2,241.9 L187.3,244.5 L180.8,243.6 Z M282.1,265.4 L284.1,264.4 L283.5,265.8 Z M278.5,264.3 L278.6,264.3 L278.7,264.4 Z M277.1,263.9 L277.8,263.8 L278.1,264.2 L277.7,264.1 Z M276.4,263.7 L277.2,263.8 L277.1,263.9 L276.8,263.8 Z M278.9,264.5 L282.3,261.2 L283.2,263.7 L280.0,264.8 L279.9,264.7 Z M237.8,253.6 L239.3,251.7 L234.1,252.8 L233.2,252.5 L231.3,252.1 L224.2,247.8 L229.2,245.2 L233.0,245.4 L235.4,248.4 L236.8,245.4 L232.7,244.9 L230.1,242.3 L232.8,240.3 L236.8,239.4 L242.9,241.7 L245.1,239.9 L241.4,240.2 L240.1,238.2 L246.0,237.8 L246.5,239.7 L252.6,242.3 L263.6,240.9 L271.2,238.6 L276.2,239.6 L279.4,243.2 L276.2,246.4 L273.3,245.7 L273.6,247.8 L276.5,248.8 L275.5,250.6 L270.5,251.8 L261.7,259.7 L254.3,257.7 Z M433.0,398.8 L434.2,399.2 L434.4,400.1 L433.8,399.6 L433.2,398.9 L433.2,398.9 L433.1,398.9 L433.1,398.9 Z M434.5,400.2 L435.1,400.5 L435.1,400.8 Z M419.8,386.3 L420.7,386.3 L419.9,386.4 Z M420.8,387.4 L420.9,386.9 L420.4,387.0 L420.4,386.9 L420.4,386.9 L420.4,386.9 L420.0,386.5 L427.8,389.6 L426.3,390.7 L429.8,391.3 L429.5,393.7 L432.6,396.0 L432.9,398.7 L424.2,390.4 Z M276.3,263.7 L267.0,261.1 L263.3,260.1 L265.6,258.4 L271.6,258.4 L276.1,260.3 Z M315.2,275.5 L305.4,272.4 L300.6,270.9 L297.8,266.9 L295.6,266.1 L295.5,263.7 L292.7,263.1 L293.4,257.8 L295.4,255.4 L293.9,249.3 L294.9,246.7 L294.5,242.3 L298.6,241.4 L303.7,243.6 L298.1,238.3 L298.4,236.7 L308.7,233.5 L318.8,232.3 L326.2,233.0 L333.8,235.5 L333.4,237.6 L336.4,236.3 L342.7,235.6 L347.4,236.0 L356.1,238.2 L356.5,241.2 L349.9,247.6 L339.7,261.7 L333.9,265.5 L323.0,263.7 L310.4,264.0 L310.0,265.0 L315.6,265.4 L318.8,268.2 L320.3,271.0 Z M261.7,235.2 L269.9,233.4 L271.3,234.6 L265.9,238.7 L257.1,240.3 L253.9,240.5 L249.9,238.3 L257.7,235.5 Z M232.7,146.7 L225.8,146.8 L221.9,148.2 L215.1,146.5 L214.6,143.0 L222.9,142.3 L228.5,143.6 Z M145.1,188.0 L151.8,187.9 L153.7,189.9 L149.3,193.4 L155.8,191.4 L160.9,191.8 L159.9,193.0 L162.4,197.5 L162.7,194.8 L166.0,194.1 L162.5,193.2 L162.3,190.9 L166.4,187.6 L173.5,188.9 L178.2,191.1 L179.7,193.0 L180.1,198.2 L176.3,201.6 L177.3,204.5 L173.8,207.9 L175.2,208.8 L171.9,210.7 L173.0,211.8 L163.8,213.2 L159.0,215.2 L153.4,213.7 L144.7,215.0 L142.5,211.9 L134.1,214.1 L131.4,216.4 L127.9,216.1 L127.9,200.5 L134.6,200.8 L139.1,201.8 L138.6,196.6 L135.4,194.9 L129.9,194.0 L127.9,190.9 L134.5,188.0 L131.9,184.9 L127.8,183.4 L127.8,177.1 L129.4,177.1 L131.7,172.3 L134.4,169.8 L140.1,168.9 L144.8,172.0 L141.1,174.5 L143.7,175.7 L142.7,179.2 L146.4,179.9 L148.7,183.7 L145.3,185.1 Z M254.6,173.3 L260.8,172.7 L262.0,174.3 L269.1,176.1 L270.6,177.5 L269.3,181.8 L273.0,186.1 L270.9,190.0 L272.1,192.4 L267.7,195.7 L274.1,196.7 L274.0,202.4 L271.3,202.5 L268.9,200.4 L268.9,203.4 L266.5,205.6 L271.9,209.8 L267.3,210.5 L267.4,212.4 L255.8,212.9 L248.6,213.7 L242.2,213.4 L238.9,212.4 L238.2,207.8 L243.6,207.4 L238.9,206.8 L235.6,204.9 L238.0,204.5 L234.9,202.9 L243.3,202.3 L239.8,200.7 L247.4,198.6 L249.8,197.0 L243.8,197.0 L228.6,199.2 L214.9,200.3 L212.0,201.3 L209.8,198.1 L215.6,194.6 L218.0,192.2 L221.6,191.5 L226.3,193.6 L224.4,191.2 L228.1,189.1 L223.7,189.9 L220.9,186.5 L226.3,184.1 L218.4,184.1 L218.6,181.0 L221.0,178.5 L225.7,178.6 L230.9,181.5 L230.0,183.6 L233.1,183.9 L236.2,186.1 L235.0,187.2 L239.8,188.0 L244.1,192.2 L247.9,190.1 L242.4,188.4 L242.0,185.5 L246.9,185.9 L243.9,184.4 L238.1,184.1 L239.5,182.4 L245.1,182.6 L240.3,180.0 L234.8,180.1 L231.7,177.2 L240.7,173.7 L244.4,174.5 L247.5,172.9 L242.9,171.0 L248.2,171.1 L250.4,172.2 L248.7,174.8 L254.3,179.8 L255.7,177.9 Z M188.0,205.7 L191.9,202.9 L196.8,203.5 L201.2,209.2 L198.0,211.7 L191.4,212.4 L185.7,210.2 Z M207.2,191.8 L218.2,189.4 L220.2,190.5 L214.6,192.9 L213.3,194.6 L204.0,195.2 Z M209.9,187.6 L215.3,187.0 L215.8,189.0 L206.1,191.0 L203.8,192.1 L201.2,193.3 L196.9,190.6 Z M195.7,183.8 L206.9,181.7 L211.1,181.6 L213.8,184.2 L211.9,186.6 L202.5,188.9 L191.5,187.1 L193.0,183.8 Z M201.1,176.4 L208.1,178.4 L205.8,180.6 L198.7,181.8 L194.6,180.8 L189.6,177.6 L188.5,174.8 L193.3,172.9 L197.2,173.4 Z M187.5,154.6 L191.2,157.4 L192.3,160.0 L187.6,162.2 L181.3,160.5 L177.4,154.8 L177.0,152.1 L174.7,150.5 L171.5,146.8 L176.3,146.1 L179.9,147.7 L184.5,151.6 L184.4,154.9 Z M244.7,121.9 L242.8,123.5 L249.2,124.8 L245.7,132.2 L249.3,132.7 L254.6,137.9 L253.3,143.5 L245.1,145.4 L236.3,143.3 L233.5,138.9 L234.5,137.6 L230.5,134.9 L221.6,135.7 L223.1,133.2 L217.9,132.5 L213.2,133.9 L210.2,132.5 L211.9,130.3 L198.7,132.3 L197.3,133.7 L191.1,133.2 L186.9,130.8 L184.4,127.0 L187.2,125.1 L194.2,126.4 L201.9,127.1 L203.5,124.1 L196.1,124.0 L202.2,122.9 L204.5,121.1 L203.0,119.7 L195.2,120.5 L193.8,119.5 L198.1,116.4 L193.0,114.8 L189.3,118.2 L184.9,119.6 L188.2,114.6 L185.2,112.8 L178.2,113.7 L177.0,109.9 L180.0,106.7 L196.9,104.5 L203.5,106.6 L207.0,106.8 L212.7,112.6 L210.7,115.6 L214.2,117.2 L216.5,113.8 L221.3,111.9 L226.4,113.0 L231.9,115.7 L229.1,119.4 L239.2,118.7 Z M299.7,165.1 L307.9,165.8 L310.2,167.6 L313.8,166.6 L318.2,167.4 L323.3,171.2 L321.9,176.1 L317.7,178.4 L320.7,178.3 L324.2,174.9 L335.4,174.4 L338.2,173.0 L343.7,172.5 L349.1,173.5 L353.9,175.8 L354.9,178.1 L350.7,178.2 L344.7,176.9 L344.0,178.0 L348.8,178.4 L353.5,180.0 L356.5,179.7 L363.0,181.4 L369.0,182.1 L368.7,184.7 L363.2,185.4 L350.3,185.2 L346.1,184.0 L346.2,185.3 L358.5,187.9 L348.1,189.5 L349.8,191.3 L351.3,189.7 L358.5,190.9 L360.1,189.0 L365.7,192.7 L370.0,194.4 L369.5,198.3 L371.1,201.7 L375.0,202.9 L373.5,198.6 L375.3,196.9 L381.6,200.4 L381.7,201.6 L392.2,198.4 L397.8,201.7 L406.6,203.1 L406.0,201.7 L412.8,198.9 L415.2,199.4 L418.5,197.5 L424.0,198.2 L423.0,196.6 L427.2,196.4 L431.5,193.6 L434.1,193.6 L438.0,195.5 L443.4,195.3 L450.4,193.3 L465.2,195.0 L462.9,197.7 L466.4,198.3 L472.0,197.6 L477.3,199.4 L477.6,200.7 L473.7,202.3 L483.1,202.3 L483.8,207.8 L473.9,213.0 L483.7,212.9 L485.2,216.2 L474.9,218.7 L474.9,222.9 L463.6,223.0 L457.5,225.5 L450.6,224.3 L445.2,224.1 L441.7,221.6 L441.3,217.2 L436.2,216.1 L439.2,218.8 L435.9,223.8 L428.2,224.7 L420.4,224.8 L418.7,221.2 L418.0,224.8 L413.7,223.5 L412.2,224.9 L406.1,225.3 L406.5,223.4 L402.5,225.3 L398.0,223.6 L400.3,225.6 L387.3,225.8 L377.5,224.8 L379.3,219.2 L376.1,216.7 L374.7,220.6 L373.3,218.4 L371.0,221.9 L367.0,223.6 L360.9,224.1 L353.4,222.1 L350.9,219.6 L348.6,220.0 L351.9,215.8 L347.6,219.2 L347.7,221.7 L340.7,220.8 L341.8,220.2 L336.7,218.4 L336.7,214.0 L334.4,212.4 L336.9,211.0 L331.3,208.1 L332.0,203.3 L334.3,200.4 L337.2,199.2 L335.9,192.9 L330.9,190.3 L329.5,186.3 L325.9,183.5 L324.5,180.6 L321.5,180.5 L317.3,183.3 L306.3,182.6 L305.8,181.6 L301.1,184.0 L297.3,183.8 L299.1,181.8 L297.9,180.3 L292.3,179.8 L288.7,177.1 L293.3,176.3 L294.9,174.6 L289.6,175.8 L287.0,174.3 L285.2,175.8 L284.5,172.6 L279.8,172.3 L281.6,170.1 L279.6,166.1 L285.9,165.4 L285.9,164.2 L293.8,163.2 Z M317.9,145.4 L322.7,146.7 L324.5,148.5 L320.8,149.3 L319.0,153.9 L311.9,153.8 L304.1,152.9 L298.9,153.5 L292.0,153.4 L286.8,150.0 L287.1,147.7 L291.3,145.9 L297.2,144.9 L298.6,146.2 L305.4,145.2 L315.3,146.6 Z M279.7,122.0 L288.1,123.8 L286.7,126.4 L290.5,127.7 L294.2,126.7 L301.0,128.7 L303.9,131.0 L296.8,134.0 L303.2,137.1 L300.6,141.2 L297.2,140.7 L286.8,143.5 L284.6,142.3 L279.5,145.3 L276.9,144.7 L278.4,142.1 L269.2,139.0 L270.0,137.7 L279.1,138.1 L279.9,136.5 L274.7,134.5 L271.6,134.9 L262.2,128.0 L266.4,126.0 L262.5,123.2 L261.5,119.3 L272.5,119.4 Z M296.1,217.2 L293.6,217.4 L288.7,214.7 L286.2,215.2 L285.9,213.0 L282.9,213.3 L285.1,208.3 L291.0,204.0 L288.6,203.4 L296.7,199.6 L298.0,200.2 L303.0,197.9 L310.0,199.1 L319.6,206.7 L318.7,208.4 L320.9,216.0 L319.7,219.3 L317.0,221.5 L306.1,221.7 L301.1,220.6 L301.4,218.9 Z M364.7,157.3 L361.9,159.3 L356.5,160.1 L347.7,156.3 L346.6,155.4 L346.5,149.7 L350.2,148.6 L358.4,149.9 L363.8,153.4 Z M417.4,114.2 L404.1,117.1 L401.8,116.9 L404.4,113.9 L410.3,112.4 L416.4,112.8 Z M302.6,71.0 L299.3,71.2 L289.1,69.7 L300.9,69.1 Z M323.3,54.8 L315.2,55.2 L309.5,53.8 L313.2,50.6 L320.3,51.9 L319.1,50.3 L324.6,50.9 L334.0,53.6 L340.0,56.6 L340.7,59.4 L347.4,67.0 L352.3,68.6 L354.3,70.7 L351.9,72.7 L359.3,73.1 L361.7,74.3 L365.7,73.2 L369.8,73.8 L372.5,75.8 L370.0,79.8 L371.1,82.0 L375.2,84.5 L382.8,85.6 L380.4,82.3 L376.3,80.3 L377.0,77.5 L379.6,76.1 L388.7,77.0 L389.3,83.2 L384.0,84.3 L384.6,86.0 L392.6,85.7 L396.6,90.0 L394.2,97.5 L390.7,99.4 L391.8,100.9 L398.5,97.5 L403.9,97.2 L406.6,98.4 L407.5,102.7 L409.7,98.2 L411.1,98.0 L416.3,103.8 L420.6,107.4 L415.9,109.5 L401.9,112.7 L398.4,115.3 L396.0,113.8 L396.2,117.3 L392.2,119.4 L389.7,123.1 L385.4,122.0 L384.3,115.2 L382.3,114.4 L381.4,118.1 L383.0,122.5 L385.7,125.0 L383.9,127.8 L380.4,127.8 L377.4,124.4 L374.7,125.3 L377.8,129.2 L374.2,136.2 L370.4,134.6 L368.2,131.7 L361.0,124.9 L359.3,125.8 L363.1,129.8 L367.0,135.6 L362.1,134.6 L360.4,132.3 L356.5,132.2 L356.6,136.4 L348.4,136.2 L336.9,134.9 L334.3,131.7 L331.4,132.1 L326.3,129.2 L326.3,127.4 L330.6,126.7 L341.5,126.4 L341.1,125.4 L334.6,125.3 L327.5,123.8 L322.1,125.1 L315.8,120.3 L318.6,119.8 L325.2,121.0 L320.7,118.9 L315.4,118.8 L310.2,114.6 L317.0,112.8 L321.0,110.0 L327.5,110.9 L328.1,109.9 L337.0,110.3 L347.3,108.9 L355.1,108.5 L347.2,107.8 L334.0,108.9 L329.3,107.4 L331.1,106.3 L336.7,106.5 L330.3,104.2 L334.6,103.0 L332.4,102.2 L321.3,105.4 L319.7,105.1 L313.5,107.6 L313.4,104.4 L307.5,103.3 L306.6,105.5 L302.4,107.3 L297.1,104.4 L293.2,103.5 L293.3,100.1 L302.7,98.8 L309.8,96.6 L309.8,94.3 L304.8,96.8 L295.8,97.7 L291.3,97.1 L282.9,90.5 L288.1,89.8 L283.4,88.9 L282.3,83.9 L286.1,84.1 L294.2,86.8 L303.7,86.5 L309.6,88.1 L304.4,85.6 L308.8,83.3 L307.1,81.7 L305.2,83.6 L299.1,84.7 L293.7,83.3 L298.8,82.4 L295.4,81.2 L291.4,82.7 L285.7,80.5 L284.1,78.2 L296.1,77.5 L289.6,74.7 L290.6,72.2 L302.5,71.6 L305.1,72.8 L313.4,73.0 L313.6,71.9 L307.6,71.7 L306.5,69.4 L311.7,69.1 L310.3,67.7 L306.5,68.3 L298.4,66.8 L296.7,63.3 L299.2,60.6 L303.9,59.0 L310.5,61.2 L311.0,59.9 L309.8,58.2 L315.9,57.9 L319.6,58.8 L324.3,58.2 L325.5,56.3 Z M278.5,201.1 L285.9,199.2 L286.8,197.7 L291.4,199.6 L288.9,202.2 L284.5,200.1 L284.9,202.2 L280.4,204.7 Z M234.1,174.0 L227.4,175.9 L222.8,174.7 L231.1,172.7 L234.5,170.9 L240.1,171.6 Z M249.0,90.8 L241.4,90.7 L243.0,85.3 L248.0,83.8 L249.9,85.0 L252.6,83.2 L257.1,85.9 L259.4,93.4 L257.0,96.7 L251.0,94.2 L251.8,92.2 Z M480.0,583.1 L483.6,576.5 L484.8,576.5 L483.6,580.2 L485.2,579.8 L486.7,574.3 L490.7,576.4 L490.3,579.0 L487.2,585.9 L488.1,579.6 L484.9,585.0 L482.6,585.0 L484.3,582.0 L483.4,581.5 L479.7,586.3 L477.9,584.8 Z M500.5,458.6 L495.1,453.3 L502.9,452.8 L505.8,453.7 L507.4,457.9 L503.1,459.8 Z M555.2,370.0 L549.4,369.5 L545.0,369.9 L542.1,369.1 L539.3,365.1 L540.5,363.7 L542.8,363.9 L544.3,361.4 L545.4,363.6 L550.9,365.3 L555.5,365.6 L556.3,368.4 Z M517.2,360.0 L521.6,358.4 L526.3,358.2 L534.5,360.1 L536.5,361.7 L535.1,365.8 L536.3,373.2 L532.7,377.8 L526.4,380.2 L521.6,380.2 L516.9,380.9 L513.4,380.3 L510.8,376.1 L510.0,370.6 L513.9,363.3 Z M487.3,342.9 L490.3,342.6 L494.0,338.9 L495.8,336.6 L499.1,338.7 L496.0,340.1 L493.1,345.4 L487.0,348.1 L485.4,346.2 Z M507.7,261.5 L499.0,261.2 L488.4,264.4 L483.3,264.4 L478.2,262.0 L476.0,257.9 L476.6,254.1 L469.1,252.8 L468.0,248.2 L469.6,248.1 L467.6,245.2 L468.9,241.9 L474.4,242.0 L483.8,244.6 L499.9,243.9 L510.9,247.4 L514.2,251.7 L518.4,254.0 L519.6,256.3 L521.7,260.0 L524.3,260.4 L522.2,262.9 L513.6,262.6 Z M469.8,329.1 L473.3,329.9 L472.4,328.4 L476.0,328.1 L478.5,329.8 L481.9,327.8 L486.1,328.7 L486.0,330.1 L482.3,332.1 L477.2,331.7 L479.1,334.0 L475.4,333.9 L472.3,330.7 L469.3,330.9 Z M475.7,483.5 L475.0,479.8 L476.3,476.0 L479.8,472.7 L484.3,472.8 L486.7,475.6 L484.6,481.8 L481.8,486.8 L479.8,487.4 L477.1,483.5 Z M481.0,192.2 L487.0,188.7 L488.5,186.5 L492.2,187.2 L487.7,190.6 L489.6,192.3 L483.0,193.5 Z M463.0,634.8 L455.2,632.8 L454.0,632.0 L455.9,629.7 L459.9,629.0 L465.0,629.0 L468.4,632.2 L470.2,635.4 L469.4,637.1 Z M586.9,466.1 L581.2,463.5 L583.1,463.0 L589.5,465.5 L593.3,469.4 L591.2,470.2 L587.2,469.7 L585.1,466.3 Z">
  <desc xmlns="http://www.highcharts.com/svg/namespace">
    <name>Baffin</name>
    <type>REG</type>
    <hc-middle-x>0.77</hc-middle-x>
    <hc-middle-y>0.06</hc-middle-y>
    <hc-key>ca-nu-6204</hc-key>
    <hc-a2>BA</hc-a2>
  </desc>
</path>

<path fill="#CEE3F5" stroke="#6E6E6E" stroke-width="0.4" id="CA.NU.6208" d="M138.8,367.9 L136.5,368.5 L135.8,366.0 L139.2,365.9 Z M113.7,356.2 L113.4,355.1 L116.7,353.8 L118.0,355.2 Z M149.2,245.2 L154.1,245.1 L154.6,245.8 L150.9,246.8 Z M182.9,353.9 L185.3,353.1 L189.3,353.6 L191.3,356.6 L187.7,356.7 Z M344.1,327.8 L342.8,329.8 L340.3,328.4 L344.1,326.6 Z M242.0,341.7 L243.7,345.6 L241.7,345.6 L240.5,343.8 Z M353.7,337.3 L355.5,340.2 L353.9,340.7 L351.7,338.8 Z M356.1,336.0 L359.0,336.5 L356.6,339.8 L354.7,337.7 Z M239.0,343.7 L241.8,347.5 L241.7,349.0 L238.7,350.7 L236.3,349.6 L236.1,344.9 Z M297.4,333.4 L297.7,336.4 L294.2,338.9 L294.3,333.3 L291.9,337.3 L290.7,334.4 L292.9,331.6 Z M227.7,334.9 L227.8,332.6 L232.1,334.9 L230.6,336.6 L228.8,334.1 Z M218.5,353.1 L215.9,350.9 L219.8,348.4 L223.6,349.9 L222.0,353.8 Z M282.8,333.0 L288.3,332.6 L289.6,335.3 L288.9,337.5 L283.8,334.8 Z M238.5,309.4 L242.0,312.1 L239.1,313.7 L235.6,312.1 L236.0,310.2 Z M372.5,383.4 L372.6,385.1 L352.0,385.1 L351.4,385.1 L350.0,385.1 L344.9,385.1 L212.6,385.1 L184.7,385.1 L184.7,404.6 L184.4,433.9 L157.2,430.8 L139.5,429.1 L137.3,427.2 L119.6,415.5 L95.6,415.4 L48.1,389.1 L43.0,386.5 L25.0,381.2 L1.1,369.6 L1.6,360.1 L1.4,352.5 L0.0,332.9 L4.0,335.8 L9.1,337.7 L17.0,338.5 L24.4,340.2 L27.6,342.6 L35.3,345.2 L39.2,345.5 L41.7,346.8 L44.7,346.1 L48.1,347.4 L50.9,347.0 L56.2,348.4 L51.6,345.7 L53.1,345.0 L56.9,346.2 L56.4,344.6 L60.2,345.2 L66.2,347.8 L71.8,349.4 L73.7,352.3 L76.9,353.7 L78.4,356.5 L80.2,357.2 L79.0,360.3 L71.7,360.3 L65.5,362.3 L65.8,365.3 L61.3,366.6 L67.4,369.3 L71.5,369.6 L80.7,371.3 L89.3,371.2 L95.4,371.8 L105.5,369.9 L108.9,370.1 L113.4,368.2 L113.5,370.0 L122.5,365.8 L121.7,364.6 L125.8,363.1 L131.5,360.0 L127.1,363.2 L124.0,364.2 L126.6,367.3 L130.0,369.2 L129.4,370.7 L137.0,370.6 L138.5,374.3 L137.9,376.2 L140.1,378.1 L141.2,372.8 L142.7,373.0 L144.1,378.3 L146.1,377.8 L149.7,379.6 L151.9,382.7 L151.1,384.3 L148.0,383.5 L147.5,385.1 L142.3,382.2 L143.6,384.6 L149.9,386.4 L149.2,388.3 L154.6,394.4 L158.7,398.0 L159.3,397.5 L155.0,393.6 L153.7,391.0 L152.4,384.8 L155.4,385.3 L153.8,387.1 L159.0,385.9 L154.6,382.8 L152.5,378.8 L154.5,375.2 L149.1,370.3 L153.6,366.5 L150.9,366.1 L151.1,363.1 L156.7,364.3 L164.5,362.2 L167.1,360.2 L163.6,356.8 L162.2,359.9 L160.5,358.7 L156.0,362.1 L152.3,361.5 L148.7,362.7 L148.0,361.5 L145.1,364.1 L145.1,359.0 L139.9,359.9 L145.3,352.9 L157.8,350.9 L163.5,348.5 L170.4,346.5 L175.6,347.2 L179.5,350.2 L179.5,356.4 L184.3,358.8 L187.0,358.8 L185.2,360.3 L189.6,360.0 L188.7,362.2 L191.2,361.7 L190.2,363.9 L194.6,364.9 L202.3,363.7 L203.5,361.9 L204.0,365.1 L208.9,366.6 L210.0,368.4 L214.9,369.4 L216.5,370.8 L218.4,369.9 L226.8,371.6 L227.2,370.4 L233.1,369.9 L233.9,368.5 L241.0,368.2 L248.0,369.5 L249.4,369.1 L252.9,371.0 L256.8,369.9 L263.0,369.3 L258.6,366.2 L258.2,364.2 L260.2,363.0 L262.7,365.0 L263.4,361.5 L258.8,357.6 L265.3,358.1 L269.4,356.9 L267.0,354.1 L274.5,354.9 L278.7,358.2 L279.7,360.2 L286.7,359.7 L287.0,361.2 L291.0,359.9 L288.7,366.2 L288.3,371.2 L289.2,372.5 L285.6,374.2 L287.8,376.7 L289.6,376.2 L287.6,380.1 L289.1,380.7 L295.3,377.5 L294.7,380.6 L300.4,379.5 L298.6,378.4 L298.3,373.9 L293.0,370.4 L295.7,369.0 L296.8,364.0 L301.1,363.3 L305.6,364.1 L306.9,362.2 L311.6,359.8 L311.5,357.7 L314.2,355.6 L318.0,354.4 L316.9,352.6 L318.8,347.8 L317.8,345.2 L315.1,344.9 L313.0,347.1 L314.9,348.1 L312.8,349.7 L309.2,350.5 L306.5,349.8 L307.5,345.2 L309.0,345.9 L312.2,342.4 L310.2,341.4 L310.6,338.1 L314.4,337.2 L313.7,335.7 L310.5,335.7 L306.5,331.4 L304.3,333.2 L299.2,331.4 L294.0,328.2 L292.6,329.1 L289.6,327.4 L289.2,325.0 L284.6,322.0 L284.0,317.1 L286.4,315.4 L287.7,312.0 L289.6,311.5 L283.5,307.4 L285.4,301.3 L285.3,299.3 L281.8,296.6 L287.2,296.4 L288.2,294.3 L291.4,294.1 L296.0,296.5 L295.6,292.2 L291.2,290.9 L292.3,289.2 L296.9,286.9 L300.0,282.1 L307.2,281.1 L309.3,282.5 L307.1,284.2 L306.7,286.5 L309.3,285.1 L309.4,287.7 L312.5,286.4 L317.5,286.2 L316.2,288.8 L323.3,292.9 L326.0,295.2 L327.4,299.3 L326.1,306.4 L328.3,306.8 L330.9,309.5 L335.5,311.4 L334.3,313.5 L337.2,315.8 L340.8,316.5 L342.9,320.9 L336.6,321.2 L334.1,319.7 L332.0,322.3 L335.4,322.0 L338.0,323.6 L330.6,328.1 L329.8,329.8 L333.4,330.3 L335.7,333.3 L339.7,334.6 L343.5,331.1 L348.4,330.7 L344.9,333.5 L348.8,332.6 L349.2,334.0 L352.2,332.8 L356.5,335.5 L350.9,337.9 L351.1,341.8 L352.9,344.9 L355.6,347.3 L354.3,352.4 L355.2,354.5 L353.7,356.1 L357.3,357.5 L358.1,360.3 L361.0,357.4 L360.5,355.1 L362.5,355.2 L361.4,352.5 L364.5,348.6 L363.6,345.4 L369.3,339.4 L372.3,339.6 L372.2,349.4 L372.2,359.4 L370.5,360.7 L372.2,359.5 Z M187.3,244.5 L187.3,244.5 L187.3,244.5 L187.5,244.5 L187.7,244.6 L188.3,244.6 L189.0,244.7 L191.1,246.6 L190.3,251.0 L182.4,260.4 L181.8,262.3 L172.0,254.4 L172.8,254.1 L167.8,249.9 L161.0,248.3 L165.1,243.5 L172.5,242.4 L180.8,243.6 Z M237.8,253.6 L254.3,257.7 L261.7,259.7 L262.1,261.2 L263.3,260.1 L267.0,261.1 L276.3,263.7 L276.3,263.7 L276.4,263.7 L276.8,263.8 L277.1,263.9 L277.1,264.0 L277.1,263.9 L277.7,264.1 L278.1,264.2 L276.5,267.9 L282.1,265.4 L283.5,265.8 L285.1,267.0 L287.1,272.0 L282.6,274.4 L284.0,275.0 L284.8,280.2 L284.1,284.7 L279.6,285.2 L280.6,288.7 L278.1,286.9 L273.9,289.3 L267.1,288.3 L264.8,288.9 L262.2,286.4 L262.4,288.7 L265.7,292.3 L260.3,296.5 L252.5,295.2 L251.0,290.3 L248.7,289.5 L245.2,284.4 L242.5,283.9 L235.3,276.7 L231.5,276.8 L229.0,273.5 L226.9,275.7 L221.0,273.1 L219.4,270.0 L212.8,266.7 L211.0,264.2 L213.8,258.3 L218.5,257.0 L220.9,257.6 L222.9,260.5 L225.8,261.7 L228.7,265.4 L233.1,265.9 L236.2,263.3 L238.3,264.8 L239.7,263.2 L237.6,260.0 L239.9,255.9 L237.3,257.1 Z M259.5,267.3 L262.8,267.4 L263.2,269.7 L265.0,269.2 L261.7,266.2 L255.5,266.7 Z M280.0,264.8 L279.6,264.8 L278.9,264.5 L279.9,264.7 Z M278.7,264.4 L278.5,264.6 L278.5,264.3 Z M234.1,252.8 L234.0,252.8 L233.9,252.7 L231.7,252.6 L231.3,252.1 L233.2,252.5 Z M300.6,270.9 L305.4,272.4 L315.2,275.5 L313.4,279.1 L309.7,280.7 L299.8,281.6 L299.7,273.8 Z M148.2,375.0 L148.2,371.9 L148.8,371.8 L150.5,374.2 L148.5,375.5 L149.8,378.0 L146.0,375.5 L143.7,374.7 L147.8,374.2 Z M361.0,347.9 L360.6,347.6 L360.8,346.9 L360.8,346.9 L361.0,347.9 L361.0,347.9 Z M361.0,347.9 L363.2,349.8 L361.7,351.3 L361.0,347.9 L361.0,347.9 Z M215.8,329.0 L214.1,328.5 L214.0,333.2 L208.1,334.7 L208.2,340.0 L210.0,336.6 L214.2,336.1 L214.9,334.4 L218.4,334.5 L220.9,336.4 L220.1,339.3 L226.1,341.4 L221.5,343.9 L209.1,349.0 L206.8,348.0 L202.3,348.7 L195.8,347.8 L191.3,345.7 L190.1,347.6 L183.1,346.9 L181.8,345.6 L186.0,343.6 L180.2,342.6 L174.7,341.0 L172.1,341.7 L168.9,340.9 L170.0,338.9 L169.3,336.4 L165.5,334.7 L164.3,336.8 L161.8,337.4 L162.3,339.7 L157.9,344.0 L155.3,345.1 L147.7,346.1 L143.1,346.0 L143.3,347.0 L137.5,350.3 L129.4,352.3 L124.0,352.1 L119.8,354.4 L117.2,353.5 L110.0,353.1 L112.2,354.5 L106.4,353.9 L98.5,355.0 L95.4,354.8 L88.6,355.8 L90.0,354.1 L86.6,353.0 L83.0,348.6 L84.3,343.8 L83.2,340.9 L76.8,339.0 L68.8,339.3 L56.2,338.7 L48.2,335.3 L48.2,333.0 L45.5,332.8 L43.9,330.6 L50.0,330.3 L46.6,328.5 L43.5,324.0 L92.7,324.0 L92.8,327.2 L96.3,327.2 L96.4,324.0 L127.5,324.1 L127.8,260.7 L133.2,263.6 L133.4,264.6 L138.3,264.1 L137.5,268.6 L141.7,267.5 L142.9,270.1 L141.8,273.5 L145.1,277.7 L144.7,281.0 L147.1,281.6 L146.3,285.8 L149.7,288.8 L152.8,289.0 L151.5,287.1 L158.1,284.9 L158.2,283.4 L154.2,280.7 L152.2,277.9 L152.6,273.9 L150.4,270.4 L151.4,268.4 L149.5,267.1 L148.3,262.6 L148.3,257.8 L146.5,255.1 L150.9,254.7 L148.3,253.0 L149.4,251.1 L153.3,251.7 L155.0,250.9 L159.0,254.5 L162.9,251.9 L164.9,253.7 L167.8,254.0 L170.5,257.1 L175.4,259.5 L180.3,263.3 L179.2,264.0 L182.1,269.8 L184.7,278.1 L187.0,281.8 L187.2,284.2 L189.0,285.2 L192.8,290.1 L193.1,295.2 L189.1,300.1 L190.7,302.2 L195.7,304.6 L196.3,307.8 L203.4,311.6 L206.0,309.3 L210.4,311.4 L211.9,313.4 L217.3,315.9 L221.3,318.7 L223.9,317.4 L224.1,320.1 L225.8,321.1 L231.8,320.1 L233.1,324.9 L233.3,328.0 L232.1,331.0 L228.5,331.0 L226.5,328.4 L226.3,326.0 L224.7,329.9 L221.1,329.6 L217.9,326.0 Z M205.0,329.5 L208.0,328.7 L204.8,326.0 L203.0,326.7 Z M259.0,340.4 L259.4,338.4 L262.6,338.5 L259.9,335.5 L260.5,332.5 L262.6,332.9 L267.1,335.7 L262.7,332.1 L264.4,328.3 L266.5,326.4 L273.3,328.6 L274.2,332.7 L275.0,330.8 L283.7,335.5 L288.6,339.0 L291.4,341.7 L290.8,343.7 L292.3,347.2 L296.1,348.0 L298.5,346.7 L300.0,347.6 L295.8,351.5 L295.9,349.7 L293.2,349.7 L292.2,352.9 L290.8,352.2 L287.1,355.5 L284.0,356.0 L278.9,354.2 L277.1,354.7 L271.7,353.3 L270.0,351.7 L264.6,350.7 L264.1,348.1 L262.3,349.8 L259.1,349.7 L257.1,348.0 L257.5,346.4 L254.4,346.1 L254.6,347.7 L250.2,346.8 L248.6,344.5 L250.2,341.7 L254.6,342.0 Z M360.8,346.9 L360.2,344.3 L359.2,342.6 L362.0,342.5 L360.8,346.9 Z">
  <desc xmlns="http://www.highcharts.com/svg/namespace">
    <name>Kitikmeot</name>
    <type>REG</type>
    <hc-middle-x>0.36</hc-middle-x>
    <hc-middle-y>0.82</hc-middle-y>
    <hc-key>ca-nu-6208</hc-key>
    <hc-a2>KI</hc-a2>
  </desc>
</path>

<path fill="#CEE3F5" stroke="#6E6E6E" stroke-width="0.4" id="CA.NU.6205" d="M419.4,385.9 L417.4,387.9 L420.8,387.4 L424.2,390.4 L432.9,398.7 L432.7,398.8 L433.0,398.8 L433.1,398.9 L433.2,398.9 L433.8,399.6 L434.4,400.1 L434.4,400.2 L434.5,400.2 L435.1,400.8 L432.0,401.0 L428.5,398.5 L427.5,399.5 L424.5,397.8 L426.9,400.5 L424.7,402.0 L421.8,400.0 L416.7,399.6 L415.9,395.6 L414.3,393.4 L409.6,395.0 L400.8,393.8 L398.4,396.0 L400.3,398.5 L409.1,401.1 L407.7,404.4 L403.0,406.8 L401.4,411.3 L397.4,413.3 L395.4,416.2 L392.3,417.7 L386.0,417.8 L380.7,416.3 L381.3,415.4 L377.7,412.7 L374.6,411.7 L367.4,407.1 L361.1,405.7 L364.1,407.9 L360.3,406.9 L355.5,406.9 L361.4,408.8 L367.4,412.6 L368.4,414.6 L373.3,417.6 L377.7,418.3 L387.6,419.0 L387.2,418.5 L395.8,419.4 L396.8,421.3 L393.9,425.2 L392.5,428.7 L389.4,432.1 L386.5,433.3 L383.7,439.4 L375.3,443.2 L369.2,443.5 L365.8,441.3 L362.6,441.0 L361.8,445.0 L359.5,443.8 L361.1,446.8 L358.1,450.3 L350.1,451.0 L353.8,451.5 L353.3,453.1 L349.7,450.8 L345.6,449.3 L344.2,447.6 L343.3,449.6 L340.6,447.8 L335.9,447.9 L331.7,446.2 L327.8,446.0 L330.1,447.4 L334.5,447.7 L335.7,449.7 L339.7,448.1 L343.0,451.4 L345.4,452.5 L348.9,452.2 L352.6,457.4 L353.1,461.0 L351.3,463.0 L348.5,462.7 L344.7,465.2 L337.6,464.3 L336.3,465.3 L332.2,465.1 L335.3,467.7 L338.7,468.1 L337.2,470.2 L333.1,469.3 L330.8,471.5 L336.0,472.2 L334.5,473.0 L328.4,471.5 L330.9,474.2 L324.2,476.6 L323.3,478.8 L321.6,478.8 L324.9,482.9 L318.5,480.6 L317.1,482.1 L322.2,483.6 L313.8,489.6 L315.6,491.0 L312.6,492.1 L313.9,496.1 L311.8,496.5 L305.4,507.2 L306.1,508.4 L304.1,515.4 L219.8,515.4 L219.8,439.3 L204.3,436.8 L184.4,433.9 L184.7,404.6 L184.7,385.1 L212.6,385.1 L344.9,385.1 L344.9,385.1 L350.0,385.1 L351.4,385.1 L352.0,385.1 L352.0,385.1 L372.6,385.1 L405.6,385.1 L418.7,385.1 Z M420.4,387.0 L420.4,387.0 L420.4,386.9 Z M420.4,386.9 L419.5,386.9 L420.0,386.5 Z M419.9,386.4 L419.8,386.3 L419.8,386.3 Z M418.2,410.4 L418.4,403.8 L420.4,404.4 L422.9,408.0 L424.6,412.2 L422.4,413.5 L420.8,411.0 L418.2,410.5 L419.1,412.2 L416.2,413.9 L418.5,415.2 L421.0,420.0 L424.8,414.8 L428.8,417.1 L428.4,418.8 L432.3,420.9 L437.1,421.0 L439.3,423.9 L448.4,429.1 L450.1,428.4 L453.7,430.1 L457.3,433.3 L457.8,437.9 L460.0,438.9 L458.1,441.2 L455.2,441.8 L454.9,443.3 L463.4,442.0 L467.1,443.5 L467.3,440.6 L471.8,443.2 L472.2,445.6 L475.9,446.7 L472.3,448.3 L471.3,449.9 L465.7,453.4 L457.3,449.8 L453.7,448.8 L449.0,449.1 L448.7,446.8 L450.6,446.0 L448.3,443.7 L444.2,443.3 L442.1,444.0 L441.7,442.5 L443.6,440.4 L441.5,439.7 L436.6,441.0 L435.1,443.0 L436.0,446.4 L434.0,447.1 L429.9,450.5 L426.9,451.0 L425.7,454.6 L419.7,458.4 L413.4,459.5 L412.1,458.1 L411.7,453.8 L412.3,449.0 L410.0,448.5 L404.4,449.7 L401.4,449.1 L398.7,450.8 L394.8,451.3 L393.4,448.2 L398.6,443.7 L405.5,441.3 L404.1,438.6 L403.0,431.8 L406.1,425.4 L406.0,416.7 L407.7,410.4 L409.2,408.7 L413.5,406.2 L413.6,408.2 L417.1,408.3 Z M449.0,471.6 L442.0,476.3 L439.2,475.0 L434.9,477.1 L434.2,474.5 L431.8,471.1 L436.0,467.2 L436.1,464.6 L439.5,462.7 L442.5,464.3 L445.9,462.0 L449.5,462.7 L452.4,461.7 L456.2,463.0 L455.1,466.8 L451.1,469.1 Z M426.4,402.0 L434.1,405.5 L436.3,407.6 L437.3,410.1 L440.8,410.4 L439.1,412.2 L433.5,411.7 L433.9,408.8 L431.9,410.0 L429.4,405.3 L426.7,404.7 Z">
  <desc xmlns="http://www.highcharts.com/svg/namespace">
    <name>Keewatin</name>
    <type>REG</type>
    <hc-middle-x>0.35</hc-middle-x>
    <hc-middle-y>0.36</hc-middle-y>
    <hc-key>ca-nu-6205</hc-key>
    <hc-a2>KE</hc-a2>
  </desc>
</path>
</g>

<text x="350" y="714" text-anchor="middle" font-family="Verdana" font-size="8" stroke-opacity="0.6">Copyright (c) 2023 Highsoft AS, Adapted from Statistics Canada, Boundary files, 2011 Census. This does not constitute an endorsement by Statistics Canada of this product.</text>

</svg>