<?xml version="1.0" encoding="utf-8" standalone="no"?>
<!DOCTYPE svg PUBLIC "-//W3C//DTD SVG 1.1//EN" "http://www.w3.org/Graphics/SVG/1.1/DTD/svg11.dtd">

<svg version="1.1" height="700pt" width="700pt" xmlns="http://www.w3.org/2000/svg" xmlns:xlink="http://www.w3.org/1999/xlink">
<desc>
Map version: 2.1.0
Copyright (c) 2023 Highsoft AS, Adapted from Statistics Canada, Boundary files, 2011 Census. This does not constitute an endorsement by Statistics Canada of this product.
</desc>
<title>Ontario</title>
<g id="admin2">

<g id="CA">
  <desc xmlns="http://www.highcharts.com/svg/namespace">
    <name>Canada</name>
    <labelrank>2</labelrank>
    <country-abbrev>Can.</country-abbrev>
    <subregion>Northern America</subregion>
    <region-wb>North America</region-wb>
    <iso-a3>CAN</iso-a3>
    <iso-a2>CA</iso-a2>
    <woe-id>23424775</woe-id>
    <continent>North America</continent>
    <hc-key>ca</hc-key>
    <hc-a2>CA</hc-a2>
  </desc>
</g>

<g id="CA.ON">
  <desc xmlns="http://www.highcharts.com/svg/namespace">
    <labelrank>2</labelrank>
    <hasc>CA.ON</hasc>
    <alt-name>Upper Canada</alt-name>
    <woe-id>2344922</woe-id>
    <subregion>Ontario</subregion>
    <fips>CA08</fips>
    <postal-code>ON</postal-code>
    <name>Ontario</name>
    <country>Canada</country>
    <type-en>Province</type-en>
    <region>Eastern Canada</region>
    <longitude>-84.79430000000001</longitude>
    <woe-name>Ontario</woe-name>
    <latitude>50.5244</latitude>
    <woe-label>Ontario, CA, Canada</woe-label>
    <type>Province</type>
    <hc-key>ca-on</hc-key>
    <hc-a2>ON</hc-a2>
  </desc>
</g>

<path fill="#CEE3F5" stroke="#6E6E6E" stroke-width="0.4" id="CA.ON.3559" d="M16.4,347.2 L17.4,349.3 L15.6,351.3 L13.3,349.2 Z M14.1,346.3 L11.1,347.5 L10.8,343.3 L14.1,342.0 L17.5,343.8 Z M125.3,362.2 L123.3,387.7 L122.4,399.2 L118.6,400.8 L113.0,405.0 L107.2,406.1 L103.0,406.0 L103.5,402.9 L98.8,402.3 L99.0,398.3 L94.4,397.5 L90.3,394.5 L89.2,390.0 L82.7,389.6 L81.2,391.2 L82.0,394.5 L78.8,395.4 L76.2,388.2 L75.6,384.5 L71.0,384.6 L69.3,383.2 L72.0,381.7 L72.1,379.7 L69.2,379.6 L62.8,374.7 L55.8,374.2 L55.0,373.3 L46.8,374.7 L46.5,376.8 L40.8,377.5 L36.3,377.1 L35.6,371.8 L23.2,369.1 L22.9,367.0 L14.6,365.6 L11.6,363.4 L10.3,359.3 L14.7,353.9 L17.0,354.2 L23.1,349.2 L24.0,346.4 L26.2,348.7 L25.6,353.1 L37.8,354.5 L38.4,349.6 L65.6,352.7 L65.1,356.7 L82.7,358.3 L125.3,362.2 Z M13.1,338.1 L13.1,338.1 L13.1,338.1 L13.1,337.9 Z M13.5,334.4 L13.6,334.4 L13.6,334.4 L13.6,334.4 L14.0,334.4 L14.6,336.5 L13.5,334.5 Z M30.2,348.5 L30.2,348.4 L30.3,348.5 L30.2,348.5 Z M30.4,348.1 L30.4,348.2 L30.4,348.2 L30.4,348.2 L29.8,348.0 L30.4,348.0 L30.4,348.1 Z M30.5,347.9 L30.1,347.4 L30.6,347.1 Z M30.6,347.0 L29.7,347.2 L30.6,346.8 Z M30.6,346.6 L30.6,346.5 L30.7,346.5 Z M30.7,346.2 L30.6,346.1 L30.8,346.0 Z M30.9,345.2 L27.1,345.0 L27.8,343.9 L29.7,344.1 L29.8,344.3 L30.4,344.2 L30.9,344.3 Z M24.8,339.7 L24.6,339.7 L24.5,339.6 Z M23.7,339.5 L23.6,339.8 L23.2,339.5 Z M12.1,337.9 L11.9,338.0 L12.0,337.9 Z M14.7,334.5 L14.5,334.7 L14.2,334.4 Z M16.8,334.8 L16.2,335.5 L15.1,334.5 Z M17.2,334.8 L17.1,335.1 L16.9,334.8 Z M17.6,335.6 L17.2,335.2 L17.3,334.8 L17.7,334.9 Z M27.6,343.7 L25.8,343.7 L24.9,339.7 L27.9,340.6 Z M17.4,338.7 L23.2,339.5 L23.2,339.5 L19.9,341.6 L16.1,339.8 Z M17.3,338.1 L15.2,336.1 L17.6,335.7 Z M13.1,338.1 L13.1,338.1 L13.1,338.1 Z M13.1,338.1 L13.0,338.4 L12.8,338.0 L13.1,338.1 L13.1,338.1 Z">
  <desc xmlns="http://www.highcharts.com/svg/namespace">
    <name>Rainy River</name>
    <type>DIS</type>
    <hc-middle-x>0.72</hc-middle-x>
    <hc-middle-y>0.57</hc-middle-y>
    <hc-key>ca-on-3559</hc-key>
    <hc-a2>RR</hc-a2>
  </desc>
</path>

<path fill="#CEE3F5" stroke="#6E6E6E" stroke-width="0.4" id="CA.ON.3558" d="M223.2,379.9 L223.5,376.4 L224.9,376.1 L228.1,380.5 Z M263.0,252.4 L261.4,324.6 L278.7,324.9 L298.0,325.1 L298.0,337.2 L297.6,408.1 L297.7,419.2 L296.0,420.4 L288.0,420.5 L282.8,419.1 L280.1,417.0 L274.2,409.2 L271.1,400.6 L268.6,390.7 L264.6,382.9 L262.3,380.5 L257.0,383.9 L258.3,380.0 L255.6,378.8 L250.6,381.4 L246.4,378.2 L244.2,380.0 L239.3,380.7 L233.6,376.7 L229.6,377.1 L229.7,374.6 L226.6,375.6 L225.9,373.6 L221.0,372.9 L215.7,370.0 L215.1,367.7 L208.7,370.1 L208.8,375.7 L212.7,378.3 L212.7,380.7 L212.9,377.5 L216.3,375.2 L223.3,376.5 L221.6,380.6 L216.4,380.1 L213.7,382.9 L212.2,385.1 L212.5,381.9 L207.9,387.9 L204.9,384.6 L205.0,387.2 L202.8,390.1 L201.8,388.4 L200.1,392.8 L197.6,395.2 L196.6,391.9 L201.7,385.9 L205.0,383.2 L206.3,379.4 L205.2,376.4 L201.0,375.0 L198.6,379.8 L198.9,384.3 L196.3,385.3 L195.5,390.5 L191.4,397.9 L185.7,399.3 L188.1,396.9 L191.2,387.2 L186.4,389.5 L179.5,391.1 L177.1,393.6 L177.5,397.8 L173.7,404.4 L172.4,408.6 L164.8,412.2 L159.6,411.2 L154.8,412.5 L152.0,410.4 L151.2,407.8 L147.6,406.2 L141.3,406.6 L134.0,404.7 L128.6,405.8 L126.4,398.8 L122.4,399.2 L123.3,387.7 L125.3,362.2 L125.3,362.2 L132.4,272.0 L133.7,269.2 L142.3,265.1 L143.6,266.8 L146.9,265.7 L149.3,268.3 L153.6,265.6 L159.1,265.0 L160.3,266.0 L167.7,262.7 L174.2,261.3 L177.6,257.5 L183.2,253.4 L186.0,253.9 L189.4,249.4 L191.9,250.5 L191.3,252.7 L195.8,250.5 L196.8,248.5 L204.3,248.9 L206.2,251.0 L210.3,252.7 L215.9,253.4 L220.1,252.2 L226.0,256.0 L226.6,258.9 L234.2,264.4 L240.7,262.8 L247.7,259.8 L250.7,256.7 L254.2,258.1 L257.8,256.6 L257.4,254.9 Z M283.7,426.6 L289.3,428.4 L286.3,430.3 L278.2,429.9 L281.3,426.5 Z">
  <desc xmlns="http://www.highcharts.com/svg/namespace">
    <name>Thunder Bay</name>
    <type>DIS</type>
    <hc-middle-x>0.41</hc-middle-x>
    <hc-middle-y>0.42</hc-middle-y>
    <hc-key>ca-on-3558</hc-key>
    <hc-a2>TB</hc-a2>
  </desc>
</path>

<path fill="#CEE3F5" stroke="#6E6E6E" stroke-width="0.4" id="CA.ON.3511" d="M588.6,579.1 L587.2,583.0 L585.3,583.7 L583.3,582.2 Z M554.1,538.0 L564.4,532.6 L567.6,538.7 L570.6,544.9 L565.7,547.4 L568.2,554.4 L569.8,553.6 L573.5,561.0 L576.9,559.4 L588.9,577.7 L584.2,580.0 L575.6,587.3 L576.7,583.2 L580.6,581.7 L579.0,580.8 L574.7,584.7 L575.2,580.2 L570.9,571.3 L573.6,570.0 L567.8,563.7 L564.4,556.3 L563.6,556.7 Z">
  <desc xmlns="http://www.highcharts.com/svg/namespace">
    <name>Lennox and Addington</name>
    <type>CTY</type>
    <hc-middle-x>0.89</hc-middle-x>
    <hc-middle-y>0.76</hc-middle-y>
    <hc-key>ca-on-3511</hc-key>
    <hc-a2>LA</hc-a2>
  </desc>
</path>

<path fill="#CEE3F5" stroke="#6E6E6E" stroke-width="0.4" id="CA.ON.3510" d="M591.9,580.7 L598.6,575.9 L601.8,577.0 L598.8,578.4 L595.9,582.5 Z M601.6,572.1 L591.1,578.1 L588.9,577.7 L576.9,559.4 L573.5,561.0 L569.8,553.6 L568.2,554.4 L565.7,547.4 L570.6,544.9 L567.6,538.7 L572.9,536.0 L572.3,534.4 L577.6,531.9 L579.5,535.5 L589.5,554.3 L589.7,554.1 L599.1,563.4 L599.9,563.5 Z">
  <desc xmlns="http://www.highcharts.com/svg/namespace">
    <name>Frontenac</name>
    <type>CTY</type>
    <hc-middle-x>0.46</hc-middle-x>
    <hc-middle-y>0.49</hc-middle-y>
    <hc-key>ca-on-3510</hc-key>
    <hc-a2>FR</hc-a2>
  </desc>
</path>

<path fill="#CEE3F5" stroke="#6E6E6E" stroke-width="0.4" id="CA.ON.3544" d="M483.1,560.0 L477.9,556.1 L475.0,550.9 L471.5,547.2 L485.9,540.5 L483.3,535.1 L507.0,524.0 L507.1,524.0 L509.7,529.3 L506.1,531.0 L511.3,541.8 L506.2,544.1 L508.9,549.5 L502.9,551.6 L505.1,556.6 L500.5,559.1 L494.4,560.4 L493.7,557.3 L489.8,557.3 L485.2,555.5 Z">
  <desc xmlns="http://www.highcharts.com/svg/namespace">
    <name>Muskoka</name>
    <type>DM</type>
    <hc-middle-x>0.42</hc-middle-x>
    <hc-middle-y>0.68</hc-middle-y>
    <hc-key>ca-on-3544</hc-key>
    <hc-a2>MU</hc-a2>
  </desc>
</path>

<path fill="#CEE3F5" stroke="#6E6E6E" stroke-width="0.4" id="CA.ON.3560" d="M7.9,335.0 L10.4,334.7 L12.0,331.5 L12.8,335.4 Z M125.3,362.2 L65.1,356.7 L65.6,352.7 L38.4,349.6 L37.8,354.5 L25.6,353.1 L26.2,348.7 L27.2,349.3 L30.2,348.5 L30.2,348.5 L30.3,348.5 L31.5,349.2 L30.5,347.9 L30.6,347.1 L32.9,346.9 L30.9,345.2 L30.9,344.3 L30.4,344.2 L33.0,341.6 L34.6,336.6 L32.6,336.4 L26.9,330.2 L22.9,324.7 L25.6,320.6 L21.2,318.7 L18.5,321.4 L11.9,318.1 L9.4,320.7 L11.9,320.9 L8.8,324.8 L6.3,324.0 L6.5,320.8 L1.3,321.6 L21.5,171.8 L49.3,150.1 L69.1,134.9 L83.5,120.5 L99.2,105.0 L119.1,85.6 L129.6,74.6 L143.8,60.5 L161.5,43.1 L178.0,26.9 L205.1,0.3 L208.0,0.0 L209.0,2.8 L213.2,7.7 L217.5,10.4 L220.6,14.0 L230.7,19.9 L231.1,22.0 L236.5,30.5 L238.9,37.1 L242.8,41.1 L249.7,45.1 L257.8,46.3 L263.4,49.9 L271.7,53.7 L274.6,56.4 L284.0,59.0 L290.7,63.1 L297.3,70.8 L304.7,74.2 L305.1,77.7 L308.5,76.8 L313.7,78.8 L321.2,78.7 L326.6,76.8 L332.9,77.9 L338.0,75.9 L344.8,79.6 L343.7,77.0 L350.0,79.7 L357.9,80.0 L362.5,78.7 L364.9,82.2 L369.6,82.4 L370.7,80.9 L374.8,84.4 L381.5,86.4 L382.1,93.8 L383.9,98.2 L381.7,105.0 L381.1,112.0 L378.6,120.5 L378.9,126.5 L384.4,134.2 L387.6,143.7 L385.5,154.6 L389.0,169.2 L385.4,173.6 L384.4,179.4 L385.7,185.7 L389.7,187.6 L394.3,192.4 L396.7,197.6 L400.1,200.0 L406.7,208.1 L407.6,212.8 L406.5,214.4 L397.7,218.4 L391.7,223.3 L384.8,225.0 L381.9,229.3 L377.3,232.2 L371.4,232.6 L367.3,235.1 L361.4,241.3 L358.0,249.0 L354.1,253.9 L351.3,254.0 L348.7,257.0 L345.4,257.6 L341.6,261.4 L333.6,265.1 L326.3,267.0 L323.1,271.9 L313.9,268.2 L310.4,264.4 L306.7,262.5 L306.3,258.9 L303.1,256.8 L301.2,253.4 L298.6,252.5 L293.7,246.3 L282.1,247.9 L279.1,246.6 L278.0,243.8 L271.4,240.7 L267.2,244.0 L267.6,247.6 L263.0,252.4 L257.4,254.9 L257.8,256.6 L254.2,258.1 L250.7,256.7 L247.7,259.8 L240.7,262.8 L234.2,264.4 L226.6,258.9 L226.0,256.0 L220.1,252.2 L215.9,253.4 L210.3,252.7 L206.2,251.0 L204.3,248.9 L196.8,248.5 L195.8,250.5 L191.3,252.7 L191.9,250.5 L189.4,249.4 L186.0,253.9 L183.2,253.4 L177.6,257.5 L174.2,261.3 L167.7,262.7 L160.3,266.0 L159.1,265.0 L153.6,265.6 L149.3,268.3 L146.9,265.7 L143.6,266.8 L142.3,265.1 L133.7,269.2 L132.4,272.0 L125.3,362.2 Z M21.4,315.1 L20.1,311.8 L21.2,309.1 L19.0,312.7 Z M13.1,338.1 L13.1,338.1 L13.1,338.1 L13.1,338.1 L13.1,338.1 L12.8,338.0 L12.9,338.0 L13.1,337.9 L13.1,338.1 Z M13.5,334.4 L13.6,334.4 L13.6,334.4 L13.5,334.5 Z M13.6,334.4 L15.1,329.1 L16.8,330.6 L22.5,328.7 L26.7,331.8 L26.0,335.2 L28.7,334.4 L32.0,342.2 L29.7,344.1 L27.8,343.9 L27.7,343.9 L27.6,343.7 L27.9,340.6 L24.9,339.7 L24.8,339.6 L24.8,339.7 L24.5,339.6 L24.3,339.4 L23.7,339.5 L23.2,339.5 L23.2,339.5 L23.2,339.5 L17.4,338.7 L17.5,338.5 L17.3,338.1 L17.6,335.7 L17.6,335.6 L17.6,335.6 L17.7,334.9 L17.3,334.8 L17.3,334.8 L17.2,334.8 L16.9,334.8 L17.1,334.6 L16.8,334.8 L15.1,334.5 L15.0,334.4 L14.7,334.5 L14.2,334.4 L14.3,333.2 L14.0,334.4 L13.6,334.4 Z M30.4,348.2 L30.4,348.2 L30.4,348.2 Z M30.4,348.0 L30.5,348.1 L30.4,348.1 L30.4,348.1 Z M30.6,346.8 L30.6,346.9 L30.6,347.0 Z M30.7,346.5 L30.7,346.6 L30.6,346.6 Z M30.8,346.0 L30.9,346.1 L30.7,346.2 Z M12.0,337.9 L12.0,337.2 L12.1,337.9 Z M14.7,326.1 L9.2,329.5 L6.2,330.0 L7.4,331.9 L3.9,333.3 L0.0,331.0 L1.6,329.2 L10.3,326.2 L9.6,324.2 L18.0,321.8 Z">
  <desc xmlns="http://www.highcharts.com/svg/namespace">
    <name>Kenora</name>
    <type>DIS</type>
    <hc-middle-x>0.57</hc-middle-x>
    <hc-middle-y>0.46</hc-middle-y>
    <hc-key>ca-on-3560</hc-key>
    <hc-a2>KE</hc-a2>
  </desc>
</path>

<path fill="#CEE3F5" stroke="#6E6E6E" stroke-width="0.4" id="CA.ON.3551" d="M385.9,510.8 L386.5,513.6 L381.7,512.8 L383.3,510.9 Z M361.7,510.0 L364.6,511.8 L364.7,513.8 L361.6,516.6 L357.2,514.6 L359.7,510.3 Z M412.3,533.2 L412.5,531.2 L416.3,529.6 L415.2,532.5 Z M414.4,503.3 L414.0,503.2 L414.4,503.3 L414.4,503.3 Z M412.8,503.2 L412.8,503.2 L412.8,503.2 L412.7,503.2 Z M410.6,503.3 L410.5,503.5 L410.6,503.3 L410.7,503.3 Z M419.9,507.7 L419.8,507.7 L419.8,507.7 L419.9,507.7 Z M403.3,504.1 L403.6,504.3 L403.3,504.1 Z M411.3,503.3 L411.0,503.4 L411.2,503.3 L411.2,503.3 Z M419.5,504.9 L417.4,503.3 L420.1,503.7 L420.2,503.7 L419.9,504.1 L419.9,504.1 L419.1,504.4 Z M414.4,503.5 L415.6,503.5 L416.1,503.5 L413.7,507.1 L414.1,507.4 L413.4,507.5 L413.3,507.8 L413.2,507.6 L408.7,508.7 L407.1,505.9 L410.8,505.1 L412.7,506.4 L412.2,505.1 Z M419.8,505.1 L419.7,505.1 L419.7,505.1 L419.8,505.1 Z M414.1,502.9 L414.1,502.9 L414.1,502.9 L414.1,502.9 L414.1,502.8 L414.2,502.9 L414.2,502.9 L414.1,502.9 Z M414.3,502.8 L414.2,502.9 L414.2,502.9 L414.2,502.9 Z M413.3,517.6 L416.5,512.1 L417.0,515.4 L415.6,517.7 L419.7,517.7 L417.7,522.3 L411.6,530.7 L406.8,528.5 L414.4,523.2 L411.1,522.8 L408.5,526.3 L404.0,529.1 L395.7,523.3 L390.3,522.4 L388.5,520.4 L377.7,519.3 L374.6,516.9 L366.0,515.3 L367.2,511.4 L370.4,513.4 L371.3,511.3 L373.2,512.9 L379.7,509.8 L378.4,513.2 L381.4,516.9 L386.6,516.0 L388.2,519.0 L389.7,516.4 L386.4,514.6 L389.6,511.4 L396.4,509.2 L398.2,511.2 L400.9,516.4 L401.7,512.4 L406.2,508.8 L408.7,509.0 L408.7,513.6 L411.8,514.3 L411.0,517.4 L412.7,520.9 Z">
  <desc xmlns="http://www.highcharts.com/svg/namespace">
    <name>Manitoulin</name>
    <type>DIS</type>
    <hc-middle-x>0.77</hc-middle-x>
    <hc-middle-y>0.53</hc-middle-y>
    <hc-key>ca-on-3551</hc-key>
    <hc-a2>MA</hc-a2>
  </desc>
</path>

<path fill="#CEE3F5" stroke="#6E6E6E" stroke-width="0.4" id="CA.ON.3506" d="M618.4,533.6 L616.8,534.8 L611.7,540.2 L607.0,535.2 L591.7,521.5 L593.4,519.6 L593.3,518.8 L596.1,515.9 L603.3,516.9 L606.7,520.1 L610.1,520.8 L613.5,516.5 L624.0,511.6 L628.1,519.2 L622.6,522.4 L625.7,528.1 L621.3,531.3 Z">
  <desc xmlns="http://www.highcharts.com/svg/namespace">
    <name>Ottawa</name>
    <type>CDR</type>
    <hc-middle-x>0.56</hc-middle-x>
    <hc-middle-y>0.32</hc-middle-y>
    <hc-key>ca-on-3506</hc-key>
    <hc-a2>OT</hc-a2>
  </desc>
</path>

<path fill="#CEE3F5" stroke="#6E6E6E" stroke-width="0.4" id="CA.ON.3507" d="M611.7,540.2 L616.8,534.8 L618.4,533.6 L621.3,537.2 L627.7,545.8 L614.0,562.4 L610.3,569.4 L608.7,568.7 L601.6,572.1 L599.9,563.5 L599.1,563.4 L589.7,554.1 L593.4,550.3 L597.5,554.0 L600.6,547.6 L604.5,544.0 L610.0,544.7 Z">
  <desc xmlns="http://www.highcharts.com/svg/namespace">
    <name>Leeds and Grenville</name>
    <type>UC</type>
    <hc-middle-x>0.56</hc-middle-x>
    <hc-middle-y>0.52</hc-middle-y>
    <hc-key>ca-on-3507</hc-key>
    <hc-a2>LA</hc-a2>
  </desc>
</path>

<path fill="#CEE3F5" stroke="#6E6E6E" stroke-width="0.4" id="CA.ON.3520" d="M507.2,605.5 L502.1,611.6 L496.2,613.6 L493.4,616.5 L492.6,614.4 L489.6,608.9 L499.5,605.1 L505.1,602.8 L505.9,604.6 Z">
  <desc xmlns="http://www.highcharts.com/svg/namespace">
    <name>Toronto</name>
    <type>CDR</type>
    <hc-middle-x>0.21</hc-middle-x>
    <hc-middle-y>0.65</hc-middle-y>
    <hc-key>ca-on-3520</hc-key>
    <hc-a2>TO</hc-a2>
  </desc>
</path>

<path fill="#CEE3F5" stroke="#6E6E6E" stroke-width="0.4" id="CA.ON.3521" d="M482.8,614.2 L483.3,614.2 L482.8,614.2 L482.7,614.0 L479.7,611.4 L479.7,611.3 L479.7,611.4 L479.5,611.2 L478.5,610.3 L475.2,607.4 L472.4,604.8 L474.1,601.9 L478.5,600.2 L483.1,598.4 L484.3,598.0 L486.7,603.0 L489.6,608.9 L492.6,614.4 L493.4,616.5 L491.7,618.7 L491.0,621.4 L484.5,617.0 Z">
  <desc xmlns="http://www.highcharts.com/svg/namespace">
    <name>Peel</name>
    <type>RM</type>
    <hc-middle-x>0.84</hc-middle-x>
    <hc-middle-y>0.65</hc-middle-y>
    <hc-key>ca-on-3521</hc-key>
    <hc-a2>PE</hc-a2>
  </desc>
</path>

<path fill="#CEE3F5" stroke="#6E6E6E" stroke-width="0.4" id="CA.ON.3502" d="M625.7,528.1 L622.6,522.4 L628.1,519.2 L624.0,511.6 L626.9,509.0 L633.6,507.7 L636.3,505.0 L643.3,504.8 L646.2,503.9 L649.9,505.5 L655.0,506.1 L654.3,514.3 L652.4,513.9 L648.9,509.6 L643.9,513.6 L644.5,514.3 L635.9,520.5 L636.9,522.2 Z">
  <desc xmlns="http://www.highcharts.com/svg/namespace">
    <name>Prescott and Russell</name>
    <type>UC</type>
    <hc-middle-x>0.84</hc-middle-x>
    <hc-middle-y>0.13</hc-middle-y>
    <hc-key>ca-on-3502</hc-key>
    <hc-a2>PA</hc-a2>
  </desc>
</path>

<path fill="#CEE3F5" stroke="#6E6E6E" stroke-width="0.4" id="CA.ON.3556" d="M298.0,337.2 L298.0,325.1 L284.8,324.9 L278.7,324.9 L275.8,324.9 L261.4,324.6 L261.7,311.7 L263.0,252.4 L267.6,247.6 L267.2,244.0 L271.4,240.7 L278.0,243.8 L279.1,246.6 L282.1,247.9 L293.7,246.3 L298.6,252.5 L301.2,253.4 L303.1,256.8 L306.3,258.9 L306.7,262.5 L310.4,264.4 L313.9,268.2 L323.1,271.9 L326.3,267.0 L333.6,265.1 L341.6,261.4 L345.4,257.6 L348.7,257.0 L351.3,254.0 L354.1,253.9 L358.0,249.0 L361.4,241.3 L367.3,235.1 L371.4,232.6 L377.3,232.2 L381.9,229.3 L384.8,225.0 L391.7,223.3 L397.7,218.4 L406.5,214.4 L408.9,216.0 L410.8,221.1 L412.6,223.0 L418.6,225.6 L423.6,226.7 L426.0,230.9 L433.9,237.0 L436.3,240.0 L439.5,249.2 L441.3,251.9 L441.4,255.6 L444.8,257.9 L450.9,258.8 L454.7,260.8 L457.9,264.1 L460.6,264.4 L463.4,258.4 L461.6,256.3 L463.6,255.5 L466.2,249.6 L467.8,249.7 L469.3,270.7 L478.5,397.9 L454.9,399.4 L405.8,401.9 L405.5,393.9 L381.2,394.8 L380.2,360.3 L349.5,361.1 L349.3,348.9 L323.7,349.3 L323.6,337.2 Z">
  <desc xmlns="http://www.highcharts.com/svg/namespace">
    <name>Cochrane</name>
    <type>DIS</type>
    <hc-middle-x>0.63</hc-middle-x>
    <hc-middle-y>0.51</hc-middle-y>
    <hc-key>ca-on-3556</hc-key>
    <hc-a2>CO</hc-a2>
  </desc>
</path>

<path fill="#CEE3F5" stroke="#6E6E6E" stroke-width="0.4" id="CA.ON.3540" d="M443.3,600.6 L443.3,600.6 L443.3,600.6 L443.3,600.6 L443.3,600.6 L443.3,600.6 Z M418.4,636.9 L418.7,634.3 L418.7,633.1 L420.3,629.3 L420.1,623.1 L419.0,613.1 L418.7,604.0 L417.7,598.7 L430.3,605.0 L435.9,602.6 L436.8,602.3 L443.3,600.6 L443.3,600.6 L443.3,600.6 L443.3,600.6 L443.3,600.6 L443.4,600.6 L443.4,600.6 L443.4,600.6 L444.2,604.9 L445.0,608.2 L440.6,609.2 L442.5,611.1 L438.9,618.3 L437.7,617.7 L434.5,623.6 L432.2,622.4 L429.3,627.7 L434.8,630.6 L432.4,635.0 L428.9,634.9 Z M443.3,600.6 L443.3,600.6 L443.3,600.6 L443.3,600.6 Z">
  <desc xmlns="http://www.highcharts.com/svg/namespace">
    <name>Huron</name>
    <type>CTY</type>
    <hc-middle-x>0.26</hc-middle-x>
    <hc-middle-y>0.33</hc-middle-y>
    <hc-key>ca-on-3540</hc-key>
    <hc-a2>HU</hc-a2>
  </desc>
</path>

<path fill="#CEE3F5" stroke="#6E6E6E" stroke-width="0.4" id="CA.ON.3523" d="M443.3,600.6 L443.3,600.6 L443.3,600.6 L443.3,600.6 L443.4,600.6 L443.4,600.6 L443.4,600.6 L443.4,600.6 L448.5,599.5 L448.9,601.2 L461.8,597.7 L463.6,605.6 L468.9,609.7 L472.4,604.8 L475.2,607.4 L478.5,610.3 L472.6,618.9 L477.1,622.8 L475.8,625.4 L471.5,626.6 L469.4,627.2 L465.0,619.2 L458.7,613.7 L457.3,618.5 L452.2,616.0 L448.0,613.8 L451.4,606.8 L445.0,608.2 L444.2,604.9 L443.3,600.6 L443.3,600.6 L443.3,600.6 Z">
  <desc xmlns="http://www.highcharts.com/svg/namespace">
    <name>Wellington</name>
    <type>CTY</type>
    <hc-middle-x>0.52</hc-middle-x>
    <hc-middle-y>0.41</hc-middle-y>
    <hc-key>ca-on-3523</hc-key>
    <hc-a2>WE</hc-a2>
  </desc>
</path>

<path fill="#CEE3F5" stroke="#6E6E6E" stroke-width="0.4" id="CA.ON.3541" d="M443.3,600.6 L443.3,600.6 L443.3,600.6 L443.3,600.6 L443.3,600.6 L443.3,600.6 L443.3,600.6 L443.3,600.6 L435.9,602.6 L430.7,604.0 L430.3,605.0 L417.7,598.7 L421.0,592.9 L422.4,587.7 L425.3,581.7 L428.4,580.2 L428.8,577.8 L432.1,572.5 L431.5,562.9 L428.4,558.4 L428.5,554.6 L426.5,555.2 L423.3,550.6 L421.0,545.3 L416.0,544.3 L417.2,542.5 L424.7,543.4 L430.0,542.3 L429.1,547.3 L431.0,548.3 L431.3,552.7 L433.5,555.5 L436.6,555.4 L435.5,557.9 L438.7,558.3 L439.9,554.8 L441.8,555.2 L439.7,558.3 L439.8,561.1 L437.0,565.5 L437.4,574.8 L443.4,600.6 L443.4,600.6 L443.4,600.6 Z">
  <desc xmlns="http://www.highcharts.com/svg/namespace">
    <name>Bruce</name>
    <type>CTY</type>
    <hc-middle-x>0.45</hc-middle-x>
    <hc-middle-y>0.75</hc-middle-y>
    <hc-key>ca-on-3541</hc-key>
    <hc-a2>BR</hc-a2>
  </desc>
</path>

<path fill="#CEE3F5" stroke="#6E6E6E" stroke-width="0.4" id="CA.ON.3518" d="M529.6,598.1 L516.9,601.2 L507.2,605.5 L505.9,604.6 L505.1,602.8 L498.5,586.0 L504.1,583.7 L500.5,574.8 L503.1,574.0 L505.7,571.8 L512.4,588.2 L512.8,585.8 L515.0,587.3 L517.2,584.4 L520.4,592.0 L526.2,589.6 L526.3,589.8 L526.5,590.3 L527.6,593.2 Z">
  <desc xmlns="http://www.highcharts.com/svg/namespace">
    <name>Durham</name>
    <type>RM</type>
    <hc-middle-x>0.59</hc-middle-x>
    <hc-middle-y>0.82</hc-middle-y>
    <hc-key>ca-on-3518</hc-key>
    <hc-a2>DU</hc-a2>
  </desc>
</path>

<path fill="#CEE3F5" stroke="#6E6E6E" stroke-width="0.4" id="CA.ON.3519" d="M500.5,574.8 L504.1,583.7 L498.5,586.0 L505.1,602.8 L499.5,605.1 L489.6,608.9 L486.7,603.0 L484.3,598.0 L488.8,596.2 L491.3,593.5 L492.4,588.7 L491.8,577.2 Z">
  <desc xmlns="http://www.highcharts.com/svg/namespace">
    <name>York</name>
    <type>RM</type>
    <hc-middle-x>0.60</hc-middle-x>
    <hc-middle-y>0.67</hc-middle-y>
    <hc-key>ca-on-3519</hc-key>
    <hc-a2>YO</hc-a2>
  </desc>
</path>

<path fill="#CEE3F5" stroke="#6E6E6E" stroke-width="0.4" id="CA.ON.3542" d="M465.2,573.8 L467.0,581.4 L468.2,586.7 L462.3,588.8 L463.9,597.0 L461.8,597.7 L448.9,601.2 L448.5,599.5 L443.4,600.6 L443.4,600.6 L443.4,600.6 L437.4,574.8 L437.0,565.5 L441.3,562.2 L444.1,562.7 L444.9,565.4 L443.4,571.5 L445.6,570.5 L449.6,565.7 L453.3,565.9 L453.9,569.4 L461.9,573.8 Z M443.4,600.6 L443.3,600.6 L443.4,600.6 Z">
  <desc xmlns="http://www.highcharts.com/svg/namespace">
    <name>Grey</name>
    <type>CTY</type>
    <hc-middle-x>0.50</hc-middle-x>
    <hc-middle-y>0.46</hc-middle-y>
    <hc-key>ca-on-3542</hc-key>
    <hc-a2>GR</hc-a2>
  </desc>
</path>

<path fill="#CEE3F5" stroke="#6E6E6E" stroke-width="0.4" id="CA.ON.3543" d="M468.2,586.7 L467.0,581.4 L465.2,573.8 L471.2,576.3 L473.2,575.2 L475.1,570.8 L475.3,566.8 L473.3,564.4 L470.1,563.3 L470.2,560.4 L475.6,557.5 L478.4,560.1 L477.7,562.4 L482.2,561.6 L483.1,560.0 L485.2,555.5 L489.8,557.3 L493.7,557.3 L494.4,560.4 L500.5,559.1 L502.4,563.7 L505.7,571.8 L503.1,574.0 L500.5,574.8 L491.8,577.2 L492.4,588.7 L491.3,593.5 L488.8,596.2 L484.3,598.0 L483.1,598.4 L478.5,600.2 L474.6,584.3 Z">
  <desc xmlns="http://www.highcharts.com/svg/namespace">
    <name>Simcoe</name>
    <type>CTY</type>
    <hc-middle-x>0.44</hc-middle-x>
    <hc-middle-y>0.31</hc-middle-y>
    <hc-key>ca-on-3543</hc-key>
    <hc-a2>SI</hc-a2>
  </desc>
</path>

<path fill="#CEE3F5" stroke="#6E6E6E" stroke-width="0.4" id="CA.ON.3538" d="M418.4,636.9 L417.0,638.2 L418.2,644.9 L418.7,656.6 L417.1,655.4 L417.5,664.4 L411.5,664.7 L411.0,665.9 L395.1,666.2 L397.4,668.9 L397.0,672.8 L394.0,673.1 L390.3,670.8 L393.7,667.4 L395.4,660.0 L395.6,652.3 L397.9,648.1 L403.6,646.7 L411.9,638.3 L418.7,633.1 L418.7,634.3 Z">
  <desc xmlns="http://www.highcharts.com/svg/namespace">
    <name>Lambton</name>
    <type>CTY</type>
    <hc-middle-x>0.62</hc-middle-x>
    <hc-middle-y>0.51</hc-middle-y>
    <hc-key>ca-on-3538</hc-key>
    <hc-a2>LA</hc-a2>
  </desc>
</path>

<path fill="#CEE3F5" stroke="#6E6E6E" stroke-width="0.4" id="CA.ON.3539" d="M417.5,664.4 L417.1,655.4 L418.7,656.6 L418.2,644.9 L417.0,638.2 L418.4,636.9 L428.9,634.9 L432.4,635.0 L437.3,637.6 L440.3,636.2 L445.7,647.1 L448.1,646.6 L449.1,650.6 L441.8,653.0 L429.2,658.0 L425.4,660.5 L424.5,662.6 L420.8,663.8 L417.6,666.4 L417.5,666.3 Z">
  <desc xmlns="http://www.highcharts.com/svg/namespace">
    <name>Middlesex</name>
    <type>CTY</type>
    <hc-middle-x>0.34</hc-middle-x>
    <hc-middle-y>0.38</hc-middle-y>
    <hc-key>ca-on-3539</hc-key>
    <hc-a2>MI</hc-a2>
  </desc>
</path>

<path fill="#CEE3F5" stroke="#6E6E6E" stroke-width="0.4" id="CA.ON.3531" d="M440.3,636.2 L437.3,637.6 L432.4,635.0 L434.8,630.6 L429.3,627.7 L432.2,622.4 L434.5,623.6 L437.7,617.7 L438.9,618.3 L442.5,611.1 L440.6,609.2 L445.0,608.2 L451.4,606.8 L448.0,613.8 L452.2,616.0 L448.7,623.2 L453.4,627.2 L453.6,629.7 L449.9,631.6 Z">
  <desc xmlns="http://www.highcharts.com/svg/namespace">
    <name>Perth</name>
    <type>CTY</type>
    <hc-middle-x>0.51</hc-middle-x>
    <hc-middle-y>0.72</hc-middle-y>
    <hc-key>ca-on-3531</hc-key>
    <hc-a2>PE</hc-a2>
  </desc>
</path>

<path fill="#CEE3F5" stroke="#6E6E6E" stroke-width="0.4" id="CA.ON.3514" d="M555.2,589.9 L548.2,593.4 L535.5,595.6 L529.6,598.1 L527.6,593.2 L526.5,590.3 L535.9,586.7 L540.1,581.1 L543.7,578.7 L545.2,574.3 L551.2,571.5 L554.9,580.0 L551.1,580.8 Z M555.5,590.6 L554.1,590.6 L555.2,589.9 L555.4,590.5 Z">
  <desc xmlns="http://www.highcharts.com/svg/namespace">
    <name>Northumberland</name>
    <type>CTY</type>
    <hc-middle-x>0.60</hc-middle-x>
    <hc-middle-y>0.78</hc-middle-y>
    <hc-key>ca-on-3514</hc-key>
    <hc-a2>NO</hc-a2>
  </desc>
</path>

<path fill="#CEE3F5" stroke="#6E6E6E" stroke-width="0.4" id="CA.ON.3513" d="M556.9,590.6 L557.0,590.7 L556.9,590.6 Z M563.9,583.8 L563.9,583.9 L563.8,583.9 L563.9,583.8 Z M557.4,589.7 L557.8,589.0 L557.8,588.7 L560.4,586.1 L566.4,583.5 L567.3,585.0 L574.3,581.5 L573.6,587.8 L576.6,587.9 L582.0,583.5 L580.7,587.4 L576.4,591.8 L580.0,592.4 L573.1,597.4 L568.6,595.1 L569.6,592.2 L561.3,594.5 Z">
  <desc xmlns="http://www.highcharts.com/svg/namespace">
    <name>Prince Edward</name>
    <type>CDR</type>
    <hc-middle-x>0.69</hc-middle-x>
    <hc-middle-y>0.93</hc-middle-y>
    <hc-key>ca-on-3513</hc-key>
    <hc-a2>PE</hc-a2>
  </desc>
</path>

<path fill="#CEE3F5" stroke="#6E6E6E" stroke-width="0.4" id="CA.ON.3512" d="M556.9,590.6 L556.4,590.3 L555.5,590.6 L555.4,590.5 L555.2,589.9 L557.6,588.6 L557.8,588.7 L557.8,589.0 L557.4,589.7 L556.4,590.3 L556.9,590.6 Z M563.8,583.9 L563.8,583.8 L563.9,583.8 L563.9,583.8 Z M555.2,589.9 L551.1,580.8 L554.9,580.0 L551.2,571.5 L546.9,562.9 L541.3,550.1 L539.3,546.1 L532.5,532.3 L537.3,530.0 L542.9,527.3 L547.9,524.8 L554.1,538.0 L563.6,556.7 L564.4,556.3 L567.8,563.7 L573.6,570.0 L570.9,571.3 L575.2,580.2 L569.6,582.9 L564.9,582.9 L559.2,586.4 Z">
  <desc xmlns="http://www.highcharts.com/svg/namespace">
    <name>Hastings</name>
    <type>CTY</type>
    <hc-middle-x>0.69</hc-middle-x>
    <hc-middle-y>0.75</hc-middle-y>
    <hc-key>ca-on-3512</hc-key>
    <hc-a2>HA</hc-a2>
  </desc>
</path>

<path fill="#CEE3F5" stroke="#6E6E6E" stroke-width="0.4" id="CA.ON.3548" d="M542.9,527.3 L537.3,530.0 L532.5,532.3 L526.9,521.0 L509.7,529.3 L507.1,524.0 L507.0,524.0 L502.0,513.6 L499.6,514.4 L494.6,503.4 L495.4,503.0 L490.2,492.1 L488.4,492.9 L476.4,494.8 L464.5,500.3 L464.5,500.3 L460.3,500.5 L459.5,488.6 L460.0,488.5 L459.2,476.3 L457.1,476.5 L457.0,472.4 L459.0,472.3 L458.1,456.3 L458.2,447.9 L473.4,446.9 L475.3,449.6 L478.4,446.6 L479.0,454.7 L486.0,454.2 L493.0,464.2 L494.4,464.5 L497.4,470.7 L500.1,473.3 L501.2,476.9 L504.7,480.7 L510.3,483.9 L510.4,485.8 L517.9,487.4 L521.1,487.2 L524.6,495.8 L530.4,493.0 L532.2,496.8 L537.5,494.2 L538.6,496.5 L544.8,493.5 L552.7,509.1 L541.9,514.4 L544.6,519.7 L540.4,521.9 Z">
  <desc xmlns="http://www.highcharts.com/svg/namespace">
    <name>Nipissing</name>
    <type>DIS</type>
    <hc-middle-x>0.25</hc-middle-x>
    <hc-middle-y>0.37</hc-middle-y>
    <hc-key>ca-on-3548</hc-key>
    <hc-a2>NI</hc-a2>
  </desc>
</path>

<path fill="#CEE3F5" stroke="#6E6E6E" stroke-width="0.4" id="CA.ON.3552" d="M464.5,500.3 L465.5,501.7 L461.0,503.7 L451.5,505.1 L452.8,511.0 L446.9,512.3 L446.9,510.4 L442.0,509.2 L429.6,509.5 L427.6,508.3 L419.8,507.7 L419.9,507.7 L419.8,507.7 L416.0,507.4 L419.8,505.1 L419.8,505.1 L419.7,505.1 L419.5,504.9 L419.9,504.1 L420.1,503.7 L420.2,503.7 L416.3,502.4 L416.1,503.5 L415.6,503.5 L414.4,503.5 L414.4,503.3 L414.4,503.3 L414.4,503.3 L414.5,502.9 L414.1,502.9 L414.1,502.9 L414.1,502.9 L414.1,502.9 L414.1,502.9 L414.4,502.8 L414.3,502.8 L414.3,502.8 L414.1,502.8 L414.0,502.8 L413.9,502.9 L412.8,503.2 L412.8,503.2 L412.7,503.2 L412.3,503.3 L411.3,503.3 L411.2,503.3 L411.2,503.3 L410.7,503.3 L410.6,503.3 L410.6,503.3 L406.3,504.0 L403.6,503.6 L403.4,500.1 L395.1,500.0 L395.1,499.9 L394.9,495.7 L398.8,495.5 L398.7,491.3 L402.7,491.2 L402.2,479.2 L406.2,479.0 L405.4,462.7 L385.3,463.4 L385.0,451.3 L340.6,452.3 L340.2,419.8 L338.8,419.8 L338.6,395.7 L381.2,394.8 L405.5,393.9 L405.8,401.9 L406.1,410.0 L430.6,408.9 L432.5,445.3 L457.8,443.9 L458.2,447.9 L458.1,456.3 L459.0,472.3 L457.0,472.4 L457.1,476.5 L459.2,476.3 L460.0,488.5 L459.5,488.6 L460.3,500.5 L464.5,500.3 Z M430.4,473.7 L422.0,474.1 L422.4,481.7 L422.7,484.3 L418.5,484.5 L419.1,494.6 L423.3,494.4 L423.5,498.3 L427.6,497.9 L425.8,493.1 L427.4,489.7 L432.4,488.0 L434.7,489.9 L447.1,489.4 L446.3,477.1 L450.5,476.9 L449.8,464.9 L441.6,465.1 L441.5,461.1 L437.3,461.3 L437.5,465.4 L433.5,465.5 L433.7,469.5 L430.2,469.8 Z">
  <desc xmlns="http://www.highcharts.com/svg/namespace">
    <name>Sudbury</name>
    <type>DIS</type>
    <hc-middle-x>0.37</hc-middle-x>
    <hc-middle-y>0.30</hc-middle-y>
    <hc-key>ca-on-3552</hc-key>
    <hc-a2>SU</hc-a2>
  </desc>
</path>

<path fill="#CEE3F5" stroke="#6E6E6E" stroke-width="0.4" id="CA.ON.3516" d="M505.7,571.8 L502.4,563.7 L500.5,559.1 L505.1,556.6 L502.9,551.6 L508.9,549.5 L513.5,560.0 L518.8,557.7 L528.5,580.4 L523.3,582.7 L526.2,589.6 L520.4,592.0 L517.2,584.4 L515.0,587.3 L512.8,585.8 L512.4,588.2 Z">
  <desc xmlns="http://www.highcharts.com/svg/namespace">
    <name>Kawartha Lakes</name>
    <type>CDR</type>
    <hc-middle-x>0.50</hc-middle-x>
    <hc-middle-y>0.50</hc-middle-y>
    <hc-key>ca-on-3516</hc-key>
    <hc-a2>KL</hc-a2>
  </desc>
</path>

<path fill="#CEE3F5" stroke="#6E6E6E" stroke-width="0.4" id="CA.ON.3515" d="M526.5,590.3 L526.3,589.8 L526.2,589.6 L523.3,582.7 L528.5,580.4 L518.8,557.7 L535.4,550.5 L536.2,552.3 L541.3,550.1 L546.9,562.9 L551.2,571.5 L545.2,574.3 L543.7,578.7 L540.1,581.1 L535.9,586.7 Z">
  <desc xmlns="http://www.highcharts.com/svg/namespace">
    <name>Peterborough</name>
    <type>CTY</type>
    <hc-middle-x>0.47</hc-middle-x>
    <hc-middle-y>0.48</hc-middle-y>
    <hc-key>ca-on-3515</hc-key>
    <hc-a2>PE</hc-a2>
  </desc>
</path>

<path fill="#CEE3F5" stroke="#6E6E6E" stroke-width="0.4" id="CA.ON.3557" d="M403.3,504.1 L403.2,504.1 L403.3,504.1 Z M403.6,503.6 L399.4,503.0 L393.8,500.9 L395.1,500.0 L403.4,500.1 Z M297.7,419.2 L297.6,408.1 L298.0,337.2 L323.6,337.2 L323.7,349.3 L349.3,348.9 L349.5,361.1 L380.2,360.3 L381.2,394.8 L338.6,395.7 L338.8,419.8 L340.2,419.8 L340.6,452.3 L385.0,451.3 L385.3,463.4 L405.4,462.7 L406.2,479.0 L402.2,479.2 L402.7,491.2 L398.7,491.3 L398.8,495.5 L394.9,495.7 L395.1,499.9 L390.1,499.4 L388.3,500.9 L382.9,501.6 L383.3,500.0 L370.8,501.5 L367.8,500.4 L355.1,497.7 L352.9,496.4 L342.1,495.1 L344.2,498.0 L347.8,499.9 L341.9,507.3 L340.6,502.9 L336.9,498.7 L335.6,490.5 L336.7,486.5 L332.9,485.1 L331.7,487.0 L326.6,486.7 L324.9,489.0 L322.3,488.6 L319.7,485.5 L326.6,477.8 L325.3,474.7 L322.3,478.2 L321.6,475.8 L322.9,471.3 L322.5,466.1 L320.3,468.7 L319.0,465.6 L315.1,464.7 L314.9,461.6 L317.2,458.8 L317.2,454.9 L321.1,450.3 L316.9,443.9 L309.3,438.4 L306.8,435.2 L308.6,432.5 L307.6,430.6 L311.3,426.9 L309.9,424.1 L313.1,420.8 L312.4,418.9 L301.9,418.8 Z">
  <desc xmlns="http://www.highcharts.com/svg/namespace">
    <name>Algoma</name>
    <type>DIS</type>
    <hc-middle-x>0.24</hc-middle-x>
    <hc-middle-y>0.32</hc-middle-y>
    <hc-key>ca-on-3557</hc-key>
    <hc-a2>AL</hc-a2>
  </desc>
</path>

<path fill="#CEE3F5" stroke="#6E6E6E" stroke-width="0.4" id="CA.ON.3528" d="M454.7,654.5 L455.9,653.0 L462.7,651.2 L461.1,646.6 L471.3,643.7 L477.1,646.2 L479.9,638.5 L486.7,641.3 L488.0,641.8 L496.6,645.2 L499.4,649.2 L498.0,650.9 L490.5,650.5 L485.7,652.7 L472.8,655.4 L465.2,663.7 L467.4,665.0 L479.4,666.0 L475.5,666.6 L467.8,665.3 L459.3,665.6 L456.0,664.0 L455.7,656.1 Z">
  <desc xmlns="http://www.highcharts.com/svg/namespace">
    <name>Haldimand-Norfolk</name>
    <type>CDR</type>
    <hc-middle-x>0.49</hc-middle-x>
    <hc-middle-y>0.54</hc-middle-y>
    <hc-key>ca-on-3528</hc-key>
    <hc-a2>HN</hc-a2>
  </desc>
</path>

<path fill="#CEE3F5" stroke="#6E6E6E" stroke-width="0.4" id="CA.ON.3532" d="M461.1,646.6 L462.7,651.2 L455.9,653.0 L454.7,654.5 L450.1,654.5 L449.1,650.6 L448.1,646.6 L445.7,647.1 L440.3,636.2 L449.9,631.6 L453.6,629.7 L453.7,631.7 L461.5,629.5 L462.8,633.3 L464.3,637.3 L458.5,638.9 Z">
  <desc xmlns="http://www.highcharts.com/svg/namespace">
    <name>Oxford</name>
    <type>CTY</type>
    <hc-middle-x>0.38</hc-middle-x>
    <hc-middle-y>0.61</hc-middle-y>
    <hc-key>ca-on-3532</hc-key>
    <hc-a2>OX</hc-a2>
  </desc>
</path>

<path fill="#CEE3F5" stroke="#6E6E6E" stroke-width="0.4" id="CA.ON.3530" d="M462.8,633.3 L461.5,629.5 L453.7,631.7 L453.6,629.7 L453.4,627.2 L448.7,623.2 L452.2,616.0 L457.3,618.5 L458.7,613.7 L465.0,619.2 L469.4,627.2 L471.5,626.6 L472.3,629.1 L470.7,630.9 L465.0,632.6 Z">
  <desc xmlns="http://www.highcharts.com/svg/namespace">
    <name>Waterloo</name>
    <type>RM</type>
    <hc-middle-x>0.26</hc-middle-x>
    <hc-middle-y>0.35</hc-middle-y>
    <hc-key>ca-on-3530</hc-key>
    <hc-a2>WA</hc-a2>
  </desc>
</path>

<path fill="#CEE3F5" stroke="#6E6E6E" stroke-width="0.4" id="CA.ON.3534" d="M454.7,654.5 L455.7,656.1 L456.0,664.0 L449.4,662.5 L437.7,662.9 L434.2,664.1 L426.8,669.2 L423.6,672.5 L422.0,670.9 L417.6,666.4 L420.8,663.8 L424.5,662.6 L425.4,660.5 L429.2,658.0 L441.8,653.0 L449.1,650.6 L450.1,654.5 Z">
  <desc xmlns="http://www.highcharts.com/svg/namespace">
    <name>Elgin</name>
    <type>CTY</type>
    <hc-middle-x>0.66</hc-middle-x>
    <hc-middle-y>0.42</hc-middle-y>
    <hc-key>ca-on-3534</hc-key>
    <hc-a2>EL</hc-a2>
  </desc>
</path>

<path fill="#CEE3F5" stroke="#6E6E6E" stroke-width="0.4" id="CA.ON.3536" d="M396.6,680.8 L397.8,678.8 L397.0,672.8 L397.4,668.9 L395.1,666.2 L411.0,665.9 L411.5,664.7 L417.5,664.4 L417.5,666.3 L417.6,666.4 L422.0,670.9 L423.6,672.5 L418.8,676.8 L414.6,682.7 L409.2,683.7 L399.9,689.4 L396.6,692.6 L397.5,681.7 Z">
  <desc xmlns="http://www.highcharts.com/svg/namespace">
    <name>Chatham-Kent</name>
    <type>CDR</type>
    <hc-middle-x>0.51</hc-middle-x>
    <hc-middle-y>0.49</hc-middle-y>
    <hc-key>ca-on-3536</hc-key>
    <hc-a2>CK</hc-a2>
  </desc>
</path>

<path fill="#CEE3F5" stroke="#6E6E6E" stroke-width="0.4" id="CA.ON.3537" d="M396.6,680.8 L397.5,681.7 L396.6,692.6 L395.3,700.0 L392.1,694.7 L389.5,694.2 L380.6,697.1 L374.2,694.2 L374.2,687.8 L373.3,685.3 L375.6,681.5 L379.8,680.2 L385.4,681.9 Z">
  <desc xmlns="http://www.highcharts.com/svg/namespace">
    <name>Essex</name>
    <type>CTY</type>
    <hc-middle-x>0.48</hc-middle-x>
    <hc-middle-y>0.47</hc-middle-y>
    <hc-key>ca-on-3537</hc-key>
    <hc-a2>ES</hc-a2>
  </desc>
</path>

<path fill="#CEE3F5" stroke="#6E6E6E" stroke-width="0.4" id="CA.ON.3547" d="M593.3,518.8 L593.4,519.6 L591.7,521.5 L589.6,524.2 L579.5,535.5 L577.6,531.9 L572.3,534.4 L572.9,536.0 L567.6,538.7 L564.4,532.6 L554.1,538.0 L547.9,524.8 L542.9,527.3 L540.4,521.9 L544.6,519.7 L541.9,514.4 L552.7,509.1 L544.8,493.5 L538.6,496.5 L537.5,494.2 L532.2,496.8 L530.4,493.0 L524.6,495.8 L521.1,487.2 L524.2,488.9 L530.0,487.3 L532.5,488.5 L548.7,490.9 L558.7,497.0 L558.9,499.8 L562.2,503.4 L569.2,506.3 L571.5,505.0 L571.6,500.8 L575.5,501.7 L576.6,508.0 L578.7,508.4 L578.7,511.0 L580.9,515.7 L582.8,516.8 Z">
  <desc xmlns="http://www.highcharts.com/svg/namespace">
    <name>Renfrew</name>
    <type>CTY</type>
    <hc-middle-x>0.61</hc-middle-x>
    <hc-middle-y>0.63</hc-middle-y>
    <hc-key>ca-on-3547</hc-key>
    <hc-a2>RE</hc-a2>
  </desc>
</path>

<path fill="#CEE3F5" stroke="#6E6E6E" stroke-width="0.4" id="CA.ON.3509" d="M579.5,535.5 L589.6,524.2 L591.7,521.5 L607.0,535.2 L611.7,540.2 L610.0,544.7 L604.5,544.0 L600.6,547.6 L597.5,554.0 L593.4,550.3 L589.7,554.1 L589.5,554.3 Z">
  <desc xmlns="http://www.highcharts.com/svg/namespace">
    <name>Lanark</name>
    <type>CTY</type>
    <hc-middle-x>0.58</hc-middle-x>
    <hc-middle-y>0.44</hc-middle-y>
    <hc-key>ca-on-3509</hc-key>
    <hc-a2>LA</hc-a2>
  </desc>
</path>

<path fill="#CEE3F5" stroke="#6E6E6E" stroke-width="0.4" id="CA.ON.3529" d="M461.1,646.6 L458.5,638.9 L464.3,637.3 L462.8,633.3 L465.0,632.6 L470.7,630.9 L472.2,635.3 L479.9,638.5 L477.1,646.2 L471.3,643.7 Z">
  <desc xmlns="http://www.highcharts.com/svg/namespace">
    <name>Brant</name>
    <type>CDR</type>
    <hc-middle-x>0.50</hc-middle-x>
    <hc-middle-y>0.50</hc-middle-y>
    <hc-key>ca-on-3529</hc-key>
    <hc-a2>BR</hc-a2>
  </desc>
</path>

<path fill="#CEE3F5" stroke="#6E6E6E" stroke-width="0.4" id="CA.ON.3549" d="M464.5,500.3 L464.5,500.3 L476.4,494.8 L488.4,492.9 L490.2,492.1 L495.4,503.0 L494.6,503.4 L499.6,514.4 L502.0,513.6 L507.0,524.0 L483.3,535.1 L485.9,540.5 L471.5,547.2 L472.9,545.4 L470.4,543.7 L467.8,538.8 L466.9,541.3 L465.3,538.5 L467.0,536.1 L461.4,534.7 L459.2,530.8 L459.3,525.7 L455.7,526.4 L450.3,518.8 L450.4,516.8 L446.9,512.3 L452.8,511.0 L451.5,505.1 L461.0,503.7 L465.5,501.7 Z">
  <desc xmlns="http://www.highcharts.com/svg/namespace">
    <name>Parry Sound</name>
    <type>DIS</type>
    <hc-middle-x>0.50</hc-middle-x>
    <hc-middle-y>0.47</hc-middle-y>
    <hc-key>ca-on-3549</hc-key>
    <hc-a2>PS</hc-a2>
  </desc>
</path>

<path fill="#CEE3F5" stroke="#6E6E6E" stroke-width="0.4" id="CA.ON.3546" d="M532.5,532.3 L539.3,546.1 L541.3,550.1 L536.2,552.3 L535.4,550.5 L518.8,557.7 L513.5,560.0 L508.9,549.5 L506.2,544.1 L511.3,541.8 L506.1,531.0 L509.7,529.3 L526.9,521.0 Z">
  <desc xmlns="http://www.highcharts.com/svg/namespace">
    <name>Haliburton</name>
    <type>CTY</type>
    <hc-middle-x>0.43</hc-middle-x>
    <hc-middle-y>0.53</hc-middle-y>
    <hc-key>ca-on-3546</hc-key>
    <hc-a2>HA</hc-a2>
  </desc>
</path>

<path fill="#CEE3F5" stroke="#6E6E6E" stroke-width="0.4" id="CA.ON.3526" d="M499.4,649.2 L496.6,645.2 L488.0,641.8 L489.2,636.7 L491.0,637.2 L491.9,633.3 L495.2,634.5 L502.4,634.5 L508.3,630.6 L511.1,630.6 L512.0,635.8 L511.0,638.9 L512.8,639.5 L513.3,643.1 L516.5,644.5 L516.8,647.4 L511.3,649.2 L505.2,648.6 Z">
  <desc xmlns="http://www.highcharts.com/svg/namespace">
    <name>Niagara</name>
    <type>RM</type>
    <hc-middle-x>0.71</hc-middle-x>
    <hc-middle-y>0.51</hc-middle-y>
    <hc-key>ca-on-3526</hc-key>
    <hc-a2>NI</hc-a2>
  </desc>
</path>

<path fill="#CEE3F5" stroke="#6E6E6E" stroke-width="0.4" id="CA.ON.3524" d="M482.8,614.2 L480.5,613.6 L479.7,611.4 L482.7,614.0 Z M479.7,611.4 L480.5,613.6 L482.8,614.2 L484.5,617.0 L491.0,621.4 L488.2,626.4 L485.9,630.2 L481.8,630.1 L483.4,628.2 L477.1,622.8 L472.6,618.9 L478.5,610.3 L479.5,611.2 Z">
  <desc xmlns="http://www.highcharts.com/svg/namespace">
    <name>Halton</name>
    <type>RM</type>
    <hc-middle-x>0.74</hc-middle-x>
    <hc-middle-y>0.77</hc-middle-y>
    <hc-key>ca-on-3524</hc-key>
    <hc-a2>HA</hc-a2>
  </desc>
</path>

<path fill="#CEE3F5" stroke="#6E6E6E" stroke-width="0.4" id="CA.ON.3525" d="M485.9,630.2 L487.5,632.5 L491.9,633.3 L491.0,637.2 L489.2,636.7 L488.0,641.8 L486.7,641.3 L479.9,638.5 L472.2,635.3 L470.7,630.9 L472.3,629.1 L471.5,626.6 L475.8,625.4 L477.1,622.8 L483.4,628.2 L481.8,630.1 Z">
  <desc xmlns="http://www.highcharts.com/svg/namespace">
    <name>Hamilton</name>
    <type>CDR</type>
    <hc-middle-x>0.72</hc-middle-x>
    <hc-middle-y>0.74</hc-middle-y>
    <hc-key>ca-on-3525</hc-key>
    <hc-a2>HA</hc-a2>
  </desc>
</path>

<path fill="#CEE3F5" stroke="#6E6E6E" stroke-width="0.4" id="CA.ON.3522" d="M461.8,597.7 L463.9,597.0 L462.3,588.8 L468.2,586.7 L474.6,584.3 L478.5,600.2 L474.1,601.9 L472.4,604.8 L468.9,609.7 L463.6,605.6 Z">
  <desc xmlns="http://www.highcharts.com/svg/namespace">
    <name>Dufferin</name>
    <type>CTY</type>
    <hc-middle-x>0.76</hc-middle-x>
    <hc-middle-y>0.21</hc-middle-y>
    <hc-key>ca-on-3522</hc-key>
    <hc-a2>DU</hc-a2>
  </desc>
</path>

<path fill="#CEE3F5" stroke="#6E6E6E" stroke-width="0.4" id="CA.ON.3501" d="M627.7,545.8 L621.3,537.2 L618.4,533.6 L621.3,531.3 L625.7,528.1 L636.9,522.2 L635.9,520.5 L644.5,514.3 L643.9,513.6 L648.9,509.6 L652.4,513.9 L654.3,514.3 L653.8,518.7 L658.6,522.6 L655.3,525.4 L653.3,530.0 L647.2,534.2 L643.8,532.8 L638.7,535.4 L629.8,543.1 Z">
  <desc xmlns="http://www.highcharts.com/svg/namespace">
    <name>Stormont, Dundas and Glengarry</name>
    <type>UC</type>
    <hc-middle-x>0.76</hc-middle-x>
    <hc-middle-y>0.56</hc-middle-y>
    <hc-key>ca-on-3501</hc-key>
    <hc-a2>SD</hc-a2>
  </desc>
</path>

<path fill="#CEE3F5" stroke="#6E6E6E" stroke-width="0.4" id="CA.ON.3554" d="M478.5,397.9 L481.0,432.4 L479.4,438.0 L484.8,445.4 L484.8,452.3 L486.0,454.2 L479.0,454.7 L478.4,446.6 L475.3,449.6 L473.4,446.9 L458.2,447.9 L457.8,443.9 L432.5,445.3 L430.6,408.9 L406.1,410.0 L405.8,401.9 L454.9,399.4 Z">
  <desc xmlns="http://www.highcharts.com/svg/namespace">
    <name>Timiskaming</name>
    <type>DIS</type>
    <hc-middle-x>0.65</hc-middle-x>
    <hc-middle-y>0.40</hc-middle-y>
    <hc-key>ca-on-3554</hc-key>
    <hc-a2>TI</hc-a2>
  </desc>
</path>

<path fill="#CEE3F5" stroke="#6E6E6E" stroke-width="0.4" id="CA.ON.3553" d="M430.4,473.7 L430.2,469.8 L433.7,469.5 L433.5,465.5 L437.5,465.4 L437.3,461.3 L441.5,461.1 L441.6,465.1 L449.8,464.9 L450.5,476.9 L446.3,477.1 L447.1,489.4 L434.7,489.9 L432.4,488.0 L427.4,489.7 L425.8,493.1 L427.6,497.9 L423.5,498.3 L423.3,494.4 L419.1,494.6 L418.5,484.5 L422.7,484.3 L422.4,481.7 L422.0,474.1 Z">
  <desc xmlns="http://www.highcharts.com/svg/namespace">
    <name>Greater Sudbury / Grand Sudbury</name>
    <type>CDR</type>
    <hc-middle-x>0.50</hc-middle-x>
    <hc-middle-y>0.50</hc-middle-y>
    <hc-key>ca-on-3553</hc-key>
    <hc-a2>GS</hc-a2>
  </desc>
</path>
</g>

<text x="350" y="714" text-anchor="middle" font-family="Verdana" font-size="8" stroke-opacity="0.6">Copyright (c) 2023 Highsoft AS, Adapted from Statistics Canada, Boundary files, 2011 Census. This does not constitute an endorsement by Statistics Canada of this product.</text>

</svg>