<?xml version="1.0" encoding="utf-8" standalone="no"?>
<!DOCTYPE svg PUBLIC "-//W3C//DTD SVG 1.1//EN" "http://www.w3.org/Graphics/SVG/1.1/DTD/svg11.dtd">
<svg version="1.1" viewBox="-5 -5 710 730" xmlns="http://www.w3.org/2000/svg" xmlns:xlink="http://www.w3.org/1999/xlink">
  <desc>
    Map version: 2.3.2
    Copyright (c) 2025 Highsoft AS, Based on data from OpenStreetMap
  </desc>
  <title>Malta</title>
  <g id="admin1" stroke-width="0.72" fill="#D4E6F8" stroke="#666">
    <path id="mt-03" d="M621.2,354.5 617.6,350.9 617.6,349.1 612.3,350.9 610.5,347.3 612.3,347.3 610.5,345.5 605.1,345.5 605.1,343.7 601.5,341.9 599.7,338.4 596.2,338.4 603.3,349.1 603.3,352.7 608.7,352.7 610.5,354.5 610.5,358.1 617.6,359.8 617.6,361.6 621.2,358.1 619.4,356.3 621.2,354.5Z">
    <desc xmlns="https://highcharts.com/docs/mc">
      <hasc>MT.SE.BR</hasc>
      <fips>MT03</fips>
      <name>Il-Birgu</name>
      <iso3166-2>MT-03</iso3166-2>
      <hc-group>admin1</hc-group>
      <hc-key>mt-03</hc-key>
      <hc-a2>IL</hc-a2>
      <hc-middle-lon>14.524</hc-middle-lon>
      <hc-middle-lat>35.886</hc-middle-lat>
    </desc>
    </path>
    <path id="mt-56" d="M563.9,313.3 565.7,311.5 571.1,311.5 574.7,309.7 578.3,311.5 581.8,315.1 592.6,315.1 590.8,311.5 585.4,309.7 585.4,306.1 580.1,306.1 580.1,299 572.9,297.2 572.9,295.4 567.5,295.4 563.9,291.8 562.1,293.6 562.1,299 560.4,299 558.6,299 560.4,299 558.6,302.6 556.8,302.6 553.2,306.1 555,307.9 555,309.7 560.4,309.7 563.9,311.5 563.9,313.3Z">
    <desc xmlns="https://highcharts.com/docs/mc">
      <hasc>MT.CE.SL</hasc>
      <fips>MT56</fips>
      <name>Tas-Sliema</name>
      <iso3166-2>MT-56</iso3166-2>
      <hc-group>admin1</hc-group>
      <hc-key>mt-56</hc-key>
      <hc-a2>TA</hc-a2>
      <hc-middle-lon>14.504</hc-middle-lon>
      <hc-middle-lat>35.912</hc-middle-lat>
    </desc>
    </path>
    <path id="mt-31" d="M390.3,307.9 383.1,304.3 379.5,304.3 370.6,295.4 372.4,293.6 370.6,291.8 370.6,288.2 367,284.7 365.2,279.3 361.6,277.5 356.3,277.5 354.5,273.9 349.1,277.5 343.7,275.7 343.7,268.5 350.9,261.4 350.9,257.8 347.3,256 341.9,256 341.9,252.4 338.4,256 333,257.8 324,257.8 318.7,263.2 313.3,263.2 311.5,266.8 299,268.5 295.4,270.3 284.7,270.3 284.7,272.1 288.2,272.1 286.4,275.7 282.9,275.7 282.9,273.9 279.3,273.9 277.5,275.7 279.3,279.3 282.9,279.3 282.9,277.5 286.4,277.5 286.4,281.1 284.7,281.1 284.7,284.7 286.4,288.2 282.9,290 279.3,288.2 277.5,284.7 268.5,284.7 266.8,286.4 266.8,300.8 272.1,300.8 272.1,304.3 277.5,307.9 275.7,309.7 281.1,311.5 281.1,315.1 282.9,316.9 288.2,318.7 286.4,322.3 297.2,324 297.2,322.3 304.3,325.8 313.3,331.2 315.1,329.4 313.3,325.8 316.9,320.5 320.5,318.7 327.6,322.3 333,316.9 340.2,318.7 341.9,322.3 345.5,322.3 349.1,318.7 349.1,316.9 356.3,315.1 356.3,313.3 361.6,313.3 367,315.1 374.2,313.3 381.3,315.1 384.9,311.5 384.9,313.3 388.5,313.3 390.3,311.5 393.9,311.5 395.7,311.5 393.9,311.5 390.3,307.9Z">
    <desc xmlns="https://highcharts.com/docs/mc">
      <hasc>MT.NO.MG</hasc>
      <fips>MT21</fips>
      <name>L-Imġarr</name>
      <iso3166-2>MT-31</iso3166-2>
      <hc-group>admin1</hc-group>
      <hc-key>mt-31</hc-key>
      <hc-a2>LI</hc-a2>
      <hc-middle-lon>14.369</hc-middle-lon>
      <hc-middle-lat>35.919</hc-middle-lat>
    </desc>
    </path>
    <path id="mt-30" d="M390.3,209.5 392.1,207.7 399.2,207.7 399.2,205.9 392.1,205.9 392.1,207.7 386.7,207.7 384.9,211.3 390.3,211.3 390.3,209.5 M338.4,256 333,250.6 333,241.7 331.2,239.9 334.8,236.3 341.9,236.3 347.3,232.7 349.1,232.7 356.3,229.2 363.4,227.4 365.2,222 368.8,222 368.8,220.2 374.2,220.2 376,222 379.5,222 379.5,218.4 377.7,216.6 381.3,214.8 381.3,209.5 379.5,209.5 379.5,205.9 381.3,204.1 365.2,204.1 359.8,200.5 358.1,204.1 352.7,204.1 349.1,198.7 340.2,200.5 338.4,202.3 327.6,204.1 324,205.9 307.9,205.9 304.3,207.7 300.8,205.9 300.8,204.1 297.2,200.5 297.2,193.4 300.8,193.4 302.6,189.8 304.3,191.6 309.7,188 313.3,184.4 318.7,182.6 322.3,177.2 325.8,173.7 336.6,173.7 336.6,171.9 341.9,171.9 343.7,166.5 340.2,162.9 336.6,161.1 336.6,157.5 334.8,157.5 331.2,152.2 327.6,150.4 327.6,154 324,152.2 320.5,152.2 318.7,154 318.7,157.5 324,159.3 322.3,162.9 320.5,161.1 315.1,161.1 315.1,164.7 313.3,166.5 307.9,166.5 307.9,162.9 302.6,161.1 300.8,162.9 300.8,170.1 297.2,170.1 295.4,168.3 290,168.3 291.8,171.9 288.2,170.1 270.3,170.1 268.5,168.3 266.8,170.1 261.4,170.1 259.6,166.5 261.4,162.9 257.8,164.7 257.8,168.3 256,168.3 257.8,171.9 265,171.9 268.5,173.7 268.5,177.2 266.8,179 259.6,179 257.8,180.8 257.8,184.4 254.2,184.4 252.4,186.2 250.6,184.4 248.8,188 247.1,188 247.1,193.4 243.5,196.9 241.7,196.9 245.3,202.3 254.2,204.1 259.6,200.5 273.9,200.5 273.9,207.7 275.7,209.5 275.7,213 272.1,214.8 275.7,216.6 282.9,216.6 282.9,218.4 279.3,218.4 275.7,222 277.5,222 277.5,227.4 282.9,227.4 281.1,232.7 275.7,234.5 277.5,238.1 273.9,238.1 272.1,239.9 272.1,245.3 268.5,247.1 266.8,245.3 265,247.1 259.6,248.8 259.6,252.4 257.8,252.4 263.2,257.8 266.8,256 268.5,257.8 273.9,257.8 273.9,259.6 277.5,263.2 286.4,263.2 286.4,268.5 284.7,270.3 295.4,270.3 299,268.5 311.5,266.8 313.3,263.2 318.7,263.2 324,257.8 333,257.8 338.4,256Z">
    <desc xmlns="https://highcharts.com/docs/mc">
      <hasc>MT.NO.ME</hasc>
      <fips>MT34</fips>
      <name>Il-Mellieħa</name>
      <iso3166-2>MT-30</iso3166-2>
      <hc-group>admin1</hc-group>
      <hc-key>mt-30</hc-key>
      <hc-a2>IM</hc-a2>
      <hc-middle-lon>14.364</hc-middle-lon>
      <hc-middle-lat>35.965</hc-middle-lat>
    </desc>
    </path>
    <path id="mt-13" d="M150.4,109.2 157.5,111 157.5,112.8 159.3,114.6 159.3,116.4 166.5,116.4 166.5,118.2 171.9,118.2 171.9,114.6 184.4,114.6 188,112.8 188,111 191.6,111 189.8,114.6 193.4,114.6 193.4,111 196.9,111 198.7,109.2 202.3,109.2 204.1,105.6 209.5,103.8 202.3,103.8 202.3,100.3 207.7,100.3 207.7,98.5 216.6,98.5 216.6,100.3 222,100.3 222,98.5 216.6,94.9 216.6,93.1 211.3,93.1 205.9,96.7 204.1,96.7 204.1,91.3 205.9,87.7 202.3,89.5 202.3,85.9 198.7,85.9 200.5,85.9 198.7,85.9 196.9,84.1 184.4,84.1 184.4,85.9 177.2,85.9 170.1,82.4 168.3,82.4 164.7,84.1 164.7,87.7 162.9,87.7 161.1,87.7 161.1,96.7 157.5,103.8 154,105.6 154,107.4 150.4,109.2 M290,134.3 290,136.1 290,134.3 M250.6,125.3 254.2,127.1 257.8,128.9 257.8,127.1 261.4,132.5 259.6,132.5 256,134.3 256,136.1 256,137.9 254.2,139.6 268.5,139.6 268.5,137.9 282.9,137.9 282.9,136.1 288.2,136.1 290,134.3 290,136.1 293.6,136.1 295.4,132.5 297.2,132.5 297.2,127.1 295.4,127.1 291.8,121.7 284.7,119.9 277.5,112.8 277.5,111 273.9,111 277.5,112.8 275.7,114.6 275.7,118.2 272.1,118.2 272.1,114.6 266.8,112.8 266.8,111 259.6,118.2 259.6,112.8 256,114.6 250.6,114.6 248.8,112.8 248.8,118.2 252.4,118.2 250.6,119.9 250.6,125.3 M250.6,127.1 252.4,128.9 254.2,127.1 250.6,127.1 M250.6,127.1 250.6,125.3 250.6,127.1 250.6,125.3 248.8,125.3 250.6,127.1 M248.8,125.3 247.1,123.5 247.1,119.9 243.5,121.7 238.1,121.7 239.9,125.3 248.8,125.3 M256,136.1 256,137.9 256,136.1 M277.5,111 277.5,112.8 277.5,111Z">
    <desc xmlns="https://highcharts.com/docs/mc">
      <hasc>MT.GO.GJ</hasc>
      <fips>MT11</fips>
      <hc-middle-lon>14.287</hc-middle-lon>
      <hc-middle-lat>36.029</hc-middle-lat>
      <name>Għajnsielem</name>
      <iso3166-2>MT-13</iso3166-2>
      <hc-group>admin1</hc-group>
      <hc-key>mt-13</hc-key>
      <hc-a2>GA</hc-a2>
    </desc>
    </path>
    <path id="mt-10" d="M87.7,82.4 85.9,84.1 91.3,89.5 96.7,87.7 96.7,84.1 98.5,78.8 100.3,77 100.3,73.4 96.7,71.6 91.3,71.6 87.7,75.2 89.5,78.8 87.7,82.4Z">
    <desc xmlns="https://highcharts.com/docs/mc">
      <hasc>MT.GO.FO</hasc>
      <fips>MT10</fips>
      <name>Il-Fontana</name>
      <iso3166-2>MT-10</iso3166-2>
      <hc-group>admin1</hc-group>
      <hc-key>mt-10</hc-key>
      <hc-a2>IF</hc-a2>
      <hc-middle-lon>14.236</hc-middle-lon>
      <hc-middle-lat>36.037</hc-middle-lat>
    </desc>
    </path>
    <path id="mt-22" d="M87.7,82.4 89.5,78.8 87.7,75.2 87.7,69.8 82.4,66.2 82.4,60.9 75.2,57.3 73.4,53.7 66.2,53.7 62.7,50.1 60.9,50.1 59.1,48.3 48.3,48.3 46.5,50.1 44.8,48.3 44.8,51.9 43,55.5 37.6,57.3 35.8,60.9 39.4,64.5 37.6,68 34,69.8 30.4,69.8 26.9,73.4 23.3,73.4 23.3,75.2 23.3,78.8 26.9,80.6 26.9,82.4 17.9,85.9 16.1,87.7 19.7,87.7 21.5,85.9 25.1,87.7 26.9,85.9 37.6,85.9 37.6,87.7 46.5,87.7 48.3,91.3 51.9,91.3 53.7,89.5 68,82.4 69.8,82.4 73.4,78.8 75.2,78.8 77,82.4 82.4,82.4 82.4,84.1 87.7,82.4Z">
    <desc xmlns="https://highcharts.com/docs/mc">
      <hasc>MT.GO.KE</hasc>
      <fips>MT27</fips>
      <name>Ta' Kerċem</name>
      <iso3166-2>MT-22</iso3166-2>
      <hc-group>admin1</hc-group>
      <hc-key>mt-22</hc-key>
      <hc-a2>TK</hc-a2>
      <hc-middle-lon>14.213</hc-middle-lon>
      <hc-middle-lat>36.043</hc-middle-lat>
    </desc>
    </path>
    <path id="mt-50" d="M12.5,35.8 12.5,41.2 14.3,41.2 14.3,46.5 9,48.3 9,51.9 7.2,53.7 10.7,55.5 10.7,59.1 9,60.9 16.1,60.9 16.1,66.2 12.5,66.2 10.7,64.5 10.7,69.8 9,73.4 10.7,75.2 7.2,77 3.6,82.4 9,85.9 14.3,85.9 16.1,87.7 17.9,85.9 26.9,82.4 26.9,80.6 23.3,78.8 23.3,75.2 23.3,73.4 26.9,73.4 30.4,69.8 34,69.8 37.6,68 39.4,64.5 35.8,60.9 37.6,57.3 43,55.5 44.8,51.9 44.8,48.3 41.2,46.5 37.6,43 37.6,39.4 32.2,39.4 30.4,41.2 16.1,35.8 12.5,35.8Z">
    <desc xmlns="https://highcharts.com/docs/mc">
      <hasc>MT.GO.SL</hasc>
      <fips>MT50</fips>
      <name>San Lawrenz</name>
      <iso3166-2>MT-50</iso3166-2>
      <hc-group>admin1</hc-group>
      <hc-key>mt-50</hc-key>
      <hc-a2>SL</hc-a2>
      <hc-middle-lon>14.198</hc-middle-lon>
      <hc-middle-lat>36.048</hc-middle-lat>
    </desc>
    </path>
    <path id="mt-14" d="M59.1,48.3 59.1,46.5 55.5,41.2 57.3,34 51.9,34 51.9,26.9 44.8,19.7 51.9,7.2 51.9,3.6 46.5,3.6 46.5,5.4 37.6,5.4 37.6,7.2 32.2,7.2 32.2,10.7 28.6,10.7 26.9,14.3 23.3,12.5 17.9,12.5 17.9,14.3 5.4,14.3 5.4,12.5 1.8,12.5 0,14.3 0,30.4 1.8,32.2 10.7,32.2 12.5,35.8 16.1,35.8 30.4,41.2 32.2,39.4 37.6,39.4 37.6,43 41.2,46.5 44.8,48.3 46.5,50.1 48.3,48.3 59.1,48.3 60.9,50.1 59.1,48.3Z">
    <desc xmlns="https://highcharts.com/docs/mc">
      <hasc>MT.GO.GB</hasc>
      <fips>MT12</fips>
      <name>L-Għarb</name>
      <iso3166-2>MT-14</iso3166-2>
      <hc-group>admin1</hc-group>
      <hc-key>mt-14</hc-key>
      <hc-a2>LG</hc-a2>
      <hc-middle-lon>14.2</hc-middle-lon>
      <hc-middle-lat>36.067</hc-middle-lat>
    </desc>
    </path>
    <path id="mt-16" d="M75.2,57.3 77,55.5 77,51.9 82.4,51.9 85.9,53.7 85.9,51.9 94.9,51.9 96.7,53.7 94.9,51.9 93.1,44.8 94.9,43 94.9,37.6 93.1,37.6 87.7,41.2 85.9,37.6 80.6,32.2 80.6,30.4 77,28.6 77,26.9 77,28.6 77,26.9 77,21.5 80.6,17.9 78.8,16.1 84.1,12.5 84.1,9 85.9,7.2 84.1,3.6 80.6,3.6 71.6,1.8 69.8,3.6 51.9,3.6 51.9,7.2 44.8,19.7 51.9,26.9 51.9,34 57.3,34 55.5,41.2 59.1,46.5 59.1,48.3 60.9,50.1 62.7,50.1 66.2,53.7 73.4,53.7 75.2,57.3Z">
    <desc xmlns="https://highcharts.com/docs/mc">
      <hasc>MT.GO.GS</hasc>
      <fips>MT14</fips>
      <name>L-Għasri</name>
      <iso3166-2>MT-16</iso3166-2>
      <hc-group>admin1</hc-group>
      <hc-key>mt-16</hc-key>
      <hc-a2>LA</hc-a2>
      <hc-middle-lon>14.223</hc-middle-lon>
      <hc-middle-lat>36.066</hc-middle-lat>
    </desc>
    </path>
    <path id="mt-45" d="M119.9,57.3 114.6,59.1 109.2,57.3 107.4,55.5 103.8,57.3 98.5,53.7 96.7,53.7 94.9,51.9 85.9,51.9 85.9,53.7 82.4,51.9 77,51.9 77,55.5 75.2,57.3 82.4,60.9 82.4,66.2 87.7,69.8 87.7,75.2 91.3,71.6 96.7,71.6 100.3,73.4 100.3,77 98.5,78.8 96.7,84.1 96.7,87.7 98.5,87.7 100.3,87.7 102,84.1 105.6,85.9 107.4,82.4 112.8,82.4 118.2,84.1 119.9,82.4 118.2,78.8 121.7,75.2 119.9,75.2 121.7,71.6 123.5,68 116.4,64.5 116.4,60.9 119.9,57.3Z">
    <desc xmlns="https://highcharts.com/docs/mc">
      <hasc>MT.NO.RA</hasc>
      <fips>MT45</fips>
      <name>Ir-Rabat</name>
      <iso3166-2>MT-45</iso3166-2>
      <hc-group>admin1</hc-group>
      <hc-key>mt-45</hc-key>
      <hc-a2>IR</hc-a2>
      <hc-middle-lon>14.239</hc-middle-lon>
      <hc-middle-lat>36.043</hc-middle-lat>
    </desc>
    </path>
    <path id="mt-65" d="M119.9,57.3 119.9,53.7 119.9,50.1 118.2,50.1 118.2,46.5 119.9,46.5 119.9,43 125.3,37.6 134.3,34 134.3,32.2 145,32.2 145,16.1 145,14.3 139.6,14.3 136.1,19.7 132.5,17.9 132.5,10.7 128.9,9 123.5,9 121.7,10.7 121.7,7.2 119.9,7.2 119.9,3.6 105.6,3.6 105.6,1.8 94.9,1.8 94.9,0 91.3,0 91.3,1.8 87.7,1.8 87.7,0 82.4,0 80.6,3.6 84.1,3.6 85.9,7.2 84.1,9 84.1,12.5 78.8,16.1 80.6,17.9 77,21.5 77,26.9 77,28.6 77,26.9 77,28.6 80.6,30.4 80.6,32.2 85.9,37.6 87.7,41.2 93.1,37.6 94.9,37.6 94.9,43 93.1,44.8 94.9,51.9 96.7,53.7 98.5,53.7 103.8,57.3 107.4,55.5 109.2,57.3 114.6,59.1 119.9,57.3Z">
    <desc xmlns="https://highcharts.com/docs/mc">
      <hasc>MT.GO.ZE</hasc>
      <fips>MT66</fips>
      <name>Iż-Żebbuġ</name>
      <iso3166-2>MT-65</iso3166-2>
      <hc-group>admin1</hc-group>
      <hc-key>mt-65</hc-key>
      <hc-a2>IE</hc-a2>
      <hc-middle-lon>14.246</hc-middle-lon>
      <hc-middle-lat>36.066</hc-middle-lat>
    </desc>
    </path>
    <path id="mt-61" d="M182.6,35.8 173.7,35.8 170.1,34 168.3,30.4 161.1,30.4 157.5,28.6 157.5,23.3 154,21.5 154,19.7 150.4,17.9 150.4,16.1 145,16.1 145,32.2 134.3,32.2 134.3,34 125.3,37.6 119.9,43 119.9,46.5 118.2,46.5 118.2,50.1 119.9,50.1 119.9,53.7 119.9,57.3 116.4,60.9 116.4,64.5 123.5,68 121.7,71.6 130.7,75.2 136.1,75.2 145,71.6 155.8,71.6 155.8,73.4 166.5,78.8 168.3,77 171.9,62.7 179,55.5 179,41.2 177.2,39.4 182.6,35.8Z">
    <desc xmlns="https://highcharts.com/docs/mc">
      <hasc>MT.GO.XA</hasc>
      <fips>MT61</fips>
      <name>Ix-Xagħra</name>
      <iso3166-2>MT-61</iso3166-2>
      <hc-group>admin1</hc-group>
      <hc-key>mt-61</hc-key>
      <hc-a2>IX</hc-a2>
      <hc-middle-lon>14.268</hc-middle-lon>
      <hc-middle-lat>36.055</hc-middle-lat>
    </desc>
    </path>
    <path id="mt-42" d="M222,100.3 227.4,98.5 234.5,98.5 236.3,100.3 245.3,100.3 247.1,96.7 257.8,96.7 259.6,93.1 263.2,93.1 270.3,91.3 272.1,89.5 272.1,84.1 266.8,77 263.2,75.2 261.4,71.6 259.6,71.6 252.4,64.5 250.6,64.5 247.1,60.9 245.3,57.3 239.9,57.3 238.1,59.1 230.9,60.9 222,66.2 218.4,66.2 213,69.8 214.8,71.6 214.8,78.8 213,84.1 207.7,84.1 202.3,85.9 200.5,85.9 198.7,85.9 202.3,85.9 202.3,89.5 205.9,87.7 204.1,91.3 204.1,96.7 205.9,96.7 211.3,93.1 216.6,93.1 216.6,94.9 222,98.5 222,100.3Z">
    <desc xmlns="https://highcharts.com/docs/mc">
      <hasc>MT.GO.QA</hasc>
      <fips>MT42</fips>
      <name>Il-Qala</name>
      <iso3166-2>MT-42</iso3166-2>
      <hc-group>admin1</hc-group>
      <hc-key>mt-42</hc-key>
      <hc-a2>IQ</hc-a2>
      <hc-middle-lon>14.316</hc-middle-lon>
      <hc-middle-lat>36.038</hc-middle-lat>
    </desc>
    </path>
    <path id="mt-37" d="M200.5,85.9 202.3,85.9 207.7,84.1 213,84.1 214.8,78.8 214.8,71.6 213,69.8 218.4,66.2 222,66.2 230.9,60.9 238.1,59.1 239.9,57.3 238.1,59.1 236.3,57.3 232.7,57.3 234.5,55.5 229.2,51.9 229.2,44.8 223.8,41.2 218.4,41.2 211.3,44.8 207.7,44.8 204.1,39.4 200.5,39.4 195.1,34 193.4,30.4 188,30.4 184.4,32.2 182.6,35.8 177.2,39.4 179,41.2 179,55.5 171.9,62.7 168.3,77 166.5,78.8 168.3,82.4 170.1,82.4 177.2,85.9 184.4,85.9 184.4,84.1 196.9,84.1 198.7,85.9 200.5,85.9Z">
    <desc xmlns="https://highcharts.com/docs/mc">
      <hasc>MT.GO.NA</hasc>
      <fips>MT37</fips>
      <name>In-Nadur</name>
      <iso3166-2>MT-37</iso3166-2>
      <hc-group>admin1</hc-group>
      <hc-key>mt-37</hc-key>
      <hc-a2>IN</hc-a2>
      <hc-middle-lon>14.297</hc-middle-lon>
      <hc-middle-lat>36.05</hc-middle-lat>
    </desc>
    </path>
    <path id="mt-62" d="M168.3,82.4 166.5,78.8 155.8,73.4 155.8,71.6 145,71.6 136.1,75.2 130.7,75.2 121.7,71.6 119.9,75.2 121.7,75.2 118.2,78.8 119.9,82.4 118.2,84.1 112.8,82.4 107.4,82.4 105.6,85.9 102,84.1 100.3,87.7 98.5,87.7 96.7,93.1 103.8,93.1 103.8,94.9 109.2,94.9 112.8,93.1 116.4,94.9 123.5,94.9 125.3,98.5 128.9,98.5 130.7,100.3 139.6,100.3 141.4,102 141.4,105.6 143.2,105.6 145,107.4 150.4,107.4 150.4,109.2 154,107.4 154,105.6 157.5,103.8 161.1,96.7 161.1,87.7 162.9,87.7 164.7,87.7 164.7,84.1 168.3,82.4Z">
    <desc xmlns="https://highcharts.com/docs/mc">
      <hasc>MT.GO.XE</hasc>
      <fips>MT62</fips>
      <name>Ix-Xewkija</name>
      <iso3166-2>MT-62</iso3166-2>
      <hc-group>admin1</hc-group>
      <hc-key>mt-62</hc-key>
      <hc-a2>IW</hc-a2>
      <hc-middle-lon>14.258</hc-middle-lon>
      <hc-middle-lat>36.032</hc-middle-lat>
    </desc>
    </path>
    <path id="mt-36" d="M84.1,109.2 84.1,105.6 91.3,102 89.5,98.5 93.1,98.5 96.7,93.1 98.5,87.7 96.7,87.7 91.3,89.5 85.9,84.1 87.7,82.4 82.4,84.1 82.4,82.4 77,82.4 75.2,78.8 73.4,78.8 69.8,82.4 68,82.4 53.7,89.5 51.9,91.3 57.3,93.1 55.5,96.7 50.1,96.7 50.1,98.5 53.7,98.5 57.3,103.8 62.7,103.8 60.9,105.6 62.7,109.2 66.2,109.2 66.2,111 69.8,111 75.2,107.4 80.6,107.4 84.1,109.2Z">
    <desc xmlns="https://highcharts.com/docs/mc">
      <hasc>MT.GO.MU</hasc>
      <fips>MT36</fips>
      <name>Il-Munxar</name>
      <iso3166-2>MT-36</iso3166-2>
      <hc-group>admin1</hc-group>
      <hc-key>mt-36</hc-key>
      <hc-a2>IU</hc-a2>
      <hc-middle-lon>14.226</hc-middle-lon>
      <hc-middle-lat>36.029</hc-middle-lat>
    </desc>
    </path>
    <path id="mt-52" d="M150.4,109.2 150.4,107.4 145,107.4 143.2,105.6 141.4,105.6 141.4,102 139.6,100.3 130.7,100.3 128.9,98.5 125.3,98.5 123.5,94.9 116.4,94.9 112.8,93.1 109.2,94.9 103.8,94.9 103.8,93.1 96.7,93.1 93.1,98.5 89.5,98.5 91.3,102 84.1,105.6 84.1,109.2 87.7,111 93.1,111 93.1,112.8 116.4,112.8 116.4,114.6 123.5,114.6 125.3,116.4 125.3,119.9 127.1,121.7 136.1,121.7 137.9,123.5 137.9,127.1 143.2,123.5 143.2,121.7 150.4,121.7 154,119.9 154,118.2 159.3,116.4 159.3,114.6 157.5,112.8 157.5,111 150.4,109.2Z">
    <desc xmlns="https://highcharts.com/docs/mc">
      <hasc>MT.GO.SA</hasc>
      <fips>MT54</fips>
      <name>Ta' Sannat</name>
      <iso3166-2>MT-52</iso3166-2>
      <hc-group>admin1</hc-group>
      <hc-key>mt-52</hc-key>
      <hc-a2>TS</hc-a2>
      <hc-middle-lon>14.252</hc-middle-lon>
      <hc-middle-lat>36.02</hc-middle-lat>
    </desc>
    </path>
    <path id="mt-18" d="M538.9,359.8 538.9,358.1 547.8,354.5 547.8,352.7 553.2,352.7 562.1,349.1 562.1,347.3 565.7,345.5 565.7,343.7 560.4,341.9 556.8,345.5 547.8,345.5 549.6,341.9 547.8,341.9 546,340.2 538.9,340.2 537.1,341.9 537.1,349.1 535.3,347.3 529.9,350.9 529.9,354.5 535.3,358.1 538.9,358.1 538.9,359.8Z">
    <desc xmlns="https://highcharts.com/docs/mc">
      <hasc>MT.SO.HA</hasc>
      <fips>MT18</fips>
      <name>Il-Ħamrun</name>
      <iso3166-2>MT-18</iso3166-2>
      <hc-group>admin1</hc-group>
      <hc-key>mt-18</hc-key>
      <hc-a2>IA</hc-a2>
      <hc-middle-lon>14.49</hc-middle-lon>
      <hc-middle-lat>35.886</hc-middle-lat>
    </desc>
    </path>
    <path id="mt-54" d="M524.6,336.6 519.2,334.8 517.4,340.2 517.4,345.5 513.8,349.1 521,349.1 524.6,352.7 528.1,352.7 529.9,354.5 529.9,350.9 535.3,347.3 537.1,349.1 537.1,341.9 538.9,340.2 535.3,340.2 535.3,336.6 524.6,336.6Z">
    <desc xmlns="https://highcharts.com/docs/mc">
      <hasc>MT.CE.SV</hasc>
      <fips>MT53</fips>
      <name>Santa Venera</name>
      <iso3166-2>MT-54</iso3166-2>
      <hc-group>admin1</hc-group>
      <hc-key>mt-54</hc-key>
      <hc-a2>SV</hc-a2>
      <hc-middle-lon>14.477</hc-middle-lon>
      <hc-middle-lat>35.889</hc-middle-lat>
    </desc>
    </path>
    <path id="mt-29" d="M383.1,347.3 384.9,350.9 388.5,352.7 392.1,356.3 395.7,356.3 410,356.3 413.6,354.5 410,354.5 404.6,349.1 404.6,343.7 402.8,341.9 395.7,341.9 395.7,340.2 384.9,343.7 381.3,345.5 383.1,347.3Z">
    <desc xmlns="https://highcharts.com/docs/mc">
      <hasc>MT.NO.MD</hasc>
      <fips>MT20</fips>
      <name>L-Imdina</name>
      <iso3166-2>MT-29</iso3166-2>
      <hc-group>admin1</hc-group>
      <hc-key>mt-29</hc-key>
      <hc-a2>LM</hc-a2>
      <hc-middle-lon>14.407</hc-middle-lon>
      <hc-middle-lat>35.888</hc-middle-lat>
    </desc>
    </path>
    <path id="mt-02" d="M488.7,338.4 488.7,331.2 487,331.2 487,325.8 485.2,324 479.8,322.3 476.2,325.8 472.6,325.8 474.4,329.4 470.8,329.4 469.1,331.2 470.8,331.2 470.8,329.4 470.8,331.2 474.4,331.2 474.4,333 474.4,334.8 478,338.4 488.7,338.4Z">
    <desc xmlns="https://highcharts.com/docs/mc">
      <hasc>MT.CE.BA</hasc>
      <fips>MT02</fips>
      <name>Ħal Balzan</name>
      <iso3166-2>MT-02</iso3166-2>
      <hc-group>admin1</hc-group>
      <hc-key>mt-02</hc-key>
      <hc-a2>AL</hc-a2>
      <hc-middle-lon>14.451</hc-middle-lon>
      <hc-middle-lat>35.898</hc-middle-lat>
    </desc>
    </path>
    <path id="mt-01" d="M402.8,341.9 404.6,343.7 404.6,349.1 410,354.5 413.6,354.5 415.3,356.3 427.9,356.3 427.9,358.1 433.2,359.8 442.2,358.1 445.8,356.3 447.6,358.1 452.9,352.7 458.3,352.7 461.9,350.9 467.3,350.9 479.8,350.9 479.8,352.7 485.2,352.7 487,345.5 490.5,341.9 488.7,338.4 478,338.4 474.4,334.8 474.4,333 474.4,331.2 470.8,331.2 470.8,329.4 470.8,331.2 469.1,331.2 467.3,329.4 458.3,329.4 456.5,331.2 451.2,331.2 447.6,329.4 447.6,331.2 436.8,325.8 435,322.3 413.6,322.3 410,324 410,325.8 411.8,325.8 408.2,329.4 402.8,338.4 402.8,341.9Z">
    <desc xmlns="https://highcharts.com/docs/mc">
      <hasc>MT.CE.AT</hasc>
      <fips>MT01</fips>
      <name>Ħ'Attard</name>
      <iso3166-2>MT-01</iso3166-2>
      <hc-group>admin1</hc-group>
      <hc-key>mt-01</hc-key>
      <hc-a2>AT</hc-a2>
      <hc-middle-lon>14.434</hc-middle-lon>
      <hc-middle-lat>35.892</hc-middle-lat>
    </desc>
    </path>
    <path id="mt-66" d="M413.6,354.5 410,356.3 410,359.8 408.2,361.6 408.2,365.2 411.8,372.4 411.8,379.5 415.3,381.3 417.1,384.9 420.7,386.7 427.9,388.5 431.5,392.1 436.8,393.9 442.2,393.9 447.6,397.4 456.5,395.7 463.7,390.3 465.5,390.3 469.1,384.9 478,386.7 476.2,384.9 479.8,383.1 488.7,383.1 492.3,388.5 499.5,390.3 501.3,388.5 503.1,392.1 504.9,390.3 506.6,388.5 501.3,386.7 501.3,377.7 499.5,379.5 499.5,374.2 494.1,374.2 495.9,370.6 485.2,370.6 479.8,365.2 479.8,361.6 478,359.8 481.6,354.5 485.2,354.5 485.2,352.7 479.8,352.7 479.8,350.9 467.3,350.9 461.9,350.9 458.3,352.7 452.9,352.7 447.6,358.1 445.8,356.3 442.2,358.1 433.2,359.8 427.9,358.1 427.9,356.3 415.3,356.3 413.6,354.5Z">
    <desc xmlns="https://highcharts.com/docs/mc">
      <hasc>MT.SO.ZB</hasc>
      <fips>MT65</fips>
      <name>Ħaż-Żebbuġ</name>
      <iso3166-2>MT-66</iso3166-2>
      <hc-group>admin1</hc-group>
      <hc-key>mt-66</hc-key>
      <hc-a2>AE</hc-a2>
      <hc-middle-lon>14.44</hc-middle-lon>
      <hc-middle-lat>35.873</hc-middle-lat>
    </desc>
    </path>
    <path id="mt-47" d="M538.9,440.4 538.9,442.2 533.5,442.2 533.5,444 528.1,444 531.7,449.4 533.5,449.4 533.5,452.9 540.7,458.3 542.5,456.5 549.6,456.5 549.6,454.7 556.8,449.4 563.9,451.2 569.3,456.5 571.1,452.9 576.5,447.6 551.4,426.1 551.4,427.9 546,433.2 542.5,431.5 542.5,435 538.9,440.4Z">
    <desc xmlns="https://highcharts.com/docs/mc">
      <hasc>MT.SO.SA</hasc>
      <fips>MT47</fips>
      <name>Ħal Safi</name>
      <iso3166-2>MT-47</iso3166-2>
      <hc-group>admin1</hc-group>
      <hc-key>mt-47</hc-key>
      <hc-a2>SA</hc-a2>
      <hc-middle-lon>14.492</hc-middle-lon>
      <hc-middle-lat>35.835</hc-middle-lat>
    </desc>
    </path>
    <path id="mt-23" d="M531.7,415.3 526.3,418.9 533.5,418.9 529.9,424.3 528.1,424.3 524.6,431.5 526.3,433.2 535.3,435 535.3,436.8 538.9,440.4 542.5,435 542.5,431.5 546,433.2 551.4,427.9 551.4,426.1 535.3,413.6 531.7,415.3Z">
    <desc xmlns="https://highcharts.com/docs/mc">
      <hasc>MT.SO.KI</hasc>
      <fips>MT28</fips>
      <name>Ħal Kirkop</name>
      <iso3166-2>MT-23</iso3166-2>
      <hc-group>admin1</hc-group>
      <hc-key>mt-23</hc-key>
      <hc-a2>KI</hc-a2>
      <hc-middle-lon>14.485</hc-middle-lon>
      <hc-middle-lat>35.843</hc-middle-lat>
    </desc>
    </path>
    <path id="mt-33" d="M510.2,435 512,435 512,433.2 517.4,433.2 521,431.5 524.6,431.5 528.1,424.3 529.9,424.3 533.5,418.9 526.3,418.9 531.7,415.3 531.7,413.6 528.1,411.8 522.8,411.8 519.2,410 519.2,411.8 513.8,411.8 512,415.3 504.9,415.3 499.5,418.9 492.3,422.5 490.5,420.7 490.5,417.1 492.3,417.1 495.9,413.6 492.3,413.6 485.2,420.7 485.2,426.1 478,429.7 479.8,429.7 485.2,433.2 492.3,435 504.9,435 508.4,433.2 510.2,435Z">
    <desc xmlns="https://highcharts.com/docs/mc">
      <hasc>MT.SO.MQ</hasc>
      <fips>MT22</fips>
      <name>L-Imqabba</name>
      <iso3166-2>MT-33</iso3166-2>
      <hc-group>admin1</hc-group>
      <hc-key>mt-33</hc-key>
      <hc-a2>LQ</hc-a2>
      <hc-middle-lon>14.466</hc-middle-lon>
      <hc-middle-lat>35.846</hc-middle-lat>
    </desc>
    </path>
    <path id="mt-43" d="M538.9,359.8 538.9,358.1 535.3,358.1 529.9,354.5 528.1,352.7 524.6,352.7 521,349.1 513.8,349.1 512,349.1 492.3,343.7 490.5,341.9 487,345.5 485.2,352.7 485.2,354.5 481.6,354.5 478,359.8 479.8,361.6 479.8,365.2 485.2,370.6 495.9,370.6 494.1,374.2 499.5,374.2 499.5,379.5 501.3,377.7 501.3,386.7 506.6,388.5 504.9,390.3 506.6,392.1 512,392.1 512,390.3 515.6,390.3 521,384.9 522.8,381.3 526.3,377.7 524.6,376 531.7,368.8 538.9,363.4 538.9,359.8Z">
    <desc xmlns="https://highcharts.com/docs/mc">
      <hasc>MT.SO.QO</hasc>
      <fips>MT43</fips>
      <name>Ħal Qormi</name>
      <iso3166-2>MT-43</iso3166-2>
      <hc-group>admin1</hc-group>
      <hc-key>mt-43</hc-key>
      <hc-a2>QO</hc-a2>
      <hc-middle-lon>14.468</hc-middle-lon>
      <hc-middle-lat>35.877</hc-middle-lat>
    </desc>
    </path>
    <path id="mt-11" d="M587.2,402.8 583.6,401 578.3,401 578.3,399.2 567.5,399.2 558.6,399.2 558.6,402.8 556.8,402.8 560.4,408.2 560.4,411.8 556.8,410 556.8,411.8 560.4,413.6 563.9,417.1 563.9,418.9 560.4,422.5 560.4,426.1 572.9,435 580.1,433.2 578.3,429.7 578.3,426.1 581.8,424.3 581.8,417.1 585.4,417.1 585.4,410 587.2,406.4 585.4,406.4 587.2,402.8Z">
    <desc xmlns="https://highcharts.com/docs/mc">
      <hasc>MT.SO.GU</hasc>
      <fips>MT16</fips>
      <name>Il-Gudja</name>
      <iso3166-2>MT-11</iso3166-2>
      <hc-group>admin1</hc-group>
      <hc-key>mt-11</hc-key>
      <hc-a2>IG</hc-a2>
      <hc-middle-lon>14.503</hc-middle-lon>
      <hc-middle-lat>35.849</hc-middle-lat>
    </desc>
    </path>
    <path id="mt-53" d="M578.3,388.5 569.3,390.3 563.9,392.1 565.7,393.9 563.9,395.7 567.5,399.2 578.3,399.2 578.3,401 583.6,401 587.2,402.8 589,397.4 590.8,397.4 590.8,393.9 583.6,392.1 578.3,388.5Z">
    <desc xmlns="https://highcharts.com/docs/mc">
      <hasc>MT.SO.SL</hasc>
      <fips>MT51</fips>
      <name>Santa Luċija</name>
      <iso3166-2>MT-53</iso3166-2>
      <hc-group>admin1</hc-group>
      <hc-key>mt-53</hc-key>
      <hc-a2>LS</hc-a2>
      <hc-middle-lon>14.506</hc-middle-lon>
      <hc-middle-lat>35.861</hc-middle-lat>
    </desc>
    </path>
    <path id="mt-59" d="M589,377.7 587.2,379.5 581.8,377.7 581.8,381.3 576.5,384.9 578.3,388.5 583.6,392.1 590.8,393.9 594.4,393.9 594.4,395.7 594.4,393.9 603.3,384.9 596.2,386.7 598,384.9 598,379.5 596.2,377.7 592.6,377.7 590.8,376 589,377.7Z">
    <desc xmlns="https://highcharts.com/docs/mc">
      <hasc>MT.SE.TA</hasc>
      <fips>MT58</fips>
      <name>Ħal Tarxien</name>
      <iso3166-2>MT-59</iso3166-2>
      <hc-group>admin1</hc-group>
      <hc-key>mt-59</hc-key>
      <hc-a2>TR</hc-a2>
      <hc-middle-lon>14.514</hc-middle-lon>
      <hc-middle-lat>35.867</hc-middle-lat>
    </desc>
    </path>
    <path id="mt-08" d="M603.3,384.9 606.9,383.1 612.3,383.1 614.1,381.3 614.1,367 601.5,367 599.7,365.2 592.6,365.2 592.6,367 587.2,368.8 589,370.6 589,377.7 590.8,376 592.6,377.7 596.2,377.7 598,379.5 598,384.9 596.2,386.7 603.3,384.9Z">
    <desc xmlns="https://highcharts.com/docs/mc">
      <hasc>MT.SE.FG</hasc>
      <fips>MT08</fips>
      <name>Il-Fgura</name>
      <iso3166-2>MT-08</iso3166-2>
      <hc-group>admin1</hc-group>
      <hc-key>mt-08</hc-key>
      <hc-a2>LF</hc-a2>
      <hc-middle-lon>14.52</hc-middle-lon>
      <hc-middle-lat>35.872</hc-middle-lat>
    </desc>
    </path>
    <path id="mt-67" d="M603.3,384.9 594.4,393.9 594.4,395.7 596.2,395.7 599.7,402.8 606.9,410 606.9,411.8 612.3,417.1 614.1,420.7 628.4,420.7 626.6,417.1 632,417.1 635.5,418.9 637.3,415.3 639.1,417.1 640.9,420.7 648.1,420.7 648.1,424.3 651.7,424.3 651.7,420.7 653.5,418.9 658.8,417.1 657,413.6 653.5,413.6 653.5,410 655.2,408.2 655.2,399.2 651.7,399.2 651.7,395.7 646.3,392.1 646.3,390.3 640.9,388.5 639.1,390.3 635.5,390.3 635.5,388.5 628.4,386.7 623,383.1 619.4,384.9 619.4,386.7 615.9,381.3 614.1,381.3 612.3,383.1 606.9,383.1 603.3,384.9Z">
    <desc xmlns="https://highcharts.com/docs/mc">
      <hasc>MT.SE.ZJ</hasc>
      <fips>MT67</fips>
      <name>Iż-Żejtun</name>
      <iso3166-2>MT-67</iso3166-2>
      <hc-group>admin1</hc-group>
      <hc-key>mt-67</hc-key>
      <hc-a2>IJ</hc-a2>
      <hc-middle-lon>14.534</hc-middle-lon>
      <hc-middle-lat>35.857</hc-middle-lat>
    </desc>
    </path>
    <path id="mt-17" d="M583.6,449.4 585.4,447.6 587.2,449.4 590.8,447.6 594.4,447.6 596.2,445.8 596.2,438.6 601.5,438.6 603.3,436.8 606.9,438.6 606.9,435 614.1,435 615.9,431.5 615.9,426.1 614.1,420.7 612.3,417.1 606.9,411.8 606.9,410 599.7,402.8 596.2,395.7 594.4,395.7 594.4,393.9 590.8,393.9 590.8,397.4 589,397.4 587.2,402.8 585.4,406.4 587.2,406.4 585.4,410 585.4,417.1 581.8,417.1 581.8,424.3 578.3,426.1 578.3,429.7 580.1,433.2 572.9,435 581.8,442.2 580.1,445.8 583.6,449.4Z">
    <desc xmlns="https://highcharts.com/docs/mc">
      <hasc>MT.SO.GH</hasc>
      <fips>MT15</fips>
      <name>Ħal Għaxaq</name>
      <iso3166-2>MT-17</iso3166-2>
      <hc-group>admin1</hc-group>
      <hc-key>mt-17</hc-key>
      <hc-a2>GX</hc-a2>
      <hc-middle-lon>14.516</hc-middle-lon>
      <hc-middle-lat>35.847</hc-middle-lat>
    </desc>
    </path>
    <path id="mt-25" d="M583.6,449.4 589,454.7 590.8,454.7 583.6,449.4 580.1,445.8 581.8,442.2 572.9,435 560.4,426.1 560.4,422.5 563.9,418.9 563.9,417.1 560.4,413.6 556.8,411.8 556.8,410 560.4,411.8 560.4,408.2 556.8,402.8 558.6,402.8 558.6,399.2 567.5,399.2 563.9,395.7 565.7,393.9 563.9,392.1 562.1,393.9 558.6,392.1 558.6,386.7 556.8,386.7 547.8,386.7 547.8,381.3 544.2,381.3 540.7,383.1 540.7,379.5 535.3,379.5 535.3,377.7 538.9,374.2 537.1,374.2 531.7,368.8 524.6,376 526.3,377.7 522.8,381.3 521,384.9 515.6,390.3 512,390.3 512,392.1 513.8,393.9 515.6,393.9 512,401 503.1,408.2 501.3,411.8 495.9,413.6 492.3,417.1 490.5,417.1 490.5,420.7 492.3,422.5 499.5,418.9 504.9,415.3 512,415.3 513.8,411.8 519.2,411.8 519.2,410 522.8,411.8 528.1,411.8 531.7,413.6 531.7,415.3 535.3,413.6 551.4,426.1 576.5,447.6 578.3,445.8 583.6,449.4Z">
    <desc xmlns="https://highcharts.com/docs/mc">
      <hasc>MT.SO.LU</hasc>
      <fips>MT30</fips>
      <name>Ħal Luqa</name>
      <iso3166-2>MT-25</iso3166-2>
      <hc-group>admin1</hc-group>
      <hc-key>mt-25</hc-key>
      <hc-a2>LU</hc-a2>
      <hc-middle-lon>14.486</hc-middle-lon>
      <hc-middle-lat>35.852</hc-middle-lat>
    </desc>
    </path>
    <path id="mt-35" d="M383.1,347.3 381.3,345.5 384.9,343.7 395.7,340.2 392.1,338.4 393.9,333 390.3,333 386.7,334.8 384.9,333 381.3,340.2 376,340.2 372.4,343.7 370.6,343.7 368.8,347.3 372.4,349.1 370.6,350.9 370.6,354.5 372.4,354.5 374.2,350.9 379.5,352.7 377.7,349.1 383.1,349.1 383.1,347.3Z">
    <desc xmlns="https://highcharts.com/docs/mc">
      <hasc>MT.NO.MT</hasc>
      <fips>MT24</fips>
      <name>L-Imtarfa</name>
      <iso3166-2>MT-35</iso3166-2>
      <hc-group>admin1</hc-group>
      <hc-key>mt-35</hc-key>
      <hc-a2>LT</hc-a2>
      <hc-middle-lon>14.398</hc-middle-lon>
      <hc-middle-lat>35.89</hc-middle-lat>
    </desc>
    </path>
    <path id="mt-46" d="M383.1,392.1 388.5,392.1 390.3,393.9 404.6,393.9 411.8,388.5 413.6,388.5 417.1,384.9 415.3,381.3 411.8,379.5 411.8,372.4 408.2,365.2 408.2,361.6 410,359.8 410,356.3 395.7,356.3 392.1,356.3 388.5,352.7 384.9,350.9 383.1,347.3 383.1,349.1 377.7,349.1 379.5,352.7 374.2,350.9 372.4,354.5 370.6,354.5 370.6,350.9 372.4,349.1 368.8,347.3 370.6,343.7 372.4,343.7 376,340.2 381.3,340.2 384.9,333 386.7,334.8 390.3,333 393.9,333 392.1,338.4 395.7,340.2 395.7,341.9 402.8,341.9 402.8,338.4 408.2,329.4 411.8,325.8 410,325.8 410,324 404.6,320.5 402.8,316.9 399.2,316.9 395.7,313.3 395.7,311.5 393.9,311.5 390.3,311.5 388.5,313.3 384.9,313.3 384.9,311.5 381.3,315.1 374.2,313.3 367,315.1 361.6,313.3 356.3,313.3 356.3,315.1 349.1,316.9 349.1,318.7 345.5,322.3 341.9,322.3 340.2,318.7 333,316.9 327.6,322.3 320.5,318.7 316.9,320.5 313.3,325.8 315.1,329.4 313.3,331.2 304.3,325.8 297.2,322.3 297.2,324 286.4,322.3 288.2,318.7 282.9,316.9 281.1,315.1 265,315.1 257.8,313.3 257.8,316.9 259.6,316.9 265,322.3 259.6,327.6 259.6,333 261.4,333 266.8,338.4 270.3,340.2 270.3,343.7 272.1,343.7 272.1,347.3 273.9,347.3 273.9,361.6 277.5,365.2 279.3,368.8 282.9,370.6 282.9,374.2 286.4,374.2 291.8,377.7 299,377.7 299,379.5 304.3,379.5 302.6,381.3 302.6,384.9 307.9,384.9 311.5,390.3 315.1,390.3 315.1,392.1 316.9,390.3 322.3,388.5 324,383.1 329.4,386.7 333,381.3 338.4,381.3 340.2,383.1 350.9,381.3 354.5,379.5 359.8,379.5 361.6,379.5 359.8,379.5 361.6,379.5 365.2,379.5 363.4,377.7 363.4,374.2 367,376 370.6,379.5 376,379.5 377.7,381.3 377.7,384.9 383.1,392.1Z">
    <desc xmlns="https://highcharts.com/docs/mc">
      <hasc>MT.NO.RA</hasc>
      <fips>MT45</fips>
      <name>Ir-Rabat</name>
      <iso3166-2>MT-46</iso3166-2>
      <hc-group>admin1</hc-group>
      <hc-key>mt-46</hc-key>
      <hc-a2>IB</hc-a2>
      <hc-middle-lon>14.372</hc-middle-lon>
      <hc-middle-lat>35.885</hc-middle-lat>
    </desc>
    </path>
    <path id="mt-07" d="M315.1,392.1 318.7,393.9 318.7,397.4 320.5,399.2 327.6,401 327.6,402.8 331.2,402.8 334.8,406.4 334.8,408.2 338.4,408.2 345.5,411.8 350.9,417.1 359.8,417.1 361.6,420.7 368.8,422.5 368.8,417.1 376,410 377.7,404.6 381.3,402.8 381.3,397.4 383.1,397.4 383.1,392.1 377.7,384.9 377.7,381.3 376,379.5 370.6,379.5 367,376 363.4,374.2 363.4,377.7 365.2,379.5 361.6,379.5 359.8,379.5 361.6,379.5 359.8,379.5 354.5,379.5 350.9,381.3 340.2,383.1 338.4,381.3 333,381.3 329.4,386.7 324,383.1 322.3,388.5 316.9,390.3 315.1,392.1Z">
    <desc xmlns="https://highcharts.com/docs/mc">
      <hasc>MT.NO.DI</hasc>
      <fips>MT07</fips>
      <name>Ħad-Dingli</name>
      <iso3166-2>MT-07</iso3166-2>
      <hc-group>admin1</hc-group>
      <hc-key>mt-07</hc-key>
      <hc-a2>AD</hc-a2>
      <hc-middle-lon>14.379</hc-middle-lon>
      <hc-middle-lat>35.859</hc-middle-lat>
    </desc>
    </path>
    <path id="mt-55" d="M417.1,384.9 413.6,388.5 411.8,388.5 404.6,393.9 390.3,393.9 388.5,392.1 383.1,392.1 383.1,397.4 381.3,397.4 381.3,402.8 377.7,404.6 376,410 368.8,417.1 368.8,422.5 372.4,426.1 377.7,426.1 381.3,431.5 379.5,431.5 379.5,436.8 388.5,436.8 390.3,440.4 401,440.4 401,442.2 408.2,442.2 408.2,444 415.3,444 415.3,447.6 413.6,447.6 413.6,451.2 415.3,451.2 417.1,454.7 426.1,454.7 426.1,456.5 436.8,456.5 440.4,458.3 440.4,456.5 445.8,452.9 451.2,445.8 460.1,447.6 465.5,444 460.1,440.4 461.9,436.8 465.5,436.8 465.5,431.5 470.8,435 474.4,431.5 474.4,427.9 478,429.7 485.2,426.1 485.2,420.7 492.3,413.6 495.9,413.6 501.3,411.8 503.1,408.2 512,401 515.6,393.9 513.8,393.9 512,392.1 506.6,392.1 504.9,390.3 503.1,392.1 501.3,388.5 499.5,390.3 492.3,388.5 488.7,383.1 479.8,383.1 476.2,384.9 478,386.7 469.1,384.9 465.5,390.3 463.7,390.3 456.5,395.7 447.6,397.4 442.2,393.9 436.8,393.9 431.5,392.1 427.9,388.5 420.7,386.7 417.1,384.9Z">
    <desc xmlns="https://highcharts.com/docs/mc">
      <hasc>MT.SO.SI</hasc>
      <fips>MT55</fips>
      <name>Is-Siġġiewi</name>
      <iso3166-2>MT-55</iso3166-2>
      <hc-group>admin1</hc-group>
      <hc-key>mt-55</hc-key>
      <hc-a2>IS</hc-a2>
      <hc-middle-lon>14.431</hc-middle-lon>
      <hc-middle-lat>35.847</hc-middle-lat>
    </desc>
    </path>
    <path id="mt-44" d="M488.7,465.5 488.7,463.7 492.3,461.9 492.3,460.1 499.5,452.9 499.5,449.4 501.3,447.6 504.9,449.4 508.4,445.8 504.9,442.2 504.9,438.6 510.2,438.6 512,435 510.2,435 508.4,433.2 504.9,435 492.3,435 485.2,433.2 479.8,429.7 478,429.7 474.4,427.9 474.4,431.5 470.8,435 465.5,431.5 465.5,436.8 461.9,436.8 460.1,440.4 465.5,444 460.1,447.6 451.2,445.8 445.8,452.9 440.4,456.5 440.4,458.3 449.4,458.3 451.2,461.9 452.9,461.9 454.7,465.5 456.5,465.5 456.5,461.9 458.3,463.7 463.7,463.7 463.7,465.5 467.3,467.3 469.1,465.5 472.6,469.1 479.8,469.1 479.8,470.8 487,470.8 488.7,469.1 488.7,465.5Z">
    <desc xmlns="https://highcharts.com/docs/mc">
      <hasc>MT.SO.QR</hasc>
      <fips>MT44</fips>
      <name>Il-Qrendi</name>
      <iso3166-2>MT-44</iso3166-2>
      <hc-group>admin1</hc-group>
      <hc-key>mt-44</hc-key>
      <hc-a2>ID</hc-a2>
      <hc-middle-lon>14.45</hc-middle-lon>
      <hc-middle-lat>35.831</hc-middle-lat>
    </desc>
    </path>
    <path id="mt-68" d="M406.4,528.1 408.2,526.3 401,526.3 401,528.1 406.4,528.1 M583.6,449.4 578.3,445.8 576.5,447.6 571.1,452.9 569.3,456.5 563.9,451.2 556.8,449.4 549.6,454.7 549.6,456.5 542.5,456.5 540.7,458.3 533.5,452.9 533.5,449.4 531.7,449.4 528.1,444 533.5,444 533.5,442.2 538.9,442.2 538.9,440.4 535.3,436.8 535.3,435 526.3,433.2 524.6,431.5 521,431.5 517.4,433.2 512,433.2 512,435 510.2,435 512,435 510.2,438.6 504.9,438.6 504.9,442.2 508.4,445.8 504.9,449.4 501.3,447.6 499.5,449.4 499.5,452.9 492.3,460.1 492.3,461.9 488.7,463.7 488.7,465.5 492.3,465.5 492.3,469.1 504.9,469.1 504.9,472.6 506.6,474.4 510.2,474.4 513.8,478 519.2,478 521,479.8 526.3,479.8 528.1,478 535.3,478 537.1,481.6 540.7,481.6 542.5,479.8 558.6,479.8 558.6,481.6 563.9,481.6 565.7,483.4 567.5,483.4 565.7,483.4 567.5,479.8 571.1,479.8 567.5,474.4 567.5,465.5 571.1,463.7 572.9,467.3 576.5,465.5 581.8,469.1 581.8,467.3 589,467.3 594.4,463.7 592.6,463.7 590.8,460.1 589,460.1 585.4,456.5 585.4,452.9 583.6,449.4Z">
    <desc xmlns="https://highcharts.com/docs/mc">
      <hasc>MT.SO.ZU</hasc>
      <fips>MT68</fips>
      <name>Iż-Żurrieq</name>
      <iso3166-2>MT-68</iso3166-2>
      <hc-group>admin1</hc-group>
      <hc-key>mt-68</hc-key>
      <hc-a2>II</hc-a2>
      <hc-middle-lon>14.462</hc-middle-lon>
      <hc-middle-lat>35.814</hc-middle-lat>
    </desc>
    </path>
    <path id="mt-05" d="M615.9,426.1 615.9,431.5 614.1,435 606.9,435 606.9,438.6 603.3,436.8 601.5,438.6 596.2,438.6 596.2,445.8 594.4,447.6 590.8,447.6 587.2,449.4 585.4,447.6 583.6,449.4 590.8,454.7 589,454.7 583.6,449.4 585.4,452.9 585.4,456.5 589,460.1 590.8,460.1 592.6,463.7 594.4,463.7 589,467.3 581.8,467.3 581.8,469.1 576.5,465.5 572.9,467.3 571.1,463.7 567.5,465.5 567.5,474.4 571.1,479.8 567.5,479.8 565.7,483.4 567.5,483.4 572.9,487 576.5,487 576.5,488.7 583.6,492.3 592.6,492.3 594.4,494.1 599.7,492.3 624.8,492.3 624.8,490.5 632,490.5 635.5,485.2 642.7,485.2 644.5,479.8 646.3,479.8 655.2,472.6 649.9,474.4 648.1,478 640.9,479.8 646.3,476.2 649.9,470.8 646.3,469.1 642.7,465.5 637.3,465.5 635.5,467.3 644.5,474.4 640.9,476.2 626.6,465.5 624.8,465.5 621.2,469.1 619.4,463.7 617.6,461.9 621.2,460.1 621.2,458.3 626.6,456.5 623,451.2 619.4,451.2 621.2,447.6 628.4,447.6 630.2,445.8 633.8,445.8 639.1,451.2 640.9,451.2 642.7,449.4 637.3,442.2 637.3,438.6 632,436.8 630.2,435 628.4,429.7 621.2,429.7 615.9,426.1Z">
    <desc xmlns="https://highcharts.com/docs/mc">
      <hasc>MT.SO.BZ</hasc>
      <fips>MT05</fips>
      <name>Birżebbuġa</name>
      <iso3166-2>MT-05</iso3166-2>
      <hc-group>admin1</hc-group>
      <hc-key>mt-05</hc-key>
      <hc-a2>BI</hc-a2>
      <hc-middle-lon>14.525</hc-middle-lon>
      <hc-middle-lat>35.825</hc-middle-lat>
    </desc>
    </path>
    <path id="mt-28" d="M615.9,426.1 621.2,429.7 628.4,429.7 630.2,435 632,436.8 637.3,438.6 637.3,442.2 642.7,449.4 640.9,451.2 648.1,451.2 648.1,447.6 649.9,445.8 646.3,445.8 648.1,442.2 646.3,440.4 644.5,435 646.3,431.5 649.9,431.5 651.7,435 655.2,435 655.2,436.8 658.8,442.2 664.2,447.6 664.2,452.9 667.8,454.7 667.8,458.3 666,461.9 669.6,463.7 671.4,467.3 671.4,470.8 676.7,469.1 676.7,463.7 673.1,461.9 678.5,461.9 678.5,458.3 680.3,456.5 680.3,452.9 676.7,451.2 678.5,445.8 680.3,445.8 680.3,442.2 674.9,442.2 671.4,438.6 674.9,435 678.5,435 680.3,438.6 682.1,438.6 674.9,431.5 680.3,427.9 687.5,429.7 687.5,433.2 692.8,435 696.4,431.5 694.6,431.5 692.8,427.9 689.3,427.9 691,426.1 687.5,426.1 685.7,422.5 682.1,426.1 676.7,422.5 669.6,422.5 667.8,420.7 662.4,420.7 660.6,417.1 658.8,417.1 653.5,418.9 651.7,420.7 651.7,424.3 648.1,424.3 648.1,420.7 640.9,420.7 639.1,417.1 637.3,415.3 635.5,418.9 632,417.1 626.6,417.1 628.4,420.7 614.1,420.7 615.9,426.1Z">
    <desc xmlns="https://highcharts.com/docs/mc">
      <hasc>MT.SE.MA</hasc>
      <fips>MT33</fips>
      <name>Marsaxlokk</name>
      <iso3166-2>MT-28</iso3166-2>
      <hc-group>admin1</hc-group>
      <hc-key>mt-28</hc-key>
      <hc-a2>MA</hc-a2>
      <hc-middle-lon>14.55</hc-middle-lon>
      <hc-middle-lat>35.835</hc-middle-lat>
    </desc>
    </path>
    <path id="mt-27" d="M658.8,417.1 660.6,417.1 662.4,420.7 667.8,420.7 669.6,422.5 676.7,422.5 682.1,426.1 685.7,422.5 689.3,420.7 689.3,418.9 694.6,415.3 682.1,415.3 682.1,413.6 678.5,411.8 678.5,408.2 680.3,406.4 687.5,406.4 689.3,402.8 692.8,402.8 696.4,397.4 700,395.7 698.2,392.1 694.6,392.1 692.8,388.5 687.5,388.5 685.7,390.3 678.5,390.3 678.5,388.5 683.9,388.5 687.5,384.9 691,386.7 692.8,384.9 700,384.9 696.4,379.5 692.8,377.7 692.8,374.2 689.3,374.2 689.3,372.4 685.7,370.6 685.7,368.8 682.1,367 682.1,365.2 680.3,367 671.4,372.4 671.4,374.2 667.8,377.7 666,377.7 664.2,381.3 662.4,381.3 658.8,386.7 649.9,386.7 648.1,390.3 646.3,390.3 646.3,392.1 651.7,395.7 651.7,399.2 655.2,399.2 655.2,408.2 653.5,410 653.5,413.6 657,413.6 658.8,417.1Z">
    <desc xmlns="https://highcharts.com/docs/mc">
      <hasc>MT.SE.MS</hasc>
      <fips>MT32</fips>
      <name>Wied il-Għajn</name>
      <iso3166-2>MT-27</iso3166-2>
      <hc-group>admin1</hc-group>
      <hc-key>mt-27</hc-key>
      <hc-a2>WI</hc-a2>
      <hc-middle-lon>14.561</hc-middle-lon>
      <hc-middle-lat>35.861</hc-middle-lat>
    </desc>
    </path>
    <path id="mt-64" d="M614.1,381.3 615.9,381.3 619.4,386.7 619.4,384.9 623,383.1 628.4,386.7 635.5,388.5 635.5,390.3 639.1,390.3 640.9,388.5 646.3,390.3 648.1,390.3 649.9,386.7 658.8,386.7 662.4,381.3 664.2,381.3 666,377.7 667.8,377.7 671.4,374.2 671.4,372.4 680.3,367 682.1,365.2 674.9,359.8 667.8,359.8 667.8,358.1 667.8,359.8 664.2,363.4 660.6,361.6 655.2,361.6 653.5,359.8 646.3,358.1 642.7,352.7 639.1,350.9 633.8,349.1 630.2,350.9 626.6,349.1 624.8,352.7 623,350.9 621.2,354.5 619.4,356.3 621.2,358.1 617.6,361.6 619.4,363.4 615.9,363.4 614.1,367 614.1,381.3Z">
    <desc xmlns="https://highcharts.com/docs/mc">
      <hasc>MT.SE.ZA</hasc>
      <fips>MT64</fips>
      <name>Ħaż-Żabbar</name>
      <iso3166-2>MT-64</iso3166-2>
      <hc-group>admin1</hc-group>
      <hc-key>mt-64</hc-key>
      <hc-a2>AA</hc-a2>
      <hc-middle-lon>14.546</hc-middle-lon>
      <hc-middle-lat>35.876</hc-middle-lat>
    </desc>
    </path>
    <path id="mt-63" d="M639.1,350.9 642.7,352.7 646.3,358.1 653.5,359.8 655.2,361.6 660.6,361.6 664.2,363.4 667.8,359.8 667.8,358.1 666,358.1 666,354.5 658.8,352.7 658.8,347.3 653.5,347.3 649.9,345.5 646.3,341.9 640.9,347.3 639.1,347.3 639.1,350.9Z">
    <desc xmlns="https://highcharts.com/docs/mc">
      <hasc>MT.SE.XG</hasc>
      <fips>MT63</fips>
      <name>Ix-Xgħajra</name>
      <iso3166-2>MT-63</iso3166-2>
      <hc-group>admin1</hc-group>
      <hc-key>mt-63</hc-key>
      <hc-a2>XX</hc-a2>
      <hc-middle-lon>14.549</hc-middle-lon>
      <hc-middle-lat>35.885</hc-middle-lat>
    </desc>
    </path>
    <path id="mt-21" d="M639.1,350.9 639.1,347.3 640.9,347.3 646.3,341.9 635.5,334.8 630.2,336.6 626.6,333 621.2,333 619.4,329.4 614.1,331.2 612.3,327.6 606.9,327.6 606.9,329.4 612.3,331.2 614.1,336.6 615.9,338.4 608.7,336.6 608.7,341.9 612.3,343.7 612.3,347.3 610.5,347.3 612.3,350.9 617.6,349.1 617.6,350.9 621.2,354.5 623,350.9 624.8,352.7 626.6,349.1 630.2,350.9 633.8,349.1 639.1,350.9Z">
    <desc xmlns="https://highcharts.com/docs/mc">
      <hasc>MT.SE.KA</hasc>
      <fips>MT26</fips>
      <name>Il-Kalkara</name>
      <iso3166-2>MT-21</iso3166-2>
      <hc-group>admin1</hc-group>
      <hc-key>mt-21</hc-key>
      <hc-a2>IK</hc-a2>
      <hc-middle-lon>14.534</hc-middle-lon>
      <hc-middle-lat>35.892</hc-middle-lat>
    </desc>
    </path>
    <path id="mt-06" d="M614.1,367 615.9,363.4 619.4,363.4 617.6,361.6 617.6,359.8 610.5,358.1 610.5,354.5 608.7,352.7 603.3,352.7 601.5,354.5 599.7,354.5 594.4,347.3 590.8,345.5 594.4,349.1 594.4,352.7 598,352.7 596.2,359.8 594.4,359.8 594.4,356.3 589,350.9 587.2,350.9 592.6,356.3 590.8,358.1 590.8,363.4 592.6,365.2 592.6,367 592.6,365.2 599.7,365.2 601.5,367 614.1,367Z">
    <desc xmlns="https://highcharts.com/docs/mc">
      <hasc>MT.SE.BO</hasc>
      <fips>MT06</fips>
      <name>Bormla</name>
      <iso3166-2>MT-06</iso3166-2>
      <hc-group>admin1</hc-group>
      <hc-key>mt-06</hc-key>
      <hc-a2>BO</hc-a2>
      <hc-middle-lon>14.521</hc-middle-lon>
      <hc-middle-lat>35.883</hc-middle-lat>
    </desc>
    </path>
    <path id="mt-39" d="M592.6,367 592.6,365.2 590.8,363.4 590.8,358.1 592.6,356.3 587.2,350.9 587.2,349.1 578.3,352.7 571.1,358.1 572.9,363.4 569.3,365.2 569.3,368.8 563.9,372.4 563.9,376 562.1,376 562.1,381.3 558.6,381.3 558.6,384.9 556.8,386.7 558.6,386.7 558.6,392.1 562.1,393.9 563.9,392.1 569.3,390.3 578.3,388.5 576.5,384.9 581.8,381.3 581.8,377.7 587.2,379.5 589,377.7 589,370.6 587.2,368.8 592.6,367Z">
    <desc xmlns="https://highcharts.com/docs/mc">
      <hasc>MT.SE.PA</hasc>
      <fips>MT39</fips>
      <name>Raħal Ġdid</name>
      <iso3166-2>MT-39</iso3166-2>
      <hc-group>admin1</hc-group>
      <hc-key>mt-39</hc-key>
      <hc-a2>RA</hc-a2>
      <hc-middle-lon>14.505</hc-middle-lon>
      <hc-middle-lat>35.874</hc-middle-lat>
    </desc>
    </path>
    <path id="mt-20" d="M601.5,354.5 601.5,350.9 596.2,345.5 596.2,343.7 590.8,341.9 590.8,345.5 594.4,347.3 599.7,354.5 601.5,354.5Z">
    <desc xmlns="https://highcharts.com/docs/mc">
      <hasc>MT.SE.IS</hasc>
      <fips>MT25</fips>
      <name>L-Isla</name>
      <iso3166-2>MT-20</iso3166-2>
      <hc-group>admin1</hc-group>
      <hc-key>mt-20</hc-key>
      <hc-a2>LL</hc-a2>
      <hc-middle-lon>14.517</hc-middle-lon>
      <hc-middle-lat>35.888</hc-middle-lat>
    </desc>
    </path>
    <path id="mt-26" d="M538.9,358.1 538.9,359.8 538.9,363.4 531.7,368.8 537.1,374.2 538.9,374.2 535.3,377.7 535.3,379.5 540.7,379.5 540.7,383.1 544.2,381.3 547.8,381.3 547.8,386.7 556.8,386.7 558.6,386.7 556.8,386.7 558.6,384.9 558.6,381.3 562.1,381.3 562.1,376 563.9,376 563.9,372.4 569.3,368.8 569.3,365.2 572.9,363.4 567.5,363.4 562.1,361.6 558.6,361.6 560.4,359.8 569.3,359.8 565.7,358.1 565.7,354.5 562.1,354.5 562.1,352.7 569.3,352.7 576.5,347.3 572.9,347.3 567.5,350.9 562.1,347.3 562.1,349.1 553.2,352.7 547.8,352.7 547.8,354.5 538.9,358.1Z">
    <desc xmlns="https://highcharts.com/docs/mc">
      <hasc>MT.SE.MX</hasc>
      <fips>MT31</fips>
      <name>Il-Marsa</name>
      <iso3166-2>MT-26</iso3166-2>
      <hc-group>admin1</hc-group>
      <hc-key>mt-26</hc-key>
      <hc-a2>LR</hc-a2>
      <hc-middle-lon>14.494</hc-middle-lon>
      <hc-middle-lat>35.877</hc-middle-lat>
    </desc>
    </path>
    <path id="mt-60" d="M576.5,327.6 576.5,333 580.1,333 580.1,336.6 587.2,336.6 590.8,336.6 590.8,333 594.4,331.2 599.7,331.2 599.7,324 603.3,322.3 598,318.7 596.2,322.3 589,322.3 585.4,324 580.1,324 580.1,325.8 576.5,327.6Z">
    <desc xmlns="https://highcharts.com/docs/mc">
      <hasc>MT.SE.VA</hasc>
      <fips>MT60</fips>
      <name>Valletta</name>
      <iso3166-2>MT-60</iso3166-2>
      <hc-group>admin1</hc-group>
      <hc-key>mt-60</hc-key>
      <hc-a2>VA</hc-a2>
      <hc-middle-lon>14.514</hc-middle-lon>
      <hc-middle-lat>35.898</hc-middle-lat>
    </desc>
    </path>
    <path id="mt-09" d="M560.4,341.9 565.7,343.7 565.7,345.5 562.1,347.3 567.5,350.9 572.9,347.3 576.5,347.3 587.2,336.6 580.1,336.6 580.1,333 576.5,333 576.5,327.6 572.9,331.2 569.3,331.2 569.3,333 563.9,336.6 560.4,340.2 560.4,341.9Z">
    <desc xmlns="https://highcharts.com/docs/mc">
      <hasc>MT.SE.FL</hasc>
      <fips>MT09</fips>
      <name>Il-Furjana</name>
      <iso3166-2>MT-09</iso3166-2>
      <hc-group>admin1</hc-group>
      <hc-key>mt-09</hc-key>
      <hc-a2>LJ</hc-a2>
      <hc-middle-lon>14.505</hc-middle-lon>
      <hc-middle-lat>35.892</hc-middle-lat>
    </desc>
    </path>
    <path id="mt-41" d="M560.4,341.9 560.4,340.2 563.9,336.6 560.4,338.4 562.1,333 553.2,333 549.6,334.8 549.6,338.4 547.8,341.9 549.6,341.9 547.8,345.5 556.8,345.5 560.4,341.9Z">
    <desc xmlns="https://highcharts.com/docs/mc">
      <hasc>MT.CE.PI</hasc>
      <fips>MT41</fips>
      <name>Tal-Pietà</name>
      <iso3166-2>MT-41</iso3166-2>
      <hc-group>admin1</hc-group>
      <hc-key>mt-41</hc-key>
      <hc-a2>TL</hc-a2>
      <hc-middle-lon>14.495</hc-middle-lon>
      <hc-middle-lat>35.893</hc-middle-lat>
    </desc>
    </path>
    <path id="mt-58" d="M553.2,331.2 556.8,329.4 563.9,329.4 565.7,331.2 567.5,325.8 565.7,324 560.4,324 553.2,322.3 551.4,324 549.6,327.6 553.2,327.6 553.2,331.2Z">
    <desc xmlns="https://highcharts.com/docs/mc">
      <hasc>MT.CE.TA</hasc>
      <fips>MT59</fips>
      <name>Ta' Xbiex</name>
      <iso3166-2>MT-58</iso3166-2>
      <hc-group>admin1</hc-group>
      <hc-key>mt-58</hc-key>
      <hc-a2>TX</hc-a2>
      <hc-middle-lon>14.496</hc-middle-lon>
      <hc-middle-lat>35.9</hc-middle-lat>
    </desc>
    </path>
    <path id="mt-34" d="M542.5,318.7 521,318.7 519.2,320.5 519.2,324 526.3,329.4 521,333 522.8,333 524.6,336.6 535.3,336.6 535.3,340.2 538.9,340.2 546,340.2 547.8,341.9 549.6,338.4 549.6,334.8 551.4,331.2 553.2,331.2 553.2,327.6 549.6,327.6 551.4,324 544.2,324 546,320.5 542.5,318.7Z">
    <desc xmlns="https://highcharts.com/docs/mc">
      <hasc>MT.CE.MS</hasc>
      <fips>MT23</fips>
      <name>L-Imsida</name>
      <iso3166-2>MT-34</iso3166-2>
      <hc-group>admin1</hc-group>
      <hc-key>mt-34</hc-key>
      <hc-a2>LD</hc-a2>
      <hc-middle-lon>14.484</hc-middle-lon>
      <hc-middle-lat>35.898</hc-middle-lat>
    </desc>
    </path>
    <path id="mt-04" d="M490.5,341.9 492.3,343.7 512,349.1 513.8,349.1 517.4,345.5 517.4,340.2 519.2,334.8 524.6,336.6 522.8,333 521,333 526.3,329.4 519.2,324 519.2,320.5 513.8,322.3 513.8,318.7 512,320.5 508.4,320.5 506.6,318.7 499.5,316.9 492.3,320.5 487,320.5 479.8,322.3 485.2,324 487,325.8 487,331.2 488.7,331.2 488.7,338.4 490.5,341.9Z">
    <desc xmlns="https://highcharts.com/docs/mc">
      <hasc>MT.CE.BI</hasc>
      <fips>MT04</fips>
      <name>Birkirkara</name>
      <iso3166-2>MT-04</iso3166-2>
      <hc-group>admin1</hc-group>
      <hc-key>mt-04</hc-key>
      <hc-a2>BR</hc-a2>
      <hc-middle-lon>14.465</hc-middle-lon>
      <hc-middle-lat>35.896</hc-middle-lat>
    </desc>
    </path>
    <path id="mt-19" d="M499.5,304.3 495.9,302.6 495.9,299 490.5,297.2 488.7,295.4 479.8,295.4 479.8,297.2 474.4,299 474.4,307.9 476.2,307.9 476.2,311.5 472.6,315.1 474.4,316.9 478,318.7 479.8,322.3 487,320.5 492.3,320.5 499.5,316.9 497.7,313.3 497.7,309.7 499.5,307.9 499.5,304.3Z">
    <desc xmlns="https://highcharts.com/docs/mc">
      <hasc>MT.CE.IK</hasc>
      <fips>MT19</fips>
      <name>L-Iklin</name>
      <iso3166-2>MT-19</iso3166-2>
      <hc-group>admin1</hc-group>
      <hc-key>mt-19</hc-key>
      <hc-a2>LK</hc-a2>
      <hc-middle-lon>14.455</hc-middle-lon>
      <hc-middle-lat>35.91</hc-middle-lat>
    </desc>
    </path>
    <path id="mt-49" d="M537.1,297.2 533.5,295.4 526.3,299 522.8,302.6 513.8,302.6 510.2,299 501.3,299 499.5,299 499.5,304.3 499.5,307.9 497.7,309.7 497.7,313.3 499.5,316.9 506.6,318.7 508.4,320.5 512,320.5 513.8,318.7 513.8,322.3 519.2,320.5 521,318.7 542.5,318.7 544.2,315.1 547.8,313.3 547.8,309.7 546,309.7 542.5,306.1 535.3,304.3 535.3,299 537.1,297.2Z">
    <desc xmlns="https://highcharts.com/docs/mc">
      <hasc>MT.CE.SN</hasc>
      <fips>MT48</fips>
      <name>San Ġwann</name>
      <iso3166-2>MT-49</iso3166-2>
      <hc-group>admin1</hc-group>
      <hc-key>mt-49</hc-key>
      <hc-a2>SN</hc-a2>
      <hc-middle-lon>14.476</hc-middle-lon>
      <hc-middle-lat>35.91</hc-middle-lat>
    </desc>
    </path>
    <path id="mt-12" d="M558.6,318.7 560.4,320.5 567.5,320.5 571.1,324 574.7,324 576.5,320.5 580.1,318.7 578.3,316.9 562.1,316.9 558.6,318.7 M551.4,324 553.2,322.3 560.4,324 558.6,322.3 558.6,318.7 560.4,315.1 563.9,313.3 563.9,311.5 560.4,309.7 555,309.7 555,307.9 553.2,309.7 547.8,309.7 546,309.7 547.8,309.7 547.8,313.3 544.2,315.1 542.5,318.7 546,320.5 544.2,324 551.4,324Z">
    <desc xmlns="https://highcharts.com/docs/mc">
      <hasc>MT.CE.GZ</hasc>
      <fips>MT17</fips>
      <name>Il-Gżira</name>
      <iso3166-2>MT-12</iso3166-2>
      <hc-group>admin1</hc-group>
      <hc-key>mt-12</hc-key>
      <hc-a2>GI</hc-a2>
      <hc-middle-lon>14.497</hc-middle-lon>
      <hc-middle-lat>35.905</hc-middle-lat>
    </desc>
    </path>
    <path id="mt-48" d="M558.6,299 553.2,299 555,295.4 547.8,291.8 556.8,291.8 555,286.4 558.6,288.2 553.2,281.1 556.8,281.1 555,279.3 558.6,279.3 558.6,277.5 555,277.5 555,279.3 551.4,277.5 549.6,279.3 546,279.3 544.2,281.1 544.2,277.5 547.8,277.5 553.2,273.9 547.8,270.3 547.8,272.1 547.8,275.7 542.5,275.7 537.1,279.3 535.3,282.9 540.7,281.1 542.5,282.9 542.5,293.6 540.7,297.2 537.1,297.2 535.3,299 535.3,304.3 542.5,306.1 546,309.7 547.8,309.7 553.2,309.7 555,307.9 553.2,306.1 556.8,302.6 558.6,302.6 560.4,299 558.6,299Z">
    <desc xmlns="https://highcharts.com/docs/mc">
      <hasc>MT.CE.SG</hasc>
      <fips>MT49</fips>
      <name>San Ġiljan</name>
      <iso3166-2>MT-48</iso3166-2>
      <hc-group>admin1</hc-group>
      <hc-key>mt-48</hc-key>
      <hc-a2>AN</hc-a2>
      <hc-middle-lon>14.49</hc-middle-lon>
      <hc-middle-lat>35.92</hc-middle-lat>
    </desc>
    </path>
    <path id="mt-40" d="M535.3,282.9 537.1,279.3 542.5,275.7 547.8,275.7 547.8,272.1 546,272.1 542.5,268.5 540.7,268.5 533.5,265 531.7,263.2 533.5,261.4 529.9,259.6 524.6,259.6 524.6,257.8 521,257.8 519.2,259.6 513.8,261.4 510.2,259.6 501.3,259.6 501.3,263.2 499.5,265 504.9,266.8 515.6,277.5 517.4,281.1 517.4,284.7 529.9,284.7 535.3,282.9Z">
    <desc xmlns="https://highcharts.com/docs/mc">
      <hasc>MT.NO.PE</hasc>
      <fips>MT40</fips>
      <name>Pembroke</name>
      <iso3166-2>MT-40</iso3166-2>
      <hc-group>admin1</hc-group>
      <hc-key>mt-40</hc-key>
      <hc-a2>PE</hc-a2>
      <hc-middle-lon>14.476</hc-middle-lon>
      <hc-middle-lat>35.931</hc-middle-lat>
    </desc>
    </path>
    <path id="mt-57" d="M537.1,297.2 540.7,297.2 542.5,293.6 542.5,282.9 540.7,281.1 535.3,282.9 529.9,284.7 517.4,284.7 517.4,281.1 515.6,277.5 504.9,266.8 499.5,265 494.1,266.8 494.1,268.5 490.5,268.5 485.2,266.8 485.2,270.3 488.7,272.1 492.3,272.1 495.9,277.5 495.9,281.1 494.1,282.9 495.9,286.4 497.7,286.4 499.5,290 503.1,290 504.9,293.6 501.3,299 510.2,299 513.8,302.6 522.8,302.6 526.3,299 533.5,295.4 537.1,297.2Z">
    <desc xmlns="https://highcharts.com/docs/mc">
      <hasc>MT.NO.SW</hasc>
      <fips>MT57</fips>
      <name>Is-Swieqi</name>
      <iso3166-2>MT-57</iso3166-2>
      <hc-group>admin1</hc-group>
      <hc-key>mt-57</hc-key>
      <hc-a2>SS</hc-a2>
      <hc-middle-lon>14.471</hc-middle-lon>
      <hc-middle-lat>35.923</hc-middle-lat>
    </desc>
    </path>
    <path id="mt-15" d="M501.3,299 504.9,293.6 503.1,290 499.5,290 497.7,286.4 495.9,286.4 494.1,282.9 495.9,281.1 495.9,277.5 492.3,272.1 488.7,272.1 485.2,270.3 485.2,266.8 483.4,268.5 478,268.5 472.6,273.9 474.4,275.7 474.4,286.4 472.6,286.4 472.6,290 478,295.4 479.8,295.4 479.8,297.2 479.8,295.4 488.7,295.4 490.5,297.2 495.9,299 495.9,302.6 499.5,304.3 499.5,299 501.3,299Z">
    <desc xmlns="https://highcharts.com/docs/mc">
      <hasc>MT.NO.GH</hasc>
      <fips>MT13</fips>
      <name>Ħal Għargħur</name>
      <iso3166-2>MT-15</iso3166-2>
      <hc-group>admin1</hc-group>
      <hc-key>mt-15</hc-key>
      <hc-a2>GR</hc-a2>
      <hc-middle-lon>14.456</hc-middle-lon>
      <hc-middle-lat>35.922</hc-middle-lat>
    </desc>
    </path>
    <path id="mt-24" d="M447.6,329.4 451.2,331.2 456.5,331.2 458.3,329.4 467.3,329.4 469.1,331.2 470.8,329.4 474.4,329.4 472.6,325.8 476.2,325.8 479.8,322.3 478,318.7 474.4,316.9 454.7,316.9 451.2,318.7 447.6,329.4Z">
    <desc xmlns="https://highcharts.com/docs/mc">
      <hasc>MT.CE.LI</hasc>
      <fips>MT29</fips>
      <name>Ħal Lija</name>
      <iso3166-2>MT-24</iso3166-2>
      <hc-group>admin1</hc-group>
      <hc-key>mt-24</hc-key>
      <hc-a2>JA</hc-a2>
      <hc-middle-lon>14.443</hc-middle-lon>
      <hc-middle-lat>35.901</hc-middle-lat>
    </desc>
    </path>
    <path id="mt-32" d="M447.6,329.4 451.2,318.7 454.7,316.9 452.9,313.3 456.5,311.5 452.9,307.9 449.4,307.9 449.4,304.3 447.6,304.3 445.8,300.8 447.6,300.8 447.6,297.2 445.8,297.2 447.6,297.2 445.8,297.2 445.8,291.8 440.4,286.4 436.8,286.4 435,282.9 431.5,282.9 431.5,286.4 420.7,291.8 415.3,282.9 415.3,281.1 410,281.1 401,273.9 384.9,273.9 383.1,275.7 379.5,275.7 377.7,273.9 377.7,277.5 374.2,279.3 386.7,279.3 388.5,282.9 392.1,282.9 401,291.8 408.2,295.4 406.4,295.4 401,299 395.7,300.8 393.9,304.3 390.3,307.9 393.9,311.5 395.7,311.5 395.7,313.3 399.2,316.9 402.8,316.9 404.6,320.5 410,324 410,325.8 410,324 413.6,322.3 435,322.3 436.8,325.8 447.6,331.2 447.6,329.4Z">
    <desc xmlns="https://highcharts.com/docs/mc">
      <hasc>MT.NO.MO</hasc>
      <fips>MT35</fips>
      <name>Il-Mosta</name>
      <iso3166-2>MT-32</iso3166-2>
      <hc-group>admin1</hc-group>
      <hc-key>mt-32</hc-key>
      <hc-a2>IO</hc-a2>
      <hc-middle-lon>14.416</hc-middle-lon>
      <hc-middle-lat>35.913</hc-middle-lat>
    </desc>
    </path>
    <path id="mt-38" d="M499.5,265 501.3,263.2 501.3,259.6 497.7,259.6 495.9,257.8 492.3,257.8 492.3,254.2 490.5,252.4 485.2,254.2 485.2,241.7 481.6,239.9 479.8,241.7 479.8,247.1 478,248.8 474.4,245.3 472.6,241.7 470.8,241.7 465.5,232.7 458.3,232.7 454.7,229.2 449.4,229.2 445.8,227.4 444,229.2 444,232.7 436.8,238.1 433.2,238.1 433.2,239.9 429.7,238.1 426.1,243.5 424.3,245.3 424.3,248.8 422.5,248.8 420.7,254.2 422.5,261.4 427.9,266.8 427.9,270.3 424.3,270.3 422.5,273.9 424.3,273.9 422.5,273.9 424.3,273.9 426.1,277.5 427.9,277.5 431.5,282.9 435,282.9 436.8,286.4 440.4,286.4 445.8,291.8 445.8,297.2 447.6,297.2 445.8,297.2 447.6,297.2 447.6,300.8 445.8,300.8 447.6,304.3 449.4,304.3 449.4,307.9 452.9,307.9 456.5,311.5 452.9,313.3 454.7,316.9 474.4,316.9 472.6,315.1 476.2,311.5 476.2,307.9 474.4,307.9 474.4,299 479.8,297.2 479.8,295.4 478,295.4 472.6,290 472.6,286.4 474.4,286.4 474.4,275.7 472.6,273.9 478,268.5 483.4,268.5 485.2,266.8 490.5,268.5 494.1,268.5 494.1,266.8 499.5,265Z">
    <desc xmlns="https://highcharts.com/docs/mc">
      <hasc>MT.NO.NA</hasc>
      <fips>MT38</fips>
      <name>In-Naxxar</name>
      <iso3166-2>MT-38</iso3166-2>
      <hc-group>admin1</hc-group>
      <hc-key>mt-38</hc-key>
      <hc-a2>NN</hc-a2>
      <hc-middle-lon>14.442</hc-middle-lon>
      <hc-middle-lat>35.93</hc-middle-lat>
    </desc>
    </path>
    <path id="mt-51" d="M431.5,282.9 427.9,277.5 426.1,277.5 424.3,273.9 422.5,273.9 424.3,273.9 422.5,273.9 424.3,270.3 427.9,270.3 427.9,266.8 422.5,261.4 420.7,254.2 422.5,248.8 424.3,248.8 424.3,245.3 426.1,243.5 426.1,239.9 429.7,238.1 431.5,234.5 431.5,230.9 429.7,230.9 429.7,227.4 431.5,227.4 433.2,223.8 433.2,218.4 426.1,220.2 426.1,222 422.5,222 420.7,223.8 417.1,223.8 417.1,229.2 413.6,229.2 413.6,230.9 402.8,230.9 402.8,236.3 397.4,236.3 397.4,238.1 393.9,236.3 390.3,236.3 388.5,238.1 386.7,234.5 383.1,236.3 383.1,238.1 379.5,238.1 377.7,239.9 372.4,239.9 368.8,243.5 363.4,243.5 361.6,245.3 356.3,243.5 358.1,239.9 361.6,236.3 367,234.5 367,230.9 370.6,229.2 370.6,225.6 368.8,222 365.2,222 363.4,227.4 356.3,229.2 349.1,232.7 347.3,232.7 341.9,236.3 334.8,236.3 331.2,239.9 333,241.7 333,250.6 338.4,256 341.9,252.4 341.9,256 347.3,256 350.9,257.8 350.9,261.4 343.7,268.5 343.7,275.7 349.1,277.5 354.5,273.9 356.3,277.5 361.6,277.5 365.2,279.3 367,284.7 370.6,288.2 370.6,291.8 372.4,293.6 370.6,295.4 379.5,304.3 383.1,304.3 390.3,307.9 393.9,304.3 395.7,300.8 401,299 406.4,295.4 408.2,295.4 401,291.8 392.1,282.9 388.5,282.9 386.7,279.3 374.2,279.3 377.7,277.5 377.7,273.9 379.5,275.7 383.1,275.7 384.9,273.9 401,273.9 410,281.1 415.3,281.1 415.3,282.9 420.7,291.8 431.5,286.4 431.5,282.9Z">
    <desc xmlns="https://highcharts.com/docs/mc">
      <hasc>MT.NO.SP</hasc>
      <fips>MT52</fips>
      <name>San Pawl il-Baħar</name>
      <iso3166-2>MT-51</iso3166-2>
      <hc-group>admin1</hc-group>
      <hc-key>mt-51</hc-key>
      <hc-a2>SP</hc-a2>
      <hc-middle-lon>14.399</hc-middle-lon>
      <hc-middle-lat>35.935</hc-middle-lat>
    </desc>
    </path>
  </g>
  <text x="50%" y="720" text-anchor="middle" font-family="Verdana" font-size="10px">Copyright (c) 2025 Highsoft AS, Based on data from OpenStreetMap</text>
</svg>