<?xml version="1.0" encoding="utf-8" standalone="no"?>
<!DOCTYPE svg PUBLIC "-//W3C//DTD SVG 1.1//EN" "http://www.w3.org/Graphics/SVG/1.1/DTD/svg11.dtd">

<svg version="1.1" height="700pt" width="700pt" xmlns="http://www.w3.org/2000/svg" xmlns:xlink="http://www.w3.org/1999/xlink">
<desc>
Map version: 1.1.3
Copyright (c) 2020 Highsoft AS, Based on data from The United States Census Bureau
</desc>
<title>Alaska congressional districts</title>
<g id="special">

<g id="US.AK">
  <desc xmlns="http://www.highcharts.com/svg/namespace">
    <labelrank>0</labelrank>
    <hasc>US.AK</hasc>
    <alt-name>AK|Alaska</alt-name>
    <woe-id>2347560</woe-id>
    <subregion>Pacific</subregion>
    <fips>US02</fips>
    <postal-code>AK</postal-code>
    <name>Alaska</name>
    <country>United States of America</country>
    <type-en>State</type-en>
    <region>West</region>
    <longitude>-151.604</longitude>
    <woe-name>Alaska</woe-name>
    <latitude>65.3609</latitude>
    <woe-label>Alaska, US, United States</woe-label>
    <type>State</type>
    <hc-key>us-ak</hc-key>
    <hc-a2>AL</hc-a2>
  </desc>
</g>

<g id="US">
  <desc xmlns="http://www.highcharts.com/svg/namespace">
    <name>United States of America</name>
    <labelrank>2</labelrank>
    <country-abbrev>U.S.A.</country-abbrev>
    <subregion>Northern America</subregion>
    <region-wb>North America</region-wb>
    <iso-a3>USA</iso-a3>
    <iso-a2>US</iso-a2>
    <woe-id>23424977</woe-id>
    <continent>North America</continent>
    <hc-key>us</hc-key>
    <hc-a2>US</hc-a2>
  </desc>
</g>

<path fill="#CEE3F5" stroke="#6E6E6E" stroke-width="0.4" id="US.AK.00" d="M439.4,253.0 L439.6,254.6 L436.7,254.8 L438.1,251.9 L439.0,252.6 L437.8,251.5 L442.1,246.2 L442.2,244.3 L437.5,249.8 L436.4,247.8 L433.7,254.3 L430.2,255.2 L428.4,257.5 L433.1,255.2 L432.3,258.5 L435.2,255.4 L437.0,257.8 L434.0,260.3 L434.6,261.5 L437.4,259.1 L439.2,261.4 L438.3,265.7 L435.4,265.2 L432.1,268.2 L433.7,268.5 L432.2,273.1 L425.9,273.6 L421.3,271.9 L419.8,274.7 L418.8,269.8 L418.4,272.3 L414.7,274.7 L413.5,273.0 L413.2,279.4 L410.7,278.3 L408.3,281.0 L403.6,284.2 L406.3,278.4 L402.6,283.7 L401.1,283.4 L399.7,286.9 L398.6,285.6 L395.5,288.7 L391.7,287.0 L392.7,289.3 L389.0,288.2 L386.8,290.0 L384.3,290.2 L380.7,287.1 L382.0,285.2 L385.6,283.3 L388.2,283.5 L395.1,277.0 L393.4,276.9 L388.2,280.1 L384.2,279.1 L382.2,276.9 L384.8,271.3 L388.3,268.2 L390.9,260.5 L389.0,256.6 L394.0,255.1 L403.0,249.6 L408.9,252.2 L412.1,250.9 L422.2,252.9 L415.1,250.5 L408.6,246.9 L414.5,241.3 L419.4,239.8 L417.8,239.0 L413.1,240.3 L409.8,244.9 L403.0,244.8 L401.7,242.2 L398.9,244.8 L394.1,246.8 L392.8,249.0 L386.8,250.5 L383.4,254.2 L384.7,256.4 L382.4,255.7 L375.6,261.9 L376.9,263.6 L371.6,267.4 L367.6,266.8 L372.4,269.9 L369.8,274.2 L362.7,275.1 L365.8,275.9 L365.2,278.5 L361.4,280.0 L359.4,276.7 L359.1,279.5 L355.7,280.2 L357.0,281.9 L354.5,282.1 L355.5,283.8 L349.4,285.6 L348.8,293.0 L351.2,292.0 L355.7,292.3 L361.2,295.2 L361.8,297.1 L356.0,301.8 L352.9,301.9 L352.6,304.0 L350.3,304.5 L351.5,306.8 L348.7,307.4 L346.3,309.6 L346.6,313.2 L345.0,311.9 L343.0,314.4 L336.4,314.6 L336.0,317.1 L332.2,318.3 L331.2,320.7 L328.2,319.3 L328.1,322.0 L325.8,322.4 L326.2,324.4 L322.1,323.8 L321.6,326.9 L320.0,326.0 L314.4,329.5 L317.4,329.4 L315.9,331.1 L317.4,332.2 L314.5,336.2 L310.9,335.1 L310.7,337.8 L308.8,337.6 L305.2,340.5 L301.8,338.6 L302.0,340.8 L299.6,341.7 L301.3,343.2 L298.3,343.9 L296.7,342.4 L291.5,345.6 L295.1,344.7 L295.2,346.6 L291.2,345.9 L288.8,346.7 L286.0,349.4 L290.4,350.6 L286.1,354.4 L287.2,356.3 L284.7,355.6 L286.3,352.5 L283.2,354.3 L283.7,357.1 L280.9,356.2 L279.9,358.1 L277.5,357.9 L273.1,359.3 L270.8,358.9 L271.6,361.2 L269.9,363.9 L268.6,363.2 L269.8,360.3 L266.8,359.5 L263.7,360.7 L262.4,363.1 L259.1,364.4 L256.4,366.9 L255.5,364.5 L254.5,367.4 L251.0,366.3 L249.5,368.1 L245.8,369.6 L242.3,369.0 L244.2,365.2 L247.6,365.7 L243.5,363.8 L240.9,364.4 L239.5,368.8 L236.8,372.4 L234.7,372.0 L236.0,374.2 L232.4,376.0 L229.2,376.0 L230.1,374.7 L226.9,370.7 L225.1,372.7 L226.4,373.4 L224.0,378.1 L222.6,378.0 L220.2,374.8 L218.0,374.1 L217.7,375.9 L219.9,378.2 L216.2,380.5 L216.7,377.0 L216.0,374.4 L221.8,370.9 L228.1,369.2 L227.4,367.5 L232.1,362.6 L237.9,358.9 L244.5,357.4 L249.1,357.7 L251.7,356.6 L250.6,359.9 L252.8,362.3 L253.0,358.8 L256.9,359.1 L257.7,360.6 L260.5,361.1 L260.9,359.8 L256.0,356.7 L259.0,350.8 L261.6,348.5 L268.1,344.6 L272.3,343.5 L279.7,339.1 L284.1,340.8 L283.5,335.4 L288.9,329.3 L292.0,327.9 L294.3,325.5 L298.0,323.9 L297.7,322.6 L299.1,312.8 L301.3,310.3 L299.7,308.2 L300.6,305.2 L307.0,299.6 L308.5,294.5 L306.7,296.2 L299.7,299.1 L291.2,302.0 L288.8,301.3 L287.5,298.7 L285.2,297.6 L287.8,292.9 L286.8,292.1 L282.8,296.5 L282.0,298.7 L280.1,298.6 L282.2,304.0 L281.4,306.4 L278.2,306.0 L273.3,299.0 L270.4,295.7 L268.2,295.3 L265.7,298.8 L263.7,296.3 L260.8,296.2 L259.3,292.3 L252.3,296.9 L251.5,296.2 L247.3,298.4 L245.6,298.2 L244.6,301.0 L238.8,303.1 L239.6,302.0 L232.8,301.3 L239.5,299.0 L238.3,293.4 L240.6,290.7 L236.9,292.2 L234.6,288.0 L236.1,285.5 L239.5,283.0 L232.3,271.7 L232.3,268.8 L230.7,269.8 L229.7,265.1 L232.1,259.4 L236.6,256.7 L231.3,258.9 L229.3,263.9 L226.5,265.1 L228.5,267.8 L227.7,272.3 L224.4,272.1 L219.6,275.3 L211.9,276.5 L204.9,275.8 L203.2,273.2 L204.7,272.1 L200.3,270.2 L196.5,265.8 L192.0,264.8 L189.9,262.8 L191.7,260.2 L188.6,261.4 L185.5,260.2 L191.8,256.7 L191.3,255.1 L196.6,252.1 L196.6,254.2 L202.4,255.0 L204.4,257.8 L207.0,255.2 L209.1,256.2 L208.8,259.0 L211.5,259.1 L214.7,255.5 L208.3,253.6 L212.4,252.9 L209.2,250.9 L206.9,253.3 L198.1,253.6 L197.2,251.9 L189.9,252.1 L188.9,250.9 L192.5,249.9 L186.6,245.7 L186.0,246.1 L186.4,248.8 L182.8,247.2 L182.8,244.2 L179.8,243.5 L178.4,241.5 L180.5,239.0 L178.4,237.9 L175.7,239.3 L174.4,237.2 L180.4,235.2 L177.2,234.1 L175.8,232.2 L183.0,231.5 L181.1,228.9 L181.6,225.5 L187.8,218.3 L191.5,216.0 L194.0,216.3 L199.4,211.3 L195.0,214.2 L193.5,209.2 L197.7,202.6 L201.0,200.3 L204.2,199.6 L209.7,200.4 L215.7,204.9 L219.5,204.3 L223.6,200.6 L226.7,199.3 L231.9,193.1 L234.8,194.5 L232.9,195.7 L247.2,194.0 L252.9,188.5 L253.2,186.7 L250.9,181.5 L250.3,176.8 L243.6,172.5 L243.2,170.5 L248.5,170.9 L252.7,167.6 L251.5,163.7 L247.2,160.7 L243.7,164.5 L239.5,164.1 L236.9,166.0 L234.2,165.8 L226.5,170.8 L226.0,173.4 L224.0,174.6 L223.3,171.0 L217.3,167.5 L215.2,168.7 L220.3,170.5 L218.9,173.0 L213.0,169.5 L209.0,168.9 L200.7,169.3 L196.9,170.9 L192.5,171.1 L191.3,172.2 L185.3,170.7 L174.5,169.0 L170.3,165.6 L171.6,161.6 L167.4,159.7 L163.3,155.6 L169.5,156.0 L172.1,152.7 L175.3,152.5 L163.7,150.1 L157.0,149.7 L147.1,145.2 L146.3,143.5 L150.0,141.3 L155.5,141.7 L154.5,140.0 L158.6,137.7 L161.9,138.4 L164.6,136.7 L163.0,135.8 L172.6,130.8 L175.9,132.4 L180.8,132.9 L184.5,131.8 L179.5,130.2 L178.8,128.4 L186.3,125.1 L198.7,121.4 L210.1,120.9 L207.8,125.8 L208.4,128.5 L203.5,130.8 L207.7,130.5 L211.0,133.6 L215.7,133.1 L219.1,133.8 L224.2,132.9 L225.8,134.5 L232.7,133.6 L236.6,134.4 L236.9,135.9 L241.6,129.2 L249.9,129.6 L247.9,127.2 L242.5,125.6 L239.1,125.7 L236.0,127.3 L237.3,123.8 L236.3,122.0 L231.5,118.0 L229.0,117.8 L226.1,113.7 L230.6,112.2 L235.1,116.8 L234.2,119.4 L237.2,122.6 L241.1,124.5 L247.1,122.5 L253.0,126.4 L260.8,125.8 L261.2,122.6 L258.0,120.1 L256.6,121.1 L251.6,119.2 L247.9,119.7 L245.3,122.5 L242.9,122.6 L237.3,118.4 L237.1,115.7 L239.3,112.3 L242.6,111.9 L237.7,109.9 L229.0,111.4 L230.5,107.5 L227.2,110.7 L210.8,108.7 L209.7,107.8 L209.1,103.0 L204.1,96.0 L196.3,90.9 L193.9,90.3 L185.5,85.0 L178.3,83.1 L173.0,79.0 L165.5,77.5 L169.3,77.5 L173.8,72.4 L174.5,66.9 L173.9,64.5 L182.2,64.9 L191.2,64.3 L201.3,63.1 L206.8,61.3 L211.8,58.3 L219.0,51.4 L219.7,46.4 L221.6,41.1 L227.5,36.8 L236.6,26.8 L239.2,29.1 L244.9,28.9 L251.9,26.6 L261.9,19.8 L265.1,20.0 L265.1,22.7 L263.0,27.3 L266.0,25.2 L267.3,22.6 L266.3,20.0 L263.0,18.8 L266.8,17.1 L269.2,14.6 L276.4,13.3 L272.4,15.3 L279.0,15.3 L292.8,13.7 L299.8,10.7 L304.6,7.5 L310.6,1.3 L313.7,0.0 L316.2,2.4 L327.9,4.5 L328.3,7.6 L324.9,9.9 L321.4,10.1 L323.6,14.0 L328.6,13.5 L329.4,10.7 L332.7,8.6 L333.9,6.1 L339.3,6.7 L342.8,9.4 L341.3,12.4 L342.3,13.8 L349.6,14.9 L353.0,12.1 L358.5,12.4 L361.6,11.3 L375.8,13.2 L377.3,14.2 L373.0,17.6 L374.0,19.3 L379.4,20.5 L373.0,20.2 L371.4,21.1 L384.4,21.1 L380.8,23.9 L388.4,24.2 L392.4,25.7 L392.4,23.9 L398.0,22.5 L404.0,22.7 L403.5,24.7 L407.8,24.1 L411.1,22.3 L417.0,22.0 L423.8,23.0 L424.6,24.4 L428.7,24.7 L433.0,27.5 L436.4,26.4 L441.5,28.1 L441.4,29.5 L451.3,31.3 L454.9,30.7 L469.3,31.1 L477.7,35.7 L488.1,36.1 L495.7,33.4 L506.8,32.6 L516.9,35.3 L521.7,39.4 L525.8,41.0 L528.4,40.3 L534.2,44.7 L540.1,44.7 L540.1,265.6 L546.9,267.4 L547.8,265.5 L554.8,268.2 L559.1,264.8 L567.9,264.5 L566.3,270.3 L568.7,272.4 L573.5,274.2 L574.7,277.2 L589.5,288.6 L591.7,295.7 L600.8,290.4 L604.3,290.2 L606.0,287.7 L605.9,283.8 L608.4,283.8 L609.3,281.8 L607.7,280.9 L613.5,279.5 L620.3,276.6 L626.9,281.7 L625.8,284.6 L627.8,287.8 L631.6,288.5 L636.3,293.0 L638.1,296.8 L644.1,299.6 L646.1,302.1 L650.8,305.9 L649.6,306.8 L653.7,311.8 L655.2,315.0 L658.2,318.3 L662.7,325.4 L667.2,331.4 L665.4,333.9 L670.1,334.8 L669.0,338.5 L672.7,339.9 L673.2,344.1 L676.9,343.9 L684.1,348.1 L688.5,348.9 L693.1,351.6 L693.7,353.6 L698.4,354.1 L699.6,356.1 L699.1,359.1 L697.3,361.6 L697.7,365.7 L700.0,371.0 L698.7,372.1 L694.5,378.7 L690.1,381.4 L689.2,379.9 L686.5,380.8 L685.2,376.8 L688.1,373.8 L685.4,375.1 L684.5,372.8 L686.2,371.0 L690.7,370.9 L687.2,369.9 L686.9,362.3 L682.5,357.0 L685.2,354.2 L680.4,357.3 L679.3,356.3 L674.6,358.8 L673.3,363.2 L671.4,366.6 L668.3,364.9 L666.9,361.4 L670.0,360.5 L670.0,357.6 L671.6,356.3 L671.3,353.2 L676.1,352.2 L672.6,351.9 L671.2,349.2 L668.5,348.7 L665.7,345.4 L666.4,343.3 L663.9,344.0 L663.0,340.9 L659.8,339.1 L657.4,336.2 L659.7,336.5 L654.9,334.1 L653.0,332.2 L652.1,333.7 L648.3,332.1 L651.4,327.3 L649.0,326.0 L649.9,324.0 L647.5,323.8 L648.0,320.9 L653.9,323.8 L648.6,320.2 L648.3,316.5 L646.3,319.4 L640.9,313.4 L640.8,309.1 L641.7,306.3 L638.3,310.5 L634.6,307.5 L630.6,306.5 L627.4,300.5 L623.9,291.1 L622.0,288.0 L621.8,295.1 L624.9,301.6 L624.0,302.0 L626.4,307.5 L625.2,310.4 L622.8,309.7 L620.5,305.1 L614.1,306.9 L615.1,303.8 L611.3,296.4 L609.7,299.1 L605.9,297.3 L605.6,294.4 L603.6,296.1 L597.8,292.3 L599.5,294.7 L598.3,296.0 L604.2,297.0 L607.2,299.6 L606.1,301.8 L608.5,300.8 L610.9,302.9 L612.4,306.8 L607.4,308.6 L604.3,307.4 L602.7,310.1 L600.0,306.8 L596.3,306.5 L588.5,301.6 L584.7,298.0 L583.9,295.5 L579.5,292.0 L566.2,286.9 L556.8,282.0 L559.7,281.4 L562.3,278.3 L560.2,274.6 L562.3,272.4 L564.8,275.2 L564.2,278.3 L565.9,280.4 L565.1,275.8 L566.0,275.0 L561.3,271.2 L560.7,273.2 L556.9,276.1 L550.0,278.7 L545.7,278.5 L534.0,275.0 L536.4,272.0 L534.7,269.1 L534.6,271.5 L529.5,273.0 L526.1,271.6 L514.1,269.8 L502.3,271.2 L497.8,272.3 L493.6,272.0 L488.6,276.0 L488.6,275.0 L493.0,271.5 L496.6,271.4 L493.0,268.9 L488.3,268.1 L485.2,265.6 L483.0,265.6 L485.1,262.1 L483.8,261.7 L485.8,257.5 L481.8,260.8 L480.3,265.5 L476.5,264.3 L473.8,262.4 L468.5,262.3 L473.0,257.4 L469.9,258.7 L468.8,256.9 L463.8,258.0 L466.8,255.8 L461.2,257.1 L457.5,256.0 L466.2,253.9 L464.4,252.7 L460.2,254.4 L456.7,251.2 L458.2,248.7 L463.5,248.6 L462.9,247.4 L459.1,247.4 L453.8,251.5 L452.4,250.2 L446.6,252.5 L445.2,252.3 L445.2,246.9 L444.2,253.4 L440.5,253.9 Z M186.6,245.7 L186.6,245.6 L186.6,245.6 L186.6,245.6 L186.6,245.6 L188.5,244.6 L189.5,241.1 L195.2,238.4 L190.6,239.8 L187.5,243.0 L188.5,244.3 L186.6,245.6 L186.6,245.6 L186.6,245.6 L186.6,245.6 L186.5,245.7 Z M27.0,439.3 L28.4,440.4 L26.4,441.1 L26.0,439.0 Z M32.0,439.4 L29.0,439.5 L29.2,438.5 L32.6,438.1 Z M5.3,439.0 L5.9,442.0 L3.7,443.2 L1.6,442.6 L3.8,440.7 L0.0,438.5 L3.8,437.6 Z M15.7,441.4 L13.6,442.3 L12.0,441.4 L7.4,441.8 L13.4,440.4 L14.8,437.5 L16.9,438.2 Z M30.8,436.9 L29.7,434.3 L31.1,434.1 L32.5,435.7 Z M67.1,433.2 L72.2,434.7 L68.7,435.7 L63.5,435.3 L60.3,433.7 Z M84.6,430.4 L81.0,431.1 L83.8,428.4 L85.8,429.4 Z M110.5,424.2 L107.6,425.6 L108.4,422.9 L111.0,423.0 Z M122.4,418.7 L123.9,419.4 L123.0,421.0 L119.1,419.8 Z M176.0,399.9 L174.8,401.8 L173.1,401.8 L174.4,400.1 Z M179.1,393.3 L182.3,394.3 L178.9,396.1 L176.7,396.1 L175.5,394.5 L177.7,392.4 Z M184.3,391.4 L185.7,393.2 L183.3,394.6 L181.9,392.1 Z M223.9,388.8 L223.3,386.8 L226.3,387.7 L227.4,389.1 Z M660.1,378.4 L661.7,378.7 L660.9,381.1 L659.3,378.8 Z M231.3,379.8 L229.0,378.2 L231.0,377.1 L232.0,378.4 Z M681.8,377.3 L682.5,378.7 L680.5,379.6 L678.4,377.9 Z M241.0,374.4 L239.0,375.6 L236.7,374.1 L237.6,373.3 Z M659.3,373.3 L661.1,375.8 L659.9,376.9 L658.1,376.0 Z M272.2,375.5 L272.7,376.2 L269.3,375.5 L270.9,373.9 Z M655.4,373.1 L656.9,375.5 L657.1,377.8 L659.7,380.3 L661.1,383.3 L658.6,382.9 L655.7,378.5 L654.4,377.9 L653.1,374.8 L653.5,372.3 Z M680.2,374.3 L678.5,376.7 L676.3,376.4 L677.6,371.2 Z M265.5,372.3 L265.9,374.7 L260.9,378.3 L263.0,375.8 L261.6,374.3 L264.3,374.4 L263.4,372.7 Z M652.2,370.4 L652.8,372.3 L650.2,372.7 L650.0,370.4 Z M259.5,369.7 L259.5,371.8 L256.7,370.2 L257.3,369.6 Z M254.4,370.6 L256.6,369.4 L256.6,374.1 L254.5,372.5 L252.5,374.4 L252.0,370.1 L254.3,368.5 Z M673.4,368.4 L676.1,370.7 L674.5,373.9 L672.7,369.2 Z M647.5,366.9 L645.0,367.7 L646.1,365.5 L649.0,366.2 L651.6,365.5 L649.1,368.1 L649.9,369.1 L647.5,372.0 L646.8,369.2 Z M328.7,360.9 L326.5,361.1 L326.2,359.9 L328.9,358.2 Z M650.6,353.2 L652.2,353.5 L651.9,356.2 L649.5,356.1 L647.3,358.1 L644.8,357.6 L646.4,355.0 L648.9,354.9 Z M661.5,347.4 L661.4,350.7 L658.2,351.5 L655.5,349.4 L657.4,347.2 Z M668.6,349.2 L670.8,349.5 L671.9,352.5 L669.8,354.0 L665.7,350.8 L665.6,346.3 Z M307.0,344.5 L308.0,345.1 L303.4,345.6 L304.2,344.5 Z M344.8,344.0 L344.4,345.9 L340.8,348.3 L341.3,345.6 Z M350.8,345.2 L352.0,346.1 L346.6,345.8 L347.4,344.2 L350.0,343.9 Z M363.4,332.2 L366.7,332.2 L361.0,335.8 L360.0,334.2 L362.2,331.6 Z M117.2,331.2 L115.5,332.9 L113.4,332.5 L113.5,331.7 Z M619.0,330.9 L619.3,332.9 L618.1,335.7 L615.1,336.1 L616.9,332.4 L614.9,331.2 L615.0,329.1 L616.7,329.0 Z M607.8,314.7 L606.2,318.2 L604.6,314.6 L605.9,312.9 Z M363.0,312.9 L367.6,315.0 L365.6,315.2 L359.9,313.6 L361.7,311.9 Z M636.2,309.2 L638.0,310.8 L632.8,309.8 L632.2,308.2 L634.8,307.9 Z M373.5,304.8 L370.9,303.4 L375.1,301.5 L375.2,303.3 Z M252.4,301.1 L251.3,302.9 L248.8,303.4 L249.0,300.1 L254.4,297.8 Z M440.4,270.6 L440.1,272.4 L436.3,273.5 L439.1,268.8 Z M437.4,269.3 L436.1,271.4 L434.2,271.1 L434.6,270.0 Z M459.7,262.0 L462.5,262.0 L462.3,263.3 L465.4,262.7 L458.9,266.9 L457.7,266.0 L460.5,264.4 L457.1,263.8 Z M443.1,261.3 L444.2,262.7 L442.4,266.6 L439.9,267.1 L442.1,264.8 L440.6,264.0 Z M82.5,263.7 L84.6,264.7 L81.9,265.1 L75.1,261.2 L76.8,259.0 L77.0,260.7 Z M466.2,261.8 L463.3,262.3 L463.4,261.0 L471.0,259.4 Z M229.8,191.3 L229.7,192.7 L226.4,193.0 L225.7,191.5 Z M652.0,361.3 L652.9,361.7 L654.3,359.0 L653.1,358.8 L652.2,353.0 L648.0,352.7 L647.4,349.2 L653.7,349.7 L655.9,353.1 L654.3,354.0 L655.4,355.4 L660.1,356.5 L664.1,361.0 L664.1,363.2 L665.8,363.7 L667.2,366.6 L663.3,365.7 L661.2,367.2 L665.0,366.3 L669.5,371.2 L670.9,371.4 L670.8,374.7 L667.6,377.0 L670.7,377.4 L671.6,381.0 L669.6,382.7 L665.6,380.7 L667.0,379.9 L665.0,376.5 L662.2,377.4 L663.4,374.5 L659.4,373.0 L659.2,371.3 L653.2,371.1 L653.7,369.0 L658.1,369.5 L654.7,367.4 L656.7,363.8 L652.7,364.9 L650.8,364.0 L651.8,361.4 L649.2,362.5 L646.7,361.4 L647.4,359.9 L651.2,360.8 L651.6,360.0 L652.7,361.0 Z M656.9,340.2 L657.3,343.3 L656.3,344.0 L651.2,339.3 L653.1,343.2 L655.1,345.6 L654.2,347.0 L646.7,346.9 L646.4,338.9 L645.5,339.8 L641.7,334.5 L645.2,334.3 L650.7,335.9 L654.7,335.9 L656.6,337.2 L656.9,340.0 L658.0,340.0 L659.0,340.1 L663.1,344.1 L659.3,346.3 L657.2,345.8 L658.0,343.3 Z M362.8,318.6 L362.5,317.0 L364.9,318.4 L361.9,314.7 L366.1,316.5 L368.1,316.1 L367.1,319.8 L368.6,317.9 L369.7,318.6 L373.4,315.8 L375.3,319.2 L373.8,319.8 L374.3,323.1 L378.4,322.9 L375.6,326.8 L373.4,326.9 L369.7,325.3 L366.4,325.1 L371.3,327.4 L370.9,329.6 L368.3,330.2 L367.7,328.5 L363.9,329.2 L366.6,330.5 L362.3,330.9 L358.8,334.3 L356.2,335.7 L355.3,338.2 L350.9,342.4 L349.6,340.3 L353.9,336.4 L351.9,336.6 L354.3,332.7 L350.0,336.6 L349.5,335.8 L352.1,333.4 L346.2,332.8 L344.3,333.5 L345.9,334.8 L349.7,333.3 L348.0,337.9 L343.8,336.0 L343.7,332.2 L342.4,330.3 L340.1,330.2 L340.9,326.9 L344.0,323.8 L348.3,321.8 L351.5,322.7 L353.1,327.4 L355.1,329.6 L353.1,325.3 L354.2,322.1 L352.6,319.0 L356.3,317.2 L357.8,318.7 L358.1,321.3 L359.9,319.9 L359.1,318.4 L362.9,319.5 L362.8,318.9 L358.1,316.3 L359.0,315.4 L362.2,317.3 Z M20.8,437.4 L24.0,436.9 L22.8,438.9 L25.9,439.4 L26.1,440.9 L21.8,442.2 L20.5,443.7 L20.1,441.6 L18.8,443.9 L19.0,439.9 L21.6,440.4 Z M48.0,433.9 L52.4,434.1 L53.1,432.7 L56.2,432.5 L57.9,430.9 L54.8,429.9 L58.4,428.0 L59.4,428.4 L61.3,430.1 L58.2,432.0 L59.7,433.9 L54.9,434.0 L55.4,435.1 L48.3,435.3 L46.1,436.1 Z M133.2,419.5 L137.1,415.3 L137.2,412.9 L139.5,411.2 L142.0,411.7 L142.8,407.5 L148.1,405.4 L151.1,406.4 L150.4,409.0 L144.1,411.8 L141.1,415.8 L139.8,416.0 Z M209.4,384.1 L204.4,384.4 L201.5,386.1 L200.4,388.1 L196.8,389.0 L194.0,388.4 L192.4,385.1 L196.1,383.3 L198.4,379.1 L200.5,378.2 L203.1,378.9 L204.0,377.6 L209.9,375.6 L212.5,375.6 L215.4,381.0 L218.7,381.4 L220.1,383.5 L217.4,383.2 L215.5,381.5 L214.6,383.2 L211.8,384.6 Z M680.1,363.7 L680.4,368.3 L677.3,370.8 L673.4,367.4 L675.9,365.6 L675.0,361.8 L675.6,359.7 L678.5,359.9 L676.9,358.4 L682.3,357.6 L685.8,362.6 L685.7,369.0 L682.5,373.0 L679.5,371.5 L681.4,367.7 Z M663.2,349.4 L665.3,350.6 L663.8,352.5 L665.6,352.0 L669.5,354.3 L667.9,354.6 L668.9,357.1 L666.4,358.2 L664.6,357.1 L664.3,355.1 L660.6,354.1 L660.9,351.8 Z M375.6,312.6 L372.5,313.1 L372.4,310.5 L371.2,313.4 L368.8,315.1 L363.6,312.6 L363.3,310.3 L367.4,311.3 L364.4,309.2 L369.0,308.9 L367.9,306.6 L371.1,304.8 L375.0,307.5 L375.4,306.1 L377.7,307.5 L378.8,306.5 L380.9,310.0 L378.8,311.9 L375.9,309.7 Z M442.9,272.3 L450.2,267.0 L451.4,264.5 L451.5,266.0 L454.2,265.4 L449.7,269.3 L446.0,273.6 L446.3,274.9 L439.8,276.7 Z M174.4,277.4 L171.4,275.4 L168.4,275.3 L160.0,271.6 L156.4,268.0 L158.6,267.0 L164.6,267.7 L165.8,265.9 L175.8,263.7 L176.2,265.0 L180.4,264.8 L181.9,265.7 L181.3,270.8 L183.7,273.7 L180.8,273.9 L175.0,276.0 Z M168.4,400.2 L171.9,396.7 L174.0,398.7 L172.3,399.2 L168.9,402.5 L172.3,401.1 L173.3,403.0 L169.1,404.4 L167.5,407.0 L165.5,405.6 L166.4,407.7 L164.6,407.1 L156.1,410.2 L155.4,411.5 L150.4,410.5 L152.3,409.1 L155.7,409.2 L160.5,407.2 L160.5,404.3 L162.9,404.4 L162.4,402.7 L166.8,402.5 L162.2,401.7 L160.4,399.7 L162.5,397.6 L166.3,396.5 L168.5,397.1 Z M643.3,352.0 L642.5,354.6 L641.2,353.9 L641.3,350.2 L639.7,355.6 L638.7,355.2 L637.7,349.0 L639.2,347.4 L641.0,348.9 L641.3,346.7 L637.3,344.9 L638.5,344.0 L636.6,342.6 L635.9,339.1 L637.7,340.2 L637.3,338.0 L640.0,338.7 L637.9,337.1 L641.6,338.2 L643.6,341.9 L643.8,339.8 L645.9,340.6 L645.0,342.4 L646.1,344.1 L643.8,344.4 L644.0,347.6 L642.2,349.1 Z M632.8,341.5 L632.7,351.1 L632.3,352.9 L629.0,349.7 L626.5,345.4 L628.0,344.4 L627.8,341.6 L626.3,344.0 L624.5,342.6 L625.5,339.3 L621.9,339.4 L621.8,337.1 L624.9,335.0 L621.8,333.9 L622.4,330.7 L619.6,330.9 L618.5,328.2 L619.7,325.3 L621.7,324.3 L625.2,326.1 L628.6,329.0 L629.7,332.9 L631.2,335.5 Z M608.2,315.1 L611.9,318.1 L606.5,312.7 L608.8,312.7 L608.9,310.4 L610.4,313.1 L610.8,310.3 L613.0,311.4 L615.5,309.2 L620.2,311.6 L617.7,315.6 L621.6,312.0 L628.4,314.4 L628.3,318.9 L623.5,319.3 L615.0,315.1 L615.8,316.4 L621.9,319.1 L622.0,320.7 L624.2,321.1 L628.5,320.1 L629.9,325.7 L626.4,326.2 L616.1,320.0 L615.6,320.1 L619.0,323.9 L619.2,326.4 L617.0,328.2 L615.0,327.7 L612.2,323.8 L613.5,322.9 L606.7,318.4 Z M631.7,311.4 L635.3,311.2 L638.8,312.3 L643.4,319.2 L643.8,322.1 L642.3,321.4 L638.4,313.6 L637.1,314.3 L637.6,318.4 L638.8,318.3 L642.7,323.0 L643.4,325.7 L642.7,329.4 L639.2,327.8 L640.7,330.1 L636.6,334.1 L632.9,335.7 L632.8,331.1 L635.1,329.4 L635.0,327.7 L632.3,323.4 L630.2,312.6 L628.5,310.5 L627.7,306.8 L630.0,308.0 Z M125.1,195.9 L125.8,197.3 L129.0,197.3 L137.9,198.5 L136.5,201.7 L129.6,201.2 L126.1,203.5 L125.9,205.7 L122.8,206.4 L121.2,202.3 L116.9,201.4 L115.8,199.1 L109.0,196.5 L102.9,195.7 L98.3,198.3 L94.0,197.0 L92.3,193.7 L93.8,190.4 L94.0,187.4 L96.8,191.3 L102.4,191.6 L105.6,192.5 L109.8,189.9 L114.9,189.6 L118.0,191.5 L118.0,194.5 Z">
  <desc xmlns="http://www.highcharts.com/svg/namespace">
    <geoid>0200</geoid>
    <name>Congressional District (at Large)</name>
    <hc-middle-x>0.48</hc-middle-x>
    <hc-middle-y>0.33</hc-middle-y>
    <hc-key>us-ak-00</hc-key>
    <hc-a2>CD</hc-a2>
  </desc>
</path>
</g>

<text x="350" y="714" text-anchor="middle" font-family="Verdana" font-size="8" stroke-opacity="0.6">Copyright (c) 2020 Highsoft AS, Based on data from The United States Census Bureau</text>

</svg>