<?xml version="1.0" encoding="utf-8" standalone="no"?>
<!DOCTYPE svg PUBLIC "-//W3C//DTD SVG 1.1//EN" "http://www.w3.org/Graphics/SVG/1.1/DTD/svg11.dtd">

<svg version="1.1" height="700pt" width="700pt" xmlns="http://www.w3.org/2000/svg" xmlns:xlink="http://www.w3.org/1999/xlink">
<desc>
Map version: 2.1.0
Copyright (c) 2023 Highsoft AS, Based on data from The United States Census Bureau
</desc>
<title>Arkansas congressional districts</title>
<g id="special">

<g id="US.AR">
  <desc xmlns="http://www.highcharts.com/svg/namespace">
    <labelrank>0</labelrank>
    <hasc>US.AR</hasc>
    <alt-name>AR|Ark.</alt-name>
    <woe-id>2347562</woe-id>
    <subregion>West South Central</subregion>
    <fips>US05</fips>
    <postal-code>AR</postal-code>
    <name>Arkansas</name>
    <country>United States of America</country>
    <type-en>State</type-en>
    <region>South</region>
    <longitude>-92.14279999999999</longitude>
    <woe-name>Arkansas</woe-name>
    <latitude>34.7563</latitude>
    <woe-label>Arkansas, US, United States</woe-label>
    <type>State</type>
    <hc-key>us-ar</hc-key>
    <hc-a2>AR</hc-a2>
  </desc>
</g>

<g id="US">
  <desc xmlns="http://www.highcharts.com/svg/namespace">
    <name>United States of America</name>
    <labelrank>2</labelrank>
    <country-abbrev>U.S.A.</country-abbrev>
    <subregion>Northern America</subregion>
    <region-wb>North America</region-wb>
    <iso-a3>USA</iso-a3>
    <iso-a2>US</iso-a2>
    <woe-id>23424977</woe-id>
    <continent>North America</continent>
    <hc-key>us</hc-key>
    <hc-a2>US</hc-a2>
  </desc>
</g>

<path fill="#CEE3F5" stroke="#6E6E6E" stroke-width="0.4" id="US.AR.04" d="M451.4,609.7 L362.5,610.4 L226.5,609.3 L135.3,608.8 L74.3,608.3 L75.1,515.9 L69.5,511.8 L60.0,513.5 L54.7,508.3 L49.6,514.9 L45.0,514.7 L45.8,509.2 L39.9,514.8 L40.3,510.4 L36.5,515.5 L31.3,512.8 L30.1,516.8 L24.9,516.2 L19.1,508.5 L13.1,505.9 L15.9,503.9 L11.1,500.3 L15.7,376.8 L19.5,282.3 L20.8,253.3 L32.7,253.8 L30.4,248.6 L30.7,239.7 L33.4,236.2 L50.5,236.5 L54.1,239.4 L54.3,234.4 L64.6,232.2 L77.4,232.8 L72.5,227.4 L73.0,215.1 L65.4,214.9 L60.3,211.9 L53.2,210.6 L54.3,208.0 L49.8,202.5 L49.4,184.1 L52.6,180.8 L53.5,170.4 L56.1,170.5 L56.6,159.3 L48.8,159.0 L49.6,146.3 L52.3,146.4 L54.8,141.6 L55.2,134.0 L67.5,134.6 L67.7,132.2 L90.5,133.0 L90.9,120.5 L92.1,120.5 L93.7,75.8 L101.8,50.9 L104.4,51.0 L104.6,38.4 L134.2,39.4 L133.4,44.2 L139.7,47.1 L139.4,57.1 L144.3,59.8 L144.2,65.0 L149.1,65.1 L149.0,70.1 L189.2,71.3 L189.1,78.9 L191.3,80.9 L207.1,81.2 L203.3,85.1 L203.7,89.4 L210.3,91.6 L210.0,99.0 L205.3,98.7 L202.7,103.8 L197.6,103.8 L197.5,108.9 L205.0,108.9 L203.6,125.5 L202.8,162.0 L195.2,161.8 L194.8,184.4 L184.6,184.1 L184.1,208.8 L190.7,214.0 L191.8,217.8 L198.0,218.5 L204.3,224.8 L209.8,235.8 L214.5,234.0 L214.5,243.6 L220.0,245.1 L222.4,238.3 L226.5,236.4 L241.3,236.1 L237.3,236.5 L229.3,245.4 L220.8,246.8 L222.8,250.3 L219.2,254.8 L211.5,259.8 L203.7,269.8 L200.7,269.7 L194.5,277.3 L190.5,282.3 L182.9,287.2 L185.4,289.7 L185.4,304.9 L231.0,305.1 L230.9,320.3 L229.4,328.6 L244.4,328.9 L244.2,336.5 L254.1,336.6 L256.5,341.6 L256.2,351.7 L264.1,351.7 L264.0,356.8 L271.7,356.9 L271.6,367.1 L280.5,367.3 L285.5,359.9 L312.1,360.4 L312.2,352.8 L365.8,353.5 L373.7,353.6 L373.7,367.0 L381.3,367.0 L381.2,371.6 L394.4,371.8 L394.4,379.4 L396.9,379.4 L396.9,384.5 L412.2,384.5 L412.1,407.8 L409.9,407.7 L410.3,426.6 L407.6,426.7 L407.6,421.6 L377.5,422.1 L377.8,442.2 L374.4,442.2 L374.8,474.4 L420.0,473.8 L438.3,475.4 L450.9,475.4 L451.0,505.6 L450.8,563.1 Z">
  <desc xmlns="http://www.highcharts.com/svg/namespace">
    <geoid>0504</geoid>
    <name>Congressional District 4</name>
    <hc-middle-x>0.50</hc-middle-x>
    <hc-middle-y>0.77</hc-middle-y>
    <hc-key>us-ar-04</hc-key>
    <hc-a2>CD</hc-a2>
  </desc>
</path>

<path fill="#CEE3F5" stroke="#6E6E6E" stroke-width="0.4" id="US.AR.03" d="M32.7,253.8 L20.8,253.3 L23.4,196.1 L20.9,177.0 L13.3,114.5 L4.6,44.5 L0.0,3.7 L66.4,4.8 L125.7,5.3 L258.4,5.9 L292.5,5.6 L292.0,25.1 L283.6,30.0 L285.8,32.8 L292.0,31.3 L291.9,35.0 L288.0,34.2 L286.2,38.5 L293.1,39.7 L290.7,45.4 L301.1,48.5 L302.5,54.8 L299.6,57.5 L305.0,63.5 L309.3,63.9 L309.4,81.1 L249.6,80.1 L249.5,87.6 L239.4,87.2 L239.3,92.2 L234.9,94.0 L233.4,140.0 L253.5,140.4 L253.0,170.4 L247.9,170.4 L247.2,235.7 L241.3,236.1 L237.3,236.5 L226.5,236.4 L222.4,238.3 L222.6,242.6 L220.0,245.1 L214.5,243.6 L214.5,234.0 L209.8,235.8 L207.1,232.5 L204.3,224.8 L198.0,218.5 L191.8,217.8 L190.7,214.0 L184.1,208.8 L184.6,184.1 L194.8,184.4 L195.2,161.8 L202.8,162.0 L203.6,125.5 L204.5,124.0 L205.0,108.9 L197.5,108.9 L197.6,103.8 L202.7,103.8 L205.3,98.7 L210.0,99.0 L210.3,91.6 L203.7,89.4 L203.3,85.1 L207.1,81.2 L191.3,80.9 L189.1,78.9 L189.2,71.3 L149.0,70.1 L149.1,65.1 L144.2,65.0 L144.3,59.8 L139.4,57.1 L139.7,47.1 L133.4,44.2 L134.2,39.4 L104.6,38.4 L104.4,51.0 L101.8,50.9 L93.7,75.8 L92.1,120.5 L90.9,120.5 L90.5,133.0 L67.7,132.2 L67.5,134.6 L55.2,134.0 L54.8,141.6 L52.4,141.5 L52.3,146.4 L49.6,146.3 L48.8,159.0 L56.6,159.3 L56.1,170.5 L53.5,170.4 L52.6,180.8 L45.9,184.0 L49.4,184.1 L49.1,194.2 L49.8,202.5 L54.3,208.0 L53.2,210.6 L60.3,211.9 L65.4,214.9 L73.0,215.1 L72.5,227.4 L77.4,230.3 L77.4,232.8 L64.6,232.2 L54.3,234.4 L54.1,239.4 L50.5,236.5 L33.4,236.2 L30.7,239.7 L30.4,248.6 L32.9,248.8 Z">
  <desc xmlns="http://www.highcharts.com/svg/namespace">
    <geoid>0503</geoid>
    <name>Congressional District 3</name>
    <hc-middle-x>0.17</hc-middle-x>
    <hc-middle-y>0.27</hc-middle-y>
    <hc-key>us-ar-03</hc-key>
    <hc-a2>CD</hc-a2>
  </desc>
</path>

<path fill="#CEE3F5" stroke="#6E6E6E" stroke-width="0.4" id="US.AR.02" d="M230.9,320.3 L231.0,305.1 L185.4,304.9 L185.4,289.7 L182.9,287.2 L190.5,282.3 L193.0,277.3 L194.5,277.3 L195.5,277.3 L200.7,269.7 L203.7,269.8 L211.5,259.8 L219.2,254.8 L222.8,250.3 L220.8,246.8 L229.3,245.4 L237.3,236.5 L241.3,236.1 L247.2,235.7 L247.9,170.4 L253.0,170.4 L253.5,140.4 L278.7,141.0 L278.9,128.4 L309.0,128.7 L308.8,141.3 L334.0,141.7 L333.6,172.0 L333.1,172.0 L332.7,202.2 L389.6,202.6 L389.7,189.0 L392.7,185.8 L397.4,185.6 L397.5,172.0 L427.6,172.2 L427.4,187.5 L461.1,187.6 L459.9,193.0 L449.4,199.5 L447.5,203.9 L450.1,205.7 L448.6,212.4 L452.2,211.3 L452.4,217.9 L455.9,220.2 L457.1,226.5 L455.1,230.2 L453.1,227.0 L449.5,234.9 L445.8,235.1 L450.3,240.2 L446.4,248.4 L428.4,248.3 L428.4,259.8 L420.4,259.6 L417.9,255.3 L412.5,253.6 L402.5,255.9 L397.3,259.4 L386.5,260.5 L380.2,257.1 L373.4,256.3 L367.2,251.7 L362.0,253.4 L358.5,252.0 L352.0,253.6 L351.9,263.0 L359.1,263.0 L358.4,311.9 L356.4,315.2 L355.7,324.2 L353.6,330.5 L365.6,330.6 L365.8,353.5 L312.2,352.8 L312.1,360.4 L285.5,359.9 L280.5,367.3 L271.6,367.1 L271.7,356.9 L264.0,356.8 L264.1,351.7 L256.2,351.7 L256.5,341.6 L254.0,341.5 L254.1,336.6 L244.2,336.5 L244.4,328.9 L229.4,328.6 L229.5,320.3 Z">
  <desc xmlns="http://www.highcharts.com/svg/namespace">
    <geoid>0502</geoid>
    <name>Congressional District 2</name>
    <hc-middle-x>0.45</hc-middle-x>
    <hc-middle-y>0.52</hc-middle-y>
    <hc-key>us-ar-02</hc-key>
    <hc-a2>CD</hc-a2>
  </desc>
</path>

<path fill="#CEE3F5" stroke="#6E6E6E" stroke-width="0.4" id="US.AR.01" d="M451.4,609.7 L450.8,563.1 L451.0,505.6 L450.9,475.4 L438.3,475.4 L420.0,473.8 L374.8,474.4 L374.4,442.2 L377.8,442.2 L377.5,422.1 L407.6,421.6 L407.6,426.7 L410.3,426.6 L409.9,407.7 L412.1,407.8 L412.2,384.5 L396.9,384.5 L396.9,379.4 L394.4,379.4 L394.4,371.8 L381.2,371.6 L381.3,367.0 L373.7,367.0 L373.7,353.6 L365.8,353.5 L365.6,330.6 L353.6,330.5 L355.7,324.2 L356.4,315.2 L358.4,311.9 L359.1,263.0 L351.9,263.0 L352.0,253.6 L358.5,252.0 L362.0,253.4 L367.2,251.7 L373.4,256.3 L380.2,257.1 L386.5,260.5 L397.3,259.4 L402.5,255.9 L412.5,253.6 L417.9,255.3 L420.4,259.6 L428.4,259.8 L428.4,248.3 L446.4,248.4 L450.3,240.2 L445.8,235.1 L449.5,234.9 L453.1,227.0 L455.1,230.2 L457.1,226.5 L455.9,220.2 L452.4,217.9 L452.2,211.3 L448.6,212.4 L450.1,205.7 L447.5,203.9 L449.4,199.5 L459.9,193.0 L461.1,187.6 L427.4,187.5 L427.6,172.2 L397.5,172.0 L397.4,185.6 L392.7,185.8 L389.7,189.0 L389.6,202.6 L332.7,202.2 L333.1,172.0 L333.6,172.0 L334.0,141.7 L308.8,141.3 L309.0,128.7 L278.9,128.4 L278.7,141.0 L253.5,140.4 L233.4,140.0 L234.9,94.0 L239.3,92.2 L239.4,87.2 L249.5,87.6 L249.6,80.1 L309.4,81.1 L309.3,63.9 L305.0,63.5 L299.6,57.5 L302.5,54.8 L301.1,48.5 L290.7,45.4 L293.1,39.7 L286.2,38.5 L288.0,34.2 L291.9,35.0 L292.0,31.3 L285.8,32.8 L283.6,30.0 L292.0,25.1 L292.5,5.6 L314.0,5.7 L431.1,4.1 L447.5,4.2 L532.1,2.3 L625.3,0.0 L628.1,14.6 L635.9,16.6 L638.4,19.4 L636.1,30.2 L638.7,33.6 L636.1,38.9 L631.5,40.5 L630.6,45.5 L617.3,54.7 L615.5,62.5 L607.5,67.1 L603.7,72.0 L599.6,82.9 L596.1,88.0 L687.0,84.4 L689.2,90.0 L698.3,97.0 L700.0,100.7 L697.1,104.5 L690.1,100.7 L686.2,100.8 L682.1,106.2 L683.8,109.4 L691.3,112.4 L692.1,115.7 L686.9,118.3 L681.2,118.6 L676.0,127.1 L668.2,130.6 L663.8,127.0 L657.8,130.9 L657.3,139.2 L661.2,144.6 L667.2,145.3 L671.2,142.7 L671.6,148.5 L658.9,154.9 L659.4,161.6 L664.5,163.6 L663.6,169.7 L659.3,168.8 L653.2,162.0 L646.1,164.2 L644.8,169.9 L649.5,178.6 L647.9,185.2 L644.5,189.4 L640.3,176.6 L635.3,178.5 L633.9,183.1 L628.4,186.7 L627.2,193.2 L633.4,194.5 L631.8,190.5 L636.2,188.4 L642.0,192.9 L637.6,200.2 L637.5,206.8 L629.8,208.5 L631.7,215.5 L639.2,216.0 L642.1,219.9 L639.7,225.8 L636.9,227.1 L644.4,235.9 L639.7,239.4 L634.1,236.6 L629.3,239.5 L624.6,255.5 L612.8,253.2 L610.5,261.2 L612.4,264.5 L619.8,269.9 L619.4,276.3 L610.5,282.8 L610.9,287.5 L606.7,284.8 L596.2,290.0 L594.1,288.4 L592.6,281.0 L588.6,280.0 L586.2,285.2 L590.2,291.7 L588.1,295.4 L591.3,305.8 L588.3,308.6 L581.5,307.8 L581.2,303.8 L584.0,300.3 L582.0,295.6 L577.4,299.7 L579.3,304.7 L574.8,309.4 L578.0,313.0 L587.9,312.9 L590.0,315.8 L582.4,325.3 L578.2,325.3 L578.7,315.5 L575.8,314.0 L572.0,318.6 L573.3,330.1 L578.6,337.1 L578.7,341.5 L573.9,345.7 L572.6,350.9 L576.3,359.3 L574.2,363.7 L563.2,370.0 L563.5,378.4 L558.4,379.3 L560.6,370.8 L549.2,371.8 L548.0,376.1 L551.6,382.3 L548.2,386.9 L542.8,386.6 L538.4,389.9 L536.6,399.9 L529.2,396.5 L528.1,393.7 L523.6,395.2 L526.8,401.8 L530.9,404.3 L541.2,403.9 L542.6,407.2 L536.9,412.0 L527.8,407.2 L521.5,412.1 L521.4,415.5 L526.4,419.7 L532.0,419.1 L533.7,421.2 L530.1,431.6 L517.0,432.9 L521.0,439.6 L520.1,442.5 L515.4,442.0 L512.6,435.7 L502.7,440.7 L502.7,443.4 L514.1,448.5 L505.3,461.1 L509.2,468.4 L517.2,472.1 L516.1,476.2 L512.3,477.3 L508.3,474.7 L500.6,476.3 L496.6,474.3 L495.1,483.3 L499.3,487.6 L506.4,485.6 L512.0,490.4 L511.4,493.0 L505.1,495.7 L497.1,492.6 L493.0,487.4 L486.2,488.8 L483.4,491.8 L484.4,495.2 L491.7,497.7 L497.7,504.9 L494.7,509.0 L483.6,512.3 L485.1,517.9 L490.4,523.7 L483.0,534.1 L487.8,534.8 L492.6,531.7 L491.3,526.0 L493.1,523.7 L498.9,528.0 L498.1,535.4 L486.9,539.9 L493.2,544.2 L499.8,542.6 L503.2,538.6 L505.9,530.8 L508.8,535.4 L496.8,549.5 L497.1,558.2 L503.3,568.6 L505.5,561.8 L509.2,560.0 L510.5,566.3 L504.6,571.6 L505.4,584.7 L503.0,587.1 L496.3,587.3 L491.4,585.5 L489.0,591.4 L500.3,598.8 L499.7,604.1 L494.4,609.3 Z">
  <desc xmlns="http://www.highcharts.com/svg/namespace">
    <geoid>0501</geoid>
    <name>Congressional District 1</name>
    <hc-middle-x>0.49</hc-middle-x>
    <hc-middle-y>0.17</hc-middle-y>
    <hc-key>us-ar-01</hc-key>
    <hc-a2>CD</hc-a2>
  </desc>
</path>
</g>

<text x="350" y="714" text-anchor="middle" font-family="Verdana" font-size="8" stroke-opacity="0.6">Copyright (c) 2023 Highsoft AS, Based on data from The United States Census Bureau</text>

</svg>