<?xml version="1.0" encoding="utf-8" standalone="no"?>
<!DOCTYPE svg PUBLIC "-//W3C//DTD SVG 1.1//EN" "http://www.w3.org/Graphics/SVG/1.1/DTD/svg11.dtd">

<svg version="1.1" height="700pt" width="700pt" xmlns="http://www.w3.org/2000/svg" xmlns:xlink="http://www.w3.org/1999/xlink">
<desc>
Map version: 1.1.3
Copyright (c) 2020 Highsoft AS, Based on data from The United States Census Bureau
</desc>
<title>Georgia congressional districts</title>
<g id="special">

<g id="US">
  <desc xmlns="http://www.highcharts.com/svg/namespace">
    <name>United States of America</name>
    <labelrank>2</labelrank>
    <country-abbrev>U.S.A.</country-abbrev>
    <subregion>Northern America</subregion>
    <region-wb>North America</region-wb>
    <iso-a3>USA</iso-a3>
    <iso-a2>US</iso-a2>
    <woe-id>23424977</woe-id>
    <continent>North America</continent>
    <hc-key>us</hc-key>
    <hc-a2>US</hc-a2>
  </desc>
</g>

<g id="US.GA">
  <desc xmlns="http://www.highcharts.com/svg/namespace">
    <labelrank>0</labelrank>
    <hasc>US.GA</hasc>
    <alt-name>GA|Ga.</alt-name>
    <woe-id>2347569</woe-id>
    <subregion>South Atlantic</subregion>
    <fips>US13</fips>
    <postal-code>GA</postal-code>
    <name>Georgia</name>
    <country>United States of America</country>
    <type-en>State</type-en>
    <region>South</region>
    <longitude>-83.4078</longitude>
    <woe-name>Georgia</woe-name>
    <latitude>32.8547</latitude>
    <woe-label>Georgia, US, United States</woe-label>
    <type>State</type>
    <hc-key>us-ga</hc-key>
    <hc-a2>GE</hc-a2>
  </desc>
</g>

<path fill="#CEE3F5" stroke="#6E6E6E" stroke-width="0.4" id="US.GA.01" d="M505.2,644.3 L503.3,645.1 L502.2,629.9 L500.4,623.5 L501.7,619.1 L508.1,614.0 L510.1,609.3 L509.8,616.0 L506.9,630.5 L504.9,634.6 Z M530.1,547.4 L527.9,547.7 L525.2,543.8 L531.5,530.0 L533.6,526.8 L537.7,525.6 L541.3,527.5 L536.3,537.6 L533.5,540.5 Z M544.5,517.8 L541.2,520.2 L542.2,515.9 L540.7,510.5 L544.5,501.3 L546.8,502.1 L547.2,511.6 Z M540.7,400.2 L541.6,402.6 L546.8,405.8 L548.4,413.9 L543.8,419.9 L548.5,428.4 L547.1,431.8 L548.7,439.0 L555.0,443.0 L559.4,443.8 L562.0,441.6 L569.2,446.3 L572.8,450.3 L582.7,453.2 L584.3,456.0 L575.7,463.8 L573.1,459.8 L568.0,464.1 L569.9,469.3 L573.1,470.0 L566.0,476.5 L554.0,473.0 L551.4,468.9 L548.5,470.2 L552.0,474.9 L545.4,478.0 L552.4,479.1 L558.4,482.2 L555.8,487.9 L548.4,495.4 L537.5,494.9 L531.4,490.6 L529.3,493.3 L534.9,495.4 L538.6,498.4 L538.2,501.1 L533.1,506.5 L525.2,520.2 L521.1,524.1 L522.7,527.3 L521.3,535.5 L517.0,539.9 L517.1,543.2 L522.0,553.1 L520.6,554.0 L508.8,552.5 L502.3,549.3 L504.0,553.2 L509.1,555.4 L521.6,558.1 L529.1,564.1 L528.4,570.0 L524.2,570.7 L519.7,578.1 L514.2,583.9 L510.1,582.8 L510.4,574.1 L506.7,572.7 L505.2,576.6 L505.8,587.5 L501.2,585.0 L500.5,588.0 L504.2,589.6 L508.5,594.0 L509.2,589.3 L511.9,586.9 L509.2,601.2 L504.2,594.9 L497.8,591.0 L505.8,601.6 L503.0,606.1 L497.0,607.2 L499.6,609.6 L505.8,610.3 L500.4,617.0 L498.7,622.4 L500.4,627.6 L496.6,626.5 L497.7,633.7 L500.3,638.8 L499.2,645.8 L495.0,646.0 L494.4,648.1 L490.0,646.1 L485.7,646.6 L479.9,643.3 L471.4,642.6 L464.7,637.8 L463.3,640.1 L461.9,636.3 L455.8,636.3 L450.4,634.3 L449.0,630.5 L444.5,631.6 L443.2,629.8 L439.9,631.7 L438.1,637.6 L432.4,635.9 L433.7,639.8 L430.5,640.9 L430.5,648.0 L428.7,652.7 L434.2,667.2 L432.5,675.1 L432.7,682.4 L429.0,692.9 L429.9,697.7 L426.1,700.0 L421.2,698.0 L412.6,699.3 L410.2,696.8 L407.7,689.5 L409.0,680.7 L404.0,672.8 L407.4,668.2 L375.9,665.5 L289.0,658.2 L289.5,635.8 L291.0,631.6 L293.7,631.6 L293.9,627.8 L288.1,627.6 L286.8,619.5 L283.4,616.1 L286.0,613.8 L278.8,616.0 L276.3,611.9 L276.2,606.0 L279.5,606.1 L279.3,603.4 L284.5,599.8 L284.5,609.7 L301.9,610.4 L304.4,617.1 L304.0,624.7 L310.9,622.2 L311.7,588.4 L311.7,575.4 L350.0,576.1 L346.3,570.2 L346.7,562.0 L351.3,560.6 L355.6,562.7 L355.9,549.4 L356.2,533.8 L360.1,533.8 L360.4,520.7 L356.4,520.5 L356.7,503.5 L370.2,503.8 L370.3,498.1 L373.5,498.2 L376.4,502.7 L384.6,508.9 L392.1,511.8 L395.9,515.7 L405.7,521.6 L408.4,527.1 L416.4,534.3 L419.3,534.3 L419.7,489.4 L425.2,489.5 L423.1,485.5 L425.6,485.6 L427.2,481.2 L433.0,483.3 L438.9,487.9 L439.2,484.9 L442.2,484.4 L446.6,477.9 L447.8,472.8 L451.7,468.1 L450.9,463.9 L452.5,460.8 L459.1,453.9 L467.1,449.0 L472.6,442.9 L465.4,436.4 L464.8,433.4 L484.6,428.1 L508.5,420.5 L506.9,414.4 L513.8,412.8 L514.1,417.0 L516.8,423.6 L527.9,412.5 L528.8,407.2 L536.0,404.2 Z">
  <desc xmlns="http://www.highcharts.com/svg/namespace">
    <geoid>1301</geoid>
    <name>Congressional District 1</name>
    <hc-middle-x>0.49</hc-middle-x>
    <hc-middle-y>0.57</hc-middle-y>
    <hc-key>us-ga-01</hc-key>
    <hc-a2>CD</hc-a2>
  </desc>
</path>

<path fill="#CEE3F5" stroke="#6E6E6E" stroke-width="0.4" id="US.GA.11" d="M101.9,165.3 L102.3,158.8 L100.3,158.7 L101.2,138.6 L63.0,137.1 L64.0,117.7 L66.6,117.8 L67.5,97.9 L69.7,98.0 L69.9,91.2 L76.2,92.7 L76.5,90.5 L83.4,91.2 L103.4,91.9 L103.5,89.5 L122.1,90.3 L122.0,94.8 L139.3,95.6 L141.5,94.7 L141.5,95.6 L162.1,96.3 L161.2,117.7 L161.1,121.3 L161.0,125.3 L152.4,125.0 L148.3,128.4 L147.9,134.0 L140.9,136.1 L140.6,141.4 L121.7,140.3 L124.2,145.9 L124.6,151.3 L127.2,151.5 L125.3,154.5 L129.4,160.6 L130.3,159.1 L134.7,161.3 L132.3,165.1 L134.5,168.4 L139.9,164.8 L143.8,165.4 L143.7,168.1 L148.5,168.8 L148.3,173.7 L144.1,174.1 L139.0,176.5 L138.8,178.3 L132.9,177.9 L131.8,179.2 L126.8,175.5 L128.5,170.1 L126.6,166.4 L122.6,165.0 L122.1,169.4 L116.0,167.3 L116.9,165.6 L111.7,166.7 Z">
  <desc xmlns="http://www.highcharts.com/svg/namespace">
    <geoid>1311</geoid>
    <name>Congressional District 11</name>
    <hc-middle-x>0.50</hc-middle-x>
    <hc-middle-y>0.28</hc-middle-y>
    <hc-key>us-ga-11</hc-key>
    <hc-a2>CD</hc-a2>
  </desc>
</path>

<path fill="#CEE3F5" stroke="#6E6E6E" stroke-width="0.4" id="US.GA.04" d="M157.4,205.3 L155.6,203.3 L158.8,202.3 L161.2,196.2 L157.9,191.8 L159.7,191.9 L153.9,184.3 L154.1,179.2 L152.6,176.4 L154.9,174.9 L155.9,177.6 L161.4,176.5 L169.3,173.4 L166.3,172.0 L162.3,167.2 L168.5,165.2 L171.5,166.1 L172.6,171.6 L178.7,170.7 L180.0,173.1 L183.5,171.6 L187.4,173.1 L186.9,175.6 L192.3,175.3 L193.5,172.4 L202.8,177.6 L193.4,185.7 L216.7,204.2 L216.7,207.1 L211.7,213.0 L214.3,215.1 L212.2,220.4 L209.2,221.0 L208.5,224.6 L206.1,222.9 L200.5,231.3 L193.1,230.7 L186.0,228.4 L184.5,224.3 L178.1,218.9 L174.7,218.7 L169.1,209.5 L167.7,205.8 L162.8,205.6 L160.0,207.9 Z">
  <desc xmlns="http://www.highcharts.com/svg/namespace">
    <geoid>1304</geoid>
    <name>Congressional District 4</name>
    <hc-middle-x>0.52</hc-middle-x>
    <hc-middle-y>0.60</hc-middle-y>
    <hc-key>us-ga-04</hc-key>
    <hc-a2>CD</hc-a2>
  </desc>
</path>

<path fill="#CEE3F5" stroke="#6E6E6E" stroke-width="0.4" id="US.GA.05" d="M152.6,176.4 L154.1,179.2 L153.9,184.3 L159.7,191.9 L157.9,191.8 L161.2,196.2 L158.8,202.3 L155.6,203.3 L157.4,205.3 L157.7,211.3 L160.1,212.6 L157.5,215.0 L157.4,220.0 L154.8,219.9 L142.3,212.8 L133.3,212.4 L133.6,207.2 L129.6,206.7 L128.8,203.0 L124.1,202.5 L112.3,195.9 L131.8,179.2 L132.9,177.9 L138.8,178.3 L139.0,176.5 L144.1,174.1 L148.3,173.7 L149.7,176.9 L152.8,173.8 Z">
  <desc xmlns="http://www.highcharts.com/svg/namespace">
    <geoid>1305</geoid>
    <name>Congressional District 5</name>
    <hc-middle-x>0.67</hc-middle-x>
    <hc-middle-y>0.45</hc-middle-y>
    <hc-key>us-ga-05</hc-key>
    <hc-a2>CD</hc-a2>
  </desc>
</path>

<path fill="#CEE3F5" stroke="#6E6E6E" stroke-width="0.4" id="US.GA.12" d="M421.1,218.6 L425.9,218.7 L433.3,223.5 L437.5,228.2 L440.7,235.0 L447.2,237.8 L449.7,242.3 L447.4,243.7 L450.1,245.8 L445.8,247.4 L448.2,251.7 L445.5,252.3 L450.5,259.6 L459.2,268.5 L457.0,270.5 L462.9,276.1 L467.6,275.4 L468.9,278.2 L468.2,284.0 L475.4,290.3 L482.8,293.7 L486.7,293.5 L487.1,295.8 L499.6,303.9 L501.9,306.8 L500.5,316.9 L502.9,319.4 L503.4,325.4 L506.9,327.3 L506.2,330.0 L510.7,332.9 L509.3,342.1 L512.5,345.1 L509.8,352.2 L511.9,353.5 L514.1,359.6 L510.9,362.9 L518.7,371.5 L527.0,372.9 L528.3,376.8 L534.1,379.5 L534.1,382.4 L539.7,387.3 L537.2,391.6 L541.0,398.1 L540.7,400.2 L536.0,404.2 L528.8,407.2 L527.9,412.5 L516.8,423.6 L514.1,417.0 L513.8,412.8 L506.9,414.4 L508.5,420.5 L484.6,428.1 L464.8,433.4 L465.4,436.4 L472.6,442.9 L467.1,449.0 L459.1,453.9 L452.5,460.8 L450.9,463.9 L451.7,468.1 L447.8,472.8 L446.6,477.9 L442.2,484.4 L439.2,484.9 L438.9,487.9 L433.0,483.3 L427.2,481.2 L425.6,485.6 L423.1,485.5 L425.2,489.5 L419.7,489.4 L419.3,534.3 L416.4,534.3 L408.4,527.1 L405.7,521.6 L395.9,515.7 L392.1,511.8 L384.6,508.9 L376.4,502.7 L373.5,498.2 L370.3,498.1 L370.2,503.8 L356.7,503.5 L356.4,520.5 L360.4,520.7 L360.1,533.8 L356.2,533.8 L355.9,549.4 L331.8,549.0 L328.5,543.1 L314.0,542.9 L314.0,540.8 L290.8,539.9 L290.3,532.2 L294.7,531.4 L298.3,525.8 L301.5,518.5 L301.8,511.8 L309.5,504.6 L310.2,486.7 L312.5,484.9 L324.0,487.1 L327.1,486.7 L330.3,481.9 L333.2,481.5 L338.7,475.2 L348.8,469.9 L354.1,465.4 L348.8,461.2 L344.3,453.6 L337.3,451.2 L335.5,447.9 L324.7,442.5 L321.3,436.0 L318.2,435.7 L327.0,427.3 L325.1,425.0 L311.8,432.3 L283.4,366.8 L307.0,354.0 L317.7,349.0 L329.5,348.1 L339.1,352.6 L338.0,356.5 L353.7,363.9 L352.7,377.0 L356.1,378.7 L366.6,375.9 L363.5,372.4 L362.9,368.9 L379.3,359.1 L376.2,356.8 L375.1,353.2 L381.1,347.0 L383.5,342.0 L388.0,339.8 L385.4,336.1 L386.7,334.2 L392.7,334.1 L398.4,331.3 L404.1,316.2 L402.0,297.6 L405.2,284.2 L409.6,272.7 L405.9,267.5 L401.7,265.8 L399.8,262.7 L395.0,260.0 L403.5,253.0 L399.7,248.3 L400.0,240.8 L404.2,240.1 L406.3,236.5 L404.7,233.8 L399.7,233.1 L400.2,223.9 L408.7,218.5 L408.9,221.4 L412.6,220.0 L418.5,223.9 Z">
  <desc xmlns="http://www.highcharts.com/svg/namespace">
    <geoid>1312</geoid>
    <name>Congressional District 12</name>
    <hc-middle-x>0.53</hc-middle-x>
    <hc-middle-y>0.56</hc-middle-y>
    <hc-key>us-ga-12</hc-key>
    <hc-a2>CD</hc-a2>
  </desc>
</path>

<path fill="#CEE3F5" stroke="#6E6E6E" stroke-width="0.4" id="US.GA.13" d="M157.4,205.3 L160.0,207.9 L162.8,205.6 L167.7,205.8 L169.1,209.5 L174.7,218.7 L178.1,218.9 L177.8,223.0 L172.8,222.8 L172.0,229.0 L162.9,230.1 L164.4,234.6 L158.1,235.9 L155.1,243.6 L147.3,243.4 L145.4,242.1 L145.1,248.8 L140.9,248.7 L140.0,245.5 L141.4,240.2 L139.6,236.1 L142.2,232.2 L140.4,228.8 L137.1,233.1 L131.4,228.2 L129.3,230.1 L129.4,234.0 L124.1,234.4 L120.4,230.7 L119.7,226.7 L120.8,221.8 L112.7,224.2 L84.1,223.0 L88.6,221.7 L86.5,218.1 L89.6,213.9 L77.6,213.6 L79.2,182.7 L82.0,183.7 L101.3,182.4 L101.9,165.3 L111.7,166.7 L116.9,165.6 L116.0,167.3 L122.1,169.4 L122.6,165.0 L126.6,166.4 L128.5,170.1 L126.8,175.5 L131.8,179.2 L112.3,195.9 L124.1,202.5 L128.8,203.0 L129.6,206.7 L133.6,207.2 L133.3,212.4 L142.3,212.8 L154.8,219.9 L157.4,220.0 L157.5,215.0 L160.1,212.6 L157.7,211.3 Z">
  <desc xmlns="http://www.highcharts.com/svg/namespace">
    <geoid>1313</geoid>
    <name>Congressional District 13</name>
    <hc-middle-x>0.22</hc-middle-x>
    <hc-middle-y>0.45</hc-middle-y>
    <hc-key>us-ga-13</hc-key>
    <hc-a2>CD</hc-a2>
  </desc>
</path>

<path fill="#CEE3F5" stroke="#6E6E6E" stroke-width="0.4" id="US.GA.10" d="M172.0,229.0 L172.8,222.8 L177.8,223.0 L178.1,218.9 L184.5,224.3 L186.0,228.4 L193.1,230.7 L200.5,231.3 L206.1,222.9 L208.5,224.6 L209.2,221.0 L212.2,220.4 L214.3,215.1 L211.7,213.0 L216.7,207.1 L216.7,204.2 L193.4,185.7 L202.8,177.6 L209.6,171.5 L204.9,170.7 L200.1,167.2 L202.5,163.9 L199.6,157.3 L201.9,155.5 L199.9,151.3 L203.4,148.9 L201.4,146.5 L202.6,142.5 L206.2,138.5 L208.9,139.7 L215.2,135.6 L221.2,144.8 L225.4,144.8 L228.1,148.1 L234.9,147.2 L246.3,150.6 L249.3,160.5 L259.8,155.0 L264.8,160.0 L272.2,159.3 L275.8,162.7 L279.4,160.1 L282.4,162.5 L282.6,156.1 L286.7,154.3 L288.6,156.3 L295.7,151.4 L300.8,149.5 L309.9,154.4 L317.9,150.7 L321.8,151.4 L323.1,154.8 L330.6,157.1 L332.7,159.7 L337.6,159.6 L343.4,161.7 L350.7,159.8 L358.5,158.9 L365.1,160.8 L369.8,164.4 L376.1,167.3 L378.3,171.1 L387.1,178.4 L388.9,178.0 L396.5,182.9 L402.2,187.9 L402.3,190.3 L408.6,195.2 L410.2,203.0 L414.4,208.7 L414.8,213.4 L421.1,218.6 L418.5,223.9 L412.6,220.0 L408.9,221.4 L408.7,218.5 L400.2,223.9 L399.7,233.1 L404.7,233.8 L406.3,236.5 L404.2,240.1 L400.0,240.8 L399.7,248.3 L403.5,253.0 L395.0,260.0 L399.8,262.7 L401.7,265.8 L405.9,267.5 L409.6,272.7 L405.2,284.2 L402.0,297.6 L404.1,316.2 L398.4,331.3 L392.7,334.1 L386.7,334.2 L385.4,336.1 L388.0,339.8 L383.5,342.0 L381.1,347.0 L375.1,353.2 L376.2,356.8 L379.3,359.1 L362.9,368.9 L363.5,372.4 L366.6,375.9 L356.1,378.7 L352.7,377.0 L353.7,363.9 L338.0,356.5 L339.1,352.6 L329.5,348.1 L317.7,349.0 L319.1,341.4 L317.5,341.4 L318.3,335.1 L315.9,329.5 L309.3,326.8 L306.4,321.2 L306.8,318.8 L302.3,311.9 L298.7,309.3 L297.6,305.0 L294.6,303.9 L290.6,307.0 L292.7,309.6 L287.2,307.5 L268.0,315.6 L261.2,285.8 L260.0,276.9 L235.5,279.9 L211.4,283.6 L210.8,276.4 L204.1,272.9 L183.5,272.3 L173.2,271.9 L173.6,264.5 L183.9,253.1 L181.0,246.4 L177.9,247.1 L174.7,242.2 L171.1,242.1 L171.3,237.0 L174.5,233.1 Z">
  <desc xmlns="http://www.highcharts.com/svg/namespace">
    <geoid>1310</geoid>
    <name>Congressional District 10</name>
    <hc-middle-x>0.58</hc-middle-x>
    <hc-middle-y>0.43</hc-middle-y>
    <hc-key>us-ga-10</hc-key>
    <hc-a2>CD</hc-a2>
  </desc>
</path>

<path fill="#CEE3F5" stroke="#6E6E6E" stroke-width="0.4" id="US.GA.03" d="M59.9,371.7 L57.3,366.2 L51.7,360.6 L50.1,352.4 L47.3,350.7 L49.5,348.8 L46.6,344.9 L45.5,340.0 L46.8,337.6 L43.2,333.1 L45.9,331.3 L40.4,325.6 L42.2,321.5 L38.6,316.7 L34.0,280.6 L24.2,199.5 L30.2,200.0 L49.3,193.6 L52.2,195.0 L60.3,191.8 L61.1,177.3 L70.7,179.6 L79.2,182.7 L77.6,213.6 L89.6,213.9 L86.5,218.1 L88.6,221.7 L84.1,223.0 L112.7,224.2 L120.8,221.8 L119.7,226.7 L120.4,230.7 L124.1,234.4 L129.4,234.0 L129.3,230.1 L131.4,228.2 L137.1,233.1 L140.4,228.8 L142.2,232.2 L139.6,236.1 L141.4,240.2 L140.0,245.5 L140.9,248.7 L145.1,248.8 L145.4,242.1 L147.3,243.4 L155.1,243.6 L158.1,235.9 L164.4,234.6 L162.9,230.1 L172.0,229.0 L174.5,233.1 L171.3,237.0 L171.1,242.1 L174.7,242.2 L177.9,247.1 L181.0,246.4 L183.9,253.1 L173.6,264.5 L173.2,271.9 L183.5,272.3 L182.1,310.1 L180.8,312.5 L172.1,312.2 L171.6,324.5 L171.4,331.5 L168.3,331.6 L161.1,347.9 L156.4,340.7 L148.8,336.9 L144.2,336.7 L137.8,332.7 L134.4,325.0 L131.5,326.8 L125.9,321.1 L124.9,317.9 L115.6,323.3 L99.3,322.9 L100.2,325.2 L98.7,361.6 L71.8,360.8 L69.0,362.8 L71.9,367.9 L64.8,373.0 L65.3,376.1 L61.7,374.2 L64.7,369.1 Z">
  <desc xmlns="http://www.highcharts.com/svg/namespace">
    <geoid>1303</geoid>
    <name>Congressional District 3</name>
    <hc-middle-x>0.45</hc-middle-x>
    <hc-middle-y>0.52</hc-middle-y>
    <hc-key>us-ga-03</hc-key>
    <hc-a2>CD</hc-a2>
  </desc>
</path>

<path fill="#CEE3F5" stroke="#6E6E6E" stroke-width="0.4" id="US.GA.09" d="M120.4,4.4 L157.1,5.7 L191.7,7.0 L243.0,8.5 L243.0,7.7 L257.5,8.0 L305.6,7.9 L306.8,9.2 L301.3,19.1 L299.2,18.4 L293.3,25.6 L288.7,25.9 L287.7,30.8 L285.7,30.1 L285.2,34.5 L283.0,33.6 L278.5,39.0 L278.1,44.4 L274.8,49.4 L276.3,54.9 L280.5,56.6 L286.6,61.6 L287.8,64.4 L293.5,66.8 L296.5,66.1 L300.3,72.9 L302.0,73.1 L306.8,80.0 L313.1,85.0 L318.5,85.6 L329.5,84.8 L334.0,88.9 L337.5,103.2 L342.3,106.8 L343.7,113.1 L348.0,117.9 L348.6,126.7 L351.3,135.2 L356.5,138.3 L360.7,144.7 L360.0,146.4 L366.3,153.6 L369.8,164.4 L365.1,160.8 L358.5,158.9 L350.7,159.8 L343.4,161.7 L337.6,159.6 L332.7,159.7 L330.6,157.1 L323.1,154.8 L321.8,151.4 L317.9,150.7 L309.9,154.4 L300.8,149.5 L295.7,151.4 L288.6,156.3 L286.7,154.3 L282.6,156.1 L282.4,162.5 L279.4,160.1 L275.8,162.7 L272.2,159.3 L264.8,160.0 L259.8,155.0 L249.3,160.5 L246.3,150.6 L234.9,147.2 L228.1,148.1 L225.4,144.8 L221.2,144.8 L215.2,135.6 L208.9,139.7 L206.2,138.5 L185.1,128.7 L185.9,123.2 L184.0,115.3 L178.6,116.3 L177.3,114.9 L167.4,118.1 L161.2,117.7 L162.1,96.3 L141.5,95.6 L141.5,94.7 L143.1,93.4 L140.5,88.1 L133.2,85.8 L131.5,82.0 L135.7,82.9 L132.9,76.3 L138.9,78.4 L140.7,70.5 L114.0,69.6 L114.7,42.8 L117.0,39.1 L116.9,35.7 L120.8,33.8 L124.4,28.9 L119.6,23.9 Z">
  <desc xmlns="http://www.highcharts.com/svg/namespace">
    <geoid>1309</geoid>
    <name>Congressional District 9</name>
    <hc-middle-x>0.37</hc-middle-x>
    <hc-middle-y>0.40</hc-middle-y>
    <hc-key>us-ga-09</hc-key>
    <hc-a2>CD</hc-a2>
  </desc>
</path>

<path fill="#CEE3F5" stroke="#6E6E6E" stroke-width="0.4" id="US.GA.02" d="M59.9,371.7 L64.7,369.1 L61.7,374.2 L65.3,376.1 L64.8,373.0 L71.9,367.9 L69.0,362.8 L71.8,360.8 L98.7,361.6 L100.2,325.2 L99.3,322.9 L115.6,323.3 L124.9,317.9 L125.9,321.1 L131.5,326.8 L134.4,325.0 L137.8,332.7 L144.2,336.7 L148.8,336.9 L156.4,340.7 L161.1,347.9 L168.3,331.6 L171.4,331.5 L171.6,324.5 L200.8,325.5 L204.3,323.1 L211.4,323.5 L217.5,325.8 L219.1,324.3 L225.9,324.5 L229.5,327.2 L230.2,320.4 L237.8,320.6 L240.1,324.0 L241.9,322.3 L247.0,327.7 L251.2,330.4 L249.4,333.7 L239.7,342.9 L238.8,341.9 L235.4,349.3 L237.0,353.8 L227.5,351.7 L224.1,349.3 L221.7,357.8 L221.1,373.1 L217.5,372.7 L217.4,376.9 L211.2,378.1 L211.0,385.4 L206.1,386.5 L205.8,394.9 L203.3,394.9 L204.5,398.6 L204.0,408.5 L234.5,409.6 L232.0,481.6 L207.9,481.1 L204.9,480.1 L201.3,475.9 L190.1,473.8 L187.1,475.9 L185.8,480.5 L182.0,480.3 L184.4,486.1 L178.4,493.2 L180.7,501.2 L183.1,503.2 L181.8,529.1 L179.4,588.3 L165.0,587.8 L164.3,601.9 L165.5,606.7 L169.4,612.1 L167.5,647.7 L130.2,644.6 L67.4,639.3 L63.4,633.2 L61.6,633.2 L58.7,623.1 L60.2,619.4 L58.3,612.6 L53.3,605.4 L53.8,601.5 L50.9,599.7 L50.4,587.8 L47.4,579.3 L42.4,571.9 L39.6,570.6 L38.9,565.1 L40.4,561.8 L39.0,553.4 L41.6,551.7 L42.6,546.8 L41.7,541.1 L45.4,531.6 L44.9,525.8 L49.2,515.4 L47.2,510.6 L47.6,503.5 L43.9,500.1 L39.3,491.7 L40.3,486.5 L38.3,467.6 L42.1,459.7 L46.6,455.6 L45.7,453.0 L50.9,443.4 L50.2,437.4 L51.7,433.8 L49.8,427.1 L56.8,420.0 L62.9,417.7 L61.5,414.8 L67.1,414.8 L72.5,408.8 L67.0,403.0 L58.4,399.1 L58.3,395.7 L61.0,393.3 L61.8,385.9 L63.9,384.4 L60.3,380.1 Z">
  <desc xmlns="http://www.highcharts.com/svg/namespace">
    <geoid>1302</geoid>
    <name>Congressional District 2</name>
    <hc-middle-x>0.41</hc-middle-x>
    <hc-middle-y>0.43</hc-middle-y>
    <hc-key>us-ga-02</hc-key>
    <hc-a2>CD</hc-a2>
  </desc>
</path>

<path fill="#CEE3F5" stroke="#6E6E6E" stroke-width="0.4" id="US.GA.07" d="M202.8,177.6 L193.5,172.4 L192.3,175.3 L186.9,175.6 L187.4,173.1 L183.5,171.6 L180.0,173.1 L178.7,170.7 L172.6,171.6 L171.5,166.1 L168.5,165.2 L162.3,167.2 L159.6,165.0 L158.2,159.0 L159.6,154.8 L164.1,152.4 L169.6,153.6 L172.8,148.5 L177.0,148.5 L180.3,146.0 L174.7,145.2 L170.3,142.9 L166.1,138.3 L160.6,136.6 L161.0,125.3 L161.1,121.3 L161.2,117.7 L167.4,118.1 L177.3,114.9 L178.6,116.3 L184.0,115.3 L185.9,123.2 L185.1,128.7 L206.2,138.5 L202.6,142.5 L201.4,146.5 L203.4,148.9 L199.9,151.3 L201.9,155.5 L199.6,157.3 L202.5,163.9 L200.1,167.2 L204.9,170.7 L209.6,171.5 Z">
  <desc xmlns="http://www.highcharts.com/svg/namespace">
    <geoid>1307</geoid>
    <name>Congressional District 7</name>
    <hc-middle-x>0.55</hc-middle-x>
    <hc-middle-y>0.57</hc-middle-y>
    <hc-key>us-ga-07</hc-key>
    <hc-a2>CD</hc-a2>
  </desc>
</path>

<path fill="#CEE3F5" stroke="#6E6E6E" stroke-width="0.4" id="US.GA.06" d="M162.3,167.2 L166.3,172.0 L169.3,173.4 L161.4,176.5 L155.9,177.6 L154.9,174.9 L152.6,176.4 L152.8,173.8 L149.7,176.9 L148.3,173.7 L148.5,168.8 L143.7,168.1 L143.8,165.4 L139.9,164.8 L134.5,168.4 L132.3,165.1 L134.7,161.3 L130.3,159.1 L129.4,160.6 L125.3,154.5 L127.2,151.5 L124.6,151.3 L124.2,145.9 L121.7,140.3 L140.6,141.4 L140.9,136.1 L147.9,134.0 L148.3,128.4 L152.4,125.0 L161.0,125.3 L160.6,136.6 L166.1,138.3 L170.3,142.9 L174.7,145.2 L180.3,146.0 L177.0,148.5 L172.8,148.5 L169.6,153.6 L164.1,152.4 L159.6,154.8 L158.2,159.0 L159.6,165.0 Z">
  <desc xmlns="http://www.highcharts.com/svg/namespace">
    <geoid>1306</geoid>
    <name>Congressional District 6</name>
    <hc-middle-x>0.50</hc-middle-x>
    <hc-middle-y>0.41</hc-middle-y>
    <hc-key>us-ga-06</hc-key>
    <hc-a2>CD</hc-a2>
  </desc>
</path>

<path fill="#CEE3F5" stroke="#6E6E6E" stroke-width="0.4" id="US.GA.08" d="M167.5,647.7 L169.4,612.1 L165.5,606.7 L164.3,601.9 L165.0,587.8 L179.4,588.3 L181.8,529.1 L183.1,503.2 L180.7,501.2 L178.4,493.2 L184.4,486.1 L182.0,480.3 L185.8,480.5 L187.1,475.9 L190.1,473.8 L201.3,475.9 L204.9,480.1 L207.9,481.1 L232.0,481.6 L234.5,409.6 L204.0,408.5 L204.5,398.6 L203.3,394.9 L205.8,394.9 L206.1,386.5 L211.0,385.4 L211.2,378.1 L217.4,376.9 L217.5,372.7 L221.1,373.1 L221.7,357.8 L224.1,349.3 L227.5,351.7 L237.0,353.8 L235.4,349.3 L238.8,341.9 L239.7,342.9 L249.4,333.7 L251.2,330.4 L247.0,327.7 L241.9,322.3 L240.1,324.0 L237.8,320.6 L230.2,320.4 L229.5,327.2 L225.9,324.5 L219.1,324.3 L217.5,325.8 L211.4,323.5 L204.3,323.1 L200.8,325.5 L171.6,324.5 L172.1,312.2 L180.8,312.5 L182.1,310.1 L183.5,272.3 L204.1,272.9 L210.8,276.4 L211.4,283.6 L235.5,279.9 L260.0,276.9 L261.2,285.8 L268.0,315.6 L287.2,307.5 L292.7,309.6 L290.6,307.0 L294.6,303.9 L297.6,305.0 L298.7,309.3 L302.3,311.9 L306.8,318.8 L306.4,321.2 L309.3,326.8 L315.9,329.5 L318.3,335.1 L317.5,341.4 L319.1,341.4 L317.7,349.0 L307.0,354.0 L283.4,366.8 L311.8,432.3 L325.1,425.0 L327.0,427.3 L318.2,435.7 L321.3,436.0 L324.7,442.5 L335.5,447.9 L337.3,451.2 L344.3,453.6 L348.8,461.2 L354.1,465.4 L348.8,469.9 L338.7,475.2 L333.2,481.5 L330.3,481.9 L327.1,486.7 L324.0,487.1 L312.5,484.9 L310.2,486.7 L309.5,504.6 L301.8,511.8 L301.5,518.5 L298.3,525.8 L294.7,531.4 L290.3,532.2 L290.8,539.9 L314.0,540.8 L314.0,542.9 L328.5,543.1 L331.8,549.0 L355.9,549.4 L355.6,562.7 L351.3,560.6 L346.7,562.0 L346.3,570.2 L350.0,576.1 L311.7,575.4 L311.7,588.4 L310.9,622.2 L304.0,624.7 L304.4,617.1 L301.9,610.4 L284.5,609.7 L284.5,599.8 L279.3,603.4 L279.5,606.1 L276.2,606.0 L276.3,611.9 L278.8,616.0 L286.0,613.8 L283.4,616.1 L286.8,619.5 L288.1,627.6 L293.9,627.8 L293.7,631.6 L291.0,631.6 L289.5,635.8 L289.0,658.2 L242.4,654.1 Z">
  <desc xmlns="http://www.highcharts.com/svg/namespace">
    <geoid>1308</geoid>
    <name>Congressional District 8</name>
    <hc-middle-x>0.46</hc-middle-x>
    <hc-middle-y>0.70</hc-middle-y>
    <hc-key>us-ga-08</hc-key>
    <hc-a2>CD</hc-a2>
  </desc>
</path>

<path fill="#CEE3F5" stroke="#6E6E6E" stroke-width="0.4" id="US.GA.14" d="M120.4,4.4 L119.6,23.9 L124.4,28.9 L120.8,33.8 L116.9,35.7 L117.0,39.1 L114.7,42.8 L114.0,69.6 L140.7,70.5 L138.9,78.4 L132.9,76.3 L135.7,82.9 L131.5,82.0 L133.2,85.8 L140.5,88.1 L143.1,93.4 L141.5,94.7 L139.3,95.6 L122.0,94.8 L122.1,90.3 L103.5,89.5 L103.4,91.9 L83.4,91.2 L76.5,90.5 L76.2,92.7 L69.9,91.2 L69.7,98.0 L67.5,97.9 L66.6,117.8 L64.0,117.7 L63.0,137.1 L101.2,138.6 L100.3,158.7 L102.3,158.8 L101.9,165.3 L101.9,165.3 L101.3,182.4 L82.0,183.7 L79.2,182.7 L70.7,179.6 L61.1,177.3 L60.3,191.8 L52.2,195.0 L49.3,193.6 L30.2,200.0 L24.2,199.5 L15.3,123.9 L11.8,96.0 L3.8,35.1 L0.0,0.0 L16.0,1.0 L79.9,2.9 Z">
  <desc xmlns="http://www.highcharts.com/svg/namespace">
    <geoid>1314</geoid>
    <name>Congressional District 14</name>
    <hc-middle-x>0.42</hc-middle-x>
    <hc-middle-y>0.28</hc-middle-y>
    <hc-key>us-ga-14</hc-key>
    <hc-a2>CD</hc-a2>
  </desc>
</path>
</g>

<text x="350" y="714" text-anchor="middle" font-family="Verdana" font-size="8" stroke-opacity="0.6">Copyright (c) 2020 Highsoft AS, Based on data from The United States Census Bureau</text>

</svg>