<?xml version="1.0" encoding="utf-8" standalone="no"?>
<!DOCTYPE svg PUBLIC "-//W3C//DTD SVG 1.1//EN" "http://www.w3.org/Graphics/SVG/1.1/DTD/svg11.dtd">

<svg version="1.1" height="700pt" width="700pt" xmlns="http://www.w3.org/2000/svg" xmlns:xlink="http://www.w3.org/1999/xlink">
<desc>
Map version: 2.1.0
Copyright (c) 2023 Highsoft AS, Based on data from The United States Census Bureau
</desc>
<title>Louisiana congressional districts</title>
<g id="special">

<g id="US.LA">
  <desc xmlns="http://www.highcharts.com/svg/namespace">
    <labelrank>0</labelrank>
    <hasc>US.LA</hasc>
    <alt-name>LA</alt-name>
    <woe-id>2347577</woe-id>
    <subregion>West South Central</subregion>
    <fips>US22</fips>
    <postal-code>LA</postal-code>
    <name>Louisiana</name>
    <country>United States of America</country>
    <type-en>State</type-en>
    <region>South</region>
    <longitude>-91.9991</longitude>
    <woe-name>Louisiana</woe-name>
    <latitude>30.5274</latitude>
    <woe-label>Louisiana, US, United States</woe-label>
    <type>State</type>
    <hc-key>us-la</hc-key>
    <hc-a2>LO</hc-a2>
  </desc>
</g>

<g id="US">
  <desc xmlns="http://www.highcharts.com/svg/namespace">
    <name>United States of America</name>
    <labelrank>2</labelrank>
    <country-abbrev>U.S.A.</country-abbrev>
    <subregion>Northern America</subregion>
    <region-wb>North America</region-wb>
    <iso-a3>USA</iso-a3>
    <iso-a2>US</iso-a2>
    <woe-id>23424977</woe-id>
    <continent>North America</continent>
    <hc-key>us</hc-key>
    <hc-a2>US</hc-a2>
  </desc>
</g>

<path fill="#CEE3F5" stroke="#6E6E6E" stroke-width="0.4" id="US.LA.01" d="M456.2,606.4 L452.4,608.6 L442.0,611.3 L439.6,610.4 L446.7,607.4 L449.1,608.3 Z M487.4,608.6 L480.6,607.9 L474.2,604.6 L482.2,606.0 Z M505.0,604.2 L496.6,607.5 L500.3,604.3 L503.6,603.0 Z M539.7,582.0 L539.5,578.6 L545.9,575.6 L548.8,575.5 L541.5,580.0 Z M652.3,539.1 L647.0,539.8 L651.5,538.0 L655.1,535.2 Z M527.6,536.8 L530.7,536.7 L539.1,540.3 L538.0,542.1 L543.1,546.1 L539.9,546.9 L537.7,544.0 L535.2,544.3 L533.2,541.7 L529.5,542.6 L525.7,539.2 Z M616.7,494.0 L617.9,498.4 L614.4,494.9 L612.5,495.1 L609.5,499.8 L608.8,493.3 L611.1,489.1 Z M630.0,487.4 L634.2,488.4 L637.8,487.2 L636.2,493.6 Z M636.2,470.0 L636.9,467.9 L642.9,466.0 L642.8,468.6 Z M631.2,471.2 L636.8,461.0 L636.6,463.5 L633.6,468.8 Z M698.1,485.4 L694.9,491.9 L694.2,488.4 L698.6,477.6 L698.2,467.1 L693.9,449.0 L698.7,458.6 L700.0,469.1 L699.1,481.9 Z M643.9,446.7 L644.8,448.9 L648.4,445.5 L648.1,450.2 L644.1,452.7 L639.8,447.2 L636.7,449.1 L634.2,448.1 L629.3,450.9 L627.4,448.3 L636.5,444.4 L635.4,441.7 L645.5,435.3 L640.0,442.3 L644.3,444.5 Z M502.4,452.6 L508.6,455.7 L517.1,457.8 L525.6,456.0 L534.7,455.0 L540.0,452.9 L549.1,446.0 L551.3,443.5 L549.0,446.9 L542.9,452.5 L538.0,455.2 L529.8,456.3 L526.8,465.6 L518.1,465.4 L521.6,466.9 L525.2,470.9 L523.7,475.4 L519.7,468.3 L513.6,473.3 L511.2,473.1 L508.9,468.1 L511.2,464.1 L508.2,465.0 L506.6,459.8 L502.2,461.0 Z M558.1,357.7 L561.2,362.7 L561.0,367.1 L563.7,373.6 L566.9,376.2 L568.8,381.0 L575.0,384.6 L580.2,390.2 L580.4,396.8 L583.7,403.6 L587.9,407.2 L586.8,412.3 L588.1,420.0 L590.2,424.8 L596.4,431.5 L600.8,429.1 L601.8,430.6 L597.4,434.2 L593.3,435.5 L591.0,433.6 L594.6,432.4 L593.2,430.7 L586.9,432.7 L580.3,431.9 L578.2,432.9 L572.7,429.7 L572.1,423.5 L562.1,424.7 L554.3,419.8 L548.9,421.0 L542.8,420.1 L537.9,411.3 L530.5,405.7 L519.0,402.1 L512.8,401.4 L508.5,402.0 L502.4,407.5 L496.5,416.5 L491.7,416.4 L488.8,418.5 L473.6,419.9 L473.0,407.8 L469.3,400.0 L465.0,396.4 L464.3,390.6 L462.0,387.7 L461.9,381.7 L468.7,382.6 L468.6,378.7 L473.1,378.4 L474.0,372.4 L471.0,366.9 L473.7,364.5 L475.2,367.4 L486.3,378.4 L484.5,383.3 L492.7,384.2 L505.1,384.2 L504.9,369.8 L503.7,365.4 L502.9,352.1 L537.8,358.3 Z M370.1,566.8 L371.2,564.7 L372.1,562.6 L375.4,560.9 L375.7,560.2 L378.2,565.7 L381.4,567.5 L385.4,566.2 L385.4,571.4 L383.7,575.8 L386.7,579.9 L392.2,576.7 L390.2,573.6 L392.5,569.6 L390.8,566.3 L383.2,560.1 L377.4,556.3 L378.2,554.3 L387.0,550.4 L398.1,543.6 L407.6,545.4 L431.0,548.1 L436.7,535.1 L437.4,524.0 L442.3,526.8 L440.8,524.2 L444.6,523.2 L448.5,517.9 L445.8,514.9 L445.2,509.6 L446.9,506.7 L442.8,504.7 L443.7,501.4 L449.0,503.8 L459.1,504.5 L457.7,507.4 L460.3,509.2 L462.6,506.8 L470.4,511.8 L472.0,508.4 L468.9,503.2 L477.6,492.9 L482.8,496.9 L490.7,499.4 L492.3,507.4 L494.4,509.5 L510.3,509.3 L518.0,489.8 L517.8,486.2 L523.3,483.9 L526.9,490.3 L524.3,493.2 L529.8,497.0 L532.5,494.4 L531.3,487.6 L536.8,483.8 L539.9,476.8 L541.9,475.7 L548.9,477.4 L551.4,481.3 L553.4,479.1 L550.7,473.8 L544.1,472.6 L538.4,469.4 L541.2,462.6 L543.3,461.8 L548.1,463.9 L553.9,460.3 L555.7,462.8 L561.7,456.6 L561.4,461.2 L565.4,468.5 L571.3,469.1 L578.0,466.1 L579.1,466.7 L576.5,472.1 L582.4,478.0 L585.4,479.0 L591.4,478.2 L593.7,476.4 L597.1,470.1 L597.4,461.2 L600.0,457.6 L606.4,454.4 L609.4,446.7 L616.4,449.8 L616.5,453.0 L621.9,449.6 L624.7,451.1 L622.9,453.7 L617.3,454.0 L614.9,456.7 L615.8,460.5 L613.1,462.6 L616.6,463.7 L622.4,463.3 L624.6,466.2 L620.6,469.2 L619.6,466.7 L616.0,469.8 L619.8,474.0 L622.1,471.6 L625.3,472.8 L621.8,477.2 L625.4,474.9 L630.1,477.0 L626.5,479.1 L628.4,481.1 L623.9,484.4 L626.9,489.6 L623.2,489.9 L619.7,495.1 L620.4,490.9 L618.7,490.9 L613.6,485.3 L610.1,484.8 L610.8,487.5 L602.1,497.8 L596.6,497.9 L594.3,503.4 L596.9,507.5 L605.4,507.5 L604.3,509.4 L611.0,514.5 L608.7,515.4 L603.5,511.6 L591.8,509.9 L585.1,505.9 L581.1,504.7 L587.7,509.9 L585.9,510.9 L592.5,517.1 L590.0,518.3 L578.7,515.6 L574.0,516.6 L578.7,518.2 L578.7,521.5 L582.7,526.0 L584.3,531.2 L586.5,533.6 L593.4,536.7 L606.2,541.1 L604.5,546.5 L607.3,546.4 L607.1,549.0 L603.7,550.7 L607.6,553.0 L618.7,550.9 L621.9,552.8 L631.8,552.5 L626.9,554.8 L626.0,557.0 L631.3,559.4 L639.5,557.4 L644.7,563.6 L649.1,560.5 L650.3,557.7 L654.2,561.8 L657.1,567.1 L658.9,565.9 L662.8,571.1 L658.2,575.4 L663.9,576.9 L666.5,579.8 L670.5,580.4 L669.5,578.2 L673.9,578.0 L677.0,581.1 L674.3,581.2 L677.1,584.4 L674.2,583.7 L671.6,585.6 L671.5,582.5 L665.5,587.1 L665.2,589.0 L675.5,588.7 L670.2,598.3 L669.1,594.3 L665.4,593.3 L667.5,599.6 L664.6,596.4 L658.8,604.6 L658.5,607.4 L661.3,612.5 L659.5,613.5 L653.7,607.5 L648.5,598.2 L645.3,596.1 L645.2,602.4 L637.2,604.9 L635.0,611.5 L628.9,621.1 L623.6,624.2 L624.3,617.8 L627.4,614.9 L631.7,608.1 L631.4,603.9 L636.8,601.5 L639.9,594.4 L641.2,587.8 L639.2,587.7 L638.7,592.6 L636.6,592.0 L635.8,584.7 L633.6,587.4 L634.8,594.3 L633.1,596.8 L627.0,599.4 L623.9,594.1 L624.7,591.2 L620.7,589.3 L612.8,575.9 L616.5,574.6 L611.1,573.4 L611.0,578.1 L603.0,575.4 L595.8,574.4 L593.7,570.0 L588.3,567.7 L587.4,568.7 L567.1,565.9 L575.2,561.5 L576.9,557.3 L576.0,553.9 L572.4,555.9 L572.4,549.6 L568.0,551.7 L564.8,547.5 L566.7,541.5 L561.9,540.7 L560.9,546.4 L554.3,541.4 L549.8,543.5 L545.8,542.2 L530.8,532.7 L525.9,531.3 L522.3,532.9 L516.9,526.5 L513.4,533.0 L517.1,533.9 L512.6,535.2 L515.3,536.1 L522.5,542.3 L532.5,544.6 L538.9,549.3 L535.7,551.2 L535.3,555.2 L537.4,559.0 L537.4,563.1 L534.4,560.0 L536.1,565.4 L540.2,568.3 L537.6,570.6 L535.7,568.1 L532.3,569.1 L533.9,571.6 L529.8,571.9 L529.2,576.5 L531.5,580.8 L535.9,580.1 L532.2,588.7 L525.5,595.4 L512.4,602.7 L509.9,594.5 L506.4,590.4 L507.7,587.1 L508.8,578.0 L506.1,574.4 L503.9,580.0 L502.1,576.6 L497.0,571.1 L496.7,568.4 L493.9,569.7 L492.7,574.7 L489.5,579.1 L489.3,570.6 L484.8,562.6 L482.3,561.6 L481.4,566.3 L477.3,572.0 L475.4,569.7 L471.3,572.1 L465.2,570.1 L467.0,567.9 L461.0,569.8 L460.5,572.4 L464.3,573.2 L461.9,579.5 L462.3,583.5 L458.9,579.8 L456.2,586.1 L457.2,587.1 L456.4,595.6 L454.8,592.3 L451.7,592.6 L451.6,596.2 L447.7,599.0 L442.6,597.4 L441.6,599.6 L434.2,598.2 L438.9,594.7 L437.9,591.8 L435.4,592.9 L428.5,589.7 L428.8,593.6 L423.5,597.3 L417.2,591.6 L410.0,588.6 L406.2,590.1 L407.7,584.6 L403.4,583.7 L400.9,587.9 L396.9,588.2 L390.8,584.1 L376.6,581.9 L368.9,578.6 L363.0,573.4 L362.5,571.4 L365.5,571.7 Z M576.7,455.6 L576.1,456.3 L574.8,455.1 Z M586.9,439.0 L582.7,444.2 L582.3,448.1 L578.4,449.6 L577.3,455.1 L575.6,452.4 L576.8,449.8 L582.0,448.1 L582.5,443.3 Z M568.5,442.8 L572.3,437.1 L573.5,433.1 L575.0,435.9 L573.5,433.1 L572.6,438.2 Z M558.6,437.4 L560.7,441.9 L565.2,444.5 L561.0,445.3 L558.2,440.4 Z M553.4,440.3 L555.2,436.7 L557.6,437.1 L555.2,437.8 Z">
  <desc xmlns="http://www.highcharts.com/svg/namespace">
    <geoid>2201</geoid>
    <name>Congressional District 1</name>
    <hc-middle-x>0.28</hc-middle-x>
    <hc-middle-y>0.72</hc-middle-y>
    <hc-key>us-la-01</hc-key>
    <hc-a2>CD</hc-a2>
  </desc>
</path>

<path fill="#CEE3F5" stroke="#6E6E6E" stroke-width="0.4" id="US.LA.03" d="M298.7,544.1 L293.5,545.1 L282.9,538.1 L269.1,532.3 L267.0,528.0 L270.1,525.3 L278.6,523.2 L281.3,520.1 L290.4,521.5 L296.1,526.2 L300.3,528.3 L309.5,529.9 L309.2,533.4 L302.5,537.8 L301.5,543.6 Z M378.2,554.3 L377.4,556.3 L377.2,552.6 L376.4,551.2 L377.2,551.4 Z M372.1,562.6 L373.9,560.4 L375.7,560.2 L375.4,560.9 Z M362.5,571.4 L362.8,569.0 L367.7,569.0 L370.1,566.8 L365.5,571.7 Z M273.6,402.9 L279.0,404.7 L288.2,401.2 L295.8,404.7 L313.7,404.4 L311.6,403.4 L307.7,395.6 L305.9,395.8 L303.2,388.7 L310.5,388.6 L318.8,397.0 L320.4,401.4 L320.4,406.9 L317.9,408.9 L320.9,410.6 L321.6,417.4 L326.1,423.0 L326.1,425.5 L329.5,427.8 L336.8,428.0 L341.2,429.6 L339.3,433.2 L341.8,436.2 L343.3,444.7 L343.0,449.1 L353.1,449.0 L356.2,456.3 L358.2,455.5 L369.2,455.4 L371.1,458.4 L375.7,459.6 L373.8,464.3 L370.7,464.5 L374.6,477.1 L377.0,478.7 L379.0,485.7 L381.3,488.1 L391.0,491.0 L393.6,494.8 L392.6,499.2 L394.1,501.8 L391.9,505.3 L393.0,512.5 L392.3,519.4 L395.4,521.8 L387.8,524.6 L384.5,527.2 L382.6,524.6 L376.6,531.5 L376.6,531.5 L376.6,531.5 L376.6,531.5 L376.6,531.5 L376.6,531.8 L375.9,532.3 L375.9,532.3 L375.9,532.3 L375.9,532.3 L375.8,532.4 L375.8,532.4 L375.8,532.4 L377.3,529.0 L375.8,524.9 L371.8,524.1 L372.5,529.9 L368.7,533.1 L369.3,538.0 L366.6,544.2 L363.6,542.3 L348.9,537.7 L350.7,533.2 L348.8,531.8 L345.7,534.1 L334.7,536.9 L333.2,534.7 L333.1,528.0 L329.8,519.5 L323.8,521.6 L319.7,520.0 L321.4,507.0 L320.3,505.0 L314.0,503.4 L301.4,504.2 L294.1,508.2 L290.7,508.9 L288.0,502.7 L291.2,495.6 L294.5,498.8 L294.9,496.1 L292.0,491.6 L284.0,490.7 L280.5,493.5 L273.6,491.6 L271.5,496.7 L260.0,501.1 L253.5,506.6 L252.6,501.8 L250.3,501.2 L247.3,504.2 L244.4,502.3 L245.9,508.5 L248.5,512.9 L251.4,511.0 L258.2,510.6 L252.6,513.9 L257.3,524.4 L263.7,521.8 L268.4,523.2 L264.3,524.2 L261.9,526.6 L262.9,529.4 L253.4,529.6 L248.4,531.3 L234.6,537.9 L229.5,537.8 L198.2,532.2 L179.8,527.3 L164.6,521.2 L148.4,513.7 L133.4,507.5 L124.3,504.6 L110.2,501.3 L103.0,500.8 L90.6,502.9 L76.1,501.6 L61.9,502.7 L37.6,506.5 L26.5,510.7 L25.2,512.2 L18.8,504.4 L16.9,498.1 L17.6,495.6 L26.7,493.0 L32.0,488.1 L35.0,472.1 L31.0,468.0 L37.8,462.3 L41.3,455.9 L38.8,453.2 L44.2,445.2 L41.4,433.8 L42.8,421.3 L37.8,419.6 L34.6,414.6 L35.8,405.7 L37.9,403.9 L72.1,404.1 L72.1,390.5 L85.7,390.7 L85.6,404.2 L119.5,404.2 L119.5,401.0 L128.3,400.9 L128.3,398.7 L167.0,398.8 L167.2,391.0 L186.4,391.0 L186.6,392.1 L237.9,391.9 L238.0,398.7 L247.1,398.6 L247.2,404.2 L254.7,403.0 L256.8,404.6 L256.4,410.8 L257.7,414.0 L251.9,415.3 L251.8,419.8 L258.2,414.9 L259.6,410.2 L263.3,407.5 L267.2,410.3 L273.2,406.9 Z">
  <desc xmlns="http://www.highcharts.com/svg/namespace">
    <geoid>2203</geoid>
    <name>Congressional District 3</name>
    <hc-middle-x>0.47</hc-middle-x>
    <hc-middle-y>0.41</hc-middle-y>
    <hc-key>us-la-03</hc-key>
    <hc-a2>CD</hc-a2>
  </desc>
</path>

<path fill="#CEE3F5" stroke="#6E6E6E" stroke-width="0.4" id="US.LA.05" d="M258.1,1.8 L349.9,1.1 L375.5,0.9 L370.9,7.6 L369.6,13.7 L376.0,17.1 L380.2,12.8 L379.5,4.6 L383.2,3.1 L385.8,5.0 L386.4,9.4 L388.8,12.7 L388.2,18.5 L383.7,23.3 L378.8,25.5 L376.5,30.5 L377.4,35.5 L376.2,38.9 L378.3,41.3 L381.5,41.1 L389.9,43.4 L389.6,47.2 L381.6,52.8 L378.2,57.0 L378.4,60.8 L381.9,65.5 L391.7,61.9 L394.7,55.8 L397.7,61.0 L394.2,65.5 L387.8,69.8 L390.9,73.2 L396.0,75.1 L400.1,78.5 L398.6,81.0 L392.1,78.7 L386.1,71.0 L383.3,78.6 L386.4,85.1 L395.1,88.6 L398.8,86.0 L401.7,86.6 L403.2,90.5 L399.6,93.1 L398.3,98.8 L400.7,101.2 L410.5,102.9 L413.3,97.6 L415.2,97.5 L410.1,108.4 L406.0,111.6 L402.2,109.7 L401.2,112.2 L403.2,116.5 L399.4,126.0 L398.9,121.1 L393.2,118.4 L391.3,121.9 L388.3,120.7 L384.0,123.9 L381.8,122.8 L377.8,125.6 L376.6,131.6 L378.2,135.4 L385.0,136.5 L388.9,135.0 L392.6,136.4 L391.8,127.7 L399.1,130.5 L398.9,133.4 L395.6,136.9 L394.6,140.4 L389.2,143.4 L389.4,147.7 L386.8,148.2 L382.0,143.4 L378.5,146.3 L380.8,148.6 L387.6,150.0 L389.9,153.0 L385.9,157.4 L378.4,158.5 L375.3,161.9 L376.4,168.4 L369.5,174.9 L365.3,176.9 L368.1,181.8 L366.9,184.9 L363.2,184.5 L361.5,177.6 L355.8,179.2 L353.0,187.8 L352.4,193.2 L362.7,191.3 L366.4,193.3 L363.8,195.5 L352.0,195.3 L348.4,200.9 L348.1,214.9 L345.2,216.3 L339.8,215.0 L335.3,211.2 L332.8,216.2 L336.9,220.3 L345.3,218.5 L347.8,219.6 L347.3,222.8 L342.6,227.0 L338.4,228.8 L333.8,228.6 L332.9,236.2 L333.6,242.3 L339.2,249.5 L339.2,253.5 L334.9,254.5 L331.2,250.6 L330.5,245.4 L326.8,245.6 L325.1,249.4 L326.4,252.6 L329.4,251.8 L329.2,257.5 L334.3,261.9 L333.3,268.3 L328.0,270.4 L317.1,269.8 L316.7,274.9 L323.3,279.8 L324.2,283.4 L319.6,290.4 L319.5,293.1 L327.7,300.6 L327.7,304.9 L324.3,308.3 L318.1,311.1 L438.2,309.2 L557.5,305.8 L568.5,305.5 L571.8,306.6 L572.1,310.4 L568.4,314.5 L569.9,317.8 L566.2,321.8 L567.1,326.6 L564.3,328.9 L565.4,332.0 L558.6,341.7 L560.1,345.8 L557.8,349.4 L558.1,357.7 L537.8,358.3 L502.9,352.1 L503.7,365.4 L504.9,369.8 L505.1,384.2 L492.7,384.2 L484.5,383.3 L486.3,378.4 L475.2,367.4 L473.7,364.5 L471.0,366.9 L474.0,372.4 L473.1,378.4 L468.6,378.7 L468.7,382.6 L461.9,381.7 L460.9,335.6 L451.4,335.9 L450.0,331.4 L447.6,334.5 L434.9,329.1 L426.4,326.2 L422.0,329.2 L417.0,327.0 L409.9,328.5 L407.5,333.9 L402.4,332.8 L402.0,335.8 L399.4,335.0 L398.0,331.4 L392.4,331.9 L386.4,335.2 L387.2,345.5 L385.3,342.6 L380.2,346.9 L377.9,344.3 L380.3,337.5 L378.4,337.1 L376.0,341.2 L375.7,338.1 L372.0,337.3 L371.9,341.9 L366.5,347.6 L364.5,354.3 L360.9,356.8 L363.0,363.5 L359.0,362.9 L356.5,353.4 L352.7,347.8 L343.5,351.4 L335.6,350.9 L329.8,352.4 L324.3,349.5 L325.6,346.0 L331.5,343.0 L334.5,332.2 L333.7,327.8 L330.0,323.8 L321.3,323.7 L322.0,326.6 L328.1,328.9 L329.1,334.2 L320.2,335.6 L315.2,333.1 L315.2,327.2 L317.2,322.0 L314.7,315.4 L315.3,312.3 L311.9,308.5 L307.9,310.1 L303.6,308.3 L295.7,315.5 L296.6,322.9 L296.1,332.3 L293.7,333.7 L296.6,336.3 L295.8,340.4 L301.0,344.3 L302.5,351.1 L305.8,357.2 L306.2,362.1 L304.2,363.8 L305.0,367.8 L302.9,378.7 L306.2,385.1 L303.2,388.7 L305.9,395.8 L307.7,395.6 L311.6,403.4 L313.7,404.4 L295.8,404.7 L288.2,401.2 L279.0,404.7 L273.6,402.9 L268.2,398.5 L262.2,396.2 L257.5,399.8 L257.0,396.7 L258.8,389.3 L256.1,386.7 L258.8,378.4 L264.5,376.6 L270.6,379.7 L275.7,376.6 L267.8,369.8 L272.0,368.7 L268.2,362.5 L274.8,362.2 L268.2,357.3 L269.1,355.7 L265.2,348.1 L259.9,345.6 L264.3,344.3 L263.2,338.5 L266.5,338.5 L266.3,334.8 L238.5,335.2 L238.4,328.4 L232.7,321.7 L232.6,317.2 L226.0,317.5 L224.5,314.7 L219.1,311.7 L214.3,315.8 L206.1,319.3 L205.2,326.0 L200.0,328.4 L195.4,327.7 L174.4,327.7 L174.2,328.7 L160.5,329.1 L160.4,310.4 L159.9,310.4 L159.6,273.2 L157.4,269.8 L153.0,267.6 L153.0,263.2 L141.8,260.9 L139.5,258.7 L144.1,258.6 L144.0,255.4 L148.6,255.3 L148.5,252.1 L151.8,252.0 L154.0,247.5 L161.8,244.0 L166.3,238.5 L174.2,232.2 L168.6,227.7 L169.1,225.9 L162.6,219.8 L158.1,219.4 L149.2,215.7 L149.9,210.4 L146.4,207.6 L141.8,207.3 L140.2,202.2 L141.4,191.6 L143.3,191.3 L145.2,184.2 L144.2,179.9 L149.1,180.9 L150.9,170.7 L153.5,165.8 L152.4,160.8 L150.1,159.7 L151.8,156.6 L148.5,141.9 L145.1,135.1 L161.4,135.2 L160.4,132.8 L163.4,129.9 L163.2,125.4 L166.6,121.3 L166.6,98.4 L166.2,87.9 L152.8,87.8 L152.5,65.2 L154.5,64.2 L155.3,58.9 L154.2,53.3 L159.5,48.2 L159.4,40.8 L184.4,40.7 L192.9,42.3 L196.3,47.0 L199.8,46.6 L199.9,54.3 L213.4,54.3 L213.4,67.8 L232.1,68.0 L238.7,66.0 L239.0,63.2 L255.9,50.9 L260.6,43.7 L259.2,39.8 L260.5,34.7 L257.0,23.9 L257.2,13.3 L256.3,7.8 Z">
  <desc xmlns="http://www.highcharts.com/svg/namespace">
    <geoid>2205</geoid>
    <name>Congressional District 5</name>
    <hc-middle-x>0.30</hc-middle-x>
    <hc-middle-y>0.38</hc-middle-y>
    <hc-key>us-la-05</hc-key>
    <hc-a2>CD</hc-a2>
  </desc>
</path>

<path fill="#CEE3F5" stroke="#6E6E6E" stroke-width="0.4" id="US.LA.02" d="M502.2,461.0 L506.6,459.8 L508.2,465.0 L511.2,464.1 L508.9,468.1 L511.2,473.1 L513.6,473.3 L519.7,468.3 L523.7,475.4 L525.2,470.9 L521.6,466.9 L518.1,465.4 L526.8,465.6 L529.8,456.3 L538.0,455.2 L542.9,452.5 L549.0,446.9 L551.3,443.5 L552.8,441.7 L553.4,440.3 L555.2,437.8 L557.6,437.1 L558.3,437.2 L558.6,437.4 L558.2,440.4 L561.0,445.3 L565.2,444.5 L567.7,445.0 L568.5,442.8 L572.6,438.2 L573.5,433.1 L575.0,435.9 L571.9,442.6 L573.8,444.7 L575.6,441.0 L581.7,438.3 L578.2,435.0 L581.8,433.9 L587.6,438.0 L586.9,439.0 L582.5,443.3 L582.0,448.1 L576.8,449.8 L575.6,452.4 L577.3,455.1 L576.7,455.6 L574.8,455.1 L570.0,452.4 L566.4,452.4 L561.7,456.6 L555.7,462.8 L553.9,460.3 L548.1,463.9 L543.3,461.8 L541.2,462.6 L538.4,469.4 L544.1,472.6 L550.7,473.8 L553.4,479.1 L551.4,481.3 L548.9,477.4 L541.9,475.7 L539.9,476.8 L536.8,483.8 L531.3,487.6 L532.5,494.4 L529.8,497.0 L524.3,493.2 L526.9,490.3 L523.3,483.9 L517.8,486.2 L518.0,489.8 L510.3,509.3 L494.4,509.5 L492.3,507.4 L490.7,499.4 L482.8,496.9 L477.6,492.9 L475.9,486.1 L471.0,483.6 L468.1,479.5 L448.7,479.7 L447.4,477.9 L443.8,479.2 L442.2,477.1 L434.5,475.5 L434.6,477.7 L421.1,478.3 L421.3,482.6 L418.0,482.7 L416.0,490.0 L409.1,486.1 L410.8,485.0 L408.9,479.3 L412.8,475.8 L407.8,470.3 L401.9,471.2 L397.3,469.7 L395.1,471.8 L391.4,469.5 L387.1,472.5 L385.4,464.5 L388.5,461.9 L393.1,463.6 L393.4,454.5 L391.1,454.6 L390.9,447.5 L393.2,447.5 L393.0,442.4 L386.2,438.4 L382.9,442.8 L384.3,437.9 L381.2,436.5 L377.8,444.3 L372.2,443.0 L368.6,445.0 L367.0,441.9 L367.7,434.8 L372.3,432.9 L374.2,428.2 L377.6,428.0 L379.6,422.3 L374.3,421.9 L368.4,426.0 L361.9,424.3 L362.7,420.5 L361.0,411.2 L362.9,414.9 L366.3,410.2 L366.6,406.8 L370.4,405.5 L367.2,403.0 L373.2,404.8 L376.2,397.8 L371.8,396.6 L376.0,393.0 L378.0,393.8 L377.8,386.2 L374.8,378.6 L376.9,369.9 L382.0,370.0 L381.1,375.6 L383.9,375.6 L383.2,378.9 L389.4,382.7 L385.7,383.3 L392.7,386.4 L392.2,389.6 L389.1,390.7 L391.5,394.3 L382.3,394.4 L381.8,398.5 L377.8,399.3 L372.2,409.4 L374.8,411.9 L378.5,410.9 L384.0,412.0 L385.6,415.0 L400.3,415.5 L402.1,414.9 L397.0,431.2 L399.6,431.9 L401.7,427.1 L415.5,427.9 L417.5,433.1 L412.2,436.6 L411.1,439.5 L415.5,440.7 L416.5,446.3 L453.0,437.4 L454.1,428.9 L458.8,429.7 L460.2,434.2 L465.6,436.9 L466.0,445.6 L472.5,446.3 L472.3,451.3 L474.1,446.9 L477.7,448.5 L474.6,452.0 L477.1,456.7 L476.8,462.6 L483.2,463.4 L487.1,465.9 L491.0,464.1 L486.9,469.0 L494.9,472.3 L502.4,466.9 Z">
  <desc xmlns="http://www.highcharts.com/svg/namespace">
    <geoid>2202</geoid>
    <name>Congressional District 2</name>
    <hc-middle-x>0.31</hc-middle-x>
    <hc-middle-y>0.67</hc-middle-y>
    <hc-key>us-la-02</hc-key>
    <hc-a2>CD</hc-a2>
  </desc>
</path>

<path fill="#CEE3F5" stroke="#6E6E6E" stroke-width="0.4" id="US.LA.06" d="M375.8,532.3 L375.8,532.4 L375.8,532.4 L377.3,529.0 L377.0,530.9 L376.5,531.4 L376.6,531.5 L376.6,531.5 L376.6,531.5 L375.9,532.3 L375.9,532.3 L375.9,532.3 L375.9,532.3 Z M461.9,381.7 L462.0,387.7 L464.3,390.6 L465.0,396.4 L469.3,400.0 L473.0,407.8 L473.6,419.9 L488.8,418.5 L491.7,416.4 L496.5,416.5 L494.3,419.6 L484.6,428.4 L481.6,433.3 L481.1,440.4 L483.8,446.0 L488.5,449.9 L494.0,452.0 L502.4,452.6 L502.2,461.0 L502.4,466.9 L494.9,472.3 L486.9,469.0 L491.0,464.1 L487.1,465.9 L483.2,463.4 L476.8,462.6 L477.1,456.7 L474.6,452.0 L477.7,448.5 L474.1,446.9 L472.3,451.3 L472.5,446.3 L466.0,445.6 L465.6,436.9 L460.2,434.2 L458.8,429.7 L454.1,428.9 L453.0,437.4 L416.5,446.3 L415.5,440.7 L411.1,439.5 L412.2,436.6 L417.5,433.1 L415.5,427.9 L401.7,427.1 L399.6,431.9 L397.0,431.2 L402.1,414.9 L400.3,415.5 L385.6,415.0 L384.0,412.0 L378.5,410.9 L374.8,411.9 L372.2,409.4 L377.8,399.3 L381.8,398.5 L382.3,394.4 L391.5,394.3 L389.1,390.7 L392.2,389.6 L392.7,386.4 L385.7,383.3 L389.4,382.7 L383.2,378.9 L383.9,375.6 L381.1,375.6 L382.0,370.0 L376.9,369.9 L374.8,378.6 L377.8,386.2 L378.0,393.8 L376.0,393.0 L371.8,396.6 L376.2,397.8 L373.2,404.8 L367.2,403.0 L370.4,405.5 L366.6,406.8 L366.3,410.2 L362.9,414.9 L361.0,411.2 L362.7,420.5 L361.9,424.3 L368.4,426.0 L374.3,421.9 L379.6,422.3 L377.6,428.0 L374.2,428.2 L372.3,432.9 L367.7,434.8 L367.0,441.9 L368.6,445.0 L372.2,443.0 L377.8,444.3 L381.2,436.5 L384.3,437.9 L382.9,442.8 L386.2,438.4 L393.0,442.4 L393.2,447.5 L390.9,447.5 L391.1,454.6 L393.4,454.5 L393.1,463.6 L388.5,461.9 L385.4,464.5 L387.1,472.5 L391.4,469.5 L395.1,471.8 L397.3,469.7 L401.9,471.2 L407.8,470.3 L412.8,475.8 L408.9,479.3 L410.8,485.0 L409.1,486.1 L416.0,490.0 L418.0,482.7 L421.3,482.6 L421.1,478.3 L434.6,477.7 L434.5,475.5 L442.2,477.1 L443.8,479.2 L447.4,477.9 L448.7,479.7 L468.1,479.5 L471.0,483.6 L475.9,486.1 L477.6,492.9 L468.9,503.2 L472.0,508.4 L470.4,511.8 L462.6,506.8 L460.3,509.2 L457.7,507.4 L459.1,504.5 L449.0,503.8 L443.7,501.4 L442.8,504.7 L446.9,506.7 L445.2,509.6 L445.8,514.9 L448.5,517.9 L444.6,523.2 L440.8,524.2 L442.3,526.8 L437.4,524.0 L436.7,535.1 L431.0,548.1 L407.6,545.4 L398.1,543.6 L387.0,550.4 L378.2,554.3 L377.2,551.4 L376.4,551.2 L373.6,550.0 L370.8,542.3 L372.9,534.8 L375.8,532.4 L375.8,532.4 L375.8,532.4 L375.8,532.4 L375.9,532.3 L375.9,532.3 L375.9,532.3 L375.9,532.3 L376.6,531.8 L376.6,531.5 L376.6,531.5 L376.6,531.5 L382.6,524.6 L384.5,527.2 L387.8,524.6 L395.4,521.8 L392.3,519.4 L393.0,512.5 L391.9,505.3 L394.1,501.8 L392.6,499.2 L393.6,494.8 L391.0,491.0 L381.3,488.1 L379.0,485.7 L377.0,478.7 L374.6,477.1 L370.7,464.5 L373.8,464.3 L375.7,459.6 L371.1,458.4 L369.2,455.4 L358.2,455.5 L356.2,456.3 L353.1,449.0 L343.0,449.1 L343.3,444.7 L341.8,436.2 L339.3,433.2 L341.2,429.6 L336.8,428.0 L329.5,427.8 L326.1,425.5 L326.1,423.0 L321.6,417.4 L320.9,410.6 L317.9,408.9 L320.4,406.9 L320.4,401.4 L318.8,397.0 L310.5,388.6 L303.2,388.7 L306.2,385.1 L302.9,378.7 L305.0,367.8 L304.2,363.8 L306.2,362.1 L305.8,357.2 L302.5,351.1 L301.0,344.3 L295.8,340.4 L296.6,336.3 L293.7,333.7 L296.1,332.3 L296.6,322.9 L295.7,315.5 L303.6,308.3 L307.9,310.1 L311.9,308.5 L315.3,312.3 L314.7,315.4 L317.2,322.0 L315.2,327.2 L315.2,333.1 L320.2,335.6 L329.1,334.2 L328.1,328.9 L322.0,326.6 L321.3,323.7 L330.0,323.8 L333.7,327.8 L334.5,332.2 L331.5,343.0 L325.6,346.0 L324.3,349.5 L329.8,352.4 L335.6,350.9 L343.5,351.4 L352.7,347.8 L356.5,353.4 L359.0,362.9 L363.0,363.5 L360.9,356.8 L364.5,354.3 L366.5,347.6 L371.9,341.9 L372.0,337.3 L375.7,338.1 L376.0,341.2 L378.4,337.1 L380.3,337.5 L377.9,344.3 L380.2,346.9 L385.3,342.6 L387.2,345.5 L386.4,335.2 L392.4,331.9 L398.0,331.4 L399.4,335.0 L402.0,335.8 L402.4,332.8 L407.5,333.9 L409.9,328.5 L417.0,327.0 L422.0,329.2 L426.4,326.2 L434.9,329.1 L447.6,334.5 L450.0,331.4 L451.4,335.9 L460.9,335.6 Z">
  <desc xmlns="http://www.highcharts.com/svg/namespace">
    <geoid>2206</geoid>
    <name>Congressional District 6</name>
    <hc-middle-x>0.64</hc-middle-x>
    <hc-middle-y>0.36</hc-middle-y>
    <hc-key>us-la-06</hc-key>
    <hc-a2>CD</hc-a2>
  </desc>
</path>

<path fill="#CEE3F5" stroke="#6E6E6E" stroke-width="0.4" id="US.LA.04" d="M258.1,1.8 L256.3,7.8 L257.2,13.3 L257.0,23.9 L260.5,34.7 L259.2,39.8 L260.6,43.7 L255.9,50.9 L239.0,63.2 L238.7,66.0 L232.1,68.0 L213.4,67.8 L213.4,54.3 L199.9,54.3 L199.8,46.6 L196.3,47.0 L192.9,42.3 L184.4,40.7 L159.4,40.8 L159.5,48.2 L154.2,53.3 L155.3,58.9 L154.5,64.2 L152.5,65.2 L152.8,87.8 L166.2,87.9 L166.6,98.4 L166.6,121.3 L163.2,125.4 L163.4,129.9 L160.4,132.8 L161.4,135.2 L145.1,135.1 L148.5,141.9 L151.8,156.6 L150.1,159.7 L152.4,160.8 L153.5,165.8 L150.9,170.7 L149.1,180.9 L144.2,179.9 L145.2,184.2 L143.3,191.3 L141.4,191.6 L140.2,202.2 L141.8,207.3 L146.4,207.6 L149.9,210.4 L149.2,215.7 L158.1,219.4 L162.6,219.8 L169.1,225.9 L168.6,227.7 L174.2,232.2 L166.3,238.5 L161.8,244.0 L154.0,247.5 L151.8,252.0 L148.5,252.1 L148.6,255.3 L144.0,255.4 L144.1,258.6 L139.5,258.7 L141.8,260.9 L153.0,263.2 L153.0,267.6 L157.4,269.8 L159.6,273.2 L159.9,310.4 L160.4,310.4 L160.5,329.1 L174.2,328.7 L174.4,327.7 L195.4,327.7 L200.0,328.4 L205.2,326.0 L206.1,319.3 L214.3,315.8 L219.1,311.7 L224.5,314.7 L226.0,317.5 L232.6,317.2 L232.7,321.7 L238.4,328.4 L238.5,335.2 L266.3,334.8 L266.5,338.5 L263.2,338.5 L264.3,344.3 L259.9,345.6 L265.2,348.1 L269.1,355.7 L268.2,357.3 L274.8,362.2 L268.2,362.5 L272.0,368.7 L267.8,369.8 L275.7,376.6 L270.6,379.7 L264.5,376.6 L258.8,378.4 L256.1,386.7 L258.8,389.3 L257.0,396.7 L257.5,399.8 L262.2,396.2 L268.2,398.5 L273.6,402.9 L273.2,406.9 L267.2,410.3 L263.3,407.5 L259.6,410.2 L258.2,414.9 L251.8,419.8 L251.9,415.3 L257.7,414.0 L256.4,410.8 L256.8,404.6 L254.7,403.0 L247.2,404.2 L247.1,398.6 L238.0,398.7 L237.9,391.9 L186.6,392.1 L186.4,391.0 L167.2,391.0 L167.0,398.8 L128.3,398.7 L128.3,400.9 L119.5,401.0 L119.5,404.2 L85.6,404.2 L85.7,390.7 L72.1,390.5 L72.1,404.1 L37.9,403.9 L43.8,398.4 L41.3,389.8 L41.7,386.1 L38.2,382.8 L41.8,375.4 L46.5,374.4 L46.0,367.2 L49.7,362.7 L52.9,361.6 L54.8,355.3 L55.2,348.9 L58.2,348.4 L59.6,342.3 L62.1,341.8 L63.4,337.4 L61.4,336.0 L62.8,332.3 L60.7,329.7 L64.0,327.8 L62.8,325.3 L66.3,323.7 L66.4,318.4 L60.7,316.0 L61.9,309.9 L65.4,310.7 L69.6,307.0 L67.4,305.9 L67.0,300.5 L62.3,297.0 L65.5,294.2 L64.3,287.9 L66.2,283.4 L58.9,286.3 L56.6,280.2 L57.8,276.3 L55.1,275.9 L54.8,270.0 L52.3,270.4 L46.0,263.9 L48.6,257.4 L52.5,254.6 L48.3,255.4 L47.9,250.5 L43.8,248.5 L45.5,244.4 L38.0,239.5 L42.9,232.6 L39.6,232.5 L38.3,229.9 L33.3,230.6 L28.9,226.1 L26.2,219.3 L29.0,216.9 L28.7,207.8 L32.3,203.5 L29.3,202.4 L29.6,199.2 L26.8,196.0 L28.7,192.4 L26.5,188.3 L21.8,184.8 L22.1,182.7 L18.5,176.9 L18.5,173.3 L15.7,175.0 L14.7,170.8 L9.3,169.7 L3.4,160.2 L0.0,157.3 L1.5,0.0 L55.8,0.4 L137.0,0.9 L162.6,1.3 Z">
  <desc xmlns="http://www.highcharts.com/svg/namespace">
    <geoid>2204</geoid>
    <name>Congressional District 4</name>
    <hc-middle-x>0.30</hc-middle-x>
    <hc-middle-y>0.40</hc-middle-y>
    <hc-key>us-la-04</hc-key>
    <hc-a2>CD</hc-a2>
  </desc>
</path>
</g>

<text x="350" y="714" text-anchor="middle" font-family="Verdana" font-size="8" stroke-opacity="0.6">Copyright (c) 2023 Highsoft AS, Based on data from The United States Census Bureau</text>

</svg>