<?xml version="1.0" encoding="utf-8" standalone="no"?>
<!DOCTYPE svg PUBLIC "-//W3C//DTD SVG 1.1//EN" "http://www.w3.org/Graphics/SVG/1.1/DTD/svg11.dtd">

<svg version="1.1" height="700pt" width="700pt" xmlns="http://www.w3.org/2000/svg" xmlns:xlink="http://www.w3.org/1999/xlink">
<desc>
Map version: 2.1.0
Copyright (c) 2023 Highsoft AS, Based on data from The United States Census Bureau
</desc>
<title>New Jersey congressional districts</title>
<g id="special">

<g id="US">
  <desc xmlns="http://www.highcharts.com/svg/namespace">
    <name>United States of America</name>
    <labelrank>2</labelrank>
    <country-abbrev>U.S.A.</country-abbrev>
    <subregion>Northern America</subregion>
    <region-wb>North America</region-wb>
    <iso-a3>USA</iso-a3>
    <iso-a2>US</iso-a2>
    <woe-id>23424977</woe-id>
    <continent>North America</continent>
    <hc-key>us</hc-key>
    <hc-a2>US</hc-a2>
  </desc>
</g>

<g id="US.NJ">
  <desc xmlns="http://www.highcharts.com/svg/namespace">
    <labelrank>0</labelrank>
    <hasc>US.NJ</hasc>
    <alt-name>NJ|N.J.</alt-name>
    <woe-id>2347589</woe-id>
    <subregion>Middle Atlantic</subregion>
    <fips>US34</fips>
    <postal-code>NJ</postal-code>
    <name>New Jersey</name>
    <country>United States of America</country>
    <type-en>State</type-en>
    <region>Northeast</region>
    <longitude>-74.4653</longitude>
    <woe-name>New Jersey</woe-name>
    <latitude>40.0449</latitude>
    <woe-label>New Jersey, US, United States</woe-label>
    <type>State</type>
    <hc-key>us-nj</hc-key>
    <hc-a2>NJ</hc-a2>
  </desc>
</g>

<path fill="#CEE3F5" stroke="#6E6E6E" stroke-width="0.4" id="US.NJ.02" d="M267.2,562.7 L259.6,566.3 L252.4,565.1 L247.3,557.6 L251.2,556.0 L255.1,561.9 L258.2,563.4 L261.1,561.3 L264.3,552.6 L267.2,549.6 L265.2,544.4 L268.8,542.9 L279.8,544.4 L276.3,547.5 L273.5,555.6 Z M309.9,473.4 L309.2,476.6 L306.1,478.8 L302.3,483.4 L299.7,490.7 L292.4,492.9 L290.6,496.4 L291.6,499.2 L289.7,502.1 L282.0,504.0 L273.7,512.4 L273.4,516.4 L279.3,522.3 L282.3,527.6 L281.0,531.2 L277.6,531.8 L277.8,532.4 L275.4,525.8 L267.0,519.9 L263.7,521.9 L260.8,521.6 L256.2,518.0 L256.4,528.7 L257.6,533.7 L262.4,538.0 L261.6,542.7 L258.8,549.6 L250.6,547.1 L247.3,549.7 L244.2,555.7 L242.8,563.5 L246.9,561.4 L250.4,564.7 L255.2,575.6 L248.3,578.5 L235.3,586.9 L229.2,589.1 L231.2,583.4 L233.9,579.6 L239.9,573.5 L233.6,569.5 L226.4,578.6 L223.5,583.8 L224.6,589.1 L210.3,588.7 L204.1,590.4 L200.0,595.3 L204.1,595.5 L212.4,599.4 L224.6,595.2 L224.6,597.2 L218.3,601.5 L209.0,614.4 L204.0,617.1 L201.5,620.7 L191.0,642.9 L186.2,640.8 L181.9,644.7 L183.4,646.7 L185.7,645.3 L189.1,647.4 L189.5,650.6 L183.1,658.5 L181.2,663.0 L177.1,666.0 L171.7,667.5 L172.7,674.4 L168.3,682.3 L160.9,689.3 L152.2,694.8 L139.1,700.0 L134.3,700.0 L131.4,697.3 L131.9,691.2 L134.8,676.6 L136.6,671.7 L147.8,647.8 L149.4,636.5 L145.1,627.1 L141.5,624.5 L137.9,623.4 L128.8,623.2 L121.2,625.0 L119.1,624.3 L118.1,618.2 L115.1,617.0 L110.4,617.3 L103.4,619.0 L95.2,624.8 L91.3,624.9 L91.6,623.7 L88.4,621.6 L86.3,616.6 L86.7,611.3 L84.8,609.1 L76.7,602.7 L71.7,600.0 L70.0,594.5 L68.3,593.3 L59.8,593.2 L56.2,591.4 L52.4,582.6 L50.0,579.6 L48.0,579.3 L43.8,581.4 L40.2,577.1 L17.5,551.6 L10.7,546.8 L5.5,540.9 L4.2,535.3 L7.3,536.0 L7.8,530.5 L10.4,517.4 L9.9,512.0 L4.8,508.2 L0.5,502.8 L0.0,499.6 L4.9,494.5 L10.6,490.6 L12.6,480.4 L15.7,477.9 L18.1,473.8 L20.7,472.8 L21.5,463.2 L26.8,454.4 L33.2,451.8 L33.9,458.8 L38.3,463.6 L45.4,464.0 L48.9,459.0 L63.4,447.4 L63.8,452.4 L71.4,453.2 L73.0,460.3 L82.4,449.4 L90.2,452.5 L98.8,459.5 L98.5,469.0 L86.7,481.4 L98.8,478.8 L100.2,483.2 L111.9,483.5 L143.8,512.2 L168.4,484.7 L143.4,455.3 L145.7,451.2 L151.5,453.8 L160.4,451.3 L166.9,453.2 L174.6,462.6 L185.4,470.8 L223.4,458.4 L235.3,459.3 L259.6,455.7 L266.8,472.0 L279.1,481.8 L284.4,476.5 L287.4,480.2 L293.4,467.6 L300.0,472.7 L306.2,469.7 Z M290.3,523.0 L290.2,520.6 L293.4,512.5 L310.9,480.6 L316.9,472.2 L320.3,465.1 L315.6,478.3 L293.3,518.4 Z">
  <desc xmlns="http://www.highcharts.com/svg/namespace">
    <geoid>3402</geoid>
    <name>Congressional District 2</name>
    <hc-middle-x>0.53</hc-middle-x>
    <hc-middle-y>0.39</hc-middle-y>
    <hc-key>us-nj-02</hc-key>
    <hc-a2>CD</hc-a2>
  </desc>
</path>

<path fill="#CEE3F5" stroke="#6E6E6E" stroke-width="0.4" id="US.NJ.07" d="M136.7,292.6 L131.3,276.1 L125.0,272.8 L117.1,274.4 L110.7,269.5 L108.6,259.6 L110.3,252.7 L109.0,234.8 L102.2,227.6 L94.5,225.2 L86.1,228.4 L81.2,224.3 L80.1,204.7 L85.2,195.9 L82.4,195.3 L79.4,191.8 L84.1,179.7 L81.1,174.5 L86.5,167.0 L93.7,168.2 L99.9,163.4 L115.0,169.7 L127.8,187.9 L131.0,186.3 L145.0,166.3 L156.9,159.4 L167.4,142.1 L166.2,137.0 L174.8,128.4 L182.7,125.7 L187.2,132.0 L199.9,125.5 L206.1,119.4 L212.7,131.0 L215.6,127.2 L225.0,135.0 L222.1,139.0 L216.3,138.2 L206.1,141.8 L201.6,149.6 L205.4,151.7 L204.8,159.1 L201.2,162.1 L203.5,168.3 L198.8,173.9 L198.9,179.2 L221.3,172.4 L222.9,179.4 L227.3,181.0 L230.7,189.8 L244.6,183.6 L245.9,192.5 L257.6,183.7 L264.7,172.7 L279.5,172.2 L280.7,182.4 L283.8,188.5 L290.8,192.8 L280.8,198.7 L282.7,209.6 L277.0,215.0 L272.5,215.7 L264.7,216.7 L272.0,210.4 L264.3,206.4 L260.2,198.3 L254.2,203.2 L247.4,215.0 L227.5,226.4 L221.1,225.6 L224.5,230.8 L219.4,234.4 L212.2,230.2 L211.9,237.4 L217.1,242.5 L214.9,245.7 L218.2,254.9 L208.2,264.1 L203.9,273.1 L207.2,280.1 L200.3,278.2 L185.3,282.8 L179.5,268.8 L166.2,270.9 L167.7,280.1 L152.8,282.1 L155.8,291.1 Z">
  <desc xmlns="http://www.highcharts.com/svg/namespace">
    <geoid>3407</geoid>
    <name>Congressional District 7</name>
    <hc-middle-x>0.35</hc-middle-x>
    <hc-middle-y>0.60</hc-middle-y>
    <hc-key>us-nj-07</hc-key>
    <hc-a2>CD</hc-a2>
  </desc>
</path>

<path fill="#CEE3F5" stroke="#6E6E6E" stroke-width="0.4" id="US.NJ.01" d="M145.7,451.2 L143.4,455.3 L168.4,484.7 L143.8,512.2 L111.9,483.5 L100.2,483.2 L98.8,478.8 L86.7,481.4 L98.5,469.0 L98.8,459.5 L90.2,452.5 L82.4,449.4 L73.0,460.3 L71.4,453.2 L63.8,452.4 L63.4,447.4 L48.9,459.0 L45.4,464.0 L38.3,463.6 L33.9,458.8 L33.2,451.8 L26.8,454.4 L34.1,449.4 L33.9,447.5 L42.6,441.5 L55.1,436.0 L65.4,433.8 L73.3,432.7 L81.3,429.0 L87.2,427.4 L88.4,425.9 L92.1,426.9 L95.4,424.4 L98.6,420.5 L102.2,417.9 L98.9,413.4 L97.5,408.0 L98.4,404.6 L102.2,406.1 L105.3,402.1 L106.6,404.3 L115.4,390.2 L118.2,387.0 L121.8,390.0 L118.0,392.5 L129.6,404.4 L132.0,413.8 L139.1,423.3 Z M117.8,386.7 L116.5,387.2 L117.3,386.3 Z">
  <desc xmlns="http://www.highcharts.com/svg/namespace">
    <geoid>3401</geoid>
    <name>Congressional District 1</name>
    <hc-middle-x>0.65</hc-middle-x>
    <hc-middle-y>0.51</hc-middle-y>
    <hc-key>us-nj-01</hc-key>
    <hc-a2>CD</hc-a2>
  </desc>
</path>

<path fill="#CEE3F5" stroke="#6E6E6E" stroke-width="0.4" id="US.NJ.09" d="M359.1,124.7 L352.6,142.4 L345.3,158.4 L341.6,151.7 L336.5,154.8 L330.7,168.3 L325.8,173.8 L320.9,166.6 L314.5,166.1 L307.9,170.3 L312.3,158.1 L314.4,153.9 L299.5,143.3 L304.5,130.7 L297.5,126.1 L299.6,117.7 L305.4,117.5 L305.0,108.8 L311.6,111.8 L312.3,124.3 L323.0,125.1 L325.3,132.2 L321.1,138.6 L327.7,137.7 L339.3,140.7 L344.0,133.2 L347.7,115.2 L356.4,119.2 Z">
  <desc xmlns="http://www.highcharts.com/svg/namespace">
    <geoid>3409</geoid>
    <name>Congressional District 9</name>
    <hc-middle-x>0.45</hc-middle-x>
    <hc-middle-y>0.59</hc-middle-y>
    <hc-key>us-nj-09</hc-key>
    <hc-a2>CD</hc-a2>
  </desc>
</path>

<path fill="#CEE3F5" stroke="#6E6E6E" stroke-width="0.4" id="US.NJ.06" d="M264.7,216.7 L272.5,215.7 L277.0,215.0 L279.6,219.9 L296.3,216.3 L296.6,216.6 L295.0,225.5 L289.0,228.2 L286.5,231.4 L286.7,235.7 L285.8,242.5 L284.6,244.9 L281.8,247.1 L284.7,251.2 L287.6,257.8 L295.2,260.1 L300.7,263.2 L312.0,261.1 L317.7,261.8 L337.0,268.4 L345.7,273.8 L346.8,272.3 L345.2,268.2 L344.5,262.7 L339.9,251.4 L346.3,254.9 L348.6,260.3 L350.6,276.0 L350.5,295.3 L349.0,309.0 L346.5,324.4 L342.6,341.5 L339.6,356.9 L338.9,356.0 L345.1,327.3 L339.3,328.4 L342.8,322.0 L344.0,310.1 L338.5,311.2 L337.4,303.8 L333.2,299.1 L339.7,296.5 L349.3,287.2 L349.2,279.2 L337.6,281.2 L329.7,287.1 L325.3,273.5 L314.1,271.7 L314.8,267.2 L298.2,273.6 L300.7,289.0 L294.8,292.5 L294.4,308.9 L280.6,305.8 L282.2,300.1 L272.3,291.2 L280.2,282.9 L276.7,279.8 L281.9,273.5 L283.0,262.2 L276.6,258.3 L264.6,270.5 L266.3,266.1 L258.7,250.2 L252.7,253.0 L236.3,254.0 L242.8,249.2 L231.1,235.0 L229.6,230.8 L238.4,225.4 L243.5,219.1 Z">
  <desc xmlns="http://www.highcharts.com/svg/namespace">
    <geoid>3406</geoid>
    <name>Congressional District 6</name>
    <hc-middle-x>0.29</hc-middle-x>
    <hc-middle-y>0.15</hc-middle-y>
    <hc-key>us-nj-06</hc-key>
    <hc-a2>CD</hc-a2>
  </desc>
</path>

<path fill="#CEE3F5" stroke="#6E6E6E" stroke-width="0.4" id="US.NJ.10" d="M277.0,215.0 L282.7,209.6 L280.8,198.7 L290.8,192.8 L283.8,188.5 L280.7,182.4 L279.5,172.2 L287.1,172.0 L286.9,163.3 L294.5,149.8 L300.9,151.5 L300.8,159.9 L303.6,160.8 L299.8,172.3 L306.7,174.7 L302.8,181.6 L306.2,183.9 L312.7,180.7 L317.2,185.2 L315.6,187.5 L312.0,195.6 L307.1,191.4 L299.1,192.5 L287.6,197.3 L298.2,206.8 L297.5,207.6 L296.6,216.6 L296.3,216.3 L279.6,219.9 Z M314.4,197.7 L320.1,186.9 L318.7,183.7 L322.4,178.5 L329.5,176.9 L330.9,183.6 L316.8,199.7 Z">
  <desc xmlns="http://www.highcharts.com/svg/namespace">
    <geoid>3410</geoid>
    <name>Congressional District 10</name>
    <hc-middle-x>0.28</hc-middle-x>
    <hc-middle-y>0.79</hc-middle-y>
    <hc-key>us-nj-10</hc-key>
    <hc-a2>CD</hc-a2>
  </desc>
</path>

<path fill="#CEE3F5" stroke="#6E6E6E" stroke-width="0.4" id="US.NJ.12" d="M178.9,338.0 L174.8,329.1 L158.9,318.8 L153.2,305.9 L136.7,292.6 L155.8,291.1 L152.8,282.1 L167.7,280.1 L166.2,270.9 L179.5,268.8 L185.3,282.8 L200.3,278.2 L207.2,280.1 L203.9,273.1 L208.2,264.1 L218.2,254.9 L214.9,245.7 L217.1,242.5 L211.9,237.4 L212.2,230.2 L219.4,234.4 L224.5,230.8 L221.1,225.6 L227.5,226.4 L247.4,215.0 L254.2,203.2 L260.2,198.3 L264.3,206.4 L272.0,210.4 L264.7,216.7 L243.5,219.1 L238.4,225.4 L229.6,230.8 L231.1,235.0 L242.8,249.2 L236.3,254.0 L252.7,253.0 L258.7,250.2 L266.3,266.1 L264.6,270.5 L276.6,258.3 L283.0,262.2 L281.9,273.5 L276.7,279.8 L280.2,282.9 L272.3,291.2 L261.1,302.9 L257.8,310.0 L225.0,328.3 L225.5,323.8 L216.9,314.0 L201.4,321.1 L198.2,313.9 L187.2,314.8 L181.8,323.3 L183.9,327.3 Z">
  <desc xmlns="http://www.highcharts.com/svg/namespace">
    <geoid>3412</geoid>
    <name>Congressional District 12</name>
    <hc-middle-x>0.62</hc-middle-x>
    <hc-middle-y>0.64</hc-middle-y>
    <hc-key>us-nj-12</hc-key>
    <hc-a2>CD</hc-a2>
  </desc>
</path>

<path fill="#CEE3F5" stroke="#6E6E6E" stroke-width="0.4" id="US.NJ.03" d="M281.0,531.2 L280.8,531.8 L277.8,532.4 L277.6,531.8 Z M320.3,465.1 L324.5,460.3 L322.9,467.9 L317.6,476.0 L313.7,486.2 L305.7,500.8 L295.3,518.9 L289.9,527.8 L290.3,523.0 L293.3,518.4 L315.6,478.3 Z M145.7,451.2 L139.1,423.3 L132.0,413.8 L129.6,404.4 L118.0,392.5 L121.8,390.0 L118.2,387.0 L118.9,386.2 L117.8,386.7 L117.3,386.3 L121.2,385.1 L129.9,377.0 L138.5,371.4 L155.1,366.4 L164.9,354.1 L172.4,355.9 L185.0,348.4 L189.8,337.8 L207.4,349.9 L215.2,350.9 L228.4,380.1 L249.5,432.3 L286.4,393.1 L294.2,389.5 L286.5,374.2 L289.3,373.3 L310.3,383.2 L309.9,373.2 L312.0,361.6 L321.2,350.6 L323.2,353.1 L326.7,371.1 L331.5,372.2 L327.5,375.1 L328.1,377.3 L330.5,377.8 L331.4,381.0 L328.7,382.6 L327.1,386.7 L322.5,385.9 L321.3,389.1 L318.5,390.8 L317.6,395.3 L322.1,394.1 L322.9,398.3 L320.8,404.4 L316.3,409.1 L320.5,409.8 L321.4,412.5 L317.6,417.1 L315.5,421.4 L318.0,431.6 L317.8,433.6 L313.7,438.8 L309.3,445.8 L304.8,455.7 L304.1,463.8 L310.1,466.3 L310.6,470.4 L309.9,473.4 L306.2,469.7 L300.0,472.7 L293.4,467.6 L287.4,480.2 L284.4,476.5 L279.1,481.8 L266.8,472.0 L259.6,455.7 L235.3,459.3 L223.4,458.4 L185.4,470.8 L174.6,462.6 L166.9,453.2 L160.4,451.3 L151.5,453.8 Z M339.1,361.2 L338.5,366.9 L335.2,390.6 L332.6,402.9 L329.9,425.8 L325.6,454.3 L323.9,452.3 L327.9,412.1 L329.6,397.6 L332.7,386.4 L334.0,379.6 L334.2,374.0 L332.4,372.4 L335.5,373.1 L337.8,361.1 Z">
  <desc xmlns="http://www.highcharts.com/svg/namespace">
    <geoid>3403</geoid>
    <name>Congressional District 3</name>
    <hc-middle-x>0.31</hc-middle-x>
    <hc-middle-y>0.39</hc-middle-y>
    <hc-key>us-nj-03</hc-key>
    <hc-a2>CD</hc-a2>
  </desc>
</path>

<path fill="#CEE3F5" stroke="#6E6E6E" stroke-width="0.4" id="US.NJ.11" d="M303.6,160.8 L300.8,159.9 L300.9,151.5 L294.5,149.8 L286.9,163.3 L287.1,172.0 L279.5,172.2 L264.7,172.7 L257.6,183.7 L245.9,192.5 L244.6,183.6 L230.7,189.8 L227.3,181.0 L222.9,179.4 L221.3,172.4 L198.9,179.2 L198.8,173.9 L203.5,168.3 L201.2,162.1 L204.8,159.1 L205.4,151.7 L201.6,149.6 L206.1,141.8 L216.3,138.2 L222.1,139.0 L225.0,135.0 L215.6,127.2 L212.7,131.0 L206.1,119.4 L199.9,125.5 L187.2,132.0 L182.7,125.7 L174.8,128.4 L170.1,122.8 L192.1,100.3 L192.3,90.2 L196.4,75.6 L202.8,68.7 L214.3,78.8 L225.2,85.9 L232.3,78.0 L235.9,80.6 L232.7,91.4 L244.4,87.2 L258.0,99.2 L263.0,99.1 L266.6,85.0 L276.4,81.5 L287.4,84.9 L282.8,97.1 L293.2,107.6 L305.0,108.8 L305.4,117.5 L299.6,117.7 L297.5,126.1 L304.5,130.7 L299.5,143.3 L314.4,153.9 L312.3,158.1 L304.4,157.0 Z">
  <desc xmlns="http://www.highcharts.com/svg/namespace">
    <geoid>3411</geoid>
    <name>Congressional District 11</name>
    <hc-middle-x>0.52</hc-middle-x>
    <hc-middle-y>0.47</hc-middle-y>
    <hc-key>us-nj-11</hc-key>
    <hc-a2>CD</hc-a2>
  </desc>
</path>

<path fill="#CEE3F5" stroke="#6E6E6E" stroke-width="0.4" id="US.NJ.04" d="M185.0,348.4 L185.4,344.6 L178.9,338.0 L183.9,327.3 L181.8,323.3 L187.2,314.8 L198.2,313.9 L201.4,321.1 L216.9,314.0 L225.5,323.8 L225.0,328.3 L257.8,310.0 L261.1,302.9 L272.3,291.2 L282.2,300.1 L280.6,305.8 L294.4,308.9 L294.8,292.5 L300.7,289.0 L298.2,273.6 L314.8,267.2 L314.1,271.7 L325.3,273.5 L329.7,287.1 L337.6,281.2 L349.2,279.2 L349.3,287.2 L339.7,296.5 L333.2,299.1 L337.4,303.8 L338.5,311.2 L344.0,310.1 L342.8,322.0 L339.3,328.4 L345.1,327.3 L338.9,356.0 L339.6,356.9 L339.5,357.8 L339.1,361.2 L337.8,361.1 L335.5,373.1 L332.4,372.4 L331.9,372.0 L331.5,372.2 L326.7,371.1 L323.2,353.1 L321.2,350.6 L312.0,361.6 L309.9,373.2 L310.3,383.2 L289.3,373.3 L286.5,374.2 L294.2,389.5 L286.4,393.1 L249.5,432.3 L228.4,380.1 L215.2,350.9 L207.4,349.9 L189.8,337.8 Z">
  <desc xmlns="http://www.highcharts.com/svg/namespace">
    <geoid>3404</geoid>
    <name>Congressional District 4</name>
    <hc-middle-x>0.57</hc-middle-x>
    <hc-middle-y>0.50</hc-middle-y>
    <hc-key>us-nj-04</hc-key>
    <hc-a2>CD</hc-a2>
  </desc>
</path>

<path fill="#CEE3F5" stroke="#6E6E6E" stroke-width="0.4" id="US.NJ.05" d="M174.8,128.4 L166.2,137.0 L167.4,142.1 L156.9,159.4 L145.0,166.3 L131.0,186.3 L127.8,187.9 L115.0,169.7 L99.9,163.4 L105.7,153.6 L104.2,146.4 L110.0,146.7 L112.4,139.4 L107.5,133.1 L94.5,109.7 L95.6,105.6 L104.8,98.7 L118.5,91.6 L121.3,83.9 L130.8,78.0 L125.9,76.5 L128.0,71.9 L140.8,63.2 L149.7,50.9 L154.7,39.5 L152.9,37.4 L159.2,23.2 L173.3,9.5 L177.1,3.5 L190.3,0.0 L242.0,31.2 L276.0,52.7 L290.7,61.2 L302.1,67.2 L362.6,101.8 L362.5,109.6 L360.4,121.3 L359.1,124.7 L356.4,119.2 L347.7,115.2 L344.0,133.2 L339.3,140.7 L327.7,137.7 L321.1,138.6 L325.3,132.2 L323.0,125.1 L312.3,124.3 L311.6,111.8 L305.0,108.8 L293.2,107.6 L282.8,97.1 L287.4,84.9 L276.4,81.5 L266.6,85.0 L263.0,99.1 L258.0,99.2 L244.4,87.2 L232.7,91.4 L235.9,80.6 L232.3,78.0 L225.2,85.9 L214.3,78.8 L202.8,68.7 L196.4,75.6 L192.3,90.2 L192.1,100.3 L170.1,122.8 Z">
  <desc xmlns="http://www.highcharts.com/svg/namespace">
    <geoid>3405</geoid>
    <name>Congressional District 5</name>
    <hc-middle-x>0.26</hc-middle-x>
    <hc-middle-y>0.45</hc-middle-y>
    <hc-key>us-nj-05</hc-key>
    <hc-a2>CD</hc-a2>
  </desc>
</path>

<path fill="#CEE3F5" stroke="#6E6E6E" stroke-width="0.4" id="US.NJ.08" d="M303.6,160.8 L304.4,157.0 L312.3,158.1 L307.9,170.3 L314.5,166.1 L320.9,166.6 L325.8,173.8 L330.7,168.3 L336.5,154.8 L341.6,151.7 L345.3,158.4 L341.6,165.0 L339.9,169.2 L338.5,176.1 L336.2,184.2 L332.7,188.1 L327.7,192.0 L323.7,197.2 L322.3,201.4 L314.7,204.3 L312.2,203.9 L314.4,197.7 L316.8,199.7 L330.9,183.6 L329.5,176.9 L322.4,178.5 L318.7,183.7 L318.5,183.3 L317.2,185.2 L312.7,180.7 L306.2,183.9 L302.8,181.6 L306.7,174.7 L299.8,172.3 Z M312.0,195.6 L310.5,198.8 L308.1,199.3 L301.7,203.2 L298.2,206.8 L287.6,197.3 L299.1,192.5 L307.1,191.4 Z">
  <desc xmlns="http://www.highcharts.com/svg/namespace">
    <geoid>3408</geoid>
    <name>Congressional District 8</name>
    <hc-middle-x>0.75</hc-middle-x>
    <hc-middle-y>0.51</hc-middle-y>
    <hc-key>us-nj-08</hc-key>
    <hc-a2>CD</hc-a2>
  </desc>
</path>
</g>

<text x="350" y="714" text-anchor="middle" font-family="Verdana" font-size="8" stroke-opacity="0.6">Copyright (c) 2023 Highsoft AS, Based on data from The United States Census Bureau</text>

</svg>