<?xml version="1.0" encoding="utf-8" standalone="no"?>
<!DOCTYPE svg PUBLIC "-//W3C//DTD SVG 1.1//EN" "http://www.w3.org/Graphics/SVG/1.1/DTD/svg11.dtd">

<svg version="1.1" height="700pt" width="700pt" xmlns="http://www.w3.org/2000/svg" xmlns:xlink="http://www.w3.org/1999/xlink">
<desc>
Map version: 2.1.0
Copyright (c) 2023 Highsoft AS, Based on data from The United States Census Bureau
</desc>
<title>Ohio congressional districts</title>
<g id="special">

<g id="US">
  <desc xmlns="http://www.highcharts.com/svg/namespace">
    <name>United States of America</name>
    <labelrank>2</labelrank>
    <country-abbrev>U.S.A.</country-abbrev>
    <subregion>Northern America</subregion>
    <region-wb>North America</region-wb>
    <iso-a3>USA</iso-a3>
    <iso-a2>US</iso-a2>
    <woe-id>23424977</woe-id>
    <continent>North America</continent>
    <hc-key>us</hc-key>
    <hc-a2>US</hc-a2>
  </desc>
</g>

<g id="US.OH">
  <desc xmlns="http://www.highcharts.com/svg/namespace">
    <labelrank>0</labelrank>
    <hasc>US.OH</hasc>
    <alt-name>OH|Ohio</alt-name>
    <woe-id>2347594</woe-id>
    <subregion>East North Central</subregion>
    <fips>US39</fips>
    <postal-code>OH</postal-code>
    <name>Ohio</name>
    <country>United States of America</country>
    <type-en>State</type-en>
    <region>Midwest</region>
    <longitude>-82.67189999999999</longitude>
    <woe-name>Ohio</woe-name>
    <latitude>40.0924</latitude>
    <woe-label>Ohio, US, United States</woe-label>
    <type>State</type>
    <hc-key>us-oh</hc-key>
    <hc-a2>OH</hc-a2>
  </desc>
</g>

<path fill="#CEE3F5" stroke="#6E6E6E" stroke-width="0.4" id="US.OH.13" d="M654.4,127.7 L654.6,156.1 L654.8,195.5 L626.2,195.5 L626.2,181.2 L583.0,181.1 L583.1,195.6 L570.5,195.6 L570.5,213.1 L567.6,215.5 L564.1,213.2 L559.2,214.3 L555.3,212.4 L556.1,195.5 L554.3,195.5 L554.5,180.8 L568.7,181.0 L568.7,167.0 L532.5,166.6 L531.8,172.1 L525.1,173.4 L525.1,180.1 L521.5,184.1 L525.0,188.1 L520.0,187.2 L512.3,189.3 L513.0,193.7 L510.2,195.3 L493.8,195.1 L493.0,192.3 L486.8,192.5 L490.6,187.8 L495.9,184.8 L503.0,180.8 L502.9,184.6 L508.5,182.3 L508.3,187.3 L514.6,187.8 L510.9,179.8 L506.7,180.5 L508.3,176.2 L513.8,179.3 L511.6,174.4 L498.9,174.0 L498.0,169.9 L502.0,168.9 L500.6,166.3 L492.3,166.3 L496.3,163.7 L496.0,138.5 L504.6,140.0 L506.5,148.6 L510.9,148.7 L510.9,153.2 L504.8,153.2 L505.3,157.5 L501.7,161.9 L506.6,166.4 L508.0,163.2 L513.8,160.9 L516.2,168.7 L521.9,168.8 L525.2,166.5 L525.4,138.9 L539.2,139.2 L539.0,153.5 L554.8,153.6 L554.9,139.5 L582.9,139.9 L582.9,125.0 L625.9,124.6 L627.9,122.0 L625.8,131.9 L626.0,139.9 L639.9,139.7 L639.8,124.5 L651.6,124.4 Z">
  <desc xmlns="http://www.highcharts.com/svg/namespace">
    <geoid>3913</geoid>
    <name>Congressional District 13</name>
    <hc-middle-x>0.62</hc-middle-x>
    <hc-middle-y>0.39</hc-middle-y>
    <hc-key>us-oh-13</hc-key>
    <hc-a2>CD</hc-a2>
  </desc>
</path>

<path fill="#CEE3F5" stroke="#6E6E6E" stroke-width="0.4" id="US.OH.09" d="M278.4,100.0 L278.7,85.6 L261.7,85.2 L262.3,67.0 L205.3,66.6 L197.6,70.4 L196.2,67.3 L191.3,68.6 L187.1,63.3 L187.5,56.0 L192.0,56.0 L197.8,58.5 L197.9,52.7 L201.2,53.5 L203.6,44.6 L221.4,44.5 L222.1,46.6 L233.4,50.6 L243.3,49.7 L246.6,52.0 L253.3,59.5 L257.1,62.4 L266.2,66.5 L275.1,68.0 L286.0,81.2 L297.9,85.9 L305.8,85.1 L310.0,82.3 L311.9,75.4 L314.3,75.4 L320.4,83.9 L324.3,82.5 L331.4,84.3 L333.1,89.4 L323.1,89.6 L314.8,93.3 L308.1,91.5 L294.6,94.1 L291.5,98.0 L281.8,97.9 L279.3,99.1 L289.5,100.1 L289.5,100.1 Z M482.2,116.6 L482.2,116.5 L476.5,117.4 L473.3,113.4 L467.8,110.7 L467.5,116.7 L458.9,116.3 L459.5,121.9 L455.7,123.1 L451.1,120.3 L454.3,110.6 L457.0,110.5 L458.9,105.9 L462.5,103.1 L462.2,99.1 L440.4,98.7 L430.9,98.5 L426.0,98.4 L416.7,98.3 L420.4,109.0 L413.8,106.3 L409.2,110.1 L396.8,109.9 L396.3,122.7 L384.7,121.6 L359.1,121.2 L310.9,119.3 L310.7,106.0 L295.2,105.7 L295.4,101.7 L299.3,105.3 L306.3,102.6 L313.7,98.1 L319.8,97.2 L323.9,99.9 L331.4,98.9 L338.9,101.9 L345.9,107.2 L336.9,97.9 L335.0,93.7 L340.0,99.0 L345.0,101.9 L355.1,110.5 L361.2,113.7 L371.0,113.2 L382.3,105.6 L392.4,105.4 L398.8,103.7 L410.4,97.4 L430.0,92.1 L436.3,92.0 L454.0,96.5 L459.7,96.1 L464.3,92.8 L467.6,94.2 L467.6,94.7 L469.4,95.1 L470.0,95.4 L470.0,100.5 L481.0,102.4 L482.8,108.6 Z">
  <desc xmlns="http://www.highcharts.com/svg/namespace">
    <geoid>3909</geoid>
    <name>Congressional District 9</name>
    <hc-middle-x>0.48</hc-middle-x>
    <hc-middle-y>0.82</hc-middle-y>
    <hc-key>us-oh-09</hc-key>
    <hc-a2>CD</hc-a2>
  </desc>
</path>

<path fill="#CEE3F5" stroke="#6E6E6E" stroke-width="0.4" id="US.OH.04" d="M278.4,100.0 L289.5,100.1 L289.5,100.1 L291.4,102.9 L295.4,101.7 L295.2,105.7 L310.7,106.0 L310.9,119.3 L359.1,121.2 L384.7,121.6 L396.3,122.7 L396.8,109.9 L409.2,110.1 L413.8,106.3 L420.4,109.0 L416.7,98.3 L426.0,98.4 L425.1,135.4 L429.4,136.8 L435.2,133.4 L432.1,141.3 L425.0,138.4 L410.7,138.2 L410.3,152.9 L384.4,152.1 L384.4,150.3 L355.4,149.6 L311.2,147.8 L311.6,191.1 L327.2,191.6 L325.7,247.3 L306.2,246.7 L305.7,259.6 L291.0,259.5 L286.9,262.2 L287.5,265.1 L280.1,265.1 L273.6,268.0 L273.0,283.6 L253.5,283.1 L254.2,286.0 L246.9,286.8 L245.6,337.1 L257.1,337.4 L256.7,364.3 L251.3,364.0 L206.6,362.1 L204.1,381.9 L126.0,373.6 L128.9,345.5 L99.5,342.2 L99.6,341.3 L67.4,340.6 L68.3,309.8 L65.2,308.8 L66.0,290.7 L48.5,290.0 L48.2,277.2 L48.8,273.5 L53.2,271.6 L56.2,267.4 L66.8,267.8 L67.6,244.9 L76.5,245.2 L77.4,219.5 L85.9,219.8 L86.2,211.4 L120.5,212.3 L120.9,203.7 L137.9,204.2 L138.0,201.3 L155.0,201.8 L152.6,278.0 L206.3,284.0 L206.2,285.1 L221.5,285.3 L222.3,249.6 L239.5,250.1 L239.5,247.1 L268.4,247.7 L269.5,190.7 L223.9,189.8 L224.5,160.1 L227.5,90.2 L238.6,90.3 L238.5,98.9 Z">
  <desc xmlns="http://www.highcharts.com/svg/namespace">
    <geoid>3904</geoid>
    <name>Congressional District 4</name>
    <hc-middle-x>0.24</hc-middle-x>
    <hc-middle-y>0.74</hc-middle-y>
    <hc-key>us-oh-04</hc-key>
    <hc-a2>CD</hc-a2>
  </desc>
</path>

<path fill="#CEE3F5" stroke="#6E6E6E" stroke-width="0.4" id="US.OH.01" d="M49.5,555.1 L44.7,556.6 L40.7,555.3 L37.2,558.6 L28.4,559.1 L25.6,555.9 L20.0,553.6 L15.8,546.8 L11.0,544.5 L5.5,550.1 L0.0,552.3 L1.8,513.1 L28.8,514.3 L30.6,513.0 L46.8,515.3 L49.7,514.9 L72.7,518.5 L76.4,486.5 L77.8,468.3 L72.8,469.1 L73.0,460.1 L85.1,460.7 L131.8,466.2 L128.0,501.7 L125.2,527.6 L86.8,523.2 L79.6,521.6 L80.6,526.2 L83.3,525.7 L77.8,531.5 L78.8,535.1 L83.8,536.2 L79.5,543.1 L71.7,548.1 L68.3,544.6 L71.2,540.5 L72.1,533.3 L69.5,531.4 L71.9,521.3 L67.2,521.6 L66.0,526.9 L62.8,529.6 L56.0,528.9 L57.6,523.5 L53.5,521.4 L49.4,522.5 L40.4,519.7 L39.4,534.4 L45.2,532.3 L44.4,535.2 L55.5,533.6 L57.4,535.3 L55.5,542.2 L53.5,543.1 L54.7,548.6 L47.8,553.6 Z">
  <desc xmlns="http://www.highcharts.com/svg/namespace">
    <geoid>3901</geoid>
    <name>Congressional District 1</name>
    <hc-middle-x>0.75</hc-middle-x>
    <hc-middle-y>0.34</hc-middle-y>
    <hc-key>us-oh-01</hc-key>
    <hc-a2>CD</hc-a2>
  </desc>
</path>

<path fill="#CEE3F5" stroke="#6E6E6E" stroke-width="0.4" id="US.OH.11" d="M496.0,138.5 L496.3,163.7 L492.3,166.3 L500.6,166.3 L502.0,168.9 L498.0,169.9 L498.9,174.0 L511.6,174.4 L513.8,179.3 L508.3,176.2 L506.7,180.5 L510.9,179.8 L514.6,187.8 L508.3,187.3 L508.5,182.3 L502.9,184.6 L503.0,180.8 L495.9,184.8 L496.1,174.2 L492.5,170.7 L487.8,171.3 L488.9,166.3 L481.5,166.2 L482.1,138.5 L479.1,138.5 L479.2,124.0 L482.2,124.0 L482.2,116.6 L482.2,116.5 L482.2,116.6 L482.8,108.6 L481.0,102.4 L470.0,100.5 L470.0,95.4 L473.8,95.2 L484.3,90.5 L511.4,67.7 L511.5,87.6 L508.7,87.6 L507.8,94.7 L518.7,94.9 L518.7,103.0 L515.5,103.7 L516.6,109.8 L511.2,109.9 L511.2,118.7 L515.8,120.7 L516.8,124.6 L506.9,124.4 L504.1,117.6 L499.1,118.6 L491.1,111.5 L485.4,113.2 L485.7,124.0 L488.7,124.1 L488.5,131.4 L484.3,131.3 L484.2,138.5 Z M467.6,94.2 L469.4,95.1 L467.6,94.7 Z">
  <desc xmlns="http://www.highcharts.com/svg/namespace">
    <geoid>3911</geoid>
    <name>Congressional District 11</name>
    <hc-middle-x>0.52</hc-middle-x>
    <hc-middle-y>0.28</hc-middle-y>
    <hc-key>us-oh-11</hc-key>
    <hc-a2>CD</hc-a2>
  </desc>
</path>

<path fill="#CEE3F5" stroke="#6E6E6E" stroke-width="0.4" id="US.OH.05" d="M187.5,56.0 L187.1,63.3 L191.3,68.6 L196.2,67.3 L197.6,70.4 L205.3,66.6 L262.3,67.0 L261.7,85.2 L278.7,85.6 L278.4,100.0 L238.5,98.9 L238.6,90.3 L227.5,90.2 L224.5,160.1 L223.9,189.8 L269.5,190.7 L268.4,247.7 L239.5,247.1 L239.5,250.1 L222.3,249.6 L221.5,285.3 L206.2,285.1 L206.3,284.0 L152.6,278.0 L155.0,201.8 L138.0,201.3 L137.9,204.2 L120.9,203.7 L120.5,212.3 L86.2,211.4 L85.9,219.8 L77.4,219.5 L76.5,245.2 L67.6,244.9 L66.8,267.8 L56.2,267.4 L53.2,271.6 L48.8,273.5 L48.2,277.2 L37.7,275.3 L34.6,280.9 L31.3,280.8 L31.1,286.5 L13.9,285.8 L15.5,253.4 L22.5,86.6 L24.1,44.4 L114.4,45.2 L203.6,44.6 L201.2,53.5 L197.9,52.7 L197.8,58.5 Z">
  <desc xmlns="http://www.highcharts.com/svg/namespace">
    <geoid>3905</geoid>
    <name>Congressional District 5</name>
    <hc-middle-x>0.36</hc-middle-x>
    <hc-middle-y>0.35</hc-middle-y>
    <hc-key>us-oh-05</hc-key>
    <hc-a2>CD</hc-a2>
  </desc>
</path>

<path fill="#CEE3F5" stroke="#6E6E6E" stroke-width="0.4" id="US.OH.16" d="M440.4,98.7 L462.2,99.1 L462.5,103.1 L458.9,105.9 L457.0,110.5 L454.3,110.6 L451.1,120.3 L455.7,123.1 L459.5,121.9 L458.9,116.3 L467.5,116.7 L467.8,110.7 L473.3,113.4 L476.5,117.4 L482.2,116.6 L482.2,116.6 L482.2,124.0 L479.2,124.0 L479.1,138.5 L482.1,138.5 L481.5,166.2 L488.9,166.3 L487.8,171.3 L492.5,170.7 L496.1,174.2 L495.9,184.8 L490.6,187.8 L486.8,192.5 L493.0,192.3 L493.8,195.1 L510.2,195.3 L513.0,193.7 L512.3,189.3 L520.0,187.2 L525.0,188.1 L521.5,184.1 L525.1,180.1 L525.1,173.4 L531.8,172.1 L532.5,166.6 L568.7,167.0 L568.7,181.0 L554.5,180.8 L554.3,195.5 L530.2,195.3 L529.4,211.8 L526.7,211.7 L527.6,221.9 L522.5,221.7 L520.5,219.4 L519.5,241.7 L515.6,241.5 L517.0,232.8 L513.8,228.4 L486.9,227.0 L486.4,257.9 L448.3,257.9 L415.3,257.2 L415.4,230.5 L416.0,214.5 L415.6,193.8 L438.2,194.4 L438.6,180.1 L466.8,180.5 L467.0,166.0 L459.3,165.9 L460.4,170.8 L449.1,170.9 L449.1,160.9 L453.2,162.3 L453.3,153.3 L467.1,153.2 L467.2,148.3 L460.8,150.3 L458.9,145.9 L459.3,138.6 L453.5,138.7 L453.8,123.8 L439.9,123.6 Z">
  <desc xmlns="http://www.highcharts.com/svg/namespace">
    <geoid>3916</geoid>
    <name>Congressional District 16</name>
    <hc-middle-x>0.34</hc-middle-x>
    <hc-middle-y>0.68</hc-middle-y>
    <hc-key>us-oh-16</hc-key>
    <hc-a2>CD</hc-a2>
  </desc>
</path>

<path fill="#CEE3F5" stroke="#6E6E6E" stroke-width="0.4" id="US.OH.14" d="M654.4,127.7 L651.6,124.4 L639.8,124.5 L639.9,139.7 L626.0,139.9 L625.8,131.9 L627.9,122.0 L625.9,124.6 L582.9,125.0 L582.9,139.9 L554.9,139.5 L554.8,153.6 L539.0,153.5 L539.2,139.2 L525.4,138.9 L525.2,166.5 L521.9,168.8 L516.2,168.7 L513.8,160.9 L508.0,163.2 L506.6,166.4 L501.7,161.9 L505.3,157.5 L504.8,153.2 L510.9,153.2 L510.9,148.7 L506.5,148.6 L504.6,140.0 L496.0,138.5 L484.2,138.5 L484.3,131.3 L488.5,131.4 L488.7,124.1 L485.7,124.0 L485.4,113.2 L491.1,111.5 L499.1,118.6 L504.1,117.6 L506.9,124.4 L516.8,124.6 L515.8,120.7 L511.2,118.7 L511.2,109.9 L516.6,109.8 L515.5,103.7 L518.7,103.0 L518.7,94.9 L507.8,94.7 L508.7,87.6 L511.5,87.6 L511.4,67.7 L532.2,50.1 L579.5,27.5 L589.6,25.6 L598.6,22.1 L602.5,18.1 L610.8,16.4 L615.5,13.0 L653.7,0.0 Z">
  <desc xmlns="http://www.highcharts.com/svg/namespace">
    <geoid>3914</geoid>
    <name>Congressional District 14</name>
    <hc-middle-x>0.55</hc-middle-x>
    <hc-middle-y>0.51</hc-middle-y>
    <hc-key>us-oh-14</hc-key>
    <hc-a2>CD</hc-a2>
  </desc>
</path>

<path fill="#CEE3F5" stroke="#6E6E6E" stroke-width="0.4" id="US.OH.08" d="M13.9,285.8 L31.1,286.5 L31.3,280.8 L34.6,280.9 L37.7,275.3 L48.2,277.2 L48.5,290.0 L66.0,290.7 L65.2,308.8 L68.3,309.8 L67.4,340.6 L99.6,341.3 L99.5,342.2 L128.9,345.5 L126.0,373.6 L204.1,381.9 L205.1,382.0 L195.9,413.4 L191.9,428.9 L183.0,427.8 L183.0,427.8 L169.2,425.8 L168.9,424.2 L155.6,422.1 L156.0,417.3 L138.9,415.5 L139.2,412.6 L122.0,410.7 L122.6,404.9 L106.6,403.2 L106.8,395.9 L57.3,394.9 L55.7,459.2 L73.0,460.1 L72.8,469.1 L77.8,468.3 L76.4,486.5 L72.7,518.5 L49.7,514.9 L46.8,515.3 L30.6,513.0 L28.8,514.3 L1.8,513.1 L3.8,479.1 L6.8,413.5 L8.8,377.8 L12.5,316.2 Z">
  <desc xmlns="http://www.highcharts.com/svg/namespace">
    <geoid>3908</geoid>
    <name>Congressional District 8</name>
    <hc-middle-x>0.24</hc-middle-x>
    <hc-middle-y>0.41</hc-middle-y>
    <hc-key>us-oh-08</hc-key>
    <hc-a2>CD</hc-a2>
  </desc>
</path>

<path fill="#CEE3F5" stroke="#6E6E6E" stroke-width="0.4" id="US.OH.12" d="M251.3,364.0 L256.7,364.3 L257.1,337.4 L245.6,337.1 L246.9,286.8 L254.2,286.0 L253.5,283.1 L273.0,283.6 L273.6,268.0 L280.1,265.1 L287.5,265.1 L286.9,262.2 L291.0,259.5 L305.7,259.6 L306.2,246.7 L325.7,247.3 L331.4,247.5 L331.5,244.6 L349.0,245.1 L349.3,232.2 L352.1,233.6 L354.3,229.6 L354.0,223.3 L357.6,222.0 L362.1,226.8 L359.7,234.0 L365.1,234.9 L362.1,238.8 L363.8,241.7 L360.6,245.0 L366.3,245.0 L366.3,262.4 L383.5,262.6 L383.5,279.0 L377.8,279.7 L337.7,279.2 L339.1,284.5 L336.4,319.3 L321.7,318.1 L320.5,332.4 L361.7,335.5 L361.5,339.2 L381.1,340.6 L405.7,341.3 L404.9,355.3 L403.3,384.0 L436.3,385.7 L434.2,393.1 L435.1,400.0 L479.1,402.4 L477.9,436.7 L420.5,433.2 L421.2,424.3 L406.5,423.2 L407.9,405.9 L314.4,398.4 L315.9,391.3 L317.1,376.6 L314.1,378.2 L313.7,382.8 L302.1,382.7 L301.8,385.4 L296.9,381.6 L299.4,376.0 L300.8,380.4 L310.7,376.1 L306.4,374.0 L307.1,370.0 L296.9,368.0 L292.8,364.5 L285.7,364.3 L286.8,359.5 L281.7,359.1 L282.6,385.3 L279.9,381.2 L276.5,381.0 L274.6,369.5 L269.7,369.2 L270.7,364.1 L266.1,367.0 L266.3,372.1 L253.5,374.7 L250.4,372.3 Z">
  <desc xmlns="http://www.highcharts.com/svg/namespace">
    <geoid>3912</geoid>
    <name>Congressional District 12</name>
    <hc-middle-x>0.21</hc-middle-x>
    <hc-middle-y>0.44</hc-middle-y>
    <hc-key>us-oh-12</hc-key>
    <hc-a2>CD</hc-a2>
  </desc>
</path>

<path fill="#CEE3F5" stroke="#6E6E6E" stroke-width="0.4" id="US.OH.03" d="M276.5,381.0 L279.9,381.2 L282.6,385.3 L281.7,359.1 L286.8,359.5 L285.7,364.3 L292.8,364.5 L296.9,368.0 L307.1,370.0 L306.4,374.0 L310.7,376.1 L300.8,380.4 L299.4,376.0 L296.9,381.6 L301.8,385.4 L302.1,382.7 L313.7,382.8 L314.1,378.2 L317.1,376.6 L315.9,391.3 L314.4,398.4 L310.2,398.0 L309.7,403.8 L312.5,404.0 L311.6,414.0 L306.1,413.4 L305.6,415.6 L294.1,413.0 L291.2,416.7 L291.3,420.7 L286.3,423.0 L276.8,423.3 L276.2,420.6 L280.9,420.3 L277.6,412.5 L278.7,408.0 L286.9,407.5 L283.1,410.0 L283.5,421.0 L288.1,417.8 L290.5,411.6 L281.9,400.7 L284.4,394.8 L279.2,395.8 L280.5,405.1 L275.1,406.4 L274.8,401.3 L271.9,401.0 L269.3,407.0 L258.1,406.6 L259.8,402.8 L256.9,402.1 L255.5,396.1 L257.5,389.8 L256.8,384.5 L265.2,385.1 L267.4,382.0 L271.7,387.7 L274.6,388.6 L274.6,392.7 L281.4,391.9 L281.0,388.7 L274.5,387.3 Z">
  <desc xmlns="http://www.highcharts.com/svg/namespace">
    <geoid>3903</geoid>
    <name>Congressional District 3</name>
    <hc-middle-x>0.63</hc-middle-x>
    <hc-middle-y>0.55</hc-middle-y>
    <hc-key>us-oh-03</hc-key>
    <hc-a2>CD</hc-a2>
  </desc>
</path>

<path fill="#CEE3F5" stroke="#6E6E6E" stroke-width="0.4" id="US.OH.02" d="M295.7,632.2 L292.9,629.9 L285.7,632.0 L279.8,635.6 L272.2,635.2 L266.6,642.5 L258.9,645.8 L255.2,653.5 L252.1,655.6 L244.9,656.3 L238.2,653.8 L231.5,659.5 L226.9,657.0 L225.6,651.6 L218.1,646.8 L204.2,643.7 L196.3,638.1 L182.3,641.3 L178.6,644.0 L176.9,650.5 L173.1,652.4 L164.8,648.2 L157.7,646.2 L155.7,638.2 L147.3,632.9 L144.5,625.9 L126.7,619.4 L116.3,622.4 L112.2,622.3 L99.2,617.0 L90.6,614.6 L88.2,610.5 L88.0,597.7 L80.4,585.4 L76.7,572.7 L69.7,567.6 L61.8,566.2 L59.2,563.8 L58.7,555.5 L55.3,551.4 L49.5,555.1 L47.8,553.6 L54.7,548.6 L53.5,543.1 L55.5,542.2 L57.4,535.3 L55.5,533.6 L44.4,535.2 L45.2,532.3 L39.4,534.4 L40.4,519.7 L49.4,522.5 L53.5,521.4 L57.6,523.5 L56.0,528.9 L62.8,529.6 L66.0,526.9 L67.2,521.6 L71.9,521.3 L69.5,531.4 L72.1,533.3 L71.2,540.5 L68.3,544.6 L71.7,548.1 L79.5,543.1 L83.8,536.2 L78.8,535.1 L77.8,531.5 L83.3,525.7 L80.6,526.2 L79.6,521.6 L86.8,523.2 L125.2,527.6 L151.4,530.3 L151.1,534.7 L155.3,534.6 L159.1,527.2 L189.3,505.3 L222.1,506.5 L220.1,517.8 L233.2,519.0 L233.9,521.8 L242.5,523.1 L243.4,516.3 L246.5,518.4 L248.1,515.0 L254.1,517.5 L250.8,519.0 L256.4,521.1 L263.0,519.0 L264.2,516.5 L282.2,507.8 L283.7,512.7 L292.1,520.7 L288.5,526.6 L294.3,534.4 L315.1,536.0 L314.6,541.9 L313.8,549.7 L310.9,549.5 L306.8,592.7 L270.7,590.2 L271.1,596.9 L274.6,601.8 L274.6,605.8 L261.5,603.7 L266.6,606.1 L267.1,611.8 L264.7,612.2 L267.2,622.6 L276.5,621.2 L274.0,614.3 L290.9,615.2 L288.0,617.8 L287.8,626.4 L296.0,626.8 Z">
  <desc xmlns="http://www.highcharts.com/svg/namespace">
    <geoid>3902</geoid>
    <name>Congressional District 2</name>
    <hc-middle-x>0.65</hc-middle-x>
    <hc-middle-y>0.48</hc-middle-y>
    <hc-key>us-oh-02</hc-key>
    <hc-a2>CD</hc-a2>
  </desc>
</path>

<path fill="#CEE3F5" stroke="#6E6E6E" stroke-width="0.4" id="US.OH.06" d="M295.7,632.2 L296.0,626.8 L287.8,626.4 L288.0,617.8 L290.9,615.2 L274.0,614.3 L276.5,621.2 L267.2,622.6 L264.7,612.2 L267.1,611.8 L266.6,606.1 L261.5,603.7 L274.6,605.8 L274.6,601.8 L271.1,596.9 L270.7,590.2 L306.8,592.7 L310.9,549.5 L313.8,549.7 L314.6,541.9 L331.8,543.3 L331.5,545.8 L349.0,547.8 L348.3,554.9 L365.9,556.5 L364.0,576.6 L381.1,578.3 L384.1,543.5 L436.8,547.5 L438.1,530.0 L458.7,531.2 L459.0,525.5 L453.4,522.3 L455.0,496.4 L457.9,496.6 L458.4,487.8 L475.7,490.6 L476.4,480.7 L473.8,480.6 L475.0,470.3 L478.9,469.1 L494.2,469.9 L494.6,454.8 L485.9,454.4 L486.6,437.2 L477.9,436.7 L479.1,402.4 L435.1,400.0 L434.2,393.1 L436.3,385.7 L403.3,384.0 L404.9,355.3 L419.0,356.4 L482.4,359.3 L483.1,345.3 L489.8,345.5 L491.0,316.8 L507.1,317.3 L507.3,310.0 L511.3,310.3 L514.3,307.5 L514.5,303.1 L531.5,304.1 L531.8,294.2 L543.2,295.8 L543.8,278.4 L535.3,278.1 L535.9,261.5 L547.3,261.7 L548.0,247.4 L553.7,246.3 L570.3,246.6 L570.5,213.1 L570.5,195.6 L583.1,195.6 L583.0,181.1 L626.2,181.2 L626.2,195.5 L654.8,195.5 L655.2,263.8 L645.5,268.4 L639.1,267.6 L633.6,273.4 L633.5,277.4 L639.1,284.1 L640.5,290.7 L644.0,296.7 L641.3,304.9 L641.4,310.2 L638.5,312.0 L642.2,316.7 L641.4,321.0 L643.4,326.9 L640.0,337.8 L634.2,344.1 L633.2,350.0 L627.7,359.0 L626.5,370.2 L622.6,374.5 L623.9,380.5 L622.2,387.5 L622.5,394.9 L619.1,398.3 L619.6,407.1 L614.2,404.9 L612.1,407.7 L614.6,415.9 L609.5,420.3 L609.6,428.7 L603.0,435.6 L609.1,445.3 L603.7,450.7 L603.6,457.3 L601.5,463.6 L593.5,464.7 L579.7,477.0 L569.3,488.0 L562.9,498.0 L555.2,500.6 L550.3,509.2 L542.5,509.5 L530.9,517.2 L524.8,517.8 L521.5,509.0 L514.0,504.8 L498.5,518.6 L497.3,530.8 L481.3,530.8 L477.2,534.6 L478.0,540.2 L472.7,542.5 L468.0,550.1 L469.6,555.4 L469.2,566.1 L464.7,569.4 L459.0,569.1 L460.6,575.3 L466.5,581.6 L463.7,591.6 L467.6,597.8 L464.9,599.8 L458.8,595.2 L454.1,598.6 L451.8,606.1 L446.9,609.3 L441.5,603.8 L445.5,596.8 L440.6,586.9 L433.3,585.5 L429.6,578.6 L424.7,579.6 L422.5,585.5 L416.6,589.1 L410.5,602.1 L408.3,604.1 L408.0,615.1 L401.0,620.1 L396.0,625.7 L399.2,631.2 L401.7,641.8 L400.4,646.7 L403.2,657.4 L401.7,662.5 L395.6,664.1 L387.8,663.2 L384.4,667.0 L382.6,681.9 L379.3,691.7 L369.2,694.4 L366.8,693.4 L346.3,700.0 L341.0,699.7 L337.7,696.4 L335.2,686.5 L328.7,682.1 L322.0,672.2 L317.9,669.3 L308.2,668.8 L299.2,661.6 L298.0,651.4 L295.0,642.1 Z">
  <desc xmlns="http://www.highcharts.com/svg/namespace">
    <geoid>3906</geoid>
    <name>Congressional District 6</name>
    <hc-middle-x>0.74</hc-middle-x>
    <hc-middle-y>0.37</hc-middle-y>
    <hc-key>us-oh-06</hc-key>
    <hc-a2>CD</hc-a2>
  </desc>
</path>

<path fill="#CEE3F5" stroke="#6E6E6E" stroke-width="0.4" id="US.OH.15" d="M204.1,381.9 L206.6,362.1 L251.3,364.0 L250.4,372.3 L253.5,374.7 L266.3,372.1 L266.1,367.0 L270.7,364.1 L269.7,369.2 L274.6,369.5 L276.5,381.0 L274.5,387.3 L281.0,388.7 L281.4,391.9 L274.6,392.7 L274.6,388.6 L271.7,387.7 L267.4,382.0 L265.2,385.1 L256.8,384.5 L257.5,389.8 L255.5,396.1 L256.9,402.1 L259.8,402.8 L258.1,406.6 L269.3,407.0 L271.9,401.0 L274.8,401.3 L275.1,406.4 L280.5,405.1 L279.2,395.8 L284.4,394.8 L281.9,400.7 L290.5,411.6 L288.1,417.8 L283.5,421.0 L283.1,410.0 L286.9,407.5 L278.7,408.0 L277.6,412.5 L280.9,420.3 L276.2,420.6 L276.8,423.3 L286.3,423.0 L291.3,420.7 L291.2,416.7 L294.1,413.0 L305.6,415.6 L306.1,413.4 L311.6,414.0 L312.5,404.0 L309.7,403.8 L310.2,398.0 L314.4,398.4 L407.9,405.9 L406.5,423.2 L421.2,424.3 L420.5,433.2 L477.9,436.7 L486.6,437.2 L485.9,454.4 L494.6,454.8 L494.2,469.9 L478.9,469.1 L475.0,470.3 L473.8,480.6 L476.4,480.7 L475.7,490.6 L458.4,487.8 L457.9,496.6 L455.0,496.4 L453.4,522.3 L459.0,525.5 L458.7,531.2 L438.1,530.0 L436.8,547.5 L384.1,543.5 L381.1,578.3 L364.0,576.6 L365.9,556.5 L348.3,554.9 L349.0,547.8 L331.5,545.8 L331.8,543.3 L314.6,541.9 L315.1,536.0 L294.3,534.4 L288.5,526.6 L292.1,520.7 L283.7,512.7 L282.2,507.8 L264.2,516.5 L263.0,519.0 L256.4,521.1 L250.8,519.0 L254.1,517.5 L248.1,515.0 L246.5,518.4 L243.4,516.3 L242.5,523.1 L233.9,521.8 L233.2,519.0 L220.1,517.8 L222.1,506.5 L189.3,505.3 L159.1,527.2 L155.3,534.6 L151.1,534.7 L151.4,530.3 L125.2,527.6 L128.0,501.7 L131.8,466.2 L191.0,472.8 L202.4,472.5 L202.7,477.6 L208.3,476.2 L208.2,479.5 L220.9,479.2 L230.4,473.4 L231.5,476.0 L239.3,479.7 L242.3,444.7 L210.8,441.9 L181.7,438.8 L182.7,428.7 L183.0,427.8 L183.0,427.8 L183.0,427.8 L191.9,428.9 L195.9,413.4 L205.1,382.0 Z">
  <desc xmlns="http://www.highcharts.com/svg/namespace">
    <geoid>3915</geoid>
    <name>Congressional District 15</name>
    <hc-middle-x>0.61</hc-middle-x>
    <hc-middle-y>0.55</hc-middle-y>
    <hc-key>us-oh-15</hc-key>
    <hc-a2>CD</hc-a2>
  </desc>
</path>

<path fill="#CEE3F5" stroke="#6E6E6E" stroke-width="0.4" id="US.OH.10" d="M181.7,438.8 L210.8,441.9 L242.3,444.7 L239.3,479.7 L231.5,476.0 L230.4,473.4 L220.9,479.2 L208.2,479.5 L208.3,476.2 L202.7,477.6 L202.4,472.5 L191.0,472.8 L131.8,466.2 L85.1,460.7 L73.0,460.1 L55.7,459.2 L57.3,394.9 L106.8,395.9 L106.6,403.2 L122.6,404.9 L122.0,410.7 L139.2,412.6 L138.9,415.5 L156.0,417.3 L155.6,422.1 L168.9,424.2 L169.2,425.8 L183.0,427.8 L183.0,427.8 Z">
  <desc xmlns="http://www.highcharts.com/svg/namespace">
    <geoid>3910</geoid>
    <name>Congressional District 10</name>
    <hc-middle-x>0.31</hc-middle-x>
    <hc-middle-y>0.49</hc-middle-y>
    <hc-key>us-oh-10</hc-key>
    <hc-a2>CD</hc-a2>
  </desc>
</path>

<path fill="#CEE3F5" stroke="#6E6E6E" stroke-width="0.4" id="US.OH.07" d="M554.3,195.5 L556.1,195.5 L555.3,212.4 L559.2,214.3 L564.1,213.2 L567.6,215.5 L570.5,213.1 L570.3,246.6 L553.7,246.3 L548.0,247.4 L547.3,261.7 L535.9,261.5 L535.3,278.1 L543.8,278.4 L543.2,295.8 L531.8,294.2 L531.5,304.1 L514.5,303.1 L514.3,307.5 L511.3,310.3 L507.3,310.0 L507.1,317.3 L491.0,316.8 L489.8,345.5 L483.1,345.3 L482.4,359.3 L419.0,356.4 L404.9,355.3 L405.7,341.3 L381.1,340.6 L361.5,339.2 L361.7,335.5 L320.5,332.4 L321.7,318.1 L336.4,319.3 L339.1,284.5 L337.7,279.2 L377.8,279.7 L383.5,279.0 L383.5,262.6 L366.3,262.4 L366.3,245.0 L360.6,245.0 L363.8,241.7 L362.1,238.8 L365.1,234.9 L359.7,234.0 L362.1,226.8 L357.6,222.0 L354.0,223.3 L354.3,229.6 L352.1,233.6 L349.3,232.2 L349.0,245.1 L331.5,244.6 L331.4,247.5 L325.7,247.3 L327.2,191.6 L311.6,191.1 L311.2,147.8 L355.4,149.6 L384.4,150.3 L384.4,152.1 L410.3,152.9 L410.7,138.2 L425.0,138.4 L432.1,141.3 L435.2,133.4 L429.4,136.8 L425.1,135.4 L426.0,98.4 L430.9,98.5 L440.4,98.7 L439.9,123.6 L453.8,123.8 L453.5,138.7 L459.3,138.6 L458.9,145.9 L460.8,150.3 L467.2,148.3 L467.1,153.2 L453.3,153.3 L453.2,162.3 L449.1,160.9 L449.1,170.9 L460.4,170.8 L459.3,165.9 L467.0,166.0 L466.8,180.5 L438.6,180.1 L438.2,194.4 L415.6,193.8 L416.0,214.5 L415.4,230.5 L415.3,257.2 L448.3,257.9 L486.4,257.9 L486.9,227.0 L513.8,228.4 L517.0,232.8 L515.6,241.5 L519.5,241.7 L520.5,219.4 L522.5,221.7 L527.6,221.9 L526.7,211.7 L529.4,211.8 L530.2,195.3 Z">
  <desc xmlns="http://www.highcharts.com/svg/namespace">
    <geoid>3907</geoid>
    <name>Congressional District 7</name>
    <hc-middle-x>0.44</hc-middle-x>
    <hc-middle-y>0.77</hc-middle-y>
    <hc-key>us-oh-07</hc-key>
    <hc-a2>CD</hc-a2>
  </desc>
</path>
</g>

<text x="350" y="714" text-anchor="middle" font-family="Verdana" font-size="8" stroke-opacity="0.6">Copyright (c) 2023 Highsoft AS, Based on data from The United States Census Bureau</text>

</svg>