<?xml version="1.0" encoding="utf-8" standalone="no"?>
<!DOCTYPE svg PUBLIC "-//W3C//DTD SVG 1.1//EN" "http://www.w3.org/Graphics/SVG/1.1/DTD/svg11.dtd">

<svg version="1.1" height="700pt" width="700pt" xmlns="http://www.w3.org/2000/svg" xmlns:xlink="http://www.w3.org/1999/xlink">
<desc>
Map version: 2.1.0
Copyright (c) 2023 Highsoft AS, Based on data from The United States Census Bureau
</desc>
<title>Puerto Rico congressional districts</title>
<g id="special">

<g id="PR">
  <desc xmlns="http://www.highcharts.com/svg/namespace">
    <name>Puerto Rico</name>
    <labelrank>5</labelrank>
    <country-abbrev>P.R.</country-abbrev>
    <subregion>Caribbean</subregion>
    <region-wb>Latin America &amp; Caribbean</region-wb>
    <iso-a3>PRI</iso-a3>
    <iso-a2>PR</iso-a2>
    <woe-id>23424935</woe-id>
    <continent>North America</continent>
    <hc-key>pr</hc-key>
    <hc-a2>PR</hc-a2>
  </desc>
</g>

<g id="PR.3614">
  <desc xmlns="http://www.highcharts.com/svg/namespace">
    <labelrank>20</labelrank>
    <hasc>PR.</hasc>
    <alt-name>NULL</alt-name>
    <woe-id>23424935</woe-id>
    <subregion>NULL</subregion>
    <fips>72033</fips>
    <postal-code>NULL</postal-code>
    <name>Puerto Rico</name>
    <country>Puerto Rico</country>
    <type-en>NULL</type-en>
    <region>NULL</region>
    <longitude>-66.44410000000001</longitude>
    <woe-name>Puerto Rico</woe-name>
    <latitude>18.2448</latitude>
    <woe-label>NULL</woe-label>
    <type>NULL</type>
    <hc-key>pr-3614</hc-key>
    <hc-a2>PR</hc-a2>
  </desc>
</g>

<path fill="#CEE3F5" stroke="#6E6E6E" stroke-width="0.4" id="PR.3614.98" d="M16.9,129.4 L12.0,129.4 L9.2,126.2 L1.8,122.1 L0.0,118.4 L1.7,114.4 L4.7,112.8 L19.7,112.3 L21.3,112.7 L24.3,115.4 L24.4,117.3 L20.3,124.0 L18.3,126.4 L18.0,128.6 Z M692.8,97.7 L690.9,98.7 L684.0,98.4 L682.2,99.1 L677.3,102.6 L676.0,104.1 L674.2,104.2 L671.9,102.0 L668.1,103.0 L663.1,105.1 L642.8,110.3 L638.8,112.3 L633.4,110.7 L625.3,111.8 L617.7,110.9 L613.5,103.3 L618.9,103.2 L624.0,102.7 L629.2,100.6 L633.8,97.7 L637.5,94.6 L639.9,93.3 L660.7,89.5 L664.0,90.1 L673.1,93.0 L686.8,93.3 L690.2,94.5 Z M696.8,46.7 L700.0,51.4 L696.4,51.4 L698.3,53.3 L693.3,52.9 L691.8,51.6 L691.1,49.5 L689.3,49.6 L691.8,54.1 L692.2,56.3 L691.3,59.0 L687.6,53.4 L676.5,43.5 L676.5,42.5 L682.9,42.4 L690.4,43.7 Z M239.6,4.4 L266.9,9.6 L293.9,5.8 L297.6,6.2 L307.4,9.5 L311.2,9.7 L321.4,7.3 L336.1,5.8 L343.0,6.5 L349.9,9.0 L354.2,8.1 L370.9,8.0 L381.2,10.9 L403.3,6.2 L423.8,12.1 L435.6,8.4 L449.4,12.6 L452.3,10.3 L455.7,10.8 L458.6,14.6 L460.8,15.7 L463.3,14.2 L465.3,11.4 L467.9,12.2 L467.1,15.8 L472.1,18.3 L474.7,24.4 L478.7,24.5 L487.2,21.8 L487.2,19.8 L482.9,19.3 L478.1,17.0 L471.1,10.1 L488.3,15.1 L499.7,17.6 L503.4,15.9 L505.6,12.3 L511.5,13.5 L523.5,16.7 L527.5,13.9 L530.6,14.5 L533.9,16.8 L542.3,18.6 L546.9,21.0 L551.7,25.9 L554.5,24.5 L556.4,21.7 L558.3,23.6 L556.0,27.3 L562.2,24.6 L566.8,30.9 L571.2,33.2 L574.6,30.7 L581.7,36.1 L590.8,37.2 L599.4,30.3 L601.5,30.8 L601.7,32.6 L599.4,46.2 L599.0,57.6 L600.2,60.8 L599.1,64.1 L603.2,66.9 L606.8,65.1 L606.1,67.6 L606.8,69.6 L610.0,73.7 L607.4,75.7 L607.1,78.1 L604.7,78.3 L602.1,74.3 L599.2,74.4 L598.3,77.3 L600.9,80.7 L598.5,82.9 L595.4,82.4 L591.0,80.2 L586.4,81.8 L581.7,84.2 L576.6,85.5 L572.3,87.6 L567.9,92.1 L558.9,106.5 L558.3,113.7 L554.8,118.5 L553.4,119.3 L547.4,120.7 L546.1,122.4 L548.9,130.4 L543.9,135.2 L534.3,141.3 L520.8,146.2 L514.9,146.2 L509.0,145.0 L503.6,144.6 L500.5,145.3 L492.8,148.5 L483.1,148.7 L477.7,150.1 L462.6,158.4 L454.0,159.0 L451.9,160.3 L450.2,156.6 L453.1,155.7 L453.7,154.4 L450.2,151.0 L445.2,155.6 L442.2,156.5 L438.5,155.7 L431.3,155.0 L428.8,154.4 L425.1,149.5 L419.4,147.3 L415.2,147.7 L409.2,149.2 L401.8,154.4 L396.5,153.8 L391.4,150.0 L387.1,145.1 L382.6,142.3 L374.1,143.9 L371.4,145.4 L367.6,146.1 L359.0,146.7 L353.7,150.0 L350.6,150.7 L346.4,148.6 L342.8,150.7 L340.9,147.6 L336.4,147.3 L325.8,148.8 L316.0,145.4 L305.3,145.6 L305.5,141.8 L303.2,140.7 L299.7,141.5 L296.4,143.6 L296.4,145.7 L300.0,145.6 L297.0,149.8 L291.9,152.6 L286.0,154.4 L280.6,155.3 L272.4,155.1 L264.2,155.5 L263.2,156.6 L262.7,161.1 L257.8,160.6 L254.1,157.9 L248.2,151.8 L242.9,151.6 L237.0,150.6 L230.7,150.8 L226.9,149.6 L223.4,152.8 L219.1,155.1 L215.3,156.0 L203.2,154.8 L197.4,151.7 L194.6,153.9 L196.5,160.2 L193.7,160.0 L188.5,151.7 L188.5,144.2 L196.6,140.2 L200.9,138.3 L201.8,136.3 L198.2,133.6 L194.7,134.3 L191.4,132.8 L191.5,127.7 L193.3,125.2 L195.8,123.3 L193.6,116.0 L196.3,113.2 L196.1,104.4 L198.6,94.5 L202.8,90.2 L204.2,87.1 L202.5,84.2 L199.1,81.3 L194.9,68.3 L192.4,63.2 L181.8,61.0 L177.6,53.0 L175.1,49.1 L172.9,44.2 L173.4,42.3 L180.8,40.1 L191.6,35.4 L195.2,33.1 L201.6,27.9 L201.9,21.8 L199.1,17.1 L198.7,10.2 L203.4,3.9 L216.4,0.0 L230.2,0.3 Z">
  <desc xmlns="http://www.highcharts.com/svg/namespace">
    <geoid>7298</geoid>
    <name>Resident Commissioner District (at Large)</name>
    <hc-middle-x>0.57</hc-middle-x>
    <hc-middle-y>0.49</hc-middle-y>
    <hc-key>pr-3614-98</hc-key>
    <hc-a2>RC</hc-a2>
  </desc>
</path>
</g>

<text x="350" y="714" text-anchor="middle" font-family="Verdana" font-size="8" stroke-opacity="0.6">Copyright (c) 2023 Highsoft AS, Based on data from The United States Census Bureau</text>

</svg>