<?xml version="1.0" encoding="utf-8" standalone="no"?>
<!DOCTYPE svg PUBLIC "-//W3C//DTD SVG 1.1//EN" "http://www.w3.org/Graphics/SVG/1.1/DTD/svg11.dtd">

<svg version="1.1" height="700pt" width="700pt" xmlns="http://www.w3.org/2000/svg" xmlns:xlink="http://www.w3.org/1999/xlink">
<desc>
Map version: 1.1.3
Copyright (c) 2020 Highsoft AS, Based on data from The United States Census Bureau
</desc>
<title>Texas congressional districts</title>
<g id="special">

<g id="US.TX">
  <desc xmlns="http://www.highcharts.com/svg/namespace">
    <labelrank>0</labelrank>
    <hasc>US.TX</hasc>
    <alt-name>TX|Tex.</alt-name>
    <woe-id>2347602</woe-id>
    <subregion>West South Central</subregion>
    <fips>US48</fips>
    <postal-code>TX</postal-code>
    <name>Texas</name>
    <country>United States of America</country>
    <type-en>State</type-en>
    <region>South</region>
    <longitude>-98.7607</longitude>
    <woe-name>Texas</woe-name>
    <latitude>31.131</latitude>
    <woe-label>Texas, US, United States</woe-label>
    <type>State</type>
    <hc-key>us-tx</hc-key>
    <hc-a2>TE</hc-a2>
  </desc>
</g>

<g id="US">
  <desc xmlns="http://www.highcharts.com/svg/namespace">
    <name>United States of America</name>
    <labelrank>2</labelrank>
    <country-abbrev>U.S.A.</country-abbrev>
    <subregion>Northern America</subregion>
    <region-wb>North America</region-wb>
    <iso-a3>USA</iso-a3>
    <iso-a2>US</iso-a2>
    <woe-id>23424977</woe-id>
    <continent>North America</continent>
    <hc-key>us</hc-key>
    <hc-a2>US</hc-a2>
  </desc>
</g>

<path fill="#CEE3F5" stroke="#6E6E6E" stroke-width="0.4" id="US.TX.34" d="M508.9,649.0 L507.5,646.8 L506.0,637.9 L503.2,627.1 L500.8,622.0 L495.2,604.6 L495.8,600.3 L494.6,586.4 L495.7,582.5 L496.3,598.4 L498.3,609.2 L504.4,628.5 L508.4,644.9 Z M498.8,559.2 L494.0,573.3 L487.9,576.9 L486.8,576.2 L491.3,572.8 L489.8,569.3 L481.9,575.6 L477.0,567.8 L473.8,565.3 L475.8,569.9 L479.8,575.0 L477.2,577.7 L488.0,579.8 L492.5,577.3 L492.3,585.9 L489.5,587.6 L490.4,592.8 L486.6,593.7 L486.4,598.4 L490.5,601.8 L486.7,600.5 L486.4,605.1 L490.2,608.2 L493.9,623.1 L492.7,630.2 L498.1,634.3 L497.7,638.5 L500.2,639.8 L500.6,648.5 L506.2,650.5 L503.6,654.4 L504.9,657.1 L509.6,651.4 L510.4,658.0 L506.4,658.4 L500.0,661.3 L498.6,660.5 L497.3,666.2 L494.3,666.1 L491.8,663.2 L489.0,663.4 L487.5,660.4 L481.6,655.4 L475.4,654.9 L473.8,653.3 L468.3,652.4 L463.9,653.4 L457.6,652.3 L453.7,653.6 L450.6,652.7 L451.6,651.1 L452.9,642.1 L454.4,644.7 L464.7,647.1 L465.4,648.8 L469.7,649.1 L469.5,629.6 L461.6,628.7 L464.1,618.6 L462.6,618.3 L462.2,578.3 L448.5,578.3 L448.0,528.9 L467.5,528.8 L466.3,525.2 L471.5,520.9 L455.8,491.2 L465.2,487.7 L470.3,490.6 L472.8,490.8 L483.9,481.6 L473.9,469.7 L481.6,463.2 L468.0,448.3 L478.4,432.3 L479.5,434.7 L483.1,436.6 L485.9,442.8 L488.0,442.2 L490.5,446.0 L496.6,450.3 L501.7,445.9 L516.3,463.1 L498.6,478.3 L502.6,478.1 L506.7,483.6 L505.6,493.9 L506.8,497.5 L495.2,507.8 L484.6,524.4 L489.2,532.2 L486.5,532.1 L484.5,536.3 L480.2,535.4 L480.8,530.5 L476.4,528.6 L472.0,530.0 L472.2,532.5 L464.7,539.5 L464.4,555.0 L467.4,555.9 L470.1,559.7 Z M504.6,558.1 L499.1,571.9 L497.4,579.5 L494.9,579.9 L496.3,572.5 L501.9,558.2 L503.2,557.8 Z">
  <desc xmlns="http://www.highcharts.com/svg/namespace">
    <geoid>4834</geoid>
    <name>Congressional District 34</name>
    <hc-middle-x>0.43</hc-middle-x>
    <hc-middle-y>0.79</hc-middle-y>
    <hc-key>us-tx-34</hc-key>
    <hc-a2>CD</hc-a2>
  </desc>
</path>

<path fill="#CEE3F5" stroke="#6E6E6E" stroke-width="0.4" id="US.TX.14" d="M633.8,444.5 L638.8,445.5 L617.9,461.5 L619.7,458.5 L627.1,452.8 Z M622.1,432.7 L622.0,433.1 L624.5,434.8 L624.6,434.9 L628.3,435.7 L628.3,435.7 L625.4,437.5 L626.7,440.4 L633.4,443.2 L629.7,443.2 L627.7,447.5 L626.5,446.9 L620.5,454.2 L617.8,456.1 L615.2,454.6 L615.7,464.2 L610.3,468.4 L604.0,474.9 L597.1,478.9 L593.7,478.3 L587.4,470.1 L582.7,470.1 L582.2,464.0 L578.0,461.5 L577.7,451.9 L582.7,447.9 L588.2,449.8 L592.2,446.6 L593.6,440.5 L598.4,440.3 L599.3,435.8 L600.7,435.7 L600.7,445.6 L604.0,445.5 L606.8,441.9 L611.3,443.3 L613.1,442.0 L610.8,438.2 L611.5,432.6 L614.5,436.1 L617.0,435.4 L619.5,432.3 Z M636.1,433.6 L635.4,433.4 L635.0,432.5 Z M639.1,432.9 L636.7,433.7 L636.5,433.7 Z M646.9,430.3 L644.8,431.6 L640.4,432.5 L644.1,431.5 Z M648.3,430.8 L648.0,430.5 L647.4,430.3 L647.9,430.3 Z M684.3,403.9 L681.0,410.6 L680.8,416.2 L684.0,419.4 L684.1,422.4 L674.1,422.4 L642.3,438.0 L637.7,443.0 L635.5,441.9 L639.8,437.4 L646.6,433.2 L651.3,431.3 L654.7,430.4 L658.3,427.4 L657.4,410.3 L652.8,410.5 L652.1,396.5 L654.6,397.3 L660.3,395.8 L661.1,392.5 L664.6,391.2 L669.8,392.6 L672.2,395.6 L671.2,397.5 L674.6,398.7 L674.7,400.8 Z">
  <desc xmlns="http://www.highcharts.com/svg/namespace">
    <geoid>4814</geoid>
    <name>Congressional District 14</name>
    <hc-middle-x>0.16</hc-middle-x>
    <hc-middle-y>0.78</hc-middle-y>
    <hc-key>us-tx-14</hc-key>
    <hc-a2>CD</hc-a2>
  </desc>
</path>

<path fill="#CEE3F5" stroke="#6E6E6E" stroke-width="0.4" id="US.TX.27" d="M514.7,539.7 L514.6,537.9 L518.2,533.1 L517.7,531.1 L520.8,525.5 L523.3,523.2 L524.4,527.1 L519.6,532.7 Z M548.5,509.7 L542.2,513.2 L537.5,517.1 L532.4,519.9 L525.3,526.0 L527.0,523.2 L526.6,519.9 L531.9,518.2 L542.5,510.3 L545.8,510.3 L548.3,506.4 Z M472.0,423.0 L474.9,418.4 L472.8,415.2 L476.2,417.0 L480.4,415.7 L477.8,413.4 L476.9,407.1 L478.9,403.7 L487.3,394.6 L491.0,396.5 L490.0,398.9 L493.5,396.4 L496.5,400.9 L495.3,403.0 L500.9,402.6 L505.0,405.3 L503.7,414.0 L497.1,421.1 L507.4,429.7 L506.7,430.7 L521.8,430.1 L523.6,433.5 L525.8,433.5 L538.7,448.3 L533.5,452.8 L534.5,453.8 L550.1,443.6 L552.2,436.8 L559.2,429.3 L564.0,431.1 L566.5,433.5 L565.8,437.9 L567.1,440.7 L570.6,442.8 L572.2,447.6 L575.0,448.7 L577.7,451.9 L578.0,461.5 L582.2,464.0 L582.7,470.1 L587.4,470.1 L593.7,478.3 L597.1,478.9 L592.0,482.5 L587.3,484.3 L580.2,484.8 L572.9,487.7 L574.2,491.3 L581.6,486.8 L585.6,485.7 L575.8,492.0 L570.2,493.5 L566.9,496.2 L558.6,500.4 L561.7,497.4 L571.2,492.4 L568.9,490.1 L561.8,493.6 L558.0,494.4 L562.9,491.4 L558.3,491.3 L560.0,487.9 L554.9,488.7 L551.4,491.5 L547.4,485.7 L547.5,491.1 L550.1,492.1 L546.0,494.0 L543.1,491.1 L539.9,491.0 L537.9,486.5 L534.6,486.0 L537.4,492.7 L537.1,495.3 L541.9,497.1 L548.5,504.0 L534.9,511.5 L533.0,511.0 L531.8,506.6 L527.0,501.7 L528.1,506.6 L524.3,505.7 L527.9,510.9 L527.9,516.5 L522.6,522.2 L519.1,523.8 L520.9,519.5 L520.2,515.3 L518.2,518.3 L517.5,523.4 L514.9,523.0 L514.9,518.7 L508.5,522.7 L504.1,527.2 L509.0,530.8 L510.3,527.4 L514.9,525.5 L514.8,529.1 L506.2,542.0 L505.0,543.0 L501.6,539.4 L487.6,540.0 L489.5,542.3 L495.1,542.6 L496.8,548.0 L501.7,550.1 L502.0,551.8 L498.8,559.2 L470.1,559.7 L467.4,555.9 L464.4,555.0 L464.7,539.5 L472.2,532.5 L472.0,530.0 L476.4,528.6 L480.8,530.5 L480.2,535.4 L484.5,536.3 L486.5,532.1 L489.2,532.2 L484.6,524.4 L495.2,507.8 L506.8,497.5 L505.6,493.9 L506.7,483.6 L502.6,478.1 L498.6,478.3 L516.3,463.1 L501.7,445.9 L496.6,450.3 L490.5,446.0 L488.0,442.2 L485.9,442.8 L483.1,436.6 L479.5,434.7 L478.4,432.3 L480.2,429.4 L475.3,427.7 Z M501.9,558.2 L502.5,553.1 L505.2,554.7 L508.1,548.0 L513.3,542.6 L506.7,553.4 L504.6,558.1 L503.2,557.8 Z">
  <desc xmlns="http://www.highcharts.com/svg/namespace">
    <geoid>4827</geoid>
    <name>Congressional District 27</name>
    <hc-middle-x>0.50</hc-middle-x>
    <hc-middle-y>0.49</hc-middle-y>
    <hc-key>us-tx-27</hc-key>
    <hc-a2>CD</hc-a2>
  </desc>
</path>

<path fill="#CEE3F5" stroke="#6E6E6E" stroke-width="0.4" id="US.TX.20" d="M429.5,434.6 L427.9,438.6 L430.3,437.6 L435.0,438.3 L433.5,442.0 L430.5,442.9 L434.0,449.1 L432.9,449.1 L430.5,448.2 L425.2,450.4 L424.5,445.9 L426.0,442.3 L419.6,443.8 L417.4,439.4 L421.2,437.8 L423.2,431.5 L427.2,431.9 Z">
  <desc xmlns="http://www.highcharts.com/svg/namespace">
    <geoid>4820</geoid>
    <name>Congressional District 20</name>
    <hc-middle-x>0.56</hc-middle-x>
    <hc-middle-y>0.55</hc-middle-y>
    <hc-key>us-tx-20</hc-key>
    <hc-a2>CD</hc-a2>
  </desc>
</path>

<path fill="#CEE3F5" stroke="#6E6E6E" stroke-width="0.4" id="US.TX.21" d="M433.5,442.0 L435.0,438.3 L430.3,437.6 L427.9,438.6 L429.5,434.6 L430.2,436.9 L433.5,432.6 L433.5,429.4 L435.8,429.6 L436.1,424.8 L430.3,423.2 L428.6,424.4 L417.9,425.7 L409.9,435.6 L406.7,435.4 L406.8,431.8 L386.4,431.5 L350.9,431.5 L350.3,425.3 L351.0,420.9 L350.1,417.5 L351.7,414.5 L352.4,406.5 L353.6,403.0 L365.0,403.6 L365.3,390.2 L389.6,390.5 L389.6,377.3 L405.9,377.4 L437.6,377.1 L440.8,378.1 L453.0,381.7 L450.5,386.1 L443.9,405.9 L453.5,413.6 L456.2,409.5 L459.6,408.9 L460.6,400.8 L465.1,402.1 L468.1,399.5 L466.7,398.6 L469.0,394.8 L462.7,391.9 L463.3,389.1 L467.2,388.3 L470.1,392.9 L472.8,389.9 L474.2,391.4 L475.4,394.8 L472.5,393.7 L469.3,398.4 L472.4,398.1 L471.8,403.3 L470.0,401.9 L466.3,405.2 L466.7,410.1 L462.6,417.0 L454.7,426.3 L453.4,425.6 L445.6,431.3 L439.5,433.6 L436.2,440.3 L438.2,441.9 Z">
  <desc xmlns="http://www.highcharts.com/svg/namespace">
    <geoid>4821</geoid>
    <name>Congressional District 21</name>
    <hc-middle-x>0.46</hc-middle-x>
    <hc-middle-y>0.45</hc-middle-y>
    <hc-key>us-tx-21</hc-key>
    <hc-a2>CD</hc-a2>
  </desc>
</path>

<path fill="#CEE3F5" stroke="#6E6E6E" stroke-width="0.4" id="US.TX.32" d="M521.0,221.5 L531.0,221.5 L531.9,217.9 L536.8,217.7 L538.9,218.9 L538.7,221.4 L536.0,221.5 L536.2,232.0 L528.3,228.7 L528.3,225.8 L523.1,228.9 L524.6,232.1 L521.5,233.6 L518.9,229.7 L519.0,226.4 L521.1,225.4 Z">
  <desc xmlns="http://www.highcharts.com/svg/namespace">
    <geoid>4832</geoid>
    <name>Congressional District 32</name>
    <hc-middle-x>0.82</hc-middle-x>
    <hc-middle-y>0.45</hc-middle-y>
    <hc-key>us-tx-32</hc-key>
    <hc-a2>CD</hc-a2>
  </desc>
</path>

<path fill="#CEE3F5" stroke="#6E6E6E" stroke-width="0.4" id="US.TX.03" d="M538.9,218.9 L536.8,217.7 L531.9,217.9 L531.0,221.5 L521.0,221.5 L518.9,221.5 L518.9,215.4 L518.8,208.5 L518.8,204.4 L526.6,204.3 L531.1,202.5 L531.8,199.0 L541.5,198.0 L540.9,205.2 L543.2,207.0 L540.5,218.1 Z">
  <desc xmlns="http://www.highcharts.com/svg/namespace">
    <geoid>4803</geoid>
    <name>Congressional District 3</name>
    <hc-middle-x>0.50</hc-middle-x>
    <hc-middle-y>0.50</hc-middle-y>
    <hc-key>us-tx-03</hc-key>
    <hc-a2>CD</hc-a2>
  </desc>
</path>

<path fill="#CEE3F5" stroke="#6E6E6E" stroke-width="0.4" id="US.TX.31" d="M472.0,381.2 L467.9,378.7 L467.4,376.9 L466.8,374.1 L462.0,369.1 L457.0,369.4 L461.6,359.3 L468.7,351.7 L464.2,343.8 L464.0,341.8 L467.6,339.6 L469.4,342.3 L472.0,342.3 L471.3,338.4 L469.2,338.7 L490.3,325.7 L494.4,330.4 L497.8,328.1 L509.2,346.2 L499.2,352.4 L496.3,360.9 L498.7,361.9 L505.2,379.1 L495.6,382.7 L486.0,377.7 L481.5,376.7 Z">
  <desc xmlns="http://www.highcharts.com/svg/namespace">
    <geoid>4831</geoid>
    <name>Congressional District 31</name>
    <hc-middle-x>0.51</hc-middle-x>
    <hc-middle-y>0.49</hc-middle-y>
    <hc-key>us-tx-31</hc-key>
    <hc-a2>CD</hc-a2>
  </desc>
</path>

<path fill="#CEE3F5" stroke="#6E6E6E" stroke-width="0.4" id="US.TX.10" d="M467.4,376.9 L467.9,378.7 L472.0,381.2 L473.1,382.7 L478.7,383.9 L479.0,380.4 L482.0,378.8 L485.5,380.5 L486.4,382.6 L494.4,385.8 L500.1,385.1 L505.2,388.2 L509.9,383.7 L510.4,384.8 L519.0,381.0 L520.2,379.4 L526.1,384.5 L527.7,387.3 L531.9,388.7 L540.9,386.7 L550.7,382.8 L553.1,384.3 L556.8,382.7 L559.5,383.5 L559.3,385.9 L563.1,388.4 L563.0,392.1 L578.4,390.7 L578.7,400.3 L586.6,398.9 L590.9,396.1 L594.5,397.0 L594.6,399.4 L591.2,398.8 L590.3,401.3 L586.2,400.7 L586.5,402.9 L589.7,405.8 L590.7,407.7 L590.8,409.8 L586.0,408.7 L584.5,413.3 L580.7,413.7 L583.7,416.3 L582.1,421.6 L578.0,419.1 L568.3,424.7 L567.5,431.0 L564.0,431.1 L559.2,429.3 L552.2,436.8 L550.1,443.6 L534.5,453.8 L533.5,452.8 L538.7,448.3 L525.8,433.5 L523.6,433.5 L521.8,430.1 L506.7,430.7 L507.4,429.7 L497.1,421.1 L503.7,414.0 L505.0,405.3 L500.9,402.6 L495.3,403.0 L496.5,400.9 L493.5,396.4 L490.0,398.9 L491.0,396.5 L487.3,394.6 L486.2,395.4 L482.4,390.9 L482.7,386.6 L477.5,387.7 L471.1,389.5 L469.8,388.0 L473.4,386.1 L467.9,383.4 L463.7,379.7 Z">
  <desc xmlns="http://www.highcharts.com/svg/namespace">
    <geoid>4810</geoid>
    <name>Congressional District 10</name>
    <hc-middle-x>0.65</hc-middle-x>
    <hc-middle-y>0.47</hc-middle-y>
    <hc-key>us-tx-10</hc-key>
    <hc-a2>CD</hc-a2>
  </desc>
</path>

<path fill="#CEE3F5" stroke="#6E6E6E" stroke-width="0.4" id="US.TX.04" d="M512.4,161.8 L513.8,161.2 L515.7,166.8 L521.1,167.3 L521.7,169.2 L525.7,167.7 L526.5,163.8 L531.1,165.2 L528.9,167.6 L534.0,169.2 L535.7,172.3 L539.3,171.8 L543.2,177.3 L545.3,176.8 L546.6,172.1 L550.3,173.5 L552.9,172.1 L553.8,167.8 L559.0,167.7 L564.5,166.0 L565.4,164.5 L570.4,167.5 L573.5,166.7 L574.1,163.8 L580.8,162.6 L582.3,160.4 L584.8,163.6 L590.7,164.9 L598.8,164.0 L602.0,158.4 L606.5,159.9 L610.9,164.3 L615.1,164.3 L616.0,167.0 L620.2,171.1 L626.4,172.8 L627.5,174.3 L633.3,174.7 L636.7,178.0 L640.7,177.1 L646.0,182.6 L651.4,181.7 L653.4,179.6 L654.9,181.6 L656.6,179.1 L658.6,180.9 L661.9,180.0 L664.0,181.4 L666.6,234.9 L664.1,235.2 L663.4,232.2 L661.2,232.1 L659.6,235.1 L657.1,234.7 L655.9,231.8 L648.3,235.6 L642.2,235.9 L631.7,230.2 L632.0,238.9 L629.7,238.1 L625.9,243.0 L617.9,246.8 L618.4,238.9 L619.5,233.7 L613.6,236.0 L608.3,239.3 L607.5,218.1 L606.5,220.6 L603.5,220.7 L580.7,221.6 L582.8,236.4 L581.0,237.0 L576.0,233.6 L572.5,233.9 L566.8,229.7 L547.8,229.9 L547.8,231.7 L536.2,232.0 L536.0,221.5 L538.7,221.4 L538.9,218.9 L540.5,218.1 L543.2,207.0 L540.9,205.2 L541.5,198.0 L531.8,199.0 L531.1,202.5 L526.6,204.3 L518.8,204.4 L518.9,195.5 L513.1,195.0 L512.9,182.1 Z">
  <desc xmlns="http://www.highcharts.com/svg/namespace">
    <geoid>4804</geoid>
    <name>Congressional District 4</name>
    <hc-middle-x>0.41</hc-middle-x>
    <hc-middle-y>0.43</hc-middle-y>
    <hc-key>us-tx-04</hc-key>
    <hc-a2>CD</hc-a2>
  </desc>
</path>

<path fill="#CEE3F5" stroke="#6E6E6E" stroke-width="0.4" id="US.TX.36" d="M624.6,434.9 L624.5,434.8 L628.3,435.7 L628.3,435.7 L628.3,435.7 Z M617.0,435.4 L614.8,428.4 L612.3,428.4 L611.2,426.8 L615.3,424.9 L613.6,422.8 L615.8,416.0 L613.2,415.3 L611.9,412.2 L617.7,409.6 L617.7,406.6 L620.7,405.0 L616.7,394.4 L612.6,383.4 L629.7,373.9 L630.3,370.5 L619.5,368.6 L620.5,366.9 L617.9,362.4 L615.2,363.8 L613.5,361.7 L613.6,356.2 L609.8,353.7 L623.3,339.6 L628.2,332.9 L633.9,335.4 L649.0,339.2 L670.0,333.4 L671.3,331.9 L678.0,330.1 L694.6,328.2 L698.1,327.5 L696.9,333.0 L700.0,336.9 L697.0,338.3 L699.0,341.6 L696.9,346.3 L698.2,349.3 L695.1,354.2 L694.5,359.3 L691.8,361.8 L692.2,364.7 L689.0,368.2 L691.6,374.4 L688.5,377.5 L688.2,381.1 L691.7,383.7 L691.4,388.8 L692.7,393.3 L691.8,397.7 L687.9,402.8 L684.3,403.9 L674.7,400.8 L674.6,398.7 L671.2,397.5 L672.2,395.6 L669.8,392.6 L664.6,391.2 L661.1,392.5 L660.3,395.8 L654.6,397.3 L652.1,396.5 L652.8,410.5 L657.4,410.3 L658.3,427.4 L654.7,430.4 L651.3,431.3 L649.9,431.7 L648.3,430.8 L647.9,430.3 L647.4,430.3 L647.1,430.2 L646.9,430.3 L644.1,431.5 L640.4,432.5 L639.9,432.7 L639.1,432.9 L636.5,433.7 L636.1,433.6 L635.0,432.5 L638.6,428.2 L639.7,422.9 L639.0,419.5 L636.7,417.6 L633.3,417.8 L629.8,425.1 L620.0,420.2 L619.5,422.6 L623.8,424.8 L624.0,429.0 L622.1,432.7 L619.5,432.3 Z">
  <desc xmlns="http://www.highcharts.com/svg/namespace">
    <geoid>4836</geoid>
    <name>Congressional District 36</name>
    <hc-middle-x>0.56</hc-middle-x>
    <hc-middle-y>0.34</hc-middle-y>
    <hc-key>us-tx-36</hc-key>
    <hc-a2>CD</hc-a2>
  </desc>
</path>

<path fill="#CEE3F5" stroke="#6E6E6E" stroke-width="0.4" id="US.TX.25" d="M467.4,376.9 L463.7,379.7 L467.9,383.4 L473.4,386.1 L469.8,388.0 L471.1,389.5 L477.5,387.7 L479.7,391.1 L474.2,391.4 L472.8,389.9 L470.1,392.9 L467.2,388.3 L463.3,389.1 L462.7,391.9 L469.0,394.8 L466.7,398.6 L468.1,399.5 L465.1,402.1 L460.6,400.8 L459.6,408.9 L456.2,409.5 L453.5,413.6 L443.9,405.9 L450.5,386.1 L453.0,381.7 L440.8,378.1 L440.8,373.6 L438.2,373.2 L436.0,366.4 L439.6,362.2 L436.4,359.4 L439.3,356.4 L435.0,353.7 L434.9,345.7 L433.6,338.7 L431.4,340.6 L430.1,338.5 L432.1,336.5 L428.9,333.8 L429.3,331.8 L445.0,320.6 L434.4,303.6 L450.7,293.7 L445.6,285.2 L443.2,284.2 L444.2,277.2 L442.6,275.5 L445.4,271.6 L442.0,266.3 L449.2,270.0 L454.6,269.1 L455.7,271.5 L461.6,269.3 L470.2,264.0 L479.0,263.8 L478.7,249.1 L485.2,249.0 L490.9,249.0 L506.6,249.0 L507.0,266.7 L514.9,279.8 L517.3,278.4 L527.0,294.3 L515.8,301.1 L510.0,291.6 L480.1,309.2 L490.3,325.7 L469.2,338.7 L471.3,338.4 L472.0,342.3 L469.4,342.3 L467.6,339.6 L464.0,341.8 L464.2,343.8 L468.7,351.7 L461.6,359.3 L457.0,369.4 L462.0,369.1 L466.8,374.1 Z">
  <desc xmlns="http://www.highcharts.com/svg/namespace">
    <geoid>4825</geoid>
    <name>Congressional District 25</name>
    <hc-middle-x>0.38</hc-middle-x>
    <hc-middle-y>0.31</hc-middle-y>
    <hc-key>us-tx-25</hc-key>
    <hc-a2>CD</hc-a2>
  </desc>
</path>

<path fill="#CEE3F5" stroke="#6E6E6E" stroke-width="0.4" id="US.TX.35" d="M474.2,391.4 L479.7,391.1 L477.5,387.7 L482.7,386.6 L482.4,390.9 L486.2,395.4 L487.3,394.6 L478.9,403.7 L476.9,407.1 L477.8,413.4 L480.4,415.7 L476.2,417.0 L472.8,415.2 L474.9,418.4 L472.0,423.0 L468.6,420.5 L466.8,416.9 L455.3,427.8 L446.0,432.9 L445.4,436.1 L443.3,433.4 L438.8,438.0 L440.7,442.7 L437.6,445.0 L438.8,447.3 L436.9,450.3 L432.9,449.1 L434.0,449.1 L430.5,442.9 L433.5,442.0 L438.2,441.9 L436.2,440.3 L439.5,433.6 L445.6,431.3 L453.4,425.6 L454.7,426.3 L462.6,417.0 L466.7,410.1 L466.3,405.2 L470.0,401.9 L471.8,403.3 L472.4,398.1 L469.3,398.4 L472.5,393.7 L475.4,394.8 Z">
  <desc xmlns="http://www.highcharts.com/svg/namespace">
    <geoid>4835</geoid>
    <name>Congressional District 35</name>
    <hc-middle-x>0.65</hc-middle-x>
    <hc-middle-y>0.34</hc-middle-y>
    <hc-key>us-tx-35</hc-key>
    <hc-a2>CD</hc-a2>
  </desc>
</path>

<path fill="#CEE3F5" stroke="#6E6E6E" stroke-width="0.4" id="US.TX.28" d="M437.6,445.0 L440.7,442.7 L438.8,438.0 L443.3,433.4 L445.4,436.1 L447.5,435.9 L451.3,440.6 L453.4,440.3 L454.2,447.6 L462.7,446.7 L462.4,451.1 L458.9,454.4 L460.7,460.2 L458.5,464.6 L460.8,468.6 L450.2,477.6 L455.3,483.5 L442.4,494.4 L442.6,528.9 L416.8,529.0 L417.1,578.1 L408.4,578.0 L408.5,608.0 L443.8,608.1 L434.3,629.1 L441.4,630.1 L442.5,636.8 L440.8,636.5 L440.5,641.2 L446.9,640.2 L444.7,649.8 L442.5,646.5 L440.3,646.9 L437.0,642.8 L433.7,643.8 L429.2,640.8 L424.7,642.2 L419.9,636.3 L416.0,633.8 L411.8,634.9 L407.4,631.9 L401.3,632.2 L399.7,630.3 L400.8,627.5 L397.8,621.8 L397.1,612.0 L394.0,609.9 L393.6,603.0 L394.5,598.3 L391.4,601.3 L386.4,598.4 L385.2,593.7 L381.8,592.4 L382.2,583.6 L381.4,579.1 L376.1,575.0 L377.9,573.5 L379.4,564.9 L376.7,563.7 L377.6,559.6 L373.1,555.0 L370.6,555.7 L366.0,553.2 L363.3,549.1 L357.7,545.1 L354.5,533.6 L351.3,532.8 L349.8,528.2 L346.1,523.2 L339.2,520.0 L384.2,519.9 L384.2,520.3 L401.1,520.0 L416.9,520.0 L416.6,454.9 L436.4,462.6 L435.7,458.9 L441.3,450.4 L440.7,446.0 Z">
  <desc xmlns="http://www.highcharts.com/svg/namespace">
    <geoid>4828</geoid>
    <name>Congressional District 28</name>
    <hc-middle-x>0.47</hc-middle-x>
    <hc-middle-y>0.57</hc-middle-y>
    <hc-key>us-tx-28</hc-key>
    <hc-a2>CD</hc-a2>
  </desc>
</path>

<path fill="#CEE3F5" stroke="#6E6E6E" stroke-width="0.4" id="US.TX.23" d="M432.9,449.1 L436.9,450.3 L438.8,447.3 L437.6,445.0 L440.7,446.0 L441.3,450.4 L435.7,458.9 L436.4,462.6 L416.6,454.9 L416.9,520.0 L401.1,520.0 L384.2,520.3 L384.2,519.9 L339.2,520.0 L338.6,517.7 L334.8,514.9 L335.1,512.5 L331.8,507.3 L329.2,495.8 L323.7,491.0 L323.4,486.1 L321.3,480.8 L315.7,473.2 L314.5,463.6 L309.1,459.0 L308.1,454.7 L303.2,450.5 L296.8,446.9 L294.1,441.6 L296.6,439.4 L300.3,440.0 L298.7,436.4 L295.5,435.9 L294.4,439.0 L289.3,437.2 L284.4,429.4 L280.8,431.6 L280.3,428.3 L277.7,428.6 L277.1,425.6 L272.8,420.1 L268.2,421.6 L258.9,421.4 L251.5,418.4 L247.4,419.8 L244.3,417.8 L240.6,419.5 L226.1,413.3 L223.6,415.4 L222.2,420.5 L215.4,418.9 L205.7,422.5 L205.5,425.2 L198.9,434.6 L196.9,444.7 L194.8,444.9 L193.0,450.7 L195.1,453.1 L190.3,456.0 L187.8,455.9 L185.7,460.4 L183.2,461.2 L180.8,467.6 L173.6,467.5 L168.7,464.4 L166.3,464.7 L157.3,456.0 L148.5,454.1 L145.2,448.8 L132.4,445.2 L126.0,440.8 L122.6,434.3 L115.6,431.5 L106.7,424.1 L104.9,420.9 L104.0,415.3 L98.1,405.1 L97.8,398.3 L98.7,389.5 L97.8,386.0 L90.0,375.9 L89.0,366.1 L84.7,361.9 L83.0,357.1 L80.0,356.9 L77.3,352.8 L74.9,352.5 L72.2,349.0 L69.9,349.6 L64.5,345.8 L61.9,342.5 L54.5,336.5 L53.3,332.2 L50.1,328.3 L43.5,324.6 L38.9,316.8 L35.7,315.1 L34.7,311.8 L28.3,309.3 L20.9,303.6 L18.0,298.4 L15.0,290.1 L18.0,289.1 L21.9,291.0 L33.8,292.0 L34.9,271.9 L65.1,273.9 L190.6,280.0 L190.8,274.6 L190.8,274.6 L190.8,274.6 L190.8,274.6 L204.8,275.2 L203.9,302.2 L285.4,304.5 L284.2,340.0 L326.2,340.2 L346.3,340.4 L345.7,390.0 L365.3,390.2 L365.0,403.6 L353.6,403.0 L352.4,406.5 L351.7,414.5 L350.1,417.5 L351.0,420.9 L350.3,425.3 L350.9,431.5 L386.4,431.5 L406.8,431.8 L406.7,435.4 L409.9,435.6 L417.9,425.7 L428.6,424.4 L430.3,423.2 L436.1,424.8 L435.8,429.6 L433.5,429.4 L433.5,432.6 L430.2,436.9 L429.5,434.6 L427.2,431.9 L423.2,431.5 L421.2,437.8 L417.4,439.4 L419.6,443.8 L426.0,442.3 L424.5,445.9 L425.2,450.4 L430.5,448.2 Z">
  <desc xmlns="http://www.highcharts.com/svg/namespace">
    <geoid>4823</geoid>
    <name>Congressional District 23</name>
    <hc-middle-x>0.43</hc-middle-x>
    <hc-middle-y>0.32</hc-middle-y>
    <hc-key>us-tx-23</hc-key>
    <hc-a2>CD</hc-a2>
  </desc>
</path>

<path fill="#CEE3F5" stroke="#6E6E6E" stroke-width="0.4" id="US.TX.11" d="M478.7,249.1 L479.0,263.8 L470.2,264.0 L461.6,269.3 L455.7,271.5 L454.6,269.1 L449.2,270.0 L442.0,266.3 L445.4,271.6 L442.6,275.5 L444.2,277.2 L443.2,284.2 L445.6,285.2 L450.7,293.7 L434.4,303.6 L445.0,320.6 L429.3,331.8 L428.9,333.8 L432.1,336.5 L430.1,338.5 L431.4,340.6 L433.6,338.7 L434.9,345.7 L435.0,353.7 L439.3,356.4 L436.4,359.4 L439.6,362.2 L436.0,366.4 L438.2,373.2 L440.8,373.6 L440.8,378.1 L437.6,377.1 L405.9,377.4 L389.6,377.3 L389.6,390.5 L365.3,390.2 L345.7,390.0 L346.3,340.4 L326.2,340.2 L284.2,340.0 L285.4,304.5 L203.9,302.2 L204.8,275.2 L190.8,274.6 L190.8,274.6 L191.1,265.9 L191.8,247.5 L237.2,249.0 L237.7,221.9 L264.9,222.5 L264.3,250.7 L263.3,276.8 L290.3,277.5 L291.4,250.1 L318.5,250.7 L317.8,278.1 L335.8,278.6 L372.5,278.9 L372.8,252.0 L400.9,252.1 L400.9,240.1 L410.1,240.5 L408.8,236.5 L411.9,236.2 L423.5,239.8 L428.2,238.4 L428.2,224.7 L435.9,224.8 L436.0,221.3 L445.4,221.4 L455.4,221.5 L455.0,249.1 Z">
  <desc xmlns="http://www.highcharts.com/svg/namespace">
    <geoid>4811</geoid>
    <name>Congressional District 11</name>
    <hc-middle-x>0.67</hc-middle-x>
    <hc-middle-y>0.59</hc-middle-y>
    <hc-key>us-tx-11</hc-key>
    <hc-a2>CD</hc-a2>
  </desc>
</path>

<path fill="#CEE3F5" stroke="#6E6E6E" stroke-width="0.4" id="US.TX.13" d="M455.4,221.5 L445.4,221.4 L436.0,221.3 L436.1,197.2 L380.6,197.0 L299.6,196.2 L300.4,150.6 L294.2,150.5 L294.2,152.8 L288.6,152.7 L288.5,158.0 L284.7,158.7 L283.2,156.0 L277.5,156.3 L276.5,153.5 L273.2,153.5 L273.6,138.6 L251.2,138.0 L252.0,110.9 L198.4,109.1 L201.7,31.1 L202.9,0.0 L355.7,4.0 L354.5,124.6 L358.4,123.8 L370.1,136.1 L375.0,136.4 L376.0,133.7 L379.2,133.9 L385.4,136.3 L386.6,131.2 L393.4,136.6 L396.1,146.4 L403.7,147.4 L408.4,146.6 L413.1,150.4 L421.9,151.4 L424.1,149.5 L427.8,150.4 L432.5,155.8 L436.0,154.5 L438.8,149.9 L448.9,152.5 L451.2,149.9 L453.0,151.6 L451.4,155.1 L453.3,159.4 L460.5,160.0 L458.6,165.8 L464.1,168.7 L466.4,168.2 L470.0,163.5 L475.2,159.9 L479.0,162.2 L479.1,165.2 L483.6,164.2 L486.2,165.9 L485.6,168.9 L490.3,170.4 L492.4,166.2 L495.4,167.8 L496.9,165.0 L500.0,165.1 L499.8,173.8 L501.8,176.0 L504.8,175.7 L504.9,171.0 L507.2,170.1 L510.5,165.4 L509.8,162.3 L512.4,161.8 L512.9,182.1 L513.1,195.0 L490.2,194.5 L489.9,209.9 L481.4,209.1 L480.7,204.7 L477.8,206.7 L478.9,211.5 L483.1,213.6 L482.8,218.2 L475.7,216.8 L475.1,221.7 Z">
  <desc xmlns="http://www.highcharts.com/svg/namespace">
    <geoid>4813</geoid>
    <name>Congressional District 13</name>
    <hc-middle-x>0.33</hc-middle-x>
    <hc-middle-y>0.43</hc-middle-y>
    <hc-key>us-tx-13</hc-key>
    <hc-a2>CD</hc-a2>
  </desc>
</path>

<path fill="#CEE3F5" stroke="#6E6E6E" stroke-width="0.4" id="US.TX.26" d="M489.9,209.9 L490.2,194.5 L513.1,195.0 L518.9,195.5 L518.8,204.4 L518.8,208.5 L518.9,215.4 L513.6,218.8 L512.9,221.8 L503.8,221.7 L500.4,223.5 L501.1,228.6 L496.3,231.2 L496.5,227.3 L494.2,226.5 L494.6,222.7 L489.8,221.8 Z">
  <desc xmlns="http://www.highcharts.com/svg/namespace">
    <geoid>4826</geoid>
    <name>Congressional District 26</name>
    <hc-middle-x>0.51</hc-middle-x>
    <hc-middle-y>0.34</hc-middle-y>
    <hc-key>us-tx-26</hc-key>
    <hc-a2>CD</hc-a2>
  </desc>
</path>

<path fill="#CEE3F5" stroke="#6E6E6E" stroke-width="0.4" id="US.TX.07" d="M582.1,421.6 L583.7,416.3 L580.7,413.7 L584.5,413.3 L586.0,408.7 L590.8,409.8 L592.3,413.5 L587.6,413.2 L587.8,419.1 L594.6,418.9 L600.6,420.6 L600.2,424.8 L597.9,427.3 L595.8,426.2 L593.6,421.9 L587.4,422.2 L585.6,423.7 L583.3,422.4 Z">
  <desc xmlns="http://www.highcharts.com/svg/namespace">
    <geoid>4807</geoid>
    <name>Congressional District 7</name>
    <hc-middle-x>0.26</hc-middle-x>
    <hc-middle-y>0.34</hc-middle-y>
    <hc-key>us-tx-07</hc-key>
    <hc-a2>CD</hc-a2>
  </desc>
</path>

<path fill="#CEE3F5" stroke="#6E6E6E" stroke-width="0.4" id="US.TX.05" d="M536.2,232.0 L547.8,231.7 L547.8,229.9 L566.8,229.7 L572.5,233.9 L576.0,233.6 L581.0,237.0 L582.8,236.4 L580.7,221.6 L603.5,220.7 L603.3,223.0 L599.2,224.2 L593.9,228.9 L592.3,232.7 L594.1,238.1 L594.3,243.0 L591.5,243.3 L585.0,238.5 L585.4,251.4 L593.3,258.6 L593.5,262.6 L591.5,266.6 L593.2,272.6 L618.3,271.5 L619.0,289.7 L621.5,289.6 L620.2,295.4 L621.2,302.4 L622.8,306.2 L626.1,309.3 L619.0,315.9 L613.7,313.4 L613.6,310.3 L609.4,306.3 L604.2,306.0 L584.2,309.8 L579.6,312.3 L580.9,305.3 L579.5,303.0 L577.9,306.5 L576.3,304.6 L577.1,301.2 L572.8,301.1 L571.9,296.9 L566.2,295.2 L563.7,284.5 L562.0,285.2 L561.9,281.2 L561.2,276.6 L559.1,277.3 L558.4,272.0 L555.7,272.2 L556.2,268.7 L554.1,269.3 L552.0,266.6 L540.2,260.0 L541.2,256.9 L537.1,252.6 L536.0,248.7 L531.0,244.3 L532.7,239.9 L530.1,239.7 L529.9,235.7 L527.8,233.5 L528.8,231.2 L524.6,232.1 L523.1,228.9 L528.3,225.8 L528.3,228.7 Z">
  <desc xmlns="http://www.highcharts.com/svg/namespace">
    <geoid>4805</geoid>
    <name>Congressional District 5</name>
    <hc-middle-x>0.57</hc-middle-x>
    <hc-middle-y>0.55</hc-middle-y>
    <hc-key>us-tx-05</hc-key>
    <hc-a2>CD</hc-a2>
  </desc>
</path>

<path fill="#CEE3F5" stroke="#6E6E6E" stroke-width="0.4" id="US.TX.22" d="M582.1,421.6 L583.3,422.4 L585.6,423.7 L584.2,426.9 L589.3,426.0 L593.6,434.0 L597.7,435.7 L598.1,433.1 L595.4,431.6 L607.0,430.2 L610.5,429.6 L612.3,428.4 L614.8,428.4 L617.0,435.4 L614.5,436.1 L611.5,432.6 L610.8,438.2 L613.1,442.0 L611.3,443.3 L606.8,441.9 L604.0,445.5 L600.7,445.6 L600.7,435.7 L599.3,435.8 L598.4,440.3 L593.6,440.5 L592.2,446.6 L588.2,449.8 L582.7,447.9 L577.7,451.9 L575.0,448.7 L572.2,447.6 L570.6,442.8 L567.1,440.7 L565.8,437.9 L566.5,433.5 L564.0,431.1 L567.5,431.0 L568.3,424.7 L578.0,419.1 Z">
  <desc xmlns="http://www.highcharts.com/svg/namespace">
    <geoid>4822</geoid>
    <name>Congressional District 22</name>
    <hc-middle-x>0.27</hc-middle-x>
    <hc-middle-y>0.51</hc-middle-y>
    <hc-key>us-tx-22</hc-key>
    <hc-a2>CD</hc-a2>
  </desc>
</path>

<path fill="#CEE3F5" stroke="#6E6E6E" stroke-width="0.4" id="US.TX.09" d="M607.0,430.2 L595.4,431.6 L598.1,433.1 L597.7,435.7 L593.6,434.0 L589.3,426.0 L584.2,426.9 L585.6,423.7 L587.4,422.2 L593.6,421.9 L595.8,426.2 L597.9,427.3 L600.2,424.8 L601.1,423.4 L601.7,422.4 L602.3,425.5 L605.6,425.2 L606.0,426.6 Z">
  <desc xmlns="http://www.highcharts.com/svg/namespace">
    <geoid>4809</geoid>
    <name>Congressional District 9</name>
    <hc-middle-x>0.74</hc-middle-x>
    <hc-middle-y>0.65</hc-middle-y>
    <hc-key>us-tx-09</hc-key>
    <hc-a2>CD</hc-a2>
  </desc>
</path>

<path fill="#CEE3F5" stroke="#6E6E6E" stroke-width="0.4" id="US.TX.18" d="M605.6,425.2 L602.3,425.5 L601.7,422.4 L602.7,420.8 L596.0,415.3 L594.0,416.6 L592.1,414.2 L596.2,413.3 L594.5,409.0 L594.6,405.1 L601.9,400.9 L607.7,405.0 L607.9,407.9 L604.3,409.5 L599.8,408.5 L600.3,413.0 L603.9,418.9 L606.1,411.4 L609.7,410.8 L610.3,416.6 L607.6,420.7 L605.9,418.4 L604.3,421.3 Z">
  <desc xmlns="http://www.highcharts.com/svg/namespace">
    <geoid>4818</geoid>
    <name>Congressional District 18</name>
    <hc-middle-x>0.35</hc-middle-x>
    <hc-middle-y>0.30</hc-middle-y>
    <hc-key>us-tx-18</hc-key>
    <hc-a2>CD</hc-a2>
  </desc>
</path>

<path fill="#CEE3F5" stroke="#6E6E6E" stroke-width="0.4" id="US.TX.19" d="M198.4,109.1 L252.0,110.9 L251.2,138.0 L273.6,138.6 L273.2,153.5 L276.5,153.5 L277.5,156.3 L283.2,156.0 L284.7,158.7 L288.5,158.0 L288.6,152.7 L294.2,152.8 L294.2,150.5 L300.4,150.6 L299.6,196.2 L380.6,197.0 L436.1,197.2 L436.0,221.3 L435.9,224.8 L428.2,224.7 L428.2,238.4 L423.5,239.8 L411.9,236.2 L408.8,236.5 L410.1,240.5 L400.9,240.1 L400.9,252.1 L372.8,252.0 L372.5,278.9 L335.8,278.6 L317.8,278.1 L318.5,250.7 L291.4,250.1 L290.3,277.5 L263.3,276.8 L264.3,250.7 L264.9,222.5 L237.7,221.9 L237.2,249.0 L191.8,247.5 L192.9,217.8 L196.5,154.3 Z">
  <desc xmlns="http://www.highcharts.com/svg/namespace">
    <geoid>4819</geoid>
    <name>Congressional District 19</name>
    <hc-middle-x>0.32</hc-middle-x>
    <hc-middle-y>0.52</hc-middle-y>
    <hc-key>us-tx-19</hc-key>
    <hc-a2>CD</hc-a2>
  </desc>
</path>

<path fill="#CEE3F5" stroke="#6E6E6E" stroke-width="0.4" id="US.TX.06" d="M527.0,294.3 L517.3,278.4 L514.9,279.8 L507.0,266.7 L506.6,249.0 L490.9,249.0 L490.7,245.0 L494.2,243.4 L494.3,245.8 L497.8,244.0 L498.4,236.0 L502.8,236.2 L505.2,234.0 L508.7,233.4 L508.6,237.3 L505.2,239.6 L509.1,240.0 L509.2,249.0 L536.0,248.7 L537.1,252.6 L541.2,256.9 L540.2,260.0 L552.0,266.6 L554.1,269.3 L556.2,268.7 L555.7,272.2 L558.4,272.0 L559.1,277.3 L561.2,276.6 L561.9,281.2 L538.8,295.2 Z">
  <desc xmlns="http://www.highcharts.com/svg/namespace">
    <geoid>4806</geoid>
    <name>Congressional District 6</name>
    <hc-middle-x>0.61</hc-middle-x>
    <hc-middle-y>0.63</hc-middle-y>
    <hc-key>us-tx-06</hc-key>
    <hc-a2>CD</hc-a2>
  </desc>
</path>

<path fill="#CEE3F5" stroke="#6E6E6E" stroke-width="0.4" id="US.TX.17" d="M527.0,294.3 L538.8,295.2 L561.9,281.2 L562.0,285.2 L563.7,284.5 L566.2,295.2 L571.9,296.9 L572.8,301.1 L577.1,301.2 L576.3,304.6 L577.9,306.5 L579.5,303.0 L580.9,305.3 L579.6,312.3 L582.4,320.3 L584.3,322.5 L578.1,323.0 L569.1,326.6 L566.6,325.0 L564.5,328.9 L561.7,330.8 L557.5,331.1 L551.8,338.8 L553.6,341.4 L552.6,344.0 L557.5,353.7 L558.3,365.5 L557.1,369.3 L561.8,380.1 L559.3,385.9 L559.5,383.5 L556.8,382.7 L553.1,384.3 L550.7,382.8 L540.9,386.7 L531.9,388.7 L527.7,387.3 L526.1,384.5 L520.2,379.4 L519.0,381.0 L510.4,384.8 L509.9,383.7 L505.2,388.2 L500.1,385.1 L494.4,385.8 L486.4,382.6 L485.5,380.5 L482.0,378.8 L479.0,380.4 L478.7,383.9 L473.1,382.7 L472.0,381.2 L481.5,376.7 L486.0,377.7 L495.6,382.7 L505.2,379.1 L498.7,361.9 L496.3,360.9 L499.2,352.4 L509.2,346.2 L497.8,328.1 L494.4,330.4 L490.3,325.7 L480.1,309.2 L510.0,291.6 L515.8,301.1 Z">
  <desc xmlns="http://www.highcharts.com/svg/namespace">
    <geoid>4817</geoid>
    <name>Congressional District 17</name>
    <hc-middle-x>0.52</hc-middle-x>
    <hc-middle-y>0.44</hc-middle-y>
    <hc-key>us-tx-17</hc-key>
    <hc-a2>CD</hc-a2>
  </desc>
</path>

<path fill="#CEE3F5" stroke="#6E6E6E" stroke-width="0.4" id="US.TX.16" d="M15.0,290.1 L9.8,285.1 L7.6,285.9 L4.8,282.1 L1.8,280.6 L0.0,276.2 L1.9,274.8 L1.9,269.8 L34.9,271.9 L33.8,292.0 L21.9,291.0 L18.0,289.1 Z">
  <desc xmlns="http://www.highcharts.com/svg/namespace">
    <geoid>4816</geoid>
    <name>Congressional District 16</name>
    <hc-middle-x>0.67</hc-middle-x>
    <hc-middle-y>0.51</hc-middle-y>
    <hc-key>us-tx-16</hc-key>
    <hc-a2>CD</hc-a2>
  </desc>
</path>

<path fill="#CEE3F5" stroke="#6E6E6E" stroke-width="0.4" id="US.TX.01" d="M619.0,315.9 L626.1,309.3 L622.8,306.2 L621.2,302.4 L620.2,295.4 L621.5,289.6 L619.0,289.7 L618.3,271.5 L593.2,272.6 L591.5,266.6 L593.5,262.6 L593.3,258.6 L585.4,251.4 L585.0,238.5 L591.5,243.3 L594.3,243.0 L594.1,238.1 L592.3,232.7 L593.9,228.9 L599.2,224.2 L603.3,223.0 L603.5,220.7 L606.5,220.6 L607.5,218.1 L608.3,239.3 L613.6,236.0 L619.5,233.7 L618.4,238.9 L617.9,246.8 L625.9,243.0 L629.7,238.1 L632.0,238.9 L631.7,230.2 L642.2,235.9 L648.3,235.6 L655.9,231.8 L657.1,234.7 L659.6,235.1 L661.2,232.1 L663.4,232.2 L664.1,235.2 L666.6,234.9 L668.6,278.1 L672.7,282.8 L674.9,283.2 L678.0,288.7 L681.0,291.6 L682.7,296.0 L680.6,302.5 L683.7,306.9 L687.6,307.5 L685.8,310.4 L688.9,312.2 L690.4,317.4 L689.6,320.1 L694.6,324.8 L694.6,328.2 L678.0,330.1 L671.3,331.9 L670.0,333.4 L649.0,339.2 L633.9,335.4 L628.2,332.9 L627.0,327.6 L625.0,326.1 L624.2,321.2 Z">
  <desc xmlns="http://www.highcharts.com/svg/namespace">
    <geoid>4801</geoid>
    <name>Congressional District 1</name>
    <hc-middle-x>0.59</hc-middle-x>
    <hc-middle-y>0.55</hc-middle-y>
    <hc-key>us-tx-01</hc-key>
    <hc-a2>CD</hc-a2>
  </desc>
</path>

<path fill="#CEE3F5" stroke="#6E6E6E" stroke-width="0.4" id="US.TX.33" d="M509.1,240.0 L505.2,239.6 L508.6,237.3 L508.7,233.4 L505.2,234.0 L502.8,236.2 L498.4,236.0 L497.8,244.0 L494.3,245.8 L494.2,243.4 L491.4,241.0 L495.1,237.1 L494.7,233.9 L492.9,235.7 L489.6,233.4 L492.6,231.0 L496.0,234.9 L499.8,234.9 L502.0,233.4 L514.0,231.5 L517.0,226.3 L518.5,229.5 L517.6,232.3 L520.8,235.7 L517.2,239.1 L514.1,238.2 Z">
  <desc xmlns="http://www.highcharts.com/svg/namespace">
    <geoid>4833</geoid>
    <name>Congressional District 33</name>
    <hc-middle-x>0.88</hc-middle-x>
    <hc-middle-y>0.27</hc-middle-y>
    <hc-key>us-tx-33</hc-key>
    <hc-a2>CD</hc-a2>
  </desc>
</path>

<path fill="#CEE3F5" stroke="#6E6E6E" stroke-width="0.4" id="US.TX.15" d="M472.0,423.0 L475.3,427.7 L480.2,429.4 L478.4,432.3 L468.0,448.3 L481.6,463.2 L473.9,469.7 L483.9,481.6 L472.8,490.8 L470.3,490.6 L465.2,487.7 L455.8,491.2 L471.5,520.9 L466.3,525.2 L467.5,528.8 L448.0,528.9 L448.5,578.3 L462.2,578.3 L462.6,618.3 L464.1,618.6 L461.6,628.7 L469.5,629.6 L469.7,649.1 L465.4,648.8 L464.7,647.1 L454.4,644.7 L452.9,642.1 L451.6,651.1 L450.6,652.7 L448.0,652.2 L444.7,649.8 L446.9,640.2 L440.5,641.2 L440.8,636.5 L442.5,636.8 L441.4,630.1 L434.3,629.1 L443.8,608.1 L408.5,608.0 L408.4,578.0 L417.1,578.1 L416.8,529.0 L442.6,528.9 L442.4,494.4 L455.3,483.5 L450.2,477.6 L460.8,468.6 L458.5,464.6 L460.7,460.2 L458.9,454.4 L462.4,451.1 L462.7,446.7 L454.2,447.6 L453.4,440.3 L451.3,440.6 L447.5,435.9 L445.4,436.1 L446.0,432.9 L455.3,427.8 L466.8,416.9 L468.6,420.5 Z">
  <desc xmlns="http://www.highcharts.com/svg/namespace">
    <geoid>4815</geoid>
    <name>Congressional District 15</name>
    <hc-middle-x>0.52</hc-middle-x>
    <hc-middle-y>0.75</hc-middle-y>
    <hc-key>us-tx-15</hc-key>
    <hc-a2>CD</hc-a2>
  </desc>
</path>

<path fill="#CEE3F5" stroke="#6E6E6E" stroke-width="0.4" id="US.TX.12" d="M478.7,249.1 L455.0,249.1 L455.4,221.5 L475.1,221.7 L475.7,216.8 L482.8,218.2 L483.1,213.6 L478.9,211.5 L477.8,206.7 L480.7,204.7 L481.4,209.1 L489.9,209.9 L489.8,221.8 L494.6,222.7 L494.2,226.5 L496.5,227.3 L496.3,231.2 L501.1,228.6 L499.9,231.5 L499.8,234.9 L496.0,234.9 L492.6,231.0 L489.6,233.4 L492.9,235.7 L494.7,233.9 L495.1,237.1 L491.4,241.0 L494.2,243.4 L490.7,245.0 L490.9,249.0 L485.2,249.0 Z">
  <desc xmlns="http://www.highcharts.com/svg/namespace">
    <geoid>4812</geoid>
    <name>Congressional District 12</name>
    <hc-middle-x>0.36</hc-middle-x>
    <hc-middle-y>0.64</hc-middle-y>
    <hc-key>us-tx-12</hc-key>
    <hc-a2>CD</hc-a2>
  </desc>
</path>

<path fill="#CEE3F5" stroke="#6E6E6E" stroke-width="0.4" id="US.TX.24" d="M518.5,229.5 L517.0,226.3 L514.0,231.5 L502.0,233.4 L499.8,234.9 L499.9,231.5 L501.1,228.6 L500.4,223.5 L503.8,221.7 L512.9,221.8 L513.6,218.8 L518.9,215.4 L518.9,221.5 L521.0,221.5 L521.1,225.4 L519.0,226.4 L518.9,229.7 L518.7,229.6 Z">
  <desc xmlns="http://www.highcharts.com/svg/namespace">
    <geoid>4824</geoid>
    <name>Congressional District 24</name>
    <hc-middle-x>0.46</hc-middle-x>
    <hc-middle-y>0.54</hc-middle-y>
    <hc-key>us-tx-24</hc-key>
    <hc-a2>CD</hc-a2>
  </desc>
</path>

<path fill="#CEE3F5" stroke="#6E6E6E" stroke-width="0.4" id="US.TX.30" d="M518.5,229.5 L518.7,229.6 L518.9,229.7 L521.5,233.6 L524.6,232.1 L528.8,231.2 L527.8,233.5 L529.9,235.7 L530.1,239.7 L532.7,239.9 L531.0,244.3 L536.0,248.7 L509.2,249.0 L509.1,240.0 L514.1,238.2 L517.2,239.1 L520.8,235.7 L517.6,232.3 Z">
  <desc xmlns="http://www.highcharts.com/svg/namespace">
    <geoid>4830</geoid>
    <name>Congressional District 30</name>
    <hc-middle-x>0.49</hc-middle-x>
    <hc-middle-y>0.50</hc-middle-y>
    <hc-key>us-tx-30</hc-key>
    <hc-a2>CD</hc-a2>
  </desc>
</path>

<path fill="#CEE3F5" stroke="#6E6E6E" stroke-width="0.4" id="US.TX.08" d="M589.7,405.8 L586.5,402.9 L586.2,400.7 L590.3,401.3 L591.2,398.8 L594.6,399.4 L594.5,397.0 L590.9,396.1 L586.6,398.9 L578.7,400.3 L578.4,390.7 L563.0,392.1 L563.1,388.4 L559.3,385.9 L561.8,380.1 L557.1,369.3 L558.3,365.5 L557.5,353.7 L552.6,344.0 L553.6,341.4 L551.8,338.8 L557.5,331.1 L561.7,330.8 L564.5,328.9 L566.6,325.0 L569.1,326.6 L578.1,323.0 L584.3,322.5 L582.4,320.3 L579.6,312.3 L584.2,309.8 L604.2,306.0 L609.4,306.3 L613.6,310.3 L613.7,313.4 L619.0,315.9 L624.2,321.2 L625.0,326.1 L627.0,327.6 L628.2,332.9 L623.3,339.6 L609.8,353.7 L613.6,356.2 L613.5,361.7 L615.2,363.8 L617.9,362.4 L620.5,366.9 L619.5,368.6 L630.3,370.5 L629.7,373.9 L612.6,383.4 L616.7,394.4 L608.0,403.1 L603.2,400.4 L598.6,399.3 L598.0,401.0 L592.1,400.9 Z">
  <desc xmlns="http://www.highcharts.com/svg/namespace">
    <geoid>4808</geoid>
    <name>Congressional District 8</name>
    <hc-middle-x>0.48</hc-middle-x>
    <hc-middle-y>0.51</hc-middle-y>
    <hc-key>us-tx-08</hc-key>
    <hc-a2>CD</hc-a2>
  </desc>
</path>

<path fill="#CEE3F5" stroke="#6E6E6E" stroke-width="0.4" id="US.TX.02" d="M589.7,405.8 L592.1,400.9 L598.0,401.0 L598.6,399.3 L603.2,400.4 L608.0,403.1 L616.7,394.4 L620.7,405.0 L617.7,406.6 L617.7,409.6 L611.9,412.2 L611.7,409.7 L607.9,407.9 L607.7,405.0 L601.9,400.9 L594.6,405.1 L594.5,409.0 L596.2,413.3 L592.1,414.2 L594.0,416.6 L596.0,415.3 L602.7,420.8 L601.7,422.4 L601.1,423.4 L600.2,424.8 L600.6,420.6 L594.6,418.9 L587.8,419.1 L587.6,413.2 L592.3,413.5 L590.8,409.8 L590.7,407.7 Z">
  <desc xmlns="http://www.highcharts.com/svg/namespace">
    <geoid>4802</geoid>
    <name>Congressional District 2</name>
    <hc-middle-x>0.86</hc-middle-x>
    <hc-middle-y>0.31</hc-middle-y>
    <hc-key>us-tx-02</hc-key>
    <hc-a2>CD</hc-a2>
  </desc>
</path>

<path fill="#CEE3F5" stroke="#6E6E6E" stroke-width="0.4" id="US.TX.29" d="M607.9,407.9 L611.7,409.7 L611.9,412.2 L613.2,415.3 L615.8,416.0 L613.6,422.8 L615.3,424.9 L611.2,426.8 L612.3,428.4 L610.5,429.6 L607.0,430.2 L606.0,426.6 L605.6,425.2 L604.3,421.3 L605.9,418.4 L607.6,420.7 L610.3,416.6 L609.7,410.8 L606.1,411.4 L603.9,418.9 L600.3,413.0 L599.8,408.5 L604.3,409.5 Z">
  <desc xmlns="http://www.highcharts.com/svg/namespace">
    <geoid>4829</geoid>
    <name>Congressional District 29</name>
    <hc-middle-x>0.73</hc-middle-x>
    <hc-middle-y>0.69</hc-middle-y>
    <hc-key>us-tx-29</hc-key>
    <hc-a2>CD</hc-a2>
  </desc>
</path>
</g>

<text x="350" y="714" text-anchor="middle" font-family="Verdana" font-size="8" stroke-opacity="0.6">Copyright (c) 2020 Highsoft AS, Based on data from The United States Census Bureau</text>

</svg>