<?xml version="1.0" encoding="utf-8" standalone="no"?>
<!DOCTYPE svg PUBLIC "-//W3C//DTD SVG 1.1//EN" "http://www.w3.org/Graphics/SVG/1.1/DTD/svg11.dtd">

<svg version="1.1" height="700pt" width="700pt" xmlns="http://www.w3.org/2000/svg" xmlns:xlink="http://www.w3.org/1999/xlink">
<desc>
Map version: 1.1.3
Copyright (c) 2020 Highsoft AS, Based on data from The United States Census Bureau
</desc>
<title>Tennessee congressional districts</title>
<g id="special">

<g id="US.TN">
  <desc xmlns="http://www.highcharts.com/svg/namespace">
    <labelrank>0</labelrank>
    <hasc>US.TN</hasc>
    <alt-name>TN|Tenn.</alt-name>
    <woe-id>2347601</woe-id>
    <subregion>East South Central</subregion>
    <fips>US47</fips>
    <postal-code>TN</postal-code>
    <name>Tennessee</name>
    <country>United States of America</country>
    <type-en>State</type-en>
    <region>South</region>
    <longitude>-86.3415</longitude>
    <woe-name>Tennessee</woe-name>
    <latitude>35.7514</latitude>
    <woe-label>Tennessee, US, United States</woe-label>
    <type>State</type>
    <hc-key>us-tn</hc-key>
    <hc-a2>TE</hc-a2>
  </desc>
</g>

<g id="US">
  <desc xmlns="http://www.highcharts.com/svg/namespace">
    <name>United States of America</name>
    <labelrank>2</labelrank>
    <country-abbrev>U.S.A.</country-abbrev>
    <subregion>Northern America</subregion>
    <region-wb>North America</region-wb>
    <iso-a3>USA</iso-a3>
    <iso-a2>US</iso-a2>
    <woe-id>23424977</woe-id>
    <continent>North America</continent>
    <hc-key>us</hc-key>
    <hc-a2>US</hc-a2>
  </desc>
</g>

<path fill="#CEE3F5" stroke="#6E6E6E" stroke-width="0.4" id="US.TN.02" d="M485.6,106.0 L485.9,105.3 L486.4,106.0 L485.8,106.4 Z M470.4,108.2 L471.9,108.2 L471.6,108.9 L470.4,108.9 Z M490.3,10.9 L511.3,10.4 L536.1,10.3 L537.3,8.5 L541.6,8.6 L553.6,8.2 L556.9,10.5 L559.8,14.2 L562.4,21.7 L562.3,24.2 L561.0,26.8 L563.9,25.5 L569.8,27.8 L569.2,29.4 L571.2,32.1 L570.6,35.3 L572.2,38.2 L569.5,41.0 L566.4,37.7 L565.9,39.0 L561.6,41.1 L559.0,44.4 L558.7,46.5 L556.8,45.9 L557.0,48.7 L555.6,48.8 L556.3,52.2 L559.0,52.1 L555.9,55.0 L558.8,56.1 L561.8,55.9 L564.8,58.5 L562.8,60.2 L563.6,63.0 L568.6,62.8 L570.8,64.0 L571.6,66.2 L570.6,76.0 L569.2,77.5 L565.7,75.3 L563.0,76.0 L560.6,74.1 L555.8,75.3 L553.1,73.8 L551.6,71.3 L540.8,63.9 L539.4,65.7 L541.1,71.0 L534.5,76.7 L532.2,77.3 L530.1,79.8 L536.7,93.4 L537.9,97.0 L539.8,97.1 L541.4,99.0 L541.8,111.1 L533.0,112.0 L528.8,116.0 L524.1,116.8 L521.9,121.0 L517.9,122.3 L519.7,119.9 L516.6,118.7 L516.3,120.0 L513.8,117.7 L515.0,113.8 L507.9,114.9 L505.3,110.4 L503.8,111.5 L499.6,109.4 L498.6,107.5 L493.6,107.4 L493.9,105.8 L491.4,106.0 L490.6,104.1 L485.1,103.2 L485.5,104.3 L481.9,105.8 L479.8,102.7 L477.1,104.0 L471.8,104.9 L472.6,108.1 L469.8,106.0 L466.8,106.9 L466.8,105.0 L470.3,103.1 L470.3,103.1 L470.3,103.1 L472.6,98.4 L473.9,98.4 L477.5,94.0 L479.3,94.6 L480.1,92.3 L482.3,93.0 L482.9,88.1 L485.5,86.6 L486.8,80.5 L490.9,81.6 L490.3,80.3 L493.0,77.8 L491.9,75.3 L494.3,76.4 L493.5,74.1 L495.4,75.0 L495.9,72.0 L497.4,70.3 L501.1,70.7 L506.2,67.6 L508.3,65.6 L505.3,62.5 L517.3,50.4 L518.8,52.0 L534.2,52.0 L536.7,47.7 L537.1,44.7 L536.2,41.1 L538.8,34.0 L536.4,31.9 L535.3,33.9 L533.5,34.1 L530.8,28.8 L528.3,27.4 L527.4,25.2 L525.2,26.9 L522.9,25.5 L519.0,27.7 L518.3,30.3 L514.9,29.3 L514.1,21.3 L516.2,21.8 L515.0,19.1 L512.9,19.9 L505.0,18.2 L505.0,15.1 L503.0,16.1 L500.7,14.4 L493.3,20.6 L493.0,18.7 L490.3,20.0 L491.4,13.5 Z M470.3,103.1 L470.3,103.1 L470.3,103.1 L469.6,103.1 Z">
  <desc xmlns="http://www.highcharts.com/svg/namespace">
    <geoid>4702</geoid>
    <name>Congressional District 2</name>
    <hc-middle-x>0.47</hc-middle-x>
    <hc-middle-y>0.69</hc-middle-y>
    <hc-key>us-tn-02</hc-key>
    <hc-a2>CD</hc-a2>
  </desc>
</path>

<path fill="#CEE3F5" stroke="#6E6E6E" stroke-width="0.4" id="US.TN.05" d="M309.2,59.0 L309.2,58.7 L309.4,58.7 L309.3,59.1 Z M301.5,75.9 L296.4,73.8 L287.6,69.1 L276.5,67.6 L268.5,73.9 L267.5,73.9 L266.4,68.3 L256.0,67.9 L254.2,76.9 L227.6,73.4 L226.1,71.1 L226.8,63.3 L225.1,55.0 L228.5,47.7 L229.4,39.4 L246.3,41.7 L247.7,40.8 L248.2,37.5 L249.6,37.6 L250.6,35.2 L254.2,32.1 L256.3,32.4 L257.0,30.3 L258.6,31.4 L258.7,28.6 L261.1,27.5 L265.7,30.9 L262.7,32.8 L265.2,35.5 L268.4,37.7 L268.3,42.4 L272.8,43.9 L273.7,46.3 L274.9,44.7 L278.3,36.4 L278.0,34.1 L282.5,36.0 L284.8,38.0 L287.8,37.0 L288.3,34.1 L291.2,32.7 L293.0,38.2 L295.2,40.8 L296.9,41.4 L299.6,44.1 L299.8,47.4 L303.4,48.4 L306.5,59.3 L309.0,59.0 L308.6,61.6 L309.8,62.7 L309.1,66.9 L307.4,64.1 L305.9,66.4 L306.2,68.8 L302.1,71.8 L301.5,75.9 Z">
  <desc xmlns="http://www.highcharts.com/svg/namespace">
    <geoid>4705</geoid>
    <name>Congressional District 5</name>
    <hc-middle-x>0.50</hc-middle-x>
    <hc-middle-y>0.53</hc-middle-y>
    <hc-key>us-tn-05</hc-key>
    <hc-a2>CD</hc-a2>
  </desc>
</path>

<path fill="#CEE3F5" stroke="#6E6E6E" stroke-width="0.4" id="US.TN.04" d="M395.6,173.0 L366.9,172.8 L321.9,172.9 L314.3,173.1 L284.1,173.0 L284.7,143.1 L283.6,140.5 L281.8,141.9 L278.4,141.0 L278.7,138.7 L277.2,137.2 L276.8,132.2 L274.2,130.5 L271.8,131.5 L268.1,129.3 L265.9,129.4 L260.9,126.9 L257.7,128.9 L252.2,129.5 L246.7,128.2 L248.4,124.1 L247.5,118.3 L251.2,118.0 L252.0,116.0 L254.9,113.9 L259.2,114.4 L262.2,110.7 L262.2,112.6 L264.2,111.7 L267.8,112.3 L267.9,108.3 L269.9,107.3 L271.7,103.2 L268.7,97.3 L270.0,97.3 L270.4,94.8 L273.2,95.5 L273.8,94.4 L276.5,94.9 L275.7,96.5 L286.0,100.6 L288.4,102.3 L295.3,102.1 L295.3,97.4 L296.5,97.6 L298.0,93.6 L302.1,93.6 L303.1,87.3 L301.7,86.3 L300.8,81.7 L301.9,78.4 L301.5,75.9 L301.5,75.9 L302.1,71.8 L306.2,68.8 L305.9,66.4 L307.4,64.1 L309.1,66.9 L309.8,62.7 L313.4,65.5 L320.1,70.0 L326.5,74.8 L331.3,75.8 L331.2,76.4 L338.2,76.5 L339.2,77.1 L338.8,84.4 L338.0,84.0 L336.5,92.8 L336.6,96.0 L334.9,99.2 L335.0,102.0 L331.9,103.5 L332.4,121.9 L331.6,131.9 L329.4,133.5 L331.5,133.7 L331.8,137.7 L336.4,137.7 L339.3,135.9 L349.2,137.7 L352.0,140.5 L354.1,140.3 L358.2,142.9 L359.8,142.2 L360.0,138.9 L361.9,137.0 L362.8,133.9 L361.4,133.8 L361.3,123.1 L362.1,121.3 L361.5,118.1 L359.7,117.9 L356.2,114.8 L356.0,111.1 L353.2,106.8 L352.5,102.5 L353.0,98.8 L358.7,90.0 L361.7,87.6 L368.8,86.9 L371.8,87.1 L380.7,90.3 L382.3,91.7 L386.4,91.2 L389.0,93.7 L389.0,95.0 L392.6,94.9 L396.2,92.0 L398.5,93.9 L399.8,93.0 L398.4,90.2 L403.4,91.9 L411.2,89.3 L410.6,93.1 L412.2,94.9 L424.4,94.2 L425.9,95.1 L429.4,93.9 L430.5,96.4 L438.6,94.1 L439.6,94.7 L449.0,88.2 L450.3,88.2 L449.8,89.3 L453.2,91.2 L454.0,92.6 L452.7,95.1 L457.3,96.3 L457.3,98.7 L459.5,100.1 L461.7,97.9 L463.8,99.5 L463.1,101.3 L463.9,105.8 L455.7,118.2 L453.9,119.4 L451.5,123.9 L448.5,126.8 L445.0,135.5 L448.0,137.9 L451.4,139.0 L454.1,141.6 L454.4,146.1 L455.7,148.6 L453.4,148.0 L453.0,149.4 L450.5,149.4 L448.4,153.5 L445.1,157.7 L445.2,159.8 L440.9,164.4 L441.5,161.4 L435.8,159.3 L433.5,161.4 L432.1,155.8 L433.3,152.3 L438.5,142.4 L436.6,139.7 L435.6,135.0 L432.9,132.5 L431.0,132.9 L432.2,129.9 L428.0,127.3 L425.2,128.2 L424.3,125.3 L421.3,126.5 L419.7,125.6 L413.6,139.2 L402.3,156.7 L401.8,160.7 L404.6,162.4 L402.5,167.2 L400.8,167.2 L399.3,170.5 Z">
  <desc xmlns="http://www.highcharts.com/svg/namespace">
    <geoid>4704</geoid>
    <name>Congressional District 4</name>
    <hc-middle-x>0.29</hc-middle-x>
    <hc-middle-y>0.68</hc-middle-y>
    <hc-key>us-tn-04</hc-key>
    <hc-a2>CD</hc-a2>
  </desc>
</path>

<path fill="#CEE3F5" stroke="#6E6E6E" stroke-width="0.4" id="US.TN.07" d="M301.5,75.9 L301.9,78.4 L300.8,81.7 L301.7,86.3 L303.1,87.3 L302.1,93.6 L298.0,93.6 L296.5,97.6 L295.3,97.4 L295.3,102.1 L288.4,102.3 L286.0,100.6 L275.7,96.5 L276.5,94.9 L273.8,94.4 L273.2,95.5 L270.4,94.8 L270.0,97.3 L268.7,97.3 L271.7,103.2 L269.9,107.3 L267.9,108.3 L267.8,112.3 L264.2,111.7 L262.2,112.6 L262.2,110.7 L259.2,114.4 L254.9,113.9 L252.0,116.0 L251.2,118.0 L247.5,118.3 L248.4,124.1 L246.7,128.2 L252.2,129.5 L257.7,128.9 L260.9,126.9 L265.9,129.4 L268.1,129.3 L271.8,131.5 L274.2,130.5 L276.8,132.2 L277.2,137.2 L278.7,138.7 L278.4,141.0 L281.8,141.9 L283.6,140.5 L284.7,143.1 L284.1,173.0 L235.6,171.9 L216.6,171.7 L172.4,170.8 L172.6,172.1 L151.0,171.7 L90.9,170.8 L93.2,127.2 L123.0,128.4 L134.5,122.4 L137.9,117.8 L139.6,114.6 L140.6,92.7 L143.7,89.2 L175.3,90.5 L175.4,87.6 L172.2,87.5 L172.9,60.2 L175.9,57.6 L176.2,55.6 L178.9,52.2 L179.2,50.5 L182.0,49.3 L183.5,46.8 L184.2,43.1 L186.1,41.2 L187.7,42.0 L189.2,39.8 L187.8,36.6 L191.0,36.7 L187.5,30.6 L185.7,28.7 L186.2,22.9 L187.9,19.0 L187.0,12.4 L185.0,4.9 L189.7,5.1 L202.7,6.5 L202.4,9.6 L218.8,9.2 L243.8,9.0 L261.5,8.9 L260.3,15.9 L259.4,17.6 L261.3,18.2 L260.4,26.9 L261.1,27.5 L258.7,28.6 L258.6,31.4 L257.0,30.3 L256.3,32.4 L254.2,32.1 L250.6,35.2 L249.6,37.6 L248.2,37.5 L247.7,40.8 L246.3,41.7 L229.4,39.4 L228.5,47.7 L225.1,55.0 L226.8,63.3 L226.1,71.1 L227.6,73.4 L254.2,76.9 L256.0,67.9 L266.4,68.3 L267.5,73.9 L268.5,73.9 L276.5,67.6 L287.6,69.1 L296.4,73.8 L301.5,75.9 Z">
  <desc xmlns="http://www.highcharts.com/svg/namespace">
    <geoid>4707</geoid>
    <name>Congressional District 7</name>
    <hc-middle-x>0.44</hc-middle-x>
    <hc-middle-y>0.75</hc-middle-y>
    <hc-key>us-tn-07</hc-key>
    <hc-a2>CD</hc-a2>
  </desc>
</path>

<path fill="#CEE3F5" stroke="#6E6E6E" stroke-width="0.4" id="US.TN.08" d="M20.4,130.1 L17.2,127.4 L14.6,128.4 L15.4,130.7 L11.9,129.8 L12.8,126.1 L16.1,124.3 L17.1,121.7 L20.0,120.8 L21.2,121.9 L20.6,124.6 L22.1,129.7 L21.5,130.0 Z M186.2,22.9 L185.7,28.7 L187.5,30.6 L191.0,36.7 L187.8,36.6 L189.2,39.8 L187.7,42.0 L186.1,41.2 L184.2,43.1 L183.5,46.8 L182.0,49.3 L179.2,50.5 L178.9,52.2 L176.2,55.6 L175.9,57.6 L172.9,60.2 L172.2,87.5 L175.4,87.6 L175.3,90.5 L143.7,89.2 L140.6,92.7 L139.6,114.6 L137.9,117.8 L134.5,122.4 L123.0,128.4 L93.2,127.2 L90.9,170.8 L67.3,170.3 L45.0,169.6 L45.1,164.4 L43.1,162.7 L39.6,162.3 L36.9,158.9 L31.3,156.9 L32.6,154.4 L35.7,153.9 L38.4,156.8 L45.2,158.8 L48.3,157.8 L48.0,152.5 L50.7,148.7 L39.5,148.5 L37.9,150.2 L35.7,150.1 L35.8,144.8 L34.4,144.6 L35.3,141.5 L38.0,141.4 L40.0,139.1 L36.6,137.1 L40.4,135.5 L40.3,131.3 L37.5,130.0 L23.1,129.0 L21.9,128.2 L24.0,125.9 L25.2,122.2 L22.8,117.1 L23.8,113.9 L27.9,112.9 L30.4,115.0 L31.1,116.9 L33.5,117.6 L34.3,114.2 L31.4,112.8 L30.5,110.4 L31.4,109.0 L38.9,105.8 L38.9,102.4 L36.5,103.8 L33.0,103.2 L31.0,100.0 L31.6,95.2 L35.2,93.2 L37.6,95.4 L39.9,93.8 L42.1,93.7 L45.4,89.0 L48.7,89.0 L51.7,87.7 L51.4,85.8 L47.2,83.9 L46.4,81.9 L48.9,79.0 L51.1,79.1 L55.0,81.5 L56.8,79.4 L55.9,77.3 L51.0,72.9 L49.9,69.7 L52.0,69.7 L53.7,66.4 L54.4,61.6 L61.6,57.1 L60.6,53.0 L52.8,46.3 L53.7,44.7 L57.2,45.0 L60.4,46.2 L66.6,45.0 L66.5,43.0 L60.5,39.3 L60.7,36.1 L67.1,36.4 L68.9,33.0 L66.4,28.4 L68.3,22.6 L66.9,20.6 L71.2,20.8 L70.5,22.9 L71.8,24.7 L73.7,24.4 L76.7,20.8 L86.0,20.2 L113.4,21.3 L128.5,21.5 L175.8,22.6 Z">
  <desc xmlns="http://www.highcharts.com/svg/namespace">
    <geoid>4708</geoid>
    <name>Congressional District 8</name>
    <hc-middle-x>0.44</hc-middle-x>
    <hc-middle-y>0.49</hc-middle-y>
    <hc-key>us-tn-08</hc-key>
    <hc-a2>CD</hc-a2>
  </desc>
</path>

<path fill="#CEE3F5" stroke="#6E6E6E" stroke-width="0.4" id="US.TN.01" d="M541.8,111.1 L541.4,99.0 L539.8,97.1 L537.9,97.0 L536.7,93.4 L530.1,79.8 L532.2,77.3 L534.5,76.7 L541.1,71.0 L539.4,65.7 L540.8,63.9 L551.6,71.3 L553.1,73.8 L555.8,75.3 L560.6,74.1 L563.0,76.0 L565.7,75.3 L569.2,77.5 L570.6,76.0 L571.6,66.2 L570.8,64.0 L568.6,62.8 L563.6,63.0 L562.8,60.2 L564.8,58.5 L561.8,55.9 L558.8,56.1 L555.9,55.0 L559.0,52.1 L556.3,52.2 L555.6,48.8 L557.0,48.7 L556.8,45.9 L558.7,46.5 L559.0,44.4 L561.6,41.1 L565.9,39.0 L566.4,37.7 L569.5,41.0 L572.2,38.2 L570.6,35.3 L571.2,32.1 L569.2,29.4 L569.8,27.8 L563.9,25.5 L561.0,26.8 L562.3,24.2 L562.4,21.7 L559.8,14.2 L556.9,10.5 L553.6,8.2 L569.3,7.6 L570.6,7.9 L621.8,5.8 L654.6,4.0 L677.0,3.0 L677.8,0.8 L700.0,0.0 L697.7,2.5 L697.7,4.4 L695.5,7.9 L696.9,14.6 L695.2,15.8 L695.1,19.2 L693.5,20.3 L694.2,23.5 L696.7,27.8 L692.0,27.7 L689.3,25.9 L686.5,27.1 L679.9,33.5 L671.5,50.6 L669.8,50.0 L667.8,52.2 L663.8,52.6 L662.1,48.2 L659.8,49.0 L656.1,47.7 L654.4,50.4 L650.8,50.1 L647.1,52.3 L645.5,52.4 L641.3,55.8 L637.5,63.5 L634.1,66.7 L629.9,69.2 L625.6,68.1 L625.2,64.4 L626.9,61.6 L623.1,58.4 L619.2,60.6 L616.1,63.4 L612.1,65.3 L612.3,68.2 L608.8,73.3 L606.2,70.7 L602.4,71.3 L601.3,73.4 L602.8,77.9 L600.9,79.0 L601.4,81.7 L600.0,82.2 L597.9,86.8 L595.5,88.7 L591.9,87.4 L588.4,87.4 L585.2,89.8 L582.0,90.1 L580.0,93.7 L575.5,94.1 L574.6,97.3 L570.2,101.5 L568.1,100.5 L565.6,103.3 L561.3,106.2 L559.3,106.2 L555.2,111.2 L548.4,111.5 L546.8,110.0 L543.6,111.3 Z">
  <desc xmlns="http://www.highcharts.com/svg/namespace">
    <geoid>4701</geoid>
    <name>Congressional District 1</name>
    <hc-middle-x>0.46</hc-middle-x>
    <hc-middle-y>0.38</hc-middle-y>
    <hc-key>us-tn-01</hc-key>
    <hc-a2>CD</hc-a2>
  </desc>
</path>

<path fill="#CEE3F5" stroke="#6E6E6E" stroke-width="0.4" id="US.TN.09" d="M22.1,129.7 L22.9,129.3 L23.1,129.0 L37.5,130.0 L40.3,131.3 L40.4,135.5 L36.6,137.1 L40.0,139.1 L38.0,141.4 L35.3,141.5 L34.4,144.6 L35.8,144.8 L35.7,150.1 L37.9,150.2 L39.5,148.5 L50.7,148.7 L48.0,152.5 L48.3,157.8 L45.2,158.8 L38.4,156.8 L35.7,153.9 L32.6,154.4 L31.3,156.9 L36.9,158.9 L39.6,162.3 L43.1,162.7 L45.1,164.4 L45.0,169.6 L14.9,168.7 L0.0,168.2 L1.6,163.6 L8.3,165.4 L11.5,156.4 L14.4,154.9 L17.5,156.7 L20.3,154.8 L16.3,149.6 L18.0,148.9 L19.5,145.6 L18.0,143.3 L13.7,142.7 L12.9,138.7 L17.3,137.9 L17.6,134.1 L20.4,130.1 L21.5,130.0 Z">
  <desc xmlns="http://www.highcharts.com/svg/namespace">
    <geoid>4709</geoid>
    <name>Congressional District 9</name>
    <hc-middle-x>0.51</hc-middle-x>
    <hc-middle-y>0.51</hc-middle-y>
    <hc-key>us-tn-09</hc-key>
    <hc-a2>CD</hc-a2>
  </desc>
</path>

<path fill="#CEE3F5" stroke="#6E6E6E" stroke-width="0.4" id="US.TN.03" d="M470.3,103.1 L469.6,103.1 L470.3,103.1 L470.3,103.1 L466.8,105.0 L466.8,106.9 L469.8,106.0 L472.6,108.1 L471.8,104.9 L477.1,104.0 L479.8,102.7 L481.9,105.8 L485.5,104.3 L485.1,103.2 L490.6,104.1 L491.4,106.0 L493.9,105.8 L493.6,107.4 L498.6,107.5 L499.6,109.4 L503.8,111.5 L505.3,110.4 L507.9,114.9 L515.0,113.8 L513.8,117.7 L516.3,120.0 L516.6,118.7 L519.7,119.9 L517.9,122.3 L513.0,127.7 L514.4,131.6 L512.0,134.0 L513.3,139.2 L510.8,142.0 L505.2,144.8 L499.2,144.8 L497.1,142.3 L491.8,146.8 L489.8,170.4 L438.2,171.7 L395.6,173.0 L399.3,170.5 L400.8,167.2 L402.5,167.2 L404.6,162.4 L401.8,160.7 L402.3,156.7 L413.6,139.2 L419.7,125.6 L421.3,126.5 L424.3,125.3 L425.2,128.2 L428.0,127.3 L432.2,129.9 L431.0,132.9 L432.9,132.5 L435.6,135.0 L436.6,139.7 L438.5,142.4 L433.3,152.3 L432.1,155.8 L433.5,161.4 L435.8,159.3 L441.5,161.4 L440.9,164.4 L445.2,159.8 L445.1,157.7 L448.4,153.5 L450.5,149.4 L453.0,149.4 L453.4,148.0 L455.7,148.6 L454.4,146.1 L454.1,141.6 L451.4,139.0 L448.0,137.9 L445.0,135.5 L448.5,126.8 L451.5,123.9 L453.9,119.4 L455.7,118.2 L463.9,105.8 L463.1,101.3 L463.8,99.5 L461.7,97.9 L459.5,100.1 L457.3,98.7 L457.3,96.3 L452.7,95.1 L454.0,92.6 L453.2,91.2 L449.8,89.3 L450.3,88.2 L454.6,84.7 L456.3,81.0 L458.3,79.7 L454.9,71.2 L449.0,64.9 L447.8,61.8 L445.7,62.5 L442.5,57.3 L439.4,55.4 L440.0,53.8 L438.8,50.3 L441.2,47.2 L441.5,43.1 L448.0,41.3 L448.9,38.4 L452.6,37.1 L453.7,33.3 L455.2,34.0 L458.9,31.2 L456.1,27.3 L454.2,21.0 L448.3,10.8 L467.9,11.0 L490.3,10.9 L491.4,13.5 L490.3,20.0 L493.0,18.7 L493.3,20.6 L500.7,14.4 L503.0,16.1 L505.0,15.1 L505.0,18.2 L512.9,19.9 L515.0,19.1 L516.2,21.8 L514.1,21.3 L514.9,29.3 L518.3,30.3 L519.0,27.7 L522.9,25.5 L525.2,26.9 L527.4,25.2 L528.3,27.4 L530.8,28.8 L533.5,34.1 L535.3,33.9 L536.4,31.9 L538.8,34.0 L536.2,41.1 L537.1,44.7 L536.7,47.7 L534.2,52.0 L518.8,52.0 L517.3,50.4 L505.3,62.5 L508.3,65.6 L506.2,67.6 L501.1,70.7 L497.4,70.3 L495.9,72.0 L495.4,75.0 L493.5,74.1 L494.3,76.4 L491.9,75.3 L493.0,77.8 L490.3,80.3 L490.9,81.6 L486.8,80.5 L485.5,86.6 L482.9,88.1 L482.3,93.0 L480.1,92.3 L479.3,94.6 L477.5,94.0 L473.9,98.4 L472.6,98.4 L470.3,103.1 Z M485.6,106.0 L485.8,106.4 L486.4,106.0 L485.9,105.3 Z M470.4,108.2 L470.4,108.9 L471.6,108.9 L471.9,108.2 Z">
  <desc xmlns="http://www.highcharts.com/svg/namespace">
    <geoid>4703</geoid>
    <name>Congressional District 3</name>
    <hc-middle-x>0.63</hc-middle-x>
    <hc-middle-y>0.23</hc-middle-y>
    <hc-key>us-tn-03</hc-key>
    <hc-a2>CD</hc-a2>
  </desc>
</path>

<path fill="#CEE3F5" stroke="#6E6E6E" stroke-width="0.4" id="US.TN.06" d="M261.1,27.5 L260.4,26.9 L261.3,18.2 L259.4,17.6 L260.3,15.9 L261.5,8.9 L292.0,8.3 L303.6,7.9 L305.5,9.6 L310.2,7.9 L324.2,8.1 L348.9,9.8 L364.3,10.4 L390.9,10.8 L408.8,9.3 L416.9,9.3 L433.1,9.9 L448.3,10.8 L454.2,21.0 L456.1,27.3 L458.9,31.2 L455.2,34.0 L453.7,33.3 L452.6,37.1 L448.9,38.4 L448.0,41.3 L441.5,43.1 L441.2,47.2 L438.8,50.3 L440.0,53.8 L439.4,55.4 L442.5,57.3 L445.7,62.5 L447.8,61.8 L449.0,64.9 L454.9,71.2 L458.3,79.7 L456.3,81.0 L454.6,84.7 L450.3,88.2 L449.0,88.2 L439.6,94.7 L438.6,94.1 L430.5,96.4 L429.4,93.9 L425.9,95.1 L424.4,94.2 L412.2,94.9 L410.6,93.1 L411.2,89.3 L403.4,91.9 L398.4,90.2 L399.8,93.0 L398.5,93.9 L396.2,92.0 L392.6,94.9 L389.0,95.0 L389.0,93.7 L386.4,91.2 L382.3,91.7 L380.7,90.3 L371.8,87.1 L368.8,86.9 L361.7,87.6 L358.7,90.0 L353.0,98.8 L352.5,102.5 L353.2,106.8 L356.0,111.1 L356.2,114.8 L359.7,117.9 L361.5,118.1 L362.1,121.3 L361.3,123.1 L361.4,133.8 L362.8,133.9 L361.9,137.0 L360.0,138.9 L359.8,142.2 L358.2,142.9 L354.1,140.3 L352.0,140.5 L349.2,137.7 L339.3,135.9 L336.4,137.7 L331.8,137.7 L331.5,133.7 L329.4,133.5 L331.6,131.9 L332.4,121.9 L331.9,103.5 L335.0,102.0 L334.9,99.2 L336.6,96.0 L336.5,92.8 L338.0,84.0 L338.8,84.4 L339.2,77.1 L338.2,76.5 L331.2,76.4 L331.3,75.8 L326.5,74.8 L320.1,70.0 L313.4,65.5 L309.8,62.7 L308.6,61.6 L309.0,59.0 L306.5,59.3 L303.4,48.4 L299.8,47.4 L299.6,44.1 L296.9,41.4 L295.2,40.8 L293.0,38.2 L291.2,32.7 L288.3,34.1 L287.8,37.0 L284.8,38.0 L282.5,36.0 L278.0,34.1 L278.3,36.4 L274.9,44.7 L273.7,46.3 L272.8,43.9 L268.3,42.4 L268.4,37.7 L265.2,35.5 L262.7,32.8 L265.7,30.9 Z M309.2,59.0 L309.3,59.1 L309.4,58.7 L309.2,58.7 Z">
  <desc xmlns="http://www.highcharts.com/svg/namespace">
    <geoid>4706</geoid>
    <name>Congressional District 6</name>
    <hc-middle-x>0.60</hc-middle-x>
    <hc-middle-y>0.33</hc-middle-y>
    <hc-key>us-tn-06</hc-key>
    <hc-a2>CD</hc-a2>
  </desc>
</path>
</g>

<text x="350" y="714" text-anchor="middle" font-family="Verdana" font-size="8" stroke-opacity="0.6">Copyright (c) 2020 Highsoft AS, Based on data from The United States Census Bureau</text>

</svg>