<?xml version="1.0" encoding="utf-8" standalone="no"?>
<!DOCTYPE svg PUBLIC "-//W3C//DTD SVG 1.1//EN" "http://www.w3.org/Graphics/SVG/1.1/DTD/svg11.dtd">

<svg version="1.1" height="700pt" width="700pt" xmlns="http://www.w3.org/2000/svg" xmlns:xlink="http://www.w3.org/1999/xlink">
<desc>
Map version: 1.1.3
Copyright (c) 2020 Highsoft AS, Based on data from The United States Census Bureau
</desc>
<title>Virginia congressional districts</title>
<g id="special">

<g id="US.VA">
  <desc xmlns="http://www.highcharts.com/svg/namespace">
    <labelrank>0</labelrank>
    <hasc>US.VA</hasc>
    <alt-name>VA</alt-name>
    <woe-id>2347605</woe-id>
    <subregion>South Atlantic</subregion>
    <fips>US51</fips>
    <postal-code>VA</postal-code>
    <name>Virginia</name>
    <country>United States of America</country>
    <type-en>State</type-en>
    <region>South</region>
    <longitude>-78.2431</longitude>
    <woe-name>Virginia</woe-name>
    <latitude>37.7403</latitude>
    <woe-label>Virginia, US, United States</woe-label>
    <type>State</type>
    <hc-key>us-va</hc-key>
    <hc-a2>VI</hc-a2>
  </desc>
</g>

<g id="US">
  <desc xmlns="http://www.highcharts.com/svg/namespace">
    <name>United States of America</name>
    <labelrank>2</labelrank>
    <country-abbrev>U.S.A.</country-abbrev>
    <subregion>Northern America</subregion>
    <region-wb>North America</region-wb>
    <iso-a3>USA</iso-a3>
    <iso-a2>US</iso-a2>
    <woe-id>23424977</woe-id>
    <continent>North America</continent>
    <hc-key>us</hc-key>
    <hc-a2>US</hc-a2>
  </desc>
</g>

<path fill="#CEE3F5" stroke="#6E6E6E" stroke-width="0.4" id="US.VA.02" d="M666.6,148.8 L668.1,147.4 L666.8,146.8 L668.6,143.8 L688.9,140.4 L685.4,143.5 L684.5,146.3 L685.9,148.1 L684.6,149.2 L686.0,150.6 L683.8,153.4 L686.4,154.1 L680.5,160.2 L677.6,164.9 L675.4,169.6 L670.3,177.3 L664.3,187.4 L662.3,192.1 L659.4,197.1 L655.7,201.1 L656.5,202.2 L655.6,204.8 L657.9,206.0 L655.2,207.7 L653.0,207.2 L650.5,211.5 L649.6,214.9 L648.2,223.4 L647.7,234.9 L646.7,236.0 L645.2,235.1 L644.2,232.3 L642.0,229.0 L642.1,224.2 L640.3,222.5 L640.3,220.0 L642.8,216.2 L640.5,216.3 L642.3,210.4 L641.8,209.1 L644.0,207.0 L644.5,204.7 L642.8,205.5 L643.5,201.9 L646.6,199.0 L645.9,197.3 L644.1,198.3 L644.3,195.2 L645.3,192.9 L648.8,190.1 L645.4,188.8 L647.2,186.8 L646.2,185.2 L650.3,183.0 L649.0,181.5 L651.0,178.8 L654.4,178.3 L653.9,175.8 L656.6,172.4 L654.6,171.1 L657.3,168.3 L655.4,165.3 L656.3,163.9 L659.1,165.1 L664.0,164.2 L662.7,161.0 L663.1,159.9 L666.5,159.7 L665.3,157.9 L665.4,154.6 L663.8,153.5 L659.3,152.9 L663.1,149.8 Z M698.5,138.7 L700.0,138.5 L694.8,150.1 L693.9,153.0 L691.9,155.7 L689.8,157.1 L687.9,155.2 L690.5,155.6 L692.0,153.4 L689.9,152.6 L692.7,150.5 L694.2,147.9 L695.2,144.4 Z M653.2,295.8 L650.4,295.9 L649.8,294.8 L652.7,293.2 Z M645.4,237.9 L647.5,238.7 L647.1,240.2 L644.8,240.3 L644.1,238.9 Z M653.9,228.4 L656.8,228.0 L657.4,229.0 L654.8,231.5 L651.9,235.9 L649.6,237.2 L651.3,234.1 L649.9,228.6 L649.7,224.4 L650.8,219.5 L653.3,219.2 L653.9,221.4 L652.1,223.6 L651.7,226.0 Z M667.0,204.6 L664.5,209.6 L664.0,209.0 L668.0,199.5 L668.9,201.5 Z M668.8,197.3 L667.5,197.1 L670.4,189.3 L672.0,187.2 L673.1,188.8 Z M688.4,151.9 L688.8,149.1 L692.3,146.4 L691.8,149.9 L690.0,150.1 Z M625.0,267.0 L626.4,267.6 L626.1,262.9 L622.3,257.7 L620.7,257.4 L621.2,254.8 L616.7,256.5 L617.5,259.0 L616.0,258.1 L615.7,255.9 L617.4,254.8 L620.8,254.5 L633.0,258.6 L637.1,258.9 L640.5,256.2 L643.1,256.4 L644.5,258.4 L647.5,269.3 L656.8,291.4 L657.9,295.5 L655.6,295.7 L655.0,290.1 L653.5,288.1 L650.8,279.6 L648.2,278.4 L647.8,279.5 L647.3,290.3 L648.3,296.1 L644.4,296.3 L641.6,292.3 L642.9,296.3 L635.3,296.7 L634.7,284.7 L638.2,283.2 L639.1,281.7 L632.4,275.3 L627.3,274.2 Z M617.2,263.0 L617.3,261.6 L618.4,259.8 L620.2,261.2 L621.2,259.1 L622.2,260.9 L620.6,262.3 Z M615.5,262.6 L615.9,262.8 L615.8,263.3 L615.7,263.4 Z M604.5,247.8 L600.8,246.2 L598.8,244.9 L597.6,243.2 L597.0,242.2 L593.4,237.1 L595.2,236.7 L596.9,240.1 L600.1,239.9 L598.2,236.0 L599.2,233.4 L600.0,235.3 L604.2,240.7 L608.4,241.4 L609.0,240.0 L611.8,239.1 L614.7,240.3 L619.0,239.6 L620.0,240.3 L620.2,243.2 L619.3,247.6 L616.5,249.8 L617.7,244.4 L614.8,246.4 L611.3,246.3 L609.6,242.6 L608.8,245.6 L604.7,244.5 Z">
  <desc xmlns="http://www.highcharts.com/svg/namespace">
    <geoid>5102</geoid>
    <name>Congressional District 2</name>
    <hc-middle-x>0.67</hc-middle-x>
    <hc-middle-y>0.21</hc-middle-y>
    <hc-key>us-va-02</hc-key>
    <hc-a2>CD</hc-a2>
  </desc>
</path>

<path fill="#CEE3F5" stroke="#6E6E6E" stroke-width="0.4" id="US.VA.11" d="M533.3,81.2 L532.6,84.4 L530.1,89.0 L531.3,90.4 L529.1,91.9 L529.1,94.0 L527.9,92.6 L526.1,94.3 L524.3,92.7 L527.4,86.2 L524.0,85.0 L523.7,82.8 L520.7,83.3 L519.0,80.5 L522.5,79.1 L524.3,79.8 L527.3,76.4 L528.7,77.3 L531.7,71.6 L529.1,71.3 L527.4,69.1 L524.7,67.8 L525.1,63.5 L517.1,63.8 L515.8,66.4 L513.0,63.7 L514.6,61.9 L518.3,61.4 L518.8,58.5 L523.5,58.8 L526.0,54.2 L521.5,55.4 L519.4,52.2 L517.3,53.9 L515.5,51.0 L517.9,47.6 L520.7,47.8 L521.9,45.5 L524.2,47.2 L525.3,51.1 L529.9,52.5 L533.6,52.5 L533.1,59.4 L534.4,60.6 L538.3,58.5 L539.7,61.2 L537.0,63.4 L535.2,63.0 L534.2,65.0 L536.3,65.9 L533.5,67.0 L535.3,69.9 L533.2,72.6 L534.0,75.3 L531.8,79.6 Z">
  <desc xmlns="http://www.highcharts.com/svg/namespace">
    <geoid>5111</geoid>
    <name>Congressional District 11</name>
    <hc-middle-x>0.63</hc-middle-x>
    <hc-middle-y>0.34</hc-middle-y>
    <hc-key>us-va-11</hc-key>
    <hc-a2>CD</hc-a2>
  </desc>
</path>

<path fill="#CEE3F5" stroke="#6E6E6E" stroke-width="0.4" id="US.VA.10" d="M424.6,43.2 L429.7,37.5 L431.3,37.0 L433.8,32.9 L435.7,31.3 L432.7,28.2 L435.8,23.3 L434.1,21.9 L438.2,16.3 L440.4,12.2 L438.1,11.2 L439.9,8.0 L438.5,6.0 L439.5,4.0 L439.4,0.0 L446.3,5.2 L455.0,12.3 L465.7,20.4 L482.5,33.4 L484.7,26.2 L486.8,22.4 L488.5,16.3 L490.7,13.4 L494.2,13.0 L496.8,14.5 L501.3,15.1 L502.9,14.5 L505.4,18.7 L510.0,20.6 L512.3,22.7 L510.5,26.6 L508.4,27.4 L506.9,31.0 L507.8,33.8 L510.9,35.2 L512.6,38.3 L518.7,39.4 L522.5,39.2 L530.1,42.7 L529.6,45.3 L530.6,47.2 L534.5,48.8 L538.8,49.0 L541.0,51.9 L536.5,51.4 L534.8,53.3 L533.6,52.5 L529.9,52.5 L525.3,51.1 L524.2,47.2 L521.9,45.5 L520.7,47.8 L517.9,47.6 L515.5,51.0 L517.3,53.9 L519.4,52.2 L521.5,55.4 L526.0,54.2 L523.5,58.8 L518.8,58.5 L518.3,61.4 L514.6,61.9 L513.0,63.7 L515.8,66.4 L517.1,63.8 L525.1,63.5 L524.7,67.8 L527.4,69.1 L529.1,71.3 L531.7,71.6 L528.7,77.3 L527.3,76.4 L522.6,74.5 L521.5,76.1 L520.0,74.0 L517.8,76.7 L515.3,76.8 L513.2,74.5 L508.7,74.3 L513.2,67.7 L509.5,67.0 L502.5,67.5 L495.9,70.0 L492.8,64.4 L494.5,58.6 L495.5,58.0 L497.3,52.7 L472.1,46.2 L468.8,49.9 L464.2,45.9 L461.1,46.7 L456.6,44.3 L455.6,46.3 L443.6,47.7 L442.4,43.9 L440.7,42.2 L442.4,40.7 L441.4,38.0 L435.6,39.2 L432.4,43.0 L432.0,46.0 Z">
  <desc xmlns="http://www.highcharts.com/svg/namespace">
    <geoid>5110</geoid>
    <name>Congressional District 10</name>
    <hc-middle-x>0.64</hc-middle-x>
    <hc-middle-y>0.55</hc-middle-y>
    <hc-key>us-va-10</hc-key>
    <hc-a2>CD</hc-a2>
  </desc>
</path>

<path fill="#CEE3F5" stroke="#6E6E6E" stroke-width="0.4" id="US.VA.08" d="M533.6,52.5 L534.8,53.3 L536.5,51.4 L541.0,51.9 L543.3,54.8 L545.4,55.3 L548.4,59.7 L547.6,61.5 L548.2,66.0 L547.6,68.1 L547.9,74.2 L542.2,75.7 L541.2,78.7 L538.9,77.3 L538.1,78.6 L540.8,81.6 L541.1,83.0 L536.7,84.8 L535.0,83.8 L535.5,80.3 L533.3,81.2 L531.8,79.6 L534.0,75.3 L533.2,72.6 L535.3,69.9 L533.5,67.0 L536.3,65.9 L534.2,65.0 L535.2,63.0 L537.0,63.4 L539.7,61.2 L538.3,58.5 L534.4,60.6 L533.1,59.4 Z">
  <desc xmlns="http://www.highcharts.com/svg/namespace">
    <geoid>5108</geoid>
    <name>Congressional District 8</name>
    <hc-middle-x>0.57</hc-middle-x>
    <hc-middle-y>0.47</hc-middle-y>
    <hc-key>us-va-08</hc-key>
    <hc-a2>CD</hc-a2>
  </desc>
</path>

<path fill="#CEE3F5" stroke="#6E6E6E" stroke-width="0.4" id="US.VA.03" d="M568.5,224.5 L566.0,227.1 L564.1,227.4 L559.6,220.6 L557.7,219.6 L553.5,223.5 L552.0,220.5 L550.4,219.4 L546.8,220.7 L543.1,219.5 L539.6,219.7 L536.5,218.1 L537.2,216.5 L535.6,215.1 L534.8,217.5 L532.5,216.9 L532.8,213.5 L527.6,215.2 L524.7,212.3 L524.4,210.7 L521.9,209.8 L522.5,208.0 L519.2,206.4 L516.2,206.6 L513.7,202.9 L516.3,196.7 L521.6,187.7 L524.3,192.2 L531.5,195.8 L538.7,198.4 L543.1,203.6 L546.8,204.5 L549.5,207.7 L555.4,208.7 L556.3,210.1 L559.1,209.3 L562.8,211.4 L565.6,210.8 L565.7,213.5 L565.4,216.6 L568.4,214.9 L568.0,223.0 Z M593.4,237.1 L596.9,242.3 L595.6,242.7 L591.4,239.4 L590.5,236.8 L591.1,234.2 L593.6,232.7 L592.6,229.8 L596.7,235.0 L599.2,233.4 L598.2,236.0 L600.1,239.9 L596.9,240.1 L595.2,236.7 Z M600.8,246.2 L599.0,245.5 L597.6,243.2 L598.8,244.9 Z M616.5,249.8 L613.2,250.3 L609.8,253.2 L607.3,253.6 L606.2,249.5 L604.5,247.8 L604.7,244.5 L608.8,245.6 L609.6,242.6 L611.3,246.3 L614.8,246.4 L617.7,244.4 Z M615.8,263.3 L616.6,265.2 L619.5,266.2 L617.2,263.0 L620.6,262.3 L622.2,260.9 L621.2,259.1 L620.2,261.2 L618.4,259.8 L617.9,259.2 L617.5,259.0 L616.7,256.5 L621.2,254.8 L620.7,257.4 L622.3,257.7 L626.1,262.9 L626.4,267.6 L625.0,267.0 L622.5,269.1 L619.8,269.1 L619.7,271.7 L612.8,273.2 L610.3,270.4 L611.8,267.9 L609.5,261.7 L608.4,261.5 L611.8,261.3 L615.5,262.6 L615.7,263.4 Z M605.2,263.1 L605.5,262.9 L605.8,262.7 L605.6,263.3 Z M602.6,258.7 L603.7,260.9 L603.2,262.0 Z M595.7,251.3 L596.4,251.6 L597.9,252.6 Z M588.2,247.6 L595.1,248.8 L594.8,249.7 L594.7,249.3 Z M539.4,222.3 L543.6,223.8 L550.7,223.5 L552.7,225.7 L556.7,222.5 L558.6,223.2 L559.9,227.2 L567.4,231.3 L575.1,231.0 L576.3,231.6 L578.5,235.3 L582.3,236.6 L584.5,232.4 L586.2,232.7 L587.6,241.4 L586.6,237.4 L585.6,238.9 L585.4,242.9 L586.5,245.0 L586.5,245.0 L586.5,245.0 L586.5,245.0 L587.7,247.5 L587.7,247.5 L587.7,247.5 L583.3,246.4 L573.0,252.4 L563.6,258.9 L562.3,253.1 L562.1,247.4 L560.5,248.0 L556.2,246.1 L555.1,246.9 L550.5,244.8 L549.7,243.2 L544.5,242.9 L540.5,240.5 L540.0,241.3 L531.8,235.0 L529.8,236.2 L527.2,235.7 L523.4,237.5 L521.4,235.1 L521.1,231.5 L526.9,229.0 L529.1,229.0 L530.7,231.0 L534.5,231.2 L536.4,229.8 L534.3,226.1 L537.8,226.2 L539.3,224.2 Z M587.5,247.2 L587.6,247.4 L587.7,247.4 Z">
  <desc xmlns="http://www.highcharts.com/svg/namespace">
    <geoid>5103</geoid>
    <name>Congressional District 3</name>
    <hc-middle-x>0.32</hc-middle-x>
    <hc-middle-y>0.52</hc-middle-y>
    <hc-key>us-va-03</hc-key>
    <hc-a2>CD</hc-a2>
  </desc>
</path>

<path fill="#CEE3F5" stroke="#6E6E6E" stroke-width="0.4" id="US.VA.04" d="M587.7,247.4 L587.6,247.4 L587.5,247.2 L586.5,245.1 L586.5,245.0 L586.5,245.0 L587.7,247.5 L587.7,247.5 Z M635.3,296.7 L583.4,299.2 L568.5,299.7 L568.5,300.5 L496.9,303.1 L505.6,285.3 L504.8,266.4 L500.0,264.5 L499.8,263.1 L495.7,258.6 L489.0,256.3 L482.7,257.8 L478.6,257.6 L475.6,253.8 L473.1,254.9 L468.8,254.8 L461.2,250.9 L461.4,249.7 L456.2,246.8 L455.4,244.4 L455.5,226.0 L455.0,218.5 L460.1,210.6 L463.3,209.3 L466.4,191.1 L467.6,188.0 L469.7,189.4 L472.2,189.4 L475.1,191.1 L477.2,191.1 L478.2,189.0 L477.2,187.4 L479.9,184.0 L485.5,188.8 L487.6,189.8 L489.2,192.6 L493.7,192.0 L495.8,193.9 L498.2,194.1 L502.6,196.7 L491.1,207.9 L490.2,211.4 L484.8,212.6 L485.5,214.8 L484.8,217.8 L486.9,218.9 L489.1,218.1 L491.6,214.8 L496.4,214.9 L502.6,213.1 L505.7,210.5 L510.5,208.3 L513.7,209.0 L516.2,206.6 L519.2,206.4 L522.5,208.0 L521.9,209.8 L524.4,210.7 L524.7,212.3 L527.6,215.2 L532.8,213.5 L532.5,216.9 L534.8,217.5 L535.6,215.1 L537.2,216.5 L536.5,218.1 L534.8,219.8 L535.2,221.2 L539.4,222.3 L539.3,224.2 L537.8,226.2 L534.3,226.1 L536.4,229.8 L534.5,231.2 L530.7,231.0 L529.1,229.0 L526.9,229.0 L521.1,231.5 L521.4,235.1 L523.4,237.5 L527.2,235.7 L529.8,236.2 L531.8,235.0 L540.0,241.3 L540.5,240.5 L544.5,242.9 L549.7,243.2 L550.5,244.8 L555.1,246.9 L556.2,246.1 L560.5,248.0 L562.1,247.4 L562.3,253.1 L563.6,258.9 L573.0,252.4 L583.3,246.4 L587.7,247.5 L587.7,247.5 L587.7,247.5 L587.7,247.5 L588.2,247.6 L594.7,249.3 L594.8,249.7 L594.0,250.9 L595.7,251.3 L595.7,251.3 L597.9,252.6 L601.9,256.2 L602.6,258.7 L603.2,262.0 L599.9,265.0 L602.2,265.4 L605.2,263.1 L605.6,263.3 L605.8,262.7 L607.2,261.8 L608.4,261.5 L609.5,261.7 L611.8,267.9 L610.3,270.4 L612.8,273.2 L619.7,271.7 L619.8,269.1 L622.5,269.1 L625.0,267.0 L627.3,274.2 L632.4,275.3 L639.1,281.7 L638.2,283.2 L634.7,284.7 Z M586.5,245.0 L585.4,242.9 L585.6,238.9 L586.6,237.4 L587.6,241.4 L586.5,245.0 Z">
  <desc xmlns="http://www.highcharts.com/svg/namespace">
    <geoid>5104</geoid>
    <name>Congressional District 4</name>
    <hc-middle-x>0.33</hc-middle-x>
    <hc-middle-y>0.56</hc-middle-y>
    <hc-key>us-va-04</hc-key>
    <hc-a2>CD</hc-a2>
  </desc>
</path>

<path fill="#CEE3F5" stroke="#6E6E6E" stroke-width="0.4" id="US.VA.07" d="M565.7,213.5 L565.6,210.8 L562.8,211.4 L559.1,209.3 L556.3,210.1 L555.4,208.7 L549.5,207.7 L546.8,204.5 L543.1,203.6 L538.7,198.4 L531.5,195.8 L524.3,192.2 L521.6,187.7 L516.3,196.7 L513.7,202.9 L516.2,206.6 L513.7,209.0 L510.5,208.3 L505.7,210.5 L502.6,213.1 L496.4,214.9 L491.6,214.8 L489.1,218.1 L486.9,218.9 L484.8,217.8 L485.5,214.8 L484.8,212.6 L490.2,211.4 L491.1,207.9 L502.6,196.7 L498.2,194.1 L495.8,193.9 L493.7,192.0 L489.2,192.6 L487.6,189.8 L485.5,188.8 L479.9,184.0 L477.2,187.4 L478.2,189.0 L477.2,191.1 L475.1,191.1 L472.2,189.4 L469.7,189.4 L467.6,188.0 L464.4,185.8 L465.8,182.8 L460.1,178.7 L460.6,176.4 L467.5,162.1 L458.2,157.7 L455.6,157.0 L453.5,154.9 L447.1,152.1 L451.3,146.0 L454.9,138.7 L441.4,133.7 L447.9,124.4 L451.0,128.3 L453.5,128.6 L456.9,126.0 L456.5,124.6 L462.2,122.3 L463.9,118.1 L461.5,114.0 L463.2,112.0 L463.2,110.1 L459.5,105.6 L451.6,97.1 L453.0,96.4 L456.8,97.8 L463.0,90.0 L475.7,79.0 L477.7,79.2 L479.9,82.6 L480.1,85.3 L481.8,86.9 L480.5,90.7 L483.9,95.4 L485.9,96.2 L487.1,99.1 L490.5,103.5 L490.6,105.9 L492.8,108.2 L496.4,106.6 L501.2,108.5 L502.5,112.6 L500.9,114.1 L503.3,116.3 L501.7,118.9 L508.3,120.6 L509.6,124.1 L513.1,126.1 L517.6,125.5 L519.8,126.0 L520.8,127.9 L503.3,150.6 L502.0,153.1 L506.5,156.2 L507.6,155.2 L510.2,159.5 L511.6,158.9 L515.5,162.7 L518.7,161.4 L520.5,164.8 L520.4,168.5 L523.2,170.9 L522.6,173.3 L525.0,173.4 L525.9,171.3 L528.4,171.7 L528.7,175.8 L530.9,175.5 L532.0,179.7 L533.8,178.7 L536.1,179.8 L536.8,182.6 L540.3,181.9 L541.3,185.3 L543.1,184.3 L547.3,184.4 L546.7,188.5 L549.3,189.1 L555.3,192.6 L555.3,194.1 L558.5,194.0 L557.5,192.6 L559.9,192.3 L560.6,195.0 L559.3,196.7 L561.7,196.9 L561.7,194.7 L565.0,193.9 L564.9,195.6 L567.4,195.2 L566.7,192.6 L569.1,193.0 L567.2,197.4 L569.5,197.8 L572.1,195.2 L574.0,198.6 L574.3,200.5 L577.7,202.9 L576.6,207.0 L572.1,205.6 L566.4,207.7 Z">
  <desc xmlns="http://www.highcharts.com/svg/namespace">
    <geoid>5107</geoid>
    <name>Congressional District 7</name>
    <hc-middle-x>0.27</hc-middle-x>
    <hc-middle-y>0.37</hc-middle-y>
    <hc-key>us-va-07</hc-key>
    <hc-a2>CD</hc-a2>
  </desc>
</path>

<path fill="#CEE3F5" stroke="#6E6E6E" stroke-width="0.4" id="US.VA.01" d="M495.9,70.0 L502.5,67.5 L509.5,67.0 L513.2,67.7 L508.7,74.3 L513.2,74.5 L515.3,76.8 L517.8,76.7 L520.0,74.0 L521.5,76.1 L522.6,74.5 L527.3,76.4 L524.3,79.8 L522.5,79.1 L519.0,80.5 L520.7,83.3 L523.7,82.8 L524.0,85.0 L527.4,86.2 L524.3,92.7 L526.1,94.3 L527.9,92.6 L529.1,94.0 L526.2,103.0 L527.3,107.6 L524.2,105.0 L524.4,107.4 L527.9,110.4 L529.5,113.0 L525.2,113.7 L533.0,115.4 L540.0,113.4 L542.4,111.1 L546.2,110.9 L549.2,107.9 L551.7,109.3 L552.3,114.3 L551.6,115.6 L549.3,115.4 L553.7,120.0 L557.0,122.0 L557.8,126.8 L561.0,127.8 L564.2,130.4 L567.5,131.3 L570.7,130.6 L574.3,131.2 L575.9,133.7 L580.4,131.2 L583.4,132.5 L585.8,131.9 L586.9,135.7 L593.0,139.5 L593.9,142.0 L593.6,144.5 L599.1,145.5 L598.8,146.8 L603.6,150.2 L609.9,152.1 L617.8,156.8 L618.8,160.6 L617.9,164.5 L616.4,164.4 L613.6,161.8 L611.5,162.1 L614.0,167.5 L614.5,170.1 L612.8,174.2 L615.5,176.3 L615.7,177.5 L612.3,177.7 L612.8,179.1 L611.3,180.9 L613.2,184.2 L613.0,185.5 L606.0,183.7 L602.4,181.2 L600.3,177.3 L598.9,182.7 L596.5,181.7 L595.8,178.5 L591.6,173.3 L590.5,170.6 L587.9,168.8 L586.5,166.5 L584.1,166.6 L583.7,164.0 L581.6,165.3 L579.4,163.8 L574.4,157.0 L569.1,154.3 L567.4,150.3 L564.9,149.4 L563.6,147.8 L561.7,141.3 L559.9,138.9 L557.6,137.2 L553.0,136.8 L550.3,132.4 L543.8,131.0 L543.2,132.1 L545.3,133.8 L549.7,133.5 L550.6,136.7 L551.9,138.2 L557.8,139.4 L561.2,143.1 L561.5,150.7 L565.0,151.7 L566.3,154.5 L573.1,160.3 L575.0,164.6 L579.4,170.0 L582.8,169.8 L583.5,173.2 L588.2,174.7 L591.2,178.9 L592.1,183.5 L593.8,186.2 L596.4,187.3 L602.9,186.6 L604.1,186.0 L606.3,189.0 L616.4,191.1 L613.5,193.0 L607.5,194.4 L607.5,195.3 L610.6,196.4 L615.3,199.1 L616.2,196.3 L617.8,196.5 L618.5,199.6 L617.5,201.4 L618.4,203.2 L620.3,203.4 L620.4,212.4 L619.8,215.4 L618.0,217.0 L616.4,215.6 L614.2,210.4 L610.5,210.7 L607.7,206.1 L606.1,204.9 L605.2,207.5 L607.5,210.2 L604.1,210.4 L604.2,212.3 L607.6,214.5 L607.8,215.5 L605.1,217.4 L608.5,217.2 L610.5,220.8 L610.1,222.5 L603.5,224.0 L600.4,225.4 L599.2,223.3 L592.8,217.2 L587.4,209.3 L584.1,207.5 L579.7,200.7 L575.3,196.6 L574.0,198.6 L572.1,195.2 L569.5,197.8 L567.2,197.4 L569.1,193.0 L566.7,192.6 L567.4,195.2 L564.9,195.6 L565.0,193.9 L561.7,194.7 L561.7,196.9 L559.3,196.7 L560.6,195.0 L559.9,192.3 L557.5,192.6 L558.5,194.0 L555.3,194.1 L555.3,192.6 L549.3,189.1 L546.7,188.5 L547.3,184.4 L543.1,184.3 L541.3,185.3 L540.3,181.9 L536.8,182.6 L536.1,179.8 L533.8,178.7 L532.0,179.7 L530.9,175.5 L528.7,175.8 L528.4,171.7 L525.9,171.3 L525.0,173.4 L522.6,173.3 L523.2,170.9 L520.4,168.5 L520.5,164.8 L518.7,161.4 L515.5,162.7 L511.6,158.9 L510.2,159.5 L507.6,155.2 L506.5,156.2 L502.0,153.1 L503.3,150.6 L520.8,127.9 L519.8,126.0 L517.6,125.5 L513.1,126.1 L509.6,124.1 L508.3,120.6 L501.7,118.9 L503.3,116.3 L500.9,114.1 L502.5,112.6 L501.2,108.5 L496.4,106.6 L492.8,108.2 L490.6,105.9 L490.5,103.5 L487.1,99.1 L485.9,96.2 L487.7,97.4 L489.4,93.9 L486.8,92.8 L486.6,86.7 L490.3,90.0 L492.6,94.6 L493.2,92.0 L495.4,90.6 L493.3,88.2 L496.9,84.8 L497.4,77.7 L500.6,78.3 Z M599.2,233.4 L596.7,235.0 L592.6,229.8 L593.6,232.7 L591.1,234.2 L590.5,231.1 L587.2,227.6 L581.0,229.3 L579.9,231.7 L577.9,228.4 L570.3,225.4 L569.7,219.0 L568.6,221.0 L568.5,224.5 L568.0,223.0 L568.4,214.9 L565.4,216.6 L565.7,213.5 L566.4,207.7 L572.1,205.6 L576.6,207.0 L577.7,202.9 L580.7,207.7 L584.6,210.9 L590.9,220.9 L597.2,224.9 L599.8,227.2 L602.9,228.9 L608.2,226.6 L610.7,227.9 L610.4,231.6 L612.0,233.4 L613.2,232.5 L617.4,235.5 L618.0,237.0 L615.3,238.8 L614.7,240.3 L611.8,239.1 L609.0,240.0 L608.4,241.4 L604.2,240.7 L600.0,235.3 Z">
  <desc xmlns="http://www.highcharts.com/svg/namespace">
    <geoid>5101</geoid>
    <name>Congressional District 1</name>
    <hc-middle-x>0.35</hc-middle-x>
    <hc-middle-y>0.41</hc-middle-y>
    <hc-key>us-va-01</hc-key>
    <hc-a2>CD</hc-a2>
  </desc>
</path>

<path fill="#CEE3F5" stroke="#6E6E6E" stroke-width="0.4" id="US.VA.05" d="M495.9,70.0 L500.6,78.3 L497.4,77.7 L496.9,84.8 L493.3,88.2 L495.4,90.6 L493.2,92.0 L492.6,94.6 L490.3,90.0 L486.6,86.7 L486.8,92.8 L489.4,93.9 L487.7,97.4 L485.9,96.2 L483.9,95.4 L480.5,90.7 L481.8,86.9 L480.1,85.3 L479.9,82.6 L477.7,79.2 L475.7,79.0 L463.0,90.0 L456.8,97.8 L453.0,96.4 L451.6,97.1 L459.5,105.6 L463.2,110.1 L463.2,112.0 L461.5,114.0 L463.9,118.1 L462.2,122.3 L456.5,124.6 L456.9,126.0 L453.5,128.6 L451.0,128.3 L447.9,124.4 L441.4,133.7 L454.9,138.7 L451.3,146.0 L447.1,152.1 L453.5,154.9 L455.6,157.0 L458.2,157.7 L467.5,162.1 L460.6,176.4 L460.1,178.7 L465.8,182.8 L464.4,185.8 L467.6,188.0 L466.4,191.1 L463.3,209.3 L460.1,210.6 L455.0,218.5 L455.5,226.0 L455.4,244.4 L456.2,246.8 L461.4,249.7 L461.2,250.9 L468.8,254.8 L473.1,254.9 L475.6,253.8 L478.6,257.6 L482.7,257.8 L489.0,256.3 L495.7,258.6 L499.8,263.1 L500.0,264.5 L504.8,266.4 L505.6,285.3 L496.9,303.1 L438.8,305.2 L387.2,306.4 L345.7,307.2 L318.1,307.4 L320.2,306.3 L320.2,303.0 L324.0,300.5 L323.1,298.5 L323.4,295.2 L322.0,293.9 L322.5,290.5 L320.1,289.7 L321.6,286.9 L325.0,289.9 L328.1,287.9 L329.1,283.6 L330.6,283.5 L330.4,279.7 L328.7,281.7 L326.6,280.4 L325.3,281.3 L308.7,277.5 L307.6,282.4 L305.7,282.2 L302.6,278.3 L303.1,276.5 L288.9,273.4 L292.0,270.3 L294.2,264.8 L296.4,265.2 L296.5,262.0 L298.4,260.8 L299.4,251.8 L297.7,247.0 L301.4,243.1 L307.6,241.9 L309.2,244.8 L311.5,245.5 L317.1,240.7 L317.2,239.0 L321.4,235.7 L320.0,231.9 L321.4,228.6 L321.1,226.6 L326.6,222.3 L331.7,223.2 L333.6,222.3 L333.1,218.0 L336.1,217.5 L336.0,216.0 L338.4,212.6 L340.7,213.5 L341.9,216.4 L343.7,216.5 L344.0,218.8 L347.2,219.3 L351.1,218.0 L352.8,218.5 L356.5,217.2 L358.6,215.4 L362.0,215.6 L362.3,218.9 L364.8,219.9 L364.2,222.0 L358.5,224.8 L358.2,229.1 L360.5,229.5 L361.1,231.8 L364.1,234.2 L369.9,221.9 L373.5,224.2 L376.8,223.2 L380.2,219.7 L381.7,220.1 L384.2,217.5 L386.2,218.0 L385.9,214.6 L389.8,213.7 L394.1,208.8 L395.8,208.2 L395.4,205.9 L397.4,206.5 L399.7,204.8 L399.4,203.1 L401.5,201.1 L399.2,201.3 L393.6,189.0 L391.8,186.0 L388.0,185.3 L385.0,183.5 L384.5,177.5 L381.3,176.9 L378.9,173.9 L376.1,175.1 L378.4,169.2 L378.1,166.1 L383.8,163.2 L385.8,163.4 L386.5,165.7 L389.8,166.6 L394.8,160.4 L398.1,159.2 L400.3,151.0 L401.6,150.9 L407.9,145.1 L407.1,140.6 L410.4,131.4 L413.7,127.9 L416.5,127.8 L417.9,122.9 L421.9,121.4 L423.0,119.6 L426.0,118.3 L426.6,115.3 L431.1,109.9 L434.5,101.6 L434.9,98.7 L436.7,96.0 L439.3,94.5 L438.9,92.2 L440.9,88.9 L443.6,87.1 L444.4,81.6 L442.9,79.6 L443.9,75.9 L447.3,73.2 L449.2,73.7 L453.8,71.1 L457.1,63.3 L460.4,60.5 L464.4,59.2 L463.3,57.0 L466.0,54.1 L468.8,49.9 L472.1,46.2 L497.3,52.7 L495.5,58.0 L494.5,58.6 L492.8,64.4 Z">
  <desc xmlns="http://www.highcharts.com/svg/namespace">
    <geoid>5105</geoid>
    <name>Congressional District 5</name>
    <hc-middle-x>0.47</hc-middle-x>
    <hc-middle-y>0.82</hc-middle-y>
    <hc-key>us-va-05</hc-key>
    <hc-a2>CD</hc-a2>
  </desc>
</path>

<path fill="#CEE3F5" stroke="#6E6E6E" stroke-width="0.4" id="US.VA.06" d="M302.8,160.6 L306.7,156.6 L309.1,152.5 L311.1,147.1 L313.4,144.4 L311.8,141.8 L315.6,135.3 L321.0,129.4 L324.5,127.4 L322.7,123.6 L325.7,120.4 L326.4,118.2 L328.1,118.5 L331.0,111.9 L332.4,110.3 L331.5,105.8 L335.5,93.5 L344.7,97.6 L346.0,99.4 L349.8,107.3 L363.4,111.8 L367.1,108.9 L371.5,103.2 L371.9,99.9 L375.6,92.7 L377.7,86.4 L380.8,85.5 L380.7,81.2 L384.3,71.8 L385.7,71.8 L388.5,65.6 L398.9,74.4 L405.2,61.6 L410.5,56.5 L410.7,59.2 L413.9,57.1 L416.5,52.6 L418.6,51.0 L420.2,52.9 L424.2,47.2 L422.4,45.8 L424.6,43.2 L432.0,46.0 L432.4,43.0 L435.6,39.2 L441.4,38.0 L442.4,40.7 L440.7,42.2 L442.4,43.9 L443.6,47.7 L455.6,46.3 L456.6,44.3 L461.1,46.7 L464.2,45.9 L468.8,49.9 L466.0,54.1 L463.3,57.0 L464.4,59.2 L460.4,60.5 L457.1,63.3 L453.8,71.1 L449.2,73.7 L447.3,73.2 L443.9,75.9 L442.9,79.6 L444.4,81.6 L443.6,87.1 L440.9,88.9 L438.9,92.2 L439.3,94.5 L436.7,96.0 L434.9,98.7 L434.5,101.6 L431.1,109.9 L426.6,115.3 L426.0,118.3 L423.0,119.6 L421.9,121.4 L417.9,122.9 L416.5,127.8 L413.7,127.9 L410.4,131.4 L407.1,140.6 L407.9,145.1 L401.6,150.9 L400.3,151.0 L398.1,159.2 L394.8,160.4 L389.8,166.6 L386.5,165.7 L385.8,163.4 L383.8,163.2 L378.1,166.1 L378.4,169.2 L376.1,175.1 L378.9,173.9 L381.3,176.9 L384.5,177.5 L385.0,183.5 L388.0,185.3 L391.8,186.0 L393.6,189.0 L399.2,201.3 L401.5,201.1 L399.4,203.1 L399.7,204.8 L397.4,206.5 L395.4,205.9 L395.8,208.2 L394.1,208.8 L389.8,213.7 L385.9,214.6 L386.2,218.0 L384.2,217.5 L381.7,220.1 L380.2,219.7 L376.8,223.2 L373.5,224.2 L369.9,221.9 L364.1,234.2 L361.1,231.8 L360.5,229.5 L358.2,229.1 L358.5,224.8 L364.2,222.0 L364.8,219.9 L362.3,218.9 L362.0,215.6 L358.6,215.4 L356.5,217.2 L352.8,218.5 L351.1,218.0 L347.2,219.3 L344.0,218.8 L343.7,216.5 L341.9,216.4 L340.7,213.5 L338.4,212.6 L336.0,216.0 L336.1,217.5 L333.1,218.0 L333.6,222.3 L331.7,223.2 L326.6,222.3 L321.1,226.6 L321.4,228.6 L320.0,231.9 L321.4,235.7 L317.2,239.0 L317.1,240.7 L311.5,245.5 L309.2,244.8 L307.6,241.9 L301.4,243.1 L296.5,239.0 L301.5,234.6 L306.7,232.3 L306.4,227.8 L311.6,223.8 L312.6,222.0 L302.9,217.3 L301.9,215.9 L304.1,213.7 L307.2,206.6 L310.5,203.1 L305.5,194.8 L305.2,193.3 L311.3,188.5 L314.6,186.6 L316.8,182.8 L318.7,181.7 L320.4,178.1 L322.8,176.2 L334.7,180.0 L338.7,172.6 L339.0,169.7 L335.6,168.6 L333.0,171.5 L328.2,167.3 L323.4,167.8 L316.8,166.6 L312.8,160.3 L306.9,159.9 L305.2,161.6 Z">
  <desc xmlns="http://www.highcharts.com/svg/namespace">
    <geoid>5106</geoid>
    <name>Congressional District 6</name>
    <hc-middle-x>0.36</hc-middle-x>
    <hc-middle-y>0.58</hc-middle-y>
    <hc-key>us-va-06</hc-key>
    <hc-a2>CD</hc-a2>
  </desc>
</path>

<path fill="#CEE3F5" stroke="#6E6E6E" stroke-width="0.4" id="US.VA.09" d="M302.8,160.6 L305.2,161.6 L306.9,159.9 L312.8,160.3 L316.8,166.6 L323.4,167.8 L328.2,167.3 L333.0,171.5 L335.6,168.6 L339.0,169.7 L338.7,172.6 L334.7,180.0 L322.8,176.2 L320.4,178.1 L318.7,181.7 L316.8,182.8 L314.6,186.6 L311.3,188.5 L305.2,193.3 L305.5,194.8 L310.5,203.1 L307.2,206.6 L304.1,213.7 L301.9,215.9 L302.9,217.3 L312.6,222.0 L311.6,223.8 L306.4,227.8 L306.7,232.3 L301.5,234.6 L296.5,239.0 L301.4,243.1 L297.7,247.0 L299.4,251.8 L298.4,260.8 L296.5,262.0 L296.4,265.2 L294.2,264.8 L292.0,270.3 L288.9,273.4 L303.1,276.5 L302.6,278.3 L305.7,282.2 L307.6,282.4 L308.7,277.5 L325.3,281.3 L326.6,280.4 L328.7,281.7 L330.4,279.7 L330.6,283.5 L329.1,283.6 L328.1,287.9 L325.0,289.9 L321.6,286.9 L320.1,289.7 L322.5,290.5 L322.0,293.9 L323.4,295.2 L323.1,298.5 L324.0,300.5 L320.2,303.0 L320.2,306.3 L318.1,307.4 L284.2,307.6 L247.6,305.9 L238.5,306.2 L224.2,305.7 L210.7,305.0 L193.4,304.6 L167.9,303.0 L170.5,300.6 L147.4,299.9 L146.4,302.2 L122.8,301.8 L88.5,301.5 L34.8,300.4 L33.5,299.9 L4.5,299.2 L0.0,298.8 L2.4,296.5 L8.3,294.8 L12.2,292.4 L15.5,292.0 L21.8,292.3 L27.8,289.1 L40.8,285.3 L45.8,285.1 L46.0,280.8 L49.0,277.8 L48.9,276.0 L51.2,273.6 L59.9,273.4 L67.5,270.3 L69.4,266.2 L68.4,262.0 L72.0,258.2 L75.8,258.1 L79.2,254.5 L80.9,254.3 L80.7,247.0 L89.4,242.0 L95.6,237.9 L104.9,233.6 L112.5,231.5 L115.3,228.8 L144.5,203.8 L146.8,206.5 L142.1,210.2 L143.0,212.5 L147.1,214.2 L147.9,217.0 L147.0,220.4 L148.5,223.5 L152.1,225.7 L153.8,230.0 L156.6,230.9 L159.1,230.4 L162.7,232.6 L163.2,235.3 L168.3,239.1 L178.1,238.6 L182.6,235.7 L183.4,233.3 L190.2,231.7 L192.1,227.2 L194.7,225.0 L198.2,229.0 L206.1,235.8 L211.0,232.9 L216.2,231.0 L225.9,228.9 L229.0,229.5 L233.4,227.3 L237.4,224.1 L234.6,220.3 L236.6,215.5 L238.4,215.9 L242.8,219.1 L244.0,221.4 L249.4,219.1 L262.1,210.8 L265.5,210.0 L267.0,212.5 L266.9,214.8 L268.5,216.1 L277.8,210.1 L283.0,207.1 L284.5,204.4 L280.5,204.2 L282.0,203.1 L280.6,201.3 L286.4,198.0 L289.5,194.6 L285.6,192.7 L283.2,188.0 L286.3,184.9 L287.1,179.9 L289.7,179.1 L288.6,177.4 L292.7,172.4 L295.2,167.5 L295.8,168.0 Z">
  <desc xmlns="http://www.highcharts.com/svg/namespace">
    <geoid>5109</geoid>
    <name>Congressional District 9</name>
    <hc-middle-x>0.55</hc-middle-x>
    <hc-middle-y>0.71</hc-middle-y>
    <hc-key>us-va-09</hc-key>
    <hc-a2>CD</hc-a2>
  </desc>
</path>
</g>

<text x="350" y="714" text-anchor="middle" font-family="Verdana" font-size="8" stroke-opacity="0.6">Copyright (c) 2020 Highsoft AS, Based on data from The United States Census Bureau</text>

</svg>