<?xml version="1.0" encoding="utf-8" standalone="no"?>
<!DOCTYPE svg PUBLIC "-//W3C//DTD SVG 1.1//EN" "http://www.w3.org/Graphics/SVG/1.1/DTD/svg11.dtd">

<svg version="1.1" height="700pt" width="700pt" xmlns="http://www.w3.org/2000/svg" xmlns:xlink="http://www.w3.org/1999/xlink">
<desc>
Map version: 2.1.0
Copyright (c) 2023 Highsoft AS, Based on data from The United States Census Bureau
</desc>
<title>Wisconsin congressional districts</title>
<g id="special">

<g id="US">
  <desc xmlns="http://www.highcharts.com/svg/namespace">
    <name>United States of America</name>
    <labelrank>2</labelrank>
    <country-abbrev>U.S.A.</country-abbrev>
    <subregion>Northern America</subregion>
    <region-wb>North America</region-wb>
    <iso-a3>USA</iso-a3>
    <iso-a2>US</iso-a2>
    <woe-id>23424977</woe-id>
    <continent>North America</continent>
    <hc-key>us</hc-key>
    <hc-a2>US</hc-a2>
  </desc>
</g>

<g id="US.WI">
  <desc xmlns="http://www.highcharts.com/svg/namespace">
    <labelrank>0</labelrank>
    <hasc>US.WI</hasc>
    <alt-name>WI|Wis.</alt-name>
    <woe-id>2347608</woe-id>
    <subregion>East North Central</subregion>
    <fips>US55</fips>
    <postal-code>WI</postal-code>
    <name>Wisconsin</name>
    <country>United States of America</country>
    <type-en>State</type-en>
    <region>Midwest</region>
    <longitude>-89.5831</longitude>
    <woe-name>Wisconsin</woe-name>
    <latitude>44.3709</latitude>
    <woe-label>Wisconsin, US, United States</woe-label>
    <type>State</type>
    <hc-key>us-wi</hc-key>
    <hc-a2>WI</hc-a2>
  </desc>
</g>

<path fill="#CEE3F5" stroke="#6E6E6E" stroke-width="0.4" id="US.WI.08" d="M630.7,254.3 L637.5,253.9 L637.0,264.4 L632.7,261.9 L630.8,269.7 L632.6,276.3 L626.6,275.7 L632.3,281.6 L629.5,283.8 L628.8,289.3 L624.9,289.1 L623.5,293.8 L619.2,302.2 L618.1,307.2 L620.9,309.8 L616.6,313.3 L615.2,319.1 L608.8,328.4 L604.3,328.8 L600.1,325.3 L596.9,319.7 L595.7,313.7 L596.7,307.1 L599.0,301.5 L604.8,293.0 L607.1,292.2 L608.7,280.7 L611.6,273.7 L616.8,274.4 L618.2,271.3 L621.7,269.7 L623.9,259.1 L626.4,258.1 L627.8,252.4 Z M641.3,233.5 L642.9,235.4 L648.8,234.0 L650.3,238.3 L649.7,245.5 L637.8,245.3 L639.5,242.3 L639.3,233.6 Z M516.8,187.1 L523.5,184.4 L527.2,189.9 L536.2,189.8 L540.9,195.2 L543.8,196.0 L547.6,201.5 L543.1,203.6 L543.2,205.8 L548.2,210.6 L548.8,214.6 L546.9,218.7 L543.2,218.1 L546.5,222.4 L547.9,227.4 L546.2,233.8 L541.3,238.7 L542.8,242.4 L539.2,251.1 L543.3,251.9 L553.7,250.9 L559.8,244.3 L563.8,247.2 L565.3,251.6 L561.4,258.4 L557.5,277.3 L563.3,281.8 L566.2,287.2 L572.7,288.1 L569.7,294.2 L569.9,302.4 L564.6,307.4 L555.0,310.2 L550.2,312.6 L547.3,316.9 L548.8,321.3 L547.2,325.5 L541.6,332.9 L539.4,341.7 L536.0,345.6 L533.9,352.5 L534.8,355.7 L531.7,361.5 L531.0,372.4 L535.3,375.6 L540.9,375.7 L543.2,373.9 L544.8,367.6 L551.6,360.9 L559.2,357.0 L563.8,348.7 L562.7,346.4 L569.3,332.3 L573.6,327.2 L579.2,325.2 L578.8,327.9 L584.3,321.8 L586.9,323.3 L591.4,319.6 L594.9,322.2 L600.6,329.3 L605.5,331.3 L605.6,334.7 L602.6,348.6 L600.1,355.1 L595.3,362.2 L591.3,374.9 L589.0,397.4 L586.6,405.7 L549.2,408.1 L549.9,421.4 L532.9,422.4 L536.3,475.8 L522.9,476.6 L522.6,469.6 L495.8,471.0 L493.2,424.2 L479.9,425.0 L480.8,438.4 L467.5,439.3 L468.3,452.3 L454.9,453.1 L454.3,439.9 L448.2,434.0 L448.5,429.8 L453.7,430.9 L453.4,426.5 L403.0,428.9 L401.4,390.7 L400.0,362.0 L397.5,308.8 L423.8,307.6 L423.1,294.0 L460.0,292.2 L459.6,278.8 L455.1,279.0 L453.9,252.4 L480.8,251.2 L478.1,198.3 L504.6,197.4 L517.4,197.4 Z">
  <desc xmlns="http://www.highcharts.com/svg/namespace">
    <geoid>5508</geoid>
    <name>Congressional District 8</name>
    <hc-middle-x>0.32</hc-middle-x>
    <hc-middle-y>0.57</hc-middle-y>
    <hc-key>us-wi-08</hc-key>
    <hc-a2>CD</hc-a2>
  </desc>
</path>

<path fill="#CEE3F5" stroke="#6E6E6E" stroke-width="0.4" id="US.WI.03" d="M161.9,326.3 L162.0,326.3 L162.0,326.3 L161.9,326.3 Z M279.1,699.5 L254.6,700.0 L252.3,691.0 L245.4,680.0 L219.0,673.7 L206.1,664.2 L204.3,652.5 L202.5,652.0 L201.6,644.0 L196.7,640.8 L196.2,631.9 L192.7,620.4 L192.4,605.8 L194.5,604.5 L198.4,595.6 L205.1,587.2 L199.4,578.2 L187.2,570.5 L189.0,566.0 L184.9,556.2 L186.4,549.9 L183.4,542.6 L184.0,536.7 L180.4,532.5 L180.1,518.1 L182.6,508.1 L180.5,505.5 L177.9,497.1 L164.1,479.5 L160.2,473.9 L152.8,471.3 L144.4,470.2 L137.3,464.8 L130.1,456.2 L118.2,449.7 L111.8,444.2 L109.8,438.9 L109.3,432.8 L106.7,431.1 L105.7,423.7 L102.2,420.0 L91.8,413.8 L84.1,410.7 L73.4,408.0 L64.9,399.8 L62.7,392.5 L59.4,390.3 L50.1,389.0 L38.4,388.8 L35.2,383.3 L29.3,381.4 L29.4,377.9 L24.7,374.2 L17.3,366.5 L9.0,360.8 L13.6,347.1 L13.2,343.9 L56.1,343.6 L82.0,344.1 L81.6,303.8 L79.3,303.8 L79.3,290.3 L132.3,289.8 L132.5,303.2 L134.1,303.1 L134.3,317.0 L147.6,316.7 L147.9,329.9 L159.6,329.7 L167.3,326.7 L169.4,329.4 L171.1,325.9 L177.5,329.2 L180.6,328.6 L180.0,318.1 L182.4,320.3 L189.1,320.2 L189.0,315.8 L195.6,315.6 L197.2,322.3 L193.2,326.4 L193.2,329.0 L199.3,328.8 L199.3,328.8 L202.5,326.0 L202.6,328.7 L202.6,328.7 L213.7,328.4 L215.1,381.7 L201.8,381.9 L202.4,408.6 L215.7,408.3 L215.6,404.9 L218.4,406.5 L224.5,406.4 L223.7,402.0 L226.0,401.9 L227.8,406.8 L224.5,407.2 L226.7,410.4 L228.9,407.9 L255.6,407.2 L256.3,433.8 L256.9,433.7 L258.2,473.9 L262.8,467.9 L270.6,473.4 L283.7,473.7 L298.1,473.3 L298.5,485.7 L303.0,487.8 L307.1,481.9 L315.7,480.4 L316.7,484.0 L322.0,484.0 L324.9,481.7 L322.6,470.5 L318.9,468.9 L315.5,456.1 L317.2,451.3 L321.2,448.9 L321.3,444.3 L328.5,442.3 L326.4,437.1 L329.4,434.2 L328.5,431.2 L308.9,431.9 L308.1,405.1 L320.8,404.8 L319.3,364.8 L370.8,362.6 L386.7,362.6 L400.0,362.0 L400.0,362.0 L401.4,390.7 L403.0,428.9 L362.0,430.4 L364.5,488.6 L365.6,522.6 L344.9,523.7 L301.5,525.1 L286.5,525.8 L287.0,539.1 L300.3,538.5 L301.2,565.2 L288.0,565.7 L288.8,592.2 L284.1,591.9 L275.5,593.5 L277.9,657.6 Z">
  <desc xmlns="http://www.highcharts.com/svg/namespace">
    <geoid>5503</geoid>
    <name>Congressional District 3</name>
    <hc-middle-x>0.46</hc-middle-x>
    <hc-middle-y>0.37</hc-middle-y>
    <hc-key>us-wi-03</hc-key>
    <hc-a2>CD</hc-a2>
  </desc>
</path>

<path fill="#CEE3F5" stroke="#6E6E6E" stroke-width="0.4" id="US.WI.07" d="M225.9,47.2 L221.3,50.8 L219.5,47.4 L221.6,44.2 L229.4,39.1 L231.8,35.8 L239.8,32.2 L239.9,37.2 L234.6,38.6 L231.1,42.7 L231.6,45.5 Z M244.1,24.6 L233.8,25.4 L235.8,21.0 L245.0,18.0 L246.7,20.5 Z M228.0,25.1 L226.0,26.3 L221.6,22.2 L223.6,17.9 L228.8,22.5 Z M202.6,18.3 L199.2,16.2 L203.3,12.2 L204.8,14.2 Z M256.6,10.2 L252.2,12.4 L253.6,2.9 L255.7,0.1 L258.9,0.0 L258.9,7.3 Z M215.7,408.3 L202.4,408.6 L201.8,381.9 L215.1,381.7 L213.7,328.4 L202.6,328.7 L199.3,328.8 L193.2,329.0 L193.2,326.4 L197.2,322.3 L195.6,315.6 L189.0,315.8 L189.1,320.2 L182.4,320.3 L180.0,318.1 L180.6,328.6 L177.5,329.2 L171.1,325.9 L169.4,329.4 L167.3,326.7 L159.6,329.7 L147.9,329.9 L147.6,316.7 L134.3,317.0 L134.1,303.1 L132.5,303.2 L132.3,289.8 L79.3,290.3 L79.3,303.8 L81.6,303.8 L82.0,344.1 L56.1,343.6 L13.2,343.9 L12.7,337.9 L15.2,332.4 L13.1,327.1 L13.9,319.4 L9.4,312.8 L15.7,306.2 L13.3,294.4 L14.9,289.4 L13.8,278.7 L20.6,271.3 L20.0,268.7 L25.8,261.8 L26.1,255.2 L22.5,251.8 L17.5,244.1 L17.5,240.0 L12.4,235.9 L7.1,237.0 L0.6,234.8 L0.0,224.6 L2.1,213.1 L11.1,205.9 L14.0,198.7 L13.1,196.3 L19.4,185.8 L26.5,180.0 L36.0,177.1 L38.7,172.2 L44.3,173.9 L47.5,167.2 L50.9,165.5 L57.3,167.1 L58.9,160.5 L63.2,158.2 L62.6,67.7 L64.9,70.0 L71.0,70.1 L74.3,65.4 L71.7,62.7 L73.4,59.7 L77.9,59.9 L78.2,57.1 L83.5,54.9 L91.2,61.6 L99.7,63.7 L115.1,61.0 L138.4,51.7 L146.7,50.2 L154.6,46.8 L156.1,47.9 L161.0,42.9 L169.1,37.4 L174.3,32.5 L177.2,31.7 L178.0,35.9 L182.3,32.7 L184.5,36.1 L187.4,31.5 L192.1,30.1 L193.0,27.2 L201.1,21.9 L208.6,21.7 L209.6,18.8 L214.3,19.3 L215.5,22.4 L218.6,22.1 L222.8,29.3 L220.4,30.6 L217.1,41.9 L213.5,44.6 L211.6,53.4 L212.9,59.7 L206.4,68.1 L203.5,74.2 L209.4,74.9 L221.8,69.2 L226.4,64.0 L222.8,64.1 L226.3,60.2 L234.4,67.7 L244.2,73.1 L258.6,77.4 L262.0,74.7 L260.4,78.9 L263.2,83.9 L269.6,80.6 L271.4,86.0 L277.3,88.0 L280.6,87.0 L288.0,98.0 L289.3,103.1 L293.2,109.4 L293.1,112.8 L403.6,138.5 L429.9,152.2 L437.5,155.5 L441.9,153.6 L448.5,155.3 L450.9,158.9 L455.4,158.9 L457.2,154.3 L466.9,153.7 L467.9,157.0 L472.6,156.4 L476.7,159.6 L480.4,156.9 L490.3,162.5 L495.1,160.4 L496.2,162.6 L500.4,161.6 L511.6,166.6 L511.2,171.7 L514.6,172.9 L508.5,180.9 L512.9,186.6 L516.8,187.1 L517.4,197.4 L504.6,197.4 L478.1,198.3 L480.8,251.2 L453.9,252.4 L455.1,279.0 L459.6,278.8 L460.0,292.2 L423.1,294.0 L423.8,307.6 L397.5,308.8 L400.0,362.0 L370.8,362.6 L319.3,364.8 L320.8,404.8 L308.1,405.1 L308.9,431.9 L328.5,431.2 L329.4,434.2 L326.4,437.1 L328.5,442.3 L321.3,444.3 L321.2,448.9 L317.2,451.3 L315.5,456.1 L318.9,468.9 L322.6,470.5 L324.9,481.7 L322.0,484.0 L316.7,484.0 L315.7,480.4 L307.1,481.9 L303.0,487.8 L298.5,485.7 L298.1,473.3 L270.6,473.4 L262.8,467.9 L258.2,473.9 L256.9,433.7 L256.3,433.8 L255.6,407.2 L228.9,407.9 L226.7,410.4 L224.5,407.2 L227.8,406.8 L226.0,401.9 L224.5,406.4 Z M161.9,326.3 L161.9,326.3 L162.0,326.3 L162.0,326.3 Z">
  <desc xmlns="http://www.highcharts.com/svg/namespace">
    <geoid>5507</geoid>
    <name>Congressional District 7</name>
    <hc-middle-x>0.45</hc-middle-x>
    <hc-middle-y>0.45</hc-middle-y>
    <hc-key>us-wi-07</hc-key>
    <hc-a2>CD</hc-a2>
  </desc>
</path>

<path fill="#CEE3F5" stroke="#6E6E6E" stroke-width="0.4" id="US.WI.06" d="M586.6,405.7 L587.5,413.2 L593.3,421.7 L591.7,428.2 L588.0,433.1 L581.9,436.9 L578.9,441.1 L574.0,455.0 L573.1,463.5 L571.0,468.5 L571.2,484.1 L575.1,490.8 L574.7,497.1 L575.8,501.3 L573.4,508.7 L567.4,521.5 L566.0,528.3 L567.5,533.1 L566.2,539.3 L560.0,553.9 L557.0,570.4 L557.5,575.8 L559.7,581.9 L555.8,582.1 L557.1,588.4 L551.9,585.6 L551.9,582.2 L540.2,582.9 L538.8,556.1 L541.3,556.0 L539.6,529.2 L486.1,532.0 L489.7,532.9 L490.0,538.5 L494.7,534.3 L494.8,544.9 L476.8,545.6 L476.6,548.5 L473.1,551.4 L473.3,548.3 L470.3,545.9 L454.1,546.7 L452.2,550.3 L449.2,549.0 L448.9,543.6 L445.9,547.1 L432.8,547.8 L433.6,561.1 L433.8,574.4 L394.3,576.8 L394.2,574.8 L354.3,576.6 L354.2,572.5 L358.7,566.0 L361.1,566.1 L367.1,562.8 L366.2,535.5 L351.3,534.0 L352.8,530.1 L347.7,529.3 L344.9,523.7 L365.6,522.6 L364.5,488.6 L362.0,430.4 L403.0,428.9 L453.4,426.5 L453.7,430.9 L448.5,429.8 L448.2,434.0 L454.3,439.9 L454.9,453.1 L468.3,452.3 L467.5,439.3 L480.8,438.4 L479.9,425.0 L493.2,424.2 L495.8,471.0 L522.6,469.6 L522.9,476.6 L536.3,475.8 L532.9,422.4 L549.9,421.4 L549.2,408.1 Z">
  <desc xmlns="http://www.highcharts.com/svg/namespace">
    <geoid>5506</geoid>
    <name>Congressional District 6</name>
    <hc-middle-x>0.34</hc-middle-x>
    <hc-middle-y>0.49</hc-middle-y>
    <hc-key>us-wi-06</hc-key>
    <hc-a2>CD</hc-a2>
  </desc>
</path>

<path fill="#CEE3F5" stroke="#6E6E6E" stroke-width="0.4" id="US.WI.02" d="M279.1,699.5 L277.9,657.6 L275.5,593.5 L284.1,591.9 L288.8,592.2 L288.0,565.7 L301.2,565.2 L300.3,538.5 L287.0,539.1 L286.5,525.8 L301.5,525.1 L344.9,523.7 L347.7,529.3 L352.8,530.1 L351.3,534.0 L366.2,535.5 L367.1,562.8 L361.1,566.1 L358.7,566.0 L354.2,572.5 L354.3,576.6 L394.2,574.8 L394.3,576.8 L433.8,574.4 L436.5,641.3 L447.1,641.0 L445.6,650.1 L441.8,650.1 L440.7,657.3 L437.0,659.9 L430.8,661.0 L432.1,671.8 L430.5,675.2 L433.9,676.0 L440.1,673.8 L441.6,675.4 L443.0,687.1 L445.2,687.0 L446.3,692.5 L441.4,694.9 L410.8,696.0 L364.7,696.8 L332.4,698.0 L309.5,698.3 Z">
  <desc xmlns="http://www.highcharts.com/svg/namespace">
    <geoid>5502</geoid>
    <name>Congressional District 2</name>
    <hc-middle-x>0.45</hc-middle-x>
    <hc-middle-y>0.61</hc-middle-y>
    <hc-key>us-wi-02</hc-key>
    <hc-a2>CD</hc-a2>
  </desc>
</path>

<path fill="#CEE3F5" stroke="#6E6E6E" stroke-width="0.4" id="US.WI.01" d="M447.1,641.0 L463.1,640.7 L464.3,645.3 L471.9,643.8 L472.0,640.3 L489.6,639.3 L488.2,612.4 L514.8,611.1 L517.0,612.1 L518.4,618.8 L521.7,620.3 L524.8,615.0 L528.2,615.6 L528.6,624.9 L531.6,624.6 L531.8,621.3 L535.2,621.7 L539.0,618.8 L550.8,619.1 L555.4,622.2 L563.1,621.8 L563.3,627.3 L567.1,627.2 L570.1,634.8 L571.5,634.7 L575.2,639.1 L577.1,645.2 L576.5,655.6 L573.6,663.6 L575.1,671.6 L574.4,676.5 L575.8,688.1 L544.2,689.5 L473.7,693.7 L465.9,694.3 L441.4,694.9 L446.3,692.5 L445.2,687.0 L443.0,687.1 L441.6,675.4 L440.1,673.8 L433.9,676.0 L430.5,675.2 L432.1,671.8 L430.4,664.0 L430.8,661.0 L437.0,659.9 L440.7,657.3 L441.8,650.1 L445.6,650.1 L445.5,645.6 Z">
  <desc xmlns="http://www.highcharts.com/svg/namespace">
    <geoid>5501</geoid>
    <name>Congressional District 1</name>
    <hc-middle-x>0.63</hc-middle-x>
    <hc-middle-y>0.53</hc-middle-y>
    <hc-key>us-wi-01</hc-key>
    <hc-a2>CD</hc-a2>
  </desc>
</path>

<path fill="#CEE3F5" stroke="#6E6E6E" stroke-width="0.4" id="US.WI.05" d="M447.1,641.0 L436.5,641.3 L433.8,574.4 L433.6,561.1 L432.8,547.8 L445.9,547.1 L448.9,543.6 L449.2,549.0 L452.2,550.3 L454.1,546.7 L470.3,545.9 L473.3,548.3 L473.1,551.4 L476.6,548.5 L476.8,545.6 L494.8,544.9 L494.7,534.3 L490.0,538.5 L489.7,532.9 L486.1,532.0 L539.6,529.2 L541.3,556.0 L538.8,556.1 L540.2,582.9 L540.7,596.4 L543.4,597.2 L544.3,601.9 L549.7,601.5 L550.4,606.1 L543.5,606.8 L543.8,608.0 L550.8,608.0 L551.6,611.8 L545.0,613.9 L545.1,616.1 L550.7,616.9 L555.1,615.5 L555.4,622.2 L550.8,619.1 L539.0,618.8 L535.2,621.7 L531.8,621.3 L531.6,624.6 L528.6,624.9 L528.2,615.6 L524.8,615.0 L521.7,620.3 L518.4,618.8 L517.0,612.1 L514.8,611.1 L488.2,612.4 L489.6,639.3 L472.0,640.3 L471.9,643.8 L464.3,645.3 L463.1,640.7 Z">
  <desc xmlns="http://www.highcharts.com/svg/namespace">
    <geoid>5505</geoid>
    <name>Congressional District 5</name>
    <hc-middle-x>0.42</hc-middle-x>
    <hc-middle-y>0.43</hc-middle-y>
    <hc-key>us-wi-05</hc-key>
    <hc-a2>CD</hc-a2>
  </desc>
</path>

<path fill="#CEE3F5" stroke="#6E6E6E" stroke-width="0.4" id="US.WI.04" d="M555.4,622.2 L555.1,615.5 L550.7,616.9 L545.1,616.1 L545.0,613.9 L551.6,611.8 L550.8,608.0 L543.8,608.0 L543.5,606.8 L550.4,606.1 L549.7,601.5 L544.3,601.9 L543.4,597.2 L540.7,596.4 L540.2,582.9 L551.9,582.2 L551.9,585.6 L557.1,588.4 L555.8,582.1 L559.7,581.9 L559.2,592.2 L562.6,596.3 L560.0,607.7 L564.1,610.4 L567.3,617.1 L568.4,629.5 L571.5,634.7 L570.1,634.8 L567.1,627.2 L563.3,627.3 L563.1,621.8 Z">
  <desc xmlns="http://www.highcharts.com/svg/namespace">
    <geoid>5504</geoid>
    <name>Congressional District 4</name>
    <hc-middle-x>0.57</hc-middle-x>
    <hc-middle-y>0.24</hc-middle-y>
    <hc-key>us-wi-04</hc-key>
    <hc-a2>CD</hc-a2>
  </desc>
</path>
</g>

<text x="350" y="714" text-anchor="middle" font-family="Verdana" font-size="8" stroke-opacity="0.6">Copyright (c) 2023 Highsoft AS, Based on data from The United States Census Bureau</text>

</svg>