<?xml version="1.0" encoding="utf-8" standalone="no"?>
<!DOCTYPE svg PUBLIC "-//W3C//DTD SVG 1.1//EN" "http://www.w3.org/Graphics/SVG/1.1/DTD/svg11.dtd">

<svg version="1.1" height="700pt" width="700pt" xmlns="http://www.w3.org/2000/svg" xmlns:xlink="http://www.w3.org/1999/xlink">
<desc>
Map version: 1.1.3
Copyright (c) 2020 Highsoft AS, Based on data from Natural Earth
</desc>
<title>Cuba</title>
<g id="admin1">

<g id="CU">
  <desc xmlns="http://www.highcharts.com/svg/namespace">
    <name>Cuba</name>
    <labelrank>3</labelrank>
    <country-abbrev>Cuba</country-abbrev>
    <subregion>Caribbean</subregion>
    <region-wb>Latin America &amp; Caribbean</region-wb>
    <iso-a3>CUB</iso-a3>
    <iso-a2>CU</iso-a2>
    <woe-id>23424793</woe-id>
    <continent>North America</continent>
    <hc-key>cu</hc-key>
    <hc-a2>CU</hc-a2>
  </desc>
</g>

<path fill="#CEE3F5" stroke="#6E6E6E" stroke-width="0.4" id="CU.HO" d="M610.5,166.9 L610.8,167.7 L606.2,167.1 L604.5,165.7 L604.4,164.5 L607.6,163.8 L609.0,164.4 Z M555.8,134.0 L558.3,135.8 L565.3,138.2 L567.4,139.5 L567.9,143.1 L568.9,144.7 L571.7,143.1 L573.8,144.1 L574.1,145.6 L574.9,144.6 L576.3,145.3 L576.2,144.1 L579.3,144.0 L581.2,142.6 L584.6,143.4 L587.9,140.9 L589.7,142.1 L593.7,141.7 L595.5,141.9 L596.8,143.0 L597.5,145.3 L600.0,144.7 L601.5,145.6 L603.9,148.9 L602.7,151.8 L601.3,153.3 L601.0,155.2 L599.6,156.9 L597.5,157.6 L596.5,155.3 L594.7,155.4 L595.3,156.8 L593.4,157.0 L595.0,160.1 L596.1,159.0 L597.8,158.5 L601.1,158.4 L604.3,160.0 L604.7,161.7 L606.1,162.1 L605.7,163.7 L602.3,162.6 L600.9,160.8 L596.1,161.9 L591.9,161.6 L592.2,163.2 L591.2,167.8 L592.6,169.8 L596.2,171.5 L597.3,169.2 L600.3,166.5 L600.9,165.1 L602.6,166.9 L602.4,169.3 L604.7,169.3 L604.3,170.7 L606.4,171.5 L606.0,170.0 L609.9,170.8 L611.3,169.5 L613.1,170.9 L613.6,169.4 L611.2,169.0 L612.0,167.9 L613.5,167.4 L616.5,167.4 L619.0,168.7 L619.5,169.4 L618.0,169.8 L618.9,171.6 L619.8,170.6 L620.4,172.1 L622.0,172.4 L625.6,171.8 L622.0,170.0 L620.7,169.7 L621.5,168.8 L625.5,168.0 L629.5,168.6 L630.6,169.5 L629.6,170.3 L632.6,170.7 L634.7,170.4 L635.4,172.0 L635.8,170.5 L638.1,170.9 L637.1,170.0 L642.3,169.1 L645.4,170.2 L646.1,171.2 L648.8,171.0 L652.1,173.4 L657.2,173.8 L659.6,174.8 L658.7,175.3 L659.8,177.7 L661.1,178.4 L658.5,179.7 L657.0,181.4 L656.3,184.5 L657.0,186.3 L654.4,187.5 L653.0,189.0 L644.8,184.9 L642.6,185.4 L642.8,187.2 L644.3,189.0 L641.8,187.8 L639.7,187.7 L635.9,184.4 L632.5,185.8 L630.4,185.4 L628.0,187.5 L627.3,190.7 L625.8,189.7 L624.3,190.4 L621.3,188.1 L618.5,189.2 L615.1,185.3 L617.1,183.0 L617.1,180.6 L612.2,181.8 L610.0,180.7 L608.0,181.4 L604.8,184.4 L603.1,183.6 L602.8,186.5 L600.0,188.5 L593.9,188.9 L589.3,191.2 L586.1,190.6 L585.4,188.8 L584.3,188.6 L581.6,186.7 L582.2,185.2 L579.7,184.9 L578.6,182.8 L575.4,180.6 L574.2,180.7 L574.8,183.2 L571.6,185.4 L572.5,187.8 L572.0,190.9 L570.7,192.3 L570.9,190.2 L566.2,189.9 L564.5,187.4 L561.2,184.8 L553.4,182.8 L553.7,181.3 L549.0,179.8 L544.7,177.7 L540.8,176.5 L540.3,172.7 L536.6,173.8 L534.2,172.9 L533.1,171.8 L531.9,172.4 L530.4,171.2 L531.7,170.5 L531.6,169.1 L530.4,167.5 L531.0,164.5 L532.2,162.9 L532.5,161.3 L532.3,156.4 L533.0,154.0 L535.1,155.3 L537.0,155.0 L540.4,153.4 L543.2,153.0 L544.1,150.0 L548.2,146.3 L554.1,142.6 L554.3,140.1 L555.6,138.0 Z">
  <desc xmlns="http://www.highcharts.com/svg/namespace">
    <labelrank>7</labelrank>
    <hasc>CU.HO</hasc>
    <alt-name>NULL</alt-name>
    <woe-id>2345116</woe-id>
    <subregion>NULL</subregion>
    <fips>CU12</fips>
    <postal-code>HO</postal-code>
    <name>Holguín</name>
    <country>Cuba</country>
    <type-en>Province</type-en>
    <region>NULL</region>
    <longitude>-76.1892</longitude>
    <woe-name>Holguín</woe-name>
    <latitude>20.808</latitude>
    <woe-label>Holguin, CU, Cuba</woe-label>
    <type>Provincia</type>
    <hc-middle-x>0.27</hc-middle-x>
    <hc-middle-y>0.47</hc-middle-y>
    <hc-key>cu-ho</hc-key>
    <hc-a2>HO</hc-a2>
  </desc>
</path>

<path fill="#CEE3F5" stroke="#6E6E6E" stroke-width="0.4" id="CU.AR" d="M156.5,47.6 L155.9,47.8 L156.1,43.5 L156.5,42.8 L157.2,46.0 Z M155.6,12.7 L156.9,13.7 L159.0,13.0 L159.7,14.5 L157.9,16.4 L158.5,17.2 L161.5,18.5 L162.1,20.8 L161.9,25.0 L160.6,28.9 L160.6,31.4 L163.1,35.9 L164.7,37.0 L164.7,39.3 L160.5,39.8 L157.1,38.9 L154.5,39.8 L151.6,39.2 L149.3,39.7 L142.6,37.8 L139.9,38.5 L139.2,39.6 L138.5,43.5 L137.0,44.3 L136.3,42.9 L134.2,40.5 L131.8,35.6 L130.7,34.8 L128.9,31.9 L127.4,30.7 L130.2,29.8 L131.4,28.4 L131.2,26.1 L129.6,23.0 L129.7,18.5 L131.4,15.2 L135.8,15.6 L138.7,14.9 L144.5,15.2 L153.2,14.0 Z">
  <desc xmlns="http://www.highcharts.com/svg/namespace">
    <labelrank>7</labelrank>
    <hasc>CU.AR</hasc>
    <alt-name>NULL</alt-name>
    <woe-id>-2345115</woe-id>
    <subregion>NULL</subregion>
    <fips>CU17</fips>
    <postal-code>AR</postal-code>
    <name>Artemisa</name>
    <country>Cuba</country>
    <type-en>Province</type-en>
    <region>NULL</region>
    <longitude>-82.69029999999999</longitude>
    <woe-name>NULL</woe-name>
    <latitude>22.8546</latitude>
    <woe-label>NULL</woe-label>
    <type>Provincia</type>
    <hc-middle-x>0.48</hc-middle-x>
    <hc-middle-y>0.42</hc-middle-y>
    <hc-key>cu-ar</hc-key>
    <hc-a2>AR</hc-a2>
  </desc>
</path>

<path fill="#CEE3F5" stroke="#6E6E6E" stroke-width="0.4" id="CU.MA" d="M218.3,83.0 L218.4,83.9 L216.2,83.5 L216.2,81.7 Z M283.6,5.0 L287.0,4.7 L287.0,5.7 L285.6,6.6 L282.6,5.7 L280.2,5.9 L280.8,4.4 L282.5,4.0 Z M274.9,4.4 L274.2,5.4 L272.3,5.8 L272.9,4.2 L274.6,3.6 Z M271.8,4.5 L270.0,5.6 L267.4,4.7 L265.6,4.7 L263.2,3.9 L262.3,3.1 L263.8,2.9 L267.8,4.0 Z M259.0,0.0 L261.5,1.1 L261.2,2.3 L258.3,1.5 L257.6,0.2 Z M259.9,7.3 L263.6,7.4 L263.4,6.0 L264.4,6.9 L264.9,6.0 L265.9,7.4 L264.3,8.9 L262.1,8.3 L260.0,8.5 L255.3,10.7 Z M279.6,83.3 L276.7,83.4 L268.8,82.8 L259.6,83.9 L254.0,83.3 L250.4,81.6 L246.9,80.4 L244.6,75.9 L244.3,74.1 L244.8,71.2 L242.8,68.4 L240.4,67.9 L240.0,69.5 L240.9,72.4 L240.9,80.7 L240.4,82.9 L239.1,82.8 L240.0,81.3 L239.7,79.1 L238.2,76.6 L236.4,77.3 L235.9,79.4 L234.8,80.3 L233.4,79.5 L231.9,80.9 L229.5,79.8 L228.1,75.3 L225.7,74.2 L222.6,74.2 L220.7,73.1 L216.7,74.6 L216.3,73.8 L211.8,72.3 L210.8,73.3 L206.6,72.8 L205.3,74.6 L200.7,73.9 L199.1,72.1 L197.2,69.0 L188.2,65.3 L185.7,63.6 L183.9,63.2 L182.8,61.3 L179.7,60.6 L179.1,59.5 L180.2,57.7 L182.0,57.1 L189.3,57.4 L191.7,56.8 L193.4,57.1 L196.6,56.7 L199.7,57.3 L203.0,56.8 L205.6,55.7 L209.8,55.1 L211.9,53.4 L211.9,50.2 L212.5,48.3 L212.0,47.4 L214.6,44.0 L215.5,39.5 L215.3,38.5 L211.9,36.1 L211.6,34.4 L212.0,31.8 L210.2,30.3 L209.2,28.4 L210.0,25.9 L210.1,22.9 L208.4,20.5 L205.9,19.0 L206.3,18.1 L209.0,15.8 L208.1,14.7 L208.7,13.5 L210.2,13.7 L209.3,8.8 L210.0,7.4 L216.5,7.3 L219.4,9.3 L219.7,10.7 L219.1,13.5 L218.3,14.5 L219.9,15.0 L221.5,14.4 L222.9,11.3 L229.3,10.2 L230.7,9.2 L235.3,8.3 L238.6,6.8 L243.0,4.0 L245.2,4.1 L242.5,5.6 L239.7,6.4 L236.2,8.5 L235.3,9.7 L238.1,10.4 L241.7,14.7 L244.0,15.9 L245.8,15.6 L248.5,11.1 L251.0,10.7 L254.3,11.0 L254.9,13.8 L256.1,14.2 L258.8,13.5 L268.8,11.6 L274.9,12.1 L277.5,10.5 L277.8,9.2 L276.6,7.9 L278.3,7.4 L279.7,7.8 L277.5,12.1 L279.4,13.6 L278.0,15.7 L277.8,19.1 L277.1,20.0 L274.7,19.7 L271.3,20.1 L270.7,20.6 L270.7,25.1 L269.6,26.2 L272.1,30.2 L274.7,32.3 L275.7,32.2 L278.7,30.6 L279.8,30.8 L282.1,36.4 L280.8,38.1 L281.7,40.1 L281.4,43.3 L282.9,47.7 L284.2,49.7 L282.7,50.9 L280.6,54.4 L277.6,55.4 L270.3,54.6 L268.3,54.7 L263.9,53.9 L260.6,55.8 L258.1,58.2 L258.9,59.1 L257.2,62.8 L259.0,63.3 L257.9,68.5 L258.2,69.7 L260.1,69.9 L260.1,72.5 L262.8,74.4 L264.3,76.2 L270.1,79.0 L273.0,78.2 L274.6,78.9 L278.0,78.7 L278.7,79.7 Z">
  <desc xmlns="http://www.highcharts.com/svg/namespace">
    <labelrank>7</labelrank>
    <hasc>CU.MA</hasc>
    <alt-name>NULL</alt-name>
    <woe-id>2345108</woe-id>
    <subregion>NULL</subregion>
    <fips>CU03</fips>
    <postal-code>MA</postal-code>
    <name>Matanzas</name>
    <country>Cuba</country>
    <type-en>Province</type-en>
    <region>NULL</region>
    <longitude>-81.18600000000001</longitude>
    <woe-name>Matanzas</woe-name>
    <latitude>22.6152</latitude>
    <woe-label>Matanzas, CU, Cuba</woe-label>
    <type>Provincia</type>
    <hc-middle-x>0.51</hc-middle-x>
    <hc-middle-y>0.54</hc-middle-y>
    <hc-key>cu-ma</hc-key>
    <hc-a2>MA</hc-a2>
  </desc>
</path>

<path fill="#CEE3F5" stroke="#6E6E6E" stroke-width="0.4" id="CU.VC" d="M337.6,27.6 L338.9,28.5 L337.3,29.3 L333.8,26.5 L335.4,25.1 L335.2,26.2 L336.9,26.6 Z M322.9,20.3 L324.4,20.8 L323.7,22.4 L322.3,21.5 L320.4,22.9 L319.9,21.3 Z M327.7,24.0 L325.8,23.1 L326.6,22.0 L325.4,21.6 L326.0,20.6 L328.3,20.4 L328.9,21.6 L327.3,22.7 Z M301.2,19.1 L302.4,20.9 L296.0,19.9 L295.0,19.1 L296.8,19.1 L299.9,17.6 L301.3,17.4 L302.4,18.1 Z M313.0,14.1 L313.7,16.1 L311.7,15.4 L311.6,13.4 Z M308.1,12.9 L306.8,13.5 L302.8,12.0 L304.1,9.6 L306.5,11.8 L308.8,12.1 Z M301.6,12.3 L298.5,10.2 L297.7,8.9 L299.2,8.4 L302.0,11.4 Z M293.1,8.0 L290.4,8.3 L288.0,9.5 L288.7,7.8 L291.6,7.6 Z M360.3,44.0 L355.4,40.8 L353.2,38.5 L352.1,38.9 L349.8,38.3 L347.7,36.7 L347.4,35.7 L345.5,34.3 L344.6,32.4 L343.4,32.0 L340.6,32.7 L340.5,31.5 L343.6,30.8 L344.7,31.3 L348.0,35.0 L349.4,36.1 L352.4,37.0 L354.8,38.9 L357.4,39.9 L358.7,41.2 Z M279.4,13.6 L281.7,17.7 L283.0,18.6 L287.6,19.6 L289.7,21.6 L294.5,21.9 L297.2,23.6 L299.4,24.2 L303.5,23.8 L307.3,22.3 L306.8,20.7 L307.8,20.6 L311.2,22.3 L314.0,22.5 L314.2,20.9 L315.6,21.7 L318.0,26.0 L320.4,27.4 L323.9,28.0 L325.9,26.0 L329.9,24.9 L330.4,25.5 L328.6,26.9 L327.2,26.2 L326.5,26.7 L325.7,29.2 L326.8,30.8 L328.1,31.3 L331.8,31.9 L336.4,35.3 L337.5,34.3 L339.5,34.5 L341.1,41.4 L342.9,42.2 L345.1,44.6 L346.6,47.7 L348.6,49.8 L352.1,50.2 L354.7,54.0 L354.7,55.7 L353.5,57.9 L354.8,59.3 L357.0,63.6 L358.9,66.0 L358.4,70.6 L355.2,69.5 L353.8,69.4 L351.9,70.3 L350.8,71.5 L349.6,74.5 L348.5,75.8 L346.9,76.2 L344.6,75.1 L343.3,75.5 L340.6,74.8 L337.8,75.7 L336.6,75.6 L334.6,73.5 L332.5,73.5 L331.8,74.1 L332.1,76.4 L333.8,79.7 L335.3,80.2 L334.9,82.4 L332.6,86.6 L331.1,88.0 L329.2,87.8 L327.5,86.9 L323.7,86.1 L322.5,86.4 L321.3,88.7 L319.6,89.0 L316.1,91.1 L316.2,90.1 L314.8,89.0 L314.4,84.9 L312.6,82.9 L311.2,78.4 L310.9,73.8 L312.1,70.0 L310.5,69.2 L309.2,67.2 L308.2,63.9 L305.7,64.1 L302.6,61.4 L301.9,59.7 L303.3,57.5 L302.2,56.2 L302.3,54.0 L301.1,53.3 L300.1,50.4 L301.2,49.0 L300.9,47.1 L300.3,47.7 L298.0,47.8 L297.1,50.1 L293.4,51.4 L292.6,51.0 L293.2,48.2 L290.7,48.0 L289.2,46.8 L288.0,46.8 L286.8,48.2 L284.2,49.7 L282.9,47.7 L281.4,43.3 L281.7,40.1 L280.8,38.1 L282.1,36.4 L279.8,30.8 L278.7,30.6 L275.7,32.2 L274.7,32.3 L272.1,30.2 L269.6,26.2 L270.7,25.1 L270.7,20.6 L271.3,20.1 L274.7,19.7 L277.1,20.0 L277.8,19.1 L278.0,15.7 Z">
  <desc xmlns="http://www.highcharts.com/svg/namespace">
    <labelrank>6</labelrank>
    <hasc>CU.VC</hasc>
    <alt-name>NULL</alt-name>
    <woe-id>2345120</woe-id>
    <subregion>NULL</subregion>
    <fips>CU16</fips>
    <postal-code>VC</postal-code>
    <name>Villa Clara</name>
    <country>Cuba</country>
    <type-en>Province</type-en>
    <region>NULL</region>
    <longitude>-79.95269999999999</longitude>
    <woe-name>Villa Clara</woe-name>
    <latitude>22.601</latitude>
    <woe-label>Villa Clara, CU, Cuba</woe-label>
    <type>Provincia</type>
    <hc-middle-x>0.61</hc-middle-x>
    <hc-middle-y>0.53</hc-middle-y>
    <hc-key>cu-vc</hc-key>
    <hc-a2>VC</hc-a2>
  </desc>
</path>

<path fill="#CEE3F5" stroke="#6E6E6E" stroke-width="0.4" id="CU.5812" d="M406.0,170.5 L406.5,171.4 L405.7,173.1 L404.8,171.4 Z M162.1,117.0 L159.7,116.4 L159.5,115.7 L161.4,115.8 Z M171.3,115.4 L167.6,116.4 L168.0,115.7 L170.0,114.9 Z M153.4,104.4 L155.2,104.7 L155.7,106.4 L154.5,105.7 L153.6,106.2 L152.8,104.9 Z M102.6,89.6 L97.4,90.0 L97.2,89.8 L100.2,88.9 Z M424.4,70.3 L423.7,68.5 L424.8,67.4 L426.1,67.2 Z M452.1,64.0 L449.3,61.0 L449.9,60.8 L451.8,62.7 Z M34.0,56.0 L37.1,57.5 L35.5,57.9 L33.0,56.8 Z M435.6,52.8 L434.8,54.6 L433.1,54.4 L434.9,52.3 Z M390.1,51.2 L391.4,51.3 L392.3,53.0 L389.4,52.0 Z M402.8,44.5 L403.9,46.0 L403.6,46.6 L402.1,45.2 L401.6,45.9 L400.1,43.9 L401.5,43.7 Z M372.8,43.8 L372.0,44.6 L370.4,43.2 L372.6,42.6 Z M348.8,40.4 L348.9,42.3 L347.5,40.8 L348.7,39.1 Z M319.7,21.1 L318.9,19.2 L320.5,19.7 L320.7,20.6 Z M316.5,14.9 L317.4,15.9 L315.3,17.9 L315.3,15.7 Z M228.6,85.4 L224.6,81.8 L228.8,85.0 L230.1,84.7 L230.0,83.0 L230.9,82.4 L232.0,84.8 L233.8,84.8 L231.3,85.7 L230.6,85.0 Z">
  <desc xmlns="http://www.highcharts.com/svg/namespace">
    <labelrank>20</labelrank>
    <hasc>-99</hasc>
    <alt-name>NULL</alt-name>
    <woe-id>-99</woe-id>
    <subregion>NULL</subregion>
    <fips>NULL</fips>
    <postal-code>NULL</postal-code>
    <name>NULL</name>
    <country>Cuba</country>
    <type-en>NULL</type-en>
    <region>NULL</region>
    <longitude>-77.8912</longitude>
    <woe-name>NULL</woe-name>
    <latitude>20.5697</latitude>
    <woe-label>NULL</woe-label>
    <type>NULL</type>
    <hc-middle-x>0.47</hc-middle-x>
    <hc-middle-y>0.44</hc-middle-y>
    <hc-key>cu-5812</hc-key>
    <hc-a2>NU</hc-a2>
  </desc>
</path>

<path fill="#CEE3F5" stroke="#6E6E6E" stroke-width="0.4" id="CU.IJ" d="M183.5,116.5 L182.1,116.5 L186.1,113.6 L188.7,112.8 L190.4,111.1 L191.0,112.8 L189.9,113.7 Z M197.6,111.7 L195.6,113.3 L194.4,113.3 L196.4,111.0 L199.6,109.8 Z M150.7,91.9 L148.9,91.9 L147.1,91.1 L146.5,89.9 L148.0,89.6 L151.4,91.5 Z M225.8,108.7 L229.2,106.3 L229.8,107.0 L226.7,109.8 L221.6,113.2 L219.6,114.1 L217.5,114.3 L218.1,112.6 L219.8,112.9 L221.8,110.6 L223.4,111.2 L225.1,110.4 Z M150.1,102.3 L151.2,105.1 L150.1,107.2 L149.6,109.6 L152.7,111.0 L152.2,112.3 L154.4,114.4 L152.4,116.8 L150.9,118.0 L148.5,118.7 L140.3,122.8 L135.3,124.5 L130.8,125.0 L129.4,124.0 L125.2,123.9 L122.6,122.9 L119.7,122.6 L117.6,119.8 L115.1,117.8 L113.8,115.7 L112.6,111.5 L116.9,114.6 L118.3,116.4 L120.6,117.2 L123.3,117.2 L126.9,114.3 L127.7,115.0 L127.5,116.4 L128.7,114.2 L128.4,113.4 L125.7,112.4 L120.3,102.6 L119.6,99.9 L120.3,96.9 L123.0,94.8 L123.9,93.2 L127.8,91.4 L124.9,90.5 L125.9,89.7 L134.2,90.9 L143.0,93.3 L145.0,94.6 L145.4,95.6 L144.8,98.5 L148.6,102.0 Z">
  <desc xmlns="http://www.highcharts.com/svg/namespace">
    <labelrank>6</labelrank>
    <hasc>CU.IJ</hasc>
    <alt-name>NULL</alt-name>
    <woe-id>2345109</woe-id>
    <subregion>NULL</subregion>
    <fips>CU04</fips>
    <postal-code>IJ</postal-code>
    <name>Isla de la Juventud</name>
    <country>Cuba</country>
    <type-en>Special Municipality</type-en>
    <region>NULL</region>
    <longitude>-82.81480000000001</longitude>
    <woe-name>Isla de la Juventud</woe-name>
    <latitude>21.6754</latitude>
    <woe-label>Isla de la Juventud, CU, Cuba</woe-label>
    <type>Municipio Especial</type>
    <hc-middle-x>0.20</hc-middle-x>
    <hc-middle-y>0.43</hc-middle-y>
    <hc-key>cu-ij</hc-key>
    <hc-a2>IJ</hc-a2>
  </desc>
</path>

<path fill="#CEE3F5" stroke="#6E6E6E" stroke-width="0.4" id="CU.SS" d="M368.0,43.4 L367.6,43.4 L367.4,42.1 L369.9,42.0 Z M383.7,41.5 L382.2,42.3 L380.9,41.0 L377.1,40.8 L376.7,39.9 L382.7,40.2 Z M311.2,98.9 L311.4,95.7 L316.1,91.1 L319.6,89.0 L321.3,88.7 L322.5,86.4 L323.7,86.1 L327.5,86.9 L329.2,87.8 L331.1,88.0 L332.6,86.6 L334.9,82.4 L335.3,80.2 L333.8,79.7 L332.1,76.4 L331.8,74.1 L332.5,73.5 L334.6,73.5 L336.6,75.6 L337.8,75.7 L340.6,74.8 L343.3,75.5 L344.6,75.1 L346.9,76.2 L348.5,75.8 L349.6,74.5 L350.8,71.5 L351.9,70.3 L353.8,69.4 L355.2,69.5 L358.4,70.6 L358.9,66.0 L357.0,63.6 L354.8,59.3 L353.5,57.9 L354.7,55.7 L354.7,54.0 L359.5,58.0 L361.4,58.9 L363.1,58.6 L366.2,60.5 L367.4,59.6 L371.9,60.3 L372.9,59.1 L376.1,59.9 L379.8,58.7 L382.5,58.3 L386.1,58.7 L385.7,61.8 L384.6,62.8 L383.1,67.2 L379.4,74.1 L379.5,76.0 L378.6,78.2 L378.7,79.6 L381.7,82.1 L384.0,83.1 L384.3,85.9 L381.9,90.2 L380.0,89.9 L376.6,96.7 L376.0,99.4 L374.2,103.5 L375.7,106.2 L375.1,109.3 L375.6,110.1 L377.4,110.1 L379.3,109.2 L380.9,105.8 L383.9,107.5 L384.7,113.7 L383.6,113.5 L381.3,114.4 L377.3,114.7 L373.9,116.4 L371.3,117.2 L366.1,117.2 L360.9,115.8 L358.7,114.0 L353.2,114.3 L350.5,113.0 L349.0,110.7 L347.4,112.6 L345.8,111.5 L342.1,110.2 L341.0,108.1 L335.6,107.8 L331.2,106.6 L329.6,106.6 L328.5,108.9 L324.5,107.5 L325.8,106.5 L324.8,105.9 L324.5,103.3 L322.2,104.4 L319.6,104.2 L317.5,103.6 L316.8,104.2 L318.3,105.2 L317.5,106.0 L316.4,105.5 L314.8,103.1 L314.2,100.3 L313.4,99.4 Z">
  <desc xmlns="http://www.highcharts.com/svg/namespace">
    <labelrank>7</labelrank>
    <hasc>CU.SS</hasc>
    <alt-name>NULL</alt-name>
    <woe-id>2345118</woe-id>
    <subregion>NULL</subregion>
    <fips>CU14</fips>
    <postal-code>SS</postal-code>
    <name>Sancti Spíritus</name>
    <country>Cuba</country>
    <type-en>Province</type-en>
    <region>NULL</region>
    <longitude>-79.3804</longitude>
    <woe-name>Sancti Spíritus</woe-name>
    <latitude>21.9618</latitude>
    <woe-label>Sancti Spiritus, CU, Cuba</woe-label>
    <type>Provincia</type>
    <hc-middle-x>0.55</hc-middle-x>
    <hc-middle-y>0.68</hc-middle-y>
    <hc-key>cu-ss</hc-key>
    <hc-a2>SS</hc-a2>
  </desc>
</path>

<path fill="#CEE3F5" stroke="#6E6E6E" stroke-width="0.4" id="CU.CA" d="M399.0,173.6 L397.9,174.6 L396.3,174.1 L394.1,171.8 L395.3,171.5 Z M387.6,167.2 L387.6,168.1 L390.8,168.0 L392.0,168.7 L392.7,170.5 L391.2,169.7 L386.6,169.2 L385.1,167.7 L386.5,166.0 Z M383.9,165.7 L381.6,165.0 L377.6,162.1 L379.6,162.0 L381.9,163.1 L384.6,163.7 Z M361.1,147.4 L363.7,150.1 L362.7,150.5 L359.7,149.6 L361.5,149.6 L357.4,146.8 L359.5,146.5 Z M398.6,48.7 L398.0,49.9 L396.3,50.3 L396.1,48.7 Z M375.3,159.8 L373.0,156.7 L371.4,155.3 L369.9,155.2 L370.4,156.6 L368.2,154.7 L370.9,154.6 L373.8,156.3 L378.0,160.7 L376.6,160.7 L377.1,162.1 L375.3,161.2 L371.8,157.5 L372.9,157.4 Z M418.9,53.4 L416.8,54.4 L412.2,54.6 L408.9,53.0 L404.4,52.0 L403.3,51.3 L404.2,50.5 L403.2,49.4 L400.9,51.0 L400.7,48.7 L401.5,49.1 L401.7,47.8 L404.2,47.8 L407.0,48.3 L408.6,49.3 L415.4,49.2 L418.4,47.0 L421.4,47.5 L422.7,48.2 L422.9,49.7 L427.3,54.0 L427.3,55.3 L425.8,54.9 L417.9,56.8 L418.5,55.0 L419.6,55.0 Z M386.1,58.7 L392.4,59.3 L395.4,59.1 L397.0,63.8 L398.5,64.2 L400.0,61.4 L398.2,59.1 L400.1,59.3 L402.2,61.3 L409.2,63.7 L412.0,66.3 L414.6,67.8 L420.0,68.8 L421.2,68.6 L421.2,70.5 L422.1,70.0 L423.2,72.0 L426.4,74.2 L428.3,74.2 L431.5,75.3 L435.3,75.8 L435.8,77.8 L438.0,77.9 L438.3,78.9 L440.6,79.5 L441.3,81.1 L441.1,82.6 L438.9,84.0 L435.0,87.5 L430.6,88.6 L429.9,90.6 L430.3,91.8 L434.8,95.7 L436.2,97.9 L434.4,99.0 L434.5,101.2 L431.6,101.8 L430.1,101.5 L428.4,99.4 L428.0,97.9 L426.3,98.4 L424.8,100.4 L425.4,104.1 L423.1,106.9 L423.9,108.0 L418.8,108.4 L416.9,112.8 L415.6,111.8 L412.3,113.3 L410.9,114.7 L407.6,116.9 L405.3,117.9 L402.7,116.4 L399.3,115.9 L398.2,115.2 L398.6,114.2 L400.1,114.8 L402.1,114.4 L401.0,112.6 L398.5,111.0 L397.1,110.8 L392.9,112.2 L389.9,112.5 L388.6,113.9 L384.7,113.7 L383.9,107.5 L380.9,105.8 L379.3,109.2 L377.4,110.1 L375.6,110.1 L375.1,109.3 L375.7,106.2 L374.2,103.5 L376.0,99.4 L376.6,96.7 L380.0,89.9 L381.9,90.2 L384.3,85.9 L384.0,83.1 L381.7,82.1 L378.7,79.6 L378.6,78.2 L379.5,76.0 L379.4,74.1 L383.1,67.2 L384.6,62.8 L385.7,61.8 Z">
  <desc xmlns="http://www.highcharts.com/svg/namespace">
    <labelrank>7</labelrank>
    <hasc>CU.CA</hasc>
    <alt-name>NULL</alt-name>
    <woe-id>2345111</woe-id>
    <subregion>NULL</subregion>
    <fips>CU05</fips>
    <postal-code>CA</postal-code>
    <name>Ciego de Ávila</name>
    <country>Cuba</country>
    <type-en>Province</type-en>
    <region>NULL</region>
    <longitude>-78.6388</longitude>
    <woe-name>Ciego de Ávila</woe-name>
    <latitude>21.9626</latitude>
    <woe-label>Ciego de Avila, CU, Cuba</woe-label>
    <type>Provincia</type>
    <hc-middle-x>0.57</hc-middle-x>
    <hc-middle-y>0.35</hc-middle-y>
    <hc-key>cu-ca</hc-key>
    <hc-a2>CA</hc-a2>
  </desc>
</path>

<path fill="#CEE3F5" stroke="#6E6E6E" stroke-width="0.4" id="CU.CM" d="M416.6,173.1 L419.4,173.3 L418.6,174.3 L415.5,175.1 L414.5,175.8 L412.3,174.9 Z M493.1,153.4 L490.3,152.4 L488.9,154.4 L488.2,153.8 L488.4,151.7 L485.3,151.2 L483.6,148.0 L481.6,149.6 L481.8,150.9 L480.9,153.0 L477.9,153.3 L477.5,154.6 L474.7,155.5 L474.0,157.7 L472.1,157.5 L470.9,156.0 L469.6,156.3 L469.5,160.6 L468.0,161.4 L464.1,162.3 L462.6,162.2 L459.3,167.0 L458.6,172.6 L455.5,172.3 L454.1,172.6 L451.4,174.7 L447.2,174.9 L445.0,174.4 L444.3,172.9 L443.4,173.9 L441.2,171.4 L439.0,170.8 L437.1,167.9 L433.8,165.3 L432.1,165.7 L431.7,164.2 L429.8,161.1 L425.2,157.8 L422.0,157.8 L421.2,157.3 L419.5,154.5 L415.2,151.2 L414.5,144.4 L412.2,138.6 L412.6,136.6 L414.5,136.9 L414.3,135.3 L411.7,134.1 L410.5,128.2 L409.2,126.1 L408.5,122.8 L407.5,120.7 L405.3,117.9 L407.6,116.9 L410.9,114.7 L412.3,113.3 L415.6,111.8 L416.9,112.8 L418.8,108.4 L423.9,108.0 L423.1,106.9 L425.4,104.1 L424.8,100.4 L426.3,98.4 L428.0,97.9 L428.4,99.4 L430.1,101.5 L431.6,101.8 L434.5,101.2 L434.4,99.0 L436.2,97.9 L434.8,95.7 L430.3,91.8 L429.9,90.6 L430.6,88.6 L435.0,87.5 L438.9,84.0 L441.1,82.6 L441.3,81.1 L440.6,79.5 L441.7,79.2 L443.2,81.7 L444.8,83.3 L446.9,87.2 L448.5,88.0 L451.5,90.9 L452.9,93.5 L454.4,93.1 L454.6,88.0 L455.7,87.0 L458.4,87.2 L455.8,88.4 L455.5,90.2 L456.2,91.8 L458.1,93.4 L459.7,93.4 L460.9,94.9 L461.6,97.7 L465.2,99.3 L466.2,98.8 L467.8,99.8 L471.7,99.1 L473.9,99.7 L476.8,101.4 L477.3,100.0 L479.0,99.5 L479.5,100.5 L481.2,99.8 L483.5,101.8 L481.5,101.6 L481.5,104.0 L483.1,107.9 L485.9,108.4 L487.4,109.2 L489.1,108.3 L488.0,106.3 L485.6,104.7 L484.1,100.6 L482.1,99.7 L481.0,97.5 L479.9,98.1 L478.9,97.2 L478.1,98.0 L472.9,93.3 L472.2,92.3 L470.9,92.6 L472.4,90.1 L474.6,89.5 L476.8,91.3 L477.8,93.9 L484.7,98.7 L489.3,100.3 L493.4,103.6 L498.2,106.6 L500.0,107.4 L502.1,107.0 L501.7,108.3 L503.1,110.3 L502.9,111.7 L501.0,114.6 L499.0,112.8 L494.8,111.0 L492.5,110.6 L491.9,111.5 L489.4,110.1 L487.9,110.3 L487.6,111.7 L491.4,113.6 L494.5,113.9 L494.4,116.2 L493.1,117.3 L494.5,120.2 L497.6,120.1 L497.2,121.3 L500.0,119.8 L501.2,118.7 L501.9,115.0 L504.0,111.2 L506.4,111.6 L513.5,119.9 L514.7,120.9 L511.2,123.5 L508.7,124.4 L504.7,124.0 L502.8,129.4 L503.8,131.1 L506.2,131.0 L506.7,131.6 L503.1,135.1 L502.8,136.4 L503.1,140.8 L500.9,144.8 L499.7,146.0 L495.7,147.5 L494.8,148.8 Z M419.7,181.3 L422.9,184.5 L424.0,185.0 L424.8,183.7 L426.2,185.0 L426.7,186.3 L425.9,187.5 L422.1,185.6 L421.3,183.8 L417.7,181.8 Z M469.9,83.5 L468.5,86.7 L469.5,88.4 L467.8,88.8 L466.4,89.9 L466.7,88.6 L465.6,88.3 L464.8,90.8 L462.8,87.7 L461.9,87.1 L459.7,87.3 L457.4,86.1 L458.0,83.2 L455.7,82.1 L454.3,84.1 L452.2,84.0 L451.2,82.1 L449.2,80.1 L450.3,78.0 L453.0,79.8 L454.1,79.8 L456.1,78.3 L458.1,78.0 L460.5,79.9 L462.7,79.1 L466.2,81.0 L468.2,79.8 L469.9,81.7 Z M458.1,69.2 L461.2,72.5 L459.7,72.6 L458.0,70.9 L455.4,67.0 L455.8,66.1 L453.2,63.7 L454.7,63.4 L457.2,66.2 Z M454.6,78.1 L453.8,77.4 L452.5,77.9 L451.3,75.2 L450.0,74.7 L448.9,75.3 L449.5,77.0 L445.9,75.0 L445.5,74.0 L443.4,72.6 L442.7,71.5 L444.6,70.2 L445.3,67.9 L445.3,65.4 L444.4,63.5 L446.3,63.9 L447.5,65.5 L446.0,67.7 L446.4,68.8 L449.3,69.0 L450.6,70.8 L451.9,69.0 L454.7,70.5 L451.9,71.8 L454.2,73.2 L456.9,74.0 Z M442.3,66.5 L439.1,64.5 L434.5,64.0 L432.9,62.7 L434.2,61.8 L432.3,60.1 L431.3,62.0 L429.9,61.6 L430.7,59.2 L429.6,57.9 L428.1,57.2 L426.7,58.2 L425.4,57.7 L426.3,56.6 L429.8,56.2 L432.7,55.3 L433.2,56.1 L434.5,55.4 L436.1,55.8 L439.0,58.0 L440.6,60.9 L441.2,63.9 L442.6,65.4 L444.9,65.8 L443.8,66.9 Z">
  <desc xmlns="http://www.highcharts.com/svg/namespace">
    <labelrank>7</labelrank>
    <hasc>CU.CM</hasc>
    <alt-name>Puerto Principe</alt-name>
    <woe-id>2345110</woe-id>
    <subregion>NULL</subregion>
    <fips>CU05</fips>
    <postal-code>CM</postal-code>
    <name>Camagüey</name>
    <country>Cuba</country>
    <type-en>Province</type-en>
    <region>NULL</region>
    <longitude>-77.93040000000001</longitude>
    <woe-name>Camagüey</woe-name>
    <latitude>21.3675</latitude>
    <woe-label>Camaguey, CU, Cuba</woe-label>
    <type>Provincia</type>
    <hc-middle-x>0.42</hc-middle-x>
    <hc-middle-y>0.55</hc-middle-y>
    <hc-key>cu-cm</hc-key>
    <hc-a2>CM</hc-a2>
  </desc>
</path>

<path fill="#CEE3F5" stroke="#6E6E6E" stroke-width="0.4" id="CU.CH" d="M162.1,20.8 L161.5,18.5 L158.5,17.2 L157.9,16.4 L159.7,14.5 L159.0,13.0 L156.9,13.7 L155.6,12.7 L157.8,11.8 L158.7,10.6 L160.1,10.3 L164.0,7.7 L166.6,7.3 L169.5,6.1 L174.0,5.4 L176.0,4.6 L180.4,5.7 L183.6,5.1 L183.7,6.5 L185.1,8.4 L184.0,9.0 L184.1,10.3 L182.8,13.3 L180.6,10.7 L179.2,10.4 L177.7,12.5 L176.9,11.4 L176.3,13.7 L177.0,16.0 L173.9,19.8 L172.0,19.9 L167.2,19.5 L165.5,21.2 L163.6,20.2 Z">
  <desc xmlns="http://www.highcharts.com/svg/namespace">
    <labelrank>9</labelrank>
    <hasc>CU.CH</hasc>
    <alt-name>NULL</alt-name>
    <woe-id>2345107</woe-id>
    <subregion>NULL</subregion>
    <fips>CU02</fips>
    <postal-code>CH</postal-code>
    <name>Ciudad de la Habana</name>
    <country>Cuba</country>
    <type-en>Province</type-en>
    <region>NULL</region>
    <longitude>-82.30750000000001</longitude>
    <woe-name>Ciudad de la Habana</woe-name>
    <latitude>23.0737</latitude>
    <woe-label>Ciudad de la Habana, CU, Cuba</woe-label>
    <type>Provincia</type>
    <hc-middle-x>0.43</hc-middle-x>
    <hc-middle-y>0.55</hc-middle-y>
    <hc-key>cu-ch</hc-key>
    <hc-a2>CH</hc-a2>
  </desc>
</path>

<path fill="#CEE3F5" stroke="#6E6E6E" stroke-width="0.4" id="CU.CF" d="M316.1,91.1 L311.4,95.7 L311.2,98.9 L305.6,97.3 L303.7,95.7 L300.4,94.7 L298.4,93.0 L291.3,85.5 L290.9,84.1 L289.6,84.1 L288.7,82.3 L290.7,82.4 L292.2,80.0 L290.3,79.4 L290.4,78.5 L288.3,78.0 L289.2,76.1 L286.5,73.8 L285.3,74.7 L283.4,74.2 L283.1,75.7 L285.6,78.0 L287.4,80.8 L287.8,82.5 L287.4,84.1 L284.7,83.1 L279.6,83.3 L278.7,79.7 L278.0,78.7 L274.6,78.9 L273.0,78.2 L270.1,79.0 L264.3,76.2 L262.8,74.4 L260.1,72.5 L260.1,69.9 L258.2,69.7 L257.9,68.5 L259.0,63.3 L257.2,62.8 L258.9,59.1 L258.1,58.2 L260.6,55.8 L263.9,53.9 L268.3,54.7 L270.3,54.6 L277.6,55.4 L280.6,54.4 L282.7,50.9 L284.2,49.7 L286.8,48.2 L288.0,46.8 L289.2,46.8 L290.7,48.0 L293.2,48.2 L292.6,51.0 L293.4,51.4 L297.1,50.1 L298.0,47.8 L300.3,47.7 L300.9,47.1 L301.2,49.0 L300.1,50.4 L301.1,53.3 L302.3,54.0 L302.2,56.2 L303.3,57.5 L301.9,59.7 L302.6,61.4 L305.7,64.1 L308.2,63.9 L309.2,67.2 L310.5,69.2 L312.1,70.0 L310.9,73.8 L311.2,78.4 L312.6,82.9 L314.4,84.9 L314.8,89.0 L316.2,90.1 Z">
  <desc xmlns="http://www.highcharts.com/svg/namespace">
    <labelrank>7</labelrank>
    <hasc>CU.CF</hasc>
    <alt-name>NULL</alt-name>
    <woe-id>2345112</woe-id>
    <subregion>NULL</subregion>
    <fips>CU08</fips>
    <postal-code>CF</postal-code>
    <name>Cienfuegos</name>
    <country>Cuba</country>
    <type-en>Province</type-en>
    <region>NULL</region>
    <longitude>-80.48309999999999</longitude>
    <woe-name>Cienfuegos</woe-name>
    <latitude>22.3253</latitude>
    <woe-label>Cienfuegos, CU, Cuba</woe-label>
    <type>Provincia</type>
    <hc-middle-x>0.42</hc-middle-x>
    <hc-middle-y>0.41</hc-middle-y>
    <hc-key>cu-cf</hc-key>
    <hc-a2>CF</hc-a2>
  </desc>
</path>

<path fill="#CEE3F5" stroke="#6E6E6E" stroke-width="0.4" id="CU.GU" d="M658.5,179.7 L661.1,178.4 L663.8,179.4 L664.1,180.3 L668.4,183.0 L671.9,187.8 L676.0,191.8 L678.9,192.5 L682.2,194.8 L682.8,196.2 L684.1,195.2 L688.2,195.5 L691.6,193.6 L694.4,194.1 L698.1,196.5 L699.5,198.6 L700.0,201.2 L699.5,202.7 L696.8,204.2 L693.9,206.6 L693.6,209.1 L691.6,211.0 L689.2,211.0 L686.4,210.4 L683.4,210.4 L679.3,211.4 L676.5,211.8 L671.2,213.2 L668.7,212.8 L666.7,213.8 L662.6,213.3 L656.1,214.5 L654.5,215.3 L651.3,218.4 L647.5,219.1 L645.6,222.8 L643.5,223.7 L641.2,224.0 L640.0,223.1 L639.9,224.2 L638.0,224.8 L637.8,219.7 L635.1,219.8 L637.3,218.3 L638.4,215.9 L637.8,213.5 L636.5,213.8 L635.0,216.4 L632.8,216.2 L632.6,218.4 L634.4,219.0 L632.4,220.0 L629.2,222.4 L629.0,225.0 L625.7,225.9 L619.3,226.5 L615.2,221.1 L613.3,219.4 L612.1,216.9 L611.9,214.4 L615.5,212.0 L615.5,210.4 L614.4,210.0 L614.2,207.4 L612.5,204.6 L612.1,202.2 L613.1,200.5 L612.9,197.1 L611.9,195.1 L614.6,193.2 L615.8,190.2 L617.0,190.6 L618.5,189.2 L621.3,188.1 L624.3,190.4 L625.8,189.7 L627.3,190.7 L628.0,187.5 L630.4,185.4 L632.5,185.8 L635.9,184.4 L639.7,187.7 L641.8,187.8 L644.3,189.0 L642.8,187.2 L642.6,185.4 L644.8,184.9 L653.0,189.0 L654.4,187.5 L657.0,186.3 L656.3,184.5 L657.0,181.4 Z">
  <desc xmlns="http://www.highcharts.com/svg/namespace">
    <labelrank>7</labelrank>
    <hasc>CU.GU</hasc>
    <alt-name>NULL</alt-name>
    <woe-id>2345114</woe-id>
    <subregion>NULL</subregion>
    <fips>CU10</fips>
    <postal-code>GU</postal-code>
    <name>Guantánamo</name>
    <country>Cuba</country>
    <type-en>Province</type-en>
    <region>NULL</region>
    <longitude>-74.8112</longitude>
    <woe-name>Guantánamo</woe-name>
    <latitude>20.2358</latitude>
    <woe-label>Guantanamo, CU, Cuba</woe-label>
    <type>Provincia</type>
    <hc-middle-x>0.38</hc-middle-x>
    <hc-middle-y>0.49</hc-middle-y>
    <hc-key>cu-gu</hc-key>
    <hc-a2>GU</hc-a2>
  </desc>
</path>

<path fill="#CEE3F5" stroke="#6E6E6E" stroke-width="0.4" id="CU.GR" d="M511.5,229.2 L506.4,229.2 L501.4,227.7 L500.6,228.4 L498.9,227.9 L497.9,228.9 L494.3,228.3 L492.7,228.8 L491.7,230.0 L493.4,230.0 L490.5,231.3 L483.2,231.8 L479.1,232.9 L474.0,233.0 L470.0,234.2 L467.0,233.7 L465.8,232.4 L465.9,231.1 L467.1,228.2 L468.4,227.9 L470.2,226.2 L470.0,225.5 L471.5,223.8 L473.2,220.9 L476.2,218.1 L475.2,216.6 L477.6,216.7 L479.5,215.7 L481.1,213.2 L484.9,210.9 L487.2,208.4 L493.7,205.2 L495.9,204.4 L496.8,201.9 L498.6,201.1 L498.6,202.3 L501.3,201.4 L502.5,198.4 L505.6,196.2 L505.8,192.9 L506.7,192.0 L507.5,189.5 L505.4,186.3 L503.0,184.6 L500.0,183.7 L500.0,184.9 L497.1,183.0 L497.0,181.0 L498.6,180.3 L499.9,177.9 L496.2,176.2 L495.8,177.5 L492.0,173.1 L490.6,172.6 L492.2,171.6 L494.0,168.0 L494.7,169.0 L497.3,167.8 L499.2,169.0 L505.6,169.0 L509.9,170.6 L514.2,169.5 L516.9,169.9 L523.0,170.0 L524.6,170.7 L525.8,173.2 L530.4,171.2 L531.9,172.4 L533.1,171.8 L534.2,172.9 L536.6,173.8 L540.3,172.7 L540.8,176.5 L544.7,177.7 L549.0,179.8 L553.7,181.3 L553.4,182.8 L561.2,184.8 L564.5,187.4 L566.2,189.9 L564.5,192.2 L562.9,192.7 L562.2,189.5 L560.2,188.5 L560.4,191.4 L558.9,194.7 L554.9,194.6 L554.0,195.8 L552.8,201.4 L552.9,202.6 L551.0,204.5 L551.5,207.4 L551.9,213.2 L549.5,216.3 L545.7,218.1 L542.4,217.8 L542.1,220.5 L539.3,219.8 L538.8,220.6 L535.2,220.9 L532.8,220.1 L531.8,219.1 L529.0,220.3 L526.5,218.5 L524.4,220.3 L522.8,220.8 L518.1,221.2 L515.7,224.6 L511.2,225.5 L510.6,226.1 Z">
  <desc xmlns="http://www.highcharts.com/svg/namespace">
    <labelrank>6</labelrank>
    <hasc>CU.GR</hasc>
    <alt-name>NULL</alt-name>
    <woe-id>2345113</woe-id>
    <subregion>NULL</subregion>
    <fips>CU09</fips>
    <postal-code>GR</postal-code>
    <name>Granma</name>
    <country>Cuba</country>
    <type-en>Province</type-en>
    <region>NULL</region>
    <longitude>-76.8386</longitude>
    <woe-name>Granma</woe-name>
    <latitude>20.3212</latitude>
    <woe-label>Granma, CU, Cuba</woe-label>
    <type>Provincia</type>
    <hc-middle-x>0.58</hc-middle-x>
    <hc-middle-y>0.53</hc-middle-y>
    <hc-key>cu-gr</hc-key>
    <hc-a2>GR</hc-a2>
  </desc>
</path>

<path fill="#CEE3F5" stroke="#6E6E6E" stroke-width="0.4" id="CU.LT" d="M530.4,171.2 L525.8,173.2 L524.6,170.7 L523.0,170.0 L516.9,169.9 L514.2,169.5 L509.9,170.6 L505.6,169.0 L499.2,169.0 L497.3,167.8 L494.7,169.0 L494.0,168.0 L492.2,171.6 L490.6,172.6 L488.3,172.7 L480.5,175.5 L478.6,175.4 L475.3,174.2 L472.3,175.7 L470.4,174.7 L468.5,174.8 L466.3,174.2 L462.0,174.3 L458.6,172.6 L459.3,167.0 L462.6,162.2 L464.1,162.3 L468.0,161.4 L469.5,160.6 L469.6,156.3 L470.9,156.0 L472.1,157.5 L474.0,157.7 L474.7,155.5 L477.5,154.6 L477.9,153.3 L480.9,153.0 L481.8,150.9 L481.6,149.6 L483.6,148.0 L485.3,151.2 L488.4,151.7 L488.2,153.8 L488.9,154.4 L490.3,152.4 L492.5,153.6 L493.1,153.4 L494.8,148.8 L495.7,147.5 L499.7,146.0 L500.9,144.8 L503.1,140.8 L502.8,136.4 L503.1,135.1 L506.7,131.6 L506.2,131.0 L503.8,131.1 L502.8,129.4 L504.7,124.0 L508.7,124.4 L511.2,123.5 L514.7,120.9 L518.0,122.6 L521.6,123.3 L522.0,124.9 L523.4,124.9 L522.5,127.0 L519.5,127.5 L517.9,128.5 L517.7,129.5 L518.7,131.2 L521.9,129.4 L522.4,130.6 L523.8,125.4 L527.8,126.6 L533.5,127.9 L534.8,129.8 L529.7,132.3 L530.0,131.2 L528.7,130.6 L528.6,132.4 L531.8,133.4 L533.9,134.6 L536.5,134.9 L534.6,133.7 L533.8,131.7 L536.1,131.1 L537.7,131.5 L540.4,133.4 L539.9,135.6 L536.5,135.9 L537.8,136.3 L537.5,137.7 L539.6,137.2 L541.5,139.0 L542.9,137.6 L544.1,137.5 L546.7,136.1 L542.7,135.2 L541.7,133.2 L543.2,131.9 L551.0,131.9 L555.8,134.0 L555.6,138.0 L554.3,140.1 L554.1,142.6 L548.2,146.3 L544.1,150.0 L543.2,153.0 L540.4,153.4 L537.0,155.0 L535.1,155.3 L533.0,154.0 L532.3,156.4 L532.5,161.3 L532.2,162.9 L531.0,164.5 L530.4,167.5 L531.6,169.1 L531.7,170.5 Z">
  <desc xmlns="http://www.highcharts.com/svg/namespace">
    <labelrank>7</labelrank>
    <hasc>CU.LT</hasc>
    <alt-name>NULL</alt-name>
    <woe-id>2345117</woe-id>
    <subregion>NULL</subregion>
    <fips>CU13</fips>
    <postal-code>LT</postal-code>
    <name>Las Tunas</name>
    <country>Cuba</country>
    <type-en>Province</type-en>
    <region>NULL</region>
    <longitude>-77.0723</longitude>
    <woe-name>Las Tunas</woe-name>
    <latitude>21.0299</latitude>
    <woe-label>Las Tunas, CU, Cuba</woe-label>
    <type>Provincia</type>
    <hc-middle-x>0.61</hc-middle-x>
    <hc-middle-y>0.56</hc-middle-y>
    <hc-key>cu-lt</hc-key>
    <hc-a2>LT</hc-a2>
  </desc>
</path>

<path fill="#CEE3F5" stroke="#6E6E6E" stroke-width="0.4" id="CU.SC" d="M618.5,189.2 L617.0,190.6 L615.8,190.2 L614.6,193.2 L611.9,195.1 L612.9,197.1 L613.1,200.5 L612.1,202.2 L612.5,204.6 L614.2,207.4 L614.4,210.0 L615.5,210.4 L615.5,212.0 L611.9,214.4 L612.1,216.9 L613.3,219.4 L615.2,221.1 L619.3,226.5 L615.2,225.7 L614.1,226.7 L610.3,227.0 L606.9,225.9 L604.8,226.3 L597.0,222.0 L590.9,222.2 L585.7,221.4 L583.2,221.8 L580.1,222.9 L571.5,221.1 L565.6,220.6 L562.6,220.8 L557.4,222.4 L555.0,222.8 L550.2,222.9 L544.7,224.5 L536.4,224.2 L528.0,225.2 L526.6,225.9 L522.4,225.5 L519.4,227.7 L516.5,228.9 L511.5,229.2 L510.6,226.1 L511.2,225.5 L515.7,224.6 L518.1,221.2 L522.8,220.8 L524.4,220.3 L526.5,218.5 L529.0,220.3 L531.8,219.1 L532.8,220.1 L535.2,220.9 L538.8,220.6 L539.3,219.8 L542.1,220.5 L542.4,217.8 L545.7,218.1 L549.5,216.3 L551.9,213.2 L551.5,207.4 L551.0,204.5 L552.9,202.6 L552.8,201.4 L554.0,195.8 L554.9,194.6 L558.9,194.7 L560.4,191.4 L560.2,188.5 L562.2,189.5 L562.9,192.7 L564.5,192.2 L566.2,189.9 L570.9,190.2 L570.7,192.3 L572.0,190.9 L572.5,187.8 L571.6,185.4 L574.8,183.2 L574.2,180.7 L575.4,180.6 L578.6,182.8 L579.7,184.9 L582.2,185.2 L581.6,186.7 L584.3,188.6 L585.4,188.8 L586.1,190.6 L589.3,191.2 L593.9,188.9 L600.0,188.5 L602.8,186.5 L603.1,183.6 L604.8,184.4 L608.0,181.4 L610.0,180.7 L612.2,181.8 L617.1,180.6 L617.1,183.0 L615.1,185.3 Z">
  <desc xmlns="http://www.highcharts.com/svg/namespace">
    <labelrank>7</labelrank>
    <hasc>CU.SC</hasc>
    <alt-name>NULL</alt-name>
    <woe-id>2345119</woe-id>
    <subregion>NULL</subregion>
    <fips>CU15</fips>
    <postal-code>SC</postal-code>
    <name>Santiago de Cuba</name>
    <country>Cuba</country>
    <type-en>Province</type-en>
    <region>NULL</region>
    <longitude>-76.21169999999999</longitude>
    <woe-name>Santiago de Cuba</woe-name>
    <latitude>20.1959</latitude>
    <woe-label>Santiago de Cuba, CU, Cuba</woe-label>
    <type>Provincia</type>
    <hc-middle-x>0.65</hc-middle-x>
    <hc-middle-y>0.49</hc-middle-y>
    <hc-key>cu-sc</hc-key>
    <hc-a2>SC</hc-a2>
  </desc>
</path>

<path fill="#CEE3F5" stroke="#6E6E6E" stroke-width="0.4" id="CU.MQ" d="M212.0,47.4 L210.6,47.2 L205.4,43.0 L197.5,40.1 L190.2,40.6 L183.4,41.7 L181.3,40.8 L177.0,39.6 L172.2,39.5 L168.1,40.0 L164.7,39.3 L164.7,37.0 L163.1,35.9 L160.6,31.4 L160.6,28.9 L161.9,25.0 L162.1,20.8 L163.6,20.2 L165.5,21.2 L167.2,19.5 L172.0,19.9 L173.9,19.8 L177.0,16.0 L176.3,13.7 L176.9,11.4 L177.7,12.5 L179.2,10.4 L180.6,10.7 L182.8,13.3 L184.1,10.3 L184.0,9.0 L185.1,8.4 L183.7,6.5 L183.6,5.1 L187.8,4.2 L190.8,6.3 L192.7,6.8 L198.7,7.7 L200.1,7.3 L210.0,7.4 L209.3,8.8 L210.2,13.7 L208.7,13.5 L208.1,14.7 L209.0,15.8 L206.3,18.1 L205.9,19.0 L208.4,20.5 L210.1,22.9 L210.0,25.9 L209.2,28.4 L210.2,30.3 L212.0,31.8 L211.6,34.4 L211.9,36.1 L215.3,38.5 L215.5,39.5 L214.6,44.0 Z">
  <desc xmlns="http://www.highcharts.com/svg/namespace">
    <labelrank>7</labelrank>
    <hasc>CU.MQ</hasc>
    <alt-name>NULL</alt-name>
    <woe-id>-2345115</woe-id>
    <subregion>NULL</subregion>
    <fips>CU18</fips>
    <postal-code>MQ</postal-code>
    <name>Mayabeque</name>
    <country>Cuba</country>
    <type-en>Province</type-en>
    <region>NULL</region>
    <longitude>-82.0296</longitude>
    <woe-name>NULL</woe-name>
    <latitude>22.8761</latitude>
    <woe-label>NULL</woe-label>
    <type>Provincia</type>
    <hc-middle-x>0.48</hc-middle-x>
    <hc-middle-y>0.42</hc-middle-y>
    <hc-key>cu-mq</hc-key>
    <hc-a2>MQ</hc-a2>
  </desc>
</path>

<path fill="#CEE3F5" stroke="#6E6E6E" stroke-width="0.4" id="CU.PR" d="M137.0,44.3 L135.4,44.8 L130.8,48.5 L128.3,48.9 L124.0,51.1 L121.9,52.5 L120.2,54.3 L116.4,61.2 L114.9,62.7 L112.8,62.9 L110.7,62.3 L108.9,62.4 L108.8,63.8 L107.2,63.7 L107.1,65.2 L104.8,66.6 L103.6,68.0 L103.1,69.9 L101.4,71.6 L99.9,70.7 L98.8,73.0 L95.6,73.2 L92.3,72.8 L89.5,71.5 L90.0,71.0 L89.0,68.7 L86.1,72.1 L82.4,73.7 L82.8,72.8 L75.7,73.7 L74.9,72.2 L72.5,73.6 L67.5,73.2 L66.1,73.4 L63.4,76.0 L62.2,80.3 L61.0,81.2 L62.2,83.6 L63.8,82.8 L63.4,84.3 L61.1,85.9 L60.6,87.3 L61.5,88.5 L59.8,90.2 L58.3,90.8 L54.7,89.1 L51.9,89.1 L48.2,91.0 L45.5,91.0 L41.3,92.7 L33.6,98.9 L30.8,100.3 L28.1,100.5 L27.3,99.1 L30.0,93.8 L30.5,91.1 L29.1,89.0 L26.6,88.5 L23.7,88.9 L18.6,90.3 L16.0,91.4 L9.4,95.6 L6.8,96.1 L4.0,96.0 L1.4,95.1 L0.0,93.4 L0.1,91.1 L1.1,89.7 L2.4,90.8 L4.5,91.4 L6.4,90.2 L5.4,88.6 L7.5,88.0 L8.1,90.1 L13.4,87.4 L18.1,86.1 L23.6,83.8 L27.7,81.1 L29.3,81.2 L29.4,82.1 L31.4,83.0 L36.3,81.3 L39.2,83.2 L39.8,84.4 L41.6,83.2 L42.6,83.3 L43.6,79.5 L41.3,82.2 L40.5,81.4 L40.0,78.3 L38.8,77.6 L39.7,75.7 L37.2,75.0 L35.3,73.7 L33.8,70.7 L32.8,70.4 L34.8,67.6 L35.5,63.3 L36.5,60.3 L37.6,58.4 L38.7,58.2 L39.7,56.4 L43.3,52.2 L43.1,51.3 L45.8,50.8 L47.0,50.2 L48.7,47.6 L49.0,46.1 L48.3,44.7 L49.6,45.3 L50.5,44.6 L52.6,45.8 L53.2,43.2 L54.2,42.3 L56.2,41.9 L57.0,39.2 L58.6,40.1 L60.7,38.4 L59.5,37.1 L57.6,37.0 L59.6,35.5 L60.6,35.9 L62.2,38.0 L63.8,37.5 L67.7,34.8 L68.6,35.7 L70.2,33.6 L74.1,33.3 L78.5,31.1 L81.8,30.3 L83.3,30.8 L85.8,30.0 L84.4,29.4 L87.2,28.2 L90.4,28.1 L91.5,25.5 L94.6,25.4 L95.4,26.5 L97.2,24.0 L98.2,23.6 L101.0,25.5 L102.5,24.3 L103.9,21.7 L105.1,20.5 L107.1,19.6 L110.5,17.6 L112.9,17.0 L114.8,18.2 L113.9,19.8 L115.3,22.1 L117.0,20.5 L115.9,18.6 L118.3,17.3 L120.9,16.8 L122.3,16.0 L124.9,16.9 L126.0,16.1 L127.0,17.1 L126.0,18.5 L127.5,17.8 L127.3,19.2 L129.7,18.5 L129.6,23.0 L131.2,26.1 L131.4,28.4 L130.2,29.8 L127.4,30.7 L128.9,31.9 L130.7,34.8 L131.8,35.6 L134.2,40.5 L136.3,42.9 Z">
  <desc xmlns="http://www.highcharts.com/svg/namespace">
    <labelrank>7</labelrank>
    <hasc>CU.PR</hasc>
    <alt-name>NULL</alt-name>
    <woe-id>2345106</woe-id>
    <subregion>NULL</subregion>
    <fips>CU01</fips>
    <postal-code>PR</postal-code>
    <name>Pinar del Río</name>
    <country>Cuba</country>
    <type-en>Province</type-en>
    <region>NULL</region>
    <longitude>-83.67400000000001</longitude>
    <woe-name>Pinar del Río</woe-name>
    <latitude>22.4952</latitude>
    <woe-label>Pinar del Rio, CU, Cuba</woe-label>
    <type>Provincia</type>
    <hc-middle-x>0.62</hc-middle-x>
    <hc-middle-y>0.44</hc-middle-y>
    <hc-key>cu-pr</hc-key>
    <hc-a2>PR</hc-a2>
  </desc>
</path>
</g>

<text x="350" y="714" text-anchor="middle" font-family="Verdana" font-size="8" stroke-opacity="0.6">Copyright (c) 2020 Highsoft AS, Based on data from Natural Earth</text>

</svg>