<?xml version="1.0" encoding="utf-8" standalone="no"?>
<!DOCTYPE svg PUBLIC "-//W3C//DTD SVG 1.1//EN" "http://www.w3.org/Graphics/SVG/1.1/DTD/svg11.dtd">

<svg version="1.1" height="700pt" width="700pt" xmlns="http://www.w3.org/2000/svg" xmlns:xlink="http://www.w3.org/1999/xlink">
<desc>
Map version: 2.1.0
Copyright (c) 2023 Highsoft AS, Based on data from Natural Earth
</desc>
<title>Brunei</title>
<g id="admin1">

<g id="BN">
  <desc xmlns="http://www.highcharts.com/svg/namespace">
    <name>Brunei</name>
    <labelrank>6</labelrank>
    <country-abbrev>Brunei</country-abbrev>
    <subregion>South-Eastern Asia</subregion>
    <region-wb>East Asia &amp; Pacific</region-wb>
    <iso-a3>BRN</iso-a3>
    <iso-a2>BN</iso-a2>
    <woe-id>23424773</woe-id>
    <continent>Asia</continent>
    <hc-key>bn</hc-key>
    <hc-a2>BR</hc-a2>
  </desc>
</g>

<path fill="#CEE3F5" stroke="#6E6E6E" stroke-width="0.4" id="BN.TE" d="M529.2,121.2 L538.6,130.8 L548.0,124.7 L558.1,113.4 L569.6,107.3 L580.7,104.9 L581.0,98.9 L576.6,90.9 L573.5,82.4 L574.6,78.5 L578.0,76.5 L582.8,75.8 L588.8,76.0 L589.1,87.7 L593.9,92.5 L600.7,95.7 L607.4,100.1 L620.3,118.3 L654.2,214.8 L656.5,227.0 L655.7,235.8 L651.6,256.1 L651.4,276.2 L654.4,297.8 L661.2,317.9 L673.1,333.6 L691.2,350.4 L698.7,361.3 L700.0,371.9 L692.6,380.0 L681.3,379.6 L669.4,374.5 L660.1,368.4 L655.6,366.7 L645.7,367.1 L640.3,364.9 L632.3,358.2 L628.0,356.7 L612.7,358.3 L601.9,356.0 L572.6,345.3 L565.8,340.8 L561.7,333.6 L555.4,283.2 L549.3,263.0 L532.4,223.2 L527.9,203.4 L525.7,161.8 Z">
  <desc xmlns="http://www.highcharts.com/svg/namespace">
    <labelrank>9</labelrank>
    <hasc>BN.TE</hasc>
    <alt-name>NULL</alt-name>
    <woe-id>20069847</woe-id>
    <subregion>NULL</subregion>
    <fips>BX03</fips>
    <postal-code>TE</postal-code>
    <name>Temburong</name>
    <country>Brunei</country>
    <type-en>District</type-en>
    <region>NULL</region>
    <longitude>115.191</longitude>
    <woe-name>Temburong</woe-name>
    <latitude>4.60249</latitude>
    <woe-label>Temburong, BN, Brunei</woe-label>
    <type>Daerah-Daerah</type>
    <hc-middle-x>0.36</hc-middle-x>
    <hc-middle-y>0.41</hc-middle-y>
    <hc-key>bn-te</hc-key>
    <hc-a2>TE</hc-a2>
  </desc>
</path>

<path fill="#CEE3F5" stroke="#6E6E6E" stroke-width="0.4" id="BN.BE" d="M409.0,387.9 L405.7,391.0 L402.7,395.7 L403.1,406.2 L419.1,399.7 L420.9,408.6 L417.2,418.0 L405.5,435.5 L401.9,445.5 L399.1,466.6 L395.2,474.1 L348.1,519.2 L323.9,533.3 L302.7,530.9 L300.2,526.8 L296.3,514.2 L293.8,508.9 L289.7,505.0 L278.8,497.4 L246.4,467.8 L239.1,458.0 L234.0,448.0 L223.2,415.7 L216.7,408.9 L207.2,408.4 L186.2,412.2 L163.7,407.9 L146.2,406.7 L143.8,402.0 L142.9,394.3 L144.5,391.3 L151.7,385.1 L153.4,380.2 L149.8,357.3 L142.8,346.8 L142.7,332.6 L138.7,318.2 L135.7,312.6 L130.3,306.7 L128.6,303.3 L126.9,295.9 L123.2,294.5 L115.3,294.3 L112.1,292.7 L108.1,282.3 L102.1,278.3 L89.4,273.6 L72.6,260.6 L61.8,255.0 L33.6,250.7 L0.0,234.9 L129.9,238.9 L168.4,231.6 L203.8,211.6 L254.5,193.3 L258.9,205.6 L264.0,217.3 L271.9,225.3 L278.5,233.9 L288.0,235.1 L299.8,235.8 L306.5,246.2 L304.1,261.7 L307.3,274.5 L323.3,284.3 L335.1,296.0 L346.2,309.8 L358.7,321.8 L368.7,334.0 L376.8,348.9 L380.8,364.5 L390.4,377.8 Z">
  <desc xmlns="http://www.highcharts.com/svg/namespace">
    <labelrank>9</labelrank>
    <hasc>BN.BE</hasc>
    <alt-name>NULL</alt-name>
    <woe-id>20069849</woe-id>
    <subregion>NULL</subregion>
    <fips>BX01</fips>
    <postal-code>BE</postal-code>
    <name>Belait</name>
    <country>Brunei</country>
    <type-en>District</type-en>
    <region>NULL</region>
    <longitude>114.408</longitude>
    <woe-name>Belait</woe-name>
    <latitude>4.45555</latitude>
    <woe-label>Belait, BN, Brunei</woe-label>
    <type>Daerah-Daerah</type>
    <hc-middle-x>0.62</hc-middle-x>
    <hc-middle-y>0.45</hc-middle-y>
    <hc-key>bn-be</hc-key>
    <hc-a2>BE</hc-a2>
  </desc>
</path>

<path fill="#CEE3F5" stroke="#6E6E6E" stroke-width="0.4" id="BN.BM" d="M390.6,81.6 L476.8,29.2 L543.1,1.6 L556.0,0.0 L565.7,3.7 L566.5,10.4 L559.0,15.7 L543.0,22.8 L538.8,29.8 L530.3,50.1 L528.8,56.3 L525.4,63.3 L509.5,78.1 L504.4,86.2 L492.7,97.9 L491.1,105.8 L490.7,114.3 L487.4,122.2 L479.2,127.2 L470.2,127.4 L460.7,125.9 L451.3,125.4 L439.8,128.6 L430.6,134.4 L414.0,150.2 L405.4,155.7 L386.5,163.6 L382.1,167.7 L378.5,158.9 L382.3,142.4 L384.0,131.1 L388.5,120.8 L390.4,107.7 L391.5,93.7 Z">
  <desc xmlns="http://www.highcharts.com/svg/namespace">
    <labelrank>9</labelrank>
    <hasc>BN.BM</hasc>
    <alt-name>NULL</alt-name>
    <woe-id>20069846</woe-id>
    <subregion>NULL</subregion>
    <fips>BX02</fips>
    <postal-code>BM</postal-code>
    <name>Brunei and Muara</name>
    <country>Brunei</country>
    <type-en>District</type-en>
    <region>NULL</region>
    <longitude>114.92</longitude>
    <woe-name>Brunei and Muara</woe-name>
    <latitude>4.90214</latitude>
    <woe-label>Brunei-Muara, BN, Brunei</woe-label>
    <type>Daerah-Daerah</type>
    <hc-middle-x>0.41</hc-middle-x>
    <hc-middle-y>0.49</hc-middle-y>
    <hc-key>bn-bm</hc-key>
    <hc-a2>BM</hc-a2>
  </desc>
</path>

<path fill="#CEE3F5" stroke="#6E6E6E" stroke-width="0.4" id="BN.TU" d="M254.5,193.3 L272.4,186.8 L283.1,176.3 L291.0,161.4 L309.5,142.6 L371.4,93.3 L390.6,81.6 L391.5,93.7 L390.4,107.7 L388.5,120.8 L384.0,131.1 L382.3,142.4 L378.5,158.9 L382.1,167.7 L381.5,168.3 L381.2,176.7 L385.1,186.2 L395.0,205.1 L398.1,215.7 L399.8,227.0 L402.5,286.8 L405.6,305.5 L414.9,319.8 L425.0,323.4 L432.6,322.1 L436.4,324.6 L435.3,339.3 L430.6,358.7 L426.8,367.2 L421.3,376.0 L409.0,387.9 L390.4,377.8 L380.8,364.5 L376.8,348.9 L368.7,334.0 L358.7,321.8 L346.2,309.8 L335.1,296.0 L323.3,284.3 L307.3,274.5 L304.1,261.7 L306.5,246.2 L299.8,235.8 L288.0,235.1 L278.5,233.9 L271.9,225.3 L264.0,217.3 L258.9,205.6 Z">
  <desc xmlns="http://www.highcharts.com/svg/namespace">
    <labelrank>9</labelrank>
    <hasc>BN.TU</hasc>
    <alt-name>NULL</alt-name>
    <woe-id>20069848</woe-id>
    <subregion>NULL</subregion>
    <fips>BX04</fips>
    <postal-code>TU</postal-code>
    <name>Tutong</name>
    <country>Brunei</country>
    <type-en>District</type-en>
    <region>NULL</region>
    <longitude>114.671</longitude>
    <woe-name>Tutong</woe-name>
    <latitude>4.64496</latitude>
    <woe-label>Tutong, BN, Brunei</woe-label>
    <type>Daerah-Daerah</type>
    <hc-middle-x>0.49</hc-middle-x>
    <hc-middle-y>0.46</hc-middle-y>
    <hc-key>bn-tu</hc-key>
    <hc-a2>TU</hc-a2>
  </desc>
</path>
</g>

<text x="350" y="714" text-anchor="middle" font-family="Verdana" font-size="8" stroke-opacity="0.6">Copyright (c) 2023 Highsoft AS, Based on data from Natural Earth</text>

</svg>