<?xml version="1.0" encoding="utf-8" standalone="no"?>
<!DOCTYPE svg PUBLIC "-//W3C//DTD SVG 1.1//EN" "http://www.w3.org/Graphics/SVG/1.1/DTD/svg11.dtd">

<svg version="1.1" height="700pt" width="700pt" xmlns="http://www.w3.org/2000/svg" xmlns:xlink="http://www.w3.org/1999/xlink">
<desc>
Map version: 2.1.0
Copyright (c) 2023 Highsoft AS, Based on data from Natural Earth
</desc>
<title>South Africa</title>
<g id="admin1">

<g id="ZA">
  <desc xmlns="http://www.highcharts.com/svg/namespace">
    <name>South Africa</name>
    <labelrank>2</labelrank>
    <country-abbrev>S.Af.</country-abbrev>
    <subregion>Southern Africa</subregion>
    <region-wb>Sub-Saharan Africa</region-wb>
    <iso-a3>ZAF</iso-a3>
    <iso-a2>ZA</iso-a2>
    <woe-id>23424942</woe-id>
    <continent>Africa</continent>
    <hc-key>za</hc-key>
    <hc-a2>SA</hc-a2>
  </desc>
</g>

<path fill="#CEE3F5" stroke="#6E6E6E" stroke-width="0.4" id="ZA.EC" d="M559.1,381.2 L564.2,381.2 L566.0,384.8 L575.7,397.9 L572.8,398.4 L571.5,403.2 L569.0,404.9 L561.9,401.4 L555.7,401.5 L552.3,394.2 L550.7,388.2 L548.3,385.7 L548.4,382.6 L550.8,377.1 Z M462.2,391.1 L465.6,391.3 L471.3,399.7 L477.3,405.0 L482.6,405.4 L491.2,407.9 L491.1,405.4 L493.9,400.4 L493.6,397.7 L497.1,395.0 L497.1,389.2 L500.0,388.2 L503.3,384.1 L510.0,382.1 L514.8,382.9 L524.0,379.9 L530.6,375.8 L534.7,380.7 L533.0,384.7 L523.8,392.2 L521.0,390.9 L519.6,393.6 L519.6,399.1 L523.9,403.6 L527.8,404.4 L529.8,400.9 L533.7,405.3 L542.7,408.5 L549.2,407.0 L554.3,410.4 L562.2,411.5 L569.5,417.6 L573.2,419.0 L575.7,422.7 L576.2,426.6 L578.4,429.7 L570.4,439.7 L564.3,445.3 L561.0,446.3 L550.8,455.7 L545.4,457.6 L544.5,460.4 L539.0,466.4 L537.0,470.2 L534.3,471.4 L532.1,475.4 L522.7,486.4 L512.2,495.4 L509.4,499.4 L495.5,509.4 L493.3,510.0 L490.8,514.8 L482.7,522.0 L476.1,525.3 L471.1,530.2 L465.3,533.1 L464.0,535.4 L452.2,542.9 L450.5,545.1 L443.2,547.8 L432.3,553.0 L427.1,556.2 L417.9,556.8 L410.1,554.5 L404.6,554.2 L397.8,555.9 L393.6,558.4 L391.3,565.7 L394.8,569.2 L390.5,570.6 L383.0,570.0 L377.7,567.6 L370.6,566.7 L364.7,568.0 L363.8,571.2 L360.4,575.2 L361.1,577.8 L346.0,576.7 L342.0,574.3 L333.2,572.1 L326.1,571.6 L312.2,569.2 L313.9,563.9 L308.1,560.4 L300.9,559.9 L303.7,556.5 L310.8,553.0 L308.4,546.0 L303.2,543.1 L296.1,541.8 L286.7,541.7 L275.5,542.7 L275.2,539.2 L281.6,527.7 L281.5,523.8 L284.6,517.7 L292.4,513.5 L297.7,513.3 L299.4,511.3 L295.5,506.6 L293.6,498.9 L293.6,495.0 L296.9,491.6 L308.1,489.8 L310.9,485.6 L314.3,483.4 L319.5,484.8 L325.3,482.0 L327.7,479.6 L328.9,473.7 L331.3,471.2 L328.9,468.2 L329.6,463.4 L329.9,461.9 L337.3,459.9 L344.0,459.0 L344.4,451.7 L346.1,444.4 L354.6,443.6 L362.8,438.4 L372.9,434.3 L378.5,435.5 L382.4,429.1 L384.8,421.3 L385.3,415.0 L383.7,412.8 L383.0,405.9 L388.9,405.5 L389.9,407.9 L393.7,409.0 L398.4,406.0 L400.5,402.3 L402.5,403.5 L411.1,399.5 L416.6,404.0 L423.3,403.0 L427.2,407.4 L434.2,408.5 L437.4,406.9 L440.4,408.6 L447.5,404.4 L446.4,401.9 L451.3,401.9 L452.0,400.2 L458.9,399.5 L460.0,394.9 L462.7,394.7 Z">
  <desc xmlns="http://www.highcharts.com/svg/namespace">
    <labelrank>2</labelrank>
    <hasc>ZA.EC</hasc>
    <alt-name>Oos-Kaap</alt-name>
    <woe-id>2346979</woe-id>
    <subregion>NULL</subregion>
    <fips>SF01</fips>
    <postal-code>EC</postal-code>
    <name>Eastern Cape</name>
    <country>South Africa</country>
    <type-en>Province</type-en>
    <region>NULL</region>
    <longitude>26.6417</longitude>
    <woe-name>Eastern Cape</woe-name>
    <latitude>-32.0622</latitude>
    <woe-label>Eastern Cape, ZA, South Africa</woe-label>
    <type>Provinsie</type>
    <hc-middle-x>0.51</hc-middle-x>
    <hc-middle-y>0.50</hc-middle-y>
    <hc-key>za-ec</hc-key>
    <hc-a2>EC</hc-a2>
  </desc>
</path>

<path fill="#CEE3F5" stroke="#6E6E6E" stroke-width="0.4" id="ZA.NP" d="M420.4,119.0 L423.3,116.1 L425.9,110.7 L433.9,103.8 L439.9,100.6 L440.8,94.2 L443.9,81.5 L443.8,79.2 L446.7,71.7 L449.6,72.2 L452.1,65.9 L458.8,63.0 L462.0,59.5 L470.8,58.1 L473.4,51.2 L477.4,50.1 L479.8,51.4 L480.8,46.9 L486.2,44.7 L488.4,42.3 L488.1,39.2 L491.8,37.4 L493.0,33.1 L498.1,29.4 L499.6,25.3 L506.0,21.2 L514.2,21.3 L531.6,15.2 L534.1,11.7 L533.8,8.3 L537.8,4.1 L543.2,3.8 L545.6,2.4 L552.5,3.0 L556.1,1.4 L565.2,0.0 L569.6,0.3 L577.9,3.7 L586.2,8.4 L590.9,8.6 L593.6,10.7 L602.8,9.5 L608.4,10.7 L617.6,8.6 L636.1,12.7 L647.5,51.4 L646.4,63.8 L647.4,67.5 L651.5,72.3 L655.5,84.4 L660.4,90.6 L657.0,90.6 L653.9,94.5 L650.5,92.7 L648.9,94.3 L642.2,92.9 L640.7,94.3 L633.4,96.3 L642.3,97.4 L643.4,99.1 L638.9,111.3 L638.4,114.9 L641.7,115.1 L642.1,117.9 L648.0,123.2 L644.2,126.4 L637.5,128.6 L637.5,132.8 L641.3,133.8 L640.0,139.1 L635.3,138.5 L632.1,140.2 L626.0,140.7 L626.7,137.0 L630.5,135.9 L628.7,129.7 L625.7,127.7 L629.4,123.0 L626.8,122.7 L624.1,118.4 L614.7,114.5 L611.4,111.1 L609.9,115.5 L605.2,116.4 L601.8,120.0 L594.5,117.6 L583.0,119.5 L583.7,125.4 L582.8,128.5 L574.8,134.0 L567.6,140.7 L569.5,143.1 L567.7,146.0 L564.1,147.0 L559.2,146.0 L551.5,137.3 L549.5,138.0 L549.7,132.0 L552.9,129.8 L552.7,125.9 L544.2,129.2 L540.9,134.6 L537.1,136.3 L534.4,131.7 L531.1,131.7 L529.9,134.1 L522.1,134.3 L516.2,137.1 L514.9,140.9 L510.1,142.5 L505.5,145.9 L507.1,147.6 L516.5,144.5 L518.9,148.9 L513.0,149.9 L508.9,152.3 L502.8,152.0 L500.1,147.6 L495.6,146.4 L493.9,142.3 L499.3,142.8 L499.8,140.5 L494.4,137.2 L488.7,136.0 L486.0,136.9 L475.6,135.2 L472.3,136.1 L469.4,141.6 L467.8,139.3 L462.5,139.4 L459.1,136.9 L454.5,136.1 L448.9,129.4 L447.5,123.3 L444.1,126.5 L436.4,130.2 L430.2,128.3 L422.7,127.6 L420.7,124.2 Z">
  <desc xmlns="http://www.highcharts.com/svg/namespace">
    <labelrank>2</labelrank>
    <hasc>ZA.NP</hasc>
    <alt-name>Noordelike Provinsie|Northern Transvaal|Northern Province</alt-name>
    <woe-id>2346986</woe-id>
    <subregion>NULL</subregion>
    <fips>SF05</fips>
    <postal-code>NP</postal-code>
    <name>Limpopo</name>
    <country>South Africa</country>
    <type-en>Province</type-en>
    <region>NULL</region>
    <longitude>29.1301</longitude>
    <woe-name>Limpopo</woe-name>
    <latitude>-23.5859</latitude>
    <woe-label>Limpopo, ZA, South Africa</woe-label>
    <type>Provinsie</type>
    <hc-middle-x>0.58</hc-middle-x>
    <hc-middle-y>0.49</hc-middle-y>
    <hc-key>za-np</hc-key>
    <hc-a2>NP</hc-a2>
  </desc>
</path>

<path fill="#CEE3F5" stroke="#6E6E6E" stroke-width="0.4" id="ZA.NL" d="M530.6,375.8 L536.3,372.7 L534.5,368.6 L537.0,361.0 L541.4,359.1 L543.1,351.5 L547.5,349.4 L548.8,345.7 L543.8,333.4 L539.5,332.4 L536.1,328.6 L530.0,324.5 L525.0,317.9 L530.0,308.5 L539.1,306.8 L541.2,302.2 L548.6,298.4 L552.1,294.2 L556.4,293.4 L560.2,287.3 L558.1,283.8 L562.5,272.5 L561.1,265.0 L564.6,262.7 L562.5,258.4 L565.0,255.4 L571.8,251.3 L580.5,252.2 L587.0,248.7 L593.1,247.6 L593.9,249.2 L599.5,249.4 L603.3,247.9 L610.6,250.9 L613.5,249.9 L616.8,252.1 L624.2,250.8 L628.4,246.6 L640.3,250.8 L659.3,251.8 L658.5,241.4 L661.2,227.4 L667.7,229.5 L676.7,230.5 L700.0,230.9 L697.1,244.1 L689.2,262.9 L684.8,280.0 L685.0,282.0 L682.1,294.8 L676.5,303.8 L674.3,311.9 L661.2,323.2 L657.4,323.3 L658.1,326.3 L652.7,328.8 L647.7,328.5 L646.9,330.6 L638.3,339.7 L635.3,341.9 L622.0,358.2 L616.1,369.0 L616.0,374.1 L610.1,379.8 L604.1,390.1 L594.3,406.0 L586.8,418.9 L583.8,421.9 L578.4,429.7 L576.2,426.6 L575.7,422.7 L573.2,419.0 L569.5,417.6 L562.2,411.5 L554.3,410.4 L549.2,407.0 L542.7,408.5 L533.7,405.3 L529.8,400.9 L527.8,404.4 L523.9,403.6 L519.6,399.1 L519.6,393.6 L521.0,390.9 L523.8,392.2 L533.0,384.7 L534.7,380.7 Z M559.1,381.2 L550.8,377.1 L548.4,382.6 L548.3,385.7 L550.7,388.2 L552.3,394.2 L555.7,401.5 L561.9,401.4 L569.0,404.9 L571.5,403.2 L572.8,398.4 L575.7,397.9 L566.0,384.8 L564.2,381.2 Z">
  <desc xmlns="http://www.highcharts.com/svg/namespace">
    <labelrank>2</labelrank>
    <hasc>ZA.NL</hasc>
    <alt-name>Natal and Zululand</alt-name>
    <woe-id>2346982</woe-id>
    <subregion>NULL</subregion>
    <fips>SF03</fips>
    <postal-code>NL</postal-code>
    <name>KwaZulu-Natal</name>
    <country>South Africa</country>
    <type-en>Province</type-en>
    <region>NULL</region>
    <longitude>30.8231</longitude>
    <woe-name>KwaZulu-Natal</woe-name>
    <latitude>-28.7468</latitude>
    <woe-label>Kwazulu Natal, ZA, South Africa</woe-label>
    <type>Provinsie</type>
    <hc-middle-x>0.46</hc-middle-x>
    <hc-middle-y>0.46</hc-middle-y>
    <hc-key>za-nl</hc-key>
    <hc-a2>NL</hc-a2>
  </desc>
</path>

<path fill="#CEE3F5" stroke="#6E6E6E" stroke-width="0.4" id="ZA.WC" d="M312.2,569.2 L303.8,571.0 L301.2,573.7 L303.2,575.7 L284.3,575.1 L278.1,572.7 L269.2,571.6 L263.2,575.2 L257.8,575.0 L253.0,577.0 L253.0,581.1 L246.5,582.9 L244.1,584.8 L243.3,589.1 L235.8,592.1 L228.2,590.7 L221.8,594.3 L218.3,594.6 L211.6,592.5 L204.2,592.5 L200.0,594.5 L201.7,597.7 L194.5,596.8 L189.0,597.9 L183.4,603.9 L174.8,610.4 L171.0,614.3 L171.6,615.9 L167.5,616.5 L163.5,613.9 L155.0,615.6 L144.7,608.2 L140.8,608.7 L142.8,603.4 L139.2,599.1 L134.0,599.9 L131.4,596.6 L120.3,598.6 L121.4,588.1 L116.5,585.0 L109.0,585.4 L104.7,589.2 L106.6,593.9 L106.7,598.9 L104.0,596.9 L102.7,593.0 L99.8,590.3 L101.0,585.2 L99.2,584.1 L101.1,578.9 L105.5,575.5 L102.5,567.7 L97.5,561.8 L96.6,557.6 L89.6,552.2 L86.1,545.1 L80.8,540.7 L82.9,540.0 L87.1,544.9 L83.2,536.2 L79.8,536.1 L78.9,538.2 L75.1,527.2 L77.3,522.7 L79.7,521.4 L84.6,524.8 L87.4,523.1 L91.9,517.7 L93.8,509.9 L92.4,502.9 L93.5,498.8 L91.4,492.6 L89.1,481.3 L83.9,470.6 L76.3,461.2 L71.1,456.2 L69.9,452.8 L65.1,447.5 L67.4,448.0 L67.3,442.8 L69.4,436.4 L74.3,428.3 L80.0,430.1 L83.6,427.9 L86.8,421.4 L89.3,413.7 L91.7,414.8 L95.5,411.8 L103.1,416.4 L108.0,421.8 L112.1,422.9 L112.5,433.4 L111.7,436.7 L113.7,445.7 L116.5,450.0 L118.1,459.8 L120.4,463.6 L121.2,471.8 L120.0,478.9 L126.5,479.8 L129.7,478.0 L129.4,481.5 L133.0,484.8 L139.1,486.9 L140.2,493.9 L137.7,497.8 L140.8,505.1 L140.6,510.8 L143.2,513.3 L145.7,504.4 L149.5,503.2 L153.3,499.8 L158.2,498.7 L166.5,490.0 L168.4,490.3 L169.8,494.4 L164.8,500.9 L167.1,509.6 L171.1,517.5 L180.2,525.2 L185.2,523.3 L191.7,523.6 L194.7,520.7 L195.9,513.6 L197.5,511.7 L207.6,507.7 L210.2,500.4 L214.6,496.2 L219.4,494.6 L224.4,489.2 L231.0,487.5 L236.6,488.7 L241.4,486.2 L246.4,479.3 L245.5,471.4 L247.7,469.4 L253.1,455.5 L260.9,459.2 L266.4,464.9 L272.7,467.4 L280.4,468.2 L283.9,469.5 L285.8,473.8 L290.2,469.5 L294.6,462.6 L298.9,459.1 L308.2,457.8 L314.7,460.0 L318.0,464.2 L322.0,460.6 L324.5,460.2 L329.6,463.4 L328.9,468.2 L331.3,471.2 L328.9,473.7 L327.7,479.6 L325.3,482.0 L319.5,484.8 L314.3,483.4 L310.9,485.6 L308.1,489.8 L296.9,491.6 L293.6,495.0 L293.6,498.9 L295.5,506.6 L299.4,511.3 L297.7,513.3 L292.4,513.5 L284.6,517.7 L281.5,523.8 L281.6,527.7 L275.2,539.2 L275.5,542.7 L286.7,541.7 L296.1,541.8 L303.2,543.1 L308.4,546.0 L310.8,553.0 L303.7,556.5 L300.9,559.9 L308.1,560.4 L313.9,563.9 Z">
  <desc xmlns="http://www.highcharts.com/svg/namespace">
    <labelrank>2</labelrank>
    <hasc>ZA.WC</hasc>
    <alt-name>Wes-Kaap</alt-name>
    <woe-id>2346987</woe-id>
    <subregion>NULL</subregion>
    <fips>SF09</fips>
    <postal-code>WC</postal-code>
    <name>Western Cape</name>
    <country>South Africa</country>
    <type-en>Province</type-en>
    <region>NULL</region>
    <longitude>20.9745</longitude>
    <woe-name>Western Cape</woe-name>
    <latitude>-33.5035</latitude>
    <woe-label>Western Cape, ZA, South Africa</woe-label>
    <type>Provinsie</type>
    <hc-middle-x>0.51</hc-middle-x>
    <hc-middle-y>0.66</hc-middle-y>
    <hc-key>za-wc</hc-key>
    <hc-a2>WC</hc-a2>
  </desc>
</path>

<path fill="#CEE3F5" stroke="#6E6E6E" stroke-width="0.4" id="ZA.NC" d="M65.1,447.5 L55.3,432.9 L53.8,428.8 L41.6,410.2 L37.6,401.7 L35.3,394.5 L32.1,388.5 L29.3,378.6 L22.8,363.7 L20.4,361.0 L16.3,350.7 L9.6,343.0 L6.5,340.8 L4.1,333.7 L0.0,330.0 L0.4,327.4 L7.9,321.3 L9.3,322.8 L13.1,316.3 L11.1,312.4 L15.7,306.1 L15.7,302.2 L24.3,299.0 L28.6,302.8 L29.1,307.3 L35.7,307.6 L38.7,314.2 L35.8,318.7 L40.3,325.1 L40.0,330.5 L47.6,328.7 L48.9,332.3 L54.8,331.4 L62.0,332.5 L73.2,337.5 L79.2,336.0 L83.0,336.6 L97.6,332.7 L106.5,333.4 L112.2,337.5 L115.5,336.6 L120.7,332.6 L118.7,328.0 L120.3,325.3 L126.4,324.7 L128.3,322.8 L131.5,315.5 L142.3,312.2 L148.8,307.8 L139.1,133.2 L145.4,138.8 L150.7,140.9 L156.5,145.3 L163.9,157.4 L165.1,161.7 L168.3,163.9 L170.1,172.6 L177.3,185.8 L178.1,194.3 L179.9,197.1 L176.4,204.2 L171.1,211.8 L171.1,224.2 L172.7,230.5 L175.2,234.0 L181.9,229.5 L193.7,231.8 L204.7,229.3 L218.0,230.2 L221.6,226.8 L221.7,221.5 L228.4,220.6 L233.5,218.2 L237.2,213.3 L241.6,204.6 L245.3,203.3 L248.9,198.8 L253.9,197.7 L257.0,193.0 L260.2,193.0 L261.8,215.0 L266.6,215.0 L275.6,219.3 L274.7,228.0 L277.9,235.0 L275.3,236.5 L275.3,243.7 L278.6,245.1 L284.3,250.8 L294.6,254.5 L296.1,256.8 L306.6,259.9 L313.0,257.6 L313.0,254.5 L317.2,253.9 L317.7,248.9 L319.8,251.7 L319.7,258.3 L322.8,269.6 L335.9,266.3 L336.9,271.4 L334.2,276.6 L337.9,280.3 L337.6,283.2 L341.1,286.1 L344.9,281.3 L345.2,276.7 L348.2,272.4 L347.3,262.4 L350.7,262.0 L352.2,265.8 L362.3,266.9 L353.9,276.7 L358.6,285.6 L362.1,284.2 L355.3,306.0 L356.6,312.2 L347.8,332.5 L335.2,360.6 L338.1,366.0 L348.7,372.1 L349.2,374.7 L354.0,376.4 L359.3,386.6 L364.5,390.4 L365.1,392.6 L375.6,402.7 L378.5,402.7 L383.0,405.9 L383.7,412.8 L385.3,415.0 L384.8,421.3 L382.4,429.1 L378.5,435.5 L372.9,434.3 L362.8,438.4 L354.6,443.6 L346.1,444.4 L344.4,451.7 L344.0,459.0 L337.3,459.9 L329.9,461.9 L329.6,463.4 L324.5,460.2 L322.0,460.6 L318.0,464.2 L314.7,460.0 L308.2,457.8 L298.9,459.1 L294.6,462.6 L290.2,469.5 L285.8,473.8 L283.9,469.5 L280.4,468.2 L272.7,467.4 L266.4,464.9 L260.9,459.2 L253.1,455.5 L247.7,469.4 L245.5,471.4 L246.4,479.3 L241.4,486.2 L236.6,488.7 L231.0,487.5 L224.4,489.2 L219.4,494.6 L214.6,496.2 L210.2,500.4 L207.6,507.7 L197.5,511.7 L195.9,513.6 L194.7,520.7 L191.7,523.6 L185.2,523.3 L180.2,525.2 L171.1,517.5 L167.1,509.6 L164.8,500.9 L169.8,494.4 L168.4,490.3 L166.5,490.0 L158.2,498.7 L153.3,499.8 L149.5,503.2 L145.7,504.4 L143.2,513.3 L140.6,510.8 L140.8,505.1 L137.7,497.8 L140.2,493.9 L139.1,486.9 L133.0,484.8 L129.4,481.5 L129.7,478.0 L126.5,479.8 L120.0,478.9 L121.2,471.8 L120.4,463.6 L118.1,459.8 L116.5,450.0 L113.7,445.7 L111.7,436.7 L112.5,433.4 L112.1,422.9 L108.0,421.8 L103.1,416.4 L95.5,411.8 L91.7,414.8 L89.3,413.7 L86.8,421.4 L83.6,427.9 L80.0,430.1 L74.3,428.3 L69.4,436.4 L67.3,442.8 L67.4,448.0 Z">
  <desc xmlns="http://www.highcharts.com/svg/namespace">
    <labelrank>2</labelrank>
    <hasc>ZA.NC</hasc>
    <alt-name>Noord-Kaap</alt-name>
    <woe-id>2346985</woe-id>
    <subregion>NULL</subregion>
    <fips>SF06</fips>
    <postal-code>NC</postal-code>
    <name>Northern Cape</name>
    <country>South Africa</country>
    <type-en>Province</type-en>
    <region>NULL</region>
    <longitude>20.9961</longitude>
    <woe-name>Northern Cape</woe-name>
    <latitude>-29.7437</latitude>
    <woe-label>Northern Cape, ZA, South Africa</woe-label>
    <type>Provinsie</type>
    <hc-middle-x>0.54</hc-middle-x>
    <hc-middle-y>0.66</hc-middle-y>
    <hc-key>za-nc</hc-key>
    <hc-a2>NC</hc-a2>
  </desc>
</path>

<path fill="#CEE3F5" stroke="#6E6E6E" stroke-width="0.4" id="ZA.NW" d="M257.0,193.0 L258.6,188.6 L261.1,186.7 L260.5,182.3 L262.8,179.1 L261.9,175.7 L264.3,172.4 L265.7,162.4 L272.6,154.0 L275.4,154.7 L283.8,151.5 L292.2,152.1 L302.4,160.1 L304.8,160.8 L312.9,168.3 L316.5,169.4 L321.9,167.9 L326.1,168.9 L329.2,172.4 L333.2,174.1 L336.1,173.2 L345.2,176.9 L351.1,177.1 L355.8,175.8 L362.0,172.5 L367.5,173.7 L376.5,172.6 L385.1,166.6 L388.4,157.9 L389.7,151.7 L395.7,137.6 L397.4,131.3 L397.0,124.7 L414.9,118.9 L420.4,119.0 L420.7,124.2 L422.7,127.6 L430.2,128.3 L436.4,130.2 L444.1,126.5 L447.5,123.3 L448.9,129.4 L454.5,136.1 L459.1,136.9 L462.5,139.4 L467.8,139.3 L469.4,141.6 L472.3,136.1 L475.6,135.2 L486.0,136.9 L488.7,136.0 L494.4,137.2 L499.8,140.5 L499.3,142.8 L493.9,142.3 L495.6,146.4 L500.1,147.6 L502.8,152.0 L502.3,156.0 L495.3,158.1 L493.1,156.5 L493.5,162.0 L489.9,166.7 L486.6,167.4 L488.3,172.2 L484.4,177.5 L478.0,178.7 L472.9,175.7 L466.4,179.0 L464.2,189.2 L458.3,192.4 L459.8,199.0 L453.8,203.7 L455.7,208.5 L467.0,204.6 L472.8,206.5 L470.1,213.9 L469.8,221.3 L467.1,226.4 L464.0,227.3 L459.7,225.8 L454.3,230.5 L454.1,228.7 L448.4,229.0 L443.6,225.9 L443.0,230.2 L440.4,228.2 L431.3,232.4 L421.3,240.9 L424.5,244.6 L423.0,249.3 L425.5,251.3 L419.2,251.0 L414.4,252.9 L413.5,255.9 L408.1,260.6 L404.4,266.2 L403.8,263.2 L398.5,262.3 L395.2,260.4 L388.5,264.9 L385.9,264.1 L379.2,266.8 L371.5,272.3 L370.9,275.0 L366.9,277.5 L363.7,283.7 L362.1,284.2 L358.6,285.6 L353.9,276.7 L362.3,266.9 L352.2,265.8 L350.7,262.0 L347.3,262.4 L348.2,272.4 L345.2,276.7 L344.9,281.3 L341.1,286.1 L337.6,283.2 L337.9,280.3 L334.2,276.6 L336.9,271.4 L335.9,266.3 L322.8,269.6 L319.7,258.3 L319.8,251.7 L317.7,248.9 L317.2,253.9 L313.0,254.5 L313.0,257.6 L306.6,259.9 L296.1,256.8 L294.6,254.5 L284.3,250.8 L278.6,245.1 L275.3,243.7 L275.3,236.5 L277.9,235.0 L274.7,228.0 L275.6,219.3 L266.6,215.0 L261.8,215.0 L260.2,193.0 Z">
  <desc xmlns="http://www.highcharts.com/svg/namespace">
    <labelrank>2</labelrank>
    <hasc>ZA.NW</hasc>
    <alt-name>North-West|Noordwes</alt-name>
    <woe-id>2346984</woe-id>
    <subregion>NULL</subregion>
    <fips>SF06</fips>
    <postal-code>NW</postal-code>
    <name>North West</name>
    <country>South Africa</country>
    <type-en>Province</type-en>
    <region>NULL</region>
    <longitude>25.7403</longitude>
    <woe-name>North West</woe-name>
    <latitude>-26.3999</latitude>
    <woe-label>North-west, ZA, South Africa</woe-label>
    <type>Provinsie</type>
    <hc-middle-x>0.45</hc-middle-x>
    <hc-middle-y>0.57</hc-middle-y>
    <hc-key>za-nw</hc-key>
    <hc-a2>NW</hc-a2>
  </desc>
</path>

<path fill="#CEE3F5" stroke="#6E6E6E" stroke-width="0.4" id="ZA.FS" d="M525.0,317.9 L518.3,313.8 L515.6,308.1 L511.7,310.0 L505.8,310.3 L502.1,314.1 L495.3,314.2 L489.5,321.5 L485.0,321.7 L482.8,324.3 L478.0,323.9 L476.5,327.8 L473.4,330.0 L472.3,334.7 L468.7,338.2 L468.7,340.7 L465.5,342.2 L464.0,347.2 L461.0,351.4 L456.6,354.5 L447.1,358.2 L446.6,360.1 L450.2,364.1 L454.8,375.1 L457.6,377.7 L459.5,382.4 L462.4,383.0 L460.8,386.3 L462.2,391.1 L462.7,394.7 L460.0,394.9 L458.9,399.5 L452.0,400.2 L451.3,401.9 L446.4,401.9 L447.5,404.4 L440.4,408.6 L437.4,406.9 L434.2,408.5 L427.2,407.4 L423.3,403.0 L416.6,404.0 L411.1,399.5 L402.5,403.5 L400.5,402.3 L398.4,406.0 L393.7,409.0 L389.9,407.9 L388.9,405.5 L383.0,405.9 L378.5,402.7 L375.6,402.7 L365.1,392.6 L364.5,390.4 L359.3,386.6 L354.0,376.4 L349.2,374.7 L348.7,372.1 L338.1,366.0 L335.2,360.6 L347.8,332.5 L356.6,312.2 L355.3,306.0 L362.1,284.2 L363.7,283.7 L366.9,277.5 L370.9,275.0 L371.5,272.3 L379.2,266.8 L385.9,264.1 L388.5,264.9 L395.2,260.4 L398.5,262.3 L403.8,263.2 L404.4,266.2 L408.1,260.6 L413.5,255.9 L414.4,252.9 L419.2,251.0 L425.5,251.3 L423.0,249.3 L424.5,244.6 L421.3,240.9 L431.3,232.4 L440.4,228.2 L443.0,230.2 L443.6,225.9 L448.4,229.0 L454.1,228.7 L454.3,230.5 L459.7,225.8 L464.0,227.3 L467.1,226.4 L469.8,221.3 L473.0,219.4 L474.2,221.1 L484.5,219.3 L488.2,216.8 L491.4,223.8 L498.0,228.0 L501.8,228.5 L510.0,231.0 L513.0,233.8 L519.3,231.5 L526.9,235.1 L530.6,232.8 L534.8,234.5 L537.6,240.5 L539.8,239.8 L551.1,245.5 L552.8,249.8 L558.2,257.6 L565.0,255.4 L562.5,258.4 L564.6,262.7 L561.1,265.0 L562.5,272.5 L558.1,283.8 L560.2,287.3 L556.4,293.4 L552.1,294.2 L548.6,298.4 L541.2,302.2 L539.1,306.8 L530.0,308.5 Z">
  <desc xmlns="http://www.highcharts.com/svg/namespace">
    <labelrank>2</labelrank>
    <hasc>ZA.FS</hasc>
    <alt-name>Free State|Vrystaat</alt-name>
    <woe-id>2346980</woe-id>
    <subregion>NULL</subregion>
    <fips>SF07</fips>
    <postal-code>FS</postal-code>
    <name>Orange Free State</name>
    <country>South Africa</country>
    <type-en>Province</type-en>
    <region>NULL</region>
    <longitude>26.4914</longitude>
    <woe-name>Orange Free State</woe-name>
    <latitude>-28.5815</latitude>
    <woe-label>Free State, ZA, South Africa</woe-label>
    <type>Provinsie</type>
    <hc-middle-x>0.46</hc-middle-x>
    <hc-middle-y>0.47</hc-middle-y>
    <hc-key>za-fs</hc-key>
    <hc-a2>FS</hc-a2>
  </desc>
</path>

<path fill="#CEE3F5" stroke="#6E6E6E" stroke-width="0.4" id="ZA.GT" d="M501.8,228.5 L498.0,228.0 L491.4,223.8 L488.2,216.8 L484.5,219.3 L474.2,221.1 L473.0,219.4 L469.8,221.3 L470.1,213.9 L472.8,206.5 L467.0,204.6 L455.7,208.5 L453.8,203.7 L459.8,199.0 L458.3,192.4 L464.2,189.2 L466.4,179.0 L472.9,175.7 L478.0,178.7 L484.4,177.5 L488.3,172.2 L486.6,167.4 L489.9,166.7 L493.5,162.0 L493.1,156.5 L495.3,158.1 L502.3,156.0 L502.8,152.0 L508.9,152.3 L513.0,149.9 L518.9,148.9 L516.5,144.5 L526.3,142.4 L530.3,144.0 L529.1,148.1 L525.1,154.4 L527.6,155.4 L533.2,153.7 L543.4,153.4 L542.9,157.6 L540.4,157.4 L537.6,160.4 L534.7,167.2 L532.3,169.5 L530.5,177.7 L528.0,180.0 L526.0,186.2 L515.8,184.9 L513.5,188.5 L509.2,189.8 L515.2,200.6 L519.9,201.8 L525.0,201.1 L526.8,205.0 L521.0,209.9 L513.0,212.0 L505.8,218.3 L505.1,222.2 L502.5,224.5 Z">
  <desc xmlns="http://www.highcharts.com/svg/namespace">
    <labelrank>2</labelrank>
    <hasc>ZA.GT</hasc>
    <alt-name>Pretoria/Witwatersrand/Vaal</alt-name>
    <woe-id>2346981</woe-id>
    <subregion>NULL</subregion>
    <fips>SF08</fips>
    <postal-code>GT</postal-code>
    <name>Gauteng</name>
    <country>South Africa</country>
    <type-en>Province</type-en>
    <region>NULL</region>
    <longitude>28.2074</longitude>
    <woe-name>Gauteng</woe-name>
    <latitude>-26.1682</latitude>
    <woe-label>Gauteng, ZA, South Africa</woe-label>
    <type>Provinsie</type>
    <hc-middle-x>0.49</hc-middle-x>
    <hc-middle-y>0.47</hc-middle-y>
    <hc-key>za-gt</hc-key>
    <hc-a2>GT</hc-a2>
  </desc>
</path>

<path fill="#CEE3F5" stroke="#6E6E6E" stroke-width="0.4" id="ZA.MP" d="M628.4,246.6 L624.2,250.8 L616.8,252.1 L613.5,249.9 L610.6,250.9 L603.3,247.9 L599.5,249.4 L593.9,249.2 L593.1,247.6 L587.0,248.7 L580.5,252.2 L571.8,251.3 L565.0,255.4 L558.2,257.6 L552.8,249.8 L551.1,245.5 L539.8,239.8 L537.6,240.5 L534.8,234.5 L530.6,232.8 L526.9,235.1 L519.3,231.5 L513.0,233.8 L510.0,231.0 L501.8,228.5 L502.5,224.5 L505.1,222.2 L505.8,218.3 L513.0,212.0 L521.0,209.9 L526.8,205.0 L525.0,201.1 L519.9,201.8 L515.2,200.6 L509.2,189.8 L513.5,188.5 L515.8,184.9 L526.0,186.2 L528.0,180.0 L530.5,177.7 L532.3,169.5 L534.7,167.2 L537.6,160.4 L540.4,157.4 L542.9,157.6 L543.4,153.4 L533.2,153.7 L527.6,155.4 L525.1,154.4 L529.1,148.1 L530.3,144.0 L526.3,142.4 L516.5,144.5 L507.1,147.6 L505.5,145.9 L510.1,142.5 L514.9,140.9 L516.2,137.1 L522.1,134.3 L529.9,134.1 L531.1,131.7 L534.4,131.7 L537.1,136.3 L540.9,134.6 L544.2,129.2 L552.7,125.9 L552.9,129.8 L549.7,132.0 L549.5,138.0 L551.5,137.3 L559.2,146.0 L564.1,147.0 L567.7,146.0 L569.5,143.1 L567.6,140.7 L574.8,134.0 L582.8,128.5 L583.7,125.4 L583.0,119.5 L594.5,117.6 L601.8,120.0 L605.2,116.4 L609.9,115.5 L611.4,111.1 L614.7,114.5 L624.1,118.4 L626.8,122.7 L629.4,123.0 L625.7,127.7 L628.7,129.7 L630.5,135.9 L626.7,137.0 L626.0,140.7 L632.1,140.2 L635.3,138.5 L640.0,139.1 L641.3,133.8 L637.5,132.8 L637.5,128.6 L644.2,126.4 L648.0,123.2 L642.1,117.9 L641.7,115.1 L638.4,114.9 L638.9,111.3 L643.4,99.1 L642.3,97.4 L633.4,96.3 L640.7,94.3 L642.2,92.9 L648.9,94.3 L650.5,92.7 L653.9,94.5 L657.0,90.6 L660.4,90.6 L660.6,100.2 L665.3,112.9 L663.8,158.5 L662.6,163.6 L663.4,171.8 L661.7,173.4 L659.5,180.9 L661.0,186.5 L656.0,187.5 L638.7,175.4 L633.5,175.9 L625.1,183.0 L621.2,192.0 L618.1,197.1 L610.7,205.9 L609.7,209.5 L609.4,221.2 L610.0,225.7 L613.4,224.0 L616.7,230.8 L617.2,236.7 L624.7,245.2 Z">
  <desc xmlns="http://www.highcharts.com/svg/namespace">
    <labelrank>2</labelrank>
    <hasc>ZA.MP</hasc>
    <alt-name>Eastern Transvaal</alt-name>
    <woe-id>2346983</woe-id>
    <subregion>NULL</subregion>
    <fips>SF02</fips>
    <postal-code>MP</postal-code>
    <name>Mpumalanga</name>
    <country>South Africa</country>
    <type-en>Province</type-en>
    <region>NULL</region>
    <longitude>30.1421</longitude>
    <woe-name>Mpumalanga</woe-name>
    <latitude>-25.9893</latitude>
    <woe-label>Mpumalanga, ZA, South Africa</woe-label>
    <type>Provinsie</type>
    <hc-middle-x>0.46</hc-middle-x>
    <hc-middle-y>0.54</hc-middle-y>
    <hc-key>za-mp</hc-key>
    <hc-a2>MP</hc-a2>
  </desc>
</path>
</g>

<text x="350" y="714" text-anchor="middle" font-family="Verdana" font-size="8" stroke-opacity="0.6">Copyright (c) 2023 Highsoft AS, Based on data from Natural Earth</text>

</svg>