<?xml version="1.0" encoding="utf-8" standalone="no"?>
<!DOCTYPE svg PUBLIC "-//W3C//DTD SVG 1.1//EN" "http://www.w3.org/Graphics/SVG/1.1/DTD/svg11.dtd">

<svg version="1.1" height="700pt" width="700pt" xmlns="http://www.w3.org/2000/svg" xmlns:xlink="http://www.w3.org/1999/xlink">
<desc>
Map version: 1.1.3
Copyright (c) 2020 Highsoft AS, Based on data from Natural Earth
</desc>
<title>Zambia</title>
<g id="admin1">

<g id="ZM">
  <desc xmlns="http://www.highcharts.com/svg/namespace">
    <name>Zambia</name>
    <labelrank>3</labelrank>
    <country-abbrev>Zambia</country-abbrev>
    <subregion>Eastern Africa</subregion>
    <region-wb>Sub-Saharan Africa</region-wb>
    <iso-a3>ZMB</iso-a3>
    <iso-a2>ZM</iso-a2>
    <woe-id>23425003</woe-id>
    <continent>Africa</continent>
    <hc-key>zm</hc-key>
    <hc-a2>ZA</hc-a2>
  </desc>
</g>

<path fill="#CEE3F5" stroke="#6E6E6E" stroke-width="0.4" id="ZM.LP" d="M465.9,238.4 L463.3,238.5 L455.8,241.9 L452.0,240.4 L446.4,243.5 L444.7,249.1 L449.3,252.6 L447.8,256.2 L439.8,253.5 L435.7,253.0 L433.3,250.8 L428.4,250.9 L424.7,252.4 L419.9,251.3 L414.8,241.0 L409.8,237.1 L408.3,234.0 L403.9,230.6 L402.8,227.5 L399.5,227.4 L388.9,220.6 L385.6,215.0 L382.8,204.3 L379.9,199.1 L380.0,194.7 L385.0,188.8 L384.8,185.2 L387.0,181.4 L387.3,172.4 L391.7,161.8 L392.5,156.3 L396.8,150.1 L400.8,146.1 L396.9,138.6 L397.6,133.7 L395.9,128.2 L396.6,125.0 L393.1,120.4 L396.1,115.7 L396.4,104.1 L399.7,95.2 L392.5,75.2 L390.0,72.5 L396.7,70.1 L402.4,73.5 L402.3,64.9 L409.1,55.7 L412.8,52.4 L414.5,48.8 L419.8,45.8 L424.6,36.1 L428.3,26.9 L425.9,22.4 L414.4,14.5 L454.4,8.7 L449.5,16.1 L445.4,17.3 L439.8,25.1 L436.5,35.6 L433.4,42.1 L429.7,44.0 L426.6,53.1 L431.5,56.1 L434.3,56.4 L439.2,59.6 L440.9,68.3 L438.7,72.5 L440.8,78.4 L444.2,79.5 L451.2,85.7 L467.7,90.2 L475.5,101.0 L473.6,106.3 L475.4,112.0 L472.8,115.2 L471.8,119.7 L468.7,122.0 L462.6,120.8 L456.4,124.5 L450.1,127.0 L445.2,130.7 L442.6,136.5 L443.7,139.3 L440.2,145.6 L428.9,151.9 L428.5,159.8 L423.8,165.1 L429.4,167.9 L434.8,173.3 L442.0,174.5 L442.4,170.6 L438.9,162.4 L440.6,161.0 L457.2,152.3 L465.9,156.7 L471.7,164.9 L472.1,169.5 L468.4,192.2 L477.3,182.9 L486.7,183.9 L505.2,197.5 L505.6,199.1 L505.0,204.5 L494.6,217.5 L492.7,218.6 L465.4,222.8 L464.7,230.1 L466.9,234.1 Z">
  <desc xmlns="http://www.highcharts.com/svg/namespace">
    <labelrank>4</labelrank>
    <hasc>ZM.LP</hasc>
    <alt-name>Fort Rosebery</alt-name>
    <woe-id>2347808</woe-id>
    <subregion>NULL</subregion>
    <fips>ZA04</fips>
    <postal-code>LP</postal-code>
    <name>Luapula</name>
    <country>Zambia</country>
    <type-en>Province</type-en>
    <region>NULL</region>
    <longitude>29.4045</longitude>
    <woe-name>Luapula</woe-name>
    <latitude>-11.6471</latitude>
    <woe-label>Luapula, ZM, Zambia</woe-label>
    <type>Province</type>
    <hc-middle-x>0.33</hc-middle-x>
    <hc-middle-y>0.77</hc-middle-y>
    <hc-key>zm-lp</hc-key>
    <hc-a2>LP</hc-a2>
  </desc>
</path>

<path fill="#CEE3F5" stroke="#6E6E6E" stroke-width="0.4" id="ZM.NO" d="M505.6,199.1 L505.2,197.5 L486.7,183.9 L477.3,182.9 L468.4,192.2 L472.1,169.5 L471.7,164.9 L465.9,156.7 L457.2,152.3 L440.6,161.0 L438.9,162.4 L442.4,170.6 L442.0,174.5 L434.8,173.3 L429.4,167.9 L423.8,165.1 L428.5,159.8 L428.9,151.9 L440.2,145.6 L443.7,139.3 L442.6,136.5 L445.2,130.7 L450.1,127.0 L456.4,124.5 L462.6,120.8 L468.7,122.0 L471.8,119.7 L472.8,115.2 L475.4,112.0 L473.6,106.3 L475.5,101.0 L467.7,90.2 L451.2,85.7 L444.2,79.5 L440.8,78.4 L438.7,72.5 L440.9,68.3 L439.2,59.6 L434.3,56.4 L431.5,56.1 L426.6,53.1 L429.7,44.0 L433.4,42.1 L436.5,35.6 L439.8,25.1 L445.4,17.3 L449.5,16.1 L454.4,8.7 L514.5,0.0 L514.5,4.9 L508.2,8.6 L506.7,12.8 L508.4,17.4 L513.2,16.7 L514.4,19.9 L517.6,19.6 L521.3,16.0 L521.2,18.5 L528.0,20.7 L541.7,35.3 L546.5,33.5 L549.3,29.9 L550.7,32.3 L552.8,22.2 L556.1,24.9 L561.7,22.7 L572.9,29.9 L573.6,36.3 L580.8,42.7 L587.8,41.5 L596.7,44.1 L595.5,49.6 L599.3,52.6 L602.4,51.1 L608.6,52.3 L614.4,56.6 L619.6,70.6 L620.0,76.7 L613.4,76.1 L601.3,73.9 L594.2,74.8 L585.0,79.7 L580.5,80.2 L575.9,78.6 L574.4,82.7 L570.4,80.7 L565.8,81.0 L561.8,78.4 L552.1,84.9 L546.4,93.5 L550.9,98.2 L555.4,105.9 L559.7,119.7 L570.2,125.4 L572.2,127.5 L572.2,142.7 L567.3,142.2 L559.0,145.8 L557.7,150.5 L555.4,152.7 L551.3,151.5 L546.6,154.0 L551.0,157.7 L547.9,158.1 L549.0,161.5 L544.7,166.4 L542.2,163.7 L540.9,166.0 L538.7,164.2 L536.8,169.0 L529.5,172.4 L527.9,175.7 L523.0,181.8 L520.7,186.5 L516.0,188.6 L511.2,193.0 L509.6,196.7 Z">
  <desc xmlns="http://www.highcharts.com/svg/namespace">
    <labelrank>4</labelrank>
    <hasc>ZM.NO</hasc>
    <alt-name>NULL</alt-name>
    <woe-id>2347807</woe-id>
    <subregion>NULL</subregion>
    <fips>ZA05</fips>
    <postal-code>NO</postal-code>
    <name>Northern</name>
    <country>Zambia</country>
    <type-en>Province</type-en>
    <region>NULL</region>
    <longitude>30.7539</longitude>
    <woe-name>Northern</woe-name>
    <latitude>-9.799060000000001</latitude>
    <woe-label>Northern, ZM, Zambia</woe-label>
    <type>Province</type>
    <hc-middle-x>0.42</hc-middle-x>
    <hc-middle-y>0.43</hc-middle-y>
    <hc-key>zm-no</hc-key>
    <hc-a2>NO</hc-a2>
  </desc>
</path>

<path fill="#CEE3F5" stroke="#6E6E6E" stroke-width="0.4" id="ZM.CE" d="M421.5,312.8 L424.8,312.6 L427.6,315.6 L435.9,310.8 L444.3,307.6 L449.0,303.7 L451.8,303.2 L457.3,307.3 L453.3,312.2 L454.7,315.6 L459.3,317.3 L464.0,317.3 L464.9,315.4 L465.9,238.6 L467.5,238.1 L470.0,231.5 L477.8,229.1 L482.9,238.0 L487.5,241.4 L504.0,247.8 L507.9,248.5 L507.5,257.4 L511.0,259.6 L511.2,264.3 L515.4,267.5 L517.9,265.5 L523.0,270.2 L520.8,276.1 L522.1,282.5 L527.9,286.4 L538.1,287.6 L544.0,293.2 L546.1,293.0 L547.8,288.7 L553.0,287.6 L557.7,291.5 L558.3,304.8 L561.9,310.7 L561.9,317.5 L551.7,322.1 L549.5,326.2 L544.3,327.6 L542.0,334.1 L533.8,340.4 L528.4,347.0 L482.4,346.4 L485.7,348.2 L487.7,353.7 L494.4,356.8 L495.4,359.4 L493.6,363.3 L489.5,366.1 L483.2,373.4 L481.2,373.5 L478.2,377.4 L475.7,387.3 L479.0,391.3 L470.6,390.1 L469.1,392.5 L465.3,392.6 L456.4,395.7 L446.8,400.9 L443.9,408.6 L435.1,409.3 L430.2,408.0 L413.6,413.0 L406.2,419.5 L401.5,421.0 L391.2,421.7 L381.6,419.1 L379.9,420.1 L374.8,430.9 L369.6,430.9 L359.7,427.6 L349.6,425.9 L344.6,428.2 L344.3,430.4 L351.3,432.8 L353.6,438.5 L352.1,442.3 L345.8,444.1 L343.3,449.4 L339.5,450.6 L337.2,448.0 L337.4,443.6 L335.7,441.5 L330.2,439.6 L325.3,445.3 L322.9,444.5 L317.7,454.1 L315.2,453.3 L312.2,440.1 L310.7,439.2 L297.0,438.5 L297.4,435.9 L289.6,431.3 L283.9,430.4 L200.2,428.5 L200.3,421.0 L204.7,418.6 L207.8,411.5 L205.8,402.8 L209.1,397.2 L209.0,391.1 L213.1,385.1 L217.4,383.3 L250.0,387.1 L251.5,389.1 L259.0,392.9 L261.6,391.8 L262.0,388.7 L268.8,381.6 L271.3,377.9 L274.5,376.2 L283.2,376.6 L287.3,374.5 L294.6,374.2 L296.2,372.0 L296.1,364.4 L297.6,359.6 L293.7,354.0 L290.8,352.1 L293.4,349.9 L293.6,343.9 L296.1,338.5 L290.1,332.2 L314.3,332.9 L319.4,333.6 L322.1,343.2 L323.5,344.5 L328.1,339.8 L327.9,336.9 L330.9,338.3 L335.8,331.3 L336.6,328.0 L347.6,331.2 L351.6,341.0 L355.2,344.7 L367.0,342.7 L370.3,341.5 L375.2,342.6 L383.9,343.0 L398.1,340.6 L397.6,333.9 L406.7,326.7 L409.9,323.1 L414.8,320.7 Z">
  <desc xmlns="http://www.highcharts.com/svg/namespace">
    <labelrank>4</labelrank>
    <hasc>ZM.CE</hasc>
    <alt-name>Broken Hill</alt-name>
    <woe-id>2347805</woe-id>
    <subregion>NULL</subregion>
    <fips>ZA02</fips>
    <postal-code>CE</postal-code>
    <name>Central</name>
    <country>Zambia</country>
    <type-en>Province</type-en>
    <region>NULL</region>
    <longitude>28.3755</longitude>
    <woe-name>Central</woe-name>
    <latitude>-14.5199</latitude>
    <woe-label>Central, ZM, Zambia</woe-label>
    <type>Province</type>
    <hc-middle-x>0.39</hc-middle-x>
    <hc-middle-y>0.73</hc-middle-y>
    <hc-key>zm-ce</hc-key>
    <hc-a2>CE</hc-a2>
  </desc>
</path>

<path fill="#CEE3F5" stroke="#6E6E6E" stroke-width="0.4" id="ZM.EA" d="M479.0,391.3 L475.7,387.3 L478.2,377.4 L481.2,373.5 L483.2,373.4 L489.5,366.1 L493.6,363.3 L495.4,359.4 L494.4,356.8 L487.7,353.7 L485.7,348.2 L482.4,346.4 L528.4,347.0 L533.8,340.4 L542.0,334.1 L544.3,327.6 L549.5,326.2 L551.7,322.1 L561.9,317.5 L567.2,317.4 L574.5,311.6 L576.8,303.5 L581.6,298.4 L586.6,295.1 L591.2,293.4 L591.4,287.6 L597.6,284.2 L600.8,278.6 L602.3,270.7 L603.9,267.0 L605.4,258.4 L608.8,252.1 L612.6,249.0 L614.8,243.4 L623.3,244.6 L626.4,241.6 L630.0,235.6 L641.1,235.3 L662.9,229.1 L669.7,216.9 L671.0,212.4 L676.3,210.7 L676.7,218.5 L675.6,224.0 L676.4,226.2 L672.7,236.8 L672.5,240.8 L675.3,244.3 L676.9,250.6 L680.1,253.2 L684.6,252.0 L688.6,253.2 L679.2,264.1 L672.1,264.8 L666.5,270.0 L664.6,267.7 L659.7,267.8 L654.0,276.1 L653.2,283.3 L656.6,286.4 L654.0,300.0 L655.6,304.6 L650.9,310.8 L648.0,319.8 L644.7,321.4 L644.2,324.8 L638.8,327.5 L636.1,327.1 L635.9,330.7 L641.5,332.0 L643.7,335.3 L640.9,339.9 L646.6,342.0 L653.3,350.4 L652.9,354.2 L654.6,356.9 L657.6,353.7 L664.0,350.2 L666.7,355.0 L608.3,373.4 L601.2,374.8 L596.7,376.8 L574.3,383.7 L564.6,388.5 L559.5,390.3 L539.5,394.8 L524.1,397.8 L504.5,404.7 L494.6,409.4 L488.4,410.3 L488.1,401.1 Z">
  <desc xmlns="http://www.highcharts.com/svg/namespace">
    <labelrank>4</labelrank>
    <hasc>ZM.EA</hasc>
    <alt-name>Fort Jameson</alt-name>
    <woe-id>2347806</woe-id>
    <subregion>NULL</subregion>
    <fips>ZA03</fips>
    <postal-code>EA</postal-code>
    <name>Eastern</name>
    <country>Zambia</country>
    <type-en>Province</type-en>
    <region>NULL</region>
    <longitude>31.8341</longitude>
    <woe-name>Eastern</woe-name>
    <latitude>-13.7617</latitude>
    <woe-label>Eastern, ZM, Zambia</woe-label>
    <type>Province</type>
    <hc-middle-x>0.61</hc-middle-x>
    <hc-middle-y>0.55</hc-middle-y>
    <hc-key>zm-ea</hc-key>
    <hc-a2>EA</hc-a2>
  </desc>
</path>

<path fill="#CEE3F5" stroke="#6E6E6E" stroke-width="0.4" id="ZM.LS" d="M479.0,391.3 L488.1,401.1 L488.4,410.3 L489.0,417.8 L492.5,428.4 L495.2,430.0 L497.2,434.3 L498.3,441.3 L496.9,445.6 L499.5,449.7 L494.5,451.1 L490.2,449.6 L487.4,451.0 L482.9,449.2 L475.8,450.4 L465.6,448.4 L454.5,451.4 L450.9,450.7 L446.2,453.5 L440.3,454.1 L427.2,459.9 L422.2,463.4 L418.7,468.0 L413.1,468.6 L410.9,466.9 L405.0,468.5 L401.2,467.9 L397.3,464.7 L390.8,463.7 L388.3,461.0 L380.5,457.8 L374.7,458.2 L372.0,459.7 L368.0,457.3 L360.0,454.5 L358.0,451.5 L353.4,450.4 L349.1,451.9 L348.3,450.3 L343.3,449.4 L345.8,444.1 L352.1,442.3 L353.6,438.5 L351.3,432.8 L344.3,430.4 L344.6,428.2 L349.6,425.9 L359.7,427.6 L369.6,430.9 L374.8,430.9 L379.9,420.1 L381.6,419.1 L391.2,421.7 L401.5,421.0 L406.2,419.5 L413.6,413.0 L430.2,408.0 L435.1,409.3 L443.9,408.6 L446.8,400.9 L456.4,395.7 L465.3,392.6 L469.1,392.5 L470.6,390.1 Z">
  <desc xmlns="http://www.highcharts.com/svg/namespace">
    <labelrank>7</labelrank>
    <hasc>ZM.LS</hasc>
    <alt-name>NULL</alt-name>
    <woe-id>2347809</woe-id>
    <subregion>NULL</subregion>
    <fips>ZA02</fips>
    <postal-code>LS</postal-code>
    <name>Lusaka</name>
    <country>Zambia</country>
    <type-en>Province</type-en>
    <region>NULL</region>
    <longitude>29.0846</longitude>
    <woe-name>Lusaka</woe-name>
    <latitude>-15.4426</latitude>
    <woe-label>Lusaka, ZM, Zambia</woe-label>
    <type>Province</type>
    <hc-middle-x>0.55</hc-middle-x>
    <hc-middle-y>0.52</hc-middle-y>
    <hc-key>zm-ls</hc-key>
    <hc-a2>LS</hc-a2>
  </desc>
</path>

<path fill="#CEE3F5" stroke="#6E6E6E" stroke-width="0.4" id="ZM.CO" d="M334.0,242.8 L338.5,246.5 L345.8,246.1 L348.4,243.9 L354.5,246.6 L356.0,250.5 L363.7,251.1 L366.2,254.2 L369.5,252.6 L372.6,254.7 L378.7,255.6 L383.6,259.9 L388.9,268.9 L386.6,273.0 L390.4,278.9 L390.6,282.0 L393.1,282.3 L395.3,279.3 L398.1,279.9 L405.9,289.2 L409.0,297.4 L411.9,299.0 L413.7,307.9 L417.2,313.2 L421.5,312.8 L414.8,320.7 L409.9,323.1 L406.7,326.7 L397.6,333.9 L398.1,340.6 L383.9,343.0 L375.2,342.6 L370.3,341.5 L367.0,342.7 L355.2,344.7 L351.6,341.0 L347.6,331.2 L336.6,328.0 L335.8,331.3 L330.9,338.3 L327.9,336.9 L328.1,339.8 L323.5,344.5 L322.1,343.2 L319.4,333.6 L314.3,332.9 L290.1,332.2 L286.3,327.7 L287.2,321.8 L290.5,315.3 L293.0,314.2 L297.3,309.0 L296.5,303.5 L297.7,300.3 L302.8,295.7 L304.4,288.8 L301.1,288.3 L299.4,286.0 L291.7,281.8 L293.2,278.2 L289.8,273.4 L292.1,266.7 L296.1,265.1 L299.4,260.7 L303.4,259.4 L302.1,256.1 L301.9,248.3 L315.3,249.0 L324.3,242.9 L329.3,246.3 Z">
  <desc xmlns="http://www.highcharts.com/svg/namespace">
    <labelrank>4</labelrank>
    <hasc>ZM.CO</hasc>
    <alt-name>Western</alt-name>
    <woe-id>2347802</woe-id>
    <subregion>NULL</subregion>
    <fips>ZA08</fips>
    <postal-code>CO</postal-code>
    <name>Copperbelt</name>
    <country>Zambia</country>
    <type-en>Province</type-en>
    <region>NULL</region>
    <longitude>27.9272</longitude>
    <woe-name>Copperbelt</woe-name>
    <latitude>-13.1044</latitude>
    <woe-label>Copperbelt, ZM, Zambia</woe-label>
    <type>Province</type>
    <hc-middle-x>0.50</hc-middle-x>
    <hc-middle-y>0.53</hc-middle-y>
    <hc-key>zm-co</hc-key>
    <hc-a2>CO</hc-a2>
  </desc>
</path>

<path fill="#CEE3F5" stroke="#6E6E6E" stroke-width="0.4" id="ZM.NW" d="M290.1,332.2 L296.1,338.5 L293.6,343.9 L293.4,349.9 L290.8,352.1 L293.7,354.0 L297.6,359.6 L296.1,364.4 L296.2,372.0 L294.6,374.2 L287.3,374.5 L283.2,376.6 L274.5,376.2 L271.3,377.9 L268.8,381.6 L262.0,388.7 L261.6,391.8 L259.0,392.9 L251.5,389.1 L250.0,387.1 L217.4,383.3 L213.1,385.1 L207.4,386.3 L199.3,384.7 L191.9,387.4 L183.1,388.4 L178.4,383.4 L178.5,379.0 L183.5,375.7 L185.7,364.8 L183.9,362.7 L179.9,362.7 L173.3,359.4 L165.9,357.5 L163.2,350.5 L160.3,347.5 L153.9,349.1 L150.0,345.2 L149.0,347.3 L143.7,347.7 L138.9,343.7 L138.1,346.6 L134.2,344.6 L128.9,347.6 L126.3,347.1 L121.8,350.3 L111.7,349.8 L111.2,347.9 L105.3,351.4 L102.3,350.1 L93.9,354.4 L87.8,356.1 L83.0,359.4 L77.7,361.3 L72.8,360.6 L75.4,355.8 L68.8,354.5 L67.4,350.5 L61.9,350.9 L59.7,347.5 L51.8,343.8 L46.5,346.4 L45.3,350.9 L39.9,349.4 L34.5,346.3 L19.1,334.2 L15.9,332.8 L11.9,336.8 L7.7,337.8 L0.9,333.9 L0.0,291.7 L120.4,289.8 L117.3,284.0 L112.2,277.1 L115.8,263.2 L121.8,252.4 L120.9,246.0 L117.4,241.0 L117.6,222.0 L118.9,219.0 L117.0,205.8 L120.0,200.1 L119.9,196.2 L123.0,192.3 L119.9,184.9 L120.1,176.3 L118.5,175.2 L119.3,167.3 L117.0,160.6 L121.9,161.2 L125.9,163.4 L126.5,170.9 L136.7,171.2 L142.0,175.5 L142.7,185.1 L139.6,189.9 L136.4,191.3 L141.5,193.0 L146.1,196.2 L153.1,195.0 L154.8,192.3 L161.9,187.8 L168.8,187.2 L175.7,184.2 L186.6,183.5 L195.8,179.9 L198.4,180.2 L198.6,184.9 L195.9,191.8 L198.1,197.0 L197.0,198.5 L200.3,206.9 L208.1,211.1 L210.1,214.7 L213.7,211.8 L216.5,211.8 L222.7,216.2 L230.2,215.7 L238.8,222.4 L249.1,222.2 L256.9,224.6 L263.9,222.8 L268.3,225.7 L277.5,227.2 L280.7,229.1 L284.5,226.2 L291.3,225.9 L296.9,220.2 L297.7,212.9 L300.1,209.8 L299.4,204.4 L309.6,202.0 L311.2,206.2 L312.8,216.5 L323.9,223.4 L326.7,228.2 L329.9,239.0 L334.0,242.8 L329.3,246.3 L324.3,242.9 L315.3,249.0 L301.9,248.3 L302.1,256.1 L303.4,259.4 L299.4,260.7 L296.1,265.1 L292.1,266.7 L289.8,273.4 L293.2,278.2 L291.7,281.8 L299.4,286.0 L301.1,288.3 L304.4,288.8 L302.8,295.7 L297.7,300.3 L296.5,303.5 L297.3,309.0 L293.0,314.2 L290.5,315.3 L287.2,321.8 L286.3,327.7 Z">
  <desc xmlns="http://www.highcharts.com/svg/namespace">
    <labelrank>4</labelrank>
    <hasc>ZM.NW</hasc>
    <alt-name>NULL</alt-name>
    <woe-id>2347801</woe-id>
    <subregion>NULL</subregion>
    <fips>ZA06</fips>
    <postal-code>NW</postal-code>
    <name>North-Western</name>
    <country>Zambia</country>
    <type-en>Province</type-en>
    <region>NULL</region>
    <longitude>24.7847</longitude>
    <woe-name>North-Western</woe-name>
    <latitude>-12.7303</latitude>
    <woe-label>North-Western, ZM, Zambia</woe-label>
    <type>Province</type>
    <hc-middle-x>0.58</hc-middle-x>
    <hc-middle-y>0.56</hc-middle-y>
    <hc-key>zm-nw</hc-key>
    <hc-a2>NW</hc-a2>
  </desc>
</path>

<path fill="#CEE3F5" stroke="#6E6E6E" stroke-width="0.4" id="ZM.SO" d="M343.3,449.4 L348.3,450.3 L349.1,451.9 L353.4,450.4 L358.0,451.5 L360.0,454.5 L368.0,457.3 L372.0,459.7 L374.7,458.2 L380.5,457.8 L388.3,461.0 L390.8,463.7 L397.3,464.7 L401.2,467.9 L405.0,468.5 L410.9,466.9 L413.1,468.6 L407.9,474.1 L408.5,476.4 L407.1,483.4 L408.1,485.1 L406.4,489.7 L407.6,494.7 L405.5,499.7 L401.9,503.3 L398.2,503.3 L397.2,500.2 L383.0,503.9 L380.6,507.4 L375.5,503.5 L373.8,504.8 L376.6,506.9 L372.8,508.3 L371.6,510.7 L367.0,509.4 L367.6,512.7 L364.9,516.8 L362.1,516.0 L361.4,521.2 L357.6,522.6 L352.9,517.2 L348.9,517.6 L349.1,520.3 L345.3,519.6 L344.2,522.0 L349.2,525.3 L343.9,527.2 L341.6,526.3 L339.2,528.4 L341.9,529.5 L337.2,532.9 L340.4,535.0 L336.7,536.7 L336.0,533.7 L329.4,541.7 L329.0,545.0 L323.2,548.1 L325.0,550.2 L317.6,557.3 L317.6,559.5 L321.0,559.3 L319.9,564.1 L316.7,564.8 L315.5,567.9 L313.1,567.4 L304.0,578.6 L303.5,581.8 L306.7,581.1 L299.2,589.7 L292.3,591.0 L282.1,595.9 L276.4,594.5 L273.9,592.1 L264.5,588.3 L259.7,588.1 L252.5,585.2 L239.5,592.0 L232.9,590.4 L232.8,587.5 L228.3,583.8 L222.2,580.8 L211.4,583.5 L202.1,582.7 L195.9,578.0 L193.7,577.6 L190.6,573.4 L180.7,565.9 L181.6,560.4 L183.7,557.8 L183.5,552.1 L188.0,545.3 L187.7,539.7 L191.7,535.3 L191.4,532.6 L196.0,530.3 L198.3,526.0 L196.1,519.0 L196.6,513.9 L188.2,512.0 L186.4,508.4 L181.8,504.5 L190.0,494.2 L198.6,488.8 L202.4,481.0 L206.5,476.1 L202.0,473.7 L201.1,470.9 L203.8,463.5 L204.7,457.0 L203.4,454.5 L198.8,456.5 L196.5,454.1 L197.3,449.0 L194.4,446.4 L197.0,442.2 L196.0,439.4 L198.6,438.8 L201.4,430.9 L200.2,428.5 L283.9,430.4 L289.6,431.3 L297.4,435.9 L297.0,438.5 L310.7,439.2 L312.2,440.1 L315.2,453.3 L317.7,454.1 L322.9,444.5 L325.3,445.3 L330.2,439.6 L335.7,441.5 L337.4,443.6 L337.2,448.0 L339.5,450.6 Z">
  <desc xmlns="http://www.highcharts.com/svg/namespace">
    <labelrank>4</labelrank>
    <hasc>ZM.SO</hasc>
    <alt-name>NULL</alt-name>
    <woe-id>2347804</woe-id>
    <subregion>NULL</subregion>
    <fips>ZA07</fips>
    <postal-code>SO</postal-code>
    <name>Southern</name>
    <country>Zambia</country>
    <type-en>Province</type-en>
    <region>NULL</region>
    <longitude>26.9583</longitude>
    <woe-name>Southern</woe-name>
    <latitude>-16.6906</latitude>
    <woe-label>Southern, ZM, Zambia</woe-label>
    <type>Province</type>
    <hc-middle-x>0.38</hc-middle-x>
    <hc-middle-y>0.49</hc-middle-y>
    <hc-key>zm-so</hc-key>
    <hc-a2>SO</hc-a2>
  </desc>
</path>

<path fill="#CEE3F5" stroke="#6E6E6E" stroke-width="0.4" id="ZM.WE" d="M213.1,385.1 L209.0,391.1 L209.1,397.2 L205.8,402.8 L207.8,411.5 L204.7,418.6 L200.3,421.0 L200.2,428.5 L201.4,430.9 L198.6,438.8 L196.0,439.4 L197.0,442.2 L194.4,446.4 L197.3,449.0 L196.5,454.1 L198.8,456.5 L203.4,454.5 L204.7,457.0 L203.8,463.5 L201.1,470.9 L202.0,473.7 L206.5,476.1 L202.4,481.0 L198.6,488.8 L190.0,494.2 L181.8,504.5 L186.4,508.4 L188.2,512.0 L196.6,513.9 L196.1,519.0 L198.3,526.0 L196.0,530.3 L191.4,532.6 L191.7,535.3 L187.7,539.7 L188.0,545.3 L183.5,552.1 L183.7,557.8 L181.6,560.4 L180.7,565.9 L176.5,564.2 L161.4,562.0 L158.0,564.5 L147.8,561.1 L137.0,561.5 L93.8,571.2 L88.3,572.2 L88.3,569.7 L82.9,565.9 L78.0,566.3 L76.1,562.5 L70.0,558.2 L65.5,551.5 L58.3,548.9 L51.1,543.4 L48.4,537.4 L44.8,534.0 L40.0,531.9 L35.8,527.8 L30.7,519.5 L25.8,514.7 L20.1,514.3 L12.4,507.1 L10.6,501.9 L12.0,497.1 L9.0,496.3 L6.3,489.5 L8.2,489.5 L4.5,484.3 L4.1,474.3 L3.3,438.4 L0.9,333.9 L7.7,337.8 L11.9,336.8 L15.9,332.8 L19.1,334.2 L34.5,346.3 L39.9,349.4 L45.3,350.9 L46.5,346.4 L51.8,343.8 L59.7,347.5 L61.9,350.9 L67.4,350.5 L68.8,354.5 L75.4,355.8 L72.8,360.6 L77.7,361.3 L83.0,359.4 L87.8,356.1 L93.9,354.4 L102.3,350.1 L105.3,351.4 L111.2,347.9 L111.7,349.8 L121.8,350.3 L126.3,347.1 L128.9,347.6 L134.2,344.6 L138.1,346.6 L138.9,343.7 L143.7,347.7 L149.0,347.3 L150.0,345.2 L153.9,349.1 L160.3,347.5 L163.2,350.5 L165.9,357.5 L173.3,359.4 L179.9,362.7 L183.9,362.7 L185.7,364.8 L183.5,375.7 L178.5,379.0 L178.4,383.4 L183.1,388.4 L191.9,387.4 L199.3,384.7 L207.4,386.3 Z">
  <desc xmlns="http://www.highcharts.com/svg/namespace">
    <labelrank>4</labelrank>
    <hasc>ZM.WE</hasc>
    <alt-name>Barotseland</alt-name>
    <woe-id>2347803</woe-id>
    <subregion>NULL</subregion>
    <fips>ZA01</fips>
    <postal-code>WE</postal-code>
    <name>Western</name>
    <country>Zambia</country>
    <type-en>Province</type-en>
    <region>NULL</region>
    <longitude>23.7642</longitude>
    <woe-name>Western</woe-name>
    <latitude>-15.7815</latitude>
    <woe-label>Western, ZM, Zambia</woe-label>
    <type>Province</type>
    <hc-middle-x>0.49</hc-middle-x>
    <hc-middle-y>0.52</hc-middle-y>
    <hc-key>zm-we</hc-key>
    <hc-a2>WE</hc-a2>
  </desc>
</path>

<path fill="#CEE3F5" stroke="#6E6E6E" stroke-width="0.4" id="ZM.MU" d="M676.3,210.7 L671.0,212.4 L669.7,216.9 L662.9,229.1 L641.1,235.3 L630.0,235.6 L626.4,241.6 L623.3,244.6 L614.8,243.4 L612.6,249.0 L608.8,252.1 L605.4,258.4 L603.9,267.0 L602.3,270.7 L600.8,278.6 L597.6,284.2 L591.4,287.6 L591.2,293.4 L586.6,295.1 L581.6,298.4 L576.8,303.5 L574.5,311.6 L567.2,317.4 L561.9,317.5 L561.9,310.7 L558.3,304.8 L557.7,291.5 L553.0,287.6 L547.8,288.7 L546.1,293.0 L544.0,293.2 L538.1,287.6 L527.9,286.4 L522.1,282.5 L520.8,276.1 L523.0,270.2 L517.9,265.5 L515.4,267.5 L511.2,264.3 L511.0,259.6 L507.5,257.4 L507.9,248.5 L504.0,247.8 L487.5,241.4 L482.9,238.0 L477.8,229.1 L470.0,231.5 L467.5,238.1 L465.9,238.6 L465.9,238.4 L466.9,234.1 L464.7,230.1 L465.4,222.8 L492.7,218.6 L494.6,217.5 L505.0,204.5 L505.6,199.1 L509.6,196.7 L511.2,193.0 L516.0,188.6 L520.7,186.5 L523.0,181.8 L527.9,175.7 L529.5,172.4 L536.8,169.0 L538.7,164.2 L540.9,166.0 L542.2,163.7 L544.7,166.4 L549.0,161.5 L547.9,158.1 L551.0,157.7 L546.6,154.0 L551.3,151.5 L555.4,152.7 L557.7,150.5 L559.0,145.8 L567.3,142.2 L572.2,142.7 L572.2,127.5 L570.2,125.4 L559.7,119.7 L555.4,105.9 L550.9,98.2 L546.4,93.5 L552.1,84.9 L561.8,78.4 L565.8,81.0 L570.4,80.7 L574.4,82.7 L575.9,78.6 L580.5,80.2 L585.0,79.7 L594.2,74.8 L601.3,73.9 L613.4,76.1 L620.0,76.7 L619.6,70.6 L614.4,56.6 L623.6,56.8 L628.2,58.9 L631.6,64.4 L643.4,66.3 L646.2,69.7 L655.8,74.0 L655.9,77.5 L660.0,79.8 L658.9,85.8 L662.6,86.8 L665.2,89.6 L666.4,85.1 L671.0,86.1 L673.4,90.2 L673.4,93.7 L676.9,97.8 L680.6,99.8 L682.2,104.4 L678.7,111.2 L679.1,115.5 L684.0,117.8 L691.9,124.8 L691.6,130.2 L693.3,135.4 L700.0,146.1 L691.0,154.1 L689.3,157.6 L685.2,159.9 L678.3,160.4 L672.9,165.1 L675.8,166.1 L677.1,173.5 L682.1,181.6 L680.7,185.1 L672.1,196.7 L672.3,201.9 L670.9,205.7 L675.1,206.7 Z">
  <desc xmlns="http://www.highcharts.com/svg/namespace">
    <labelrank>4</labelrank>
    <hasc>ZM.MU</hasc>
    <alt-name>NULL</alt-name>
    <woe-id>2347807</woe-id>
    <subregion>NULL</subregion>
    <fips>ZA10</fips>
    <postal-code>MU</postal-code>
    <name>Muchinga</name>
    <country>Zambia</country>
    <type-en>Province</type-en>
    <region>NULL</region>
    <longitude>32.0234</longitude>
    <woe-name>Northern</woe-name>
    <latitude>-11.3701</latitude>
    <woe-label>Northern, ZM, Zambia</woe-label>
    <type>Province</type>
    <hc-middle-x>0.57</hc-middle-x>
    <hc-middle-y>0.51</hc-middle-y>
    <hc-key>zm-mu</hc-key>
    <hc-a2>MU</hc-a2>
  </desc>
</path>
</g>

<text x="350" y="714" text-anchor="middle" font-family="Verdana" font-size="8" stroke-opacity="0.6">Copyright (c) 2020 Highsoft AS, Based on data from Natural Earth</text>

</svg>