<?xml version="1.0" encoding="utf-8" standalone="no"?>
        <!DOCTYPE svg PUBLIC "-//W3C//DTD SVG 1.1//EN" "http://www.w3.org/Graphics/SVG/1.1/DTD/svg11.dtd">

        <svg version="1.1" viewBox="-5 -5 710 725" xmlns="http://www.w3.org/2000/svg" xmlns:xlink="http://www.w3.org/1999/xlink">
        <desc>
            Map version: 2.3.1
            Copyright (c) 2025 Highsoft AS, Based on data from OpenStreetMap
        </desc>
        <title>Italy</title>
        <g id="admin1">
<path fill="#CEE3F5" stroke="#6E6E6E" stroke-width="0.4" id="undefined" d="M312.0205,605.0219 313.9048,607.8483 318.2621,609.4381 319.4398,606.5528 317.2022,604.4919 313.9637,603.7264 312.0205,605.0219 M318.3799,536.0111 321.0296,538.2487 320.0875,536.0111 318.3799,536.0111 M332.5118,539.0141 334.0427,540.1329 337.8701,539.8974 334.9260,538.4842 332.5118,539.0141 M499.9748,609.6147 498.5616,607.3772 499.2682,603.6087 503.3311,597.4849 508.1006,595.7773 508.5717,594.2463 512.4579,593.1275 510.9859,591.8321 510.8681,591.8321 510.2793,590.1834 510.3382,590.1834 510.4559,589.6534 510.6915,589.3001 510.6915,589.2413 510.6915,589.0646 510.6326,589.0646 510.3970,588.0047 507.0407,587.4159 504.8032,584.7073 503.7433,581.5276 504.3910,580.0555 506.8052,579.9966 506.7463,579.9966 506.8052,579.9966 508.1006,579.9966 508.1006,579.9378 507.3940,579.2900 507.0996,578.8190 505.5098,577.5824 499.1504,575.8748 498.5027,574.4616 498.0905,565.8059 499.8570,562.9795 502.6245,560.7419 503.3311,557.7978 503.3311,557.7389 505.9219,552.1450 505.5098,549.3775 508.8661,546.1390 508.9250,546.0801 508.9838,545.0202 516.1676,536.7766 522.1736,530.5939 526.5898,524.0579 526.7076,521.5259 531.3594,519.4061 525.4711,517.5808 523.6457,517.8752 519.5828,520.5249 513.4590,522.6447 508.2773,523.1157 507.4529,520.3483 505.5098,524.3523 502.9189,526.5310 498.8560,528.2386 495.6763,526.4132 491.4367,526.4721 488.7870,524.3523 480.2490,526.2365 480.1901,526.2365 478.0114,525.8244 471.3577,531.1827 465.1161,532.8903 459.9344,532.8903 455.8715,534.4213 450.9842,534.8923 443.8594,534.1857 437.7355,534.1857 435.2036,532.8903 431.3762,533.4791 424.3102,536.3644 418.3631,536.7766 418.1275,536.7766 418.0098,536.7766 417.9509,536.7766 417.8331,536.7766 410.9438,534.0091 410.8849,533.9502 410.7672,533.9502 410.7672,533.8913 409.8250,533.5380 409.7662,533.4203 409.6484,533.3614 407.0575,531.7127 406.9987,531.6538 405.5266,528.7685 401.8758,529.7106 398.2840,529.2396 396.6941,527.8853 396.8119,524.7645 393.9855,522.2914 389.6282,523.9401 386.5663,525.3533 381.4435,524.0579 378.4993,527.1198 379.8536,530.1228 374.4364,532.8314 368.9014,533.8913 364.0730,530.7116 361.2466,524.8234 358.7736,525.0000 359.8334,527.1198 357.9492,529.0629 352.1787,531.6538 350.1178,531.1827 346.9381,534.1269 345.5249,538.0131 343.6995,540.4273 344.9950,542.5471 343.5818,546.1390 341.5797,546.7278 344.1706,550.3785 344.1706,552.5572 347.0559,555.3247 349.4112,555.1480 352.5320,556.7968 355.2995,560.8597 366.6050,559.8587 372.4933,560.6830 375.2019,562.7439 376.2618,564.9226 384.3876,564.9226 390.1581,568.7500 391.6302,570.9876 400.1682,575.7571 403.8779,577.1703 407.9997,577.3469 415.4778,583.0585 419.5407,584.8250 423.7214,585.6494 427.8432,588.2402 439.3254,587.2392 446.3913,589.4179 451.8674,592.2443 457.4024,597.4260 462.8197,606.3762 468.4135,607.1417 472.9475,608.6726 474.4785,610.3213 480.0135,611.6168 484.4297,610.1447 486.9616,610.1447 491.3779,612.3234 493.6154,611.6168 498.5027,614.5020 500.4458,613.6777 499.9748,609.6147 M349.2345,681.8052 349.3523,681.8052 352.0020,682.9240 352.9441,681.7463 349.2345,681.8052 M349.3523,681.8052 349.2345,681.8052 349.3523,681.8052 349.2345,681.8052 349.3523,681.8052 349.2345,681.8052 349.3523,681.8052 349.2345,681.8052 349.3523,681.8052 M406.9987,531.6538 407.0575,531.6538 406.9987,531.6538 M407.0575,531.6538 407.0575,531.7127 407.0575,531.6538 M409.7662,533.4203 409.6484,533.3614 409.7662,533.4203 M410.7672,533.9502 410.7672,533.8913 410.7672,533.9502 M410.7672,533.9502 410.8849,533.9502 410.7672,533.9502 M417.8331,536.7766 417.9509,536.7766 418.1275,536.7766 418.3631,536.7766 418.1275,536.7766 418.0098,536.7766 417.9509,536.7766 417.8331,536.7766 M480.1901,526.2365 480.2490,526.2365 480.1901,526.2365 M481.1322,501.7413 484.8419,503.5666 485.1952,501.0935 481.1322,501.7413 M487.0205,506.9229 489.9647,508.7483 490.7301,504.7443 487.7271,504.9798 487.0205,506.9229 M489.7291,511.1036 491.9078,513.6945 492.1433,511.2803 489.7291,511.1036 M503.3311,557.7978 503.3311,557.7389 503.3311,557.7978 M504.0377,488.7281 505.9219,489.7880 505.8042,487.5505 504.0377,488.7281 M506.7463,579.9966 506.8052,579.9966 506.7463,579.9966 M508.1006,579.9966 508.1006,579.9378 508.1006,579.9966 M508.8661,546.1390 508.9250,546.0801 508.8661,546.1390 M510.3382,590.1834 510.2793,590.1834 510.3382,590.1834 M510.6326,589.0646 510.6915,589.0646 510.6326,589.0646 M510.6915,589.3001 510.6915,589.2413 510.6915,589.3001 M510.8681,591.8321 510.9859,591.8321 510.8681,591.8321 M510.8681,591.8321 510.9859,591.8321 510.8681,591.8321Z">
                    <desc xmlns="http://www.highcharts.com/svg/namespace">
<name>Sicilia</name>
<iso3166-2>IT-82</iso3166-2>
<hc-group>admin1</hc-group>
<hc-key>it-82</hc-key>
<hc-a2>SI</hc-a2>
<hc-middle-lon>13.788</hc-middle-lon>
<hc-middle-lat>37.153</hc-middle-lat>
</desc>


                </path>
<path fill="#CEE3F5" stroke="#6E6E6E" stroke-width="0.4" id="undefined" d="M493.4388,330.0387 495.5585,332.3940 498.8560,333.1006 498.7971,335.6326 496.5007,336.6925 497.7961,339.2244 500.7402,340.9320 504.7443,342.1097 507.7473,342.7574 509.5138,344.5239 507.4529,344.7594 508.5128,346.8792 505.5098,348.7635 505.3920,349.8822 508.5128,352.3553 508.8072,352.4142 514.4011,353.6507 516.2853,352.3553 519.1706,354.0629 525.0589,355.3583 527.2964,352.8853 533.3025,353.5919 537.4243,352.8853 538.5431,353.6507 541.8994,351.1188 544.8435,350.4711 547.1989,352.1787 550.7318,353.1797 551.8506,355.3583 553.0871,355.5939 553.4993,355.7705 554.3237,356.5949 554.3826,356.5949 554.3237,356.5949 554.3826,356.5949 553.4993,357.5959 553.7349,358.3025 551.5562,361.5999 557.4445,363.3664 558.3866,364.3085 561.9196,362.9542 563.7450,363.4253 566.3358,368.1359 568.2789,370.3146 575.3449,375.7907 577.3469,375.9674 581.4687,372.6699 583.2941,373.6709 585.9438,372.4933 589.2413,373.1410 594.7174,375.4374 593.7164,380.2069 594.8351,382.1501 593.4808,384.7998 595.3062,387.3318 594.3641,389.1571 598.9569,390.3937 600.4290,392.8668 602.9610,394.1622 609.3792,388.5683 613.7365,386.9785 620.5670,387.6262 621.4502,388.9805 625.3365,387.9206 629.8116,388.2150 628.2217,389.7460 624.2766,389.5693 625.5720,390.6881 623.1578,393.4556 625.9253,394.2211 634.1689,398.0485 636.7009,398.0485 640.9404,399.6972 651.9515,399.6972 655.7201,400.2860 661.6083,400.6982 664.5525,402.5824 665.2591,406.7042 670.2052,411.0027 668.8509,414.3001 670.9707,416.3022 669.3809,417.6565 673.8560,422.7204 682.0996,427.0188 685.3382,427.0777 689.1067,429.1975 692.5808,428.3143 692.6396,422.9559 695.2305,416.2433 697.8213,414.6534 699.2934,412.1215 700.0000,409.5306 696.6437,405.4088 696.9381,404.5845 693.1696,399.5794 693.0518,399.3439 692.9341,399.2850 692.3452,398.8728 692.0508,398.5195 683.6894,391.2180 677.1534,388.5683 671.8540,384.7998 672.2073,382.2090 670.3230,379.7359 666.7312,379.6770 665.5535,377.5572 660.3718,376.9684 657.2510,375.3197 657.1332,375.3197 657.0744,375.3197 653.3059,373.3176 652.7759,373.0821 652.3048,372.9055 652.2460,372.9055 651.8338,372.7877 651.8338,372.7288 643.7079,370.6090 638.5262,368.5481 633.8745,365.1329 631.4603,364.3085 629.9293,362.3065 624.7476,359.0680 614.0898,354.0629 610.6746,353.5330 601.8422,350.7066 601.8422,350.6477 597.8970,349.3523 586.2382,346.4081 581.8220,344.1117 578.5246,343.4051 573.6373,340.8731 567.8079,339.4600 565.0993,337.9290 551.1440,332.6295 548.0821,330.4509 545.8445,327.0945 546.0212,322.3839 547.4933,320.9707 553.6171,318.5565 558.2100,315.1413 560.5064,314.4936 563.3328,312.0794 562.3906,306.4855 558.2688,303.9536 553.4993,303.0703 534.5390,304.8368 529.4751,304.0124 521.8203,305.2490 515.2843,305.6023 512.9879,304.6013 501.0935,304.0713 501.1524,304.0124 501.0935,304.0713 501.2113,306.7799 498.9149,309.6063 499.2093,309.9007 499.6215,310.3129 499.0915,314.8469 500.7402,316.4367 501.2113,316.5545 502.5656,316.8489 496.2651,319.7342 493.5565,321.9717 490.6124,320.6174 489.1992,321.9717 490.0236,324.8570 489.2581,327.5656 493.4388,330.0387 M601.8422,350.7066 601.8422,350.6477 601.8422,350.7066 M651.8338,372.7877 651.8338,372.7288 651.8338,372.7877 M652.2460,372.9055 652.3048,372.9055 652.2460,372.9055 M657.0744,375.3197 657.1332,375.3197 657.0744,375.3197 M692.0508,398.5195 692.1097,398.5195 692.0508,398.5195 M692.0508,398.5195 692.1097,398.5195 692.0508,398.5195 M693.0518,399.3439 693.1107,399.3439 693.1107,399.2850 693.0518,399.3439 M693.1107,399.3439 693.1107,399.2850 693.1107,399.3439Z">
                    <desc xmlns="http://www.highcharts.com/svg/namespace">
<name>Puglia</name>
<iso3166-2>IT-75</iso3166-2>
<hc-group>admin1</hc-group>
<hc-key>it-75</hc-key>
<hc-a2>PU</hc-a2>
<hc-middle-lon>16.726</hc-middle-lon>
<hc-middle-lat>40.96</hc-middle-lat>
</desc>


                </path>
<path fill="#CEE3F5" stroke="#6E6E6E" stroke-width="0.4" id="undefined" d="M531.2416,414.9478 535.5989,419.0108 536.7766,421.4838 536.8943,421.4838 537.5421,422.0727 538.5431,419.8351 541.4283,417.3620 545.9034,418.5397 547.4344,417.5387 554.0293,418.4808 552.3806,419.8940 554.8536,423.6625 560.0942,423.3092 561.2719,422.2493 564.5693,423.6625 564.6871,421.8371 571.8708,421.3661 575.4627,416.5377 576.0515,410.4139 577.5236,410.0017 588.5347,409.8250 589.7123,410.4727 595.1884,405.4677 596.7194,401.6992 602.9610,394.1622 600.4290,392.8668 598.9569,390.3937 594.3641,389.1571 595.3062,387.3318 593.4808,384.7998 594.8351,382.1501 593.7164,380.2069 594.7174,375.4374 589.2413,373.1410 585.9438,372.4933 583.2941,373.6709 581.4687,372.6699 577.3469,375.9674 575.3449,375.7907 568.2789,370.3146 566.3358,368.1359 563.7450,363.4253 561.9196,362.9542 558.3866,364.3085 557.4445,363.3664 551.5562,361.5999 553.7349,358.3025 553.4993,357.5959 554.3826,356.5949 554.3237,356.5949 554.3826,356.5949 554.3237,356.5949 553.4993,355.7705 553.0871,355.5939 551.8506,355.3583 550.7318,353.1797 547.1989,352.1787 544.8435,350.4711 541.8994,351.1188 538.5431,353.6507 537.4243,352.8853 533.3025,353.5919 527.2964,352.8853 525.0589,355.3583 526.4132,358.3025 526.3543,360.5989 524.0579,363.8964 520.6427,365.4273 520.6427,365.4862 520.5838,365.6040 520.6427,365.6040 520.5838,365.6040 520.6427,365.6040 520.7604,366.1339 515.1666,365.4273 515.2254,368.3715 512.8112,368.4303 515.4021,369.8435 515.4610,374.9664 522.5858,378.3816 519.5239,381.7379 524.4112,383.8577 524.7645,386.5074 524.7056,388.7450 527.8264,391.2769 532.1248,394.5155 534.8334,395.3987 534.5390,397.5185 537.0710,399.9916 539.7796,400.5804 539.6618,404.7611 535.0690,407.0575 535.1867,407.5286 534.3624,408.2941 534.4213,408.5885 534.4213,411.0027 531.4771,412.9458 531.2416,414.9478 M536.7766,421.4838 536.8943,421.4838 536.7766,421.4838Z">
                    <desc xmlns="http://www.highcharts.com/svg/namespace">
<name>Basilicata</name>
<iso3166-2>IT-77</iso3166-2>
<hc-group>admin1</hc-group>
<hc-key>it-77</hc-key>
<hc-a2>BA</hc-a2>
<hc-middle-lon>16.101</hc-middle-lon>
<hc-middle-lat>40.518</hc-middle-lat>
</desc>


                </path>
<path fill="#CEE3F5" stroke="#6E6E6E" stroke-width="0.4" id="undefined" d="M420.1884,345.5249 425.4290,350.0589 428.9031,354.8873 429.5508,357.3015 432.8483,359.9512 432.9660,359.9512 433.0249,360.0101 433.1427,360.1279 433.0249,360.1867 435.3802,363.3075 437.2056,368.1948 436.5579,370.6679 438.5599,371.1390 438.4421,369.1369 440.3853,368.5481 446.0969,370.3735 447.3334,368.6070 450.3365,368.1359 452.8684,369.0192 457.3435,372.7288 460.3466,373.1999 460.4055,373.1999 462.5252,376.2618 455.1649,380.3836 453.5162,382.2090 454.1050,383.8577 458.9334,381.3257 462.8197,380.2658 466.1171,381.3846 470.2389,379.5592 474.0663,379.5003 478.7180,377.6161 481.8388,379.1470 487.2561,384.8587 492.9088,394.1622 492.9677,396.3997 489.6114,398.0485 489.7291,401.1692 487.8449,403.4068 492.4966,404.7022 495.0875,407.2931 500.8580,407.4697 503.9199,410.2961 505.5098,410.5316 509.2194,413.4169 509.5138,415.8311 511.4569,415.5367 513.7534,417.5387 517.4041,417.8331 524.4701,412.9458 529.7695,412.9458 531.2416,414.9478 531.4771,412.9458 534.4213,411.0027 534.4213,408.5885 534.3624,408.2941 535.1867,407.5286 535.0690,407.0575 539.6618,404.7611 539.7796,400.5804 537.0710,399.9916 534.5390,397.5185 534.8334,395.3987 532.1248,394.5155 527.8264,391.2769 524.7056,388.7450 524.7645,386.5074 524.4112,383.8577 519.5239,381.7379 522.5858,378.3816 515.4610,374.9664 515.4021,369.8435 512.8112,368.4303 515.2254,368.3715 515.1666,365.4273 520.7604,366.1339 520.6427,365.6040 520.5838,365.6040 520.6427,365.6040 520.5838,365.6040 520.6427,365.4862 520.6427,365.4273 524.0579,363.8964 526.3543,360.5989 526.4132,358.3025 525.0589,355.3583 519.1706,354.0629 516.2853,352.3553 514.4011,353.6507 508.8072,352.4142 508.5128,352.3553 505.3920,349.8822 505.5098,348.7635 508.5128,346.8792 507.4529,344.7594 509.5138,344.5239 507.7473,342.7574 504.7443,342.1097 500.7402,340.9320 497.7961,339.2244 496.5007,336.6925 498.7971,335.6326 498.8560,333.1006 495.5585,332.3940 493.4388,330.0387 489.9647,331.8052 483.6642,333.5128 480.6612,331.9818 480.6612,331.9229 480.6612,331.9818 480.6612,331.9229 478.4236,334.5138 473.0653,334.7493 469.5912,337.1046 462.8197,335.5148 462.2308,333.9250 450.7487,330.8631 448.3345,329.2732 444.3893,329.1555 443.9182,330.5098 441.5040,328.8022 438.7365,332.3351 440.7386,335.7503 436.5579,335.5148 432.8483,331.3930 428.9031,333.3950 425.9001,333.9838 427.1955,335.2204 426.6655,338.8122 427.3721,341.4620 424.3691,342.1686 424.3691,343.8173 420.7184,344.3472 420.1884,345.5249 M431.7884,374.8486 431.7884,374.7897 431.7884,374.8486 431.7884,374.7897 431.7884,374.6719 430.5518,373.7298 429.2564,373.3176 427.9610,373.2587 427.6666,373.2587 427.4899,373.1999 427.4310,373.1999 427.4310,373.1410 426.2534,373.6709 425.9590,374.0831 425.9001,374.0831 425.7234,374.5542 425.7823,374.6131 427.0777,376.3207 431.7884,374.8486 M425.7234,374.5542 425.7234,374.6131 425.7234,374.5542 M425.7234,374.6131 425.7234,374.5542 425.7234,374.6131 M425.7234,374.5542 425.7234,374.6131 425.7234,374.5542 M425.7234,374.6131 425.7823,374.6131 425.7234,374.6131 M425.9001,374.0831 425.9590,374.0831 425.9001,374.0831 M427.4310,373.1999 427.4899,373.1999 427.4310,373.1999 M427.6666,373.2587 427.9610,373.2587 427.6666,373.2587 M431.7884,374.8486 431.7884,374.7897 431.7884,374.8486 M431.7884,374.7897 431.8472,374.7897 431.7884,374.7897 M431.7884,374.6719 431.8472,374.6719 431.7884,374.6719 M431.8472,374.6719 431.8472,374.7897 431.8472,374.6719 M432.8483,359.9512 433.0249,360.1867 433.1427,360.1279 433.0249,360.0101 432.9660,359.9512 432.8483,359.9512 M435.7335,372.8466 435.7924,372.7877 435.8513,372.7877 435.9102,372.7877 434.4381,373.2587 435.7335,372.8466 M435.7335,372.8466 435.7924,372.8466 435.7924,372.7877 435.7924,372.8466 435.7335,372.8466 M435.7924,372.8466 435.8513,372.7877 435.9102,372.7877 435.8513,372.7877 435.7924,372.8466 M445.6258,385.6830 449.5710,384.9176 446.5091,384.5054 445.6258,385.6830 M460.3466,373.1999 460.4055,373.1999 460.3466,373.1999Z">
                    <desc xmlns="http://www.highcharts.com/svg/namespace">
<name>Campania</name>
<iso3166-2>IT-72</iso3166-2>
<hc-group>admin1</hc-group>
<hc-key>it-72</hc-key>
<hc-a2>CA</hc-a2>
<hc-middle-lon>14.784</hc-middle-lon>
<hc-middle-lat>40.751</hc-middle-lat>
</desc>


                </path>
<path fill="#CEE3F5" stroke="#6E6E6E" stroke-width="0.4" id="undefined" d="M283.9334,277.5151 289.2328,279.2227 296.2399,283.2857 300.8917,289.9394 301.9515,292.5303 305.0723,295.0622 306.5444,297.6531 311.5495,297.4764 318.9687,301.8927 324.4448,304.4835 328.5077,309.9596 330.0976,315.0236 338.1645,318.1443 341.8742,320.6763 348.5279,326.6235 352.8264,331.5697 354.8284,331.2164 361.3055,333.8661 367.0760,334.2783 370.8445,336.2214 374.7308,339.5188 377.9105,345.3483 380.6191,345.3483 385.9775,342.2275 394.3388,341.2264 399.7561,342.9929 407.1753,346.3493 411.4149,343.4051 417.7742,343.8173 420.1884,345.5249 420.7184,344.3472 424.3691,343.8173 424.3691,342.1686 427.3721,341.4620 426.6655,338.8122 427.1955,335.2204 425.9001,333.9838 428.9031,333.3950 432.8483,331.3930 432.6127,329.3321 435.7924,327.8600 434.4381,326.9768 434.7914,322.7961 433.1427,319.8520 430.7285,318.1443 430.6696,318.1443 429.4330,316.3779 420.0707,314.4936 417.4209,311.6672 413.3580,310.9017 413.1225,312.0205 409.1773,314.1992 405.8799,313.0215 405.1144,311.4317 399.2850,309.3119 397.6363,310.4896 396.2820,307.4865 397.8129,305.3079 388.5094,300.6561 380.9724,298.1830 380.5602,299.2429 380.3836,299.1841 378.4993,298.8308 376.4384,295.0622 377.1450,292.5303 378.8526,292.4714 382.5622,289.2328 389.2749,292.1181 393.2789,291.5882 397.6363,289.1151 394.1033,286.1120 389.3927,283.8745 388.5683,280.9303 384.3287,278.6928 386.4485,276.1608 382.2678,273.6289 385.7419,271.5680 384.4465,267.8583 387.0373,265.2086 393.3378,266.0330 393.9855,265.7974 396.8119,265.6208 396.8119,265.5619 396.8119,265.6208 396.8119,265.5619 398.1662,265.2086 399.2850,261.8523 396.4586,260.8513 396.2820,258.8493 391.1003,256.1995 390.2170,257.3183 386.4485,256.5528 385.5653,260.4980 382.2090,261.4401 381.7379,261.7934 378.9115,263.0888 376.4384,262.2645 375.6729,263.5010 368.9014,263.5010 368.9014,266.5040 361.8355,269.5659 358.3025,270.3314 360.0101,271.9801 356.1827,273.7466 354.0629,272.8634 352.7086,273.7466 352.1198,275.8664 352.1198,275.9253 347.6447,278.2806 345.6427,276.2197 345.5249,276.2786 345.4660,276.2786 345.5249,276.2786 345.4660,276.2786 342.6985,276.2786 343.6995,274.5121 340.9320,274.9243 340.9909,270.3903 337.0458,271.8624 332.7473,269.9192 332.7473,267.7995 330.6275,266.2096 329.8620,263.7954 330.6864,262.6766 327.9778,260.6157 325.1514,260.4980 321.9717,261.0868 318.1443,261.8523 312.9038,259.3792 312.9627,259.3792 312.9038,259.3792 312.9627,259.3792 313.3159,258.7904 313.1393,257.0828 313.1982,257.0828 313.1393,257.0828 313.1982,257.0828 315.1413,254.6686 312.3149,253.9620 310.1952,250.6057 306.5444,251.0767 306.4855,251.0767 306.5444,251.0767 306.4855,251.0767 305.4256,251.5478 304.8957,252.9021 302.8348,251.4889 302.5404,253.9620 302.4815,254.0209 302.5404,254.0209 302.4815,254.0209 302.5404,254.0209 302.5404,253.9620 305.4256,255.7285 305.3668,256.4939 303.4825,258.0838 304.1891,260.3802 304.5424,261.8523 301.7160,262.1467 300.8328,263.9132 297.5353,264.7964 297.1231,265.6797 296.9465,265.7386 296.0633,266.0330 296.0044,266.0330 296.0633,266.0330 296.0044,266.0330 293.0602,266.3274 292.3536,266.0330 290.5283,269.4482 293.8257,270.9203 293.8846,274.0999 285.8176,274.1588 283.9334,277.5151 M367.0172,361.8943 366.6639,362.1888 366.6050,362.1888 366.6639,362.1888 367.0172,361.8943 M366.6050,362.1888 366.6639,362.1888 366.6050,362.1888 M373.3765,363.4253 373.0821,363.3664 372.1989,363.8375 372.1400,363.8375 372.1400,363.8964 372.1400,364.0141 371.9633,364.3085 371.8456,364.3674 372.3755,365.1918 373.3765,363.4253 M371.8456,364.3674 371.9633,364.3085 371.8456,364.3674 M372.1400,363.8964 372.1400,363.8375 372.1400,363.8964 M372.1400,363.8375 372.1989,363.8375 372.1400,363.8375Z">
                    <desc xmlns="http://www.highcharts.com/svg/namespace">
<name>Lazio</name>
<iso3166-2>IT-62</iso3166-2>
<hc-group>admin1</hc-group>
<hc-key>it-62</hc-key>
<hc-a2>LA</hc-a2>
<hc-middle-lon>12.739</hc-middle-lon>
<hc-middle-lat>41.813</hc-middle-lat>
</desc>


                </path>
<path fill="#CEE3F5" stroke="#6E6E6E" stroke-width="0.4" id="undefined" d="M430.6696,318.1443 430.7285,318.1443 433.1427,319.8520 434.7914,322.7961 434.4381,326.9768 435.7924,327.8600 432.6127,329.3321 432.8483,331.3930 436.5579,335.5148 440.7386,335.7503 438.7365,332.3351 441.5040,328.8022 443.9182,330.5098 444.3893,329.1555 448.3345,329.2732 450.7487,330.8631 462.2308,333.9250 462.8197,335.5148 469.5912,337.1046 473.0653,334.7493 478.4236,334.5138 480.6612,331.9229 480.6612,331.9818 480.6612,331.9229 480.6612,331.9818 483.6642,333.5128 489.9647,331.8052 493.4388,330.0387 489.2581,327.5656 490.0236,324.8570 489.1992,321.9717 490.6124,320.6174 493.5565,321.9717 496.2651,319.7342 502.5656,316.8489 501.2113,316.5545 500.7402,316.4367 499.0915,314.8469 499.6215,310.3129 499.2093,309.9007 498.9149,309.6063 501.2113,306.7799 501.0935,304.0713 501.1524,304.0124 497.4428,303.0703 492.9677,299.3607 485.5485,298.0653 480.0135,295.5922 480.2490,297.6531 477.0104,299.4785 473.3597,303.0703 473.2419,304.6602 470.2978,306.2500 467.5892,310.4307 462.8785,313.8459 461.4653,312.9038 460.4643,309.6063 456.3425,306.7211 454.3994,307.7810 453.2806,305.7789 450.9253,304.8957 447.3334,307.7810 442.8583,309.9007 444.6837,314.4936 441.3274,314.6703 440.7386,316.8489 438.2066,315.1413 435.2036,318.4388 430.7285,318.1443 430.6696,318.1443Z">
                    <desc xmlns="http://www.highcharts.com/svg/namespace">
<name>Molise</name>
<iso3166-2>IT-67</iso3166-2>
<hc-group>admin1</hc-group>
<hc-key>it-67</hc-key>
<hc-a2>MO</hc-a2>
<hc-middle-lon>14.552</hc-middle-lon>
<hc-middle-lat>41.717</hc-middle-lat>
</desc>


                </path>
<path fill="#CEE3F5" stroke="#6E6E6E" stroke-width="0.4" id="undefined" d="M180.1817,160.4559 180.5350,160.5737 182.4192,162.2224 182.4781,162.3402 182.5959,162.3402 182.4781,162.3402 182.5959,162.3402 185.7167,164.4011 190.1329,166.1676 191.1928,168.6995 193.9014,170.8782 192.3116,172.1736 197.1400,172.1736 197.4344,173.4102 197.4933,173.4102 197.4344,173.4102 197.4933,173.4102 198.2587,176.4721 199.7308,175.0000 202.3806,176.0010 202.4983,176.8843 200.0252,179.0040 204.9125,181.0061 209.3287,184.5979 213.4505,190.9573 214.9815,197.3755 216.4536,208.6810 218.0434,212.8028 220.9287,214.4515 224.3439,217.9256 229.7611,226.3459 230.4088,236.1793 228.7601,241.3022 227.2291,241.3610 228.0535,244.3641 232.9997,243.2453 239.5357,244.0108 242.8331,245.2473 244.9529,247.4260 244.1874,250.7823 241.8910,252.4310 251.1356,254.7863 256.9061,257.9660 258.0838,260.4980 262.4411,262.7355 265.0908,266.9162 266.7985,266.5040 268.6238,268.9182 268.6238,271.8624 267.1517,274.1588 262.7355,274.5710 263.7954,276.7497 268.3294,278.1629 269.9192,275.0421 273.5700,275.0421 283.9334,277.5151 285.8176,274.1588 293.8846,274.0999 293.8257,270.9203 290.5283,269.4482 292.3536,266.0330 293.0602,266.3274 296.0044,266.0330 296.0633,266.0330 296.0044,266.0330 296.0633,266.0330 296.9465,265.7386 297.1231,265.6797 297.5353,264.7964 300.8328,263.9132 301.7160,262.1467 304.5424,261.8523 304.1891,260.3802 303.4825,258.0838 305.3668,256.4939 305.4256,255.7285 302.5404,253.9620 302.5404,254.0209 302.4815,254.0209 302.5404,254.0209 302.4815,254.0209 302.5404,253.9620 302.8348,251.4889 304.8957,252.9021 305.4256,251.5478 306.4855,251.0767 306.5444,251.0767 306.4855,251.0767 306.5444,251.0767 310.1952,250.6057 313.9637,247.7204 313.9637,247.4260 313.8459,247.1316 312.6682,245.1295 313.6104,243.7752 313.5515,243.7164 313.6104,243.7164 313.5515,243.7164 313.6104,243.7164 313.4337,242.5976 315.3769,237.8869 311.8439,236.0027 311.9616,232.1164 318.0266,229.5845 318.4388,226.3459 321.2651,226.8758 325.0925,225.9337 329.5676,223.4017 327.9189,222.5774 327.2123,223.1662 326.7413,224.2261 323.9738,223.3429 324.2682,220.4576 320.9707,219.3977 320.9707,217.2779 317.8499,216.3947 324.9159,212.6851 321.6773,211.2719 323.2083,209.7998 325.3869,209.7409 326.0935,207.7978 328.9788,204.9714 328.9788,204.9125 328.3311,202.4983 330.8631,200.7318 332.2174,200.9674 332.4529,201.0851 334.3371,198.9653 334.3371,198.9065 336.1036,200.3197 338.2823,199.0242 335.5148,196.5511 333.0417,195.8445 328.3900,196.7278 328.3900,196.7867 328.3900,196.7278 328.3900,196.7867 328.3311,196.8456 328.2722,196.8456 328.3311,196.8456 328.2722,196.8456 328.2722,196.9044 327.3301,197.3166 324.3859,196.4923 324.3859,196.5511 324.3859,196.4923 324.3859,196.5511 321.7951,196.9044 321.6184,196.8456 321.0885,197.2577 319.0276,196.2567 318.7921,196.4334 318.6154,196.3156 316.7900,195.7268 313.4926,194.9613 313.4926,194.7847 313.5515,194.7847 313.4926,194.7847 313.5515,194.7847 311.1962,193.5481 305.6612,192.8415 304.1891,191.5461 303.1292,190.8395 303.1292,190.7806 303.1292,190.8395 303.1292,190.7806 301.8338,190.3684 299.1841,188.7786 298.6541,186.2466 298.6541,186.1878 298.6541,186.2466 298.6541,186.1878 297.1231,183.9502 295.6511,182.7725 295.5333,182.5959 295.5333,182.4781 295.5333,182.5959 295.5333,182.4781 296.4754,181.3594 296.4754,181.3005 296.4754,181.3594 296.4754,181.3005 296.4166,181.1238 296.3577,181.1238 296.4166,181.1238 296.3577,181.1238 299.2429,178.1208 301.8338,174.9411 297.4764,174.7056 295.6511,176.1777 293.4724,175.0000 293.8257,173.4102 292.3536,172.4680 291.9415,172.4680 289.5861,172.9980 286.3476,171.3493 284.0511,168.9939 281.2248,168.7584 274.9832,171.9381 274.3355,172.4680 270.0959,173.1746 269.5659,173.0569 269.5071,173.0569 269.5659,173.0569 269.5071,173.0569 269.0360,173.0569 269.3893,173.7635 269.9192,174.0579 270.5081,174.4701 271.6857,174.7645 271.3913,176.0010 271.3324,176.0010 271.3913,176.0010 271.3324,176.0010 268.3883,175.7655 264.9142,175.5888 262.8533,176.7076 258.6726,175.9421 258.3782,173.8812 256.4351,174.7056 254.5508,176.8254 252.7254,178.2386 250.2524,176.0599 248.6036,176.2365 241.7732,172.7624 236.7682,172.8213 236.7093,172.7624 236.5915,172.7624 236.7093,172.7624 236.5915,172.7624 236.0027,173.2924 233.1763,175.1178 229.5256,172.7624 229.5256,171.7614 225.9337,168.3462 222.6363,167.3452 222.5185,167.3452 216.0414,165.1666 213.8038,166.1676 210.5653,163.1645 208.2688,162.1635 204.3237,161.5747 198.4354,158.5128 198.3765,158.5128 198.4354,158.5128 198.3765,158.5128 199.0242,156.7463 196.9044,154.6265 191.6050,154.3910 188.0131,154.5676 184.1857,158.5128 180.1817,160.4559 M186.7766,239.0057 186.8943,240.4189 189.3085,239.3001 188.3075,236.5915 186.7766,239.0057 M201.6151,265.5030 204.2059,265.7386 203.4993,264.3254 201.6151,265.5030 M204.6770,253.6676 207.2678,256.3173 212.1551,256.4939 217.8079,254.6686 219.6921,254.9630 221.0464,257.1417 223.6373,256.1995 221.5764,254.8452 223.4017,254.0797 224.6972,249.9579 222.8129,248.3681 219.7510,252.7254 214.6282,251.1356 213.0972,253.3143 209.1521,251.9600 205.7369,252.4310 204.6770,253.6676 M250.4879,277.9862 250.4879,278.0451 252.8432,280.9303 252.7254,278.0451 250.4879,277.9862 M250.4879,277.9862 250.4879,278.0451 250.4879,277.9862 M330.2742,194.0192 330.3331,194.0192 330.2742,194.0192 330.3331,194.0192 326.8590,194.4314 328.9788,194.7847 330.2742,194.1369 330.2742,194.0192Z">
                    <desc xmlns="http://www.highcharts.com/svg/namespace">
<name>Toscana</name>
<iso3166-2>IT-52</iso3166-2>
<hc-group>admin1</hc-group>
<hc-key>it-52</hc-key>
<hc-a2>TO</hc-a2>
<hc-middle-lon>11.029</hc-middle-lon>
<hc-middle-lat>43.356</hc-middle-lat>
</desc>


                </path>
<path fill="#CEE3F5" stroke="#6E6E6E" stroke-width="0.4" id="undefined" d="M310.1952,250.6057 312.3149,253.9620 315.1413,254.6686 313.1982,257.0828 313.1393,257.0828 313.1982,257.0828 313.1393,257.0828 313.3159,258.7904 312.9627,259.3792 312.9038,259.3792 312.9627,259.3792 312.9038,259.3792 318.1443,261.8523 321.9717,261.0868 325.1514,260.4980 327.9778,260.6157 330.6864,262.6766 329.8620,263.7954 330.6275,266.2096 332.7473,267.7995 332.7473,269.9192 337.0458,271.8624 340.9909,270.3903 340.9320,274.9243 343.6995,274.5121 342.6985,276.2786 345.4660,276.2786 345.5249,276.2786 345.4660,276.2786 345.5249,276.2786 345.6427,276.2197 347.6447,278.2806 352.1198,275.9253 352.1198,275.8664 352.7086,273.7466 354.0629,272.8634 356.1827,273.7466 360.0101,271.9801 358.3025,270.3314 361.8355,269.5659 368.9014,266.5040 368.9014,263.5010 375.6729,263.5010 376.4384,262.2645 378.9115,263.0888 381.7379,261.7934 382.2090,261.4401 385.5653,260.4980 386.4485,256.5528 386.6841,255.0808 386.6841,255.0219 386.6841,255.0808 386.6841,255.0219 387.0373,254.7863 390.3937,253.2554 390.7470,251.6655 389.0983,248.6036 387.6851,250.2524 384.4465,250.7234 381.7968,247.3082 378.4993,245.6006 376.6740,246.5427 375.2019,247.1316 374.7897,248.1326 373.7298,247.7204 373.7298,245.9539 373.8476,245.1295 369.1369,242.9509 369.6080,239.4179 369.0781,235.8849 368.3715,233.7651 365.3096,232.2342 367.2527,230.6443 364.9563,225.1094 362.8365,224.2261 363.6020,222.5774 361.9532,220.1632 360.6578,217.5135 361.6588,215.2759 361.8355,215.2759 361.9532,215.2759 361.8355,215.2759 359.8334,213.5683 358.0670,215.7470 352.5320,215.6292 345.5249,210.1531 345.4660,210.1531 345.5249,210.1531 345.4660,210.1531 343.3462,210.5064 342.1097,209.1521 339.9310,210.8597 337.9290,209.3876 335.7503,209.7409 335.5737,208.3866 338.3412,206.5612 338.1645,204.8536 336.1625,204.9125 333.6306,206.3257 329.6265,205.9135 328.9788,204.9714 328.9788,204.9125 328.9788,204.9714 326.0935,207.7978 325.3869,209.7409 323.2083,209.7998 321.6773,211.2719 324.9159,212.6851 317.8499,216.3947 320.9707,217.2779 320.9707,219.3977 324.2682,220.4576 323.9738,223.3429 326.7413,224.2261 327.2123,223.1662 327.9189,222.5774 329.5676,223.4017 325.0925,225.9337 321.2651,226.8758 318.4388,226.3459 318.0266,229.5845 311.9616,232.1164 311.8439,236.0027 315.3769,237.8869 313.4337,242.5976 313.6104,243.7164 313.5515,243.7164 313.6104,243.7164 313.5515,243.7164 313.6104,243.7752 312.6682,245.1295 313.8459,247.1316 313.9637,247.4260 313.9637,247.7204 310.1952,250.6057Z">
                    <desc xmlns="http://www.highcharts.com/svg/namespace">
<name>Umbria</name>
<iso3166-2>IT-55</iso3166-2>
<hc-group>admin1</hc-group>
<hc-key>it-55</hc-key>
<hc-a2>UM</hc-a2>
<hc-middle-lon>12.578</hc-middle-lon>
<hc-middle-lat>42.991</hc-middle-lat>
</desc>


                </path>
<path fill="#CEE3F5" stroke="#6E6E6E" stroke-width="0.4" id="undefined" d="M151.6235,145.8530 151.6235,145.9118 151.6235,145.8530 154.5676,146.0885 154.5676,146.2651 154.9209,146.7362 155.2742,146.7362 157.5118,146.2651 159.7493,147.9727 167.8163,148.6793 169.2884,150.4458 168.9939,153.5666 165.6376,157.4529 167.5219,157.2174 172.4092,156.0986 172.4092,155.9808 178.3563,157.6295 180.1817,160.4559 184.1857,158.5128 188.0131,154.5676 191.6050,154.3910 196.9044,154.6265 199.0242,156.7463 198.3765,158.5128 198.4354,158.5128 198.3765,158.5128 198.4354,158.5128 204.3237,161.5747 208.2688,162.1635 210.5653,163.1645 213.8038,166.1676 216.0414,165.1666 222.5185,167.3452 222.6363,167.3452 225.9337,168.3462 229.5256,171.7614 229.5256,172.7624 233.1763,175.1178 236.0027,173.2924 236.5915,172.7624 236.7093,172.7624 236.5915,172.7624 236.7093,172.7624 236.7682,172.8213 241.7732,172.7624 248.6036,176.2365 250.2524,176.0599 252.7254,178.2386 254.5508,176.8254 256.4351,174.7056 258.3782,173.8812 258.6726,175.9421 262.8533,176.7076 264.9142,175.5888 268.3883,175.7655 271.3324,176.0010 271.3913,176.0010 271.3324,176.0010 271.3913,176.0010 271.6857,174.7645 270.5081,174.4701 269.9192,174.0579 269.3893,173.7635 269.0360,173.0569 269.5071,173.0569 269.5659,173.0569 269.5071,173.0569 269.5659,173.0569 270.0959,173.1746 274.3355,172.4680 274.9832,171.9381 281.2248,168.7584 284.0511,168.9939 286.3476,171.3493 289.5861,172.9980 291.9415,172.4680 292.3536,172.4680 293.8257,173.4102 293.4724,175.0000 295.6511,176.1777 297.4764,174.7056 301.8338,174.9411 299.2429,178.1208 296.3577,181.1238 296.4166,181.1238 296.3577,181.1238 296.4166,181.1238 296.4754,181.3005 296.4754,181.3594 296.4754,181.3005 296.4754,181.3594 295.5333,182.4781 295.5333,182.5959 295.5333,182.4781 295.5333,182.5959 295.6511,182.7725 297.1231,183.9502 298.6541,186.1878 298.6541,186.2466 298.6541,186.1878 298.6541,186.2466 299.1841,188.7786 301.8338,190.3684 303.1292,190.7806 303.1292,190.8395 303.1292,190.7806 303.1292,190.8395 304.1891,191.5461 305.6612,192.8415 311.1962,193.5481 313.5515,194.7847 313.4926,194.7847 313.5515,194.7847 313.4926,194.7847 313.4926,194.9613 316.7900,195.7268 318.6154,196.3156 318.7921,196.4334 319.0276,196.2567 321.0885,197.2577 321.6184,196.8456 321.7951,196.9044 324.3859,196.5511 324.3859,196.4923 324.3859,196.5511 324.3859,196.4923 327.3301,197.3166 328.2722,196.9044 328.2722,196.8456 328.3311,196.8456 328.2722,196.8456 328.3311,196.8456 328.3900,196.7867 328.3900,196.7278 328.3900,196.7867 328.3900,196.7278 333.0417,195.8445 333.1595,194.0192 335.7503,193.7248 337.7524,193.3126 339.8133,192.1938 340.7554,189.4263 341.8153,189.4263 343.6406,188.3664 343.5818,188.3075 343.5818,188.2487 340.5787,187.8954 340.1077,184.8334 346.6437,182.4781 346.8203,185.4223 345.0538,188.1309 347.4092,189.4263 347.8802,189.6618 351.0599,188.7786 351.1188,189.0141 351.2365,189.2497 353.0619,192.5471 356.5360,192.0172 356.4771,192.0172 356.5360,192.0172 356.4771,192.0172 356.3005,191.6639 359.3624,190.0151 359.5390,187.9542 359.4801,187.9542 359.5390,187.9542 359.4801,187.9542 359.3624,187.5421 359.3624,187.0710 359.4801,186.0700 360.0101,185.3634 360.1279,185.3634 360.0101,185.3634 360.1279,185.3634 360.5989,184.5979 360.5989,183.6558 357.5370,183.1258 354.2396,181.0061 350.2355,177.2964 348.7046,177.1787 339.4600,169.4650 337.3991,166.1676 335.2793,161.1036 333.1006,153.2722 333.0417,147.2073 330.5098,141.2012 330.9808,137.1383 333.3361,132.4277 335.0437,132.3688 338.5178,135.3718 339.6366,135.2540 337.1635,133.8997 336.5747,132.0744 333.9838,131.6033 332.9240,128.4825 333.8072,127.3637 331.2752,126.4805 329.7443,127.6581 326.2702,126.4805 323.9149,127.1282 322.3250,124.8318 313.9637,123.8896 312.3149,124.5962 304.9546,124.3607 301.2450,125.6561 301.2450,127.1871 292.7658,129.6602 288.8207,126.8338 282.6380,127.3048 282.6968,126.0683 276.8085,125.3617 266.5629,127.0693 261.7934,125.2439 260.9690,126.1272 257.3183,125.7739 254.1386,127.6581 249.7224,127.7759 248.0737,126.8927 242.3620,126.0683 241.3022,123.5363 239.3001,125.0673 239.0057,123.8896 235.7083,127.6581 229.1134,128.1881 224.5794,126.4805 223.1073,124.3018 220.2221,125.1851 211.0363,121.1810 207.9155,120.4744 204.2059,121.7699 199.9075,118.8257 200.3785,117.4714 198.2587,115.4105 194.9613,116.9415 193.7248,114.8806 191.2517,115.9993 192.7826,117.4714 187.8954,118.5902 183.5969,116.5882 183.8913,118.5902 182.3015,119.6501 176.9431,118.1191 177.4731,115.9993 170.3483,118.2958 169.4061,117.0592 164.1067,118.5902 164.1655,118.5902 164.1067,118.5902 164.1655,118.5902 163.3412,118.7668 163.2234,118.9435 163.1645,119.0612 163.1057,119.0024 163.1645,119.0612 163.1057,119.0024 163.0468,119.0612 163.0468,119.1201 163.0468,119.0612 163.0468,119.1201 162.9879,119.1201 163.0468,119.1201 163.0468,119.0612 162.9879,119.1201 162.4579,119.5323 162.3991,119.5912 162.3402,119.5912 162.3991,119.5912 162.3402,119.5912 161.6336,120.1211 161.6925,120.4744 161.8102,120.4744 161.6925,120.4744 161.8102,120.4744 161.8102,120.5333 161.8691,120.5333 161.8102,120.5333 161.8691,120.5333 161.8691,120.6511 161.8102,120.6511 161.8691,120.6511 161.8102,120.6511 161.8102,120.7100 161.8691,120.7100 161.8691,120.7688 161.8691,120.7100 161.8102,120.7100 161.8691,120.7688 159.5138,125.1851 157.1585,126.9515 157.1585,127.0693 157.1585,126.9515 157.1585,127.0693 156.8641,127.7759 156.8052,127.7759 156.8641,127.7759 156.8052,127.7759 156.7463,128.4236 156.6874,128.3647 156.6874,128.4236 156.7463,128.4236 156.6874,128.4236 156.3930,128.8358 158.9250,130.4845 158.9838,130.6023 160.1026,131.6033 160.8092,134.0764 158.6306,134.9007 158.6306,135.0185 158.5717,135.0185 158.6306,135.0185 158.5717,135.0185 156.4519,137.1383 159.3371,138.6692 157.4529,141.7312 156.3341,141.9078 156.4519,141.6723 153.6844,139.9647 153.4489,140.5535 151.5646,141.6134 151.7413,142.6733 151.6235,145.8530 M330.3331,194.0192 330.2742,194.0192 330.3331,194.0192 330.2742,194.0192 330.2742,194.1369 328.9788,194.7847 326.8590,194.4314 330.3331,194.0192 M156.8052,140.7301 157.2174,140.5535 156.8641,140.4946 156.8052,140.7301Z">
                    <desc xmlns="http://www.highcharts.com/svg/namespace">
<name>Emilia-Romagna</name>
<iso3166-2>IT-45</iso3166-2>
<hc-group>admin1</hc-group>
<hc-key>it-45</hc-key>
<hc-a2>EM</hc-a2>
<hc-middle-lon>10.977</hc-middle-lon>
<hc-middle-lat>44.436</hc-middle-lat>
</desc>


                </path>
<path fill="#CEE3F5" stroke="#6E6E6E" stroke-width="0.4" id="undefined" d="M239.3001,98.1578 239.3001,98.0989 239.3001,98.1578 239.3001,98.0989 239.7712,98.2756 240.7722,101.4552 239.0057,102.2796 241.6555,104.5172 242.0087,106.2248 244.7174,104.5172 248.0737,107.1080 250.1346,108.2857 253.7853,109.4044 253.5498,110.4055 254.3153,110.9354 254.6686,110.9943 254.9630,110.9943 256.7884,111.4653 256.7884,111.5242 256.7884,111.4653 256.7884,111.5242 257.1417,114.1151 257.1417,114.2328 260.0858,114.7039 259.7914,116.4115 263.1477,117.3536 263.1477,116.8237 265.6208,115.8227 268.7416,116.6470 267.7406,119.6501 273.4522,120.0622 273.8055,122.1231 282.4613,125.2439 282.6968,126.0683 282.6380,127.3048 288.8207,126.8338 292.7658,129.6602 301.2450,127.1871 301.2450,125.6561 304.9546,124.3607 312.3149,124.5962 313.9637,123.8896 322.3250,124.8318 323.9149,127.1282 326.2702,126.4805 329.7443,127.6581 331.2752,126.4805 333.8072,127.3637 332.9240,128.4825 333.9838,131.6033 336.5747,132.0744 337.1635,133.8997 339.6366,135.2540 341.3442,133.6642 339.4600,131.4266 341.5797,128.6592 341.3442,131.6033 342.4630,133.4876 343.8173,132.3688 345.7604,127.7759 347.8802,124.8318 344.9950,124.4196 338.1057,119.2379 338.5178,121.2399 335.6915,117.1181 335.2793,112.9963 333.8072,109.7577 329.9209,111.1120 329.1555,105.8126 326.3880,107.6968 326.0347,104.5172 328.6844,104.9293 331.6285,99.8654 330.8631,98.9233 332.4529,95.7436 336.9869,93.3883 340.6376,94.0360 339.3422,92.7995 342.9341,92.9761 343.3462,90.8563 346.2315,89.3254 347.9980,91.5040 346.7614,94.0360 342.9341,93.8005 340.5199,97.4512 352.4142,93.9182 362.3654,90.5030 371.9633,86.0868 378.8526,85.6157 380.7369,84.9092 378.8526,83.0838 373.7298,75.6645 374.8486,75.1346 373.7298,74.6635 374.3186,74.4280 373.7298,74.6635 371.1390,74.9579 370.2557,74.5458 367.9593,73.5448 364.7796,73.9569 364.7207,73.9569 364.7796,73.9569 364.7207,73.9569 363.6020,74.6046 363.5431,74.5458 363.5431,74.4280 363.5431,74.3102 363.4842,74.2513 363.4842,74.0158 363.5431,73.7803 363.6020,73.7803 363.5431,73.7803 363.6020,73.7803 361.4233,73.4859 359.4801,73.8980 356.1827,76.4889 354.7695,75.6645 354.7695,75.4290 354.7106,75.4290 354.7695,75.4290 354.7106,75.4290 354.4751,75.2524 353.6507,74.8402 353.5330,74.5458 353.5330,74.4280 353.3563,74.2513 352.1198,73.8980 352.1198,73.7803 351.4132,74.1925 349.2345,73.2503 348.1157,72.3082 347.5858,72.2493 347.7624,71.4250 347.6447,71.4250 347.7624,71.4250 347.0559,70.8361 346.5259,70.4828 346.5259,70.4240 346.5259,70.4828 346.5259,70.4240 346.2904,70.2473 343.6995,67.9509 341.2853,66.8321 341.4031,66.3022 341.4031,66.2433 341.4620,65.5367 341.0498,63.8291 341.0498,63.7113 341.0498,63.8291 341.0498,63.7113 339.8721,61.8271 342.1097,59.2362 344.9361,58.0585 345.4660,55.1733 343.2285,53.9367 342.7574,53.4657 342.4630,52.5824 339.9899,51.7581 336.2803,50.1682 335.5148,49.1672 335.4559,49.1672 335.5148,49.1672 335.4559,49.1672 335.8092,47.5185 337.0458,46.9297 337.2224,46.6353 337.1635,45.5165 340.4610,44.8099 343.0518,42.3957 345.7604,39.9226 346.2315,38.2150 349.8822,36.1541 355.2995,36.5074 355.1817,36.3896 355.1228,36.2130 352.8264,32.3856 355.4761,30.0892 355.4761,29.9714 355.4761,30.0892 355.5350,30.0892 355.4761,30.0892 355.5350,30.0892 358.0670,28.7349 359.4801,26.8506 357.0659,25.5552 349.4112,25.8496 347.4092,24.4364 344.4650,24.2009 341.8153,24.9664 339.3422,27.4394 331.7463,27.1450 327.6834,29.2648 327.8600,27.6161 320.4997,24.4364 320.0875,27.6750 319.1454,29.8536 316.2601,32.8567 313.9637,32.3267 307.6632,33.7399 305.3668,35.9775 309.1353,36.3896 308.6053,38.7450 306.5444,41.9835 306.6622,42.6901 304.0713,42.6901 303.4236,42.9845 305.5434,44.8099 306.4855,45.3987 306.8388,48.3429 309.7241,47.8718 312.0794,51.6403 314.1403,52.5236 313.4926,54.2312 309.5474,57.3520 304.5424,58.1174 302.1871,58.5885 298.0064,58.5885 297.6531,59.6484 297.8297,59.8839 297.8886,59.8839 297.8297,59.8839 297.8886,59.8839 297.9475,60.2961 298.2419,60.5316 298.2419,60.5905 298.2419,60.5316 298.2419,60.5905 299.0663,61.5326 296.7699,62.0037 298.1242,64.8890 297.2998,66.3022 292.1181,66.0666 291.5882,63.8880 286.3476,63.7113 284.2278,65.1834 279.4583,65.2423 278.6339,67.5976 277.5151,69.4229 275.2776,68.0098 275.2776,69.0697 272.8634,69.0108 272.8045,69.0108 272.7456,68.8930 272.8045,69.0108 272.8634,69.0108 272.2746,70.1295 270.4492,73.5448 268.4472,76.9600 268.2116,78.2554 268.0939,78.2554 268.2116,78.2554 268.0939,78.2554 265.6208,81.8472 263.7365,82.2005 263.1477,82.3183 263.0888,82.3183 262.6766,82.0239 262.5589,82.0239 262.6766,82.0239 262.5589,82.0239 260.9690,81.0229 255.6696,82.9660 254.2564,83.3782 254.1975,83.3782 254.2564,83.3782 254.1975,83.3782 250.7823,80.8462 248.2503,80.7873 250.5468,75.0168 248.2503,74.1336 238.9468,84.5559 235.6494,87.3822 236.5326,96.9801 235.3550,97.2157 237.1803,98.6289 239.3001,98.1578Z">
                    <desc xmlns="http://www.highcharts.com/svg/namespace">
<name>Veneto</name>
<iso3166-2>IT-34</iso3166-2>
<hc-group>admin1</hc-group>
<hc-key>it-34</hc-key>
<hc-a2>VE</hc-a2>
<hc-middle-lon>11.858</hc-middle-lon>
<hc-middle-lat>45.737</hc-middle-lat>
</desc>


                </path>
<path fill="#CEE3F5" stroke="#6E6E6E" stroke-width="0.4" id="undefined" d="M64.0057,178.4152 65.4778,177.3553 64.0646,175.5888 65.3011,174.4701 67.1854,173.7635 74.0158,175.8244 76.4300,175.4711 78.1965,175.9421 78.2554,175.9421 78.1965,175.9421 78.2554,175.9421 79.0209,175.2355 81.5528,175.7655 81.2584,175.0589 81.3173,175.0589 81.2584,175.0589 81.3173,175.0589 81.5528,174.9411 79.6097,173.8812 81.4939,172.8213 85.2036,172.9980 86.0279,171.9381 86.0279,171.8203 86.0279,171.9381 86.0279,171.8203 85.2624,169.9361 85.2036,169.5828 84.9680,167.4630 85.0269,167.4630 84.9680,167.4630 85.0269,167.4630 85.5569,165.2843 87.4411,163.1645 87.5000,163.1645 87.4411,163.1645 87.5000,163.1645 87.5000,163.0468 89.6198,161.0448 89.5609,161.0448 89.6198,161.0448 89.5609,161.0448 90.8563,158.5717 93.1528,158.0417 93.8005,156.8052 92.3873,153.8022 92.9172,153.8610 95.6847,150.8580 97.1568,152.0945 97.1568,152.1534 97.1568,152.0945 97.1568,152.1534 99.3943,152.8600 101.5730,154.0377 102.0441,154.6265 104.4583,152.9189 105.2826,151.8590 106.3425,152.3890 106.4014,152.3890 107.4613,152.0945 108.6978,151.6824 109.2278,151.9768 110.8176,151.9768 113.1141,152.3890 116.6470,150.3281 117.5303,147.4428 123.3008,147.7961 126.0094,151.0347 126.2450,152.7423 126.3627,152.9189 127.1282,152.8011 129.4835,148.9149 132.8398,149.5037 135.1363,148.5616 132.7810,144.3809 135.1952,142.2611 140.4946,142.6733 142.3200,145.8530 144.2042,145.1464 146.3829,147.7961 148.6793,148.2083 151.6235,145.9118 151.6235,145.8530 151.7413,142.6733 151.5646,141.6134 152.2712,137.6094 149.9748,135.8429 150.0336,135.4307 149.9748,135.0185 144.4398,134.0764 142.6733,132.1921 143.7921,130.8967 141.9667,129.7190 139.6703,128.1881 137.9038,126.4805 137.8449,124.3607 136.4906,123.9485 133.8408,122.6531 133.7820,120.1211 131.8388,120.0622 128.3647,120.9455 128.3059,120.9455 126.5394,121.7699 125.3617,122.4176 124.9495,122.5942 124.9495,122.5353 124.9495,122.5942 124.9495,122.5353 125.1851,122.1820 118.2369,120.7688 118.8846,118.7079 117.0003,115.6460 112.7608,112.6430 111.5831,109.8166 112.3486,106.7547 110.1110,105.9303 112.5252,104.4583 112.1719,102.8096 115.7049,102.5740 116.0582,102.5740 117.5303,102.1618 120.0034,105.9303 122.9475,105.3415 124.5373,103.3984 125.3028,102.8684 125.6561,102.5740 125.6561,102.5151 125.4206,102.1618 125.5384,102.1618 125.4206,102.1618 123.0653,100.8664 127.4815,100.8075 130.3668,99.5710 127.1282,94.4482 123.4186,93.4472 121.5932,89.0898 122.1820,87.6178 119.6501,85.6157 121.4166,85.4980 120.8866,83.2604 118.6491,83.3782 119.3557,81.0818 116.2937,80.3752 113.4085,77.1955 115.8816,73.3681 114.2917,70.4828 115.4105,69.1285 123.4186,63.4169 122.8297,58.5296 116.8237,57.0575 112.2308,51.3459 108.2857,50.4627 106.0481,46.5764 108.1679,44.5155 108.1090,37.8617 106.3425,36.9196 101.6319,37.9795 97.8634,40.3348 99.2766,41.9835 96.2147,42.9845 93.2705,46.0464 88.9721,46.4586 85.6157,48.8139 89.0310,50.9337 90.5619,53.6423 89.9731,55.5266 85.9102,57.9997 82.9071,58.2941 82.7894,61.7093 80.3163,64.4179 75.4879,64.4179 72.7793,69.1285 72.7204,76.5478 77.1366,80.4929 75.3112,82.3183 77.1366,85.6746 73.8392,87.7944 68.8341,88.7954 65.3600,90.6208 57.7641,89.9731 55.2910,88.2655 53.3479,89.1487 49.4028,89.0898 44.2211,92.6817 37.8028,92.7406 35.2120,95.3314 31.0902,94.4482 30.0892,92.7406 28.0871,95.5670 28.6760,97.6279 32.7389,99.0999 31.3846,101.9263 28.3227,104.3405 29.9714,106.5781 29.3237,108.7567 25.8496,110.6999 24.9664,109.8166 19.9024,110.8765 18.8425,113.0552 15.5451,113.2318 15.7217,114.9983 13.0131,115.6460 8.3025,113.6440 7.0071,114.9394 3.1208,114.8806 0.0000,116.8237 2.1198,118.8257 2.7086,121.9465 7.0659,122.1231 8.0670,124.7729 7.1837,128.6003 13.9552,131.9566 17.7826,131.1911 22.3755,132.6043 22.0222,135.6662 23.6120,139.0225 25.8496,139.9647 26.4384,141.8489 21.4334,141.3779 18.9014,143.5565 20.1380,145.1464 18.1359,148.1494 14.6030,149.5037 13.7786,152.5067 18.9014,156.6874 15.6629,157.2174 15.8395,160.1615 21.5511,165.3432 21.7867,167.2275 23.8476,168.7584 25.9674,168.2873 30.3836,170.2305 33.0922,170.2305 38.4505,173.7046 42.2779,173.4102 42.9845,175.1178 47.1652,175.3533 51.8758,173.4690 58.2941,173.2335 59.7662,171.5259 62.2392,171.7026 61.1793,174.2934 64.2413,177.1787 64.0057,178.4152 M122.3587,121.9465 122.3587,122.2409 122.3587,121.9465Z">
                    <desc xmlns="http://www.highcharts.com/svg/namespace">
<name>Piemonte</name>
<iso3166-2>IT-21</iso3166-2>
<hc-group>admin1</hc-group>
<hc-key>it-21</hc-key>
<hc-a2>PI</hc-a2>
<hc-middle-lon>7.921</hc-middle-lon>
<hc-middle-lat>45.262</hc-middle-lat>
</desc>


                </path>
<path fill="#CEE3F5" stroke="#6E6E6E" stroke-width="0.4" id="undefined" d="M124.9495,122.5353 124.9495,122.5942 124.9495,122.5353 124.9495,122.5942 125.3617,122.4176 126.5394,121.7699 128.3059,120.9455 128.3647,120.9455 131.8388,120.0622 133.7820,120.1211 133.8408,122.6531 136.4906,123.9485 137.8449,124.3607 137.9038,126.4805 139.6703,128.1881 141.9667,129.7190 143.7921,130.8967 142.6733,132.1921 144.4398,134.0764 149.9748,135.0185 150.0336,135.4307 149.9748,135.8429 152.2712,137.6094 151.5646,141.6134 153.4489,140.5535 153.6844,139.9647 156.4519,141.6723 156.3341,141.9078 157.4529,141.7312 159.3371,138.6692 156.4519,137.1383 158.5717,135.0185 158.6306,135.0185 158.5717,135.0185 158.6306,135.0185 158.6306,134.9007 160.8092,134.0764 160.1026,131.6033 158.9838,130.6023 158.9250,130.4845 156.3930,128.8358 156.6874,128.4236 156.7463,128.4236 156.6874,128.4236 156.6874,128.3647 156.7463,128.4236 156.8052,127.7759 156.8641,127.7759 156.8052,127.7759 156.8641,127.7759 157.1585,127.0693 157.1585,126.9515 157.1585,127.0693 157.1585,126.9515 159.5138,125.1851 161.8691,120.7688 161.8102,120.7100 161.8691,120.7100 161.8691,120.7688 161.8691,120.7100 161.8102,120.7100 161.8102,120.6511 161.8691,120.6511 161.8102,120.6511 161.8691,120.6511 161.8691,120.5333 161.8102,120.5333 161.8691,120.5333 161.8102,120.5333 161.8102,120.4744 161.6925,120.4744 161.8102,120.4744 161.6925,120.4744 161.6336,120.1211 162.3402,119.5912 162.3991,119.5912 162.3402,119.5912 162.3991,119.5912 162.4579,119.5323 162.9879,119.1201 163.0468,119.0612 163.0468,119.1201 162.9879,119.1201 163.0468,119.1201 163.0468,119.0612 163.0468,119.1201 163.0468,119.0612 163.1057,119.0024 163.1645,119.0612 163.1057,119.0024 163.1645,119.0612 163.2234,118.9435 163.3412,118.7668 164.1655,118.5902 164.1067,118.5902 164.1655,118.5902 164.1067,118.5902 169.4061,117.0592 170.3483,118.2958 177.4731,115.9993 176.9431,118.1191 182.3015,119.6501 183.8913,118.5902 183.5969,116.5882 187.8954,118.5902 192.7826,117.4714 191.2517,115.9993 193.7248,114.8806 194.9613,116.9415 198.2587,115.4105 200.3785,117.4714 199.9075,118.8257 204.2059,121.7699 207.9155,120.4744 211.0363,121.1810 220.2221,125.1851 223.1073,124.3018 224.5794,126.4805 229.1134,128.1881 235.7083,127.6581 239.0057,123.8896 239.3001,125.0673 241.3022,123.5363 242.3620,126.0683 248.0737,126.8927 249.7224,127.7759 254.1386,127.6581 257.3183,125.7739 260.9690,126.1272 261.7934,125.2439 266.5629,127.0693 276.8085,125.3617 282.6968,126.0683 282.4613,125.2439 273.8055,122.1231 273.4522,120.0622 267.7406,119.6501 268.7416,116.6470 265.6208,115.8227 263.1477,116.8237 263.1477,117.3536 259.7914,116.4115 260.0858,114.7039 257.1417,114.2328 257.1417,114.1151 256.7884,111.5242 256.7884,111.4653 256.7884,111.5242 256.7884,111.4653 254.9630,110.9943 254.6686,110.9943 254.3153,110.9354 253.5498,110.4055 253.7853,109.4044 250.1346,108.2857 248.0737,107.1080 244.7174,104.5172 242.0087,106.2248 241.6555,104.5172 239.0057,102.2796 240.7722,101.4552 239.7712,98.2756 239.3001,98.0989 239.3001,98.1578 239.3001,98.0989 239.3001,98.1578 237.1803,98.6289 235.3550,97.2157 236.5326,96.9801 235.6494,87.3822 238.9468,84.5559 248.2503,74.1336 246.4250,73.8980 246.3661,73.8980 246.4250,73.8980 246.3661,73.8980 241.9499,73.5448 241.2433,73.5448 241.1844,73.5448 241.2433,73.5448 241.1844,73.5448 240.2423,73.8392 237.2392,74.1336 236.5915,75.8412 231.8809,76.9600 229.7022,75.6645 228.3479,73.1326 228.2301,72.4849 228.2301,72.2493 228.2890,71.8371 227.8769,70.5417 228.6423,68.7164 227.4647,65.8900 225.3449,65.6544 227.2291,62.4159 226.9347,60.8849 230.5266,57.9408 231.7631,54.1723 230.5266,53.1713 233.1174,49.8149 232.7052,46.6353 231.9398,45.0454 228.9956,44.0444 231.7631,42.1013 235.9438,40.6292 235.2961,37.8617 231.3509,35.3886 225.5804,34.2699 225.3449,32.9744 223.0485,31.7968 216.0414,31.8557 213.0972,30.3836 213.8627,28.3816 212.0373,27.0273 205.5602,28.5582 202.3217,32.0912 200.9085,37.9206 204.5592,39.3927 208.0333,39.7460 205.0303,43.4556 205.6191,45.8109 209.0343,49.0495 206.5612,50.9337 201.3207,50.7571 201.9684,48.5784 198.4354,47.5185 197.5522,45.2810 198.3765,43.5145 196.0801,41.9246 193.1359,41.8069 185.0101,44.4566 182.3604,44.1033 181.8893,46.9297 179.4751,46.3997 177.4731,47.4007 172.0559,46.4586 168.9939,42.8079 166.8153,42.1013 166.8742,34.8587 163.8122,36.7429 161.2214,34.2699 156.3930,34.9764 154.2732,38.7450 156.3930,40.3937 157.0996,45.5165 154.9209,47.8129 154.2732,50.5215 152.6834,50.7571 151.2113,53.7012 143.9098,57.2931 144.1454,60.5316 140.7890,61.1793 141.3190,64.5945 139.3758,65.3600 140.8479,68.4219 144.8520,70.0118 143.0266,71.6016 141.6134,74.7813 138.9637,73.7214 134.5474,74.1925 135.9606,72.0138 135.2540,69.7174 132.3688,66.7143 127.5404,63.7113 131.1911,60.5905 128.2470,58.2941 122.8297,58.5296 123.4186,63.4169 115.4105,69.1285 114.2917,70.4828 115.8816,73.3681 113.4085,77.1955 116.2937,80.3752 119.3557,81.0818 118.6491,83.3782 120.8866,83.2604 121.4166,85.4980 119.6501,85.6157 122.1820,87.6178 121.5932,89.0898 123.4186,93.4472 127.1282,94.4482 130.3668,99.5710 127.4815,100.8075 123.0653,100.8664 125.4206,102.1618 125.5384,102.1618 125.4206,102.1618 125.6561,102.5151 125.6561,102.5740 125.3028,102.8684 124.5373,103.3984 122.9475,105.3415 120.0034,105.9303 117.5303,102.1618 116.0582,102.5740 115.7049,102.5740 112.1719,102.8096 112.5252,104.4583 110.1110,105.9303 112.3486,106.7547 111.5831,109.8166 112.7608,112.6430 117.0003,115.6460 118.8846,118.7079 118.2369,120.7688 125.1851,122.1820 124.9495,122.5353 M156.8052,140.7301 156.8641,140.4946 157.2174,140.5535 156.8052,140.7301 M122.3587,122.2409 122.3587,121.9465 122.3587,122.2409Z">
                    <desc xmlns="http://www.highcharts.com/svg/namespace">
<name>Lombardia</name>
<iso3166-2>IT-25</iso3166-2>
<hc-group>admin1</hc-group>
<hc-key>it-25</hc-key>
<hc-a2>LO</hc-a2>
<hc-middle-lon>9.963</hc-middle-lon>
<hc-middle-lat>45.657</hc-middle-lat>
</desc>


                </path>
<path fill="#CEE3F5" stroke="#6E6E6E" stroke-width="0.4" id="undefined" d="M28.0871,95.5670 30.0892,92.7406 31.0902,94.4482 35.2120,95.3314 37.8028,92.7406 44.2211,92.6817 49.4028,89.0898 53.3479,89.1487 55.2910,88.2655 57.7641,89.9731 65.3600,90.6208 68.8341,88.7954 73.8392,87.7944 77.1366,85.6746 75.3112,82.3183 77.1366,80.4929 72.7204,76.5478 72.7793,69.1285 69.0108,69.1285 63.7702,67.3032 61.0616,65.6544 51.2870,66.4788 49.9327,68.0098 44.3977,70.3062 39.0394,68.8341 38.2150,70.1295 34.6231,70.7773 33.5044,72.4849 30.6780,71.4250 28.9115,72.5437 24.7308,68.8341 22.1400,70.2473 21.5511,71.9549 18.0182,73.3092 11.4822,73.7803 10.5989,74.9579 10.6578,80.3752 11.7766,81.6706 18.0182,85.0858 22.0222,85.4391 22.0222,93.5061 24.9075,93.8594 24.7308,95.2137 28.0871,95.5670Z">
                    <desc xmlns="http://www.highcharts.com/svg/namespace">
<name>Valle d'Aosta / Valle d'Aoste</name>
<iso3166-2>IT-23</iso3166-2>
<hc-group>admin1</hc-group>
<hc-key>it-23</hc-key>
<hc-a2>VD</hc-a2>
<hc-middle-lon>7.371</hc-middle-lon>
<hc-middle-lat>45.727</hc-middle-lat>
</desc>


                </path>
<path fill="#CEE3F5" stroke="#6E6E6E" stroke-width="0.4" id="undefined" d="M225.3449,32.9744 225.5804,34.2699 231.3509,35.3886 235.2961,37.8617 235.9438,40.6292 231.7631,42.1013 228.9956,44.0444 231.9398,45.0454 232.7052,46.6353 233.1174,49.8149 230.5266,53.1713 231.7631,54.1723 230.5266,57.9408 226.9347,60.8849 227.2291,62.4159 225.3449,65.6544 227.4647,65.8900 228.6423,68.7164 227.8769,70.5417 228.2890,71.8371 228.2301,72.2493 228.2301,72.4849 228.3479,73.1326 229.7022,75.6645 231.8809,76.9600 236.5915,75.8412 237.2392,74.1336 240.2423,73.8392 241.1844,73.5448 241.2433,73.5448 241.1844,73.5448 241.2433,73.5448 241.9499,73.5448 246.3661,73.8980 246.4250,73.8980 246.3661,73.8980 246.4250,73.8980 248.2503,74.1336 250.5468,75.0168 248.2503,80.7873 250.7823,80.8462 254.1975,83.3782 254.2564,83.3782 254.1975,83.3782 254.2564,83.3782 255.6696,82.9660 260.9690,81.0229 262.5589,82.0239 262.6766,82.0239 262.5589,82.0239 262.6766,82.0239 263.0888,82.3183 263.1477,82.3183 263.7365,82.2005 265.6208,81.8472 268.0939,78.2554 268.2116,78.2554 268.0939,78.2554 268.2116,78.2554 268.4472,76.9600 270.4492,73.5448 272.2746,70.1295 272.8634,69.0108 272.8045,69.0108 272.7456,68.8930 272.8045,69.0108 272.8634,69.0108 275.2776,69.0697 275.2776,68.0098 277.5151,69.4229 278.6339,67.5976 279.4583,65.2423 284.2278,65.1834 286.3476,63.7113 291.5882,63.8880 292.1181,66.0666 297.2998,66.3022 298.1242,64.8890 296.7699,62.0037 299.0663,61.5326 298.2419,60.5905 298.2419,60.5316 298.2419,60.5905 298.2419,60.5316 297.9475,60.2961 297.8886,59.8839 297.8297,59.8839 297.8886,59.8839 297.8297,59.8839 297.6531,59.6484 298.0064,58.5885 302.1871,58.5885 304.5424,58.1174 309.5474,57.3520 313.4926,54.2312 314.1403,52.5236 312.0794,51.6403 309.7241,47.8718 306.8388,48.3429 306.4855,45.3987 305.5434,44.8099 303.4236,42.9845 304.0713,42.6901 306.6622,42.6901 306.5444,41.9835 308.6053,38.7450 309.1353,36.3896 305.3668,35.9775 307.6632,33.7399 313.9637,32.3267 316.2601,32.8567 319.1454,29.8536 320.0875,27.6750 320.4997,24.4364 327.8600,27.6161 327.6834,29.2648 331.7463,27.1450 339.3422,27.4394 341.8153,24.9664 344.4650,24.2009 338.6356,21.7278 337.5168,18.6070 333.1006,18.1359 334.3371,15.1918 332.4529,12.0710 328.6255,12.4243 324.3271,7.6548 323.5616,5.0639 324.7981,3.9452 328.4489,3.7685 329.7443,0.4711 327.5067,0.0000 317.6733,2.5908 312.3149,3.1797 306.7799,5.7705 303.4825,5.8294 300.3028,6.9482 299.4196,5.7705 296.5932,5.8294 294.5323,4.5929 289.3506,6.3005 285.6999,4.7106 283.4623,6.8304 279.9293,7.0659 276.2197,5.8294 269.9192,7.4781 267.1517,7.3604 267.2106,8.8913 263.9721,9.5979 261.7345,13.7786 262.3822,15.8984 260.3213,16.6639 259.0259,19.1369 252.6666,18.6070 250.9001,19.3136 244.9529,17.3705 241.5966,17.8415 243.5986,15.7806 237.6514,12.7187 232.2931,14.7207 226.3459,13.8964 225.3449,16.7227 223.9317,17.3116 224.7561,19.6669 222.2830,21.0212 223.2251,21.9044 221.1642,23.9653 222.6363,26.8506 224.9916,26.4973 227.5824,28.0283 226.4048,32.2678 225.3449,32.9744Z">
                    <desc xmlns="http://www.highcharts.com/svg/namespace">
<name>Trentino-Alto Adige/Sdtirol</name>
<iso3166-2>IT-32</iso3166-2>
<hc-group>admin1</hc-group>
<hc-key>it-32</hc-key>
<hc-a2>TA</hc-a2>
<hc-middle-lon>11.43</hc-middle-lon>
<hc-middle-lat>46.383</hc-middle-lat>
</desc>


                </path>
<path fill="#CEE3F5" stroke="#6E6E6E" stroke-width="0.4" id="undefined" d="M328.9788,204.9125 328.9788,204.9714 329.6265,205.9135 333.6306,206.3257 336.1625,204.9125 338.1645,204.8536 338.3412,206.5612 335.5737,208.3866 335.7503,209.7409 337.9290,209.3876 339.9310,210.8597 342.1097,209.1521 343.3462,210.5064 345.4660,210.1531 345.5249,210.1531 345.4660,210.1531 345.5249,210.1531 352.5320,215.6292 358.0670,215.7470 359.8334,213.5683 361.8355,215.2759 361.9532,215.2759 361.8355,215.2759 361.6588,215.2759 360.6578,217.5135 361.9532,220.1632 363.6020,222.5774 362.8365,224.2261 364.9563,225.1094 367.2527,230.6443 365.3096,232.2342 368.3715,233.7651 369.0781,235.8849 369.6080,239.4179 369.1369,242.9509 373.8476,245.1295 373.7298,245.9539 373.7298,247.7204 374.7897,248.1326 375.2019,247.1316 376.6740,246.5427 378.4993,245.6006 381.7968,247.3082 384.4465,250.7234 387.6851,250.2524 389.0983,248.6036 390.7470,251.6655 390.3937,253.2554 387.0373,254.7863 386.6841,255.0219 386.6841,255.0808 386.6841,255.0219 386.6841,255.0808 386.4485,256.5528 390.2170,257.3183 391.1003,256.1995 396.2820,258.8493 398.1662,259.2614 401.8758,256.5528 404.3489,256.2584 406.7042,251.6067 410.0017,252.2544 416.1255,251.4889 416.8910,249.7224 427.0777,247.3082 428.7264,247.0727 426.1945,240.4778 424.8402,234.7662 418.9519,223.4606 411.8859,211.2719 412.0626,208.6810 408.8829,207.2090 407.4108,205.0303 404.7611,203.7349 402.2880,205.0303 390.7470,200.2019 370.0202,186.6588 363.7197,184.1269 360.5989,183.6558 360.5989,184.5979 360.1279,185.3634 360.0101,185.3634 360.1279,185.3634 360.0101,185.3634 359.4801,186.0700 359.3624,187.0710 359.3624,187.5421 359.4801,187.9542 359.5390,187.9542 359.4801,187.9542 359.5390,187.9542 359.3624,190.0151 356.3005,191.6639 356.4771,192.0172 356.5360,192.0172 356.4771,192.0172 356.5360,192.0172 353.0619,192.5471 351.2365,189.2497 351.1188,189.0141 351.0599,188.7786 347.8802,189.6618 347.4092,189.4263 345.0538,188.1309 343.5818,188.2487 343.5818,188.3075 343.6406,188.3664 341.8153,189.4263 340.7554,189.4263 339.8133,192.1938 337.7524,193.3126 335.7503,193.7248 333.1595,194.0192 333.0417,195.8445 335.5148,196.5511 338.2823,199.0242 336.1036,200.3197 334.3371,198.9065 334.3371,198.9653 332.4529,201.0851 332.2174,200.9674 330.8631,200.7318 328.3311,202.4983 328.9788,204.9125Z">
                    <desc xmlns="http://www.highcharts.com/svg/namespace">
<name>Marche</name>
<iso3166-2>IT-57</iso3166-2>
<hc-group>admin1</hc-group>
<hc-key>it-57</hc-key>
<hc-a2>MA</hc-a2>
<hc-middle-lon>13.046</hc-middle-lon>
<hc-middle-lat>43.329</hc-middle-lat>
</desc>


                </path>
<path fill="#CEE3F5" stroke="#6E6E6E" stroke-width="0.4" id="undefined" d="M430.6696,318.1443 430.7285,318.1443 435.2036,318.4388 438.2066,315.1413 440.7386,316.8489 441.3274,314.6703 444.6837,314.4936 442.8583,309.9007 447.3334,307.7810 450.9253,304.8957 453.2806,305.7789 454.3994,307.7810 456.3425,306.7211 460.4643,309.6063 461.4653,312.9038 462.8785,313.8459 467.5892,310.4307 470.2978,306.2500 473.2419,304.6602 473.3597,303.0703 477.0104,299.4785 480.2490,297.6531 480.0135,295.5922 476.4805,293.6491 475.8917,289.5273 470.7688,288.1141 463.9973,284.8166 459.3456,280.8126 456.9314,277.7507 453.3395,276.1608 446.2736,271.6269 438.5010,264.4431 434.1437,258.6726 430.9051,252.7843 428.7264,247.0727 427.0777,247.3082 416.8910,249.7224 416.1255,251.4889 410.0017,252.2544 406.7042,251.6067 404.3489,256.2584 401.8758,256.5528 398.1662,259.2614 396.2820,258.8493 396.4586,260.8513 399.2850,261.8523 398.1662,265.2086 396.8119,265.5619 396.8119,265.6208 396.8119,265.5619 396.8119,265.6208 393.9855,265.7974 393.3378,266.0330 387.0373,265.2086 384.4465,267.8583 385.7419,271.5680 382.2678,273.6289 386.4485,276.1608 384.3287,278.6928 388.5683,280.9303 389.3927,283.8745 394.1033,286.1120 397.6363,289.1151 393.2789,291.5882 389.2749,292.1181 382.5622,289.2328 378.8526,292.4714 377.1450,292.5303 376.4384,295.0622 378.4993,298.8308 380.3836,299.1841 380.5602,299.2429 380.9724,298.1830 388.5094,300.6561 397.8129,305.3079 396.2820,307.4865 397.6363,310.4896 399.2850,309.3119 405.1144,311.4317 405.8799,313.0215 409.1773,314.1992 413.1225,312.0205 413.3580,310.9017 417.4209,311.6672 420.0707,314.4936 429.4330,316.3779 430.6696,318.1443Z">
                    <desc xmlns="http://www.highcharts.com/svg/namespace">
<name>Abruzzo</name>
<iso3166-2>IT-65</iso3166-2>
<hc-group>admin1</hc-group>
<hc-key>it-65</hc-key>
<hc-a2>AB</hc-a2>
<hc-middle-lon>13.902</hc-middle-lon>
<hc-middle-lat>42.288</hc-middle-lat>
</desc>


                </path>
<path fill="#CEE3F5" stroke="#6E6E6E" stroke-width="0.4" id="undefined" d="M335.4559,49.1672 335.5148,49.1672 335.4559,49.1672 335.5148,49.1672 336.2803,50.1682 339.9899,51.7581 342.4630,52.5824 342.7574,53.4657 343.2285,53.9367 345.4660,55.1733 344.9361,58.0585 342.1097,59.2362 339.8721,61.8271 341.0498,63.7113 341.0498,63.8291 341.0498,63.7113 341.0498,63.8291 341.4620,65.5367 341.4031,66.2433 341.4031,66.3022 341.2853,66.8321 343.6995,67.9509 346.2904,70.2473 346.5259,70.4240 346.5259,70.4828 346.5259,70.4240 346.5259,70.4828 347.0559,70.8361 347.7624,71.4250 347.6447,71.4250 347.7624,71.4250 347.5858,72.2493 348.1157,72.3082 349.2345,73.2503 351.4132,74.1925 352.1198,73.7803 352.1198,73.8980 353.3563,74.2513 353.5330,74.4280 353.5330,74.5458 353.6507,74.8402 354.4751,75.2524 354.7106,75.4290 354.7695,75.4290 354.7106,75.4290 354.7695,75.4290 354.7695,75.6645 356.1827,76.4889 359.4801,73.8980 361.4233,73.4859 363.6020,73.7803 363.5431,73.7803 363.6020,73.7803 363.5431,73.7803 363.4842,74.0158 363.4842,74.2513 363.5431,74.3102 363.5431,74.4280 363.5431,74.5458 363.6020,74.6046 364.7207,73.9569 364.7796,73.9569 364.7207,73.9569 364.7796,73.9569 367.9593,73.5448 370.2557,74.5458 371.1390,74.9579 373.7298,74.6635 374.3186,74.4280 373.7298,74.6635 374.8486,75.1346 373.7298,75.6645 378.8526,83.0838 380.7369,84.9092 384.0932,81.6706 379.6770,82.0828 380.0303,80.2574 382.5034,79.7275 382.9744,77.8432 388.3328,77.3721 390.2759,78.6087 400.1682,80.4929 400.6393,81.4939 397.4007,82.9071 400.4038,82.9660 407.1753,79.9630 405.5855,79.3153 407.3520,76.3122 412.2392,77.6077 419.4818,82.9660 422.1316,87.6178 418.3042,87.2056 421.1306,88.7365 424.6635,88.8543 429.1975,85.9690 424.3102,82.5538 421.7194,79.0797 419.1874,78.6676 414.6534,76.0178 410.5316,75.6645 409.1184,73.3681 412.8281,67.9509 412.8869,65.0067 410.2372,64.8301 406.2921,66.1844 403.3479,63.7113 406.7042,60.1783 413.7113,55.5266 414.4768,53.9367 412.5336,52.9357 408.5296,53.2890 406.4687,51.3459 401.4048,50.9337 398.6962,49.3439 397.3419,46.6353 399.8738,46.2231 403.3479,42.8079 409.2951,40.1581 410.3550,38.3917 415.8900,38.3328 417.3032,33.5044 412.1215,32.3267 405.8210,32.0323 404.9966,30.8546 399.2850,31.2079 397.1652,30.1480 393.7500,31.7968 386.8607,30.6191 385.2120,29.5592 380.2069,28.7349 376.9095,29.0882 371.3745,28.3816 365.4273,28.3816 365.6629,27.2628 360.6578,26.1440 359.4801,26.8506 358.0670,28.7349 355.5350,30.0892 355.4761,30.0892 355.5350,30.0892 355.4761,30.0892 355.4761,29.9714 355.4761,30.0892 352.8264,32.3856 355.1228,36.2130 355.1817,36.3896 355.2995,36.5074 349.8822,36.1541 346.2315,38.2150 345.7604,39.9226 343.0518,42.3957 340.4610,44.8099 337.1635,45.5165 337.2224,46.6353 337.0458,46.9297 335.8092,47.5185 335.4559,49.1672Z">
                    <desc xmlns="http://www.highcharts.com/svg/namespace">
<name>Friuli-Venezia Giulia</name>
<iso3166-2>IT-36</iso3166-2>
<hc-group>admin1</hc-group>
<hc-key>it-36</hc-key>
<hc-a2>FG</hc-a2>
<hc-middle-lon>13.12</hc-middle-lon>
<hc-middle-lat>46.115</hc-middle-lat>
</desc>


                </path>
<path fill="#CEE3F5" stroke="#6E6E6E" stroke-width="0.4" id="undefined" d="M172.2914,170.1127 176.3543,173.2924 180.0050,173.8812 185.0101,177.2376 188.7786,178.9452 188.5431,176.2365 188.5431,176.1777 188.6608,176.1777 190.1329,175.6477 196.4334,179.3573 200.0252,179.0040 202.4983,176.8843 202.3806,176.0010 199.7308,175.0000 198.2587,176.4721 197.4933,173.4102 197.4344,173.4102 197.4933,173.4102 197.4344,173.4102 197.1400,172.1736 192.3116,172.1736 193.9014,170.8782 191.1928,168.6995 190.1329,166.1676 185.7167,164.4011 182.5959,162.3402 182.4781,162.3402 182.5959,162.3402 182.4781,162.3402 182.4192,162.2224 180.5350,160.5737 180.1817,160.4559 178.3563,157.6295 172.4092,155.9808 172.4092,156.0986 167.5219,157.2174 165.6376,157.4529 168.9939,153.5666 169.2884,150.4458 167.8163,148.6793 159.7493,147.9727 157.5118,146.2651 155.2742,146.7362 154.9209,146.7362 154.5676,146.2651 154.5676,146.0885 151.6235,145.8530 151.6235,145.9118 148.6793,148.2083 146.3829,147.7961 144.2042,145.1464 142.3200,145.8530 140.4946,142.6733 135.1952,142.2611 132.7810,144.3809 135.1363,148.5616 132.8398,149.5037 129.4835,148.9149 127.1282,152.8011 126.3627,152.9189 126.2450,152.7423 126.0094,151.0347 123.3008,147.7961 117.5303,147.4428 116.6470,150.3281 113.1141,152.3890 110.8176,151.9768 109.2278,151.9768 108.6978,151.6824 107.4613,152.0945 106.4014,152.3890 106.3425,152.3890 105.2826,151.8590 104.4583,152.9189 102.0441,154.6265 101.5730,154.0377 99.3943,152.8600 97.1568,152.1534 97.1568,152.0945 97.1568,152.1534 97.1568,152.0945 95.6847,150.8580 92.9172,153.8610 92.3873,153.8022 93.8005,156.8052 93.1528,158.0417 90.8563,158.5717 89.5609,161.0448 89.6198,161.0448 89.5609,161.0448 89.6198,161.0448 87.5000,163.0468 87.5000,163.1645 87.4411,163.1645 87.5000,163.1645 87.4411,163.1645 85.5569,165.2843 85.0269,167.4630 84.9680,167.4630 85.0269,167.4630 84.9680,167.4630 85.2036,169.5828 85.2624,169.9361 86.0279,171.8203 86.0279,171.9381 86.0279,171.8203 86.0279,171.9381 85.2036,172.9980 81.4939,172.8213 79.6097,173.8812 81.5528,174.9411 81.3173,175.0589 81.2584,175.0589 81.3173,175.0589 81.2584,175.0589 81.5528,175.7655 79.0209,175.2355 78.2554,175.9421 78.1965,175.9421 78.2554,175.9421 78.1965,175.9421 76.4300,175.4711 74.0158,175.8244 67.1854,173.7635 65.3011,174.4701 64.0646,175.5888 65.4778,177.3553 64.0057,178.4152 60.8849,180.2995 60.4139,183.5380 55.4677,185.0690 55.1144,187.8365 51.2281,189.6030 53.2301,194.7258 55.5855,194.1958 62.7692,194.3136 68.2453,192.4882 79.0209,190.3684 84.8503,188.0131 86.0279,186.6588 90.7386,184.5390 89.7964,183.0081 93.5061,179.3573 94.5659,175.8832 97.9223,172.9980 104.1050,171.2904 108.2857,164.0478 114.1151,160.9859 125.6561,156.5697 130.5434,157.6295 134.7830,157.6295 139.7291,159.2194 148.2083,160.8681 148.6205,162.7524 152.0945,164.0478 153.3311,161.1036 161.2214,164.4600 165.2254,167.1097 168.2285,167.6396 172.2914,170.1127 M188.5431,176.2365 188.5431,176.1777 188.5431,176.2365Z">
                    <desc xmlns="http://www.highcharts.com/svg/namespace">
<name>Liguria</name>
<iso3166-2>IT-42</iso3166-2>
<hc-group>admin1</hc-group>
<hc-key>it-42</hc-key>
<hc-a2>LI</hc-a2>
<hc-middle-lon>8.784</hc-middle-lon>
<hc-middle-lat>44.23</hc-middle-lat>
</desc>


                </path>
<path fill="#CEE3F5" stroke="#6E6E6E" stroke-width="0.4" id="undefined" d="M589.7123,410.4727 588.5347,409.8250 577.5236,410.0017 576.0515,410.4139 575.4627,416.5377 571.8708,421.3661 564.6871,421.8371 564.5693,423.6625 561.2719,422.2493 560.0942,423.3092 554.8536,423.6625 552.3806,419.8940 554.0293,418.4808 547.4344,417.5387 545.9034,418.5397 541.4283,417.3620 538.5431,419.8351 537.5421,422.0727 539.1319,425.0168 538.9552,426.5478 541.1339,436.5579 541.9583,436.9701 544.7847,444.0949 547.0222,445.3903 551.7917,450.5131 555.0892,459.1689 555.4425,463.8207 557.0323,472.1820 561.0363,479.1302 564.5104,480.6023 564.9815,484.8419 562.9206,491.0834 558.2688,493.3799 553.3816,492.4966 549.2009,494.4987 544.0781,495.9118 542.2527,498.3260 547.8466,503.0956 545.9034,508.9838 543.6070,512.8701 543.6070,512.9290 543.4892,512.9879 543.4303,512.9879 541.1339,517.6985 537.4832,520.1127 533.7147,520.5249 530.3583,522.2914 531.5360,526.1188 530.4172,530.8883 531.8304,532.8314 530.5939,534.1269 532.5370,537.4243 537.8365,539.7207 548.5532,539.3085 551.9684,540.1329 557.1501,538.4253 559.2699,535.0690 561.8607,526.9431 570.4576,518.5229 581.8809,513.4001 585.5316,509.9849 585.9438,505.6864 584.2362,494.6753 583.4118,493.2032 585.7083,489.0814 588.5347,486.7850 594.8351,483.5464 601.3122,481.2500 607.0239,480.0135 609.7325,480.0723 612.2056,481.8977 616.3863,481.2500 616.7396,482.0744 620.7436,478.8947 620.2137,477.4226 622.6279,474.8906 619.6248,473.8896 617.3873,470.9455 617.7406,467.7658 619.3304,464.1740 617.0340,461.4065 617.3873,457.6968 619.9781,452.8096 617.6228,452.5740 613.7365,450.5131 611.2635,447.6867 607.7894,447.0979 602.9610,444.7426 597.9559,440.3853 586.7682,439.3843 582.4108,437.1467 583.0585,433.9081 580.8210,432.0828 580.9976,428.7264 583.8240,424.3691 588.9468,419.4229 587.0626,414.7712 587.5336,412.5925 589.7123,410.4727 M539.1319,425.0168 539.0141,425.0168 539.1319,425.0168 M543.4303,512.9879 543.4892,512.9879 543.4303,512.9879 M543.4892,512.8701 543.6070,512.8701 543.4892,512.8701Z">
                    <desc xmlns="http://www.highcharts.com/svg/namespace">
<name>Calabria</name>
<iso3166-2>IT-78</iso3166-2>
<hc-group>admin1</hc-group>
<hc-key>it-78</hc-key>
<hc-a2>CL</hc-a2>
<hc-middle-lon>16.418</hc-middle-lon>
<hc-middle-lat>39.032</hc-middle-lat>
</desc>


                </path>
<path fill="#CEE3F5" stroke="#6E6E6E" stroke-width="0.4" id="undefined" d="M90.3853,380.2069 90.3264,380.2069 89.3843,381.9734 90.3853,384.3876 92.0340,381.2079 93.5061,383.9166 97.9812,382.5622 99.5710,383.9166 100.8075,387.7439 102.6329,388.3328 104.5172,393.3967 103.4573,396.2231 108.2268,398.9906 109.3456,401.5225 108.2268,405.9976 108.2857,409.0596 109.6989,412.8281 107.4613,414.6534 103.4573,415.1245 105.2238,416.4199 104.4583,420.2473 104.3994,420.2473 104.4583,420.2473 104.4583,420.3062 104.1639,422.8382 106.8136,424.5458 108.1090,422.6615 111.5242,423.1915 113.4674,425.5468 112.9374,430.3752 110.5232,433.9670 107.0491,431.7295 107.4613,438.0888 108.5801,441.0330 107.0491,444.9192 103.5162,448.9822 105.1060,450.5720 103.1040,454.8116 105.3415,456.5192 106.5192,459.4633 102.6918,462.8785 104.6349,466.2349 106.4014,466.7059 106.8136,469.4734 108.4623,469.4734 110.4643,472.7120 113.8207,473.1242 114.8806,477.8937 117.5303,479.8957 116.5293,482.4865 119.0024,482.6632 123.3008,480.0723 123.1830,480.0723 123.3008,480.0723 131.1322,483.6053 140.8479,476.5983 142.3200,473.0653 140.1413,469.2379 141.2012,466.7648 144.2042,464.1151 144.0276,461.7598 147.7961,465.0572 152.3301,462.9963 156.8641,463.4085 159.5138,464.5861 165.6376,468.9435 169.8183,469.1790 172.5858,468.1780 173.5868,465.4694 173.1157,462.4664 175.5888,459.0511 177.0609,459.0511 174.8822,456.6369 175.3533,453.9283 177.4142,449.8065 176.7665,446.8624 178.2386,443.0350 177.9441,437.7355 179.2985,435.0269 179.2985,434.9092 179.0629,430.9051 180.8294,426.1945 179.8873,423.3092 181.9482,421.8960 180.1228,420.6006 180.1817,418.4808 182.8314,412.5925 180.3583,411.2382 176.8254,406.4687 177.1787,400.9337 181.6538,395.9876 184.1269,395.1043 187.3065,389.8637 187.8954,386.0952 186.6588,385.5653 183.4791,380.6780 183.8324,378.3227 182.0071,376.1440 181.3005,373.0821 178.5330,370.4324 180.4761,367.5471 177.0609,365.4862 176.9431,365.4862 177.5320,363.4253 177.0609,363.4253 176.9431,363.4253 174.1168,364.6030 170.7604,363.4842 170.6427,363.5431 170.7604,363.4842 169.4650,363.8375 169.4061,363.8375 169.3472,363.8375 169.3472,363.7786 169.4061,363.7197 169.4061,363.6020 169.8183,362.6009 173.2335,362.5421 175.2355,357.4781 172.7624,358.3025 172.7624,358.3614 172.3503,356.8893 169.4061,358.2436 171.8203,352.0609 170.5249,349.8234 167.8752,350.2355 167.8163,350.2355 167.8752,350.2355 167.8163,350.2355 165.7554,353.2386 164.5188,348.4102 155.3920,346.8203 155.5098,344.7005 150.5636,344.0528 149.6215,348.1157 148.6793,349.5878 144.5575,351.1777 140.6124,351.2954 136.4906,355.2995 136.4906,355.3583 136.4317,355.3583 135.5485,356.1827 132.8398,357.3015 129.1302,362.0710 125.7739,363.7786 122.7120,363.4253 118.1780,365.6040 114.4095,368.4892 107.8735,369.3725 104.9882,368.1359 99.9832,367.9593 97.1568,366.6639 94.5659,364.0141 94.7426,361.3644 93.0350,360.4812 92.9761,360.4812 91.4452,362.8365 93.5061,365.6629 92.3284,368.9014 88.9132,374.6719 92.9172,377.1450 91.9162,379.7359 90.3853,380.2069 M90.3264,380.2069 90.3853,380.2069 90.3264,380.2069 M92.9761,360.4812 93.0350,360.4812 92.9761,360.4812 M95.5670,357.1248 95.5081,357.0659 95.3314,357.0659 94.9192,357.1837 94.8604,357.1837 97.4512,354.8873 100.3954,354.8873 101.1608,353.5919 99.2766,351.9431 99.2177,351.9431 97.1568,352.4731 97.5690,354.2985 95.6258,355.6528 95.6258,355.7116 93.3883,358.7736 95.3314,359.0680 95.5670,357.1248 M94.0949,467.1770 96.6857,470.5922 98.8644,470.2389 98.8644,465.4694 94.0949,467.1770 M94.8604,357.1837 94.9192,357.1837 94.8604,357.1837 M95.5081,357.0659 95.5670,357.0659 95.5081,357.0659 M95.5670,357.0659 95.5670,357.1248 95.5670,357.0659 M95.6258,355.7116 95.6258,355.6528 95.6258,355.7116 M99.2177,351.9431 99.2766,351.9431 99.2177,351.9431 M102.6918,469.7678 102.6918,469.8267 102.6329,469.7678 101.5730,470.5922 102.0441,474.3018 104.9293,478.7180 106.2836,478.6592 108.1679,472.8886 105.9892,470.2389 102.6918,469.7678 M102.6329,469.7678 102.6918,469.7678 102.6329,469.7678 M102.6918,469.8267 102.6918,469.7678 102.6918,469.8267 M104.4583,420.3062 104.4583,420.2473 104.3994,420.2473 104.4583,420.3062 M123.1830,480.0723 123.3008,480.0723 123.1830,480.0723 M136.4317,355.3583 136.4906,355.3583 136.4906,355.2995 136.4317,355.3583 M159.7493,345.1716 159.8671,345.1127 159.9849,345.1127 159.7493,345.1716 M159.8671,345.1127 159.9849,345.1127 159.8671,345.1127 M159.8671,345.1127 159.9849,345.1127 159.8671,345.1127 M160.8092,341.1676 160.8681,341.2264 160.8092,341.1676 M161.2214,341.5797 161.2803,341.5797 160.8681,341.2264 161.2214,341.5797 M161.2214,341.5797 161.2214,341.6386 161.2214,341.5797 M161.2214,341.5797 161.2214,341.6386 161.2803,341.5797 161.2214,341.5797 M161.8691,345.8193 161.8691,345.8782 164.3422,345.9960 164.1067,343.7584 162.3402,344.9950 161.8691,345.8193 M161.8691,345.8782 161.8691,345.8193 161.8691,345.8782 M166.4620,347.9980 167.1686,348.0569 167.1097,347.6447 167.1686,347.4680 167.2275,347.4680 166.7564,345.3483 166.7564,345.4071 166.1676,345.5838 166.2853,345.8193 166.2853,345.8782 166.3442,345.8782 166.3442,345.9371 166.2853,345.9371 166.4620,346.8792 166.4031,346.8792 166.4620,347.9980 M166.2853,345.8782 166.2853,345.8193 166.1676,345.8193 166.2853,345.8782 M166.2853,345.8782 166.2853,345.8193 166.2853,345.8782 M166.3442,345.8782 166.3442,345.9371 166.3442,345.8782 166.3442,345.9371 166.3442,345.8782 M166.4031,346.8792 166.4620,346.8792 166.4031,346.8792 166.4620,346.8792 166.4031,346.8792 M166.7564,345.4071 166.7564,345.3483 166.7564,345.4071 M167.1686,347.4680 167.2275,347.4680 167.1686,347.4680 M167.8163,350.2355 167.8752,350.2355 167.8163,350.2355 M169.3472,363.7786 169.3472,363.8375 169.4061,363.8375 169.4650,363.8375 169.3472,363.7786 M169.4061,363.6020 169.4061,363.7197 169.4061,363.6020 M169.6417,363.5431 169.7005,363.5431 169.7005,363.4842 169.7005,363.5431 169.6417,363.5431 M169.6417,363.5431 169.7005,363.4842 169.7005,363.5431 169.7005,363.4842 169.6417,363.5431 M170.6427,363.5431 170.7604,363.4842 170.6427,363.5431 M172.7624,358.3025 172.7624,358.3614 172.7624,358.3025 M176.9431,363.4253 177.0609,363.4253 177.0609,363.3664 176.9431,363.4253 M176.9431,365.4862 177.0609,365.4862 176.9431,365.4862 M179.2985,434.9092 179.2985,435.0269 179.2985,434.9092Z">
                    <desc xmlns="http://www.highcharts.com/svg/namespace">
<name>Sardigna/Sardegna</name>
<iso3166-2>IT-88</iso3166-2>
<hc-group>admin1</hc-group>
<hc-key>it-88</hc-key>
<hc-a2>SA</hc-a2>
<hc-middle-lon>8.981</hc-middle-lon>
<hc-middle-lat>40.087</hc-middle-lat>
</desc>


                </path>
</g>
        
<text x="350" y="715" text-anchor="middle" font-family="Verdana" font-size="8" stroke-opacity="0.6">
            Copyright (c) 2025 Highsoft AS, Based on data from OpenStreetMap</text>

        </svg>