<?xml version="1.0" encoding="utf-8" standalone="no"?>
<!DOCTYPE svg PUBLIC "-//W3C//DTD SVG 1.1//EN" "http://www.w3.org/Graphics/SVG/1.1/DTD/svg11.dtd">

<svg version="1.1" height="700pt" width="700pt" xmlns="http://www.w3.org/2000/svg" xmlns:xlink="http://www.w3.org/1999/xlink">
<desc>
Map version: 1.1.3
Copyright (c) 2020 Highsoft AS, Based on data from Natural Earth
</desc>
<title>Greenland</title>
<g id="admin1">

<g id="GL">
  <desc xmlns="http://www.highcharts.com/svg/namespace">
    <name>Greenland</name>
    <labelrank>3</labelrank>
    <country-abbrev>Grlnd.</country-abbrev>
    <subregion>Northern America</subregion>
    <region-wb>Europe &amp; Central Asia</region-wb>
    <iso-a3>GRL</iso-a3>
    <iso-a2>GL</iso-a2>
    <woe-id>23424828</woe-id>
    <continent>North America</continent>
    <hc-key>gl</hc-key>
    <hc-a2>GR</hc-a2>
  </desc>
</g>

<path fill="#CEE3F5" stroke="#6E6E6E" stroke-width="0.4" id="GL.3278" d="M169.0,614.4 L173.8,615.4 L173.3,618.3 L168.2,618.0 Z M192.4,574.0 L188.4,574.7 L188.0,573.1 L191.0,571.4 Z M55.3,557.5 L55.1,554.7 L58.0,550.6 L60.2,553.1 Z M54.0,554.5 L50.8,554.3 L54.9,549.8 L57.2,550.0 Z M234.5,526.9 L233.7,530.3 L235.7,531.0 L230.5,534.4 L227.2,530.7 L229.1,525.7 L232.0,524.9 Z M324.6,365.9 L327.3,365.1 L324.1,370.5 L322.4,366.8 Z M155.5,475.6 L162.6,374.7 L311.4,365.4 L319.4,360.2 L323.2,364.2 L319.1,363.8 L315.5,365.4 L320.8,367.0 L318.9,376.9 L310.9,381.3 L311.0,383.6 L319.5,378.4 L320.8,382.3 L334.8,375.8 L339.7,377.8 L336.6,381.2 L333.6,380.7 L330.0,386.2 L325.8,389.6 L323.4,388.6 L319.0,390.8 L319.9,392.3 L323.9,390.6 L325.8,392.1 L329.1,389.8 L331.0,392.4 L332.7,391.1 L332.5,385.8 L335.3,382.4 L340.9,382.9 L349.5,374.3 L351.3,377.8 L352.5,374.9 L358.8,376.8 L369.0,378.0 L380.7,374.3 L382.9,372.4 L381.9,378.4 L377.0,380.2 L376.0,383.3 L377.3,386.3 L373.4,384.4 L375.8,390.3 L370.9,389.5 L372.8,391.5 L371.4,395.6 L368.4,395.9 L368.9,399.3 L366.4,401.4 L362.6,400.5 L365.1,404.5 L361.3,407.2 L360.5,412.3 L355.6,412.7 L358.7,415.7 L354.8,422.1 L351.6,422.8 L351.8,425.7 L348.2,427.8 L346.8,426.6 L342.7,432.4 L337.0,434.3 L333.9,433.7 L334.6,436.8 L330.6,436.2 L326.2,442.3 L322.6,440.9 L321.1,447.1 L316.2,444.8 L314.7,441.9 L313.0,445.7 L317.4,447.3 L316.0,449.8 L311.6,446.7 L314.5,450.5 L303.6,454.9 L298.9,453.3 L295.8,454.3 L295.2,450.2 L291.8,450.2 L288.2,445.9 L285.7,440.5 L284.4,443.8 L289.0,447.9 L292.6,456.2 L291.8,462.2 L289.4,461.5 L283.4,468.1 L280.4,472.8 L280.3,482.7 L276.8,486.5 L276.2,489.6 L273.5,489.7 L275.6,494.4 L269.9,501.7 L269.0,499.1 L267.2,508.6 L260.6,513.0 L256.0,511.9 L256.4,517.1 L247.1,525.8 L246.9,518.4 L245.2,523.7 L242.3,525.6 L241.4,529.0 L238.3,525.5 L236.9,528.2 L230.7,523.4 L229.2,520.5 L236.0,511.5 L231.1,512.3 L225.2,510.6 L224.7,512.2 L230.3,514.1 L226.5,515.0 L227.0,523.5 L221.5,525.0 L225.4,527.4 L224.0,532.7 L220.6,531.6 L208.9,535.6 L206.3,531.6 L203.5,536.9 L201.1,534.6 L200.3,538.2 L204.4,539.3 L205.0,544.4 L200.4,546.7 L201.6,548.8 L198.6,551.5 L193.6,547.4 L192.7,550.7 L188.4,548.5 L188.3,555.0 L194.0,560.7 L193.7,569.2 L187.7,571.5 L181.7,570.9 L183.5,575.2 L189.7,575.8 L194.5,577.5 L191.1,582.3 L193.6,582.8 L195.0,588.6 L191.7,594.6 L186.3,594.2 L188.2,597.6 L184.9,597.7 L181.6,594.0 L178.5,593.3 L175.8,595.8 L177.3,599.1 L182.1,602.4 L176.5,595.5 L180.9,597.3 L186.8,603.0 L182.1,602.4 L184.0,603.6 L180.5,611.3 L177.1,611.1 L175.0,615.6 L169.4,614.3 L168.0,611.3 L166.9,617.6 L157.7,615.4 L152.6,616.0 L145.8,615.0 L89.0,657.9 L84.6,659.1 L85.2,655.7 L81.4,656.3 L80.4,653.3 L74.4,650.9 L76.6,649.4 L74.9,645.1 L81.7,643.0 L80.0,641.0 L70.3,643.9 L67.3,639.0 L73.4,630.5 L66.5,634.2 L66.5,629.2 L74.0,626.4 L71.7,625.3 L68.2,627.8 L62.8,626.3 L64.7,623.4 L69.0,623.8 L65.9,620.0 L61.2,619.3 L56.5,611.2 L61.1,598.9 L57.4,598.0 L55.6,593.3 L50.6,590.3 L49.0,578.6 L46.3,574.0 L49.2,566.6 L46.7,564.4 L57.3,564.1 L60.3,562.4 L63.2,564.0 L67.5,561.6 L62.1,562.5 L64.6,558.2 L58.7,561.9 L49.9,563.0 L47.8,558.6 L52.7,560.7 L58.8,555.2 L62.1,555.0 L63.8,549.5 L67.9,549.0 L69.0,554.7 L74.7,560.1 L74.7,557.6 L70.3,553.7 L71.8,549.4 L65.4,545.7 L63.5,534.6 L65.3,533.4 L75.4,529.9 L151.1,539.2 Z M332.9,350.2 L333.3,345.6 L337.6,345.1 L341.0,347.1 L341.9,349.8 L341.0,353.5 L334.6,361.0 L331.0,363.1 L324.4,364.3 L320.7,359.2 L320.7,359.2 Z M45.4,546.9 L49.3,546.7 L54.2,540.4 L59.6,540.7 L62.8,538.8 L64.2,543.0 L58.5,548.5 L55.9,548.2 L59.1,544.1 L55.8,544.5 L48.3,556.0 L41.8,560.0 L41.5,556.1 L43.6,547.8 Z M192.7,553.5 L196.0,559.5 L195.7,563.7 L199.4,567.5 L195.4,566.0 L194.1,559.7 L190.7,554.3 Z M328.9,364.8 L332.8,363.8 L340.7,356.1 L341.2,358.9 L344.7,360.0 L347.7,367.3 L343.0,370.2 L341.1,373.0 L338.3,374.8 L339.5,371.5 L336.2,374.2 L322.1,380.2 L322.2,374.0 L324.5,373.0 Z M363.5,324.5 L360.3,331.5 L361.3,333.4 L364.2,328.6 L364.4,331.4 L367.1,332.0 L367.0,328.7 L370.5,327.3 L367.0,333.5 L367.2,337.0 L370.6,341.9 L369.8,337.2 L370.7,335.1 L374.2,334.0 L374.6,337.3 L377.0,338.1 L375.6,340.4 L380.6,349.2 L380.6,353.2 L383.3,355.1 L382.5,359.5 L385.5,359.5 L384.9,362.8 L382.5,365.3 L380.7,362.5 L377.7,365.0 L374.9,359.2 L373.7,354.0 L372.7,358.1 L374.8,362.1 L375.1,366.2 L368.4,368.1 L361.3,364.9 L357.3,360.2 L354.3,352.6 L349.0,348.2 L348.6,345.6 L344.5,348.3 L341.0,345.1 L346.1,345.4 L348.8,343.1 L347.1,335.1 L347.5,331.0 L349.9,330.8 L355.1,326.5 L358.1,326.6 L359.8,324.5 Z">
  <desc xmlns="http://www.highcharts.com/svg/namespace">
    <labelrank>7</labelrank>
    <hasc>GL.VG</hasc>
    <alt-name>Sermersooq</alt-name>
    <woe-id>-99</woe-id>
    <subregion>NULL</subregion>
    <fips>NULL</fips>
    <postal-code>NULL</postal-code>
    <name>Kommuneqarfik Sermersooq</name>
    <country>Greenland</country>
    <type-en>NULL</type-en>
    <region>NULL</region>
    <longitude>-44.037</longitude>
    <woe-name>NULL</woe-name>
    <latitude>64.0596</latitude>
    <woe-label>NULL</woe-label>
    <type>Lansdele</type>
    <hc-middle-x>0.58</hc-middle-x>
    <hc-middle-y>0.34</hc-middle-y>
    <hc-key>gl-3278</hc-key>
    <hc-a2>KS</hc-a2>
  </desc>
</path>

<path fill="#CEE3F5" stroke="#6E6E6E" stroke-width="0.4" id="GL.3274" d="M144.6,697.2 L141.1,700.0 L138.4,697.5 L140.8,694.7 Z M139.8,692.9 L137.7,696.7 L133.9,696.2 L137.2,693.0 Z M121.5,681.4 L123.7,682.3 L122.8,684.8 L119.2,686.9 Z M83.4,664.4 L86.0,667.4 L80.6,667.5 L78.5,664.3 Z M107.0,667.2 L108.0,669.4 L99.2,667.8 L109.4,663.8 Z M153.4,692.8 L148.5,693.8 L147.6,697.2 L141.5,694.0 L139.5,688.9 Z M157.7,615.4 L164.1,620.7 L171.4,621.2 L167.9,625.3 L159.8,622.3 L165.0,628.1 L169.7,628.8 L168.7,634.9 L165.6,636.6 L171.4,637.8 L167.4,640.0 L171.2,644.4 L164.7,645.3 L168.0,648.7 L163.7,650.8 L156.9,649.0 L159.0,651.0 L164.9,651.2 L166.6,654.7 L161.9,658.1 L163.7,660.9 L154.8,659.8 L162.8,663.6 L149.7,661.6 L158.5,664.2 L161.1,668.5 L157.3,669.3 L159.9,672.0 L149.4,670.2 L160.2,674.1 L159.2,677.6 L152.9,681.3 L147.1,678.4 L138.9,677.4 L149.9,680.8 L154.3,688.0 L153.7,692.6 L140.8,688.6 L138.0,688.8 L140.9,685.3 L134.2,689.3 L136.8,691.1 L134.0,695.0 L132.7,693.2 L134.1,689.4 L133.1,690.0 L131.2,694.9 L125.3,691.7 L122.1,687.5 L126.8,683.6 L121.7,679.1 L123.2,676.3 L117.1,678.4 L114.6,673.8 L113.1,676.6 L111.7,671.5 L118.1,670.1 L122.4,664.3 L116.1,669.8 L112.7,667.5 L111.5,670.4 L108.7,669.7 L114.0,664.9 L119.7,664.0 L122.2,661.0 L111.8,665.2 L111.1,663.1 L117.5,660.7 L115.3,656.0 L114.1,660.2 L109.1,663.0 L107.1,660.4 L106.0,663.8 L103.1,661.9 L99.0,667.0 L96.2,666.7 L98.4,662.3 L93.2,667.2 L93.1,661.6 L90.5,665.2 L78.8,663.1 L87.5,659.4 L84.6,659.1 L89.0,657.9 L145.8,615.0 L152.6,616.0 Z">
  <desc xmlns="http://www.highcharts.com/svg/namespace">
    <labelrank>7</labelrank>
    <hasc>GL.VG</hasc>
    <alt-name>Kujalleq</alt-name>
    <woe-id>-99</woe-id>
    <subregion>NULL</subregion>
    <fips>NULL</fips>
    <postal-code>NULL</postal-code>
    <name>Kommune Kujalleq</name>
    <country>Greenland</country>
    <type-en>NULL</type-en>
    <region>NULL</region>
    <longitude>-44.296</longitude>
    <woe-name>NULL</woe-name>
    <latitude>61.5451</latitude>
    <woe-label>NULL</woe-label>
    <type>Lansdele</type>
    <hc-middle-x>0.61</hc-middle-x>
    <hc-middle-y>0.45</hc-middle-y>
    <hc-key>gl-3274</hc-key>
    <hc-a2>KK</hc-a2>
  </desc>
</path>

<path fill="#CEE3F5" stroke="#6E6E6E" stroke-width="0.4" id="GL.3297" d="M328.6,282.3 L331.3,285.3 L326.7,287.1 L324.8,293.7 L321.2,295.5 L317.7,293.2 L314.8,294.0 L309.6,290.5 L312.2,294.3 L318.5,295.0 L317.2,299.7 L313.6,298.9 L309.4,300.6 L317.5,300.7 L319.1,297.4 L322.8,296.3 L325.6,297.6 L331.7,297.6 L332.7,299.1 L330.8,303.7 L327.5,304.3 L325.8,307.9 L320.1,312.1 L327.1,309.3 L329.5,305.7 L337.9,308.4 L339.7,312.3 L335.9,316.3 L329.1,318.4 L336.0,318.4 L341.2,315.3 L344.3,317.6 L349.5,318.4 L351.5,320.5 L356.8,321.7 L363.5,324.5 L359.8,324.5 L358.1,326.6 L355.1,326.5 L349.9,330.8 L347.5,331.0 L347.1,335.1 L348.8,343.1 L346.1,345.4 L341.0,345.1 L335.7,342.6 L327.3,345.4 L321.9,340.7 L314.4,335.3 L309.8,335.4 L309.3,337.5 L314.2,338.6 L321.1,341.7 L318.8,345.4 L324.0,345.4 L328.6,347.1 L333.3,345.6 L332.9,350.2 L320.7,359.2 L320.7,359.2 L320.7,359.2 L320.7,359.2 L320.2,358.8 L319.4,360.2 L311.4,365.4 L162.6,374.7 L177.0,168.3 L114.4,95.5 L111.5,88.9 L104.9,74.4 L104.3,65.7 L103.5,57.2 L106.7,58.8 L108.0,57.2 L108.5,51.5 L112.1,48.4 L111.9,40.8 L113.4,39.2 L119.6,37.3 L120.8,39.5 L123.6,41.4 L122.5,46.6 L125.8,50.5 L127.1,56.0 L127.3,53.2 L126.1,48.8 L124.6,47.9 L125.2,41.4 L122.5,36.6 L126.8,34.9 L136.3,33.8 L136.5,36.0 L138.6,33.3 L141.1,34.7 L141.7,32.7 L145.2,32.0 L146.2,33.9 L146.8,40.3 L145.6,46.3 L143.4,50.8 L141.9,56.3 L143.2,56.7 L143.6,53.7 L147.7,48.2 L148.8,43.1 L151.8,46.7 L154.3,48.4 L157.9,54.5 L158.9,58.1 L159.4,55.0 L157.3,52.5 L156.0,47.2 L160.6,50.6 L162.5,48.6 L159.0,41.7 L158.9,30.9 L166.7,34.0 L167.3,37.0 L172.6,43.4 L177.1,47.9 L177.2,50.6 L179.9,55.6 L181.5,56.1 L184.0,54.2 L181.6,50.0 L181.5,48.1 L183.9,46.5 L182.5,44.1 L183.7,40.8 L185.0,40.2 L189.0,41.7 L186.7,39.6 L187.2,37.7 L184.8,35.1 L184.2,32.8 L180.5,27.6 L180.4,26.1 L194.2,27.6 L195.3,35.8 L195.8,31.3 L194.8,28.5 L196.0,28.0 L199.1,31.9 L201.1,33.4 L201.7,38.0 L202.7,39.5 L202.9,35.3 L202.1,34.3 L202.1,29.7 L199.8,28.9 L198.3,27.2 L181.1,23.1 L179.7,24.0 L177.7,22.3 L177.0,19.7 L179.9,21.7 L177.6,19.0 L180.3,16.5 L183.3,20.1 L189.6,22.3 L183.4,18.6 L182.3,16.3 L183.6,14.9 L185.0,16.7 L185.5,14.6 L188.5,16.3 L191.6,17.0 L187.8,14.0 L191.7,14.1 L190.5,12.3 L192.6,11.9 L194.5,13.2 L199.4,20.9 L204.0,21.6 L205.6,23.5 L207.1,27.9 L207.6,25.5 L205.2,20.4 L211.9,20.0 L210.7,19.1 L206.3,18.5 L212.9,16.0 L210.4,15.8 L209.2,14.4 L206.6,14.3 L206.0,10.0 L206.4,7.8 L209.5,9.7 L208.6,7.5 L210.1,5.2 L212.8,7.3 L212.9,4.2 L217.9,3.9 L220.7,1.6 L222.9,5.6 L221.9,2.0 L226.8,0.0 L227.6,1.8 L233.0,0.1 L237.9,1.2 L240.0,1.2 L239.5,3.1 L241.2,2.5 L251.5,5.4 L250.7,8.4 L234.9,13.8 L234.5,14.8 L230.2,16.8 L229.0,15.6 L225.3,14.4 L228.9,16.8 L227.2,18.9 L218.3,22.3 L219.1,25.2 L220.6,22.5 L223.9,21.8 L225.4,24.1 L225.4,20.8 L227.3,19.5 L231.7,18.6 L232.3,20.2 L233.1,17.6 L237.2,13.7 L247.2,13.7 L249.9,12.3 L253.9,8.8 L255.7,10.0 L256.9,13.2 L256.6,17.8 L255.8,20.0 L258.6,15.8 L260.5,16.1 L262.1,18.7 L262.0,16.7 L263.7,16.2 L265.7,18.1 L266.0,16.6 L272.3,20.1 L272.8,22.2 L270.6,26.9 L270.9,29.5 L265.9,33.0 L243.3,42.5 L240.8,41.2 L235.8,41.6 L241.3,41.9 L243.2,44.1 L236.3,49.0 L232.5,53.1 L233.4,57.5 L235.8,57.5 L237.2,52.7 L240.7,51.2 L244.5,48.0 L245.8,49.6 L247.3,46.0 L252.1,43.1 L265.3,42.1 L266.6,48.1 L261.1,54.6 L260.0,57.4 L262.1,60.2 L264.5,55.5 L268.4,51.8 L270.8,48.0 L272.2,48.6 L270.7,39.5 L277.3,35.5 L279.4,38.1 L281.7,43.8 L283.2,51.2 L282.3,63.1 L281.3,64.3 L280.6,70.7 L280.8,77.3 L280.0,81.4 L281.8,76.9 L282.1,69.9 L284.9,66.3 L285.8,60.3 L287.2,58.7 L287.1,54.9 L288.8,48.5 L287.3,45.0 L291.1,45.0 L292.2,52.6 L294.2,47.7 L296.2,47.6 L300.2,49.0 L301.3,43.7 L300.2,41.3 L301.6,40.3 L300.1,37.3 L302.2,35.3 L301.8,33.9 L309.3,31.0 L313.9,32.0 L318.9,32.0 L323.9,35.3 L322.6,40.3 L323.1,44.9 L322.0,51.0 L317.4,54.3 L319.8,55.6 L321.1,59.3 L317.5,63.3 L317.9,65.3 L314.4,67.2 L310.4,68.1 L308.0,67.4 L308.9,69.4 L306.9,72.3 L304.5,73.4 L299.5,72.3 L296.5,77.4 L297.6,79.5 L299.8,73.2 L307.9,74.6 L311.1,72.7 L312.1,69.9 L315.4,71.9 L319.3,72.6 L318.5,79.0 L315.7,81.3 L314.5,80.7 L312.4,83.4 L303.8,83.6 L302.5,91.6 L303.3,95.6 L307.3,100.7 L308.8,97.2 L310.8,98.5 L312.4,108.1 L313.6,109.9 L317.0,110.4 L318.1,113.5 L315.3,115.7 L314.4,119.1 L316.2,124.4 L313.1,124.5 L313.2,127.1 L311.0,127.6 L312.9,131.9 L314.0,142.7 L315.7,148.2 L314.6,151.0 L315.9,153.3 L314.9,155.6 L315.6,160.7 L318.9,160.4 L316.9,153.2 L318.0,150.3 L318.2,156.7 L318.8,150.5 L320.0,150.1 L326.6,153.4 L330.8,153.7 L334.3,156.0 L332.9,159.4 L327.2,156.3 L322.8,159.1 L326.6,160.8 L327.6,165.9 L332.6,165.4 L335.7,168.4 L338.3,168.1 L336.8,164.5 L340.3,164.1 L342.7,165.7 L346.2,173.5 L346.2,180.5 L342.0,177.8 L340.0,178.8 L335.8,177.3 L331.6,178.2 L330.5,180.9 L324.3,182.4 L330.2,181.9 L326.5,189.0 L321.1,184.4 L321.8,187.5 L319.4,190.0 L323.1,192.2 L323.9,190.2 L328.1,192.5 L330.4,200.2 L331.8,200.8 L335.4,196.9 L338.9,198.3 L342.3,196.0 L345.4,199.0 L342.7,204.2 L330.9,208.3 L332.2,208.9 L340.9,205.8 L345.6,205.0 L351.7,209.1 L350.4,211.1 L353.5,214.5 L356.5,223.4 L354.0,226.7 L350.0,222.1 L346.8,224.7 L341.8,222.5 L336.8,218.8 L332.1,218.7 L338.0,220.6 L341.5,224.4 L344.4,224.9 L349.4,228.5 L344.8,230.8 L341.8,236.1 L343.7,235.6 L345.5,231.5 L349.4,231.1 L350.7,237.8 L352.7,240.1 L352.0,242.5 L356.3,240.6 L360.9,241.8 L361.9,238.4 L364.9,242.4 L367.6,242.6 L366.8,249.7 L365.2,251.2 L360.4,251.7 L357.5,247.5 L350.4,249.1 L346.8,251.4 L345.7,255.5 L346.3,262.1 L344.8,263.7 L349.1,264.3 L351.7,261.7 L360.4,264.0 L363.8,263.2 L363.3,267.0 L365.9,275.8 L357.4,277.4 L358.0,280.2 L353.3,286.2 L345.7,285.4 L336.5,280.6 L335.3,277.2 L338.9,276.2 L346.2,278.8 L344.9,277.5 L334.1,274.4 L332.0,277.9 L333.1,283.3 Z M328.6,282.3 L328.5,282.2 L328.5,282.2 L328.5,282.2 L327.3,279.5 L319.9,275.3 L322.1,278.0 L326.7,280.3 L328.5,282.2 L328.5,282.2 L328.5,282.2 L328.6,282.3 Z M335.4,302.2 L335.0,306.1 L331.6,305.3 L332.3,303.4 Z M367.3,238.0 L368.0,240.4 L364.6,240.4 L366.1,237.1 Z M340.6,152.7 L338.5,153.7 L337.9,146.9 L338.8,145.8 L340.4,148.3 Z M329.5,142.0 L330.1,147.6 L328.7,144.0 L327.2,143.2 Z M320.6,144.6 L319.4,145.2 L317.7,144.4 L319.0,141.6 Z M326.9,136.0 L327.7,140.5 L324.6,136.5 L325.3,132.2 Z M320.0,121.7 L322.0,124.8 L320.4,126.7 L318.5,125.4 L319.3,120.0 Z M327.1,113.2 L325.6,116.3 L324.5,113.7 L324.6,109.5 Z M308.6,85.7 L305.3,90.6 L304.3,86.8 L305.5,84.5 Z M298.4,42.8 L296.9,43.6 L293.9,41.8 L295.0,39.6 Z M290.8,38.9 L289.1,39.4 L285.2,35.6 L283.9,32.6 L284.6,31.7 L286.6,33.4 Z M173.7,25.1 L170.8,24.5 L171.4,21.4 L174.0,23.8 Z M354.4,230.7 L354.3,234.3 L357.7,233.8 L356.6,239.9 L351.4,237.9 L350.3,233.2 L351.6,230.5 Z M321.9,150.1 L324.6,148.0 L326.8,150.0 L329.0,149.1 L330.3,151.6 Z M308.4,94.3 L310.6,88.7 L313.8,85.1 L317.2,87.3 L317.3,94.9 L314.7,97.7 L310.7,96.3 Z M148.7,36.4 L150.3,34.5 L151.2,35.2 L151.7,38.9 L155.6,45.3 L155.4,46.1 L151.9,45.1 L148.3,40.7 Z M204.5,17.6 L203.7,20.3 L200.8,18.2 L200.1,15.5 L202.0,15.8 Z M199.4,19.6 L196.9,15.1 L198.9,15.4 L200.2,18.2 L201.6,18.8 L202.5,21.0 Z M205.7,16.9 L202.5,14.6 L201.8,12.7 L199.7,12.4 L200.9,10.1 L202.7,11.5 L203.8,14.0 L206.1,15.3 Z M350.1,195.1 L345.6,188.0 L343.3,179.6 L346.8,182.4 L347.7,186.0 L355.0,201.1 Z M361.8,254.7 L353.9,260.0 L347.6,258.3 L347.0,254.1 L350.6,249.6 L353.2,249.5 L356.4,249.0 Z M365.1,219.5 L369.5,222.6 L372.5,219.8 L373.5,223.0 L372.0,224.5 L368.0,224.8 L366.1,227.3 L362.7,228.1 L359.8,219.9 L361.2,216.8 L363.0,218.2 L363.8,214.3 L367.1,216.4 Z M358.1,312.2 L364.4,313.0 L363.9,317.8 L361.4,318.1 L355.1,314.7 L345.3,312.1 L341.5,310.0 L338.5,303.7 L342.8,300.7 L349.8,299.9 L355.3,304.6 L363.2,306.6 L364.0,309.4 L360.7,308.6 L356.6,310.2 Z M336.8,299.1 L344.8,295.5 L347.1,293.5 L356.2,293.7 L359.7,294.5 L358.6,298.3 L361.7,301.0 L355.3,302.7 L352.8,299.7 L349.4,298.9 L343.5,299.8 L337.6,301.6 Z M330.5,290.6 L341.6,291.5 L347.5,290.3 L349.0,292.0 L337.0,297.7 L334.3,297.3 L328.2,297.4 L325.4,296.2 L327.7,291.5 L327.6,288.7 L334.0,286.6 L345.6,288.6 L345.7,289.5 Z M174.7,37.9 L174.0,33.3 L172.6,29.2 L174.2,29.3 L177.9,28.8 L181.4,32.5 L184.4,38.2 L181.5,42.8 L182.5,46.6 L181.0,47.5 L179.9,43.8 Z">
  <desc xmlns="http://www.highcharts.com/svg/namespace">
    <labelrank>7</labelrank>
    <hasc>GL.NG</hasc>
    <alt-name>National Park</alt-name>
    <woe-id>-99</woe-id>
    <subregion>NULL</subregion>
    <fips>NULL</fips>
    <postal-code>NULL</postal-code>
    <name>Nationalparken</name>
    <country>Greenland</country>
    <type-en>NULL</type-en>
    <region>NULL</region>
    <longitude>-33.4567</longitude>
    <woe-name>NULL</woe-name>
    <latitude>77.0582</latitude>
    <woe-label>NULL</woe-label>
    <type>Lansdele</type>
    <hc-middle-x>0.54</hc-middle-x>
    <hc-middle-y>0.47</hc-middle-y>
    <hc-key>gl-3297</hc-key>
    <hc-a2>NA</hc-a2>
  </desc>
</path>

<path fill="#CEE3F5" stroke="#6E6E6E" stroke-width="0.4" id="GL.2728" d="M162.6,374.7 L155.5,475.6 L93.1,468.3 L85.0,468.2 L79.9,467.1 L72.6,459.6 L75.9,460.1 L80.5,457.9 L84.4,458.2 L79.8,455.2 L79.8,457.7 L74.0,458.4 L72.7,454.5 L77.4,454.4 L76.9,452.5 L70.7,452.7 L72.8,456.4 L67.8,459.1 L61.4,454.1 L55.8,453.6 L44.4,459.7 L46.7,455.6 L46.3,450.9 L52.8,450.0 L52.3,447.0 L55.2,445.4 L54.9,441.2 L61.0,445.8 L61.1,442.9 L67.4,448.6 L75.5,449.6 L81.3,455.4 L85.0,455.4 L78.6,450.7 L73.8,445.1 L78.5,446.9 L75.2,443.6 L75.5,443.1 L62.5,443.5 L62.0,438.3 L56.3,438.0 L55.6,434.4 L64.6,435.4 L62.8,433.3 L68.3,430.9 L74.2,435.8 L79.0,435.5 L81.7,430.9 L78.7,429.5 L81.9,424.5 L83.0,419.3 L86.0,420.0 L87.9,425.7 L92.0,424.1 L87.5,420.0 L91.0,421.2 L93.4,418.7 L90.0,418.8 L90.3,415.6 L85.2,418.5 L83.0,417.0 L86.0,415.4 L88.2,405.6 L92.3,405.8 L88.8,403.5 L91.7,401.3 L95.2,402.4 L94.9,399.0 L92.4,397.4 L96.3,394.6 L89.1,395.7 L84.0,394.6 L82.4,392.8 L75.5,390.2 L73.7,384.9 L68.4,379.6 L62.6,377.3 L59.9,373.8 L57.8,366.0 L64.4,364.2 L69.2,367.7 L75.4,369.0 L78.4,371.3 L85.6,381.0 L93.9,385.8 L96.3,379.9 L93.3,382.8 L91.1,382.3 L88.4,377.4 L91.9,379.1 L93.6,375.6 L88.6,372.1 L90.8,370.6 L95.7,374.7 L94.2,371.4 L85.2,363.1 L86.7,362.1 L92.0,366.4 L95.2,365.1 L90.0,362.9 L91.8,360.8 L85.0,360.8 L83.1,359.3 L90.9,355.6 L89.2,353.8 L81.5,358.5 L80.4,357.4 L84.1,354.7 L84.4,352.7 L88.4,351.3 L92.8,352.2 L90.7,349.7 L82.9,352.1 L77.9,349.5 L81.3,347.1 L90.3,346.8 L92.1,344.4 L86.8,345.7 L82.6,342.8 L77.2,340.7 L82.1,337.0 L83.8,332.9 L80.8,335.2 L80.8,337.3 L76.7,338.3 L77.7,336.3 L77.8,329.6 L76.2,327.8 L76.4,321.4 L75.2,326.5 L76.8,331.1 L76.9,336.5 L72.5,341.3 L69.8,338.6 L70.7,344.1 L69.0,346.9 L62.1,347.8 L59.4,344.5 L56.1,345.3 L54.5,342.8 L54.5,337.2 L52.8,335.1 L56.4,334.3 L55.3,329.7 L60.5,329.8 L57.9,327.2 L66.5,321.5 L66.5,316.3 L64.3,317.6 L63.0,312.5 L71.0,316.0 L69.5,313.1 L67.4,313.5 L71.4,309.0 L70.2,306.2 L73.3,305.6 L72.2,301.1 L67.7,296.8 L66.0,296.7 L71.2,292.5 L69.3,291.5 L72.1,288.2 L70.6,285.5 L68.6,286.9 L67.9,282.5 L70.3,285.6 L70.1,281.7 L67.6,279.4 L70.6,277.5 L70.1,273.3 L72.5,273.2 L69.7,269.8 L71.1,268.2 L68.2,266.1 L72.1,261.0 L67.7,263.2 L61.3,263.3 L65.3,261.4 L70.6,260.3 L68.0,257.7 L72.6,258.4 L69.7,255.0 L73.0,254.5 L69.9,247.0 L68.0,245.6 L71.4,244.3 L70.2,240.5 L63.5,233.9 L65.8,232.1 L64.2,229.7 L62.7,224.0 L66.3,223.4 L66.2,219.3 L67.6,214.6 L63.1,214.0 L63.2,208.5 L60.0,209.5 L61.4,206.7 L59.2,205.7 L58.9,202.1 L54.6,201.5 L55.1,196.8 L47.2,191.6 L47.3,189.5 L42.8,189.6 L43.6,187.5 L40.4,183.7 L36.5,188.3 L33.9,188.7 L33.9,181.8 L33.1,184.3 L31.3,183.1 L29.4,187.0 L25.8,183.7 L23.8,187.6 L21.3,183.9 L25.2,181.3 L21.5,178.3 L17.7,182.7 L16.8,176.3 L13.0,177.7 L15.4,186.1 L4.6,176.1 L5.5,174.5 L1.5,164.1 L2.6,162.9 L6.6,163.0 L7.0,170.0 L9.3,171.2 L12.4,165.5 L15.7,167.3 L16.8,165.1 L14.7,164.0 L15.5,160.9 L10.0,159.3 L5.2,153.7 L4.8,151.7 L9.4,148.6 L3.0,150.8 L1.1,146.2 L2.7,146.0 L0.4,142.6 L3.6,139.4 L6.0,139.0 L13.5,141.7 L19.0,147.1 L23.7,148.6 L28.2,153.4 L30.4,153.7 L23.4,147.6 L21.8,147.5 L17.6,142.9 L23.3,142.5 L28.8,145.2 L32.3,147.9 L33.4,150.5 L33.8,146.6 L37.1,147.8 L38.6,142.4 L36.9,139.5 L34.4,138.5 L32.5,140.7 L29.8,141.0 L25.1,139.4 L25.8,134.2 L24.8,133.8 L23.6,138.2 L19.5,137.9 L15.3,131.3 L21.3,130.9 L22.4,129.0 L18.0,129.5 L15.1,126.6 L20.7,124.7 L19.1,123.6 L16.2,124.7 L12.6,123.0 L14.8,120.2 L12.3,119.6 L10.3,115.6 L11.8,112.5 L10.4,111.4 L10.3,108.0 L13.7,105.4 L17.7,99.9 L21.6,101.0 L24.9,100.1 L28.0,103.5 L29.7,101.2 L34.5,102.0 L35.6,100.9 L38.3,102.6 L42.6,98.8 L48.9,99.0 L54.9,101.2 L56.1,100.6 L59.7,103.6 L65.6,98.7 L70.5,95.5 L71.6,91.0 L73.5,87.9 L73.5,85.9 L76.1,81.1 L80.1,81.2 L81.9,79.9 L82.8,77.2 L79.8,80.2 L75.8,78.6 L72.1,79.6 L70.7,75.5 L67.2,75.6 L68.0,72.5 L67.0,71.3 L69.2,67.2 L73.8,65.5 L75.1,63.2 L78.6,63.1 L79.7,61.7 L82.0,62.9 L82.4,60.9 L85.2,60.6 L89.3,55.6 L93.8,55.4 L96.3,53.5 L95.2,59.4 L95.7,59.7 L97.4,53.7 L99.9,52.5 L102.8,54.7 L103.5,57.2 L104.3,65.7 L104.9,74.4 L111.5,88.9 L114.4,95.5 L177.0,168.3 Z M75.5,443.1 L76.7,443.1 L76.1,442.4 L76.1,442.4 L78.0,439.8 L72.7,438.8 L76.1,442.4 L76.1,442.4 Z M69.0,429.4 L57.7,430.7 L59.2,428.9 L63.8,428.3 Z M88.2,396.8 L91.1,400.1 L87.4,402.7 L86.7,407.3 L83.5,407.3 L83.7,401.2 Z M88.1,368.1 L82.8,367.5 L83.3,364.4 L85.1,364.6 Z M70.4,359.3 L66.4,356.0 L71.4,351.0 L72.3,356.3 Z M79.3,357.5 L76.4,357.2 L75.7,351.3 L77.8,350.5 L82.9,352.7 L83.3,354.5 Z M78.7,342.5 L81.5,343.0 L77.5,345.8 L74.8,345.0 L74.9,341.8 Z M65.5,319.2 L60.3,323.0 L59.6,320.2 L66.3,317.5 Z M63.6,304.9 L60.8,307.4 L58.3,305.2 L61.0,304.1 Z M69.8,305.5 L63.1,311.3 L64.1,305.3 L68.3,303.8 Z M67.1,297.2 L70.2,301.0 L68.0,301.4 L65.2,298.3 Z M67.5,271.8 L69.7,273.3 L66.2,274.3 L64.3,273.0 L65.2,269.9 Z M71.1,253.9 L66.3,252.8 L62.8,251.4 L69.9,251.7 Z M10.4,131.9 L12.7,136.3 L7.9,133.7 L7.8,131.0 Z M0.0,128.4 L2.7,128.1 L5.9,133.1 L3.4,133.1 Z M61.3,379.8 L67.1,383.8 L70.7,392.9 L77.3,398.1 L76.3,401.8 L78.0,403.4 L73.9,407.1 L57.3,410.7 L52.1,406.3 L52.3,402.9 L60.5,405.3 L55.3,400.4 L47.8,397.6 L46.1,393.7 L50.3,392.5 L47.8,390.5 L50.4,386.7 L55.2,389.6 L50.9,384.8 L51.5,380.0 L56.1,377.7 Z">
  <desc xmlns="http://www.highcharts.com/svg/namespace">
    <labelrank>7</labelrank>
    <hasc>GL.NG</hasc>
    <alt-name>Qaasuitsup</alt-name>
    <woe-id>-99</woe-id>
    <subregion>NULL</subregion>
    <fips>NULL</fips>
    <postal-code>NULL</postal-code>
    <name>Qaasuitsup Kommunia</name>
    <country>Greenland</country>
    <type-en>NULL</type-en>
    <region>NULL</region>
    <longitude>-49.3311</longitude>
    <woe-name>NULL</woe-name>
    <latitude>74.5573</latitude>
    <woe-label>NULL</woe-label>
    <type>Lansdele</type>
    <hc-middle-x>0.64</hc-middle-x>
    <hc-middle-y>0.54</hc-middle-y>
    <hc-key>gl-2728</hc-key>
    <hc-a2>QK</hc-a2>
  </desc>
</path>

<path fill="#CEE3F5" stroke="#6E6E6E" stroke-width="0.4" id="GL.3282" d="M65.3,533.4 L63.1,533.9 L62.8,538.8 L59.6,540.7 L54.2,540.4 L49.3,546.7 L45.4,546.9 L44.2,544.1 L48.7,540.7 L53.3,540.4 L57.5,536.4 L51.2,539.3 L44.6,540.5 L44.8,537.3 L47.9,535.9 L45.1,532.4 L49.0,527.3 L45.9,529.0 L47.5,525.4 L44.2,527.8 L43.0,524.9 L51.3,521.4 L52.2,519.8 L44.6,522.9 L43.8,518.7 L41.6,518.0 L44.0,513.0 L38.6,517.1 L36.6,515.2 L41.2,514.2 L37.1,512.5 L42.5,510.3 L37.4,510.9 L39.3,507.8 L36.7,501.9 L46.9,497.5 L52.6,493.4 L56.5,492.9 L59.6,488.9 L67.7,484.5 L76.3,480.9 L73.1,481.2 L65.2,484.4 L58.5,488.1 L55.7,491.8 L47.7,495.1 L43.3,498.5 L38.6,500.1 L35.1,498.9 L36.9,495.7 L36.2,492.1 L37.8,488.2 L41.3,487.8 L43.3,489.7 L46.0,487.9 L41.0,486.9 L44.6,482.4 L49.2,483.2 L56.4,479.7 L50.3,479.4 L47.1,477.5 L40.5,476.5 L38.0,470.9 L40.1,468.5 L45.2,469.1 L44.7,467.6 L49.5,468.4 L60.8,467.4 L62.7,468.2 L61.0,466.4 L49.2,467.5 L40.1,466.7 L42.2,461.7 L54.2,456.5 L60.3,455.4 L66.9,460.9 L71.0,460.3 L79.4,467.8 L85.0,468.2 L93.1,468.3 L155.5,475.6 L151.1,539.2 L75.4,529.9 Z M52.2,519.8 L52.3,519.7 L52.4,519.5 L52.4,519.5 L52.4,519.5 L52.4,519.5 L53.6,517.4 L58.9,515.6 L64.7,516.0 L67.5,518.6 L68.9,517.2 L62.1,514.7 L53.2,516.8 L52.4,519.5 L52.4,519.5 L52.4,519.5 L52.4,519.5 Z M62.7,468.2 L62.7,468.2 L62.7,468.2 L62.7,468.2 L62.7,468.2 L62.7,468.2 L67.4,470.0 L70.6,476.1 L70.6,476.1 L70.6,476.1 L70.6,476.1 L70.6,476.2 L70.6,476.2 L70.6,476.2 L70.6,476.2 L70.6,476.2 L71.0,476.8 L74.9,475.9 L79.6,477.0 L78.7,475.3 L70.6,476.2 L70.6,476.2 L70.6,476.2 L70.6,476.2 L70.6,476.1 L70.6,476.1 L70.6,476.1 L70.6,476.1 L68.2,469.0 L73.0,468.3 L62.7,468.2 L62.7,468.2 L62.7,468.2 L62.7,468.2 Z">
  <desc xmlns="http://www.highcharts.com/svg/namespace">
    <labelrank>7</labelrank>
    <hasc>GL.VG</hasc>
    <alt-name>Qeqqata</alt-name>
    <woe-id>-99</woe-id>
    <subregion>NULL</subregion>
    <fips>NULL</fips>
    <postal-code>NULL</postal-code>
    <name>Qeqqata Kommunia</name>
    <country>Greenland</country>
    <type-en>NULL</type-en>
    <region>NULL</region>
    <longitude>-47.3782</longitude>
    <woe-name>NULL</woe-name>
    <latitude>66.5487</latitude>
    <woe-label>NULL</woe-label>
    <type>Lansdele</type>
    <hc-middle-x>0.62</hc-middle-x>
    <hc-middle-y>0.51</hc-middle-y>
    <hc-key>gl-3282</hc-key>
    <hc-a2>QK</hc-a2>
  </desc>
</path>

<path fill="#CEE3F5" stroke="#6E6E6E" stroke-width="0.4" id="GL.3298" d="M6.6,163.0 L10.0,161.9 L14.7,164.0 L16.8,165.1 L15.7,167.3 L12.4,165.5 L9.3,171.2 L7.0,170.0 Z">
  <desc xmlns="http://www.highcharts.com/svg/namespace">
    <labelrank>7</labelrank>
    <hasc>GL.VG</hasc>
    <alt-name>Thule Air Base</alt-name>
    <woe-id>-99</woe-id>
    <subregion>NULL</subregion>
    <fips>NULL</fips>
    <postal-code>NULL</postal-code>
    <name>Pituffik</name>
    <country>Greenland</country>
    <type-en>NULL</type-en>
    <region>NULL</region>
    <longitude>-68.36109999999999</longitude>
    <woe-name>NULL</woe-name>
    <latitude>76.4432</latitude>
    <woe-label>NULL</woe-label>
    <type>Lansdele</type>
    <hc-middle-x>0.37</hc-middle-x>
    <hc-middle-y>0.52</hc-middle-y>
    <hc-key>gl-3298</hc-key>
    <hc-a2>PI</hc-a2>
  </desc>
</path>
</g>

<text x="350" y="714" text-anchor="middle" font-family="Verdana" font-size="8" stroke-opacity="0.6">Copyright (c) 2020 Highsoft AS, Based on data from Natural Earth</text>

</svg>