<?xml version="1.0" encoding="utf-8" standalone="no"?>
<!DOCTYPE svg PUBLIC "-//W3C//DTD SVG 1.1//EN" "http://www.w3.org/Graphics/SVG/1.1/DTD/svg11.dtd">

<svg version="1.1" height="700pt" width="700pt" xmlns="http://www.w3.org/2000/svg" xmlns:xlink="http://www.w3.org/1999/xlink">
<desc>
Map version: 1.1.3
Copyright (c) 2020 Highsoft AS, Based on data from Natural Earth
</desc>
<title>Benin</title>
<g id="admin1">

<g id="BJ">
  <desc xmlns="http://www.highcharts.com/svg/namespace">
    <name>Benin</name>
    <labelrank>5</labelrank>
    <country-abbrev>Benin</country-abbrev>
    <subregion>Western Africa</subregion>
    <region-wb>Sub-Saharan Africa</region-wb>
    <iso-a3>BEN</iso-a3>
    <iso-a2>BJ</iso-a2>
    <woe-id>23424764</woe-id>
    <continent>Africa</continent>
    <hc-key>bj</hc-key>
    <hc-a2>BE</hc-a2>
  </desc>
</g>

<path fill="#CEE3F5" stroke="#6E6E6E" stroke-width="0.4" id="BJ.DO" d="M94.2,431.1 L93.7,378.9 L92.2,373.1 L89.9,369.0 L74.0,352.2 L71.3,348.1 L69.7,343.5 L69.0,332.1 L67.7,328.8 L65.8,329.8 L63.0,325.3 L63.1,321.5 L65.9,317.0 L66.4,311.1 L65.6,305.8 L65.2,276.3 L73.0,274.6 L83.2,275.4 L88.0,276.5 L95.1,277.3 L100.7,276.0 L105.5,273.6 L109.2,270.6 L117.4,266.8 L149.2,267.9 L150.2,270.2 L148.7,273.2 L149.7,278.7 L147.9,290.1 L147.9,293.5 L150.0,299.8 L151.7,302.7 L155.9,306.8 L156.9,310.4 L152.4,339.5 L150.8,342.2 L148.7,343.1 L140.0,343.5 L137.6,344.9 L135.9,349.8 L135.3,360.1 L136.1,366.1 L138.8,369.8 L142.9,371.9 L144.3,374.4 L142.5,380.8 L141.4,391.5 L142.0,395.7 L144.3,399.2 L148.4,401.7 L159.7,404.8 L161.4,406.0 L160.4,410.0 L159.6,413.5 L161.4,416.4 L163.3,426.6 L161.7,436.3 L163.2,439.6 L159.7,442.8 L156.4,444.0 L152.4,443.9 L149.3,442.7 L145.2,442.5 L136.9,438.6 L134.4,435.7 L126.0,433.5 L123.0,430.2 L119.3,428.2 L116.0,428.6 L106.2,431.2 L102.3,431.5 Z">
  <desc xmlns="http://www.highcharts.com/svg/namespace">
    <labelrank>7</labelrank>
    <hasc>BJ.DO</hasc>
    <alt-name>NULL</alt-name>
    <woe-id>55967671</woe-id>
    <subregion>NULL</subregion>
    <fips>BN13</fips>
    <postal-code>DO</postal-code>
    <name>Donga</name>
    <country>Benin</country>
    <type-en>Department</type-en>
    <region>NULL</region>
    <longitude>1.77142</longitude>
    <woe-name>Donga</woe-name>
    <latitude>9.315060000000001</latitude>
    <woe-label>NULL</woe-label>
    <type>Département</type>
    <hc-middle-x>0.44</hc-middle-x>
    <hc-middle-y>0.41</hc-middle-y>
    <hc-key>bj-do</hc-key>
    <hc-a2>DO</hc-a2>
  </desc>
</path>

<path fill="#CEE3F5" stroke="#6E6E6E" stroke-width="0.4" id="BJ.BO" d="M344.9,200.1 L344.1,206.6 L340.2,215.3 L340.1,221.2 L337.7,225.4 L335.9,225.7 L328.8,221.9 L324.2,222.2 L321.0,226.2 L320.4,229.8 L317.6,234.1 L315.3,239.2 L317.0,243.9 L324.7,251.8 L326.0,255.0 L324.6,260.1 L319.8,263.6 L319.1,265.4 L318.4,275.1 L313.7,281.7 L310.7,287.1 L308.7,289.0 L302.0,288.2 L297.6,289.4 L289.5,292.7 L286.7,296.3 L286.9,301.1 L289.2,308.0 L288.4,311.0 L284.7,313.1 L278.7,313.1 L278.5,318.7 L271.6,327.6 L268.2,329.6 L266.0,333.1 L265.6,336.2 L268.1,344.8 L268.1,352.2 L265.1,358.9 L261.4,370.5 L259.7,374.1 L256.9,376.0 L249.2,378.0 L244.4,376.1 L238.6,376.3 L235.3,378.9 L225.1,378.4 L225.3,388.5 L222.9,395.4 L224.3,398.4 L222.5,403.3 L223.2,406.1 L220.6,408.5 L219.9,410.7 L219.9,410.7 L160.4,410.0 L161.4,406.0 L159.7,404.8 L148.4,401.7 L144.3,399.2 L142.0,395.7 L141.4,391.5 L142.5,380.8 L144.3,374.4 L142.9,371.9 L138.8,369.8 L136.1,366.1 L135.3,360.1 L135.9,349.8 L137.6,344.9 L140.0,343.5 L148.7,343.1 L150.8,342.2 L152.4,339.5 L156.9,310.4 L155.9,306.8 L151.7,302.7 L150.0,299.8 L147.9,293.5 L147.9,290.1 L149.7,278.7 L148.7,273.2 L150.2,270.2 L149.2,267.9 L148.7,265.4 L151.4,261.8 L153.6,261.0 L159.7,260.8 L166.0,258.9 L169.0,256.3 L169.3,252.6 L168.4,244.5 L164.8,233.2 L159.7,227.0 L159.6,222.8 L161.7,218.5 L164.6,214.8 L167.6,212.9 L173.1,212.9 L178.9,211.5 L190.3,210.2 L207.9,211.5 L225.9,209.1 L232.0,209.3 L248.4,212.7 L275.4,210.4 L302.4,204.9 Z">
  <desc xmlns="http://www.highcharts.com/svg/namespace">
    <labelrank>7</labelrank>
    <hasc>BJ.BO</hasc>
    <alt-name>NULL</alt-name>
    <woe-id>2344826</woe-id>
    <subregion>NULL</subregion>
    <fips>BN10</fips>
    <postal-code>BO</postal-code>
    <name>Borgou</name>
    <country>Benin</country>
    <type-en>Department</type-en>
    <region>NULL</region>
    <longitude>2.90363</longitude>
    <woe-name>Borgou</woe-name>
    <latitude>9.80668</latitude>
    <woe-label>Borgou, BJ, Benin</woe-label>
    <type>Département</type>
    <hc-middle-x>0.40</hc-middle-x>
    <hc-middle-y>0.51</hc-middle-y>
    <hc-key>bj-bo</hc-key>
    <hc-a2>BO</hc-a2>
  </desc>
</path>

<path fill="#CEE3F5" stroke="#6E6E6E" stroke-width="0.4" id="BJ.AL" d="M141.1,109.4 L155.9,94.5 L164.1,87.8 L170.0,84.5 L172.0,81.9 L173.2,75.5 L177.5,70.7 L179.1,67.8 L183.1,56.8 L181.6,53.7 L182.1,51.0 L185.1,50.7 L187.5,47.4 L190.6,47.5 L190.4,44.2 L187.4,42.8 L184.9,39.8 L181.1,29.2 L180.0,20.3 L181.0,18.4 L183.7,17.1 L189.2,16.9 L190.9,14.9 L193.0,16.0 L194.1,13.4 L197.3,13.3 L198.9,14.6 L201.1,13.0 L206.4,12.5 L209.8,11.1 L213.7,12.2 L217.2,6.6 L222.3,5.1 L225.4,2.2 L232.5,1.7 L233.8,0.0 L239.1,4.8 L241.4,6.0 L244.1,11.1 L247.5,13.2 L252.2,13.9 L258.2,23.3 L277.4,40.7 L279.6,43.1 L280.4,48.1 L283.8,54.4 L286.3,57.1 L289.2,58.4 L292.3,56.8 L296.0,58.2 L307.3,64.4 L311.0,69.7 L312.9,71.2 L314.9,76.6 L317.7,79.6 L315.2,82.2 L307.5,95.4 L306.2,100.5 L303.2,108.3 L305.1,114.0 L325.2,142.1 L327.9,144.7 L331.9,145.6 L330.7,150.0 L331.2,154.7 L333.2,158.8 L335.5,168.8 L335.4,172.2 L333.0,178.1 L333.4,181.4 L336.1,184.2 L338.8,190.4 L343.3,191.9 L344.3,194.1 L344.9,200.1 L302.4,204.9 L275.4,210.4 L248.4,212.7 L232.0,209.3 L225.9,209.1 L207.9,211.5 L190.3,210.2 L178.9,211.5 L173.1,212.9 L167.6,212.9 L168.9,212.2 L168.4,176.2 L169.1,172.9 L172.4,168.4 L179.1,162.9 L175.5,159.4 L168.8,157.0 L163.3,149.1 L141.7,110.0 Z">
  <desc xmlns="http://www.highcharts.com/svg/namespace">
    <labelrank>7</labelrank>
    <hasc>BJ.AL</hasc>
    <alt-name>NULL</alt-name>
    <woe-id>55967672</woe-id>
    <subregion>NULL</subregion>
    <fips>BN07</fips>
    <postal-code>AL</postal-code>
    <name>Alibori</name>
    <country>Benin</country>
    <type-en>Department</type-en>
    <region>NULL</region>
    <longitude>2.92598</longitude>
    <woe-name>Alibori</woe-name>
    <latitude>11.4305</latitude>
    <woe-label>Alibori, BJ, Benin</woe-label>
    <type>Département</type>
    <hc-middle-x>0.48</hc-middle-x>
    <hc-middle-y>0.65</hc-middle-y>
    <hc-key>bj-al</hc-key>
    <hc-a2>AL</hc-a2>
  </desc>
</path>

<path fill="#CEE3F5" stroke="#6E6E6E" stroke-width="0.4" id="BJ.CL" d="M160.4,410.0 L219.9,410.7 L219.9,410.7 L222.4,441.6 L221.5,445.4 L217.7,450.7 L218.0,454.9 L217.0,461.7 L218.2,466.9 L221.2,474.0 L221.2,476.5 L218.2,482.4 L217.7,491.2 L216.2,498.4 L215.8,505.5 L214.1,510.5 L216.3,515.2 L219.0,518.2 L220.3,521.4 L219.2,536.7 L194.4,536.6 L192.7,541.3 L193.0,548.7 L190.2,550.0 L185.3,557.4 L186.4,563.0 L166.2,553.7 L158.2,551.2 L151.6,550.6 L145.7,550.7 L140.3,549.8 L131.9,543.1 L125.7,540.5 L120.6,539.5 L97.8,540.7 L95.6,540.5 L95.5,498.2 L96.1,467.2 L95.0,457.4 L93.4,455.7 L94.2,450.0 L97.9,443.9 L97.8,440.8 L94.4,435.8 L94.2,431.1 L102.3,431.5 L106.2,431.2 L116.0,428.6 L119.3,428.2 L123.0,430.2 L126.0,433.5 L134.4,435.7 L136.9,438.6 L145.2,442.5 L149.3,442.7 L152.4,443.9 L156.4,444.0 L159.7,442.8 L163.2,439.6 L161.7,436.3 L163.3,426.6 L161.4,416.4 L159.6,413.5 Z">
  <desc xmlns="http://www.highcharts.com/svg/namespace">
    <labelrank>7</labelrank>
    <hasc>BJ.CL</hasc>
    <alt-name>NULL</alt-name>
    <woe-id>55967670</woe-id>
    <subregion>NULL</subregion>
    <fips>BN11</fips>
    <postal-code>CL</postal-code>
    <name>Collines</name>
    <country>Benin</country>
    <type-en>Department</type-en>
    <region>NULL</region>
    <longitude>2.17251</longitude>
    <woe-name>Collines</woe-name>
    <latitude>8.005129999999999</latitude>
    <woe-label>Collines, BJ, Benin</woe-label>
    <type>Département</type>
    <hc-middle-x>0.58</hc-middle-x>
    <hc-middle-y>0.48</hc-middle-y>
    <hc-key>bj-cl</hc-key>
    <hc-a2>CL</hc-a2>
  </desc>
</path>

<path fill="#CEE3F5" stroke="#6E6E6E" stroke-width="0.4" id="BJ.AQ" d="M178.6,686.3 L172.6,686.8 L163.6,688.8 L136.5,691.9 L135.2,685.9 L133.5,683.4 L133.1,679.9 L136.8,669.5 L137.3,665.8 L136.8,656.4 L139.6,651.3 L140.6,644.3 L142.1,641.3 L142.4,635.5 L145.5,630.6 L148.5,623.0 L147.5,620.3 L181.5,620.2 L185.4,626.5 L186.5,631.1 L187.4,653.1 L188.2,663.5 L189.5,665.7 L192.6,667.3 L193.1,672.4 L190.8,679.6 L183.1,680.9 L179.7,683.5 Z">
  <desc xmlns="http://www.highcharts.com/svg/namespace">
    <labelrank>7</labelrank>
    <hasc>BJ.AQ</hasc>
    <alt-name>NULL</alt-name>
    <woe-id>2344825</woe-id>
    <subregion>NULL</subregion>
    <fips>BN09</fips>
    <postal-code>AQ</postal-code>
    <name>Atlantique</name>
    <country>Benin</country>
    <type-en>Department</type-en>
    <region>NULL</region>
    <longitude>2.22263</longitude>
    <woe-name>Atlantique</woe-name>
    <latitude>6.61657</latitude>
    <woe-label>Atlantique, BJ, Benin</woe-label>
    <type>Département</type>
    <hc-middle-x>0.46</hc-middle-x>
    <hc-middle-y>0.47</hc-middle-y>
    <hc-key>bj-aq</hc-key>
    <hc-a2>AQ</hc-a2>
  </desc>
</path>

<path fill="#CEE3F5" stroke="#6E6E6E" stroke-width="0.4" id="BJ.LI" d="M192.7,685.0 L178.6,686.3 L179.7,683.5 L183.1,680.9 L190.8,679.6 L190.5,681.9 L192.4,683.1 Z">
  <desc xmlns="http://www.highcharts.com/svg/namespace">
    <labelrank>7</labelrank>
    <hasc>BJ.LI</hasc>
    <alt-name>NULL</alt-name>
    <woe-id>55967673</woe-id>
    <subregion>NULL</subregion>
    <fips>BN14</fips>
    <postal-code>LI</postal-code>
    <name>Littoral</name>
    <country>Benin</country>
    <type-en>Department</type-en>
    <region>NULL</region>
    <longitude>2.42192</longitude>
    <woe-name>Littoral</woe-name>
    <latitude>6.36623</latitude>
    <woe-label>Littoral, BJ, Benin</woe-label>
    <type>Département</type>
    <hc-middle-x>0.48</hc-middle-x>
    <hc-middle-y>0.50</hc-middle-y>
    <hc-key>bj-li</hc-key>
    <hc-a2>LI</hc-a2>
  </desc>
</path>

<path fill="#CEE3F5" stroke="#6E6E6E" stroke-width="0.4" id="BJ.CF" d="M147.5,620.3 L148.5,623.0 L145.5,630.6 L142.4,635.5 L142.1,641.3 L140.6,644.3 L133.7,640.9 L126.5,639.7 L120.3,641.0 L113.1,643.6 L102.5,646.1 L98.1,645.8 L91.5,642.6 L92.8,639.7 L90.8,632.7 L91.4,624.4 L87.2,619.9 L85.1,611.9 L93.6,612.0 L95.7,611.4 L95.6,550.3 L99.2,551.0 L102.5,555.3 L108.4,567.9 L110.4,575.5 L113.5,578.8 L120.3,587.3 L122.0,590.4 L124.5,600.6 L125.9,602.9 L129.1,605.2 L133.3,611.4 L135.2,612.3 L138.1,617.7 L143.6,621.1 Z">
  <desc xmlns="http://www.highcharts.com/svg/namespace">
    <labelrank>7</labelrank>
    <hasc>BJ.CF</hasc>
    <alt-name>NULL</alt-name>
    <woe-id>55967668</woe-id>
    <subregion>NULL</subregion>
    <fips>BN12</fips>
    <postal-code>CF</postal-code>
    <name>Kouffo</name>
    <country>Benin</country>
    <type-en>Department</type-en>
    <region>NULL</region>
    <longitude>1.81235</longitude>
    <woe-name>Kouffo</woe-name>
    <latitude>6.98499</latitude>
    <woe-label>Kouffo, BJ, Benin</woe-label>
    <type>Département</type>
    <hc-middle-x>0.41</hc-middle-x>
    <hc-middle-y>0.71</hc-middle-y>
    <hc-key>bj-cf</hc-key>
    <hc-a2>CF</hc-a2>
  </desc>
</path>

<path fill="#CEE3F5" stroke="#6E6E6E" stroke-width="0.4" id="BJ.OU" d="M192.7,685.0 L192.4,683.1 L190.5,681.9 L190.8,679.6 L193.1,672.4 L192.6,667.3 L189.5,665.7 L188.2,663.5 L187.4,653.1 L186.5,631.1 L185.4,626.5 L181.5,620.2 L181.7,617.9 L184.8,613.2 L186.7,612.2 L196.8,612.0 L196.6,617.7 L197.7,623.5 L203.1,636.5 L205.4,649.8 L207.6,653.4 L214.8,659.9 L219.3,667.3 L217.6,675.8 L217.6,682.7 Z">
  <desc xmlns="http://www.highcharts.com/svg/namespace">
    <labelrank>7</labelrank>
    <hasc>BJ.OU</hasc>
    <alt-name>NULL</alt-name>
    <woe-id>2344828</woe-id>
    <subregion>NULL</subregion>
    <fips>BN16</fips>
    <postal-code>OU</postal-code>
    <name>Ouémé</name>
    <country>Benin</country>
    <type-en>Department</type-en>
    <region>NULL</region>
    <longitude>2.55171</longitude>
    <woe-name>Ouémé</woe-name>
    <latitude>6.59423</latitude>
    <woe-label>Oueme, BJ, Benin</woe-label>
    <type>Département</type>
    <hc-middle-x>0.59</hc-middle-x>
    <hc-middle-y>0.75</hc-middle-y>
    <hc-key>bj-ou</hc-key>
    <hc-a2>OU</hc-a2>
  </desc>
</path>

<path fill="#CEE3F5" stroke="#6E6E6E" stroke-width="0.4" id="BJ.ZO" d="M196.8,612.0 L186.7,612.2 L184.8,613.2 L181.7,617.9 L181.5,620.2 L147.5,620.3 L143.6,621.1 L138.1,617.7 L135.2,612.3 L133.3,611.4 L129.1,605.2 L125.9,602.9 L124.5,600.6 L122.0,590.4 L120.3,587.3 L113.5,578.8 L110.4,575.5 L108.4,567.9 L102.5,555.3 L99.2,551.0 L95.6,550.3 L95.6,540.5 L97.8,540.7 L120.6,539.5 L125.7,540.5 L131.9,543.1 L140.3,549.8 L145.7,550.7 L151.6,550.6 L158.2,551.2 L166.2,553.7 L186.4,563.0 L187.0,570.1 L190.7,582.9 L192.4,586.6 L198.4,591.0 L198.3,593.5 L200.8,606.1 L201.4,611.2 Z">
  <desc xmlns="http://www.highcharts.com/svg/namespace">
    <labelrank>7</labelrank>
    <hasc>BJ.ZO</hasc>
    <alt-name>NULL</alt-name>
    <woe-id>2344829</woe-id>
    <subregion>NULL</subregion>
    <fips>BN18</fips>
    <postal-code>ZO</postal-code>
    <name>Zou</name>
    <country>Benin</country>
    <type-en>Department</type-en>
    <region>NULL</region>
    <longitude>2.09135</longitude>
    <woe-name>Zou</woe-name>
    <latitude>7.22681</latitude>
    <woe-label>Zou, BJ, Benin</woe-label>
    <type>Département</type>
    <hc-middle-x>0.59</hc-middle-x>
    <hc-middle-y>0.57</hc-middle-y>
    <hc-key>bj-zo</hc-key>
    <hc-a2>ZO</hc-a2>
  </desc>
</path>

<path fill="#CEE3F5" stroke="#6E6E6E" stroke-width="0.4" id="BJ.PL" d="M196.8,612.0 L201.4,611.2 L200.8,606.1 L198.3,593.5 L198.4,591.0 L192.4,586.6 L190.7,582.9 L187.0,570.1 L186.4,563.0 L185.3,557.4 L190.2,550.0 L193.0,548.7 L192.7,541.3 L194.4,536.6 L219.2,536.7 L219.6,544.8 L221.8,549.0 L225.2,553.0 L227.7,557.2 L226.6,563.8 L223.0,563.3 L221.9,565.0 L224.2,592.9 L223.7,595.5 L221.3,599.6 L221.6,601.8 L225.6,605.5 L225.8,607.8 L221.8,609.4 L218.9,613.5 L219.3,617.6 L220.8,621.9 L221.4,626.7 L219.8,633.9 L222.2,638.0 L224.8,638.4 L225.7,640.1 L226.1,645.3 L222.0,649.3 L220.7,651.8 L221.6,658.9 L221.4,661.2 L219.3,667.3 L214.8,659.9 L207.6,653.4 L205.4,649.8 L203.1,636.5 L197.7,623.5 L196.6,617.7 Z">
  <desc xmlns="http://www.highcharts.com/svg/namespace">
    <labelrank>7</labelrank>
    <hasc>BJ.PL</hasc>
    <alt-name>NULL</alt-name>
    <woe-id>55967669</woe-id>
    <subregion>NULL</subregion>
    <fips>BN17</fips>
    <postal-code>PL</postal-code>
    <name>Plateau</name>
    <country>Benin</country>
    <type-en>Department</type-en>
    <region>NULL</region>
    <longitude>2.60483</longitude>
    <woe-name>Plateau</woe-name>
    <latitude>7.15213</latitude>
    <woe-label>Plateau, BJ, Benin</woe-label>
    <type>Département</type>
    <hc-middle-x>0.49</hc-middle-x>
    <hc-middle-y>0.29</hc-middle-y>
    <hc-key>bj-pl</hc-key>
    <hc-a2>PL</hc-a2>
  </desc>
</path>

<path fill="#CEE3F5" stroke="#6E6E6E" stroke-width="0.4" id="BJ.MO" d="M140.6,644.3 L139.6,651.3 L136.8,656.4 L137.3,665.8 L136.8,669.5 L133.1,679.9 L133.5,683.4 L135.2,685.9 L136.5,691.9 L124.8,693.2 L94.8,700.0 L93.9,697.6 L96.3,696.4 L110.8,693.0 L113.2,692.9 L108.9,676.1 L106.0,671.4 L102.6,669.4 L101.6,667.8 L101.8,664.2 L99.2,661.7 L98.7,659.6 L95.7,659.3 L92.0,655.0 L92.2,652.2 L88.8,647.4 L91.5,642.6 L98.1,645.8 L102.5,646.1 L113.1,643.6 L120.3,641.0 L126.5,639.7 L133.7,640.9 Z">
  <desc xmlns="http://www.highcharts.com/svg/namespace">
    <labelrank>7</labelrank>
    <hasc>BJ.MO</hasc>
    <alt-name>NULL</alt-name>
    <woe-id>2344827</woe-id>
    <subregion>NULL</subregion>
    <fips>BN15</fips>
    <postal-code>MO</postal-code>
    <name>Mono</name>
    <country>Benin</country>
    <type-en>Department</type-en>
    <region>NULL</region>
    <longitude>1.79465</longitude>
    <woe-name>Mono</woe-name>
    <latitude>6.48568</latitude>
    <woe-label>Mono, BJ, Benin</woe-label>
    <type>Département</type>
    <hc-middle-x>0.54</hc-middle-x>
    <hc-middle-y>0.47</hc-middle-y>
    <hc-key>bj-mo</hc-key>
    <hc-a2>MO</hc-a2>
  </desc>
</path>

<path fill="#CEE3F5" stroke="#6E6E6E" stroke-width="0.4" id="BJ.AK" d="M167.6,212.9 L164.6,214.8 L161.7,218.5 L159.6,222.8 L159.7,227.0 L164.8,233.2 L168.4,244.5 L169.3,252.6 L169.0,256.3 L166.0,258.9 L159.7,260.8 L153.6,261.0 L151.4,261.8 L148.7,265.4 L149.2,267.9 L117.4,266.8 L109.2,270.6 L105.5,273.6 L100.7,276.0 L95.1,277.3 L88.0,276.5 L83.2,275.4 L73.0,274.6 L65.2,276.3 L63.8,271.6 L1.0,229.2 L0.0,224.9 L1.6,213.2 L3.3,206.9 L3.4,202.5 L2.6,192.3 L4.3,188.5 L10.4,182.7 L11.9,180.7 L12.6,175.7 L14.4,172.4 L13.1,167.6 L13.4,165.4 L16.3,158.4 L19.7,160.3 L23.2,160.6 L23.9,157.3 L22.4,156.3 L22.1,152.8 L24.8,148.8 L28.3,149.2 L31.3,152.1 L33.7,151.4 L38.3,152.2 L40.2,154.6 L40.7,152.3 L38.7,149.8 L38.3,145.9 L36.7,142.8 L34.4,141.6 L38.7,140.6 L40.6,137.5 L45.2,139.0 L44.2,133.2 L42.2,129.7 L45.1,125.4 L47.8,128.2 L49.9,127.4 L53.9,128.0 L57.6,129.8 L59.0,127.2 L57.6,123.2 L59.4,122.5 L61.4,125.2 L64.5,125.2 L66.5,123.5 L64.6,118.6 L65.5,116.4 L72.2,112.8 L71.1,110.4 L72.2,108.1 L76.2,105.9 L76.8,104.3 L80.8,105.8 L91.3,106.7 L90.6,109.8 L92.6,109.7 L94.9,114.0 L99.0,112.3 L108.0,109.7 L115.1,109.9 L121.6,107.7 L126.0,107.8 L133.6,111.0 L137.6,111.4 L141.1,109.4 L141.7,110.0 L163.3,149.1 L168.8,157.0 L175.5,159.4 L179.1,162.9 L172.4,168.4 L169.1,172.9 L168.4,176.2 L168.9,212.2 Z">
  <desc xmlns="http://www.highcharts.com/svg/namespace">
    <labelrank>7</labelrank>
    <hasc>BJ.AK</hasc>
    <alt-name>NULL</alt-name>
    <woe-id>2344824</woe-id>
    <subregion>NULL</subregion>
    <fips>BN08</fips>
    <postal-code>AK</postal-code>
    <name>Atakora</name>
    <country>Benin</country>
    <type-en>Department</type-en>
    <region>NULL</region>
    <longitude>1.55782</longitude>
    <woe-name>Atakora</woe-name>
    <latitude>10.7035</latitude>
    <woe-label>Atakora, BJ, Benin</woe-label>
    <type>Département</type>
    <hc-middle-x>0.49</hc-middle-x>
    <hc-middle-y>0.50</hc-middle-y>
    <hc-key>bj-ak</hc-key>
    <hc-a2>AK</hc-a2>
  </desc>
</path>
</g>

<text x="350" y="714" text-anchor="middle" font-family="Verdana" font-size="8" stroke-opacity="0.6">Copyright (c) 2020 Highsoft AS, Based on data from Natural Earth</text>

</svg>