<?xml version="1.0" encoding="utf-8" standalone="no"?>
<!DOCTYPE svg PUBLIC "-//W3C//DTD SVG 1.1//EN" "http://www.w3.org/Graphics/SVG/1.1/DTD/svg11.dtd">

<svg version="1.1" height="700pt" width="700pt" xmlns="http://www.w3.org/2000/svg" xmlns:xlink="http://www.w3.org/1999/xlink">
<desc>
Map version: 2.1.0
Copyright (c) 2023 Highsoft AS, Based on data from Natural Earth
</desc>
<title>Auvergne-Rhône-Alpes</title>
<g id="admin2">

<g id="FR">
  <desc xmlns="http://www.highcharts.com/svg/namespace">
    <name>France</name>
    <labelrank>2</labelrank>
    <country-abbrev>Fr.</country-abbrev>
    <subregion>Western Europe</subregion>
    <region-wb>Europe &amp; Central Asia</region-wb>
    <iso-a3>FRA</iso-a3>
    <iso-a2>FR</iso-a2>
    <woe-id>-90</woe-id>
    <continent>Europe</continent>
    <hc-key>fr</hc-key>
    <hc-a2>FR</hc-a2>
  </desc>
</g>

<g id="FR.ARA">
  <desc xmlns="http://www.highcharts.com/svg/namespace">
    <name>Auvergne-Rhône-Alpes</name>
    <iso_3166_2>FR-ARA</iso_3166_2>
    <hc-key>fr-ara</hc-key>
    <hc-a2>AR</hc-a2>
  </desc>
</g>

<path fill="#CEE3F5" stroke="#6E6E6E" stroke-width="0.4" id="FR.ARA.AI" d="M372.9,118.2 L372.3,115.0 L375.4,101.4 L382.3,85.7 L382.4,81.4 L385.6,74.2 L387.1,64.2 L390.3,53.5 L393.2,51.9 L402.1,54.9 L407.3,54.9 L415.4,51.4 L422.6,52.0 L427.5,56.8 L431.1,58.9 L440.7,61.2 L440.9,68.1 L442.2,70.3 L448.2,73.4 L449.9,79.4 L452.2,82.0 L456.9,83.4 L458.8,86.0 L462.8,86.8 L463.1,95.3 L468.6,98.2 L479.9,90.2 L480.5,88.0 L486.7,81.4 L493.7,87.4 L496.1,94.0 L498.3,95.2 L513.1,95.4 L518.6,93.7 L527.9,84.0 L530.0,79.7 L541.5,65.2 L548.3,69.0 L552.1,73.9 L552.4,76.0 L548.4,86.0 L547.0,98.3 L540.7,99.2 L529.5,105.6 L529.1,108.0 L533.1,113.5 L530.2,121.5 L523.0,123.3 L518.6,129.1 L515.0,125.8 L512.3,129.0 L512.5,137.8 L515.1,153.2 L515.5,159.4 L514.6,167.3 L508.8,187.1 L508.2,195.1 L505.9,202.2 L497.3,209.0 L492.9,215.0 L487.4,217.8 L484.7,215.6 L477.0,203.4 L467.3,195.0 L463.4,189.5 L460.4,179.6 L451.8,172.9 L447.1,175.4 L439.2,188.9 L434.7,191.8 L420.2,184.9 L415.9,184.4 L408.8,185.8 L400.9,184.7 L390.7,187.9 L388.7,178.8 L389.4,175.7 L380.6,169.0 L377.1,169.7 L376.1,166.6 L372.1,162.4 L368.4,161.2 L366.9,158.2 L368.0,152.1 L366.8,140.2 L369.3,130.7 L372.6,122.1 Z">
  <desc xmlns="http://www.highcharts.com/svg/namespace">
    <labelrank>3</labelrank>
    <hasc>FR.AI</hasc>
    <alt-name>Rhone-Alpes</alt-name>
    <woe-id>12597195</woe-id>
    <subregion>NULL</subregion>
    <fips>FRB9</fips>
    <name>Ain</name>
    <type>Metropolitan department</type>
    <region>Auvergne-Rhône-Alpes</region>
    <longitude>5.37744</longitude>
    <woe-name>Ain</woe-name>
    <latitude>46.084</latitude>
    <woe-label>NULL</woe-label>
    <hc-middle-x>0.00</hc-middle-x>
    <hc-middle-y>1.00</hc-middle-y>
    <hc-key>fr-ara-ai</hc-key>
    <hc-a2>AI</hc-a2>
  </desc>
</path>

<path fill="#CEE3F5" stroke="#6E6E6E" stroke-width="0.4" id="FR.ARA.HS" d="M515.5,159.4 L515.1,153.2 L512.5,137.8 L512.3,129.0 L515.0,125.8 L518.6,129.1 L523.0,123.3 L530.2,121.5 L533.3,119.4 L539.4,117.7 L545.6,117.3 L550.3,119.1 L554.6,116.7 L561.1,108.4 L569.5,102.3 L572.9,98.5 L572.0,94.0 L566.8,93.3 L564.7,88.1 L573.6,72.3 L581.8,72.4 L584.8,76.4 L587.1,76.2 L589.0,73.3 L599.0,67.7 L600.9,64.3 L627.4,60.4 L639.6,61.9 L639.2,68.5 L635.2,75.1 L638.0,79.5 L643.0,84.3 L646.4,89.4 L642.0,99.0 L640.0,106.0 L639.1,112.8 L640.4,116.0 L651.3,117.8 L653.5,119.7 L651.3,125.0 L651.6,132.0 L654.1,133.0 L657.1,130.6 L660.3,131.8 L670.0,141.7 L676.0,155.1 L672.7,158.0 L669.3,166.2 L666.7,168.7 L660.9,171.4 L656.6,171.7 L656.3,175.0 L652.5,173.1 L646.9,175.8 L644.7,182.0 L645.1,187.8 L635.6,195.6 L632.6,195.6 L633.5,189.7 L630.8,185.5 L626.6,183.3 L620.2,182.8 L613.2,177.5 L611.5,174.1 L613.9,165.8 L609.9,161.8 L606.9,162.0 L600.5,170.0 L596.4,181.4 L594.8,183.8 L588.5,189.3 L586.2,198.7 L583.9,202.5 L577.4,206.6 L572.1,206.3 L565.3,198.1 L561.4,194.8 L557.1,192.8 L552.7,192.9 L548.6,196.2 L545.3,196.6 L538.9,194.9 L536.2,192.4 L534.0,184.8 L531.8,183.1 L524.0,181.6 L521.2,176.3 L519.2,162.4 Z">
  <desc xmlns="http://www.highcharts.com/svg/namespace">
    <labelrank>3</labelrank>
    <hasc>FR.HS</hasc>
    <alt-name>Rhone-Alpes</alt-name>
    <woe-id>12597182</woe-id>
    <subregion>NULL</subregion>
    <fips>FRB9</fips>
    <name>Haute-Savoie</name>
    <type>Metropolitan department</type>
    <region>Auvergne-Rhône-Alpes</region>
    <longitude>6.51823</longitude>
    <woe-name>Haute-Savoie</woe-name>
    <latitude>46.0502</latitude>
    <woe-label>NULL</woe-label>
    <hc-middle-x>0.00</hc-middle-x>
    <hc-middle-y>1.00</hc-middle-y>
    <hc-key>fr-ara-hs</hc-key>
    <hc-a2>HS</hc-a2>
  </desc>
</path>

<path fill="#CEE3F5" stroke="#6E6E6E" stroke-width="0.4" id="FR.ARA.SV" d="M484.7,215.6 L487.4,217.8 L492.9,215.0 L497.3,209.0 L505.9,202.2 L508.2,195.1 L508.8,187.1 L514.6,167.3 L515.5,159.4 L519.2,162.4 L521.2,176.3 L524.0,181.6 L531.8,183.1 L534.0,184.8 L536.2,192.4 L538.9,194.9 L545.3,196.6 L548.6,196.2 L552.7,192.9 L557.1,192.8 L561.4,194.8 L565.3,198.1 L572.1,206.3 L577.4,206.6 L583.9,202.5 L586.2,198.7 L588.5,189.3 L594.8,183.8 L596.4,181.4 L600.5,170.0 L606.9,162.0 L609.9,161.8 L613.9,165.8 L611.5,174.1 L613.2,177.5 L620.2,182.8 L626.6,183.3 L630.8,185.5 L633.5,189.7 L632.6,195.6 L635.6,195.6 L645.1,187.8 L647.2,196.9 L650.1,200.9 L654.0,203.5 L659.4,204.6 L664.5,208.8 L670.8,210.8 L671.7,213.7 L670.1,221.5 L672.3,225.1 L674.7,235.9 L681.1,239.1 L687.3,243.3 L691.0,249.8 L700.0,254.2 L700.0,256.6 L696.3,264.9 L691.5,271.6 L694.3,284.0 L690.8,287.4 L686.8,293.0 L683.8,290.6 L674.3,294.7 L668.4,302.7 L664.0,303.3 L662.3,305.5 L663.6,308.6 L659.2,310.9 L649.0,306.9 L644.2,306.3 L638.5,309.9 L634.8,310.2 L629.7,313.6 L625.4,314.3 L620.5,317.6 L614.8,318.1 L611.7,324.7 L606.9,328.2 L597.7,325.3 L595.4,320.5 L592.4,318.3 L582.1,317.2 L579.7,315.5 L578.2,312.0 L574.1,310.6 L566.2,310.7 L564.2,308.9 L563.7,302.8 L560.1,289.7 L561.6,282.4 L567.6,276.0 L568.1,271.6 L566.9,266.7 L564.2,262.5 L558.0,255.9 L546.9,254.7 L538.3,247.3 L533.3,246.2 L528.9,248.9 L528.4,261.6 L528.9,265.0 L507.4,256.9 L505.2,254.7 L488.1,223.7 Z">
  <desc xmlns="http://www.highcharts.com/svg/namespace">
    <labelrank>3</labelrank>
    <hasc>FR.SV</hasc>
    <alt-name>Rhone-Alpes</alt-name>
    <woe-id>12597180</woe-id>
    <subregion>NULL</subregion>
    <fips>FRB9</fips>
    <name>Savoie</name>
    <type>Metropolitan department</type>
    <region>Auvergne-Rhône-Alpes</region>
    <longitude>6.47098</longitude>
    <woe-name>Savoie</woe-name>
    <latitude>45.4832</latitude>
    <woe-label>NULL</woe-label>
    <hc-key>fr-ara-sv</hc-key>
    <hc-a2>SV</hc-a2>
  </desc>
</path>

<path fill="#CEE3F5" stroke="#6E6E6E" stroke-width="0.4" id="FR.ARA.DM" d="M520.0,398.1 L522.6,403.6 L517.7,409.3 L508.1,412.3 L502.6,411.6 L499.0,412.6 L497.4,419.6 L493.5,426.0 L492.6,429.4 L494.4,432.6 L499.9,437.4 L499.0,440.9 L493.0,445.5 L490.2,445.9 L481.5,443.1 L474.2,443.0 L473.3,445.0 L475.1,450.1 L478.3,452.8 L477.4,455.7 L471.2,454.8 L468.4,455.7 L473.0,466.2 L478.4,470.3 L487.9,473.6 L494.4,472.9 L497.3,474.3 L496.3,478.5 L499.9,482.7 L505.1,486.7 L505.2,499.5 L503.8,502.0 L504.5,506.8 L500.9,507.4 L499.2,503.9 L492.5,503.0 L485.3,511.5 L481.0,514.3 L476.1,513.9 L465.0,505.5 L462.8,499.2 L457.1,498.1 L447.3,494.8 L440.8,495.5 L434.4,493.8 L432.4,491.2 L432.2,485.7 L433.7,481.5 L431.6,479.6 L428.8,482.5 L424.9,483.5 L416.6,482.1 L407.2,485.1 L398.1,489.5 L394.3,489.9 L387.9,494.0 L384.7,494.1 L382.9,492.1 L379.6,483.1 L377.7,480.2 L373.4,477.3 L365.3,476.8 L361.4,477.4 L362.3,464.8 L363.6,455.9 L367.2,448.5 L369.3,429.3 L371.7,422.8 L378.4,412.5 L379.2,405.2 L375.1,393.9 L376.1,385.9 L383.0,377.7 L383.2,375.0 L388.3,368.3 L391.4,355.6 L390.4,352.3 L386.3,345.5 L385.3,341.7 L386.1,333.1 L383.6,328.8 L384.1,326.3 L381.0,324.4 L381.4,315.3 L379.4,307.6 L378.6,288.4 L387.7,287.3 L399.9,279.3 L404.9,279.2 L407.2,283.3 L411.1,283.2 L416.3,289.8 L422.5,289.8 L421.6,297.3 L426.7,294.8 L428.6,298.6 L429.1,304.9 L431.4,315.6 L429.0,325.5 L430.0,329.0 L431.8,327.8 L437.7,327.9 L439.5,332.2 L448.3,333.2 L452.6,332.1 L454.1,334.9 L459.6,334.9 L468.6,328.2 L472.6,327.9 L470.6,332.8 L474.0,344.4 L472.7,351.6 L472.9,358.7 L470.5,379.1 L470.6,382.6 L472.9,385.0 L483.1,387.9 L482.9,383.6 L493.2,391.4 L498.1,396.5 L514.6,398.9 Z M406.5,479.2 L409.4,477.1 L412.1,471.4 L415.0,468.2 L413.3,463.3 L407.6,457.7 L403.6,456.6 L400.2,459.2 L393.5,471.1 L392.8,477.5 L394.9,479.5 Z">
  <desc xmlns="http://www.highcharts.com/svg/namespace">
    <labelrank>3</labelrank>
    <hasc>FR.DM</hasc>
    <alt-name>Rhone-Alpes</alt-name>
    <woe-id>12597190</woe-id>
    <subregion>NULL</subregion>
    <fips>FRB9</fips>
    <name>Drôme</name>
    <type>Metropolitan department</type>
    <region>Auvergne-Rhône-Alpes</region>
    <longitude>5.13443</longitude>
    <woe-name>Drôme</woe-name>
    <latitude>44.7407</latitude>
    <woe-label>NULL</woe-label>
    <hc-key>fr-ara-dm</hc-key>
    <hc-a2>DM</hc-a2>
  </desc>
</path>

<path fill="#CEE3F5" stroke="#6E6E6E" stroke-width="0.4" id="FR.ARA.AH" d="M378.6,288.4 L379.4,307.6 L381.4,315.3 L381.0,324.4 L384.1,326.3 L383.6,328.8 L386.1,333.1 L385.3,341.7 L386.3,345.5 L390.4,352.3 L391.4,355.6 L388.3,368.3 L383.2,375.0 L383.0,377.7 L376.1,385.9 L375.1,393.9 L379.2,405.2 L378.4,412.5 L371.7,422.8 L369.3,429.3 L367.2,448.5 L363.6,455.9 L362.3,464.8 L361.4,477.4 L361.6,486.2 L351.4,482.7 L346.4,477.7 L342.2,475.9 L334.5,476.2 L332.5,478.1 L331.8,483.0 L326.6,484.7 L324.4,481.8 L324.9,477.8 L321.6,475.7 L316.2,477.5 L304.8,487.2 L301.6,486.6 L289.2,479.7 L287.8,477.7 L275.7,478.0 L274.5,469.4 L276.3,463.9 L272.3,457.0 L268.4,453.5 L264.3,438.4 L261.1,431.7 L258.1,429.8 L255.0,421.7 L253.8,413.7 L250.4,402.3 L250.8,396.6 L253.8,395.2 L261.1,383.4 L270.2,379.9 L271.5,375.0 L277.9,374.4 L289.5,372.0 L294.9,364.3 L297.8,355.6 L302.9,355.3 L309.0,352.4 L307.8,347.2 L309.5,343.3 L317.6,340.8 L318.7,338.7 L316.1,335.4 L316.2,332.5 L320.6,326.4 L318.4,322.8 L320.5,320.8 L325.5,324.4 L328.2,322.7 L328.6,317.7 L331.9,310.4 L333.1,303.0 L331.0,301.0 L348.8,299.4 L349.8,296.7 L348.9,291.0 L350.9,285.8 L353.7,283.3 L365.9,276.5 L372.6,275.0 L373.6,280.6 Z">
  <desc xmlns="http://www.highcharts.com/svg/namespace">
    <labelrank>3</labelrank>
    <hasc>FR.AH</hasc>
    <alt-name>Rhone-Alpes</alt-name>
    <woe-id>12597160</woe-id>
    <subregion>NULL</subregion>
    <fips>FRB9</fips>
    <name>Ardčche</name>
    <type>Metropolitan department</type>
    <region>Auvergne-Rhône-Alpes</region>
    <longitude>4.4999</longitude>
    <woe-name>Ardčche</woe-name>
    <latitude>44.8014</latitude>
    <woe-label>NULL</woe-label>
    <hc-key>fr-ara-ah</hc-key>
    <hc-a2>AH</hc-a2>
  </desc>
</path>

<path fill="#CEE3F5" stroke="#6E6E6E" stroke-width="0.4" id="FR.ARA.IS" d="M579.7,315.5 L576.6,319.4 L574.4,333.3 L575.2,338.7 L579.7,339.7 L586.0,338.1 L588.9,339.5 L590.6,348.4 L594.7,353.2 L595.7,356.3 L595.4,364.8 L594.3,366.9 L587.1,365.5 L583.2,365.7 L578.7,367.9 L569.4,369.0 L562.8,368.7 L555.9,373.9 L549.5,373.4 L541.6,378.6 L541.7,384.7 L539.8,387.1 L534.4,389.0 L524.3,390.6 L520.0,398.1 L514.6,398.9 L498.1,396.5 L493.2,391.4 L482.9,383.6 L483.1,387.9 L472.9,385.0 L470.6,382.6 L470.5,379.1 L472.9,358.7 L472.7,351.6 L474.0,344.4 L470.6,332.8 L472.6,327.9 L468.6,328.2 L459.6,334.9 L454.1,334.9 L452.6,332.1 L448.3,333.2 L439.5,332.2 L437.7,327.9 L431.8,327.8 L430.0,329.0 L429.0,325.5 L431.4,315.6 L429.1,304.9 L428.6,298.6 L426.7,294.8 L421.6,297.3 L422.5,289.8 L416.3,289.8 L411.1,283.2 L407.2,283.3 L404.9,279.2 L399.9,279.3 L387.7,287.3 L378.6,288.4 L373.6,280.6 L372.6,275.0 L370.5,268.0 L370.9,259.8 L374.4,254.1 L383.6,245.7 L385.5,238.9 L376.1,230.7 L378.4,229.2 L405.0,226.3 L407.7,224.3 L410.5,216.8 L416.7,210.8 L423.6,208.7 L422.3,203.9 L413.6,199.2 L411.9,193.9 L415.9,184.4 L420.2,184.9 L434.7,191.8 L439.2,188.9 L447.1,175.4 L451.8,172.9 L460.4,179.6 L463.4,189.5 L467.3,195.0 L477.0,203.4 L484.7,215.6 L488.1,223.7 L505.2,254.7 L507.4,256.9 L528.9,265.0 L528.4,261.6 L528.9,248.9 L533.3,246.2 L538.3,247.3 L546.9,254.7 L558.0,255.9 L564.2,262.5 L566.9,266.7 L568.1,271.6 L567.6,276.0 L561.6,282.4 L560.1,289.7 L563.7,302.8 L564.2,308.9 L566.2,310.7 L574.1,310.6 L578.2,312.0 Z">
  <desc xmlns="http://www.highcharts.com/svg/namespace">
    <labelrank>3</labelrank>
    <hasc>FR.IS</hasc>
    <alt-name>Rhone-Alpes</alt-name>
    <woe-id>12597188</woe-id>
    <subregion>NULL</subregion>
    <fips>FRB9</fips>
    <name>Isčre</name>
    <type>Metropolitan department</type>
    <region>Auvergne-Rhône-Alpes</region>
    <longitude>5.4175</longitude>
    <woe-name>Isčre</woe-name>
    <latitude>45.2478</latitude>
    <woe-label>NULL</woe-label>
    <hc-key>fr-ara-is</hc-key>
    <hc-a2>IS</hc-a2>
  </desc>
</path>

<path fill="#CEE3F5" stroke="#6E6E6E" stroke-width="0.4" id="FR.ARA.CL" d="M181.0,357.6 L176.6,358.4 L171.0,362.4 L163.7,364.0 L155.9,372.0 L151.3,374.2 L148.1,369.6 L143.8,371.9 L142.3,380.5 L138.6,383.2 L136.1,389.3 L132.9,405.8 L129.2,411.7 L127.2,418.0 L122.5,414.0 L119.7,409.0 L118.1,398.6 L117.0,396.1 L119.8,392.0 L114.1,389.3 L111.5,383.2 L105.1,374.7 L99.9,375.7 L98.6,374.6 L98.6,369.6 L94.0,362.2 L92.2,361.4 L73.8,380.8 L71.5,388.6 L68.2,393.0 L65.8,401.2 L63.9,404.8 L58.1,411.7 L54.3,414.4 L42.2,414.6 L39.2,416.2 L35.8,413.2 L32.9,412.9 L20.9,416.9 L19.6,421.8 L16.3,420.0 L14.0,410.8 L9.6,406.8 L13.4,392.1 L10.3,383.6 L4.6,374.3 L2.7,368.2 L1.7,356.5 L0.0,352.9 L10.1,349.6 L9.9,346.1 L7.2,341.0 L7.8,336.8 L13.1,332.8 L15.3,329.8 L20.8,317.3 L20.9,313.2 L19.2,310.6 L19.2,304.8 L24.6,300.6 L26.1,295.6 L33.5,291.4 L38.1,284.0 L40.5,282.4 L43.2,276.8 L43.4,273.7 L41.1,269.4 L46.6,268.1 L53.4,272.3 L57.3,272.9 L59.9,271.4 L64.1,255.4 L66.6,255.3 L74.0,260.3 L81.0,262.1 L84.5,264.2 L89.3,273.3 L95.4,273.7 L107.2,271.7 L116.3,276.4 L118.5,279.0 L122.9,288.7 L129.3,292.7 L134.6,290.4 L144.2,279.9 L145.5,286.5 L145.4,293.5 L152.7,292.5 L156.4,293.2 L161.1,296.7 L162.0,303.6 L166.8,312.2 L167.8,322.3 L169.6,325.3 L174.0,326.0 L175.5,329.7 L170.6,335.2 L170.8,341.2 L179.1,350.1 Z">
  <desc xmlns="http://www.highcharts.com/svg/namespace">
    <labelrank>3</labelrank>
    <hasc>FR.CL</hasc>
    <alt-name>NULL</alt-name>
    <woe-id>12597148</woe-id>
    <subregion>NULL</subregion>
    <fips>FR98</fips>
    <name>Cantal</name>
    <type>Metropolitan department</type>
    <region>Auvergne-Rhône-Alpes</region>
    <longitude>2.74821</longitude>
    <woe-name>Cantal</woe-name>
    <latitude>45.1592</latitude>
    <woe-label>NULL</woe-label>
    <hc-key>fr-ara-cl</hc-key>
    <hc-a2>CL</hc-a2>
  </desc>
</path>

<path fill="#CEE3F5" stroke="#6E6E6E" stroke-width="0.4" id="FR.ARA.AL" d="M71.4,127.7 L67.5,120.0 L64.4,110.2 L59.0,101.3 L55.7,98.9 L53.2,100.8 L48.6,93.7 L42.2,92.0 L39.9,89.9 L37.8,82.6 L34.2,78.9 L29.6,72.2 L34.7,62.8 L37.9,61.2 L41.3,56.6 L49.3,52.5 L66.8,50.6 L78.1,47.3 L78.6,44.1 L74.4,37.2 L75.2,30.8 L73.3,26.6 L79.0,25.5 L80.2,20.1 L83.5,20.0 L92.8,11.4 L99.5,15.5 L103.9,12.1 L108.3,13.1 L112.3,7.5 L120.8,1.9 L126.7,0.0 L133.9,0.4 L134.1,4.1 L136.8,8.3 L144.4,12.9 L147.3,12.6 L151.3,14.5 L154.8,18.8 L158.9,20.6 L164.2,17.9 L171.8,18.2 L176.7,20.8 L179.3,20.7 L184.5,15.8 L188.0,16.9 L191.2,22.9 L191.7,27.4 L196.3,26.9 L204.9,21.5 L205.9,16.6 L208.8,14.8 L209.8,9.5 L213.5,10.2 L216.9,16.3 L218.0,20.5 L223.6,26.1 L224.8,29.4 L229.6,35.1 L229.4,47.0 L238.7,52.2 L242.1,52.2 L248.0,57.8 L255.8,59.4 L261.5,63.5 L263.0,71.3 L261.8,76.7 L262.8,84.2 L264.7,90.0 L261.8,92.8 L249.5,99.9 L240.8,102.8 L234.2,108.3 L233.5,110.8 L236.1,114.1 L237.1,122.3 L236.9,132.5 L238.4,137.9 L239.3,146.6 L240.8,152.1 L239.6,155.3 L235.8,157.6 L227.4,159.4 L222.2,162.3 L218.8,160.8 L212.6,155.0 L209.2,153.1 L200.4,151.2 L196.0,151.5 L191.9,153.5 L192.0,150.3 L189.3,140.2 L174.9,145.6 L172.3,143.0 L161.6,140.0 L149.8,141.3 L145.6,138.6 L142.3,132.6 L132.2,134.4 L127.8,131.8 L123.2,126.7 L119.7,120.4 L118.4,114.0 L118.7,107.5 L115.1,103.6 L110.0,103.7 L105.5,107.3 L105.1,115.1 L102.7,115.9 L95.4,111.2 L92.8,112.4 L92.3,119.2 L86.4,127.2 L82.7,129.8 L78.7,130.5 Z">
  <desc xmlns="http://www.highcharts.com/svg/namespace">
    <labelrank>3</labelrank>
    <hasc>FR.AL</hasc>
    <alt-name>NULL</alt-name>
    <woe-id>12597131</woe-id>
    <subregion>NULL</subregion>
    <fips>FR98</fips>
    <name>Allier</name>
    <type>Metropolitan department</type>
    <region>Auvergne-Rhône-Alpes</region>
    <longitude>3.18698</longitude>
    <woe-name>Allier</woe-name>
    <latitude>46.408</latitude>
    <woe-label>NULL</woe-label>
    <hc-key>fr-ara-al</hc-key>
    <hc-a2>AL</hc-a2>
  </desc>
</path>

<path fill="#CEE3F5" stroke="#6E6E6E" stroke-width="0.4" id="FR.ARA.LR" d="M370.9,259.8 L370.5,268.0 L372.6,275.0 L365.9,276.5 L353.7,283.3 L350.9,285.8 L348.9,291.0 L349.8,296.7 L348.8,299.4 L331.0,301.0 L323.0,294.8 L316.6,294.1 L313.7,287.7 L315.4,282.4 L314.4,278.0 L311.7,273.3 L308.5,271.0 L304.5,274.7 L302.1,275.0 L294.0,272.4 L289.0,272.5 L287.1,276.8 L284.6,278.4 L272.9,280.5 L267.6,280.9 L263.0,276.4 L257.4,277.8 L253.7,280.9 L251.4,278.4 L252.7,271.2 L254.3,267.6 L260.5,260.0 L262.5,254.2 L257.3,238.5 L255.7,235.9 L239.6,222.0 L236.6,216.2 L232.4,205.8 L228.8,202.0 L224.8,194.9 L226.4,189.1 L226.6,182.4 L229.2,174.9 L227.0,170.6 L222.5,166.9 L222.2,162.3 L227.4,159.4 L235.8,157.6 L239.6,155.3 L240.8,152.1 L239.3,146.6 L238.4,137.9 L236.9,132.5 L237.1,122.3 L236.1,114.1 L233.5,110.8 L234.2,108.3 L240.8,102.8 L249.5,99.9 L251.3,105.1 L251.2,112.2 L257.7,115.1 L262.4,118.9 L266.0,119.1 L273.7,115.9 L283.2,117.8 L291.0,116.2 L304.2,119.3 L309.5,117.4 L312.9,114.5 L316.8,109.0 L319.2,109.8 L323.5,115.3 L324.5,118.8 L323.6,123.3 L320.6,124.5 L313.5,125.2 L311.2,127.0 L300.4,140.0 L299.6,143.3 L306.2,148.4 L306.2,153.1 L299.9,155.9 L300.7,158.7 L310.1,164.1 L311.9,167.4 L310.7,172.8 L312.3,176.5 L316.5,178.8 L319.5,183.2 L318.1,188.1 L312.9,196.0 L313.0,199.4 L320.2,201.4 L320.5,203.7 L316.1,211.4 L318.8,219.9 L325.9,227.8 L334.4,233.2 L341.2,234.4 L349.4,233.0 L354.0,233.5 L357.1,235.9 L357.6,238.5 L356.0,247.3 L356.3,251.0 L359.7,253.5 L365.1,253.0 Z">
  <desc xmlns="http://www.highcharts.com/svg/namespace">
    <labelrank>3</labelrank>
    <hasc>FR.LR</hasc>
    <alt-name>Rhone-Alpes</alt-name>
    <woe-id>12597165</woe-id>
    <subregion>NULL</subregion>
    <fips>FRB9</fips>
    <name>Loire</name>
    <type>Metropolitan department</type>
    <region>Auvergne-Rhône-Alpes</region>
    <longitude>4.16239</longitude>
    <woe-name>Loire</woe-name>
    <latitude>45.706</latitude>
    <woe-label>NULL</woe-label>
    <hc-key>fr-ara-lr</hc-key>
    <hc-a2>LR</hc-a2>
  </desc>
</path>

<path fill="#CEE3F5" stroke="#6E6E6E" stroke-width="0.4" id="FR.ARA.PD" d="M222.2,162.3 L222.5,166.9 L227.0,170.6 L229.2,174.9 L226.6,182.4 L226.4,189.1 L224.8,194.9 L228.8,202.0 L232.4,205.8 L236.6,216.2 L239.6,222.0 L255.7,235.9 L257.3,238.5 L262.5,254.2 L260.5,260.0 L254.3,267.6 L252.7,271.2 L251.4,278.4 L240.3,273.2 L237.0,278.8 L230.8,280.1 L224.5,276.7 L221.1,277.5 L217.3,280.5 L213.2,279.7 L207.8,272.0 L199.1,267.6 L195.9,267.6 L184.1,270.7 L177.0,266.7 L174.6,266.7 L171.4,270.0 L162.2,273.4 L157.4,278.8 L153.1,280.1 L144.2,279.9 L134.6,290.4 L129.3,292.7 L122.9,288.7 L118.5,279.0 L116.3,276.4 L107.2,271.7 L95.4,273.7 L89.3,273.3 L84.5,264.2 L81.0,262.1 L74.0,260.3 L66.6,255.3 L64.1,255.4 L61.1,251.2 L61.0,242.6 L56.9,234.9 L58.4,228.5 L62.9,225.6 L64.7,222.4 L65.2,212.9 L63.9,209.9 L57.7,202.3 L54.3,201.4 L51.4,194.1 L48.5,190.2 L48.4,187.2 L55.7,180.6 L62.2,179.4 L67.7,172.9 L71.3,164.6 L75.1,159.8 L75.0,149.0 L70.9,140.5 L70.4,136.5 L71.4,127.7 L78.7,130.5 L82.7,129.8 L86.4,127.2 L92.3,119.2 L92.8,112.4 L95.4,111.2 L102.7,115.9 L105.1,115.1 L105.5,107.3 L110.0,103.7 L115.1,103.6 L118.7,107.5 L118.4,114.0 L119.7,120.4 L123.2,126.7 L127.8,131.8 L132.2,134.4 L142.3,132.6 L145.6,138.6 L149.8,141.3 L161.6,140.0 L172.3,143.0 L174.9,145.6 L189.3,140.2 L192.0,150.3 L191.9,153.5 L196.0,151.5 L200.4,151.2 L209.2,153.1 L212.6,155.0 L218.8,160.8 Z">
  <desc xmlns="http://www.highcharts.com/svg/namespace">
    <labelrank>3</labelrank>
    <hasc>FR.PD</hasc>
    <alt-name>NULL</alt-name>
    <woe-id>12597146</woe-id>
    <subregion>NULL</subregion>
    <fips>FR98</fips>
    <name>Puy-de-Dôme</name>
    <type>Metropolitan department</type>
    <region>Auvergne-Rhône-Alpes</region>
    <longitude>3.26844</longitude>
    <woe-name>Puy-de-Dôme</woe-name>
    <latitude>45.8135</latitude>
    <woe-label>NULL</woe-label>
    <hc-key>fr-ara-pd</hc-key>
    <hc-a2>PD</hc-a2>
  </desc>
</path>

<path fill="#CEE3F5" stroke="#6E6E6E" stroke-width="0.4" id="FR.ARA.HL" d="M331.0,301.0 L333.1,303.0 L331.9,310.4 L328.6,317.7 L328.2,322.7 L325.5,324.4 L320.5,320.8 L318.4,322.8 L320.6,326.4 L316.2,332.5 L316.1,335.4 L318.7,338.7 L317.6,340.8 L309.5,343.3 L307.8,347.2 L309.0,352.4 L302.9,355.3 L297.8,355.6 L294.9,364.3 L289.5,372.0 L277.9,374.4 L271.5,375.0 L270.2,379.9 L261.1,383.4 L253.8,395.2 L250.8,396.6 L247.5,395.9 L240.1,391.8 L232.1,384.1 L229.1,382.5 L221.5,381.4 L220.4,373.9 L216.5,372.5 L211.6,374.7 L210.0,381.0 L202.8,382.4 L198.2,384.4 L193.6,380.4 L185.6,365.3 L183.9,358.7 L181.0,357.6 L179.1,350.1 L170.8,341.2 L170.6,335.2 L175.5,329.7 L174.0,326.0 L169.6,325.3 L167.8,322.3 L166.8,312.2 L162.0,303.6 L161.1,296.7 L156.4,293.2 L152.7,292.5 L145.4,293.5 L145.5,286.5 L144.2,279.9 L153.1,280.1 L157.4,278.8 L162.2,273.4 L171.4,270.0 L174.6,266.7 L177.0,266.7 L184.1,270.7 L195.9,267.6 L199.1,267.6 L207.8,272.0 L213.2,279.7 L217.3,280.5 L221.1,277.5 L224.5,276.7 L230.8,280.1 L237.0,278.8 L240.3,273.2 L251.4,278.4 L253.7,280.9 L257.4,277.8 L263.0,276.4 L267.6,280.9 L272.9,280.5 L284.6,278.4 L287.1,276.8 L289.0,272.5 L294.0,272.4 L302.1,275.0 L304.5,274.7 L308.5,271.0 L311.7,273.3 L314.4,278.0 L315.4,282.4 L313.7,287.7 L316.6,294.1 L323.0,294.8 Z">
  <desc xmlns="http://www.highcharts.com/svg/namespace">
    <labelrank>3</labelrank>
    <hasc>FR.HL</hasc>
    <alt-name>NULL</alt-name>
    <woe-id>12597130</woe-id>
    <subregion>NULL</subregion>
    <fips>FR98</fips>
    <name>Haute-Loire</name>
    <type>Metropolitan department</type>
    <region>Auvergne-Rhône-Alpes</region>
    <longitude>3.72362</longitude>
    <woe-name>Haute-Loire</woe-name>
    <latitude>45.1254</latitude>
    <woe-label>NULL</woe-label>
    <hc-key>fr-ara-hl</hc-key>
    <hc-a2>HL</hc-a2>
  </desc>
</path>

<path fill="#CEE3F5" stroke="#6E6E6E" stroke-width="0.4" id="FR.ARA.RH" d="M415.9,184.4 L411.9,193.9 L413.6,199.2 L422.3,203.9 L423.6,208.7 L416.7,210.8 L410.5,216.8 L407.7,224.3 L405.0,226.3 L378.4,229.2 L376.1,230.7 L385.5,238.9 L383.6,245.7 L374.4,254.1 L370.9,259.8 L365.1,253.0 L359.7,253.5 L356.3,251.0 L356.0,247.3 L357.6,238.5 L357.1,235.9 L354.0,233.5 L349.4,233.0 L341.2,234.4 L334.4,233.2 L325.9,227.8 L318.8,219.9 L316.1,211.4 L320.5,203.7 L320.2,201.4 L313.0,199.4 L312.9,196.0 L318.1,188.1 L319.5,183.2 L316.5,178.8 L312.3,176.5 L310.7,172.8 L311.9,167.4 L310.1,164.1 L300.7,158.7 L299.9,155.9 L306.2,153.1 L306.2,148.4 L299.6,143.3 L300.4,140.0 L311.2,127.0 L313.5,125.2 L320.6,124.5 L323.6,123.3 L324.5,118.8 L323.5,115.3 L319.2,109.8 L316.8,109.0 L319.9,96.3 L321.8,95.4 L326.9,97.7 L334.7,98.6 L339.6,96.1 L343.3,100.5 L346.6,101.0 L348.8,95.2 L350.8,93.8 L355.6,95.9 L356.3,101.1 L360.0,103.7 L359.9,108.1 L362.4,115.1 L365.0,117.3 L372.9,118.2 L372.6,122.1 L369.3,130.7 L366.8,140.2 L368.0,152.1 L366.9,158.2 L368.4,161.2 L372.1,162.4 L376.1,166.6 L377.1,169.7 L380.6,169.0 L389.4,175.7 L388.7,178.8 L390.7,187.9 L400.9,184.7 L408.8,185.8 Z">
  <desc xmlns="http://www.highcharts.com/svg/namespace">
    <labelrank>3</labelrank>
    <hasc>FR.RH</hasc>
    <alt-name>Rhone-Alpes</alt-name>
    <woe-id>12597185</woe-id>
    <subregion>NULL</subregion>
    <fips>FRB9</fips>
    <name>Rhône</name>
    <type>Metropolitan department</type>
    <region>Auvergne-Rhône-Alpes</region>
    <longitude>4.64841</longitude>
    <woe-name>Rhône</woe-name>
    <latitude>45.841</latitude>
    <woe-label>NULL</woe-label>
    <hc-key>fr-ara-rh</hc-key>
    <hc-a2>RH</hc-a2>
  </desc>
</path>
</g>

<text x="350" y="714" text-anchor="middle" font-family="Verdana" font-size="8" stroke-opacity="0.6">Copyright (c) 2023 Highsoft AS, Based on data from Natural Earth</text>

</svg>