<?xml version="1.0" encoding="utf-8" standalone="no"?>
<!DOCTYPE svg PUBLIC "-//W3C//DTD SVG 1.1//EN" "http://www.w3.org/Graphics/SVG/1.1/DTD/svg11.dtd">

<svg version="1.1" height="700pt" width="700pt" xmlns="http://www.w3.org/2000/svg" xmlns:xlink="http://www.w3.org/1999/xlink">
<desc>
Map version: 1.1.3
Copyright (c) 2020 Highsoft AS, Based on data from Natural Earth
</desc>
<title>Bourgogne-Franche-Comté</title>
<g id="admin2">

<g id="FR">
  <desc xmlns="http://www.highcharts.com/svg/namespace">
    <name>France</name>
    <labelrank>2</labelrank>
    <country-abbrev>Fr.</country-abbrev>
    <subregion>Western Europe</subregion>
    <region-wb>Europe &amp; Central Asia</region-wb>
    <iso-a3>FRA</iso-a3>
    <iso-a2>FR</iso-a2>
    <woe-id>-90</woe-id>
    <continent>Europe</continent>
    <hc-key>fr</hc-key>
    <hc-a2>FR</hc-a2>
  </desc>
</g>

<g id="FR.BFC">
  <desc xmlns="http://www.highcharts.com/svg/namespace">
    <name>Bourgogne-Franche-Comté</name>
    <iso_3166_2>FR-BFC</iso_3166_2>
    <hc-key>fr-bfc</hc-key>
    <hc-a2>BF</hc-a2>
  </desc>
</g>

<path fill="#CEE3F5" stroke="#6E6E6E" stroke-width="0.4" id="FR.BFC.HN" d="M411.2,186.8 L416.0,174.4 L418.2,171.4 L431.1,168.4 L440.0,173.3 L445.1,173.7 L460.5,167.7 L463.3,164.7 L463.0,155.0 L464.2,147.6 L462.3,141.0 L464.7,135.9 L481.2,123.2 L487.3,113.9 L492.3,111.8 L492.0,106.2 L497.4,102.3 L501.8,94.5 L503.7,95.6 L503.6,101.6 L504.7,103.7 L514.6,95.7 L520.2,87.9 L524.7,86.7 L532.4,88.1 L538.4,93.8 L538.4,98.2 L540.8,100.5 L548.7,104.0 L554.9,103.1 L561.1,99.1 L569.3,98.1 L575.6,100.4 L590.0,108.8 L598.7,109.3 L602.5,107.4 L608.1,99.2 L611.9,100.5 L618.4,108.0 L622.0,110.9 L629.3,113.8 L632.8,116.9 L645.2,125.5 L637.5,136.5 L634.6,143.1 L634.4,152.5 L639.2,166.4 L640.3,178.6 L644.1,185.0 L643.6,188.3 L639.4,193.3 L626.9,190.4 L621.0,192.6 L617.3,196.1 L609.7,195.8 L607.8,198.1 L605.3,205.2 L603.4,207.6 L594.5,203.3 L591.6,206.5 L589.2,206.0 L584.8,202.2 L582.1,202.0 L568.1,205.3 L563.4,208.9 L558.9,221.7 L556.5,224.5 L546.8,224.7 L543.4,231.7 L539.7,233.8 L534.4,233.7 L526.9,243.2 L514.5,248.3 L503.0,247.1 L471.9,267.1 L466.5,267.2 L461.2,266.0 L453.1,268.7 L447.9,268.0 L437.5,262.3 L434.3,258.0 L432.3,242.8 L426.3,237.3 L425.1,228.2 L422.9,225.2 L417.6,222.8 L419.7,214.3 L425.9,212.0 L430.9,204.6 L430.5,197.5 L427.7,192.9 L428.1,188.5 L425.1,184.2 L421.8,183.9 L416.8,189.3 Z">
  <desc xmlns="http://www.highcharts.com/svg/namespace">
    <labelrank>3</labelrank>
    <hasc>FR.HN</hasc>
    <alt-name>Franco-Condado</alt-name>
    <woe-id>12597119</woe-id>
    <subregion>NULL</subregion>
    <fips>FRA6</fips>
    <name>Haute-Saône</name>
    <type>Metropolitan department</type>
    <region>Bourgogne-Franche-Comté</region>
    <longitude>6.16722</longitude>
    <woe-name>Haute-Saône</woe-name>
    <latitude>47.6973</latitude>
    <woe-label>NULL</woe-label>
    <hc-key>fr-bfc-hn</hc-key>
    <hc-a2>HN</hc-a2>
  </desc>
</path>

<path fill="#CEE3F5" stroke="#6E6E6E" stroke-width="0.4" id="FR.BFC.SL" d="M409.0,463.0 L397.3,460.2 L392.8,457.6 L386.8,451.7 L382.9,450.4 L377.9,451.0 L367.9,455.2 L361.5,455.2 L355.3,452.4 L350.6,451.6 L347.0,453.6 L343.0,466.7 L341.2,479.0 L337.3,487.8 L337.2,493.1 L328.7,512.6 L324.9,529.2 L325.7,533.1 L315.9,532.1 L312.7,529.4 L309.6,520.8 L309.7,515.3 L305.2,512.1 L304.3,505.7 L298.5,503.2 L296.0,504.8 L295.4,509.5 L293.3,511.9 L289.2,511.3 L284.6,506.0 L278.6,509.1 L269.0,507.9 L262.8,505.1 L260.4,506.2 L256.6,521.8 L251.8,528.6 L247.6,532.2 L241.0,534.5 L224.8,530.7 L215.2,532.7 L208.4,530.6 L203.5,530.3 L194.1,534.2 L189.6,534.0 L183.9,529.4 L175.8,525.7 L175.9,517.1 L173.8,510.7 L189.0,501.9 L192.5,498.4 L190.1,491.3 L188.8,482.1 L190.4,475.4 L188.6,465.9 L187.4,464.0 L181.6,460.8 L171.9,458.8 L164.6,452.0 L160.5,452.0 L149.0,445.5 L149.7,435.0 L149.2,431.0 L143.4,423.9 L141.8,419.8 L135.1,413.0 L133.7,407.8 L129.5,400.2 L148.2,397.0 L152.6,400.0 L160.0,408.9 L163.6,407.3 L167.8,403.3 L177.7,399.5 L190.7,390.3 L198.9,388.4 L199.5,380.2 L197.5,377.2 L198.8,374.5 L204.4,372.3 L206.1,369.3 L205.4,365.2 L197.9,359.0 L198.1,347.2 L196.2,344.6 L190.6,342.6 L190.6,336.8 L197.1,335.2 L199.8,332.7 L200.7,326.0 L198.3,319.2 L198.1,314.3 L200.3,308.6 L211.0,307.0 L220.5,300.7 L224.2,299.5 L227.3,300.2 L234.1,308.0 L243.1,311.6 L247.9,320.6 L254.7,318.8 L262.5,327.9 L273.3,331.4 L278.8,330.7 L280.9,331.8 L286.0,343.8 L288.8,346.7 L298.1,349.5 L301.9,358.0 L305.6,358.3 L311.3,353.5 L319.6,352.9 L339.2,343.4 L352.8,341.5 L360.7,338.4 L363.7,339.1 L367.4,343.0 L381.5,341.9 L388.6,337.3 L392.1,336.1 L395.4,337.4 L399.7,346.1 L409.0,355.7 L415.4,359.4 L419.8,360.1 L424.6,364.4 L430.4,366.3 L427.1,373.2 L417.1,374.8 L413.9,376.5 L412.9,380.1 L418.7,385.5 L417.1,391.5 L417.7,395.0 L420.8,397.5 L425.7,413.0 L426.3,420.3 L423.1,430.1 L418.8,432.6 L416.9,435.6 L416.7,440.9 L418.2,445.1 L424.4,448.8 L427.4,452.0 L426.9,455.7 L424.2,457.9 L412.5,461.0 Z">
  <desc xmlns="http://www.highcharts.com/svg/namespace">
    <labelrank>3</labelrank>
    <hasc>FR.SL</hasc>
    <alt-name>Borgońa|Burgundy</alt-name>
    <woe-id>12597153</woe-id>
    <subregion>NULL</subregion>
    <fips>FRA1</fips>
    <name>Saône-et-Loire</name>
    <type>Metropolitan department</type>
    <region>Bourgogne-Franche-Comté</region>
    <longitude>4.5138</longitude>
    <woe-name>Saône-et-Loire</woe-name>
    <latitude>46.6789</latitude>
    <woe-label>NULL</woe-label>
    <hc-key>fr-bfc-sl</hc-key>
    <hc-a2>SL</hc-a2>
  </desc>
</path>

<path fill="#CEE3F5" stroke="#6E6E6E" stroke-width="0.4" id="FR.BFC.DB" d="M666.7,219.8 L664.6,220.4 L664.6,224.9 L660.5,227.6 L656.4,234.7 L655.8,237.8 L675.0,234.9 L678.0,233.3 L684.9,239.6 L683.7,242.3 L679.0,245.0 L676.8,248.3 L671.5,252.3 L670.7,257.2 L671.7,263.1 L661.0,271.8 L656.5,276.9 L653.7,282.2 L643.5,292.6 L638.6,294.6 L639.0,298.6 L635.6,302.0 L631.6,303.6 L628.1,309.1 L630.3,313.5 L626.8,319.1 L616.3,327.9 L598.9,334.2 L591.1,339.2 L589.1,347.7 L592.2,353.9 L592.7,359.8 L588.6,372.2 L591.1,377.1 L590.8,383.2 L587.4,386.9 L582.1,390.1 L576.4,396.6 L564.9,403.6 L543.5,424.8 L541.4,427.8 L542.0,430.9 L544.9,433.8 L536.0,428.8 L531.6,424.3 L530.4,420.3 L532.5,416.6 L537.0,412.3 L534.3,404.2 L535.5,400.9 L552.0,386.9 L554.2,383.4 L532.9,365.0 L523.4,362.6 L517.9,353.8 L517.0,344.3 L512.1,334.7 L504.2,330.1 L491.3,327.6 L485.7,322.5 L480.9,326.4 L476.5,324.3 L477.1,320.6 L481.2,314.5 L480.9,308.1 L484.3,304.1 L486.6,297.9 L486.1,293.7 L480.7,284.7 L471.2,278.3 L466.5,267.2 L471.9,267.1 L503.0,247.1 L514.5,248.3 L526.9,243.2 L534.4,233.7 L539.7,233.8 L543.4,231.7 L546.8,224.7 L556.5,224.5 L558.9,221.7 L563.4,208.9 L568.1,205.3 L582.1,202.0 L584.8,202.2 L589.2,206.0 L591.6,206.5 L594.5,203.3 L603.4,207.6 L605.3,205.2 L607.8,198.1 L609.7,195.8 L617.3,196.1 L621.0,192.6 L626.9,190.4 L639.4,193.3 L643.6,188.3 L646.7,191.8 L657.8,190.3 L662.1,194.3 L663.0,197.4 L662.0,205.6 L665.5,214.6 Z">
  <desc xmlns="http://www.highcharts.com/svg/namespace">
    <labelrank>3</labelrank>
    <hasc>FR.DB</hasc>
    <alt-name>Franco-Condado</alt-name>
    <woe-id>12597116</woe-id>
    <subregion>NULL</subregion>
    <fips>FRA6</fips>
    <name>Doubs</name>
    <type>Metropolitan department</type>
    <region>Bourgogne-Franche-Comté</region>
    <longitude>6.31895</longitude>
    <woe-name>Doubs</woe-name>
    <latitude>47.1584</latitude>
    <woe-label>NULL</woe-label>
    <hc-key>fr-bfc-db</hc-key>
    <hc-a2>DB</hc-a2>
  </desc>
</path>

<path fill="#CEE3F5" stroke="#6E6E6E" stroke-width="0.4" id="FR.BFC.NI" d="M224.2,299.5 L220.5,300.7 L211.0,307.0 L200.3,308.6 L198.1,314.3 L198.3,319.2 L200.7,326.0 L199.8,332.7 L197.1,335.2 L190.6,336.8 L190.6,342.6 L196.2,344.6 L198.1,347.2 L197.9,359.0 L205.4,365.2 L206.1,369.3 L204.4,372.3 L198.8,374.5 L197.5,377.2 L199.5,380.2 L198.9,388.4 L190.7,390.3 L177.7,399.5 L167.8,403.3 L163.6,407.3 L160.0,408.9 L152.6,400.0 L148.2,397.0 L129.5,400.2 L124.9,399.4 L123.6,405.9 L120.1,408.2 L118.9,414.2 L108.3,420.8 L102.6,421.4 L102.0,415.9 L98.1,408.5 L93.8,407.1 L91.0,408.6 L87.4,413.2 L84.2,413.3 L78.2,410.2 L68.8,409.7 L62.2,413.1 L57.2,410.9 L52.9,405.6 L48.0,403.2 L44.4,403.6 L35.1,398.0 L31.8,392.8 L32.3,383.2 L38.7,369.3 L35.5,359.0 L39.0,344.4 L37.9,327.3 L32.6,321.8 L31.7,318.3 L32.1,309.0 L28.8,296.6 L25.0,286.5 L22.1,274.3 L17.6,270.6 L13.5,265.1 L9.2,262.6 L6.3,257.5 L7.9,252.5 L11.8,246.3 L14.4,239.5 L15.3,229.8 L11.7,224.7 L7.5,215.0 L3.3,209.8 L3.8,207.9 L12.0,203.6 L18.3,203.5 L21.7,202.3 L25.8,203.3 L42.7,199.6 L45.9,201.1 L47.3,209.6 L50.2,212.4 L57.7,213.3 L61.0,214.6 L65.5,220.2 L68.0,220.6 L73.9,218.1 L80.6,222.8 L85.1,221.7 L90.2,216.8 L94.1,216.2 L105.9,219.7 L106.8,211.9 L106.4,203.9 L112.7,213.3 L117.8,218.1 L122.0,226.5 L131.4,228.4 L143.0,239.1 L157.5,245.1 L160.1,244.0 L162.1,237.7 L164.4,234.4 L167.4,234.1 L169.2,237.6 L168.0,247.9 L170.5,249.4 L181.2,243.2 L183.7,247.2 L185.7,259.0 L189.6,262.4 L192.5,262.2 L197.2,255.8 L206.7,255.7 L209.6,259.5 L210.1,277.1 L220.9,278.2 L225.5,284.1 L226.4,288.8 L224.5,294.6 Z">
  <desc xmlns="http://www.highcharts.com/svg/namespace">
    <labelrank>3</labelrank>
    <hasc>FR.NI</hasc>
    <alt-name>Borgońa|Burgundy</alt-name>
    <woe-id>12597128</woe-id>
    <subregion>NULL</subregion>
    <fips>FRA1</fips>
    <name>Ničvre</name>
    <type>Metropolitan department</type>
    <region>Bourgogne-Franche-Comté</region>
    <longitude>3.56837</longitude>
    <woe-name>Ničvre</woe-name>
    <latitude>47.1505</latitude>
    <woe-label>NULL</woe-label>
    <hc-key>fr-bfc-ni</hc-key>
    <hc-a2>NI</hc-a2>
  </desc>
</path>

<path fill="#CEE3F5" stroke="#6E6E6E" stroke-width="0.4" id="FR.BFC.TB" d="M666.7,219.8 L665.5,214.6 L662.0,205.6 L663.0,197.4 L662.1,194.3 L657.8,190.3 L646.7,191.8 L643.6,188.3 L644.1,185.0 L640.3,178.6 L639.2,166.4 L634.4,152.5 L634.6,143.1 L637.5,136.5 L645.2,125.5 L650.6,126.5 L651.0,130.5 L653.2,133.1 L676.6,145.2 L681.1,149.7 L683.0,158.1 L682.4,164.7 L678.4,172.0 L678.2,176.2 L680.5,178.5 L687.5,179.3 L696.8,188.7 L699.4,192.8 L700.0,198.6 L698.9,203.5 L692.6,201.8 L684.5,203.6 L677.3,201.9 L671.5,204.6 L674.8,213.3 L673.7,215.4 Z">
  <desc xmlns="http://www.highcharts.com/svg/namespace">
    <labelrank>3</labelrank>
    <hasc>FR.TB</hasc>
    <alt-name>Franco-Condado</alt-name>
    <woe-id>12597154</woe-id>
    <subregion>NULL</subregion>
    <fips>FRA6</fips>
    <name>Territoire de Belfort</name>
    <type>Metropolitan department</type>
    <region>Bourgogne-Franche-Comté</region>
    <longitude>6.93675</longitude>
    <woe-name>Belfort</woe-name>
    <latitude>47.6568</latitude>
    <woe-label>NULL</woe-label>
    <hc-key>fr-bfc-tb</hc-key>
    <hc-a2>TB</hc-a2>
  </desc>
</path>

<path fill="#CEE3F5" stroke="#6E6E6E" stroke-width="0.4" id="FR.BFC.JU" d="M466.5,267.2 L471.2,278.3 L480.7,284.7 L486.1,293.7 L486.6,297.9 L484.3,304.1 L480.9,308.1 L481.2,314.5 L477.1,320.6 L476.5,324.3 L480.9,326.4 L485.7,322.5 L491.3,327.6 L504.2,330.1 L512.1,334.7 L517.0,344.3 L517.9,353.8 L523.4,362.6 L532.9,365.0 L554.2,383.4 L552.0,386.9 L535.5,400.9 L534.3,404.2 L537.0,412.3 L532.5,416.6 L530.4,420.3 L531.6,424.3 L536.0,428.8 L544.9,433.8 L546.2,435.2 L540.7,442.8 L535.3,452.9 L533.5,455.0 L534.2,465.6 L533.1,467.9 L526.5,475.6 L524.3,479.6 L518.9,485.8 L516.3,491.1 L504.9,503.0 L498.1,505.2 L480.0,504.9 L477.2,503.4 L474.2,495.3 L465.7,487.9 L458.1,496.1 L457.3,498.7 L452.8,500.4 L451.0,503.3 L443.4,508.6 L438.8,507.4 L436.6,504.9 L437.2,497.1 L436.2,494.6 L431.3,493.6 L429.0,490.4 L423.2,488.6 L420.4,485.4 L418.2,478.1 L415.0,475.4 L410.9,474.2 L409.3,471.5 L409.0,463.0 L412.5,461.0 L424.2,457.9 L426.9,455.7 L427.4,452.0 L424.4,448.8 L418.2,445.1 L416.7,440.9 L416.9,435.6 L418.8,432.6 L423.1,430.1 L426.3,420.3 L425.7,413.0 L420.8,397.5 L417.7,395.0 L417.1,391.5 L418.7,385.5 L412.9,380.1 L413.9,376.5 L417.1,374.8 L427.1,373.2 L430.4,366.3 L424.6,364.4 L419.8,360.1 L415.4,359.4 L409.0,355.7 L399.7,346.1 L395.4,337.4 L403.4,332.0 L405.0,329.4 L403.2,322.3 L404.1,319.2 L410.9,315.1 L416.3,312.8 L419.8,308.6 L432.4,286.0 L434.1,276.7 L437.5,262.3 L447.9,268.0 L453.1,268.7 L461.2,266.0 Z">
  <desc xmlns="http://www.highcharts.com/svg/namespace">
    <labelrank>3</labelrank>
    <hasc>FR.JU</hasc>
    <alt-name>Franco-Condado</alt-name>
    <woe-id>12597120</woe-id>
    <subregion>NULL</subregion>
    <fips>FRA6</fips>
    <name>Jura</name>
    <type>Metropolitan department</type>
    <region>Bourgogne-Franche-Comté</region>
    <longitude>5.72845</longitude>
    <woe-name>Jura Mountains</woe-name>
    <latitude>46.732</latitude>
    <woe-label>NULL</woe-label>
    <hc-key>fr-bfc-ju</hc-key>
    <hc-a2>JU</hc-a2>
  </desc>
</path>

<path fill="#CEE3F5" stroke="#6E6E6E" stroke-width="0.4" id="FR.BFC.YO" d="M206.7,255.7 L197.2,255.8 L192.5,262.2 L189.6,262.4 L185.7,259.0 L183.7,247.2 L181.2,243.2 L170.5,249.4 L168.0,247.9 L169.2,237.6 L167.4,234.1 L164.4,234.4 L162.1,237.7 L160.1,244.0 L157.5,245.1 L143.0,239.1 L131.4,228.4 L122.0,226.5 L117.8,218.1 L112.7,213.3 L106.4,203.9 L106.8,211.9 L105.9,219.7 L94.1,216.2 L90.2,216.8 L85.1,221.7 L80.6,222.8 L73.9,218.1 L68.0,220.6 L65.5,220.2 L61.0,214.6 L57.7,213.3 L50.2,212.4 L47.3,209.6 L45.9,201.1 L42.7,199.6 L25.8,203.3 L21.7,202.3 L20.3,198.5 L15.5,192.4 L14.5,188.1 L16.0,182.9 L12.9,176.0 L5.1,168.6 L0.3,166.8 L0.0,158.8 L4.1,155.8 L13.5,155.0 L23.9,149.6 L26.7,146.4 L26.5,139.7 L28.6,135.3 L26.1,128.7 L25.4,122.7 L26.5,120.4 L30.1,120.0 L33.9,115.5 L40.3,111.0 L45.6,98.5 L44.7,92.6 L41.5,88.2 L36.5,84.2 L33.9,80.5 L31.0,68.8 L28.0,64.8 L19.7,61.8 L14.7,61.4 L16.5,52.3 L18.2,49.6 L27.0,43.9 L31.4,34.5 L29.2,30.0 L29.1,22.0 L31.7,13.9 L33.4,12.1 L41.4,12.3 L47.5,9.6 L59.6,11.0 L75.8,8.2 L83.3,9.0 L85.6,4.5 L89.7,0.0 L92.5,2.3 L93.9,10.0 L100.3,10.4 L105.3,13.2 L110.1,17.4 L120.6,31.2 L123.7,36.7 L124.4,47.8 L120.7,52.0 L119.8,55.1 L125.7,57.8 L130.7,62.1 L135.6,64.2 L138.5,63.3 L141.6,59.4 L145.4,62.1 L147.3,67.5 L152.3,73.2 L163.9,92.7 L164.7,95.6 L160.0,98.4 L164.7,102.2 L171.1,101.2 L172.3,103.6 L173.0,112.5 L175.5,114.4 L186.1,114.2 L193.7,116.2 L198.5,112.4 L203.1,113.7 L209.4,112.9 L212.0,109.2 L215.7,108.5 L220.2,111.8 L222.6,103.8 L228.7,112.8 L234.0,115.2 L231.3,124.0 L230.2,134.5 L236.1,133.8 L238.3,134.9 L242.5,146.7 L243.1,150.9 L241.5,154.3 L230.0,160.8 L229.9,171.9 L228.0,179.6 L224.0,185.3 L221.3,193.1 L212.0,211.1 L208.1,216.1 L208.1,227.8 L205.8,231.5 L200.2,235.4 L200.1,240.0 L202.5,246.0 L205.9,248.9 Z">
  <desc xmlns="http://www.highcharts.com/svg/namespace">
    <labelrank>3</labelrank>
    <hasc>FR.YO</hasc>
    <alt-name>Borgońa|Burgundy</alt-name>
    <woe-id>12597133</woe-id>
    <subregion>NULL</subregion>
    <fips>FRA1</fips>
    <name>Yonne</name>
    <type>Metropolitan department</type>
    <region>Bourgogne-Franche-Comté</region>
    <longitude>3.64262</longitude>
    <woe-name>Yonne</woe-name>
    <latitude>47.7715</latitude>
    <woe-label>NULL</woe-label>
    <hc-key>fr-bfc-yo</hc-key>
    <hc-a2>YO</hc-a2>
  </desc>
</path>

<path fill="#CEE3F5" stroke="#6E6E6E" stroke-width="0.4" id="FR.BFC.CO" d="M234.0,115.2 L240.0,109.9 L274.6,104.6 L277.6,102.3 L277.9,96.7 L281.1,93.6 L285.4,92.4 L290.7,93.9 L295.0,93.3 L299.5,90.5 L305.0,94.2 L314.9,96.2 L317.2,98.9 L316.3,103.4 L323.8,106.3 L326.0,108.6 L323.5,116.9 L326.9,120.1 L330.0,116.0 L331.7,116.3 L340.2,126.8 L343.9,132.5 L347.6,142.3 L345.9,144.7 L341.3,145.3 L338.5,149.1 L342.3,154.4 L343.5,163.0 L345.4,168.1 L348.7,169.8 L353.4,165.0 L355.4,165.4 L363.1,175.7 L368.0,178.3 L372.6,177.7 L377.2,171.6 L380.3,172.2 L381.6,176.7 L386.2,180.9 L393.7,185.6 L395.3,191.3 L398.2,191.5 L404.0,186.8 L408.7,190.3 L411.2,186.8 L416.8,189.3 L421.8,183.9 L425.1,184.2 L428.1,188.5 L427.7,192.9 L430.5,197.5 L430.9,204.6 L425.9,212.0 L419.7,214.3 L417.6,222.8 L422.9,225.2 L425.1,228.2 L426.3,237.3 L432.3,242.8 L434.3,258.0 L437.5,262.3 L434.1,276.7 L432.4,286.0 L419.8,308.6 L416.3,312.8 L410.9,315.1 L404.1,319.2 L403.2,322.3 L405.0,329.4 L403.4,332.0 L395.4,337.4 L392.1,336.1 L388.6,337.3 L381.5,341.9 L367.4,343.0 L363.7,339.1 L360.7,338.4 L352.8,341.5 L339.2,343.4 L319.6,352.9 L311.3,353.5 L305.6,358.3 L301.9,358.0 L298.1,349.5 L288.8,346.7 L286.0,343.8 L280.9,331.8 L278.8,330.7 L273.3,331.4 L262.5,327.9 L254.7,318.8 L247.9,320.6 L243.1,311.6 L234.1,308.0 L227.3,300.2 L224.2,299.5 L224.5,294.6 L226.4,288.8 L225.5,284.1 L220.9,278.2 L210.1,277.1 L209.6,259.5 L206.7,255.7 L205.9,248.9 L202.5,246.0 L200.1,240.0 L200.2,235.4 L205.8,231.5 L208.1,227.8 L208.1,216.1 L212.0,211.1 L221.3,193.1 L224.0,185.3 L228.0,179.6 L229.9,171.9 L230.0,160.8 L241.5,154.3 L243.1,150.9 L242.5,146.7 L238.3,134.9 L236.1,133.8 L230.2,134.5 L231.3,124.0 Z">
  <desc xmlns="http://www.highcharts.com/svg/namespace">
    <labelrank>3</labelrank>
    <hasc>FR.CO</hasc>
    <alt-name>Borgońa|Burgundy</alt-name>
    <woe-id>12597144</woe-id>
    <subregion>NULL</subregion>
    <fips>FRA1</fips>
    <name>Côte-d'Or</name>
    <type>Metropolitan department</type>
    <region>Bourgogne-Franche-Comté</region>
    <longitude>4.76991</longitude>
    <woe-name>Côte-d'Or</woe-name>
    <latitude>47.4003</latitude>
    <woe-label>NULL</woe-label>
    <hc-key>fr-bfc-co</hc-key>
    <hc-a2>CO</hc-a2>
  </desc>
</path>
</g>

<text x="350" y="714" text-anchor="middle" font-family="Verdana" font-size="8" stroke-opacity="0.6">Copyright (c) 2020 Highsoft AS, Based on data from Natural Earth</text>

</svg>