<?xml version="1.0" encoding="utf-8" standalone="no"?>
<!DOCTYPE svg PUBLIC "-//W3C//DTD SVG 1.1//EN" "http://www.w3.org/Graphics/SVG/1.1/DTD/svg11.dtd">

<svg version="1.1" height="700pt" width="700pt" xmlns="http://www.w3.org/2000/svg" xmlns:xlink="http://www.w3.org/1999/xlink">
<desc>
Map version: 1.1.3
Copyright (c) 2020 Highsoft AS, Based on data from Natural Earth
</desc>
<title>Hauts-de-France</title>
<g id="admin2">

<g id="FR">
  <desc xmlns="http://www.highcharts.com/svg/namespace">
    <name>France</name>
    <labelrank>2</labelrank>
    <country-abbrev>Fr.</country-abbrev>
    <subregion>Western Europe</subregion>
    <region-wb>Europe &amp; Central Asia</region-wb>
    <iso-a3>FRA</iso-a3>
    <iso-a2>FR</iso-a2>
    <woe-id>-90</woe-id>
    <continent>Europe</continent>
    <hc-key>fr</hc-key>
    <hc-a2>FR</hc-a2>
  </desc>
</g>

<g id="FR.HDF">
  <desc xmlns="http://www.highcharts.com/svg/namespace">
    <name>Hauts-de-France</name>
    <iso_3166_2>FR-HDF</iso_3166_2>
    <hc-key>fr-hdf</hc-key>
    <hc-a2>HD</hc-a2>
  </desc>
</g>

<path fill="#CEE3F5" stroke="#6E6E6E" stroke-width="0.4" id="FR.HDF.NO" d="M341.1,292.4 L341.7,299.2 L331.2,302.3 L327.4,301.5 L327.9,293.2 L334.5,292.0 L339.7,285.8 Z M555.3,346.2 L548.7,348.1 L545.0,347.6 L527.9,341.2 L525.5,338.6 L525.6,329.2 L523.3,325.9 L516.8,326.9 L509.5,332.2 L505.5,332.5 L499.0,325.7 L478.4,323.3 L469.6,320.9 L464.6,320.9 L453.8,327.7 L447.3,327.1 L442.5,324.4 L438.8,324.2 L433.2,328.4 L423.4,333.8 L417.5,335.0 L400.0,329.8 L390.8,334.2 L378.9,331.2 L372.6,331.0 L358.8,334.2 L346.0,325.1 L344.9,324.5 L345.1,317.0 L352.5,282.9 L354.6,278.1 L361.1,269.9 L359.9,265.1 L354.2,258.4 L350.5,256.5 L343.1,255.8 L335.8,259.8 L331.1,256.5 L333.0,249.7 L338.9,243.7 L339.3,237.3 L336.0,231.8 L327.5,221.0 L328.5,215.2 L338.2,206.9 L338.9,201.8 L337.0,199.7 L330.1,198.4 L327.8,193.8 L326.8,187.9 L324.3,183.4 L318.8,181.4 L309.4,182.7 L302.7,174.2 L299.2,173.7 L292.1,176.0 L286.4,172.5 L285.1,166.5 L288.6,159.5 L288.4,152.7 L289.6,149.3 L295.1,144.5 L301.3,142.9 L295.3,134.9 L291.7,131.9 L288.1,131.2 L284.1,133.6 L278.0,141.6 L274.4,144.3 L269.8,143.5 L225.7,141.9 L222.7,140.8 L213.0,131.3 L202.4,128.9 L200.7,124.2 L202.0,117.9 L198.7,112.5 L199.0,109.2 L207.0,98.8 L204.7,95.2 L200.9,93.7 L183.2,94.1 L177.7,91.9 L173.2,87.5 L166.5,64.8 L150.8,31.7 L142.5,22.0 L156.5,20.4 L194.1,8.3 L205.9,9.9 L222.0,5.8 L233.1,0.0 L236.0,7.2 L237.9,21.0 L239.8,27.0 L246.8,34.9 L249.9,39.6 L250.5,45.8 L244.7,52.2 L243.6,55.1 L247.4,68.8 L246.0,76.8 L249.3,79.1 L252.0,84.8 L258.0,86.2 L263.6,85.9 L266.2,87.3 L269.1,93.5 L276.4,100.6 L281.2,110.9 L284.9,114.0 L301.6,121.8 L307.3,120.4 L313.3,110.1 L321.5,103.3 L347.6,95.1 L352.8,96.7 L356.1,99.8 L366.2,118.5 L371.7,119.7 L375.6,130.0 L372.8,135.3 L374.4,144.3 L379.8,161.9 L380.1,171.8 L381.1,175.4 L386.9,181.4 L395.6,185.9 L404.0,186.3 L412.7,183.1 L419.4,177.6 L425.1,178.2 L426.1,182.4 L424.2,185.8 L426.7,187.7 L439.5,187.7 L448.4,190.7 L452.4,194.5 L455.7,200.4 L457.5,212.4 L457.7,227.0 L459.5,239.7 L466.6,246.3 L475.4,232.2 L486.8,230.4 L495.1,231.3 L506.3,237.4 L510.9,237.3 L523.5,231.8 L527.7,231.2 L531.7,233.1 L538.4,240.3 L546.9,246.4 L552.5,258.1 L556.2,259.7 L557.5,254.1 L560.0,253.0 L564.5,255.3 L568.3,259.4 L567.9,262.7 L559.2,271.8 L553.6,292.7 L553.2,298.3 L556.1,299.7 L562.2,297.5 L564.3,298.5 L567.9,311.9 L570.5,319.3 L565.7,321.8 L557.5,328.7 L555.1,332.9 L556.8,346.3 Z">
  <desc xmlns="http://www.highcharts.com/svg/namespace">
    <labelrank>3</labelrank>
    <hasc>FR.NO</hasc>
    <alt-name>NULL</alt-name>
    <woe-id>12597168</woe-id>
    <subregion>NULL</subregion>
    <fips>FRB4</fips>
    <name>Nord</name>
    <type>Metropolitan department</type>
    <region>Hauts-de-France</region>
    <longitude>3.22709</longitude>
    <woe-name>Nord</woe-name>
    <latitude>50.403</latitude>
    <woe-label>NULL</woe-label>
    <hc-key>fr-hdf-no</hc-key>
    <hc-a2>NO</hc-a2>
  </desc>
</path>

<path fill="#CEE3F5" stroke="#6E6E6E" stroke-width="0.4" id="FR.HDF.AS" d="M555.3,346.2 L566.5,352.1 L572.2,352.3 L572.6,364.1 L578.8,375.2 L579.2,383.4 L573.3,396.4 L571.9,407.4 L577.2,416.1 L576.4,423.2 L560.5,438.3 L556.4,443.0 L553.8,448.1 L549.1,451.3 L545.0,451.2 L539.5,455.5 L545.2,473.7 L543.7,479.2 L545.1,487.7 L540.4,493.2 L539.4,498.7 L545.5,511.1 L539.7,513.5 L537.8,517.7 L540.6,519.2 L542.3,523.7 L542.1,531.6 L540.7,536.4 L537.7,538.6 L531.8,535.5 L525.9,537.7 L521.7,537.7 L515.8,533.7 L506.2,532.4 L502.4,535.5 L502.9,541.5 L500.6,543.5 L487.9,545.4 L470.8,550.4 L460.0,557.3 L463.6,568.9 L464.4,582.3 L466.3,587.6 L471.5,588.8 L473.9,592.3 L479.0,595.7 L479.2,601.5 L475.5,605.1 L471.1,606.1 L462.3,604.7 L457.5,606.1 L454.9,612.4 L456.2,618.7 L455.6,623.7 L452.0,629.7 L447.5,633.2 L447.8,640.5 L451.3,642.0 L462.1,641.6 L465.1,644.3 L464.0,649.1 L456.9,655.7 L454.6,660.0 L448.6,664.8 L445.3,672.8 L432.6,685.6 L425.7,699.0 L419.8,700.0 L413.4,698.2 L406.1,692.6 L404.3,689.6 L402.8,678.9 L400.5,675.8 L395.5,678.1 L393.0,677.3 L363.3,651.1 L361.2,645.0 L363.2,638.0 L359.8,628.0 L356.1,623.3 L343.5,619.3 L349.7,613.1 L353.9,603.7 L353.5,599.2 L348.2,593.6 L341.0,590.9 L336.9,590.8 L326.1,593.9 L322.5,592.7 L320.9,589.7 L320.0,582.4 L328.5,576.4 L331.2,570.3 L329.4,563.7 L320.2,553.7 L319.9,552.1 L325.4,547.7 L335.7,547.0 L341.5,542.9 L344.1,536.9 L347.6,521.6 L351.4,518.5 L356.6,521.1 L360.8,519.0 L361.7,515.8 L360.0,508.8 L354.7,505.1 L352.2,498.8 L351.8,491.5 L354.1,476.8 L352.8,465.9 L349.5,459.6 L349.0,453.7 L351.7,438.1 L351.2,432.0 L349.5,427.3 L348.5,416.9 L346.4,412.1 L342.4,411.8 L338.6,409.3 L338.7,406.2 L343.5,400.9 L344.3,398.1 L343.6,388.1 L344.1,383.5 L350.9,376.7 L358.1,358.4 L366.1,347.7 L358.8,334.2 L372.6,331.0 L378.9,331.2 L390.8,334.2 L400.0,329.8 L417.5,335.0 L423.4,333.8 L433.2,328.4 L438.8,324.2 L442.5,324.4 L447.3,327.1 L453.8,327.7 L464.6,320.9 L469.6,320.9 L478.4,323.3 L499.0,325.7 L505.5,332.5 L509.5,332.2 L516.8,326.9 L523.3,325.9 L525.6,329.2 L525.5,338.6 L527.9,341.2 L545.0,347.6 L548.7,348.1 Z">
  <desc xmlns="http://www.highcharts.com/svg/namespace">
    <labelrank>3</labelrank>
    <hasc>FR.AS</hasc>
    <alt-name>NULL</alt-name>
    <woe-id>12597170</woe-id>
    <subregion>NULL</subregion>
    <fips>FRB6</fips>
    <name>Aisne</name>
    <type>Metropolitan department</type>
    <region>Hauts-de-France</region>
    <longitude>3.51554</longitude>
    <woe-name>Aisne</woe-name>
    <latitude>49.5667</latitude>
    <woe-label>NULL</woe-label>
    <hc-key>fr-hdf-as</hc-key>
    <hc-a2>AS</hc-a2>
  </desc>
</path>

<path fill="#CEE3F5" stroke="#6E6E6E" stroke-width="0.4" id="FR.HDF.SO" d="M358.8,334.2 L366.1,347.7 L358.1,358.4 L350.9,376.7 L344.1,383.5 L343.6,388.1 L344.3,398.1 L343.5,400.9 L338.7,406.2 L338.6,409.3 L342.4,411.8 L346.4,412.1 L348.5,416.9 L349.5,427.3 L351.2,432.0 L337.8,429.5 L337.9,435.4 L335.8,438.2 L332.6,438.2 L326.5,433.4 L323.7,432.9 L314.2,436.0 L307.3,431.1 L303.8,431.1 L301.5,433.8 L297.7,441.8 L295.2,444.8 L287.4,447.1 L286.0,450.4 L286.2,458.0 L282.5,460.6 L274.1,457.1 L266.0,458.2 L260.0,464.9 L256.7,471.9 L252.8,471.1 L251.7,464.4 L247.9,461.1 L241.1,464.8 L237.9,463.4 L230.0,455.4 L223.2,456.5 L218.9,454.9 L213.1,448.1 L196.9,444.4 L186.6,436.5 L172.9,433.7 L137.9,437.5 L119.0,427.6 L95.4,431.6 L93.6,430.0 L91.6,419.4 L88.5,417.1 L75.1,411.2 L72.6,401.0 L66.6,389.4 L63.8,377.1 L60.9,372.6 L28.4,336.9 L0.0,316.0 L3.7,313.1 L18.8,295.6 L23.6,279.2 L30.7,270.1 L37.6,269.3 L57.2,279.4 L60.9,277.6 L55.4,271.3 L59.5,271.3 L59.6,269.0 L51.7,267.5 L48.6,264.9 L45.5,257.4 L37.0,253.0 L35.2,250.4 L35.7,240.4 L37.6,228.2 L41.9,220.0 L46.4,221.0 L53.5,228.9 L58.0,231.7 L63.3,231.9 L75.7,227.4 L83.8,226.5 L91.2,227.4 L94.9,230.4 L99.1,236.3 L104.5,240.4 L106.8,240.3 L111.5,236.2 L114.9,235.8 L117.6,238.7 L114.2,246.0 L132.5,256.2 L138.2,261.3 L138.4,265.4 L140.6,270.7 L143.7,274.0 L149.3,275.6 L161.6,275.0 L166.8,273.7 L174.9,273.6 L188.8,269.5 L190.0,265.3 L193.5,265.2 L197.8,271.9 L199.7,272.6 L203.6,268.9 L209.0,269.4 L218.1,274.5 L220.4,279.0 L216.5,282.6 L205.5,289.8 L201.6,297.1 L202.6,305.3 L207.7,310.3 L210.7,308.1 L213.3,302.4 L218.3,299.8 L230.5,301.2 L236.8,297.8 L241.7,299.4 L240.3,304.8 L243.7,307.8 L252.5,309.4 L262.2,315.0 L265.0,315.6 L266.7,302.3 L269.0,299.8 L272.6,302.2 L277.6,309.2 L279.7,317.5 L275.4,325.1 L276.3,327.5 L280.1,328.0 L291.6,318.7 L295.1,318.5 L296.9,322.1 L297.5,333.6 L300.6,334.3 L308.3,329.4 L320.0,328.2 L322.3,323.5 L321.9,318.9 L325.1,316.2 L333.6,317.4 L344.9,324.5 L346.0,325.1 Z">
  <desc xmlns="http://www.highcharts.com/svg/namespace">
    <labelrank>3</labelrank>
    <hasc>FR.SO</hasc>
    <alt-name>NULL</alt-name>
    <woe-id>12597178</woe-id>
    <subregion>NULL</subregion>
    <fips>FRB6</fips>
    <name>Somme</name>
    <type>Metropolitan department</type>
    <region>Hauts-de-France</region>
    <longitude>2.36029</longitude>
    <woe-name>Somme</woe-name>
    <latitude>49.8757</latitude>
    <woe-label>NULL</woe-label>
    <hc-key>fr-hdf-so</hc-key>
    <hc-a2>SO</hc-a2>
  </desc>
</path>

<path fill="#CEE3F5" stroke="#6E6E6E" stroke-width="0.4" id="FR.HDF.OI" d="M351.2,432.0 L351.7,438.1 L349.0,453.7 L349.5,459.6 L352.8,465.9 L354.1,476.8 L351.8,491.5 L352.2,498.8 L354.7,505.1 L360.0,508.8 L361.7,515.8 L360.8,519.0 L356.6,521.1 L351.4,518.5 L347.6,521.6 L344.1,536.9 L341.5,542.9 L335.7,547.0 L325.4,547.7 L319.9,552.1 L320.2,553.7 L329.4,563.7 L331.2,570.3 L328.5,576.4 L320.0,582.4 L320.9,589.7 L322.5,592.7 L326.1,593.9 L336.9,590.8 L341.0,590.9 L348.2,593.6 L353.5,599.2 L353.9,603.7 L349.7,613.1 L343.5,619.3 L336.4,623.6 L330.5,623.7 L322.8,628.1 L317.6,624.7 L314.4,626.1 L298.3,629.0 L287.0,625.6 L283.0,625.7 L278.6,630.4 L275.0,631.2 L268.1,626.7 L261.6,628.7 L255.6,622.9 L250.5,621.7 L241.7,625.8 L237.3,622.2 L232.0,615.4 L226.5,617.0 L191.0,596.8 L183.9,596.7 L176.9,601.2 L171.0,600.7 L158.0,594.7 L150.0,593.7 L144.7,590.7 L139.1,585.5 L131.6,587.6 L122.8,594.1 L115.7,596.4 L106.1,596.6 L98.9,598.4 L79.8,592.4 L68.7,591.1 L64.9,586.7 L63.7,581.0 L60.8,578.1 L59.5,572.2 L62.5,567.2 L66.7,565.8 L75.2,573.6 L78.4,572.0 L71.9,553.2 L66.4,530.9 L65.6,517.9 L70.1,505.2 L75.1,501.1 L76.8,494.6 L75.2,491.6 L68.0,493.1 L65.3,491.0 L64.1,476.8 L62.4,469.8 L62.1,454.3 L59.6,448.6 L67.4,442.7 L70.7,436.2 L67.9,433.3 L59.8,434.9 L60.8,428.5 L69.7,415.2 L75.1,411.2 L88.5,417.1 L91.6,419.4 L93.6,430.0 L95.4,431.6 L119.0,427.6 L137.9,437.5 L172.9,433.7 L186.6,436.5 L196.9,444.4 L213.1,448.1 L218.9,454.9 L223.2,456.5 L230.0,455.4 L237.9,463.4 L241.1,464.8 L247.9,461.1 L251.7,464.4 L252.8,471.1 L256.7,471.9 L260.0,464.9 L266.0,458.2 L274.1,457.1 L282.5,460.6 L286.2,458.0 L286.0,450.4 L287.4,447.1 L295.2,444.8 L297.7,441.8 L301.5,433.8 L303.8,431.1 L307.3,431.1 L314.2,436.0 L323.7,432.9 L326.5,433.4 L332.6,438.2 L335.8,438.2 L337.9,435.4 L337.8,429.5 Z">
  <desc xmlns="http://www.highcharts.com/svg/namespace">
    <labelrank>3</labelrank>
    <hasc>FR.OI</hasc>
    <alt-name>NULL</alt-name>
    <woe-id>12597158</woe-id>
    <subregion>NULL</subregion>
    <fips>FRB6</fips>
    <name>Oise</name>
    <type>Metropolitan department</type>
    <region>Hauts-de-France</region>
    <longitude>2.64323</longitude>
    <woe-name>Oise</woe-name>
    <latitude>49.3967</latitude>
    <woe-label>NULL</woe-label>
    <hc-key>fr-hdf-oi</hc-key>
    <hc-a2>OI</hc-a2>
  </desc>
</path>

<path fill="#CEE3F5" stroke="#6E6E6E" stroke-width="0.4" id="FR.HDF.PC" d="M46.4,221.0 L49.5,219.7 L38.7,210.8 L42.6,198.2 L43.0,183.5 L44.3,170.8 L50.5,166.2 L45.3,157.9 L44.3,153.5 L43.7,138.8 L41.9,125.4 L43.0,113.4 L47.5,101.1 L49.8,96.6 L51.0,90.7 L49.9,83.5 L46.9,71.9 L46.5,66.0 L51.4,62.2 L61.0,59.9 L70.3,48.6 L76.4,43.0 L114.5,27.1 L118.0,27.9 L124.8,24.0 L142.5,22.0 L150.8,31.7 L166.5,64.8 L173.2,87.5 L177.7,91.9 L183.2,94.1 L200.9,93.7 L204.7,95.2 L207.0,98.8 L199.0,109.2 L198.7,112.5 L202.0,117.9 L200.7,124.2 L202.4,128.9 L213.0,131.3 L222.7,140.8 L225.7,141.9 L269.8,143.5 L274.4,144.3 L278.0,141.6 L284.1,133.6 L288.1,131.2 L291.7,131.9 L295.3,134.9 L301.3,142.9 L295.1,144.5 L289.6,149.3 L288.4,152.7 L288.6,159.5 L285.1,166.5 L286.4,172.5 L292.1,176.0 L299.2,173.7 L302.7,174.2 L309.4,182.7 L318.8,181.4 L324.3,183.4 L326.8,187.9 L327.8,193.8 L330.1,198.4 L337.0,199.7 L338.9,201.8 L338.2,206.9 L328.5,215.2 L327.5,221.0 L336.0,231.8 L339.3,237.3 L338.9,243.7 L333.0,249.7 L331.1,256.5 L335.8,259.8 L343.1,255.8 L350.5,256.5 L354.2,258.4 L359.9,265.1 L361.1,269.9 L354.6,278.1 L352.5,282.9 L345.1,317.0 L344.9,324.5 L333.6,317.4 L325.1,316.2 L321.9,318.9 L322.3,323.5 L320.0,328.2 L308.3,329.4 L300.6,334.3 L297.5,333.6 L296.9,322.1 L295.1,318.5 L291.6,318.7 L280.1,328.0 L276.3,327.5 L275.4,325.1 L279.7,317.5 L277.6,309.2 L272.6,302.2 L269.0,299.8 L266.7,302.3 L265.0,315.6 L262.2,315.0 L252.5,309.4 L243.7,307.8 L240.3,304.8 L241.7,299.4 L236.8,297.8 L230.5,301.2 L218.3,299.8 L213.3,302.4 L210.7,308.1 L207.7,310.3 L202.6,305.3 L201.6,297.1 L205.5,289.8 L216.5,282.6 L220.4,279.0 L218.1,274.5 L209.0,269.4 L203.6,268.9 L199.7,272.6 L197.8,271.9 L193.5,265.2 L190.0,265.3 L188.8,269.5 L174.9,273.6 L166.8,273.7 L161.6,275.0 L149.3,275.6 L143.7,274.0 L140.6,270.7 L138.4,265.4 L138.2,261.3 L132.5,256.2 L114.2,246.0 L117.6,238.7 L114.9,235.8 L111.5,236.2 L106.8,240.3 L104.5,240.4 L99.1,236.3 L94.9,230.4 L91.2,227.4 L83.8,226.5 L75.7,227.4 L63.3,231.9 L58.0,231.7 L53.5,228.9 Z M341.1,292.4 L339.7,285.8 L334.5,292.0 L327.9,293.2 L327.4,301.5 L331.2,302.3 L341.7,299.2 Z">
  <desc xmlns="http://www.highcharts.com/svg/namespace">
    <labelrank>3</labelrank>
    <hasc>FR.PC</hasc>
    <alt-name>NULL</alt-name>
    <woe-id>12597181</woe-id>
    <subregion>NULL</subregion>
    <fips>FRB4</fips>
    <name>Pas-de-Calais</name>
    <type>Metropolitan department</type>
    <region>Hauts-de-France</region>
    <longitude>2.3614</longitude>
    <woe-name>Pas-de-Calais</woe-name>
    <latitude>50.4661</latitude>
    <woe-label>NULL</woe-label>
    <hc-key>fr-hdf-pc</hc-key>
    <hc-a2>PC</hc-a2>
  </desc>
</path>
</g>

<text x="350" y="714" text-anchor="middle" font-family="Verdana" font-size="8" stroke-opacity="0.6">Copyright (c) 2020 Highsoft AS, Based on data from Natural Earth</text>

</svg>