<?xml version="1.0" encoding="utf-8" standalone="no"?>
<!DOCTYPE svg PUBLIC "-//W3C//DTD SVG 1.1//EN" "http://www.w3.org/Graphics/SVG/1.1/DTD/svg11.dtd">

<svg version="1.1" height="700pt" width="700pt" xmlns="http://www.w3.org/2000/svg" xmlns:xlink="http://www.w3.org/1999/xlink">
<desc>
Map version: 1.1.3
Copyright (c) 2020 Highsoft AS, Based on data from Natural Earth
</desc>
<title>Provence-Alpes-Côte-d'Azur</title>
<g id="admin2">

<g id="FR.PAC">
  <desc xmlns="http://www.highcharts.com/svg/namespace">
    <name>Provence-Alpes-Côte-d'Azur</name>
    <iso_3166_2>FR-PAC</iso_3166_2>
    <hc-key>fr-pac</hc-key>
    <hc-a2>PA</hc-a2>
  </desc>
</g>

<g id="FR">
  <desc xmlns="http://www.highcharts.com/svg/namespace">
    <name>France</name>
    <labelrank>2</labelrank>
    <country-abbrev>Fr.</country-abbrev>
    <subregion>Western Europe</subregion>
    <region-wb>Europe &amp; Central Asia</region-wb>
    <iso-a3>FRA</iso-a3>
    <iso-a2>FR</iso-a2>
    <woe-id>-90</woe-id>
    <continent>Europe</continent>
    <hc-key>fr</hc-key>
    <hc-a2>FR</hc-a2>
  </desc>
</g>

<path fill="#CEE3F5" stroke="#6E6E6E" stroke-width="0.4" id="FR.PAC.AM" d="M568.4,446.4 L573.2,448.8 L565.9,448.4 L565.1,446.8 Z M487.6,371.1 L494.3,368.0 L499.4,367.3 L501.5,365.4 L499.2,355.9 L500.9,350.8 L504.3,347.8 L512.9,347.3 L515.9,345.3 L521.1,339.2 L526.9,337.3 L530.0,338.1 L539.7,343.9 L549.5,342.9 L544.4,336.1 L533.2,326.4 L525.6,312.0 L519.0,308.1 L513.7,303.2 L513.4,293.1 L511.8,285.9 L506.4,278.8 L502.1,270.9 L503.9,261.2 L510.0,245.5 L512.6,240.8 L518.2,235.5 L524.0,225.8 L528.0,222.7 L536.1,219.4 L540.0,216.3 L543.4,220.4 L548.1,231.0 L555.5,238.0 L558.1,245.8 L562.6,249.1 L570.0,247.9 L572.5,248.6 L584.0,255.1 L591.9,258.2 L612.8,271.7 L624.2,275.4 L626.6,279.8 L630.3,282.1 L638.3,282.5 L673.1,273.2 L678.8,272.8 L687.1,267.6 L693.2,268.8 L690.3,277.7 L692.7,282.9 L697.0,287.4 L700.0,294.2 L699.5,298.9 L692.1,306.5 L687.4,319.1 L682.9,324.0 L672.5,332.5 L668.3,338.9 L659.5,348.3 L656.3,353.9 L657.1,360.9 L660.8,374.3 L655.6,376.3 L655.5,381.8 L652.7,382.4 L647.6,387.5 L645.4,384.1 L641.6,381.8 L637.7,383.3 L634.6,386.6 L633.1,392.9 L628.3,396.9 L625.9,402.8 L619.9,402.3 L615.8,400.7 L611.2,401.1 L605.3,405.8 L605.9,408.7 L600.2,413.9 L598.9,410.4 L595.1,409.4 L589.8,410.8 L586.7,414.5 L584.4,424.2 L586.7,438.5 L583.9,440.2 L581.5,435.5 L576.6,434.3 L573.1,436.4 L566.1,443.0 L564.9,439.7 L553.8,439.7 L547.6,445.0 L546.6,449.1 L549.2,452.6 L544.8,457.9 L536.3,452.0 L534.2,447.3 L536.0,440.5 L540.2,433.5 L541.6,429.4 L541.4,425.3 L539.1,422.1 L529.6,422.7 L526.4,420.8 L514.4,408.9 L513.1,405.6 L513.8,396.0 L511.4,387.8 L509.8,385.8 L502.4,385.0 L493.1,381.3 L489.8,377.6 Z">
  <desc xmlns="http://www.highcharts.com/svg/namespace">
    <labelrank>3</labelrank>
    <hasc>FR.AM</hasc>
    <alt-name>Provenza-Alpes-Costa de Azul</alt-name>
    <woe-id>12591800</woe-id>
    <subregion>NULL</subregion>
    <fips>FRB8</fips>
    <name>Alpes-Maritimes</name>
    <type>Metropolitan department</type>
    <region>Provence-Alpes-Côte-d'Azur</region>
    <longitude>7.18651</longitude>
    <woe-name>Alpes-Maritimes</woe-name>
    <latitude>43.8699</latitude>
    <woe-label>NULL</woe-label>
    <hc-key>fr-pac-am</hc-key>
    <hc-a2>AM</hc-a2>
  </desc>
</path>

<path fill="#CEE3F5" stroke="#6E6E6E" stroke-width="0.4" id="FR.PAC.VR" d="M403.5,581.8 L403.6,585.8 L393.4,589.8 L386.1,586.1 L388.0,583.6 L393.7,584.0 L396.2,582.2 L399.9,582.1 L401.7,579.4 Z M443.4,583.8 L440.3,585.1 L440.8,580.2 L445.0,578.8 L448.7,574.0 L454.6,572.7 L455.3,575.4 L452.2,575.8 L447.2,582.6 Z M348.1,379.0 L351.8,384.8 L357.3,389.7 L361.3,398.3 L366.5,398.6 L369.8,392.3 L374.3,387.8 L388.0,382.2 L403.0,367.8 L409.2,365.3 L413.4,367.9 L425.3,380.4 L430.7,383.9 L437.1,382.8 L440.2,378.1 L442.4,372.4 L445.8,368.5 L449.1,368.0 L455.7,368.9 L463.6,366.7 L470.3,370.1 L474.9,369.1 L479.5,366.6 L483.8,366.2 L487.6,371.1 L489.8,377.6 L493.1,381.3 L502.4,385.0 L509.8,385.8 L511.4,387.8 L513.8,396.0 L513.1,405.6 L514.4,408.9 L526.4,420.8 L529.6,422.7 L539.1,422.1 L541.4,425.3 L541.6,429.4 L540.2,433.5 L536.0,440.5 L534.2,447.3 L536.3,452.0 L544.8,457.9 L543.2,460.0 L542.0,466.5 L537.5,469.4 L536.6,472.3 L532.0,472.6 L530.4,468.9 L529.0,471.8 L529.7,475.3 L527.0,476.2 L521.4,475.1 L514.1,476.9 L509.0,472.9 L503.7,476.9 L503.8,484.0 L500.7,488.1 L500.6,492.6 L491.8,493.5 L489.0,500.1 L481.4,507.2 L475.7,510.3 L474.3,514.4 L478.5,515.8 L490.8,512.9 L495.0,513.9 L495.9,516.0 L493.2,520.7 L489.7,523.0 L489.0,528.0 L491.8,533.5 L483.6,538.8 L477.4,540.9 L475.3,540.4 L474.2,536.9 L463.4,538.1 L460.5,544.0 L456.2,546.5 L450.9,544.9 L439.3,545.6 L430.4,549.8 L427.7,554.5 L429.3,562.3 L422.6,562.1 L419.4,558.3 L410.3,554.0 L404.9,553.2 L398.1,554.2 L389.6,557.7 L386.4,560.4 L384.2,566.0 L383.9,572.6 L387.6,574.3 L390.5,573.6 L389.3,576.2 L372.6,576.9 L370.7,575.8 L379.7,571.2 L379.3,566.0 L375.5,562.3 L358.7,563.4 L356.8,557.6 L351.8,556.5 L345.1,556.3 L340.3,553.0 L341.9,547.4 L335.3,547.9 L329.3,550.7 L332.6,552.2 L335.3,558.4 L343.4,562.4 L341.1,564.8 L330.5,564.0 L327.9,564.9 L323.9,571.4 L316.4,568.7 L310.7,563.9 L309.1,561.3 L316.7,556.1 L313.2,552.4 L309.8,551.5 L308.5,547.0 L301.4,546.4 L292.5,542.0 L291.0,535.8 L288.0,532.5 L290.0,523.2 L292.6,517.4 L296.8,513.7 L303.7,510.5 L307.0,506.1 L304.7,500.5 L299.2,496.2 L293.3,496.1 L292.9,490.8 L295.8,483.6 L292.5,472.2 L297.3,470.3 L307.0,471.3 L312.0,469.9 L299.6,451.0 L299.3,445.1 L302.7,434.5 L302.7,430.5 L294.4,421.2 L294.5,413.7 L300.2,404.9 L317.1,400.7 L321.9,393.2 L318.3,391.0 L314.4,382.7 L310.4,380.9 L310.4,380.8 L310.5,380.8 L315.7,373.8 L330.7,383.5 L336.1,383.8 L339.0,382.0 L342.0,377.5 L345.8,377.4 Z">
  <desc xmlns="http://www.highcharts.com/svg/namespace">
    <labelrank>3</labelrank>
    <hasc>FR.VR</hasc>
    <alt-name>Provenza-Alpes-Costa de Azul</alt-name>
    <woe-id>12597187</woe-id>
    <subregion>NULL</subregion>
    <fips>FRB8</fips>
    <name>Var</name>
    <type>Metropolitan department</type>
    <region>Provence-Alpes-Côte-d'Azur</region>
    <longitude>6.27103</longitude>
    <woe-name>Var</woe-name>
    <latitude>43.4095</latitude>
    <woe-label>NULL</woe-label>
    <hc-key>fr-pac-vr</hc-key>
    <hc-a2>VR</hc-a2>
  </desc>
</path>

<path fill="#CEE3F5" stroke="#6E6E6E" stroke-width="0.4" id="FR.PAC.VC" d="M163.5,213.8 L146.9,213.0 L144.2,209.9 L144.3,204.8 L145.9,200.9 L156.6,184.7 L161.7,181.5 L167.3,183.4 L174.8,191.9 L176.8,196.4 L176.7,199.1 L172.2,203.3 L167.7,211.1 Z M278.6,336.0 L270.4,349.9 L269.6,355.5 L282.7,351.3 L293.1,358.0 L310.4,380.8 L310.5,380.8 L310.4,380.9 L306.7,384.6 L301.6,387.7 L288.1,390.2 L283.6,394.0 L275.4,397.7 L265.1,396.4 L241.9,388.2 L235.0,383.5 L227.0,375.2 L210.7,371.9 L198.3,371.4 L177.7,360.0 L173.6,356.5 L155.1,336.8 L142.9,328.2 L116.9,316.5 L123.9,311.3 L127.3,305.2 L127.4,298.4 L132.3,298.7 L133.4,295.3 L120.1,274.8 L116.8,272.9 L110.4,273.8 L109.4,271.5 L108.9,263.0 L110.5,253.2 L110.3,244.9 L109.2,242.4 L104.1,236.5 L104.0,230.7 L100.6,225.7 L99.0,219.0 L99.6,206.6 L105.3,206.1 L116.7,207.6 L122.5,212.2 L124.9,216.4 L128.7,229.6 L131.1,232.7 L135.5,232.8 L145.1,227.7 L150.5,227.4 L156.0,225.8 L163.8,222.2 L177.5,219.0 L189.0,221.7 L194.7,220.7 L199.0,216.9 L201.7,219.9 L199.1,225.6 L198.9,233.5 L201.5,237.4 L210.4,240.4 L219.6,240.0 L233.2,245.8 L237.8,246.2 L241.1,248.0 L243.5,257.1 L246.5,260.7 L249.8,262.4 L258.5,270.1 L265.4,271.2 L264.0,287.3 L267.2,286.6 L271.0,288.3 L272.1,291.4 L270.7,299.3 L264.1,313.3 L263.9,316.5 L268.1,320.8 L274.5,321.1 L277.4,323.1 L279.1,327.2 L279.5,332.0 Z">
  <desc xmlns="http://www.highcharts.com/svg/namespace">
    <labelrank>3</labelrank>
    <hasc>FR.VC</hasc>
    <alt-name>Provenza-Alpes-Costa de Azul</alt-name>
    <woe-id>12597203</woe-id>
    <subregion>NULL</subregion>
    <fips>FRB8</fips>
    <name>Vaucluse</name>
    <type>Metropolitan department</type>
    <region>Provence-Alpes-Côte-d'Azur</region>
    <longitude>5.21543</longitude>
    <woe-name>Vaucluse</woe-name>
    <latitude>43.9981</latitude>
    <woe-label>NULL</woe-label>
    <hc-key>fr-pac-vc</hc-key>
    <hc-a2>VC</hc-a2>
  </desc>
</path>

<path fill="#CEE3F5" stroke="#6E6E6E" stroke-width="0.4" id="FR.PAC.AP" d="M348.1,379.0 L342.0,377.5 L339.0,382.0 L336.1,383.8 L330.7,383.5 L315.7,373.8 L311.6,379.8 L310.5,380.8 L293.1,358.0 L282.7,351.3 L269.6,355.5 L270.4,349.9 L278.6,336.0 L279.1,327.2 L277.4,323.1 L274.5,321.1 L268.1,320.8 L263.9,316.5 L264.1,313.3 L270.7,299.3 L272.1,291.4 L271.0,288.3 L267.2,286.6 L264.0,287.3 L265.4,271.2 L271.7,267.7 L282.8,256.3 L285.5,255.7 L292.3,258.4 L294.3,263.6 L297.2,265.1 L299.4,263.0 L298.9,256.2 L300.6,253.6 L306.0,254.4 L325.9,249.1 L330.0,250.2 L338.3,254.6 L342.5,255.1 L344.7,252.8 L343.0,248.9 L335.6,238.9 L331.0,234.8 L330.1,231.1 L332.8,224.5 L338.4,225.8 L348.1,234.0 L349.6,223.7 L347.1,220.6 L347.7,215.0 L353.7,208.2 L357.7,199.2 L363.0,194.3 L369.9,191.3 L373.1,189.0 L381.7,180.1 L385.9,178.6 L393.9,179.3 L399.0,189.9 L403.1,191.9 L409.3,202.8 L413.0,204.1 L418.1,199.9 L420.1,194.0 L419.9,187.5 L418.3,181.4 L426.0,179.1 L431.6,174.7 L440.0,163.6 L452.8,179.5 L459.5,185.1 L468.4,188.1 L488.2,189.4 L491.7,187.9 L495.0,179.8 L499.7,174.0 L503.0,163.9 L508.9,163.3 L524.7,148.2 L541.1,140.4 L547.1,133.8 L550.2,131.9 L554.0,132.8 L553.1,135.9 L555.2,141.8 L552.4,143.8 L545.3,155.4 L535.1,162.8 L532.9,166.5 L533.3,175.1 L537.5,183.0 L543.3,189.4 L548.4,193.9 L541.7,197.4 L540.2,199.7 L537.7,211.4 L540.0,216.3 L536.1,219.4 L528.0,222.7 L524.0,225.8 L518.2,235.5 L512.6,240.8 L510.0,245.5 L503.9,261.2 L502.1,270.9 L506.4,278.8 L511.8,285.9 L513.4,293.1 L513.7,303.2 L519.0,308.1 L525.6,312.0 L533.2,326.4 L544.4,336.1 L549.5,342.9 L539.7,343.9 L530.0,338.1 L526.9,337.3 L521.1,339.2 L515.9,345.3 L512.9,347.3 L504.3,347.8 L500.9,350.8 L499.2,355.9 L501.5,365.4 L499.4,367.3 L494.3,368.0 L487.6,371.1 L483.8,366.2 L479.5,366.6 L474.9,369.1 L470.3,370.1 L463.6,366.7 L455.7,368.9 L449.1,368.0 L445.8,368.5 L442.4,372.4 L440.2,378.1 L437.1,382.8 L430.7,383.9 L425.3,380.4 L413.4,367.9 L409.2,365.3 L403.0,367.8 L388.0,382.2 L374.3,387.8 L369.8,392.3 L366.5,398.6 L361.3,398.3 L357.3,389.7 L351.8,384.8 Z">
  <desc xmlns="http://www.highcharts.com/svg/namespace">
    <labelrank>3</labelrank>
    <hasc>FR.AP</hasc>
    <alt-name>Provenza-Alpes-Costa de Azul</alt-name>
    <woe-id>12597191</woe-id>
    <subregion>NULL</subregion>
    <fips>FRB8</fips>
    <name>Alpes-de-Haute-Provence</name>
    <type>Metropolitan department</type>
    <region>Provence-Alpes-Côte-d'Azur</region>
    <longitude>6.24822</longitude>
    <woe-name>Alpes-de-Haute-Provence</woe-name>
    <latitude>44.0454</latitude>
    <woe-label>NULL</woe-label>
    <hc-key>fr-pac-ap</hc-key>
    <hc-a2>AP</hc-a2>
  </desc>
</path>

<path fill="#CEE3F5" stroke="#6E6E6E" stroke-width="0.4" id="FR.PAC.HA" d="M300.6,253.6 L302.3,241.9 L302.3,234.7 L299.8,231.3 L295.4,228.5 L290.8,222.1 L292.6,216.3 L288.6,214.0 L279.4,214.2 L274.2,211.3 L266.2,208.6 L259.1,202.2 L256.5,193.3 L253.8,190.1 L253.6,186.9 L257.7,186.0 L266.3,187.8 L268.0,183.8 L263.7,179.7 L261.6,172.3 L263.1,169.5 L267.4,169.2 L273.5,170.4 L285.5,175.3 L289.5,175.1 L298.5,169.1 L300.1,164.3 L297.7,160.7 L292.9,156.9 L290.7,152.2 L292.2,147.5 L298.4,138.8 L301.5,129.0 L306.6,128.0 L314.3,129.5 L322.5,127.0 L328.3,126.3 L333.1,122.4 L335.8,118.8 L335.7,115.0 L332.6,110.7 L339.5,100.6 L344.1,99.6 L354.0,99.4 L361.9,97.1 L364.9,94.0 L364.3,87.3 L365.3,85.4 L373.4,79.8 L377.1,78.8 L382.1,80.6 L386.0,80.1 L396.4,73.6 L400.2,73.0 L405.7,74.6 L411.6,73.5 L419.0,74.2 L425.6,71.5 L431.2,71.5 L438.1,74.2 L441.2,74.3 L442.9,71.5 L444.2,59.4 L443.1,55.0 L437.9,47.7 L437.4,39.3 L436.3,35.0 L432.4,32.7 L423.3,34.3 L417.1,32.4 L416.5,24.7 L419.4,10.4 L421.0,5.2 L425.9,0.0 L429.1,2.7 L434.0,4.1 L443.5,5.3 L447.6,8.7 L450.3,15.8 L463.0,20.9 L467.3,19.8 L470.3,16.3 L472.6,9.7 L475.3,7.3 L483.3,7.3 L490.7,3.1 L496.9,2.6 L491.5,8.0 L494.8,13.3 L497.9,16.2 L498.3,22.8 L502.5,28.8 L509.4,29.7 L514.4,33.5 L515.5,41.5 L514.6,56.9 L517.9,62.8 L524.2,68.6 L537.5,76.8 L541.2,77.8 L550.9,76.2 L554.3,76.5 L564.1,80.8 L568.7,87.8 L566.8,95.6 L568.9,101.6 L570.5,110.9 L576.2,122.3 L577.2,125.9 L573.7,125.9 L566.6,123.6 L563.0,123.6 L558.4,126.0 L554.7,130.3 L554.0,132.8 L550.2,131.9 L547.1,133.8 L541.1,140.4 L524.7,148.2 L508.9,163.3 L503.0,163.9 L499.7,174.0 L495.0,179.8 L491.7,187.9 L488.2,189.4 L468.4,188.1 L459.5,185.1 L452.8,179.5 L440.0,163.6 L431.6,174.7 L426.0,179.1 L418.3,181.4 L419.9,187.5 L420.1,194.0 L418.1,199.9 L413.0,204.1 L409.3,202.8 L403.1,191.9 L399.0,189.9 L393.9,179.3 L385.9,178.6 L381.7,180.1 L373.1,189.0 L369.9,191.3 L363.0,194.3 L357.7,199.2 L353.7,208.2 L347.7,215.0 L347.1,220.6 L349.6,223.7 L348.1,234.0 L338.4,225.8 L332.8,224.5 L330.1,231.1 L331.0,234.8 L335.6,238.9 L343.0,248.9 L344.7,252.8 L342.5,255.1 L338.3,254.6 L330.0,250.2 L325.9,249.1 L306.0,254.4 Z">
  <desc xmlns="http://www.highcharts.com/svg/namespace">
    <labelrank>3</labelrank>
    <hasc>FR.HA</hasc>
    <alt-name>Provenza-Alpes-Costa de Azul</alt-name>
    <woe-id>12597183</woe-id>
    <subregion>NULL</subregion>
    <fips>FRB8</fips>
    <name>Hautes-Alpes</name>
    <type>Metropolitan department</type>
    <region>Provence-Alpes-Côte-d'Azur</region>
    <longitude>6.37648</longitude>
    <woe-name>Hautes-Alpes</woe-name>
    <latitude>44.6732</latitude>
    <woe-label>NULL</woe-label>
    <hc-key>fr-pac-ha</hc-key>
    <hc-a2>HA</hc-a2>
  </desc>
</path>

<path fill="#CEE3F5" stroke="#6E6E6E" stroke-width="0.4" id="FR.PAC.BD" d="M288.0,532.5 L280.4,530.3 L275.7,537.5 L267.8,534.8 L261.2,523.9 L258.7,522.4 L254.4,524.1 L241.4,523.0 L232.5,521.4 L227.4,522.4 L222.8,520.0 L224.5,512.3 L227.9,505.1 L225.6,502.3 L222.6,487.2 L213.8,481.0 L202.2,488.0 L187.1,487.0 L179.4,487.6 L167.2,486.4 L161.1,484.1 L157.4,477.7 L156.0,471.0 L160.5,463.6 L166.9,460.4 L184.8,461.2 L190.5,459.8 L194.5,456.8 L198.8,452.0 L201.7,445.9 L201.3,439.3 L195.2,442.9 L189.5,444.7 L184.4,443.6 L180.3,438.3 L178.1,430.2 L174.0,428.6 L167.8,428.3 L163.1,422.4 L161.6,424.1 L158.6,433.5 L159.4,438.8 L166.3,445.2 L168.3,452.3 L165.8,458.3 L160.9,461.5 L151.9,461.0 L141.3,454.1 L133.8,457.9 L128.9,458.7 L125.0,464.1 L127.6,470.7 L128.0,474.3 L134.7,474.1 L129.7,478.3 L125.3,480.6 L124.5,475.8 L121.3,469.2 L113.2,464.1 L106.7,457.3 L104.0,449.9 L105.3,433.7 L105.0,429.0 L102.2,419.9 L99.6,415.7 L96.1,415.1 L101.6,425.0 L102.3,427.9 L101.3,447.7 L103.6,457.1 L108.8,463.1 L114.7,467.8 L119.0,473.2 L118.2,479.0 L112.3,479.0 L87.1,477.0 L72.5,472.9 L67.4,469.5 L67.5,464.8 L71.8,460.5 L72.4,457.1 L70.9,453.3 L66.2,449.4 L57.9,445.5 L37.0,446.6 L0.0,441.5 L5.2,430.1 L8.5,429.5 L13.4,425.9 L18.0,425.3 L23.7,422.5 L32.3,415.9 L36.9,414.9 L39.7,409.6 L46.9,408.5 L50.2,402.6 L49.7,400.2 L46.6,400.1 L43.7,397.9 L48.8,386.6 L54.3,379.6 L59.0,376.2 L67.5,374.8 L79.9,380.2 L82.9,373.1 L83.0,367.9 L89.7,353.3 L90.6,346.6 L89.5,337.7 L89.7,332.4 L93.5,329.1 L99.6,326.1 L107.5,320.4 L116.9,316.5 L142.9,328.2 L155.1,336.8 L173.6,356.5 L177.7,360.0 L198.3,371.4 L210.7,371.9 L227.0,375.2 L235.0,383.5 L241.9,388.2 L265.1,396.4 L275.4,397.7 L283.6,394.0 L288.1,390.2 L301.6,387.7 L306.7,384.6 L310.4,380.9 L310.5,380.8 L314.4,382.7 L318.3,391.0 L321.9,393.2 L317.1,400.7 L300.2,404.9 L294.5,413.7 L294.4,421.2 L302.7,430.5 L302.7,434.5 L299.3,445.1 L299.6,451.0 L312.0,469.9 L307.0,471.3 L297.3,470.3 L292.5,472.2 L295.8,483.6 L292.9,490.8 L293.3,496.1 L299.2,496.2 L304.7,500.5 L307.0,506.1 L303.7,510.5 L296.8,513.7 L292.6,517.4 L290.0,523.2 Z">
  <desc xmlns="http://www.highcharts.com/svg/namespace">
    <labelrank>3</labelrank>
    <hasc>FR.BD</hasc>
    <alt-name>Provenza-Alpes-Costa de Azul</alt-name>
    <woe-id>12597199</woe-id>
    <subregion>NULL</subregion>
    <fips>FRB8</fips>
    <name>Bouches-du-Rhône</name>
    <type>Metropolitan department</type>
    <region>Provence-Alpes-Côte-d'Azur</region>
    <longitude>5.40444</longitude>
    <woe-name>Bouches-du-Rhône</woe-name>
    <latitude>43.5324</latitude>
    <woe-label>NULL</woe-label>
    <hc-key>fr-pac-bd</hc-key>
    <hc-a2>BD</hc-a2>
  </desc>
</path>
</g>

<text x="350" y="714" text-anchor="middle" font-family="Verdana" font-size="8" stroke-opacity="0.6">Copyright (c) 2020 Highsoft AS, Based on data from Natural Earth</text>

</svg>