<?xml version="1.0" encoding="utf-8" standalone="no"?>
<!DOCTYPE svg PUBLIC "-//W3C//DTD SVG 1.1//EN" "http://www.w3.org/Graphics/SVG/1.1/DTD/svg11.dtd">

<svg version="1.1" height="700pt" width="700pt" xmlns="http://www.w3.org/2000/svg" xmlns:xlink="http://www.w3.org/1999/xlink">
<desc>
Map version: 1.1.3
Copyright (c) 2020 Highsoft AS, Based on data from Natural Earth
</desc>
<title>Yemen</title>
<g id="admin1">

<g id="YE">
  <desc xmlns="http://www.highcharts.com/svg/namespace">
    <name>Yemen</name>
    <labelrank>3</labelrank>
    <country-abbrev>Yem.</country-abbrev>
    <subregion>Western Asia</subregion>
    <region-wb>Middle East &amp; North Africa</region-wb>
    <iso-a3>YEM</iso-a3>
    <iso-a2>YE</iso-a2>
    <woe-id>23425002</woe-id>
    <continent>Asia</continent>
    <hc-key>ye</hc-key>
    <hc-a2>YE</hc-a2>
  </desc>
</g>

<path fill="#CEE3F5" stroke="#6E6E6E" stroke-width="0.4" id="YE.3662" d="M5.7,199.2 L5.2,200.1 L0.0,199.6 L0.5,197.3 Z">
  <desc xmlns="http://www.highcharts.com/svg/namespace">
    <labelrank>20</labelrank>
    <hasc>-99</hasc>
    <alt-name>NULL</alt-name>
    <woe-id>-99</woe-id>
    <subregion>NULL</subregion>
    <fips>NULL</fips>
    <postal-code>NULL</postal-code>
    <name>NULL</name>
    <country>Yemen</country>
    <type-en>NULL</type-en>
    <region>NULL</region>
    <longitude>42.1753</longitude>
    <woe-name>NULL</woe-name>
    <latitude>15.0588</latitude>
    <woe-label>NULL</woe-label>
    <type>NULL</type>
    <hc-middle-x>0.48</hc-middle-x>
    <hc-middle-y>0.72</hc-middle-y>
    <hc-key>ye-3662</hc-key>
    <hc-a2>NU</hc-a2>
  </desc>
</path>

<path fill="#CEE3F5" stroke="#6E6E6E" stroke-width="0.4" id="YE.HU" d="M16.3,319.8 L18.1,315.2 L21.8,313.1 L22.3,314.8 L19.5,318.4 Z M22.2,304.5 L18.4,301.9 L16.7,299.3 L21.1,295.9 L23.0,299.4 Z M11.3,218.4 L13.9,218.7 L13.1,223.3 L11.2,225.6 L9.2,224.1 L10.0,218.3 L12.5,215.2 L14.4,215.2 Z M50.5,320.0 L50.3,316.7 L48.2,312.4 L47.7,307.6 L43.6,303.0 L39.9,295.4 L38.8,288.9 L37.2,284.1 L33.9,271.6 L35.8,274.3 L35.4,271.1 L36.3,268.7 L34.0,263.1 L34.7,261.3 L32.5,258.7 L31.5,253.9 L28.8,250.5 L31.7,252.6 L32.1,249.8 L31.3,244.6 L28.5,241.0 L28.2,235.5 L27.2,233.5 L22.3,230.2 L17.4,228.8 L16.3,230.5 L13.2,229.2 L12.8,227.1 L16.3,227.3 L16.7,223.3 L18.7,219.9 L17.9,223.1 L22.2,226.2 L22.4,228.5 L24.2,225.8 L24.1,221.3 L22.4,216.7 L22.3,212.7 L19.2,208.0 L20.0,206.7 L18.5,203.6 L18.2,199.3 L20.9,196.7 L21.3,193.5 L25.1,190.2 L26.0,187.9 L35.2,193.5 L41.4,193.2 L45.7,191.5 L51.6,191.1 L53.7,193.8 L52.4,198.9 L53.0,201.9 L52.2,206.7 L53.0,211.8 L54.0,223.8 L58.1,228.4 L60.5,229.0 L64.3,236.7 L67.5,239.2 L69.3,241.0 L76.2,243.5 L74.9,245.8 L70.9,245.7 L66.6,250.7 L65.7,253.3 L66.4,257.6 L65.2,260.4 L65.4,264.4 L68.5,272.8 L68.5,276.1 L66.5,278.5 L65.0,279.4 L67.6,291.4 L74.8,295.6 L76.9,296.0 L80.1,293.9 L80.1,298.1 L77.9,301.7 L74.4,302.7 L75.7,305.4 L73.5,305.7 L65.3,307.8 L59.7,315.3 L54.8,316.7 Z">
  <desc xmlns="http://www.highcharts.com/svg/namespace">
    <labelrank>7</labelrank>
    <hasc>YE.HU</hasc>
    <alt-name>Al Hodeida|Al-Hodeidah|Al Hudaidah|Hodiedah|Hudaidah</alt-name>
    <woe-id>20070047</woe-id>
    <subregion>NULL</subregion>
    <fips>YM08</fips>
    <postal-code>HU</postal-code>
    <name>Al Hudaydah</name>
    <country>Yemen</country>
    <type-en>Governorate</type-en>
    <region>NULL</region>
    <longitude>43.2214</longitude>
    <woe-name>Al Hudaydah</woe-name>
    <latitude>14.928</latitude>
    <woe-label>Al Hudaydah, YE, Yemen</woe-label>
    <type>Muhafazah</type>
    <hc-middle-x>0.59</hc-middle-x>
    <hc-middle-y>0.51</hc-middle-y>
    <hc-key>ye-hu</hc-key>
    <hc-a2>HU</hc-a2>
  </desc>
</path>

<path fill="#CEE3F5" stroke="#6E6E6E" stroke-width="0.4" id="YE.3415" d="M613.9,400.5 L616.5,401.4 L616.8,403.2 L613.3,402.9 L611.0,401.1 Z M563.9,399.9 L572.1,401.2 L575.3,400.4 L576.2,403.5 L567.5,403.2 L563.0,400.9 L557.5,399.6 L558.9,398.4 Z M644.1,368.5 L648.8,368.3 L655.3,373.2 L660.1,374.2 L661.8,371.3 L669.5,371.1 L675.8,367.6 L678.7,369.7 L690.1,373.0 L696.6,376.2 L700.0,376.5 L695.9,377.7 L695.3,379.8 L688.5,382.5 L683.8,383.2 L682.3,385.3 L677.8,388.3 L667.9,389.2 L656.7,391.8 L650.6,391.9 L644.7,390.4 L640.7,385.7 L630.5,380.1 L629.4,378.1 L632.1,378.4 L634.4,375.1 L633.8,371.7 L638.1,370.7 L639.8,368.2 Z M480.1,232.0 L472.0,234.5 L465.8,235.3 L458.9,238.6 L454.8,242.3 L451.6,243.3 L444.7,247.9 L442.8,247.5 L436.8,249.5 L436.1,247.6 L431.1,248.4 L423.0,251.4 L410.4,254.8 L403.7,258.7 L398.7,260.2 L388.4,266.4 L388.0,268.3 L385.4,267.4 L382.0,269.0 L379.2,273.1 L378.0,279.7 L371.4,284.2 L369.5,289.1 L366.3,290.7 L363.0,295.0 L359.3,296.5 L356.0,288.2 L353.8,285.5 L348.5,283.1 L343.6,282.0 L335.4,281.8 L331.2,279.8 L328.3,277.0 L323.1,268.2 L320.2,266.9 L310.1,266.1 L305.7,264.6 L301.3,261.7 L297.2,257.8 L290.8,253.4 L291.6,250.3 L300.8,242.3 L301.6,238.9 L297.8,234.3 L297.9,231.2 L300.0,222.6 L311.0,205.1 L310.3,203.2 L305.1,201.5 L225.1,208.4 L252.8,174.2 L264.4,162.6 L261.6,127.3 L269.1,127.5 L272.6,126.5 L285.9,118.6 L287.6,116.3 L293.8,98.5 L294.7,96.7 L326.3,55.9 L327.5,55.0 L374.8,29.6 L380.0,27.6 L539.1,0.0 L539.5,0.9 L525.0,24.1 L516.3,48.8 L513.4,66.6 L508.7,83.5 L502.3,99.2 L495.2,110.4 L473.0,129.8 L468.8,135.1 L464.3,138.3 L454.4,142.8 L450.7,145.4 L448.7,149.3 L450.0,154.0 L446.0,171.1 L445.9,173.3 L448.9,175.9 L450.0,179.5 L448.0,185.6 L446.1,188.3 L445.2,193.6 L445.7,197.7 L444.3,202.8 L445.9,206.1 L451.8,207.3 L452.5,211.4 L448.5,217.1 L449.8,221.2 L453.3,222.3 L460.6,221.8 L467.2,220.6 L475.5,222.5 L477.8,226.2 Z">
  <desc xmlns="http://www.highcharts.com/svg/namespace">
    <labelrank>6</labelrank>
    <hasc>YE.HD</hasc>
    <alt-name>Hadhramaut|Hadhramawt|Hadhramout|HadramautHadramout</alt-name>
    <woe-id>20070033</woe-id>
    <subregion>NULL</subregion>
    <fips>YM04</fips>
    <postal-code>NULL</postal-code>
    <name>Hadramawt</name>
    <country>Yemen</country>
    <type-en>Governorate</type-en>
    <region>NULL</region>
    <longitude>48.9133</longitude>
    <woe-name>Hadramawt</woe-name>
    <latitude>16.3779</latitude>
    <woe-label>Hadramawt, YE, Yemen</woe-label>
    <type>Muhafazah</type>
    <hc-middle-x>0.32</hc-middle-x>
    <hc-middle-y>0.39</hc-middle-y>
    <hc-key>ye-3415</hc-key>
    <hc-a2>HA</hc-a2>
  </desc>
</path>

<path fill="#CEE3F5" stroke="#6E6E6E" stroke-width="0.4" id="YE.3427" d="M114.7,209.4 L113.9,210.7 L111.4,210.0 L111.0,211.6 L108.6,211.5 L107.9,214.4 L105.6,216.3 L105.3,218.6 L106.9,221.6 L105.4,224.7 L102.3,224.8 L102.0,222.7 L100.1,221.4 L101.5,218.5 L99.0,214.7 L103.5,212.4 L103.5,210.3 L110.2,206.2 Z">
  <desc xmlns="http://www.highcharts.com/svg/namespace">
    <labelrank>9</labelrank>
    <hasc>YE.</hasc>
    <alt-name>NULL</alt-name>
    <woe-id>56189858</woe-id>
    <subregion>NULL</subregion>
    <fips>NULL</fips>
    <postal-code>NULL</postal-code>
    <name>Amanat Al Asimah</name>
    <country>Yemen</country>
    <type-en>Governorate</type-en>
    <region>NULL</region>
    <longitude>44.2115</longitude>
    <woe-name>NULL</woe-name>
    <latitude>15.3494</latitude>
    <woe-label>NULL</woe-label>
    <type>Muhafazah</type>
    <hc-middle-x>0.27</hc-middle-x>
    <hc-middle-y>0.64</hc-middle-y>
    <hc-key>ye-3427</hc-key>
    <hc-a2>AA</hc-a2>
  </desc>
</path>

<path fill="#CEE3F5" stroke="#6E6E6E" stroke-width="0.4" id="YE.TA" d="M66.4,372.8 L64.3,377.0 L60.4,377.1 L61.5,372.4 L61.1,368.1 L58.2,364.6 L55.6,357.7 L53.6,355.4 L51.7,350.9 L48.3,346.6 L47.0,342.4 L48.3,338.6 L48.7,328.1 L50.5,325.0 L50.5,320.0 L54.8,316.7 L59.7,315.3 L65.3,307.8 L73.5,305.7 L75.1,308.7 L81.3,308.6 L85.1,307.8 L85.9,310.3 L89.4,309.6 L89.5,312.2 L99.1,314.5 L104.8,316.7 L111.4,318.0 L114.9,314.7 L116.1,317.6 L115.3,321.6 L117.4,322.9 L121.7,323.6 L122.1,325.5 L119.8,328.5 L116.7,330.7 L113.1,331.9 L113.2,333.8 L116.6,334.9 L116.9,337.3 L111.9,337.7 L112.0,344.6 L107.6,346.3 L102.7,346.0 L100.8,348.3 L100.9,350.1 L98.2,350.9 L97.4,353.3 L92.7,352.7 L92.6,356.5 L84.7,352.6 L81.3,353.2 L75.7,355.9 L76.2,359.8 L70.9,366.1 Z">
  <desc xmlns="http://www.highcharts.com/svg/namespace">
    <labelrank>7</labelrank>
    <hasc>YE.TA</hasc>
    <alt-name>Taez|Taiz|Taizz</alt-name>
    <woe-id>20070041</woe-id>
    <subregion>NULL</subregion>
    <fips>YM25</fips>
    <postal-code>TA</postal-code>
    <name>Ta`izz</name>
    <country>Yemen</country>
    <type-en>Governorate</type-en>
    <region>NULL</region>
    <longitude>43.7305</longitude>
    <woe-name>Ta`izz</woe-name>
    <latitude>13.4282</latitude>
    <woe-label>Ta`izz, YE, Yemen</woe-label>
    <type>Muhafazah</type>
    <hc-middle-x>0.35</hc-middle-x>
    <hc-middle-y>0.41</hc-middle-y>
    <hc-key>ye-ta</hc-key>
    <hc-a2>TA</hc-a2>
  </desc>
</path>

<path fill="#CEE3F5" stroke="#6E6E6E" stroke-width="0.4" id="YE.SD" d="M46.3,142.8 L45.4,139.8 L47.7,137.7 L46.9,135.2 L44.2,134.0 L42.1,128.6 L43.7,122.5 L42.8,119.2 L45.0,112.0 L50.2,109.6 L48.7,106.3 L45.5,105.2 L48.4,101.6 L53.4,97.5 L58.3,94.4 L60.8,93.8 L64.7,94.4 L71.2,97.6 L75.1,102.1 L78.5,104.3 L86.5,104.0 L86.4,105.9 L89.1,106.8 L91.6,103.7 L93.8,103.2 L98.5,104.1 L101.0,101.0 L104.5,101.8 L115.4,100.2 L124.2,101.1 L129.0,99.5 L147.4,99.6 L146.1,118.3 L141.4,120.6 L134.5,120.3 L127.6,122.3 L120.2,126.0 L115.1,132.7 L106.4,138.2 L104.6,141.4 L103.0,146.3 L99.0,147.5 L94.1,146.9 L88.3,144.5 L84.3,143.5 L80.6,143.9 L77.1,145.8 L69.7,147.5 L63.4,146.9 L59.1,147.1 L47.5,143.6 Z">
  <desc xmlns="http://www.highcharts.com/svg/namespace">
    <labelrank>7</labelrank>
    <hasc>YE.SD</hasc>
    <alt-name>Sa'ada|Saadah|Sa'da|Saidah|Sa'adah</alt-name>
    <woe-id>20070038</woe-id>
    <subregion>NULL</subregion>
    <fips>YM15</fips>
    <postal-code>SD</postal-code>
    <name>Sa`dah</name>
    <country>Yemen</country>
    <type-en>Governorate</type-en>
    <region>NULL</region>
    <longitude>44.0404</longitude>
    <woe-name>Sa`dah</woe-name>
    <latitude>16.9876</latitude>
    <woe-label>Sa`dah, YE, Yemen</woe-label>
    <type>Muhafazah</type>
    <hc-middle-x>0.35</hc-middle-x>
    <hc-middle-y>0.58</hc-middle-y>
    <hc-key>ye-sd</hc-key>
    <hc-a2>SD</hc-a2>
  </desc>
</path>

<path fill="#CEE3F5" stroke="#6E6E6E" stroke-width="0.4" id="YE.MW" d="M67.5,239.2 L64.3,236.7 L60.5,229.0 L58.1,228.4 L54.0,223.8 L53.0,211.8 L56.2,210.7 L66.2,209.8 L75.3,211.0 L80.6,210.7 L84.2,208.9 L91.1,212.4 L90.1,217.5 L81.6,223.5 L79.4,225.6 L75.6,226.3 L71.5,229.1 L70.0,231.9 L70.2,234.8 Z">
  <desc xmlns="http://www.highcharts.com/svg/namespace">
    <labelrank>6</labelrank>
    <hasc>YE.MW</hasc>
    <alt-name>Almahweet|Mahweet</alt-name>
    <woe-id>20070046</woe-id>
    <subregion>NULL</subregion>
    <fips>YM10</fips>
    <postal-code>MW</postal-code>
    <name>Al Mahwit</name>
    <country>Yemen</country>
    <type-en>Governorate</type-en>
    <region>NULL</region>
    <longitude>43.649</longitude>
    <woe-name>Al Mahwit</woe-name>
    <latitude>15.38</latitude>
    <woe-label>Al Mahwit, YE, Yemen</woe-label>
    <type>Muhafazah</type>
    <hc-middle-x>0.37</hc-middle-x>
    <hc-middle-y>0.33</hc-middle-y>
    <hc-key>ye-mw</hc-key>
    <hc-a2>MW</hc-a2>
  </desc>
</path>

<path fill="#CEE3F5" stroke="#6E6E6E" stroke-width="0.4" id="YE.DH" d="M80.1,293.9 L76.9,296.0 L74.8,295.6 L67.6,291.4 L65.0,279.4 L66.5,278.5 L68.8,278.4 L72.3,276.5 L74.8,274.1 L82.1,273.7 L88.5,269.2 L90.7,265.5 L87.5,259.8 L82.5,253.8 L81.8,250.7 L88.8,249.7 L97.5,243.5 L102.8,242.4 L107.9,246.1 L112.2,247.0 L113.9,246.5 L115.5,243.4 L119.4,245.8 L124.5,244.5 L128.1,240.6 L133.7,240.5 L136.6,243.8 L137.4,247.7 L141.3,254.4 L141.4,256.4 L137.1,261.6 L135.6,267.4 L134.6,275.7 L133.1,278.5 L129.1,281.4 L127.8,284.5 L126.6,285.0 L121.6,283.1 L119.0,281.4 L110.7,278.1 L107.1,275.0 L105.5,274.8 L103.7,278.6 L99.6,279.3 L98.4,275.4 L96.5,275.7 L92.3,280.0 L89.6,280.9 L90.2,285.6 L88.6,288.4 L84.8,289.0 L84.0,286.2 Z">
  <desc xmlns="http://www.highcharts.com/svg/namespace">
    <labelrank>7</labelrank>
    <hasc>YE.DH</hasc>
    <alt-name>NULL</alt-name>
    <woe-id>20070044</woe-id>
    <subregion>NULL</subregion>
    <fips>YM11</fips>
    <postal-code>DH</postal-code>
    <name>Dhamar</name>
    <country>Yemen</country>
    <type-en>Governorate</type-en>
    <region>NULL</region>
    <longitude>44.2001</longitude>
    <woe-name>Dhamar</woe-name>
    <latitude>14.6805</latitude>
    <woe-label>Dhamar, YE, Yemen</woe-label>
    <type>Muhafazah</type>
    <hc-middle-x>0.67</hc-middle-x>
    <hc-middle-y>0.35</hc-middle-y>
    <hc-key>ye-dh</hc-key>
    <hc-a2>DH</hc-a2>
  </desc>
</path>

<path fill="#CEE3F5" stroke="#6E6E6E" stroke-width="0.4" id="YE.HJ" d="M75.3,211.0 L66.2,209.8 L56.2,210.7 L53.0,211.8 L52.2,206.7 L53.0,201.9 L52.4,198.9 L53.7,193.8 L51.6,191.1 L45.7,191.5 L41.4,193.2 L35.2,193.5 L26.0,187.9 L26.6,179.8 L25.0,168.8 L24.8,164.5 L23.7,161.0 L28.4,159.3 L30.4,157.3 L30.4,154.7 L34.1,153.8 L37.8,151.5 L40.0,146.7 L40.6,143.5 L45.0,144.2 L46.3,142.8 L47.5,143.6 L59.1,147.1 L63.4,146.9 L69.7,147.5 L69.4,157.6 L70.4,171.3 L72.7,173.5 L72.9,178.0 L75.1,182.5 L72.7,186.3 L74.0,186.8 L76.2,184.3 L79.4,187.3 L80.3,191.9 L80.3,197.7 L81.7,199.1 L80.3,203.5 L77.5,203.5 L76.0,205.1 L76.5,208.0 Z">
  <desc xmlns="http://www.highcharts.com/svg/namespace">
    <labelrank>7</labelrank>
    <hasc>YE.HJ</hasc>
    <alt-name>Hajja</alt-name>
    <woe-id>20070048</woe-id>
    <subregion>NULL</subregion>
    <fips>YM22</fips>
    <postal-code>HJ</postal-code>
    <name>Hajjah</name>
    <country>Yemen</country>
    <type-en>Governorate</type-en>
    <region>NULL</region>
    <longitude>43.1804</longitude>
    <woe-name>Hajjah</woe-name>
    <latitude>16.1813</latitude>
    <woe-label>Hajjah, YE, Yemen</woe-label>
    <type>Muhafazah</type>
    <hc-middle-x>0.52</hc-middle-x>
    <hc-middle-y>0.56</hc-middle-y>
    <hc-key>ye-hj</hc-key>
    <hc-a2>HJ</hc-a2>
  </desc>
</path>

<path fill="#CEE3F5" stroke="#6E6E6E" stroke-width="0.4" id="YE.AM" d="M91.1,212.4 L84.2,208.9 L80.6,210.7 L75.3,211.0 L76.5,208.0 L76.0,205.1 L77.5,203.5 L80.3,203.5 L81.7,199.1 L80.3,197.7 L80.3,191.9 L79.4,187.3 L76.2,184.3 L74.0,186.8 L72.7,186.3 L75.1,182.5 L72.9,178.0 L72.7,173.5 L70.4,171.3 L69.4,157.6 L69.7,147.5 L77.1,145.8 L80.6,143.9 L84.3,143.5 L88.3,144.5 L94.1,146.9 L99.0,147.5 L103.0,146.3 L110.1,151.2 L111.3,153.0 L110.4,155.6 L113.2,163.7 L113.5,168.2 L112.2,171.9 L113.1,176.9 L116.3,181.8 L113.2,182.0 L106.6,184.9 L105.6,187.8 L106.5,193.8 L106.2,196.1 L102.3,200.5 L101.6,205.6 L96.5,209.1 L92.5,209.2 Z">
  <desc xmlns="http://www.highcharts.com/svg/namespace">
    <labelrank>6</labelrank>
    <hasc>YE.AM</hasc>
    <alt-name>'Amran</alt-name>
    <woe-id>56189859</woe-id>
    <subregion>NULL</subregion>
    <fips>YM00</fips>
    <postal-code>AM</postal-code>
    <name>Amran</name>
    <country>Yemen</country>
    <type-en>Governorate</type-en>
    <region>NULL</region>
    <longitude>44.0107</longitude>
    <woe-name>NULL</woe-name>
    <latitude>16.0938</latitude>
    <woe-label>NULL</woe-label>
    <type>Muhafazah</type>
    <hc-middle-x>0.47</hc-middle-x>
    <hc-middle-y>0.33</hc-middle-y>
    <hc-key>ye-am</hc-key>
    <hc-a2>AM</hc-a2>
  </desc>
</path>

<path fill="#CEE3F5" stroke="#6E6E6E" stroke-width="0.4" id="YE.IB" d="M73.5,305.7 L75.7,305.4 L74.4,302.7 L77.9,301.7 L80.1,298.1 L80.1,293.9 L84.0,286.2 L84.8,289.0 L88.6,288.4 L90.2,285.6 L89.6,280.9 L92.3,280.0 L96.5,275.7 L98.4,275.4 L99.6,279.3 L103.7,278.6 L105.5,274.8 L107.1,275.0 L110.7,278.1 L119.0,281.4 L121.6,283.1 L126.6,285.0 L127.8,284.5 L129.7,285.7 L129.6,289.0 L132.8,291.3 L131.2,293.7 L129.0,293.8 L126.4,298.6 L127.3,301.8 L123.7,302.3 L120.8,303.9 L119.3,308.2 L117.4,308.9 L114.9,314.7 L111.4,318.0 L104.8,316.7 L99.1,314.5 L89.5,312.2 L89.4,309.6 L85.9,310.3 L85.1,307.8 L81.3,308.6 L75.1,308.7 Z">
  <desc xmlns="http://www.highcharts.com/svg/namespace">
    <labelrank>7</labelrank>
    <hasc>YE.IB</hasc>
    <alt-name>NULL</alt-name>
    <woe-id>20070042</woe-id>
    <subregion>NULL</subregion>
    <fips>YM23</fips>
    <postal-code>IB</postal-code>
    <name>Ibb</name>
    <country>Yemen</country>
    <type-en>Governorate</type-en>
    <region>NULL</region>
    <longitude>44.2012</longitude>
    <woe-name>Ibb</woe-name>
    <latitude>14.0543</latitude>
    <woe-label>Ibb, YE, Yemen</woe-label>
    <type>Muhafazah</type>
    <hc-middle-x>0.50</hc-middle-x>
    <hc-middle-y>0.53</hc-middle-y>
    <hc-key>ye-ib</hc-key>
    <hc-a2>IB</hc-a2>
  </desc>
</path>

<path fill="#CEE3F5" stroke="#6E6E6E" stroke-width="0.4" id="YE.LA" d="M154.6,363.1 L154.3,363.7 L154.3,363.8 L149.4,364.2 L138.9,367.0 L127.0,369.0 L119.2,372.4 L115.2,378.5 L114.8,377.8 L108.0,380.5 L104.5,380.5 L102.3,381.6 L102.3,379.2 L100.2,379.5 L94.9,382.0 L88.2,382.8 L86.1,380.0 L79.5,377.1 L68.4,373.4 L64.3,377.0 L66.4,372.8 L70.9,366.1 L76.2,359.8 L75.7,355.9 L81.3,353.2 L84.7,352.6 L92.6,356.5 L92.7,352.7 L97.4,353.3 L98.2,350.9 L100.9,350.1 L100.8,348.3 L102.7,346.0 L107.6,346.3 L112.0,344.6 L111.9,337.7 L116.9,337.3 L116.6,334.9 L113.2,333.8 L113.1,331.9 L116.7,330.7 L119.8,328.5 L122.1,325.5 L127.6,329.1 L135.1,325.7 L136.9,324.0 L140.5,324.7 L140.7,317.9 L143.9,317.4 L148.7,315.5 L153.7,312.7 L155.7,310.7 L159.2,302.8 L163.5,303.0 L169.6,299.0 L171.8,299.4 L172.5,302.3 L172.1,306.8 L170.0,307.4 L169.4,312.2 L165.6,313.7 L164.5,318.0 L161.3,320.3 L162.1,321.4 L166.3,322.5 L161.0,329.3 L161.0,333.4 L163.4,335.5 L163.0,337.5 L160.2,339.4 L156.4,349.8 Z">
  <desc xmlns="http://www.highcharts.com/svg/namespace">
    <labelrank>7</labelrank>
    <hasc>YE.LA</hasc>
    <alt-name>Laheg|Lahej|Lahj|Tuban</alt-name>
    <woe-id>20070040</woe-id>
    <subregion>NULL</subregion>
    <fips>YM24</fips>
    <postal-code>LA</postal-code>
    <name>Lahij</name>
    <country>Yemen</country>
    <type-en>Governorate</type-en>
    <region>NULL</region>
    <longitude>44.6561</longitude>
    <woe-name>Lahij</woe-name>
    <latitude>13.1832</latitude>
    <woe-label>Lahij, YE, Yemen</woe-label>
    <type>Muhafazah</type>
    <hc-middle-x>0.63</hc-middle-x>
    <hc-middle-y>0.57</hc-middle-y>
    <hc-key>ye-la</hc-key>
    <hc-a2>LA</hc-a2>
  </desc>
</path>

<path fill="#CEE3F5" stroke="#6E6E6E" stroke-width="0.4" id="YE.MR" d="M480.1,232.0 L477.8,226.2 L475.5,222.5 L467.2,220.6 L460.6,221.8 L453.3,222.3 L449.8,221.2 L448.5,217.1 L452.5,211.4 L451.8,207.3 L445.9,206.1 L444.3,202.8 L445.7,197.7 L445.2,193.6 L446.1,188.3 L448.0,185.6 L450.0,179.5 L448.9,175.9 L445.9,173.3 L446.0,171.1 L450.0,154.0 L448.7,149.3 L450.7,145.4 L454.4,142.8 L464.3,138.3 L468.8,135.1 L473.0,129.8 L495.2,110.4 L502.3,99.2 L508.7,83.5 L513.4,66.6 L516.3,48.8 L525.0,24.1 L539.5,0.9 L585.5,98.4 L589.7,100.2 L607.6,136.5 L603.8,138.0 L601.6,137.6 L594.2,142.1 L587.8,145.0 L579.9,147.4 L576.3,149.2 L570.0,154.0 L563.0,160.6 L558.9,167.6 L559.4,169.6 L555.7,177.4 L557.6,181.2 L557.1,183.6 L559.9,185.3 L559.7,190.4 L561.4,196.8 L560.6,199.0 L550.4,202.0 L540.6,207.0 L540.2,209.4 L538.1,208.4 L529.7,212.5 L529.6,216.3 L522.3,217.5 L512.1,223.3 L510.6,222.9 L506.5,225.1 L495.2,228.5 Z">
  <desc xmlns="http://www.highcharts.com/svg/namespace">
    <labelrank>6</labelrank>
    <hasc>YE.MR</hasc>
    <alt-name>Al Ghaydah|Al-Mahara|Almaharah|al-Mahra|Mahra</alt-name>
    <woe-id>20070032</woe-id>
    <subregion>NULL</subregion>
    <fips>YM03</fips>
    <postal-code>MR</postal-code>
    <name>Al Mahrah</name>
    <country>Yemen</country>
    <type-en>Governorate</type-en>
    <region>NULL</region>
    <longitude>51.6413</longitude>
    <woe-name>Al Mahrah</woe-name>
    <latitude>16.8785</latitude>
    <woe-label>NULL</woe-label>
    <type>Muhafazah</type>
    <hc-middle-x>0.45</hc-middle-x>
    <hc-middle-y>0.62</hc-middle-y>
    <hc-key>ye-mr</hc-key>
    <hc-a2>MR</hc-a2>
  </desc>
</path>

<path fill="#CEE3F5" stroke="#6E6E6E" stroke-width="0.4" id="YE.BA" d="M172.1,306.8 L172.5,302.3 L171.8,299.4 L169.6,299.0 L163.5,303.0 L159.2,302.8 L158.9,299.9 L153.2,294.1 L149.3,288.7 L143.6,287.7 L139.6,289.4 L136.4,289.6 L132.8,291.3 L129.6,289.0 L129.7,285.7 L127.8,284.5 L129.1,281.4 L133.1,278.5 L134.6,275.7 L135.6,267.4 L137.1,261.6 L141.4,256.4 L146.8,255.0 L149.2,253.0 L152.3,253.6 L155.0,255.7 L157.1,268.5 L158.3,270.9 L161.2,271.6 L165.0,268.8 L167.4,269.3 L168.0,267.5 L172.6,265.9 L177.4,266.4 L178.3,265.0 L177.9,261.7 L179.7,263.1 L181.4,260.3 L187.8,260.3 L190.1,261.8 L188.7,265.3 L189.7,267.6 L193.5,269.2 L196.7,277.8 L200.0,281.2 L206.2,283.4 L207.4,288.2 L208.6,289.4 L207.8,294.3 L205.3,299.2 L193.4,308.4 L187.7,311.0 L185.4,311.1 L180.7,307.8 Z">
  <desc xmlns="http://www.highcharts.com/svg/namespace">
    <labelrank>7</labelrank>
    <hasc>YE.BA</hasc>
    <alt-name>Albaidah|Al Baidha|Al-Baydha|Al Beida|Baidaa|Al Bayda</alt-name>
    <woe-id>20070043</woe-id>
    <subregion>NULL</subregion>
    <fips>YM20</fips>
    <postal-code>BA</postal-code>
    <name>Al Bayda'</name>
    <country>Yemen</country>
    <type-en>Governorate</type-en>
    <region>NULL</region>
    <longitude>45.3371</longitude>
    <woe-name>Al Bayda'</woe-name>
    <latitude>14.2903</latitude>
    <woe-label>Al Bayda´, YE, Yemen</woe-label>
    <type>Muhafazah</type>
    <hc-middle-x>0.57</hc-middle-x>
    <hc-middle-y>0.60</hc-middle-y>
    <hc-key>ye-ba</hc-key>
    <hc-a2>BA</hc-a2>
  </desc>
</path>

<path fill="#CEE3F5" stroke="#6E6E6E" stroke-width="0.4" id="YE.DL" d="M159.2,302.8 L155.7,310.7 L153.7,312.7 L148.7,315.5 L143.9,317.4 L140.7,317.9 L140.5,324.7 L136.9,324.0 L135.1,325.7 L127.6,329.1 L122.1,325.5 L121.7,323.6 L117.4,322.9 L115.3,321.6 L116.1,317.6 L114.9,314.7 L117.4,308.9 L119.3,308.2 L120.8,303.9 L123.7,302.3 L127.3,301.8 L126.4,298.6 L129.0,293.8 L131.2,293.7 L132.8,291.3 L136.4,289.6 L139.6,289.4 L143.6,287.7 L149.3,288.7 L153.2,294.1 L158.9,299.9 Z">
  <desc xmlns="http://www.highcharts.com/svg/namespace">
    <labelrank>6</labelrank>
    <hasc>YE.DL</hasc>
    <alt-name>Al Dhale'e</alt-name>
    <woe-id>-20070040</woe-id>
    <subregion>NULL</subregion>
    <fips>YM00</fips>
    <postal-code>DL</postal-code>
    <name>Al Dali'</name>
    <country>Yemen</country>
    <type-en>Governorate</type-en>
    <region>NULL</region>
    <longitude>44.7937</longitude>
    <woe-name>NULL</woe-name>
    <latitude>13.8965</latitude>
    <woe-label>NULL</woe-label>
    <type>Muhafazah</type>
    <hc-middle-x>0.53</hc-middle-x>
    <hc-middle-y>0.44</hc-middle-y>
    <hc-key>ye-dl</hc-key>
    <hc-a2>DL</hc-a2>
  </desc>
</path>

<path fill="#CEE3F5" stroke="#6E6E6E" stroke-width="0.4" id="YE.JA" d="M116.3,181.8 L113.1,176.9 L112.2,171.9 L113.5,168.2 L113.2,163.7 L110.4,155.6 L111.3,153.0 L110.1,151.2 L103.0,146.3 L104.6,141.4 L106.4,138.2 L115.1,132.7 L120.2,126.0 L127.6,122.3 L134.5,120.3 L141.4,120.6 L146.1,118.3 L147.4,99.6 L158.2,99.7 L161.4,100.3 L170.6,105.6 L173.1,106.5 L223.5,111.4 L245.3,108.2 L247.4,109.4 L260.1,126.8 L261.6,127.3 L264.4,162.6 L252.8,174.2 L205.3,183.3 L188.2,189.4 L180.9,195.7 L174.4,196.3 L162.5,194.4 L148.8,187.2 L129.7,182.8 L125.9,180.5 L121.1,180.1 Z">
  <desc xmlns="http://www.highcharts.com/svg/namespace">
    <labelrank>6</labelrank>
    <hasc>YE.JA</hasc>
    <alt-name>Al Jouf|Aljowf|Jawf</alt-name>
    <woe-id>20070039</woe-id>
    <subregion>NULL</subregion>
    <fips>YM21</fips>
    <postal-code>JA</postal-code>
    <name>Al Jawf</name>
    <country>Yemen</country>
    <type-en>Governorate</type-en>
    <region>NULL</region>
    <longitude>45.6137</longitude>
    <woe-name>Al Jawf</woe-name>
    <latitude>16.5629</latitude>
    <woe-label>NULL</woe-label>
    <type>Muhafazah</type>
    <hc-middle-x>0.49</hc-middle-x>
    <hc-middle-y>0.49</hc-middle-y>
    <hc-key>ye-ja</hc-key>
    <hc-a2>JA</hc-a2>
  </desc>
</path>

<path fill="#CEE3F5" stroke="#6E6E6E" stroke-width="0.4" id="YE.SH" d="M359.3,296.5 L353.1,296.5 L347.6,299.9 L346.5,298.7 L340.1,298.4 L331.6,301.3 L331.8,299.9 L328.8,297.8 L321.7,296.3 L316.0,298.5 L313.1,302.0 L310.5,303.4 L301.7,306.5 L288.6,318.9 L282.2,321.6 L281.1,314.9 L279.3,309.2 L276.2,303.0 L278.2,299.1 L277.2,292.1 L275.1,290.7 L267.3,290.4 L259.7,288.3 L255.6,287.8 L245.5,290.0 L240.9,292.0 L234.3,293.1 L228.8,282.8 L220.3,285.7 L213.8,288.9 L208.6,289.4 L207.4,288.2 L206.2,283.4 L200.0,281.2 L196.7,277.8 L193.5,269.2 L189.7,267.6 L188.7,265.3 L190.1,261.8 L187.8,260.3 L181.4,260.3 L179.4,258.7 L179.0,253.9 L180.9,244.8 L183.9,238.5 L191.8,231.9 L225.1,208.4 L305.1,201.5 L310.3,203.2 L311.0,205.1 L300.0,222.6 L297.9,231.2 L297.8,234.3 L301.6,238.9 L300.8,242.3 L291.6,250.3 L290.8,253.4 L297.2,257.8 L301.3,261.7 L305.7,264.6 L310.1,266.1 L320.2,266.9 L323.1,268.2 L328.3,277.0 L331.2,279.8 L335.4,281.8 L343.6,282.0 L348.5,283.1 L353.8,285.5 L356.0,288.2 Z">
  <desc xmlns="http://www.highcharts.com/svg/namespace">
    <labelrank>6</labelrank>
    <hasc>YE.SH</hasc>
    <alt-name>Shabwa|Shibwah|Ataq</alt-name>
    <woe-id>20070034</woe-id>
    <subregion>NULL</subregion>
    <fips>YM05</fips>
    <postal-code>SH</postal-code>
    <name>Shabwah</name>
    <country>Yemen</country>
    <type-en>Governorate</type-en>
    <region>NULL</region>
    <longitude>47.0989</longitude>
    <woe-name>Shabwah</woe-name>
    <latitude>14.8965</latitude>
    <woe-label>Shabwah, YE, Yemen</woe-label>
    <type>Muhafazah</type>
    <hc-middle-x>0.39</hc-middle-x>
    <hc-middle-y>0.37</hc-middle-y>
    <hc-key>ye-sh</hc-key>
    <hc-a2>SH</hc-a2>
  </desc>
</path>

<path fill="#CEE3F5" stroke="#6E6E6E" stroke-width="0.4" id="YE.MA" d="M225.1,208.4 L191.8,231.9 L183.9,238.5 L180.9,244.8 L179.0,253.9 L179.4,258.7 L181.4,260.3 L179.7,263.1 L177.9,261.7 L178.3,265.0 L177.4,266.4 L172.6,265.9 L168.0,267.5 L167.4,269.3 L165.0,268.8 L161.2,271.6 L158.3,270.9 L157.1,268.5 L155.0,255.7 L152.3,253.6 L149.2,253.0 L149.6,247.4 L148.8,246.7 L153.0,239.1 L156.8,237.2 L158.3,233.9 L157.7,228.1 L154.9,226.2 L150.3,225.5 L144.4,220.2 L142.5,219.6 L140.0,222.8 L136.2,222.7 L132.3,218.7 L128.8,217.8 L129.7,215.7 L136.5,211.1 L139.1,207.2 L134.3,200.6 L132.4,188.4 L129.7,182.8 L148.8,187.2 L162.5,194.4 L174.4,196.3 L180.9,195.7 L188.2,189.4 L205.3,183.3 L252.8,174.2 Z">
  <desc xmlns="http://www.highcharts.com/svg/namespace">
    <labelrank>7</labelrank>
    <hasc>YE.MA</hasc>
    <alt-name>Mareb|Marib</alt-name>
    <woe-id>20070037</woe-id>
    <subregion>NULL</subregion>
    <fips>YM14</fips>
    <postal-code>MA</postal-code>
    <name>Ma'rib</name>
    <country>Yemen</country>
    <type-en>Governorate</type-en>
    <region>NULL</region>
    <longitude>45.7376</longitude>
    <woe-name>Ma'rib</woe-name>
    <latitude>15.5368</latitude>
    <woe-label>Ma´rib, YE, Yemen</woe-label>
    <type>Muhafazah</type>
    <hc-middle-x>0.45</hc-middle-x>
    <hc-middle-y>0.40</hc-middle-y>
    <hc-key>ye-ma</hc-key>
    <hc-a2>MA</hc-a2>
  </desc>
</path>

<path fill="#CEE3F5" stroke="#6E6E6E" stroke-width="0.4" id="YE.3426" d="M129.7,182.8 L132.4,188.4 L134.3,200.6 L139.1,207.2 L136.5,211.1 L129.7,215.7 L128.8,217.8 L132.3,218.7 L136.2,222.7 L140.0,222.8 L142.5,219.6 L144.4,220.2 L150.3,225.5 L154.9,226.2 L157.7,228.1 L158.3,233.9 L156.8,237.2 L153.0,239.1 L148.8,246.7 L149.6,247.4 L149.2,253.0 L146.8,255.0 L141.4,256.4 L141.3,254.4 L137.4,247.7 L136.6,243.8 L133.7,240.5 L128.1,240.6 L124.5,244.5 L119.4,245.8 L115.5,243.4 L113.9,246.5 L112.2,247.0 L107.9,246.1 L102.8,242.4 L97.5,243.5 L88.8,249.7 L81.8,250.7 L76.2,248.9 L74.9,245.8 L76.2,243.5 L69.3,241.0 L67.5,239.2 L70.2,234.8 L70.0,231.9 L71.5,229.1 L75.6,226.3 L79.4,225.6 L81.6,223.5 L90.1,217.5 L91.1,212.4 L92.5,209.2 L96.5,209.1 L101.6,205.6 L102.3,200.5 L106.2,196.1 L106.5,193.8 L105.6,187.8 L106.6,184.9 L113.2,182.0 L116.3,181.8 L121.1,180.1 L125.9,180.5 Z M114.7,209.4 L110.2,206.2 L103.5,210.3 L103.5,212.4 L99.0,214.7 L101.5,218.5 L100.1,221.4 L102.0,222.7 L102.3,224.8 L105.4,224.7 L106.9,221.6 L105.3,218.6 L105.6,216.3 L107.9,214.4 L108.6,211.5 L111.0,211.6 L111.4,210.0 L113.9,210.7 Z">
  <desc xmlns="http://www.highcharts.com/svg/namespace">
    <labelrank>6</labelrank>
    <hasc>YE.SN</hasc>
    <alt-name>NULL</alt-name>
    <woe-id>20070045</woe-id>
    <subregion>NULL</subregion>
    <fips>YM16</fips>
    <postal-code>NULL</postal-code>
    <name>Sana'a</name>
    <country>Yemen</country>
    <type-en>Governorate</type-en>
    <region>NULL</region>
    <longitude>44.368</longitude>
    <woe-name>Sana'a</woe-name>
    <latitude>15.2262</latitude>
    <woe-label>San`a´, YE, Yemen</woe-label>
    <type>Muhafazah</type>
    <hc-middle-x>0.55</hc-middle-x>
    <hc-middle-y>0.63</hc-middle-y>
    <hc-key>ye-3426</hc-key>
    <hc-a2>SA</hc-a2>
  </desc>
</path>

<path fill="#CEE3F5" stroke="#6E6E6E" stroke-width="0.4" id="YE.3428" d="M74.9,245.8 L76.2,248.9 L81.8,250.7 L82.5,253.8 L87.5,259.8 L90.7,265.5 L88.5,269.2 L82.1,273.7 L74.8,274.1 L72.3,276.5 L68.8,278.4 L66.5,278.5 L68.5,276.1 L68.5,272.8 L65.4,264.4 L65.2,260.4 L66.4,257.6 L65.7,253.3 L66.6,250.7 L70.9,245.7 Z">
  <desc xmlns="http://www.highcharts.com/svg/namespace">
    <labelrank>6</labelrank>
    <hasc>YE.</hasc>
    <alt-name>NULL</alt-name>
    <woe-id>-20070045</woe-id>
    <subregion>NULL</subregion>
    <fips>NULL</fips>
    <postal-code>NULL</postal-code>
    <name>Raymah</name>
    <country>Yemen</country>
    <type-en>Governorate</type-en>
    <region>NULL</region>
    <longitude>43.758</longitude>
    <woe-name>NULL</woe-name>
    <latitude>14.6655</latitude>
    <woe-label>NULL</woe-label>
    <type>Muhafazah</type>
    <hc-middle-x>0.49</hc-middle-x>
    <hc-middle-y>0.48</hc-middle-y>
    <hc-key>ye-3428</hc-key>
    <hc-a2>RA</hc-a2>
  </desc>
</path>

<path fill="#CEE3F5" stroke="#6E6E6E" stroke-width="0.4" id="YE.AD" d="M154.3,363.8 L152.2,370.1 L152.3,373.3 L148.6,372.9 L147.8,371.3 L150.9,370.9 L149.0,369.1 L145.7,369.1 L145.1,370.4 L141.3,371.4 L144.4,372.8 L142.1,375.2 L136.5,372.7 L133.2,374.5 L131.3,370.9 L126.5,369.9 L122.6,371.2 L115.2,378.5 L119.2,372.4 L127.0,369.0 L138.9,367.0 L149.4,364.2 Z">
  <desc xmlns="http://www.highcharts.com/svg/namespace">
    <labelrank>9</labelrank>
    <hasc>YE.AD</hasc>
    <alt-name>Aden</alt-name>
    <woe-id>20070035</woe-id>
    <subregion>NULL</subregion>
    <fips>YM01</fips>
    <postal-code>AD</postal-code>
    <name>`Adan</name>
    <country>Yemen</country>
    <type-en>Governorate</type-en>
    <region>NULL</region>
    <longitude>44.7544</longitude>
    <woe-name>`Adan</woe-name>
    <latitude>12.8087</latitude>
    <woe-label>`Adan, YE, Yemen</woe-label>
    <type>Muhafazah</type>
    <hc-middle-x>0.68</hc-middle-x>
    <hc-middle-y>0.72</hc-middle-y>
    <hc-key>ye-ad</hc-key>
    <hc-a2>AD</hc-a2>
  </desc>
</path>

<path fill="#CEE3F5" stroke="#6E6E6E" stroke-width="0.4" id="YE.3430" d="M282.2,321.6 L273.2,324.5 L258.6,327.7 L253.6,331.1 L246.5,333.8 L241.0,333.2 L236.2,334.9 L224.3,334.9 L219.8,333.6 L212.7,335.4 L202.9,335.9 L187.1,339.3 L185.2,340.3 L177.3,347.9 L176.6,350.1 L172.1,355.2 L169.9,356.2 L160.0,358.6 L154.6,363.1 L156.4,349.8 L160.2,339.4 L163.0,337.5 L163.4,335.5 L161.0,333.4 L161.0,329.3 L166.3,322.5 L162.1,321.4 L161.3,320.3 L164.5,318.0 L165.6,313.7 L169.4,312.2 L170.0,307.4 L172.1,306.8 L180.7,307.8 L185.4,311.1 L187.7,311.0 L193.4,308.4 L205.3,299.2 L207.8,294.3 L208.6,289.4 L213.8,288.9 L220.3,285.7 L228.8,282.8 L234.3,293.1 L240.9,292.0 L245.5,290.0 L255.6,287.8 L259.7,288.3 L267.3,290.4 L275.1,290.7 L277.2,292.1 L278.2,299.1 L276.2,303.0 L279.3,309.2 L281.1,314.9 Z">
  <desc xmlns="http://www.highcharts.com/svg/namespace">
    <labelrank>6</labelrank>
    <hasc>YE.</hasc>
    <alt-name>NULL</alt-name>
    <woe-id>20070036</woe-id>
    <subregion>NULL</subregion>
    <fips>NULL</fips>
    <postal-code>NULL</postal-code>
    <name>Abyan</name>
    <country>Yemen</country>
    <type-en>Governorate</type-en>
    <region>NULL</region>
    <longitude>46.2119</longitude>
    <woe-name>Abyan</woe-name>
    <latitude>13.8269</latitude>
    <woe-label>Abyan, YE, Yemen</woe-label>
    <type>Muhafazah</type>
    <hc-middle-x>0.56</hc-middle-x>
    <hc-middle-y>0.39</hc-middle-y>
    <hc-key>ye-3430</hc-key>
    <hc-a2>AB</hc-a2>
  </desc>
</path>
</g>

<text x="350" y="714" text-anchor="middle" font-family="Verdana" font-size="8" stroke-opacity="0.6">Copyright (c) 2020 Highsoft AS, Based on data from Natural Earth</text>

</svg>