<?xml version="1.0" encoding="utf-8" standalone="no"?>
<!DOCTYPE svg PUBLIC "-//W3C//DTD SVG 1.1//EN" "http://www.w3.org/Graphics/SVG/1.1/DTD/svg11.dtd">

<svg xmlns="http://www.w3.org/2000/svg" height="710pt" version="1.1" width="830pt" xmlns:xlink="http://www.w3.org/1999/xlink">
<desc>
Map version: 2.1.0
Copyright (c) 2023 Highsoft AS, Based on data from Natural Earth
</desc>
<title>Portugal</title>
<g id="admin1">

<g id="PT">
  <desc xmlns="http://www.highcharts.com/svg/namespace">
    <name>Portugal</name>
    <labelrank>2</labelrank>
    <country-abbrev>Port.</country-abbrev>
    <subregion>Southern Europe</subregion>
    <region-wb>Europe &amp; Central Asia</region-wb>
    <iso-a3>PRT</iso-a3>
    <iso-a2>PT</iso-a2>
    <woe-id>23424925</woe-id>
    <continent>Europe</continent>
    <hc-key>pt</hc-key>
    <hc-a2>PO</hc-a2>
  </desc>
</g>

<path d="M303.6,698.1 L301.6,699.4 L295.9,700.0 L293.3,698.1 L298.9,698.9 L303.6,695.4 Z M201.5,634.6 L206.5,637.3 L211.0,641.3 L215.4,641.5 L219.9,643.6 L221.6,641.7 L227.9,640.8 L233.6,644.0 L238.3,644.8 L242.0,643.2 L243.9,639.6 L250.3,637.6 L255.5,637.0 L258.2,637.7 L259.5,642.0 L270.0,650.0 L273.5,651.0 L280.8,651.4 L288.6,646.7 L288.3,644.2 L290.3,641.3 L298.2,640.3 L300.4,637.7 L308.2,633.7 L311.4,631.5 L319.9,627.9 L329.3,628.6 L334.8,624.6 L340.5,624.0 L344.7,628.6 L346.5,637.4 L348.2,643.1 L349.0,653.8 L350.1,658.2 L349.4,660.2 L352.4,673.0 L348.3,671.0 L343.5,671.2 L341.2,672.1 L328.7,680.0 L327.9,681.1 L311.6,692.4 L308.0,695.6 L302.5,694.4 L295.8,694.3 L293.0,695.1 L288.6,693.7 L284.7,690.4 L277.0,686.2 L269.1,683.6 L256.8,685.0 L249.0,682.3 L245.8,683.7 L241.0,684.3 L236.1,682.7 L230.4,679.5 L225.8,678.7 L220.8,679.0 L217.7,680.5 L214.3,684.1 L207.7,684.1 L202.1,686.8 L198.0,687.6 L195.6,689.7 L193.4,688.8 L190.6,691.4 L186.1,694.1 L182.2,691.5 L180.5,692.2 L181.9,686.5 L186.7,679.1 L189.8,672.2 L188.9,668.2 L193.4,663.8 L195.0,657.9 L193.3,653.4 L195.1,650.0 L198.1,646.6 Z" fill="#CEE3F5" id="PT.FA" stroke="#6E6E6E" stroke-width="0.4">
  <desc xmlns="http://www.highcharts.com/svg/namespace">
    <labelrank>7</labelrank>
    <hasc>PT.FA</hasc>
    <alt-name>NULL</alt-name>
    <woe-id>2346569</woe-id>
    <subregion>NULL</subregion>
    <fips>PO09</fips>
    <postal-code>FA</postal-code>
    <name>Faro</name>
    <country>Portugal</country>
    <type-en>District</type-en>
    <region>Algarve</region>
    <longitude>-7.93895</longitude>
    <woe-name>Faro</woe-name>
    <latitude>37.1704</latitude>
    <woe-label>Faro, PT, Portugal</woe-label>
    <type>Distrito</type>
    <hc-middle-x>0.54</hc-middle-x>
    <hc-middle-y>0.57</hc-middle-y>
    <hc-key>pt-fa</hc-key>
    <hc-a2>FA</hc-a2>
  </desc>
</path>

<path d="M176.8,447.7 L174.2,449.4 L176.1,445.1 L178.9,442.7 Z M182.3,443.9 L180.9,444.5 L179.9,443.5 L181.3,441.1 Z M190.6,455.3 L189.8,455.2 L188.6,455.6 L185.7,447.5 L186.5,445.4 L184.1,445.6 L183.0,443.4 L181.5,436.9 L186.0,427.4 L188.8,423.2 L192.5,420.4 L199.1,419.6 L205.0,415.9 L202.1,420.0 L198.2,421.1 L199.6,423.2 L194.9,431.3 L191.2,441.1 L187.3,446.7 L187.2,448.4 L189.9,452.2 Z M204.8,414.3 L200.1,417.7 L191.0,418.7 L182.4,430.9 L176.4,442.5 L173.1,446.2 L171.3,450.2 L172.1,460.5 L170.5,463.7 L165.2,465.3 L159.1,466.3 L152.3,465.6 L148.3,469.3 L144.3,466.7 L137.1,464.2 L132.6,464.8 L130.4,464.1 L131.3,459.1 L130.0,453.2 L130.6,449.0 L134.6,444.8 L138.2,434.0 L138.0,425.8 L136.9,420.7 L138.5,414.1 L142.7,406.7 L146.2,398.2 L147.4,388.8 L146.7,385.3 L151.8,385.3 L157.1,382.2 L159.7,382.7 L161.3,385.4 L163.6,393.6 L165.3,395.2 L169.7,391.0 L172.2,386.8 L176.2,383.1 L183.8,384.9 L184.8,390.1 L192.1,392.3 L196.3,391.0 L197.1,393.0 L202.3,398.3 L199.2,400.1 L196.1,399.9 L193.3,401.3 L196.6,406.5 L202.4,410.7 Z" fill="#CEE3F5" id="PT.LI" stroke="#6E6E6E" stroke-width="0.4">
  <desc xmlns="http://www.highcharts.com/svg/namespace">
    <labelrank>7</labelrank>
    <hasc>PT.LI</hasc>
    <alt-name>Lisbon|Lisbona|Lisbonne|Lissabon</alt-name>
    <woe-id>2346573</woe-id>
    <subregion>NULL</subregion>
    <fips>PO14</fips>
    <postal-code>LI</postal-code>
    <name>Lisboa</name>
    <country>Portugal</country>
    <type-en>District</type-en>
    <region>Lisbon</region>
    <longitude>-9.13397</longitude>
    <woe-name>Lisboa</woe-name>
    <latitude>38.9835</latitude>
    <woe-label>Lisbon, PT, Portugal</woe-label>
    <type>Distrito</type>
    <hc-middle-x>0.51</hc-middle-x>
    <hc-middle-y>0.37</hc-middle-y>
    <hc-key>pt-li</hc-key>
    <hc-a2>LI</hc-a2>
  </desc>
</path>

<path d="M206.6,219.9 L209.0,211.9 L210.4,204.0 L211.2,206.9 L213.3,203.5 L216.8,202.4 L216.0,200.4 L217.2,199.0 L218.7,200.5 L221.9,196.9 L219.3,194.3 L219.6,192.8 L225.8,191.3 L229.0,188.6 L221.5,190.7 L218.4,188.6 L217.6,184.8 L221.5,179.4 L220.6,176.5 L219.0,181.1 L218.5,179.3 L215.9,185.5 L214.9,192.6 L213.3,197.9 L210.6,202.3 L220.7,156.4 L220.7,153.3 L226.2,152.5 L227.8,153.6 L233.9,151.3 L237.1,153.4 L239.0,152.8 L241.9,148.2 L245.2,152.7 L248.2,153.5 L247.6,150.4 L250.3,149.1 L252.3,149.8 L257.3,146.3 L258.1,144.5 L264.2,148.5 L264.8,154.5 L272.4,158.2 L275.0,157.9 L277.7,154.3 L278.6,156.6 L275.3,161.3 L274.5,164.4 L276.5,173.0 L275.9,175.5 L271.6,174.3 L267.3,175.5 L262.1,175.3 L263.3,179.4 L260.2,186.2 L255.4,190.8 L254.5,194.6 L257.3,199.1 L258.1,204.7 L262.2,207.2 L258.0,208.8 L256.8,211.5 L258.6,216.9 L261.7,221.3 L256.1,223.5 L253.7,225.3 L254.7,228.9 L254.2,231.8 L251.3,236.3 L251.7,240.5 L249.6,244.2 L246.6,244.3 L240.6,252.1 L234.6,251.4 L234.0,247.1 L237.0,242.7 L237.6,239.8 L235.7,233.9 L230.3,236.3 L228.7,235.1 L228.3,231.3 L229.0,228.0 L225.1,225.3 L222.8,228.7 L221.6,232.3 L218.2,231.9 Z" fill="#CEE3F5" id="PT.AV" stroke="#6E6E6E" stroke-width="0.4">
  <desc xmlns="http://www.highcharts.com/svg/namespace">
    <labelrank>7</labelrank>
    <hasc>PT.AV</hasc>
    <alt-name>NULL</alt-name>
    <woe-id>2346562</woe-id>
    <subregion>NULL</subregion>
    <fips>PO02</fips>
    <postal-code>AV</postal-code>
    <name>Aveiro</name>
    <country>Portugal</country>
    <type-en>District</type-en>
    <region>Norte, Centro</region>
    <longitude>-8.439399999999999</longitude>
    <woe-name>Aveiro</woe-name>
    <latitude>40.6738</latitude>
    <woe-label>Aveiro, PT, Portugal</woe-label>
    <type>Distrito</type>
    <hc-middle-x>0.46</hc-middle-x>
    <hc-middle-y>0.40</hc-middle-y>
    <hc-key>pt-av</hc-key>
    <hc-a2>AV</hc-a2>
  </desc>
</path>

<path d="M204.5,72.1 L203.7,68.0 L203.9,63.3 L212.4,61.4 L217.1,58.1 L205.9,61.4 L202.3,61.5 L200.4,60.3 L198.5,55.9 L199.5,46.0 L198.8,42.2 L200.0,39.4 L207.2,33.5 L210.6,29.7 L211.9,24.7 L219.9,20.6 L221.8,16.3 L224.4,13.7 L229.9,13.3 L237.1,9.4 L252.6,7.0 L257.8,3.2 L262.1,2.2 L265.1,0.0 L266.9,3.4 L266.6,9.2 L268.2,12.4 L273.6,10.9 L277.1,13.2 L277.9,15.2 L276.6,19.3 L269.2,25.4 L265.3,31.2 L264.1,36.1 L265.3,38.5 L268.9,40.0 L269.8,42.8 L269.4,46.0 L267.7,46.2 L258.2,51.4 L255.7,52.3 L246.8,52.7 L241.4,55.6 L238.0,56.1 L235.9,57.5 L234.6,63.5 L233.0,66.1 L233.5,67.6 L231.7,70.7 L223.1,67.7 L221.5,69.3 L215.4,69.7 L208.0,72.3 Z" fill="#CEE3F5" id="PT.VC" stroke="#6E6E6E" stroke-width="0.4">
  <desc xmlns="http://www.highcharts.com/svg/namespace">
    <labelrank>7</labelrank>
    <hasc>PT.VC</hasc>
    <alt-name>Vianna do Castello</alt-name>
    <woe-id>2346578</woe-id>
    <subregion>NULL</subregion>
    <fips>PO20</fips>
    <postal-code>VC</postal-code>
    <name>Viana do Castelo</name>
    <country>Portugal</country>
    <type-en>District</type-en>
    <region>Norte</region>
    <longitude>-8.4986</longitude>
    <woe-name>Viana do Castelo</woe-name>
    <latitude>41.9099</latitude>
    <woe-label>Viana do Castelo, PT, Portugal</woe-label>
    <type>Distrito</type>
    <hc-middle-x>0.41</hc-middle-x>
    <hc-middle-y>0.55</hc-middle-y>
    <hc-key>pt-vc</hc-key>
    <hc-a2>VC</hc-a2>
  </desc>
</path>

<path d="M382.3,535.2 L383.8,536.6 L388.1,536.0 L391.9,533.0 L398.5,532.0 L400.3,533.3 L397.1,543.7 L395.2,547.8 L392.5,556.9 L389.8,557.2 L381.8,554.6 L378.8,560.0 L375.3,561.6 L371.2,561.0 L366.0,563.3 L366.4,567.0 L362.5,580.3 L359.6,585.6 L349.8,594.0 L346.5,600.8 L345.1,609.3 L340.5,614.2 L338.9,618.8 L340.5,624.0 L334.8,624.6 L329.3,628.6 L319.9,627.9 L311.4,631.5 L308.2,633.7 L300.4,637.7 L298.2,640.3 L290.3,641.3 L288.3,644.2 L288.6,646.7 L280.8,651.4 L273.5,651.0 L270.0,650.0 L259.5,642.0 L258.2,637.7 L255.5,637.0 L250.3,637.6 L243.9,639.6 L242.0,643.2 L238.3,644.8 L233.6,644.0 L227.9,640.8 L221.6,641.7 L219.9,643.6 L215.4,641.5 L211.0,641.3 L206.5,637.3 L201.5,634.6 L202.6,629.2 L202.9,623.0 L202.3,619.8 L199.7,614.2 L202.7,601.1 L207.1,599.9 L207.8,596.2 L201.7,597.7 L200.8,595.4 L202.6,583.7 L204.7,586.0 L207.9,584.9 L209.8,585.6 L215.1,593.1 L218.0,591.6 L221.6,593.5 L224.5,593.0 L227.0,586.0 L229.6,582.2 L232.5,580.3 L242.1,578.6 L250.0,579.5 L253.2,581.3 L256.3,572.9 L257.0,563.1 L255.3,558.9 L249.9,556.7 L246.2,553.1 L245.5,550.3 L247.2,545.6 L249.6,546.1 L251.2,541.3 L253.3,540.2 L256.8,541.1 L257.9,536.8 L262.5,536.4 L263.7,533.9 L273.9,530.5 L274.4,526.8 L273.6,523.4 L271.0,517.8 L271.4,516.5 L283.7,516.9 L286.1,519.1 L290.3,518.2 L295.6,519.8 L298.0,522.6 L307.0,526.7 L312.4,527.2 L323.5,532.5 L330.5,532.6 L334.9,533.8 L340.8,533.6 L344.2,528.6 L350.6,524.2 L352.0,519.8 L358.8,517.0 L364.6,515.5 L367.8,522.8 L372.7,526.2 L376.3,534.4 L378.6,536.2 Z" fill="#CEE3F5" id="PT.BE" stroke="#6E6E6E" stroke-width="0.4">
  <desc xmlns="http://www.highcharts.com/svg/namespace">
    <labelrank>7</labelrank>
    <hasc>PT.BE</hasc>
    <alt-name>NULL</alt-name>
    <woe-id>2346563</woe-id>
    <subregion>NULL</subregion>
    <fips>PO03</fips>
    <postal-code>BE</postal-code>
    <name>Beja</name>
    <country>Portugal</country>
    <type-en>District</type-en>
    <region>Alentejo</region>
    <longitude>-7.88716</longitude>
    <woe-name>Beja</woe-name>
    <latitude>37.8511</latitude>
    <woe-label>Beja, PT, Portugal</woe-label>
    <type>Distrito</type>
    <hc-middle-x>0.48</hc-middle-x>
    <hc-middle-y>0.50</hc-middle-y>
    <hc-key>pt-be</hc-key>
    <hc-a2>BE</hc-a2>
  </desc>
</path>

<path d="M369.9,456.8 L365.3,460.7 L363.8,463.9 L363.2,468.6 L363.2,474.1 L365.1,475.8 L364.9,478.7 L360.5,485.2 L358.6,492.0 L357.6,493.6 L358.7,496.9 L356.2,500.0 L360.7,502.9 L372.1,517.3 L373.7,520.7 L376.8,523.4 L381.2,534.3 L382.3,535.2 L378.6,536.2 L376.3,534.4 L372.7,526.2 L367.8,522.8 L364.6,515.5 L358.8,517.0 L352.0,519.8 L350.6,524.2 L344.2,528.6 L340.8,533.6 L334.9,533.8 L330.5,532.6 L323.5,532.5 L312.4,527.2 L307.0,526.7 L298.0,522.6 L295.6,519.8 L290.3,518.2 L286.1,519.1 L283.7,516.9 L271.4,516.5 L271.0,517.8 L267.0,514.7 L262.1,513.5 L255.5,509.7 L257.2,505.6 L257.1,502.2 L254.3,500.2 L254.7,498.2 L253.1,493.0 L249.1,488.3 L246.2,488.3 L242.3,490.4 L237.9,490.0 L235.3,487.4 L233.4,490.4 L227.8,489.1 L223.7,486.6 L220.6,486.2 L219.2,478.7 L223.0,473.8 L231.9,467.6 L234.5,464.3 L235.7,459.6 L234.8,457.9 L230.4,457.0 L235.5,452.7 L240.2,451.8 L243.4,448.9 L247.1,448.2 L248.6,445.5 L252.5,446.3 L258.0,444.9 L261.7,448.6 L266.8,450.4 L272.1,456.1 L274.5,452.5 L269.6,447.0 L270.2,443.7 L262.5,439.6 L260.7,437.3 L262.3,434.8 L263.9,428.0 L267.4,425.5 L272.8,422.2 L277.3,422.7 L276.6,426.1 L278.4,428.4 L279.1,425.6 L281.9,424.9 L285.9,428.1 L286.2,432.7 L290.0,433.2 L293.9,430.1 L297.4,430.6 L302.2,437.1 L305.2,439.1 L310.6,439.2 L314.0,438.0 L316.6,434.8 L320.0,436.1 L326.8,436.2 L330.0,432.4 L336.3,430.0 L335.6,426.5 L338.5,426.7 L342.7,428.4 L345.0,431.4 L345.7,436.0 L348.0,438.0 L349.1,442.5 L350.6,444.7 L350.0,446.7 L352.2,450.3 L354.8,452.1 L358.7,451.8 L363.0,447.5 L368.1,446.3 L370.6,447.8 L371.0,451.4 L369.4,453.9 Z" fill="#CEE3F5" id="PT.EV" stroke="#6E6E6E" stroke-width="0.4">
  <desc xmlns="http://www.highcharts.com/svg/namespace">
    <labelrank>7</labelrank>
    <hasc>PT.EV</hasc>
    <alt-name>NULL</alt-name>
    <woe-id>2346568</woe-id>
    <subregion>NULL</subregion>
    <fips>PO08</fips>
    <postal-code>EV</postal-code>
    <name>Évora</name>
    <country>Portugal</country>
    <type-en>District</type-en>
    <region>Alentejo</region>
    <longitude>-7.88463</longitude>
    <woe-name>Évora</woe-name>
    <latitude>38.6036</latitude>
    <woe-label>Evora, PT, Portugal</woe-label>
    <type>Distrito</type>
    <hc-middle-x>0.53</hc-middle-x>
    <hc-middle-y>0.46</hc-middle-y>
    <hc-key>pt-ev</hc-key>
    <hc-a2>EV</hc-a2>
  </desc>
</path>

<path d="M202.6,583.7 L203.0,581.3 L202.3,573.6 L200.6,570.1 L197.1,569.4 L192.7,566.7 L195.7,563.8 L201.3,551.9 L203.3,542.4 L205.8,535.1 L204.7,519.3 L203.8,511.9 L201.1,506.5 L195.0,499.7 L191.2,496.4 L188.2,495.3 L189.9,493.6 L192.3,494.6 L196.2,498.1 L203.3,501.1 L203.5,502.9 L207.9,502.7 L218.5,505.7 L223.8,504.0 L217.9,503.2 L210.1,499.4 L208.6,496.4 L208.6,492.8 L210.1,489.9 L208.5,489.3 L206.3,484.1 L204.2,488.4 L202.0,489.9 L204.4,490.2 L205.5,492.2 L204.6,495.4 L199.9,494.6 L192.2,491.1 L187.0,492.1 L182.1,497.5 L183.0,498.2 L176.9,500.7 L166.6,501.8 L160.8,504.3 L157.6,503.4 L157.6,500.8 L162.0,496.2 L162.7,491.9 L162.8,485.5 L160.3,479.3 L157.1,474.2 L155.7,470.1 L157.6,469.0 L167.1,468.1 L171.0,471.2 L170.3,468.4 L176.9,466.5 L180.2,462.1 L188.6,455.6 L189.8,455.2 L190.6,455.3 L191.0,459.0 L194.1,460.2 L199.2,458.3 L205.1,461.3 L207.6,460.8 L209.2,458.7 L210.8,453.9 L213.9,447.8 L220.2,450.4 L224.5,448.7 L224.3,454.7 L225.5,456.3 L230.4,457.0 L234.8,457.9 L235.7,459.6 L234.5,464.3 L231.9,467.6 L223.0,473.8 L219.2,478.7 L220.6,486.2 L223.7,486.6 L227.8,489.1 L233.4,490.4 L235.3,487.4 L237.9,490.0 L242.3,490.4 L246.2,488.3 L249.1,488.3 L253.1,493.0 L254.7,498.2 L254.3,500.2 L257.1,502.2 L257.2,505.6 L255.5,509.7 L262.1,513.5 L267.0,514.7 L271.0,517.8 L273.6,523.4 L274.4,526.8 L273.9,530.5 L263.7,533.9 L262.5,536.4 L257.9,536.8 L256.8,541.1 L253.3,540.2 L251.2,541.3 L249.6,546.1 L247.2,545.6 L245.5,550.3 L246.2,553.1 L249.9,556.7 L255.3,558.9 L257.0,563.1 L256.3,572.9 L253.2,581.3 L250.0,579.5 L242.1,578.6 L232.5,580.3 L229.6,582.2 L227.0,586.0 L224.5,593.0 L221.6,593.5 L218.0,591.6 L215.1,593.1 L209.8,585.6 L207.9,584.9 L204.7,586.0 Z" fill="#CEE3F5" id="PT.SE" stroke="#6E6E6E" stroke-width="0.4">
  <desc xmlns="http://www.highcharts.com/svg/namespace">
    <labelrank>7</labelrank>
    <hasc>PT.SE</hasc>
    <alt-name>NULL</alt-name>
    <woe-id>2346577</woe-id>
    <subregion>NULL</subregion>
    <fips>PO19</fips>
    <postal-code>SE</postal-code>
    <name>Setúbal</name>
    <country>Portugal</country>
    <type-en>District</type-en>
    <region>Lisbon</region>
    <longitude>-8.573180000000001</longitude>
    <woe-name>NULL</woe-name>
    <latitude>38.2071</latitude>
    <woe-label>NULL</woe-label>
    <type>Distrito</type>
    <hc-middle-x>0.62</hc-middle-x>
    <hc-middle-y>0.63</hc-middle-y>
    <hc-key>pt-se</hc-key>
    <hc-a2>SE</hc-a2>
  </desc>
</path>

<path d="M334.3,334.1 L338.5,345.3 L345.3,352.8 L348.9,354.6 L350.8,358.7 L354.6,361.1 L359.0,362.2 L359.8,363.6 L359.3,369.5 L358.0,373.4 L358.6,379.2 L366.6,388.7 L365.1,394.0 L367.4,398.8 L375.5,402.1 L376.8,404.7 L375.6,409.8 L379.9,411.9 L383.6,409.9 L389.1,410.3 L393.3,413.5 L395.5,418.5 L394.8,420.9 L396.2,423.0 L391.2,432.7 L386.6,437.9 L388.1,440.5 L387.7,444.5 L382.6,448.4 L377.8,449.5 L374.8,453.4 L369.9,456.8 L369.4,453.9 L371.0,451.4 L370.6,447.8 L368.1,446.3 L363.0,447.5 L358.7,451.8 L354.8,452.1 L352.2,450.3 L350.0,446.7 L350.6,444.7 L349.1,442.5 L348.0,438.0 L345.7,436.0 L345.0,431.4 L342.7,428.4 L338.5,426.7 L335.6,426.5 L336.3,430.0 L330.0,432.4 L326.8,436.2 L320.0,436.1 L316.6,434.8 L314.0,438.0 L310.6,439.2 L305.2,439.1 L302.2,437.1 L297.4,430.6 L293.9,430.1 L290.0,433.2 L286.2,432.7 L285.9,428.1 L281.9,424.9 L279.1,425.6 L278.4,428.4 L276.6,426.1 L277.3,422.7 L272.8,422.2 L267.4,425.5 L261.3,422.8 L257.5,414.9 L253.0,412.1 L253.0,409.9 L257.5,403.6 L263.3,399.4 L272.0,391.6 L273.2,388.8 L275.5,387.2 L279.1,387.2 L283.2,382.3 L285.5,377.1 L291.3,373.0 L293.3,369.7 L292.7,367.9 L286.9,362.4 L289.2,356.5 L291.3,353.2 L294.6,351.0 L300.9,353.8 L302.4,355.4 L308.4,350.4 L313.1,344.8 L315.1,344.0 L318.0,338.8 L319.7,337.5 L325.7,338.9 L329.4,335.7 Z" fill="#CEE3F5" id="PT.PA" stroke="#6E6E6E" stroke-width="0.4">
  <desc xmlns="http://www.highcharts.com/svg/namespace">
    <labelrank>7</labelrank>
    <hasc>PT.PA</hasc>
    <alt-name>NULL</alt-name>
    <woe-id>2346574</woe-id>
    <subregion>NULL</subregion>
    <fips>PO16</fips>
    <postal-code>PA</postal-code>
    <name>Portalegre</name>
    <country>Portugal</country>
    <type-en>District</type-en>
    <region>Alentejo</region>
    <longitude>-7.65389</longitude>
    <woe-name>Portalegre</woe-name>
    <latitude>39.2822</latitude>
    <woe-label>Portalegre, PT, Portugal</woe-label>
    <type>Distrito</type>
    <hc-middle-x>0.47</hc-middle-x>
    <hc-middle-y>0.47</hc-middle-y>
    <hc-key>pt-pa</hc-key>
    <hc-a2>PA</hc-a2>
  </desc>
</path>

<path d="M308.4,350.4 L302.4,355.4 L300.9,353.8 L294.6,351.0 L291.3,353.2 L289.2,356.5 L286.9,362.4 L292.7,367.9 L293.3,369.7 L291.3,373.0 L285.5,377.1 L283.2,382.3 L279.1,387.2 L275.5,387.2 L273.2,388.8 L272.0,391.6 L263.3,399.4 L257.5,403.6 L253.0,409.9 L253.0,412.1 L257.5,414.9 L261.3,422.8 L267.4,425.5 L263.9,428.0 L262.3,434.8 L260.7,437.3 L262.5,439.6 L270.2,443.7 L269.6,447.0 L274.5,452.5 L272.1,456.1 L266.8,450.4 L261.7,448.6 L258.0,444.9 L252.5,446.3 L248.6,445.5 L247.1,448.2 L243.4,448.9 L240.2,451.8 L235.5,452.7 L230.4,457.0 L225.5,456.3 L224.3,454.7 L224.5,448.7 L220.2,450.4 L213.9,447.8 L210.8,453.9 L209.2,458.7 L207.6,460.8 L205.1,461.3 L199.2,458.3 L194.1,460.2 L191.0,459.0 L190.6,455.3 L189.9,452.2 L187.2,448.4 L187.3,446.7 L191.2,441.1 L194.9,431.3 L199.6,423.2 L198.2,421.1 L202.1,420.0 L205.0,415.9 L207.6,412.3 L204.8,414.3 L202.4,410.7 L196.6,406.5 L193.3,401.3 L196.1,399.9 L199.2,400.1 L202.3,398.3 L197.1,393.0 L196.3,391.0 L192.1,392.3 L184.8,390.1 L183.8,384.9 L183.0,378.1 L185.7,372.6 L189.7,370.2 L193.0,363.3 L197.5,360.7 L204.4,360.2 L209.5,360.7 L211.4,358.0 L210.9,353.6 L214.4,353.8 L217.8,349.2 L216.6,345.6 L215.5,338.9 L219.6,335.9 L220.4,331.7 L218.0,329.3 L217.5,323.2 L218.6,321.1 L223.4,319.1 L225.3,319.6 L228.5,318.4 L233.6,314.7 L239.0,312.6 L241.8,325.4 L251.7,321.9 L254.2,321.9 L253.7,318.3 L258.9,318.4 L259.5,320.5 L263.1,322.1 L264.2,324.2 L263.6,329.3 L264.1,336.7 L265.0,338.4 L270.8,340.7 L273.4,342.5 L279.3,342.3 L281.6,341.4 L280.6,336.3 L281.9,333.2 L283.1,326.3 L285.8,324.9 L291.6,326.1 L292.7,328.5 L293.2,335.8 L298.4,337.4 L301.9,339.8 L306.2,345.8 Z" fill="#CEE3F5" id="PT.SA" stroke="#6E6E6E" stroke-width="0.4">
  <desc xmlns="http://www.highcharts.com/svg/namespace">
    <labelrank>7</labelrank>
    <hasc>PT.SA</hasc>
    <alt-name>NULL</alt-name>
    <woe-id>2346576</woe-id>
    <subregion>NULL</subregion>
    <fips>PO18</fips>
    <postal-code>SA</postal-code>
    <name>Santarém</name>
    <country>Portugal</country>
    <type-en>District</type-en>
    <region>Alentejo</region>
    <longitude>-8.403779999999999</longitude>
    <woe-name>Santarém</woe-name>
    <latitude>39.291</latitude>
    <woe-label>Santarém, PT, Portugal</woe-label>
    <type>Distrito</type>
    <hc-middle-x>0.39</hc-middle-x>
    <hc-middle-y>0.73</hc-middle-y>
    <hc-key>pt-sa</hc-key>
    <hc-a2>SA</hc-a2>
  </desc>
</path>

<path d="M208.9,92.4 L207.8,89.2 L206.9,82.2 L204.5,72.1 L208.0,72.3 L215.4,69.7 L221.5,69.3 L223.1,67.7 L231.7,70.7 L233.5,67.6 L233.0,66.1 L234.6,63.5 L235.9,57.5 L238.0,56.1 L241.4,55.6 L246.8,52.7 L255.7,52.3 L258.2,51.4 L267.7,46.2 L269.4,46.0 L278.1,46.8 L282.4,45.6 L280.8,53.0 L277.9,59.6 L275.6,62.3 L282.1,61.8 L284.0,60.9 L288.8,64.2 L287.7,73.2 L292.9,75.2 L298.1,76.1 L301.1,75.2 L303.2,72.8 L306.5,77.0 L306.3,78.6 L302.2,84.7 L299.1,87.0 L297.2,90.0 L295.4,90.2 L293.5,94.7 L293.5,97.3 L290.7,101.7 L290.1,105.8 L288.7,108.8 L285.8,111.5 L284.0,111.9 L280.6,109.7 L276.3,108.5 L272.6,105.8 L272.4,103.8 L270.4,101.6 L265.3,99.8 L263.8,102.1 L258.7,105.1 L254.9,106.2 L252.6,104.9 L245.4,106.3 L241.3,104.9 L238.3,105.4 L233.2,108.2 L226.2,108.4 L224.3,104.2 L227.0,101.9 L223.1,99.0 L219.9,95.6 L216.3,95.2 L211.3,92.4 Z" fill="#CEE3F5" id="PT.BR" stroke="#6E6E6E" stroke-width="0.4">
  <desc xmlns="http://www.highcharts.com/svg/namespace">
    <labelrank>7</labelrank>
    <hasc>PT.BR</hasc>
    <alt-name>NULL</alt-name>
    <woe-id>2346564</woe-id>
    <subregion>NULL</subregion>
    <fips>PO04</fips>
    <postal-code>BR</postal-code>
    <name>Braga</name>
    <country>Portugal</country>
    <type-en>District</type-en>
    <region>Norte</region>
    <longitude>-8.318630000000001</longitude>
    <woe-name>Braga</woe-name>
    <latitude>41.5663</latitude>
    <woe-label>Braga, PT, Portugal</woe-label>
    <type>Distrito</type>
    <hc-middle-x>0.50</hc-middle-x>
    <hc-middle-y>0.47</hc-middle-y>
    <hc-key>pt-br</hc-key>
    <hc-a2>BR</hc-a2>
  </desc>
</path>

<path d="M146.7,385.3 L144.9,379.4 L141.2,375.5 L141.6,373.7 L146.3,375.2 L154.1,370.1 L158.2,368.3 L160.6,370.2 L161.8,368.9 L159.3,365.5 L164.3,358.6 L169.3,355.4 L174.1,347.0 L174.2,342.1 L175.5,338.5 L176.2,333.3 L184.6,311.5 L194.3,284.0 L200.0,286.9 L203.3,287.6 L208.1,285.4 L217.6,286.8 L222.6,291.1 L224.6,290.5 L226.2,287.8 L229.0,286.8 L230.4,287.9 L231.4,295.4 L232.3,296.6 L235.0,293.6 L241.1,289.0 L245.1,289.3 L247.9,296.5 L245.9,299.5 L251.7,298.2 L255.3,294.1 L258.0,294.6 L259.8,292.8 L257.5,288.6 L259.1,286.0 L263.5,282.1 L266.6,283.3 L269.8,279.1 L272.8,282.3 L272.4,288.4 L276.7,295.4 L274.6,298.3 L274.8,301.4 L272.8,305.4 L268.9,307.6 L266.6,310.4 L260.9,311.7 L258.3,316.2 L258.9,318.4 L253.7,318.3 L254.2,321.9 L251.7,321.9 L241.8,325.4 L239.0,312.6 L233.6,314.7 L228.5,318.4 L225.3,319.6 L223.4,319.1 L218.6,321.1 L217.5,323.2 L218.0,329.3 L220.4,331.7 L219.6,335.9 L215.5,338.9 L216.6,345.6 L217.8,349.2 L214.4,353.8 L210.9,353.6 L211.4,358.0 L209.5,360.7 L204.4,360.2 L197.5,360.7 L193.0,363.3 L189.7,370.2 L185.7,372.6 L183.0,378.1 L183.8,384.9 L176.2,383.1 L172.2,386.8 L169.7,391.0 L165.3,395.2 L163.6,393.6 L161.3,385.4 L159.7,382.7 L157.1,382.2 L151.8,385.3 Z" fill="#CEE3F5" id="PT.LE" stroke="#6E6E6E" stroke-width="0.4">
  <desc xmlns="http://www.highcharts.com/svg/namespace">
    <labelrank>7</labelrank>
    <hasc>PT.LE</hasc>
    <alt-name>NULL</alt-name>
    <woe-id>2346572</woe-id>
    <subregion>NULL</subregion>
    <fips>PO13</fips>
    <postal-code>LE</postal-code>
    <name>Leiria</name>
    <country>Portugal</country>
    <type-en>District</type-en>
    <region>Centro</region>
    <longitude>-8.758570000000001</longitude>
    <woe-name>Leiria</woe-name>
    <latitude>39.7583</latitude>
    <woe-label>Leiria, PT, Portugal</woe-label>
    <type>Distrito</type>
    <hc-middle-x>0.42</hc-middle-x>
    <hc-middle-y>0.48</hc-middle-y>
    <hc-key>pt-le</hc-key>
    <hc-a2>LE</hc-a2>
  </desc>
</path>

<path d="M367.3,35.2 L368.6,31.4 L368.1,25.1 L373.6,21.9 L380.0,26.5 L383.1,27.9 L389.0,24.5 L393.8,27.6 L396.7,28.1 L402.9,27.5 L405.3,26.0 L405.9,21.9 L409.0,22.4 L412.7,28.1 L415.8,28.9 L422.9,28.5 L426.3,27.4 L427.6,24.5 L430.1,25.5 L431.9,29.3 L431.2,35.1 L436.5,37.1 L435.3,39.7 L433.1,50.8 L431.4,54.5 L432.9,58.0 L433.8,63.2 L435.2,65.3 L438.1,66.3 L443.4,62.8 L453.0,64.3 L458.0,66.0 L462.6,68.9 L469.5,76.6 L461.6,88.0 L462.0,90.9 L458.2,97.2 L452.7,100.4 L452.4,103.0 L450.4,103.0 L447.3,108.3 L440.8,114.4 L434.0,117.8 L425.5,118.3 L420.8,125.2 L419.5,128.3 L416.0,131.5 L414.3,134.2 L413.8,140.0 L408.5,147.4 L399.4,147.3 L397.3,148.4 L391.2,147.9 L382.1,143.4 L379.7,138.4 L380.3,135.0 L376.8,133.0 L378.2,129.2 L373.3,132.5 L372.3,133.9 L367.0,133.1 L359.0,133.8 L353.0,133.0 L348.6,127.4 L345.5,126.3 L346.7,123.1 L349.5,122.2 L349.7,117.7 L351.6,115.3 L351.8,112.5 L353.6,110.6 L357.1,109.4 L353.8,107.0 L352.4,102.4 L352.4,95.7 L358.3,91.1 L361.2,85.5 L365.1,83.7 L363.5,80.2 L363.3,73.7 L366.5,62.4 L369.0,57.0 L371.2,54.3 L371.0,51.4 L369.2,48.8 L367.7,42.7 L368.1,38.5 Z" fill="#CEE3F5" id="PT.BA" stroke="#6E6E6E" stroke-width="0.4">
  <desc xmlns="http://www.highcharts.com/svg/namespace">
    <labelrank>7</labelrank>
    <hasc>PT.BA</hasc>
    <alt-name>Braganza</alt-name>
    <woe-id>2346565</woe-id>
    <subregion>NULL</subregion>
    <fips>PO05</fips>
    <postal-code>BA</postal-code>
    <name>Bragança</name>
    <country>Portugal</country>
    <type-en>District</type-en>
    <region>Norte</region>
    <longitude>-6.81935</longitude>
    <woe-name>Bragança</woe-name>
    <latitude>41.5188</latitude>
    <woe-label>Bragança, PT, Portugal</woe-label>
    <type>Distrito</type>
    <hc-middle-x>0.48</hc-middle-x>
    <hc-middle-y>0.41</hc-middle-y>
    <hc-key>pt-ba</hc-key>
    <hc-a2>BA</hc-a2>
  </desc>
</path>

<path d="M308.4,350.4 L306.2,345.8 L301.9,339.8 L298.4,337.4 L293.2,335.8 L292.7,328.5 L291.6,326.1 L285.8,324.9 L283.1,326.3 L281.9,333.2 L280.6,336.3 L281.6,341.4 L279.3,342.3 L273.4,342.5 L270.8,340.7 L265.0,338.4 L264.1,336.7 L263.6,329.3 L264.2,324.2 L263.1,322.1 L259.5,320.5 L258.9,318.4 L258.3,316.2 L260.9,311.7 L266.6,310.4 L268.9,307.6 L272.8,305.4 L274.8,301.4 L280.5,296.6 L284.6,296.0 L285.2,294.0 L289.3,292.6 L291.1,293.2 L293.7,290.3 L296.5,290.1 L298.8,284.4 L304.0,282.8 L307.9,285.2 L308.0,280.2 L309.0,279.1 L311.9,280.2 L314.8,277.9 L314.6,273.3 L308.9,268.3 L307.9,265.7 L310.4,259.3 L315.4,257.7 L319.3,254.8 L324.7,251.9 L329.0,246.5 L331.6,247.5 L335.0,246.7 L336.7,244.9 L339.0,239.7 L344.2,234.7 L348.3,238.0 L350.7,238.7 L355.2,237.6 L357.4,235.0 L363.0,235.0 L362.2,243.0 L361.0,246.6 L358.3,250.0 L358.1,251.8 L365.8,254.2 L370.4,252.4 L375.3,252.4 L377.4,251.1 L379.8,247.0 L383.4,251.4 L391.5,251.4 L397.3,255.5 L396.0,255.7 L388.8,260.8 L386.9,265.5 L388.6,272.1 L389.9,273.9 L393.9,274.6 L396.1,276.0 L399.9,281.1 L404.2,288.6 L402.4,291.6 L401.2,299.0 L399.9,300.3 L399.8,307.2 L396.9,312.5 L393.5,314.1 L392.0,316.6 L392.8,320.4 L390.8,325.2 L391.2,328.4 L388.5,332.0 L373.2,334.0 L369.9,333.9 L367.7,332.6 L361.7,333.0 L356.7,334.6 L334.1,333.7 L334.3,334.1 L329.4,335.7 L325.7,338.9 L319.7,337.5 L318.0,338.8 L315.1,344.0 L313.1,344.8 Z" fill="#CEE3F5" id="PT.CB" stroke="#6E6E6E" stroke-width="0.4">
  <desc xmlns="http://www.highcharts.com/svg/namespace">
    <labelrank>7</labelrank>
    <hasc>PT.CB</hasc>
    <alt-name>NULL</alt-name>
    <woe-id>2346566</woe-id>
    <subregion>NULL</subregion>
    <fips>PO06</fips>
    <postal-code>CB</postal-code>
    <name>Castelo Branco</name>
    <country>Portugal</country>
    <type-en>District</type-en>
    <region>Centro</region>
    <longitude>-7.58224</longitude>
    <woe-name>Castelo Branco</woe-name>
    <latitude>39.9984</latitude>
    <woe-label>Castelo Branco, PT, Portugal</woe-label>
    <type>Distrito</type>
    <hc-middle-x>0.67</hc-middle-x>
    <hc-middle-y>0.61</hc-middle-y>
    <hc-key>pt-cb</hc-key>
    <hc-a2>CB</hc-a2>
  </desc>
</path>

<path d="M397.3,148.4 L395.8,152.8 L397.1,156.0 L401.8,161.7 L405.9,171.1 L408.5,172.3 L408.7,175.8 L407.0,176.3 L407.4,182.0 L407.2,189.4 L409.4,198.3 L409.7,202.4 L406.7,209.1 L406.3,213.5 L409.5,217.9 L409.9,221.9 L407.5,225.3 L405.7,230.1 L406.3,234.5 L408.8,238.4 L412.3,241.6 L410.6,244.9 L405.2,249.2 L403.9,254.0 L402.0,255.3 L397.3,255.5 L391.5,251.4 L383.4,251.4 L379.8,247.0 L377.4,251.1 L375.3,252.4 L370.4,252.4 L365.8,254.2 L358.1,251.8 L358.3,250.0 L361.0,246.6 L362.2,243.0 L363.0,235.0 L357.4,235.0 L355.2,237.6 L350.7,238.7 L348.3,238.0 L344.2,234.7 L339.0,239.7 L336.7,244.9 L335.0,246.7 L331.6,247.5 L329.0,246.5 L324.7,251.9 L319.3,254.8 L315.4,257.7 L310.4,259.3 L308.8,257.0 L306.0,255.4 L307.7,250.6 L311.6,246.5 L309.3,242.5 L308.0,235.8 L304.6,233.5 L308.3,229.0 L305.9,223.5 L311.0,221.6 L316.8,218.6 L320.1,216.2 L324.4,214.5 L331.3,213.3 L330.8,210.5 L333.2,203.1 L334.6,201.4 L335.0,198.0 L331.0,194.2 L329.9,192.2 L331.3,189.0 L327.0,184.2 L330.6,174.9 L333.0,172.9 L338.1,174.6 L343.0,179.8 L344.6,179.8 L347.9,172.9 L346.8,166.6 L348.0,165.9 L351.9,166.8 L355.1,163.8 L355.8,159.0 L352.6,156.4 L352.1,153.5 L355.8,152.7 L355.3,149.1 L356.5,142.6 L359.0,133.8 L367.0,133.1 L372.3,133.9 L373.3,132.5 L378.2,129.2 L376.8,133.0 L380.3,135.0 L379.7,138.4 L382.1,143.4 L391.2,147.9 Z" fill="#CEE3F5" id="PT.GU" stroke="#6E6E6E" stroke-width="0.4">
  <desc xmlns="http://www.highcharts.com/svg/namespace">
    <labelrank>7</labelrank>
    <hasc>PT.GU</hasc>
    <alt-name>NULL</alt-name>
    <woe-id>2346571</woe-id>
    <subregion>NULL</subregion>
    <fips>PO11</fips>
    <postal-code>GU</postal-code>
    <name>Guarda</name>
    <country>Portugal</country>
    <type-en>District</type-en>
    <region>Centro</region>
    <longitude>-7.31624</longitude>
    <woe-name>Guarda</woe-name>
    <latitude>40.2918</latitude>
    <woe-label>Guarda, PT, Portugal</woe-label>
    <type>Distrito</type>
    <hc-middle-x>0.60</hc-middle-x>
    <hc-middle-y>0.44</hc-middle-y>
    <hc-key>pt-gu</hc-key>
    <hc-a2>GU</hc-a2>
  </desc>
</path>

<path d="M310.4,259.3 L307.9,265.7 L308.9,268.3 L314.6,273.3 L314.8,277.9 L311.9,280.2 L309.0,279.1 L308.0,280.2 L307.9,285.2 L304.0,282.8 L298.8,284.4 L296.5,290.1 L293.7,290.3 L291.1,293.2 L289.3,292.6 L285.2,294.0 L284.6,296.0 L280.5,296.6 L274.8,301.4 L274.6,298.3 L276.7,295.4 L272.4,288.4 L272.8,282.3 L269.8,279.1 L266.6,283.3 L263.5,282.1 L259.1,286.0 L257.5,288.6 L259.8,292.8 L258.0,294.6 L255.3,294.1 L251.7,298.2 L245.9,299.5 L247.9,296.5 L245.1,289.3 L241.1,289.0 L235.0,293.6 L232.3,296.6 L231.4,295.4 L230.4,287.9 L229.0,286.8 L226.2,287.8 L224.6,290.5 L222.6,291.1 L217.6,286.8 L208.1,285.4 L203.3,287.6 L200.0,286.9 L194.3,284.0 L197.9,273.6 L199.5,271.6 L202.4,274.2 L206.5,274.4 L205.2,272.9 L202.1,273.7 L200.0,270.6 L201.0,270.6 L205.0,272.6 L203.3,270.7 L196.8,269.3 L194.0,266.2 L193.9,263.3 L198.4,253.2 L205.5,226.4 L206.6,219.9 L218.2,231.9 L221.6,232.3 L222.8,228.7 L225.1,225.3 L229.0,228.0 L228.3,231.3 L228.7,235.1 L230.3,236.3 L235.7,233.9 L237.6,239.8 L237.0,242.7 L234.0,247.1 L234.6,251.4 L240.6,252.1 L246.6,244.3 L249.6,244.2 L251.7,240.5 L257.0,242.7 L264.2,247.4 L265.5,244.9 L269.8,244.0 L275.8,245.0 L283.7,239.2 L289.2,236.9 L295.6,232.6 L298.0,228.8 L303.8,224.0 L305.9,223.5 L308.3,229.0 L304.6,233.5 L308.0,235.8 L309.3,242.5 L311.6,246.5 L307.7,250.6 L306.0,255.4 L308.8,257.0 Z" fill="#CEE3F5" id="PT.CO" stroke="#6E6E6E" stroke-width="0.4">
  <desc xmlns="http://www.highcharts.com/svg/namespace">
    <labelrank>7</labelrank>
    <hasc>PT.CO</hasc>
    <alt-name>NULL</alt-name>
    <woe-id>2346567</woe-id>
    <subregion>NULL</subregion>
    <fips>PO07</fips>
    <postal-code>CO</postal-code>
    <name>Coimbra</name>
    <country>Portugal</country>
    <type-en>District</type-en>
    <region>Centro</region>
    <longitude>-8.32193</longitude>
    <woe-name>Coimbra</woe-name>
    <latitude>40.1645</latitude>
    <woe-label>Coimbra, PT, Portugal</woe-label>
    <type>Distrito</type>
    <hc-middle-x>0.31</hc-middle-x>
    <hc-middle-y>0.57</hc-middle-y>
    <hc-key>pt-co</hc-key>
    <hc-a2>CO</hc-a2>
  </desc>
</path>

<path d="M258.1,144.5 L257.3,146.3 L252.3,149.8 L250.3,149.1 L247.6,150.4 L248.2,153.5 L245.2,152.7 L241.9,148.2 L239.0,152.8 L237.1,153.4 L233.9,151.3 L227.8,153.6 L226.2,152.5 L220.7,153.3 L219.6,142.4 L219.7,137.7 L221.5,135.0 L217.7,134.0 L215.8,130.3 L214.4,125.6 L212.6,121.8 L213.1,120.0 L211.8,115.4 L211.9,111.2 L207.9,102.3 L207.8,96.8 L208.9,92.4 L211.3,92.4 L216.3,95.2 L219.9,95.6 L223.1,99.0 L227.0,101.9 L224.3,104.2 L226.2,108.4 L233.2,108.2 L238.3,105.4 L241.3,104.9 L245.4,106.3 L252.6,104.9 L254.9,106.2 L258.7,105.1 L263.8,102.1 L265.3,99.8 L270.4,101.6 L272.4,103.8 L272.6,105.8 L276.3,108.5 L280.6,109.7 L284.0,111.9 L285.8,111.5 L288.7,108.8 L290.1,105.8 L291.8,107.9 L292.6,111.4 L296.9,114.3 L296.9,118.1 L300.3,122.4 L298.9,127.8 L298.3,134.2 L293.8,137.1 L281.3,141.5 L278.4,141.7 L268.3,141.0 L264.9,141.8 Z" fill="#CEE3F5" id="PT.PO" stroke="#6E6E6E" stroke-width="0.4">
  <desc xmlns="http://www.highcharts.com/svg/namespace">
    <labelrank>7</labelrank>
    <hasc>PT.PO</hasc>
    <alt-name>Oporto</alt-name>
    <woe-id>2346575</woe-id>
    <subregion>NULL</subregion>
    <fips>PO17</fips>
    <postal-code>PO</postal-code>
    <name>Porto</name>
    <country>Portugal</country>
    <type-en>District</type-en>
    <region>Norte</region>
    <longitude>-8.33114</longitude>
    <woe-name>Porto</woe-name>
    <latitude>41.2118</latitude>
    <woe-label>Porto, PT, Portugal</woe-label>
    <type>Distrito</type>
    <hc-middle-x>0.47</hc-middle-x>
    <hc-middle-y>0.58</hc-middle-y>
    <hc-key>pt-po</hc-key>
    <hc-a2>PO</hc-a2>
  </desc>
</path>

<path d="M359.0,133.8 L356.5,142.6 L355.3,149.1 L355.8,152.7 L352.1,153.5 L352.6,156.4 L355.8,159.0 L355.1,163.8 L351.9,166.8 L348.0,165.9 L346.8,166.6 L347.9,172.9 L344.6,179.8 L343.0,179.8 L338.1,174.6 L333.0,172.9 L330.6,174.9 L327.0,184.2 L331.3,189.0 L329.9,192.2 L331.0,194.2 L335.0,198.0 L334.6,201.4 L333.2,203.1 L330.8,210.5 L331.3,213.3 L324.4,214.5 L320.1,216.2 L316.8,218.6 L311.0,221.6 L305.9,223.5 L303.8,224.0 L298.0,228.8 L295.6,232.6 L289.2,236.9 L283.7,239.2 L275.8,245.0 L269.8,244.0 L265.5,244.9 L264.2,247.4 L257.0,242.7 L251.7,240.5 L251.3,236.3 L254.2,231.8 L254.7,228.9 L253.7,225.3 L256.1,223.5 L261.7,221.3 L258.6,216.9 L256.8,211.5 L258.0,208.8 L262.2,207.2 L258.1,204.7 L257.3,199.1 L254.5,194.6 L255.4,190.8 L260.2,186.2 L263.3,179.4 L262.1,175.3 L267.3,175.5 L271.6,174.3 L275.9,175.5 L276.5,173.0 L274.5,164.4 L275.3,161.3 L278.6,156.6 L277.7,154.3 L275.0,157.9 L272.4,158.2 L264.8,154.5 L264.2,148.5 L258.1,144.5 L264.9,141.8 L268.3,141.0 L278.4,141.7 L281.3,141.5 L293.8,137.1 L298.3,134.2 L303.7,130.8 L307.1,131.1 L310.7,134.5 L314.4,135.1 L318.1,134.1 L322.5,131.3 L328.8,131.6 L333.5,130.9 L345.5,126.3 L348.6,127.4 L353.0,133.0 Z" fill="#CEE3F5" id="PT.VI" stroke="#6E6E6E" stroke-width="0.4">
  <desc xmlns="http://www.highcharts.com/svg/namespace">
    <labelrank>7</labelrank>
    <hasc>PT.VI</hasc>
    <alt-name>Vizeu</alt-name>
    <woe-id>2346580</woe-id>
    <subregion>NULL</subregion>
    <fips>PO22</fips>
    <postal-code>VI</postal-code>
    <name>Viseu</name>
    <country>Portugal</country>
    <type-en>District</type-en>
    <region>Centro</region>
    <longitude>-7.82745</longitude>
    <woe-name>Viseu</woe-name>
    <latitude>40.8417</latitude>
    <woe-label>Viseu, PT, Portugal</woe-label>
    <type>Distrito</type>
    <hc-middle-x>0.52</hc-middle-x>
    <hc-middle-y>0.38</hc-middle-y>
    <hc-key>pt-vi</hc-key>
    <hc-a2>VI</hc-a2>
  </desc>
</path>

<path d="M345.5,126.3 L333.5,130.9 L328.8,131.6 L322.5,131.3 L318.1,134.1 L314.4,135.1 L310.7,134.5 L307.1,131.1 L303.7,130.8 L298.3,134.2 L298.9,127.8 L300.3,122.4 L296.9,118.1 L296.9,114.3 L292.6,111.4 L291.8,107.9 L290.1,105.8 L290.7,101.7 L293.5,97.3 L293.5,94.7 L295.4,90.2 L297.2,90.0 L299.1,87.0 L302.2,84.7 L306.3,78.6 L306.5,77.0 L303.2,72.8 L301.1,75.2 L298.1,76.1 L292.9,75.2 L287.7,73.2 L288.8,64.2 L284.0,60.9 L282.1,61.8 L275.6,62.3 L277.9,59.6 L280.8,53.0 L282.4,45.6 L288.2,39.1 L293.1,38.7 L295.0,33.1 L297.0,32.3 L298.0,39.9 L301.2,39.9 L302.7,37.5 L306.5,37.3 L312.7,35.7 L315.6,34.2 L321.7,37.5 L327.1,37.7 L325.7,43.2 L329.1,44.3 L334.8,42.1 L337.2,38.8 L341.1,40.4 L343.8,46.7 L347.6,42.7 L350.4,41.5 L355.9,41.2 L363.1,38.7 L367.3,35.2 L368.1,38.5 L367.7,42.7 L369.2,48.8 L371.0,51.4 L371.2,54.3 L369.0,57.0 L366.5,62.4 L363.3,73.7 L363.5,80.2 L365.1,83.7 L361.2,85.5 L358.3,91.1 L352.4,95.7 L352.4,102.4 L353.8,107.0 L357.1,109.4 L353.6,110.6 L351.8,112.5 L351.6,115.3 L349.7,117.7 L349.5,122.2 L346.7,123.1 Z" fill="#CEE3F5" id="PT.VR" stroke="#6E6E6E" stroke-width="0.4">
  <desc xmlns="http://www.highcharts.com/svg/namespace">
    <labelrank>7</labelrank>
    <hasc>PT.VR</hasc>
    <alt-name>Villa Real</alt-name>
    <woe-id>2346579</woe-id>
    <subregion>NULL</subregion>
    <fips>PO21</fips>
    <postal-code>VR</postal-code>
    <name>Vila Real</name>
    <country>Portugal</country>
    <type-en>District</type-en>
    <region>Norte</region>
    <longitude>-7.64533</longitude>
    <woe-name>Vila Real</woe-name>
    <latitude>41.5279</latitude>
    <woe-label>Vila Real, PT, Portugal</woe-label>
    <type>Distrito</type>
    <hc-middle-x>0.46</hc-middle-x>
    <hc-middle-y>0.38</hc-middle-y>
    <hc-key>pt-vr</hc-key>
    <hc-a2>VR</hc-a2>
  </desc>
</path>
<g id="PT">
  <desc xmlns="http://www.highcharts.com/svg/namespace">
    <name>Portugal</name>
    <labelrank>2</labelrank>
    <country-abbrev>Port.</country-abbrev>
    <subregion>Southern Europe</subregion>
    <region-wb>Europe &amp; Central Asia</region-wb>
    <iso-a3>PRT</iso-a3>
    <iso-a2>PT</iso-a2>
    <woe-id>23424925</woe-id>
    <continent>Europe</continent>
    <hc-key>pt</hc-key>
    <hc-a2>PO</hc-a2>
  </desc>
</g>

<path d="M68.615,585.151 L68.826,587.597 L66.391,582.845 L65.770,581.934 L65.332,580.995 L65.091,579.974 L65.054,578.826 L66.325,580.197 L67.645,582.498 Z M24.743,553.203 L26.874,553.571 L29.064,553.294 L30.712,552.431 L31.943,551.991 L33.748,551.708 L36.827,551.641 L38.124,552.215 L40.391,554.207 L41.328,554.689 L45.235,558.183 L46.091,558.774 L47.022,559.068 L50.067,559.458 L51.424,559.954 L52.684,560.837 L53.526,560.331 L54.396,560.208 L55.224,560.470 L55.963,561.104 L54.565,561.348 L51.630,562.417 L50.583,562.623 L49.553,563.253 L46.702,566.312 L46.109,567.164 L44.457,569.879 L41.035,570.816 L37.157,570.728 L30.712,569.653 L17.853,562.989 L14.999,560.792 L12.490,558.220 L10.582,555.332 L10.028,553.620 L10.000,551.899 L10.569,550.603 L11.832,550.160 L12.378,549.737 L14.595,547.142 L15.340,546.798 L15.873,546.708 L16.447,546.894 L17.327,547.378 L18.099,548.136 L19.823,550.403 L20.606,550.918 L21.090,551.049 L22.777,551.741 Z M87.045,530.000 L88.668,531.035 L89.262,530.372 L88.993,533.143 L89.207,534.293 L90.000,535.049 L87.219,534.277 L86.029,534.207 L84.825,534.934 L83.709,536.127 L82.710,536.944 L81.578,537.076 L80.035,536.217 L80.086,535.569 L80.917,535.565 L81.596,535.238 L82.105,534.627 L83.339,531.659 L85.082,530.307 Z" fill="#CEE3F5" id="PT.MA" stroke="#6E6E6E" stroke-width="0.4">
  <desc xmlns="http://www.highcharts.com/svg/namespace">
    <labelrank>7</labelrank>
    <hasc>PT.MA</hasc>
    <alt-name>NULL</alt-name>
    <woe-id>2346570</woe-id>
    <subregion>NULL</subregion>
    <fips>PO10</fips>
    <postal-code>MA</postal-code>
    <name>Madeira</name>
    <country>Portugal</country>
    <type-en>Autonomous region</type-en>
    <region>NULL</region>
    <longitude>-16.9465</longitude>
    <woe-name>Madeira</woe-name>
    <latitude>32.7427</latitude>
    <woe-label>Madeira, PT, Portugal</woe-label>
    <type>Regiões autônoma</type>
    <hc-middle-x>0.31</hc-middle-x>
    <hc-middle-y>0.54</hc-middle-y>
    <hc-key>pt-ma</hc-key>
    <hc-a2>MA</hc-a2>
  </desc>
</path>
<g id="PT">
  <desc xmlns="http://www.highcharts.com/svg/namespace">
    <name>Portugal</name>
    <labelrank>2</labelrank>
    <country-abbrev>Port.</country-abbrev>
    <subregion>Southern Europe</subregion>
    <region-wb>Europe &amp; Central Asia</region-wb>
    <iso-a3>PRT</iso-a3>
    <iso-a2>PT</iso-a2>
    <woe-id>23424925</woe-id>
    <continent>Europe</continent>
    <hc-key>pt</hc-key>
    <hc-a2>PO</hc-a2>
  </desc>
</g>

<path d="M88.867,698.856 L88.865,699.248 L88.603,699.476 L88.130,699.335 L87.342,698.906 L86.849,698.941 L86.600,698.893 L86.524,698.693 L86.473,698.445 L86.336,698.211 L86.279,698.011 L86.465,697.860 L86.812,697.644 L87.364,697.607 L87.931,697.685 L88.318,697.811 L88.571,698.056 L88.762,698.431 Z M82.331,681.448 L84.085,682.041 L84.308,682.022 L84.731,681.834 L84.937,681.812 L85.055,681.886 L85.307,682.182 L85.437,682.300 L85.697,682.208 L87.231,682.046 L89.253,682.381 L89.759,682.705 L90.000,683.300 L89.919,683.954 L89.465,684.455 L88.880,684.601 L86.948,684.486 L86.277,684.541 L85.583,684.481 L84.948,684.326 L84.617,684.294 L84.346,684.371 L84.008,684.058 L83.664,683.826 L82.902,683.460 L81.652,683.160 L80.185,681.548 L79.831,680.763 L80.270,679.881 L81.380,679.995 L81.721,680.165 L82.134,680.680 L82.192,680.845 L82.164,681.059 L82.172,681.243 L82.225,681.380 Z M51.069,663.882 L51.066,664.323 L50.832,664.470 L50.398,664.378 L49.336,663.968 L49.014,663.918 L48.707,663.955 L48.099,664.245 L47.953,664.118 L47.872,663.868 L47.752,663.637 L47.462,663.464 L45.458,662.963 L45.142,663.039 L44.413,661.959 L44.208,661.335 L44.392,660.545 L44.907,660.257 L45.409,660.228 L46.399,660.481 L46.938,660.718 L48.146,661.912 L48.595,662.245 L48.755,662.380 L48.981,662.687 L49.116,662.777 L49.405,662.898 L50.247,663.432 L50.875,663.645 Z M43.316,660.412 L43.107,660.492 L42.945,660.449 L42.635,660.253 L42.460,660.229 L42.006,660.239 L41.825,660.205 L41.544,659.976 L41.310,659.337 L41.093,658.999 L40.540,658.460 L40.557,658.307 L41.048,658.332 L41.460,658.416 L41.658,658.428 L41.856,658.380 L42.009,658.275 L42.325,657.974 L42.478,657.893 L43.569,658.738 L43.822,659.111 L43.828,659.957 L43.725,659.956 L43.229,660.047 L43.081,660.111 L43.200,660.360 Z M49.654,658.038 L52.195,659.733 L53.958,661.299 L54.918,661.917 L55.385,662.317 L55.571,662.698 L55.315,662.733 L55.037,662.719 L54.489,662.574 L54.275,662.442 L53.868,662.101 L53.462,661.923 L53.245,661.778 L53.042,661.591 L52.885,661.385 L52.706,661.228 L52.313,661.208 L52.107,661.011 L51.883,661.099 L51.763,660.999 L51.590,660.625 L51.435,660.479 L50.091,659.656 L49.883,659.407 L49.714,658.872 L49.625,658.774 L49.393,658.784 L49.286,658.696 L49.267,658.622 L49.306,658.475 L49.099,658.333 L48.576,657.609 L48.553,657.474 L48.610,657.242 L48.840,657.405 L49.230,657.829 L49.412,657.942 Z M65.943,662.987 L65.871,663.141 L65.773,663.191 L65.329,663.291 L65.008,663.073 L64.061,662.862 L63.792,662.555 L63.571,662.719 L63.412,662.689 L63.113,662.408 L62.768,662.244 L62.409,662.138 L62.117,661.935 L61.836,661.535 L61.634,661.068 L61.576,660.666 L61.580,660.083 L61.995,659.727 L62.573,659.565 L63.064,659.569 L65.191,660.170 L65.555,660.436 L66.048,660.899 L66.417,661.401 L66.411,661.775 L66.326,661.943 L66.534,662.205 L66.537,662.377 L66.444,662.425 L66.108,662.486 L66.002,662.529 L65.946,662.668 Z M54.120,651.943 L54.237,652.073 L54.359,651.973 L54.511,652.323 L54.887,652.810 L55.054,653.100 L55.073,653.426 L54.868,653.600 L54.574,653.664 L54.324,653.648 L54.042,653.569 L53.757,653.444 L53.505,653.265 L53.319,653.021 L53.228,652.686 L53.309,652.429 L53.665,651.943 L53.827,651.876 L53.981,651.877 Z M11.853,633.918 L12.035,633.992 L12.249,633.926 L12.418,634.338 L12.447,634.677 L12.256,635.444 L12.043,635.823 L11.664,636.254 L11.295,636.481 L11.109,636.258 L10.814,636.311 L10.498,636.265 L10.227,636.145 L10.063,635.974 L10.000,635.692 L10.004,635.318 L10.090,634.989 L10.267,634.846 L10.277,634.521 L10.418,634.290 L10.610,634.054 L10.770,633.716 L10.940,633.462 L11.217,633.343 L11.524,633.333 L11.779,633.406 L11.610,633.622 L11.709,633.772 Z M13.862,631.241 L13.399,631.215 L13.411,631.093 L13.342,630.478 L13.312,630.379 L13.405,630.204 L13.569,630.068 L13.762,630.000 L13.935,630.023 L14.387,630.254 L14.278,630.790 Z" fill="#CEE3F5" id="PT.AC" stroke="#6E6E6E" stroke-width="0.4">
  <desc xmlns="http://www.highcharts.com/svg/namespace">
    <labelrank>7</labelrank>
    <hasc>PT.AC</hasc>
    <alt-name>Açores</alt-name>
    <woe-id>15021776</woe-id>
    <subregion>NULL</subregion>
    <fips>PO23</fips>
    <postal-code>AC</postal-code>
    <name>Azores</name>
    <country>Portugal</country>
    <type-en>Autonomous region</type-en>
    <region>NULL</region>
    <longitude>-28.0394</longitude>
    <woe-name>Azores</woe-name>
    <latitude>38.6351</latitude>
    <woe-label>Azores, PT, Portugal</woe-label>
    <type>Regiões autônoma</type>
    <hc-middle-x>0.95</hc-middle-x>
    <hc-middle-y>0.77</hc-middle-y>
    <hc-key>pt-ac</hc-key>
    <hc-a2>AC</hc-a2>
  </desc>
</path>
</g>

<text font-family="Verdana" font-size="8" stroke-opacity="0.6" text-anchor="middle" x="415" y="714">Copyright (c) 2023 Highsoft AS, Based on data from Natural Earth</text>

<g id="__separator_lines__"><path d="M0,514 L106,514 L106,700 M6,613 L102,613" fill="none" stroke="#551111" stroke-width="0.4" /></g></svg>