<?xml version="1.0" encoding="utf-8" standalone="no"?>
<!DOCTYPE svg PUBLIC "-//W3C//DTD SVG 1.1//EN" "http://www.w3.org/Graphics/SVG/1.1/DTD/svg11.dtd">
<svg version="1.1" viewBox="-5 -5 710 730" xmlns="http://www.w3.org/2000/svg" xmlns:xlink="http://www.w3.org/1999/xlink">
  <desc>
    Map version: 2.3.2
    Copyright (c) 2025 Highsoft AS, Based on data from Natural Earth
  </desc>
  <title>South Korea</title>
  <g id="admin1" stroke-width="0.72" fill="#D4E6F8" stroke="#666">
    <path id="kr-kg" d="M156.1,176.5 152.1,179.1 150.2,176.7 148.8,177 150.6,171.7 156.1,176.5 M189.2,176.2 187.2,177.5 184.8,176.5 184.9,173.2 187.6,171.1 190,171.4 191.4,173.7 189.2,176.2 M199.3,171.5 202.8,174.2 203.3,177.7 197.9,181.7 195.4,182 197.7,176.7 197.4,173.2 195.9,171 199.3,171.5 M109.7,120.1 109.1,120.4 108.5,116.9 111.1,117.8 109.7,120.1 M179.5,121.8 177.4,121.9 170.6,116.2 172.6,111.9 175.1,110.3 176.9,115.7 180.5,119.2 179.5,121.8 M170.5,101.6 172.4,102.8 176.3,103.2 176.5,106.6 174.6,108.1 168.1,107.2 164.9,108.1 164.5,106.6 167.4,101.5 170.5,101.6 M9.5,95.8 6.5,96.5 5.7,93.7 9.2,90.9 10.9,92.3 9.5,95.8 M184.3,122.8 179.7,113.9 179.9,105.3 183.9,100.8 185.8,100.4 190.5,105 193.7,106.7 195.5,110.1 194.6,113.7 195.9,117.4 195.8,123.1 197.2,125.8 195.8,126.6 194.6,129.3 192.1,129.9 190.3,128.2 188.9,129 183.5,129.2 179.4,125.3 182.6,124.6 184.3,122.8 M3.9,74.3 9.7,72.5 12.5,73.7 13.3,77.1 6.6,77.1 9.4,79.8 7.2,81.4 3,80.6 0,77.7 1.3,73.2 3.9,74.3 M238.5,221 242.6,218.1 243.4,215 242,213.1 246.8,211.2 247.1,209.7 240.8,211.4 239.9,212.6 240.1,216.7 236.9,218.3 233.4,217.7 229.4,215.3 225.8,211.5 224.5,208.1 230.7,207.5 229.4,205.7 233.5,206.8 230.8,199.5 231.6,196.1 229.5,196.8 228.1,203.2 222.1,203.5 217.4,201.9 217.3,195.2 220.1,191.1 223.5,189.7 229,189 229.2,185.3 225.5,187.8 223.2,186.9 222.7,184.3 218.2,186.9 214.4,190.8 212.2,191.9 210.5,190 212.7,186.7 208.7,187 209,183.9 212.8,182.2 213.8,180.1 210.1,179.8 208,175 213.4,174.2 217.7,176 219.3,175.3 219.2,178.1 221.8,179.4 222.9,175.4 224.7,172.8 230.1,173.7 229,171.9 225.2,170.1 219.2,169.5 215.9,168.5 211.5,165 211.3,163.4 214.8,159.2 220.2,156.8 222.8,150.8 220.2,148.1 219.2,142.5 213.3,136.5 203.3,136.6 199,128.9 197.7,120.5 196.5,109.7 198.3,107.7 203.9,109.9 208.6,108.7 210.5,111.2 209.7,120.8 212.8,123.5 219.2,125.5 211.5,119 213.9,111.7 212.6,107.7 213.4,99.4 210.8,100.6 210.3,89.4 211,86.3 216.8,84.4 221,81.2 230.1,68.1 237.6,61.4 241.3,52.9 242.6,51.3 249.7,55.7 254.3,63.7 255.5,63.5 260.1,68 263.8,69.8 265.2,67.8 265.3,63.5 266.4,61.4 267.6,64.4 272,65.5 275.7,61.7 278,62.3 276.1,66.3 276.2,68.8 279.4,71.3 283.2,72.3 287.5,70.8 291.4,71.4 293,75.1 293.4,81.2 294.6,84.6 297.2,86.6 301.9,86.7 303.3,90.5 307.2,91.9 309.5,95.6 308.9,100.9 300.3,107.1 299.9,113 301.1,117.7 298.1,121.2 299.2,122.8 302,121.9 301.4,127.1 300.1,131.4 302.4,133.4 308,133 318.9,139.2 327.4,141 330.1,144.3 323.5,152.1 323.3,157.9 316.7,171.4 311.9,182.6 306.1,192.9 302.9,196.7 296.6,207.9 294,209.7 291.4,208.5 287.5,213.9 283.2,216.8 282.1,220.6 274.2,223.8 269.5,225 264.6,224.3 260.6,220.8 256.1,218.7 247.4,222.3 238.5,221 M256.2,137.6 257.2,133.9 257.2,130.8 255.6,123.7 253.9,120.6 250.2,120.3 247,121 244.8,123.2 240.9,129.2 236.3,129.5 235.4,133.7 230.7,135.8 227.4,133.7 224.6,133.5 222.9,136.8 227.3,142.8 227.7,146.5 232.8,148.8 235.7,152.9 240.1,153.2 249,150.6 250.2,153.4 259,149.7 261.8,145.7 261,142.4 264,140.6 263.6,136.8 256.2,137.6Z">
    <desc xmlns="https://highcharts.com/docs/mc">
      <hc-group>admin1</hc-group>
      <hc-middle-x>0.81</hc-middle-x>
      <hc-middle-y>0.72</hc-middle-y>
      <hc-key>kr-kg</hc-key>
      <hc-a2>KG</hc-a2>
      <labelrank>6</labelrank>
      <hasc>KR.KG</hasc>
      <alt-name>Kyonggi-do|Keiki-do|Kyunggi</alt-name>
      <woe-id>2345969</woe-id>
      <subregion>null</subregion>
      <fips>KS13</fips>
      <postal-code>KG</postal-code>
      <name>Gyeonggi</name>
      <country>South Korea</country>
      <type-en>Province</type-en>
      <region>null</region>
      <longitude>127.205</longitude>
      <woe-name>Gyeonggi-do</woe-name>
      <latitude>37.2562</latitude>
      <woe-label>Kyeongki-Do, KR, South Korea</woe-label>
      <type>Do</type>
    </desc>
    </path>
    <path id="kr-cb" d="M165.6,386.6 165.4,388.3 160.3,392.4 160.2,389.1 162.3,387 165.6,386.6 M332.6,339.1 336.8,346.5 336.2,354.8 332.3,358.8 331.2,361.5 325.9,364.3 320.8,365.5 318.8,369.8 314.1,374.3 312.5,381.6 309.4,387.5 307.2,395.5 305.7,398.5 305.5,401.7 308.2,402.9 309.9,409 309.7,412.4 312.2,415.9 311.5,419.4 307,424.6 306.1,431.3 303.8,433.5 297.8,428.6 291,426.1 287.2,428.1 284,431.4 273.3,432.2 269.4,432.1 265.9,429.7 258.6,430.6 255.5,432.3 251.6,431.7 249.1,428.9 249.4,424.6 246.6,419.7 247.6,416 245.5,412.7 242.5,412.8 240.6,415.1 239.5,418.6 236.3,418.6 231.4,411.8 228.3,409.1 224.5,408.1 222.6,410.1 219.1,409.7 216.4,412.1 216.4,415.5 214,417.9 214.2,420.6 211.9,423.7 205.2,426.8 195.1,429.2 192.5,428.2 194.2,416.5 191.2,415.6 178.5,418.8 176.6,415.7 177.5,412.7 182.5,402.3 185,398.9 188.5,397.8 195.8,397 198.9,393.7 201,393.2 204.8,397.7 206.2,398.3 204,391.2 202.4,390.2 187.3,392.3 182.1,388.9 182.7,384.1 185.2,382.8 189.5,378.6 196.6,374.8 199.7,370.7 200.3,366.8 203.7,364.6 211.3,364.9 215.2,367.2 216.3,369.2 217.4,365.2 208,358.6 210.1,355.7 217,356 219.2,355.4 220.6,352.7 222.6,352.1 219.4,349.9 211.5,352.8 198.8,351.9 198.6,346.6 194.5,344.6 189.8,345.2 189.5,341.2 213,339.4 219.2,335.4 226.3,332.1 226.6,330.3 220.4,332 225.2,326.3 236.3,324.7 247.2,321.5 251.1,322.4 250,328.1 252.2,331.6 264.1,329 269.4,327.4 272.6,323.5 275.9,326.5 280.5,335.1 285.4,337.3 285.6,341.1 291.7,342 300.2,340.5 305.4,335.9 307.2,337.9 308.8,336.8 312.1,339.7 319.4,343.1 326.8,339.4 329.8,341.7 332.6,339.1Z">
    <desc xmlns="https://highcharts.com/docs/mc">
      <hc-group>admin1</hc-group>
      <hc-middle-x>0.51</hc-middle-x>
      <hc-middle-y>0.51</hc-middle-y>
      <hc-key>kr-cb</hc-key>
      <hc-a2>CB</hc-a2>
      <labelrank>6</labelrank>
      <hasc>KR.CB</hasc>
      <alt-name>Chollabuk-Do|Cholla-bukto|Jeonrabugdo|North Cholla|Zenra Hoku-do</alt-name>
      <woe-id>2345964</woe-id>
      <subregion>null</subregion>
      <fips>KS03</fips>
      <postal-code>CB</postal-code>
      <name>North Jeolla</name>
      <country>South Korea</country>
      <type-en>Province</type-en>
      <region>null</region>
      <longitude>127.081</longitude>
      <woe-name>Jeollabuk-do</woe-name>
      <latitude>35.679</latitude>
      <woe-label>Jeollabuk-Do, KR, South Korea</woe-label>
      <type>Do</type>
    </desc>
    </path>
    <path id="kr-kn" d="M372.8,517.9 375.2,517 374.3,519.2 369,520.6 367.8,517.7 369.4,515.2 372.8,517.9 M384.5,493.2 389.7,492.6 391,495.4 390.6,498.8 387.4,501 385.2,497.2 383.4,496.6 384.6,494.8 379.4,492.8 381.5,491.5 384.5,493.2 M369.7,496.1 365.9,494.1 368.3,491.1 371.7,494.2 369.7,496.1 M432.9,471.2 429.7,464.1 431.2,462.5 434.1,464.3 432.9,471.2 M479.5,429.5 477.4,435.9 478.1,438.4 475.2,444.4 472.1,449.2 463.5,439.5 462.8,436.6 460.8,435.4 455.5,436.3 452.1,439.5 450.9,447.2 446.9,453.2 446.4,452.7 442.2,459.8 440.7,459.9 440,454.7 438.3,459.9 428.6,459.7 427.5,456 426.6,459.6 423,459 421.9,456.8 419,457.9 419,452.3 417.6,452.2 416.8,455.4 412.3,451 410.2,451.8 410.2,446.4 408.5,442.6 405.9,445.8 408,453.4 411.1,458.6 410.8,461.5 413.7,462.5 408.6,463 406.1,459 400.4,456.9 395.2,457.5 395.5,460.6 385.7,463.9 383.8,469.4 394.5,463.8 396.3,463.7 397.5,469.1 395.2,471.6 389,472.5 391.1,474.8 390.3,484.5 392.2,485.1 393.3,482.8 394.7,484.5 390.5,490.6 384.9,491.1 385,489.1 388.5,488.1 380.4,486.7 378.7,483.5 382.3,481.9 379.9,477 376.3,482.1 373.9,482.3 371.6,479.2 368,478.2 366.3,480.4 366.1,484.3 358.9,484.1 357,483 356.6,479.9 350.9,479.4 349.5,477.8 350.1,475 349.9,465.4 351.6,459.3 346.8,465.3 344.3,465.5 346.2,470.1 342,470.9 339.2,472.6 336.3,467.3 334.7,474.8 332.5,476.7 327.4,476.2 325.9,476.9 323.3,475.2 321.7,468.7 315.1,461.4 313.1,456.3 308.1,451.8 306.7,449.2 306.4,442.3 305.4,439 303.2,436.4 303.8,433.5 306.1,431.3 307,424.6 311.5,419.4 312.2,415.9 309.7,412.4 309.9,409 308.2,402.9 305.5,401.7 305.7,398.5 307.2,395.5 309.4,387.5 312.5,381.6 314.1,374.3 318.8,369.8 320.8,365.5 325.9,364.3 331.2,361.5 332.3,358.8 336.2,354.8 337,357.7 341.1,360.5 341.6,362.6 346.5,363.5 349.5,365.9 355.6,366.1 358.3,367.1 365,376 368,378.6 366.6,384.6 368.2,390.6 381,391.1 386.6,394.5 389.5,395.2 395.2,392.3 398.1,392.8 400.8,389.2 403.2,387.3 404.1,394.5 406.7,397.7 410.1,399.9 417.9,398.7 424.6,401.5 428.6,401.7 432.1,399 435.1,398.2 437.7,395.4 441.6,393.8 448.8,396.3 451.7,395.3 452.2,400.5 449.5,405.8 451.2,409 457.7,410 460.5,412.1 465,417.3 473,422.1 473.7,425.7 476,428.1 479.5,429.5 M344.3,481.2 346.5,482.2 345.4,486.9 347.9,483.9 350.3,485.5 351.1,489.2 352.7,491.4 346.8,490.3 344.1,491.1 341,489.9 340.1,488.1 344.3,481.2 M344.8,507.7 341.1,508.8 338.9,501 335.7,501 333.7,507 329.7,505.9 328.6,500.9 325.8,491.3 325.7,486.7 329.3,483.2 329.8,480.4 333.6,477.6 337.4,481 336.3,484.3 333.9,486.8 334.8,490 338.6,492.6 339.8,494.9 347,493.1 351.4,494 351.9,495.5 350.6,499.8 350.8,504.1 349.3,505.2 350.2,507.8 348.1,509.4 344.8,507.7 M417.3,495.3 416.6,498.1 414.2,501.9 418.1,504.6 416.4,506.1 408.6,508.5 406.3,508.6 410,506 407.9,504.1 408.5,500.6 405.2,502.3 403.8,498.6 407.2,497.4 408.6,491.7 406,492.2 400.5,495.2 396.5,489.8 396.2,487.3 398.3,484.5 401.4,482.8 406.5,482.1 411,484.5 413,483.7 409.9,480.5 409.3,476.2 410.7,476.4 418.2,472.2 416.9,469.8 419.2,466.1 421,466.9 421.5,469.2 420.8,474 421.4,476.3 422.5,478.8 420.3,486.5 423.9,485.2 423.9,489 422.5,491.5 421,490.9 423.2,497.5 420.5,497.2 417.3,495.3Z">
    <desc xmlns="https://highcharts.com/docs/mc">
      <hc-group>admin1</hc-group>
      <hc-middle-x>0.35</hc-middle-x>
      <hc-middle-y>0.46</hc-middle-y>
      <hc-key>kr-kn</hc-key>
      <hc-a2>KN</hc-a2>
      <labelrank>6</labelrank>
      <hasc>KR.KN</hasc>
      <alt-name>Kyongsangnam-Do|Kyongsang-namdo|Keisho Nan-do|South Kyongsang</alt-name>
      <woe-id>2345967</woe-id>
      <subregion>null</subregion>
      <fips>KS20</fips>
      <postal-code>KN</postal-code>
      <name>South Gyeongsang</name>
      <country>South Korea</country>
      <type-en>Province</type-en>
      <region>null</region>
      <longitude>128.217</longitude>
      <woe-name>Gyeongsangnam-do</woe-name>
      <latitude>35.3192</latitude>
      <woe-label>Gyeongsangnam-Do, KR, South Korea</woe-label>
      <type>Do</type>
    </desc>
    </path>
    <path id="kr-2685" d="M163.7,602.1 161.9,603.5 160.9,605 159.4,602.3 163.7,602.1 M266.9,590.6 267,593.7 269.8,597.9 266.8,596.8 265,592.8 266.9,590.6 M33.8,585.6 32.3,585.5 29,582.8 30.2,579.7 32.3,581.4 33.8,585.6 M188.6,575.2 191.4,575 193.8,576.8 190.1,576.6 185.2,580.5 182,578.8 183,575 186.6,573.7 188.6,575.2 M199,581.8 196.2,580.6 197.1,571.7 199.8,572.6 198.8,575.7 200.6,578.3 199,581.8 M209.6,573.7 208.1,572.9 209.9,570 210.5,571.7 209.6,573.7 M226.6,576.2 223,578.2 219,575.1 220.3,571.5 224.5,570.6 227.2,573.9 226.6,576.2 M191,573.9 188.8,573.8 186.7,571.7 188,566.6 193.6,568.8 194.1,570.6 191,573.9 M263.5,570.4 259.4,571.1 260.3,568.3 263.3,566.1 263.5,570.4 M133.5,562.6 134.7,564.3 133.7,566.2 132.3,564.7 133.5,562.6 M131.5,554.6 137.5,555.7 137.5,558.1 133.2,559.2 130.3,557.1 131.5,554.6 M233.9,558.2 230.9,556.9 231.3,554.9 235.4,554.1 236.6,556.6 233.9,558.2 M127.7,551.1 132.1,551.5 134.3,554 127.7,552.9 127.7,551.1 M218.9,552.3 224.2,553.5 222.4,557.3 218.5,558.3 216.3,555.4 212.9,555.9 209.6,553.9 214.5,553.7 218.9,552.3 M240.7,551.7 244.1,551.6 246.1,554.5 243.7,554.8 239.8,557.5 241,555.2 238.3,552.9 234.8,551.8 238.9,548.8 240.7,551.7 M230.1,545.5 229.4,549.4 225.7,551.7 223.6,550.7 223.3,547.9 221.6,549.7 221.5,545.6 228.5,546.7 230.1,545.5 M264.9,549.1 263,548.7 262.7,546.5 263.7,546.1 264.9,549.1 M220.8,546 217.9,546.2 213.5,548.5 211.6,551.5 210.8,548.2 209.3,547.3 212.5,542.2 218.3,540.8 218.3,543.4 220.8,546 M240.6,538.6 242.8,539.8 243.9,543 242.7,545.7 241.9,543.1 240.4,543.7 238.7,539.5 240.6,538.6 M322.3,546.2 320.5,543.4 322.1,539.7 323.3,541.1 322.3,546.2 M288.3,538.8 290.8,538 293.6,542.6 289,545.2 284.6,540.1 285.3,537.5 288.3,538.8 M134.8,532.6 135.9,533 132.7,535.7 132.1,533.3 133.9,531 134.8,532.6 M287,531.9 289.8,533.8 289.2,536 285,536.8 283.7,534.6 285.4,534.3 283,531.8 284.6,528.8 287,531.9 M319.8,536 315.8,534.2 312.1,530 316.5,527.9 320.9,534 319.8,536 M308,524.6 310.7,524.7 306.5,527.4 304.6,525.5 306.9,523.2 308,524.6 M296.4,519.1 297.1,520.5 294.6,521.7 292.9,518.9 296.4,519.1 M113.9,514.3 113.3,516.6 109.8,517.5 107.9,514.1 113.9,514.3 M133,521.6 131.2,521.3 130.9,516.8 132.3,513.2 135.5,519.8 133,521.6 M126.7,513.7 126.6,515 123.4,512.6 125.8,511.9 126.7,513.7 M146.1,510.6 148,509.8 150.7,513.3 142.8,516.2 143.1,512.6 141.7,511.5 145.4,508.7 146.1,510.6 M68.8,503.2 71.5,504.4 65.7,511.7 64.3,507.7 66.5,503.5 68.8,503.2 M44.2,499.7 45.3,499.7 44.5,503.3 42.1,506.5 44.2,499.7 M129.3,507.5 126.8,510.1 121.8,507.9 120.5,505.9 127.5,501.1 129.6,504 129.3,507.5 M142.4,495.9 148.3,499.4 148.6,503.4 146.6,504.7 144.4,501.9 141.5,502.6 137.2,495.7 142.4,495.9 M146.6,496.7 145.4,497 139.7,493.5 145.9,491 147.9,493.1 146.6,496.7 M145.4,481.7 145.2,487.7 142.6,488.9 142.3,491.5 140,490.8 136.9,486.3 140.1,484.4 142.1,485 142.3,482.7 145.4,481.7 M314.3,482.9 316.7,483.7 314.3,486.3 311.4,485.2 314.3,482.9 M139.8,477.4 138.8,482.6 135.9,484.1 133.5,482.8 128.6,483.4 133.3,477.4 135.9,477.8 137.9,475.1 139.8,477.4 M156.6,477.3 154.4,477.5 154.1,475.2 157.4,475 156.6,477.3 M160,470.5 162.5,474.6 160.4,474.7 158.5,470.6 160,470.5 M158.3,469.5 156.7,469.5 157.7,465.7 159.5,467.6 158.3,469.5 M148.8,466.2 149.5,469 146.1,470.5 144,472.9 145.4,467.6 146.8,466.5 141.8,466.6 141,465.6 145,462.9 146.9,463.4 148.8,466.2 M146.2,458.6 149.4,459.3 149.2,463.1 144.5,459.8 146.2,458.6 M135.9,420.5 133.4,422.6 132.6,421 134.4,418.6 135.9,420.5 M202.3,545.2 205.9,547.9 208.3,555.4 211,559.7 207.8,558.8 206.7,559.9 202.1,558.3 202.9,555.7 199.4,555.3 197.5,553.5 197.2,548.8 198.6,546 202.3,545.2 M262.3,538.3 260.5,542.7 258.5,543.5 252.3,543.9 248.6,541.5 249.3,539.2 247.9,537.9 251.1,536.3 258,535.3 261.2,536.2 262.3,538.3 M161.2,544.2 150.8,549.5 145,550.1 143.5,548.6 145.3,546.3 141.7,543.4 141.6,546.2 139.4,543.5 140.9,539.2 144.1,535.7 147,535.6 149.8,530.8 157.6,528.5 157.5,524.9 154.8,522.6 157.3,521.5 161.7,524.4 162.7,526.5 166.4,525.5 169.5,531.9 168.6,537.5 166.5,542 164.5,544.1 161.7,541.4 161.2,544.2 M139.6,523.2 135,526.5 132.6,526.3 134.6,523.9 132.3,523.3 135.9,522.5 137.7,520.3 135.6,515 136.5,514.5 139.7,517.2 139.6,523.2 M324.1,517.6 323.8,521.4 321.9,524.2 319.5,523.6 315.7,519.7 316,515.8 318.5,513.7 319.7,509.7 318.3,506.9 322,506.8 321.5,510.9 324.1,517.6 M128.6,492.8 130.6,494.1 130.5,496.8 123.9,497 122.1,501.4 119.5,501.7 118,497.7 119.2,495 128.6,492.8 M162.1,477.2 167.2,480.1 164.4,482.1 164.3,484 168.6,485.1 168.7,487.8 166.5,489.7 166.2,487.2 162.8,485.3 156.6,486.6 154.8,485.2 159.2,483.7 162.1,480.3 162.1,477.2 M147.9,453.9 151.2,453 154.1,452.8 156.5,454.5 154.3,456.4 157.5,458.2 158.6,463.3 156.6,462.8 156.1,459.6 150.6,458.1 147.9,453.9 M146.4,455.4 143,458.3 142.1,459.5 136.8,457.9 138.4,452.6 141.6,451.3 143,448.7 147.2,447 148.8,447.5 144.7,450.4 146.4,455.4 M323.3,475.2 316.8,474.8 314.1,470.8 314.3,474.1 312,478.5 305.7,482.6 302.1,477 299.3,478 298.7,482.8 303.2,490.6 307.2,493.9 311.9,490 317.9,490.3 319.9,489.2 319.8,491.8 317,503.7 316.1,505.2 312.3,506.4 307,504.3 305,508.6 303.5,508.6 304.9,512.1 305.1,519 302.3,516.5 297.8,515.1 296.1,510.3 299.4,502.3 292.8,487.5 293.5,484.9 292.3,483.4 289.1,489.8 284.5,491.4 277.8,491.4 277.4,493 282.4,495.8 275.5,498.5 276,501 278,500.2 280.1,508 286.5,513 288.7,516.3 285,516.3 289.5,518.1 290.4,522.3 288.3,524.1 284.8,524.3 278.5,520.7 273.2,523.7 274.6,526.8 277,527.8 281.2,526.8 283.4,528.7 278.2,533.3 276.3,535.9 274.4,534.9 271.2,537.2 272.9,541 269.9,541 265.6,535.1 264.2,532 260.2,527.5 254.7,529.9 255.4,531.8 250.5,530.1 250.2,525.2 253.4,523.1 257.7,516.6 259.4,515.9 258.6,520.1 257,523.9 262.8,522.8 264.4,520.6 264.5,516.8 262.3,511.5 266.1,507.1 267.9,508.5 267.5,510.8 269,513.7 271.9,513.5 275,508.1 272.3,502.5 267.8,505 263.4,499.1 259.5,507 256.5,509.4 252.5,508.6 247.2,513.4 239.6,517.9 237.5,518.6 237.1,522.6 234.8,526.2 235.6,527.9 229.5,533.5 229.6,539 225.7,538.3 224.4,542.1 224.9,543.6 220.6,541 215.5,539.1 214.8,536.6 215.6,525.9 213.7,521.2 211.3,522.5 210,525.2 211,529.6 207.7,530.6 210.5,535.4 204.7,539 206.6,541.2 202.6,540.8 201.7,543.6 197.7,544.9 196,546.7 193.2,555.4 192.9,558.1 190.3,557.5 185.3,559 183.9,557.2 184.8,552.6 179.7,551.5 180.8,547.5 183.7,544.5 183.6,541.9 179.6,540.6 180.6,535.8 178.6,535.5 179.2,532.4 181.4,530.8 186.9,530.4 184,527.6 186.8,525.2 185.5,523.2 183.4,525 181.2,524.1 178.9,526.6 173.7,526.5 170.8,527.3 169.7,524 166.1,520.6 163.2,522.2 160.7,519.9 163.4,516 158.3,512.8 158.3,509.1 160.5,502.1 160.8,499 163.9,499.4 167.7,505.9 166.3,508.5 168.8,517.5 178.9,520.9 179.8,518.6 175.8,517.9 173.4,514.9 173.9,511.9 170.6,514.1 169.8,508.4 170.1,504.3 177.5,505.2 177.9,509.7 186.6,516.1 185,512.5 186.3,512.3 190.8,514.9 193.8,515 188.9,510.9 184,503.7 179.4,502.1 176.3,502.2 174.1,500.8 171.4,501.4 168.6,499.3 171.7,496.8 174.9,497.4 179,495.7 183.9,499.4 187,500.1 186.8,495.4 190.8,493.2 198.1,495 197.4,493.3 201.1,492.5 199.5,490.6 191.5,490.5 191.7,486.1 193.2,483.9 192.4,480.6 189.3,480.8 187.9,483.4 188.5,487 184.7,495.4 181.9,494.7 183.5,492 182.1,491.2 178.6,492.8 175.9,492.1 174.7,493.9 170.9,494.5 169.5,492.5 173.8,487 173.9,483.2 175.7,481.1 174.3,480 172.6,475.3 173,473.2 177.2,469.4 174.5,468.6 170.1,470.8 170.7,474.8 167.2,476.3 164.1,474.6 165.5,473.8 162.7,470.1 167.8,470.3 167.6,467.5 170.6,464.6 169.9,461.9 167,457.5 163.2,455 163.9,458 161.6,459.7 161.2,456.3 158.5,452.6 159.8,448.6 166.1,450.7 167.8,446.3 168.5,447.8 167.8,454.2 169.5,456.7 174.8,458.9 174.3,461.8 176.1,464.3 179,458.3 179.3,454 175.3,451.4 174.3,448.4 170.1,442.3 171.6,439.3 170.3,435.7 164.5,436.3 165.7,434.9 171.8,434 169.6,433 172.6,429 172,426.4 173.4,422.4 175.8,418.9 177.9,421.6 180.7,422.2 178.5,418.8 191.2,415.6 194.2,416.5 192.5,428.2 195.1,429.2 205.2,426.8 211.9,423.7 214.2,420.6 214,417.9 216.4,415.5 216.4,412.1 219.1,409.7 222.6,410.1 224.5,408.1 228.3,409.1 231.4,411.8 236.3,418.6 239.5,418.6 240.6,415.1 242.5,412.8 245.5,412.7 247.6,416 246.6,419.7 249.4,424.6 249.1,428.9 251.6,431.7 255.5,432.3 258.6,430.6 265.9,429.7 269.4,432.1 273.3,432.2 284,431.4 287.2,428.1 291,426.1 297.8,428.6 303.8,433.5 303.2,436.4 305.4,439 306.4,442.3 306.7,449.2 308.1,451.8 313.1,456.3 315.1,461.4 321.7,468.7 323.3,475.2 M221.9,444 227.7,447.6 234.2,448.8 238.5,443.3 236.5,437.3 231,435.2 225.3,436.5 221.5,435.4 219.2,437.5 221.9,444Z">
    <desc xmlns="https://highcharts.com/docs/mc">
      <hc-group>admin1</hc-group>
      <hc-middle-x>0.72</hc-middle-x>
      <hc-middle-y>0.32</hc-middle-y>
      <hc-key>kr-2685</hc-key>
      <hc-a2>SJ</hc-a2>
      <labelrank>6</labelrank>
      <hasc>KR.KJ</hasc>
      <alt-name>Kwangju|Kwangju-gwangyoksi</alt-name>
      <woe-id>2345972</woe-id>
      <subregion>null</subregion>
      <fips>KS18</fips>
      <postal-code>null</postal-code>
      <name>South Jeolla</name>
      <country>South Korea</country>
      <type-en>Metropolitan City</type-en>
      <region>null</region>
      <longitude>126.884</longitude>
      <woe-name>null</woe-name>
      <latitude>34.8166</latitude>
      <woe-label>Jeollanam-Do, KR, South Korea</woe-label>
      <type>Gwangyeoksi</type>
    </desc>
    </path>
    <path id="kr-pu" d="M461.2,462.8 460.3,463.9 455.9,460.1 457.8,457.9 460.5,460.6 461.2,462.8 M472.1,449.2 471.5,450.3 463.7,451 464.1,457.4 461.7,458.5 457.7,454.8 454.9,457.7 452.3,463.3 450.6,460.6 450.9,464.5 449.3,463.4 447.2,464.8 445.5,461 446.9,453.2 450.9,447.2 452.1,439.5 455.5,436.3 460.8,435.4 462.8,436.6 463.5,439.5 472.1,449.2Z">
    <desc xmlns="https://highcharts.com/docs/mc">
      <hc-group>admin1</hc-group>
      <hc-middle-x>0.89</hc-middle-x>
      <hc-middle-y>0.43</hc-middle-y>
      <hc-key>kr-pu</hc-key>
      <hc-a2>PU</hc-a2>
      <labelrank>9</labelrank>
      <hasc>KR.PU</hasc>
      <alt-name>Pusan|Busan Gwang'yeogsi|Pusan-gwangyoksi|Fusan</alt-name>
      <woe-id>2345968</woe-id>
      <subregion>null</subregion>
      <fips>KS10</fips>
      <postal-code>PU</postal-code>
      <name>Busan</name>
      <country>South Korea</country>
      <type-en>Metropolitan City</type-en>
      <region>null</region>
      <longitude>129.082</longitude>
      <woe-name>Busan</woe-name>
      <latitude>35.1928</latitude>
      <woe-label>Busan, KR, South Korea</woe-label>
      <type>Gwangyeoksi</type>
    </desc>
    </path>
    <path id="kr-2688" d="M336.2,354.8 336.8,346.5 332.6,339.1 337.8,337 340.4,330.6 342.3,327.9 341.9,320.5 344.5,318.3 349.3,319 348.1,312.2 345.7,310.5 340.4,311.7 335.4,308.2 332.9,307.3 328.6,308.3 328.1,302.1 332,297.2 330.2,292.8 331.4,282.6 334.4,277.9 329.4,270.4 325.2,269.7 324.1,266.6 327.2,265.7 331.1,261 331.9,256.9 338.9,253.1 341.2,249.7 345.2,251.5 352.6,252.7 349.1,247.2 352.5,239.6 356.2,240.6 359.7,237.2 364.6,239.4 367.6,239.7 368.9,235.5 371.4,232.5 376.9,237.4 378.5,240.6 382.1,241.8 390.9,238.2 392.5,233.1 390.4,230.6 395.2,222.5 400.6,217.5 402.8,216.8 410.6,209.8 414.5,208.1 419.7,210.6 425.5,211.5 426.5,205.7 425.7,202.5 430.5,198.9 433.3,199.2 434.8,201.7 438.6,203.1 438.6,207.6 444.6,204.1 446.8,205.8 453.4,206.1 457.2,207.8 462.8,205.6 469.5,208.4 470.6,211.4 468.1,213.2 465.1,212.1 461.4,214.1 460.6,217.4 461.1,221.5 463.2,224.8 466.6,226.4 468.5,231.5 473.1,233.8 480.7,234.4 480.3,237.3 482,239.1 479.5,245.9 481.1,255.5 479.9,258.6 487.2,261.3 490.5,259.8 495.1,260.6 495.7,265.9 497.1,271.3 497.7,276.6 497.1,287.7 496.5,290.1 493.2,294 491.5,298.8 491.1,314.5 493.4,318.9 494.8,326.7 496.2,328 495,331.2 491.1,333.5 491,335.3 496.5,341.2 498.6,341.5 501.4,339.4 508,332.1 509.3,329.9 511,331.2 512.8,338.4 507.4,348.5 506,360.8 503.3,368.5 503.5,373.3 500.7,381.7 497.8,387.9 499.5,391.1 491,389.2 481.2,391 478.1,389.5 476.8,384.3 469.4,381.9 461.3,384.1 457.7,386.8 459.4,390.3 451.7,395.3 448.8,396.3 441.6,393.8 437.7,395.4 435.1,398.2 432.1,399 428.6,401.7 424.6,401.5 417.9,398.7 410.1,399.9 406.7,397.7 404.1,394.5 403.2,387.3 400.8,389.2 398.1,392.8 395.2,392.3 389.5,395.2 386.6,394.5 381,391.1 368.2,390.6 366.6,384.6 368,378.6 365,376 358.3,367.1 355.6,366.1 349.5,365.9 346.5,363.5 341.6,362.6 341.1,360.5 337,357.7 336.2,354.8 M421.7,360.2 425.2,358.6 425.5,352.3 423.5,350.1 424.1,344.9 422.8,342.6 418.5,339.5 406.3,340.7 401.3,344.8 401.9,350.7 399,355.2 400.8,355.7 400.2,358.3 396.9,358.5 395.5,360.5 396.1,363 399.2,365.1 400.5,367.5 404.6,370.7 408.5,366.2 418,368.2 420.3,366.8 421.7,360.2 M649.3,142.8 647,149 642.5,149.5 638.1,146 637.5,143.4 640.2,140.1 647.5,138.2 649.4,139.5 649.3,142.8Z">
    <desc xmlns="https://highcharts.com/docs/mc">
      <hc-group>admin1</hc-group>
      <hc-middle-x>0.32</hc-middle-x>
      <hc-middle-y>0.67</hc-middle-y>
      <hc-key>kr-2688</hc-key>
      <hc-a2>NG</hc-a2>
      <labelrank>6</labelrank>
      <hasc>KR.TG</hasc>
      <alt-name>Taegu|Daegu Gwang'yeogsi|Taegu-gwangyoksi|Taikyu</alt-name>
      <woe-id>2345970</woe-id>
      <subregion>null</subregion>
      <fips>KS14</fips>
      <postal-code>null</postal-code>
      <name>North Gyeongsang</name>
      <country>South Korea</country>
      <type-en>Metropolitan City</type-en>
      <region>null</region>
      <longitude>128.708</longitude>
      <woe-name>Taegu-gwangyoksi</woe-name>
      <latitude>36.3396</latitude>
      <woe-label>Gyeongsangbuk-Do, KR, South Korea</woe-label>
      <type>Gwangyeoksi</type>
    </desc>
    </path>
    <path id="kr-sj" d="M278.3,277.1 275.9,276.9 264.2,279.8 257,281.6 247.5,279.6 250.1,275.4 250.2,255.7 252.8,249 267.5,255.2 265.4,259.7 265.5,261.8 263.6,269.5 271.4,268.1 279.3,268.8 278.3,277.1Z">
    <desc xmlns="https://highcharts.com/docs/mc">
      <hc-group>admin1</hc-group>
      <hc-middle-x>0.5</hc-middle-x>
      <hc-middle-y>0.73</hc-middle-y>
      <hc-key>kr-sj</hc-key>
      <hc-a2>SJ</hc-a2>
      <labelrank>9</labelrank>
      <hasc>KR.SJ</hasc>
      <alt-name>null</alt-name>
      <woe-id>-2345973</woe-id>
      <subregion>null</subregion>
      <fips>KS22</fips>
      <postal-code>SJ</postal-code>
      <name>Sejong</name>
      <country>South Korea</country>
      <type-en>Special self-governing city</type-en>
      <region>null</region>
      <longitude>127.229</longitude>
      <woe-name>null</woe-name>
      <latitude>36.4974</latitude>
      <woe-label>null</woe-label>
      <type>Teukbyeol-jachisi</type>
    </desc>
    </path>
    <path id="kr-tj" d="M264.2,279.8 275.9,276.9 278.3,277.1 280.6,281.8 280.1,284.1 283.3,285 286.7,284.3 287.9,282.6 290.5,285.1 291.6,290.9 288.1,301.7 279.1,307.7 273.9,309 271.9,301.9 271.5,292.5 269.7,288.7 264.2,279.8Z">
    <desc xmlns="https://highcharts.com/docs/mc">
      <hc-group>admin1</hc-group>
      <hc-middle-x>0.58</hc-middle-x>
      <hc-middle-y>0.44</hc-middle-y>
      <hc-key>kr-tj</hc-key>
      <hc-a2>TJ</hc-a2>
      <labelrank>9</labelrank>
      <hasc>KR.TJ</hasc>
      <alt-name>Daejeon Gwang'yeogsi|Taiden</alt-name>
      <woe-id>2345975</woe-id>
      <subregion>null</subregion>
      <fips>KS19</fips>
      <postal-code>TJ</postal-code>
      <name>Daejeon</name>
      <country>South Korea</country>
      <type-en>Metropolitan City</type-en>
      <region>null</region>
      <longitude>127.401</longitude>
      <woe-name>Daejeon</woe-name>
      <latitude>36.3563</latitude>
      <woe-label>Daejon, KR, South Korea</woe-label>
      <type>Gwangyeoksi</type>
    </desc>
    </path>
    <path id="kr-ul" d="M499.5,391.1 500.4,392.6 499.1,403.7 496.3,408.3 494.7,409.2 493.4,403.9 490.5,401.3 489.6,403.8 491.9,405.2 492,410.4 488.8,411.8 489.6,417.6 487.7,420.8 489.2,424.5 485,426.5 482,429.4 479.5,429.5 476,428.1 473.7,425.7 473,422.1 465,417.3 460.5,412.1 457.7,410 451.2,409 449.5,405.8 452.2,400.5 451.7,395.3 459.4,390.3 457.7,386.8 461.3,384.1 469.4,381.9 476.8,384.3 478.1,389.5 481.2,391 491,389.2 499.5,391.1Z">
    <desc xmlns="https://highcharts.com/docs/mc">
      <hc-group>admin1</hc-group>
      <hc-middle-x>0.48</hc-middle-x>
      <hc-middle-y>0.44</hc-middle-y>
      <hc-key>kr-ul</hc-key>
      <hc-a2>UL</hc-a2>
      <labelrank>6</labelrank>
      <hasc>KR.UL</hasc>
      <alt-name>Ulsan-gwangyoksi</alt-name>
      <woe-id>23701285</woe-id>
      <subregion>null</subregion>
      <fips>KS21</fips>
      <postal-code>UL</postal-code>
      <name>Ulsan</name>
      <country>South Korea</country>
      <type-en>Metropolitan City</type-en>
      <region>null</region>
      <longitude>129.232</longitude>
      <woe-name>Ulsan</woe-name>
      <latitude>35.4997</latitude>
      <woe-label>Ulsan, KR, South Korea</woe-label>
      <type>Metropolitan City</type>
    </desc>
    </path>
    <path id="kr-in" d="M177.4,146.6 184,142.9 189.6,142.7 191.7,141.7 192.6,138.8 199,141 200.3,142.6 201,144.2 193,147.2 190.8,149.5 186.3,152.8 183.9,152.6 181.8,149.5 180.1,150.5 177.4,146.6 M214.8,159.2 214.5,158.3 209.1,157.5 206.5,160.6 203.9,158.6 206.5,154.3 202.1,150.8 202.1,146.6 203.2,144.8 207.1,143.6 203.4,143.4 202.7,139.7 203.3,136.6 213.3,136.5 219.2,142.5 220.2,148.1 222.8,150.8 220.2,156.8 214.8,159.2Z">
    <desc xmlns="https://highcharts.com/docs/mc">
      <hc-group>admin1</hc-group>
      <hc-middle-x>0.62</hc-middle-x>
      <hc-middle-y>0.5</hc-middle-y>
      <hc-key>kr-in</hc-key>
      <hc-a2>IN</hc-a2>
      <labelrank>6</labelrank>
      <hasc>KR.IN</hasc>
      <alt-name>Inchon|IInch'on-gwangyoksi|Jinsen</alt-name>
      <woe-id>20069922</woe-id>
      <subregion>null</subregion>
      <fips>KS12</fips>
      <postal-code>IN</postal-code>
      <name>Incheon</name>
      <country>South Korea</country>
      <type-en>Metropolitan City</type-en>
      <region>Incheon</region>
      <longitude>126.507</longitude>
      <woe-name>Inch'on-gwangyoksi</woe-name>
      <latitude>37.4983</latitude>
      <woe-label>Incheon, KR, South Korea</woe-label>
      <type>Gwangyeoksi</type>
    </desc>
    </path>
    <path id="kr-kw" d="M242.6,51.3 248.9,46.1 255.5,42.1 262.5,39.5 269,38.9 272.3,39.4 285,38.5 294.6,41.5 303.7,39.6 323.5,38.2 328.2,42.3 335,41 345.7,41.7 352.7,41.2 359.7,38.8 366.3,34.6 371.8,29 376.2,22.1 377.5,18.1 378,13.5 377,6.8 380.5,3 386.2,0 393.9,15.4 397.2,25.8 406.1,43.6 413.1,62.4 417.9,69 419.3,72.8 443,106.9 457.5,122.9 458.5,131.5 462.1,133.5 466.2,145.5 470.5,150.1 475.2,159.3 478.1,162.8 480.2,168.8 485.2,174.3 486.8,178.8 488.3,188.6 490.3,194.1 495.6,201.4 496,203 493.9,207.3 495.5,224.2 496.5,229.5 500.1,240.5 500.4,245.8 499.3,250.8 495.1,260.6 490.5,259.8 487.2,261.3 479.9,258.6 481.1,255.5 479.5,245.9 482,239.1 480.3,237.3 480.7,234.4 473.1,233.8 468.5,231.5 466.6,226.4 463.2,224.8 461.1,221.5 460.6,217.4 461.4,214.1 465.1,212.1 468.1,213.2 470.6,211.4 469.5,208.4 462.8,205.6 457.2,207.8 453.4,206.1 446.8,205.8 444.6,204.1 438.6,207.6 438.6,203.1 434.8,201.7 433.3,199.2 430.5,198.9 425.7,202.5 426.5,205.7 425.5,211.5 419.7,210.6 414.5,208.1 410.3,205.8 405,204.9 399.7,201.2 390.6,202.6 387.9,198.7 387,195.7 382.1,196.3 377.9,197.7 374.5,195.5 376.3,192.8 379.2,190.7 380.5,188 372.7,186.5 366.9,184.3 362.5,187.2 359.9,186.6 354.4,190.1 351,190.9 349.7,186.3 345.8,182.1 340.5,183.9 338.5,186.3 339,192.5 335.4,195.5 330.5,194.3 327.3,195 328.3,188.7 317.2,190.1 306.1,192.9 311.9,182.6 316.7,171.4 323.3,157.9 323.5,152.1 330.1,144.3 327.4,141 318.9,139.2 308,133 302.4,133.4 300.1,131.4 301.4,127.1 302,121.9 299.2,122.8 298.1,121.2 301.1,117.7 299.9,113 300.3,107.1 308.9,100.9 309.5,95.6 307.2,91.9 303.3,90.5 301.9,86.7 297.2,86.6 294.6,84.6 293.4,81.2 293,75.1 291.4,71.4 287.5,70.8 283.2,72.3 279.4,71.3 276.2,68.8 276.1,66.3 278,62.3 275.7,61.7 272,65.5 267.6,64.4 266.4,61.4 265.3,63.5 265.2,67.8 263.8,69.8 260.1,68 255.5,63.5 254.3,63.7 249.7,55.7 242.6,51.3Z">
    <desc xmlns="https://highcharts.com/docs/mc">
      <hc-group>admin1</hc-group>
      <hc-middle-x>0.55</hc-middle-x>
      <hc-middle-y>0.47</hc-middle-y>
      <hc-key>kr-kw</hc-key>
      <hc-a2>KW</hc-a2>
      <labelrank>6</labelrank>
      <hasc>KR.KW</hasc>
      <alt-name>Kang-Won-Do|Gang'weondo|Kangwon-do|Kogen-do|South Kangwon</alt-name>
      <woe-id>2345966</woe-id>
      <subregion>null</subregion>
      <fips>KS06</fips>
      <postal-code>KW</postal-code>
      <name>Gangwon</name>
      <country>South Korea</country>
      <type-en>Province</type-en>
      <region>null</region>
      <longitude>128.22</longitude>
      <woe-name>Gangwon-do</woe-name>
      <latitude>37.7951</latitude>
      <woe-label>Kangwon-Do, KR, South Korea</woe-label>
      <type>Do</type>
    </desc>
    </path>
    <path id="kr-gn" d="M171.5,272.6 170.8,265 169.9,261.4 172.7,258.5 174.7,257.9 176.3,261 174.9,262.5 176.6,267.4 176.4,269.7 179,273.1 176.8,273.8 179,274.8 179.7,280 181.5,284.3 174.4,283.6 172.6,278.1 174.6,275.5 170.9,275.7 171.5,272.6 M267.5,255.2 252.8,249 250.2,255.7 250.1,275.4 247.5,279.6 257,281.6 264.2,279.8 269.7,288.7 271.5,292.5 271.9,301.9 273.9,309 279.1,307.7 288.1,301.7 291.6,290.9 294.8,287.8 297.6,289 290.9,300.8 289.5,305.7 289.5,313 293,312.4 299.2,315.5 300.3,319.4 300.1,323.9 300.9,328.3 305.4,335.9 300.2,340.5 291.7,342 285.6,341.1 285.4,337.3 280.5,335.1 275.9,326.5 272.6,323.5 269.4,327.4 264.1,329 252.2,331.6 250,328.1 251.1,322.4 247.2,321.5 236.3,324.7 225.2,326.3 220.4,332 218.2,332.6 214.2,335.7 207.6,337.9 206,337 204.8,333.3 201.4,327.9 202.8,326.8 199.5,324.8 197.2,320.6 190.9,317.5 188.8,317.8 187.7,321 187.5,316.6 194.4,313.9 198.8,315.4 196.4,311.7 193.1,310.8 191.7,309 195.4,300.3 195.9,297.9 189.8,295.5 191.5,294.1 196.1,293.1 196.5,290.1 191.4,289.4 188.7,286.6 190.1,285.8 188.6,282.8 192.7,281.2 194.8,278.4 201.2,276.3 195.1,276.1 191.2,280.2 188.6,279.2 187.2,272.8 190.5,268.8 186,267.2 184.9,259.9 190.6,259.1 191.5,256.1 187.8,253 190.4,250.4 189.5,248.6 187,248 187.4,244.3 189.8,243.9 187.7,240.3 183.6,243.3 184.1,248.5 183.6,254.4 181.4,258.5 175.5,255.4 176.9,245.9 175.7,245.2 176.2,241.9 173.4,240.8 171.3,246.1 168.9,246.1 172.3,253.3 171.2,255.4 172.9,257.7 169.9,258.8 167.8,261.2 167.2,257.6 168.8,254.5 165.8,249.4 166.8,246.8 166.1,243.3 161.3,247.7 157,249 154.6,248.3 154.3,244.7 159.8,244.2 158.8,240.1 154.2,237.6 153.2,242.4 151.3,245 151,237.5 154.1,233.3 155.2,230.5 157.1,235 160,235.2 157.9,231.5 160.8,232.5 162.9,230.7 158.6,229.7 160.3,225.3 158,223.3 158.2,221.5 162.6,219.2 162.1,223.3 166.1,223.7 167.5,222.1 168.3,212 170.6,211.4 170.3,215.9 171.9,222.3 169.5,225.6 170.2,229.2 167.3,231.3 168.2,234.3 172.1,232.5 175,234.6 172.3,227 173.4,225.7 176.1,228.6 176.6,227.2 180.3,225.9 177.4,224 181.5,220.3 181.2,215.3 177.6,214.8 175.3,213 177,212.5 177,209.3 173.5,208.8 176.5,207 179.7,208.2 179.4,206.3 185,207 185.7,208.7 183.5,212.3 184.1,214.5 187.3,213 188.3,216.8 186.8,219 186.6,224.8 188.5,228.1 192.5,214.4 195.5,217.4 197.5,221 199,221 196.6,215.2 190,207.9 191.3,206.8 195.8,211.2 198.1,210.7 197.5,209 194.1,207.5 192,205.5 191,200.5 192.8,200.5 203.8,208.5 204.8,210.3 203.2,213.2 204.4,216.1 204.1,219.4 206,216.6 205.7,213.4 207.8,209.5 213,209 217.5,210.6 221.4,214.1 221.5,216.8 219.7,222.5 224.1,219 225.2,222 224.7,230.3 226.4,236 224.3,237.6 226.5,240.4 228.8,233.9 228,230.7 232.3,231.7 227.8,225.4 236.5,222.5 238.5,221 247.4,222.3 256.1,218.7 260.6,220.8 264.6,224.3 269.5,225 275.9,233.7 275.8,236.5 277.5,240 275.6,246.3 273.7,246.5 267.5,255.2Z">
    <desc xmlns="https://highcharts.com/docs/mc">
      <hc-group>admin1</hc-group>
      <hc-middle-x>0.47</hc-middle-x>
      <hc-middle-y>0.48</hc-middle-y>
      <hc-key>kr-gn</hc-key>
      <hc-a2>GN</hc-a2>
      <labelrank>6</labelrank>
      <hasc>KR.GN</hasc>
      <alt-name>Chungchongnam-Do|Ch'ungch'ong-namdo|Chusei Nan-do|South Chungchong|Ch'ungch'ong-namdo</alt-name>
      <woe-id>2345973</woe-id>
      <subregion>null</subregion>
      <fips>KS17</fips>
      <postal-code>GN</postal-code>
      <name>South Chungcheong</name>
      <country>South Korea</country>
      <type-en>Province</type-en>
      <region>null</region>
      <longitude>126.874</longitude>
      <woe-name>Chungcheongnam-do</woe-name>
      <latitude>36.4602</latitude>
      <woe-label>Chungcheongnam-Do, KR, South Korea</woe-label>
      <type>Do</type>
    </desc>
    </path>
    <path id="kr-cj" d="M219.5,679.1 215.7,687.2 209.2,687.6 204.9,690.8 193.9,692.6 190.1,695.6 185.5,696.5 180.7,695.9 175.2,696.8 170.6,695.4 160.3,695.2 157,696.6 155,700 151.5,699.4 149.1,695.4 145.8,694.1 142.7,690.7 141.7,686.6 143.8,681.4 146.9,677 150.7,674.9 154.1,669.4 157.1,668.7 158.5,665.8 174.8,661.3 177.7,659 188.3,658.1 195.5,655.2 197.3,655.7 211.2,654.2 214.5,654.8 217.4,658 222.6,660.2 224.1,661.9 226.1,667.3 228.5,667.4 226.1,669 226.8,671.7 223.2,676.2 219.5,679.1Z">
    <desc xmlns="https://highcharts.com/docs/mc">
      <hc-group>admin1</hc-group>
      <hc-middle-x>0.5</hc-middle-x>
      <hc-middle-y>0.5</hc-middle-y>
      <hc-key>kr-cj</hc-key>
      <hc-a2>CJ</hc-a2>
      <labelrank>7</labelrank>
      <hasc>KR.CJ</hasc>
      <alt-name>Jeju-doQuelpart|Saishu-to|Cheju-do</alt-name>
      <woe-id>2345963</woe-id>
      <subregion>null</subregion>
      <fips>KS01</fips>
      <postal-code>CJ</postal-code>
      <name>Jeju</name>
      <country>South Korea</country>
      <type-en>Province</type-en>
      <region>null</region>
      <longitude>126.557</longitude>
      <woe-name>Jeju</woe-name>
      <latitude>33.3741</latitude>
      <woe-label>Jaeju-Do, KR, South Korea</woe-label>
      <type>Do</type>
    </desc>
    </path>
    <path id="kr-gb" d="M269.5,225 274.2,223.8 282.1,220.6 283.2,216.8 287.5,213.9 291.4,208.5 294,209.7 296.6,207.9 302.9,196.7 306.1,192.9 317.2,190.1 328.3,188.7 327.3,195 330.5,194.3 335.4,195.5 339,192.5 338.5,186.3 340.5,183.9 345.8,182.1 349.7,186.3 351,190.9 354.4,190.1 359.9,186.6 362.5,187.2 366.9,184.3 372.7,186.5 380.5,188 379.2,190.7 376.3,192.8 374.5,195.5 377.9,197.7 382.1,196.3 387,195.7 387.9,198.7 390.6,202.6 399.7,201.2 405,204.9 410.3,205.8 414.5,208.1 410.6,209.8 402.8,216.8 400.6,217.5 395.2,222.5 390.4,230.6 392.5,233.1 390.9,238.2 382.1,241.8 378.5,240.6 376.9,237.4 371.4,232.5 368.9,235.5 367.6,239.7 364.6,239.4 359.7,237.2 356.2,240.6 352.5,239.6 349.1,247.2 352.6,252.7 345.2,251.5 341.2,249.7 338.9,253.1 331.9,256.9 331.1,261 327.2,265.7 324.1,266.6 325.2,269.7 329.4,270.4 334.4,277.9 331.4,282.6 330.2,292.8 332,297.2 328.1,302.1 328.6,308.3 332.9,307.3 335.4,308.2 340.4,311.7 345.7,310.5 348.1,312.2 349.3,319 344.5,318.3 341.9,320.5 342.3,327.9 340.4,330.6 337.8,337 332.6,339.1 329.8,341.7 326.8,339.4 319.4,343.1 312.1,339.7 308.8,336.8 307.2,337.9 305.4,335.9 300.9,328.3 300.1,323.9 300.3,319.4 299.2,315.5 293,312.4 289.5,313 289.5,305.7 290.9,300.8 297.6,289 294.8,287.8 291.6,290.9 290.5,285.1 287.9,282.6 286.7,284.3 283.3,285 280.1,284.1 280.6,281.8 278.3,277.1 279.3,268.8 271.4,268.1 263.6,269.5 265.5,261.8 265.4,259.7 267.5,255.2 273.7,246.5 275.6,246.3 277.5,240 275.8,236.5 275.9,233.7 269.5,225Z">
    <desc xmlns="https://highcharts.com/docs/mc">
      <hc-group>admin1</hc-group>
      <hc-middle-x>0.4</hc-middle-x>
      <hc-middle-y>0.31</hc-middle-y>
      <hc-key>kr-gb</hc-key>
      <hc-a2>GB</hc-a2>
      <labelrank>6</labelrank>
      <hasc>KR.GB</hasc>
      <alt-name>Chungchongbuk-Do|Chungcheongbugdo|Ch'ungch'ong-bukto|Chusei Hoku-do|North Chungchong|Ch'ungch'ong-bukto</alt-name>
      <woe-id>2345965</woe-id>
      <subregion>null</subregion>
      <fips>KS05</fips>
      <postal-code>GB</postal-code>
      <name>North Chungcheong</name>
      <country>South Korea</country>
      <type-en>Province</type-en>
      <region>null</region>
      <longitude>127.668</longitude>
      <woe-name>Chungcheongbuk-do</woe-name>
      <latitude>36.7476</latitude>
      <woe-label>Chungcheongbuk-Do, KR, South Korea</woe-label>
      <type>Do</type>
    </desc>
    </path>
    <path id="kr-so" d="M256.2,137.6 263.6,136.8 264,140.6 261,142.4 261.8,145.7 259,149.7 250.2,153.4 249,150.6 240.1,153.2 235.7,152.9 232.8,148.8 227.7,146.5 227.3,142.8 222.9,136.8 224.6,133.5 227.4,133.7 230.7,135.8 235.4,133.7 236.3,129.5 240.9,129.2 244.8,123.2 247,121 250.2,120.3 253.9,120.6 255.6,123.7 257.2,130.8 257.2,133.9 256.2,137.6Z">
    <desc xmlns="https://highcharts.com/docs/mc">
      <hc-group>admin1</hc-group>
      <hc-middle-x>0.53</hc-middle-x>
      <hc-middle-y>0.59</hc-middle-y>
      <hc-key>kr-so</hc-key>
      <hc-a2>SO</hc-a2>
      <labelrank>9</labelrank>
      <hasc>KR.SO</hasc>
      <alt-name>Keijo|Séoul|Seul|Seúl|Söul|Soul-t'ukpyolsi</alt-name>
      <woe-id>20069923</woe-id>
      <subregion>null</subregion>
      <fips>KS11</fips>
      <postal-code>SO</postal-code>
      <name>Seoul</name>
      <country>South Korea</country>
      <type-en>Capital Metropolitan City</type-en>
      <region>null</region>
      <longitude>126.994</longitude>
      <woe-name>Seoul</woe-name>
      <latitude>37.5408</latitude>
      <woe-label>Seoul, KR, South Korea</woe-label>
      <type>Teukbyeolsi</type>
    </desc>
    </path>
    <path id="kr-tg" d="M421.7,360.2 420.3,366.8 418,368.2 408.5,366.2 404.6,370.7 400.5,367.5 399.2,365.1 396.1,363 395.5,360.5 396.9,358.5 400.2,358.3 400.8,355.7 399,355.2 401.9,350.7 401.3,344.8 406.3,340.7 418.5,339.5 422.8,342.6 424.1,344.9 423.5,350.1 425.5,352.3 425.2,358.6 421.7,360.2Z">
    <desc xmlns="https://highcharts.com/docs/mc">
      <hc-group>admin1</hc-group>
      <hc-middle-x>0.49</hc-middle-x>
      <hc-middle-y>0.49</hc-middle-y>
      <hc-key>kr-tg</hc-key>
      <hc-a2>TG</hc-a2>
      <labelrank>6</labelrank>
      <hasc>KR.TG</hasc>
      <alt-name>Taegu|Daegu Gwang'yeogsi|Taegu-gwangyoksi|Taikyu</alt-name>
      <woe-id>2345971</woe-id>
      <subregion>null</subregion>
      <fips>KS15</fips>
      <postal-code>TG</postal-code>
      <name>Daegu</name>
      <country>South Korea</country>
      <type-en>Metropolitan City</type-en>
      <region>null</region>
      <longitude>128.631</longitude>
      <woe-name>Daegu</woe-name>
      <latitude>35.9034</latitude>
      <woe-label>Daegu, KR, South Korea</woe-label>
      <type>Gwangyeoksi</type>
    </desc>
    </path>
    <path id="kr-kj" d="M221.9,444 219.2,437.5 221.5,435.4 225.3,436.5 231,435.2 236.5,437.3 238.5,443.3 234.2,448.8 227.7,447.6 221.9,444Z">
    <desc xmlns="https://highcharts.com/docs/mc">
      <hc-group>admin1</hc-group>
      <hc-middle-x>0.49</hc-middle-x>
      <hc-middle-y>0.43</hc-middle-y>
      <hc-key>kr-kj</hc-key>
      <hc-a2>KJ</hc-a2>
      <labelrank>6</labelrank>
      <hasc>KR.KJ</hasc>
      <alt-name>Kwangju|Kwangju-gwangyoksi</alt-name>
      <woe-id>2345974</woe-id>
      <subregion>null</subregion>
      <fips>KS16</fips>
      <postal-code>KJ</postal-code>
      <name>Gwangju</name>
      <country>South Korea</country>
      <type-en>Metropolitan City</type-en>
      <region>null</region>
      <longitude>126.929</longitude>
      <woe-name>null</woe-name>
      <latitude>35.1989</latitude>
      <woe-label>Gwangju, KR, South Korea</woe-label>
      <type>Gwangyeoksi</type>
    </desc>
    </path>
  </g>
  <text x="50%" y="720" text-anchor="middle" font-family="Verdana" font-size="10px">Copyright (c) 2025 Highsoft AS, Based on data from Natural Earth</text>
</svg>