<?xml version="1.0" encoding="utf-8" standalone="no"?>
<!DOCTYPE svg PUBLIC "-//W3C//DTD SVG 1.1//EN" "http://www.w3.org/Graphics/SVG/1.1/DTD/svg11.dtd">

<svg version="1.1" height="700pt" width="700pt" xmlns="http://www.w3.org/2000/svg" xmlns:xlink="http://www.w3.org/1999/xlink">
<desc>
Map version: 2.1.0
Copyright (c) 2023 Highsoft AS, Based on data from Natural Earth
</desc>
<title>South Korea</title>
<g id="admin1">

<g id="KR">
  <desc xmlns="http://www.highcharts.com/svg/namespace">
    <name>South Korea</name>
    <labelrank>2</labelrank>
    <country-abbrev>S.K.</country-abbrev>
    <subregion>Eastern Asia</subregion>
    <region-wb>East Asia &amp; Pacific</region-wb>
    <iso-a3>KOR</iso-a3>
    <iso-a2>KR</iso-a2>
    <woe-id>23424868</woe-id>
    <continent>Asia</continent>
    <hc-key>kr</hc-key>
    <hc-a2>SK</hc-a2>
  </desc>
</g>

<path fill="#CEE3F5" stroke="#6E6E6E" stroke-width="0.4" id="KR.4194" d="M229.6,663.3 L227.6,663.6 L227.2,662.0 L228.4,659.6 Z M364.8,510.8 L362.4,509.8 L362.5,507.6 L364.7,508.1 Z M395.8,495.1 L398.3,500.0 L394.6,501.6 L393.4,498.1 L394.9,494.1 Z M365.0,491.7 L363.8,492.7 L362.0,489.9 L363.7,488.6 L368.2,489.7 Z M399.8,480.2 L399.5,480.4 L398.9,475.2 L401.0,473.9 Z M413.1,473.0 L411.6,474.1 L409.4,472.5 L411.6,469.0 L413.6,467.8 Z M183.6,360.1 L185.2,361.2 L181.6,362.3 L180.7,359.0 Z M174.1,293.9 L171.5,294.4 L173.1,290.8 L174.5,293.3 Z M181.4,287.8 L183.3,291.1 L176.7,289.2 L178.7,288.4 Z M169.6,172.1 L173.4,173.5 L173.1,175.3 L168.9,173.2 Z M185.3,159.1 L182.9,159.7 L181.6,156.4 L182.1,154.5 L185.6,157.7 Z M189.2,140.8 L185.4,139.6 L188.3,137.4 L189.7,138.3 Z M175.7,138.7 L173.1,135.2 L176.9,137.4 L179.0,138.7 Z M168.1,125.4 L166.0,124.3 L164.7,122.3 L167.4,122.1 Z M162.2,119.2 L161.5,121.6 L157.7,119.1 L161.6,117.9 Z">
  <desc xmlns="http://www.highcharts.com/svg/namespace">
    <labelrank>20</labelrank>
    <hasc>-99</hasc>
    <alt-name>NULL</alt-name>
    <woe-id>-99</woe-id>
    <subregion>NULL</subregion>
    <fips>NULL</fips>
    <postal-code>NULL</postal-code>
    <name>NULL</name>
    <country>South Korea</country>
    <type-en>NULL</type-en>
    <region>NULL</region>
    <longitude>126.592</longitude>
    <woe-name>NULL</woe-name>
    <latitude>34.1079</latitude>
    <woe-label>NULL</woe-label>
    <type>NULL</type>
    <hc-middle-x>0.93</hc-middle-x>
    <hc-middle-y>0.70</hc-middle-y>
    <hc-key>kr-4194</hc-key>
    <hc-a2>NU</hc-a2>
  </desc>
</path>

<path fill="#CEE3F5" stroke="#6E6E6E" stroke-width="0.4" id="KR.KG" d="M156.1,176.5 L152.1,179.1 L150.2,176.7 L148.8,177.0 L150.6,171.7 Z M189.2,176.2 L187.1,177.5 L184.8,176.5 L184.9,173.1 L187.6,171.1 L190.0,171.3 L191.4,173.7 Z M199.3,171.6 L202.8,174.2 L203.3,177.7 L197.9,181.8 L195.4,182.0 L197.8,176.7 L197.3,173.2 L195.9,171.0 Z M109.7,120.1 L109.1,120.4 L108.5,116.9 L111.1,117.8 Z M179.5,121.8 L177.4,121.8 L170.6,116.2 L172.6,112.0 L175.1,110.3 L176.9,115.7 L180.5,119.2 Z M170.5,101.6 L172.4,102.8 L176.3,103.2 L176.4,106.6 L174.6,108.1 L168.0,107.2 L164.9,108.1 L164.5,106.7 L167.4,101.5 Z M9.5,95.8 L6.5,96.4 L5.7,93.7 L9.2,90.9 L10.9,92.3 Z M184.3,122.8 L179.7,113.9 L180.0,105.3 L183.9,100.8 L185.8,100.4 L190.5,104.9 L193.7,106.7 L195.5,110.2 L194.6,113.7 L195.9,117.3 L195.8,123.1 L197.2,125.8 L195.8,126.6 L194.6,129.3 L192.1,129.9 L190.3,128.2 L188.9,129.1 L183.5,129.2 L179.4,125.3 L182.6,124.6 Z M3.9,74.3 L9.7,72.5 L12.5,73.7 L13.3,77.1 L6.7,77.1 L9.4,79.8 L7.2,81.4 L3.0,80.6 L0.0,77.8 L1.3,73.2 Z M238.5,221.0 L242.6,218.1 L243.3,215.0 L242.0,213.1 L246.8,211.2 L247.1,209.7 L240.8,211.4 L239.8,212.7 L240.1,216.7 L236.9,218.3 L233.4,217.8 L229.4,215.3 L225.8,211.6 L224.5,208.1 L230.7,207.5 L229.3,205.7 L233.5,206.8 L230.8,199.5 L231.6,196.1 L229.5,196.7 L228.1,203.1 L222.2,203.5 L217.4,201.9 L217.3,195.2 L220.1,191.1 L223.5,189.7 L229.0,189.0 L229.1,185.3 L225.5,187.8 L223.2,186.9 L222.7,184.3 L218.2,186.9 L214.4,190.8 L212.2,191.9 L210.5,190.0 L212.7,186.7 L208.7,187.0 L209.0,183.9 L212.8,182.2 L213.8,180.1 L210.1,179.8 L208.0,175.0 L213.4,174.2 L217.7,176.0 L219.3,175.3 L219.2,178.1 L221.8,179.3 L222.9,175.4 L224.7,172.8 L230.0,173.8 L229.0,171.9 L225.1,170.1 L219.1,169.6 L215.9,168.5 L211.5,164.9 L211.3,163.4 L214.8,159.2 L220.2,156.8 L222.8,150.9 L220.2,148.1 L219.3,142.5 L213.3,136.5 L203.3,136.6 L199.0,128.9 L197.7,120.4 L196.5,109.7 L198.3,107.8 L203.9,109.9 L208.6,108.7 L210.4,111.2 L209.7,120.7 L212.8,123.5 L219.2,125.5 L211.5,119.0 L213.9,111.7 L212.6,107.7 L213.4,99.5 L210.8,100.6 L210.3,89.4 L211.0,86.3 L216.8,84.4 L221.0,81.2 L230.1,68.0 L237.6,61.4 L241.3,52.9 L242.6,51.3 L249.7,55.7 L254.3,63.6 L255.5,63.5 L260.1,68.0 L263.8,69.8 L265.2,67.8 L265.3,63.5 L266.4,61.4 L267.6,64.4 L272.0,65.5 L275.7,61.7 L278.0,62.3 L276.2,66.3 L276.2,68.8 L279.3,71.3 L283.2,72.3 L287.6,70.9 L291.3,71.4 L292.9,75.1 L293.4,81.2 L294.6,84.7 L297.2,86.7 L301.9,86.7 L303.3,90.5 L307.2,91.9 L309.5,95.6 L308.9,100.9 L300.3,107.1 L299.8,113.0 L301.1,117.7 L298.0,121.2 L299.2,122.8 L302.0,121.9 L301.5,127.1 L300.1,131.4 L302.4,133.4 L308.0,133.0 L318.9,139.1 L327.4,140.9 L330.0,144.3 L323.5,152.0 L323.3,157.9 L316.7,171.4 L311.9,182.6 L306.2,192.9 L302.9,196.7 L296.6,208.0 L294.0,209.7 L291.4,208.5 L287.6,213.9 L283.2,216.8 L282.1,220.6 L274.2,223.8 L269.5,225.1 L264.6,224.3 L260.6,220.9 L256.2,218.7 L247.4,222.2 Z M256.2,137.6 L257.2,134.0 L257.2,130.8 L255.6,123.7 L253.9,120.7 L250.2,120.3 L247.0,121.0 L244.9,123.1 L240.9,129.1 L236.3,129.5 L235.4,133.8 L230.7,135.8 L227.4,133.7 L224.6,133.5 L222.9,136.7 L227.3,142.8 L227.7,146.5 L232.8,148.9 L235.7,152.9 L240.1,153.2 L249.1,150.6 L250.2,153.3 L258.9,149.7 L261.8,145.7 L261.0,142.4 L264.0,140.7 L263.6,136.8 Z">
  <desc xmlns="http://www.highcharts.com/svg/namespace">
    <labelrank>6</labelrank>
    <hasc>KR.KG</hasc>
    <alt-name>Kyonggi-do|Keiki-do|Kyunggi</alt-name>
    <woe-id>2345969</woe-id>
    <subregion>NULL</subregion>
    <fips>KS13</fips>
    <postal-code>KG</postal-code>
    <name>Gyeonggi</name>
    <country>South Korea</country>
    <type-en>Province</type-en>
    <region>NULL</region>
    <longitude>127.205</longitude>
    <woe-name>Gyeonggi-do</woe-name>
    <latitude>37.2562</latitude>
    <woe-label>Kyeongki-Do, KR, South Korea</woe-label>
    <type>Do</type>
    <hc-middle-x>0.81</hc-middle-x>
    <hc-middle-y>0.72</hc-middle-y>
    <hc-key>kr-kg</hc-key>
    <hc-a2>KG</hc-a2>
  </desc>
</path>

<path fill="#CEE3F5" stroke="#6E6E6E" stroke-width="0.4" id="KR.CB" d="M165.6,386.6 L165.4,388.3 L160.2,392.4 L160.2,389.1 L162.3,387.0 Z M332.6,339.1 L336.8,346.5 L336.2,354.8 L332.3,358.8 L331.2,361.6 L326.0,364.3 L320.9,365.5 L318.8,369.8 L314.1,374.2 L312.5,381.6 L309.4,387.5 L307.2,395.5 L305.6,398.5 L305.5,401.7 L308.2,402.9 L309.9,409.0 L309.6,412.4 L312.2,415.9 L311.5,419.4 L307.0,424.6 L306.1,431.3 L303.8,433.6 L297.8,428.6 L291.0,426.0 L287.2,428.1 L284.0,431.4 L273.3,432.2 L269.4,432.1 L266.0,429.7 L258.7,430.6 L255.6,432.3 L251.6,431.7 L249.1,428.9 L249.3,424.6 L246.6,419.7 L247.6,416.0 L245.6,412.7 L242.4,412.8 L240.6,415.1 L239.6,418.7 L236.3,418.6 L231.4,411.8 L228.2,409.1 L224.5,408.1 L222.7,410.1 L219.1,409.7 L216.4,412.0 L216.4,415.5 L214.0,417.9 L214.2,420.7 L211.9,423.7 L205.3,426.9 L195.1,429.2 L192.5,428.2 L194.2,416.5 L191.2,415.6 L178.5,418.9 L176.6,415.8 L177.5,412.7 L182.4,402.3 L185.0,398.9 L188.5,397.8 L195.8,397.0 L198.9,393.7 L201.0,393.2 L204.8,397.8 L206.2,398.3 L204.0,391.2 L202.4,390.2 L187.3,392.3 L182.2,388.9 L182.7,384.0 L185.2,382.9 L189.5,378.6 L196.6,374.7 L199.7,370.7 L200.2,366.8 L203.8,364.6 L211.3,364.9 L215.3,367.2 L216.3,369.2 L217.4,365.2 L208.0,358.7 L210.1,355.7 L216.9,356.0 L219.2,355.4 L220.7,352.7 L222.6,352.1 L219.4,349.9 L211.6,352.8 L198.8,351.9 L198.6,346.6 L194.5,344.6 L189.8,345.2 L189.5,341.2 L213.1,339.3 L219.3,335.4 L226.3,332.1 L226.6,330.2 L220.4,332.0 L225.2,326.3 L236.2,324.7 L247.2,321.5 L251.1,322.4 L250.0,328.1 L252.2,331.6 L264.1,329.0 L269.4,327.4 L272.6,323.5 L275.9,326.5 L280.5,335.1 L285.3,337.3 L285.6,341.1 L291.7,342.0 L300.2,340.5 L305.3,335.9 L307.2,337.9 L308.8,336.8 L312.1,339.8 L319.4,343.1 L326.8,339.4 L329.8,341.7 Z">
  <desc xmlns="http://www.highcharts.com/svg/namespace">
    <labelrank>6</labelrank>
    <hasc>KR.CB</hasc>
    <alt-name>Chollabuk-Do|Cholla-bukto|Jeonrabugdo|North Cholla|Zenra Hoku-do</alt-name>
    <woe-id>2345964</woe-id>
    <subregion>NULL</subregion>
    <fips>KS03</fips>
    <postal-code>CB</postal-code>
    <name>North Jeolla</name>
    <country>South Korea</country>
    <type-en>Province</type-en>
    <region>NULL</region>
    <longitude>127.081</longitude>
    <woe-name>Jeollabuk-do</woe-name>
    <latitude>35.679</latitude>
    <woe-label>Jeollabuk-Do, KR, South Korea</woe-label>
    <type>Do</type>
    <hc-middle-x>0.51</hc-middle-x>
    <hc-middle-y>0.51</hc-middle-y>
    <hc-key>kr-cb</hc-key>
    <hc-a2>CB</hc-a2>
  </desc>
</path>

<path fill="#CEE3F5" stroke="#6E6E6E" stroke-width="0.4" id="KR.KN" d="M372.7,517.9 L375.3,516.9 L374.3,519.2 L369.0,520.7 L367.8,517.8 L369.4,515.2 Z M384.5,493.2 L389.7,492.7 L391.0,495.4 L390.7,498.8 L387.3,501.0 L385.2,497.2 L383.3,496.6 L384.6,494.8 L379.4,492.8 L381.6,491.6 Z M369.7,496.1 L365.9,494.0 L368.2,491.1 L371.8,494.2 Z M432.9,471.2 L429.7,464.1 L431.1,462.5 L434.2,464.3 Z M479.5,429.5 L477.4,435.9 L478.1,438.4 L475.2,444.4 L472.1,449.2 L463.5,439.5 L462.9,436.7 L460.8,435.3 L455.6,436.2 L452.0,439.6 L450.9,447.2 L446.9,453.2 L446.4,452.7 L442.2,459.8 L440.7,459.9 L440.0,454.7 L438.3,459.9 L428.6,459.7 L427.5,456.0 L426.6,459.6 L423.0,459.0 L421.9,456.8 L418.9,457.9 L419.0,452.3 L417.6,452.2 L416.8,455.4 L412.3,450.9 L410.2,451.8 L410.2,446.4 L408.5,442.6 L406.0,445.8 L408.0,453.4 L411.1,458.6 L410.9,461.5 L413.8,462.4 L408.6,463.0 L406.1,459.0 L400.4,456.9 L395.2,457.5 L395.6,460.6 L385.7,463.9 L383.8,469.4 L394.5,463.8 L396.3,463.7 L397.5,469.1 L395.2,471.6 L389.0,472.5 L391.1,474.8 L390.3,484.5 L392.2,485.1 L393.3,482.8 L394.7,484.5 L390.5,490.6 L384.9,491.1 L384.9,489.1 L388.4,488.1 L380.4,486.7 L378.7,483.5 L382.3,481.9 L379.9,477.1 L376.3,482.1 L373.8,482.3 L371.6,479.2 L368.0,478.2 L366.3,480.4 L366.1,484.3 L358.9,484.1 L357.0,483.0 L356.6,479.9 L350.9,479.3 L349.5,477.8 L350.0,474.9 L350.0,465.3 L351.6,459.3 L346.9,465.3 L344.3,465.5 L346.2,470.1 L342.0,470.9 L339.2,472.6 L336.2,467.3 L334.7,474.7 L332.5,476.7 L327.5,476.2 L325.9,476.9 L323.3,475.3 L321.6,468.7 L315.1,461.4 L313.1,456.3 L308.1,451.8 L306.7,449.2 L306.4,442.3 L305.4,439.0 L303.2,436.4 L303.8,433.6 L306.1,431.3 L307.0,424.6 L311.5,419.4 L312.2,415.9 L309.6,412.4 L309.9,409.0 L308.2,402.9 L305.5,401.7 L305.6,398.5 L307.2,395.5 L309.4,387.5 L312.5,381.6 L314.1,374.2 L318.8,369.8 L320.9,365.5 L326.0,364.3 L331.2,361.6 L332.3,358.8 L336.2,354.8 L337.0,357.6 L341.1,360.5 L341.6,362.6 L346.5,363.5 L349.6,365.9 L355.6,366.2 L358.3,367.1 L365.0,376.0 L368.0,378.7 L366.6,384.6 L368.2,390.6 L381.0,391.1 L386.6,394.5 L389.6,395.1 L395.2,392.3 L398.1,392.9 L400.8,389.2 L403.2,387.3 L404.1,394.5 L406.7,397.7 L410.0,399.8 L417.9,398.7 L424.6,401.5 L428.6,401.7 L432.0,398.9 L435.1,398.2 L437.8,395.4 L441.6,393.8 L448.8,396.3 L451.8,395.3 L452.2,400.4 L449.6,405.8 L451.2,409.0 L457.7,410.0 L460.4,412.1 L465.0,417.3 L473.0,422.2 L473.7,425.8 L476.0,428.0 Z M344.2,481.2 L346.5,482.2 L345.4,486.9 L347.9,483.9 L350.3,485.5 L351.1,489.2 L352.7,491.3 L346.8,490.3 L344.1,491.1 L341.0,489.9 L340.1,488.1 Z M344.8,507.7 L341.1,508.8 L338.9,501.0 L335.8,501.0 L333.7,507.0 L329.6,505.8 L328.6,500.9 L325.8,491.3 L325.7,486.7 L329.3,483.2 L329.8,480.4 L333.6,477.6 L337.4,481.0 L336.3,484.3 L333.9,486.8 L334.8,490.0 L338.6,492.6 L339.8,494.9 L347.0,493.1 L351.3,494.0 L351.9,495.5 L350.6,499.8 L350.8,504.0 L349.3,505.2 L350.2,507.8 L348.1,509.4 Z M417.3,495.3 L416.6,498.1 L414.2,501.9 L418.1,504.6 L416.4,506.1 L408.6,508.5 L406.3,508.6 L410.0,506.0 L407.9,504.1 L408.5,500.7 L405.2,502.3 L403.8,498.7 L407.2,497.4 L408.6,491.7 L406.0,492.2 L400.5,495.2 L396.5,489.8 L396.2,487.3 L398.3,484.5 L401.3,482.8 L406.4,482.1 L411.0,484.4 L413.0,483.8 L409.9,480.5 L409.3,476.2 L410.7,476.4 L418.2,472.2 L416.9,469.8 L419.2,466.1 L421.1,466.9 L421.6,469.2 L420.8,474.0 L421.4,476.3 L422.5,478.8 L420.3,486.4 L423.9,485.2 L423.9,489.0 L422.4,491.5 L421.0,490.9 L423.2,497.6 L420.5,497.2 Z">
  <desc xmlns="http://www.highcharts.com/svg/namespace">
    <labelrank>6</labelrank>
    <hasc>KR.KN</hasc>
    <alt-name>Kyongsangnam-Do|Kyongsang-namdo|Keisho Nan-do|South Kyongsang</alt-name>
    <woe-id>2345967</woe-id>
    <subregion>NULL</subregion>
    <fips>KS20</fips>
    <postal-code>KN</postal-code>
    <name>South Gyeongsang</name>
    <country>South Korea</country>
    <type-en>Province</type-en>
    <region>NULL</region>
    <longitude>128.217</longitude>
    <woe-name>Gyeongsangnam-do</woe-name>
    <latitude>35.3192</latitude>
    <woe-label>Gyeongsangnam-Do, KR, South Korea</woe-label>
    <type>Do</type>
    <hc-middle-x>0.35</hc-middle-x>
    <hc-middle-y>0.46</hc-middle-y>
    <hc-key>kr-kn</hc-key>
    <hc-a2>KN</hc-a2>
  </desc>
</path>

<path fill="#CEE3F5" stroke="#6E6E6E" stroke-width="0.4" id="KR.2685" d="M163.6,602.0 L161.9,603.5 L160.9,605.0 L159.3,602.3 Z M266.9,590.6 L266.9,593.7 L269.8,597.9 L266.8,596.8 L265.0,592.8 Z M33.8,585.6 L32.2,585.6 L29.0,582.8 L30.2,579.7 L32.3,581.3 Z M188.7,575.2 L191.4,575.0 L193.8,576.8 L190.1,576.6 L185.2,580.5 L182.0,578.9 L183.0,575.0 L186.6,573.7 Z M199.0,581.8 L196.2,580.6 L197.1,571.6 L199.8,572.7 L198.8,575.8 L200.6,578.3 Z M209.6,573.7 L208.1,572.9 L209.9,570.0 L210.5,571.7 Z M226.6,576.2 L223.0,578.2 L219.0,575.1 L220.3,571.6 L224.5,570.6 L227.2,573.9 Z M191.0,573.8 L188.8,573.8 L186.7,571.7 L188.0,566.6 L193.6,568.8 L194.1,570.6 Z M263.5,570.4 L259.3,571.1 L260.3,568.3 L263.3,566.1 Z M133.6,562.6 L134.7,564.2 L133.7,566.2 L132.3,564.7 Z M131.6,554.7 L137.5,555.7 L137.5,558.1 L133.2,559.2 L130.2,557.1 Z M233.9,558.2 L230.9,556.9 L231.3,554.9 L235.4,554.1 L236.6,556.6 Z M127.7,551.1 L132.1,551.5 L134.2,554.0 L127.7,552.9 Z M218.9,552.3 L224.2,553.5 L222.4,557.3 L218.4,558.3 L216.4,555.4 L212.9,555.9 L209.6,553.9 L214.5,553.7 Z M240.7,551.7 L244.1,551.6 L246.1,554.4 L243.6,554.8 L239.8,557.5 L241.0,555.1 L238.3,552.9 L234.8,551.8 L238.9,548.8 Z M230.1,545.5 L229.4,549.4 L225.7,551.7 L223.6,550.7 L223.3,547.8 L221.6,549.7 L221.5,545.6 L228.5,546.7 Z M264.9,549.1 L262.9,548.7 L262.7,546.5 L263.6,546.1 Z M220.8,546.0 L217.9,546.2 L213.6,548.4 L211.6,551.5 L210.8,548.2 L209.3,547.3 L212.5,542.2 L218.3,540.9 L218.3,543.4 Z M240.6,538.6 L242.8,539.8 L243.9,543.1 L242.7,545.7 L241.9,543.1 L240.4,543.7 L238.7,539.5 Z M322.3,546.2 L320.5,543.4 L322.1,539.8 L323.3,541.1 Z M288.3,538.8 L290.8,538.0 L293.6,542.6 L289.1,545.2 L284.6,540.1 L285.3,537.6 Z M134.8,532.7 L135.9,533.1 L132.7,535.8 L132.1,533.3 L133.9,531.0 Z M287.1,531.9 L289.8,533.8 L289.2,536.0 L285.1,536.8 L283.7,534.7 L285.4,534.2 L283.0,531.8 L284.6,528.8 Z M319.8,536.0 L315.8,534.2 L312.1,530.0 L316.5,527.8 L320.9,534.0 Z M308.0,524.6 L310.7,524.7 L306.4,527.4 L304.6,525.5 L306.9,523.3 Z M296.4,519.1 L297.1,520.4 L294.6,521.7 L292.9,518.9 Z M113.9,514.3 L113.3,516.7 L109.8,517.5 L107.9,514.1 Z M133.1,521.6 L131.2,521.3 L130.9,516.8 L132.3,513.2 L135.5,519.8 Z M126.7,513.7 L126.7,515.1 L123.4,512.6 L125.8,512.0 Z M146.1,510.6 L148.0,509.8 L150.7,513.3 L142.8,516.2 L143.1,512.6 L141.7,511.5 L145.3,508.7 Z M68.8,503.2 L71.5,504.4 L65.7,511.8 L64.3,507.7 L66.5,503.6 Z M44.2,499.7 L45.3,499.8 L44.5,503.3 L42.1,506.5 Z M129.3,507.5 L126.8,510.2 L121.8,507.9 L120.4,505.9 L127.5,501.1 L129.6,504.0 Z M142.4,495.9 L148.3,499.3 L148.6,503.4 L146.6,504.7 L144.4,502.0 L141.5,502.6 L137.2,495.8 Z M146.7,496.7 L145.4,497.0 L139.7,493.5 L145.9,491.0 L147.9,493.1 Z M145.4,481.8 L145.2,487.8 L142.7,488.9 L142.3,491.6 L140.0,490.8 L136.9,486.3 L140.1,484.4 L142.1,485.0 L142.3,482.7 Z M314.3,482.9 L316.7,483.7 L314.3,486.3 L311.4,485.2 Z M139.8,477.4 L138.8,482.6 L135.9,484.1 L133.5,482.7 L128.7,483.4 L133.3,477.4 L135.9,477.8 L137.8,475.1 Z M156.7,477.3 L154.4,477.6 L154.1,475.2 L157.4,475.1 Z M160.0,470.5 L162.5,474.6 L160.4,474.7 L158.5,470.6 Z M158.3,469.5 L156.7,469.6 L157.8,465.7 L159.5,467.6 Z M148.9,466.2 L149.5,469.0 L146.1,470.5 L144.0,472.9 L145.3,467.6 L146.8,466.5 L141.8,466.6 L141.0,465.6 L145.0,462.9 L146.9,463.4 Z M146.2,458.6 L149.4,459.3 L149.1,463.1 L144.5,459.8 Z M135.9,420.5 L133.4,422.6 L132.6,421.0 L134.4,418.6 Z M202.3,545.2 L205.9,547.9 L208.3,555.4 L211.0,559.7 L207.8,558.8 L206.7,559.9 L202.1,558.3 L202.9,555.7 L199.4,555.3 L197.5,553.5 L197.3,548.8 L198.6,546.0 Z M262.4,538.3 L260.5,542.7 L258.5,543.5 L252.4,543.9 L248.6,541.5 L249.3,539.2 L247.9,538.0 L251.1,536.2 L258.0,535.3 L261.2,536.2 Z M161.1,544.2 L150.7,549.5 L145.0,550.1 L143.5,548.6 L145.3,546.3 L141.7,543.4 L141.6,546.2 L139.4,543.5 L140.9,539.2 L144.1,535.7 L147.1,535.6 L149.8,530.8 L157.6,528.5 L157.5,524.9 L154.8,522.6 L157.3,521.5 L161.7,524.4 L162.7,526.5 L166.4,525.5 L169.5,531.9 L168.7,537.6 L166.4,542.0 L164.5,544.1 L161.7,541.3 Z M139.6,523.2 L135.0,526.5 L132.6,526.2 L134.6,523.9 L132.3,523.3 L135.9,522.5 L137.7,520.3 L135.6,515.0 L136.4,514.5 L139.8,517.2 Z M324.1,517.6 L323.8,521.3 L321.9,524.2 L319.5,523.6 L315.8,519.7 L316.0,515.8 L318.5,513.7 L319.7,509.7 L318.3,506.9 L322.0,506.8 L321.5,510.9 Z M128.7,492.9 L130.6,494.1 L130.5,496.8 L123.9,497.0 L122.1,501.4 L119.5,501.8 L118.0,497.8 L119.2,495.0 Z M162.1,477.3 L167.1,480.2 L164.4,482.0 L164.3,484.0 L168.6,485.1 L168.7,487.8 L166.5,489.7 L166.2,487.2 L162.8,485.3 L156.6,486.6 L154.8,485.2 L159.2,483.8 L162.0,480.3 Z M147.9,453.9 L151.2,453.0 L154.1,452.9 L156.4,454.5 L154.2,456.4 L157.5,458.2 L158.6,463.3 L156.7,462.9 L156.0,459.6 L150.6,458.1 Z M146.4,455.4 L143.1,458.3 L142.1,459.5 L136.9,457.9 L138.4,452.6 L141.6,451.3 L143.0,448.7 L147.2,447.1 L148.8,447.5 L144.7,450.4 Z M323.3,475.3 L316.8,474.8 L314.2,470.9 L314.2,474.1 L312.0,478.4 L305.7,482.6 L302.1,477.0 L299.3,478.0 L298.7,482.7 L303.2,490.7 L307.2,493.9 L311.9,490.0 L317.9,490.3 L320.0,489.2 L319.8,491.8 L317.0,503.7 L316.1,505.2 L312.3,506.4 L307.0,504.3 L305.0,508.6 L303.5,508.6 L304.9,512.1 L305.1,519.0 L302.3,516.5 L297.8,515.1 L296.2,510.3 L299.3,502.3 L292.8,487.6 L293.5,484.9 L292.3,483.4 L289.1,489.8 L284.5,491.3 L277.8,491.4 L277.4,493.0 L282.4,495.8 L275.5,498.4 L276.0,500.9 L278.0,500.2 L280.1,508.0 L286.5,513.0 L288.7,516.3 L284.9,516.3 L289.5,518.1 L290.4,522.3 L288.3,524.2 L284.8,524.3 L278.4,520.7 L273.2,523.7 L274.7,526.8 L277.1,527.8 L281.2,526.8 L283.4,528.7 L278.2,533.3 L276.3,535.8 L274.4,534.9 L271.3,537.2 L272.9,541.0 L269.9,540.9 L265.6,535.1 L264.2,532.0 L260.2,527.6 L254.7,530.0 L255.4,531.8 L250.5,530.0 L250.2,525.2 L253.4,523.1 L257.8,516.6 L259.3,515.9 L258.6,520.1 L257.0,523.9 L262.8,522.8 L264.4,520.7 L264.4,516.8 L262.3,511.5 L266.1,507.1 L267.9,508.5 L267.5,510.8 L269.0,513.7 L271.9,513.5 L275.0,508.2 L272.2,502.5 L267.8,505.0 L263.4,499.1 L259.5,506.9 L256.4,509.3 L252.5,508.6 L247.1,513.3 L239.6,517.9 L237.5,518.6 L237.1,522.6 L234.8,526.2 L235.6,527.9 L229.5,533.6 L229.6,538.9 L225.8,538.3 L224.4,542.1 L224.9,543.6 L220.6,541.0 L215.5,539.1 L214.8,536.6 L215.6,525.9 L213.7,521.2 L211.3,522.5 L210.0,525.1 L211.0,529.6 L207.7,530.7 L210.4,535.3 L204.7,539.0 L206.6,541.3 L202.6,540.8 L201.7,543.6 L197.7,544.9 L196.0,546.7 L193.2,555.4 L192.9,558.1 L190.3,557.5 L185.3,559.0 L183.9,557.2 L184.9,552.6 L179.7,551.5 L180.8,547.5 L183.7,544.5 L183.6,541.9 L179.6,540.6 L180.6,535.8 L178.7,535.5 L179.2,532.4 L181.4,530.8 L186.9,530.4 L184.0,527.6 L186.8,525.1 L185.6,523.2 L183.4,525.0 L181.1,524.0 L178.9,526.6 L173.7,526.5 L170.8,527.3 L169.8,524.0 L166.2,520.6 L163.2,522.2 L160.7,519.9 L163.3,516.0 L158.3,512.9 L158.2,509.1 L160.5,502.1 L160.8,498.9 L163.9,499.3 L167.7,505.9 L166.3,508.5 L168.8,517.5 L178.9,520.9 L179.8,518.7 L175.8,518.0 L173.4,514.9 L173.9,511.9 L170.6,514.1 L169.8,508.4 L170.1,504.3 L177.5,505.1 L177.9,509.7 L186.6,516.1 L184.9,512.5 L186.3,512.3 L190.8,514.9 L193.8,515.0 L188.9,510.9 L184.0,503.7 L179.4,502.1 L176.3,502.2 L174.1,500.7 L171.4,501.4 L168.6,499.3 L171.7,496.8 L174.9,497.4 L179.0,495.7 L183.8,499.4 L186.9,500.2 L186.8,495.4 L190.8,493.2 L198.1,495.0 L197.4,493.3 L201.1,492.4 L199.5,490.6 L191.6,490.4 L191.7,486.1 L193.1,483.8 L192.4,480.6 L189.3,480.8 L188.0,483.4 L188.5,487.0 L184.7,495.4 L182.0,494.7 L183.5,492.0 L182.0,491.2 L178.7,492.9 L175.8,492.1 L174.7,493.9 L170.9,494.5 L169.5,492.5 L173.8,487.0 L173.9,483.2 L175.7,481.1 L174.4,480.0 L172.7,475.3 L172.9,473.1 L177.2,469.4 L174.5,468.7 L170.1,470.8 L170.7,474.8 L167.2,476.2 L164.1,474.7 L165.6,473.8 L162.7,470.1 L167.8,470.3 L167.6,467.5 L170.6,464.6 L169.9,461.8 L167.0,457.6 L163.1,455.1 L163.9,458.0 L161.6,459.7 L161.2,456.3 L158.5,452.6 L159.8,448.7 L166.1,450.7 L167.8,446.3 L168.5,447.8 L167.8,454.2 L169.5,456.7 L174.8,458.9 L174.3,461.8 L176.1,464.3 L178.9,458.3 L179.3,454.0 L175.3,451.4 L174.2,448.4 L170.1,442.4 L171.6,439.3 L170.3,435.7 L164.4,436.3 L165.7,434.9 L171.8,434.0 L169.6,433.0 L172.6,428.9 L172.0,426.4 L173.4,422.4 L175.8,418.9 L177.9,421.6 L180.7,422.2 L178.5,418.9 L191.2,415.6 L194.2,416.5 L192.5,428.2 L195.1,429.2 L205.3,426.9 L211.9,423.7 L214.2,420.7 L214.0,417.9 L216.4,415.5 L216.4,412.0 L219.1,409.7 L222.7,410.1 L224.5,408.1 L228.2,409.1 L231.4,411.8 L236.3,418.6 L239.6,418.7 L240.6,415.1 L242.4,412.8 L245.6,412.7 L247.6,416.0 L246.6,419.7 L249.3,424.6 L249.1,428.9 L251.6,431.7 L255.6,432.3 L258.7,430.6 L266.0,429.7 L269.4,432.1 L273.3,432.2 L284.0,431.4 L287.2,428.1 L291.0,426.0 L297.8,428.6 L303.8,433.6 L303.2,436.4 L305.4,439.0 L306.4,442.3 L306.7,449.2 L308.1,451.8 L313.1,456.3 L315.1,461.4 L321.6,468.7 Z M221.9,444.0 L227.7,447.6 L234.2,448.8 L238.5,443.3 L236.5,437.3 L231.0,435.1 L225.3,436.5 L221.5,435.4 L219.2,437.6 Z">
  <desc xmlns="http://www.highcharts.com/svg/namespace">
    <labelrank>6</labelrank>
    <hasc>KR.KJ</hasc>
    <alt-name>Kwangju|Kwangju-gwangyoksi</alt-name>
    <woe-id>2345972</woe-id>
    <subregion>NULL</subregion>
    <fips>KS18</fips>
    <postal-code>NULL</postal-code>
    <name>South Jeolla</name>
    <country>South Korea</country>
    <type-en>Metropolitan City</type-en>
    <region>NULL</region>
    <longitude>126.884</longitude>
    <woe-name>NULL</woe-name>
    <latitude>34.8166</latitude>
    <woe-label>Jeollanam-Do, KR, South Korea</woe-label>
    <type>Gwangyeoksi</type>
    <hc-middle-x>0.72</hc-middle-x>
    <hc-middle-y>0.32</hc-middle-y>
    <hc-key>kr-2685</hc-key>
    <hc-a2>SJ</hc-a2>
  </desc>
</path>

<path fill="#CEE3F5" stroke="#6E6E6E" stroke-width="0.4" id="KR.PU" d="M461.2,462.8 L460.3,463.9 L455.8,460.2 L457.8,457.8 L460.5,460.6 Z M472.1,449.2 L471.6,450.3 L463.7,451.0 L464.0,457.4 L461.6,458.5 L457.7,454.8 L454.9,457.8 L452.3,463.3 L450.6,460.6 L450.9,464.5 L449.3,463.4 L447.2,464.8 L445.6,461.0 L446.9,453.2 L450.9,447.2 L452.0,439.6 L455.6,436.2 L460.8,435.3 L462.9,436.7 L463.5,439.5 Z">
  <desc xmlns="http://www.highcharts.com/svg/namespace">
    <labelrank>9</labelrank>
    <hasc>KR.PU</hasc>
    <alt-name>Pusan|Busan Gwang'yeogsi|Pusan-gwangyoksi|Fusan</alt-name>
    <woe-id>2345968</woe-id>
    <subregion>NULL</subregion>
    <fips>KS10</fips>
    <postal-code>PU</postal-code>
    <name>Busan</name>
    <country>South Korea</country>
    <type-en>Metropolitan City</type-en>
    <region>NULL</region>
    <longitude>129.082</longitude>
    <woe-name>Busan</woe-name>
    <latitude>35.1928</latitude>
    <woe-label>Busan, KR, South Korea</woe-label>
    <type>Gwangyeoksi</type>
    <hc-middle-x>0.89</hc-middle-x>
    <hc-middle-y>0.43</hc-middle-y>
    <hc-key>kr-pu</hc-key>
    <hc-a2>PU</hc-a2>
  </desc>
</path>

<path fill="#CEE3F5" stroke="#6E6E6E" stroke-width="0.4" id="KR.2688" d="M336.2,354.8 L336.8,346.5 L332.6,339.1 L337.8,337.0 L340.4,330.5 L342.2,327.9 L341.9,320.5 L344.5,318.3 L349.3,319.0 L348.1,312.2 L345.8,310.4 L340.4,311.7 L335.4,308.2 L332.9,307.3 L328.6,308.3 L328.1,302.1 L332.0,297.1 L330.2,292.8 L331.4,282.7 L334.4,277.9 L329.3,270.4 L325.2,269.6 L324.1,266.7 L327.2,265.7 L331.1,261.0 L332.0,256.9 L338.9,253.1 L341.2,249.7 L345.2,251.5 L352.6,252.7 L349.1,247.2 L352.5,239.6 L356.2,240.6 L359.7,237.2 L364.6,239.4 L367.6,239.7 L368.9,235.5 L371.4,232.5 L376.9,237.4 L378.4,240.6 L382.1,241.8 L390.9,238.2 L392.5,233.1 L390.4,230.6 L395.1,222.5 L400.6,217.5 L402.7,216.8 L410.6,209.8 L414.5,208.0 L419.7,210.6 L425.5,211.5 L426.4,205.7 L425.8,202.5 L430.5,198.9 L433.3,199.2 L434.8,201.7 L438.6,203.1 L438.6,207.6 L444.6,204.1 L446.8,205.8 L453.4,206.1 L457.2,207.8 L462.8,205.6 L469.6,208.4 L470.6,211.4 L468.1,213.2 L465.1,212.0 L461.4,214.1 L460.6,217.3 L461.1,221.5 L463.2,224.8 L466.7,226.4 L468.4,231.5 L473.1,233.8 L480.7,234.4 L480.3,237.3 L482.0,239.1 L479.5,245.8 L481.1,255.6 L479.9,258.7 L487.2,261.3 L490.5,259.8 L495.1,260.6 L495.7,266.0 L497.1,271.3 L497.7,276.6 L497.1,287.7 L496.5,290.1 L493.3,294.0 L491.5,298.8 L491.1,314.5 L493.4,318.9 L494.8,326.7 L496.2,328.0 L495.0,331.2 L491.1,333.5 L491.0,335.3 L496.5,341.1 L498.7,341.5 L501.4,339.4 L508.0,332.0 L509.3,329.9 L511.0,331.2 L512.8,338.4 L507.4,348.5 L506.0,360.8 L503.3,368.5 L503.5,373.3 L500.7,381.7 L497.8,387.8 L499.5,391.1 L491.0,389.1 L481.2,390.9 L478.1,389.5 L476.8,384.3 L469.4,382.0 L461.3,384.1 L457.7,386.8 L459.3,390.3 L451.8,395.3 L448.8,396.3 L441.6,393.8 L437.8,395.4 L435.1,398.2 L432.0,398.9 L428.6,401.7 L424.6,401.5 L417.9,398.7 L410.0,399.8 L406.7,397.7 L404.1,394.5 L403.2,387.3 L400.8,389.2 L398.1,392.9 L395.2,392.3 L389.6,395.1 L386.6,394.5 L381.0,391.1 L368.2,390.6 L366.6,384.6 L368.0,378.7 L365.0,376.0 L358.3,367.1 L355.6,366.2 L349.6,365.9 L346.5,363.5 L341.6,362.6 L341.1,360.5 L337.0,357.6 Z M421.8,360.2 L425.2,358.6 L425.5,352.3 L423.5,350.1 L424.1,344.9 L422.7,342.6 L418.5,339.5 L406.2,340.7 L401.3,344.8 L401.9,350.7 L398.9,355.2 L400.9,355.7 L400.2,358.2 L396.9,358.5 L395.5,360.5 L396.1,362.9 L399.2,365.1 L400.5,367.5 L404.6,370.7 L408.5,366.2 L418.0,368.2 L420.3,366.8 Z M649.3,142.8 L647.1,148.9 L642.5,149.5 L638.1,146.0 L637.5,143.4 L640.2,140.1 L647.6,138.2 L649.3,139.5 Z">
  <desc xmlns="http://www.highcharts.com/svg/namespace">
    <labelrank>6</labelrank>
    <hasc>KR.TG</hasc>
    <alt-name>Taegu|Daegu Gwang'yeogsi|Taegu-gwangyoksi|Taikyu</alt-name>
    <woe-id>2345970</woe-id>
    <subregion>NULL</subregion>
    <fips>KS14</fips>
    <postal-code>NULL</postal-code>
    <name>North Gyeongsang</name>
    <country>South Korea</country>
    <type-en>Metropolitan City</type-en>
    <region>NULL</region>
    <longitude>128.708</longitude>
    <woe-name>Taegu-gwangyoksi</woe-name>
    <latitude>36.3396</latitude>
    <woe-label>Gyeongsangbuk-Do, KR, South Korea</woe-label>
    <type>Gwangyeoksi</type>
    <hc-middle-x>0.32</hc-middle-x>
    <hc-middle-y>0.67</hc-middle-y>
    <hc-key>kr-2688</hc-key>
    <hc-a2>NG</hc-a2>
  </desc>
</path>

<path fill="#CEE3F5" stroke="#6E6E6E" stroke-width="0.4" id="KR.SJ" d="M278.3,277.1 L275.9,276.9 L264.2,279.8 L257.0,281.6 L247.5,279.6 L250.1,275.4 L250.2,255.7 L252.8,249.1 L267.5,255.3 L265.4,259.6 L265.6,261.8 L263.6,269.5 L271.4,268.1 L279.3,268.8 Z">
  <desc xmlns="http://www.highcharts.com/svg/namespace">
    <labelrank>9</labelrank>
    <hasc>KR.SJ</hasc>
    <alt-name>NULL</alt-name>
    <woe-id>-2345973</woe-id>
    <subregion>NULL</subregion>
    <fips>KS22</fips>
    <postal-code>SJ</postal-code>
    <name>Sejong</name>
    <country>South Korea</country>
    <type-en>Special self-governing city</type-en>
    <region>NULL</region>
    <longitude>127.229</longitude>
    <woe-name>NULL</woe-name>
    <latitude>36.4974</latitude>
    <woe-label>NULL</woe-label>
    <type>Teukbyeol-jachisi</type>
    <hc-middle-x>0.50</hc-middle-x>
    <hc-middle-y>0.73</hc-middle-y>
    <hc-key>kr-sj</hc-key>
    <hc-a2>SJ</hc-a2>
  </desc>
</path>

<path fill="#CEE3F5" stroke="#6E6E6E" stroke-width="0.4" id="KR.TJ" d="M264.2,279.8 L275.9,276.9 L278.3,277.1 L280.6,281.8 L280.1,284.1 L283.3,285.0 L286.7,284.3 L287.9,282.6 L290.5,285.1 L291.6,290.9 L288.1,301.7 L279.1,307.7 L273.9,309.0 L271.9,301.9 L271.5,292.4 L269.7,288.7 Z">
  <desc xmlns="http://www.highcharts.com/svg/namespace">
    <labelrank>9</labelrank>
    <hasc>KR.TJ</hasc>
    <alt-name>Daejeon Gwang'yeogsi|Taej?n-gwangy?ksi|Taiden</alt-name>
    <woe-id>2345975</woe-id>
    <subregion>NULL</subregion>
    <fips>KS19</fips>
    <postal-code>TJ</postal-code>
    <name>Daejeon</name>
    <country>South Korea</country>
    <type-en>Metropolitan City</type-en>
    <region>NULL</region>
    <longitude>127.401</longitude>
    <woe-name>Daejeon</woe-name>
    <latitude>36.3563</latitude>
    <woe-label>Daejon, KR, South Korea</woe-label>
    <type>Gwangyeoksi</type>
    <hc-middle-x>0.58</hc-middle-x>
    <hc-middle-y>0.44</hc-middle-y>
    <hc-key>kr-tj</hc-key>
    <hc-a2>TJ</hc-a2>
  </desc>
</path>

<path fill="#CEE3F5" stroke="#6E6E6E" stroke-width="0.4" id="KR.UL" d="M499.5,391.1 L500.4,392.6 L499.1,403.8 L496.3,408.3 L494.7,409.1 L493.3,403.9 L490.5,401.3 L489.6,403.8 L491.9,405.2 L492.0,410.4 L488.8,411.8 L489.6,417.6 L487.7,420.8 L489.2,424.5 L484.9,426.5 L482.0,429.4 L479.5,429.5 L476.0,428.0 L473.7,425.8 L473.0,422.2 L465.0,417.3 L460.4,412.1 L457.7,410.0 L451.2,409.0 L449.6,405.8 L452.2,400.4 L451.8,395.3 L459.3,390.3 L457.7,386.8 L461.3,384.1 L469.4,382.0 L476.8,384.3 L478.1,389.5 L481.2,390.9 L491.0,389.1 Z">
  <desc xmlns="http://www.highcharts.com/svg/namespace">
    <labelrank>6</labelrank>
    <hasc>KR.UL</hasc>
    <alt-name>Ulsan-gwangyoksi</alt-name>
    <woe-id>23701285</woe-id>
    <subregion>NULL</subregion>
    <fips>KS21</fips>
    <postal-code>UL</postal-code>
    <name>Ulsan</name>
    <country>South Korea</country>
    <type-en>Metropolitan City</type-en>
    <region>NULL</region>
    <longitude>129.232</longitude>
    <woe-name>Ulsan</woe-name>
    <latitude>35.4997</latitude>
    <woe-label>Ulsan, KR, South Korea</woe-label>
    <type>Metropolitan City</type>
    <hc-middle-x>0.48</hc-middle-x>
    <hc-middle-y>0.44</hc-middle-y>
    <hc-key>kr-ul</hc-key>
    <hc-a2>UL</hc-a2>
  </desc>
</path>

<path fill="#CEE3F5" stroke="#6E6E6E" stroke-width="0.4" id="KR.IN" d="M177.3,146.7 L184.0,142.9 L189.6,142.7 L191.8,141.7 L192.6,138.8 L199.0,141.0 L200.3,142.6 L201.0,144.2 L193.0,147.2 L190.9,149.6 L186.3,152.8 L183.9,152.6 L181.8,149.6 L180.1,150.5 Z M214.8,159.2 L214.5,158.3 L209.1,157.5 L206.5,160.7 L203.9,158.6 L206.5,154.3 L202.1,150.8 L202.1,146.5 L203.2,144.8 L207.1,143.6 L203.4,143.4 L202.7,139.7 L203.3,136.6 L213.3,136.5 L219.3,142.5 L220.2,148.1 L222.8,150.9 L220.2,156.8 Z">
  <desc xmlns="http://www.highcharts.com/svg/namespace">
    <labelrank>6</labelrank>
    <hasc>KR.IN</hasc>
    <alt-name>Inchon|IInch'on-gwangyoksi|Jinsen</alt-name>
    <woe-id>20069922</woe-id>
    <subregion>NULL</subregion>
    <fips>KS12</fips>
    <postal-code>IN</postal-code>
    <name>Incheon</name>
    <country>South Korea</country>
    <type-en>Metropolitan City</type-en>
    <region>Incheon</region>
    <longitude>126.507</longitude>
    <woe-name>Inch'on-gwangyoksi</woe-name>
    <latitude>37.4983</latitude>
    <woe-label>Incheon, KR, South Korea</woe-label>
    <type>Gwangyeoksi</type>
    <hc-middle-x>0.62</hc-middle-x>
    <hc-middle-y>0.50</hc-middle-y>
    <hc-key>kr-in</hc-key>
    <hc-a2>IN</hc-a2>
  </desc>
</path>

<path fill="#CEE3F5" stroke="#6E6E6E" stroke-width="0.4" id="KR.KW" d="M242.6,51.3 L248.9,46.1 L255.5,42.1 L262.5,39.5 L269.1,38.9 L272.3,39.3 L284.9,38.5 L294.6,41.6 L303.7,39.6 L323.5,38.2 L328.2,42.3 L335.0,41.0 L345.7,41.7 L352.7,41.3 L359.7,38.8 L366.3,34.7 L371.8,29.0 L376.2,22.1 L377.5,18.1 L378.0,13.5 L377.0,6.8 L380.4,2.9 L386.2,0.0 L393.9,15.4 L397.2,25.8 L406.1,43.6 L413.1,62.4 L417.9,69.0 L419.3,72.8 L443.0,106.9 L457.5,122.9 L458.4,131.5 L462.1,133.5 L466.2,145.5 L470.5,150.1 L475.2,159.3 L478.1,162.8 L480.2,168.9 L485.2,174.3 L486.8,178.8 L488.3,188.6 L490.2,194.0 L495.6,201.4 L496.0,203.0 L493.8,207.3 L495.5,224.2 L496.5,229.6 L500.1,240.5 L500.4,245.8 L499.3,250.8 L495.1,260.6 L490.5,259.8 L487.2,261.3 L479.9,258.7 L481.1,255.6 L479.5,245.8 L482.0,239.1 L480.3,237.3 L480.7,234.4 L473.1,233.8 L468.4,231.5 L466.7,226.4 L463.2,224.8 L461.1,221.5 L460.6,217.3 L461.4,214.1 L465.1,212.0 L468.1,213.2 L470.6,211.4 L469.6,208.4 L462.8,205.6 L457.2,207.8 L453.4,206.1 L446.8,205.8 L444.6,204.1 L438.6,207.6 L438.6,203.1 L434.8,201.7 L433.3,199.2 L430.5,198.9 L425.8,202.5 L426.4,205.7 L425.5,211.5 L419.7,210.6 L414.5,208.0 L410.3,205.8 L405.0,204.9 L399.8,201.3 L390.6,202.6 L387.8,198.7 L387.0,195.7 L382.1,196.2 L377.9,197.7 L374.4,195.6 L376.2,192.8 L379.2,190.7 L380.5,188.0 L372.7,186.4 L366.9,184.3 L362.4,187.2 L360.0,186.7 L354.4,190.1 L351.0,190.9 L349.7,186.3 L345.8,182.1 L340.5,183.8 L338.5,186.2 L339.0,192.5 L335.4,195.5 L330.4,194.2 L327.3,194.9 L328.2,188.7 L317.2,190.1 L306.2,192.9 L311.9,182.6 L316.7,171.4 L323.3,157.9 L323.5,152.0 L330.0,144.3 L327.4,140.9 L318.9,139.1 L308.0,133.0 L302.4,133.4 L300.1,131.4 L301.5,127.1 L302.0,121.9 L299.2,122.8 L298.0,121.2 L301.1,117.7 L299.8,113.0 L300.3,107.1 L308.9,100.9 L309.5,95.6 L307.2,91.9 L303.3,90.5 L301.9,86.7 L297.2,86.7 L294.6,84.7 L293.4,81.2 L292.9,75.1 L291.3,71.4 L287.6,70.9 L283.2,72.3 L279.3,71.3 L276.2,68.8 L276.2,66.3 L278.0,62.3 L275.7,61.7 L272.0,65.5 L267.6,64.4 L266.4,61.4 L265.3,63.5 L265.2,67.8 L263.8,69.8 L260.1,68.0 L255.5,63.5 L254.3,63.6 L249.7,55.7 Z">
  <desc xmlns="http://www.highcharts.com/svg/namespace">
    <labelrank>6</labelrank>
    <hasc>KR.KW</hasc>
    <alt-name>Kang-Won-Do|Gang'weondo|Kangwon-do|Kogen-do|South Kangwon</alt-name>
    <woe-id>2345966</woe-id>
    <subregion>NULL</subregion>
    <fips>KS06</fips>
    <postal-code>KW</postal-code>
    <name>Gangwon</name>
    <country>South Korea</country>
    <type-en>Province</type-en>
    <region>NULL</region>
    <longitude>128.22</longitude>
    <woe-name>Gangwon-do</woe-name>
    <latitude>37.7951</latitude>
    <woe-label>Kangwon-Do, KR, South Korea</woe-label>
    <type>Do</type>
    <hc-middle-x>0.55</hc-middle-x>
    <hc-middle-y>0.47</hc-middle-y>
    <hc-key>kr-kw</hc-key>
    <hc-a2>KW</hc-a2>
  </desc>
</path>

<path fill="#CEE3F5" stroke="#6E6E6E" stroke-width="0.4" id="KR.GN" d="M171.5,272.6 L170.9,265.0 L169.9,261.3 L172.7,258.5 L174.7,257.9 L176.2,261.0 L174.9,262.5 L176.7,267.4 L176.4,269.8 L179.0,273.1 L176.8,273.8 L178.9,274.9 L179.7,280.0 L181.6,284.2 L174.4,283.6 L172.7,278.1 L174.6,275.5 L170.9,275.7 Z M267.5,255.3 L252.8,249.1 L250.2,255.7 L250.1,275.4 L247.5,279.6 L257.0,281.6 L264.2,279.8 L269.7,288.7 L271.5,292.4 L271.9,301.9 L273.9,309.0 L279.1,307.7 L288.1,301.7 L291.6,290.9 L294.8,287.8 L297.6,289.0 L290.9,300.8 L289.6,305.8 L289.6,313.1 L293.0,312.4 L299.3,315.5 L300.3,319.4 L300.1,323.8 L300.9,328.3 L305.3,335.9 L300.2,340.5 L291.7,342.0 L285.6,341.1 L285.3,337.3 L280.5,335.1 L275.9,326.5 L272.6,323.5 L269.4,327.4 L264.1,329.0 L252.2,331.6 L250.0,328.1 L251.1,322.4 L247.2,321.5 L236.2,324.7 L225.2,326.3 L220.4,332.0 L218.2,332.6 L214.2,335.7 L207.6,337.9 L206.0,337.1 L204.8,333.3 L201.4,327.9 L202.9,326.8 L199.5,324.8 L197.2,320.6 L190.9,317.5 L188.8,317.8 L187.8,321.0 L187.6,316.6 L194.4,314.0 L198.8,315.3 L196.4,311.7 L193.1,310.8 L191.7,309.0 L195.4,300.3 L195.8,297.9 L189.8,295.5 L191.5,294.1 L196.2,293.1 L196.5,290.0 L191.4,289.4 L188.7,286.6 L190.1,285.8 L188.6,282.8 L192.7,281.2 L194.8,278.4 L201.2,276.2 L195.1,276.1 L191.2,280.2 L188.6,279.2 L187.2,272.8 L190.5,268.8 L186.0,267.2 L184.9,260.0 L190.6,259.1 L191.5,256.2 L187.8,253.0 L190.4,250.4 L189.5,248.6 L187.0,248.0 L187.4,244.3 L189.8,243.9 L187.7,240.3 L183.6,243.3 L184.1,248.5 L183.6,254.4 L181.4,258.4 L175.5,255.4 L176.9,245.8 L175.7,245.2 L176.2,242.0 L173.4,240.8 L171.3,246.1 L168.9,246.0 L172.3,253.3 L171.2,255.3 L172.9,257.8 L170.0,258.8 L167.8,261.2 L167.2,257.6 L168.8,254.5 L165.8,249.4 L166.8,246.9 L166.1,243.3 L161.3,247.7 L157.0,249.0 L154.6,248.3 L154.4,244.7 L159.8,244.2 L158.7,240.2 L154.2,237.6 L153.2,242.4 L151.3,244.9 L151.0,237.5 L154.1,233.3 L155.2,230.5 L157.1,235.1 L160.0,235.1 L157.9,231.5 L160.9,232.5 L162.9,230.7 L158.6,229.7 L160.3,225.3 L158.0,223.3 L158.2,221.5 L162.6,219.3 L162.1,223.3 L166.1,223.7 L167.5,222.1 L168.2,212.0 L170.7,211.3 L170.3,215.9 L171.9,222.2 L169.5,225.6 L170.2,229.2 L167.3,231.3 L168.2,234.3 L172.1,232.5 L175.0,234.6 L172.3,227.0 L173.4,225.7 L176.1,228.6 L176.6,227.2 L180.2,225.9 L177.4,224.0 L181.5,220.4 L181.2,215.3 L177.6,214.8 L175.3,213.0 L177.0,212.5 L177.0,209.3 L173.5,208.8 L176.5,207.0 L179.8,208.2 L179.4,206.3 L185.0,207.0 L185.7,208.7 L183.5,212.3 L184.1,214.5 L187.3,213.0 L188.3,216.7 L186.8,219.0 L186.7,224.8 L188.5,228.1 L192.5,214.4 L195.5,217.3 L197.5,220.9 L198.9,221.0 L196.6,215.2 L190.0,208.0 L191.3,206.7 L195.8,211.2 L198.1,210.7 L197.5,209.0 L194.1,207.6 L192.0,205.5 L190.9,200.5 L192.9,200.4 L203.8,208.4 L204.8,210.2 L203.2,213.1 L204.4,216.1 L204.0,219.4 L206.0,216.6 L205.7,213.4 L207.8,209.5 L213.0,209.1 L217.5,210.6 L221.4,214.1 L221.5,216.9 L219.7,222.4 L224.1,219.0 L225.2,222.0 L224.7,230.4 L226.4,236.0 L224.4,237.6 L226.5,240.4 L228.8,234.0 L228.0,230.7 L232.3,231.7 L227.8,225.4 L236.4,222.5 L238.5,221.0 L247.4,222.2 L256.2,218.7 L260.6,220.9 L264.6,224.3 L269.5,225.1 L276.0,233.8 L275.8,236.4 L277.5,240.0 L275.6,246.3 L273.7,246.4 Z">
  <desc xmlns="http://www.highcharts.com/svg/namespace">
    <labelrank>6</labelrank>
    <hasc>KR.GN</hasc>
    <alt-name>Chungchongnam-Do|Ch'ungch'ong-namdo|Chusei Nan-do|South Chungchong|Ch'ungch'ong-namdo</alt-name>
    <woe-id>2345973</woe-id>
    <subregion>NULL</subregion>
    <fips>KS17</fips>
    <postal-code>GN</postal-code>
    <name>South Chungcheong</name>
    <country>South Korea</country>
    <type-en>Province</type-en>
    <region>NULL</region>
    <longitude>126.874</longitude>
    <woe-name>Chungcheongnam-do</woe-name>
    <latitude>36.4602</latitude>
    <woe-label>Chungcheongnam-Do, KR, South Korea</woe-label>
    <type>Do</type>
    <hc-middle-x>0.47</hc-middle-x>
    <hc-middle-y>0.48</hc-middle-y>
    <hc-key>kr-gn</hc-key>
    <hc-a2>GN</hc-a2>
  </desc>
</path>

<path fill="#CEE3F5" stroke="#6E6E6E" stroke-width="0.4" id="KR.CJ" d="M219.5,679.1 L215.7,687.2 L209.1,687.6 L204.9,690.8 L193.8,692.6 L190.1,695.6 L185.6,696.5 L180.7,695.9 L175.2,696.8 L170.6,695.3 L160.3,695.2 L157.0,696.7 L155.0,700.0 L151.5,699.4 L149.1,695.4 L145.8,694.2 L142.7,690.7 L141.7,686.6 L143.8,681.4 L146.9,677.0 L150.7,674.9 L154.1,669.4 L157.1,668.7 L158.5,665.8 L174.8,661.3 L177.7,659.0 L188.3,658.1 L195.6,655.2 L197.3,655.7 L211.2,654.2 L214.5,654.8 L217.4,658.0 L222.6,660.2 L224.1,661.9 L226.1,667.3 L228.4,667.3 L226.1,669.1 L226.8,671.7 L223.3,676.2 Z">
  <desc xmlns="http://www.highcharts.com/svg/namespace">
    <labelrank>7</labelrank>
    <hasc>KR.CJ</hasc>
    <alt-name>Jeju-doQuelpart|Saishu-to|Cheju-do</alt-name>
    <woe-id>2345963</woe-id>
    <subregion>NULL</subregion>
    <fips>KS01</fips>
    <postal-code>CJ</postal-code>
    <name>Jeju</name>
    <country>South Korea</country>
    <type-en>Province</type-en>
    <region>NULL</region>
    <longitude>126.557</longitude>
    <woe-name>Jeju</woe-name>
    <latitude>33.3741</latitude>
    <woe-label>Jaeju-Do, KR, South Korea</woe-label>
    <type>Do</type>
    <hc-middle-x>0.50</hc-middle-x>
    <hc-middle-y>0.50</hc-middle-y>
    <hc-key>kr-cj</hc-key>
    <hc-a2>CJ</hc-a2>
  </desc>
</path>

<path fill="#CEE3F5" stroke="#6E6E6E" stroke-width="0.4" id="KR.GB" d="M269.5,225.1 L274.2,223.8 L282.1,220.6 L283.2,216.8 L287.6,213.9 L291.4,208.5 L294.0,209.7 L296.6,208.0 L302.9,196.7 L306.2,192.9 L317.2,190.1 L328.2,188.7 L327.3,194.9 L330.4,194.2 L335.4,195.5 L339.0,192.5 L338.5,186.2 L340.5,183.8 L345.8,182.1 L349.7,186.3 L351.0,190.9 L354.4,190.1 L360.0,186.7 L362.4,187.2 L366.9,184.3 L372.7,186.4 L380.5,188.0 L379.2,190.7 L376.2,192.8 L374.4,195.6 L377.9,197.7 L382.1,196.2 L387.0,195.7 L387.8,198.7 L390.6,202.6 L399.8,201.3 L405.0,204.9 L410.3,205.8 L414.5,208.0 L410.6,209.8 L402.7,216.8 L400.6,217.5 L395.1,222.5 L390.4,230.6 L392.5,233.1 L390.9,238.2 L382.1,241.8 L378.4,240.6 L376.9,237.4 L371.4,232.5 L368.9,235.5 L367.6,239.7 L364.6,239.4 L359.7,237.2 L356.2,240.6 L352.5,239.6 L349.1,247.2 L352.6,252.7 L345.2,251.5 L341.2,249.7 L338.9,253.1 L332.0,256.9 L331.1,261.0 L327.2,265.7 L324.1,266.7 L325.2,269.6 L329.3,270.4 L334.4,277.9 L331.4,282.7 L330.2,292.8 L332.0,297.1 L328.1,302.1 L328.6,308.3 L332.9,307.3 L335.4,308.2 L340.4,311.7 L345.8,310.4 L348.1,312.2 L349.3,319.0 L344.5,318.3 L341.9,320.5 L342.2,327.9 L340.4,330.5 L337.8,337.0 L332.6,339.1 L329.8,341.7 L326.8,339.4 L319.4,343.1 L312.1,339.8 L308.8,336.8 L307.2,337.9 L305.3,335.9 L300.9,328.3 L300.1,323.8 L300.3,319.4 L299.3,315.5 L293.0,312.4 L289.6,313.1 L289.6,305.8 L290.9,300.8 L297.6,289.0 L294.8,287.8 L291.6,290.9 L290.5,285.1 L287.9,282.6 L286.7,284.3 L283.3,285.0 L280.1,284.1 L280.6,281.8 L278.3,277.1 L279.3,268.8 L271.4,268.1 L263.6,269.5 L265.6,261.8 L265.4,259.6 L267.5,255.3 L273.7,246.4 L275.6,246.3 L277.5,240.0 L275.8,236.4 L276.0,233.8 Z">
  <desc xmlns="http://www.highcharts.com/svg/namespace">
    <labelrank>6</labelrank>
    <hasc>KR.GB</hasc>
    <alt-name>Chungchongbuk-Do|Chungcheongbugdo|Ch'ungch'ong-bukto|Chusei Hoku-do|North Chungchong|Ch'ungch'ong-bukto</alt-name>
    <woe-id>2345965</woe-id>
    <subregion>NULL</subregion>
    <fips>KS05</fips>
    <postal-code>GB</postal-code>
    <name>North Chungcheong</name>
    <country>South Korea</country>
    <type-en>Province</type-en>
    <region>NULL</region>
    <longitude>127.668</longitude>
    <woe-name>Chungcheongbuk-do</woe-name>
    <latitude>36.7476</latitude>
    <woe-label>Chungcheongbuk-Do, KR, South Korea</woe-label>
    <type>Do</type>
    <hc-middle-x>0.40</hc-middle-x>
    <hc-middle-y>0.31</hc-middle-y>
    <hc-key>kr-gb</hc-key>
    <hc-a2>GB</hc-a2>
  </desc>
</path>

<path fill="#CEE3F5" stroke="#6E6E6E" stroke-width="0.4" id="KR.SO" d="M256.2,137.6 L263.6,136.8 L264.0,140.7 L261.0,142.4 L261.8,145.7 L258.9,149.7 L250.2,153.3 L249.1,150.6 L240.1,153.2 L235.7,152.9 L232.8,148.9 L227.7,146.5 L227.3,142.8 L222.9,136.7 L224.6,133.5 L227.4,133.7 L230.7,135.8 L235.4,133.8 L236.3,129.5 L240.9,129.1 L244.9,123.1 L247.0,121.0 L250.2,120.3 L253.9,120.7 L255.6,123.7 L257.2,130.8 L257.2,134.0 Z">
  <desc xmlns="http://www.highcharts.com/svg/namespace">
    <labelrank>9</labelrank>
    <hasc>KR.SO</hasc>
    <alt-name>Keijo|Séoul|Seul|Seúl|Söul|Soul-t'ukpyolsi</alt-name>
    <woe-id>20069923</woe-id>
    <subregion>NULL</subregion>
    <fips>KS11</fips>
    <postal-code>SO</postal-code>
    <name>Seoul</name>
    <country>South Korea</country>
    <type-en>Capital Metropolitan City</type-en>
    <region>NULL</region>
    <longitude>126.994</longitude>
    <woe-name>Seoul</woe-name>
    <latitude>37.5408</latitude>
    <woe-label>Seoul, KR, South Korea</woe-label>
    <type>Teukbyeolsi</type>
    <hc-middle-x>0.53</hc-middle-x>
    <hc-middle-y>0.59</hc-middle-y>
    <hc-key>kr-so</hc-key>
    <hc-a2>SO</hc-a2>
  </desc>
</path>

<path fill="#CEE3F5" stroke="#6E6E6E" stroke-width="0.4" id="KR.TG" d="M421.8,360.2 L420.3,366.8 L418.0,368.2 L408.5,366.2 L404.6,370.7 L400.5,367.5 L399.2,365.1 L396.1,362.9 L395.5,360.5 L396.9,358.5 L400.2,358.2 L400.9,355.7 L398.9,355.2 L401.9,350.7 L401.3,344.8 L406.2,340.7 L418.5,339.5 L422.7,342.6 L424.1,344.9 L423.5,350.1 L425.5,352.3 L425.2,358.6 Z">
  <desc xmlns="http://www.highcharts.com/svg/namespace">
    <labelrank>6</labelrank>
    <hasc>KR.TG</hasc>
    <alt-name>Taegu|Daegu Gwang'yeogsi|Taegu-gwangyoksi|Taikyu</alt-name>
    <woe-id>2345971</woe-id>
    <subregion>NULL</subregion>
    <fips>KS15</fips>
    <postal-code>TG</postal-code>
    <name>Daegu</name>
    <country>South Korea</country>
    <type-en>Metropolitan City</type-en>
    <region>NULL</region>
    <longitude>128.631</longitude>
    <woe-name>Daegu</woe-name>
    <latitude>35.9034</latitude>
    <woe-label>Daegu, KR, South Korea</woe-label>
    <type>Gwangyeoksi</type>
    <hc-middle-x>0.49</hc-middle-x>
    <hc-middle-y>0.49</hc-middle-y>
    <hc-key>kr-tg</hc-key>
    <hc-a2>TG</hc-a2>
  </desc>
</path>

<path fill="#CEE3F5" stroke="#6E6E6E" stroke-width="0.4" id="KR.KJ" d="M221.9,444.0 L219.2,437.6 L221.5,435.4 L225.3,436.5 L231.0,435.1 L236.5,437.3 L238.5,443.3 L234.2,448.8 L227.7,447.6 Z">
  <desc xmlns="http://www.highcharts.com/svg/namespace">
    <labelrank>6</labelrank>
    <hasc>KR.KJ</hasc>
    <alt-name>Kwangju|Kwangju-gwangyoksi</alt-name>
    <woe-id>2345974</woe-id>
    <subregion>NULL</subregion>
    <fips>KS16</fips>
    <postal-code>KJ</postal-code>
    <name>Gwangju</name>
    <country>South Korea</country>
    <type-en>Metropolitan City</type-en>
    <region>NULL</region>
    <longitude>126.929</longitude>
    <woe-name>NULL</woe-name>
    <latitude>35.1989</latitude>
    <woe-label>Gwangju, KR, South Korea</woe-label>
    <type>Gwangyeoksi</type>
    <hc-middle-x>0.49</hc-middle-x>
    <hc-middle-y>0.43</hc-middle-y>
    <hc-key>kr-kj</hc-key>
    <hc-a2>KJ</hc-a2>
  </desc>
</path>
</g>

<text x="350" y="714" text-anchor="middle" font-family="Verdana" font-size="8" stroke-opacity="0.6">Copyright (c) 2023 Highsoft AS, Based on data from Natural Earth</text>

</svg>