<?xml version="1.0" encoding="utf-8" standalone="no"?>
        <!DOCTYPE svg PUBLIC "-//W3C//DTD SVG 1.1//EN" "http://www.w3.org/Graphics/SVG/1.1/DTD/svg11.dtd">

        <svg version="1.1" viewBox="-5 -5 710 725" xmlns="http://www.w3.org/2000/svg" xmlns:xlink="http://www.w3.org/1999/xlink">
        <desc>
            Map version: 2.3.0
            Copyright (c) 2024 Highsoft AS, Based on data from OpenStreetMap
        </desc>
        <title>Agder</title>
        <g id="admin2">
<path fill="#CEE3F5" stroke="#6E6E6E" stroke-width="0.4" id="undefined" d="M86.9683,333.4571 86.9683,320.9318 112.2552,317.6232 124.7806,311.4787 112.2552,299.4261 112.2552,277.2113 99.4936,274.1391 68.7711,274.1391 68.7711,261.3774 50.5739,261.3774 50.5739,309.1155 30.9588,320.9318 18.1972,320.9318 18.1972,324.0041 0.0000,327.3126 0.0000,328.7306 2.8359,329.6759 25.2870,332.0392 40.6482,336.7657 56.0095,336.0567 54.5915,331.0939 54.5915,318.5685 58.8454,319.2775 64.5172,317.6232 70.1891,316.9142 75.8609,319.9865 71.6070,324.9494 67.3531,322.5861 63.0993,322.5861 58.8454,324.9494 57.4274,328.7306 58.8454,332.0392 65.9352,339.1290 74.4429,339.8379 81.2964,336.7657 86.9683,333.4571 M30.9588,336.7657 39.2302,340.7833 40.6482,341.4922 51.9919,346.2188 53.4099,346.2188 53.4099,346.9278 54.5915,347.8731 56.0095,346.9278 56.0095,340.7833 54.5915,339.8379 32.3768,336.7657 30.9588,336.7657Z">
                    <desc xmlns="http://www.highcharts.com/svg/namespace">
<name>Flekkefjord</name>
<region>Agder</region>
<hc-group>admin2</hc-group>
<hc-key>no-ag-4207</hc-key>
<hc-a2>FL</hc-a2>
<hc-middle-lon>6.654</hc-middle-lon>
<hc-middle-lat>58.378</hc-middle-lat>
</desc>


                </path>
<path fill="#CEE3F5" stroke="#6E6E6E" stroke-width="0.4" id="undefined" d="M50.5739,261.3774 68.7711,261.3774 68.7711,274.1391 99.4936,274.1391 99.4936,249.5611 106.5834,249.5611 112.2552,230.6550 119.3450,230.6550 124.7806,209.1492 150.0675,206.0770 150.0675,199.6962 155.7394,199.6962 162.8292,190.2431 155.7394,186.9345 162.8292,186.9345 181.0263,180.5537 181.0263,172.0459 168.2647,155.9757 181.0263,159.2843 181.0263,124.3079 187.8798,118.8724 162.8292,118.8724 142.9777,112.4916 130.4524,115.5638 124.7806,115.5638 119.3450,124.3079 112.2552,133.9973 61.6813,162.3565 61.6813,168.0284 43.4841,177.4814 43.4841,183.8623 30.9588,212.4578 37.8123,212.4578 56.0095,230.6550 12.5253,236.7995 12.5253,240.1080 18.1972,246.4889 25.2870,249.5611 50.5739,249.5611 50.5739,261.3774Z">
                    <desc xmlns="http://www.highcharts.com/svg/namespace">
<name>Sirdal</name>
<region>Agder</region>
<hc-group>admin2</hc-group>
<hc-key>no-ag-4228</hc-key>
<hc-a2>SI</hc-a2>
<hc-middle-lon>6.813</hc-middle-lon>
<hc-middle-lat>58.85</hc-middle-lat>
</desc>


                </path>
<path fill="#CEE3F5" stroke="#6E6E6E" stroke-width="0.4" id="undefined" d="M81.2964,343.1465 112.2552,339.8379 119.3450,343.1465 130.4524,339.8379 137.5422,339.8379 155.7394,327.3126 175.3545,327.3126 168.2647,320.9318 168.2647,289.9730 162.8292,277.2113 162.8292,240.1080 181.0263,236.7995 181.0263,199.6962 150.0675,199.6962 150.0675,206.0770 124.7806,209.1492 119.3450,230.6550 112.2552,230.6550 106.5834,249.5611 99.4936,249.5611 99.4936,274.1391 112.2552,277.2113 112.2552,299.4261 124.7806,311.4787 112.2552,317.6232 86.9683,320.9318 86.9683,333.4571 98.3120,330.3849 103.7475,328.7306 108.0014,330.3849 88.3862,336.0567 84.1323,339.1290 81.2964,343.1465Z">
                    <desc xmlns="http://www.highcharts.com/svg/namespace">
<name>Kvinesdal</name>
<region>Agder</region>
<hc-group>admin2</hc-group>
<hc-key>no-ag-4227</hc-key>
<hc-a2>KV</hc-a2>
<hc-middle-lon>6.945</hc-middle-lon>
<hc-middle-lat>58.52</hc-middle-lat>
</desc>


                </path>
<path fill="#CEE3F5" stroke="#6E6E6E" stroke-width="0.4" id="undefined" d="M181.0263,236.7995 200.6415,246.4889 200.6415,249.5611 218.8386,274.1391 231.3639,274.1391 244.1256,277.2113 249.7974,277.2113 262.3228,271.0668 280.5199,264.6860 287.6097,252.8697 274.8481,246.4889 274.8481,233.7272 287.6097,233.7272 293.2816,220.9656 300.1350,212.4578 280.5199,199.6962 280.5199,190.2431 256.6509,190.2431 206.3133,193.3153 181.0263,199.6962 181.0263,236.7995Z">
                    <desc xmlns="http://www.highcharts.com/svg/namespace">
<name>Åseral</name>
<region>Agder</region>
<hc-group>admin2</hc-group>
<hc-key>no-ag-4224</hc-key>
<hc-a2>ÅS</hc-a2>
<hc-middle-lon>7.408</hc-middle-lon>
<hc-middle-lat>58.678</hc-middle-lat>
</desc>


                </path>
<path fill="#CEE3F5" stroke="#6E6E6E" stroke-width="0.4" id="undefined" d="M293.2816,309.1155 300.1350,317.6232 312.8967,320.9318 312.8967,336.7657 325.4220,343.1465 331.0939,333.4571 356.3808,336.7657 374.5780,343.1465 374.5780,333.4571 387.1033,330.3849 387.1033,327.3126 394.1931,320.9318 387.1033,305.8069 374.5780,314.5510 374.5780,317.6232 368.9061,320.9318 368.9061,317.6232 356.3808,314.5510 356.3808,301.7893 343.6192,301.7893 331.0939,286.9007 305.8069,289.9730 293.2816,305.8069 293.2816,309.1155Z">
                    <desc xmlns="http://www.highcharts.com/svg/namespace">
<name>Vennesla</name>
<region>Agder</region>
<hc-group>admin2</hc-group>
<hc-key>no-ag-4223</hc-key>
<hc-a2>VE</hc-a2>
<hc-middle-lon>7.845</hc-middle-lon>
<hc-middle-lat>58.335</hc-middle-lat>
</desc>


                </path>
<path fill="#CEE3F5" stroke="#6E6E6E" stroke-width="0.4" id="undefined" d="M119.3450,361.3437 119.3450,343.1465 112.2552,339.8379 81.2964,343.1465 63.0993,348.5820 61.6813,349.5273 63.0993,349.5273 67.3531,350.9453 61.6813,351.8906 49.1560,352.5996 46.3201,357.3261 44.9021,359.6894 42.0662,362.9980 40.6482,363.7070 37.8123,367.7245 49.1560,376.4686 51.9919,377.1776 65.9352,378.8319 78.4605,378.8319 81.2964,378.8319 82.7144,379.5409 89.8042,380.2498 91.2221,379.5409 74.4429,370.7968 74.4429,366.0702 70.1891,365.3612 73.0250,362.0527 78.4605,349.5273 78.4605,353.3086 79.8785,356.6172 79.8785,359.6894 77.0425,362.0527 77.0425,362.9980 84.1323,366.0702 86.9683,366.7792 94.0581,366.0702 99.4936,365.3612 99.4936,364.4159 98.3120,361.3437 91.2221,350.9453 96.8940,351.8906 102.3295,355.6718 119.3450,361.3437 M137.5422,370.7968 127.6165,366.0702 113.6732,366.0702 109.4193,366.7792 100.9115,373.1600 102.3295,373.8690 119.3450,370.7968 119.3450,371.5057 121.9446,370.7968 123.3626,373.8690 123.3626,376.4686 123.3626,377.1776 124.7806,379.5409 126.1985,378.8319 137.5422,370.7968 M137.5422,382.6131 142.9777,373.8690 142.9777,370.7968 137.5422,374.8143 133.2883,380.2498 129.0344,383.5584 136.1242,383.5584 137.5422,382.6131Z">
                    <desc xmlns="http://www.highcharts.com/svg/namespace">
<name>Farsund</name>
<region>Agder</region>
<hc-group>admin2</hc-group>
<hc-key>no-ag-4206</hc-key>
<hc-a2>FA</hc-a2>
<hc-middle-lon>6.773</hc-middle-lon>
<hc-middle-lat>58.138</hc-middle-lat>
</desc>


                </path>
<path fill="#CEE3F5" stroke="#6E6E6E" stroke-width="0.4" id="undefined" d="M175.3545,327.3126 211.7488,320.9318 218.8386,314.5510 218.8386,289.9730 231.3639,283.5922 224.5105,283.5922 231.3639,274.1391 218.8386,274.1391 200.6415,249.5611 200.6415,246.4889 181.0263,236.7995 162.8292,240.1080 162.8292,277.2113 168.2647,289.9730 168.2647,320.9318 175.3545,327.3126Z">
                    <desc xmlns="http://www.highcharts.com/svg/namespace">
<name>Hægebostad</name>
<region>Agder</region>
<hc-group>admin2</hc-group>
<hc-key>no-ag-4226</hc-key>
<hc-a2>HÆ</hc-a2>
<hc-middle-lon>7.223</hc-middle-lon>
<hc-middle-lat>58.474</hc-middle-lat>
</desc>


                </path>
<path fill="#CEE3F5" stroke="#6E6E6E" stroke-width="0.4" id="undefined" d="M605.9419,227.3464 624.1391,230.6550 624.1391,227.3464 631.2289,230.6550 656.5159,230.6550 667.6232,228.2917 667.6232,227.3464 652.2620,225.9284 650.8440,226.6374 646.5901,225.9284 631.2289,224.2741 631.2289,222.6199 629.8109,222.6199 631.2289,220.9656 631.2289,217.8933 635.4828,218.6023 676.1310,220.9656 700.0000,212.4578 687.4747,209.1492 662.1877,206.0770 662.1877,199.6962 636.9007,206.0770 618.7036,214.8211 605.9419,227.3464 M631.2289,233.7272 649.4261,240.1080 656.5159,240.1080 656.5159,231.3639 653.6799,231.3639 642.5726,232.0729 631.2289,233.7272 M656.5159,230.6550 655.0979,230.6550 656.5159,230.6550Z">
                    <desc xmlns="http://www.highcharts.com/svg/namespace">
<name>Risør</name>
<region>Agder</region>
<hc-group>admin2</hc-group>
<hc-key>no-ag-4201</hc-key>
<hc-a2>RI</hc-a2>
<hc-middle-lon>9.154</hc-middle-lon>
<hc-middle-lat>58.738</hc-middle-lat>
</desc>


                </path>
<path fill="#CEE3F5" stroke="#6E6E6E" stroke-width="0.4" id="undefined" d="M557.0223,255.9419 580.6550,255.9419 593.4166,264.6860 600.5064,259.0142 600.5064,255.9419 603.1060,255.9419 603.1060,255.2330 597.6705,252.8697 596.2525,250.2701 599.0885,250.2701 604.5240,252.8697 605.9419,252.8697 608.7779,255.2330 611.6138,254.2876 613.0317,254.2876 613.0317,252.8697 614.4497,252.8697 620.1215,252.8697 636.9007,249.5611 638.3187,248.8521 641.1546,247.9068 656.5159,240.1080 649.4261,240.1080 631.2289,233.7272 631.2289,233.0182 631.2289,230.6550 624.1391,227.3464 624.1391,230.6550 605.9419,227.3464 580.6550,230.6550 575.2194,240.1080 557.0223,240.1080 557.0223,255.9419Z">
                    <desc xmlns="http://www.highcharts.com/svg/namespace">
<name>Tvedestrand</name>
<region>Agder</region>
<hc-group>admin2</hc-group>
<hc-key>no-ag-4213</hc-key>
<hc-a2>TV</hc-a2>
<hc-middle-lon>8.956</hc-middle-lon>
<hc-middle-lat>58.626</hc-middle-lat>
</desc>


                </path>
<path fill="#CEE3F5" stroke="#6E6E6E" stroke-width="0.4" id="undefined" d="M124.7806,115.5638 130.4524,115.5638 142.9777,112.4916 181.0263,93.5854 187.8798,87.2046 211.7488,90.2768 218.8386,83.8960 244.1256,90.2768 244.1256,77.7515 269.4126,65.6989 269.4126,62.6266 280.5199,53.1735 293.2816,49.8650 269.4126,34.9764 274.8481,18.9061 256.6509,12.7616 249.7974,3.0722 244.1256,3.0722 224.5105,6.3808 193.5517,0.0000 175.3545,0.0000 150.0675,18.9061 137.5422,18.9061 137.5422,37.3396 142.9777,49.8650 119.3450,56.2458 112.2552,72.0797 99.4936,96.6577 106.5834,112.4916 124.7806,115.5638Z">
                    <desc xmlns="http://www.highcharts.com/svg/namespace">
<name>Bykle</name>
<region>Agder</region>
<hc-group>admin2</hc-group>
<hc-key>no-ag-4222</hc-key>
<hc-a2>BY</hc-a2>
<hc-middle-lon>7.223</hc-middle-lon>
<hc-middle-lat>59.424</hc-middle-lat>
</desc>


                </path>
<path fill="#CEE3F5" stroke="#6E6E6E" stroke-width="0.4" id="undefined" d="M142.9777,112.4916 162.8292,118.8724 187.8798,118.8724 181.0263,124.3079 181.0263,159.2843 168.2647,155.9757 181.0263,172.0459 224.5105,155.9757 237.0358,155.9757 237.0358,159.2843 249.7974,152.9034 287.6097,149.8312 287.6097,146.5226 312.8967,146.5226 338.1837,137.0695 338.1837,133.9973 318.3322,124.3079 318.3322,96.6577 305.8069,80.8238 287.6097,77.7515 280.5199,65.6989 269.4126,65.6989 244.1256,77.7515 244.1256,90.2768 218.8386,83.8960 211.7488,90.2768 187.8798,87.2046 181.0263,93.5854 142.9777,112.4916Z">
                    <desc xmlns="http://www.highcharts.com/svg/namespace">
<name>Valle</name>
<region>Agder</region>
<hc-group>admin2</hc-group>
<hc-key>no-ag-4221</hc-key>
<hc-a2>VA</hc-a2>
<hc-middle-lon>7.408</hc-middle-lon>
<hc-middle-lat>59.166</hc-middle-lat>
</desc>


                </path>
<path fill="#CEE3F5" stroke="#6E6E6E" stroke-width="0.4" id="undefined" d="M155.7394,199.6962 181.0263,199.6962 206.3133,193.3153 256.6509,190.2431 280.5199,190.2431 280.5199,199.6962 300.1350,212.4578 293.2816,220.9656 312.8967,233.7272 331.0939,233.7272 338.1837,240.1080 356.3808,240.1080 356.3808,236.7995 368.9061,233.7272 374.5780,227.3464 374.5780,202.7684 381.6678,202.7684 374.5780,177.4814 381.6678,168.0284 381.6678,164.7198 374.5780,164.7198 361.8163,162.3565 350.7090,143.4504 338.1837,137.0695 312.8967,146.5226 287.6097,146.5226 287.6097,149.8312 249.7974,152.9034 237.0358,159.2843 237.0358,155.9757 224.5105,155.9757 181.0263,172.0459 181.0263,180.5537 162.8292,186.9345 155.7394,186.9345 162.8292,190.2431 155.7394,199.6962Z">
                    <desc xmlns="http://www.highcharts.com/svg/namespace">
<name>Bygland</name>
<region>Agder</region>
<hc-group>admin2</hc-group>
<hc-key>no-ag-4220</hc-key>
<hc-a2>BY</hc-a2>
<hc-middle-lon>7.527</hc-middle-lon>
<hc-middle-lat>58.87</hc-middle-lat>
</desc>


                </path>
<path fill="#CEE3F5" stroke="#6E6E6E" stroke-width="0.4" id="undefined" d="M374.5780,227.3464 450.2026,227.3464 455.8744,230.6550 462.9642,233.7272 468.6361,233.7272 475.4895,246.4889 493.6867,243.1803 493.6867,240.1080 524.6455,236.7995 544.2606,246.4889 544.2606,249.5611 557.0223,246.4889 557.0223,240.1080 544.2606,227.3464 531.7353,227.3464 524.6455,214.8211 537.1708,202.7684 557.0223,196.3876 531.7353,190.2431 518.9737,174.4092 506.4483,174.4092 488.2512,183.8623 475.4895,177.4814 450.2026,174.4092 425.1519,162.3565 399.8650,162.3565 399.8650,168.0284 381.6678,168.0284 374.5780,177.4814 381.6678,202.7684 374.5780,202.7684 374.5780,227.3464Z">
                    <desc xmlns="http://www.highcharts.com/svg/namespace">
<name>Åmli</name>
<region>Agder</region>
<hc-group>admin2</hc-group>
<hc-key>no-ag-4217</hc-key>
<hc-a2>ÅM</hc-a2>
<hc-middle-lon>8.361</hc-middle-lon>
<hc-middle-lat>58.797</hc-middle-lat>
</desc>


                </path>
<path fill="#CEE3F5" stroke="#6E6E6E" stroke-width="0.4" id="undefined" d="M262.3228,271.0668 269.4126,283.5922 305.8069,289.9730 331.0939,286.9007 331.0939,274.1391 350.7090,274.1391 350.7090,264.6860 361.8163,261.3774 399.8650,261.3774 406.7184,246.4889 387.1033,246.4889 368.9061,233.7272 356.3808,236.7995 356.3808,240.1080 338.1837,240.1080 331.0939,233.7272 312.8967,233.7272 293.2816,220.9656 287.6097,233.7272 274.8481,233.7272 274.8481,246.4889 287.6097,252.8697 280.5199,264.6860 262.3228,271.0668Z">
                    <desc xmlns="http://www.highcharts.com/svg/namespace">
<name>Evje og Hornnes</name>
<region>Agder</region>
<hc-group>admin2</hc-group>
<hc-key>no-ag-4219</hc-key>
<hc-a2>EV</hc-a2>
<hc-middle-lon>7.804</hc-middle-lon>
<hc-middle-lat>58.586</hc-middle-lat>
</desc>


                </path>
<path fill="#CEE3F5" stroke="#6E6E6E" stroke-width="0.4" id="undefined" d="M331.0939,286.9007 343.6192,301.7893 356.3808,301.7893 356.3808,314.5510 368.9061,317.6232 368.9061,320.9318 374.5780,317.6232 374.5780,314.5510 387.1033,305.8069 399.8650,301.7893 399.8650,283.5922 387.1033,283.5922 361.8163,271.0668 361.8163,261.3774 350.7090,264.6860 350.7090,274.1391 331.0939,274.1391 331.0939,286.9007Z">
                    <desc xmlns="http://www.highcharts.com/svg/namespace">
<name>Iveland</name>
<region>Agder</region>
<hc-group>admin2</hc-group>
<hc-key>no-ag-4218</hc-key>
<hc-a2>IV</hc-a2>
<hc-middle-lon>7.937</hc-middle-lon>
<hc-middle-lat>58.434</hc-middle-lat>
</desc>


                </path>
<path fill="#CEE3F5" stroke="#6E6E6E" stroke-width="0.4" id="undefined" d="M387.1033,305.8069 394.1931,320.9318 387.1033,327.3126 419.4801,327.3126 425.1519,333.4571 437.6772,333.4571 450.2026,317.6232 468.6361,317.6232 468.6361,314.5510 455.8744,311.4787 455.8744,293.2816 475.4895,280.5199 481.1614,255.9419 462.9642,252.8697 462.9642,261.3774 443.3491,267.7583 430.5874,264.6860 419.4801,246.4889 406.7184,246.4889 399.8650,261.3774 361.8163,261.3774 361.8163,271.0668 387.1033,283.5922 399.8650,283.5922 399.8650,301.7893 387.1033,305.8069Z">
                    <desc xmlns="http://www.highcharts.com/svg/namespace">
<name>Birkenes</name>
<region>Agder</region>
<hc-group>admin2</hc-group>
<hc-key>no-ag-4216</hc-key>
<hc-a2>BI</hc-a2>
<hc-middle-lon>8.175</hc-middle-lon>
<hc-middle-lat>58.441</hc-middle-lat>
</desc>


                </path>
<path fill="#CEE3F5" stroke="#6E6E6E" stroke-width="0.4" id="undefined" d="M419.4801,355.6718 419.4801,359.6894 420.8980,359.6894 423.7340,361.3437 425.1519,361.3437 425.1519,362.9980 425.1519,363.7070 437.6772,346.2188 461.5463,337.4747 464.3822,336.0567 475.4895,332.7481 475.4895,331.0939 476.9075,329.6759 481.1614,330.3849 488.2512,324.0041 468.6361,317.6232 450.2026,317.6232 437.6772,333.4571 425.1519,333.4571 425.1519,346.2188 412.3903,355.6718 419.4801,355.6718Z">
                    <desc xmlns="http://www.highcharts.com/svg/namespace">
<name>Lillesand</name>
<region>Agder</region>
<hc-group>admin2</hc-group>
<hc-key>no-ag-4215</hc-key>
<hc-a2>LI</hc-a2>
<hc-middle-lon>8.294</hc-middle-lon>
<hc-middle-lat>58.227</hc-middle-lat>
</desc>


                </path>
<path fill="#CEE3F5" stroke="#6E6E6E" stroke-width="0.4" id="undefined" d="M468.6361,317.6232 488.2512,324.0041 481.1614,330.3849 481.1614,331.0939 483.9973,333.4571 488.2512,332.0392 493.6867,332.7481 499.3585,333.4571 499.3585,332.7481 499.3585,324.0041 512.1202,311.4787 544.2606,305.8069 549.9325,299.4261 524.6455,299.4261 518.9737,296.3538 512.1202,296.3538 499.3585,289.9730 499.3585,277.2113 481.1614,280.5199 475.4895,280.5199 455.8744,293.2816 455.8744,311.4787 468.6361,314.5510 468.6361,317.6232Z">
                    <desc xmlns="http://www.highcharts.com/svg/namespace">
<name>Grimstad</name>
<region>Agder</region>
<hc-group>admin2</hc-group>
<hc-key>no-ag-4202</hc-key>
<hc-a2>GR</hc-a2>
<hc-middle-lon>8.518</hc-middle-lon>
<hc-middle-lat>58.376</hc-middle-lat>
</desc>


                </path>
<path fill="#CEE3F5" stroke="#6E6E6E" stroke-width="0.4" id="undefined" d="M499.3585,289.9730 512.1202,296.3538 518.9737,296.3538 524.6455,299.4261 549.9325,299.4261 555.6043,296.3538 555.6043,295.6448 558.2039,293.2816 563.8758,291.6273 568.1296,289.9730 579.4733,284.5375 580.6550,283.5922 594.8346,275.7934 600.5064,272.4848 600.5064,259.0142 593.4166,264.6860 580.6550,255.9419 557.0223,255.9419 557.0223,271.0668 537.1708,274.1391 524.6455,286.9007 506.4483,286.9007 499.3585,280.5199 499.3585,289.9730Z">
                    <desc xmlns="http://www.highcharts.com/svg/namespace">
<name>Arendal</name>
<region>Agder</region>
<hc-group>admin2</hc-group>
<hc-key>no-ag-4203</hc-key>
<hc-a2>AR</hc-a2>
<hc-middle-lon>8.717</hc-middle-lon>
<hc-middle-lat>58.494</hc-middle-lat>
</desc>


                </path>
<path fill="#CEE3F5" stroke="#6E6E6E" stroke-width="0.4" id="undefined" d="M557.0223,240.1080 575.2194,240.1080 580.6550,230.6550 605.9419,227.3464 618.7036,214.8211 618.7036,209.1492 600.5064,193.3153 580.6550,193.3153 568.1296,186.9345 568.1296,190.2431 562.4578,190.2431 557.0223,196.3876 537.1708,202.7684 524.6455,214.8211 531.7353,227.3464 544.2606,227.3464 557.0223,240.1080Z">
                    <desc xmlns="http://www.highcharts.com/svg/namespace">
<name>Vegårshei</name>
<region>Agder</region>
<hc-group>admin2</hc-group>
<hc-key>no-ag-4212</hc-key>
<hc-a2>VE</hc-a2>
<hc-middle-lon>8.809</hc-middle-lon>
<hc-middle-lat>58.764</hc-middle-lat>
</desc>


                </path>
<path fill="#CEE3F5" stroke="#6E6E6E" stroke-width="0.4" id="undefined" d="M568.1296,186.9345 580.6550,193.3153 600.5064,193.3153 618.7036,209.1492 618.7036,214.8211 636.9007,206.0770 662.1877,199.6962 649.4261,183.8623 631.2289,180.5537 618.7036,162.3565 575.2194,162.3565 557.0223,172.0459 568.1296,174.4092 568.1296,186.9345 M562.4578,190.2431 568.1296,190.2431 568.1296,186.9345 562.4578,190.2431Z">
                    <desc xmlns="http://www.highcharts.com/svg/namespace">
<name>Gjerstad</name>
<region>Agder</region>
<hc-group>admin2</hc-group>
<hc-key>no-ag-4211</hc-key>
<hc-a2>GJ</hc-a2>
<hc-middle-lon>8.968</hc-middle-lon>
<hc-middle-lat>58.87</hc-middle-lat>
</desc>


                </path>
<path fill="#CEE3F5" stroke="#6E6E6E" stroke-width="0.4" id="undefined" d="M368.9061,233.7272 387.1033,246.4889 419.4801,246.4889 430.5874,264.6860 443.3491,267.7583 462.9642,261.3774 462.9642,252.8697 481.1614,255.9419 475.4895,280.5199 481.1614,280.5199 499.3585,277.2113 499.3585,280.5199 506.4483,286.9007 524.6455,286.9007 537.1708,274.1391 557.0223,271.0668 557.0223,246.4889 544.2606,249.5611 544.2606,246.4889 524.6455,236.7995 493.6867,240.1080 493.6867,243.1803 475.4895,246.4889 468.6361,233.7272 462.9642,233.7272 455.8744,230.6550 450.2026,227.3464 374.5780,227.3464 368.9061,233.7272Z">
                    <desc xmlns="http://www.highcharts.com/svg/namespace">
<name>Froland</name>
<region>Agder</region>
<hc-group>admin2</hc-group>
<hc-key>no-ag-4214</hc-key>
<hc-a2>FR</hc-a2>
<hc-middle-lon>8.347</hc-middle-lon>
<hc-middle-lat>58.579</hc-middle-lat>
</desc>


                </path>
<path fill="#CEE3F5" stroke="#6E6E6E" stroke-width="0.4" id="undefined" d="M119.3450,361.3437 121.9446,362.9980 134.7063,361.3437 141.7961,360.3984 138.9602,364.4159 131.8704,365.3612 127.6165,366.0702 137.5422,370.7968 138.9602,369.1425 142.9777,370.7968 142.9777,373.8690 137.5422,382.6131 141.7961,381.9041 158.5753,376.4686 159.9932,375.5233 173.9365,370.7968 175.3545,370.7968 179.6084,370.7968 179.6084,372.4510 176.7725,373.8690 175.3545,377.1776 200.6415,361.3437 200.6415,339.8379 218.8386,336.7657 244.1256,336.7657 244.1256,314.5510 249.7974,296.3538 262.3228,296.3538 256.6509,283.5922 269.4126,283.5922 262.3228,271.0668 249.7974,277.2113 244.1256,277.2113 231.3639,274.1391 224.5105,283.5922 231.3639,283.5922 218.8386,289.9730 218.8386,314.5510 211.7488,320.9318 175.3545,327.3126 155.7394,327.3126 137.5422,339.8379 130.4524,339.8379 119.3450,343.1465 119.3450,361.3437 M150.0675,395.3747 150.0675,386.6307 168.2647,380.2498 164.0108,377.8866 161.4112,379.5409 157.1573,381.9041 148.6496,384.2674 144.3957,386.6307 150.0675,395.3747Z">
                    <desc xmlns="http://www.highcharts.com/svg/namespace">
<name>Lyngdal</name>
<region>Agder</region>
<hc-group>admin2</hc-group>
<hc-key>no-ag-4225</hc-key>
<hc-a2>LY</hc-a2>
<hc-middle-lon>7.21</hc-middle-lon>
<hc-middle-lat>58.258</hc-middle-lat>
</desc>


                </path>
<path fill="#CEE3F5" stroke="#6E6E6E" stroke-width="0.4" id="undefined" d="M293.2816,382.6131 294.6995,382.6131 300.1350,377.1776 356.3808,373.8690 366.0702,369.1425 364.6523,368.4335 368.9061,364.4159 381.6678,360.3984 385.6853,354.2539 387.1033,350.9453 385.6853,346.2188 381.6678,341.4922 387.1033,340.7833 391.3572,346.2188 394.1931,352.5996 398.4470,354.9629 399.8650,355.6718 389.9392,365.3612 391.3572,366.7792 392.7752,367.7245 395.6111,368.4335 404.1188,368.4335 406.7184,370.0878 408.1364,370.0878 413.8082,365.3612 418.0621,360.3984 420.8980,359.6894 419.4801,358.0351 419.4801,355.6718 412.3903,355.6718 425.1519,346.2188 425.1519,333.4571 419.4801,327.3126 387.1033,327.3126 387.1033,330.3849 374.5780,333.4571 374.5780,343.1465 356.3808,336.7657 331.0939,333.4571 325.4220,343.1465 312.8967,336.7657 312.8967,320.9318 300.1350,317.6232 293.2816,309.1155 274.8481,309.1155 274.8481,320.9318 269.4126,320.9318 269.4126,324.0041 274.8481,330.3849 274.8481,333.4571 293.2816,339.8379 312.8967,346.2188 312.8967,361.3437 300.1350,358.0351 293.2816,358.0351 280.5199,367.7245 293.2816,367.7245 293.2816,382.6131 M423.7340,361.3437 425.1519,361.3437 422.3160,359.6894 423.7340,361.3437Z">
                    <desc xmlns="http://www.highcharts.com/svg/namespace">
<name>Kristiansand</name>
<region>Agder</region>
<hc-group>admin2</hc-group>
<hc-key>no-ag-4204</hc-key>
<hc-a2>KR</hc-a2>
<hc-middle-lon>7.857</hc-middle-lon>
<hc-middle-lat>58.205</hc-middle-lat>
</desc>


                </path>
<path fill="#CEE3F5" stroke="#6E6E6E" stroke-width="0.4" id="undefined" d="M150.0675,395.3747 162.8292,386.6307 164.0108,384.9764 181.0263,382.6131 182.4443,382.6131 200.6415,380.2498 200.6415,381.1951 203.4774,380.2498 203.4774,383.5584 207.7313,385.9217 225.9284,388.2849 237.0358,389.9392 280.5199,389.9392 280.5199,388.2849 280.5199,386.6307 280.5199,383.5584 284.7738,388.2849 289.0277,388.9939 293.2816,384.2674 291.8636,381.9041 293.2816,382.6131 293.2816,367.7245 280.5199,367.7245 293.2816,358.0351 300.1350,358.0351 312.8967,361.3437 312.8967,346.2188 293.2816,339.8379 274.8481,333.4571 274.8481,330.3849 269.4126,324.0041 269.4126,320.9318 274.8481,320.9318 274.8481,309.1155 293.2816,309.1155 293.2816,305.8069 305.8069,289.9730 269.4126,283.5922 256.6509,283.5922 262.3228,296.3538 249.7974,296.3538 244.1256,314.5510 244.1256,336.7657 218.8386,336.7657 200.6415,339.8379 200.6415,361.3437 175.3545,377.1776 173.9365,379.5409 171.1006,380.2498 169.6826,379.5409 168.2647,380.2498 150.0675,386.6307 150.0675,395.3747Z">
                    <desc xmlns="http://www.highcharts.com/svg/namespace">
<name>Lindesnes</name>
<region>Agder</region>
<hc-group>admin2</hc-group>
<hc-key>no-ag-4205</hc-key>
<hc-a2>LI</hc-a2>
<hc-middle-lon>7.368</hc-middle-lon>
<hc-middle-lat>58.231</hc-middle-lat>
</desc>


                </path>
</g>
        
<text x="350" y="715" text-anchor="middle" font-family="Verdana" font-size="8" stroke-opacity="0.6">
            Copyright (c) 2024 Highsoft AS, Based on data from OpenStreetMap</text>

        </svg>