<?xml version="1.0" encoding="utf-8" standalone="no"?>
        <!DOCTYPE svg PUBLIC "-//W3C//DTD SVG 1.1//EN" "http://www.w3.org/Graphics/SVG/1.1/DTD/svg11.dtd">

        <svg version="1.1" viewBox="-5 -5 710 725" xmlns="http://www.w3.org/2000/svg" xmlns:xlink="http://www.w3.org/1999/xlink">
        <desc>
            Map version: 2.3.0
            Copyright (c) 2024 Highsoft AS, Based on data from OpenStreetMap
        </desc>
        <title>Norway</title>
        <g id="admin1">
<path fill="#CEE3F5" stroke="#6E6E6E" stroke-width="0.4" id="undefined" d="M136.0684,320.9901 137.4726,321.7054 137.4726,323.7983 143.0891,322.3942 141.6850,321.7054 147.3015,321.7054 147.3015,319.5860 150.1098,320.9901 148.7056,318.8971 150.1098,318.8971 150.1098,316.8042 151.5139,316.8042 151.5139,314.7112 154.2957,315.4000 152.9180,313.3071 154.2957,310.4988 151.5139,310.4988 148.7056,308.4059 151.5139,308.4059 150.1098,307.7171 150.1098,304.2200 147.3015,304.2200 145.8974,304.2200 143.0891,304.9088 141.6850,305.5976 140.2808,307.0017 141.6850,307.7171 141.6850,309.8100 138.8767,310.4988 137.4726,309.8100 136.0684,310.4988 136.0684,311.2141 136.0684,313.3071 134.6643,313.9959 138.8767,315.4000 138.8767,316.8042 137.4726,318.2083 137.4726,320.9901 136.0684,320.9901Z">
                    <desc xmlns="http://www.highcharts.com/svg/namespace">
<name>Vestfold</name>
<iso3166-2>NO-39</iso3166-2>
<hc-group>admin1</hc-group>
<hc-a2>VF</hc-a2>
<hc-key>no-vf</hc-key>
<hc-middle-lon>10.158</hc-middle-lon>
<hc-middle-lat>59.315</hc-middle-lat>
</desc>


                </path>
<path fill="#CEE3F5" stroke="#6E6E6E" stroke-width="0.4" id="undefined" d="M64.5371,301.4117 65.9413,303.5047 67.3454,304.2200 72.9354,305.5976 74.3396,304.9088 74.3396,305.5976 74.3396,304.9088 74.3396,305.5976 75.7437,305.5976 74.3396,305.5976 75.7437,305.5976 75.7437,306.3129 77.1478,306.3129 75.7437,306.3129 77.1478,306.3129 75.7437,308.4059 78.5520,309.0947 77.1478,311.9030 78.5520,313.3071 81.3602,313.3071 81.3602,316.0889 82.7644,316.8042 81.3602,317.4930 84.1685,318.8971 86.9768,323.0830 92.5933,323.0830 95.4016,323.0830 96.8057,324.4872 102.3957,325.2025 103.7999,324.4872 109.4164,326.5801 109.4164,323.7983 110.8205,322.3942 115.0329,322.3942 115.0329,323.7983 120.6495,325.8913 120.6495,327.9843 124.8619,327.9843 127.6436,326.5801 122.0536,326.5801 129.0478,324.4872 131.8560,322.3942 134.6643,321.7054 131.8560,320.9901 129.0478,318.8971 131.8560,318.8971 131.8560,320.3013 136.0684,320.9901 137.4726,321.7054 136.0684,320.9901 137.4726,320.9901 137.4726,318.2083 138.8767,316.8042 138.8767,315.4000 134.6643,313.9959 136.0684,313.3071 136.0684,311.2141 131.8560,311.2141 129.0478,309.0947 129.0478,309.8100 129.0478,309.0947 129.0478,309.8100 127.6436,309.8100 127.6436,306.3129 126.2395,306.3129 126.2395,304.2200 123.4577,303.5047 124.8619,302.8158 123.4577,300.7229 120.6495,300.7229 120.6495,299.3187 120.6495,297.9146 117.8412,296.5105 115.0329,296.5105 115.0329,293.7287 110.8205,292.3246 109.4164,290.9204 93.9974,290.9204 92.5933,290.9204 93.9974,290.9204 92.5933,290.9204 88.3809,291.6093 84.1685,293.0134 81.3602,292.3246 75.7437,293.0134 74.3396,295.1064 70.1272,295.8217 65.9413,298.6034 65.9413,301.4117 64.5371,301.4117Z">
                    <desc xmlns="http://www.highcharts.com/svg/namespace">
<name>Telemark</name>
<iso3166-2>NO-40</iso3166-2>
<hc-group>admin1</hc-group>
<hc-a2>TE</hc-a2>
<hc-key>no-te</hc-key>
<hc-middle-lon>8.496</hc-middle-lon>
<hc-middle-lat>59.48</hc-middle-lat>
</desc>


                </path>
<path fill="#CEE3F5" stroke="#6E6E6E" stroke-width="0.4" id="undefined" d="M16.8231,313.3071 15.4190,313.3071 15.4190,311.2141 14.0148,311.9030 14.0148,318.2083 16.8231,318.2083 18.2272,314.7112 16.8231,313.3071 M14.0148,308.4059 14.0148,310.4988 15.4190,311.2141 16.8231,313.3071 19.6314,313.3071 21.0355,311.9030 21.0355,314.7112 23.8438,314.7112 25.2479,313.3071 32.2686,313.3071 30.8644,311.2141 28.0562,311.2141 32.2686,308.4059 32.2686,309.8100 39.2892,309.8100 32.2686,310.4988 32.2686,311.9030 35.0768,312.5918 35.0768,311.2141 37.8851,311.2141 42.0710,308.4059 42.0710,306.3129 43.4751,305.5976 43.4751,307.7171 49.0917,307.0017 47.6875,307.7171 42.0710,308.4059 42.0710,309.8100 37.8851,311.9030 36.4810,313.3071 42.0710,313.3071 42.0710,313.9959 37.8851,313.9959 39.2892,315.4000 44.8793,313.3071 47.6875,313.3071 42.0710,314.7112 36.4810,317.4930 39.2892,318.2083 32.2686,320.3013 35.0768,322.3942 36.4810,324.4872 39.2892,322.3942 43.4751,321.7054 51.8999,320.9901 40.6934,322.3942 37.8851,324.4872 37.8851,326.5801 32.2686,323.0830 28.0562,325.8913 28.0562,323.0830 23.8438,320.9901 23.8438,327.9843 22.4396,330.0772 23.8438,330.0772 23.8438,332.1702 30.8644,336.3826 33.6727,335.6672 35.0768,337.7867 37.8851,338.4755 39.2892,339.8796 46.2834,341.2838 51.8999,339.8796 51.8999,333.5743 51.8999,332.8855 51.8999,333.5743 51.8999,332.8855 49.0917,332.1702 47.6875,330.7925 51.8999,330.7925 51.8999,329.3884 49.0917,328.6731 53.3041,323.7983 53.3041,322.3942 56.1123,321.7054 60.3247,318.8971 58.9206,318.8971 60.3247,318.8971 58.9206,318.8971 60.3247,317.4930 57.5165,317.4930 57.5165,313.3071 58.9206,313.3071 60.3247,311.2141 63.1330,309.0947 61.7289,309.0947 63.1330,309.0947 61.7289,309.0947 61.7289,306.3129 63.1330,306.3129 64.5371,304.9088 67.3454,304.2200 65.9413,303.5047 64.5371,301.4117 54.7082,303.5047 53.3041,302.1005 54.7082,300.0076 49.0917,300.0076 47.6875,301.4117 44.8793,301.4117 42.0710,304.9088 40.6934,304.9088 40.6934,305.5976 40.6934,304.9088 40.6934,305.5976 40.6934,307.0017 33.6727,306.3129 30.8644,304.9088 29.4603,304.9088 28.0562,306.3129 28.0562,304.2200 23.8438,304.2200 23.8438,304.9088 23.8438,307.7171 19.6314,309.0947 16.8231,309.8100 14.0148,308.4059 M25.2479,318.8971 29.4603,320.3013 29.4603,318.8971 25.2479,318.8971 M29.4603,304.2200 29.4603,304.9088 29.4603,304.2200 M29.4603,317.4930 32.2686,318.8971 32.2686,316.8042 29.4603,317.4930 M33.6727,316.0889 37.8851,316.0889 37.8851,314.7112 35.0768,314.7112 33.6727,316.0889Z">
                    <desc xmlns="http://www.highcharts.com/svg/namespace">
<name>Rogaland</name>
<iso3166-2>NO-11</iso3166-2>
<hc-group>admin1</hc-group>
<hc-a2>RO</hc-a2>
<hc-key>no-ro</hc-key>
<hc-middle-lon>6.036</hc-middle-lon>
<hc-middle-lat>59.061</hc-middle-lat>
</desc>


                </path>
<path fill="#CEE3F5" stroke="#6E6E6E" stroke-width="0.4" id="undefined" d="M186.5642,305.5976 185.1601,304.9088 180.9742,304.9088 178.1659,304.2200 178.1659,302.8158 173.9535,302.1005 173.9535,304.2200 171.1453,304.2200 171.1453,303.5047 171.1453,304.2200 171.1453,303.5047 166.9329,304.9088 166.9329,305.5976 166.9329,304.9088 166.9329,305.5976 162.7205,307.0017 162.7205,307.7171 162.7205,307.0017 162.7205,307.7171 161.3163,309.8100 159.9122,309.8100 161.3163,309.8100 159.9122,309.8100 159.9122,309.0947 159.9122,309.8100 158.5081,309.0947 157.1039,311.2141 158.5081,311.2141 158.5081,313.3071 162.7205,313.9959 161.3163,316.0889 162.7205,318.2083 165.5287,317.4930 166.9329,318.8971 171.1453,318.8971 172.5494,318.2083 173.9535,319.5860 176.7618,318.8971 179.5701,320.9901 180.9742,323.0830 179.5701,325.2025 183.7560,325.2025 186.5642,323.7983 186.5642,320.9901 187.9684,320.9901 187.9684,317.4930 189.3725,317.4930 189.3725,312.5918 187.9684,311.9030 187.9684,308.4059 186.5642,307.7171 186.5642,305.5976 M158.5081,308.4059 158.5081,309.0947 159.9122,309.0947 158.5081,308.4059 M168.3370,321.7054 169.7411,320.3013 168.3370,319.5860 168.3370,321.7054Z">
                    <desc xmlns="http://www.highcharts.com/svg/namespace">
<name>Østfold</name>
<iso3166-2>NO-31</iso3166-2>
<hc-group>admin1</hc-group>
<hc-a2>OF</hc-a2>
<hc-key>no-of</hc-key>
<hc-middle-lon>11.211</hc-middle-lon>
<hc-middle-lat>59.324</hc-middle-lat>
</desc>


                </path>
<path fill="#CEE3F5" stroke="#6E6E6E" stroke-width="0.4" id="undefined" d="M154.2957,295.1064 158.5081,296.5105 158.5081,298.6034 161.3163,298.6034 161.3163,300.0076 161.3163,300.7229 165.5287,300.7229 165.5287,300.0076 165.5287,300.7229 165.5287,300.0076 165.5287,297.2258 162.7205,294.4175 162.7205,293.7287 162.7205,294.4175 162.7205,293.7287 161.3163,292.3246 157.1039,292.3246 157.1039,294.4175 154.2957,295.1064Z">
                    <desc xmlns="http://www.highcharts.com/svg/namespace">
<name>Oslo</name>
<iso3166-2>NO-03</iso3166-2>
<hc-group>admin1</hc-group>
<hc-a2>OS</hc-a2>
<hc-key>no-os</hc-key>
<hc-middle-lon>10.72</hc-middle-lon>
<hc-middle-lat>59.972</hc-middle-lat>
</desc>


                </path>
<path fill="#CEE3F5" stroke="#6E6E6E" stroke-width="0.4" id="undefined" d="M147.3015,285.3304 150.1098,288.1122 150.1098,290.2316 151.5139,290.2316 155.6998,290.9204 157.1039,292.3246 161.3163,292.3246 162.7205,293.7287 162.7205,294.4175 162.7205,293.7287 162.7205,294.4175 165.5287,297.2258 165.5287,300.0076 165.5287,300.7229 165.5287,300.0076 165.5287,300.7229 161.3163,300.7229 161.3163,300.0076 159.9122,302.8158 159.9122,300.7229 158.5081,299.3187 157.1039,300.7229 157.1039,304.2200 158.5081,303.5047 158.5081,306.3129 158.5081,308.4059 159.9122,309.0947 159.9122,309.8100 161.3163,309.8100 159.9122,309.8100 161.3163,309.8100 162.7205,307.7171 162.7205,307.0017 162.7205,307.7171 162.7205,307.0017 166.9329,305.5976 166.9329,304.9088 166.9329,305.5976 166.9329,304.9088 171.1453,303.5047 171.1453,304.2200 171.1453,303.5047 171.1453,304.2200 173.9535,304.2200 173.9535,302.1005 178.1659,302.8158 178.1659,304.2200 180.9742,304.9088 185.1601,304.9088 186.5642,305.5976 187.9684,304.9088 193.5849,304.2200 192.1808,303.5047 192.1808,300.7229 190.7766,300.0076 189.3725,300.0076 190.7766,300.0076 189.3725,300.0076 189.3725,299.3187 189.3725,293.7287 187.9684,293.7287 187.9684,293.0134 187.9684,293.7287 187.9684,293.0134 183.7560,292.3246 183.7560,290.9204 183.7560,288.1122 180.9742,288.1122 180.9742,286.7345 178.1659,286.0192 178.1659,283.9263 173.9535,282.5221 173.9535,281.1445 171.1453,279.7404 171.1453,281.8333 166.9329,283.2375 164.1246,283.2375 159.9122,281.8333 159.9122,284.6151 164.1246,284.6151 165.5287,286.7345 165.5287,287.4234 151.5139,287.4234 151.5139,286.0192 147.3015,285.3304 M150.1098,302.8158 151.5139,304.2200 152.9180,304.9088 152.9180,305.5976 152.9180,308.4059 155.6998,308.4059 158.5081,306.3129 157.1039,304.2200 154.2957,303.5047 154.2957,300.0076 155.6998,298.6034 158.5081,298.6034 158.5081,296.5105 154.2957,295.1064 151.5139,296.5105 151.5139,301.4117 150.1098,302.8158Z">
                    <desc xmlns="http://www.highcharts.com/svg/namespace">
<name>Akershus</name>
<iso3166-2>NO-32</iso3166-2>
<hc-group>admin1</hc-group>
<hc-a2>AK</hc-a2>
<hc-key>no-ak</hc-key>
<hc-middle-lon>11.07</hc-middle-lon>
<hc-middle-lat>60.038</hc-middle-lat>
</desc>


                </path>
<path fill="#CEE3F5" stroke="#6E6E6E" stroke-width="0.4" id="undefined" d="M440.4738,25.1684 443.2821,25.8837 450.3028,25.8837 453.1110,27.9767 457.3234,27.9767 457.3234,26.5726 462.9135,26.5726 462.9135,27.9767 465.7217,29.3808 467.1259,32.1626 472.7424,32.8779 474.1465,33.5667 474.1465,35.6597 472.7424,36.3750 475.5507,37.7526 474.1465,38.4679 479.7631,40.5609 483.9755,39.8721 481.1672,41.2497 479.7631,44.0580 478.3589,43.3692 469.9341,44.7468 468.5300,45.4621 468.5300,47.5551 474.1465,50.3633 474.1465,53.8604 469.9341,55.2381 460.1317,55.2381 460.1317,55.9534 464.3176,58.0463 464.3176,58.7351 469.9341,62.2322 469.9341,65.0405 471.3383,64.3517 476.9548,64.3517 481.1672,65.7293 488.1879,65.7293 490.9696,67.1334 496.5862,65.7293 500.7986,65.7293 500.7986,65.0405 505.0110,65.0405 506.4151,62.9475 509.2234,61.5434 512.0316,61.5434 520.4299,65.0405 526.0465,65.0405 534.4713,67.1334 534.4713,68.5376 537.2795,69.2264 537.2795,67.8223 542.8961,67.1334 542.8961,62.9475 549.8902,60.1393 556.9109,60.1393 559.7192,57.3575 559.7192,55.2381 558.3150,55.2381 558.3150,50.3633 559.7192,50.3633 559.7192,48.2439 561.1233,48.2439 561.1233,44.7468 562.5274,44.7468 562.5274,42.6538 565.3357,41.9650 565.3357,38.4679 568.1440,38.4679 569.5481,37.0638 572.3564,36.3750 573.7340,34.9709 576.5423,34.9709 577.9464,32.1626 589.1795,32.1626 589.1795,32.8779 597.6043,32.8779 603.1943,30.7585 603.1943,30.0696 607.4067,30.0696 608.8108,28.6655 618.6398,28.6655 618.6398,30.7585 622.8522,32.8779 628.4687,34.2555 627.0646,34.9709 631.2505,35.6597 631.2505,36.3750 635.4629,36.3750 635.4629,37.0638 639.6753,37.0638 649.5042,39.1568 652.3125,43.3692 653.7166,43.3692 653.7166,45.4621 641.0794,51.7410 639.6753,53.8604 645.2918,56.6422 648.1001,56.6422 649.5042,55.2381 652.3125,54.5492 652.3125,51.0522 653.7166,48.9592 660.7108,48.9592 666.3273,46.1509 671.9438,46.1509 674.7521,45.4621 674.7521,43.3692 676.1562,43.3692 676.1562,40.5609 677.5604,39.8721 685.9587,43.3692 694.3835,43.3692 697.1917,42.6538 697.1917,39.8721 695.7876,39.8721 695.7876,37.7526 694.3835,36.3750 690.1711,37.0638 690.1711,35.6597 683.1769,35.6597 684.5545,37.7526 683.1769,37.7526 683.1769,35.6597 678.9645,34.9709 678.9645,33.5667 676.1562,34.2555 676.1562,36.3750 674.7521,37.0638 676.1562,39.1568 673.3480,37.0638 669.1356,37.7526 663.5190,37.7526 659.3066,39.8721 659.3066,38.4679 664.9232,36.3750 666.3273,34.9709 663.5190,33.5667 660.7108,33.5667 663.5190,31.4738 655.1207,30.7585 655.1207,30.0696 649.5042,30.7585 649.5042,29.3808 645.2918,29.3808 641.0794,27.9767 635.4629,27.9767 638.2711,26.5726 634.0587,26.5726 636.8670,25.8837 650.9083,27.9767 676.1562,28.6655 681.7728,27.2614 681.7728,25.8837 685.9587,24.4796 697.1917,23.7643 700.0000,23.0755 700.0000,20.9825 697.1917,18.8896 692.9793,19.5784 691.5752,18.1742 687.3628,17.4854 684.5545,16.0813 676.1562,16.7966 678.9645,16.0813 680.3686,14.6772 674.7521,13.9883 677.5604,12.5842 674.7521,11.8954 670.5397,11.8954 667.7314,13.9883 663.5190,14.6772 666.3273,12.5842 663.5190,11.1801 655.1207,12.5842 656.5249,11.1801 653.7166,11.1801 656.5249,9.8024 652.3125,9.8024 652.3125,8.3983 646.6959,8.3983 646.6959,7.6830 639.6753,7.6830 635.4629,9.8024 632.6546,11.8954 629.8463,16.0813 632.6546,18.8896 629.8463,17.4854 627.0646,18.1742 627.0646,19.5784 624.2563,21.6713 624.2563,27.9767 620.0439,29.3808 624.2563,26.5726 622.8522,24.4796 622.8522,20.2937 627.0646,17.4854 624.2563,17.4854 622.8522,18.8896 620.0439,18.8896 624.2563,17.4854 620.0439,17.4854 617.2356,18.1742 615.8315,19.5784 615.8315,17.4854 625.6604,14.6772 627.0646,11.8954 613.0232,14.6772 613.0232,13.9883 617.2356,12.5842 621.4480,12.5842 622.8522,11.1801 618.6398,11.1801 618.6398,10.4913 613.0232,11.1801 613.0232,9.8024 625.6604,9.8024 632.6546,6.9942 634.0587,4.9012 631.2505,4.1859 625.6604,4.9012 624.2563,4.1859 625.6604,2.0930 622.8522,2.0930 621.4480,3.4971 620.0439,2.8083 614.4274,3.4971 611.6191,2.8083 610.2150,0.6888 608.8108,2.0930 606.0026,2.0930 607.4067,3.4971 607.4067,5.5900 606.0026,4.1859 599.0084,3.4971 599.0084,4.9012 601.7902,5.5900 596.2001,5.5900 596.2001,6.9942 601.7902,7.6830 606.0026,7.6830 606.0026,9.0871 608.8108,9.8024 600.4125,9.0871 601.7902,11.1801 596.2001,11.1801 594.7960,13.9883 599.0084,14.6772 593.3919,14.6772 591.9877,15.3925 593.3919,18.1742 587.7753,18.1742 586.3712,19.5784 582.1588,19.5784 583.5629,20.9825 579.3505,21.6713 579.3505,18.8896 580.7547,18.8896 580.7547,16.7966 582.1588,16.7966 583.5629,13.9883 582.1588,13.2995 575.1381,13.9883 583.5629,11.8954 584.9671,10.4913 584.9671,8.3983 583.5629,7.6830 584.9671,6.3054 582.1588,5.5900 576.5423,7.6830 568.1440,11.8954 565.3357,14.6772 551.2944,21.6713 554.1026,23.0755 549.8902,25.1684 549.8902,25.8837 545.6778,27.9767 542.8961,28.6655 540.0878,27.2614 540.0878,29.3808 538.6837,28.6655 538.6837,24.4796 541.4919,24.4796 545.6778,22.3866 541.4919,21.6713 544.3002,20.2937 547.0820,20.9825 545.6778,19.5784 547.0820,17.4854 545.6778,16.7966 541.4919,17.4854 547.0820,15.3925 547.0820,14.6772 551.2944,13.9883 561.1233,9.0871 563.9316,8.3983 562.5274,6.9942 561.1233,7.6830 555.5068,6.9942 554.1026,8.3983 552.6985,7.6830 554.1026,6.3054 549.8902,4.9012 548.4861,5.5900 549.8902,7.6830 547.0820,9.0871 542.8961,6.3054 541.4919,7.6830 538.6837,7.6830 541.4919,6.3054 540.0878,4.9012 538.6837,6.9942 534.4713,6.9942 535.8754,6.3054 533.0671,4.9012 528.8547,4.9012 528.8547,6.3054 531.6630,7.6830 528.8547,8.3983 530.2589,10.4913 528.8547,10.4913 523.2382,7.6830 520.4299,8.3983 520.4299,10.4913 528.8547,11.1801 533.0671,13.9883 530.2589,14.6772 526.0465,12.5842 521.8341,12.5842 520.4299,14.6772 516.2440,16.0813 521.8341,18.1742 517.6217,17.4854 509.2234,17.4854 503.6068,20.2937 500.7986,20.9825 499.3944,22.3866 500.7986,23.0755 495.1820,23.7643 493.7779,24.4796 499.3944,23.7643 499.3944,24.4796 493.7779,25.1684 493.7779,25.8837 497.9903,25.8837 496.5862,27.9767 492.3738,27.9767 490.9696,28.6655 495.1820,30.0696 500.7986,30.0696 500.7986,30.7585 495.1820,32.1626 495.1820,30.7585 490.9696,32.1626 489.5655,30.0696 486.7837,30.0696 486.7837,27.2614 479.7631,28.6655 476.9548,28.6655 468.5300,30.0696 467.1259,29.3808 471.3383,29.3808 471.3383,28.6655 475.5507,28.6655 482.5713,27.9767 485.3796,25.1684 475.5507,25.1684 472.7424,23.7643 469.9341,24.4796 468.5300,26.5726 474.1465,27.2614 467.1259,27.2614 467.1259,24.4796 468.5300,23.0755 464.3176,23.0755 462.9135,24.4796 462.9135,22.3866 460.1317,22.3866 455.9193,23.7643 455.9193,25.8837 451.7069,23.7643 447.4945,22.3866 447.4945,25.1684 444.6862,24.4796 440.4738,24.4796 440.4738,25.1684 M451.7069,23.7643 454.5152,23.0755 454.5152,21.6713 451.7069,20.9825 451.7069,23.7643 M458.7276,13.9883 462.9135,14.6772 468.5300,14.6772 464.3176,17.4854 467.1259,18.1742 468.5300,17.4854 475.5507,17.4854 476.9548,16.0813 482.5713,16.0813 483.9755,16.7966 486.7837,16.0813 486.7837,14.6772 489.5655,15.3925 488.1879,13.9883 490.9696,13.9883 490.9696,12.5842 493.7779,12.5842 495.1820,11.1801 497.9903,11.1801 496.5862,9.8024 499.3944,9.8024 495.1820,7.6830 495.1820,10.4913 488.1879,9.0871 489.5655,11.8954 486.7837,11.8954 486.7837,13.2995 483.9755,12.5842 485.3796,11.8954 481.1672,11.1801 481.1672,13.2995 478.3589,14.6772 478.3589,13.2995 475.5507,11.8954 465.7217,13.9883 460.1317,13.2995 458.7276,13.9883 M469.9341,22.3866 472.7424,23.0755 486.7837,24.4796 485.3796,22.3866 476.9548,20.9825 472.7424,20.9825 469.9341,22.3866 M482.5713,20.2937 485.3796,21.6713 489.5655,20.9825 489.5655,23.0755 490.9696,23.7643 496.5862,22.3866 502.2027,19.5784 503.6068,19.5784 503.6068,17.4854 502.2027,17.4854 502.2027,14.6772 499.3944,13.9883 496.5862,14.6772 499.3944,16.0813 495.1820,16.0813 493.7779,18.1742 489.5655,16.7966 485.3796,18.1742 485.3796,20.2937 482.5713,20.2937 M509.2234,17.4854 516.2440,15.3925 514.8399,12.5842 512.0316,11.8954 507.8192,11.8954 509.2234,11.1801 505.0110,11.1801 503.6068,11.8954 505.0110,13.2995 505.0110,16.0813 509.2234,17.4854 M510.6275,4.1859 510.6275,4.9012 517.6217,4.9012 519.0258,4.1859 514.8399,4.1859 512.0316,3.4971 510.6275,4.1859 M528.8547,2.8083 533.0671,3.4971 534.4713,2.0930 528.8547,2.8083 M554.1026,6.3054 558.3150,5.5900 563.9316,5.5900 565.3357,4.9012 569.5481,4.9012 572.3564,3.4971 570.9522,2.8083 568.1440,4.1859 565.3357,4.1859 566.7398,1.4041 559.7192,1.4041 561.1233,0.0000 558.3150,0.6888 556.9109,0.0000 554.1026,0.6888 558.3150,2.0930 548.4861,2.0930 547.0820,4.1859 551.2944,3.4971 554.1026,4.1859 551.2944,4.9012 554.1026,6.3054 M559.7192,12.5842 562.5274,13.2995 562.5274,11.8954 559.7192,12.5842 M664.9232,36.3750 663.5190,37.0638 669.1356,37.0638 674.7521,34.9709 671.9438,34.2555 669.1356,32.8779 666.3273,33.5667 667.7314,34.9709 664.9232,36.3750Z">
                    <desc xmlns="http://www.highcharts.com/svg/namespace">
<name>Finnmark</name>
<iso3166-2>NO-56</iso3166-2>
<hc-group>admin1</hc-group>
<hc-a2>FI</hc-a2>
<hc-key>no-fi</hc-key>
<hc-middle-lon>26.174</hc-middle-lon>
<hc-middle-lat>69.86</hc-middle-lat>
</desc>


                </path>
<path fill="#CEE3F5" stroke="#6E6E6E" stroke-width="0.4" id="undefined" d="M95.4016,215.3887 99.5875,214.6999 106.6081,214.6999 109.4164,213.2957 113.6288,213.2957 115.0329,213.9846 117.8412,213.9846 117.8412,217.4816 117.8412,218.1970 122.0536,218.1970 123.4577,219.6011 123.4577,222.3829 117.8412,222.3829 113.6288,223.7870 117.8412,227.2841 120.6495,227.2841 120.6495,227.9729 120.6495,227.2841 120.6495,227.9729 120.6495,228.6882 120.6495,229.3770 120.6495,228.6882 120.6495,229.3770 120.6495,231.4700 117.8412,232.8741 116.4371,232.8741 117.8412,232.8741 117.8412,233.5894 122.0536,233.5894 122.0536,234.2783 126.2395,234.2783 131.8560,236.3712 134.6643,234.9671 137.4726,234.9671 137.4726,232.8741 140.2808,233.5894 143.0891,230.7812 141.6850,227.9729 143.0891,227.2841 144.4932,225.1911 145.8974,225.1911 144.4932,225.1911 145.8974,225.1911 145.8974,224.4758 152.9180,224.4758 154.2957,225.1911 159.9122,225.1911 161.3163,225.8799 162.7205,224.4758 166.9329,224.4758 171.1453,225.1911 172.5494,227.2841 173.9535,227.9729 176.7618,228.6882 176.7618,229.3770 176.7618,228.6882 176.7618,229.3770 176.7618,228.6882 176.7618,229.3770 176.7618,228.6882 176.7618,229.3770 180.9742,230.7812 182.3518,232.8741 186.5642,232.8741 186.5642,233.5894 187.9684,233.5894 186.5642,233.5894 187.9684,233.5894 186.5642,233.5894 187.9684,233.5894 187.9684,232.8741 193.5849,232.8741 196.3932,234.2783 200.6056,234.2783 200.6056,232.1853 197.7973,230.0923 196.3932,227.2841 196.3932,224.4758 197.7973,223.7870 197.7973,220.2899 196.3932,220.2899 196.3932,218.1970 199.2014,217.4816 199.2014,214.6999 197.7973,212.6069 193.5849,209.1098 196.3932,207.7057 196.3932,206.3016 200.6056,203.4933 199.2014,202.8045 199.2014,200.7115 197.7973,200.7115 203.4138,197.9033 209.0304,193.7174 211.8121,190.9091 216.0245,188.8161 223.0452,187.4120 231.4700,187.4120 232.8741,188.1273 238.4642,188.1273 239.8683,188.8161 246.8890,189.5315 248.2931,187.4120 251.1014,185.3191 251.1014,178.3249 249.6972,176.9207 245.4848,176.9207 242.6766,176.2319 238.4642,174.1390 241.2724,172.0460 245.4848,167.8336 248.2931,166.4295 248.2931,165.0519 253.9096,162.2436 255.3138,160.1506 232.8741,160.1506 232.8741,160.8395 227.2576,160.8395 227.2576,160.1506 223.0452,160.1506 220.2369,162.2436 220.2369,163.6477 213.2163,164.3365 210.4080,165.0519 210.4080,163.6477 203.4138,163.6477 203.4138,164.3365 199.2014,164.3365 199.2014,163.6477 199.2014,162.9324 197.7973,162.9324 194.9890,162.9324 194.9890,161.5548 189.3725,162.9324 187.9684,164.3365 183.7560,164.3365 179.5701,165.0519 175.3577,166.4295 173.9535,167.1448 183.7560,166.4295 182.3518,167.1448 175.3577,167.1448 176.7618,168.5489 179.5701,168.5489 175.3577,170.6419 178.1659,169.9266 182.3518,167.8336 185.1601,167.1448 183.7560,166.4295 187.9684,166.4295 192.1808,164.3365 196.3932,164.3365 192.1808,165.0519 189.3725,166.4295 185.1601,167.1448 189.3725,168.5489 189.3725,169.2378 182.3518,169.2378 178.1659,172.0460 180.9742,174.1390 183.7560,174.8278 183.7560,173.4237 187.9684,174.1390 183.7560,175.5431 180.9742,175.5431 179.5701,176.2319 179.5701,177.6361 185.1601,176.9207 183.7560,177.6361 179.5701,177.6361 178.1659,179.0402 175.3577,179.7290 176.7618,178.3249 175.3577,177.6361 172.5494,178.3249 172.5494,176.9207 169.7411,176.2319 169.7411,174.1390 165.5287,174.1390 166.9329,174.8278 166.9329,176.9207 164.1246,176.2319 162.7205,176.2319 161.3163,177.6361 158.5081,178.3249 162.7205,178.3249 164.1246,179.7290 161.3163,179.0402 154.2957,178.3249 157.1039,179.0402 152.9180,180.4178 152.9180,181.8220 148.7056,183.2261 151.5139,184.6302 145.8974,184.6302 144.4932,186.7232 147.3015,187.4120 141.6850,187.4120 141.6850,188.8161 141.6850,190.9091 140.2808,192.3132 145.8974,190.9091 147.3015,191.6244 143.0891,192.3132 138.8767,192.3132 136.0684,193.0285 137.4726,193.7174 133.2602,194.4062 129.0478,195.8103 130.4519,196.4991 134.6643,195.8103 130.4519,197.2144 129.0478,198.6186 134.6643,197.9033 140.2808,195.8103 143.0891,196.4991 137.4726,197.9033 136.0684,199.9962 138.8767,200.7115 138.8767,202.8045 141.6850,203.4933 147.3015,201.4003 151.5139,201.4003 155.6998,199.9962 159.9122,197.9033 165.5287,197.2144 168.3370,195.1215 169.7411,193.7174 166.9329,192.3132 166.9329,190.9091 172.5494,189.5315 176.7618,186.7232 175.3577,188.8161 179.5701,188.8161 180.9742,190.2203 175.3577,190.9091 171.1453,193.7174 175.3577,193.0285 175.3577,193.7174 179.5701,193.7174 179.5701,195.8103 173.9535,195.8103 173.9535,197.2144 171.1453,197.9033 168.3370,197.2144 165.5287,197.9033 158.5081,201.4003 164.1246,201.4003 161.3163,202.8045 164.1246,204.8974 159.9122,204.2086 157.1039,204.8974 155.6998,204.2086 145.8974,204.2086 143.0891,205.6127 144.4932,206.9904 148.7056,206.9904 148.7056,207.7057 144.4932,207.7057 140.2808,206.9904 140.2808,204.2086 136.0684,202.8045 134.6643,199.3074 129.0478,199.9962 130.4519,202.1157 127.6436,201.4003 124.8619,202.8045 124.8619,201.4003 122.0536,202.8045 119.2453,202.8045 119.2453,204.2086 124.8619,204.2086 119.2453,204.8974 120.6495,206.3016 126.2395,206.3016 120.6495,207.7057 117.8412,207.7057 119.2453,205.6127 116.4371,204.2086 110.8205,205.6127 109.4164,204.8974 109.4164,206.3016 112.2247,206.3016 112.2247,208.3945 110.8205,208.3945 110.8205,210.4875 110.8205,211.2028 106.6081,211.2028 103.7999,211.8916 103.7999,212.6069 96.8057,212.6069 96.8057,213.9846 93.9974,212.6069 93.9974,215.3887 95.4016,215.3887 M108.0123,195.1215 106.6081,195.8103 108.0123,195.8103 98.1833,197.9033 96.8057,198.6186 102.3957,197.9033 100.9916,198.6186 109.4164,197.9033 110.8205,196.4991 108.0123,195.1215 M117.8412,199.9962 116.4371,199.9962 115.0329,199.9962 115.0329,199.3074 109.4164,199.3074 103.7999,200.7115 108.0123,201.4003 99.5875,201.4003 95.4016,204.2086 99.5875,204.8974 106.6081,204.2086 117.8412,202.1157 117.8412,199.9962 M106.6081,195.8103 108.0123,195.1215 106.6081,195.8103 M115.0329,199.9962 116.4371,199.9962 117.8412,199.9962 117.8412,198.6186 116.4371,198.6186 115.0329,199.9962 M116.4371,198.6186 117.8412,198.6186 116.4371,198.6186 M141.6850,188.8161 141.6850,187.4120 140.2808,188.8161 141.6850,188.8161 M171.1453,164.3365 168.3370,163.6477 166.9329,164.3365 162.7205,165.0519 159.9122,167.1448 162.7205,167.1448 171.1453,164.3365 M162.7205,165.0519 162.7205,164.3365 166.9329,164.3365 166.9329,163.6477 161.3163,163.6477 162.7205,165.0519 M162.7205,176.2319 164.1246,176.2319 162.7205,176.2319 M173.9535,167.1448 175.3577,166.4295 175.3577,165.7407 171.1453,165.0519 171.1453,164.3365 169.7411,164.3365 164.1246,167.1448 168.3370,165.7407 171.1453,165.7407 169.7411,167.8336 173.9535,167.1448 M168.3370,195.1215 169.7411,196.4991 173.9535,194.4062 168.3370,195.1215 M169.7411,174.1390 172.5494,176.2319 179.5701,177.6361 179.5701,176.2319 179.5701,175.5431 176.7618,175.5431 175.3577,174.1390 171.1453,173.4237 169.7411,174.1390 M175.3577,174.1390 176.7618,174.1390 178.1659,172.0460 176.7618,171.3307 172.5494,172.0460 175.3577,172.7348 175.3577,174.1390 M179.5701,175.5431 180.9742,175.5431 180.9742,174.1390 178.1659,173.4237 176.7618,174.1390 179.5701,175.5431 M182.3518,161.5548 186.5642,162.2436 187.9684,160.1506 183.7560,160.1506 182.3518,161.5548Z">
                    <desc xmlns="http://www.highcharts.com/svg/namespace">
<name>Trøndelag</name>
<iso3166-2>NO-50</iso3166-2>
<hc-group>admin1</hc-group>
<hc-a2>TD</hc-a2>
<hc-key>no-td</hc-key>
<hc-middle-lon>11.246</hc-middle-lon>
<hc-middle-lat>63.697</hc-middle-lat>
</desc>


                </path>
<path fill="#CEE3F5" stroke="#6E6E6E" stroke-width="0.4" id="undefined" d="M22.4396,241.9612 21.0355,243.3654 33.6727,243.3654 35.0768,243.3654 37.8851,244.0542 40.6934,242.6766 42.0710,243.3654 47.6875,243.3654 47.6875,244.7695 50.4958,244.0542 56.1123,244.0542 56.1123,243.3654 64.5371,243.3654 64.5371,242.6766 71.5313,242.6766 72.9354,240.5571 78.5520,241.2724 78.5520,239.8683 81.3602,237.7753 86.9768,238.4642 92.5933,235.6824 95.4016,233.5894 99.5875,232.8741 112.2247,232.8741 116.4371,233.5894 116.4371,232.8741 117.8412,232.8741 120.6495,231.4700 120.6495,229.3770 120.6495,228.6882 120.6495,229.3770 120.6495,228.6882 120.6495,227.9729 120.6495,227.2841 120.6495,227.9729 120.6495,227.2841 117.8412,227.2841 113.6288,223.7870 117.8412,222.3829 123.4577,222.3829 123.4577,219.6011 122.0536,218.1970 117.8412,218.1970 117.8412,217.4816 117.8412,213.9846 115.0329,213.9846 113.6288,213.2957 109.4164,213.2957 106.6081,214.6999 99.5875,214.6999 95.4016,215.3887 96.8057,216.1040 99.5875,215.3887 100.9916,216.1040 96.8057,216.1040 98.1833,216.7928 106.6081,216.7928 105.2040,217.4816 99.5875,217.4816 100.9916,218.8858 103.7999,219.6011 102.3957,220.2899 96.8057,218.1970 98.1833,217.4816 92.5933,215.3887 92.5933,213.9846 89.7850,213.2957 85.5726,215.3887 88.3809,216.1040 93.9974,218.8858 93.9974,220.2899 98.1833,222.3829 103.7999,223.7870 99.5875,223.7870 95.4016,221.6940 92.5933,220.9787 91.1892,217.4816 88.3809,216.7928 82.7644,218.1970 82.7644,216.7928 79.9561,216.7928 75.7437,218.8858 71.5313,216.7928 67.3454,216.1040 58.9206,218.1970 61.7289,220.2899 65.9413,220.2899 67.3454,220.9787 63.1330,220.9787 60.3247,223.0982 61.7289,223.7870 71.5313,223.0982 71.5313,224.4758 75.7437,224.4758 89.7850,222.3829 92.5933,224.4758 88.3809,223.0982 86.9768,223.7870 84.1685,223.0982 75.7437,225.1911 75.7437,226.5953 72.9354,225.8799 72.9354,227.2841 65.9413,225.8799 65.9413,227.9729 64.5371,225.8799 60.3247,225.1911 60.3247,227.2841 56.1123,225.8799 56.1123,225.1911 53.3041,226.5953 43.4751,226.5953 42.0710,227.9729 43.4751,228.6882 50.4958,228.6882 50.4958,229.3770 46.2834,230.0923 42.0710,230.0923 42.0710,230.7812 44.8793,231.4700 49.0917,231.4700 54.7082,230.0923 58.9206,230.7812 61.7289,232.8741 60.3247,232.8741 63.1330,234.9671 71.5313,234.9671 71.5313,235.6824 63.1330,235.6824 63.1330,238.4642 61.7289,239.8683 65.9413,239.1795 63.1330,240.5571 60.3247,239.8683 61.7289,237.7753 61.7289,234.9671 58.9206,233.5894 58.9206,231.4700 50.4958,231.4700 50.4958,232.8741 47.6875,232.1853 46.2834,234.2783 51.8999,238.4642 50.4958,238.4642 49.0917,236.3712 46.2834,235.6824 46.2834,234.2783 43.4751,232.8741 37.8851,234.2783 35.0768,235.6824 35.0768,237.7753 37.8851,240.5571 35.0768,239.1795 33.6727,241.2724 33.6727,237.7753 28.0562,237.7753 23.8438,238.4642 21.0355,237.7753 19.6314,239.8683 23.8438,240.5571 22.4396,241.9612 M28.0562,237.7753 30.8644,236.3712 30.8644,235.6824 28.0562,234.9671 23.8438,234.9671 22.4396,236.3712 25.2479,236.3712 23.8438,237.7753 28.0562,237.7753 M25.2479,234.2783 23.8438,232.8741 22.4396,233.5894 25.2479,234.2783 M25.2479,234.2783 29.4603,234.2783 28.0562,233.5894 25.2479,234.2783 M30.8644,235.6824 30.8644,236.3712 32.2686,236.3712 37.8851,233.5894 35.0768,232.8741 35.0768,231.4700 30.8644,232.1853 30.8644,235.6824 M36.4810,227.9729 39.2892,228.6882 39.2892,227.2841 36.4810,227.9729 M44.8793,231.4700 42.0710,230.7812 36.4810,231.4700 37.8851,232.1853 44.8793,232.1853 44.8793,231.4700 M56.1123,225.1911 60.3247,224.4758 60.3247,223.0982 53.3041,223.7870 53.3041,225.1911 56.1123,225.1911 M56.1123,220.9787 60.3247,222.3829 60.3247,220.2899 56.1123,220.2899 56.1123,220.9787 M71.5313,216.7928 75.7437,217.4816 79.9561,216.7928 79.9561,214.6999 79.9561,213.2957 77.1478,213.2957 77.1478,216.1040 74.3396,214.6999 71.5313,216.7928 M79.9561,214.6999 82.7644,216.1040 85.5726,215.3887 86.9768,213.9846 81.3602,213.9846 79.9561,214.6999 M82.7644,205.6127 82.7644,206.3016 88.3809,206.9904 86.9768,207.7057 91.1892,207.7057 93.9974,206.3016 91.1892,203.4933 88.3809,203.4933 86.9768,204.8974 82.7644,205.6127 M93.9974,211.8916 92.5933,210.4875 91.1892,209.7987 86.9768,211.8916 89.7850,212.6069 93.9974,211.8916 M92.5933,210.4875 93.9974,211.8916 96.8057,211.8916 95.4016,210.4875 92.5933,210.4875 M103.7999,211.8916 103.7999,210.4875 100.9916,209.7987 99.5875,208.3945 99.5875,210.4875 98.1833,209.1098 95.4016,209.1098 98.1833,211.8916 103.7999,211.8916 M105.2040,211.2028 110.8205,210.4875 110.8205,208.3945 112.2247,208.3945 112.2247,206.3016 109.4164,206.3016 109.4164,204.8974 105.2040,205.6127 108.0123,207.7057 102.3957,208.3945 105.2040,211.2028 M103.7999,211.8916 106.6081,211.2028 105.2040,211.2028 103.7999,211.8916 M106.6081,211.2028 110.8205,211.2028 106.6081,211.2028Z">
                    <desc xmlns="http://www.highcharts.com/svg/namespace">
<name>Møre og Romsdal</name>
<iso3166-2>NO-15</iso3166-2>
<hc-group>admin1</hc-group>
<hc-a2>MR</hc-a2>
<hc-key>no-mr</hc-key>
<hc-middle-lon>7.378</hc-middle-lon>
<hc-middle-lat>62.698</hc-middle-lat>
</desc>


                </path>
<path fill="#CEE3F5" stroke="#6E6E6E" stroke-width="0.4" id="undefined" d="M291.7947,71.3194 290.3906,71.3194 291.7947,71.3194 294.5765,69.9417 297.3848,69.9417 297.3848,68.5376 300.1930,67.8223 300.1930,69.9417 303.0013,69.9417 304.4054,69.9417 305.8096,69.2264 312.8302,69.2264 312.8302,67.8223 315.6385,65.7293 314.2344,65.7293 314.2344,62.2322 311.4261,62.2322 307.2137,60.1393 308.6178,61.5434 305.8096,60.8546 303.0013,61.5434 303.0013,62.9475 305.8096,64.3517 301.5972,64.3517 301.5972,65.7293 295.9806,67.1334 295.9806,69.2264 294.5765,69.2264 294.5765,67.1334 298.7889,65.7293 298.7889,64.3517 300.1930,64.3517 300.1930,63.6364 300.1930,64.3517 298.7889,64.3517 300.1930,64.3517 298.7889,64.3517 300.1930,64.3517 298.7889,64.3517 294.5765,65.0405 294.5765,66.4446 290.3906,67.1334 291.7947,67.8223 290.3906,69.9417 291.7947,71.3194 M312.8302,71.3194 311.4261,69.9417 305.8096,69.9417 303.0013,72.0347 303.0013,74.1276 305.8096,72.7235 311.4261,72.7235 310.0220,72.0347 312.8302,71.3194 M307.2137,58.0463 310.0220,60.1393 315.6385,60.1393 315.6385,58.0463 311.4261,58.0463 308.6178,57.3575 307.2137,58.0463 M312.8302,71.3194 315.6385,72.0347 314.2344,71.3194 314.2344,70.6305 319.8509,70.6305 322.6327,68.5376 328.2492,68.5376 328.2492,69.2264 335.2699,69.2264 340.8864,67.8223 356.3054,67.8223 357.7095,69.9417 361.9219,68.5376 366.1343,68.5376 370.3467,70.6305 374.5591,70.6305 375.9632,69.9417 380.1491,69.9417 381.5533,70.6305 388.5739,71.3194 402.6152,74.1276 406.8012,74.1276 411.0135,72.0347 409.6094,69.9417 405.3970,69.2264 408.2053,68.5376 411.0135,66.4446 413.8218,65.7293 416.6301,62.9475 415.2259,59.4505 409.6094,56.6422 409.6094,55.9534 422.2466,55.9534 425.0549,54.5492 427.8631,54.5492 434.8573,56.6422 436.2614,54.5492 433.4532,51.7410 440.4738,48.9592 443.2821,49.6480 448.8986,49.6480 457.3234,54.5492 460.1317,55.2381 469.9341,55.2381 474.1465,53.8604 474.1465,50.3633 468.5300,47.5551 468.5300,45.4621 469.9341,44.7468 478.3589,43.3692 479.7631,44.0580 481.1672,41.2497 483.9755,39.8721 479.7631,40.5609 474.1465,38.4679 475.5507,37.7526 472.7424,36.3750 474.1465,35.6597 474.1465,33.5667 472.7424,32.8779 467.1259,32.1626 465.7217,29.3808 462.9135,27.9767 462.9135,26.5726 457.3234,26.5726 457.3234,27.9767 453.1110,27.9767 450.3028,25.8837 443.2821,25.8837 440.4738,25.1684 441.8780,26.5726 446.0904,26.5726 447.4945,28.6655 450.3028,27.9767 451.7069,29.3808 454.5152,28.6655 460.1317,28.6655 462.9135,27.9767 461.5093,29.3808 455.9193,29.3808 454.5152,30.0696 458.7276,30.7585 461.5093,30.0696 461.5093,31.4738 458.7276,31.4738 458.7276,34.9709 462.9135,37.0638 462.9135,37.7526 458.7276,37.0638 458.7276,35.6597 454.5152,34.2555 450.3028,33.5667 450.3028,32.1626 444.6862,30.0696 441.8780,30.0696 439.0697,32.8779 441.8780,32.8779 439.0697,34.2555 434.8573,34.2555 436.2614,34.9709 432.0755,35.6597 430.6714,34.9709 436.2614,32.1626 434.8573,32.1626 429.2673,34.2555 429.2673,35.6597 425.0549,37.0638 420.8425,37.0638 422.2466,38.4679 420.8425,40.5609 427.8631,44.0580 419.4383,41.9650 419.4383,43.3692 416.6301,44.7468 415.2259,46.8662 409.6094,48.2439 406.8012,49.6480 406.8012,48.2439 412.4177,46.8662 412.4177,45.4621 415.2259,43.3692 415.2259,41.9650 418.0342,41.9650 418.0342,40.5609 415.2259,39.1568 416.6301,38.4679 416.6301,36.3750 418.0342,36.3750 418.0342,33.5667 415.2259,31.4738 412.4177,32.8779 408.2053,37.0638 406.8012,35.6597 402.6152,38.4679 404.0194,41.2497 401.2111,41.2497 399.8070,43.3692 399.8070,45.4621 396.9987,44.0580 399.8070,41.9650 399.8070,35.6597 392.7863,37.0638 388.5739,36.3750 382.9574,37.7526 382.9574,39.1568 380.1491,41.2497 380.1491,43.3692 381.5533,43.3692 381.5533,45.4621 385.7656,47.5551 389.9780,46.8662 392.7863,48.2439 392.7863,51.0522 387.1698,51.0522 391.3822,49.6480 389.9780,48.2439 384.3615,48.2439 384.3615,47.5551 378.7450,45.4621 377.3409,42.6538 371.7508,43.3692 367.5384,43.3692 366.1343,45.4621 368.9425,45.4621 371.7508,47.5551 378.7450,48.2439 381.5533,49.6480 377.3409,48.9592 373.1549,48.9592 370.3467,49.6480 368.9425,47.5551 368.9425,50.3633 367.5384,51.0522 367.5384,46.8662 364.7301,46.8662 363.3260,44.7468 359.1136,44.7468 359.1136,46.8662 357.7095,47.5551 354.9012,49.6480 356.3054,53.1451 343.6946,54.5492 343.6946,55.2381 339.4822,57.3575 340.8864,58.7351 338.0781,60.1393 340.8864,59.4505 345.0988,59.4505 349.2847,60.8546 345.0988,60.1393 339.4822,61.5434 343.6946,62.9475 347.9070,62.9475 347.9070,64.3517 345.0988,62.9475 338.0781,62.2322 332.4616,63.6364 336.6740,64.3517 339.4822,65.7293 338.0781,66.4446 336.6740,65.0405 329.6533,65.0405 329.6533,67.1334 326.8451,65.0405 321.2550,65.7293 315.6385,67.1334 315.6385,69.9417 312.8302,69.9417 312.8302,71.3194 M317.0426,58.7351 318.4467,59.4505 321.2550,58.7351 319.8509,58.0463 317.0426,58.7351 M357.7095,47.5551 356.3054,47.5551 356.3054,45.4621 353.4971,45.4621 356.3054,44.0580 353.4971,43.3692 349.2847,44.7468 349.2847,41.9650 346.5029,42.6538 343.6946,41.2497 343.6946,43.3692 339.4822,41.2497 339.4822,43.3692 342.2905,43.3692 342.2905,44.7468 338.0781,43.3692 335.2699,43.3692 336.6740,44.7468 331.0575,44.0580 332.4616,45.4621 339.4822,46.1509 333.8657,46.1509 333.8657,46.8662 325.4409,46.8662 328.2492,47.5551 329.6533,48.9592 324.0368,48.9592 324.0368,49.6480 329.6533,51.0522 325.4409,51.0522 324.0368,52.4563 331.0575,52.4563 328.2492,53.8604 324.0368,53.8604 321.2550,54.5492 321.2550,55.9534 329.6533,55.2381 328.2492,57.3575 332.4616,55.9534 331.0575,55.2381 340.8864,51.7410 339.4822,53.1451 345.0988,52.4563 347.9070,53.1451 354.9012,52.4563 353.4971,51.7410 353.4971,49.6480 352.0930,48.2439 356.3054,48.2439 357.7095,47.5551 M321.2550,64.3517 331.0575,63.6364 326.8451,61.5434 326.8451,60.8546 322.6327,64.3517 321.2550,64.3517 M338.0781,60.1393 336.6740,59.4505 332.4616,59.4505 333.8657,61.5434 329.6533,59.4505 331.0575,62.2322 333.8657,62.9475 338.0781,60.1393 M335.2699,57.3575 340.8864,55.2381 338.0781,55.2381 335.2699,57.3575 M382.9574,36.3750 380.1491,34.9709 377.3409,34.9709 375.9632,33.5667 373.1549,33.5667 371.7508,34.9709 375.9632,36.3750 374.5591,39.1568 371.7508,38.4679 371.7508,36.3750 363.3260,36.3750 364.7301,38.4679 371.7508,38.4679 370.3467,39.1568 367.5384,38.4679 360.5178,38.4679 359.1136,38.4679 361.9219,40.5609 357.7095,40.5609 356.3054,40.5609 354.9012,41.9650 357.7095,41.9650 359.1136,43.3692 370.3467,42.6538 370.3467,41.9650 374.5591,42.6538 375.9632,40.5609 374.5591,39.8721 378.7450,39.1568 382.9574,36.3750 M356.3054,40.5609 357.7095,40.5609 359.1136,39.1568 356.3054,39.1568 356.3054,40.5609 M366.1343,34.9709 366.1343,35.6597 370.3467,35.6597 367.5384,34.2555 366.1343,34.9709 M377.3409,30.0696 380.1491,29.3808 378.7450,27.9767 375.9632,28.6655 374.5591,27.9767 371.7508,29.3808 373.1549,30.0696 377.3409,30.0696 M382.9574,36.3750 389.9780,35.6597 394.1904,33.5667 394.1904,32.8779 398.4028,31.4738 398.4028,30.0696 395.5946,30.7585 395.5946,29.3808 392.7863,29.3808 391.3822,30.7585 387.1698,27.9767 382.9574,28.6655 384.3615,30.0696 377.3409,30.0696 378.7450,32.1626 373.1549,32.1626 382.9574,35.6597 382.9574,36.3750 M375.9632,27.2614 377.3409,27.2614 378.7450,25.8837 375.9632,25.8837 375.9632,27.2614 M375.9632,27.2614 375.9632,28.6655 377.3409,27.2614 375.9632,27.2614 M381.5533,26.5726 381.5533,27.2614 385.7656,27.9767 387.1698,27.2614 387.1698,24.4796 382.9574,24.4796 384.3615,25.8837 381.5533,26.5726 M389.9780,27.2614 389.9780,27.9767 394.1904,28.6655 395.5946,27.9767 392.7863,26.5726 389.9780,27.2614 M394.1904,33.5667 392.7863,34.9709 398.4028,34.9709 402.6152,32.8779 404.0194,31.4738 401.2111,30.7585 396.9987,32.8779 394.1904,33.5667 M405.3970,26.5726 404.0194,26.5726 399.8070,24.4796 399.8070,23.0755 395.5946,23.7643 395.5946,24.4796 399.8070,25.8837 401.2111,27.2614 401.2111,29.3808 408.2053,29.3808 408.2053,27.9767 405.3970,26.5726 M405.3970,26.5726 408.2053,27.2614 409.6094,26.5726 406.8012,25.8837 405.3970,26.5726 M412.4177,23.0755 412.4177,25.1684 415.2259,23.7643 412.4177,23.0755 M427.8631,28.6655 427.8631,27.9767 429.2673,26.5726 427.8631,24.4796 422.2466,24.4796 418.0342,26.5726 418.0342,28.6655 419.4383,29.3808 423.6507,27.9767 426.4590,29.3808 427.8631,28.6655 M420.8425,34.9709 422.2466,36.3750 426.4590,35.6597 426.4590,33.5667 422.2466,33.5667 420.8425,34.9709 M430.6714,29.3808 427.8631,30.0696 429.2673,32.1626 433.4532,32.1626 436.2614,30.7585 432.0755,30.7585 430.6714,29.3808 M427.8631,28.6655 430.6714,29.3808 432.0755,27.9767 429.2673,26.5726 427.8631,27.9767 427.8631,28.6655 M448.8986,30.0696 448.8986,30.7585 453.1110,30.7585 450.3028,29.3808 448.8986,30.0696Z">
                    <desc xmlns="http://www.highcharts.com/svg/namespace">
<name>Troms</name>
<iso3166-2>NO-55</iso3166-2>
<hc-group>admin1</hc-group>
<hc-a2>TR</hc-a2>
<hc-key>no-tr</hc-key>
<hc-middle-lon>19.243</hc-middle-lon>
<hc-middle-lat>69.334</hc-middle-lat>
</desc>


                </path>
<path fill="#CEE3F5" stroke="#6E6E6E" stroke-width="0.4" id="undefined" d="M187.9684,146.8511 187.9684,147.5664 193.5849,146.8511 194.9890,144.7582 189.3725,144.7582 187.9684,146.8511 M194.9890,161.5548 196.3932,161.5548 200.6056,161.5548 202.0097,159.4353 200.6056,158.0577 197.7973,158.0577 194.9890,161.5548 M199.2014,162.9324 199.2014,162.2436 196.3932,161.5548 194.9890,161.5548 194.9890,162.9324 197.7973,162.9324 199.2014,162.9324 M199.2014,151.0635 196.3932,151.7523 196.3932,153.1565 199.2014,151.0635 M204.8180,154.5606 207.6262,153.1565 207.6262,152.4676 204.8180,149.6594 200.6056,148.2552 199.2014,151.0635 203.4138,151.0635 199.2014,152.4676 197.7973,153.8453 196.3932,157.3424 200.6056,155.9382 199.2014,154.5606 204.8180,154.5606 M255.3138,160.1506 256.7179,159.4353 256.7179,156.6535 260.9303,155.2494 260.9303,146.1623 262.3344,143.3540 263.7386,142.6652 263.7386,139.8569 262.3344,139.1681 262.3344,135.6710 260.9303,133.5781 265.1427,132.8628 274.9451,132.8628 280.5617,131.4851 286.1782,129.3657 286.1782,127.2727 284.7741,126.5839 283.3699,123.7756 286.1782,123.0868 290.3906,120.9939 295.9806,116.0927 300.1930,113.9997 301.5972,112.5956 307.2137,109.7873 310.0220,109.0985 311.4261,104.9126 308.6178,102.7931 304.4054,100.7002 303.0013,97.9184 304.4054,96.5143 311.4261,96.5143 312.8302,94.4213 315.6385,93.0172 315.6385,91.6130 318.4467,88.8048 318.4467,87.4271 324.0368,84.6189 329.6533,83.2147 333.8657,81.1218 333.8657,80.4330 338.0781,81.8106 340.8864,81.8106 349.2847,84.6189 354.9012,82.5259 359.1136,78.3135 357.7095,77.6247 357.7095,69.9417 356.3054,67.8223 340.8864,67.8223 335.2699,69.2264 328.2492,69.2264 328.2492,68.5376 322.6327,68.5376 319.8509,70.6305 314.2344,70.6305 314.2344,71.3194 315.6385,72.0347 322.6327,72.0347 325.4409,70.6305 329.6533,71.3194 328.2492,72.0347 333.8657,72.0347 335.2699,70.6305 340.8864,69.9417 339.4822,72.0347 345.0988,72.7235 335.2699,72.7235 332.4616,74.8164 336.6740,76.2206 335.2699,79.7177 335.2699,76.9359 332.4616,76.2206 331.0575,74.1276 326.8451,74.1276 326.8451,74.8164 322.6327,75.5318 324.0368,74.1276 319.8509,73.4388 311.4261,73.4388 307.2137,74.1276 311.4261,76.2206 315.6385,76.2206 315.6385,77.6247 319.8509,79.0288 319.8509,80.4330 315.6385,79.0288 315.6385,77.6247 308.6178,75.5318 304.4054,75.5318 303.0013,76.9359 308.6178,76.9359 310.0220,77.6247 305.8096,77.6247 304.4054,78.3135 312.8302,78.3135 314.2344,79.7177 311.4261,79.0288 307.2137,81.1218 310.0220,81.8106 312.8302,81.1218 310.0220,83.2147 312.8302,83.2147 312.8302,85.3077 311.4261,83.9301 308.6178,83.9301 312.8302,85.3077 312.8302,86.7118 308.6178,83.9301 307.2137,83.9301 307.2137,86.7118 314.2344,88.8048 312.8302,89.5201 307.2137,86.7118 305.8096,86.7118 305.8096,84.6189 301.5972,83.2147 303.0013,81.8106 303.0013,79.0288 301.5972,79.7177 301.5972,77.6247 300.1930,76.9359 297.3848,79.0288 298.7889,80.4330 291.7947,81.8106 293.1988,80.4330 293.1988,79.7177 290.3906,79.0288 288.9865,81.1218 286.1782,80.4330 281.9658,82.5259 281.9658,83.9301 288.9865,82.5259 294.5765,83.2147 295.9806,81.8106 297.3848,83.2147 298.7889,83.9301 295.9806,86.7118 295.9806,85.3077 286.1782,86.0230 281.9658,86.7118 279.1575,88.1160 279.1575,86.7118 272.1369,86.7118 270.7327,88.1160 276.3493,87.4271 276.3493,88.1160 272.1369,88.1160 267.9245,88.8048 270.7327,90.2089 273.5410,89.5201 274.9451,90.9242 267.9245,90.9242 270.7327,91.6130 266.5203,93.0172 272.1369,93.0172 277.7534,91.6130 283.3699,88.8048 286.1782,88.1160 284.7741,89.5201 290.3906,89.5201 295.9806,91.6130 294.5765,92.3019 288.9865,90.2089 284.7741,90.9242 287.5823,92.3019 280.5617,91.6130 281.9658,92.3019 279.1575,93.0172 279.1575,94.4213 284.7741,93.7060 286.1782,95.1101 280.5617,94.4213 279.1575,95.7990 280.5617,96.5143 288.9865,96.5143 288.9865,100.7002 283.3699,97.2031 277.7534,97.9184 279.1575,96.5143 274.9451,97.9184 269.3286,97.9184 273.5410,97.2031 276.3493,95.1101 273.5410,95.1101 266.5203,97.2031 269.3286,98.6072 274.9451,98.6072 273.5410,99.2960 263.7386,99.2960 263.7386,100.7002 258.1220,103.5084 263.7386,103.5084 265.1427,102.7931 265.1427,104.9126 269.3286,104.1973 270.7327,102.7931 273.5410,103.5084 277.7534,102.1043 279.1575,104.1973 281.9658,103.5084 283.3699,104.1973 288.9865,104.1973 293.1988,104.9126 293.1988,105.6014 283.3699,104.9126 286.1782,106.2902 284.7741,107.0055 286.1782,108.4097 283.3699,107.6943 284.7741,106.2902 283.3699,105.6014 279.1575,105.6014 277.7534,104.9126 263.7386,104.9126 260.9303,105.6014 265.1427,105.6014 266.5203,106.2902 259.5262,106.2902 258.1220,107.6943 256.7179,106.2902 253.9096,108.4097 262.3344,108.4097 262.3344,109.0985 258.1220,108.4097 253.9096,109.0985 252.5055,111.1914 249.6972,110.5026 248.2931,108.4097 248.2931,111.1914 244.0807,111.8803 246.8890,110.5026 241.2724,111.1914 241.2724,111.8803 235.6824,111.8803 238.4642,114.6885 241.2724,115.3773 245.4848,115.3773 246.8890,116.0927 241.2724,116.0927 235.6824,115.3773 234.2783,116.0927 239.8683,116.0927 241.2724,116.7815 235.6824,116.7815 235.6824,118.1856 238.4642,117.4968 244.0807,117.4968 244.0807,118.1856 234.2783,118.1856 227.2576,117.4968 228.6617,118.1856 234.2783,118.8744 234.2783,119.5897 225.8535,119.5897 227.2576,120.2786 225.8535,122.3715 231.4700,122.3715 232.8741,120.9939 238.4642,120.2786 234.2783,122.3715 230.0659,122.3715 227.2576,124.4910 224.4493,122.3715 220.2369,123.0868 225.8535,125.8686 220.2369,127.2727 221.6411,128.6769 227.2576,128.6769 231.4700,127.9880 221.6411,131.4851 223.0452,132.1739 230.0659,130.0810 234.2783,130.0810 235.6824,129.3657 237.0865,130.7698 241.2724,129.3657 245.4848,130.0810 245.4848,128.6769 249.6972,127.9880 249.6972,129.3657 246.8890,130.7698 242.6766,130.7698 241.2724,130.0810 238.4642,130.7698 237.0865,132.1739 242.6766,132.1739 242.6766,132.8628 237.0865,132.8628 234.2783,133.5781 235.6824,130.7698 228.6617,130.7698 227.2576,132.1739 224.4493,132.1739 217.4287,133.5781 214.6204,133.5781 213.2163,135.6710 221.6411,134.9822 218.8328,137.0752 221.6411,138.4793 224.4493,138.4793 224.4493,140.5723 223.0452,139.1681 220.2369,139.1681 218.8328,137.7640 211.8121,138.4793 211.8121,140.5723 213.2163,141.2611 209.0304,144.0693 214.6204,146.1623 210.4080,146.1623 210.4080,144.7582 206.2221,144.0693 204.8180,146.1623 203.4138,146.1623 203.4138,147.5664 206.2221,147.5664 206.2221,149.6594 209.0304,149.6594 210.4080,151.0635 214.6204,151.0635 207.6262,152.4676 207.6262,153.1565 204.8180,154.5606 203.4138,155.9382 207.6262,155.9382 210.4080,156.6535 204.8180,156.6535 207.6262,159.4353 211.8121,158.0577 217.4287,155.2494 216.0245,157.3424 211.8121,159.4353 211.8121,160.1506 207.6262,160.1506 207.6262,160.8395 203.4138,160.8395 199.2014,162.2436 199.2014,162.9324 199.2014,163.6477 199.2014,164.3365 203.4138,164.3365 203.4138,163.6477 210.4080,163.6477 210.4080,165.0519 213.2163,164.3365 220.2369,163.6477 220.2369,162.2436 223.0452,160.1506 227.2576,160.1506 227.2576,160.8395 232.8741,160.8395 232.8741,160.1506 255.3138,160.1506 M202.0097,136.3599 209.0304,134.9822 211.8121,133.5781 209.0304,133.5781 210.4080,131.4851 206.2221,132.1739 209.0304,132.8628 204.8180,135.6710 202.0097,136.3599 M203.4138,146.1623 206.2221,144.0693 203.4138,144.7582 203.4138,146.1623 M204.8180,139.1681 207.6262,139.8569 211.8121,137.7640 217.4287,137.0752 218.8328,136.3599 214.6204,136.3599 211.8121,137.7640 210.4080,136.3599 206.2221,137.7640 204.8180,139.1681 M209.0304,93.0172 213.2163,93.0172 213.2163,91.6130 209.0304,93.0172 M210.4080,120.9939 210.4080,122.3715 213.2163,121.6827 210.4080,120.9939 M213.2163,130.0810 217.4287,130.7698 216.0245,128.6769 213.2163,130.0810 M214.6204,88.8048 217.4287,88.8048 218.8328,87.4271 221.6411,86.7118 220.2369,86.0230 224.4493,85.3077 224.4493,81.8106 221.6411,81.8106 217.4287,85.3077 217.4287,87.4271 214.6204,88.8048 M216.0245,126.5839 218.8328,127.2727 217.4287,125.8686 220.2369,125.8686 220.2369,124.4910 217.4287,124.4910 216.0245,126.5839 M218.8328,130.7698 225.8535,129.3657 220.2369,129.3657 218.8328,130.7698 M225.8535,83.2147 227.2576,83.9301 231.4700,83.2147 232.8741,80.4330 228.6617,79.7177 230.0659,82.5259 227.2576,81.1218 225.8535,83.2147 M227.2576,116.7815 232.8741,116.7815 230.0659,116.0927 227.2576,116.7815 M251.1014,76.9359 249.6972,76.2206 246.8890,76.9359 246.8890,74.8164 241.2724,76.2206 237.0865,76.2206 234.2783,77.6247 234.2783,80.4330 237.0865,79.7177 232.8741,81.8106 235.6824,82.5259 235.6824,80.4330 237.0865,81.8106 239.8683,81.8106 239.8683,80.4330 242.6766,81.1218 242.6766,79.7177 248.2931,79.0288 251.1014,76.9359 M246.8890,108.4097 249.6972,108.4097 251.1014,110.5026 252.5055,110.5026 252.5055,107.6943 255.3138,105.6014 252.5055,106.2902 252.5055,107.6943 249.6972,107.0055 246.8890,108.4097 M249.6972,76.2206 251.1014,76.9359 253.9096,76.9359 253.9096,75.5318 251.1014,74.8164 248.2931,75.5318 249.6972,76.2206 M253.9096,76.9359 255.3138,77.6247 252.5055,78.3135 252.5055,79.7177 255.3138,79.7177 263.7386,77.6247 265.1427,77.6247 265.1427,75.5318 267.9245,75.5318 267.9245,76.9359 273.5410,74.1276 274.9451,74.1276 277.7534,72.0347 273.5410,72.7235 270.7327,72.0347 270.7327,74.1276 267.9245,74.1276 269.3286,72.7235 266.5203,72.0347 266.5203,74.1276 265.1427,72.7235 259.5262,74.1276 260.9303,75.5318 255.3138,75.5318 253.9096,76.9359 M253.9096,100.7002 258.1220,100.0114 256.7179,98.6072 253.9096,100.7002 M270.7327,68.5376 274.9451,68.5376 283.3699,66.4446 284.7741,65.7293 280.5617,62.9475 283.3699,62.2322 279.1575,59.4505 277.7534,56.6422 273.5410,58.0463 276.3493,60.1393 277.7534,62.2322 272.1369,60.8546 270.7327,61.5434 272.1369,62.9475 267.9245,62.9475 265.1427,63.6364 265.1427,61.5434 263.7386,61.5434 263.7386,63.6364 262.3344,64.3517 262.3344,62.2322 256.7179,65.7293 259.5262,67.8223 263.7386,67.1334 265.1427,65.7293 272.1369,65.7293 274.9451,65.0405 273.5410,63.6364 277.7534,63.6364 277.7534,65.7293 274.9451,66.4446 270.7327,66.4446 269.3286,67.8223 270.7327,68.5376 M270.7327,68.5376 263.7386,68.5376 266.5203,70.6305 272.1369,70.6305 273.5410,69.9417 270.7327,68.5376 M267.9245,77.6247 270.7327,77.6247 272.1369,76.2206 270.7327,75.5318 267.9245,77.6247 M272.1369,60.8546 273.5410,59.4505 269.3286,59.4505 272.1369,60.8546 M277.7534,84.6189 276.3493,83.9301 273.5410,84.6189 273.5410,86.0230 281.9658,86.0230 281.9658,85.3077 277.7534,85.3077 277.7534,84.6189 M290.3906,71.3194 288.9865,71.3194 283.3699,74.8164 287.5823,74.8164 290.3906,76.2206 293.1988,72.7235 295.9806,72.7235 295.9806,70.6305 297.3848,70.6305 297.3848,74.1276 300.1930,72.7235 303.0013,69.9417 300.1930,69.9417 300.1930,67.8223 297.3848,68.5376 297.3848,69.9417 294.5765,69.9417 291.7947,71.3194 290.3906,71.3194 291.7947,71.3194 290.3906,69.9417 291.7947,67.8223 290.3906,67.1334 294.5765,66.4446 294.5765,65.0405 298.7889,64.3517 300.1930,64.3517 298.7889,64.3517 300.1930,64.3517 298.7889,64.3517 300.1930,64.3517 300.1930,63.6364 297.3848,62.9475 297.3848,58.0463 294.5765,58.7351 291.7947,58.0463 288.9865,60.1393 290.3906,62.2322 286.1782,62.2322 286.1782,64.3517 284.7741,65.0405 287.5823,67.1334 284.7741,67.1334 284.7741,68.5376 280.5617,69.9417 280.5617,72.0347 273.5410,75.5318 273.5410,76.9359 276.3493,76.9359 279.1575,74.1276 283.3699,73.4388 288.9865,70.6305 290.3906,71.3194 M277.7534,84.6189 281.9658,84.6189 280.5617,82.5259 279.1575,82.5259 277.7534,84.6189 M284.7741,59.4505 287.5823,60.1393 288.9865,57.3575 290.3906,58.0463 294.5765,57.3575 297.3848,55.2381 301.5972,53.1451 303.0013,53.1451 303.0013,51.0522 304.4054,51.0522 304.4054,48.9592 303.0013,48.9592 295.9806,51.0522 294.5765,53.1451 290.3906,53.8604 284.7741,58.0463 284.7741,59.4505 M298.7889,83.9301 297.3848,83.2147 287.5823,83.2147 287.5823,83.9301 291.7947,83.9301 293.1988,83.2147 295.9806,84.6189 298.7889,83.9301 M293.1988,79.7177 293.1988,80.4330 293.1988,79.7177 M307.2137,81.1218 304.4054,82.5259 308.6178,82.5259 307.2137,81.1218Z">
                    <desc xmlns="http://www.highcharts.com/svg/namespace">
<name>Nordland</name>
<iso3166-2>NO-18</iso3166-2>
<hc-group>admin1</hc-group>
<hc-a2>NO</hc-a2>
<hc-key>no-no</hc-key>
<hc-middle-lon>14.955</hc-middle-lon>
<hc-middle-lat>67.127</hc-middle-lat>
</desc>


                </path>
<path fill="#CEE3F5" stroke="#6E6E6E" stroke-width="0.4" id="undefined" d="M75.7437,293.0134 81.3602,292.3246 84.1685,293.0134 88.3809,291.6093 92.5933,290.9204 93.9974,290.9204 92.5933,290.9204 93.9974,290.9204 109.4164,290.9204 110.8205,292.3246 115.0329,293.7287 115.0329,296.5105 117.8412,296.5105 120.6495,297.9146 120.6495,299.3187 120.6495,300.7229 123.4577,300.7229 124.8619,302.8158 123.4577,303.5047 126.2395,304.2200 126.2395,306.3129 127.6436,306.3129 127.6436,309.8100 129.0478,309.8100 129.0478,309.0947 129.0478,309.8100 129.0478,309.0947 131.8560,311.2141 136.0684,311.2141 136.0684,310.4988 137.4726,309.8100 138.8767,310.4988 141.6850,309.8100 141.6850,307.7171 140.2808,307.0017 141.6850,305.5976 143.0891,304.9088 145.8974,304.2200 147.3015,304.2200 150.1098,304.2200 150.1098,307.7171 151.5139,308.4059 151.5139,304.2200 147.3015,303.5047 150.1098,302.8158 151.5139,301.4117 151.5139,296.5105 154.2957,295.1064 157.1039,294.4175 157.1039,292.3246 155.6998,290.9204 151.5139,290.2316 150.1098,290.2316 150.1098,288.1122 147.3015,285.3304 145.8974,284.6151 145.8974,281.8333 144.4932,281.8333 143.0891,279.0251 138.8767,279.0251 138.8767,279.7404 136.0684,281.8333 136.0684,282.5221 137.4726,282.5221 136.0684,282.5221 137.4726,282.5221 137.4726,283.9263 131.8560,282.5221 131.8560,281.8333 127.6436,281.8333 126.2395,279.7404 123.4577,278.3362 123.4577,275.5280 120.6495,275.5280 119.2453,274.1503 113.6288,273.4350 112.2247,272.0309 106.6081,271.3421 102.3957,269.2491 95.4016,267.1562 96.8057,268.5338 95.4016,269.2491 92.5933,269.9379 89.7850,272.0309 84.1685,271.3421 81.3602,274.1503 81.3602,276.2433 77.1478,276.2433 74.3396,278.3362 78.5520,279.0251 78.5520,281.1445 81.3602,281.8333 81.3602,284.6151 79.9561,284.6151 79.9561,288.8275 78.5520,288.8275 75.7437,293.0134Z">
                    <desc xmlns="http://www.highcharts.com/svg/namespace">
<name>Buskerud</name>
<iso3166-2>NO-33</iso3166-2>
<hc-group>admin1</hc-group>
<hc-a2>BU</hc-a2>
<hc-key>no-bu</hc-key>
<hc-middle-lon>9.021</hc-middle-lon>
<hc-middle-lat>60.25</hc-middle-lat>
</desc>


                </path>
<path fill="#CEE3F5" stroke="#6E6E6E" stroke-width="0.4" id="undefined" d="M46.2834,341.2838 49.0917,341.9726 50.4958,342.6614 51.8999,340.5685 53.3041,340.5685 53.3041,342.6614 57.5165,341.9726 57.5165,341.2838 51.8999,344.0656 50.4958,346.1585 56.1123,347.5626 57.5165,345.4697 56.1123,344.0656 58.9206,344.7809 57.5165,346.1585 61.7289,346.1585 61.7289,347.5626 65.9413,346.1585 61.7289,348.2780 64.5371,348.9668 64.5371,347.5626 68.7495,347.5626 72.9354,348.2780 77.1478,348.2780 79.9561,346.8738 86.9768,346.8738 86.9768,345.4697 89.7850,344.7809 89.7850,346.1585 92.5933,346.1585 92.5933,344.7809 95.4016,344.7809 95.4016,343.3767 98.1833,341.9726 102.3957,341.9726 105.2040,339.1643 113.6288,334.9784 113.6288,332.8855 116.4371,332.8855 120.6495,331.4813 120.6495,329.3884 123.4577,329.3884 124.8619,327.9843 120.6495,327.9843 120.6495,325.8913 115.0329,323.7983 115.0329,322.3942 110.8205,322.3942 109.4164,323.7983 109.4164,326.5801 103.7999,324.4872 102.3957,325.2025 96.8057,324.4872 95.4016,323.0830 92.5933,323.0830 86.9768,323.0830 84.1685,318.8971 81.3602,317.4930 82.7644,316.8042 81.3602,316.0889 81.3602,313.3071 78.5520,313.3071 77.1478,311.9030 78.5520,309.0947 75.7437,308.4059 77.1478,306.3129 75.7437,306.3129 77.1478,306.3129 75.7437,306.3129 75.7437,305.5976 74.3396,305.5976 75.7437,305.5976 74.3396,305.5976 74.3396,304.9088 74.3396,305.5976 74.3396,304.9088 72.9354,305.5976 67.3454,304.2200 64.5371,304.9088 63.1330,306.3129 61.7289,306.3129 61.7289,309.0947 63.1330,309.0947 61.7289,309.0947 63.1330,309.0947 60.3247,311.2141 58.9206,313.3071 57.5165,313.3071 57.5165,317.4930 60.3247,317.4930 58.9206,318.8971 60.3247,318.8971 58.9206,318.8971 60.3247,318.8971 56.1123,321.7054 53.3041,322.3942 53.3041,323.7983 49.0917,328.6731 51.8999,329.3884 51.8999,330.7925 47.6875,330.7925 49.0917,332.1702 51.8999,332.8855 51.8999,333.5743 51.8999,332.8855 51.8999,333.5743 51.8999,339.8796 46.2834,341.2838 M50.4958,342.6614 49.0917,341.9726 50.4958,342.6614Z">
                    <desc xmlns="http://www.highcharts.com/svg/namespace">
<name>Agder</name>
<iso3166-2>NO-42</iso3166-2>
<hc-group>admin1</hc-group>
<hc-a2>AG</hc-a2>
<hc-key>no-ag</hc-key>
<hc-middle-lon>7.871</hc-middle-lon>
<hc-middle-lat>58.833</hc-middle-lat>
</desc>


                </path>
<path fill="#CEE3F5" stroke="#6E6E6E" stroke-width="0.4" id="undefined" d="M71.5313,242.6766 72.9354,242.6766 72.9354,246.8625 75.7437,248.2666 75.7437,249.6707 85.5726,249.6707 86.9768,250.3595 85.5726,252.4525 86.9768,254.5455 89.7850,255.2608 93.9974,254.5455 96.8057,257.3537 92.5933,258.0425 92.5933,259.4467 95.4016,260.1620 93.9974,261.5396 92.5933,261.5396 93.9974,261.5396 92.5933,261.5396 91.1892,262.9438 88.3809,262.9438 91.1892,264.3479 91.1892,265.7520 95.4016,267.1562 102.3957,269.2491 106.6081,271.3421 112.2247,272.0309 113.6288,273.4350 119.2453,274.1503 120.6495,275.5280 123.4577,275.5280 123.4577,278.3362 126.2395,279.7404 127.6436,281.8333 131.8560,281.8333 131.8560,282.5221 137.4726,283.9263 137.4726,282.5221 136.0684,282.5221 137.4726,282.5221 136.0684,282.5221 136.0684,281.8333 138.8767,279.7404 138.8767,279.0251 143.0891,279.0251 144.4932,281.8333 145.8974,281.8333 145.8974,284.6151 147.3015,285.3304 151.5139,286.0192 151.5139,287.4234 165.5287,287.4234 165.5287,286.7345 164.1246,284.6151 159.9122,284.6151 159.9122,281.8333 164.1246,283.2375 166.9329,283.2375 171.1453,281.8333 171.1453,279.7404 173.9535,281.1445 173.9535,282.5221 178.1659,283.9263 178.1659,286.0192 180.9742,286.7345 180.9742,288.1122 183.7560,288.1122 183.7560,290.9204 183.7560,292.3246 187.9684,293.0134 187.9684,293.7287 187.9684,293.0134 187.9684,293.7287 189.3725,293.7287 189.3725,299.3187 189.3725,300.0076 190.7766,300.0076 189.3725,300.0076 190.7766,300.0076 192.1808,298.6034 199.2014,298.6034 204.8180,295.8217 207.6262,293.7287 209.0304,291.6093 209.0304,289.5163 207.6262,289.5163 207.6262,286.7345 210.4080,285.3304 210.4080,281.1445 207.6262,279.7404 207.6262,278.3362 204.8180,276.9321 204.8180,274.8391 203.4138,274.1503 203.4138,272.0309 200.6056,269.9379 200.6056,268.5338 204.8180,268.5338 204.8180,267.8450 213.2163,267.8450 213.2163,265.7520 216.0245,264.3479 216.0245,262.2549 217.4287,261.5396 217.4287,259.4467 213.2163,257.3537 209.0304,254.5455 206.2221,254.5455 197.7973,250.3595 199.2014,248.2666 199.2014,244.7695 200.6056,244.0542 200.6056,240.5571 202.0097,239.1795 202.0097,234.2783 200.6056,234.2783 196.3932,234.2783 193.5849,232.8741 187.9684,232.8741 187.9684,233.5894 186.5642,233.5894 187.9684,233.5894 186.5642,233.5894 187.9684,233.5894 186.5642,233.5894 186.5642,232.8741 182.3518,232.8741 180.9742,230.7812 176.7618,229.3770 176.7618,228.6882 176.7618,229.3770 176.7618,228.6882 176.7618,229.3770 176.7618,228.6882 176.7618,229.3770 176.7618,228.6882 173.9535,227.9729 172.5494,227.2841 171.1453,225.1911 166.9329,224.4758 162.7205,224.4758 161.3163,225.8799 159.9122,225.1911 154.2957,225.1911 152.9180,224.4758 145.8974,224.4758 145.8974,225.1911 144.4932,225.1911 145.8974,225.1911 144.4932,225.1911 143.0891,227.2841 141.6850,227.9729 143.0891,230.7812 140.2808,233.5894 137.4726,232.8741 137.4726,234.9671 134.6643,234.9671 131.8560,236.3712 126.2395,234.2783 122.0536,234.2783 122.0536,233.5894 117.8412,233.5894 117.8412,232.8741 116.4371,232.8741 116.4371,233.5894 112.2247,232.8741 99.5875,232.8741 95.4016,233.5894 92.5933,235.6824 86.9768,238.4642 81.3602,237.7753 78.5520,239.8683 78.5520,241.2724 72.9354,240.5571 71.5313,242.6766Z">
                    <desc xmlns="http://www.highcharts.com/svg/namespace">
<name>Innlandet</name>
<iso3166-2>NO-34</iso3166-2>
<hc-group>admin1</hc-group>
<hc-a2>IN</hc-a2>
<hc-key>no-in</hc-key>
<hc-middle-lon>10.107</hc-middle-lon>
<hc-middle-lat>61.269</hc-middle-lat>
</desc>


                </path>
<path fill="#CEE3F5" stroke="#6E6E6E" stroke-width="0.4" id="undefined" d="M0.0000,267.8450 0.0000,269.2491 2.8083,269.2491 0.0000,267.8450 M4.2124,271.3421 5.6165,272.7462 7.0207,271.3421 4.2124,271.3421 M4.2124,265.7520 4.2124,267.1562 8.4248,267.1562 8.4248,264.3479 4.2124,265.0367 4.2124,265.7520 M5.6165,248.2666 5.6165,247.5513 5.6165,248.2666 M5.6165,247.5513 5.6165,248.2666 9.8289,248.2666 12.6372,246.8625 15.4190,246.8625 8.4248,245.4583 5.6165,245.4583 4.2124,246.8625 5.6165,247.5513 M23.8438,279.0251 25.2479,277.6474 25.2479,276.9321 29.4603,276.9321 28.0562,277.6474 29.4603,278.3362 28.0562,279.7404 28.0562,283.2375 26.6520,284.6151 22.4396,283.9263 19.6314,282.5221 16.8231,281.8333 15.4190,282.5221 16.8231,283.9263 15.4190,284.6151 12.6372,286.7345 15.4190,286.7345 14.0148,288.1122 18.2272,288.8275 15.4190,290.2316 18.2272,290.9204 18.2272,291.6093 21.0355,292.3246 21.0355,290.9204 23.8438,290.2316 23.8438,288.1122 25.2479,286.7345 28.0562,286.0192 25.2479,288.1122 26.6520,289.5163 23.8438,290.9204 26.6520,291.6093 28.0562,290.2316 28.0562,295.8217 32.2686,295.1064 32.2686,291.6093 35.0768,290.2316 35.0768,288.8275 39.2892,288.8275 39.2892,286.0192 40.6934,285.3304 44.8793,285.3304 51.8999,283.2375 53.3041,284.6151 54.7082,283.2375 58.9206,282.5221 60.3247,280.4292 63.1330,280.4292 60.3247,282.5221 64.5371,282.5221 63.1330,283.2375 60.3247,282.5221 56.1123,283.2375 54.7082,285.3304 51.8999,286.0192 51.8999,288.1122 50.4958,288.8275 50.4958,291.6093 49.0917,292.3246 50.4958,288.8275 50.4958,286.7345 53.3041,284.6151 49.0917,284.6151 44.8793,286.0192 43.4751,287.4234 40.6934,288.1122 40.6934,289.5163 37.8851,290.2316 39.2892,293.0134 37.8851,293.0134 35.0768,295.8217 35.0768,297.2258 30.8644,297.2258 26.6520,300.0076 29.4603,300.0076 30.8644,302.1005 33.6727,301.4117 35.0768,299.3187 35.0768,302.1005 42.0710,300.0076 40.6934,301.4117 36.4810,302.8158 30.8644,302.8158 29.4603,304.2200 29.4603,304.9088 30.8644,304.9088 29.4603,304.9088 30.8644,304.9088 33.6727,306.3129 40.6934,307.0017 40.6934,305.5976 40.6934,304.9088 40.6934,305.5976 40.6934,304.9088 42.0710,304.9088 44.8793,301.4117 47.6875,301.4117 49.0917,300.0076 54.7082,300.0076 53.3041,302.1005 54.7082,303.5047 64.5371,301.4117 65.9413,301.4117 65.9413,298.6034 70.1272,295.8217 74.3396,295.1064 75.7437,293.0134 78.5520,288.8275 79.9561,288.8275 79.9561,284.6151 81.3602,284.6151 81.3602,281.8333 78.5520,281.1445 78.5520,279.0251 74.3396,278.3362 77.1478,276.2433 81.3602,276.2433 81.3602,274.1503 84.1685,271.3421 89.7850,272.0309 92.5933,269.9379 95.4016,269.2491 96.8057,268.5338 95.4016,267.1562 91.1892,265.7520 91.1892,264.3479 88.3809,262.9438 91.1892,262.9438 92.5933,261.5396 93.9974,261.5396 92.5933,261.5396 93.9974,261.5396 95.4016,260.1620 92.5933,259.4467 92.5933,258.0425 96.8057,257.3537 93.9974,254.5455 89.7850,255.2608 86.9768,254.5455 85.5726,252.4525 86.9768,250.3595 85.5726,249.6707 75.7437,249.6707 75.7437,248.2666 72.9354,246.8625 72.9354,242.6766 71.5313,242.6766 64.5371,242.6766 64.5371,243.3654 56.1123,243.3654 56.1123,244.0542 50.4958,244.0542 47.6875,244.7695 47.6875,243.3654 42.0710,243.3654 40.6934,242.6766 37.8851,244.0542 35.0768,243.3654 33.6727,243.3654 21.0355,243.3654 22.4396,241.9612 16.8231,239.1795 16.8231,238.4642 12.6372,237.0865 11.2331,237.7753 12.6372,239.8683 15.4190,239.8683 18.2272,241.9612 14.0148,243.3654 12.6372,244.7695 35.0768,244.7695 35.0768,245.4583 28.0562,245.4583 30.8644,246.1736 36.4810,246.1736 37.8851,246.8625 42.0710,246.8625 49.0917,247.5513 50.4958,246.1736 53.3041,245.4583 57.5165,246.8625 50.4958,246.1736 50.4958,247.5513 46.2834,248.2666 43.4751,246.8625 37.8851,246.8625 40.6934,248.9554 37.8851,248.9554 37.8851,247.5513 35.0768,246.8625 29.4603,246.8625 26.6520,245.4583 19.6314,245.4583 16.8231,246.1736 16.8231,247.5513 12.6372,248.2666 12.6372,249.6707 8.4248,249.6707 8.4248,252.4525 18.2272,252.4525 21.0355,253.8566 14.0148,253.8566 18.2272,254.5455 12.6372,254.5455 14.0148,255.9496 16.8231,256.6649 21.0355,256.6649 22.4396,257.3537 26.6520,255.9496 29.4603,255.9496 22.4396,258.0425 18.2272,256.6649 16.8231,257.3537 14.0148,256.6649 8.4248,258.0425 9.8289,258.7579 9.8289,260.8508 16.8231,260.1620 18.2272,262.2549 15.4190,260.1620 8.4248,262.2549 9.8289,263.6591 14.0148,263.6591 15.4190,265.0367 11.2331,264.3479 11.2331,265.0367 16.8231,265.7520 19.6314,267.1562 22.4396,267.1562 23.8438,265.7520 28.0562,265.7520 28.0562,265.0367 40.6934,265.0367 46.2834,266.4408 49.0917,265.7520 49.0917,261.5396 51.8999,262.2549 54.7082,258.7579 54.7082,260.1620 50.4958,263.6591 53.3041,264.3479 57.5165,264.3479 60.3247,265.0367 60.3247,266.4408 65.9413,265.7520 67.3454,264.3479 70.1272,265.0367 71.5313,264.3479 68.7495,260.8508 70.1272,260.1620 68.7495,258.7579 71.5313,258.7579 74.3396,257.3537 74.3396,258.7579 71.5313,259.4467 70.1272,261.5396 72.9354,264.3479 81.3602,262.9438 78.5520,264.3479 72.9354,264.3479 71.5313,265.7520 67.3454,265.7520 67.3454,266.4408 63.1330,266.4408 63.1330,268.5338 64.5371,270.6532 67.3454,271.3421 64.5371,272.7462 65.9413,270.6532 61.7289,269.9379 63.1330,268.5338 61.7289,267.1562 58.9206,267.1562 58.9206,265.7520 53.3041,265.0367 46.2834,267.8450 44.8793,269.2491 44.8793,267.1562 42.0710,266.4408 36.4810,266.4408 33.6727,265.7520 32.2686,267.1562 30.8644,266.4408 23.8438,267.1562 21.0355,268.5338 16.8231,268.5338 11.2331,267.1562 9.8289,267.8450 9.8289,269.9379 12.6372,269.9379 12.6372,272.7462 11.2331,272.7462 11.2331,270.6532 8.4248,270.6532 9.8289,271.3421 9.8289,273.4350 12.6372,274.1503 16.8231,274.1503 18.2272,272.7462 22.4396,272.0309 22.4396,272.7462 18.2272,273.4350 15.4190,274.8391 16.8231,276.2433 19.6314,276.2433 21.0355,278.3362 18.2272,277.6474 11.2331,274.8391 8.4248,274.1503 9.8289,276.2433 14.0148,278.3362 12.6372,278.3362 15.4190,281.1445 19.6314,280.4292 23.8438,279.0251 M8.4248,288.1122 8.4248,289.5163 11.2331,289.5163 12.6372,290.9204 12.6372,288.1122 8.4248,283.9263 8.4248,288.1122 M8.4248,270.6532 8.4248,273.4350 9.8289,273.4350 9.8289,271.3421 8.4248,270.6532 M15.4190,284.6151 14.0148,282.5221 11.2331,282.5221 12.6372,285.3304 15.4190,284.6151 M12.6372,244.7695 14.0148,243.3654 12.6372,241.9612 9.8289,242.6766 12.6372,244.7695 M18.2272,302.1005 16.8231,300.7229 12.6372,299.3187 11.2331,302.1005 14.0148,302.1005 12.6372,303.5047 12.6372,306.3129 14.0148,305.5976 14.0148,302.1005 18.2272,303.5047 18.2272,302.1005 M15.4190,295.8217 14.0148,295.1064 12.6372,296.5105 15.4190,295.8217 M14.0148,295.1064 15.4190,295.8217 16.8231,295.8217 16.8231,293.7287 14.0148,293.7287 14.0148,295.1064 M14.0148,308.4059 16.8231,309.8100 19.6314,309.0947 23.8438,307.7171 23.8438,304.9088 23.8438,307.7171 19.6314,309.0947 22.4396,307.0017 22.4396,302.8158 14.0148,308.4059 M16.8231,300.7229 19.6314,301.4117 18.2272,302.1005 22.4396,301.4117 22.4396,298.6034 21.0355,297.2258 19.6314,297.2258 16.8231,296.5105 15.4190,297.9146 16.8231,298.6034 16.8231,300.7229 M18.2272,291.6093 18.2272,290.9204 18.2272,291.6093 M19.6314,282.5221 22.4396,283.9263 28.0562,283.2375 26.6520,281.1445 28.0562,279.7404 28.0562,277.6474 25.2479,277.6474 23.8438,279.0251 18.2272,281.1445 19.6314,282.5221 M19.6314,297.2258 21.0355,297.2258 22.4396,296.5105 22.4396,298.6034 26.6520,297.9146 25.2479,296.5105 26.6520,295.8217 26.6520,293.7287 21.0355,294.4175 19.6314,297.2258Z">
                    <desc xmlns="http://www.highcharts.com/svg/namespace">
<name>Vestland</name>
<iso3166-2>NO-46</iso3166-2>
<hc-group>admin1</hc-group>
<hc-a2>VL</hc-a2>
<hc-key>no-vl</hc-key>
<hc-middle-lon>6.483</hc-middle-lon>
<hc-middle-lat>60.845</hc-middle-lat>
</desc>


                </path>
</g>
        
<text x="350" y="715" text-anchor="middle" font-family="Verdana" font-size="8" stroke-opacity="0.6">
            Copyright (c) 2024 Highsoft AS, Based on data from OpenStreetMap</text>

        </svg>