<?xml version="1.0" encoding="utf-8" standalone="no"?>
        <!DOCTYPE svg PUBLIC "-//W3C//DTD SVG 1.1//EN" "http://www.w3.org/Graphics/SVG/1.1/DTD/svg11.dtd">

        <svg version="1.1" viewBox="-5 -5 710 725" xmlns="http://www.w3.org/2000/svg" xmlns:xlink="http://www.w3.org/1999/xlink">
        <desc>
            Map version: 2.3.0
            Copyright (c) 2024 Highsoft AS, Based on data from OpenStreetMap
        </desc>
        <title>Buskerud</title>
        <g id="admin2">
<path fill="#CEE3F5" stroke="#6E6E6E" stroke-width="0.4" id="undefined" d="M617.2381,304.8062 618.5838,304.8062 619.9295,303.4604 627.1067,303.4604 632.7139,304.8062 634.0596,305.7033 634.0596,292.9189 641.0125,272.5088 646.6197,268.6959 646.6197,266.4531 641.0125,254.5658 628.4524,251.4258 611.6309,251.4258 587.8565,260.3973 593.4636,268.6959 580.6793,275.6488 580.6793,283.7232 599.0708,289.7789 604.6780,298.9747 611.6309,298.9747 617.2381,301.8904 617.2381,304.8062Z">
                    <desc xmlns="http://www.highcharts.com/svg/namespace">
<name>Lier</name>
<region>Buskerud</region>
<hc-group>admin2</hc-group>
<hc-key>no-bu-3312</hc-key>
<hc-a2>LI</hc-a2>
<hc-middle-lon>10.212</hc-middle-lon>
<hc-middle-lat>59.849</hc-middle-lat>
</desc>


                </path>
<path fill="#CEE3F5" stroke="#6E6E6E" stroke-width="0.4" id="undefined" d="M593.4636,233.4829 611.6309,239.3143 628.4524,251.4258 641.0125,254.5658 646.6197,248.5101 652.2269,248.5101 657.8340,242.4543 657.8340,239.3143 670.6184,239.3143 670.6184,236.3986 641.0125,228.1000 628.4524,215.9885 628.4524,219.1285 599.0708,222.0442 593.4636,233.4829Z">
                    <desc xmlns="http://www.highcharts.com/svg/namespace">
<name>Hole</name>
<region>Buskerud</region>
<hc-group>admin2</hc-group>
<hc-key>no-bu-3310</hc-key>
<hc-a2>HO</hc-a2>
<hc-middle-lon>10.291</hc-middle-lon>
<hc-middle-lat>60.043</hc-middle-lat>
</desc>


                </path>
<path fill="#CEE3F5" stroke="#6E6E6E" stroke-width="0.4" id="undefined" d="M545.6905,337.3278 534.4761,328.3563 510.7017,322.3005 497.9173,316.2448 492.3102,316.2448 486.7030,304.8062 479.7501,304.8062 479.7501,307.9462 444.7613,304.8062 420.7626,292.9189 415.1554,313.1048 433.5469,316.2448 433.5469,328.3563 444.7613,346.2993 457.3214,349.4393 444.7613,357.5136 444.7613,360.6536 468.5357,360.6536 479.7501,372.7651 516.3089,375.6809 510.7017,366.7094 527.5232,363.5694 527.5232,366.7094 575.0721,363.5694 569.4649,352.3550 556.9048,349.4393 545.6905,337.3278Z">
                    <desc xmlns="http://www.highcharts.com/svg/namespace">
<name>Kongsberg</name>
<region>Buskerud</region>
<hc-group>admin2</hc-group>
<hc-key>no-bu-3303</hc-key>
<hc-a2>KO</hc-a2>
<hc-middle-lon>9.682</hc-middle-lon>
<hc-middle-lat>59.602</hc-middle-lat>
</desc>


                </path>
<path fill="#CEE3F5" stroke="#6E6E6E" stroke-width="0.4" id="undefined" d="M486.7030,304.8062 492.3102,316.2448 497.9173,316.2448 510.7017,322.3005 534.4761,328.3563 545.6905,337.3278 556.9048,325.2163 563.8577,325.2163 563.8577,319.1605 556.9048,304.8062 556.9048,289.7789 569.4649,277.8917 569.4649,275.6488 521.9161,275.6488 503.5245,268.6959 503.5245,266.4531 497.9173,266.4531 492.3102,268.6959 497.9173,272.5088 497.9173,301.8904 486.7030,304.8062Z">
                    <desc xmlns="http://www.highcharts.com/svg/namespace">
<name>Øvre Eiker</name>
<region>Buskerud</region>
<hc-group>admin2</hc-group>
<hc-key>no-bu-3314</hc-key>
<hc-a2>ØV</hc-a2>
<hc-middle-lon>9.828</hc-middle-lon>
<hc-middle-lat>59.746</hc-middle-lat>
</desc>


                </path>
<path fill="#CEE3F5" stroke="#6E6E6E" stroke-width="0.4" id="undefined" d="M420.7626,292.9189 444.7613,304.8062 479.7501,307.9462 479.7501,304.8062 486.7030,304.8062 497.9173,301.8904 497.9173,272.5088 492.3102,268.6959 497.9173,266.4531 492.3102,266.4531 486.7030,260.3973 474.1429,251.4258 457.3214,251.4258 444.7613,245.3701 426.3698,260.3973 420.7626,263.5373 420.7626,266.4531 380.1666,272.5088 380.1666,283.7232 420.7626,292.9189Z">
                    <desc xmlns="http://www.highcharts.com/svg/namespace">
<name>Flesberg</name>
<region>Buskerud</region>
<hc-group>admin2</hc-group>
<hc-key>no-bu-3334</hc-key>
<hc-a2>FL</hc-a2>
<hc-middle-lon>9.431</hc-middle-lon>
<hc-middle-lat>59.858</hc-middle-lat>
</desc>


                </path>
<path fill="#CEE3F5" stroke="#6E6E6E" stroke-width="0.4" id="undefined" d="M380.1666,272.5088 420.7626,266.4531 420.7626,263.5373 426.3698,260.3973 444.7613,245.3701 439.1541,245.3701 433.5469,236.3986 415.1554,228.1000 415.1554,225.1842 396.9881,222.0442 391.3810,210.1570 385.7738,210.1570 361.9994,222.0442 361.9994,228.1000 338.0006,228.1000 338.0006,248.5101 367.6065,254.5658 380.1666,263.5373 380.1666,272.5088Z">
                    <desc xmlns="http://www.highcharts.com/svg/namespace">
<name>Rollag</name>
<region>Buskerud</region>
<hc-group>admin2</hc-group>
<hc-key>no-bu-3336</hc-key>
<hc-a2>RO</hc-a2>
<hc-middle-lon>9.22</hc-middle-lon>
<hc-middle-lat>60.017</hc-middle-lat>
</desc>


                </path>
<path fill="#CEE3F5" stroke="#6E6E6E" stroke-width="0.4" id="undefined" d="M361.9994,228.1000 361.9994,222.0442 385.7738,210.1570 380.1666,200.9612 380.1666,180.7754 367.6065,174.7196 373.2137,162.6081 361.9994,156.5524 326.7863,142.1980 284.8446,136.3665 266.4531,130.3108 242.6786,130.3108 225.8571,136.3665 242.6786,139.2823 249.6315,150.4966 237.0715,153.6367 196.4755,159.6924 183.6911,165.5239 143.0952,168.6639 130.5351,165.5239 130.5351,159.6924 95.3220,156.5524 71.5476,162.6081 47.7731,156.5524 42.1660,183.6911 29.3816,189.0740 23.7744,204.1012 0.0000,222.0442 34.9888,215.9885 82.7619,219.1285 112.1435,213.0727 136.1423,204.1012 213.2970,204.1012 213.2970,207.0170 255.2387,207.0170 284.8446,204.1012 326.7863,222.0442 332.3935,228.1000 361.9994,228.1000Z">
                    <desc xmlns="http://www.highcharts.com/svg/namespace">
<name>Nore og Uvdal</name>
<region>Buskerud</region>
<hc-group>admin2</hc-group>
<hc-key>no-bu-3338</hc-key>
<hc-a2>NO</hc-a2>
<hc-middle-lon>8.334</hc-middle-lon>
<hc-middle-lat>60.294</hc-middle-lat>
</desc>


                </path>
<path fill="#CEE3F5" stroke="#6E6E6E" stroke-width="0.4" id="undefined" d="M47.7731,156.5524 71.5476,162.6081 95.3220,156.5524 130.5351,159.6924 130.5351,165.5239 143.0952,168.6639 183.6911,165.5239 196.4755,159.6924 237.0715,153.6367 249.6315,150.4966 242.6786,139.2823 225.8571,136.3665 196.4755,136.3665 196.4755,124.2550 207.6898,118.1993 213.2970,109.2278 189.2983,97.7892 178.0839,97.7892 172.4768,88.8177 154.3095,85.9020 148.7023,85.9020 143.0952,82.7619 136.1423,79.8462 130.5351,76.7062 130.5351,73.7905 119.3207,70.8747 119.3207,65.4918 100.9292,65.4918 95.3220,59.4361 65.9404,50.4646 58.9875,56.5203 47.7731,68.4076 47.7731,79.8462 29.3816,76.7062 0.0000,94.8734 34.9888,103.8449 29.3816,109.2278 34.9888,121.1150 47.7731,127.1708 58.9875,127.1708 47.7731,150.4966 47.7731,156.5524Z">
                    <desc xmlns="http://www.highcharts.com/svg/namespace">
<name>Hol</name>
<region>Buskerud</region>
<hc-group>admin2</hc-group>
<hc-key>no-bu-3330</hc-key>
<hc-a2>HO</hc-a2>
<hc-middle-lon>8.03</hc-middle-lon>
<hc-middle-lat>60.603</hc-middle-lat>
</desc>


                </path>
<path fill="#CEE3F5" stroke="#6E6E6E" stroke-width="0.4" id="undefined" d="M65.9404,50.4646 95.3220,59.4361 100.9292,65.4918 119.3207,65.4918 119.3207,70.8747 130.5351,73.7905 130.5351,76.7062 136.1423,79.8462 143.0952,82.7619 148.7023,85.9020 154.3095,85.9020 172.4768,88.8177 178.0839,97.7892 189.2983,97.7892 213.2970,109.2278 207.6898,118.1993 196.4755,124.2550 196.4755,136.3665 225.8571,136.3665 242.6786,130.3108 266.4531,130.3108 279.2374,121.1150 273.6302,115.2836 296.0590,113.0407 303.0119,103.8449 290.4518,94.8734 290.4518,85.9020 279.2374,73.7905 260.8459,73.7905 242.6786,68.4076 220.2499,68.4076 207.6898,59.4361 196.4755,59.4361 189.2983,50.4646 136.1423,47.3246 124.9279,44.4088 100.9292,44.4088 82.7619,38.3531 65.9404,50.4646Z">
                    <desc xmlns="http://www.highcharts.com/svg/namespace">
<name>Ål</name>
<region>Buskerud</region>
<hc-group>admin2</hc-group>
<hc-key>no-bu-3328</hc-key>
<hc-a2>ÅL</hc-a2>
<hc-middle-lon>8.294</hc-middle-lon>
<hc-middle-lat>60.703</hc-middle-lat>
</desc>


                </path>
<path fill="#CEE3F5" stroke="#6E6E6E" stroke-width="0.4" id="undefined" d="M124.9279,44.4088 136.1423,47.3246 189.2983,50.4646 196.4755,59.4361 207.6898,59.4361 220.2499,68.4076 242.6786,68.4076 260.8459,73.7905 279.2374,73.7905 303.0119,50.4646 319.8334,50.4646 319.8334,47.3246 314.2262,47.3246 314.2262,44.4088 284.8446,41.4931 260.8459,35.4374 255.2387,29.3816 237.0715,18.1673 220.2499,15.0272 196.4755,8.9715 183.6911,0.0000 172.4768,2.9157 165.5239,8.9715 178.0839,18.1673 165.5239,18.1673 165.5239,26.2416 148.7023,23.9987 124.9279,44.4088Z">
                    <desc xmlns="http://www.highcharts.com/svg/namespace">
<name>Hemsedal</name>
<region>Buskerud</region>
<hc-group>admin2</hc-group>
<hc-key>no-bu-3326</hc-key>
<hc-a2>HE</hc-a2>
<hc-middle-lon>8.465</hc-middle-lon>
<hc-middle-lat>60.927</hc-middle-lat>
</desc>


                </path>
<path fill="#CEE3F5" stroke="#6E6E6E" stroke-width="0.4" id="undefined" d="M279.2374,73.7905 290.4518,85.9020 290.4518,94.8734 303.0119,103.8449 319.8334,94.8734 343.6078,94.8734 361.9994,103.8449 361.9994,97.7892 380.1666,97.7892 396.9881,88.8177 409.5482,88.8177 415.1554,79.8462 396.9881,73.7905 380.1666,65.4918 319.8334,50.4646 303.0119,50.4646 279.2374,73.7905Z">
                    <desc xmlns="http://www.highcharts.com/svg/namespace">
<name>Gol</name>
<region>Buskerud</region>
<hc-group>admin2</hc-group>
<hc-key>no-bu-3324</hc-key>
<hc-a2>GO</hc-a2>
<hc-middle-lon>9.021</hc-middle-lon>
<hc-middle-lat>60.748</hc-middle-lat>
</desc>


                </path>
<path fill="#CEE3F5" stroke="#6E6E6E" stroke-width="0.4" id="undefined" d="M266.4531,130.3108 284.8446,136.3665 326.7863,142.1980 361.9994,156.5524 391.3810,150.4966 396.9881,142.1980 402.5953,142.1980 415.1554,130.3108 415.1554,118.1993 433.5469,115.2836 439.1541,109.2278 420.7626,103.8449 415.1554,91.9577 409.5482,91.9577 409.5482,88.8177 396.9881,88.8177 380.1666,97.7892 361.9994,97.7892 361.9994,103.8449 343.6078,94.8734 319.8334,94.8734 303.0119,103.8449 296.0590,113.0407 273.6302,115.2836 279.2374,121.1150 266.4531,130.3108Z">
                    <desc xmlns="http://www.highcharts.com/svg/namespace">
<name>Nesbyen</name>
<region>Buskerud</region>
<hc-group>admin2</hc-group>
<hc-key>no-bu-3322</hc-key>
<hc-a2>NE</hc-a2>
<hc-middle-lon>9.047</hc-middle-lon>
<hc-middle-lat>60.544</hc-middle-lat>
</desc>


                </path>
<path fill="#CEE3F5" stroke="#6E6E6E" stroke-width="0.4" id="undefined" d="M361.9994,156.5524 373.2137,162.6081 402.5953,165.5239 444.7613,177.6354 497.9173,174.7196 521.9161,171.5796 521.9161,165.5239 510.7017,165.5239 521.9161,156.5524 527.5232,142.1980 516.3089,142.1980 479.7501,133.2265 479.7501,130.3108 474.1429,124.2550 444.7613,127.1708 433.5469,115.2836 415.1554,118.1993 415.1554,130.3108 402.5953,142.1980 396.9881,142.1980 391.3810,150.4966 361.9994,156.5524Z">
                    <desc xmlns="http://www.highcharts.com/svg/namespace">
<name>Flå</name>
<region>Buskerud</region>
<hc-group>admin2</hc-group>
<hc-key>no-bu-3320</hc-key>
<hc-a2>FL</hc-a2>
<hc-middle-lon>9.457</hc-middle-lon>
<hc-middle-lat>60.438</hc-middle-lat>
</desc>


                </path>
<path fill="#CEE3F5" stroke="#6E6E6E" stroke-width="0.4" id="undefined" d="M497.9173,174.7196 510.7017,186.6069 510.7017,189.0740 503.5245,189.0740 521.9161,200.9612 534.4761,207.0170 551.2977,210.1570 551.2977,225.1842 563.8577,236.3986 580.6793,239.3143 593.4636,233.4829 599.0708,222.0442 628.4524,219.1285 628.4524,215.9885 641.0125,228.1000 670.6184,236.3986 670.6184,239.3143 676.2256,239.3143 694.3928,228.1000 700.0000,215.9885 700.0000,213.0727 694.3928,213.0727 688.7856,207.0170 676.2256,207.0170 652.2269,194.9055 634.0596,192.6626 634.0596,183.6911 611.6309,165.5239 611.6309,156.5524 604.6780,153.6367 604.6780,136.3665 593.4636,124.2550 580.6793,118.1993 580.6793,109.2278 569.4649,103.8449 545.6905,103.8449 551.2977,106.9849 534.4761,115.2836 521.9161,115.2836 521.9161,133.2265 527.5232,139.2823 527.5232,142.1980 521.9161,156.5524 510.7017,165.5239 521.9161,165.5239 521.9161,171.5796 497.9173,174.7196Z">
                    <desc xmlns="http://www.highcharts.com/svg/namespace">
<name>Ringerike</name>
<region>Buskerud</region>
<hc-group>admin2</hc-group>
<hc-key>no-bu-3305</hc-key>
<hc-a2>RI</hc-a2>
<hc-middle-lon>10.146</hc-middle-lon>
<hc-middle-lat>60.327</hc-middle-lat>
</desc>


                </path>
<path fill="#CEE3F5" stroke="#6E6E6E" stroke-width="0.4" id="undefined" d="M444.7613,177.6354 450.3685,200.9612 450.3685,210.1570 462.9285,210.1570 474.1429,219.1285 497.9173,222.0442 510.7017,228.1000 534.4761,219.1285 534.4761,207.0170 521.9161,200.9612 503.5245,189.0740 510.7017,189.0740 510.7017,186.6069 497.9173,174.7196 444.7613,177.6354Z">
                    <desc xmlns="http://www.highcharts.com/svg/namespace">
<name>Krødsherad</name>
<region>Buskerud</region>
<hc-group>admin2</hc-group>
<hc-key>no-bu-3318</hc-key>
<hc-a2>KR</hc-a2>
<hc-middle-lon>9.656</hc-middle-lon>
<hc-middle-lat>60.195</hc-middle-lat>
</desc>


                </path>
<path fill="#CEE3F5" stroke="#6E6E6E" stroke-width="0.4" id="undefined" d="M385.7738,210.1570 391.3810,210.1570 396.9881,222.0442 415.1554,225.1842 415.1554,228.1000 433.5469,236.3986 439.1541,245.3701 444.7613,245.3701 457.3214,251.4258 474.1429,251.4258 486.7030,260.3973 492.3102,266.4531 503.5245,266.4531 510.7017,254.5658 534.4761,254.5658 510.7017,228.1000 497.9173,222.0442 474.1429,219.1285 462.9285,210.1570 450.3685,210.1570 450.3685,200.9612 444.7613,177.6354 402.5953,165.5239 373.2137,162.6081 367.6065,174.7196 380.1666,180.7754 380.1666,200.9612 385.7738,210.1570Z">
                    <desc xmlns="http://www.highcharts.com/svg/namespace">
<name>Sigdal</name>
<region>Buskerud</region>
<hc-group>admin2</hc-group>
<hc-key>no-bu-3332</hc-key>
<hc-a2>SI</hc-a2>
<hc-middle-lon>9.484</hc-middle-lon>
<hc-middle-lat>60.136</hc-middle-lat>
</desc>


                </path>
<path fill="#CEE3F5" stroke="#6E6E6E" stroke-width="0.4" id="undefined" d="M569.4649,277.8917 575.0721,275.6488 580.6793,275.6488 593.4636,268.6959 587.8565,260.3973 611.6309,251.4258 628.4524,251.4258 611.6309,239.3143 593.4636,233.4829 580.6793,239.3143 563.8577,236.3986 551.2977,225.1842 551.2977,210.1570 534.4761,207.0170 534.4761,219.1285 510.7017,228.1000 534.4761,254.5658 510.7017,254.5658 503.5245,266.4531 503.5245,268.6959 521.9161,275.6488 569.4649,275.6488 569.4649,277.8917Z">
                    <desc xmlns="http://www.highcharts.com/svg/namespace">
<name>Modum</name>
<region>Buskerud</region>
<hc-group>admin2</hc-group>
<hc-key>no-bu-3316</hc-key>
<hc-a2>MO</hc-a2>
<hc-middle-lon>10</hc-middle-lon>
<hc-middle-lat>60.01</hc-middle-lat>
</desc>


                </path>
<path fill="#CEE3F5" stroke="#6E6E6E" stroke-width="0.4" id="undefined" d="M563.8577,319.1605 569.4649,325.2163 587.8565,325.2163 587.8565,319.1605 634.0596,319.1605 641.0125,325.2163 641.0125,346.2993 646.6197,346.2993 646.6197,349.4393 652.2269,343.3835 652.2269,325.2163 646.6197,319.1605 622.8452,313.1048 618.5838,307.2733 617.2381,307.2733 617.2381,305.7033 617.2381,304.8062 617.2381,301.8904 611.6309,298.9747 604.6780,298.9747 599.0708,289.7789 580.6793,283.7232 580.6793,275.6488 575.0721,275.6488 569.4649,277.8917 556.9048,289.7789 556.9048,304.8062 563.8577,319.1605Z">
                    <desc xmlns="http://www.highcharts.com/svg/namespace">
<name>Drammen</name>
<region>Buskerud</region>
<hc-group>admin2</hc-group>
<hc-key>no-bu-3301</hc-key>
<hc-a2>DR</hc-a2>
<hc-middle-lon>10.171</hc-middle-lon>
<hc-middle-lat>59.701</hc-middle-lat>
</desc>


                </path>
</g>
        
<text x="350" y="715" text-anchor="middle" font-family="Verdana" font-size="8" stroke-opacity="0.6">
            Copyright (c) 2024 Highsoft AS, Based on data from OpenStreetMap</text>

        </svg>