<?xml version="1.0" encoding="utf-8" standalone="no"?>
        <!DOCTYPE svg PUBLIC "-//W3C//DTD SVG 1.1//EN" "http://www.w3.org/Graphics/SVG/1.1/DTD/svg11.dtd">

        <svg version="1.1" viewBox="-5 -5 710 725" xmlns="http://www.w3.org/2000/svg" xmlns:xlink="http://www.w3.org/1999/xlink">
        <desc>
            Map version: 2.3.0
            Copyright (c) 2024 Highsoft AS, Based on data from OpenStreetMap
        </desc>
        <title>Finnmark</title>
        <g id="admin2">
<path fill="#CEE3F5" stroke="#6E6E6E" stroke-width="0.4" id="undefined" d="M506.4133,93.6985 513.4567,96.2598 530.2470,99.2479 540.0650,99.9593 545.6855,101.8091 562.5470,103.7301 563.8988,108.5679 568.1675,110.4177 577.9856,119.6666 573.7168,122.6547 552.7289,133.0420 541.4880,137.5241 540.0650,146.0616 544.2626,148.6940 556.9265,152.7493 562.5470,148.6940 569.5193,146.0616 569.5193,143.0735 573.7168,141.2237 573.7168,131.9748 579.3373,131.1922 594.7759,131.1922 598.9735,130.1250 606.0169,125.2871 613.0603,123.4373 624.2301,124.5045 632.6964,120.8050 632.6964,117.1054 638.2458,115.2556 634.0482,107.4296 639.6687,106.6470 645.2892,109.6351 660.7277,114.1173 660.7277,115.2556 676.1663,115.2556 684.5614,115.9671 692.9566,113.3347 690.1819,104.7972 687.4073,103.7301 687.4073,99.9593 683.1385,99.2479 683.1385,96.6155 680.3639,97.3981 677.5892,98.1096 677.5892,98.4653 676.1663,99.2479 674.7434,98.8922 674.7434,98.4653 673.3205,98.1096 674.7434,97.3981 673.3205,96.2598 666.3482,95.9041 657.8819,95.5483 656.5301,96.2598 656.5301,97.0424 656.5301,97.3981 656.5301,97.7538 656.5301,98.8922 656.5301,99.2479 657.8819,100.3862 657.8819,100.7419 657.8819,101.0977 656.5301,101.0977 656.5301,101.4534 656.5301,105.5798 649.4867,106.6470 649.4867,106.2913 648.0638,105.9356 650.9096,105.5798 652.3326,103.7301 652.3326,96.6155 652.3326,95.9041 652.3326,95.1215 652.3326,94.7657 652.3326,94.4100 645.2892,94.4100 645.2892,94.0543 643.8662,93.6985 645.2892,92.9159 645.2892,90.7104 643.8662,90.7104 641.0916,91.0662 635.4711,91.0662 635.4711,91.7776 635.4711,93.6985 635.4711,94.4100 635.4711,96.2598 636.8940,96.6155 638.2458,97.3981 639.6687,98.1096 638.2458,98.4653 639.6687,99.2479 638.2458,99.6036 636.8940,99.6036 632.6964,99.9593 638.2458,103.7301 636.8940,103.7301 636.8940,104.0858 636.8940,104.7972 634.0482,103.7301 632.6964,103.7301 628.4277,101.0977 625.6530,102.2360 622.8783,102.9475 621.4554,103.7301 620.0325,104.7972 620.0325,103.3032 621.4554,102.9475 624.2301,102.2360 625.6530,101.0977 627.0759,99.6036 627.0759,99.2479 620.0325,100.3862 617.2579,101.4534 613.0603,101.0977 603.1711,101.0977 601.8193,101.4534 593.3530,104.4415 592.0012,105.5798 590.5783,106.6470 587.8036,106.6470 589.1554,105.9356 589.1554,105.5798 590.5783,104.4415 592.0012,103.3032 589.1554,103.3032 590.5783,102.9475 593.3530,102.9475 594.7759,102.2360 596.1988,101.4534 596.1988,100.7419 597.6217,99.9593 598.9735,99.2479 606.0169,95.1215 607.4398,94.7657 607.4398,94.4100 607.4398,93.6985 606.0169,92.2045 606.0169,91.4219 606.0169,90.7104 604.5940,90.3547 606.0169,89.2164 604.5940,88.8607 603.1711,88.8607 600.3964,89.5721 597.6217,89.2164 596.1988,89.5721 594.7759,89.5721 593.3530,89.2164 593.3530,88.8607 590.5783,88.8607 589.1554,89.2164 586.3807,90.7104 583.5349,92.5602 582.1831,92.9159 579.3373,92.5602 580.7602,92.2045 580.7602,91.7776 582.1831,91.7776 582.1831,91.4219 582.1831,91.0662 582.1831,90.7104 583.5349,90.3547 584.9578,89.5721 586.3807,89.2164 587.8036,88.8607 590.5783,88.0781 593.3530,87.3666 594.7759,87.0109 600.3964,85.0899 600.3964,84.7342 590.5783,83.2402 580.7602,82.1730 579.3373,81.7461 576.5627,81.3904 575.1397,81.3904 575.1397,85.0899 569.5193,85.0899 534.4446,87.7223 527.4723,88.8607 506.4133,93.6985 M604.5940,99.2479 607.4398,99.9593 610.2145,99.9593 610.2145,99.6036 613.0603,98.4653 613.0603,98.1096 611.6374,97.3981 613.0603,97.0424 614.4120,97.3981 615.8349,98.1096 618.6096,98.1096 622.8783,97.0424 628.4277,96.2598 629.8506,95.9041 631.2735,94.7657 631.2735,94.4100 627.0759,94.4100 625.6530,94.4100 625.6530,94.0543 625.6530,93.2717 625.6530,92.9159 624.2301,92.2045 624.2301,91.4219 624.2301,90.7104 624.2301,90.3547 621.4554,89.5721 614.4120,88.8607 613.0603,88.8607 611.6374,93.6985 611.6374,94.0543 611.6374,94.4100 604.5940,99.2479Z">
                    <desc xmlns="http://www.highcharts.com/svg/namespace">
<name>Sør-Varanger</name>
<region>Finnmark</region>
<hc-group>admin2</hc-group>
<hc-key>no-fi-5605</hc-key>
<hc-a2>SØ</hc-a2>
<hc-middle-lon>29.651</hc-middle-lon>
<hc-middle-lat>69.516</hc-middle-lat>
</desc>


                </path>
<path fill="#CEE3F5" stroke="#6E6E6E" stroke-width="0.4" id="undefined" d="M70.1494,79.5406 72.9241,78.4023 72.9241,75.8410 95.4060,75.8410 93.9831,73.9913 93.9831,73.5644 92.5602,73.5644 84.1651,72.1415 74.3470,72.8529 72.9241,72.8529 71.5723,72.8529 71.5723,72.4972 72.9241,71.7146 74.3470,71.3589 75.7699,71.0032 74.3470,66.5210 72.9241,66.1653 72.9241,65.4538 77.1217,63.5329 72.9241,61.6831 70.1494,62.0388 64.5289,62.4657 65.9518,64.3155 65.9518,65.0269 65.9518,65.4538 64.5289,65.8095 63.1060,65.8095 61.7542,66.1653 61.7542,60.9716 61.7542,60.6159 58.9084,61.3274 56.1338,62.0388 53.2879,62.4657 56.1338,59.8333 53.2879,59.8333 42.1181,63.5329 42.1181,63.9598 42.1181,65.4538 42.1181,66.5210 46.3157,67.3036 47.6674,67.6593 46.3157,67.6593 44.8928,68.0150 44.8928,69.1534 46.3157,69.1534 46.3157,69.8648 46.3157,70.6474 46.3157,71.0032 46.3157,72.1415 44.8928,71.7146 44.8928,72.1415 42.1181,71.0032 33.6518,64.6712 32.3000,64.3155 28.0313,64.3155 23.8337,62.4657 23.8337,59.8333 21.0591,60.9716 19.6361,61.6831 19.6361,62.4657 19.6361,63.5329 19.6361,64.3155 19.6361,64.6712 18.2132,65.4538 18.2132,65.8095 18.2132,66.8767 18.2132,67.3036 18.2132,68.3708 18.2132,67.3036 15.4386,65.8095 15.4386,64.6712 15.4386,63.5329 9.8181,64.3155 8.3952,64.6712 5.6205,65.0269 2.7747,65.4538 1.4229,66.5210 0.0000,67.3036 12.5927,69.1534 18.2132,69.1534 28.0313,70.2206 33.6518,73.9913 39.2723,73.9913 43.4699,75.8410 44.8928,72.8529 49.0904,72.8529 61.7542,70.2206 61.7542,73.9913 65.9518,78.4023 70.1494,79.5406 M11.2410,57.6278 11.2410,57.9835 12.5927,57.9835 16.8615,58.6950 14.0157,55.3512 11.2410,56.8452 11.2410,57.6278 M32.3000,62.4657 32.3000,63.5329 33.6518,63.9598 35.0747,63.9598 37.8494,62.4657 39.2723,56.8452 33.6518,56.1338 32.3000,56.4895 32.3000,56.8452 32.3000,57.2721 32.3000,58.6950 32.3000,60.6159 32.3000,62.0388 32.3000,62.4657 M93.9831,73.2087 93.9831,71.0032 84.1651,68.3708 84.1651,64.3155 82.7421,64.3155 81.3904,64.6712 81.3904,65.0269 81.3904,66.8767 81.3904,67.3036 79.9675,68.3708 78.5446,69.8648 78.5446,70.6474 86.9397,71.7146 89.7855,72.1415 91.2085,72.1415 92.5602,72.8529 93.9831,73.2087 M86.9397,61.6831 86.9397,62.0388 89.7855,62.0388 89.7855,61.6831 86.9397,61.6831 M93.9831,73.5644 93.9831,73.9913 93.9831,73.5644Z">
                    <desc xmlns="http://www.highcharts.com/svg/namespace">
<name>Loppa</name>
<region>Finnmark</region>
<hc-group>admin2</hc-group>
<hc-key>no-fi-5614</hc-key>
<hc-a2>LO</hc-a2>
<hc-middle-lon>21.901</hc-middle-lon>
<hc-middle-lat>70.213</hc-middle-lat>
</desc>


                </path>
<path fill="#CEE3F5" stroke="#6E6E6E" stroke-width="0.4" id="undefined" d="M106.6470,42.7584 117.8169,39.0588 117.8169,38.2762 116.4651,38.2762 115.0422,37.1379 115.0422,31.5886 110.8446,30.4502 109.4217,30.4502 109.4217,29.0273 107.9988,29.0273 106.6470,30.0945 106.6470,30.4502 107.9988,31.9443 110.8446,32.3712 110.8446,33.0826 110.8446,33.7941 112.1964,35.2881 113.6193,36.4265 109.4217,36.4265 107.9988,36.4265 107.9988,37.1379 107.9988,38.2762 106.6470,39.0588 106.6470,39.7703 105.2241,39.4146 105.2241,40.1260 103.8012,35.7150 102.3783,35.7150 101.0265,36.7822 99.6036,37.1379 98.1807,37.1379 98.1807,36.7822 95.4060,36.4265 101.0265,33.7941 99.6036,33.0826 91.2085,31.9443 91.2085,32.3712 89.7855,32.7269 89.7855,33.4384 91.2085,34.2210 89.7855,34.5767 88.3626,34.5767 86.9397,33.7941 85.5880,33.4384 85.5880,32.7269 84.1651,32.3712 81.3904,33.7941 82.7421,34.5767 84.1651,36.4265 84.1651,37.5648 84.1651,37.9205 84.1651,38.2762 71.5723,34.5767 72.9241,34.9324 72.9241,35.7150 72.9241,36.4265 72.9241,37.1379 70.1494,37.5648 68.7265,37.5648 57.4855,35.7150 54.7108,35.2881 53.2879,36.0707 53.2879,37.1379 60.3313,37.1379 60.3313,37.5648 58.9084,38.2762 56.1338,39.0588 56.1338,39.7703 61.7542,39.0588 72.9241,39.0588 78.5446,39.0588 77.1217,39.7703 74.3470,40.4818 72.9241,41.6201 72.9241,41.9758 74.3470,41.9758 72.9241,43.1141 68.7265,43.8256 68.7265,44.6082 65.9518,46.1022 65.9518,47.2406 64.5289,48.3078 71.5723,47.5963 72.9241,44.6082 74.3470,44.9639 75.7699,43.8256 77.1217,44.9639 75.7699,46.1022 77.1217,46.8137 79.9675,47.2406 79.9675,46.8137 82.7421,45.7465 84.1651,46.1022 85.5880,46.1022 85.5880,46.4580 88.3626,47.2406 88.3626,44.6082 89.7855,44.9639 89.7855,44.6082 91.2085,44.9639 93.9831,46.4580 99.6036,42.7584 101.0265,42.7584 101.0265,42.4027 103.8012,42.4027 106.6470,42.7584 M86.9397,61.6831 89.7855,61.6831 93.9831,62.4657 101.0265,61.6831 101.0265,59.8333 103.8012,57.9835 103.8012,54.2840 102.3783,54.2840 101.0265,54.9954 101.0265,56.1338 99.6036,55.3512 99.6036,54.9954 98.1807,55.3512 98.1807,56.4895 95.4060,55.3512 92.5602,56.8452 88.3626,55.3512 88.3626,55.7780 89.7855,58.6950 91.2085,59.4776 89.7855,59.1219 89.7855,59.8333 84.1651,56.8452 81.3904,58.3393 81.3904,59.1219 82.7421,59.4776 86.9397,61.6831Z">
                    <desc xmlns="http://www.highcharts.com/svg/namespace">
<name>Hasvik</name>
<region>Finnmark</region>
<hc-group>admin2</hc-group>
<hc-key>no-fi-5616</hc-key>
<hc-a2>HA</hc-a2>
<hc-middle-lon>22.431</hc-middle-lon>
<hc-middle-lat>70.517</hc-middle-lat>
</desc>


                </path>
<path fill="#CEE3F5" stroke="#6E6E6E" stroke-width="0.4" id="undefined" d="M189.3892,11.8813 197.7843,12.6639 199.2072,13.0196 200.6301,13.0196 197.7843,13.7311 193.5867,14.1579 190.8121,14.5137 196.3614,15.5809 197.7843,16.3635 197.7843,17.0749 199.2072,17.5018 203.4048,17.0749 204.8277,16.3635 204.8277,16.0077 206.1795,16.0077 207.6024,16.3635 210.4482,13.7311 201.9819,14.1579 203.4048,13.7311 203.4048,13.3753 203.4048,13.0196 201.9819,12.6639 203.4048,12.2370 203.4048,11.8813 211.8000,11.8813 207.6024,11.1698 204.8277,11.1698 201.9819,10.8141 203.4048,10.3872 196.3614,9.3201 195.0097,9.3201 192.1638,10.3872 193.5867,10.8141 193.5867,11.1698 189.3892,11.1698 189.3892,11.8813 M249.7205,36.4265 266.5108,38.2762 290.4157,30.4502 291.7675,29.0273 295.9650,26.7507 297.3879,22.2685 295.9650,21.2013 293.1904,24.9009 287.5699,25.6124 287.5699,26.0392 286.1470,26.3950 286.1470,26.0392 286.1470,25.6124 287.5699,23.7626 286.1470,21.2013 284.7952,20.4187 280.5265,18.2132 280.5265,17.8575 279.1747,17.5018 277.7518,17.5018 276.3289,17.8575 274.9771,22.2685 273.5542,21.9128 272.1313,21.5571 269.3566,21.2013 267.9337,20.8456 266.5108,20.4187 263.7362,20.8456 262.3132,20.4187 265.1591,20.0630 267.9337,19.3516 270.7084,17.8575 272.1313,16.7192 272.1313,16.0077 270.7084,13.7311 269.3566,17.5018 266.5108,17.5018 255.3410,17.8575 256.6928,17.5018 258.1157,17.0749 258.1157,16.7192 258.1157,15.5809 256.6928,15.5809 255.3410,15.2251 253.9181,14.8694 253.9181,14.1579 252.4952,13.7311 245.5229,13.0196 241.2542,13.7311 239.9024,14.5137 242.6771,14.5137 244.1000,14.8694 242.6771,14.8694 241.2542,15.2251 239.9024,15.5809 238.4795,16.7192 239.9024,17.5018 242.6771,17.8575 241.2542,18.2132 242.6771,18.9247 246.8747,19.7073 249.7205,20.4187 248.2976,20.4187 248.2976,21.5571 245.5229,21.5571 244.1000,21.2013 242.6771,21.2013 241.2542,24.1895 242.6771,24.5452 242.6771,24.9009 244.1000,25.6124 242.6771,26.7507 242.6771,27.1064 241.2542,27.1064 238.4795,25.6124 234.2819,24.9009 230.0844,24.5452 230.0844,23.7626 223.0410,21.5571 220.2663,21.9128 215.9976,23.4069 215.9976,24.1895 215.9976,25.6124 214.6458,26.7507 215.9976,27.8890 217.4205,27.8890 235.7048,29.0273 241.2542,31.5886 244.1000,32.3712 242.6771,32.3712 242.6771,32.7269 246.8747,34.5767 248.2976,35.2881 249.7205,35.7150 249.7205,36.4265 M242.6771,7.0434 251.0723,9.6758 252.4952,9.6758 252.4952,8.8932 253.9181,7.3991 252.4952,7.3991 253.9181,6.6877 253.9181,6.3319 255.3410,5.9762 255.3410,5.1936 256.6928,4.8379 256.6928,4.4822 255.3410,4.4822 253.9181,4.8379 252.4952,4.8379 252.4952,4.4822 248.2976,4.4822 249.7205,5.5493 249.7205,6.3319 249.7205,6.6877 248.2976,6.6877 246.8747,6.6877 246.8747,6.3319 246.8747,5.9762 246.8747,5.5493 242.6771,7.0434 M263.7362,10.0315 266.5108,11.1698 267.9337,11.8813 269.3566,11.8813 269.3566,11.5256 269.3566,11.1698 270.7084,11.1698 269.3566,10.8141 270.7084,10.8141 270.7084,10.0315 272.1313,9.6758 272.1313,9.3201 272.1313,8.8932 270.7084,8.8932 269.3566,9.3201 267.9337,9.3201 266.5108,8.5375 266.5108,8.1817 265.1591,8.5375 263.7362,10.0315 M295.9650,21.2013 301.5855,20.4187 304.4313,16.0077 298.8109,14.1579 294.6133,13.3753 293.1904,15.5809 297.3879,17.5018 295.9650,19.3516 295.9650,19.7073 295.9650,20.0630 295.9650,21.2013Z">
                    <desc xmlns="http://www.highcharts.com/svg/namespace">
<name>Måsøy</name>
<region>Finnmark</region>
<hc-group>admin2</hc-group>
<hc-key>no-fi-5618</hc-key>
<hc-a2>MÅ</hc-a2>
<hc-middle-lon>24.696</hc-middle-lon>
<hc-middle-lat>70.862</hc-middle-lat>
</desc>


                </path>
<path fill="#CEE3F5" stroke="#6E6E6E" stroke-width="0.4" id="undefined" d="M291.7675,29.0273 304.4313,30.4502 308.6289,32.3712 310.0518,32.3712 312.8265,31.5886 314.2494,31.2328 315.6012,30.0945 314.2494,29.3831 314.2494,29.0273 312.8265,28.2447 314.2494,28.2447 314.2494,27.8890 315.6012,27.8890 319.8699,27.5333 322.6446,26.7507 325.4192,24.5452 326.8422,23.7626 329.6880,23.4069 331.0397,22.6954 332.4626,22.2685 333.8856,21.9128 333.8856,21.5571 333.8856,21.2013 333.8856,20.4187 333.8856,20.0630 332.4626,19.7073 331.0397,18.9247 329.6880,18.9247 324.0675,20.8456 322.6446,21.2013 322.6446,21.5571 321.2217,21.2013 321.2217,20.8456 319.8699,20.0630 319.8699,19.7073 318.4470,18.9247 317.0241,18.9247 312.8265,19.3516 308.6289,21.2013 308.6289,21.5571 307.2060,21.9128 307.2060,22.2685 305.7831,20.8456 304.4313,20.8456 303.0084,21.9128 301.5855,23.0511 300.2338,22.6954 298.8109,21.5571 298.8109,21.2013 300.2338,21.2013 303.0084,20.0630 304.4313,19.3516 305.7831,18.9247 307.2060,17.0749 304.4313,16.0077 301.5855,20.4187 295.9650,21.2013 297.3879,22.2685 295.9650,26.7507 291.7675,29.0273 M291.7675,10.8141 293.1904,10.3872 301.5855,9.3201 308.6289,10.0315 308.6289,10.3872 307.2060,11.1698 301.5855,11.8813 298.8109,13.0196 301.5855,13.3753 303.0084,14.5137 305.7831,15.5809 305.7831,16.3635 307.2060,16.3635 319.8699,14.8694 319.8699,14.5137 319.8699,13.3753 321.2217,13.0196 333.8856,13.7311 335.2373,13.3753 336.6602,13.0196 342.2807,13.0196 345.0554,13.0196 346.4783,13.0196 346.4783,11.8813 347.9012,11.8813 352.0988,11.1698 354.9446,10.3872 354.9446,9.3201 354.9446,8.1817 347.9012,9.3201 346.4783,9.6758 345.0554,10.8141 343.7036,11.1698 342.2807,11.5256 340.8578,11.8813 339.5060,11.5256 336.6602,11.1698 335.2373,10.8141 336.6602,10.3872 336.6602,10.0315 333.8856,8.5375 332.4626,8.1817 331.0397,7.8260 335.2373,7.3991 336.6602,7.0434 340.8578,5.9762 342.2807,5.1936 342.2807,4.4822 340.8578,2.9881 340.8578,2.6324 339.5060,2.6324 336.6602,3.6996 335.2373,3.6996 333.8856,3.6996 332.4626,4.4822 331.0397,4.4822 326.8422,4.4822 325.4192,4.4822 324.0675,4.0553 324.0675,3.3438 325.4192,1.4941 325.4192,0.7115 318.4470,1.4941 318.4470,1.1383 317.0241,1.1383 317.0241,0.0000 312.8265,0.7115 311.4036,1.1383 308.6289,1.4941 318.4470,4.4822 319.8699,7.0434 319.8699,7.8260 318.4470,7.0434 314.2494,5.9762 310.0518,5.9762 308.6289,5.5493 308.6289,5.1936 307.2060,4.8379 305.7831,4.8379 304.4313,4.4822 301.5855,4.4822 301.5855,4.8379 301.5855,5.1936 301.5855,5.5493 303.0084,5.9762 301.5855,6.3319 300.2338,5.9762 298.8109,5.5493 297.3879,5.1936 295.9650,5.1936 291.7675,6.3319 293.1904,6.6877 291.7675,7.3991 291.7675,10.8141 M342.2807,35.2881 347.9012,36.4265 357.7193,34.5767 356.2964,32.3712 361.9169,30.4502 370.3120,24.1895 381.5530,21.2013 387.1735,14.8694 382.9759,15.2251 380.1301,16.0077 363.3398,22.6954 361.9169,23.4069 357.7193,26.0392 354.9446,26.7507 352.0988,29.0273 350.6759,31.5886 346.4783,31.5886 342.2807,35.2881Z">
                    <desc xmlns="http://www.highcharts.com/svg/namespace">
<name>Nordkapp</name>
<region>Finnmark</region>
<hc-group>admin2</hc-group>
<hc-key>no-fi-5620</hc-key>
<hc-a2>NO</hc-a2>
<hc-middle-lon>26.002</hc-middle-lon>
<hc-middle-lat>70.906</hc-middle-lat>
</desc>


                </path>
<path fill="#CEE3F5" stroke="#6E6E6E" stroke-width="0.4" id="undefined" d="M213.2229,96.2598 225.8868,96.2598 238.4795,95.5483 265.1591,99.9593 266.5108,101.0977 287.5699,101.8091 304.4313,99.9593 312.8265,95.5483 324.0675,89.9278 325.4192,87.7223 336.6602,84.0228 335.2373,75.8410 340.8578,68.3708 343.7036,67.3036 340.8578,62.4657 340.8578,54.9954 347.9012,50.5844 350.6759,43.8256 347.9012,36.4265 342.2807,35.2881 340.8578,39.0588 336.6602,40.4818 335.2373,41.2644 331.0397,42.7584 315.6012,51.2959 301.5855,57.9835 298.8109,59.4776 305.7831,60.6159 307.2060,60.6159 307.2060,61.3274 307.2060,61.6831 307.2060,62.4657 303.0084,63.9598 301.5855,64.6712 297.3879,69.1534 293.1904,69.1534 288.9928,73.2087 287.5699,73.9913 286.1470,75.4853 284.7952,75.8410 284.7952,76.5525 280.5265,76.5525 279.1747,76.9082 277.7518,76.9082 276.3289,76.9082 276.3289,76.1968 274.9771,75.4853 273.5542,75.0584 274.9771,74.3470 274.9771,73.9913 274.9771,73.5644 273.5542,73.5644 274.9771,72.1415 269.3566,73.9913 272.1313,78.4023 269.3566,78.4023 267.9337,77.6908 265.1591,76.9082 263.7362,75.4853 265.1591,72.1415 265.1591,71.3589 266.5108,70.6474 266.5108,69.8648 266.5108,69.1534 266.5108,68.3708 266.5108,68.0150 266.5108,67.3036 266.5108,66.8767 266.5108,66.5210 266.5108,66.1653 267.9337,66.1653 269.3566,65.4538 269.3566,65.0269 270.7084,65.0269 272.1313,64.6712 283.3723,60.6159 283.3723,60.1890 283.3723,59.1219 281.9494,58.6950 280.5265,58.6950 277.7518,59.4776 277.7518,59.8333 276.3289,59.4776 276.3289,58.6950 276.3289,58.3393 274.9771,57.2721 273.5542,57.2721 279.1747,54.9954 280.5265,54.2840 281.9494,54.2840 284.7952,54.6397 287.5699,54.9954 287.5699,54.6397 287.5699,53.9282 286.1470,51.6516 286.1470,51.2959 286.1470,50.5844 287.5699,50.1575 288.9928,50.1575 286.1470,48.6635 284.7952,48.6635 276.3289,49.4461 276.3289,49.0904 274.9771,49.0904 272.1313,47.5963 273.5542,47.5963 272.1313,47.5963 286.1470,47.5963 287.5699,47.2406 288.9928,46.1022 286.1470,44.9639 273.5542,46.8137 274.9771,45.3196 284.7952,42.4027 286.1470,41.9758 288.9928,40.4818 288.9928,40.1260 290.4157,40.1260 295.9650,37.9205 298.8109,36.7822 300.2338,35.7150 303.0084,34.9324 308.6289,32.3712 304.4313,30.4502 291.7675,29.0273 290.4157,30.4502 266.5108,38.2762 260.8903,42.7584 249.7205,48.6635 246.8747,51.2959 249.7205,53.1456 242.6771,56.8452 232.8590,58.6950 215.9976,70.2206 209.0253,74.7027 193.5867,75.8410 189.3892,81.3904 201.9819,84.0228 204.8277,83.2402 207.6024,88.8607 213.2229,96.2598 M286.1470,65.4538 293.1904,63.1772 293.1904,62.8214 293.1904,62.4657 293.1904,62.0388 291.7675,62.0388 291.7675,61.6831 286.1470,65.4538Z">
                    <desc xmlns="http://www.highcharts.com/svg/namespace">
<name>Porsanger</name>
<region>Finnmark</region>
<hc-group>admin2</hc-group>
<hc-key>no-fi-5622</hc-key>
<hc-a2>PO</hc-a2>
<hc-middle-lon>25.023</hc-middle-lon>
<hc-middle-lat>70.242</hc-middle-lat>
</desc>


                </path>
<path fill="#CEE3F5" stroke="#6E6E6E" stroke-width="0.4" id="undefined" d="M441.8843,54.2840 446.0819,53.1456 453.1253,47.5963 472.7615,42.7584 475.5361,42.7584 490.9747,37.1379 500.7928,34.5767 502.2157,31.5886 492.3976,34.5767 468.5639,39.0588 462.9434,39.0588 457.3229,39.4146 458.7458,38.6320 461.5205,38.2762 464.2952,37.5648 465.7181,37.5648 471.3386,36.0707 472.7615,35.7150 472.7615,35.2881 472.7615,34.9324 476.9590,33.7941 478.3819,33.7941 478.3819,33.4384 486.7771,32.3712 488.2000,32.3712 489.5518,29.7388 486.7771,29.3831 482.5795,29.7388 481.1566,29.3831 481.1566,29.0273 472.7615,28.2447 471.3386,28.2447 465.7181,29.7388 465.7181,29.0273 467.1410,28.6005 468.5639,28.2447 469.9156,27.8890 468.5639,27.5333 465.7181,27.1064 464.2952,26.3950 465.7181,26.3950 464.2952,26.0392 467.1410,26.0392 475.5361,26.0392 478.3819,25.6124 478.3819,25.2566 479.7337,25.2566 481.1566,24.9009 481.1566,24.5452 482.5795,24.9009 482.5795,25.2566 485.3542,25.6124 486.7771,25.6124 488.2000,26.0392 490.9747,26.7507 493.8205,26.7507 495.1723,26.7507 498.0181,26.7507 500.7928,26.0392 503.6386,24.9009 500.7928,24.1895 499.3699,23.7626 498.0181,23.4069 499.3699,23.4069 498.0181,23.0511 503.6386,23.7626 507.8362,23.7626 507.8362,23.4069 507.8362,23.0511 506.4133,23.0511 506.4133,22.6954 506.4133,22.2685 513.4567,21.5571 513.4567,21.2013 512.0337,20.4187 510.6108,20.4187 509.1879,20.4187 507.8362,19.3516 514.8084,19.3516 516.2313,19.3516 517.6542,17.8575 517.6542,17.0749 519.0060,15.5809 520.4289,14.5137 520.4289,14.1579 520.4289,13.3753 520.4289,13.0196 520.4289,12.6639 507.8362,11.1698 506.4133,11.1698 498.0181,13.0196 496.5952,12.6639 496.5952,12.2370 498.0181,11.8813 498.0181,11.1698 496.5952,11.5256 495.1723,11.5256 495.1723,11.1698 496.5952,10.8141 496.5952,10.3872 498.0181,10.3872 496.5952,10.3872 496.5952,9.3201 498.0181,9.3201 499.3699,8.5375 500.7928,7.3991 499.3699,6.6877 498.0181,5.9762 495.1723,5.5493 489.5518,8.1817 488.2000,8.1817 488.2000,8.5375 486.7771,8.1817 486.7771,7.8260 486.7771,7.3991 486.7771,7.0434 484.0024,6.3319 482.5795,6.6877 481.1566,6.6877 481.1566,7.3991 479.7337,8.1817 476.9590,8.5375 474.1132,9.3201 472.7615,8.8932 471.3386,8.5375 468.5639,7.3991 467.1410,7.3991 461.5205,7.0434 460.0976,6.6877 462.9434,5.1936 461.5205,4.0553 460.0976,3.3438 457.3229,2.6324 461.5205,5.1936 455.9000,8.1817 458.7458,13.0196 458.7458,19.3516 462.9434,21.2013 461.5205,27.8890 450.2795,31.5886 436.2638,40.9086 439.1097,47.5963 441.8843,54.2840Z">
                    <desc xmlns="http://www.highcharts.com/svg/namespace">
<name>Gamvik</name>
<region>Finnmark</region>
<hc-group>admin2</hc-group>
<hc-key>no-fi-5626</hc-key>
<hc-a2>GA</hc-a2>
<hc-middle-lon>27.956</hc-middle-lon>
<hc-middle-lat>70.763</hc-middle-lat>
</desc>


                </path>
<path fill="#CEE3F5" stroke="#6E6E6E" stroke-width="0.4" id="undefined" d="M519.0060,34.5767 524.6265,36.4265 524.6265,38.2762 534.4446,40.9086 538.6421,46.4580 556.9265,46.4580 562.5470,48.6635 569.5193,48.6635 568.1675,47.5963 575.1397,43.8256 589.1554,40.1260 590.5783,37.1379 607.4398,30.4502 601.8193,29.7388 600.3964,30.0945 590.5783,32.3712 579.3373,33.4384 576.5627,35.7150 575.1397,36.0707 572.3651,35.7150 573.7168,34.5767 573.7168,34.2210 572.3651,34.2210 575.1397,33.7941 576.5627,33.4384 577.9856,33.4384 573.7168,29.7388 582.1831,26.7507 573.7168,26.0392 573.7168,25.6124 573.7168,25.2566 572.3651,24.9009 572.3651,24.5452 572.3651,24.1895 572.3651,23.0511 558.3494,21.5571 556.9265,21.5571 556.9265,21.2013 556.9265,19.7073 538.6421,20.4187 535.8675,21.2013 535.8675,21.5571 533.0928,22.2685 531.6699,23.4069 530.2470,24.5452 528.8241,26.7507 523.2747,28.2447 521.8518,29.3831 520.4289,30.4502 519.0060,31.2328 520.4289,31.9443 521.8518,32.3712 523.2747,32.7269 524.6265,33.4384 526.0494,33.7941 527.4723,34.5767 526.0494,34.5767 523.2747,34.5767 521.8518,34.5767 519.0060,34.5767Z">
                    <desc xmlns="http://www.highcharts.com/svg/namespace">
<name>Berlevåg</name>
<region>Finnmark</region>
<hc-group>admin2</hc-group>
<hc-key>no-fi-5630</hc-key>
<hc-a2>BE</hc-a2>
<hc-middle-lon>29.148</hc-middle-lon>
<hc-middle-lat>70.681</hc-middle-lat>
</desc>


                </path>
<path fill="#CEE3F5" stroke="#6E6E6E" stroke-width="0.4" id="undefined" d="M569.5193,48.6635 582.1831,52.0073 584.9578,52.0073 594.7759,56.1338 600.3964,56.8452 594.7759,58.6950 606.0169,58.6950 618.6096,59.8333 629.8506,61.6831 650.9096,54.9954 676.1663,49.4461 666.3482,46.4580 663.5024,45.7465 664.9253,45.7465 663.5024,45.7465 666.3482,44.2525 664.9253,43.8256 663.5024,43.4699 656.5301,42.7584 635.4711,45.7465 635.4711,45.3196 624.2301,44.2525 624.2301,43.8256 627.0759,43.8256 632.6964,44.6082 635.4711,44.9639 634.0482,43.8256 632.6964,43.8256 632.6964,43.4699 632.6964,42.7584 643.8662,41.9758 649.4867,40.1260 648.0638,39.7703 646.7121,39.0588 641.0916,37.5648 634.0482,37.1379 631.2735,36.4265 635.4711,36.0707 636.8940,35.2881 638.2458,34.2210 631.2735,31.9443 628.4277,31.5886 624.2301,31.9443 614.4120,36.0707 613.0603,36.4265 613.0603,37.1379 611.6374,37.1379 611.6374,37.5648 601.8193,38.6320 603.1711,37.1379 606.0169,36.0707 607.4398,34.5767 608.7915,33.4384 608.7915,31.5886 607.4398,30.4502 590.5783,37.1379 589.1554,40.1260 575.1397,43.8256 568.1675,47.5963 569.5193,48.6635Z">
                    <desc xmlns="http://www.highcharts.com/svg/namespace">
<name>Båtsfjord</name>
<region>Finnmark</region>
<hc-group>admin2</hc-group>
<hc-key>no-fi-5632</hc-key>
<hc-a2>BÅ</hc-a2>
<hc-middle-lon>29.968</hc-middle-lon>
<hc-middle-lat>70.513</hc-middle-lat>
</desc>


                </path>
<path fill="#CEE3F5" stroke="#6E6E6E" stroke-width="0.4" id="undefined" d="M629.8506,61.6831 643.8662,64.3155 656.5301,68.3708 662.1506,64.3155 690.1819,63.5329 700.0000,61.6831 698.5771,60.6159 697.2253,60.1890 697.2253,59.4776 697.2253,59.1219 695.8024,58.6950 697.2253,58.6950 697.2253,58.3393 697.2253,57.6278 698.5771,57.2721 700.0000,56.4895 698.5771,55.7780 695.8024,53.5014 694.3795,53.1456 692.9566,52.7899 691.6048,50.9401 690.1819,50.5844 681.7868,52.7899 681.7868,53.1456 680.3639,52.7899 677.5892,51.2959 676.1663,50.1575 676.1663,49.4461 650.9096,54.9954 629.8506,61.6831Z">
                    <desc xmlns="http://www.highcharts.com/svg/namespace">
<name>Vardø</name>
<region>Finnmark</region>
<hc-group>admin2</hc-group>
<hc-key>no-fi-5634</hc-key>
<hc-a2>VA</hc-a2>
<hc-middle-lon>30.576</hc-middle-lon>
<hc-middle-lat>70.334</hc-middle-lat>
</desc>


                </path>
<path fill="#CEE3F5" stroke="#6E6E6E" stroke-width="0.4" id="undefined" d="M551.3060,54.2840 552.7289,54.2840 551.3060,53.1456 551.3060,54.2840 M552.7289,54.2840 558.3494,56.1338 573.7168,56.1338 573.7168,60.6159 569.5193,65.4538 566.7446,66.1653 568.1675,73.9913 635.4711,77.3351 634.0482,77.3351 632.6964,76.9082 632.6964,76.5525 634.0482,76.1968 634.0482,75.8410 646.7121,73.9913 650.9096,72.1415 650.9096,71.3589 649.4867,71.0032 649.4867,70.2206 650.9096,69.5091 650.9096,69.1534 652.3326,69.1534 652.3326,68.7976 655.1072,68.3708 656.5301,68.3708 643.8662,64.3155 629.8506,61.6831 618.6096,59.8333 606.0169,58.6950 594.7759,58.6950 600.3964,56.8452 594.7759,56.1338 584.9578,52.0073 582.1831,52.0073 569.5193,48.6635 563.8988,49.4461 552.7289,54.2840Z">
                    <desc xmlns="http://www.highcharts.com/svg/namespace">
<name>Vadsø</name>
<region>Finnmark</region>
<hc-group>admin2</hc-group>
<hc-key>no-fi-5607</hc-key>
<hc-a2>VA</hc-a2>
<hc-middle-lon>29.718</hc-middle-lon>
<hc-middle-lat>70.275</hc-middle-lat>
</desc>


                </path>
<path fill="#CEE3F5" stroke="#6E6E6E" stroke-width="0.4" id="undefined" d="M506.4133,90.7104 506.4133,93.6985 527.4723,88.8607 534.4446,87.7223 569.5193,85.0899 575.1397,85.0899 575.1397,81.3904 572.3651,81.7461 563.8988,82.1730 565.3217,81.7461 563.8988,82.1730 562.5470,81.3904 566.7446,80.2521 563.8988,79.5406 562.5470,79.5406 562.5470,79.1849 562.5470,78.8291 562.5470,78.4023 559.7012,78.4023 552.7289,78.8291 551.3060,78.4023 534.4446,76.5525 530.2470,75.4853 528.8241,75.4853 526.0494,75.0584 524.6265,73.9913 526.0494,73.9913 524.6265,73.9913 527.4723,73.9913 527.4723,73.5644 530.2470,73.2087 534.4446,71.7146 534.4446,71.0032 527.4723,71.0032 524.6265,71.0032 526.0494,69.8648 528.8241,69.5091 561.1241,73.2087 568.1675,73.9913 566.7446,66.1653 569.5193,65.4538 573.7168,60.6159 573.7168,56.1338 558.3494,56.1338 552.7289,54.2840 551.3060,54.2840 544.2626,56.1338 540.0650,58.6950 534.4446,57.9835 521.8518,58.6950 506.4133,68.3708 503.6386,72.1415 503.6386,80.2521 510.6108,87.0109 506.4133,90.7104 M534.4446,70.6474 535.8675,70.6474 534.4446,70.6474Z">
                    <desc xmlns="http://www.highcharts.com/svg/namespace">
<name>Nesseby</name>
<region>Finnmark</region>
<hc-group>admin2</hc-group>
<hc-key>no-fi-5636</hc-key>
<hc-a2>NE</hc-a2>
<hc-middle-lon>28.818</hc-middle-lon>
<hc-middle-lat>70.123</hc-middle-lat>
</desc>


                </path>
<path fill="#CEE3F5" stroke="#6E6E6E" stroke-width="0.4" id="undefined" d="M324.0675,89.9278 329.6880,90.7104 326.8422,92.5602 346.4783,93.6985 347.9012,95.5483 359.1422,95.5483 368.9603,92.5602 368.9603,89.9278 375.9325,85.8725 395.5687,85.8725 401.1891,85.0899 401.1891,87.0109 409.5843,87.0109 412.4301,88.8607 418.0506,88.8607 420.8253,87.0109 433.4892,85.8725 430.6434,84.0228 439.1097,83.2402 440.4614,81.3904 450.2795,81.3904 451.7024,77.6908 468.5639,77.6908 478.3819,76.5525 484.0024,83.2402 492.3976,87.7223 502.2157,90.7104 506.4133,90.7104 510.6108,87.0109 503.6386,80.2521 503.6386,72.1415 506.4133,68.3708 521.8518,58.6950 534.4446,57.9835 540.0650,58.6950 544.2626,56.1338 551.3060,54.2840 551.3060,53.1456 552.7289,54.2840 563.8988,49.4461 569.5193,48.6635 562.5470,48.6635 556.9265,46.4580 538.6421,46.4580 534.4446,40.9086 524.6265,38.2762 524.6265,36.4265 519.0060,34.5767 516.2313,37.1379 516.2313,37.9205 510.6108,42.7584 510.6108,43.1141 516.2313,45.7465 519.0060,46.1022 521.8518,46.1022 521.8518,46.8137 520.4289,46.8137 517.6542,49.0904 517.6542,49.4461 517.6542,50.1575 517.6542,50.5844 516.2313,50.9401 514.8084,50.1575 514.8084,49.0904 514.8084,47.5963 513.4567,47.5963 510.6108,47.5963 504.9903,50.5844 504.9903,51.2959 502.2157,51.6516 498.0181,54.2840 498.0181,55.3512 498.0181,56.4895 498.0181,57.9835 498.0181,59.1219 496.5952,59.8333 496.5952,68.3708 496.5952,69.1534 498.0181,69.5091 498.0181,70.2206 498.0181,72.1415 495.1723,73.5644 495.1723,74.3470 490.9747,76.9082 489.5518,77.3351 486.7771,78.4023 488.2000,77.3351 486.7771,78.0465 482.5795,77.6908 485.3542,77.6908 486.7771,76.9082 489.5518,76.1968 490.9747,74.3470 492.3976,73.5644 493.8205,72.8529 495.1723,71.7146 495.1723,71.3589 492.3976,65.4538 493.8205,65.0269 492.3976,62.4657 493.8205,60.1890 493.8205,58.6950 493.8205,57.6278 493.8205,56.4895 493.8205,55.3512 492.3976,54.9954 499.3699,50.1575 500.7928,49.4461 502.2157,48.6635 502.2157,48.3078 504.9903,46.1022 504.9903,45.7465 502.2157,45.7465 502.2157,46.1022 493.8205,49.4461 490.9747,50.9401 490.9747,51.2959 489.5518,50.9401 489.5518,51.2959 488.2000,50.5844 485.3542,50.9401 485.3542,49.8018 485.3542,49.4461 486.7771,49.0904 488.2000,48.6635 490.9747,47.9520 493.8205,46.8137 492.3976,47.2406 478.3819,49.4461 474.1132,52.0073 474.1132,51.6516 474.1132,52.0073 472.7615,49.8018 472.7615,49.0904 471.3386,48.3078 472.7615,47.2406 475.5361,46.1022 481.1566,44.9639 484.0024,44.2525 485.3542,43.1141 493.8205,40.9086 498.0181,39.0588 499.3699,38.2762 502.2157,36.0707 502.2157,35.7150 502.2157,31.9443 502.2157,31.5886 500.7928,34.5767 490.9747,37.1379 475.5361,42.7584 472.7615,42.7584 453.1253,47.5963 446.0819,53.1456 441.8843,54.2840 439.1097,56.1338 436.2638,61.6831 412.4301,67.3036 412.4301,72.1415 392.7940,72.8529 357.7193,76.5525 359.1422,83.2402 350.6759,84.0228 336.6602,84.0228 325.4192,87.7223 324.0675,89.9278Z">
                    <desc xmlns="http://www.highcharts.com/svg/namespace">
<name>Tana</name>
<region>Finnmark</region>
<hc-group>admin2</hc-group>
<hc-key>no-fi-5628</hc-key>
<hc-a2>TA</hc-a2>
<hc-middle-lon>27.508</hc-middle-lon>
<hc-middle-lat>70.267</hc-middle-lat>
</desc>


                </path>
<path fill="#CEE3F5" stroke="#6E6E6E" stroke-width="0.4" id="undefined" d="M274.9771,162.0693 297.3879,162.0693 304.4313,160.9310 312.8265,162.0693 319.8699,157.2314 321.2217,151.6821 321.2217,142.3620 319.8699,142.3620 319.8699,135.6744 321.2217,131.1922 326.8422,128.2041 326.8422,120.8050 331.0397,118.9552 329.6880,114.1173 336.6602,113.3347 338.0831,109.6351 332.4626,106.6470 342.2807,101.8091 347.9012,101.8091 357.7193,95.5483 347.9012,95.5483 346.4783,93.6985 326.8422,92.5602 329.6880,90.7104 324.0675,89.9278 312.8265,95.5483 304.4313,99.9593 287.5699,101.8091 266.5108,101.0977 265.1591,99.9593 238.4795,95.5483 225.8868,96.2598 213.2229,96.2598 210.4482,105.5798 215.9976,108.5679 215.9976,110.4177 221.6181,113.3347 225.8868,115.2556 224.4639,117.1054 221.6181,117.1054 218.8434,118.9552 218.8434,123.4373 210.4482,127.1369 215.9976,129.3424 224.4639,137.5241 241.2542,142.3620 244.1000,144.2118 248.2976,152.7493 255.3410,153.5319 270.7084,157.2314 274.9771,162.0693Z">
                    <desc xmlns="http://www.highcharts.com/svg/namespace">
<name>Karasjok</name>
<region>Finnmark</region>
<hc-group>admin2</hc-group>
<hc-key>no-fi-5610</hc-key>
<hc-a2>KA</hc-a2>
<hc-middle-lon>25.221</hc-middle-lon>
<hc-middle-lat>69.392</hc-middle-lat>
</desc>


                </path>
<path fill="#CEE3F5" stroke="#6E6E6E" stroke-width="0.4" id="undefined" d="M274.9771,162.0693 270.7084,157.2314 255.3410,153.5319 248.2976,152.7493 244.1000,144.2118 241.2542,142.3620 224.4639,137.5241 215.9976,129.3424 210.4482,127.1369 218.8434,123.4373 218.8434,118.9552 221.6181,117.1054 224.4639,117.1054 225.8868,115.2556 221.6181,113.3347 215.9976,110.4177 215.9976,108.5679 210.4482,105.5798 164.1325,102.9475 148.6940,102.9475 137.4530,104.7972 126.2832,104.7972 117.8169,103.7301 112.1964,106.6470 117.8169,107.4296 112.1964,110.4177 109.4217,110.4177 106.6470,114.1173 101.0265,117.1054 89.7855,117.1054 72.9241,119.6666 77.1217,127.1369 82.7421,129.3424 86.9397,133.8246 92.5602,135.6744 92.5602,142.3620 88.3626,146.0616 82.7421,146.0616 77.1217,147.9114 61.7542,147.9114 53.2879,148.6940 67.3036,157.2314 67.3036,159.0812 78.5446,165.7689 81.3904,174.3063 92.5602,172.4566 99.6036,173.2392 110.8446,176.1561 130.4807,176.1561 137.4530,179.9268 152.8916,176.1561 172.5277,174.3063 178.1482,170.6068 182.3458,165.7689 196.3614,165.7689 201.9819,169.4684 207.6024,168.4013 207.6024,171.3182 218.8434,174.3063 235.7048,175.0889 248.2976,178.0770 255.3410,180.6383 260.8903,185.4762 265.1591,180.6383 276.3289,179.9268 276.3289,174.3063 279.1747,174.3063 279.1747,168.4013 284.7952,167.6187 286.1470,164.6306 295.9650,162.0693 274.9771,162.0693Z">
                    <desc xmlns="http://www.highcharts.com/svg/namespace">
<name>Kautokeino</name>
<region>Finnmark</region>
<hc-group>admin2</hc-group>
<hc-key>no-fi-5612</hc-key>
<hc-a2>KA</hc-a2>
<hc-middle-lon>23.674</hc-middle-lon>
<hc-middle-lat>69.135</hc-middle-lat>
</desc>


                </path>
<path fill="#CEE3F5" stroke="#6E6E6E" stroke-width="0.4" id="undefined" d="M336.6602,84.0228 350.6759,84.0228 359.1422,83.2402 357.7193,76.5525 392.7940,72.8529 412.4301,72.1415 412.4301,67.3036 436.2638,61.6831 439.1097,56.1338 441.8843,54.2840 439.1097,47.5963 436.2638,40.9086 450.2795,31.5886 461.5205,27.8890 462.9434,21.2013 458.7458,19.3516 458.7458,13.0196 455.9000,8.1817 461.5205,5.1936 457.3229,2.6324 457.3229,4.4822 455.9000,4.4822 455.9000,4.8379 454.4771,4.8379 451.7024,4.4822 448.9277,7.8260 448.9277,8.5375 450.2795,10.0315 451.7024,10.3872 451.7024,10.8141 450.2795,12.2370 451.7024,12.6639 451.7024,13.7311 450.2795,14.5137 450.2795,14.8694 450.2795,14.5137 448.9277,14.5137 447.5048,13.7311 446.0819,11.8813 444.6590,10.8141 441.8843,10.8141 427.8687,10.0315 427.8687,11.5256 427.8687,11.8813 433.4892,13.0196 436.2638,15.5809 434.8409,15.5809 423.6711,13.7311 419.4735,16.7192 420.8253,17.5018 422.2482,18.2132 423.6711,18.5690 436.2638,19.3516 437.6868,18.9247 439.1097,17.8575 440.4614,17.5018 439.1097,18.2132 437.6868,18.9247 437.6868,19.3516 439.1097,19.3516 441.8843,20.0630 443.3072,20.0630 443.3072,20.4187 446.0819,20.8456 447.5048,21.2013 447.5048,21.9128 448.9277,22.2685 447.5048,22.6954 447.5048,23.0511 446.0819,23.4069 446.0819,24.1895 448.9277,24.5452 455.9000,24.9009 453.1253,24.9009 455.9000,25.2566 446.0819,24.5452 433.4892,24.1895 433.4892,24.5452 432.0663,24.9009 430.6434,27.8890 432.0663,28.2447 433.4892,28.6005 434.8409,28.6005 434.8409,29.3831 434.8409,29.7388 433.4892,29.7388 433.4892,30.0945 432.0663,29.7388 429.2916,29.7388 420.8253,29.7388 418.0506,32.3712 420.8253,33.4384 420.8253,33.7941 422.2482,34.2210 419.4735,34.9324 418.0506,37.1379 419.4735,37.5648 423.6711,39.0588 427.8687,39.7703 427.8687,40.1260 430.6434,40.9086 429.2916,40.9086 427.8687,40.9086 423.6711,40.1260 422.2482,40.1260 419.4735,40.1260 419.4735,39.7703 418.0506,39.7703 418.0506,39.4146 415.2048,39.0588 411.0072,40.9086 409.5843,40.9086 411.0072,42.7584 413.8530,47.5963 413.8530,47.9520 415.2048,48.3078 416.6277,48.6635 418.0506,49.0904 416.6277,48.6635 413.8530,48.6635 406.8096,49.8018 405.3867,49.4461 406.8096,48.6635 396.9916,48.6635 396.9916,49.0904 396.9916,50.1575 395.5687,51.2959 392.7940,52.0073 392.7940,52.4342 391.3711,52.7899 389.9482,52.7899 385.7506,53.1456 384.3988,54.2840 385.7506,55.3512 384.3988,55.7780 382.9759,55.3512 380.1301,57.9835 377.3554,57.2721 375.9325,57.2721 375.9325,56.8452 375.9325,56.1338 375.9325,55.7780 375.9325,55.3512 375.9325,54.9954 377.3554,53.9282 377.3554,53.5014 377.3554,53.1456 375.9325,52.4342 375.9325,52.0073 375.9325,50.5844 378.7783,49.8018 378.7783,49.4461 380.1301,49.0904 381.5530,48.6635 380.1301,47.5963 380.1301,47.2406 378.7783,46.8137 380.1301,45.7465 380.1301,44.9639 381.5530,44.6082 382.9759,43.8256 382.9759,42.7584 385.7506,37.1379 385.7506,36.7822 377.3554,35.7150 375.9325,35.7150 367.5374,37.1379 366.1144,37.1379 363.3398,36.4265 385.7506,32.3712 388.5964,30.0945 388.5964,29.0273 388.5964,27.5333 389.9482,26.7507 389.9482,26.0392 392.7940,23.7626 392.7940,23.4069 392.7940,23.0511 391.3711,23.0511 389.9482,23.7626 388.5964,23.7626 387.1735,23.4069 387.1735,23.0511 387.1735,22.2685 387.1735,21.5571 388.5964,21.2013 389.9482,20.8456 391.3711,20.0630 391.3711,19.7073 391.3711,18.2132 391.3711,17.8575 391.3711,17.5018 391.3711,16.7192 387.1735,15.5809 388.5964,14.8694 387.1735,14.8694 381.5530,21.2013 370.3120,24.1895 361.9169,30.4502 356.2964,32.3712 357.7193,34.5767 347.9012,36.4265 350.6759,43.8256 347.9012,50.5844 340.8578,54.9954 340.8578,62.4657 343.7036,67.3036 340.8578,68.3708 335.2373,75.8410 336.6602,84.0228Z">
                    <desc xmlns="http://www.highcharts.com/svg/namespace">
<name>Lebesby</name>
<region>Finnmark</region>
<hc-group>admin2</hc-group>
<hc-key>no-fi-5624</hc-key>
<hc-a2>LE</hc-a2>
<hc-middle-lon>26.834</hc-middle-lon>
<hc-middle-lat>70.552</hc-middle-lat>
</desc>


                </path>
<path fill="#CEE3F5" stroke="#6E6E6E" stroke-width="0.4" id="undefined" d="M112.1964,106.6470 117.8169,103.7301 126.2832,104.7972 137.4530,104.7972 148.6940,102.9475 164.1325,102.9475 210.4482,105.5798 213.2229,96.2598 207.6024,88.8607 204.8277,83.2402 201.9819,84.0228 189.3892,81.3904 193.5867,75.8410 183.7687,70.2206 176.7253,63.5329 176.7253,58.6950 166.9072,57.9835 162.7096,56.4895 159.9350,59.1219 159.9350,59.8333 162.7096,59.8333 162.7096,59.4776 165.5554,59.4776 162.7096,60.9716 162.7096,61.3274 169.7530,60.9716 166.9072,62.0388 155.7374,62.8214 151.4686,63.5329 148.6940,64.3155 147.2711,65.4538 159.9350,64.3155 161.3579,64.6712 161.3579,64.3155 162.7096,64.6712 164.1325,65.4538 162.7096,65.4538 164.1325,65.4538 161.3579,65.4538 161.3579,65.8095 155.7374,65.8095 154.3145,66.1653 145.9193,66.5210 143.0735,67.3036 145.9193,68.3708 150.1169,68.7976 155.7374,68.7976 154.3145,69.8648 150.1169,70.2206 148.6940,70.2206 151.4686,71.7146 152.8916,72.1415 154.3145,72.4972 152.8916,73.9913 151.4686,74.3470 150.1169,74.7027 143.0735,75.4853 141.6506,75.4853 140.2988,75.4853 138.8759,76.1968 145.9193,79.1849 145.9193,79.5406 151.4686,79.8963 161.3579,80.2521 164.1325,81.0347 162.7096,81.3904 159.9350,83.2402 159.9350,83.6670 155.7374,84.0228 150.1169,86.2283 148.6940,86.2283 148.6940,85.8725 148.6940,85.5168 147.2711,85.8725 148.6940,83.2402 145.9193,83.2402 137.4530,86.2283 134.6783,86.5840 133.2554,87.0109 133.2554,85.8725 133.2554,85.5168 133.2554,79.5406 131.8325,79.8963 130.4807,80.2521 129.0578,80.2521 127.6349,79.8963 127.6349,79.5406 126.2832,79.5406 126.2832,76.9082 126.2832,75.4853 126.2832,72.1415 124.8603,72.1415 122.0144,73.2087 116.4651,75.0584 105.2241,75.8410 101.0265,77.3351 99.6036,77.6908 81.3904,78.8291 79.9675,79.1849 78.5446,79.8963 77.1217,79.8963 75.7699,79.5406 85.5880,76.5525 85.5880,76.1968 86.9397,76.1968 88.3626,75.8410 72.9241,75.8410 72.9241,78.4023 70.1494,79.5406 67.3036,82.1730 72.9241,85.8725 82.7421,87.7223 88.3626,87.7223 92.5602,89.9278 86.9397,91.7776 92.5602,92.5602 92.5602,94.4100 86.9397,97.3981 93.9831,99.9593 93.9831,103.7301 106.6470,107.4296 112.1964,106.6470 M93.9831,73.2087 95.4060,73.5644 93.9831,73.5644 93.9831,73.9913 95.4060,75.8410 88.3626,75.8410 92.5602,76.5525 93.9831,76.5525 107.9988,75.4853 112.1964,74.3470 113.6193,73.9913 115.0422,73.9913 122.0144,69.8648 123.4373,69.1534 122.0144,68.3708 112.1964,67.3036 102.3783,66.8767 98.1807,66.8767 96.8289,66.8767 98.1807,65.8095 95.4060,65.4538 95.4060,65.8095 93.9831,65.8095 93.9831,65.4538 84.1651,64.3155 84.1651,68.3708 93.9831,71.0032 93.9831,73.2087 M89.7855,62.0388 106.6470,64.3155 112.1964,64.3155 126.2832,64.3155 126.2832,62.4657 120.6627,61.6831 120.6627,59.8333 112.1964,58.6950 112.1964,58.3393 109.4217,54.9954 106.6470,56.1338 107.9988,56.4895 106.6470,57.9835 105.2241,58.6950 105.2241,57.6278 105.2241,57.2721 103.8012,57.9835 101.0265,59.8333 101.0265,61.6831 93.9831,62.4657 89.7855,61.6831 89.7855,62.0388 M117.8169,54.2840 122.0144,56.8452 122.0144,57.2721 123.4373,57.2721 124.8603,57.2721 126.2832,57.2721 126.2832,57.6278 127.6349,57.9835 136.1012,53.1456 134.6783,53.5014 136.1012,53.1456 136.1012,53.9282 136.1012,55.3512 134.6783,56.1338 134.6783,57.2721 131.8325,59.1219 131.8325,59.8333 133.2554,62.4657 134.6783,62.4657 140.2988,62.4657 141.6506,62.4657 152.8916,59.8333 147.2711,59.1219 147.2711,58.6950 148.6940,58.6950 148.6940,58.3393 150.1169,57.9835 158.5120,56.1338 159.9350,55.7780 155.7374,54.2840 150.1169,54.2840 144.4964,52.0073 131.8325,51.2959 126.2832,54.9954 126.2832,54.2840 117.8169,54.2840Z">
                    <desc xmlns="http://www.highcharts.com/svg/namespace">
<name>Alta</name>
<region>Finnmark</region>
<hc-group>admin2</hc-group>
<hc-key>no-fi-5601</hc-key>
<hc-a2>AL</hc-a2>
<hc-middle-lon>23.197</hc-middle-lon>
<hc-middle-lat>70.044</hc-middle-lat>
</desc>


                </path>
<path fill="#CEE3F5" stroke="#6E6E6E" stroke-width="0.4" id="undefined" d="M106.6470,42.7584 107.9988,43.1141 110.8446,43.4699 109.4217,44.2525 109.4217,44.6082 112.1964,42.7584 113.6193,43.4699 115.0422,43.4699 116.4651,44.2525 117.8169,44.2525 119.2398,44.2525 119.2398,43.8256 120.6627,43.8256 116.4651,41.9758 117.8169,41.9758 117.8169,41.2644 119.2398,41.6201 120.6627,41.9758 126.2832,41.9758 126.2832,41.6201 126.2832,40.1260 124.8603,39.7703 127.6349,39.7703 130.4807,40.4818 131.8325,40.9086 133.2554,39.0588 130.4807,37.9205 131.8325,37.9205 134.6783,38.2762 137.4530,35.7150 136.1012,35.7150 136.1012,34.9324 136.1012,34.5767 137.4530,34.2210 137.4530,33.0826 138.8759,33.4384 140.2988,33.7941 145.9193,34.2210 144.4964,33.7941 144.4964,33.0826 145.9193,32.7269 147.2711,31.9443 148.6940,32.3712 148.6940,29.0273 150.1169,29.0273 151.4686,29.0273 152.8916,29.3831 154.3145,29.7388 155.7374,27.5333 154.3145,27.1064 154.3145,26.7507 155.7374,26.3950 155.7374,23.4069 154.3145,22.6954 152.8916,22.2685 152.8916,21.5571 151.4686,21.2013 148.6940,22.2685 148.6940,23.0511 148.6940,23.7626 148.6940,24.1895 150.1169,25.6124 150.1169,26.7507 150.1169,27.1064 147.2711,27.5333 144.4964,27.8890 140.2988,25.2566 140.2988,24.5452 138.8759,24.5452 138.8759,25.2566 138.8759,25.6124 138.8759,26.0392 137.4530,26.3950 136.1012,26.0392 129.0578,26.0392 127.6349,26.3950 129.0578,26.3950 130.4807,27.5333 131.8325,27.8890 134.6783,28.6005 136.1012,29.0273 136.1012,29.3831 136.1012,29.7388 137.4530,29.7388 138.8759,29.7388 138.8759,30.0945 138.8759,30.4502 133.2554,30.4502 133.2554,31.2328 134.6783,31.9443 134.6783,32.3712 133.2554,31.9443 130.4807,31.2328 127.6349,32.3712 129.0578,32.7269 127.6349,33.4384 126.2832,33.7941 124.8603,33.7941 124.8603,34.2210 124.8603,34.9324 123.4373,35.7150 122.0144,35.2881 122.0144,34.9324 120.6627,33.7941 119.2398,33.0826 120.6627,32.3712 120.6627,31.9443 120.6627,30.8771 119.2398,30.8771 115.0422,31.5886 115.0422,37.1379 116.4651,38.2762 117.8169,38.2762 117.8169,39.0588 106.6470,42.7584 M115.0422,31.5886 115.0422,29.7388 112.1964,29.7388 110.8446,29.3831 110.8446,29.0273 109.4217,29.0273 109.4217,30.4502 110.8446,30.4502 115.0422,31.5886 M117.8169,54.2840 126.2832,54.2840 126.2832,54.9954 131.8325,51.2959 144.4964,52.0073 150.1169,54.2840 155.7374,54.2840 159.9350,55.7780 164.1325,54.6397 166.9072,53.1456 172.5277,49.4461 166.9072,45.7465 165.5554,38.6320 162.7096,39.0588 161.3579,38.6320 161.3579,38.2762 158.5120,38.2762 154.3145,38.6320 158.5120,39.0588 158.5120,39.4146 158.5120,39.7703 157.0891,40.4818 157.0891,40.9086 161.3579,41.9758 162.7096,42.7584 164.1325,43.8256 161.3579,43.8256 159.9350,43.4699 155.7374,43.1141 154.3145,43.8256 155.7374,44.9639 154.3145,44.6082 152.8916,44.2525 152.8916,44.6082 150.1169,43.4699 148.6940,43.4699 148.6940,44.6082 148.6940,44.9639 148.6940,45.7465 147.2711,47.9520 147.2711,48.6635 145.9193,48.6635 143.0735,48.6635 144.4964,44.6082 140.2988,43.4699 140.2988,44.9639 141.6506,45.3196 141.6506,45.7465 140.2988,46.1022 138.8759,46.8137 137.4530,47.2406 136.1012,47.5963 133.2554,45.7465 127.6349,47.2406 127.6349,47.5963 126.2832,48.3078 126.2832,48.6635 124.8603,48.6635 123.4373,48.6635 123.4373,49.0904 123.4373,49.4461 123.4373,49.8018 122.0144,49.8018 120.6627,50.1575 119.2398,51.2959 119.2398,51.6516 120.6627,52.0073 123.4373,52.7899 122.0144,53.5014 117.8169,53.1456 116.4651,53.9282 117.8169,54.2840 M162.7096,56.4895 166.9072,57.9835 176.7253,58.6950 176.7253,63.5329 183.7687,70.2206 193.5867,75.8410 209.0253,74.7027 215.9976,70.2206 232.8590,58.6950 242.6771,56.8452 249.7205,53.1456 246.8747,51.2959 249.7205,48.6635 260.8903,42.7584 266.5108,38.2762 249.7205,36.4265 249.7205,36.7822 248.2976,38.2762 246.8747,38.6320 246.8747,39.0588 245.5229,39.0588 242.6771,38.6320 241.2542,37.9205 232.8590,34.2210 228.6614,34.2210 225.8868,34.2210 225.8868,33.7941 221.6181,33.7941 218.8434,35.2881 217.4205,35.7150 217.4205,36.4265 217.4205,38.2762 215.9976,39.0588 215.9976,39.4146 215.9976,39.7703 214.6458,39.7703 211.8000,40.9086 206.1795,43.1141 204.8277,43.8256 211.8000,44.9639 213.2229,45.3196 215.9976,46.1022 220.2663,48.3078 221.6181,48.6635 223.0410,49.0904 223.0410,49.8018 221.6181,50.1575 221.6181,49.8018 218.8434,49.0904 218.8434,48.6635 215.9976,48.3078 189.3892,46.4580 189.3892,46.8137 186.5433,47.2406 183.7687,47.9520 179.5711,50.5844 171.1759,53.5014 168.3301,54.9954 165.5554,55.7780 165.5554,56.1338 164.1325,56.1338 162.7096,56.4895 M171.1759,33.4384 171.1759,33.7941 172.5277,33.7941 175.3735,34.9324 175.3735,35.7150 173.9506,36.0707 172.5277,36.4265 173.9506,37.1379 173.9506,38.2762 173.9506,38.6320 175.3735,39.7703 175.3735,40.1260 175.3735,40.9086 175.3735,41.6201 175.3735,41.9758 176.7253,42.7584 178.1482,44.2525 179.5711,45.3196 183.7687,46.1022 187.9663,46.1022 192.1638,45.3196 193.5867,44.9639 197.7843,41.9758 203.4048,40.9086 204.8277,38.2762 204.8277,37.9205 203.4048,37.1379 201.9819,36.7822 201.9819,35.7150 199.2072,33.4384 196.3614,32.3712 186.5433,32.3712 185.1916,32.7269 185.1916,32.3712 183.7687,32.3712 182.3458,29.0273 178.1482,29.3831 175.3735,29.7388 173.9506,31.2328 172.5277,31.9443 171.1759,33.4384Z">
                    <desc xmlns="http://www.highcharts.com/svg/namespace">
<name>Hammerfest</name>
<region>Finnmark</region>
<hc-group>admin2</hc-group>
<hc-key>no-fi-5603</hc-key>
<hc-a2>HA</hc-a2>
<hc-middle-lon>23.859</hc-middle-lon>
<hc-middle-lat>70.479</hc-middle-lat>
</desc>


                </path>
</g>
        
<text x="350" y="715" text-anchor="middle" font-family="Verdana" font-size="8" stroke-opacity="0.6">
            Copyright (c) 2024 Highsoft AS, Based on data from OpenStreetMap</text>

        </svg>