<?xml version="1.0" encoding="utf-8" standalone="no"?>
<!DOCTYPE svg PUBLIC "-//W3C//DTD SVG 1.1//EN" "http://www.w3.org/Graphics/SVG/1.1/DTD/svg11.dtd">

<svg version="1.1" height="700pt" width="700pt" xmlns="http://www.w3.org/2000/svg" xmlns:xlink="http://www.w3.org/1999/xlink">
<desc>
Map version: 1.1.3
Copyright (c) 2020 Highsoft AS, Based on data from Kartverket
</desc>
<title>Troms og Finnmark</title>
<g id="admin2">

<g id="NO.TF">
  <desc xmlns="http://www.highcharts.com/svg/namespace">
    <labelrank>7</labelrank>
    <iso_3166_2>NO-54</iso_3166_2>
    <hasc>NO.TF</hasc>
    <alt-name>Troms og Finnmark fylke|Romsa ja Finnmárku|Tromssa ja Finmarkku</alt-name>
    <country>Norway</country>
    <type-en>County</type-en>
    <region>NULL</region>
    <woe-id>2346388</woe-id>
    <longitude>24.4789</longitude>
    <subregion>NULL</subregion>
    <woe-name>Troms og Finnmark</woe-name>
    <fips>NO54</fips>
    <latitude>69.56480000000001</latitude>
    <woe-label>Troms og Finnmark Fylke, NO, Norway</woe-label>
    <postal-code>TF</postal-code>
    <type>Fylke</type>
    <name>Troms og Finnmark</name>
    <hc-key>no-tf</hc-key>
    <hc-a2>TO</hc-a2>
  </desc>
</g>

<g id="NO">
  <desc xmlns="http://www.highcharts.com/svg/namespace">
    <name>Norway</name>
    <labelrank>3</labelrank>
    <country-abbrev>Nor.</country-abbrev>
    <subregion>Northern Europe</subregion>
    <region-wb>Europe &amp; Central Asia</region-wb>
    <iso-a3>NOR</iso-a3>
    <iso-a2>NO</iso-a2>
    <woe-id>-90</woe-id>
    <continent>Europe</continent>
    <hc-key>no</hc-key>
    <hc-a2>NO</hc-a2>
  </desc>
</g>

<path fill="#CEE3F5" stroke="#6E6E6E" stroke-width="0.4" id="NO.TF.5429" d="M285.7,169.0 L283.9,166.8 L285.4,166.0 L287.0,166.8 Z M286.2,157.7 L284.7,161.2 L279.2,157.8 L279.1,156.3 L281.0,154.5 L283.4,155.3 Z M270.1,147.4 L267.4,146.9 L267.6,144.7 L268.8,144.6 Z M264.6,163.0 L265.6,160.0 L269.1,156.4 L271.7,156.6 L279.0,161.6 L279.6,164.7 L281.2,166.0 L280.0,169.5 L281.4,171.6 L284.8,174.3 L288.0,175.2 L294.6,182.5 L297.1,188.6 L301.3,192.2 L300.6,193.1 L298.0,192.2 L300.4,194.2 L302.9,193.5 L303.1,191.1 L301.6,189.5 L301.4,186.5 L299.3,184.1 L295.1,180.8 L298.8,181.2 L299.3,178.1 L295.7,175.6 L294.8,167.1 L295.9,161.9 L299.6,161.8 L299.7,165.7 L300.9,167.9 L301.3,165.5 L300.7,157.8 L303.4,156.0 L296.3,158.5 L292.6,158.6 L289.6,155.3 L291.3,153.0 L297.7,152.6 L298.6,152.1 L302.4,146.4 L302.6,144.4 L298.6,146.8 L296.5,149.1 L291.3,148.2 L289.8,150.9 L286.1,152.4 L284.7,151.8 L281.3,147.5 L277.0,148.5 L275.0,146.6 L273.5,141.0 L276.1,137.7 L270.1,139.2 L266.8,137.6 L265.2,134.7 L263.6,133.5 L264.4,131.9 L272.0,135.4 L273.6,136.8 L274.7,135.8 L277.4,136.7 L279.3,135.1 L281.9,135.8 L281.0,137.3 L283.4,140.4 L286.0,142.1 L286.2,144.4 L289.0,145.0 L290.8,147.1 L292.9,145.7 L292.5,143.4 L294.4,141.8 L294.4,139.7 L296.7,140.8 L298.2,139.2 L303.4,138.0 L303.9,142.0 L303.5,144.5 L305.8,151.6 L307.2,151.4 L308.0,154.8 L306.7,156.6 L309.5,162.9 L309.3,164.8 L311.1,166.8 L316.5,169.4 L320.7,170.0 L322.0,172.3 L318.7,175.9 L320.0,177.2 L322.4,177.4 L323.1,179.3 L320.6,182.8 L319.0,186.5 L322.9,189.2 L323.8,191.9 L323.1,195.3 L324.6,198.5 L333.1,204.9 L336.6,202.0 L339.3,204.4 L337.3,207.9 L334.2,209.8 L334.0,213.3 L332.9,217.2 L331.1,218.2 L332.1,222.6 L328.0,221.3 L322.6,222.2 L316.8,225.8 L312.2,226.4 L309.8,223.7 L309.2,217.7 L305.3,216.7 L302.2,217.4 L295.6,220.8 L290.7,218.5 L287.9,219.3 L283.2,214.7 L282.4,208.4 L281.3,205.1 L284.8,201.7 L285.0,198.1 L287.2,195.5 L286.4,192.0 L286.6,188.5 L288.6,188.2 L288.4,184.5 L287.6,183.3 L284.6,183.1 L282.0,180.9 L279.5,180.7 L280.5,178.8 L279.7,177.2 L281.1,175.5 L278.6,173.3 L274.2,167.8 L273.4,164.7 Z">
  <desc xmlns="http://www.highcharts.com/svg/namespace">
    <name>Kvænangen</name>
    <hc-key>no-tf-5429</hc-key>
    <hc-a2>KV</hc-a2>
  </desc>
</path>

<path fill="#CEE3F5" stroke="#6E6E6E" stroke-width="0.4" id="NO.TF.5427" d="M255.3,156.7 L252.5,157.3 L254.1,153.7 L256.2,152.5 L256.5,155.3 Z M249.8,150.1 L248.4,151.5 L246.8,150.9 L245.6,148.3 L245.4,145.0 L247.1,140.9 L248.2,141.7 L250.7,146.5 Z M234.0,177.7 L235.1,173.7 L236.7,172.6 L241.7,172.0 L242.1,173.5 L241.0,176.1 L242.0,181.3 L241.6,183.1 L240.6,182.3 L238.3,183.9 L237.0,182.1 L237.1,179.5 Z M253.6,162.7 L253.3,165.2 L251.8,167.2 L247.5,168.4 L245.8,167.0 L243.9,161.9 L243.9,160.4 L245.7,155.5 L248.3,154.7 L249.4,155.5 L252.6,160.0 L258.8,159.0 Z M242.8,129.9 L246.1,132.0 L246.8,135.3 L244.8,142.0 L244.4,145.5 L245.4,151.6 L243.3,153.1 L240.7,151.1 L239.5,153.3 L236.3,154.4 L236.9,147.8 L235.9,146.2 L235.3,150.1 L233.3,150.1 L232.7,152.8 L229.5,151.5 L227.7,147.0 L228.2,140.9 L228.9,138.2 L231.0,135.1 L234.6,133.4 L234.7,131.3 L236.5,129.9 Z">
  <desc xmlns="http://www.highcharts.com/svg/namespace">
    <name>Skjervøy</name>
    <hc-key>no-tf-5427</hc-key>
    <hc-a2>SK</hc-a2>
  </desc>
</path>

<path fill="#CEE3F5" stroke="#6E6E6E" stroke-width="0.4" id="NO.TF.5401" d="M125.6,198.9 L127.4,199.8 L127.4,201.9 L125.6,203.3 L123.3,203.2 L123.8,201.1 L125.6,201.0 L123.5,199.4 Z M131.3,193.0 L130.2,193.3 L128.0,191.3 L128.1,189.5 L130.6,188.4 Z M142.3,181.2 L140.6,180.8 L140.8,178.8 L143.8,176.1 L147.1,177.6 L146.7,181.1 Z M147.1,154.6 L145.6,154.8 L146.1,152.0 L147.4,151.8 Z M157.9,154.7 L156.0,156.1 L153.1,160.4 L151.8,158.5 L152.8,155.0 L151.7,154.8 L152.2,150.4 L157.0,151.9 Z M210.2,213.3 L211.3,213.8 L211.1,218.1 L203.8,228.2 L203.4,233.1 L204.1,237.0 L203.1,239.5 L198.3,242.7 L196.8,245.0 L197.2,249.7 L192.5,252.1 L193.3,246.9 L192.0,246.9 L190.0,244.8 L189.8,242.3 L187.6,241.8 L186.6,243.3 L182.1,238.2 L178.7,235.3 L181.1,231.9 L179.3,229.0 L171.6,231.9 L172.5,234.8 L171.5,236.0 L170.1,234.7 L168.4,230.1 L164.9,226.1 L164.1,224.0 L165.7,220.6 L167.4,219.1 L173.2,217.0 L176.1,220.6 L174.8,214.8 L171.1,215.1 L166.8,216.6 L165.1,218.9 L162.6,215.3 L162.2,208.3 L168.8,198.5 L169.6,193.0 L174.2,190.9 L176.4,187.9 L178.5,187.3 L185.1,188.2 L190.3,185.3 L198.3,183.9 L200.3,185.0 L197.9,191.1 L198.0,193.3 L196.8,197.7 L195.1,200.7 L197.4,205.8 L196.0,212.1 L193.3,218.8 L192.4,224.6 L193.4,229.3 L190.2,232.1 L187.8,236.8 L195.1,231.2 L196.9,222.1 L196.2,220.2 L198.6,211.4 L198.0,209.7 L202.5,209.9 L205.5,211.1 Z M180.6,183.3 L170.8,186.4 L169.4,184.7 L167.5,179.8 L158.9,171.1 L155.5,169.5 L154.1,165.2 L155.9,164.3 L160.1,166.2 L163.2,162.7 L160.7,162.2 L159.0,159.4 L161.1,159.0 L162.5,161.9 L164.7,160.5 L168.3,163.7 L166.6,170.7 L170.5,170.5 L171.1,176.6 L173.2,178.7 L176.5,178.0 L177.1,176.8 L180.0,180.1 Z M141.1,219.9 L144.7,219.1 L147.7,217.4 L157.8,216.3 L158.3,219.1 L157.2,222.7 L159.4,223.4 L160.1,227.7 L150.0,229.5 L149.7,226.2 L145.1,224.6 L141.8,221.9 Z M144.7,215.1 L141.3,214.9 L131.1,218.0 L128.0,217.9 L124.3,212.4 L120.5,211.6 L119.5,209.6 L121.5,206.1 L121.2,204.4 L123.5,205.8 L126.0,204.1 L130.5,205.3 L131.6,206.3 L132.7,210.2 L134.3,206.9 L137.9,204.2 L134.5,205.0 L133.0,204.2 L128.7,195.0 L130.0,194.3 L136.2,195.8 L141.8,195.5 L147.6,197.8 L148.6,196.7 L146.9,195.5 L137.8,193.9 L136.2,192.6 L135.3,188.0 L136.8,184.5 L138.5,184.1 L140.3,186.8 L142.3,186.8 L142.2,190.1 L143.6,189.8 L144.6,186.4 L147.0,183.6 L150.0,183.5 L149.3,189.8 L150.0,195.3 L151.9,198.8 L154.4,198.7 L153.3,196.3 L154.4,190.5 L156.0,186.4 L151.8,179.6 L150.9,176.5 L151.6,173.1 L155.3,175.3 L157.9,173.3 L159.4,176.0 L158.4,178.6 L161.1,178.3 L165.0,180.3 L168.1,186.4 L167.9,189.4 L166.7,191.9 L163.8,193.2 L161.2,197.5 L156.2,199.6 L154.5,204.0 L156.3,206.3 L157.3,209.6 L156.6,211.3 L152.4,214.4 L147.7,212.6 Z">
  <desc xmlns="http://www.highcharts.com/svg/namespace">
    <name>Tromsø</name>
    <hc-key>no-tf-5401</hc-key>
    <hc-a2>TR</hc-a2>
  </desc>
</path>

<path fill="#CEE3F5" stroke="#6E6E6E" stroke-width="0.4" id="NO.TF.5402" d="M56.7,285.8 L58.7,288.0 L54.2,290.9 L53.5,287.7 Z M40.6,339.0 L40.5,339.1 L40.5,339.0 L40.5,339.0 L40.5,339.0 L40.5,339.0 L40.7,336.9 L39.5,335.2 L36.4,334.1 L34.0,332.0 L32.4,328.1 L39.1,324.6 L40.1,323.5 L39.8,319.7 L37.9,318.4 L38.1,312.2 L36.7,312.5 L38.2,310.1 L37.0,306.7 L33.1,304.0 L32.4,301.4 L33.3,300.0 L35.2,301.3 L35.9,299.4 L34.5,297.8 L34.5,293.1 L37.0,297.5 L42.5,300.6 L43.0,305.1 L47.7,304.2 L44.5,308.4 L46.2,308.7 L47.2,311.2 L45.7,312.3 L45.5,317.3 L47.6,319.3 L45.4,322.6 L46.3,326.0 L42.3,333.5 L42.6,338.2 L40.6,339.0 L40.6,339.0 L40.6,339.0 Z M49.8,295.0 L48.8,296.2 L44.6,296.1 L41.0,293.7 L38.9,289.5 L36.4,286.9 L35.5,284.7 L37.8,281.4 L40.2,282.3 L44.9,286.3 L49.5,285.8 L50.9,288.6 L49.9,291.9 Z">
  <desc xmlns="http://www.highcharts.com/svg/namespace">
    <name>Harstad</name>
    <hc-key>no-tf-5402</hc-key>
    <hc-a2>HA</hc-a2>
  </desc>
</path>

<path fill="#CEE3F5" stroke="#6E6E6E" stroke-width="0.4" id="NO.TF.5434" d="M420.7,20.4 L421.9,22.2 L423.9,21.8 L422.3,26.5 L420.8,26.3 L419.1,23.6 L419.4,20.8 Z M439.3,42.5 L439.7,37.7 L436.9,31.1 L437.7,28.1 L440.0,29.4 L443.3,32.5 L443.3,35.0 L441.6,38.8 L442.1,40.3 L440.5,40.5 Z M405.7,18.1 L407.7,15.6 L410.4,17.9 L409.3,13.0 L410.6,12.7 L412.2,14.6 L414.5,13.7 L414.2,16.6 L412.3,19.0 L412.9,20.6 L412.3,23.3 L410.3,23.4 L405.6,19.8 Z M413.7,71.3 L413.3,69.8 L410.4,67.0 L410.0,64.3 L407.0,62.9 L405.0,59.9 L401.5,59.5 L396.5,58.1 L394.2,58.2 L392.0,55.7 L392.9,53.6 L392.7,48.7 L397.8,44.7 L398.5,47.4 L401.0,48.7 L401.0,50.8 L405.8,53.0 L407.8,55.4 L409.0,52.8 L406.8,49.5 L407.6,44.2 L411.1,44.9 L411.6,43.1 L407.8,40.6 L407.3,38.9 L404.8,35.5 L408.1,33.4 L405.2,31.9 L408.3,29.8 L413.0,30.7 L414.5,33.4 L416.9,35.6 L415.4,38.4 L422.2,37.1 L421.4,35.2 L422.1,29.7 L423.8,29.6 L425.2,31.3 L425.0,35.2 L422.6,40.0 L419.7,42.6 L422.0,42.0 L423.5,43.8 L426.2,44.8 L426.1,42.2 L427.6,37.4 L428.8,35.7 L433.0,41.7 L434.9,47.7 L434.3,52.2 L436.2,49.2 L438.2,49.2 L439.1,43.5 L440.7,47.6 L439.4,52.8 L437.5,56.6 L436.3,60.2 L424.4,75.2 L414.9,71.3 Z M382.0,31.4 L380.7,30.6 L378.0,31.5 L376.6,30.8 L375.8,28.4 L378.1,28.0 L376.9,26.4 L378.4,24.9 L383.8,25.2 L383.2,26.9 L384.8,28.0 L388.1,27.4 L389.7,28.4 L388.2,29.4 L384.8,29.0 L383.4,30.5 L383.6,33.1 L389.3,32.3 L389.0,35.6 L387.4,37.4 L384.8,37.3 L384.2,39.3 L381.0,38.4 L380.1,35.9 L376.7,34.3 L378.0,33.2 L380.8,32.8 Z">
  <desc xmlns="http://www.highcharts.com/svg/namespace">
    <name>Måsøy</name>
    <hc-key>no-tf-5434</hc-key>
    <hc-a2>MÅ</hc-a2>
  </desc>
</path>

<path fill="#CEE3F5" stroke="#6E6E6E" stroke-width="0.4" id="NO.TF.5432" d="M274.5,117.0 L272.1,118.5 L271.2,114.8 L272.9,110.1 L273.4,110.5 Z M319.1,122.7 L317.2,122.1 L314.4,117.7 L314.1,115.9 L315.0,116.1 L316.3,120.4 L319.0,121.0 L319.6,122.2 L319.4,122.2 Z M316.3,126.2 L315.6,129.2 L317.7,131.5 L316.8,132.9 L319.6,135.5 L320.1,137.3 L321.9,137.8 L322.7,143.1 L320.4,140.7 L312.4,138.2 L313.8,131.9 L314.2,127.5 Z M287.7,123.2 L286.2,126.1 L285.5,126.7 L283.9,123.5 L284.3,117.0 L284.1,113.3 L285.2,110.1 L288.8,114.0 L288.9,118.5 Z M264.4,131.9 L266.2,129.6 L273.5,125.6 L273.8,129.7 L275.8,133.4 L275.9,129.3 L276.6,127.2 L276.7,122.5 L277.6,119.5 L279.9,120.0 L280.0,123.2 L282.1,126.5 L285.3,128.0 L289.2,133.6 L290.2,137.6 L292.7,141.2 L292.9,139.4 L292.0,134.0 L293.5,133.2 L290.5,130.9 L289.5,127.0 L290.2,125.5 L297.3,118.4 L299.2,119.0 L297.5,121.9 L298.3,123.1 L301.0,120.7 L302.4,120.8 L302.7,128.3 L304.1,129.4 L304.6,126.5 L304.0,123.3 L309.5,121.8 L311.2,122.8 L311.6,124.6 L309.2,130.2 L309.9,131.7 L310.9,138.2 L308.6,141.8 L310.2,142.3 L315.9,140.7 L321.2,143.6 L322.7,143.2 L324.8,146.7 L321.8,147.5 L319.9,145.4 L313.7,148.0 L310.5,147.9 L310.1,151.6 L308.0,154.8 L307.2,151.4 L305.8,151.6 L303.5,144.5 L303.9,142.0 L303.4,138.0 L298.2,139.2 L296.7,140.8 L294.4,139.7 L294.4,141.8 L292.5,143.4 L292.9,145.7 L290.8,147.1 L289.0,145.0 L286.2,144.4 L286.0,142.1 L283.4,140.4 L281.0,137.3 L281.9,135.8 L279.3,135.1 L277.4,136.7 L274.7,135.8 L273.6,136.8 L272.0,135.4 Z">
  <desc xmlns="http://www.highcharts.com/svg/namespace">
    <name>Loppa</name>
    <hc-key>no-tf-5432</hc-key>
    <hc-a2>LO</hc-a2>
  </desc>
</path>

<path fill="#CEE3F5" stroke="#6E6E6E" stroke-width="0.4" id="NO.TF.5436" d="M442.5,116.2 L443.7,118.0 L443.4,119.9 L439.3,122.9 L440.8,116.7 Z M461.4,65.7 L459.5,67.0 L458.3,63.1 L460.8,61.0 L462.5,62.6 Z M472.9,154.1 L468.1,158.4 L465.3,164.6 L454.8,185.3 L444.1,188.4 L431.3,187.3 L413.7,179.0 L397.5,181.5 L391.8,158.4 L389.9,159.2 L382.7,156.7 L384.3,144.8 L393.7,142.2 L401.4,124.1 L405.8,112.6 L411.9,108.9 L415.6,101.9 L412.9,98.6 L413.3,96.0 L418.0,87.8 L420.7,84.4 L424.4,75.2 L436.3,60.2 L437.5,56.6 L445.9,59.5 L449.0,62.8 L446.8,66.8 L444.1,68.2 L443.4,70.7 L440.6,75.5 L437.9,77.6 L436.1,81.3 L430.5,87.1 L429.5,89.7 L436.7,86.0 L438.6,88.1 L436.9,91.3 L429.1,91.5 L430.8,93.7 L437.0,92.4 L439.1,95.1 L437.7,96.3 L438.6,101.7 L438.4,104.2 L435.8,102.5 L434.1,103.5 L431.1,108.2 L433.5,108.8 L432.3,111.1 L433.2,113.3 L435.8,110.4 L436.8,114.5 L431.0,121.7 L427.8,125.1 L427.8,131.9 L427.0,134.5 L427.3,141.6 L428.3,144.4 L430.3,146.3 L431.7,146.2 L431.3,142.6 L429.9,139.3 L430.6,136.1 L433.5,134.5 L432.8,138.1 L435.5,137.9 L433.3,140.7 L435.9,144.1 L440.8,140.8 L442.7,131.6 L443.9,129.2 L445.6,128.3 L447.4,124.7 L448.1,121.2 L450.7,117.3 L451.5,114.7 L450.4,113.0 L446.2,111.5 L446.8,109.3 L455.2,95.9 L463.0,79.3 L465.4,77.6 L467.8,73.5 L469.1,66.1 L470.2,66.6 L472.4,66.7 L475.2,81.0 L474.0,92.6 L470.8,101.1 L471.4,109.5 L471.0,112.3 L475.0,123.3 L471.7,129.0 L472.5,131.8 L469.9,139.9 L470.1,143.4 L472.2,148.4 Z">
  <desc xmlns="http://www.highcharts.com/svg/namespace">
    <name>Porsanger / Porsangu / Porsanki</name>
    <hc-key>no-tf-5436</hc-key>
    <hc-a2>P/</hc-a2>
  </desc>
</path>

<path fill="#CEE3F5" stroke="#6E6E6E" stroke-width="0.4" id="NO.TF.5444" d="M653.4,145.8 L655.6,145.9 L656.5,148.4 L654.5,149.2 Z M619.8,133.4 L623.1,134.3 L636.7,137.0 L632.5,142.0 L627.2,147.3 L626.2,150.7 L624.5,153.0 L627.7,152.2 L630.3,145.7 L632.4,145.0 L634.4,146.2 L637.1,145.8 L639.0,144.0 L640.3,144.6 L641.0,149.9 L643.0,153.1 L642.0,157.9 L638.7,162.5 L637.0,169.1 L633.6,171.4 L635.2,171.2 L633.5,177.6 L635.5,175.5 L636.5,172.8 L640.7,166.9 L642.2,166.0 L646.8,164.9 L650.5,165.4 L655.5,159.5 L657.0,160.0 L655.1,166.1 L652.6,169.0 L656.4,166.3 L658.4,163.9 L660.5,167.8 L663.6,169.9 L664.0,168.7 L659.4,161.5 L662.7,160.1 L663.2,157.2 L660.4,154.1 L659.4,145.4 L662.7,144.9 L664.7,143.7 L666.6,145.9 L664.6,149.0 L666.1,149.7 L669.1,148.1 L670.5,149.0 L672.2,156.3 L673.7,166.3 L672.1,171.1 L675.6,169.1 L674.7,162.1 L675.2,159.5 L673.3,152.3 L674.6,151.0 L684.3,150.8 L685.4,152.0 L685.8,155.5 L689.8,151.7 L694.0,158.3 L693.9,161.4 L696.3,163.7 L698.0,169.7 L699.2,171.4 L700.0,180.6 L695.2,185.6 L688.2,185.1 L681.6,186.2 L676.2,180.6 L666.4,173.9 L662.9,172.3 L660.1,174.1 L660.7,176.1 L662.7,175.7 L666.4,184.7 L666.4,189.5 L664.4,192.3 L665.2,197.9 L661.3,205.5 L658.5,207.4 L657.2,205.9 L654.4,205.5 L651.8,209.2 L649.4,210.5 L648.3,214.1 L643.5,220.8 L641.2,219.9 L636.4,221.8 L635.5,221.3 L631.0,225.7 L631.2,230.3 L633.2,232.8 L633.3,239.6 L631.5,247.8 L632.1,249.1 L624.7,263.4 L623.5,261.7 L615.1,256.1 L612.2,252.0 L612.4,244.1 L611.6,237.4 L626.2,212.9 L630.0,201.9 L619.8,182.4 L617.2,175.4 L607.0,172.3 L596.3,168.3 L582.9,163.8 L579.2,160.2 L585.2,156.9 L595.2,147.5 L602.9,145.2 L610.9,142.4 L621.1,139.6 Z M654.0,152.3 L657.4,151.6 L657.2,153.9 L652.6,156.7 L649.9,160.2 L647.0,158.0 L647.2,160.2 L645.5,163.5 L641.7,163.1 L642.2,159.6 L645.5,152.8 L644.0,149.4 L643.9,146.2 L646.1,142.8 L650.5,143.8 L651.6,144.7 L652.4,148.2 L653.9,149.7 Z">
  <desc xmlns="http://www.highcharts.com/svg/namespace">
    <name>Sør-Varanger</name>
    <hc-key>no-tf-5444</hc-key>
    <hc-a2>SV</hc-a2>
  </desc>
</path>

<path fill="#CEE3F5" stroke="#6E6E6E" stroke-width="0.4" id="NO.TF.5419" d="M112.6,268.4 L115.0,266.5 L118.0,265.8 L123.9,266.3 L120.7,264.2 L120.8,259.5 L124.0,259.3 L125.6,258.0 L129.9,258.4 L132.9,259.8 L131.8,263.2 L126.1,262.2 L125.2,262.9 L127.6,265.5 L133.3,269.3 L137.2,269.9 L136.0,273.6 L136.2,277.4 L137.5,279.2 L137.0,281.1 L133.6,280.5 L133.1,281.7 L126.4,286.8 L118.2,288.4 L116.0,283.4 L114.0,282.1 L111.8,278.8 L112.1,273.9 L113.9,271.2 Z">
  <desc xmlns="http://www.highcharts.com/svg/namespace">
    <name>Sørreisa</name>
    <hc-key>no-tf-5419</hc-key>
    <hc-a2>SØ</hc-a2>
  </desc>
</path>

<path fill="#CEE3F5" stroke="#6E6E6E" stroke-width="0.4" id="NO.TF.5424" d="M225.5,213.7 L222.6,215.1 L221.8,216.7 L223.1,218.9 L221.9,220.8 L221.2,224.2 L221.8,226.5 L220.1,229.7 L219.0,228.6 L217.8,235.5 L216.1,235.4 L204.1,237.0 L203.4,233.1 L203.8,228.2 L211.1,218.1 L211.3,213.8 L212.8,213.6 L209.0,211.9 L206.2,209.4 L203.2,207.9 L201.8,199.9 L202.5,195.4 L204.4,192.8 L204.2,190.4 L207.5,186.5 L209.0,181.8 L210.3,180.2 L210.1,183.0 L208.5,190.4 L210.2,189.8 L211.4,187.0 L213.5,180.0 L215.2,175.7 L216.5,170.1 L217.6,167.6 L217.7,175.5 L219.3,178.3 L219.1,169.9 L222.2,164.3 L224.2,164.9 L228.6,174.4 L229.0,176.1 L227.8,180.1 L227.5,185.4 L226.1,188.7 L224.8,195.5 L224.1,202.8 L226.4,206.3 L226.7,211.7 L225.5,213.6 Z M202.5,209.9 L206.3,210.8 L210.2,213.3 L205.5,211.1 Z">
  <desc xmlns="http://www.highcharts.com/svg/namespace">
    <name>Lyngen</name>
    <hc-key>no-tf-5424</hc-key>
    <hc-a2>LY</hc-a2>
  </desc>
</path>

<path fill="#CEE3F5" stroke="#6E6E6E" stroke-width="0.4" id="NO.TF.5423" d="M210.2,157.8 L208.2,158.7 L206.0,157.8 L209.4,156.8 Z M159.9,146.7 L158.7,147.9 L158.3,141.8 L160.2,142.1 Z M212.8,141.1 L208.3,138.9 L210.1,136.9 L213.1,139.0 Z M161.8,134.0 L162.6,134.3 L161.7,140.4 L158.1,139.8 L157.4,138.3 L159.9,134.1 Z M220.6,131.8 L219.6,131.0 L219.1,124.3 L218.2,122.3 L219.8,120.6 L221.6,124.8 L223.4,126.2 L223.2,127.8 Z M186.5,139.5 L191.9,145.2 L190.8,147.4 L188.2,147.4 L182.5,144.8 L181.5,142.9 L183.0,139.5 L184.8,138.6 Z M159.0,159.4 L159.5,156.7 L163.5,154.9 L165.8,155.8 L168.3,154.6 L168.9,156.8 L171.7,155.2 L169.5,151.1 L169.4,148.9 L171.8,149.7 L175.8,146.5 L176.4,149.7 L177.8,150.6 L179.8,148.3 L180.9,149.2 L179.3,155.3 L181.3,157.1 L183.6,160.5 L184.8,160.8 L184.8,157.7 L187.1,153.5 L191.0,152.3 L192.1,155.3 L191.9,160.5 L193.6,157.5 L195.1,156.9 L196.5,158.9 L196.4,161.6 L194.7,163.6 L189.9,165.8 L188.8,170.6 L185.0,176.3 L183.7,180.2 L180.6,183.3 L180.0,180.1 L177.1,176.8 L176.5,178.0 L173.2,178.7 L171.1,176.6 L170.5,170.5 L166.6,170.7 L168.3,163.7 L164.7,160.5 L162.5,161.9 L161.1,159.0 Z M152.2,150.4 L154.0,147.7 L153.7,144.1 L154.6,143.6 L157.1,145.5 L158.0,151.0 L161.9,145.1 L165.3,148.0 L165.5,149.4 L162.6,152.9 L157.9,154.7 L157.0,151.9 Z M195.7,178.4 L187.1,180.3 L184.9,180.0 L185.3,177.7 L188.4,173.2 L189.5,170.0 L196.7,164.4 L200.4,159.2 L203.0,160.5 L204.0,163.3 L197.7,177.2 Z M171.3,144.0 L166.8,139.3 L169.8,137.1 L171.3,138.7 L171.4,135.1 L173.1,133.7 L171.2,129.0 L173.2,128.1 L176.0,126.1 L177.3,129.1 L177.1,131.9 L178.1,135.2 L176.8,139.4 L176.8,141.9 L174.4,144.3 Z M199.5,148.8 L199.6,142.3 L197.7,136.4 L194.8,131.5 L191.6,129.8 L190.7,127.4 L193.1,127.5 L193.0,125.1 L197.0,122.3 L197.9,127.6 L199.2,130.2 L201.7,132.7 L202.7,138.0 L204.0,137.4 L205.0,132.8 L206.1,132.4 L208.2,134.8 L208.0,138.9 L209.9,141.1 L217.3,145.6 L212.9,147.0 L211.6,148.1 L212.1,149.3 L209.5,152.2 L202.6,152.1 L200.7,151.2 Z">
  <desc xmlns="http://www.highcharts.com/svg/namespace">
    <name>Karlsøy</name>
    <hc-key>no-tf-5423</hc-key>
    <hc-a2>KA</hc-a2>
  </desc>
</path>

<path fill="#CEE3F5" stroke="#6E6E6E" stroke-width="0.4" id="NO.TF.5404" d="M690.8,76.9 L689.4,77.1 L688.3,75.4 L687.8,72.3 Z M672.3,66.9 L673.1,69.8 L676.7,72.8 L677.4,70.5 L680.7,66.7 L683.4,70.8 L685.1,72.2 L688.4,77.1 L687.1,80.9 L687.5,82.7 L690.8,87.5 L689.2,87.7 L685.1,91.2 L668.8,95.7 L667.5,97.2 L668.0,100.2 L665.9,102.5 L665.8,101.4 L647.4,92.8 L658.3,79.5 Z">
  <desc xmlns="http://www.highcharts.com/svg/namespace">
    <name>Vardø</name>
    <hc-key>no-tf-5404</hc-key>
    <hc-a2>VA</hc-a2>
  </desc>
</path>

<path fill="#CEE3F5" stroke="#6E6E6E" stroke-width="0.4" id="NO.TF.5414" d="M103.9,336.7 L101.5,336.9 L92.2,336.5 L90.6,335.3 L87.8,331.0 L84.6,331.2 L81.5,328.4 L82.9,326.7 L78.2,325.9 L78.1,324.1 L75.7,321.8 L76.9,320.8 L79.2,319.3 L81.9,321.6 L84.7,321.3 L86.1,324.8 L88.6,327.3 L94.1,326.6 L97.6,329.0 L98.8,328.6 L96.2,325.8 L90.3,324.3 L86.5,317.1 L85.2,316.3 L82.7,318.5 L78.7,315.1 L83.5,311.4 L86.5,310.4 L89.8,308.2 L87.9,310.8 L91.5,314.5 L96.1,316.3 L95.4,318.6 L96.7,322.8 L100.1,322.6 L104.3,325.3 L106.7,324.9 L105.3,333.0 L103.9,334.2 Z">
  <desc xmlns="http://www.highcharts.com/svg/namespace">
    <name>Gratangen</name>
    <hc-key>no-tf-5414</hc-key>
    <hc-a2>GR</hc-a2>
  </desc>
</path>

<path fill="#CEE3F5" stroke="#6E6E6E" stroke-width="0.4" id="NO.TF.5413" d="M89.1,297.3 L88.7,297.2 L88.9,296.8 L88.9,296.9 Z M59.0,316.5 L60.7,311.8 L64.0,308.9 L67.3,302.9 L69.4,301.1 L70.7,306.7 L74.1,311.3 L74.7,313.1 L72.7,314.5 L60.1,317.9 Z M81.7,302.1 L79.0,298.9 L78.6,294.9 L79.6,293.9 L83.9,294.5 L87.7,298.1 L89.1,301.6 L84.6,305.3 L82.1,309.2 L78.5,310.4 L76.6,307.4 L76.1,300.8 L73.0,296.4 L74.0,293.0 L79.1,301.6 Z">
  <desc xmlns="http://www.highcharts.com/svg/namespace">
    <name>Ibestad</name>
    <hc-key>no-tf-5413</hc-key>
    <hc-a2>IB</hc-a2>
  </desc>
</path>

<path fill="#CEE3F5" stroke="#6E6E6E" stroke-width="0.4" id="NO.TF.5442" d="M579.2,160.2 L579.3,158.0 L579.3,156.1 L579.9,148.9 L576.7,140.4 L574.3,129.7 L573.8,117.2 L575.1,112.3 L581.0,96.2 L588.7,94.9 L592.1,95.3 L594.5,89.9 L596.3,89.0 L598.5,85.4 L599.8,86.8 L603.9,88.3 L608.2,87.9 L609.7,89.1 L611.1,87.8 L612.4,90.1 L613.2,95.0 L612.6,101.5 L611.6,106.0 L610.4,106.7 L611.5,115.3 L613.1,117.2 L613.0,120.4 L588.1,115.9 L585.9,118.9 L592.6,117.2 L590.4,121.8 L587.2,124.0 L589.9,126.3 L592.9,126.2 L594.4,124.3 L598.1,126.3 L594.1,126.6 L593.1,127.8 L601.6,128.2 L604.9,130.1 L611.2,129.1 L610.8,130.9 L613.9,131.4 L611.6,134.3 L612.9,135.1 L619.8,133.4 L621.1,139.6 L610.9,142.4 L602.9,145.2 L595.2,147.5 L585.2,156.9 Z">
  <desc xmlns="http://www.highcharts.com/svg/namespace">
    <name>Unjárga / Nesseby</name>
    <hc-key>no-tf-5442</hc-key>
    <hc-a2>U/</hc-a2>
  </desc>
</path>

<path fill="#CEE3F5" stroke="#6E6E6E" stroke-width="0.4" id="NO.TF.5441" d="M465.3,164.6 L468.1,158.4 L472.9,154.1 L477.2,153.4 L480.4,154.3 L486.3,150.6 L484.5,140.4 L505.5,130.1 L517.0,127.3 L516.2,119.8 L530.7,108.2 L530.3,98.2 L531.9,94.2 L534.6,92.0 L538.2,82.2 L540.8,77.6 L544.9,73.8 L548.5,71.6 L550.7,71.2 L558.7,60.6 L562.7,56.5 L563.4,49.4 L564.7,51.2 L564.9,57.5 L563.2,62.7 L560.8,66.6 L556.6,71.3 L554.3,75.3 L551.0,77.6 L548.8,81.6 L551.0,88.4 L551.7,82.5 L554.2,79.1 L552.8,82.8 L557.6,79.2 L562.8,77.3 L558.7,81.2 L558.0,85.8 L560.3,82.7 L561.3,85.5 L562.9,80.7 L565.6,76.1 L569.0,74.7 L568.8,77.4 L567.4,79.9 L565.3,87.7 L563.9,91.2 L563.8,94.7 L564.9,99.2 L565.0,105.5 L565.6,110.2 L567.4,118.4 L567.7,124.5 L565.4,130.9 L563.1,133.3 L564.3,134.2 L566.8,131.6 L568.7,126.9 L569.6,119.2 L567.8,114.0 L567.6,110.2 L566.4,105.3 L567.0,97.3 L566.5,90.4 L566.8,88.3 L569.6,84.8 L569.5,80.8 L570.3,78.9 L573.4,77.0 L574.8,77.6 L574.9,79.9 L576.8,83.1 L577.5,81.4 L576.6,78.3 L578.5,74.4 L575.4,74.6 L571.2,70.4 L571.2,69.1 L573.5,60.0 L573.7,54.6 L574.4,53.1 L577.7,56.0 L578.7,59.1 L584.4,63.9 L584.8,67.1 L588.9,73.8 L598.0,71.9 L603.4,75.4 L607.7,74.9 L604.6,77.0 L602.4,80.5 L601.5,84.8 L598.5,85.4 L596.3,89.0 L594.5,89.9 L592.1,95.3 L588.7,94.9 L581.0,96.2 L575.1,112.3 L573.8,117.2 L574.3,129.7 L576.7,140.4 L579.9,148.9 L579.3,156.1 L570.6,151.9 L561.5,140.9 L559.2,131.1 L552.3,133.9 L550.1,135.7 L547.8,134.4 L544.5,134.9 L542.0,137.5 L541.4,141.7 L537.1,143.0 L534.3,146.8 L530.9,148.8 L532.5,151.4 L524.9,155.7 L523.7,157.6 L521.0,158.7 L518.7,155.7 L516.2,155.4 L514.3,156.5 L512.5,153.1 L509.8,153.5 L507.4,155.4 L504.9,153.3 L495.8,157.2 L495.5,160.0 L493.6,162.4 L494.1,165.2 L492.2,169.9 L488.0,173.6 L481.2,174.3 L479.6,170.3 L474.2,171.8 L470.7,169.0 L467.8,169.6 L468.4,166.0 Z">
  <desc xmlns="http://www.highcharts.com/svg/namespace">
    <name>Deatnu / Tana</name>
    <hc-key>no-tf-5441</hc-key>
    <hc-a2>D/</hc-a2>
  </desc>
</path>

<path fill="#CEE3F5" stroke="#6E6E6E" stroke-width="0.4" id="NO.TF.5420" d="M88.9,296.9 L88.9,296.8 L91.6,291.2 L94.1,289.6 L94.2,286.3 L92.3,285.0 L95.8,280.6 L98.1,277.0 L101.8,273.2 L99.7,271.3 L101.0,269.9 L110.7,269.8 L112.6,268.4 L113.9,271.2 L112.1,273.9 L111.8,278.8 L114.0,282.1 L116.0,283.4 L118.2,288.4 L114.9,290.5 L107.2,284.2 L105.4,284.7 L101.5,283.6 L98.9,285.7 L100.0,290.7 L95.4,292.4 L94.0,294.4 Z M95.1,277.5 L91.1,280.9 L88.2,285.6 L86.0,284.7 L86.3,279.7 L88.1,276.0 L91.3,273.5 L95.7,272.8 Z">
  <desc xmlns="http://www.highcharts.com/svg/namespace">
    <name>Dyrøy</name>
    <hc-key>no-tf-5420</hc-key>
    <hc-a2>DY</hc-a2>
  </desc>
</path>

<path fill="#CEE3F5" stroke="#6E6E6E" stroke-width="0.4" id="NO.TF.3020" d="M439.1,43.5 L439.3,42.5 L440.5,40.5 L442.1,40.3 L441.6,38.8 L443.3,35.0 L443.3,32.5 L445.3,34.4 L445.2,37.6 L444.0,40.3 L441.2,42.9 L442.1,45.1 L443.1,44.7 L444.9,41.3 L446.7,43.3 L448.0,39.6 L450.9,37.5 L452.7,37.3 L454.8,41.5 L456.5,39.0 L460.1,36.7 L461.5,38.6 L462.4,41.7 L458.5,45.7 L455.9,51.4 L454.8,52.7 L450.8,54.5 L452.2,58.0 L450.9,61.2 L449.0,62.8 L445.9,59.5 L437.5,56.6 L439.4,52.8 L440.7,47.6 Z M472.4,66.7 L470.2,66.6 L469.1,66.1 L470.1,59.6 L472.7,58.0 L473.5,53.4 L477.0,48.0 L478.8,43.2 L481.2,38.5 L490.3,27.2 L492.5,26.4 L490.0,37.8 L484.3,44.6 L479.2,57.3 L476.8,59.9 L477.2,63.5 Z M468.5,18.2 L472.2,15.8 L472.8,18.1 L471.5,22.0 L468.8,23.1 L467.3,25.9 L462.9,25.9 L460.2,28.2 L456.0,28.4 L453.0,27.0 L452.7,29.6 L454.3,31.2 L450.7,31.1 L447.9,33.0 L445.1,33.2 L443.1,29.8 L439.7,27.0 L444.6,24.0 L445.5,22.2 L440.9,20.9 L435.7,24.2 L434.3,22.6 L434.0,19.4 L436.1,16.6 L434.6,15.8 L438.1,13.8 L440.7,15.5 L441.4,14.5 L440.9,11.5 L444.4,12.5 L446.2,14.3 L447.9,13.8 L451.2,15.9 L449.8,12.0 L444.0,6.3 L444.3,4.8 L446.2,5.6 L448.5,2.8 L449.4,5.4 L454.4,3.8 L453.8,9.3 L454.9,11.3 L456.9,8.9 L458.0,10.9 L461.2,9.3 L462.9,6.8 L464.0,7.9 L464.5,11.6 L462.9,14.4 L458.9,16.6 L460.5,18.1 L462.1,18.2 L462.3,20.8 L461.0,21.8 L463.7,23.1 L466.2,22.2 Z">
  <desc xmlns="http://www.highcharts.com/svg/namespace">
    <name>Nordkapp</name>
    <hc-key>no-tf-3020</hc-key>
    <hc-a2>NO</hc-a2>
  </desc>
</path>

<path fill="#CEE3F5" stroke="#6E6E6E" stroke-width="0.4" id="NO.TF.5433" d="M319.6,122.2 L319.0,121.0 L316.3,120.4 L315.0,116.1 L314.1,115.9 L316.0,113.1 L319.7,117.7 L318.1,114.1 L318.7,110.1 L320.7,112.6 L322.6,110.3 L323.7,112.2 L325.1,109.8 L325.8,111.4 L326.2,108.4 L327.3,108.4 L327.5,113.6 L326.3,115.9 L326.6,118.6 L325.9,122.1 L324.3,121.5 L322.7,123.4 Z M328.8,87.5 L324.9,86.8 L324.5,91.6 L322.7,91.4 L321.8,94.7 L318.4,91.1 L317.6,95.9 L314.6,93.5 L312.2,95.4 L310.0,93.5 L310.8,91.3 L309.6,90.0 L307.9,96.8 L305.5,98.9 L303.5,97.7 L304.3,94.0 L306.1,89.8 L308.6,86.2 L307.4,85.3 L311.5,80.8 L301.5,81.9 L300.2,83.6 L297.7,82.8 L300.2,78.4 L297.5,78.4 L295.0,76.6 L296.5,74.7 L299.0,75.0 L305.5,78.5 L307.5,77.3 L307.8,74.9 L306.9,73.0 L308.4,72.9 L310.8,74.6 L314.9,79.0 L313.0,69.8 L314.7,68.5 L316.2,71.7 L318.1,72.6 L318.4,68.4 L320.0,67.1 L324.8,70.8 L324.4,73.0 L322.5,75.4 L324.1,77.5 L325.7,74.7 L327.1,75.4 L327.7,80.8 L328.5,80.6 L329.1,75.9 L332.4,75.8 L330.6,72.4 L330.8,69.9 L328.0,65.3 L327.6,62.9 L329.3,62.2 L328.8,63.5 L331.8,66.9 L334.0,68.1 L332.2,70.6 L334.3,74.5 L332.8,77.0 L334.7,77.5 L335.7,81.0 L332.5,82.8 Z">
  <desc xmlns="http://www.highcharts.com/svg/namespace">
    <name>Hasvik</name>
    <hc-key>no-tf-5433</hc-key>
    <hc-a2>HA</hc-a2>
  </desc>
</path>

<path fill="#CEE3F5" stroke="#6E6E6E" stroke-width="0.4" id="NO.TF.5415" d="M114.8,319.3 L114.0,321.0 L116.5,323.3 L115.9,330.2 L114.3,331.4 L114.6,336.2 L111.6,336.1 L103.9,336.7 L103.9,334.2 L105.3,333.0 L106.7,324.9 L104.3,325.3 L100.1,322.6 L96.7,322.8 L95.4,318.6 L96.1,316.3 L91.5,314.5 L87.9,310.8 L89.8,308.2 L94.3,311.8 L101.6,313.6 L104.2,317.6 L104.4,313.8 L102.5,312.0 L98.1,311.0 L96.2,309.8 L97.6,307.7 L99.9,308.3 L100.9,306.8 L103.3,306.5 L105.2,308.5 L107.6,307.1 L107.8,309.1 L113.3,313.2 L111.7,317.6 Z">
  <desc xmlns="http://www.highcharts.com/svg/namespace">
    <name>Lavangen</name>
    <hc-key>no-tf-5415</hc-key>
    <hc-a2>LA</hc-a2>
  </desc>
</path>

<path fill="#CEE3F5" stroke="#6E6E6E" stroke-width="0.4" id="NO.TF.5416" d="M114.6,336.2 L114.3,331.4 L115.9,330.2 L116.5,323.3 L114.0,321.0 L114.8,319.3 L113.7,316.9 L118.8,315.7 L119.2,312.8 L121.2,307.3 L118.4,303.3 L123.1,301.8 L122.1,297.4 L126.4,286.8 L133.1,281.7 L133.6,280.5 L139.3,283.7 L140.5,280.6 L143.1,281.4 L142.5,286.7 L142.7,293.7 L141.8,295.6 L142.9,296.8 L142.9,299.8 L145.2,300.3 L147.3,302.2 L149.3,306.1 L151.7,307.8 L154.9,308.6 L153.6,311.1 L154.6,312.9 L156.8,312.0 L158.5,313.7 L161.4,313.3 L161.5,316.0 L163.0,319.5 L166.3,319.9 L169.2,316.7 L172.0,318.3 L171.2,320.2 L172.3,323.1 L182.1,333.4 L188.2,340.5 L194.6,344.9 L204.4,345.6 L208.5,349.2 L217.9,354.5 L205.9,367.5 L203.2,371.6 L181.0,360.5 L159.3,349.8 L142.1,350.4 L136.0,343.8 L132.4,340.4 L119.0,345.6 Z">
  <desc xmlns="http://www.highcharts.com/svg/namespace">
    <name>Bardu</name>
    <hc-key>no-tf-5416</hc-key>
    <hc-a2>BA</hc-a2>
  </desc>
</path>

<path fill="#CEE3F5" stroke="#6E6E6E" stroke-width="0.4" id="NO.TF.5403" d="M322.7,143.2 L322.7,143.2 L322.7,143.1 L321.9,137.8 L320.1,137.3 L319.6,135.5 L316.8,132.9 L317.7,131.5 L315.6,129.2 L316.3,126.2 L320.3,126.9 L322.1,128.8 L323.6,128.3 L324.4,131.3 L327.5,130.6 L340.3,132.3 L340.5,134.6 L335.9,142.9 L330.6,146.1 L322.6,148.5 L317.4,148.2 L315.6,150.9 L310.9,154.1 L314.2,153.8 L315.7,151.8 L326.8,149.6 L329.6,147.0 L336.3,145.5 L341.0,140.2 L342.8,140.0 L342.1,148.3 L342.8,152.4 L343.9,155.0 L347.4,153.2 L348.1,154.4 L347.9,158.9 L349.2,161.8 L346.9,164.5 L348.3,165.9 L349.8,165.0 L355.1,159.3 L356.4,158.9 L357.6,161.3 L356.4,164.3 L357.4,165.0 L361.2,161.1 L363.2,160.0 L363.9,157.3 L366.2,154.9 L363.9,153.7 L355.5,153.3 L349.9,146.8 L354.2,144.1 L357.8,143.5 L359.6,140.2 L354.9,136.9 L359.4,135.0 L360.2,133.1 L356.1,133.6 L354.0,132.9 L352.3,130.8 L353.6,129.5 L362.8,127.8 L364.7,126.7 L362.0,125.2 L354.3,127.1 L355.1,125.4 L358.8,122.4 L366.1,120.6 L368.0,118.7 L363.5,119.8 L364.9,116.2 L361.3,117.2 L363.7,110.6 L367.0,112.9 L372.8,115.3 L373.2,123.1 L375.1,129.1 L379.7,136.0 L384.3,144.8 L382.7,156.7 L389.9,159.2 L391.8,158.4 L397.5,181.5 L397.1,192.3 L397.3,196.8 L398.1,199.2 L368.0,195.1 L358.3,195.8 L351.0,199.1 L339.2,198.4 L336.6,202.0 L333.1,204.9 L324.6,198.5 L323.1,195.3 L323.8,191.9 L322.9,189.2 L319.0,186.5 L320.6,182.8 L323.1,179.3 L322.4,177.4 L320.0,177.2 L318.7,175.9 L322.0,172.3 L320.7,170.0 L316.5,169.4 L311.1,166.8 L309.3,164.8 L309.5,162.9 L306.7,156.6 L308.0,154.8 L310.1,151.6 L310.5,147.9 L313.7,148.0 L319.9,145.4 L321.8,147.5 L324.8,146.7 Z M319.1,122.7 L319.4,122.2 L319.6,122.2 L322.7,123.4 L324.3,121.5 L325.9,122.1 L326.6,118.6 L326.3,115.9 L327.5,113.6 L327.3,108.4 L327.9,113.9 L328.8,115.9 L329.6,112.3 L329.3,109.4 L331.4,109.5 L332.7,115.1 L333.7,116.2 L339.3,117.1 L337.9,119.8 L340.8,121.2 L342.3,124.8 L341.6,126.8 L329.8,126.2 Z M361.9,109.4 L358.8,112.8 L354.9,114.4 L353.8,115.7 L355.9,115.8 L357.8,117.3 L350.8,122.2 L348.1,123.0 L345.9,122.3 L344.9,120.0 L345.0,116.5 L346.8,109.1 L346.6,105.4 L344.3,112.5 L342.8,115.0 L340.9,113.0 L338.9,112.7 L335.9,108.3 L342.0,108.1 L344.8,101.4 L352.3,103.7 L356.3,106.5 L359.2,107.3 Z">
  <desc xmlns="http://www.highcharts.com/svg/namespace">
    <name>Alta</name>
    <hc-key>no-tf-5403</hc-key>
    <hc-a2>AL</hc-a2>
  </desc>
</path>

<path fill="#CEE3F5" stroke="#6E6E6E" stroke-width="0.4" id="NO.TF.5437" d="M398.1,199.2 L397.3,196.8 L397.1,192.3 L397.5,181.5 L413.7,179.0 L431.3,187.3 L444.1,188.4 L454.8,185.3 L465.3,164.6 L468.4,166.0 L467.8,169.6 L470.7,169.0 L474.2,171.8 L479.6,170.3 L481.2,174.3 L488.0,173.6 L487.7,176.7 L485.5,179.2 L485.3,181.3 L482.2,185.7 L478.1,186.8 L476.2,189.3 L475.4,192.0 L473.3,194.7 L476.3,196.9 L477.6,201.4 L476.3,206.4 L472.3,210.7 L474.0,212.3 L473.0,217.0 L472.1,225.4 L474.1,229.7 L472.7,232.1 L473.1,234.1 L470.6,236.9 L470.0,240.7 L470.6,243.9 L468.9,248.1 L469.8,253.6 L469.0,254.7 L471.8,262.1 L471.2,266.8 L471.6,270.5 L473.2,273.3 L473.3,276.5 L474.7,278.2 L472.8,281.5 L472.3,285.0 L469.0,294.8 L467.2,296.2 L465.2,296.0 L462.1,293.8 L458.4,296.0 L453.9,297.2 L442.8,296.7 L442.1,293.5 L440.2,289.9 L425.8,281.2 L422.0,266.2 L408.1,255.0 L403.7,240.5 L400.0,237.9 L399.9,234.9 L402.3,234.2 L403.4,230.3 L404.3,229.9 L403.0,225.8 L405.8,220.3 L407.5,214.4 L407.2,212.1 L404.8,210.7 L403.3,206.2 L402.2,207.3 L401.2,204.1 Z">
  <desc xmlns="http://www.highcharts.com/svg/namespace">
    <name>Kárásjohka / Karasjok</name>
    <hc-key>no-tf-5437</hc-key>
    <hc-a2>K/</hc-a2>
  </desc>
</path>

<path fill="#CEE3F5" stroke="#6E6E6E" stroke-width="0.4" id="NO.TF.5417" d="M89.1,297.3 L88.9,296.9 L94.0,294.4 L95.4,292.4 L100.0,290.7 L98.9,285.7 L101.5,283.6 L105.4,284.7 L107.2,284.2 L114.9,290.5 L118.2,288.4 L126.4,286.8 L122.1,297.4 L123.1,301.8 L118.4,303.3 L121.2,307.3 L119.2,312.8 L118.8,315.7 L113.7,316.9 L114.8,319.3 L111.7,317.6 L113.3,313.2 L107.8,309.1 L107.6,307.1 L105.2,308.5 L103.3,306.5 L100.9,306.8 L99.9,308.3 L97.6,307.7 L96.2,309.8 L90.1,306.1 L93.9,304.3 L97.0,301.3 L101.1,298.9 L105.6,302.2 L108.2,301.8 L107.2,299.0 L101.8,296.1 L102.6,293.5 L93.3,295.3 Z">
  <desc xmlns="http://www.highcharts.com/svg/namespace">
    <name>Salangen</name>
    <hc-key>no-tf-5417</hc-key>
    <hc-a2>SA</hc-a2>
  </desc>
</path>

<path fill="#CEE3F5" stroke="#6E6E6E" stroke-width="0.4" id="NO.TF.5421" d="M129.9,258.4 L125.6,258.0 L124.0,259.3 L120.8,259.5 L122.2,256.5 L120.9,255.4 L118.1,256.3 L116.9,255.5 L117.7,253.6 L117.9,249.0 L120.0,245.0 L123.2,243.1 L124.5,240.7 L124.2,238.5 L126.7,233.7 L125.8,227.2 L129.8,225.0 L130.9,223.5 L132.6,223.8 L134.3,226.3 L136.1,232.2 L135.1,236.0 L138.7,236.0 L140.4,237.6 L141.3,241.0 L140.4,248.7 L138.5,248.2 L134.1,250.7 L129.4,254.6 Z M93.5,264.7 L95.7,258.7 L93.1,258.7 L90.5,261.1 L88.4,264.4 L81.5,270.1 L79.2,272.9 L77.5,277.1 L80.0,278.1 L78.5,280.5 L75.9,282.0 L73.3,282.3 L71.9,281.1 L72.8,278.2 L74.7,277.7 L74.5,275.4 L76.8,274.3 L75.6,272.5 L62.1,275.6 L60.3,273.4 L60.9,268.5 L62.4,267.2 L65.9,269.4 L65.9,266.5 L70.5,265.1 L73.5,266.2 L73.7,262.7 L78.0,259.9 L79.4,257.8 L75.1,260.0 L73.6,260.0 L70.3,258.0 L66.8,257.7 L67.9,255.2 L66.1,254.2 L69.3,252.5 L75.7,253.9 L78.6,250.6 L76.9,251.1 L76.3,246.2 L75.3,248.9 L71.3,247.5 L72.7,244.8 L68.9,245.2 L67.8,242.7 L68.6,242.0 L78.4,243.5 L74.6,238.9 L77.8,238.1 L75.4,236.4 L71.5,237.2 L67.3,236.6 L70.0,234.1 L70.4,231.7 L73.3,233.2 L74.2,231.7 L76.5,233.7 L79.6,232.1 L85.6,233.3 L89.6,237.0 L90.7,235.3 L88.1,233.5 L86.1,230.7 L93.5,231.1 L95.8,229.4 L88.2,227.5 L84.6,225.4 L82.4,219.0 L85.1,220.1 L85.7,222.4 L88.0,224.6 L87.5,222.0 L90.6,222.9 L91.6,222.2 L88.9,217.5 L88.6,215.2 L91.0,215.5 L94.9,218.4 L95.6,220.3 L97.9,221.6 L100.1,224.6 L102.8,225.5 L100.6,221.8 L99.7,217.4 L96.6,215.0 L95.3,210.9 L95.8,207.3 L98.0,207.8 L99.5,210.7 L102.0,218.3 L104.8,219.5 L104.1,208.5 L105.1,207.4 L106.5,209.8 L108.2,215.6 L110.6,211.3 L112.4,209.2 L113.9,211.7 L114.5,216.4 L112.1,220.7 L110.8,226.5 L111.7,228.1 L114.2,221.3 L116.7,218.3 L121.3,222.1 L119.9,223.9 L118.2,223.7 L118.1,227.9 L116.0,230.5 L118.6,233.0 L119.1,230.1 L120.9,228.9 L122.2,231.2 L122.1,236.1 L122.8,237.6 L122.0,240.6 L118.9,240.4 L116.1,241.6 L113.7,244.6 L114.4,249.1 L116.1,251.8 L115.3,253.4 L112.0,253.4 L114.3,256.4 L114.9,259.2 L117.6,259.9 L115.2,262.4 L109.7,263.4 L103.6,262.8 L99.1,265.0 L94.9,264.3 Z">
  <desc xmlns="http://www.highcharts.com/svg/namespace">
    <name>Senja</name>
    <hc-key>no-tf-5421</hc-key>
    <hc-a2>SE</hc-a2>
  </desc>
</path>

<path fill="#CEE3F5" stroke="#6E6E6E" stroke-width="0.4" id="NO.TF.5425" d="M211.1,282.9 L207.2,280.3 L206.8,279.2 L208.1,277.0 L206.3,275.8 L204.9,262.2 L200.6,258.9 L195.6,257.4 L192.5,252.1 L197.2,249.7 L196.8,245.0 L198.3,242.7 L203.1,239.5 L204.1,237.0 L216.1,235.4 L217.8,235.5 L216.7,238.2 L214.3,239.5 L211.6,242.5 L208.2,245.1 L209.1,246.9 L206.0,251.6 L205.0,254.0 L206.4,254.8 L208.9,252.0 L212.2,245.5 L219.3,239.4 L221.6,238.4 L224.8,229.9 L230.6,231.7 L231.4,237.6 L230.9,240.6 L232.1,243.5 L240.7,248.8 L247.5,249.4 L248.3,252.4 L247.3,253.9 L251.7,257.3 L252.9,255.5 L255.9,259.0 L254.6,260.5 L253.9,264.4 L256.6,271.2 L257.0,273.4 L259.4,275.7 L257.1,284.4 L241.4,273.7 L233.8,281.3 Z">
  <desc xmlns="http://www.highcharts.com/svg/namespace">
    <name>Storfjord</name>
    <hc-key>no-tf-5425</hc-key>
    <hc-a2>ST</hc-a2>
  </desc>
</path>

<path fill="#CEE3F5" stroke="#6E6E6E" stroke-width="0.4" id="NO.TF.5418" d="M206.8,279.2 L207.2,280.3 L211.1,282.9 L219.2,294.6 L222.3,298.4 L223.5,314.4 L217.1,331.9 L209.9,341.4 L204.4,345.6 L194.6,344.9 L188.2,340.5 L182.1,333.4 L172.3,323.1 L171.2,320.2 L172.0,318.3 L169.2,316.7 L166.3,319.9 L163.0,319.5 L161.5,316.0 L161.4,313.3 L158.5,313.7 L156.8,312.0 L154.6,312.9 L153.6,311.1 L154.9,308.6 L151.7,307.8 L149.3,306.1 L147.3,302.2 L145.2,300.3 L142.9,299.8 L142.9,296.8 L141.8,295.6 L142.7,293.7 L142.5,286.7 L143.1,281.4 L140.5,280.6 L139.3,283.7 L133.6,280.5 L137.0,281.1 L137.5,279.2 L136.2,277.4 L136.0,273.6 L137.2,269.9 L133.3,269.3 L127.6,265.5 L125.2,262.9 L126.1,262.2 L131.8,263.2 L132.9,259.8 L129.9,258.4 L129.4,254.6 L134.1,250.7 L138.5,248.2 L140.4,248.7 L141.2,251.3 L140.4,256.5 L142.2,249.0 L142.6,242.1 L143.9,240.0 L144.5,241.5 L145.2,248.3 L147.4,250.0 L149.1,253.2 L149.8,252.3 L151.2,253.9 L152.3,258.1 L162.7,269.6 L164.3,269.6 L164.2,271.9 L167.8,274.1 L169.1,276.5 L176.6,283.5 L178.8,283.0 L179.6,281.1 L180.4,283.8 L182.7,282.6 L195.1,281.7 L198.6,284.2 L200.4,281.7 Z">
  <desc xmlns="http://www.highcharts.com/svg/namespace">
    <name>Målselv</name>
    <hc-key>no-tf-5418</hc-key>
    <hc-a2>MÅ</hc-a2>
  </desc>
</path>

<path fill="#CEE3F5" stroke="#6E6E6E" stroke-width="0.4" id="NO.TF.5428" d="M241.6,183.1 L239.3,185.6 L236.9,186.9 L234.6,186.0 L233.2,181.0 L234.0,177.7 L237.1,179.5 L237.0,182.1 L238.3,183.9 L240.6,182.3 Z M231.4,191.3 L232.7,190.0 L238.5,189.6 L244.9,185.9 L246.7,180.8 L245.2,175.9 L246.9,175.4 L256.7,167.5 L258.5,167.8 L253.7,172.7 L249.7,179.3 L252.4,180.2 L253.1,181.9 L251.8,183.7 L255.3,187.6 L256.7,186.4 L254.3,182.9 L257.5,180.6 L257.0,178.4 L262.0,176.4 L262.4,179.1 L260.1,184.7 L263.6,182.1 L264.4,178.7 L263.7,172.3 L268.9,172.2 L266.4,169.4 L263.7,168.7 L264.6,163.0 L273.4,164.7 L274.2,167.8 L278.6,173.3 L281.1,175.5 L279.7,177.2 L280.5,178.8 L279.5,180.7 L282.0,180.9 L284.6,183.1 L287.6,183.3 L288.4,184.5 L288.6,188.2 L286.6,188.5 L286.4,192.0 L287.2,195.5 L285.0,198.1 L284.8,201.7 L281.3,205.1 L282.4,208.4 L283.2,214.7 L287.9,219.3 L290.7,218.5 L295.6,220.8 L302.2,217.4 L305.3,216.7 L309.2,217.7 L309.8,223.7 L312.2,226.4 L313.3,230.2 L312.7,233.3 L314.5,237.5 L314.7,241.1 L316.5,241.7 L318.1,246.1 L322.1,254.0 L324.3,257.6 L324.6,262.2 L323.9,265.4 L324.5,267.5 L323.0,269.9 L322.4,274.2 L319.6,275.1 L315.1,278.2 L299.7,279.4 L293.3,270.3 L287.5,261.3 L283.0,253.4 L267.1,248.9 L267.1,247.5 L261.6,240.5 L260.2,236.6 L255.5,234.4 L262.2,228.0 L261.0,222.9 L257.4,224.1 L251.0,224.1 L253.4,221.5 L252.1,218.9 L247.8,215.6 L247.9,213.6 L249.3,212.5 L247.1,209.5 L247.0,207.6 L243.8,206.3 L242.5,202.2 L240.6,202.6 L238.6,200.3 L236.9,193.9 Z">
  <desc xmlns="http://www.highcharts.com/svg/namespace">
    <name>Nordreisa</name>
    <hc-key>no-tf-5428</hc-key>
    <hc-a2>NO</hc-a2>
  </desc>
</path>

<path fill="#CEE3F5" stroke="#6E6E6E" stroke-width="0.4" id="NO.TF.5426" d="M226.7,211.7 L226.4,213.1 L225.5,213.7 L225.5,213.6 Z M267.1,248.9 L258.8,255.5 L255.9,259.0 L252.9,255.5 L251.7,257.3 L247.3,253.9 L248.3,252.4 L247.5,249.4 L240.7,248.8 L232.1,243.5 L230.9,240.6 L231.4,237.6 L230.6,231.7 L224.8,229.9 L229.2,221.7 L229.8,217.4 L231.8,214.7 L235.1,218.9 L238.5,222.0 L246.0,223.4 L241.7,221.1 L237.7,212.5 L233.8,210.5 L231.7,208.3 L231.5,205.5 L233.3,201.8 L233.9,198.2 L233.7,195.0 L231.4,191.3 L236.9,193.9 L238.6,200.3 L240.6,202.6 L242.5,202.2 L243.8,206.3 L247.0,207.6 L247.1,209.5 L249.3,212.5 L247.9,213.6 L247.8,215.6 L252.1,218.9 L253.4,221.5 L251.0,224.1 L257.4,224.1 L261.0,222.9 L262.2,228.0 L255.5,234.4 L260.2,236.6 L261.6,240.5 L267.1,247.5 Z">
  <desc xmlns="http://www.highcharts.com/svg/namespace">
    <name>Gáivuotna / Kåfjord</name>
    <hc-key>no-tf-5426</hc-key>
    <hc-a2>G/</hc-a2>
  </desc>
</path>

<path fill="#CEE3F5" stroke="#6E6E6E" stroke-width="0.4" id="NO.TF.5412" d="M40.6,339.0 L40.5,339.1 L40.5,339.0 L40.5,339.0 L40.5,339.0 L40.6,339.0 Z M40.6,339.0 L42.6,338.2 L41.6,339.6 L40.6,339.0 Z M92.2,336.5 L82.0,340.3 L75.3,340.6 L60.0,337.6 L52.3,345.1 L48.1,346.3 L45.3,345.8 L44.5,347.2 L44.5,353.9 L42.0,353.3 L41.7,349.2 L40.5,344.3 L41.6,342.0 L44.5,340.3 L47.2,342.4 L48.6,339.6 L46.2,337.1 L46.5,331.6 L49.4,328.0 L52.7,327.1 L58.3,323.5 L63.7,322.3 L67.0,320.6 L69.2,324.9 L70.8,326.5 L70.8,328.8 L73.7,330.8 L75.5,330.1 L74.9,328.4 L71.7,325.9 L72.7,322.1 L76.9,320.8 L75.7,321.8 L78.1,324.1 L78.2,325.9 L82.9,326.7 L81.5,328.4 L84.6,331.2 L87.8,331.0 L90.6,335.3 Z M40.5,339.0 L38.8,338.1 L35.4,337.6 L29.4,338.7 L26.1,341.3 L24.8,339.4 L21.3,340.2 L19.3,338.6 L19.0,336.7 L20.5,334.1 L22.3,333.4 L23.1,331.0 L26.1,330.7 L27.0,329.4 L29.1,329.6 L32.4,328.1 L34.0,332.0 L36.4,334.1 L39.5,335.2 L40.7,336.9 L40.5,339.0 L40.5,339.0 Z M40.2,349.6 L35.5,352.0 L37.2,355.9 L36.5,356.5 L28.5,356.4 L25.9,357.5 L23.1,359.9 L21.9,357.4 L25.9,353.8 L23.4,352.8 L24.7,348.5 L27.7,342.7 L29.2,341.7 L35.1,340.4 L38.1,342.9 L38.4,346.5 Z">
  <desc xmlns="http://www.highcharts.com/svg/namespace">
    <name>Tjeldsund</name>
    <hc-key>no-tf-5412</hc-key>
    <hc-a2>TJ</hc-a2>
  </desc>
</path>

<path fill="#CEE3F5" stroke="#6E6E6E" stroke-width="0.4" id="NO.TF.5406" d="M335.9,108.3 L334.5,106.6 L335.7,105.8 L338.3,106.6 L339.2,104.7 L337.3,103.6 L336.2,101.0 L340.5,97.6 L341.3,94.9 L345.7,91.7 L347.0,94.5 L349.9,91.2 L348.1,89.3 L348.7,87.6 L350.5,88.3 L352.0,91.5 L351.8,96.6 L353.1,96.2 L354.3,90.0 L353.4,87.6 L354.5,87.4 L356.9,89.7 L357.9,86.0 L361.9,88.0 L363.4,87.9 L361.1,84.7 L358.8,82.9 L359.6,80.2 L356.7,78.8 L360.6,77.7 L362.2,79.5 L363.7,78.4 L365.9,83.4 L365.2,88.1 L365.8,91.5 L368.6,93.1 L367.5,94.9 L369.1,97.4 L368.1,101.6 L366.4,104.5 L361.9,109.4 L359.2,107.3 L356.3,106.5 L352.3,103.7 L344.8,101.4 L342.0,108.1 Z M377.7,91.5 L374.9,91.5 L372.6,90.2 L370.0,84.2 L369.4,80.6 L367.5,80.7 L369.0,77.4 L367.8,74.4 L369.2,71.8 L367.1,69.7 L366.8,67.5 L369.5,61.4 L374.0,60.9 L375.5,64.4 L374.4,66.2 L380.6,65.9 L383.6,68.4 L385.3,73.4 L388.2,77.1 L387.2,81.2 L383.5,84.0 L380.2,89.9 Z M363.7,110.6 L366.5,108.2 L368.6,104.9 L373.0,99.9 L376.6,93.5 L379.9,91.7 L391.5,93.2 L396.4,95.4 L398.8,97.6 L398.9,95.6 L397.1,94.3 L393.2,89.2 L388.1,87.6 L387.9,86.3 L394.1,78.5 L394.3,73.3 L394.9,70.7 L397.2,67.4 L399.7,68.5 L403.5,68.8 L408.9,75.1 L412.1,76.5 L413.6,75.5 L413.7,71.3 L414.9,71.3 L424.4,75.2 L420.7,84.4 L418.0,87.8 L413.3,96.0 L412.9,98.6 L415.6,101.9 L411.9,108.9 L405.8,112.6 L401.4,124.1 L393.7,142.2 L384.3,144.8 L379.7,136.0 L375.1,129.1 L373.2,123.1 L372.8,115.3 L367.0,112.9 Z M329.3,62.2 L333.1,63.6 L333.3,66.0 L335.5,65.4 L336.6,66.8 L335.2,69.6 L338.5,73.9 L338.7,71.2 L341.0,68.6 L340.6,65.8 L344.7,67.4 L343.8,64.0 L346.5,64.7 L344.8,61.2 L341.5,59.2 L340.5,57.1 L343.0,55.9 L343.0,54.1 L346.1,56.8 L347.1,55.4 L345.9,52.4 L350.8,58.5 L353.2,58.1 L353.6,55.6 L352.7,53.1 L352.1,47.5 L354.0,47.2 L357.8,51.5 L358.7,56.4 L355.7,57.3 L357.4,59.6 L356.5,62.6 L354.2,61.4 L353.3,62.9 L353.2,67.1 L350.3,69.1 L351.3,70.8 L346.4,69.3 L345.5,72.8 L347.6,74.5 L346.0,78.1 L342.5,78.2 L344.9,79.8 L343.9,83.3 L340.8,81.2 L340.1,85.2 L338.1,86.1 L336.1,84.6 L335.0,85.5 L337.5,87.1 L336.6,89.0 L334.7,89.7 L333.1,88.1 L331.3,91.8 L330.2,90.9 L330.7,88.2 L328.8,87.5 L332.5,82.8 L335.7,81.0 L334.7,77.5 L332.8,77.0 L334.3,74.5 L332.2,70.6 L334.0,68.1 L331.8,66.9 L328.8,63.5 Z">
  <desc xmlns="http://www.highcharts.com/svg/namespace">
    <name>Hammerfest</name>
    <hc-key>no-tf-5406</hc-key>
    <hc-a2>HA</hc-a2>
  </desc>
</path>

<path fill="#CEE3F5" stroke="#6E6E6E" stroke-width="0.4" id="NO.TF.5430" d="M458.4,296.0 L458.4,296.6 L452.7,301.4 L451.1,305.1 L448.0,308.3 L447.0,313.8 L446.7,323.8 L447.6,328.6 L445.5,331.7 L444.5,330.9 L442.1,333.0 L440.3,332.4 L438.5,334.1 L438.2,340.6 L436.0,339.8 L431.9,330.5 L423.4,325.1 L408.8,321.4 L404.2,318.0 L401.6,317.1 L401.6,312.4 L397.8,313.9 L393.2,308.0 L388.0,307.0 L383.6,309.5 L381.9,318.4 L379.5,324.3 L368.7,326.5 L356.2,335.2 L350.2,327.5 L338.8,328.1 L329.5,323.4 L326.2,321.1 L318.7,324.9 L316.8,310.7 L309.7,299.0 L308.8,294.2 L299.7,279.4 L315.1,278.2 L319.6,275.1 L322.4,274.2 L323.0,269.9 L324.5,267.5 L323.9,265.4 L324.6,262.2 L324.3,257.6 L322.1,254.0 L318.1,246.1 L316.5,241.7 L314.7,241.1 L314.5,237.5 L312.7,233.3 L313.3,230.2 L312.2,226.4 L316.8,225.8 L322.6,222.2 L328.0,221.3 L332.1,222.6 L331.1,218.2 L332.9,217.2 L334.0,213.3 L334.2,209.8 L337.3,207.9 L339.3,204.4 L336.6,202.0 L339.2,198.4 L351.0,199.1 L358.3,195.8 L368.0,195.1 L398.1,199.2 L401.2,204.1 L402.2,207.3 L403.3,206.2 L404.8,210.7 L407.2,212.1 L407.5,214.4 L405.8,220.3 L403.0,225.8 L404.3,229.9 L403.4,230.3 L402.3,234.2 L399.9,234.9 L400.0,237.9 L403.7,240.5 L408.1,255.0 L422.0,266.2 L425.8,281.2 L440.2,289.9 L442.1,293.5 L442.8,296.7 L453.9,297.2 Z">
  <desc xmlns="http://www.highcharts.com/svg/namespace">
    <name>Guovdageaidnu / Kautokeino</name>
    <hc-key>no-tf-5430</hc-key>
    <hc-a2>G/</hc-a2>
  </desc>
</path>

<path fill="#CEE3F5" stroke="#6E6E6E" stroke-width="0.4" id="NO.TF.5438" d="M492.5,26.4 L495.2,29.5 L495.9,33.3 L495.2,37.0 L493.7,38.5 L494.1,42.2 L495.0,42.8 L496.7,40.9 L497.3,42.8 L495.7,49.5 L496.1,54.2 L494.3,58.2 L482.3,66.9 L483.8,68.0 L488.8,64.6 L494.2,65.3 L495.8,66.6 L494.4,77.4 L494.8,79.2 L493.1,82.8 L494.5,88.0 L493.0,90.0 L492.1,94.0 L492.9,97.9 L492.6,102.8 L494.8,103.9 L495.8,101.1 L498.6,100.1 L497.5,97.4 L498.6,94.1 L501.3,94.5 L503.5,92.1 L504.4,86.6 L510.0,85.7 L510.4,88.3 L514.7,86.1 L513.3,82.7 L510.2,78.5 L511.7,75.7 L510.2,75.0 L510.8,72.7 L513.1,68.9 L515.9,70.0 L518.2,69.7 L522.5,71.2 L520.9,69.2 L516.1,66.5 L514.6,64.7 L514.7,62.8 L516.5,59.3 L513.0,56.9 L515.0,51.8 L521.2,50.8 L522.5,51.2 L523.4,48.7 L520.5,46.8 L521.2,41.1 L522.7,40.0 L534.8,41.4 L528.3,39.4 L530.3,36.6 L528.5,34.1 L526.0,32.5 L523.8,33.3 L524.1,28.4 L521.4,32.6 L515.2,31.8 L512.0,28.7 L512.1,25.0 L513.4,22.7 L521.2,25.1 L520.2,22.7 L515.6,18.6 L514.8,15.8 L516.0,14.7 L525.6,16.2 L527.5,21.0 L529.6,22.5 L530.3,20.6 L529.5,17.4 L529.9,14.4 L527.7,13.1 L526.7,8.3 L526.9,5.8 L528.2,4.2 L531.3,4.1 L531.2,0.0 L533.4,5.1 L531.2,10.9 L534.2,17.8 L535.7,29.7 L539.1,38.2 L539.1,42.8 L532.7,53.7 L527.4,65.0 L526.5,73.1 L527.1,77.4 L528.3,79.1 L529.8,85.1 L531.2,93.3 L531.9,94.2 L530.3,98.2 L530.7,108.2 L516.2,119.8 L517.0,127.3 L505.5,130.1 L484.5,140.4 L486.3,150.6 L480.4,154.3 L477.2,153.4 L472.9,154.1 L472.2,148.4 L470.1,143.4 L469.9,139.9 L472.5,131.8 L471.7,129.0 L475.0,123.3 L471.0,112.3 L471.4,109.5 L470.8,101.1 L474.0,92.6 L475.2,81.0 L472.4,66.7 L477.2,63.5 L476.8,59.9 L479.2,57.3 L484.3,44.6 L490.0,37.8 Z">
  <desc xmlns="http://www.highcharts.com/svg/namespace">
    <name>Lebesby</name>
    <hc-key>no-tf-5438</hc-key>
    <hc-a2>LE</hc-a2>
  </desc>
</path>

<path fill="#CEE3F5" stroke="#6E6E6E" stroke-width="0.4" id="NO.TF.5411" d="M20.5,334.1 L17.9,329.1 L16.4,330.7 L13.7,339.1 L10.8,338.8 L9.5,341.0 L4.4,345.1 L3.6,347.3 L1.3,349.8 L0.0,348.4 L0.8,346.3 L3.1,344.5 L2.5,339.3 L1.5,338.8 L0.1,333.4 L3.8,331.5 L4.2,330.2 L3.3,325.5 L6.1,323.7 L7.6,324.8 L9.7,323.6 L11.2,320.5 L10.1,318.9 L10.6,316.2 L15.1,316.6 L15.8,314.3 L19.7,313.0 L17.3,320.0 L14.1,323.8 L10.3,324.8 L8.7,328.1 L8.7,335.1 L6.6,339.0 L8.6,337.8 L10.5,334.9 L11.1,329.0 L13.3,326.1 L20.6,321.1 L21.6,321.7 L22.7,327.4 L23.8,326.4 L24.1,322.1 L22.3,316.9 L24.5,314.0 L26.0,313.4 L30.9,314.5 L30.6,311.2 L27.2,307.9 L25.9,303.8 L27.0,301.2 L31.1,298.8 L33.3,300.0 L32.4,301.4 L33.1,304.0 L37.0,306.7 L38.2,310.1 L36.7,312.5 L38.1,312.2 L37.9,318.4 L39.8,319.7 L40.1,323.5 L39.1,324.6 L32.4,328.1 L29.1,329.6 L27.0,329.4 L26.1,330.7 L23.1,331.0 L22.3,333.4 Z">
  <desc xmlns="http://www.highcharts.com/svg/namespace">
    <name>Kvæfjord</name>
    <hc-key>no-tf-5411</hc-key>
    <hc-a2>KV</hc-a2>
  </desc>
</path>

<path fill="#CEE3F5" stroke="#6E6E6E" stroke-width="0.4" id="NO.TF.5440" d="M574.4,53.1 L578.4,53.2 L578.0,51.3 L574.8,49.1 L573.9,47.6 L574.7,43.8 L577.8,38.3 L580.3,30.2 L582.8,26.8 L593.6,23.9 L595.7,25.6 L594.2,27.0 L601.0,26.7 L602.9,28.4 L603.5,31.6 L605.3,33.4 L608.8,33.7 L609.9,34.7 L609.2,36.7 L606.0,40.5 L607.3,41.5 L611.3,40.8 L609.6,42.6 L607.5,43.0 L609.3,46.4 L606.5,48.5 L606.9,51.2 L608.9,51.0 L610.9,45.9 L616.1,44.0 L623.1,38.1 L626.0,39.0 L617.7,53.1 L617.5,57.2 L610.7,66.1 L607.0,72.4 L607.7,74.9 L603.4,75.4 L598.0,71.9 L588.9,73.8 L584.8,67.1 L584.4,63.9 L578.7,59.1 L577.7,56.0 Z">
  <desc xmlns="http://www.highcharts.com/svg/namespace">
    <name>Berlevåg</name>
    <hc-key>no-tf-5440</hc-key>
    <hc-a2>BE</hc-a2>
  </desc>
</path>

<path fill="#CEE3F5" stroke="#6E6E6E" stroke-width="0.4" id="NO.TF.5439" d="M531.2,0.0 L534.2,2.6 L534.8,4.4 L534.0,7.7 L537.9,8.0 L541.9,10.4 L545.4,8.8 L546.5,6.2 L548.3,5.3 L550.6,8.9 L552.5,4.4 L554.2,2.7 L556.1,3.5 L557.6,6.2 L557.5,8.3 L556.0,10.0 L555.3,14.1 L557.4,12.0 L556.4,15.8 L557.6,16.4 L561.8,12.4 L568.1,12.2 L570.6,14.4 L570.6,19.7 L569.5,26.3 L567.9,27.3 L564.7,27.3 L565.5,28.7 L568.2,29.5 L566.5,32.2 L564.3,32.6 L565.4,35.2 L559.5,35.0 L563.0,37.1 L560.2,40.9 L556.6,41.5 L553.1,40.1 L551.0,40.7 L550.2,38.2 L548.5,40.8 L540.5,42.5 L543.7,44.8 L541.8,48.6 L546.8,44.8 L550.6,45.8 L551.7,47.5 L554.7,46.8 L557.0,47.8 L555.0,52.3 L549.4,55.0 L547.0,57.8 L547.4,58.6 L544.2,62.1 L539.5,65.4 L538.5,66.7 L544.6,65.1 L558.9,55.1 L562.5,49.7 L563.4,49.4 L562.7,56.5 L558.7,60.6 L550.7,71.2 L548.5,71.6 L544.9,73.8 L540.8,77.6 L538.2,82.2 L534.6,92.0 L531.9,94.2 L531.2,93.3 L529.8,85.1 L528.3,79.1 L527.1,77.4 L526.5,73.1 L527.4,65.0 L532.7,53.7 L539.1,42.8 L539.1,38.2 L535.7,29.7 L534.2,17.8 L531.2,10.9 L533.4,5.1 Z">
  <desc xmlns="http://www.highcharts.com/svg/namespace">
    <name>Gamvik</name>
    <hc-key>no-tf-5439</hc-key>
    <hc-a2>GA</hc-a2>
  </desc>
</path>

<path fill="#CEE3F5" stroke="#6E6E6E" stroke-width="0.4" id="NO.TF.5443" d="M626.0,39.0 L626.7,39.8 L627.5,44.6 L627.2,47.8 L625.1,51.4 L624.5,54.0 L630.3,51.4 L631.7,47.2 L634.7,41.5 L636.0,40.2 L640.8,39.8 L645.6,42.9 L645.1,45.1 L641.6,47.8 L643.2,48.8 L648.0,48.7 L652.6,51.6 L652.6,54.4 L650.3,56.7 L644.7,59.9 L646.8,62.3 L645.0,62.5 L641.3,61.4 L639.7,62.5 L646.8,63.1 L658.6,56.6 L660.5,56.6 L664.3,58.1 L665.3,59.6 L663.9,61.4 L672.3,66.9 L658.3,79.5 L647.4,92.8 L643.4,91.4 L637.7,90.5 L632.2,91.0 L626.0,90.4 L628.7,86.8 L624.6,85.9 L618.3,80.1 L612.1,78.2 L607.7,74.9 L607.0,72.4 L610.7,66.1 L617.5,57.2 L617.7,53.1 Z">
  <desc xmlns="http://www.highcharts.com/svg/namespace">
    <name>Båtsfjord</name>
    <hc-key>no-tf-5443</hc-key>
    <hc-a2>BÅ</hc-a2>
  </desc>
</path>

<path fill="#CEE3F5" stroke="#6E6E6E" stroke-width="0.4" id="NO.TF.5422" d="M160.1,227.7 L161.0,230.1 L164.3,232.5 L164.4,236.5 L170.2,242.5 L179.3,243.8 L180.7,246.7 L180.2,249.5 L176.2,252.6 L173.7,251.4 L170.8,253.5 L171.7,255.8 L174.7,252.7 L175.6,255.5 L174.5,256.7 L176.8,259.2 L178.4,259.1 L180.4,256.9 L182.0,257.3 L184.8,259.8 L186.3,258.8 L183.6,254.7 L183.4,251.7 L184.1,247.2 L183.0,244.2 L179.6,239.3 L177.2,238.4 L170.8,239.3 L169.1,238.1 L167.1,231.4 L164.1,227.9 L164.1,224.0 L164.9,226.1 L168.4,230.1 L170.1,234.7 L171.5,236.0 L172.5,234.8 L171.6,231.9 L179.3,229.0 L181.1,231.9 L178.7,235.3 L182.1,238.2 L186.6,243.3 L187.6,241.8 L189.8,242.3 L190.0,244.8 L192.0,246.9 L193.3,246.9 L192.5,252.1 L195.6,257.4 L200.6,258.9 L204.9,262.2 L206.3,275.8 L208.1,277.0 L206.8,279.2 L200.4,281.7 L198.6,284.2 L195.1,281.7 L182.7,282.6 L180.4,283.8 L179.6,281.1 L178.8,283.0 L176.6,283.5 L169.1,276.5 L167.8,274.1 L164.2,271.9 L164.3,269.6 L162.7,269.6 L152.3,258.1 L151.2,253.9 L149.8,252.3 L148.5,248.0 L149.3,246.2 L151.4,245.5 L155.4,245.5 L157.2,246.3 L160.1,249.4 L163.5,250.9 L164.1,249.8 L160.5,244.5 L148.4,239.5 L145.9,236.7 L145.4,232.8 L144.1,230.7 L139.8,229.4 L140.0,225.7 L141.0,224.7 L140.2,221.9 L141.1,219.9 L141.8,221.9 L145.1,224.6 L149.7,226.2 L150.0,229.5 Z">
  <desc xmlns="http://www.highcharts.com/svg/namespace">
    <name>Balsfjord</name>
    <hc-key>no-tf-5422</hc-key>
    <hc-a2>BA</hc-a2>
  </desc>
</path>

<path fill="#CEE3F5" stroke="#6E6E6E" stroke-width="0.4" id="NO.TF.5405" d="M665.9,102.5 L663.4,103.5 L662.1,106.7 L663.6,108.9 L662.8,112.2 L661.4,114.0 L654.4,118.4 L653.5,120.4 L655.4,121.0 L613.7,120.6 L613.0,120.4 L613.1,117.2 L611.5,115.3 L610.4,106.7 L611.6,106.0 L612.6,101.5 L613.2,95.0 L612.4,90.1 L611.1,87.8 L609.7,89.1 L608.2,87.9 L603.9,88.3 L599.8,86.8 L598.5,85.4 L601.5,84.8 L602.4,80.5 L604.6,77.0 L607.7,74.9 L612.1,78.2 L618.3,80.1 L624.6,85.9 L628.7,86.8 L626.0,90.4 L632.2,91.0 L637.7,90.5 L643.4,91.4 L647.4,92.8 L665.8,101.4 Z">
  <desc xmlns="http://www.highcharts.com/svg/namespace">
    <name>Vadsø</name>
    <hc-key>no-tf-5405</hc-key>
    <hc-a2>VA</hc-a2>
  </desc>
</path>
</g>

<text x="350" y="714" text-anchor="middle" font-family="Verdana" font-size="8" stroke-opacity="0.6">Copyright (c) 2020 Highsoft AS, Based on data from Kartverket</text>

</svg>