<?xml version="1.0" encoding="utf-8" standalone="no"?>
<!DOCTYPE svg PUBLIC "-//W3C//DTD SVG 1.1//EN" "http://www.w3.org/Graphics/SVG/1.1/DTD/svg11.dtd">

<svg version="1.1" height="700pt" width="700pt" xmlns="http://www.w3.org/2000/svg" xmlns:xlink="http://www.w3.org/1999/xlink">
<desc>
Map version: 1.1.3
Copyright (c) 2020 Highsoft AS, Based on data from Kartverket
</desc>
<title>Trøndelag</title>
<g id="admin2">

<g id="NO.TD">
  <desc xmlns="http://www.highcharts.com/svg/namespace">
    <labelrank>7</labelrank>
    <iso_3166_2>NO-50</iso_3166_2>
    <hasc>NO.TD</hasc>
    <alt-name>Troendelag fylke|Þrændalög</alt-name>
    <country>Norway</country>
    <type-en>County</type-en>
    <region>NULL</region>
    <woe-id>2346393</woe-id>
    <longitude>12.2637</longitude>
    <subregion>NULL</subregion>
    <woe-name>Trøndelag</woe-name>
    <fips>NO50</fips>
    <latitude>64.2773</latitude>
    <woe-label>Trondelag, NO, Norway</woe-label>
    <postal-code>TD</postal-code>
    <type>Fylke</type>
    <name>Trøndelag</name>
    <hc-key>no-td</hc-key>
    <hc-a2>TR</hc-a2>
  </desc>
</g>

<g id="NO.MR">
  <desc xmlns="http://www.highcharts.com/svg/namespace">
    <labelrank>7</labelrank>
    <iso_3166_2>NO-15</iso_3166_2>
    <hasc>NO.MR</hasc>
    <alt-name>Moere og Romsdal fylk|Møre|Romsdal</alt-name>
    <country>Norway</country>
    <type-en>County</type-en>
    <region>NULL</region>
    <woe-id>2346391</woe-id>
    <longitude>8.35107</longitude>
    <subregion>NULL</subregion>
    <woe-name>Møre og Romsdal</woe-name>
    <fips>NO08</fips>
    <latitude>62.5471</latitude>
    <woe-label>More og Romsdal, NO, Norway</woe-label>
    <postal-code>MR</postal-code>
    <type>Fylke</type>
    <name>Møre og Romsdal</name>
    <hc-key>no-mr</hc-key>
    <hc-a2>MO</hc-a2>
  </desc>
</g>

<g id="NO">
  <desc xmlns="http://www.highcharts.com/svg/namespace">
    <name>Norway</name>
    <labelrank>3</labelrank>
    <country-abbrev>Nor.</country-abbrev>
    <subregion>Northern Europe</subregion>
    <region-wb>Europe &amp; Central Asia</region-wb>
    <iso-a3>NOR</iso-a3>
    <iso-a2>NO</iso-a2>
    <woe-id>-90</woe-id>
    <continent>Europe</continent>
    <hc-key>no</hc-key>
    <hc-a2>NO</hc-a2>
  </desc>
</g>

<path fill="#CEE3F5" stroke="#6E6E6E" stroke-width="0.4" id="NO.TD.5058" d="M193.9,274.7 L193.0,279.2 L188.4,279.0 L185.2,274.4 L186.0,271.6 L190.9,269.9 Z M220.1,323.3 L215.0,323.1 L215.0,323.1 L213.9,318.8 L209.5,321.0 L208.4,318.8 L203.1,317.2 L199.6,318.3 L197.4,316.6 L194.2,317.9 L190.1,315.4 L188.5,312.8 L189.7,311.2 L199.8,307.9 L204.7,302.3 L210.7,303.8 L213.1,302.8 L210.4,298.4 L207.2,296.4 L202.5,300.5 L195.9,304.0 L186.8,307.9 L189.8,302.3 L201.6,296.3 L205.7,291.5 L204.2,291.4 L200.8,294.8 L198.5,291.6 L191.8,296.9 L186.0,298.2 L186.8,295.3 L190.8,290.1 L192.1,280.0 L194.2,280.3 L194.8,273.8 L192.5,269.3 L191.8,262.8 L193.4,260.6 L200.7,264.6 L203.2,267.2 L211.8,264.3 L214.4,259.0 L211.7,260.6 L203.1,260.8 L205.7,255.7 L209.4,256.0 L207.9,251.1 L212.1,251.0 L210.1,249.0 L210.6,244.6 L209.1,241.4 L214.5,242.8 L215.4,239.7 L222.1,238.6 L224.5,239.5 L229.2,244.3 L229.2,239.1 L224.8,235.6 L216.7,233.1 L218.0,230.2 L225.6,226.6 L224.9,223.4 L227.4,223.1 L232.1,225.5 L231.8,223.6 L233.2,225.6 L230.9,226.4 L233.7,229.6 L242.5,234.2 L253.5,241.8 L252.1,248.9 L267.9,245.2 L272.9,259.9 L281.3,260.0 L282.8,263.5 L277.7,265.5 L276.5,267.5 L276.3,273.8 L271.3,279.9 L271.1,282.4 L273.4,285.4 L272.2,290.9 L266.4,301.0 L256.2,309.0 L252.3,318.1 L247.4,324.5 L240.3,341.6 L238.6,337.3 L236.3,331.5 L235.7,326.8 L228.1,319.6 Z M180.7,277.2 L185.2,282.2 L186.6,286.0 L181.3,289.4 L177.3,286.7 L180.1,284.1 L176.6,282.6 L176.9,279.8 L179.4,279.7 Z">
  <desc xmlns="http://www.highcharts.com/svg/namespace">
    <name>Åfjord</name>
    <hc-key>no-td-5058</hc-key>
    <hc-a2>ÅF</hc-a2>
  </desc>
</path>

<path fill="#CEE3F5" stroke="#6E6E6E" stroke-width="0.4" id="NO.TD.5057" d="M134.0,368.1 L136.9,372.0 L135.5,374.8 L133.4,374.1 L132.0,369.9 L129.7,372.7 L128.0,368.0 L132.2,362.2 L134.3,365.1 Z M133.1,331.0 L134.9,332.5 L133.6,336.6 L129.3,339.5 L128.9,336.9 L132.1,330.0 Z M215.0,323.1 L215.0,323.1 L215.5,327.6 L214.8,335.3 L211.7,337.4 L201.3,341.5 L194.0,347.8 L195.1,343.7 L197.4,341.7 L196.3,339.5 L190.6,343.4 L183.6,345.9 L178.6,352.0 L170.4,354.1 L165.2,359.1 L156.8,359.9 L156.2,363.3 L154.0,363.3 L150.4,366.5 L146.0,367.9 L148.4,358.2 L146.7,353.7 L164.1,344.8 L170.2,343.7 L170.1,342.0 L149.7,345.9 L145.9,342.3 L158.0,331.7 L175.4,321.4 L179.9,321.0 L179.9,319.5 L175.3,319.3 L171.3,316.3 L181.6,311.7 L183.7,312.1 L183.2,316.0 L186.3,315.5 L188.5,312.8 L190.1,315.4 L194.2,317.9 L197.4,316.6 L199.6,318.3 L203.1,317.2 L208.4,318.8 L209.5,321.0 L213.9,318.8 Z">
  <desc xmlns="http://www.highcharts.com/svg/namespace">
    <name>Ørland</name>
    <hc-key>no-td-5057</hc-key>
    <hc-a2>ØR</hc-a2>
  </desc>
</path>

<path fill="#CEE3F5" stroke="#6E6E6E" stroke-width="0.4" id="NO.TD.5014" d="M79.9,350.9 L81.0,352.9 L76.4,356.6 L74.5,351.8 Z M58.9,337.1 L55.5,341.1 L53.5,340.9 L48.8,343.1 L50.0,339.9 L53.7,337.4 Z M34.5,323.2 L36.8,325.1 L35.1,328.5 L34.0,325.2 L32.5,327.8 L30.7,326.5 Z M103.1,291.6 L101.3,296.0 L99.5,293.4 L101.0,291.6 Z M19.2,359.3 L38.7,355.2 L62.3,342.5 L58.6,341.3 L55.1,344.1 L55.9,341.1 L61.6,334.3 L63.2,336.0 L68.8,332.9 L67.3,336.1 L69.3,340.8 L70.8,355.4 L67.3,360.5 L62.2,362.9 L41.4,365.2 L34.2,368.3 L32.1,366.6 L39.4,361.8 L33.6,363.5 L27.8,363.8 L22.1,366.5 L17.2,367.2 L12.9,363.2 Z">
  <desc xmlns="http://www.highcharts.com/svg/namespace">
    <name>Frøya</name>
    <hc-key>no-td-5014</hc-key>
    <hc-a2>FR</hc-a2>
  </desc>
</path>

<path fill="#CEE3F5" stroke="#6E6E6E" stroke-width="0.4" id="NO.TD.5031" d="M285.7,441.1 L285.3,439.9 L286.2,439.9 L286.9,440.8 Z M286.3,440.0 L287.3,439.3 L288.5,439.8 L288.0,441.2 Z M256.8,420.8 L267.2,416.1 L267.9,417.2 L274.5,419.1 L278.8,424.0 L282.0,418.4 L283.8,417.5 L285.2,421.5 L285.7,432.6 L284.1,438.5 L285.3,441.1 L297.0,444.2 L291.8,448.2 L287.3,449.9 L282.0,450.4 L277.3,452.9 L274.1,452.5 L271.8,450.2 L267.7,444.8 L269.1,440.9 L265.8,437.3 L264.3,438.1 L260.5,433.7 L259.8,428.9 Z">
  <desc xmlns="http://www.highcharts.com/svg/namespace">
    <name>Malvik</name>
    <hc-key>no-td-5031</hc-key>
    <hc-a2>MA</hc-a2>
  </desc>
</path>

<path fill="#CEE3F5" stroke="#6E6E6E" stroke-width="0.4" id="NO.TD.5049" d="M275.9,164.5 L270.1,164.7 L268.9,160.9 L270.6,158.7 Z M242.2,186.2 L246.3,187.1 L252.0,192.6 L255.0,193.6 L254.4,190.6 L250.4,185.0 L252.3,180.8 L256.6,184.6 L258.7,188.6 L265.4,189.0 L266.9,193.3 L274.2,199.5 L278.2,197.6 L272.4,192.4 L271.0,189.9 L272.9,187.6 L271.9,184.9 L267.4,181.8 L260.0,183.7 L257.6,182.1 L261.1,176.8 L263.4,175.7 L267.2,177.2 L268.1,173.8 L271.2,173.7 L276.2,176.9 L275.7,172.9 L271.8,167.2 L274.2,166.2 L276.7,167.7 L281.4,174.7 L283.7,170.3 L287.8,171.6 L284.6,168.1 L284.7,165.5 L288.4,166.7 L286.9,163.7 L287.3,156.2 L283.0,149.2 L286.4,147.3 L287.0,144.3 L296.8,149.4 L298.1,152.6 L297.8,156.6 L295.1,158.1 L295.5,165.1 L293.6,170.0 L294.3,173.6 L297.0,177.9 L300.1,180.4 L295.6,184.1 L295.3,188.8 L301.3,186.9 L302.6,189.7 L302.5,196.6 L303.3,199.7 L301.3,201.5 L296.1,200.9 L294.2,204.3 L293.0,210.2 L286.3,220.4 L283.8,220.3 L274.7,217.4 L270.0,213.4 L267.4,213.0 L262.5,205.5 L265.1,201.8 L261.9,197.1 L255.5,198.8 L252.7,194.0 L247.4,191.1 Z">
  <desc xmlns="http://www.highcharts.com/svg/namespace">
    <name>Flatanger</name>
    <hc-key>no-td-5049</hc-key>
    <hc-a2>FL</hc-a2>
  </desc>
</path>

<path fill="#CEE3F5" stroke="#6E6E6E" stroke-width="0.4" id="NO.TD.5056" d="M28.1,385.2 L30.1,389.9 L29.0,392.3 L24.6,391.3 L22.4,386.9 Z M96.6,363.8 L101.0,365.9 L100.0,368.3 L92.9,368.0 L92.8,365.1 Z M114.7,403.9 L116.2,407.1 L117.3,413.4 L119.8,416.7 L111.2,416.7 L106.6,415.0 L104.7,410.5 L106.1,405.5 L109.3,404.0 Z M93.4,370.8 L95.1,369.2 L100.3,369.5 L101.5,371.4 L106.5,372.5 L106.0,375.6 L97.0,380.6 L92.2,379.6 L91.8,376.5 Z M53.4,414.6 L44.0,416.7 L36.6,422.5 L33.8,423.2 L24.7,422.5 L17.8,417.0 L15.1,419.6 L12.9,414.6 L14.1,409.9 L17.2,403.7 L27.4,393.3 L29.7,392.3 L48.9,390.4 L56.6,392.2 L60.0,391.2 L55.6,388.5 L45.4,386.5 L41.3,382.9 L43.4,380.7 L49.3,381.2 L66.8,374.2 L71.0,374.3 L71.5,379.7 L73.8,378.9 L74.4,374.1 L77.0,372.0 L85.4,370.4 L86.6,373.2 L84.5,376.5 L86.3,378.9 L87.8,385.3 L94.1,381.7 L97.4,382.2 L101.8,387.9 L102.3,390.9 L107.5,391.2 L103.9,394.3 L100.2,399.3 L74.1,410.2 L59.3,410.9 Z">
  <desc xmlns="http://www.highcharts.com/svg/namespace">
    <name>Hitra</name>
    <hc-key>no-td-5056</hc-key>
    <hc-a2>HI</hc-a2>
  </desc>
</path>

<path fill="#CEE3F5" stroke="#6E6E6E" stroke-width="0.4" id="NO.TD.5034" d="M369.0,476.7 L359.6,457.4 L348.9,443.2 L353.8,422.7 L355.5,410.0 L363.3,398.6 L366.7,391.5 L375.1,379.2 L375.2,379.1 L375.2,379.1 L383.7,369.3 L401.2,376.1 L419.4,376.9 L427.4,403.7 L415.2,433.4 L404.6,454.2 L413.8,474.0 L400.7,471.9 Z">
  <desc xmlns="http://www.highcharts.com/svg/namespace">
    <name>Meråker</name>
    <hc-key>no-td-5034</hc-key>
    <hc-a2>ME</hc-a2>
  </desc>
</path>

<path fill="#CEE3F5" stroke="#6E6E6E" stroke-width="0.4" id="NO.TD.5032" d="M348.9,443.2 L359.6,457.4 L369.0,476.7 L369.4,485.2 L361.8,487.6 L354.2,493.6 L348.7,493.3 L346.7,496.1 L342.0,494.4 L340.9,500.4 L335.8,508.0 L332.3,519.8 L328.7,517.7 L323.2,518.0 L318.4,506.1 L312.7,507.8 L302.6,507.0 L298.4,507.4 L294.5,505.8 L292.0,502.0 L280.3,494.8 L271.9,488.7 L271.0,487.2 L269.5,484.9 L265.9,466.4 L264.7,467.1 L264.8,459.7 L261.2,458.0 L261.3,454.4 L265.2,450.5 L271.8,450.2 L274.1,452.5 L277.3,452.9 L282.0,450.4 L287.3,449.9 L291.8,448.2 L297.0,444.2 L305.2,441.3 L315.5,441.1 L320.6,439.1 L330.6,440.1 Z">
  <desc xmlns="http://www.highcharts.com/svg/namespace">
    <name>Selbu</name>
    <hc-key>no-td-5032</hc-key>
    <hc-a2>SE</hc-a2>
  </desc>
</path>

<path fill="#CEE3F5" stroke="#6E6E6E" stroke-width="0.4" id="NO.TD.5054" d="M220.1,323.3 L228.1,319.6 L235.7,326.8 L236.3,331.5 L238.6,337.3 L236.5,338.8 L238.7,341.3 L239.7,349.0 L247.8,342.4 L256.9,336.7 L261.8,335.8 L268.5,338.9 L268.8,341.0 L274.5,339.6 L275.9,342.1 L280.4,344.3 L281.4,351.7 L278.2,352.6 L271.0,359.9 L263.8,360.9 L260.8,363.1 L257.8,372.0 L253.2,375.7 L249.3,377.1 L237.6,386.8 L232.5,388.4 L227.7,391.1 L219.4,391.3 L215.6,395.6 L211.6,397.4 L202.7,404.5 L194.1,406.4 L192.2,408.0 L189.6,404.9 L185.6,403.0 L184.0,393.7 L182.2,388.8 L183.7,385.5 L176.4,382.5 L174.0,376.7 L176.3,372.7 L174.6,369.2 L171.9,367.9 L173.3,364.8 L172.6,361.5 L177.2,360.4 L185.6,355.7 L193.4,353.6 L197.2,351.0 L203.9,343.2 L201.2,343.6 L196.5,347.9 L194.0,347.8 L201.3,341.5 L211.7,337.4 L214.8,335.3 L215.5,327.6 L215.0,323.1 L215.0,323.1 Z">
  <desc xmlns="http://www.highcharts.com/svg/namespace">
    <name>Indre Fosen</name>
    <hc-key>no-td-5054</hc-key>
    <hc-a2>IF</hc-a2>
  </desc>
</path>

<path fill="#CEE3F5" stroke="#6E6E6E" stroke-width="0.4" id="NO.TD.5059" d="M127.4,475.0 L126.5,470.9 L126.8,466.1 L125.4,462.6 L128.2,460.3 L133.9,459.2 L135.0,435.2 L139.4,429.6 L136.5,430.4 L130.6,433.8 L116.5,435.1 L113.3,437.1 L110.6,436.2 L108.4,433.0 L107.7,431.4 L106.8,429.3 L108.3,422.6 L139.8,413.3 L139.6,410.1 L137.1,411.8 L127.4,415.0 L124.1,415.0 L118.5,411.3 L116.2,407.1 L114.7,403.9 L113.9,399.0 L120.8,399.9 L125.0,394.0 L127.7,392.2 L128.7,394.4 L128.8,399.9 L131.4,402.7 L137.3,392.5 L141.0,388.9 L145.3,391.1 L149.3,397.3 L146.3,388.0 L140.5,385.9 L143.2,382.5 L146.3,381.0 L152.7,379.4 L159.0,374.4 L162.2,372.8 L164.9,374.6 L164.5,378.3 L166.6,382.6 L171.5,389.0 L174.2,395.2 L173.8,403.4 L183.7,411.9 L188.9,418.3 L190.4,423.5 L187.2,435.4 L177.2,446.9 L179.7,447.7 L183.9,446.2 L184.3,455.0 L186.7,454.5 L184.0,461.3 L183.5,467.5 L184.3,470.9 L186.9,472.4 L186.8,482.9 L182.6,490.0 L183.9,491.1 L183.8,497.3 L186.0,504.6 L187.6,505.3 L188.4,502.0 L195.1,509.7 L197.5,516.3 L197.4,519.5 L197.2,525.7 L194.9,532.5 L194.9,532.5 L194.9,532.5 L194.9,532.5 L190.8,530.8 L185.3,531.5 L184.6,530.4 L179.9,532.0 L172.4,530.8 L162.1,537.0 L159.8,541.1 L154.1,545.6 L151.9,548.5 L148.3,549.1 L143.5,544.8 L141.6,548.5 L137.4,550.6 L134.6,542.0 L135.1,535.6 L140.4,530.6 L142.4,525.7 L151.6,522.6 L147.6,521.0 L141.6,521.3 L139.5,518.5 L140.0,515.5 L135.2,513.3 L136.9,510.7 L135.9,501.8 L138.1,496.2 L136.7,486.6 L138.8,482.5 L129.9,481.0 L127.4,475.0 L127.4,475.0 Z">
  <desc xmlns="http://www.highcharts.com/svg/namespace">
    <name>Orkland</name>
    <hc-key>no-td-5059</hc-key>
    <hc-a2>OR</hc-a2>
  </desc>
</path>

<path fill="#CEE3F5" stroke="#6E6E6E" stroke-width="0.4" id="NO.MR.5061" d="M127.4,475.0 L129.9,481.0 L138.8,482.5 L136.7,486.6 L138.1,496.2 L135.9,501.8 L136.9,510.7 L135.2,513.3 L136.9,515.2 L140.0,515.5 L139.5,518.5 L141.6,521.3 L147.6,521.0 L151.6,522.6 L142.4,525.7 L140.4,530.6 L135.1,535.6 L134.6,542.0 L137.4,550.6 L138.9,560.5 L134.4,568.2 L130.9,571.2 L128.4,573.4 L124.7,572.3 L123.9,569.8 L124.0,559.7 L124.7,557.4 L119.8,553.8 L122.6,550.5 L122.1,547.2 L117.7,542.4 L110.8,542.6 L108.1,544.5 L103.7,542.1 L100.9,531.9 L105.0,526.6 L107.6,528.7 L108.0,526.6 L104.1,524.8 L105.7,521.9 L100.2,518.1 L100.2,514.6 L98.0,503.7 L94.6,503.9 L90.5,507.6 L86.1,507.9 L84.6,503.1 L88.5,500.6 L87.4,497.7 L91.5,494.3 L93.3,496.4 L94.7,493.1 L99.5,493.0 L104.3,494.9 L108.8,492.9 L108.6,490.1 L104.3,484.2 L109.6,481.0 L113.3,476.7 L120.5,478.9 L127.4,475.0 Z">
  <desc xmlns="http://www.highcharts.com/svg/namespace">
    <name>Rindal</name>
    <hc-key>no-mr-5061</hc-key>
    <hc-a2>RI</hc-a2>
  </desc>
</path>

<path fill="#CEE3F5" stroke="#6E6E6E" stroke-width="0.4" id="NO.TD.5022" d="M134.4,568.2 L138.9,560.5 L137.4,550.6 L141.6,548.5 L143.5,544.8 L148.3,549.1 L151.9,548.5 L154.1,545.6 L159.8,541.1 L162.1,537.0 L172.4,530.8 L179.9,532.0 L184.6,530.4 L185.3,531.5 L190.8,530.8 L194.9,532.5 L194.9,532.5 L194.9,532.5 L196.4,537.0 L202.8,546.7 L205.8,548.4 L212.6,560.2 L217.3,580.6 L231.4,587.9 L232.4,595.3 L223.1,595.5 L218.6,597.3 L216.3,595.2 L210.3,603.0 L208.5,609.6 L206.8,612.2 L205.6,617.8 L200.5,621.7 L201.9,625.9 L198.4,628.2 L193.8,610.3 L195.4,604.5 L189.7,600.5 L191.0,595.9 L188.6,595.1 L187.3,590.9 L185.2,589.4 L181.8,591.2 L176.2,590.9 L174.4,588.0 L171.2,586.1 L168.6,587.6 L167.5,592.0 L160.7,587.4 L154.5,580.3 L149.9,577.2 L149.7,574.0 L144.7,570.5 Z">
  <desc xmlns="http://www.highcharts.com/svg/namespace">
    <name>Rennebu</name>
    <hc-key>no-td-5022</hc-key>
    <hc-a2>RE</hc-a2>
  </desc>
</path>

<path fill="#CEE3F5" stroke="#6E6E6E" stroke-width="0.4" id="NO.TD.5037" d="M359.2,381.7 L357.5,379.0 L354.6,378.9 L353.0,381.2 L343.4,386.0 L337.6,384.0 L320.1,386.3 L315.7,387.4 L305.0,388.6 L300.3,387.7 L291.0,390.1 L284.0,388.0 L284.4,385.8 L289.7,383.3 L290.6,380.0 L285.8,380.8 L288.5,378.1 L287.8,375.4 L292.9,371.8 L287.2,362.8 L288.3,360.8 L301.4,352.2 L306.7,355.4 L310.5,355.3 L317.1,351.5 L322.8,340.6 L325.2,338.4 L332.6,335.8 L339.9,335.2 L343.1,336.4 L345.0,339.8 L345.2,345.4 L351.0,344.8 L353.3,348.4 L356.9,348.0 L359.2,356.6 L360.1,364.8 L369.4,374.1 L375.2,379.1 L375.2,379.1 L375.1,379.2 L375.1,379.1 L375.1,379.1 L375.1,379.1 L372.3,380.1 L363.5,378.7 L362.9,380.4 Z M298.2,343.5 L300.6,339.8 L301.1,335.9 L304.9,333.7 L318.9,328.7 L321.1,330.9 L319.6,333.0 L317.6,334.1 L312.7,333.7 L303.1,343.2 L301.7,346.0 L298.3,346.9 Z">
  <desc xmlns="http://www.highcharts.com/svg/namespace">
    <name>Levanger</name>
    <hc-key>no-td-5037</hc-key>
    <hc-a2>LE</hc-a2>
  </desc>
</path>

<path fill="#CEE3F5" stroke="#6E6E6E" stroke-width="0.4" id="NO.TD.5035" d="M359.2,381.7 L363.5,378.7 L372.3,380.1 L375.1,379.1 L375.2,379.1 L375.1,379.1 L366.7,391.5 L363.3,398.6 L355.5,410.0 L353.8,422.7 L348.9,443.2 L330.6,440.1 L320.6,439.1 L315.5,441.1 L305.2,441.3 L297.0,444.2 L285.3,441.1 L284.1,438.5 L285.7,432.6 L285.2,421.5 L283.8,417.5 L286.8,417.0 L290.1,414.5 L290.9,412.1 L281.0,410.1 L276.2,407.5 L274.0,400.5 L276.2,395.4 L281.4,392.6 L291.0,391.3 L291.0,390.1 L300.3,387.7 L305.0,388.6 L315.7,387.4 L320.1,386.3 L337.6,384.0 L343.4,386.0 L353.0,381.2 L354.6,378.9 L357.5,379.0 Z M285.7,441.1 L286.9,440.8 L286.2,439.9 L285.3,439.9 Z M286.3,440.0 L288.0,441.2 L288.5,439.8 L287.3,439.3 Z">
  <desc xmlns="http://www.highcharts.com/svg/namespace">
    <name>Stjørdal</name>
    <hc-key>no-td-5035</hc-key>
    <hc-a2>ST</hc-a2>
  </desc>
</path>

<path fill="#CEE3F5" stroke="#6E6E6E" stroke-width="0.4" id="NO.TD.5053" d="M262.0,327.4 L265.9,324.1 L273.0,322.1 L276.5,319.3 L277.0,319.1 L287.2,311.0 L289.8,310.3 L302.7,318.6 L304.7,324.6 L300.2,327.6 L296.4,332.9 L295.2,341.0 L288.4,349.8 L281.4,351.7 L280.4,344.3 L275.9,342.1 L274.5,339.6 L268.8,341.0 L268.5,338.9 L261.8,335.8 L259.4,330.5 Z M351.3,317.0 L344.6,319.7 L341.9,322.4 L340.1,320.0 L333.8,320.7 L328.2,317.4 L323.0,316.6 L308.5,321.2 L306.9,319.2 L306.7,311.8 L314.8,306.9 L317.2,304.4 L319.4,298.2 L327.1,293.2 L334.6,290.7 L335.1,298.2 L331.9,305.3 L332.2,312.3 L337.4,311.7 L341.5,309.6 L341.4,313.4 L344.0,316.0 L345.1,314.0 L350.6,314.9 Z">
  <desc xmlns="http://www.highcharts.com/svg/namespace">
    <name>Inderøy</name>
    <hc-key>no-td-5053</hc-key>
    <hc-a2>IN</hc-a2>
  </desc>
</path>

<path fill="#CEE3F5" stroke="#6E6E6E" stroke-width="0.4" id="NO.TD.5038" d="M339.9,335.2 L345.0,333.9 L345.6,331.2 L343.9,327.2 L341.3,326.5 L341.9,322.4 L344.6,319.7 L351.3,317.0 L353.3,316.8 L360.4,312.6 L360.2,311.1 L364.0,310.9 L373.8,305.9 L400.7,303.1 L413.6,299.2 L423.5,293.1 L438.8,290.3 L465.6,285.3 L470.2,284.4 L451.1,322.2 L436.8,347.5 L434.1,357.8 L427.1,367.8 L419.4,376.9 L401.2,376.1 L383.7,369.3 L375.2,379.1 L369.4,374.1 L360.1,364.8 L359.2,356.6 L356.9,348.0 L353.3,348.4 L351.0,344.8 L345.2,345.4 L345.0,339.8 L343.1,336.4 Z">
  <desc xmlns="http://www.highcharts.com/svg/namespace">
    <name>Verdal</name>
    <hc-key>no-td-5038</hc-key>
    <hc-a2>VE</hc-a2>
  </desc>
</path>

<path fill="#CEE3F5" stroke="#6E6E6E" stroke-width="0.4" id="NO.TD.5028" d="M222.0,444.1 L221.7,443.8 L221.9,443.6 Z M269.5,484.9 L271.0,487.2 L271.9,488.7 L264.9,495.5 L256.5,501.9 L247.7,501.8 L239.5,504.9 L229.9,505.7 L223.2,509.6 L220.0,510.3 L211.0,510.3 L206.0,516.7 L197.4,519.5 L197.5,516.3 L195.1,509.7 L188.4,502.0 L187.6,505.3 L186.0,504.6 L183.8,497.3 L183.9,491.1 L182.6,490.0 L186.8,482.9 L191.7,484.8 L195.1,483.1 L205.3,475.2 L206.2,477.6 L208.9,474.3 L211.1,474.4 L211.5,467.2 L213.7,465.7 L216.9,459.3 L215.1,455.7 L216.8,454.8 L219.4,449.6 L216.2,446.6 L220.6,446.8 L221.9,449.6 L222.6,460.7 L223.9,457.3 L224.5,448.9 L228.9,451.7 L230.2,448.5 L232.6,447.5 L237.3,452.1 L233.0,461.7 L245.3,469.5 L252.3,471.9 L262.9,484.3 Z">
  <desc xmlns="http://www.highcharts.com/svg/namespace">
    <name>Melhus</name>
    <hc-key>no-td-5028</hc-key>
    <hc-a2>ME</hc-a2>
  </desc>
</path>

<path fill="#CEE3F5" stroke="#6E6E6E" stroke-width="0.4" id="NO.TD.5045" d="M504.3,157.5 L503.9,162.9 L503.1,173.9 L465.3,180.0 L455.0,184.1 L451.4,188.5 L441.9,189.9 L437.6,186.9 L433.2,194.3 L426.6,199.7 L420.4,199.9 L414.9,201.0 L408.4,203.2 L411.6,192.6 L410.5,187.7 L405.7,182.0 L407.7,176.4 L406.9,172.7 L401.9,171.7 L402.4,167.2 L405.5,166.2 L406.3,160.9 L408.5,158.9 L411.5,160.5 L416.4,156.7 L416.9,153.9 L426.8,149.0 L429.8,143.1 L433.1,141.3 L438.0,135.2 L442.9,130.6 L438.3,127.8 L440.8,125.3 L441.6,121.1 L444.6,118.6 L445.5,115.2 L449.1,111.2 L443.1,109.4 L454.4,107.8 L452.5,111.5 L458.9,114.9 L461.8,117.3 L466.9,113.9 L471.7,115.2 L471.0,117.9 L474.9,120.0 L477.7,120.0 L477.5,123.0 Z">
  <desc xmlns="http://www.highcharts.com/svg/namespace">
    <name>Grong</name>
    <hc-key>no-td-5045</hc-key>
    <hc-a2>GR</hc-a2>
  </desc>
</path>

<path fill="#CEE3F5" stroke="#6E6E6E" stroke-width="0.4" id="NO.TD.5042" d="M503.1,173.9 L503.9,162.9 L504.3,157.5 L515.5,143.8 L518.6,137.3 L520.8,136.2 L526.2,117.3 L527.9,113.4 L530.9,109.8 L529.6,103.0 L544.0,92.7 L546.6,92.2 L564.8,83.1 L583.6,76.4 L564.2,121.0 L560.0,135.4 L585.3,150.8 L605.5,156.0 L608.7,159.5 L615.2,201.1 L618.2,222.0 L606.0,257.2 L602.2,267.5 L575.5,260.5 L556.9,257.3 L522.8,252.6 L523.0,235.5 L524.1,215.2 L520.1,201.4 L510.1,192.6 Z">
  <desc xmlns="http://www.highcharts.com/svg/namespace">
    <name>Lierne</name>
    <hc-key>no-td-5042</hc-key>
    <hc-a2>LI</hc-a2>
  </desc>
</path>

<path fill="#CEE3F5" stroke="#6E6E6E" stroke-width="0.4" id="NO.TD.5001" d="M224.5,448.9 L224.3,447.4 L222.0,444.1 L221.9,443.6 L221.7,443.8 L220.8,442.6 L203.7,438.9 L200.7,436.2 L198.9,428.3 L204.4,420.7 L210.9,417.3 L226.1,413.7 L231.9,418.7 L235.3,419.0 L241.6,415.6 L245.2,416.1 L252.1,420.6 L256.8,420.8 L259.8,428.9 L260.5,433.7 L264.3,438.1 L265.8,437.3 L269.1,440.9 L267.7,444.8 L271.8,450.2 L265.2,450.5 L261.3,454.4 L261.2,458.0 L264.8,459.7 L264.7,467.1 L265.9,466.4 L269.5,484.9 L262.9,484.3 L252.3,471.9 L245.3,469.5 L233.0,461.7 L237.3,452.1 L232.6,447.5 L230.2,448.5 L228.9,451.7 Z">
  <desc xmlns="http://www.highcharts.com/svg/namespace">
    <name>Trondheim</name>
    <hc-key>no-td-5001</hc-key>
    <hc-a2>TR</hc-a2>
  </desc>
</path>

<path fill="#CEE3F5" stroke="#6E6E6E" stroke-width="0.4" id="NO.TD.5027" d="M194.9,532.5 L194.9,532.5 L194.9,532.5 Z M196.4,537.0 L195.0,532.5 L194.9,532.5 L194.9,532.5 L194.9,532.5 L197.2,525.7 L197.4,519.5 L206.0,516.7 L211.0,510.3 L220.0,510.3 L223.2,509.6 L229.9,505.7 L239.5,504.9 L247.7,501.8 L256.5,501.9 L264.9,495.5 L271.9,488.7 L280.3,494.8 L292.0,502.0 L294.5,505.8 L298.4,507.4 L302.6,507.0 L298.5,527.7 L297.4,536.0 L300.3,541.1 L299.4,548.1 L294.3,556.9 L298.8,571.6 L293.0,573.6 L283.1,597.9 L277.6,606.0 L275.2,604.9 L274.4,601.2 L267.6,598.9 L261.6,602.0 L232.4,595.3 L231.4,587.9 L217.3,580.6 L212.6,560.2 L205.8,548.4 L202.8,546.7 Z">
  <desc xmlns="http://www.highcharts.com/svg/namespace">
    <name>Midtre Gauldal</name>
    <hc-key>no-td-5027</hc-key>
    <hc-a2>MG</hc-a2>
  </desc>
</path>

<path fill="#CEE3F5" stroke="#6E6E6E" stroke-width="0.4" id="NO.MR.5055" d="M108.4,433.0 L106.7,430.3 L106.8,429.3 L107.7,431.4 Z M127.4,475.0 L127.4,475.0 L120.5,478.9 L113.3,476.7 L109.6,481.0 L104.3,484.2 L108.6,490.1 L108.8,492.9 L104.3,494.9 L99.5,493.0 L94.7,493.1 L93.3,496.4 L91.5,494.3 L87.4,497.7 L85.8,493.4 L79.5,497.2 L78.2,496.2 L74.1,498.0 L71.3,495.3 L68.5,495.1 L64.8,498.7 L65.2,499.7 L60.7,502.7 L55.8,507.6 L51.9,509.8 L51.4,507.8 L38.4,511.2 L35.8,513.2 L33.6,506.0 L28.9,509.3 L27.6,513.7 L25.2,511.3 L18.2,516.2 L17.2,514.0 L13.8,515.6 L9.8,519.3 L5.9,516.6 L6.6,509.6 L3.9,502.6 L0.0,497.2 L2.5,493.8 L5.8,492.8 L10.4,499.2 L13.4,501.9 L12.6,506.8 L17.1,503.7 L16.4,498.8 L14.8,495.1 L7.6,490.8 L7.6,489.0 L40.4,493.6 L50.7,499.0 L49.0,494.7 L43.8,490.9 L42.8,486.9 L44.0,484.1 L54.7,480.7 L63.7,480.2 L69.8,479.1 L71.2,477.4 L83.0,475.0 L71.5,475.5 L74.3,473.2 L74.4,470.5 L70.7,467.4 L69.5,462.3 L73.0,456.6 L74.8,455.4 L74.5,449.2 L76.6,444.0 L78.9,442.8 L75.0,437.6 L73.0,438.7 L67.8,437.4 L68.2,430.2 L63.4,425.7 L67.0,423.4 L70.4,423.8 L76.5,431.3 L77.5,425.7 L81.2,425.1 L88.7,426.5 L86.2,425.0 L86.4,419.8 L89.1,415.2 L90.9,415.1 L94.6,418.4 L101.1,426.5 L103.3,434.4 L104.7,436.4 L99.9,444.1 L98.4,449.6 L98.9,455.7 L104.2,447.0 L109.3,445.2 L117.0,439.4 L135.0,435.2 L133.9,459.2 L128.2,460.3 L125.4,462.6 L126.8,466.1 L126.5,470.9 Z">
  <desc xmlns="http://www.highcharts.com/svg/namespace">
    <name>Heim</name>
    <hc-key>no-mr-5055</hc-key>
    <hc-a2>HE</hc-a2>
  </desc>
</path>

<path fill="#CEE3F5" stroke="#6E6E6E" stroke-width="0.4" id="NO.TD.5047" d="M357.4,171.5 L358.9,170.6 L357.1,171.0 L356.2,166.8 L353.3,165.3 L354.8,163.2 L359.3,161.2 L360.4,157.0 L362.2,156.5 L364.0,152.8 L364.7,155.3 L367.7,155.3 L375.1,153.3 L375.8,151.7 L381.7,149.0 L383.9,144.3 L380.2,133.1 L394.0,122.4 L397.7,135.5 L399.3,135.8 L402.2,140.8 L402.9,149.3 L404.3,152.4 L409.3,150.9 L410.5,154.1 L413.7,157.3 L416.4,156.7 L411.5,160.5 L408.5,158.9 L406.3,160.9 L405.5,166.2 L402.4,167.2 L401.9,171.7 L406.9,172.7 L407.7,176.4 L405.7,182.0 L410.5,187.7 L411.6,192.6 L408.4,203.2 L395.5,208.2 L391.3,211.7 L388.8,204.6 L380.8,209.6 L371.4,216.5 L360.4,208.2 L360.6,191.4 L359.3,186.0 L357.6,185.9 L357.9,179.9 L356.7,178.5 Z">
  <desc xmlns="http://www.highcharts.com/svg/namespace">
    <name>Overhalla</name>
    <hc-key>no-td-5047</hc-key>
    <hc-a2>OV</hc-a2>
  </desc>
</path>

<path fill="#CEE3F5" stroke="#6E6E6E" stroke-width="0.4" id="NO.TD.5006" d="M262.0,327.4 L259.4,330.5 L261.8,335.8 L256.9,336.7 L247.8,342.4 L239.7,349.0 L238.7,341.3 L236.5,338.8 L238.6,337.3 L240.3,341.6 L247.4,324.5 L252.3,318.1 L256.2,309.0 L266.4,301.0 L272.2,290.9 L273.4,285.4 L271.1,282.4 L271.3,279.9 L276.3,273.8 L276.5,267.5 L277.7,265.5 L282.8,263.5 L301.2,251.6 L306.4,252.7 L309.3,252.4 L309.8,254.2 L314.0,252.7 L317.9,252.5 L320.5,249.2 L331.1,245.8 L332.5,244.4 L332.5,240.4 L337.2,236.4 L340.4,235.4 L344.3,232.1 L349.7,229.2 L361.8,224.5 L371.4,216.5 L380.8,209.6 L388.8,204.6 L391.3,211.7 L392.6,222.7 L392.5,228.0 L394.3,230.7 L396.5,230.2 L397.9,233.6 L399.8,243.0 L399.2,246.2 L401.1,245.3 L400.8,248.9 L404.3,256.9 L415.8,258.3 L412.8,268.4 L426.9,275.5 L438.8,290.3 L423.5,293.1 L413.6,299.2 L400.7,303.1 L373.8,305.9 L364.0,310.9 L360.2,311.1 L360.4,312.6 L353.3,316.8 L351.3,317.0 L350.6,314.9 L345.1,314.0 L344.0,316.0 L341.4,313.4 L341.5,309.6 L337.4,311.7 L332.2,312.3 L331.9,305.3 L335.1,298.2 L334.6,290.7 L341.1,288.5 L346.1,282.8 L347.1,279.4 L342.6,280.4 L339.6,277.8 L333.5,278.4 L322.6,276.7 L320.2,270.9 L330.6,260.2 L332.2,257.3 L325.9,259.9 L318.5,268.4 L316.6,279.0 L313.9,283.9 L292.4,298.5 L289.7,301.3 L285.3,308.3 L279.9,313.2 L267.7,317.7 L264.5,320.0 L260.3,326.5 L255.1,329.7 L252.9,332.3 L258.8,330.5 Z M276.5,319.3 L286.3,311.3 L287.2,311.0 L277.0,319.1 Z">
  <desc xmlns="http://www.highcharts.com/svg/namespace">
    <name>Steinkjer</name>
    <hc-key>no-td-5006</hc-key>
    <hc-a2>ST</hc-a2>
  </desc>
</path>

<path fill="#CEE3F5" stroke="#6E6E6E" stroke-width="0.4" id="NO.TD.5052" d="M352.5,32.9 L348.1,37.1 L343.7,38.7 L339.6,35.9 L340.5,28.6 L345.2,22.7 L353.2,20.3 L355.9,20.3 L359.6,22.8 L363.1,19.6 L364.7,21.8 L363.6,23.7 L354.8,31.2 L357.6,32.8 L354.7,37.6 L352.9,37.4 Z">
  <desc xmlns="http://www.highcharts.com/svg/namespace">
    <name>Leka</name>
    <hc-key>no-td-5052</hc-key>
    <hc-a2>LE</hc-a2>
  </desc>
</path>

<path fill="#CEE3F5" stroke="#6E6E6E" stroke-width="0.4" id="NO.TD.5020" d="M231.8,223.6 L231.4,220.0 L236.0,220.6 L241.6,216.6 L238.1,216.8 L237.2,214.0 L237.1,205.3 L239.2,203.6 L244.0,205.1 L248.4,209.8 L246.2,204.3 L242.6,201.8 L242.6,200.3 L249.0,201.7 L252.3,205.9 L257.4,203.2 L257.3,201.4 L253.0,201.2 L251.3,195.9 L249.1,195.3 L247.3,192.0 L238.2,192.2 L240.1,187.8 L242.2,186.2 L247.4,191.1 L252.7,194.0 L255.5,198.8 L261.9,197.1 L265.1,201.8 L262.5,205.5 L267.4,213.0 L270.0,213.4 L274.7,217.4 L283.8,220.3 L286.3,220.4 L285.1,232.3 L282.4,237.7 L267.9,245.2 L252.1,248.9 L253.5,241.8 L242.5,234.2 L233.7,229.6 L230.9,226.4 L233.2,225.6 Z">
  <desc xmlns="http://www.highcharts.com/svg/namespace">
    <name>Osen</name>
    <hc-key>no-td-5020</hc-key>
    <hc-a2>OS</hc-a2>
  </desc>
</path>

<path fill="#CEE3F5" stroke="#6E6E6E" stroke-width="0.4" id="NO.TD.5026" d="M319.1,600.9 L310.4,600.0 L297.6,593.4 L289.3,594.5 L283.1,597.9 L293.0,573.6 L298.8,571.6 L294.3,556.9 L299.4,548.1 L300.3,541.1 L297.4,536.0 L298.5,527.7 L302.6,507.0 L312.7,507.8 L318.4,506.1 L323.2,518.0 L328.7,517.7 L332.3,519.8 L353.1,525.8 L358.0,537.9 L366.5,547.7 L372.8,547.0 L375.6,544.1 L387.9,543.3 L391.4,558.6 L390.2,558.8 L377.4,573.0 L365.0,573.4 L357.9,576.1 L355.7,578.8 L352.9,576.6 L349.5,577.4 L347.8,581.1 L341.1,580.2 L338.1,580.7 L337.5,586.2 L334.7,589.3 L331.6,588.3 L324.0,597.4 L319.9,596.7 Z">
  <desc xmlns="http://www.highcharts.com/svg/namespace">
    <name>Holtålen</name>
    <hc-key>no-td-5026</hc-key>
    <hc-a2>HO</hc-a2>
  </desc>
</path>

<path fill="#CEE3F5" stroke="#6E6E6E" stroke-width="0.4" id="NO.TD.5041" d="M522.8,252.6 L494.1,263.2 L470.2,284.4 L465.6,285.3 L438.8,290.3 L426.9,275.5 L412.8,268.4 L415.8,258.3 L404.3,256.9 L400.8,248.9 L401.1,245.3 L399.2,246.2 L399.8,243.0 L397.9,233.6 L396.5,230.2 L394.3,230.7 L392.5,228.0 L392.6,222.7 L391.3,211.7 L395.5,208.2 L408.4,203.2 L414.9,201.0 L420.4,199.9 L426.6,199.7 L433.2,194.3 L437.6,186.9 L441.9,189.9 L451.4,188.5 L455.0,184.1 L465.3,180.0 L503.1,173.9 L510.1,192.6 L520.1,201.4 L524.1,215.2 L523.0,235.5 Z">
  <desc xmlns="http://www.highcharts.com/svg/namespace">
    <name>Snåsa</name>
    <hc-key>no-td-5041</hc-key>
    <hc-a2>SN</hc-a2>
  </desc>
</path>

<path fill="#CEE3F5" stroke="#6E6E6E" stroke-width="0.4" id="NO.TD.5044" d="M459.9,54.0 L465.4,56.5 L467.5,53.4 L465.5,48.3 L478.7,47.8 L481.3,45.2 L482.5,41.5 L478.5,37.7 L478.0,34.9 L480.1,32.5 L483.9,33.6 L486.2,25.1 L491.8,23.4 L494.5,14.7 L501.0,12.9 L516.3,15.1 L526.9,15.1 L538.4,10.1 L548.4,12.1 L547.0,15.8 L544.4,16.8 L540.2,21.5 L529.5,28.2 L528.9,35.2 L523.9,56.2 L508.2,90.8 L509.6,98.7 L498.8,98.0 L495.8,99.9 L501.2,119.5 L505.2,124.2 L504.3,157.5 L477.5,123.0 L477.7,120.0 L474.9,120.0 L471.0,117.9 L471.7,115.2 L466.9,113.9 L461.8,117.3 L458.9,114.9 L452.5,111.5 L454.4,107.8 L443.1,109.4 L443.8,96.1 L442.9,91.1 L448.7,84.6 L441.7,78.8 L443.6,76.2 L451.4,75.1 L457.1,71.9 L461.4,71.0 L460.3,63.8 L462.0,58.7 Z">
  <desc xmlns="http://www.highcharts.com/svg/namespace">
    <name>Namsskogan</name>
    <hc-key>no-td-5044</hc-key>
    <hc-a2>NA</hc-a2>
  </desc>
</path>

<path fill="#CEE3F5" stroke="#6E6E6E" stroke-width="0.4" id="NO.TD.5025" d="M427.7,576.1 L420.6,608.5 L445.4,673.6 L438.6,674.8 L436.0,678.4 L432.1,679.2 L429.8,677.7 L423.8,671.0 L415.9,668.3 L391.4,664.2 L387.7,672.1 L383.6,672.1 L383.2,668.2 L381.1,664.6 L369.6,667.7 L365.8,663.3 L360.9,652.3 L357.5,648.6 L353.7,642.5 L347.3,639.5 L343.8,634.7 L339.1,633.1 L338.2,631.4 L334.3,630.8 L333.8,626.2 L331.7,621.9 L327.6,622.0 L327.5,616.6 L324.1,612.1 L323.1,604.1 L320.4,603.9 L319.1,600.9 L319.9,596.7 L324.0,597.4 L331.6,588.3 L334.7,589.3 L337.5,586.2 L338.1,580.7 L341.1,580.2 L347.8,581.1 L349.5,577.4 L352.9,576.6 L355.7,578.8 L357.9,576.1 L365.0,573.4 L377.4,573.0 L390.2,558.8 L391.4,558.6 L401.2,564.5 L420.2,571.8 Z">
  <desc xmlns="http://www.highcharts.com/svg/namespace">
    <name>Røros</name>
    <hc-key>no-td-5025</hc-key>
    <hc-a2>RØ</hc-a2>
  </desc>
</path>

<path fill="#CEE3F5" stroke="#6E6E6E" stroke-width="0.4" id="NO.TD.5033" d="M369.0,476.7 L400.7,471.9 L413.8,474.0 L433.6,516.3 L419.3,540.0 L427.7,576.1 L420.2,571.8 L401.2,564.5 L391.4,558.6 L387.9,543.3 L375.6,544.1 L372.8,547.0 L366.5,547.7 L358.0,537.9 L353.1,525.8 L332.3,519.8 L335.8,508.0 L340.9,500.4 L342.0,494.4 L346.7,496.1 L348.7,493.3 L354.2,493.6 L361.8,487.6 L369.4,485.2 Z">
  <desc xmlns="http://www.highcharts.com/svg/namespace">
    <name>Tydal</name>
    <hc-key>no-td-5033</hc-key>
    <hc-a2>TY</hc-a2>
  </desc>
</path>

<path fill="#CEE3F5" stroke="#6E6E6E" stroke-width="0.4" id="NO.TD.5043" d="M548.4,12.1 L556.3,9.8 L563.3,9.7 L568.5,7.5 L578.2,6.7 L579.7,4.6 L585.9,3.5 L591.2,4.9 L600.8,0.0 L603.7,1.7 L609.7,1.1 L614.4,4.6 L617.2,3.4 L600.5,38.0 L596.0,47.8 L583.6,76.4 L564.8,83.1 L546.6,92.2 L544.0,92.7 L529.6,103.0 L530.9,109.8 L527.9,113.4 L526.2,117.3 L520.8,136.2 L518.6,137.3 L515.5,143.8 L504.3,157.5 L505.2,124.2 L501.2,119.5 L495.8,99.9 L498.8,98.0 L509.6,98.7 L508.2,90.8 L523.9,56.2 L528.9,35.2 L529.5,28.2 L540.2,21.5 L544.4,16.8 L547.0,15.8 Z">
  <desc xmlns="http://www.highcharts.com/svg/namespace">
    <name>Røyrvik</name>
    <hc-key>no-td-5043</hc-key>
    <hc-a2>RØ</hc-a2>
  </desc>
</path>

<path fill="#CEE3F5" stroke="#6E6E6E" stroke-width="0.4" id="NO.TD.5036" d="M285.8,380.8 L279.7,383.1 L274.7,387.2 L270.7,387.8 L264.7,393.4 L266.0,386.6 L268.0,385.1 L268.8,381.4 L273.0,375.2 L276.3,372.8 L282.2,370.5 L284.2,368.6 L287.2,362.8 L292.9,371.8 L287.8,375.4 L288.5,378.1 Z">
  <desc xmlns="http://www.highcharts.com/svg/namespace">
    <name>Frosta</name>
    <hc-key>no-td-5036</hc-key>
    <hc-a2>FR</hc-a2>
  </desc>
</path>

<path fill="#CEE3F5" stroke="#6E6E6E" stroke-width="0.4" id="NO.TD.5021" d="M198.4,628.2 L202.1,641.1 L208.9,658.8 L193.0,666.2 L193.3,669.9 L191.3,676.1 L187.6,678.7 L180.9,674.7 L179.0,678.9 L182.5,682.2 L180.5,682.3 L181.0,685.8 L179.7,689.5 L176.6,692.2 L167.8,693.5 L155.1,700.0 L145.5,694.8 L142.4,691.7 L128.5,685.6 L99.7,675.0 L95.8,672.8 L100.5,670.5 L104.6,666.7 L109.1,660.0 L110.7,655.1 L109.1,652.6 L112.7,638.0 L115.5,629.5 L113.0,625.1 L105.6,625.6 L102.7,622.4 L101.1,617.9 L90.3,604.1 L87.0,604.6 L80.4,592.9 L87.5,585.8 L95.2,584.7 L97.3,581.6 L100.2,582.9 L104.9,582.3 L128.4,573.4 L130.9,571.2 L134.4,568.2 L144.7,570.5 L149.7,574.0 L149.9,577.2 L154.5,580.3 L160.7,587.4 L167.5,592.0 L168.6,587.6 L171.2,586.1 L174.4,588.0 L176.2,590.9 L181.8,591.2 L185.2,589.4 L187.3,590.9 L188.6,595.1 L191.0,595.9 L189.7,600.5 L195.4,604.5 L193.8,610.3 Z">
  <desc xmlns="http://www.highcharts.com/svg/namespace">
    <name>Oppdal</name>
    <hc-key>no-td-5021</hc-key>
    <hc-a2>OP</hc-a2>
  </desc>
</path>

<path fill="#CEE3F5" stroke="#6E6E6E" stroke-width="0.4" id="NO.TD.5029" d="M183.9,446.2 L187.6,443.7 L192.6,438.6 L196.2,438.9 L199.8,441.1 L205.4,447.4 L209.6,448.0 L216.2,446.6 L219.4,449.6 L216.8,454.8 L215.1,455.7 L216.9,459.3 L213.7,465.7 L211.5,467.2 L211.1,474.4 L208.9,474.3 L206.2,477.6 L205.3,475.2 L195.1,483.1 L191.7,484.8 L186.8,482.9 L186.9,472.4 L184.3,470.9 L183.5,467.5 L184.0,461.3 L186.7,454.5 L184.3,455.0 Z">
  <desc xmlns="http://www.highcharts.com/svg/namespace">
    <name>Skaun</name>
    <hc-key>no-td-5029</hc-key>
    <hc-a2>SK</hc-a2>
  </desc>
</path>

<path fill="#CEE3F5" stroke="#6E6E6E" stroke-width="0.4" id="NO.TD.5060" d="M343.3,109.5 L346.7,109.3 L349.6,110.6 L352.3,109.5 L350.1,107.9 L350.1,105.3 L345.7,103.4 L369.4,98.6 L374.4,93.9 L364.0,94.4 L364.7,92.8 L354.3,90.0 L357.6,87.6 L368.6,86.3 L368.3,81.2 L361.7,85.3 L358.2,86.4 L354.7,85.1 L360.4,81.3 L362.0,77.0 L365.9,73.8 L370.7,72.2 L380.6,64.7 L388.0,63.1 L394.9,55.8 L411.2,59.8 L407.1,55.3 L402.7,53.2 L393.7,52.8 L386.8,57.8 L379.8,59.0 L363.1,73.5 L351.2,79.1 L350.4,80.9 L351.9,85.3 L344.7,91.1 L337.8,93.5 L333.0,103.2 L328.3,107.6 L316.7,112.3 L314.3,111.0 L321.4,107.0 L326.3,103.2 L332.9,92.5 L324.6,95.3 L320.1,91.5 L315.4,92.9 L313.0,91.6 L314.9,88.0 L317.8,86.3 L341.9,81.1 L355.7,73.3 L358.8,68.7 L356.3,68.8 L349.4,74.1 L314.0,83.3 L316.1,80.4 L329.1,67.5 L334.0,67.3 L340.4,72.7 L344.6,72.4 L348.5,67.7 L346.7,66.8 L344.0,70.3 L341.3,70.4 L336.6,64.8 L338.3,62.8 L344.7,59.6 L352.3,61.1 L350.2,57.8 L351.4,56.3 L354.9,59.2 L359.7,58.0 L366.0,53.2 L371.7,50.6 L368.6,47.9 L369.4,43.3 L374.9,37.4 L381.7,32.2 L385.1,30.6 L388.7,33.5 L389.3,39.6 L391.2,36.1 L392.8,42.9 L396.5,46.3 L399.4,45.1 L399.9,43.0 L402.8,41.5 L406.4,47.1 L406.3,49.9 L408.8,52.1 L413.1,52.2 L416.1,54.8 L426.9,46.8 L433.2,47.2 L438.9,49.4 L444.1,46.0 L446.1,46.7 L440.1,58.5 L430.3,66.8 L427.2,63.2 L421.7,61.1 L420.2,68.6 L418.1,72.8 L417.0,77.6 L417.4,81.9 L414.1,83.1 L414.4,89.9 L411.6,89.4 L409.9,91.6 L404.7,86.5 L401.7,84.9 L399.2,87.8 L394.9,87.8 L390.7,89.8 L390.9,93.5 L387.8,98.0 L380.9,100.1 L379.4,102.3 L367.3,104.9 L359.9,111.3 L359.2,113.8 L353.9,113.6 Z M297.7,62.0 L300.4,61.8 L305.6,64.8 L309.8,71.3 L315.8,73.6 L311.2,81.5 L307.2,85.7 L302.9,88.1 L297.7,89.0 L298.3,85.6 L294.1,84.0 L297.4,79.8 L298.4,76.3 L297.3,74.3 L289.7,74.5 L283.4,80.3 L280.1,84.5 L277.4,85.9 L272.2,86.4 L272.1,84.7 Z M279.0,72.5 L273.4,80.0 L271.0,82.1 L263.3,86.7 L263.9,83.5 L260.5,83.6 L262.4,81.5 L264.2,74.0 L267.4,69.1 L276.1,68.0 L281.3,64.5 L285.1,60.7 L291.8,56.9 L291.8,53.3 L294.4,52.7 L297.7,54.1 L300.1,56.6 L299.1,57.9 L285.5,69.9 Z M276.1,55.7 L273.4,58.4 L274.2,59.8 L270.8,63.9 L267.0,58.8 L262.2,59.1 L265.5,55.7 L264.7,53.8 L270.1,52.9 L272.1,54.6 L274.3,53.7 L277.7,52.4 L278.5,55.4 L280.6,51.7 L284.1,55.3 L283.3,57.8 L280.4,57.7 L276.2,60.1 L275.1,58.7 Z">
  <desc xmlns="http://www.highcharts.com/svg/namespace">
    <name>Nærøysund</name>
    <hc-key>no-td-5060</hc-key>
    <hc-a2>NÆ</hc-a2>
  </desc>
</path>

<path fill="#CEE3F5" stroke="#6E6E6E" stroke-width="0.4" id="NO.TD.5007" d="M297.8,156.6 L299.7,162.6 L302.2,163.1 L309.2,170.4 L310.4,172.8 L309.1,180.6 L311.4,181.5 L317.4,178.8 L322.4,179.3 L327.4,183.3 L325.5,191.1 L320.5,198.9 L316.4,209.4 L318.7,208.6 L323.7,197.9 L331.4,191.3 L332.5,189.4 L329.7,188.0 L334.2,178.2 L338.7,180.9 L341.0,177.9 L345.3,175.3 L354.6,173.3 L357.4,171.5 L356.7,178.5 L357.9,179.9 L357.6,185.9 L359.3,186.0 L360.6,191.4 L360.4,208.2 L371.4,216.5 L361.8,224.5 L349.7,229.2 L344.3,232.1 L340.4,235.4 L337.2,236.4 L332.5,240.4 L332.5,244.4 L331.1,245.8 L320.5,249.2 L317.9,252.5 L314.0,252.7 L309.8,254.2 L309.3,252.4 L306.4,252.7 L301.2,251.6 L282.8,263.5 L281.3,260.0 L272.9,259.9 L267.9,245.2 L282.4,237.7 L285.1,232.3 L286.3,220.4 L293.0,210.2 L294.2,204.3 L296.1,200.9 L301.3,201.5 L303.3,199.7 L302.5,196.6 L302.6,189.7 L301.3,186.9 L295.3,188.8 L295.6,184.1 L300.1,180.4 L297.0,177.9 L294.3,173.6 L293.6,170.0 L295.5,165.1 L295.1,158.1 Z M327.7,137.0 L328.1,135.4 L330.9,140.9 L330.9,137.3 L338.7,146.6 L340.4,153.5 L336.1,155.1 L335.7,156.9 L327.2,152.0 L326.5,149.8 L328.8,145.7 Z M357.1,171.0 L336.9,174.9 L338.8,164.1 L340.2,162.6 L346.7,161.4 L343.0,155.2 L349.8,153.1 L347.3,156.6 L349.6,157.5 L358.1,149.6 L367.4,145.4 L370.3,142.6 L358.1,143.7 L355.9,146.6 L354.6,144.3 L355.3,139.4 L352.9,135.8 L350.7,137.3 L347.3,142.1 L351.6,143.4 L350.0,148.6 L347.1,150.3 L343.9,149.3 L336.0,136.9 L333.6,134.8 L333.8,131.2 L331.5,128.5 L330.7,123.3 L333.1,123.1 L333.4,120.8 L330.5,118.3 L332.9,116.5 L338.8,115.0 L343.3,109.5 L353.9,113.6 L359.2,113.8 L359.9,111.3 L367.3,104.9 L379.4,102.3 L380.9,100.1 L387.8,98.0 L390.9,93.5 L390.7,89.8 L394.9,87.8 L399.2,87.8 L401.7,84.9 L404.7,86.5 L409.9,91.6 L407.3,93.3 L412.2,96.7 L410.6,100.0 L410.9,102.8 L408.1,111.5 L394.0,122.4 L380.2,133.1 L383.9,144.3 L381.7,149.0 L375.8,151.7 L375.1,153.3 L367.7,155.3 L364.7,155.3 L364.0,152.8 L362.2,156.5 L360.4,157.0 L359.3,161.2 L354.8,163.2 L353.3,165.3 L356.2,166.8 Z M295.7,144.7 L295.5,137.5 L297.7,132.5 L299.7,132.3 L305.5,137.1 L314.5,141.4 L318.7,145.7 L320.7,153.5 L323.5,157.9 L335.0,157.5 L337.8,163.2 L336.6,165.2 L334.7,173.3 L332.0,171.1 L324.3,170.1 L320.8,164.3 L317.1,163.9 L310.4,166.0 L304.7,154.8 L305.9,151.1 L308.8,150.4 L314.4,151.2 L310.8,145.2 L300.0,147.3 Z M309.3,130.7 L307.9,130.2 L309.6,126.8 L321.3,122.1 L322.7,124.7 L325.4,125.3 L326.8,127.7 L326.4,131.5 L325.6,138.8 L323.0,143.8 L319.6,141.1 L315.9,134.7 L313.4,136.2 L308.6,135.4 Z">
  <desc xmlns="http://www.highcharts.com/svg/namespace">
    <name>Namsos</name>
    <hc-key>no-td-5007</hc-key>
    <hc-a2>NA</hc-a2>
  </desc>
</path>

<path fill="#CEE3F5" stroke="#6E6E6E" stroke-width="0.4" id="NO.TD.5046" d="M459.9,54.0 L462.0,58.7 L460.3,63.8 L461.4,71.0 L457.1,71.9 L451.4,75.1 L443.6,76.2 L441.7,78.8 L448.7,84.6 L442.9,91.1 L443.8,96.1 L443.1,109.4 L449.1,111.2 L445.5,115.2 L444.6,118.6 L441.6,121.1 L440.8,125.3 L438.3,127.8 L442.9,130.6 L438.0,135.2 L433.1,141.3 L429.8,143.1 L426.8,149.0 L416.9,153.9 L416.4,156.7 L413.7,157.3 L410.5,154.1 L409.3,150.9 L404.3,152.4 L402.9,149.3 L402.2,140.8 L399.3,135.8 L397.7,135.5 L394.0,122.4 L408.1,111.5 L410.9,102.8 L410.6,100.0 L412.2,96.7 L407.3,93.3 L409.9,91.6 L411.6,89.4 L414.4,89.9 L414.1,83.1 L417.4,81.9 L417.0,77.6 L418.1,72.8 L420.2,68.6 L421.7,61.1 L427.2,63.2 L430.3,66.8 L440.1,58.5 L446.1,46.7 L447.0,52.4 L451.5,57.6 L454.0,55.9 Z">
  <desc xmlns="http://www.highcharts.com/svg/namespace">
    <name>Høylandet</name>
    <hc-key>no-td-5046</hc-key>
    <hc-a2>HØ</hc-a2>
  </desc>
</path>
</g>

<text x="350" y="714" text-anchor="middle" font-family="Verdana" font-size="8" stroke-opacity="0.6">Copyright (c) 2020 Highsoft AS, Based on data from Kartverket</text>

</svg>