<?xml version="1.0" encoding="utf-8" standalone="no"?>
<!DOCTYPE svg PUBLIC "-//W3C//DTD SVG 1.1//EN" "http://www.w3.org/Graphics/SVG/1.1/DTD/svg11.dtd">

<svg version="1.1" height="700pt" width="700pt" xmlns="http://www.w3.org/2000/svg" xmlns:xlink="http://www.w3.org/1999/xlink">
<desc>
Map version: 2.1.0
Copyright (c) 2023 Highsoft AS, Based on data from Kartverket
</desc>
<title>Vestland</title>
<g id="admin2">

<g id="NO.VL">
  <desc xmlns="http://www.highcharts.com/svg/namespace">
    <labelrank>7</labelrank>
    <iso_3166_2>NO-46</iso_3166_2>
    <hasc>NO.VL</hasc>
    <alt-name>Vestland fylke</alt-name>
    <country>Norway</country>
    <type-en>County</type-en>
    <region>NULL</region>
    <woe-id>2346390</woe-id>
    <longitude>6.89657</longitude>
    <subregion>NULL</subregion>
    <woe-name>Vestland</woe-name>
    <fips>NO07</fips>
    <latitude>60.1134</latitude>
    <woe-label>Vestland Fylke, NO, Norway</woe-label>
    <postal-code>VL</postal-code>
    <type>Fylke</type>
    <name>Vestland</name>
    <hc-key>no-vl</hc-key>
    <hc-a2>VE</hc-a2>
  </desc>
</g>

<g id="NO">
  <desc xmlns="http://www.highcharts.com/svg/namespace">
    <name>Norway</name>
    <labelrank>3</labelrank>
    <country-abbrev>Nor.</country-abbrev>
    <subregion>Northern Europe</subregion>
    <region-wb>Europe &amp; Central Asia</region-wb>
    <iso-a3>NOR</iso-a3>
    <iso-a2>NO</iso-a2>
    <woe-id>-90</woe-id>
    <continent>Europe</continent>
    <hc-key>no</hc-key>
    <hc-a2>NO</hc-a2>
  </desc>
</g>

<path fill="#CEE3F5" stroke="#6E6E6E" stroke-width="0.4" id="NO.VL.4625" d="M40.9,528.5 L40.6,532.0 L37.1,533.3 L37.8,536.0 L34.3,534.5 L34.8,529.8 Z M66.5,529.1 L66.5,529.2 L66.4,528.8 Z M42.7,573.1 L39.9,566.8 L44.8,563.1 L50.6,561.0 L52.7,561.8 L55.0,568.9 L53.0,571.6 Z M59.0,564.7 L53.9,561.4 L53.3,556.8 L50.5,553.5 L51.5,547.9 L54.9,543.0 L56.8,554.9 L59.8,552.7 L57.8,548.5 L55.3,538.2 L57.1,535.4 L60.7,540.7 L61.8,546.6 L63.6,544.6 L65.7,547.2 L66.6,553.2 L65.9,559.2 L63.4,562.9 L61.8,567.3 L59.9,567.6 Z">
  <desc xmlns="http://www.highcharts.com/svg/namespace">
    <name>Austevoll</name>
    <hc-key>no-vl-4625</hc-key>
    <hc-a2>AU</hc-a2>
  </desc>
</path>

<path fill="#CEE3F5" stroke="#6E6E6E" stroke-width="0.4" id="NO.VL.4633" d="M1.2,360.1 L3.6,362.5 L6.2,362.3 L7.7,367.3 L5.5,370.4 L2.0,370.2 Z">
  <desc xmlns="http://www.highcharts.com/svg/namespace">
    <name>Fedje</name>
    <hc-key>no-vl-4633</hc-key>
    <hc-a2>FE</hc-a2>
  </desc>
</path>

<path fill="#CEE3F5" stroke="#6E6E6E" stroke-width="0.4" id="NO.VL.4645" d="M31.0,216.0 L31.8,218.3 L27.9,222.0 L26.9,219.6 L27.8,217.0 Z M93.5,187.8 L86.0,188.4 L83.7,186.2 L87.2,187.3 Z M103.0,189.0 L102.1,188.6 L103.0,188.6 Z M108.0,196.4 L106.5,196.4 L103.9,193.5 L106.3,194.6 Z M96.6,217.4 L96.3,217.4 L88.6,217.3 L86.8,218.0 L68.8,219.1 L64.1,223.0 L59.7,225.5 L55.3,226.6 L52.7,225.2 L49.3,220.1 L48.2,216.4 L48.8,212.6 L52.8,206.5 L54.8,206.3 L56.6,213.6 L58.6,211.6 L59.1,204.6 L64.1,203.4 L63.5,199.6 L61.0,202.2 L53.2,202.7 L48.2,203.7 L43.1,203.7 L43.2,202.1 L57.0,195.8 L70.1,194.9 L73.3,191.5 L72.5,189.5 L77.0,190.9 L82.7,194.5 L88.1,196.3 L91.6,192.5 L109.0,202.0 L113.3,202.6 L116.3,200.9 L117.3,203.7 L101.3,205.3 L99.7,208.2 L100.1,214.5 L98.2,215.1 Z M68.7,227.5 L70.2,223.4 L71.4,223.2 L70.3,227.4 Z M9.5,230.1 L10.9,227.0 L13.3,225.0 L15.5,226.3 L16.2,229.7 L19.3,231.2 L20.6,233.5 L11.2,233.3 Z">
  <desc xmlns="http://www.highcharts.com/svg/namespace">
    <name>Askvoll</name>
    <hc-key>no-vl-4645</hc-key>
    <hc-a2>AS</hc-a2>
  </desc>
</path>

<path fill="#CEE3F5" stroke="#6E6E6E" stroke-width="0.4" id="NO.VL.4611" d="M148.9,631.9 L145.7,630.2 L144.4,626.1 L144.7,626.1 Z M138.9,632.2 L140.3,630.3 L144.0,635.5 L150.5,638.1 L159.0,634.8 L163.6,635.2 L170.3,626.3 L173.5,623.8 L178.7,620.5 L181.1,616.0 L191.0,613.1 L193.7,609.7 L185.0,612.0 L171.1,620.0 L169.4,617.3 L170.9,613.2 L169.4,608.3 L181.0,601.2 L183.4,595.7 L181.8,593.2 L183.6,591.8 L187.5,594.3 L188.2,591.4 L192.6,585.0 L194.9,573.8 L198.1,567.9 L209.4,577.8 L213.4,584.6 L216.1,586.7 L218.7,593.0 L217.6,594.7 L219.3,597.6 L218.8,603.7 L219.7,604.7 L221.0,615.0 L215.9,619.2 L210.0,622.6 L207.7,626.7 L195.1,628.3 L194.7,630.7 L191.7,631.8 L187.7,638.6 L186.6,648.0 L180.9,650.7 L179.0,659.9 L176.4,662.7 L174.0,670.1 L175.3,672.3 L174.3,677.5 L165.9,677.3 L162.3,674.6 L158.4,673.7 L156.2,675.4 L151.8,674.1 L151.2,676.7 L146.6,678.1 L146.8,673.3 L141.1,669.9 L137.9,669.3 L137.0,665.7 L129.7,663.8 L128.6,659.5 L125.0,659.9 L122.9,658.3 L128.2,656.8 L135.8,658.0 L136.1,652.6 L124.2,656.2 L122.2,655.8 L121.6,647.6 L125.9,643.5 L128.3,638.8 L136.2,637.6 L138.7,635.0 Z">
  <desc xmlns="http://www.highcharts.com/svg/namespace">
    <name>Etne</name>
    <hc-key>no-vl-4611</hc-key>
    <hc-a2>ET</hc-a2>
  </desc>
</path>

<path fill="#CEE3F5" stroke="#6E6E6E" stroke-width="0.4" id="NO.VL.4612" d="M81.5,639.5 L85.2,635.7 L86.3,635.1 L85.4,638.0 L87.8,641.6 L87.6,651.4 L86.5,656.8 L83.8,664.1 L84.5,672.9 L83.8,677.3 L80.6,679.7 L79.0,683.1 L74.5,683.7 L73.1,689.0 L74.0,693.5 L77.4,690.1 L85.9,686.8 L88.9,681.7 L90.6,675.9 L91.2,670.4 L89.4,665.3 L92.6,655.8 L91.2,665.9 L92.2,678.9 L87.9,684.8 L86.4,689.6 L84.5,690.8 L81.5,689.6 L79.7,691.0 L79.8,695.3 L70.2,696.7 L71.7,698.6 L68.1,698.2 L67.9,695.5 L65.3,698.0 L60.0,700.0 L57.3,696.8 L44.4,689.0 L44.5,688.4 L47.9,686.4 L51.7,686.8 L51.8,685.2 L46.6,683.0 L46.7,681.3 L51.6,678.1 L59.0,668.0 L61.1,661.1 L66.6,656.5 L69.7,655.3 L72.0,656.3 L72.8,659.3 L73.4,667.6 L74.8,670.5 L75.3,666.2 L77.1,662.8 L76.1,656.5 L74.1,651.2 L75.9,646.3 Z">
  <desc xmlns="http://www.highcharts.com/svg/namespace">
    <name>Sveio</name>
    <hc-key>no-vl-4612</hc-key>
    <hc-a2>SV</hc-a2>
  </desc>
</path>

<path fill="#CEE3F5" stroke="#6E6E6E" stroke-width="0.4" id="NO.VL.4650" d="M189.4,99.2 L186.9,98.5 L185.7,97.3 L187.6,97.7 Z M157.6,99.0 L167.7,97.8 L170.4,101.2 L167.4,115.2 L163.8,123.1 L163.5,126.2 L169.1,118.8 L170.8,114.1 L172.4,105.8 L173.5,103.0 L175.9,102.0 L178.1,103.2 L183.7,109.3 L188.1,117.0 L191.0,119.4 L198.0,120.6 L196.9,117.0 L193.0,114.6 L187.8,107.0 L183.7,104.3 L183.8,102.4 L212.0,103.6 L213.2,104.2 L212.0,110.2 L214.9,113.3 L219.4,115.1 L220.9,114.1 L228.8,116.0 L235.2,116.7 L243.8,120.6 L248.6,121.3 L251.7,120.0 L258.4,114.0 L265.8,115.6 L267.9,120.0 L266.4,123.7 L264.1,124.4 L260.8,130.2 L262.4,135.9 L262.5,139.7 L260.7,141.2 L258.8,145.7 L253.8,150.2 L248.0,151.9 L246.9,155.1 L242.6,155.9 L240.2,151.4 L238.6,152.2 L232.2,151.5 L226.2,152.4 L223.7,155.2 L219.8,163.5 L212.9,160.5 L214.8,157.4 L212.0,153.7 L212.2,152.3 L208.7,151.9 L206.6,153.6 L203.2,153.4 L199.7,150.9 L190.0,151.1 L188.7,153.1 L183.4,154.2 L178.1,152.4 L171.1,151.5 L169.3,153.6 L158.6,157.7 L154.2,156.1 L147.8,158.4 L145.3,162.0 L139.4,164.1 L133.4,163.0 L132.4,156.9 L131.3,155.6 L131.7,150.0 L138.8,137.7 L138.7,135.8 L134.4,130.9 L131.8,123.8 L138.0,124.1 L146.0,122.7 L150.4,123.8 L157.4,118.7 L161.8,106.5 Z">
  <desc xmlns="http://www.highcharts.com/svg/namespace">
    <name>Gloppen</name>
    <hc-key>no-vl-4650</hc-key>
    <hc-a2>GL</hc-a2>
  </desc>
</path>

<path fill="#CEE3F5" stroke="#6E6E6E" stroke-width="0.4" id="NO.VL.4615" d="M62.3,605.4 L61.9,605.2 L58.5,597.9 L59.5,592.7 L58.2,589.0 L63.4,582.0 L64.9,578.7 L62.2,576.3 L66.1,571.9 L68.9,572.4 L71.1,575.7 L76.6,577.6 L80.5,582.8 L84.5,593.5 L79.7,600.1 L77.9,606.5 L76.0,609.0 L73.4,607.8 L70.0,610.1 L69.2,615.3 L65.8,615.4 L63.9,611.9 L62.9,609.8 L62.6,608.6 Z M82.2,579.3 L79.4,577.8 L75.9,574.1 Z M88.9,587.7 L88.8,585.5 L90.3,587.1 Z">
  <desc xmlns="http://www.highcharts.com/svg/namespace">
    <name>Fitjar</name>
    <hc-key>no-vl-4615</hc-key>
    <hc-a2>FI</hc-a2>
  </desc>
</path>

<path fill="#CEE3F5" stroke="#6E6E6E" stroke-width="0.4" id="NO.VL.4613" d="M62.3,605.4 L62.6,608.1 L62.6,608.6 L61.9,605.2 Z M66.6,622.3 L64.7,620.0 L62.9,609.8 L63.9,611.9 L65.8,615.4 Z M75.9,646.3 L79.4,641.7 L81.5,639.5 Z M44.4,689.0 L44.1,689.1 L44.5,688.4 Z M37.8,661.5 L36.6,653.5 L37.8,645.1 L40.0,638.5 L43.5,632.8 L48.0,627.0 L42.5,626.9 L39.9,625.7 L39.4,621.3 L35.4,625.3 L33.7,624.2 L33.3,619.9 L34.2,617.0 L37.1,613.4 L37.6,608.8 L40.0,610.8 L41.5,607.9 L43.7,609.1 L42.9,605.7 L39.0,598.3 L42.1,596.8 L45.4,597.1 L46.8,603.5 L49.9,607.9 L53.2,609.9 L53.8,614.9 L57.9,616.3 L61.7,626.3 L64.6,629.6 L67.6,640.5 L62.7,645.4 L57.5,646.9 L63.0,642.0 L61.0,630.0 L58.5,629.3 L58.7,633.6 L57.0,633.8 L52.8,628.1 L48.6,630.5 L48.2,638.5 L47.2,641.3 L43.3,646.2 L42.3,649.4 L42.9,653.2 L49.6,646.5 L46.5,653.3 L47.9,659.1 L47.7,663.9 L45.4,667.0 L41.3,669.4 Z">
  <desc xmlns="http://www.highcharts.com/svg/namespace">
    <name>Bømlo</name>
    <hc-key>no-vl-4613</hc-key>
    <hc-a2>BØ</hc-a2>
  </desc>
</path>

<path fill="#CEE3F5" stroke="#6E6E6E" stroke-width="0.4" id="NO.VL.4617" d="M148.9,631.9 L144.7,626.1 L144.4,626.1 L144.6,622.8 L148.3,617.3 L148.1,611.0 L149.8,606.0 L146.9,607.3 L145.1,610.8 L143.8,620.7 L142.0,623.5 L138.1,625.9 L131.1,627.9 L126.0,623.3 L122.4,616.1 L115.9,610.3 L118.1,604.5 L112.6,609.3 L109.8,609.5 L108.7,606.8 L108.7,605.8 L114.8,604.1 L121.0,599.3 L121.1,592.8 L122.5,590.5 L125.4,587.1 L131.6,583.8 L136.9,582.4 L150.4,581.6 L153.0,575.5 L148.7,571.1 L157.3,556.1 L169.0,547.8 L193.9,541.3 L194.0,539.4 L190.8,539.6 L190.0,530.6 L185.2,534.7 L181.6,540.3 L183.2,537.2 L181.9,534.2 L184.9,528.3 L193.3,519.2 L198.6,518.7 L201.6,521.1 L205.2,518.4 L210.6,517.6 L218.0,519.9 L215.4,525.0 L218.8,529.9 L216.3,544.4 L206.1,556.1 L198.1,567.9 L194.9,573.8 L192.6,585.0 L188.2,591.4 L187.5,594.3 L183.6,591.8 L181.8,593.2 L183.4,595.7 L181.0,601.2 L169.4,608.3 L170.9,613.2 L169.4,617.3 L171.1,620.0 L168.8,621.3 L157.5,631.0 L152.9,632.4 Z M180.1,541.1 L173.2,543.7 L170.1,543.9 L170.6,538.0 L171.1,539.2 L177.1,541.8 Z M159.0,634.8 L173.5,623.8 L170.3,626.3 L163.6,635.2 Z M138.9,632.2 L139.0,630.9 L140.3,630.3 Z M119.6,568.3 L119.3,562.3 L118.5,559.1 L122.0,556.9 L125.0,560.7 L130.6,559.3 L133.8,553.0 L139.8,545.1 L139.8,557.0 L137.3,563.8 L133.1,567.7 L127.8,568.2 L128.9,564.6 L126.5,563.4 L124.1,571.6 Z">
  <desc xmlns="http://www.highcharts.com/svg/namespace">
    <name>Kvinnherad</name>
    <hc-key>no-vl-4617</hc-key>
    <hc-a2>KV</hc-a2>
  </desc>
</path>

<path fill="#CEE3F5" stroke="#6E6E6E" stroke-width="0.4" id="NO.VL.4616" d="M88.8,585.5 L88.0,576.9 L85.0,579.8 L82.2,579.3 L75.9,574.1 L73.7,567.8 L75.6,566.1 L85.1,566.0 L85.7,564.8 L84.2,558.9 L87.3,553.9 L90.1,555.7 L93.9,552.3 L102.3,551.1 L104.3,552.9 L106.6,549.6 L112.5,548.5 L112.8,551.7 L112.2,564.3 L111.0,568.4 L104.4,577.9 L104.4,580.9 L106.3,584.1 L108.3,590.1 L106.0,591.1 L102.2,587.9 L99.6,587.7 L92.9,593.0 L90.3,587.1 Z M118.5,559.1 L119.3,562.3 L119.6,568.3 L117.9,566.7 L116.8,561.0 L115.2,558.6 L116.4,553.3 L118.9,552.3 L118.2,556.9 Z M121.1,592.8 L121.1,592.2 L122.5,590.5 Z">
  <desc xmlns="http://www.highcharts.com/svg/namespace">
    <name>Tysnes</name>
    <hc-key>no-vl-4616</hc-key>
    <hc-a2>TY</hc-a2>
  </desc>
</path>

<path fill="#CEE3F5" stroke="#6E6E6E" stroke-width="0.4" id="NO.VL.4619" d="M268.4,452.5 L269.2,452.2 L272.1,453.2 L276.4,452.1 L277.5,450.2 L279.8,449.6 L291.1,453.6 L297.0,453.4 L300.6,446.8 L282.4,446.2 L285.3,443.8 L290.5,441.2 L296.7,441.8 L307.6,439.1 L314.0,439.2 L315.6,437.2 L315.4,432.8 L316.4,426.7 L323.3,425.3 L343.9,437.4 L362.6,440.1 L379.5,444.8 L374.3,468.9 L371.0,502.5 L362.6,515.2 L358.9,532.6 L346.3,552.0 L341.3,548.1 L331.5,545.2 L326.4,544.9 L312.8,542.2 L314.8,535.7 L313.4,527.0 L308.2,525.0 L305.6,520.2 L308.0,516.3 L306.4,513.9 L306.3,509.8 L312.7,510.6 L316.5,512.3 L315.3,506.9 L309.0,505.8 L302.9,501.2 L301.0,495.6 L299.2,493.3 L301.7,489.4 L300.8,485.8 L298.1,485.5 L296.0,487.4 L283.8,486.5 L283.7,481.6 L287.9,480.2 L288.7,476.4 L291.2,471.1 L287.8,469.1 L275.8,469.3 L272.6,461.1 L270.0,461.3 L267.3,459.2 Z">
  <desc xmlns="http://www.highcharts.com/svg/namespace">
    <name>Eidfjord</name>
    <hc-key>no-vl-4619</hc-key>
    <hc-a2>EI</hc-a2>
  </desc>
</path>

<path fill="#CEE3F5" stroke="#6E6E6E" stroke-width="0.4" id="NO.VL.4620" d="M277.5,450.2 L276.4,452.1 L272.1,453.2 L269.2,452.2 Z M261.7,454.2 L262.1,454.0 L264.8,453.3 L262.2,455.1 Z M347.4,404.6 L343.5,408.5 L356.9,409.4 L368.0,415.9 L366.0,425.3 L368.1,434.7 L372.2,440.4 L379.5,444.8 L362.6,440.1 L343.9,437.4 L323.3,425.3 L316.4,426.7 L315.4,432.8 L315.6,437.2 L314.0,439.2 L307.6,439.1 L296.7,441.8 L290.5,441.2 L285.3,443.8 L282.4,446.2 L274.7,446.0 L274.8,444.4 L277.9,443.0 L278.9,439.1 L282.8,437.7 L290.0,425.5 L286.4,424.9 L281.5,428.5 L276.7,434.0 L273.3,438.9 L269.1,446.5 L267.0,448.2 L260.3,450.1 L256.5,450.1 L255.7,450.6 L259.3,446.0 L263.7,443.4 L266.4,427.6 L264.2,424.0 L268.0,423.1 L264.9,418.8 L268.2,416.2 L271.2,406.4 L268.2,402.6 L276.3,401.5 L278.2,402.1 L280.5,396.1 L281.9,397.3 L282.4,393.4 L284.4,389.5 L284.6,386.4 L287.3,386.3 L287.2,391.8 L290.5,392.0 L292.0,394.2 L300.7,394.9 L305.1,399.1 L309.6,399.4 L311.7,397.1 L316.9,397.3 L328.4,400.4 L330.5,401.5 Z">
  <desc xmlns="http://www.highcharts.com/svg/namespace">
    <name>Ulvik</name>
    <hc-key>no-vl-4620</hc-key>
    <hc-a2>UL</hc-a2>
  </desc>
</path>

<path fill="#CEE3F5" stroke="#6E6E6E" stroke-width="0.4" id="NO.VL.4622" d="M219.8,467.5 L223.9,463.4 L225.0,463.2 L225.0,463.3 Z M184.4,495.3 L184.4,495.3 L184.5,495.3 Z M178.3,512.6 L181.4,505.7 L185.1,501.2 L185.8,498.9 L186.2,499.9 L179.1,512.8 Z M138.6,537.5 L139.4,542.3 L138.6,541.0 L138.3,539.0 Z M160.1,442.2 L161.5,440.6 L165.1,440.2 L167.3,437.8 L171.4,437.2 L172.8,439.1 L182.0,436.1 L187.6,438.0 L188.2,436.1 L194.6,437.7 L193.5,439.0 L195.2,443.6 L202.2,443.9 L208.1,442.7 L209.5,447.2 L211.5,449.8 L212.4,453.6 L217.4,451.0 L218.8,453.7 L224.0,451.8 L227.1,454.3 L222.7,457.1 L222.7,458.8 L214.4,462.2 L207.2,464.3 L200.4,471.2 L197.5,473.1 L194.1,472.7 L191.2,470.4 L186.7,461.9 L185.4,453.3 L183.3,451.5 L183.2,457.0 L186.9,468.3 L190.4,473.0 L188.2,476.5 L184.1,473.9 L180.6,476.3 L176.6,476.2 L174.7,477.4 L176.6,479.1 L183.4,481.1 L182.1,485.0 L178.3,489.6 L176.7,493.2 L179.1,498.6 L176.1,506.6 L171.6,508.7 L163.2,502.1 L160.7,501.2 L158.0,503.1 L154.0,515.1 L149.2,521.7 L145.4,528.7 L139.7,528.3 L139.2,526.0 L143.6,521.7 L147.7,519.4 L146.7,516.2 L149.0,512.6 L151.5,505.1 L153.1,503.5 L153.6,495.4 L150.5,489.3 L147.6,487.1 L150.0,485.1 L150.9,481.4 L149.1,473.6 L149.7,466.4 L153.1,460.2 L155.2,453.8 L157.5,451.8 L159.9,445.2 Z">
  <desc xmlns="http://www.highcharts.com/svg/namespace">
    <name>Kvam</name>
    <hc-key>no-vl-4622</hc-key>
    <hc-a2>KV</hc-a2>
  </desc>
</path>

<path fill="#CEE3F5" stroke="#6E6E6E" stroke-width="0.4" id="NO.VL.4624" d="M138.6,541.0 L139.4,542.3 L139.8,545.1 L133.8,553.0 L130.6,559.3 L125.0,560.7 L122.0,556.9 L118.5,559.1 L118.2,556.9 L118.9,552.3 L125.0,553.9 L129.6,549.9 L130.7,545.4 L125.5,545.2 L123.5,548.0 L120.8,547.6 L118.4,542.4 L121.8,538.9 L122.4,535.3 L119.8,528.0 L120.3,523.9 L122.6,521.4 L131.2,517.3 L131.3,515.6 L127.1,515.7 L122.0,517.3 L117.1,520.1 L113.4,523.6 L112.8,528.7 L111.0,530.8 L108.4,530.1 L105.2,532.8 L102.6,532.0 L99.2,526.4 L103.3,523.0 L103.9,520.1 L102.4,515.9 L107.0,515.7 L116.1,510.8 L121.1,509.7 L121.1,508.1 L110.5,507.9 L107.1,509.0 L112.6,501.1 L112.0,498.9 L109.7,498.9 L105.9,505.2 L103.8,507.2 L104.4,502.8 L107.8,499.5 L109.9,494.8 L111.5,495.4 L113.4,488.1 L113.5,487.8 L116.7,488.2 L119.8,484.4 L120.5,486.0 L124.0,485.9 L126.7,479.6 L129.6,481.5 L129.3,486.4 L138.3,485.8 L139.4,486.5 L147.6,487.1 L150.5,489.3 L153.6,495.4 L153.1,503.5 L151.5,505.1 L149.0,512.6 L146.7,516.2 L147.7,519.4 L143.6,521.7 L139.2,526.0 L139.7,528.3 L138.2,531.7 L138.6,537.5 Z M66.4,528.8 L65.9,526.7 L68.7,525.4 L71.9,521.3 L74.4,524.5 L71.7,531.0 L68.4,527.0 L66.5,529.1 Z M106.4,488.7 L106.3,488.9 L106.1,490.0 L104.9,491.5 L105.0,494.5 L103.9,496.1 L98.4,509.2 L97.8,512.3 L90.8,519.6 L86.0,523.2 L84.4,525.6 L81.8,533.5 L79.0,529.9 L74.7,526.8 L77.4,525.2 L77.5,523.3 L71.1,519.9 L69.1,517.6 L72.0,514.0 L75.5,512.7 L73.2,510.3 L77.4,510.1 L80.9,505.2 L90.8,499.6 L94.3,493.8 L97.9,496.3 L98.7,492.0 L103.1,484.8 L105.6,484.0 L106.7,484.4 Z">
  <desc xmlns="http://www.highcharts.com/svg/namespace">
    <name>Bjørnafjorden</name>
    <hc-key>no-vl-4624</hc-key>
    <hc-a2>BJ</hc-a2>
  </desc>
</path>

<path fill="#CEE3F5" stroke="#6E6E6E" stroke-width="0.4" id="NO.VL.4623" d="M109.9,494.8 L113.1,488.4 L113.4,488.1 L111.5,495.4 Z M106.1,490.0 L105.3,494.2 L105.0,494.5 L104.9,491.5 Z M106.4,488.7 L106.7,484.4 L105.6,484.0 L107.6,481.0 L106.6,471.7 L110.4,466.9 L114.9,465.7 L116.8,461.7 L120.8,460.1 L120.9,457.6 L128.0,456.1 L128.1,454.7 L131.6,453.3 L134.2,454.6 L135.7,451.3 L140.4,450.6 L145.8,447.0 L146.4,442.1 L151.0,435.8 L157.1,438.5 L160.1,442.2 L159.9,445.2 L157.5,451.8 L155.2,453.8 L153.1,460.2 L149.7,466.4 L149.1,473.6 L150.9,481.4 L150.0,485.1 L147.6,487.1 L139.4,486.5 L138.3,485.8 L129.3,486.4 L129.6,481.5 L126.7,479.6 L124.0,485.9 L120.5,486.0 L119.8,484.4 L116.7,488.2 L113.5,487.8 L116.5,479.8 L119.6,476.3 L124.2,474.5 L126.7,469.1 L124.3,469.6 L116.7,475.1 L113.9,479.8 L113.3,474.5 L108.5,483.1 Z">
  <desc xmlns="http://www.highcharts.com/svg/namespace">
    <name>Samnanger</name>
    <hc-key>no-vl-4623</hc-key>
    <hc-a2>SA</hc-a2>
  </desc>
</path>

<path fill="#CEE3F5" stroke="#6E6E6E" stroke-width="0.4" id="NO.VL.4634" d="M90.1,387.3 L88.4,386.2 L84.9,381.9 L83.5,376.5 L74.7,375.2 L69.2,370.8 L69.0,367.6 L72.7,363.6 L75.4,362.0 L81.1,360.7 L84.0,359.0 L82.7,352.1 L85.2,348.9 L94.7,345.2 L100.9,347.5 L104.6,346.5 L108.0,344.3 L104.2,343.7 L101.0,341.6 L100.0,338.6 L103.3,335.3 L100.3,335.7 L91.0,341.8 L84.5,342.5 L81.7,344.8 L80.2,350.8 L76.9,356.1 L70.1,357.2 L63.8,354.1 L61.7,347.1 L60.9,353.1 L58.8,357.1 L56.1,356.4 L58.1,351.3 L57.4,345.5 L60.2,343.9 L62.1,340.0 L61.2,337.5 L63.6,334.0 L66.1,333.5 L70.1,329.3 L71.6,330.1 L76.4,329.0 L79.9,325.7 L82.7,333.6 L90.3,333.5 L94.2,330.2 L101.4,329.0 L102.0,332.2 L107.9,330.1 L114.4,323.4 L119.6,318.9 L123.3,318.5 L125.5,322.7 L130.1,324.8 L133.2,320.9 L142.0,317.9 L143.2,320.2 L148.8,326.8 L149.7,326.9 L148.0,334.2 L144.9,336.0 L143.2,342.1 L139.8,345.4 L138.4,343.5 L133.4,348.5 L132.2,347.7 L128.5,351.4 L124.5,352.1 L120.7,357.1 L116.8,358.5 L110.1,366.9 L103.7,364.2 L99.2,368.2 L99.3,371.2 L101.0,374.0 L98.7,374.3 L100.9,378.4 L100.4,383.2 L94.8,386.5 L93.4,385.6 Z">
  <desc xmlns="http://www.highcharts.com/svg/namespace">
    <name>Masfjorden</name>
    <hc-key>no-vl-4634</hc-key>
    <hc-a2>MA</hc-a2>
  </desc>
</path>

<path fill="#CEE3F5" stroke="#6E6E6E" stroke-width="0.4" id="NO.VL.4614" d="M66.6,622.3 L65.8,615.4 L69.2,615.3 L70.0,610.1 L73.4,607.8 L76.0,609.0 L77.9,606.5 L79.7,600.1 L84.5,593.5 L88.2,603.0 L88.5,617.8 L86.2,621.6 L78.2,628.6 L74.0,628.5 L70.7,626.9 L71.7,624.2 L75.5,625.3 L76.0,621.2 L73.0,619.6 L71.3,622.7 Z M90.3,587.1 L92.9,593.0 L91.1,593.4 L88.9,587.7 Z M108.7,606.8 L108.3,605.8 L108.7,605.8 Z M85.2,635.7 L86.5,634.4 L86.3,635.1 Z M102.0,609.1 L100.7,614.9 L98.3,614.5 L96.8,608.3 L96.6,603.0 L101.2,600.6 L104.4,605.9 Z">
  <desc xmlns="http://www.highcharts.com/svg/namespace">
    <name>Stord</name>
    <hc-key>no-vl-4614</hc-key>
    <hc-a2>ST</hc-a2>
  </desc>
</path>

<path fill="#CEE3F5" stroke="#6E6E6E" stroke-width="0.4" id="NO.VL.4639" d="M294.5,309.6 L293.2,307.0 L291.8,297.0 L295.3,304.9 L294.3,307.6 Z M203.5,347.5 L198.5,343.9 L192.2,338.6 L185.6,336.1 L183.2,331.9 L184.2,323.4 L185.4,320.4 L186.9,317.1 L186.3,309.9 L188.4,303.1 L190.6,300.0 L188.5,290.3 L189.3,288.2 L196.6,290.8 L200.1,292.8 L201.4,297.2 L200.7,301.8 L197.6,304.8 L201.6,304.6 L206.5,299.6 L212.3,300.0 L213.5,303.0 L209.2,314.0 L213.4,314.2 L213.2,310.6 L215.1,305.7 L219.0,300.2 L225.6,294.7 L232.7,293.4 L235.7,291.6 L238.4,287.9 L241.0,281.9 L243.2,273.7 L248.9,278.5 L265.9,280.9 L272.0,283.9 L274.3,286.8 L274.7,294.9 L277.0,297.2 L284.2,296.5 L287.4,299.5 L289.3,308.2 L291.6,313.7 L288.7,317.0 L275.6,317.1 L266.6,320.5 L262.9,323.0 L264.5,327.4 L262.6,331.1 L259.4,333.5 L259.5,335.9 L255.7,337.0 L252.2,329.9 L248.2,329.0 L249.2,335.7 L245.7,339.1 L240.8,339.8 L237.0,345.1 L233.2,345.9 L230.9,342.7 L228.1,341.1 L230.0,338.0 L228.6,332.2 L225.9,331.4 L220.8,337.4 L214.3,335.5 L209.1,341.7 Z">
  <desc xmlns="http://www.highcharts.com/svg/namespace">
    <name>Vik</name>
    <hc-key>no-vl-4639</hc-key>
    <hc-a2>VI</hc-a2>
  </desc>
</path>

<path fill="#CEE3F5" stroke="#6E6E6E" stroke-width="0.4" id="NO.VL.4641" d="M294.5,309.6 L294.3,307.6 L295.3,304.9 L301.2,304.8 L302.1,308.9 L308.6,303.7 L313.3,303.9 L316.9,310.4 L326.5,313.7 L329.9,312.9 L333.6,310.5 L332.2,316.0 L334.8,326.1 L337.9,327.5 L343.1,325.4 L349.7,331.7 L354.0,332.6 L365.6,344.4 L371.0,351.3 L375.5,358.7 L383.4,362.9 L377.4,375.3 L379.5,376.0 L380.0,383.4 L377.1,389.0 L374.7,390.8 L366.0,387.5 L347.4,404.6 L330.5,401.5 L328.4,400.4 L316.9,397.3 L311.7,397.1 L309.6,399.4 L305.1,399.1 L300.7,394.9 L292.0,394.2 L290.5,392.0 L287.2,391.8 L287.3,386.3 L286.3,380.5 L287.5,379.1 L279.6,377.4 L273.2,378.9 L276.0,371.1 L276.5,366.7 L274.8,364.1 L281.6,364.1 L283.5,360.5 L273.0,356.3 L268.7,361.0 L261.9,362.4 L256.0,360.2 L255.2,356.7 L256.8,356.2 L259.5,350.9 L267.9,347.0 L268.3,342.0 L264.9,338.9 L261.9,341.8 L259.4,342.1 L259.5,335.9 L259.4,333.5 L262.6,331.1 L264.5,327.4 L262.9,323.0 L266.6,320.5 L275.6,317.1 L288.7,317.0 L291.6,313.7 L292.4,317.9 L287.3,324.7 L283.3,326.7 L274.9,335.7 L286.5,328.8 L292.2,327.5 L297.2,329.4 L304.8,336.0 L306.7,339.3 L306.8,343.0 L303.2,355.9 L306.5,352.5 L309.9,346.9 L311.8,340.2 L310.7,333.3 L303.3,330.9 L301.1,326.9 L296.7,313.5 Z">
  <desc xmlns="http://www.highcharts.com/svg/namespace">
    <name>Aurland</name>
    <hc-key>no-vl-4641</hc-key>
    <hc-a2>AU</hc-a2>
  </desc>
</path>

<path fill="#CEE3F5" stroke="#6E6E6E" stroke-width="0.4" id="NO.VL.4630" d="M77.1,426.6 L78.4,425.7 L78.7,425.6 L84.6,425.6 L87.6,424.5 L91.1,419.6 L96.4,415.8 L102.4,413.0 L108.7,408.5 L110.6,405.7 L114.2,399.7 L115.2,395.9 L113.9,393.2 L117.9,391.7 L121.2,392.7 L118.7,397.2 L120.6,398.9 L116.1,406.2 L118.3,410.4 L121.4,410.8 L121.5,415.9 L120.2,417.6 L114.3,420.5 L113.0,419.3 L110.3,421.3 L115.4,431.4 L120.6,432.3 L120.9,445.8 L120.1,448.0 L113.5,449.2 L111.2,455.0 L101.0,456.7 L99.1,456.4 L96.4,454.3 L94.2,451.2 L89.8,445.5 L84.9,436.1 L76.9,427.0 Z M121.9,389.0 L121.5,389.0 L121.5,388.2 Z M121.9,450.7 L124.1,448.7 L125.0,445.4 L124.9,433.4 L126.1,445.4 L125.6,450.6 Z">
  <desc xmlns="http://www.highcharts.com/svg/namespace">
    <name>Osterøy</name>
    <hc-key>no-vl-4630</hc-key>
    <hc-a2>OS</hc-a2>
  </desc>
</path>

<path fill="#CEE3F5" stroke="#6E6E6E" stroke-width="0.4" id="NO.VL.4621" d="M225.0,463.2 L225.0,463.2 L225.0,463.3 Z M235.4,460.1 L236.8,455.1 L246.1,446.4 L248.9,441.8 L242.9,443.1 L231.6,455.5 L222.7,458.8 L222.7,457.1 L227.1,454.3 L224.0,451.8 L218.8,453.7 L217.4,451.0 L212.4,453.6 L211.5,449.8 L209.5,447.2 L208.1,442.7 L202.2,443.9 L195.2,443.6 L193.5,439.0 L194.6,437.7 L188.2,436.1 L187.6,438.0 L182.0,436.1 L172.8,439.1 L171.4,437.2 L171.9,420.8 L169.1,422.3 L161.8,422.0 L158.7,423.7 L155.5,420.2 L153.5,419.8 L150.4,416.6 L150.1,410.8 L151.3,408.9 L146.4,409.3 L143.5,408.0 L144.1,402.4 L148.3,399.7 L150.9,393.6 L151.9,386.2 L154.6,382.9 L162.0,381.3 L163.5,379.2 L165.8,379.4 L165.8,381.7 L169.2,387.8 L171.5,385.0 L171.1,381.8 L173.5,382.0 L178.4,376.2 L185.5,374.2 L187.8,370.7 L190.0,375.6 L192.7,376.3 L191.0,371.4 L192.6,366.9 L200.6,362.7 L203.7,364.2 L204.3,357.8 L200.7,354.1 L203.5,347.5 L209.1,341.7 L214.3,335.5 L220.8,337.4 L225.9,331.4 L228.6,332.2 L230.0,338.0 L228.1,341.1 L230.9,342.7 L233.2,345.9 L237.0,345.1 L240.8,339.8 L245.7,339.1 L249.2,335.7 L248.2,329.0 L252.2,329.9 L255.7,337.0 L259.5,335.9 L259.4,342.1 L261.9,341.8 L264.9,338.9 L268.3,342.0 L267.9,347.0 L259.5,350.9 L256.8,356.2 L255.2,356.7 L256.0,360.2 L261.9,362.4 L268.7,361.0 L273.0,356.3 L283.5,360.5 L281.6,364.1 L274.8,364.1 L276.5,366.7 L276.0,371.1 L273.2,378.9 L279.6,377.4 L287.5,379.1 L286.3,380.5 L287.3,386.3 L284.6,386.4 L284.4,389.5 L282.4,393.4 L281.9,397.3 L280.5,396.1 L278.2,402.1 L276.3,401.5 L268.2,402.6 L271.2,406.4 L268.2,416.2 L264.9,418.8 L268.0,423.1 L264.2,424.0 L266.4,427.6 L263.7,443.4 L259.3,446.0 L255.7,450.6 L252.5,451.8 L250.1,454.9 L245.3,456.1 L239.2,454.1 L237.0,460.2 Z">
  <desc xmlns="http://www.highcharts.com/svg/namespace">
    <name>Voss</name>
    <hc-key>no-vl-4621</hc-key>
    <hc-a2>VO</hc-a2>
  </desc>
</path>

<path fill="#CEE3F5" stroke="#6E6E6E" stroke-width="0.4" id="NO.VL.4631" d="M88.4,386.2 L86.3,384.8 L84.9,381.9 Z M110.6,405.7 L112.1,395.5 L113.9,393.2 L115.2,395.9 L114.2,399.7 Z M78.4,425.7 L78.7,425.6 L78.7,425.6 Z M76.9,427.0 L76.8,426.8 L77.1,426.6 Z M43.7,362.2 L46.7,365.6 L53.2,367.3 L57.8,373.5 L61.1,376.0 L73.8,381.8 L76.6,384.5 L76.9,393.7 L78.6,399.1 L81.1,403.1 L84.1,404.5 L82.3,401.8 L81.9,397.4 L89.1,405.4 L91.7,406.6 L89.9,402.9 L84.4,394.6 L85.6,392.2 L87.4,393.1 L91.2,397.9 L92.0,395.1 L89.6,391.2 L90.1,387.3 L93.4,385.6 L94.8,386.5 L100.4,383.2 L100.9,378.4 L98.7,374.3 L101.0,374.0 L99.3,371.2 L99.2,368.2 L103.7,364.2 L110.1,366.9 L116.8,358.5 L120.7,357.1 L124.5,352.1 L128.5,351.4 L129.3,352.3 L128.5,363.2 L125.3,366.7 L122.3,374.0 L120.6,374.7 L121.6,378.8 L119.8,382.9 L116.2,385.8 L112.4,390.1 L105.1,389.7 L103.7,392.4 L104.6,404.6 L103.3,407.3 L100.5,407.5 L92.7,410.3 L83.3,418.6 L73.9,423.1 L67.8,422.0 L64.4,419.1 L57.2,408.2 L49.9,399.0 L48.5,395.4 L53.2,396.4 L57.3,399.5 L65.0,408.6 L65.8,407.1 L58.2,394.2 L49.2,383.1 L56.8,385.4 L54.5,380.0 L46.6,377.9 L42.8,374.2 L42.3,372.5 L44.9,371.3 L39.2,364.3 L39.4,361.1 L42.1,363.8 Z">
  <desc xmlns="http://www.highcharts.com/svg/namespace">
    <name>Alver</name>
    <hc-key>no-vl-4631</hc-key>
    <hc-a2>AL</hc-a2>
  </desc>
</path>

<path fill="#CEE3F5" stroke="#6E6E6E" stroke-width="0.4" id="NO.VL.4626" d="M55.7,494.8 L52.5,492.8 L54.1,484.3 L58.1,483.2 L56.1,491.6 Z M54.6,478.4 L51.5,477.4 L51.8,471.1 L54.8,467.6 L55.0,467.8 L54.6,471.7 Z M37.7,511.2 L35.8,503.5 L34.3,501.6 L33.2,507.8 L30.1,506.4 L25.0,497.5 L23.8,490.6 L24.6,489.2 L31.2,488.1 L34.9,491.1 L37.0,484.3 L34.9,485.6 L29.0,478.8 L28.3,469.7 L30.0,465.8 L28.6,462.1 L27.2,453.7 L27.9,451.5 L30.4,450.5 L32.0,452.4 L34.0,461.9 L41.9,475.8 L44.4,483.0 L44.5,488.6 L42.5,491.7 L38.4,491.3 L40.7,495.8 L44.0,500.6 L44.8,506.2 L44.8,513.6 L43.6,516.1 L37.8,515.0 Z M19.7,436.0 L19.0,431.7 L17.6,430.9 L16.4,424.2 L21.3,419.9 L21.5,422.2 L24.6,428.5 L23.7,430.8 L26.2,435.1 L24.5,437.5 L22.0,432.9 L21.5,436.3 Z M11.4,405.3 L10.8,396.8 L11.7,392.3 L15.3,395.0 L15.7,401.5 L18.0,402.5 L18.5,406.1 L17.0,407.9 L17.1,412.2 L14.1,413.4 L9.5,411.0 Z">
  <desc xmlns="http://www.highcharts.com/svg/namespace">
    <name>Øygarden</name>
    <hc-key>no-vl-4626</hc-key>
    <hc-a2>ØY</hc-a2>
  </desc>
</path>

<path fill="#CEE3F5" stroke="#6E6E6E" stroke-width="0.4" id="NO.VL.4636" d="M58.9,271.8 L51.1,267.4 L51.7,265.7 L53.9,267.1 Z M1.9,301.3 L0.0,299.2 L0.1,290.6 L3.2,288.7 L4.7,285.9 L7.3,285.4 L8.7,291.2 L8.1,294.2 L11.3,299.7 L9.8,306.7 L6.6,309.4 L6.1,306.0 L7.3,301.4 L4.5,306.4 L2.5,305.3 Z M50.8,269.1 L54.3,275.6 L54.6,280.9 L47.9,279.7 L46.9,278.0 L46.6,267.0 Z M32.3,272.9 L33.9,268.5 L33.4,264.6 L37.8,263.0 L36.2,259.4 L39.1,259.8 L41.0,263.2 L43.4,278.1 L42.9,281.9 L40.6,285.0 L35.2,288.8 L30.8,293.6 L29.1,284.9 L27.2,281.9 L21.3,289.7 L19.5,295.4 L19.0,291.2 L19.8,276.9 L19.5,269.8 L20.2,267.9 L23.1,267.7 L24.7,265.8 L26.8,274.6 L28.1,276.6 L29.4,272.9 L29.4,269.4 L27.0,257.2 L29.3,255.8 L30.5,258.1 Z">
  <desc xmlns="http://www.highcharts.com/svg/namespace">
    <name>Solund</name>
    <hc-key>no-vl-4636</hc-key>
    <hc-a2>SO</hc-a2>
  </desc>
</path>

<path fill="#CEE3F5" stroke="#6E6E6E" stroke-width="0.4" id="NO.VL.4637" d="M58.9,271.8 L53.9,267.1 L51.7,265.7 L53.3,261.2 L60.5,262.2 L73.1,268.7 L72.4,263.5 L76.8,263.7 L70.7,256.4 L67.2,253.7 L63.8,252.5 L49.0,253.7 L45.2,251.4 L53.2,249.5 L54.9,246.5 L48.4,248.5 L46.7,246.7 L47.1,245.8 L54.1,245.6 L57.5,244.6 L57.8,238.7 L63.7,239.8 L66.7,243.3 L70.3,242.7 L70.5,241.3 L80.0,238.7 L80.4,241.8 L78.8,243.3 L83.0,246.7 L84.5,249.7 L87.9,250.9 L90.6,248.4 L92.8,249.0 L93.6,252.7 L96.1,253.2 L96.4,257.0 L101.2,259.1 L100.2,263.5 L101.3,266.1 L98.4,274.2 L100.6,281.5 L97.2,285.1 L95.9,291.4 L90.9,290.9 L85.9,286.5 L81.9,278.0 L79.6,281.2 L76.9,282.6 L68.7,283.3 L64.9,277.0 L66.2,274.3 L71.1,274.8 L73.5,274.0 L65.5,270.1 L63.0,272.5 Z">
  <desc xmlns="http://www.highcharts.com/svg/namespace">
    <name>Hyllestad</name>
    <hc-key>no-vl-4637</hc-key>
    <hc-a2>HY</hc-a2>
  </desc>
</path>

<path fill="#CEE3F5" stroke="#6E6E6E" stroke-width="0.4" id="NO.VL.4618" d="M261.7,454.2 L262.2,455.1 L264.8,453.3 L268.4,452.5 L267.3,459.2 L270.0,461.3 L272.6,461.1 L275.8,469.3 L287.8,469.1 L291.2,471.1 L288.7,476.4 L287.9,480.2 L283.7,481.6 L283.8,486.5 L296.0,487.4 L298.1,485.5 L300.8,485.8 L301.7,489.4 L299.2,493.3 L301.0,495.6 L302.9,501.2 L309.0,505.8 L315.3,506.9 L316.5,512.3 L312.7,510.6 L306.3,509.8 L306.4,513.9 L308.0,516.3 L305.6,520.2 L308.2,525.0 L313.4,527.0 L314.8,535.7 L312.8,542.2 L326.4,544.9 L331.5,545.2 L341.3,548.1 L346.3,552.0 L340.3,562.5 L339.3,572.2 L331.5,576.9 L324.1,580.3 L319.7,579.6 L316.9,581.1 L312.9,585.9 L304.1,600.9 L301.2,606.7 L302.6,609.5 L300.3,613.5 L302.0,615.6 L302.3,620.0 L300.2,621.5 L300.6,624.2 L294.0,631.4 L278.6,633.7 L257.4,645.7 L251.9,649.2 L251.5,650.6 L243.4,652.6 L236.8,650.3 L236.3,646.1 L238.8,638.5 L241.6,633.2 L240.2,630.0 L241.6,617.5 L238.0,613.8 L230.9,616.5 L226.7,616.7 L222.7,613.7 L221.0,615.0 L219.7,604.7 L218.8,603.7 L219.3,597.6 L217.6,594.7 L218.7,593.0 L216.1,586.7 L213.4,584.6 L209.4,577.8 L198.1,567.9 L206.1,556.1 L216.3,544.4 L218.8,529.9 L215.4,525.0 L218.0,519.9 L210.6,517.6 L205.2,518.4 L201.6,521.1 L198.6,518.7 L193.3,519.2 L184.9,528.3 L181.9,534.2 L183.2,537.2 L181.6,540.3 L180.1,541.1 L177.1,541.8 L171.1,539.2 L170.6,538.0 L168.1,528.2 L167.2,520.5 L176.0,516.5 L178.3,512.6 L179.1,512.8 L186.2,499.9 L185.8,498.9 L185.8,498.8 L184.4,495.3 L184.5,495.3 L194.2,492.2 L198.5,486.2 L201.6,485.1 L204.2,478.7 L215.7,473.8 L219.8,467.5 L225.0,463.3 L225.0,463.2 L232.9,463.4 L241.1,467.7 L234.5,481.0 L231.6,489.3 L232.2,495.5 L226.7,504.0 L225.8,506.6 L223.9,526.0 L222.4,534.4 L221.7,545.3 L222.3,552.9 L223.2,552.9 L223.7,539.0 L224.6,531.7 L227.2,527.0 L231.5,516.4 L232.0,510.3 L231.1,504.1 L234.4,498.5 L239.3,482.7 L242.5,476.5 L248.7,472.3 L250.6,469.8 L255.0,460.5 L257.1,457.8 Z M260.3,450.1 L253.7,454.1 L245.6,462.6 L239.9,463.9 L236.9,463.1 L235.4,460.1 L237.0,460.2 L239.2,454.1 L245.3,456.1 L250.1,454.9 L252.5,451.8 L255.7,450.6 L256.5,450.1 Z">
  <desc xmlns="http://www.highcharts.com/svg/namespace">
    <name>Ullensvang</name>
    <hc-key>no-vl-4618</hc-key>
    <hc-a2>UL</hc-a2>
  </desc>
</path>

<path fill="#CEE3F5" stroke="#6E6E6E" stroke-width="0.4" id="NO.VL.4629" d="M124.3,379.9 L126.1,376.8 L123.7,375.3 L121.6,378.8 L120.6,374.7 L122.3,374.0 L125.3,366.7 L128.5,363.2 L129.3,352.3 L128.5,351.4 L132.2,347.7 L133.4,348.5 L138.4,343.5 L139.8,345.4 L143.2,342.1 L144.9,336.0 L148.0,334.2 L149.7,326.9 L152.3,327.1 L154.5,319.7 L158.4,311.9 L159.9,312.7 L166.4,309.4 L169.6,306.5 L173.4,308.6 L176.5,315.9 L178.6,317.6 L185.4,320.4 L184.2,323.4 L183.2,331.9 L185.6,336.1 L192.2,338.6 L188.4,339.5 L185.1,344.2 L182.6,344.3 L180.7,347.7 L175.7,352.9 L173.8,353.4 L166.8,359.8 L162.7,359.4 L158.0,364.5 L155.4,363.2 L148.8,365.0 L147.5,362.6 L144.4,364.8 L136.3,375.2 L135.5,377.4 L131.8,379.1 L130.5,383.5 L126.4,383.4 L125.7,379.4 Z">
  <desc xmlns="http://www.highcharts.com/svg/namespace">
    <name>Modalen</name>
    <hc-key>no-vl-4629</hc-key>
    <hc-a2>MO</hc-a2>
  </desc>
</path>

<path fill="#CEE3F5" stroke="#6E6E6E" stroke-width="0.4" id="NO.VL.4627" d="M55.0,467.8 L54.8,467.6 L56.0,466.1 L57.6,466.3 Z M65.9,447.1 L64.8,444.8 L65.2,440.8 L65.5,445.5 Z M68.7,462.0 L65.8,455.9 L67.0,452.1 L69.3,461.6 Z M39.0,430.7 L54.2,437.1 L59.3,445.2 L60.3,450.9 L60.0,455.3 L58.3,458.5 L51.4,462.5 L49.6,462.2 L48.8,455.6 L51.2,451.7 L44.6,448.3 L42.9,445.8 L44.8,442.6 L42.9,442.8 L42.1,436.2 L40.9,435.1 L36.0,436.8 L34.2,434.7 L31.3,420.8 L33.9,422.7 Z">
  <desc xmlns="http://www.highcharts.com/svg/namespace">
    <name>Askøy</name>
    <hc-key>no-vl-4627</hc-key>
    <hc-a2>AS</hc-a2>
  </desc>
</path>

<path fill="#CEE3F5" stroke="#6E6E6E" stroke-width="0.4" id="NO.VL.4649" d="M189.4,99.2 L187.6,97.7 L185.7,97.3 L181.7,93.5 L172.6,93.1 L166.2,89.7 L162.0,89.7 L152.6,95.3 L144.9,86.7 L145.0,84.8 L169.6,84.4 L173.1,82.8 L173.2,81.1 L135.2,77.1 L119.9,72.9 L114.5,74.8 L120.1,68.9 L122.9,66.2 L124.4,67.4 L132.8,66.3 L140.1,64.8 L142.8,66.2 L145.2,63.5 L148.5,63.7 L148.9,65.5 L152.6,65.6 L154.7,67.6 L159.6,65.9 L167.3,61.4 L170.0,60.5 L172.3,62.8 L174.5,61.3 L177.3,65.0 L179.9,66.4 L182.7,71.3 L186.1,68.4 L189.0,70.3 L195.6,67.5 L194.5,64.0 L199.2,62.4 L200.8,58.3 L209.8,60.0 L207.0,63.4 L216.1,70.7 L215.8,72.2 L220.3,71.4 L223.9,67.5 L227.3,65.8 L229.2,66.9 L230.3,74.8 L235.0,77.0 L235.4,79.3 L232.5,79.6 L231.1,85.3 L231.6,88.3 L224.0,87.4 L220.2,85.4 L218.4,87.4 L209.1,86.7 L209.1,98.4 L208.3,98.1 Z M82.2,62.5 L85.5,65.8 L86.8,65.3 L88.5,60.7 L93.3,57.4 L95.0,54.9 L96.4,49.0 L99.7,51.0 L104.2,52.1 L107.1,51.2 L105.6,47.6 L100.2,46.5 L95.5,38.2 L85.3,28.9 L73.5,26.5 L71.7,22.9 L75.9,21.4 L70.8,15.2 L69.8,12.2 L72.4,10.7 L71.0,7.1 L73.3,4.8 L79.3,5.8 L79.5,2.3 L82.4,0.0 L83.8,0.5 L86.9,5.5 L90.4,8.5 L92.6,12.0 L94.2,12.2 L93.2,20.8 L98.5,28.6 L106.9,33.7 L113.8,40.9 L114.3,55.0 L116.7,53.3 L119.3,55.0 L115.3,58.2 L111.6,63.2 L106.2,58.9 L102.9,59.4 L102.0,61.7 L95.8,69.8 L94.6,72.9 L91.8,73.3 L89.3,69.8 L86.2,68.8 L84.4,64.9 L82.4,65.5 Z">
  <desc xmlns="http://www.highcharts.com/svg/namespace">
    <name>Stad</name>
    <hc-key>no-vl-4649</hc-key>
    <hc-a2>ST</hc-a2>
  </desc>
</path>

<path fill="#CEE3F5" stroke="#6E6E6E" stroke-width="0.4" id="NO.VL.4602" d="M111.6,63.2 L113.8,62.9 L115.7,60.4 L120.5,63.4 L122.9,66.2 L120.1,68.9 L114.5,74.8 L111.8,75.8 L109.1,72.4 L99.6,74.6 L93.7,77.8 L90.7,78.5 L84.1,77.0 L80.7,77.3 L75.9,81.2 L69.3,75.5 L73.0,68.7 L75.2,61.9 L77.1,60.8 L79.0,65.4 L82.2,62.5 L82.4,65.5 L84.4,64.9 L86.2,68.8 L89.3,69.8 L91.8,73.3 L94.6,72.9 L95.8,69.8 L102.0,61.7 L102.9,59.4 L106.2,58.9 Z M42.5,170.6 L46.7,174.6 L48.1,177.2 L50.4,176.3 L50.5,178.5 L47.7,180.8 L45.3,179.8 L41.1,175.8 Z M27.0,156.3 L32.3,152.9 L34.4,152.9 L33.1,150.5 L33.2,145.7 L34.9,143.8 L35.5,150.8 L38.1,152.1 L40.5,155.9 L38.8,156.8 L28.9,158.6 Z M38.6,125.4 L39.2,128.9 L42.0,135.4 L41.5,141.5 L39.4,138.3 L37.1,139.4 L34.3,136.6 L33.3,131.4 L34.5,129.0 L36.9,128.5 Z M82.5,184.9 L72.8,180.0 L68.2,176.0 L69.4,172.0 L68.8,168.3 L76.2,170.7 L81.8,169.1 L95.4,169.9 L95.5,168.1 L92.2,167.9 L73.2,160.6 L70.2,157.9 L93.5,159.3 L90.0,160.7 L89.9,162.4 L101.2,163.5 L104.2,161.5 L95.2,156.5 L85.5,153.6 L91.8,150.6 L94.5,147.0 L87.6,146.9 L80.8,150.0 L52.1,147.8 L49.2,146.2 L46.7,138.1 L47.3,132.9 L50.2,130.5 L49.6,128.8 L52.2,130.7 L57.2,131.7 L60.2,135.8 L61.9,134.7 L64.5,138.4 L71.9,138.8 L71.7,135.8 L75.3,136.5 L76.1,138.7 L78.2,137.4 L79.9,141.2 L83.6,141.1 L86.5,138.8 L91.8,139.0 L93.8,135.5 L91.5,134.1 L89.5,128.1 L94.2,128.7 L96.8,130.6 L101.0,128.7 L100.4,126.6 L104.0,125.6 L105.3,122.8 L111.4,122.7 L118.9,119.0 L119.7,121.1 L123.5,117.9 L125.5,121.0 L131.8,123.8 L134.4,130.9 L138.7,135.8 L138.8,137.7 L131.7,150.0 L131.3,155.6 L132.4,156.9 L133.4,163.0 L139.4,164.1 L139.5,168.1 L141.2,169.5 L131.0,172.3 L129.3,174.6 L125.0,175.3 L124.9,177.8 L120.7,182.1 L115.7,181.5 L113.8,182.6 L99.4,181.3 L96.6,180.3 L88.3,181.3 L83.4,181.3 Z M72.8,67.5 L69.1,72.7 L66.7,72.7 L60.4,69.3 L60.0,65.8 L62.6,63.6 L63.8,65.9 L64.9,61.0 L58.5,54.5 L57.0,51.0 L57.5,44.8 L60.4,45.8 L67.0,51.8 L73.6,47.8 L75.1,49.4 L77.0,55.2 Z">
  <desc xmlns="http://www.highcharts.com/svg/namespace">
    <name>Kinn</name>
    <hc-key>no-vl-4602</hc-key>
    <hc-a2>KI</hc-a2>
  </desc>
</path>

<path fill="#CEE3F5" stroke="#6E6E6E" stroke-width="0.4" id="NO.VL.4646" d="M100.1,214.5 L104.3,216.0 L111.5,216.4 L96.6,217.4 L98.2,215.1 Z M68.7,227.5 L70.3,227.4 L71.4,223.2 L76.5,223.8 L80.9,226.8 L84.4,234.1 L85.4,242.9 L86.5,246.7 L88.2,245.8 L88.6,237.8 L87.4,230.1 L85.7,227.1 L81.7,224.3 L80.0,221.8 L102.8,218.1 L117.9,219.8 L115.7,220.6 L116.9,224.1 L117.1,229.4 L123.8,231.1 L125.0,234.7 L127.8,237.1 L127.7,239.1 L132.9,239.3 L131.2,244.7 L133.4,246.9 L135.9,247.0 L136.7,251.0 L132.4,254.2 L128.4,255.6 L124.7,260.2 L124.1,265.3 L118.5,266.9 L113.8,262.6 L106.2,259.5 L101.2,259.1 L96.4,257.0 L96.1,253.2 L93.6,252.7 L92.8,249.0 L90.6,248.4 L87.9,250.9 L84.5,249.7 L83.0,246.7 L78.8,243.3 L80.4,241.8 L80.0,238.7 L70.5,241.3 L70.3,242.7 L66.7,243.3 L63.7,239.8 L57.8,238.7 L57.5,244.6 L54.1,245.6 L47.1,245.8 L46.7,246.7 L45.0,243.0 L41.4,243.9 L44.9,238.3 L49.6,235.6 L56.8,233.8 L59.6,231.1 L65.0,231.6 L67.5,230.5 Z M96.3,217.4 L86.8,218.0 L88.6,217.3 Z">
  <desc xmlns="http://www.highcharts.com/svg/namespace">
    <name>Fjaler</name>
    <hc-key>no-vl-4646</hc-key>
    <hc-a2>FJ</hc-a2>
  </desc>
</path>

<path fill="#CEE3F5" stroke="#6E6E6E" stroke-width="0.4" id="NO.VL.4647" d="M111.5,216.4 L104.3,216.0 L100.1,214.5 L99.7,208.2 L101.3,205.3 L117.3,203.7 L116.3,200.9 L115.6,199.1 L118.1,197.8 L123.4,197.4 L125.9,196.2 L130.1,190.3 L137.7,189.3 L140.5,190.1 L142.4,192.5 L144.3,197.8 L148.4,199.0 L141.9,188.0 L139.0,186.3 L132.0,186.1 L125.4,189.1 L120.5,194.1 L114.3,193.8 L110.3,196.3 L108.0,196.4 L106.3,194.6 L103.9,193.5 L104.4,189.6 L103.0,189.0 L103.0,188.6 L102.1,188.6 L99.2,187.3 L93.5,187.8 L87.2,187.3 L83.7,186.2 L82.5,184.9 L83.4,181.3 L88.3,181.3 L96.6,180.3 L99.4,181.3 L113.8,182.6 L115.7,181.5 L120.7,182.1 L124.9,177.8 L125.0,175.3 L129.3,174.6 L131.0,172.3 L141.2,169.5 L139.5,168.1 L139.4,164.1 L145.3,162.0 L147.8,158.4 L154.2,156.1 L158.6,157.7 L169.3,153.6 L171.1,151.5 L178.1,152.4 L183.4,154.2 L188.7,153.1 L190.0,151.1 L199.7,150.9 L203.2,153.4 L206.6,153.6 L208.7,151.9 L212.2,152.3 L212.0,153.7 L214.8,157.4 L212.9,160.5 L219.8,163.5 L223.7,155.2 L226.2,152.4 L232.2,151.5 L238.6,152.2 L240.2,151.4 L242.6,155.9 L246.9,155.1 L248.0,151.9 L253.8,150.2 L258.8,145.7 L260.7,141.2 L262.5,139.7 L264.8,144.1 L264.1,147.8 L265.2,149.5 L269.4,150.3 L269.3,155.6 L278.1,163.8 L272.0,170.3 L272.2,173.7 L266.8,177.3 L262.7,182.3 L259.9,191.4 L257.8,193.0 L255.8,197.1 L250.9,201.0 L249.3,204.6 L244.6,208.5 L239.8,209.4 L233.5,215.7 L230.2,222.2 L221.9,231.5 L220.9,235.6 L216.2,237.6 L211.8,241.2 L199.0,242.4 L194.6,245.9 L191.8,249.2 L188.0,244.4 L188.6,242.0 L182.5,241.5 L177.3,243.2 L170.2,241.7 L160.4,242.0 L158.9,244.9 L154.5,246.3 L152.9,251.2 L150.5,250.1 L149.2,253.1 L145.0,254.3 L143.9,252.8 L136.7,251.0 L135.9,247.0 L133.4,246.9 L131.2,244.7 L132.9,239.3 L127.7,239.1 L127.8,237.1 L125.0,234.7 L123.8,231.1 L117.1,229.4 L116.9,224.1 L115.7,220.6 L117.9,219.8 L126.3,220.8 L122.4,217.0 L116.9,216.1 Z">
  <desc xmlns="http://www.highcharts.com/svg/namespace">
    <name>Sunnfjord</name>
    <hc-key>no-vl-4647</hc-key>
    <hc-a2>SU</hc-a2>
  </desc>
</path>

<path fill="#CEE3F5" stroke="#6E6E6E" stroke-width="0.4" id="NO.VL.4640" d="M330.1,257.5 L331.0,265.6 L332.4,268.8 L333.8,271.0 L336.1,273.5 L331.8,278.5 L327.0,279.3 L320.8,274.0 L318.9,274.0 L312.3,277.3 L311.2,281.2 L309.2,283.4 L293.3,287.2 L286.2,291.4 L284.0,290.6 L281.9,285.0 L285.1,281.0 L289.9,277.4 L293.0,273.2 L286.3,277.2 L282.7,278.4 L279.3,278.0 L269.1,273.0 L251.3,268.9 L238.4,260.9 L240.0,256.8 L244.7,252.7 L246.8,249.8 L251.9,236.8 L256.4,230.8 L259.3,216.7 L257.1,216.9 L248.9,239.6 L244.5,247.3 L239.6,250.5 L236.4,245.7 L234.2,245.5 L231.6,250.9 L234.2,258.8 L234.4,263.9 L235.7,266.0 L227.5,263.9 L226.8,264.8 L230.7,268.9 L231.3,280.5 L228.4,284.5 L222.1,288.4 L214.4,288.2 L203.4,284.9 L194.0,278.5 L190.7,269.4 L185.3,275.1 L185.1,273.6 L194.1,262.4 L201.5,257.5 L211.1,255.4 L214.8,256.8 L217.6,256.5 L220.6,252.2 L212.4,246.6 L211.8,241.2 L216.2,237.6 L220.9,235.6 L221.9,231.5 L230.2,222.2 L233.5,215.7 L239.8,209.4 L244.6,208.5 L249.3,204.6 L250.9,201.0 L255.8,197.1 L257.8,193.0 L259.9,191.4 L262.7,182.3 L266.8,177.3 L272.2,173.7 L273.4,180.6 L279.4,183.4 L278.9,189.3 L281.1,192.0 L282.5,196.4 L281.5,197.3 L282.1,209.9 L280.2,210.9 L278.9,214.0 L289.0,215.7 L287.2,220.4 L287.5,225.0 L295.8,230.5 L297.3,237.3 L298.9,240.7 L301.8,241.7 L303.5,245.3 L307.1,246.6 L308.4,245.6 L315.1,247.6 L316.4,251.1 L319.6,248.4 L320.6,249.8 Z M341.4,279.4 L343.6,277.1 L344.8,274.9 L345.5,274.9 L343.7,278.1 Z M316.7,287.2 L317.1,286.7 L317.0,287.1 Z M291.8,296.4 L291.8,296.4 L291.9,296.4 Z">
  <desc xmlns="http://www.highcharts.com/svg/namespace">
    <name>Sogndal</name>
    <hc-key>no-vl-4640</hc-key>
    <hc-a2>SO</hc-a2>
  </desc>
</path>

<path fill="#CEE3F5" stroke="#6E6E6E" stroke-width="0.4" id="NO.VL.4642" d="M291.8,297.0 L291.8,296.4 L291.9,296.4 L294.0,294.4 L299.3,293.0 L312.5,292.6 L316.7,287.2 L317.0,287.1 L317.1,286.7 L319.7,285.1 L329.7,287.9 L333.8,292.7 L337.5,294.6 L345.7,295.8 L345.8,293.9 L340.5,291.8 L334.9,284.9 L336.7,282.5 L341.4,279.4 L343.7,278.1 L345.5,274.9 L351.2,272.7 L353.4,278.3 L350.6,284.1 L355.5,284.2 L361.9,286.3 L364.8,286.2 L367.8,291.2 L373.1,293.9 L380.7,292.7 L392.5,291.8 L394.9,290.2 L393.2,287.0 L389.8,286.2 L389.0,283.9 L395.3,280.2 L399.6,280.5 L403.2,279.2 L404.9,277.0 L405.6,271.0 L411.0,269.5 L409.0,266.9 L409.5,264.2 L413.4,262.7 L416.9,262.9 L417.0,264.2 L422.6,266.8 L423.4,273.7 L421.3,276.9 L421.8,278.5 L425.2,277.2 L426.0,281.7 L433.4,295.2 L441.9,299.9 L446.6,304.5 L441.9,309.6 L445.1,310.7 L450.3,314.9 L447.1,321.2 L443.5,321.0 L444.0,324.7 L442.7,331.5 L437.9,331.2 L434.2,327.8 L432.2,330.2 L419.8,350.3 L412.3,348.1 L406.7,349.1 L399.8,342.1 L396.4,343.1 L390.2,348.9 L383.4,362.9 L375.5,358.7 L371.0,351.3 L365.6,344.4 L354.0,332.6 L349.7,331.7 L343.1,325.4 L337.9,327.5 L334.8,326.1 L332.2,316.0 L333.6,310.5 L329.9,312.9 L326.5,313.7 L316.9,310.4 L313.3,303.9 L308.6,303.7 L302.1,308.9 L301.2,304.8 L295.3,304.9 Z">
  <desc xmlns="http://www.highcharts.com/svg/namespace">
    <name>Lærdal</name>
    <hc-key>no-vl-4642</hc-key>
    <hc-a2>LÆ</hc-a2>
  </desc>
</path>

<path fill="#CEE3F5" stroke="#6E6E6E" stroke-width="0.4" id="NO.VL.4644" d="M272.2,173.7 L272.0,170.3 L278.1,163.8 L284.5,157.2 L288.5,155.4 L300.8,147.3 L322.0,118.9 L324.5,116.5 L331.7,113.5 L343.9,103.5 L347.6,102.4 L356.7,122.9 L359.4,127.5 L359.1,136.0 L373.1,132.7 L379.8,132.5 L388.1,129.6 L398.9,132.7 L406.8,138.4 L406.2,149.2 L405.0,158.3 L409.3,168.9 L410.5,174.0 L410.9,180.6 L419.2,184.9 L431.6,189.6 L441.1,183.3 L449.2,186.9 L452.2,198.3 L454.1,201.0 L456.3,207.0 L450.5,213.2 L443.1,213.4 L440.4,211.2 L435.2,214.2 L415.0,213.2 L408.0,209.3 L401.3,204.9 L397.9,206.3 L397.3,209.0 L392.5,209.7 L391.8,212.2 L384.9,212.2 L376.6,208.0 L373.4,209.4 L369.7,213.6 L375.2,220.0 L375.4,224.3 L373.5,225.8 L374.5,227.6 L367.8,235.9 L369.7,239.9 L368.3,241.6 L365.6,241.3 L365.0,239.2 L355.9,237.8 L356.5,242.2 L354.2,245.1 L349.5,248.1 L349.8,250.6 L348.0,256.5 L345.8,258.6 L347.5,265.5 L342.8,267.5 L339.5,270.3 L336.9,268.8 L335.5,264.7 L334.5,251.2 L331.7,247.8 L332.0,242.4 L337.3,238.0 L338.7,233.3 L339.4,227.6 L340.7,224.8 L345.8,220.4 L351.7,209.7 L357.0,207.4 L362.9,201.9 L364.8,198.0 L354.4,204.1 L336.5,221.9 L333.8,222.6 L326.5,219.9 L331.8,228.2 L331.2,232.2 L323.6,242.3 L322.9,245.0 L329.8,254.6 L330.1,257.5 L320.6,249.8 L319.6,248.4 L316.4,251.1 L315.1,247.6 L308.4,245.6 L307.1,246.6 L303.5,245.3 L301.8,241.7 L298.9,240.7 L297.3,237.3 L295.8,230.5 L287.5,225.0 L287.2,220.4 L289.0,215.7 L278.9,214.0 L280.2,210.9 L282.1,209.9 L281.5,197.3 L282.5,196.4 L281.1,192.0 L278.9,189.3 L279.4,183.4 L273.4,180.6 Z M345.5,274.9 L344.8,274.9 L345.0,274.5 Z M332.4,268.8 L336.9,272.5 L336.1,273.5 L333.8,271.0 Z">
  <desc xmlns="http://www.highcharts.com/svg/namespace">
    <name>Luster</name>
    <hc-key>no-vl-4644</hc-key>
    <hc-a2>LU</hc-a2>
  </desc>
</path>

<path fill="#CEE3F5" stroke="#6E6E6E" stroke-width="0.4" id="NO.VL.4643" d="M345.5,274.9 L345.0,274.5 L348.6,272.4 L367.4,271.4 L373.5,269.3 L378.5,263.0 L370.9,264.8 L366.7,267.8 L348.0,271.2 L339.5,270.3 L342.8,267.5 L347.5,265.5 L345.8,258.6 L348.0,256.5 L349.8,250.6 L349.5,248.1 L354.2,245.1 L356.5,242.2 L355.9,237.8 L365.0,239.2 L365.6,241.3 L368.3,241.6 L369.7,239.9 L367.8,235.9 L374.5,227.6 L373.5,225.8 L375.4,224.3 L375.2,220.0 L369.7,213.6 L373.4,209.4 L376.6,208.0 L384.9,212.2 L391.8,212.2 L392.5,209.7 L397.3,209.0 L397.9,206.3 L401.3,204.9 L408.0,209.3 L415.0,213.2 L435.2,214.2 L436.5,224.3 L436.0,228.3 L438.7,232.1 L442.6,232.5 L444.0,235.7 L447.3,236.7 L446.4,241.1 L442.3,245.5 L438.2,245.3 L433.5,251.9 L432.9,254.5 L424.4,259.6 L422.4,263.6 L416.9,262.9 L413.4,262.7 L409.5,264.2 L409.0,266.9 L411.0,269.5 L405.6,271.0 L404.9,277.0 L403.2,279.2 L399.6,280.5 L395.3,280.2 L389.0,283.9 L389.8,286.2 L393.2,287.0 L394.9,290.2 L392.5,291.8 L380.7,292.7 L373.1,293.9 L367.8,291.2 L364.8,286.2 L361.9,286.3 L355.5,284.2 L350.6,284.1 L353.4,278.3 L351.2,272.7 Z">
  <desc xmlns="http://www.highcharts.com/svg/namespace">
    <name>Årdal</name>
    <hc-key>no-vl-4643</hc-key>
    <hc-a2>ÅR</hc-a2>
  </desc>
</path>

<path fill="#CEE3F5" stroke="#6E6E6E" stroke-width="0.4" id="NO.VL.4628" d="M121.5,388.2 L121.4,387.1 L124.3,379.9 L125.7,379.4 L126.4,383.4 L130.5,383.5 L131.8,379.1 L135.5,377.4 L136.3,375.2 L144.4,364.8 L147.5,362.6 L148.8,365.0 L155.4,363.2 L158.0,364.5 L162.7,359.4 L166.8,359.8 L173.8,353.4 L175.7,352.9 L180.7,347.7 L182.6,344.3 L185.1,344.2 L188.4,339.5 L192.2,338.6 L198.5,343.9 L203.5,347.5 L200.7,354.1 L204.3,357.8 L203.7,364.2 L200.6,362.7 L192.6,366.9 L191.0,371.4 L192.7,376.3 L190.0,375.6 L187.8,370.7 L185.5,374.2 L178.4,376.2 L173.5,382.0 L171.1,381.8 L171.5,385.0 L169.2,387.8 L165.8,381.7 L165.8,379.4 L163.5,379.2 L162.0,381.3 L154.6,382.9 L151.9,386.2 L150.9,393.6 L148.3,399.7 L144.1,402.4 L143.5,408.0 L146.4,409.3 L151.3,408.9 L150.1,410.8 L150.4,416.6 L153.5,419.8 L155.5,420.2 L158.7,423.7 L161.8,422.0 L169.1,422.3 L171.9,420.8 L171.4,437.2 L167.3,437.8 L165.1,440.2 L161.5,440.6 L160.1,442.2 L157.1,438.5 L151.0,435.8 L146.4,442.1 L145.8,447.0 L140.4,450.6 L135.7,451.3 L134.2,454.6 L131.6,453.3 L128.1,454.7 L128.0,456.1 L120.9,457.6 L118.4,455.7 L116.5,455.5 L118.6,452.2 L121.9,450.7 L125.6,450.6 L126.1,445.4 L124.9,433.4 L125.1,425.3 L126.1,415.0 L127.9,405.8 L130.8,401.5 L128.5,398.6 L129.1,393.9 L132.5,385.9 L127.1,389.6 L121.9,389.0 Z M121.2,392.7 L124.2,396.1 L123.3,412.7 L120.8,429.1 L120.6,432.3 L115.4,431.4 L110.3,421.3 L113.0,419.3 L114.3,420.5 L120.2,417.6 L121.5,415.9 L121.4,410.8 L118.3,410.4 L116.1,406.2 L120.6,398.9 L118.7,397.2 Z">
  <desc xmlns="http://www.highcharts.com/svg/namespace">
    <name>Vaksdal</name>
    <hc-key>no-vl-4628</hc-key>
    <hc-a2>VA</hc-a2>
  </desc>
</path>

<path fill="#CEE3F5" stroke="#6E6E6E" stroke-width="0.4" id="NO.VL.4601" d="M58.1,483.2 L61.4,483.8 L57.9,479.1 L54.6,478.4 L54.6,471.7 L55.0,467.8 L57.6,466.3 L67.1,467.2 L71.3,465.1 L68.7,462.0 L69.3,461.6 L67.0,452.1 L67.7,450.9 L65.9,447.1 L65.5,445.5 L65.2,440.8 L70.9,432.7 L74.2,431.4 L77.8,435.2 L81.2,440.3 L85.1,444.0 L91.1,453.3 L94.4,456.4 L100.7,460.4 L106.3,462.2 L112.0,461.9 L116.7,458.6 L116.5,455.5 L118.4,455.7 L120.9,457.6 L120.8,460.1 L116.8,461.7 L114.9,465.7 L110.4,466.9 L106.6,471.7 L107.6,481.0 L105.6,484.0 L103.1,484.8 L98.7,492.0 L97.9,496.3 L94.3,493.8 L90.8,499.6 L80.9,505.2 L77.4,510.1 L73.2,510.3 L71.7,509.7 L62.6,512.9 L59.1,511.8 L69.1,502.6 L71.0,498.5 L66.7,498.4 L55.7,494.8 L56.1,491.6 Z M99.1,456.4 L95.7,454.1 L94.2,451.2 L96.4,454.3 Z">
  <desc xmlns="http://www.highcharts.com/svg/namespace">
    <name>Bergen</name>
    <hc-key>no-vl-4601</hc-key>
    <hc-a2>BE</hc-a2>
  </desc>
</path>

<path fill="#CEE3F5" stroke="#6E6E6E" stroke-width="0.4" id="NO.VL.4651" d="M213.2,104.2 L220.0,109.9 L222.9,111.2 L233.8,112.3 L239.6,110.1 L243.5,101.5 L248.4,96.0 L254.5,94.8 L257.8,95.7 L264.1,99.5 L267.2,100.5 L270.8,104.3 L276.0,97.3 L276.1,95.5 L270.3,96.9 L266.9,94.9 L261.2,93.3 L260.0,90.2 L256.7,91.5 L244.4,93.9 L242.2,96.9 L238.5,104.7 L234.3,107.1 L209.1,98.4 L209.1,86.7 L218.4,87.4 L220.2,85.4 L224.0,87.4 L231.6,88.3 L231.1,85.3 L232.5,79.6 L235.4,79.3 L238.3,82.1 L241.4,80.2 L246.6,80.7 L248.6,77.3 L253.1,73.8 L258.6,72.9 L263.2,75.5 L271.5,74.4 L273.9,71.5 L279.5,73.3 L280.9,70.3 L286.3,68.8 L288.1,70.6 L294.0,67.3 L296.8,69.3 L300.3,68.1 L303.5,68.9 L306.1,67.7 L308.9,63.5 L307.9,62.5 L322.3,61.1 L322.5,57.5 L327.3,56.7 L328.0,60.6 L336.5,61.1 L338.5,63.7 L344.7,65.2 L346.7,71.6 L345.2,83.0 L348.0,93.7 L347.6,102.4 L343.9,103.5 L331.7,113.5 L324.5,116.5 L322.0,118.9 L300.8,147.3 L288.5,155.4 L284.5,157.2 L278.1,163.8 L269.3,155.6 L269.4,150.3 L265.2,149.5 L264.1,147.8 L264.8,144.1 L262.5,139.7 L262.4,135.9 L260.8,130.2 L264.1,124.4 L266.4,123.7 L267.9,120.0 L265.8,115.6 L258.4,114.0 L251.7,120.0 L248.6,121.3 L243.8,120.6 L235.2,116.7 L228.8,116.0 L220.9,114.1 L219.4,115.1 L214.9,113.3 L212.0,110.2 Z">
  <desc xmlns="http://www.highcharts.com/svg/namespace">
    <name>Stryn</name>
    <hc-key>no-vl-4651</hc-key>
    <hc-a2>ST</hc-a2>
  </desc>
</path>

<path fill="#CEE3F5" stroke="#6E6E6E" stroke-width="0.4" id="NO.VL.4648" d="M36.6,100.8 L37.6,101.0 L41.1,109.3 L40.2,113.6 L36.0,117.0 L36.7,112.0 L34.6,108.5 L30.8,104.8 Z M49.6,128.8 L49.8,125.5 L53.1,123.5 L51.6,120.1 L55.3,117.1 L61.4,117.6 L63.9,119.7 L64.0,122.4 L67.2,122.6 L69.6,126.4 L72.0,126.7 L74.7,124.8 L70.1,117.7 L78.1,113.9 L62.8,115.3 L64.8,111.9 L71.4,107.0 L85.4,101.9 L88.6,99.4 L87.1,97.4 L91.9,96.3 L97.0,96.4 L91.6,93.5 L92.5,89.3 L100.9,80.2 L104.9,79.0 L116.0,80.4 L122.2,83.6 L129.5,83.4 L133.7,86.2 L138.4,87.0 L146.0,97.2 L142.2,99.0 L133.5,100.0 L130.7,105.0 L134.0,105.1 L144.9,100.5 L157.6,99.0 L161.8,106.5 L157.4,118.7 L150.4,123.8 L146.0,122.7 L138.0,124.1 L131.8,123.8 L125.5,121.0 L123.5,117.9 L119.7,121.1 L118.9,119.0 L111.4,122.7 L105.3,122.8 L104.0,125.6 L100.4,126.6 L101.0,128.7 L96.8,130.6 L94.2,128.7 L89.5,128.1 L91.5,134.1 L93.8,135.5 L91.8,139.0 L86.5,138.8 L83.6,141.1 L79.9,141.2 L78.2,137.4 L76.1,138.7 L75.3,136.5 L71.7,135.8 L71.9,138.8 L64.5,138.4 L61.9,134.7 L60.2,135.8 L57.2,131.7 L52.2,130.7 Z M43.7,96.9 L35.6,94.5 L32.5,92.5 L40.5,84.9 L40.8,80.7 L46.3,78.8 L51.5,79.5 L83.3,93.8 L80.9,97.4 L77.3,99.3 L70.2,100.1 L72.0,98.4 L72.9,93.5 L71.7,91.2 L67.0,98.1 L62.2,102.7 L57.1,105.7 L45.2,108.8 L42.1,107.5 L40.2,103.5 L40.2,100.2 L43.7,101.9 L47.2,96.9 Z">
  <desc xmlns="http://www.highcharts.com/svg/namespace">
    <name>Bremanger</name>
    <hc-key>no-vl-4648</hc-key>
    <hc-a2>BR</hc-a2>
  </desc>
</path>

<path fill="#CEE3F5" stroke="#6E6E6E" stroke-width="0.4" id="NO.VL.4632" d="M42.8,374.2 L37.8,364.8 L34.6,361.0 L30.8,359.2 L34.1,357.2 L37.8,357.4 L41.3,359.4 L43.7,362.2 L42.1,363.8 L39.4,361.1 L39.2,364.3 L44.9,371.3 L42.3,372.5 Z">
  <desc xmlns="http://www.highcharts.com/svg/namespace">
    <name>Austrheim</name>
    <hc-key>no-vl-4632</hc-key>
    <hc-a2>AU</hc-a2>
  </desc>
</path>

<path fill="#CEE3F5" stroke="#6E6E6E" stroke-width="0.4" id="NO.VL.4638" d="M185.3,275.1 L177.9,278.0 L170.5,277.3 L164.2,273.5 L172.7,267.5 L174.0,263.5 L161.8,271.6 L153.4,274.2 L144.7,274.5 L142.3,272.0 L142.6,263.9 L140.0,267.6 L138.0,274.1 L132.1,273.9 L128.7,277.1 L114.0,277.8 L111.4,279.0 L103.3,288.1 L95.9,291.4 L97.2,285.1 L100.6,281.5 L98.4,274.2 L101.3,266.1 L100.2,263.5 L101.2,259.1 L106.2,259.5 L113.8,262.6 L118.5,266.9 L124.1,265.3 L124.7,260.2 L128.4,255.6 L132.4,254.2 L136.7,251.0 L143.9,252.8 L145.0,254.3 L149.2,253.1 L150.5,250.1 L152.9,251.2 L154.5,246.3 L158.9,244.9 L160.4,242.0 L170.2,241.7 L177.3,243.2 L182.5,241.5 L188.6,242.0 L188.0,244.4 L191.8,249.2 L194.6,245.9 L199.0,242.4 L211.8,241.2 L212.4,246.6 L220.6,252.2 L217.6,256.5 L214.8,256.8 L211.1,255.4 L201.5,257.5 L194.1,262.4 L185.1,273.6 Z M117.2,296.0 L123.2,297.9 L123.3,296.0 L118.3,291.2 L125.7,289.3 L127.8,290.9 L130.7,288.4 L135.7,285.8 L140.5,284.8 L142.4,287.4 L140.7,297.7 L145.5,292.2 L149.0,290.4 L147.5,286.7 L155.2,283.7 L165.6,284.4 L172.2,286.3 L180.6,284.7 L189.3,288.2 L188.5,290.3 L190.6,300.0 L188.4,303.1 L186.3,309.9 L186.9,317.1 L185.4,320.4 L178.6,317.6 L176.5,315.9 L173.4,308.6 L169.6,306.5 L166.4,309.4 L159.9,312.7 L158.4,311.9 L154.5,319.7 L152.3,327.1 L149.7,326.9 L148.8,326.8 L143.2,320.2 L142.0,317.9 L133.2,320.9 L130.1,324.8 L125.5,322.7 L123.3,318.5 L119.6,318.9 L120.3,314.3 L116.7,314.3 L117.4,307.4 L116.0,305.5 L118.2,298.2 L115.8,298.1 Z">
  <desc xmlns="http://www.highcharts.com/svg/namespace">
    <name>Høyanger</name>
    <hc-key>no-vl-4638</hc-key>
    <hc-a2>HØ</hc-a2>
  </desc>
</path>

<path fill="#CEE3F5" stroke="#6E6E6E" stroke-width="0.4" id="NO.VL.4635" d="M32.0,344.3 L30.6,345.0 L25.9,342.2 L24.9,336.4 L24.0,337.1 L20.9,334.2 L20.1,327.7 L19.0,329.9 L14.9,328.3 L14.3,324.9 L16.7,322.8 L21.9,322.0 L20.2,325.2 L26.0,324.9 L27.5,326.9 L26.1,328.8 L28.9,331.6 L31.5,339.3 Z M36.5,324.6 L39.4,323.9 L41.3,325.6 L42.5,329.8 L44.9,348.1 L39.7,348.4 L36.6,342.3 L37.4,337.4 L36.6,334.2 Z M56.1,356.4 L55.1,353.7 L57.1,351.9 L54.7,351.0 L48.8,351.5 L46.5,348.8 L44.9,338.1 L43.0,331.9 L43.1,327.5 L40.1,321.2 L41.3,318.3 L44.0,317.8 L49.5,320.0 L52.4,324.5 L51.3,333.3 L51.6,337.8 L53.7,340.7 L54.4,337.0 L54.1,325.1 L54.6,322.0 L56.6,319.3 L60.4,316.9 L60.4,311.9 L54.2,316.1 L52.3,316.6 L44.4,313.5 L43.8,304.7 L45.8,297.0 L52.7,290.5 L61.0,290.2 L69.1,293.7 L78.5,301.0 L82.2,302.8 L90.0,304.7 L97.2,305.1 L98.6,313.1 L101.1,310.2 L99.9,302.7 L100.8,299.3 L109.4,293.2 L117.2,296.0 L115.8,298.1 L118.2,298.2 L116.0,305.5 L117.4,307.4 L116.7,314.3 L120.3,314.3 L119.6,318.9 L114.4,323.4 L107.9,330.1 L102.0,332.2 L101.4,329.0 L94.2,330.2 L90.3,333.5 L82.7,333.6 L79.9,325.7 L76.4,329.0 L71.6,330.1 L70.1,329.3 L66.1,333.5 L63.6,334.0 L61.2,337.5 L62.1,340.0 L60.2,343.9 L57.4,345.5 L58.1,351.3 Z">
  <desc xmlns="http://www.highcharts.com/svg/namespace">
    <name>Gulen</name>
    <hc-key>no-vl-4635</hc-key>
    <hc-a2>GU</hc-a2>
  </desc>
</path>
</g>

<text x="350" y="714" text-anchor="middle" font-family="Verdana" font-size="8" stroke-opacity="0.6">Copyright (c) 2023 Highsoft AS, Based on data from Kartverket</text>

</svg>