<?xml version="1.0" encoding="utf-8" standalone="no"?>
        <!DOCTYPE svg PUBLIC "-//W3C//DTD SVG 1.1//EN" "http://www.w3.org/Graphics/SVG/1.1/DTD/svg11.dtd">

        <svg version="1.1" viewBox="-5 -5 710 725" xmlns="http://www.w3.org/2000/svg" xmlns:xlink="http://www.w3.org/1999/xlink">
        <desc>
            Map version: 2.3.0
            Copyright (c) 2024 Highsoft AS, Based on data from OpenStreetMap
        </desc>
        <title>Vestland</title>
        <g id="admin2">
<path fill="#CEE3F5" stroke="#6E6E6E" stroke-width="0.4" id="undefined" d="M196.3810,318.6667 196.3810,316.7619 196.3810,309.3333 186.6667,309.3333 180.9524,316.7619 196.3810,318.6667 M190.8571,336.3810 196.3810,338.4762 216.0000,334.4762 237.1429,329.1429 246.8571,320.7619 256.7619,326.0952 272.1905,320.7619 272.1905,309.3333 262.2857,309.3333 262.2857,311.4286 241.3333,309.3333 237.1429,301.1429 225.9048,301.1429 237.1429,293.7143 241.3333,281.3333 262.2857,283.4286 276.3810,276.0000 291.8095,273.9048 297.3333,273.9048 312.7619,265.7143 316.9524,265.7143 316.9524,253.1429 297.3333,248.9524 262.2857,263.6190 251.0476,263.6190 221.7143,270.8571 216.0000,279.2381 199.2381,279.2381 197.7143,279.2381 195.0476,283.4286 193.5238,285.3333 193.5238,286.4762 206.2857,286.4762 210.4762,284.3810 208.9524,287.4286 206.2857,290.6667 204.7619,293.7143 208.9524,295.8095 204.7619,300.0000 203.4286,306.2857 202.0952,314.6667 202.0952,319.8095 203.4286,326.0952 203.4286,329.1429 202.0952,331.2381 202.0952,332.3810 202.0952,334.4762 190.8571,336.3810Z">
                    <desc xmlns="http://www.highcharts.com/svg/namespace">
<name>Vaksdal</name>
<region>Vestland</region>
<hc-group>admin2</hc-group>
<hc-key>no-vl-4628</hc-key>
<hc-a2>VA</hc-a2>
<hc-middle-lon>5.953</hc-middle-lon>
<hc-middle-lat>60.669</hc-middle-lat>
</desc>


                </path>
<path fill="#CEE3F5" stroke="#6E6E6E" stroke-width="0.4" id="undefined" d="M190.8571,279.2381 195.0476,279.2381 196.3810,277.1429 200.5714,278.0952 199.2381,279.2381 216.0000,279.2381 221.7143,270.8571 251.0476,263.6190 262.2857,263.6190 297.3333,248.9524 297.3333,245.9048 281.9048,243.8095 287.6190,233.3333 276.3810,233.3333 266.4762,226.0952 241.3333,228.1905 231.4286,240.5714 225.9048,248.9524 221.7143,248.9524 202.0952,258.2857 202.0952,268.7619 190.8571,279.2381Z">
                    <desc xmlns="http://www.highcharts.com/svg/namespace">
<name>Modalen</name>
<region>Vestland</region>
<hc-group>admin2</hc-group>
<hc-key>no-vl-4629</hc-key>
<hc-a2>MO</hc-a2>
<hc-middle-lon>5.926</hc-middle-lon>
<hc-middle-lat>60.888</hc-middle-lat>
</desc>


                </path>
<path fill="#CEE3F5" stroke="#6E6E6E" stroke-width="0.4" id="undefined" d="M196.3810,318.6667 180.9524,316.7619 186.6667,309.3333 196.3810,309.3333 196.3810,304.1905 190.8571,291.6190 182.2857,291.6190 180.9524,291.6190 179.6190,293.7143 179.6190,294.8571 179.6190,299.0476 178.0952,301.1429 176.7619,302.0952 171.0476,304.1905 166.8571,306.2857 162.6667,307.2381 147.2381,313.5238 147.2381,314.6667 145.9048,314.6667 143.0476,315.6190 140.1905,316.7619 131.8095,316.7619 130.4762,316.7619 138.8571,321.9048 143.0476,324.0000 147.2381,328.1905 152.9524,332.3810 155.6190,332.3810 158.4762,335.4286 161.3333,336.3810 164.1905,338.4762 168.3810,338.4762 183.8095,336.3810 185.1429,334.4762 186.6667,332.3810 189.3333,331.2381 193.5238,332.3810 196.3810,331.2381 196.3810,321.9048 196.3810,320.7619 196.3810,318.6667Z">
                    <desc xmlns="http://www.highcharts.com/svg/namespace">
<name>Osterøy</name>
<region>Vestland</region>
<hc-group>admin2</hc-group>
<hc-key>no-vl-4630</hc-key>
<hc-a2>OS</hc-a2>
<hc-middle-lon>5.504</hc-middle-lon>
<hc-middle-lat>60.559</hc-middle-lat>
</desc>


                </path>
<path fill="#CEE3F5" stroke="#6E6E6E" stroke-width="0.4" id="undefined" d="M155.6190,286.4762 155.6190,273.9048 165.5238,268.7619 176.7619,270.8571 196.3810,261.5238 196.3810,258.2857 202.0952,258.2857 221.7143,248.9524 225.9048,248.9524 231.4286,240.5714 221.7143,233.3333 196.3810,238.4762 190.8571,236.3810 186.6667,236.3810 165.5238,245.9048 145.9048,243.8095 130.4762,245.9048 126.2857,240.5714 100.9524,251.0476 95.4286,258.2857 92.5714,262.4762 89.7143,263.6190 89.7143,264.5714 91.2381,265.7143 99.6190,259.4286 99.6190,258.2857 99.6190,259.4286 100.9524,258.2857 109.3333,264.5714 112.1905,265.7143 129.1429,256.1905 130.4762,256.1905 133.3333,254.0952 134.6667,254.0952 136.0000,253.1429 155.6190,248.9524 157.1429,248.9524 162.6667,248.0000 158.4762,250.0952 162.6667,254.0952 164.1905,254.0952 169.7143,254.0952 165.5238,256.1905 162.6667,257.3333 160.0000,257.3333 155.6190,256.1905 152.9524,256.1905 151.4286,256.1905 133.3333,260.3810 131.8095,261.5238 133.3333,263.6190 136.0000,265.7143 134.6667,266.6667 130.4762,267.8095 113.7143,272.9524 112.1905,273.9048 113.7143,275.0476 116.3810,276.0000 120.5714,279.2381 136.0000,279.2381 136.0000,280.1905 137.5238,281.3333 137.5238,283.4286 138.8571,284.3810 140.1905,285.3333 143.0476,286.4762 155.6190,286.4762Z">
                    <desc xmlns="http://www.highcharts.com/svg/namespace">
<name>Masfjorden</name>
<region>Vestland</region>
<hc-group>admin2</hc-group>
<hc-key>no-vl-4634</hc-key>
<hc-a2>MA</hc-a2>
<hc-middle-lon>5.49</hc-middle-lon>
<hc-middle-lat>60.847</hc-middle-lat>
</desc>


                </path>
<path fill="#CEE3F5" stroke="#6E6E6E" stroke-width="0.4" id="undefined" d="M75.8095,279.2381 65.9048,270.8571 74.2857,270.8571 70.0952,268.7619 64.5714,267.8095 60.3810,267.8095 54.6667,268.7619 57.5238,269.7143 58.8571,269.7143 64.5714,272.9524 67.4286,273.9048 75.8095,279.2381Z">
                    <desc xmlns="http://www.highcharts.com/svg/namespace">
<name>Austrheim</name>
<region>Vestland</region>
<hc-group>admin2</hc-group>
<hc-key>no-vl-4632</hc-key>
<hc-a2>AU</hc-a2>
<hc-middle-lon>4.988</hc-middle-lon>
<hc-middle-lat>60.779</hc-middle-lat>
</desc>


                </path>
<path fill="#CEE3F5" stroke="#6E6E6E" stroke-width="0.4" id="undefined" d="M9.9048,273.9048 9.9048,276.0000 11.2381,277.1429 12.5714,278.0952 11.2381,278.0952 11.2381,277.1429 11.2381,278.0952 19.6190,276.0000 18.2857,276.0000 12.5714,272.9524 12.5714,271.8095 11.2381,271.8095 9.9048,271.8095 9.9048,273.9048Z">
                    <desc xmlns="http://www.highcharts.com/svg/namespace">
<name>Fedje</name>
<region>Vestland</region>
<hc-group>admin2</hc-group>
<hc-key>no-vl-4633</hc-key>
<hc-a2>FE</hc-a2>
<hc-middle-lon>4.722</hc-middle-lon>
<hc-middle-lat>60.769</hc-middle-lat>
</desc>


                </path>
<path fill="#CEE3F5" stroke="#6E6E6E" stroke-width="0.4" id="undefined" d="M402.6667,329.1429 405.3333,329.1429 413.9048,328.1905 418.0952,326.0952 426.4762,320.7619 426.4762,319.8095 432.0000,315.6190 437.7143,312.5714 443.2381,309.3333 453.1429,309.3333 437.7143,324.0000 488.1905,318.6667 488.1905,309.3333 503.6190,309.3333 523.2381,316.7619 569.5238,318.6667 579.4286,320.7619 569.5238,316.7619 564.0000,306.2857 569.5238,301.1429 538.6667,293.7143 509.1429,291.6190 509.1429,288.5714 468.5714,288.5714 443.2381,283.4286 418.0952,296.9524 412.3810,309.3333 412.3810,324.0000 402.6667,329.1429Z">
                    <desc xmlns="http://www.highcharts.com/svg/namespace">
<name>Ulvik</name>
<region>Vestland</region>
<hc-group>admin2</hc-group>
<hc-key>no-vl-4620</hc-key>
<hc-a2>UL</hc-a2>
<hc-middle-lon>7.223</hc-middle-lon>
<hc-middle-lat>60.603</hc-middle-lat>
</desc>


                </path>
<path fill="#CEE3F5" stroke="#6E6E6E" stroke-width="0.4" id="undefined" d="M408.1905,334.4762 427.8095,341.7143 453.1429,341.7143 453.1429,348.9524 443.2381,354.0952 462.8571,354.0952 468.5714,356.1905 472.7619,366.6667 493.7143,371.8095 478.2857,371.8095 478.2857,381.3333 493.7143,386.4762 488.1905,396.9524 519.0476,396.9524 538.6667,402.0952 559.8095,386.4762 564.0000,373.9048 573.7143,368.7619 579.4286,346.8571 579.4286,341.7143 589.1429,320.7619 579.4286,320.7619 569.5238,318.6667 523.2381,316.7619 503.6190,309.3333 488.1905,309.3333 488.1905,318.6667 437.7143,324.0000 468.5714,324.0000 465.7143,324.9524 468.5714,324.9524 462.8571,330.2857 456.0000,330.2857 453.1429,331.2381 433.5238,329.1429 427.8095,329.1429 416.5714,330.2857 412.3810,331.2381 408.1905,334.4762Z">
                    <desc xmlns="http://www.highcharts.com/svg/namespace">
<name>Eidfjord</name>
<region>Vestland</region>
<hc-group>admin2</hc-group>
<hc-key>no-vl-4619</hc-key>
<hc-a2>EI</hc-a2>
<hc-middle-lon>7.262</hc-middle-lon>
<hc-middle-lat>60.347</hc-middle-lat>
</desc>


                </path>
<path fill="#CEE3F5" stroke="#6E6E6E" stroke-width="0.4" id="undefined" d="M231.4286,389.5238 241.3333,389.5238 242.6667,387.4286 245.5238,385.5238 246.8571,384.3810 253.9048,377.1429 255.2381,373.9048 256.7619,370.8571 260.9524,369.7143 262.2857,368.7619 265.1429,369.7143 281.9048,373.9048 281.9048,364.5714 291.8095,354.0952 290.2857,353.1429 283.4286,352.1905 280.5714,351.0476 283.4286,350.0952 284.7619,350.0952 281.9048,348.9524 293.1429,348.9524 294.6667,348.0000 297.3333,348.9524 301.5238,348.9524 291.8095,338.4762 291.8095,335.4286 291.8095,333.3333 291.8095,331.2381 294.6667,331.2381 294.6667,333.3333 297.3333,339.6190 301.5238,342.6667 304.3810,345.9048 307.2381,346.8571 316.9524,346.8571 322.6667,343.8095 328.1905,340.5714 329.7143,340.5714 332.3810,338.4762 343.6190,337.5238 350.6667,336.3810 353.5238,335.4286 357.7143,331.2381 332.3810,331.2381 332.3810,326.0952 307.2381,326.0952 307.2381,318.6667 276.3810,320.7619 272.1905,320.7619 256.7619,326.0952 241.3333,341.7143 241.3333,359.4286 251.0476,364.5714 251.0476,371.8095 241.3333,384.3810 231.4286,389.5238 M301.5238,345.9048 301.5238,346.8571 303.0476,346.8571 301.5238,345.9048Z">
                    <desc xmlns="http://www.highcharts.com/svg/namespace">
<name>Kvam herad</name>
<region>Vestland</region>
<hc-group>admin2</hc-group>
<hc-key>no-vl-4622</hc-key>
<hc-a2>KV</hc-a2>
<hc-middle-lon>6.191</hc-middle-lon>
<hc-middle-lat>60.353</hc-middle-lat>
</desc>


                </path>
<path fill="#CEE3F5" stroke="#6E6E6E" stroke-width="0.4" id="undefined" d="M61.7143,315.6190 70.0952,326.0952 71.6190,326.0952 74.2857,324.9524 75.8095,324.9524 78.4762,326.0952 80.0000,326.0952 80.0000,330.2857 82.8571,330.2857 82.8571,331.2381 81.3333,332.3810 80.0000,332.3810 80.0000,333.3333 82.8571,334.4762 84.1905,334.4762 92.5714,336.3810 89.7143,338.4762 89.7143,342.6667 91.2381,343.8095 103.8095,341.7143 105.1429,340.5714 105.1429,333.3333 105.1429,331.2381 100.9524,329.1429 95.4286,326.0952 70.0952,320.7619 63.0476,315.6190 61.7143,315.6190Z">
                    <desc xmlns="http://www.highcharts.com/svg/namespace">
<name>Askøy</name>
<region>Vestland</region>
<hc-group>admin2</hc-group>
<hc-key>no-vl-4627</hc-key>
<hc-a2>AS</hc-a2>
<hc-middle-lon>5.083</hc-middle-lon>
<hc-middle-lat>60.481</hc-middle-lat>
</desc>


                </path>
<path fill="#CEE3F5" stroke="#6E6E6E" stroke-width="0.4" id="undefined" d="M130.4762,379.2381 140.1905,377.1429 140.1905,373.9048 151.4286,373.9048 165.5238,366.6667 176.7619,359.4286 180.9524,348.9524 196.3810,338.4762 190.8571,336.3810 192.1905,339.6190 186.6667,341.7143 185.1429,341.7143 176.7619,342.6667 168.3810,340.5714 162.6667,339.6190 155.6190,338.4762 126.2857,320.7619 113.7143,327.0476 113.7143,328.1905 112.1905,331.2381 113.7143,331.2381 117.9048,335.4286 116.3810,336.3810 116.3810,337.5238 120.5714,343.8095 122.0952,344.7619 124.7619,345.9048 117.9048,348.0000 103.8095,348.0000 100.9524,348.9524 100.9524,356.1905 105.1429,357.3333 108.0000,358.2857 110.8571,360.3810 105.1429,359.4286 105.1429,368.7619 120.5714,370.8571 126.2857,370.8571 124.7619,373.9048 116.3810,378.0952 110.8571,381.3333 112.1905,381.3333 123.4286,380.1905 129.1429,379.2381 130.4762,379.2381Z">
                    <desc xmlns="http://www.highcharts.com/svg/namespace">
<name>Bergen</name>
<region>Vestland</region>
<hc-group>admin2</hc-group>
<hc-key>no-vl-4601</hc-key>
<hc-a2>BE</hc-a2>
<hc-middle-lon>5.424</hc-middle-lon>
<hc-middle-lat>60.367</hc-middle-lat>
</desc>


                </path>
<path fill="#CEE3F5" stroke="#6E6E6E" stroke-width="0.4" id="undefined" d="M190.8571,361.5238 206.2857,359.4286 241.3333,359.4286 241.3333,341.7143 256.7619,326.0952 246.8571,320.7619 237.1429,329.1429 216.0000,334.4762 196.3810,338.4762 180.9524,348.9524 176.7619,359.4286 176.7619,361.5238 179.6190,361.5238 182.2857,358.2857 185.1429,354.0952 188.0000,351.0476 188.0000,352.1905 189.3333,353.1429 195.0476,351.0476 196.3810,350.0952 202.0952,348.0000 204.7619,346.8571 206.2857,346.8571 207.6190,346.8571 207.6190,348.9524 206.2857,350.0952 206.2857,352.1905 195.0476,353.1429 195.0476,354.0952 193.5238,355.2381 192.1905,357.3333 190.8571,358.2857 190.8571,361.5238Z">
                    <desc xmlns="http://www.highcharts.com/svg/namespace">
<name>Samnanger</name>
<region>Vestland</region>
<hc-group>admin2</hc-group>
<hc-key>no-vl-4623</hc-key>
<hc-a2>SA</hc-a2>
<hc-middle-lon>5.782</hc-middle-lon>
<hc-middle-lat>60.419</hc-middle-lat>
</desc>


                </path>
<path fill="#CEE3F5" stroke="#6E6E6E" stroke-width="0.4" id="undefined" d="M87.0476,424.0000 87.0476,424.9524 102.4762,426.0952 105.1429,426.0952 105.1429,419.8095 105.1429,418.8571 103.8095,417.7143 102.4762,417.7143 100.9524,418.8571 87.0476,424.0000 M105.1429,416.7619 106.6667,418.8571 108.0000,418.8571 123.4286,416.7619 124.7619,415.6190 124.7619,414.6667 124.7619,412.5714 124.7619,411.4286 124.7619,409.3333 123.4286,407.2381 120.5714,405.1429 119.2381,405.1429 117.9048,405.1429 117.9048,407.2381 115.0476,405.1429 115.0476,404.1905 116.3810,404.1905 115.0476,402.0952 110.8571,400.0000 110.8571,399.0476 109.3333,404.1905 109.3333,405.1429 109.3333,406.2857 110.8571,408.3810 113.7143,410.4762 115.0476,411.4286 113.7143,411.4286 113.7143,412.5714 112.1905,413.5238 110.8571,413.5238 109.3333,411.4286 109.3333,409.3333 108.0000,408.3810 105.1429,415.6190 105.1429,416.7619Z">
                    <desc xmlns="http://www.highcharts.com/svg/namespace">
<name>Austevoll</name>
<region>Vestland</region>
<hc-group>admin2</hc-group>
<hc-key>no-vl-4625</hc-key>
<hc-a2>AU</hc-a2>
<hc-middle-lon>5.2</hc-middle-lon>
<hc-middle-lat>60.044</hc-middle-lat>
</desc>


                </path>
<path fill="#CEE3F5" stroke="#6E6E6E" stroke-width="0.4" id="undefined" d="M136.0000,421.9048 137.5238,422.8571 140.1905,427.0476 151.4286,429.1429 152.9524,430.2857 154.2857,430.2857 155.6190,429.1429 158.4762,428.1905 160.0000,430.2857 160.0000,434.4762 161.3333,434.4762 161.3333,436.3810 165.5238,439.6190 169.7143,438.4762 176.7619,436.3810 180.9524,436.3810 185.1429,437.5238 189.3333,437.5238 186.6667,433.3333 180.9524,429.1429 189.3333,422.8571 190.8571,421.9048 190.8571,407.2381 183.8095,408.3810 182.2857,408.3810 182.2857,409.3333 180.9524,409.3333 179.6190,409.3333 178.0952,409.3333 178.0952,408.3810 162.6667,410.4762 162.6667,411.4286 161.3333,411.4286 160.0000,412.5714 158.4762,412.5714 157.1429,411.4286 155.6190,411.4286 155.6190,419.8095 154.2857,419.8095 152.9524,420.7619 145.9048,420.7619 137.5238,421.9048 136.0000,421.9048Z">
                    <desc xmlns="http://www.highcharts.com/svg/namespace">
<name>Tysnes</name>
<region>Vestland</region>
<hc-group>admin2</hc-group>
<hc-key>no-vl-4616</hc-key>
<hc-a2>TY</hc-a2>
<hc-middle-lon>5.505</hc-middle-lon>
<hc-middle-lat>59.99</hc-middle-lat>
</desc>


                </path>
<path fill="#CEE3F5" stroke="#6E6E6E" stroke-width="0.4" id="undefined" d="M126.2857,454.0952 130.4762,457.3333 145.9048,450.0952 145.9048,446.8571 155.6190,441.7143 154.2857,440.5714 140.1905,429.1429 122.0952,427.0476 122.0952,428.1905 120.5714,429.1429 124.7619,430.2857 122.0952,433.3333 117.9048,436.3810 116.3810,439.6190 117.9048,441.7143 117.9048,442.6667 116.3810,444.7619 119.2381,448.0000 122.0952,450.0952 123.4286,453.1429 126.2857,454.0952Z">
                    <desc xmlns="http://www.highcharts.com/svg/namespace">
<name>Fitjar</name>
<region>Vestland</region>
<hc-group>admin2</hc-group>
<hc-key>no-vl-4615</hc-key>
<hc-a2>FI</hc-a2>
<hc-middle-lon>5.359</hc-middle-lon>
<hc-middle-lat>59.892</hc-middle-lat>
</desc>


                </path>
<path fill="#CEE3F5" stroke="#6E6E6E" stroke-width="0.4" id="undefined" d="M281.9048,457.3333 281.9048,446.8571 291.8095,446.8571 301.5238,436.3810 316.9524,429.1429 322.6667,416.7619 347.8095,402.0952 347.8095,381.3333 332.3810,379.2381 312.7619,381.3333 297.3333,389.5238 297.3333,396.9524 298.8571,394.8571 300.1905,393.7143 303.0476,391.6190 304.3810,390.6667 307.2381,389.5238 311.4286,396.9524 312.7619,396.9524 312.7619,397.9048 311.4286,399.0476 312.7619,399.0476 276.3810,404.1905 268.0000,407.2381 260.9524,410.4762 256.7619,413.5238 248.3810,421.9048 253.9048,424.0000 255.2381,424.9524 253.9048,426.0952 253.9048,428.1905 252.5714,429.1429 251.0476,429.1429 244.0000,430.2857 224.3810,431.2381 223.0476,432.3810 218.8571,433.3333 211.8095,436.3810 208.9524,437.5238 208.9524,438.4762 208.9524,443.8095 200.5714,448.0000 195.0476,448.9524 193.5238,448.9524 190.8571,450.0952 206.2857,446.8571 206.2857,454.0952 207.6190,454.0952 211.8095,456.1905 217.5238,461.5238 221.7143,463.6190 224.3810,464.5714 237.1429,462.4762 241.3333,461.5238 241.3333,454.0952 245.5238,452.1905 248.3810,448.9524 249.7143,448.0000 251.0476,446.8571 251.0476,448.0000 252.5714,448.0000 251.0476,448.9524 249.7143,452.1905 251.0476,456.1905 249.7143,458.2857 248.3810,459.4286 246.8571,462.4762 251.0476,466.6667 262.2857,466.6667 265.1429,465.7143 274.8571,461.5238 281.9048,457.3333 M231.4286,404.1905 221.7143,414.6667 202.0952,414.6667 202.0952,418.8571 202.0952,419.8095 207.6190,421.9048 213.1429,420.7619 214.6667,416.7619 218.8571,417.7143 217.5238,418.8571 217.5238,419.8095 230.0952,416.7619 231.4286,415.6190 231.4286,404.1905Z">
                    <desc xmlns="http://www.highcharts.com/svg/namespace">
<name>Kvinnherad</name>
<region>Vestland</region>
<hc-group>admin2</hc-group>
<hc-key>no-vl-4617</hc-key>
<hc-a2>KV</hc-a2>
<hc-middle-lon>6.059</hc-middle-lon>
<hc-middle-lat>59.99</hc-middle-lat>
</desc>


                </path>
<path fill="#CEE3F5" stroke="#6E6E6E" stroke-width="0.4" id="undefined" d="M217.5238,486.4762 228.5714,484.3810 237.1429,482.2857 237.1429,487.4286 217.5238,487.4286 225.9048,489.5238 241.3333,494.8571 256.7619,500.0000 291.8095,500.0000 297.3333,482.2857 322.6667,462.4762 336.7619,462.4762 357.7143,452.1905 352.1905,446.8571 352.1905,432.3810 322.6667,416.7619 316.9524,429.1429 301.5238,436.3810 291.8095,446.8571 281.9048,446.8571 281.9048,457.3333 301.5238,452.1905 304.3810,451.0476 316.9524,448.9524 314.2857,452.1905 298.8571,454.0952 298.8571,455.2381 296.0000,457.3333 294.6667,458.2857 291.8095,458.2857 290.2857,458.2857 288.9524,460.3810 270.6667,467.8095 266.4762,469.7143 256.7619,471.8095 255.2381,471.8095 245.5238,469.7143 244.0000,468.7619 242.6667,467.8095 241.3333,466.6667 238.4762,466.6667 237.1429,467.8095 237.1429,469.7143 237.1429,470.8571 237.1429,471.8095 230.0952,471.8095 223.0476,472.9524 221.7143,473.9048 220.1905,475.0476 220.1905,476.0000 211.8095,481.3333 211.8095,482.2857 216.0000,484.3810 216.0000,485.5238 217.5238,486.4762 M217.5238,486.4762 218.8571,486.4762 217.5238,486.4762Z">
                    <desc xmlns="http://www.highcharts.com/svg/namespace">
<name>Etne</name>
<region>Vestland</region>
<hc-group>admin2</hc-group>
<hc-key>no-vl-4611</hc-key>
<hc-a2>ET</hc-a2>
<hc-middle-lon>6.139</hc-middle-lon>
<hc-middle-lat>59.806</hc-middle-lat>
</desc>


                </path>
<path fill="#CEE3F5" stroke="#6E6E6E" stroke-width="0.4" id="undefined" d="M130.4762,462.4762 134.6667,463.6190 137.5238,463.6190 138.8571,461.5238 140.1905,460.3810 141.7143,460.3810 144.5714,461.5238 144.5714,463.6190 144.5714,464.5714 141.7143,464.5714 137.5238,464.5714 145.9048,466.6667 154.2857,464.5714 160.0000,461.5238 161.3333,460.3810 161.3333,448.9524 161.3333,448.0000 157.1429,443.8095 155.6190,441.7143 145.9048,446.8571 145.9048,450.0952 130.4762,457.3333 130.4762,462.4762 M172.5714,448.9524 173.9048,450.0952 173.9048,451.0476 175.4286,452.1905 175.4286,453.1429 179.6190,456.1905 180.9524,455.2381 180.9524,445.9048 179.6190,445.9048 178.0952,445.9048 172.5714,448.9524Z">
                    <desc xmlns="http://www.highcharts.com/svg/namespace">
<name>Stord</name>
<region>Vestland</region>
<hc-group>admin2</hc-group>
<hc-key>no-vl-4614</hc-key>
<hc-a2>ST</hc-a2>
<hc-middle-lon>5.464</hc-middle-lon>
<hc-middle-lat>59.825</hc-middle-lat>
</desc>


                </path>
<path fill="#CEE3F5" stroke="#6E6E6E" stroke-width="0.4" id="undefined" d="M81.3333,462.4762 87.0476,465.7143 89.7143,463.6190 91.2381,466.6667 92.5714,466.6667 105.1429,466.6667 93.9048,473.9048 92.5714,476.0000 89.7143,480.1905 89.7143,491.6190 91.2381,493.7143 92.5714,494.8571 103.8095,496.9524 105.1429,495.8095 105.1429,494.8571 105.1429,493.7143 105.1429,491.6190 105.1429,490.6667 105.1429,489.5238 103.8095,488.5714 103.8095,486.4762 103.8095,485.5238 105.1429,483.4286 105.1429,482.2857 103.8095,483.4286 100.9524,485.5238 98.2857,487.4286 96.7619,484.3810 98.2857,482.2857 103.8095,478.0952 105.1429,476.0000 103.8095,473.9048 103.8095,472.9524 103.8095,471.8095 105.1429,469.7143 105.1429,468.7619 108.0000,468.7619 109.3333,467.8095 110.8571,467.8095 110.8571,466.6667 119.2381,469.7143 119.2381,468.7619 122.0952,468.7619 124.7619,471.8095 126.2857,471.8095 124.7619,473.9048 124.7619,475.0476 126.2857,478.0952 122.0952,480.1905 120.5714,481.3333 122.0952,481.3333 130.4762,477.1429 117.9048,459.4286 117.9048,458.2857 115.0476,458.2857 113.7143,458.2857 110.8571,458.2857 109.3333,456.1905 109.3333,454.0952 108.0000,454.0952 106.6667,454.0952 105.1429,453.1429 99.6190,450.0952 98.2857,448.9524 91.2381,444.7619 91.2381,445.9048 95.4286,452.1905 93.9048,452.1905 95.4286,454.0952 93.9048,453.1429 89.7143,455.2381 81.3333,461.5238 81.3333,462.4762 M126.2857,454.0952 130.4762,462.4762 130.4762,457.3333 126.2857,454.0952Z">
                    <desc xmlns="http://www.highcharts.com/svg/namespace">
<name>Bømlo</name>
<region>Vestland</region>
<hc-group>admin2</hc-group>
<hc-key>no-vl-4613</hc-key>
<hc-a2>BØ</hc-a2>
<hc-middle-lon>5.201</hc-middle-lon>
<hc-middle-lat>59.739</hc-middle-lat>
</desc>


                </path>
<path fill="#CEE3F5" stroke="#6E6E6E" stroke-width="0.4" id="undefined" d="M164.1905,510.4762 150.0952,513.5238 148.7619,515.6190 147.2381,515.6190 145.9048,514.6667 145.9048,513.5238 145.9048,512.5714 145.9048,510.4762 145.9048,507.2381 160.0000,502.0952 161.3333,500.0000 160.0000,497.9048 160.0000,495.8095 158.4762,493.7143 160.0000,491.6190 161.3333,489.5238 161.3333,475.0476 160.0000,473.9048 160.0000,472.9524 155.6190,475.0476 150.0952,478.0952 145.9048,480.1905 151.4286,489.5238 148.7619,492.7619 147.2381,493.7143 147.2381,495.8095 145.9048,499.0476 144.5714,496.9524 143.0476,490.6667 141.7143,489.5238 141.7143,488.5714 137.5238,487.4286 133.3333,488.5714 129.1429,490.6667 126.2857,491.6190 124.7619,492.7619 123.4286,496.9524 113.7143,505.1429 112.1905,505.1429 108.0000,509.3333 113.7143,510.4762 113.7143,511.4286 108.0000,511.4286 106.6667,511.4286 105.1429,512.5714 102.4762,513.5238 102.4762,514.6667 115.0476,514.6667 126.2857,519.8095 140.1905,519.8095 155.6190,517.7143 164.1905,510.4762 M164.1905,510.4762 165.5238,509.3333 166.8571,508.3810 165.5238,509.3333 164.1905,510.4762 M166.8571,508.3810 171.0476,505.1429 171.0476,487.4286 168.3810,496.9524 171.0476,497.9048 169.7143,502.0952 168.3810,505.1429 168.3810,506.2857 166.8571,508.3810Z">
                    <desc xmlns="http://www.highcharts.com/svg/namespace">
<name>Sveio</name>
<region>Vestland</region>
<hc-group>admin2</hc-group>
<hc-key>no-vl-4612</hc-key>
<hc-a2>SV</hc-a2>
<hc-middle-lon>5.363</hc-middle-lon>
<hc-middle-lat>59.607</hc-middle-lat>
</desc>


                </path>
<path fill="#CEE3F5" stroke="#6E6E6E" stroke-width="0.4" id="undefined" d="M65.9048,183.4286 85.5238,183.4286 85.5238,178.0952 100.9524,181.3333 105.1429,181.3333 126.2857,185.3333 140.1905,183.4286 151.4286,190.6667 186.6667,195.8095 186.6667,190.6667 206.2857,183.4286 196.3810,178.0952 171.0476,165.7143 175.4286,161.5238 151.4286,161.5238 145.9048,161.5238 117.9048,165.7143 119.2381,166.6667 126.2857,168.7619 129.1429,170.8571 130.4762,172.9524 131.8095,176.0000 131.8095,179.2381 131.8095,182.2857 129.1429,183.4286 126.2857,180.1905 124.7619,173.9048 123.4286,171.8095 120.5714,169.7143 117.9048,167.6190 115.0476,167.6190 110.8571,166.6667 106.6667,165.7143 105.1429,165.7143 100.9524,166.6667 100.9524,167.6190 99.6190,169.7143 98.2857,171.8095 96.7619,171.8095 95.4286,172.9524 84.1905,172.9524 81.3333,173.9048 80.0000,175.0476 75.8095,175.0476 74.2857,175.0476 60.3810,180.1905 60.3810,181.3333 63.0476,182.2857 64.5714,182.2857 65.9048,183.4286 M141.7143,160.3810 143.0476,160.3810 165.5238,158.2857 145.9048,158.2857 141.7143,160.3810Z">
                    <desc xmlns="http://www.highcharts.com/svg/namespace">
<name>Fjaler</name>
<region>Vestland</region>
<hc-group>admin2</hc-group>
<hc-key>no-vl-4646</hc-key>
<hc-a2>FJ</hc-a2>
<hc-middle-lon>5.345</hc-middle-lon>
<hc-middle-lat>61.283</hc-middle-lat>
</desc>


                </path>
<path fill="#CEE3F5" stroke="#6E6E6E" stroke-width="0.4" id="undefined" d="M141.7143,160.3810 145.9048,158.2857 145.9048,151.0476 164.1905,148.9524 160.0000,148.9524 141.7143,144.7619 130.4762,142.6667 126.2857,145.9048 117.9048,143.8095 109.3333,141.7143 108.0000,141.7143 100.9524,145.9048 89.7143,145.9048 78.4762,145.9048 58.8571,151.0476 65.9048,152.0000 72.9524,152.0000 81.3333,151.0476 85.5238,151.0476 88.3810,148.9524 89.7143,150.0952 89.7143,151.0476 89.7143,152.0000 84.1905,152.0000 82.8571,153.1429 82.8571,154.0952 82.8571,157.3333 82.8571,158.2857 80.0000,159.4286 78.4762,158.2857 78.4762,156.1905 75.8095,154.0952 72.9524,154.0952 70.0952,156.1905 67.4286,159.4286 67.4286,160.3810 75.8095,167.6190 95.4286,163.6190 126.2857,160.3810 138.8571,160.3810 141.7143,160.3810 M168.3810,148.9524 171.0476,148.0000 169.7143,148.0000 168.3810,148.9524Z">
                    <desc xmlns="http://www.highcharts.com/svg/namespace">
<name>Askvoll</name>
<region>Vestland</region>
<hc-group>admin2</hc-group>
<hc-key>no-vl-4645</hc-key>
<hc-a2>AS</hc-a2>
<hc-middle-lon>5.248</hc-middle-lon>
<hc-middle-lat>61.398</hc-middle-lat>
</desc>


                </path>
<path fill="#CEE3F5" stroke="#6E6E6E" stroke-width="0.4" id="undefined" d="M65.9048,183.4286 67.4286,184.3810 70.0952,185.3333 72.9524,185.3333 80.0000,184.3810 77.1429,186.4762 74.2857,187.4286 68.7619,187.4286 67.4286,187.4286 68.7619,188.5714 71.6190,189.5238 93.9048,187.4286 98.2857,188.5714 100.9524,188.5714 115.0476,195.8095 110.8571,201.1429 89.7143,195.8095 77.1429,197.9048 77.1429,199.0476 88.3810,202.0952 91.2381,203.0476 95.4286,203.0476 98.2857,201.1429 102.4762,201.1429 106.6667,203.0476 110.8571,203.0476 108.0000,204.1905 103.8095,204.1905 99.6190,204.1905 98.2857,206.2857 99.6190,207.2381 100.9524,207.2381 102.4762,209.3333 105.1429,210.4762 106.6667,210.4762 108.0000,210.4762 126.2857,206.2857 129.1429,210.4762 131.8095,212.5714 136.0000,214.6667 143.0476,215.6190 145.9048,215.6190 151.4286,210.4762 151.4286,190.6667 140.1905,183.4286 126.2857,185.3333 105.1429,181.3333 100.9524,181.3333 85.5238,178.0952 85.5238,183.4286 65.9048,183.4286Z">
                    <desc xmlns="http://www.highcharts.com/svg/namespace">
<name>Hyllestad</name>
<region>Vestland</region>
<hc-group>admin2</hc-group>
<hc-key>no-vl-4637</hc-key>
<hc-a2>HY</hc-a2>
<hc-middle-lon>5.215</hc-middle-lon>
<hc-middle-lat>61.178</hc-middle-lat>
</desc>


                </path>
<path fill="#CEE3F5" stroke="#6E6E6E" stroke-width="0.4" id="undefined" d="M0.0000,221.9048 0.0000,224.0000 1.3333,226.0952 1.3333,227.0476 2.8571,227.0476 4.1905,227.0476 4.1905,228.1905 8.3810,230.2857 9.9048,229.1429 11.2381,227.0476 12.5714,227.0476 11.2381,229.1429 11.2381,230.2857 11.2381,231.2381 14.0952,232.3810 16.7619,231.2381 18.2857,228.1905 18.2857,224.9524 16.7619,224.0000 14.0952,222.8571 12.5714,221.9048 12.5714,220.7619 14.0952,219.8095 12.5714,218.6667 0.0000,220.7619 0.0000,221.9048 M29.5238,218.6667 32.1905,217.7143 33.7143,215.6190 35.0476,215.6190 40.7619,212.5714 40.7619,211.4286 43.4286,213.5238 44.9524,213.5238 44.9524,216.7619 46.2857,217.7143 47.6190,219.8095 51.8095,217.7143 53.3333,216.7619 56.1905,215.6190 63.0476,211.4286 64.5714,210.4762 54.6667,195.8095 54.6667,196.9524 53.3333,197.9048 49.1429,201.1429 49.1429,203.0476 49.1429,204.1905 47.6190,205.1429 47.6190,204.1905 44.9524,206.2857 43.4286,205.1429 42.0952,207.2381 39.2381,206.2857 37.9048,205.1429 29.5238,203.0476 29.5238,218.6667 M75.8095,201.1429 70.0952,208.3810 71.6190,208.3810 72.9524,209.3333 80.0000,210.4762 75.8095,201.1429 M88.3810,202.0952 77.1429,199.0476 75.8095,200.0000 78.4762,201.1429 88.3810,202.0952Z">
                    <desc xmlns="http://www.highcharts.com/svg/namespace">
<name>Solund</name>
<region>Vestland</region>
<hc-group>admin2</hc-group>
<hc-key>no-vl-4636</hc-key>
<hc-a2>SO</hc-a2>
<hc-middle-lon>4.875</hc-middle-lon>
<hc-middle-lat>61.087</hc-middle-lat>
</desc>


                </path>
<path fill="#CEE3F5" stroke="#6E6E6E" stroke-width="0.4" id="undefined" d="M25.3333,243.8095 32.1905,248.0000 33.7143,245.9048 35.0476,246.8571 36.3810,248.0000 35.0476,250.0952 36.3810,250.0952 39.2381,252.0000 40.7619,253.1429 42.0952,252.0000 43.4286,253.1429 43.4286,254.0952 49.1429,258.2857 50.4762,258.2857 53.3333,256.1905 51.8095,256.1905 53.3333,255.2381 53.3333,254.0952 49.1429,250.0952 44.9524,246.8571 43.4286,246.8571 43.4286,245.9048 39.2381,243.8095 35.0476,244.7619 33.7143,243.8095 36.3810,243.8095 37.9048,242.6667 36.3810,241.7143 29.5238,242.6667 25.3333,243.8095 M68.7619,246.8571 65.9048,243.8095 63.0476,242.6667 61.7143,241.7143 60.3810,241.7143 60.3810,250.0952 61.7143,252.0000 61.7143,253.1429 61.7143,254.0952 60.3810,254.0952 60.3810,255.2381 60.3810,256.1905 63.0476,258.2857 63.0476,259.4286 68.7619,260.3810 70.0952,260.3810 72.9524,260.3810 74.2857,260.3810 74.2857,259.4286 74.2857,258.2857 68.7619,246.8571 M68.7619,246.8571 70.0952,248.0000 70.0952,248.9524 71.6190,250.0952 72.9524,252.0000 75.8095,258.2857 77.1429,260.3810 78.4762,261.5238 82.8571,262.4762 89.7143,261.5238 92.5714,262.4762 95.4286,258.2857 100.9524,251.0476 126.2857,240.5714 130.4762,245.9048 145.9048,243.8095 165.5238,245.9048 186.6667,236.3810 180.9524,218.6667 171.0476,216.7619 168.3810,216.7619 161.3333,219.8095 160.0000,219.8095 154.2857,224.0000 154.2857,226.0952 155.6190,228.1905 157.1429,229.1429 155.6190,231.2381 152.9524,232.3810 151.4286,230.2857 151.4286,227.0476 150.0952,226.0952 126.2857,226.0952 99.6190,217.7143 93.9048,216.7619 81.3333,216.7619 70.0952,221.9048 70.0952,222.8571 70.0952,234.4762 71.6190,235.4286 75.8095,235.4286 89.7143,234.4762 91.2381,234.4762 92.5714,233.3333 93.9048,232.3810 93.9048,233.3333 95.4286,233.3333 93.9048,234.4762 95.4286,236.3810 92.5714,237.5238 89.7143,238.4762 87.0476,240.5714 85.5238,242.6667 87.0476,251.0476 87.0476,254.0952 85.5238,254.0952 82.8571,252.0000 82.8571,248.9524 82.8571,241.7143 82.8571,240.5714 64.5714,240.5714 64.5714,241.7143 68.7619,243.8095 68.7619,244.7619 68.7619,246.8571Z">
                    <desc xmlns="http://www.highcharts.com/svg/namespace">
<name>Gulen</name>
<region>Vestland</region>
<hc-group>admin2</hc-group>
<hc-key>no-vl-4635</hc-key>
<hc-a2>GU</hc-a2>
<hc-middle-lon>5.2</hc-middle-lon>
<hc-middle-lat>60.956</hc-middle-lat>
</desc>


                </path>
<path fill="#CEE3F5" stroke="#6E6E6E" stroke-width="0.4" id="undefined" d="M145.9048,215.6190 147.2381,215.6190 166.8571,207.2381 169.7143,206.2857 173.9048,205.1429 183.8095,204.1905 200.5714,202.0952 202.0952,201.1429 204.7619,201.1429 207.6190,201.1429 210.4762,201.1429 211.8095,200.0000 211.8095,193.7143 213.1429,194.8571 214.6667,194.8571 217.5238,193.7143 216.0000,195.8095 216.0000,196.9524 221.7143,201.1429 246.8571,197.9048 266.4762,190.6667 265.1429,191.6190 263.8095,194.8571 259.4286,196.9524 255.2381,197.9048 252.5714,200.0000 258.0952,202.0952 263.8095,202.0952 272.1905,203.0476 276.3810,202.0952 290.2857,196.9524 291.8095,195.8095 294.6667,200.0000 297.3333,202.0952 303.0476,204.1905 326.8571,208.3810 326.8571,197.9048 336.7619,193.7143 307.2381,185.3333 332.3810,183.4286 322.6667,172.9524 312.7619,176.0000 241.3333,176.0000 225.9048,185.3333 206.2857,183.4286 186.6667,190.6667 186.6667,195.8095 151.4286,190.6667 151.4286,210.4762 145.9048,215.6190 M180.9524,218.6667 186.6667,236.3810 190.8571,236.3810 196.3810,238.4762 221.7143,233.3333 231.4286,240.5714 241.3333,228.1905 266.4762,226.0952 276.3810,233.3333 287.6190,233.3333 291.8095,210.4762 281.9048,208.3810 269.3333,208.3810 263.8095,209.3333 259.4286,209.3333 256.7619,208.3810 232.9524,208.3810 231.4286,208.3810 227.2381,211.4286 228.5714,212.5714 225.9048,213.5238 223.0476,214.6667 221.7143,215.6190 218.8571,217.7143 216.0000,218.6667 216.0000,216.7619 216.0000,210.4762 214.6667,209.3333 211.8095,209.3333 199.2381,212.5714 196.3810,214.6667 193.5238,213.5238 188.0000,213.5238 182.2857,214.6667 180.9524,214.6667 183.8095,215.6190 189.3333,217.7143 189.3333,219.8095 183.8095,218.6667 180.9524,218.6667Z">
                    <desc xmlns="http://www.highcharts.com/svg/namespace">
<name>Høyanger</name>
<region>Vestland</region>
<hc-group>admin2</hc-group>
<hc-key>no-vl-4638</hc-key>
<hc-a2>HØ</hc-a2>
<hc-middle-lon>5.915</hc-middle-lon>
<hc-middle-lat>61.124</hc-middle-lat>
</desc>


                </path>
<path fill="#CEE3F5" stroke="#6E6E6E" stroke-width="0.4" id="undefined" d="M297.3333,248.9524 316.9524,253.1429 332.3810,245.9048 352.1905,240.5714 352.1905,245.9048 367.6190,251.0476 383.0476,245.9048 383.0476,238.4762 398.4762,243.8095 408.1905,238.4762 408.1905,231.2381 418.0952,228.1905 447.4286,228.1905 447.4286,226.0952 439.0476,213.5238 436.1905,213.5238 426.4762,214.6667 423.6190,213.5238 422.2857,212.5714 422.2857,211.4286 418.0952,205.1429 418.0952,204.1905 408.1905,202.0952 406.8571,202.0952 381.5238,201.1429 378.6667,200.0000 377.3333,199.0476 373.1429,197.9048 367.6190,208.3810 364.7619,209.3333 361.9048,211.4286 357.7143,212.5714 346.4762,213.5238 333.9048,219.8095 331.0476,221.9048 329.7143,224.0000 328.1905,226.0952 329.7143,228.1905 325.5238,229.1429 322.6667,228.1905 324.0000,224.9524 326.8571,222.8571 326.8571,221.9048 326.8571,218.6667 314.2857,219.8095 312.7619,220.7619 310.0952,221.9048 304.3810,221.9048 307.2381,220.7619 301.5238,220.7619 307.2381,213.5238 291.8095,210.4762 287.6190,233.3333 281.9048,243.8095 297.3333,245.9048 297.3333,248.9524 M448.9524,213.5238 448.9524,214.6667 450.2857,215.6190 450.2857,216.7619 453.1429,221.9048 453.1429,222.8571 453.1429,218.6667 448.9524,213.5238Z">
                    <desc xmlns="http://www.highcharts.com/svg/namespace">
<name>Vik</name>
<region>Vestland</region>
<hc-group>admin2</hc-group>
<hc-key>no-vl-4639</hc-key>
<hc-a2>VI</hc-a2>
<hc-middle-lon>6.575</hc-middle-lon>
<hc-middle-lat>61.026</hc-middle-lat>
</desc>


                </path>
<path fill="#CEE3F5" stroke="#6E6E6E" stroke-width="0.4" id="undefined" d="M443.2381,283.4286 468.5714,288.5714 509.1429,288.5714 509.1429,291.6190 538.6667,293.7143 564.0000,279.2381 579.4286,281.3333 579.4286,270.8571 589.1429,261.5238 528.9524,233.3333 513.3333,233.3333 509.1429,226.0952 488.1905,222.8571 484.0000,218.6667 462.8571,220.7619 453.1429,218.6667 453.1429,222.8571 454.4762,224.0000 457.3333,226.0952 464.3810,235.4286 467.0476,237.5238 467.0476,238.4762 478.2857,239.6190 479.8095,240.5714 481.1429,245.9048 478.2857,250.0952 478.2857,251.0476 476.9524,252.0000 474.0952,254.0952 468.5714,257.3333 469.9048,255.2381 468.5714,256.1905 472.7619,244.7619 471.4286,242.6667 450.2857,236.3810 444.7619,237.5238 423.6190,243.8095 447.4286,228.1905 418.0952,228.1905 408.1905,231.2381 408.1905,238.4762 398.4762,243.8095 398.4762,248.9524 412.3810,245.9048 412.3810,251.0476 398.4762,256.1905 398.4762,263.6190 418.0952,258.2857 433.5238,258.2857 427.8095,263.6190 423.6190,273.9048 443.2381,273.9048 443.2381,283.4286Z">
                    <desc xmlns="http://www.highcharts.com/svg/namespace">
<name>Aurland</name>
<region>Vestland</region>
<hc-group>admin2</hc-group>
<hc-key>no-vl-4641</hc-key>
<hc-a2>AU</hc-a2>
<hc-middle-lon>7.236</hc-middle-lon>
<hc-middle-lat>60.867</hc-middle-lat>
</desc>


                </path>
<path fill="#CEE3F5" stroke="#6E6E6E" stroke-width="0.4" id="undefined" d="M448.9524,213.5238 453.1429,218.6667 462.8571,220.7619 484.0000,218.6667 488.1905,222.8571 509.1429,226.0952 513.3333,233.3333 528.9524,233.3333 589.1429,261.5238 594.8571,256.1905 608.7619,245.9048 624.1905,251.0476 643.8095,251.0476 664.9524,233.3333 680.3810,236.3810 680.3810,228.1905 690.0952,228.1905 680.3810,220.7619 684.5714,215.6190 664.9524,210.4762 655.0476,203.0476 655.0476,195.8095 643.8095,195.8095 649.5238,188.5714 639.6190,185.3333 620.0000,193.7143 620.0000,197.9048 594.8571,201.1429 604.5714,208.3810 573.7143,210.4762 559.8095,203.0476 538.6667,203.0476 538.6667,197.9048 528.9524,195.8095 527.4286,197.9048 526.0952,199.0476 517.7143,202.0952 514.8571,203.0476 516.1905,204.1905 519.0476,205.1429 526.0952,209.3333 527.4286,210.4762 531.6190,210.4762 531.6190,211.4286 519.0476,210.4762 513.3333,209.3333 509.1429,207.2381 506.4762,206.2857 504.9524,206.2857 486.8571,206.2857 485.3333,206.2857 479.8095,210.4762 478.2857,210.4762 448.9524,213.5238Z">
                    <desc xmlns="http://www.highcharts.com/svg/namespace">
<name>Lærdal</name>
<region>Vestland</region>
<hc-group>admin2</hc-group>
<hc-key>no-vl-4642</hc-key>
<hc-a2>LÆ</hc-a2>
<hc-middle-lon>7.633</hc-middle-lon>
<hc-middle-lat>61.039</hc-middle-lat>
</desc>


                </path>
<path fill="#CEE3F5" stroke="#6E6E6E" stroke-width="0.4" id="undefined" d="M520.3810,192.7619 521.9048,192.7619 523.2381,192.7619 551.2381,191.6190 562.4762,190.6667 569.5238,187.4286 573.7143,187.4286 580.7619,186.4762 573.7143,191.6190 564.0000,192.7619 564.0000,193.7143 556.9524,193.7143 534.4762,193.7143 530.2857,195.8095 528.9524,195.8095 538.6667,197.9048 538.6667,203.0476 559.8095,203.0476 573.7143,210.4762 604.5714,208.3810 594.8571,201.1429 620.0000,197.9048 620.0000,193.7143 639.6190,185.3333 664.9524,181.3333 664.9524,176.0000 670.4762,176.0000 684.5714,165.7143 670.4762,163.6190 670.4762,155.2381 664.9524,155.2381 664.9524,151.0476 608.7619,142.6667 599.0476,148.0000 569.5238,145.9048 573.7143,153.1429 564.0000,170.8571 544.3810,167.6190 534.4762,176.0000 528.9524,188.5714 520.3810,192.7619Z">
                    <desc xmlns="http://www.highcharts.com/svg/namespace">
<name>Årdal</name>
<region>Vestland</region>
<hc-group>admin2</hc-group>
<hc-key>no-vl-4643</hc-key>
<hc-a2>ÅR</hc-a2>
<hc-middle-lon>7.809</hc-middle-lon>
<hc-middle-lat>61.283</hc-middle-lat>
</desc>


                </path>
<path fill="#CEE3F5" stroke="#6E6E6E" stroke-width="0.4" id="undefined" d="M412.3810,122.8571 427.8095,135.4286 427.8095,151.0476 437.7143,153.1429 437.7143,160.3810 453.1429,163.6190 453.1429,170.8571 462.8571,176.0000 488.1905,178.0952 503.6190,183.4286 495.2381,175.0476 493.7143,173.9048 493.7143,172.9524 506.4762,160.3810 504.9524,159.4286 502.2857,158.2857 499.4286,155.2381 502.2857,155.2381 510.6667,157.3333 538.6667,142.6667 545.7143,141.7143 556.9524,138.4762 554.0952,141.7143 551.2381,143.8095 545.7143,145.9048 542.8571,145.9048 534.4762,150.0952 531.6190,153.1429 528.9524,155.2381 521.9048,158.2857 519.0476,161.5238 519.0476,163.6190 519.0476,165.7143 517.7143,166.6667 516.1905,168.7619 512.0000,169.7143 509.1429,172.9524 509.1429,177.1429 510.6667,178.0952 512.0000,179.2381 513.3333,181.3333 513.3333,183.4286 514.8571,186.4762 514.8571,188.5714 517.7143,191.6190 520.3810,192.7619 528.9524,188.5714 534.4762,176.0000 544.3810,167.6190 564.0000,170.8571 573.7143,153.1429 569.5238,145.9048 599.0476,148.0000 608.7619,142.6667 664.9524,151.0476 694.4762,145.9048 700.0000,142.6667 690.0952,128.1905 674.6667,124.9524 659.2381,130.2857 629.9048,124.9524 624.1905,120.7619 620.0000,100.0000 620.0000,92.7619 604.5714,87.4286 544.3810,92.7619 544.3810,83.4286 523.2381,67.6190 509.1429,75.0476 488.1905,80.1905 468.5714,90.6667 447.4286,105.1429 418.0952,115.6190 412.3810,122.8571Z">
                    <desc xmlns="http://www.highcharts.com/svg/namespace">
<name>Luster</name>
<region>Vestland</region>
<hc-group>admin2</hc-group>
<hc-key>no-vl-4644</hc-key>
<hc-a2>LU</hc-a2>
<hc-middle-lon>7.566</hc-middle-lon>
<hc-middle-lat>61.529</hc-middle-lat>
</desc>


                </path>
<path fill="#CEE3F5" stroke="#6E6E6E" stroke-width="0.4" id="undefined" d="M307.2381,67.6190 310.0952,67.6190 352.1905,72.9524 361.9048,62.4762 371.8095,62.4762 383.0476,61.5238 384.3810,61.5238 385.7143,60.3810 387.2381,60.3810 388.5714,60.3810 389.9048,62.4762 391.4286,62.4762 398.4762,62.4762 399.8095,63.6190 402.6667,64.5714 405.3333,65.7143 411.0476,63.6190 413.9048,63.6190 413.9048,65.7143 412.3810,65.7143 411.0476,66.6667 408.1905,69.7143 406.8571,70.8571 404.0000,69.7143 402.6667,68.7619 399.8095,67.6190 395.6190,67.6190 391.4286,66.6667 383.0476,65.7143 367.6190,67.6190 360.5714,71.8095 359.0476,73.9048 357.7143,76.0000 353.5238,77.1429 352.1905,78.0952 332.3810,78.0952 329.7143,77.1429 326.8571,76.0000 322.6667,73.9048 316.9524,72.9524 322.6667,80.1905 352.1905,80.1905 377.3333,83.4286 383.0476,78.0952 398.4762,78.0952 402.6667,85.3333 392.7619,87.4286 392.7619,97.9048 398.4762,105.1429 418.0952,115.6190 447.4286,105.1429 468.5714,90.6667 488.1905,80.1905 509.1429,75.0476 523.2381,67.6190 523.2381,40.5714 513.3333,37.5238 488.1905,35.4286 462.8571,37.5238 458.6667,42.6667 427.8095,44.7619 408.1905,44.7619 398.4762,50.0952 387.2381,48.0000 347.8095,53.1429 342.2857,60.3810 332.3810,57.3333 307.2381,60.3810 307.2381,67.6190Z">
                    <desc xmlns="http://www.highcharts.com/svg/namespace">
<name>Stryn</name>
<region>Vestland</region>
<hc-group>admin2</hc-group>
<hc-key>no-vl-4651</hc-key>
<hc-a2>ST</hc-a2>
<hc-middle-lon>6.826</hc-middle-lon>
<hc-middle-lat>61.817</hc-middle-lat>
</desc>


                </path>
<path fill="#CEE3F5" stroke="#6E6E6E" stroke-width="0.4" id="undefined" d="M186.6667,90.6667 202.0952,100.0000 190.8571,105.1429 190.8571,117.7143 202.0952,117.7143 225.9048,112.5714 241.3333,112.5714 251.0476,108.3810 281.9048,110.4762 281.9048,108.3810 316.9524,108.3810 316.9524,115.6190 332.3810,115.6190 332.3810,108.3810 373.1429,108.3810 392.7619,97.9048 392.7619,87.4286 402.6667,85.3333 398.4762,78.0952 383.0476,78.0952 377.3333,83.4286 352.1905,80.1905 322.6667,80.1905 316.9524,72.9524 272.1905,72.9524 274.8571,75.0476 276.3810,75.0476 279.2381,77.1429 280.5714,78.0952 284.7619,80.1905 287.6190,81.3333 290.2857,82.2857 293.1429,84.3810 290.2857,84.3810 291.8095,85.3333 281.9048,85.3333 277.7143,83.4286 276.3810,82.2857 274.8571,81.3333 265.1429,75.0476 260.9524,72.9524 252.5714,72.9524 251.0476,75.0476 249.7143,81.3333 246.8571,84.3810 246.8571,85.3333 244.0000,86.4762 242.6667,87.4286 238.4762,89.5238 237.1429,90.6667 245.5238,76.0000 246.8571,75.0476 242.6667,68.7619 227.2381,69.7143 225.9048,69.7143 231.4286,78.0952 225.9048,85.3333 186.6667,90.6667Z">
                    <desc xmlns="http://www.highcharts.com/svg/namespace">
<name>Gloppen</name>
<region>Vestland</region>
<hc-group>admin2</hc-group>
<hc-key>no-vl-4650</hc-key>
<hc-a2>GL</hc-a2>
<hc-middle-lon>6.191</hc-middle-lon>
<hc-middle-lat>61.722</hc-middle-lat>
</desc>


                </path>
<path fill="#CEE3F5" stroke="#6E6E6E" stroke-width="0.4" id="undefined" d="M29.5238,80.1905 44.9524,85.3333 44.9524,82.2857 43.4286,80.1905 29.5238,80.1905 M35.0476,71.8095 47.6190,72.9524 53.3333,72.9524 51.8095,75.0476 50.4762,76.0000 49.1429,77.1429 44.9524,76.0000 43.4286,76.0000 43.4286,78.0952 44.9524,80.1905 63.0476,80.1905 70.0952,79.2381 77.1429,77.1429 85.5238,72.9524 91.2381,67.6190 93.9048,69.7143 93.9048,71.8095 92.5714,72.9524 89.7143,73.9048 95.4286,73.9048 108.0000,70.8571 109.3333,69.7143 64.5714,61.5238 60.3810,60.3810 42.0952,62.4762 42.0952,64.5714 37.9048,66.6667 35.0476,71.8095 M61.7143,97.9048 80.0000,103.0476 105.1429,105.1429 130.4762,103.0476 126.2857,95.8095 140.1905,95.8095 145.9048,90.6667 165.5238,85.3333 186.6667,90.6667 225.9048,85.3333 231.4286,78.0952 225.9048,69.7143 199.2381,73.9048 190.8571,76.0000 185.1429,76.0000 189.3333,71.8095 195.0476,70.8571 202.0952,67.6190 202.0952,64.5714 199.2381,63.6190 197.7143,62.4762 138.8571,58.2857 136.0000,58.2857 131.8095,61.5238 123.4286,68.7619 124.7619,68.7619 129.1429,69.7143 131.8095,70.8571 123.4286,70.8571 120.5714,70.8571 117.9048,72.9524 119.2381,72.9524 117.9048,73.9048 115.0476,75.0476 105.1429,77.1429 92.5714,79.2381 87.0476,81.3333 82.8571,83.4286 80.0000,85.3333 82.8571,85.3333 103.8095,84.3810 95.4286,86.4762 91.2381,87.4286 93.9048,89.5238 99.6190,92.7619 100.9524,92.7619 95.4286,95.8095 93.9048,94.8571 91.2381,93.7143 88.3810,91.6190 87.0476,91.6190 87.0476,90.6667 84.1905,91.6190 82.8571,91.6190 82.8571,90.6667 82.8571,89.5238 81.3333,88.5714 78.4762,87.4286 63.0476,89.5238 64.5714,90.6667 64.5714,91.6190 65.9048,92.7619 63.0476,92.7619 60.3810,94.8571 60.3810,95.8095 60.3810,96.9524 61.7143,97.9048Z">
                    <desc xmlns="http://www.highcharts.com/svg/namespace">
<name>Bremanger</name>
<region>Vestland</region>
<hc-group>admin2</hc-group>
<hc-key>no-vl-4648</hc-key>
<hc-a2>BR</hc-a2>
<hc-middle-lon>5.332</hc-middle-lon>
<hc-middle-lat>61.783</hc-middle-lat>
</desc>


                </path>
<path fill="#CEE3F5" stroke="#6E6E6E" stroke-width="0.4" id="undefined" d="M112.1905,48.0000 126.2857,55.2381 131.8095,55.2381 134.6667,54.0952 148.7619,52.0000 151.4286,53.1429 151.4286,54.0952 161.3333,53.1429 165.5238,52.0000 190.8571,54.0952 211.8095,55.2381 251.0476,55.2381 249.7143,56.1905 251.0476,56.1905 251.0476,57.3333 245.5238,59.4286 211.8095,59.4286 206.2857,60.3810 210.4762,63.6190 218.8571,66.6667 231.4286,62.4762 234.2857,62.4762 237.1429,62.4762 239.8095,62.4762 242.6667,63.6190 266.4762,65.7143 272.1905,67.6190 273.5238,68.7619 276.3810,69.7143 307.2381,67.6190 307.2381,60.3810 332.3810,57.3333 342.2857,60.3810 347.8095,53.1429 336.7619,50.0952 336.7619,42.6667 326.8571,48.0000 307.2381,44.7619 301.5238,40.5714 291.8095,37.5238 281.9048,48.0000 262.2857,48.0000 256.7619,42.6667 206.2857,44.7619 171.0476,48.0000 155.6190,42.6667 161.3333,37.5238 160.0000,36.3810 160.0000,37.5238 157.1429,38.4762 155.6190,38.4762 154.2857,31.2381 151.4286,28.1905 126.2857,19.8095 124.7619,17.7143 119.2381,14.6667 119.2381,13.5238 120.5714,11.4286 120.5714,9.3333 120.5714,8.3810 119.2381,8.3810 117.9048,8.3810 116.3810,7.2381 113.7143,5.1429 108.0000,3.0476 105.1429,0.9524 100.9524,0.0000 98.2857,0.9524 95.4286,0.9524 95.4286,2.0952 95.4286,3.0476 95.4286,4.1905 93.9048,4.1905 92.5714,4.1905 91.2381,4.1905 85.5238,3.0476 85.5238,4.1905 84.1905,6.2857 84.1905,7.2381 85.5238,7.2381 84.1905,8.3810 82.8571,9.3333 81.3333,10.4762 82.8571,11.4286 85.5238,12.5714 89.7143,12.5714 89.7143,14.6667 91.2381,15.6190 89.7143,15.6190 89.7143,19.8095 93.9048,19.8095 105.1429,19.8095 109.3333,21.9048 124.7619,27.0476 127.6190,29.1429 136.0000,33.3333 138.8571,33.3333 141.7143,34.2857 144.5714,36.3810 143.0476,36.3810 145.9048,37.5238 130.4762,37.5238 122.0952,41.7143 113.7143,45.9048 113.7143,46.8571 113.7143,48.0000 112.1905,48.0000Z">
                    <desc xmlns="http://www.highcharts.com/svg/namespace">
<name>Stad</name>
<region>Vestland</region>
<hc-group>admin2</hc-group>
<hc-key>no-vl-4649</hc-key>
<hc-a2>ST</hc-a2>
<hc-middle-lon>5.771</hc-middle-lon>
<hc-middle-lat>62.03</hc-middle-lat>
</desc>


                </path>
<path fill="#CEE3F5" stroke="#6E6E6E" stroke-width="0.4" id="undefined" d="M35.0476,100.0000 35.0476,100.9524 49.1429,105.1429 49.1429,104.1905 47.6190,100.0000 46.2857,100.0000 44.9524,97.9048 44.9524,96.9524 44.9524,95.8095 35.0476,100.0000 M51.8095,132.3810 54.6667,132.3810 53.3333,132.3810 54.6667,133.3333 56.1905,134.2857 57.5238,134.2857 63.0476,135.4286 64.5714,134.2857 58.8571,130.2857 57.5238,130.2857 54.6667,128.1905 53.3333,130.2857 53.3333,131.2381 51.8095,131.2381 51.8095,132.3810 M115.0476,133.3333 176.7619,133.3333 180.9524,128.1905 206.2857,122.8571 202.0952,117.7143 190.8571,117.7143 190.8571,105.1429 202.0952,100.0000 186.6667,90.6667 165.5238,85.3333 145.9048,90.6667 140.1905,95.8095 126.2857,95.8095 130.4762,103.0476 105.1429,105.1429 80.0000,103.0476 61.7143,97.9048 60.3810,99.0476 60.3810,108.3810 61.7143,109.3333 64.5714,110.4762 115.0476,110.4762 122.0952,108.3810 133.3333,108.3810 129.1429,111.4286 124.7619,112.5714 151.4286,117.7143 147.2381,118.6667 148.7619,118.6667 144.5714,120.7619 130.4762,119.8095 126.2857,120.7619 100.9524,117.7143 123.4286,122.8571 130.4762,124.0000 136.0000,124.0000 136.0000,124.9524 134.6667,124.9524 136.0000,124.9524 113.7143,124.9524 108.0000,126.0952 106.6667,127.0476 99.6190,124.9524 95.4286,124.9524 100.9524,133.3333 115.0476,135.4286 115.0476,133.3333 M65.9048,39.6190 67.4286,40.5714 78.4762,45.9048 78.4762,46.8571 80.0000,48.0000 71.6190,52.0000 74.2857,53.1429 75.8095,53.1429 81.3333,54.0952 85.5238,54.0952 89.7143,52.0000 91.2381,50.0952 92.5714,48.0000 92.5714,46.8571 93.9048,43.8095 95.4286,43.8095 91.2381,35.4286 89.7143,35.4286 87.0476,36.3810 84.1905,37.5238 84.1905,38.4762 82.8571,39.6190 80.0000,38.4762 70.0952,34.2857 65.9048,33.3333 65.9048,34.2857 65.9048,39.6190 M126.2857,55.2381 112.1905,48.0000 110.8571,48.0000 108.0000,45.9048 106.6667,45.9048 105.1429,45.9048 103.8095,46.8571 102.4762,48.0000 100.9524,48.0000 99.6190,46.8571 98.2857,45.9048 98.2857,44.7619 96.7619,44.7619 93.9048,45.9048 93.9048,46.8571 91.2381,51.0476 89.7143,54.0952 87.0476,56.1905 93.9048,59.4286 96.7619,60.3810 99.6190,59.4286 105.1429,57.3333 109.3333,56.1905 115.0476,57.3333 126.2857,55.2381Z">
                    <desc xmlns="http://www.highcharts.com/svg/namespace">
<name>Kinn</name>
<region>Vestland</region>
<hc-group>admin2</hc-group>
<hc-key>no-vl-4602</hc-key>
<hc-a2>KI</hc-a2>
<hc-middle-lon>5.28</hc-middle-lon>
<hc-middle-lat>61.767</hc-middle-lat>
</desc>


                </path>
<path fill="#CEE3F5" stroke="#6E6E6E" stroke-width="0.4" id="undefined" d="M171.0476,148.0000 168.3810,148.9524 166.8571,148.9524 164.1905,148.9524 145.9048,151.0476 145.9048,158.2857 165.5238,158.2857 169.7143,159.4286 173.9048,158.2857 182.2857,159.4286 188.0000,161.5238 175.4286,161.5238 171.0476,165.7143 196.3810,178.0952 206.2857,183.4286 225.9048,185.3333 241.3333,176.0000 312.7619,176.0000 322.6667,172.9524 336.7619,170.8571 352.1905,153.1429 373.1429,148.0000 398.4762,133.3333 402.6667,122.8571 412.3810,122.8571 418.0952,115.6190 398.4762,105.1429 392.7619,97.9048 373.1429,108.3810 332.3810,108.3810 332.3810,115.6190 316.9524,115.6190 316.9524,108.3810 281.9048,108.3810 281.9048,110.4762 251.0476,108.3810 241.3333,112.5714 225.9048,112.5714 202.0952,117.7143 206.2857,122.8571 180.9524,128.1905 176.7619,133.3333 115.0476,133.3333 115.0476,136.3810 116.3810,136.3810 119.2381,138.4762 151.4286,138.4762 151.4286,139.6190 151.4286,142.6667 151.4286,143.8095 155.6190,144.7619 161.3333,144.7619 166.8571,142.6667 176.7619,142.6667 178.0952,141.7143 179.6190,141.7143 183.8095,138.4762 189.3333,136.3810 190.8571,135.4286 193.5238,136.3810 204.7619,135.4286 210.4762,136.3810 216.0000,141.7143 220.1905,143.8095 220.1905,144.7619 217.5238,144.7619 214.6667,143.8095 210.4762,140.5714 207.6190,138.4762 206.2857,138.4762 171.0476,148.0000Z">
                    <desc xmlns="http://www.highcharts.com/svg/namespace">
<name>Sunnfjord</name>
<region>Vestland</region>
<hc-group>admin2</hc-group>
<hc-key>no-vl-4647</hc-key>
<hc-a2>SU</hc-a2>
<hc-middle-lon>6.046</hc-middle-lon>
<hc-middle-lat>61.468</hc-middle-lat>
</desc>


                </path>
<path fill="#CEE3F5" stroke="#6E6E6E" stroke-width="0.4" id="undefined" d="M326.8571,208.3810 349.3333,206.2857 350.6667,206.2857 352.1905,205.1429 354.8571,200.0000 354.8571,199.0476 353.5238,196.9524 353.5238,194.8571 350.6667,192.7619 349.3333,192.7619 346.4762,191.6190 347.8095,190.6667 357.7143,191.6190 357.7143,190.6667 352.1905,181.3333 353.5238,180.1905 354.8571,178.0952 356.3810,177.1429 359.0476,176.0000 360.5714,177.1429 363.2381,179.2381 370.2857,178.0952 373.1429,178.0952 387.2381,155.2381 389.9048,157.3333 391.4286,155.2381 391.4286,154.0952 394.0952,154.0952 394.0952,156.1905 392.7619,158.2857 392.7619,159.4286 391.4286,160.3810 392.7619,160.3810 391.4286,163.6190 389.9048,163.6190 389.9048,165.7143 388.5714,166.6667 377.3333,181.3333 364.7619,187.4286 384.3810,193.7143 412.3810,195.8095 433.5238,200.0000 439.0476,199.0476 448.9524,195.8095 444.7619,199.0476 437.7143,202.0952 434.8571,206.2857 434.8571,208.3810 453.1429,206.2857 474.0952,203.0476 478.2857,201.1429 478.2857,200.0000 478.2857,199.0476 479.8095,199.0476 482.4762,196.9524 488.1905,195.8095 489.5238,195.8095 492.3810,195.8095 493.7143,196.9524 496.5714,197.9048 497.9048,199.0476 502.2857,200.0000 503.6190,200.0000 506.4762,200.0000 513.3333,195.8095 509.1429,190.6667 507.8095,189.5238 503.6190,183.4286 488.1905,178.0952 462.8571,176.0000 453.1429,170.8571 453.1429,163.6190 437.7143,160.3810 437.7143,153.1429 427.8095,151.0476 427.8095,135.4286 412.3810,122.8571 402.6667,122.8571 398.4762,133.3333 373.1429,148.0000 352.1905,153.1429 336.7619,170.8571 322.6667,172.9524 332.3810,183.4286 307.2381,185.3333 336.7619,193.7143 326.8571,197.9048 326.8571,208.3810Z">
                    <desc xmlns="http://www.highcharts.com/svg/namespace">
<name>Sogndal</name>
<region>Vestland</region>
<hc-group>admin2</hc-group>
<hc-key>no-vl-4640</hc-key>
<hc-a2>SO</hc-a2>
<hc-middle-lon>6.8</hc-middle-lon>
<hc-middle-lat>61.342</hc-middle-lat>
</desc>


                </path>
<path fill="#CEE3F5" stroke="#6E6E6E" stroke-width="0.4" id="undefined" d="M272.1905,320.7619 276.3810,320.7619 307.2381,318.6667 307.2381,326.0952 332.3810,326.0952 332.3810,331.2381 357.7143,331.2381 353.5238,335.4286 356.3810,335.4286 363.2381,333.3333 370.2857,330.2857 381.5238,324.0000 384.3810,322.8571 387.2381,320.7619 387.2381,322.8571 389.9048,322.8571 387.2381,324.9524 387.2381,326.0952 373.1429,336.3810 377.3333,338.4762 380.1905,338.4762 383.0476,338.4762 387.2381,338.4762 398.4762,331.2381 399.8095,331.2381 402.6667,329.1429 412.3810,324.0000 412.3810,309.3333 418.0952,296.9524 443.2381,283.4286 443.2381,273.9048 423.6190,273.9048 427.8095,263.6190 433.5238,258.2857 418.0952,258.2857 398.4762,263.6190 398.4762,256.1905 412.3810,251.0476 412.3810,245.9048 398.4762,248.9524 398.4762,243.8095 383.0476,238.4762 383.0476,245.9048 367.6190,251.0476 352.1905,245.9048 352.1905,240.5714 332.3810,245.9048 316.9524,253.1429 316.9524,265.7143 312.7619,265.7143 297.3333,273.9048 291.8095,273.9048 276.3810,276.0000 262.2857,283.4286 241.3333,281.3333 237.1429,293.7143 225.9048,301.1429 237.1429,301.1429 241.3333,309.3333 262.2857,311.4286 262.2857,309.3333 272.1905,309.3333 272.1905,320.7619 M401.1429,335.4286 408.1905,334.4762 412.3810,331.2381 411.0476,331.2381 406.8571,332.3810 404.0000,334.4762 401.1429,335.4286Z">
                    <desc xmlns="http://www.highcharts.com/svg/namespace">
<name>Voss</name>
<region>Vestland</region>
<hc-group>admin2</hc-group>
<hc-key>no-vl-4621</hc-key>
<hc-a2>VO</hc-a2>
<hc-middle-lon>6.402</hc-middle-lon>
<hc-middle-lat>60.696</hc-middle-lat>
</desc>


                </path>
<path fill="#CEE3F5" stroke="#6E6E6E" stroke-width="0.4" id="undefined" d="M75.8095,279.2381 85.5238,282.2857 91.2381,283.4286 93.9048,285.3333 95.4286,286.4762 93.9048,286.4762 95.4286,287.4286 89.7143,286.4762 85.5238,286.4762 100.9524,293.7143 106.6667,300.0000 110.8571,303.0476 110.8571,304.1905 109.3333,304.1905 106.6667,302.0952 89.7143,296.9524 87.0476,297.9048 98.2857,304.1905 102.4762,307.2381 115.0476,313.5238 136.0000,311.4286 151.4286,304.1905 169.7143,299.0476 168.3810,294.8571 165.5238,291.6190 166.8571,290.6667 169.7143,288.5714 178.0952,288.5714 180.9524,288.5714 182.2857,287.4286 190.8571,279.2381 202.0952,268.7619 202.0952,258.2857 196.3810,258.2857 196.3810,261.5238 176.7619,270.8571 165.5238,268.7619 155.6190,273.9048 155.6190,286.4762 145.9048,286.4762 148.7619,292.7619 150.0952,292.7619 150.0952,294.8571 151.4286,296.9524 141.7143,291.6190 140.1905,291.6190 138.8571,293.7143 141.7143,295.8095 147.2381,299.0476 150.0952,301.1429 145.9048,301.1429 138.8571,296.9524 137.5238,295.8095 136.0000,299.0476 138.8571,300.0000 133.3333,299.0476 129.1429,296.9524 129.1429,294.8571 126.2857,293.7143 120.5714,283.4286 100.9524,281.3333 96.7619,279.2381 95.4286,278.0952 88.3810,273.9048 78.4762,272.9524 74.2857,270.8571 65.9048,270.8571 75.8095,279.2381Z">
                    <desc xmlns="http://www.highcharts.com/svg/namespace">
<name>Alver</name>
<region>Vestland</region>
<hc-group>admin2</hc-group>
<hc-key>no-vl-4631</hc-key>
<hc-a2>AL</hc-a2>
<hc-middle-lon>5.345</hc-middle-lon>
<hc-middle-lat>60.709</hc-middle-lat>
</desc>


                </path>
<path fill="#CEE3F5" stroke="#6E6E6E" stroke-width="0.4" id="undefined" d="M26.6667,304.1905 26.6667,305.1429 28.0000,306.2857 37.9048,308.3810 37.9048,307.2381 29.5238,301.1429 28.0000,303.0476 28.0000,304.1905 26.6667,304.1905 M37.9048,318.6667 39.2381,318.6667 39.2381,319.8095 39.2381,320.7619 40.7619,320.7619 46.2857,324.9524 47.6190,324.0000 49.1429,324.9524 49.1429,326.0952 44.9524,316.7619 37.9048,318.6667 M56.1905,366.6667 63.0476,376.0000 65.9048,378.0952 70.0952,373.9048 71.6190,376.0000 71.6190,375.0476 74.2857,376.0000 77.1429,378.0952 78.4762,381.3333 78.4762,382.2857 80.0000,384.3810 88.3810,384.3810 88.3810,383.4286 88.3810,380.1905 88.3810,378.0952 87.0476,375.0476 87.0476,373.9048 78.4762,368.7619 75.8095,366.6667 84.1905,366.6667 85.5238,365.7143 81.3333,355.2381 67.4286,344.7619 64.5714,339.6190 60.3810,343.8095 60.3810,345.9048 61.7143,346.8571 61.7143,348.0000 60.3810,351.0476 60.3810,353.1429 61.7143,358.2857 63.0476,359.4286 65.9048,360.3810 67.4286,360.3810 75.8095,361.5238 74.2857,361.5238 71.6190,366.6667 68.7619,364.5714 65.9048,364.5714 60.3810,365.7143 56.1905,366.6667 M71.6190,362.4762 72.9524,362.4762 71.6190,362.4762Z">
                    <desc xmlns="http://www.highcharts.com/svg/namespace">
<name>Øygarden</name>
<region>Vestland</region>
<hc-group>admin2</hc-group>
<hc-key>no-vl-4626</hc-key>
<hc-a2>ØY</hc-a2>
<hc-middle-lon>4.949</hc-middle-lon>
<hc-middle-lat>60.413</hc-middle-lat>
</desc>


                </path>
<path fill="#CEE3F5" stroke="#6E6E6E" stroke-width="0.4" id="undefined" d="M130.4762,387.4286 129.1429,388.5714 127.6190,388.5714 126.2857,389.5238 126.2857,390.6667 124.7619,390.6667 122.0952,392.7619 122.0952,393.7143 123.4286,392.7619 124.7619,392.7619 124.7619,391.6190 126.2857,392.7619 133.3333,389.5238 133.3333,388.5714 130.4762,387.4286 M130.4762,387.4286 138.8571,388.5714 138.8571,389.5238 145.9048,391.6190 148.7619,389.5238 151.4286,388.5714 158.4762,385.5238 165.5238,381.3333 166.8571,380.1905 168.3810,378.0952 168.3810,377.1429 172.5714,372.9524 176.7619,366.6667 176.7619,359.4286 165.5238,366.6667 151.4286,373.9048 140.1905,373.9048 140.1905,377.1429 130.4762,379.2381 134.6667,380.1905 134.6667,381.3333 130.4762,382.2857 130.4762,386.4762 130.4762,387.4286 M202.0952,414.6667 221.7143,414.6667 231.4286,404.1905 231.4286,399.0476 230.0952,394.8571 230.0952,392.7619 231.4286,390.6667 231.4286,389.5238 241.3333,384.3810 251.0476,371.8095 251.0476,364.5714 241.3333,359.4286 206.2857,359.4286 190.8571,361.5238 186.6667,366.6667 185.1429,369.7143 188.0000,369.7143 189.3333,370.8571 186.6667,372.9524 182.2857,377.1429 183.8095,377.1429 186.6667,376.0000 202.0952,376.0000 202.0952,377.1429 195.0476,378.0952 182.2857,382.2857 176.7619,382.2857 176.7619,384.3810 178.0952,385.5238 176.7619,387.4286 176.7619,388.5714 176.7619,393.7143 176.7619,394.8571 192.1905,389.5238 192.1905,388.5714 192.1905,387.4286 197.7143,385.5238 204.7619,383.4286 211.8095,381.3333 218.8571,381.3333 218.8571,382.2857 206.2857,385.5238 202.0952,387.4286 202.0952,389.5238 203.4286,392.7619 206.2857,395.8095 206.2857,397.9048 206.2857,399.0476 203.4286,403.0476 203.4286,404.1905 210.4762,404.1905 211.8095,403.0476 220.1905,403.0476 218.8571,404.1905 221.7143,404.1905 216.0000,409.3333 213.1429,409.3333 211.8095,409.3333 207.6190,409.3333 204.7619,409.3333 202.0952,409.3333 202.0952,414.6667Z">
                    <desc xmlns="http://www.highcharts.com/svg/namespace">
<name>Bjørnafjorden</name>
<region>Vestland</region>
<hc-group>admin2</hc-group>
<hc-key>no-vl-4624</hc-key>
<hc-a2>BJ</hc-a2>
<hc-middle-lon>5.627</hc-middle-lon>
<hc-middle-lat>60.182</hc-middle-lat>
</desc>


                </path>
<path fill="#CEE3F5" stroke="#6E6E6E" stroke-width="0.4" id="undefined" d="M297.3333,396.9524 297.3333,389.5238 312.7619,381.3333 332.3810,379.2381 347.8095,381.3333 347.8095,402.0952 322.6667,416.7619 352.1905,432.3810 352.1905,446.8571 357.7143,452.1905 387.2381,452.1905 387.2381,479.2381 402.6667,479.2381 402.6667,477.1429 433.5238,469.7143 443.2381,464.5714 468.5714,462.4762 478.2857,444.7619 488.1905,429.1429 528.9524,419.8095 538.6667,402.0952 519.0476,396.9524 488.1905,396.9524 493.7143,386.4762 478.2857,381.3333 478.2857,371.8095 493.7143,371.8095 472.7619,366.6667 468.5714,356.1905 462.8571,354.0952 443.2381,354.0952 453.1429,348.9524 453.1429,341.7143 427.8095,341.7143 408.1905,334.4762 401.1429,335.4286 401.1429,336.3810 394.0952,342.6667 394.0952,343.8095 392.7619,346.8571 387.2381,346.8571 385.7143,346.8571 383.0476,348.9524 378.6667,353.1429 371.8095,365.7143 367.6190,368.7619 367.6190,370.8571 368.9524,373.9048 368.9524,376.0000 367.6190,378.0952 361.9048,386.4762 359.0476,389.5238 357.7143,395.8095 357.7143,406.2857 357.7143,407.2381 356.3810,406.2857 356.3810,405.1429 352.1905,399.0476 354.8571,394.8571 356.3810,391.6190 357.7143,385.5238 357.7143,368.7619 367.6190,364.5714 367.6190,363.6190 367.6190,362.4762 367.6190,358.2857 370.2857,352.1905 374.4762,348.0000 377.3333,341.7143 354.8571,339.6190 353.5238,339.6190 349.3333,341.7143 342.2857,346.8571 338.0952,348.0000 336.7619,348.9524 325.5238,351.0476 324.0000,352.1905 322.6667,353.1429 322.6667,354.0952 322.6667,356.1905 312.7619,360.3810 311.4286,361.5238 307.2381,362.4762 298.8571,365.7143 298.8571,366.6667 297.3333,368.7619 293.1429,371.8095 290.2857,375.0476 287.6190,378.0952 284.7619,380.1905 273.5238,383.4286 272.1905,383.4286 273.5238,389.5238 279.2381,395.8095 279.2381,396.9524 287.6190,399.0476 290.2857,399.0476 294.6667,397.9048 297.3333,396.9524Z">
                    <desc xmlns="http://www.highcharts.com/svg/namespace">
<name>Ullensvang</name>
<region>Vestland</region>
<hc-group>admin2</hc-group>
<hc-key>no-vl-4618</hc-key>
<hc-a2>UL</hc-a2>
<hc-middle-lon>6.774</hc-middle-lon>
<hc-middle-lat>60.077</hc-middle-lat>
</desc>


                </path>
</g>
        
<text x="350" y="715" text-anchor="middle" font-family="Verdana" font-size="8" stroke-opacity="0.6">
            Copyright (c) 2024 Highsoft AS, Based on data from OpenStreetMap</text>

        </svg>