<?xml version="1.0" encoding="utf-8" standalone="no"?>
<!DOCTYPE svg PUBLIC "-//W3C//DTD SVG 1.1//EN" "http://www.w3.org/Graphics/SVG/1.1/DTD/svg11.dtd">

<svg version="1.1" height="700pt" width="700pt" xmlns="http://www.w3.org/2000/svg" xmlns:xlink="http://www.w3.org/1999/xlink">
<desc>
Map version: 2.1.0
Copyright (c) 2023 Highsoft AS, Based on data from Natural Earth
</desc>
<title>Croatia</title>
<g id="admin1">

<g id="HR">
  <desc xmlns="http://www.highcharts.com/svg/namespace">
    <name>Croatia</name>
    <labelrank>6</labelrank>
    <country-abbrev>Cro.</country-abbrev>
    <subregion>Southern Europe</subregion>
    <region-wb>Europe &amp; Central Asia</region-wb>
    <iso-a3>HRV</iso-a3>
    <iso-a2>HR</iso-a2>
    <woe-id>23424843</woe-id>
    <continent>Europe</continent>
    <hc-key>hr</hc-key>
    <hc-a2>CR</hc-a2>
  </desc>
</g>

<path fill="#CEE3F5" stroke="#6E6E6E" stroke-width="0.4" id="HR.5926" d="M529.2,644.5 L528.6,645.3 L521.0,640.1 L519.9,636.6 L521.3,636.4 L527.6,639.9 L529.4,641.8 Z M358.6,636.3 L353.0,638.0 L355.2,634.8 L356.6,634.5 Z M295.5,600.5 L294.8,603.4 L291.7,604.2 L293.0,597.5 L295.1,598.6 Z M261.8,590.4 L263.5,592.2 L260.4,593.5 L258.8,591.7 Z M378.3,579.7 L383.6,580.8 L381.4,582.6 L375.7,582.2 L374.0,581.4 Z M313.3,520.7 L314.0,523.0 L310.4,524.1 L307.2,524.1 L308.5,520.6 L311.4,519.2 Z M277.3,483.4 L276.6,484.7 L272.1,479.7 L274.0,477.2 L276.5,480.2 Z M259.1,482.1 L256.4,481.4 L257.2,480.1 L254.7,478.3 L253.7,475.4 L255.5,475.6 L258.4,479.6 L260.0,480.0 Z M242.6,457.2 L244.2,456.0 L246.0,459.8 L249.7,461.7 L252.7,467.1 L248.5,466.2 L245.8,462.4 L242.4,459.8 L240.9,456.6 Z M191.5,426.4 L191.6,427.2 L181.9,417.9 L181.4,413.2 L184.6,415.3 L185.6,417.8 L190.2,422.7 Z M182.7,374.2 L185.0,374.8 L189.7,378.5 L187.3,379.5 L186.5,377.9 L183.8,376.6 L181.5,378.7 L176.9,376.6 L177.0,371.8 L181.2,372.9 Z M140.0,366.9 L136.4,365.4 L134.9,360.5 L132.7,358.6 L134.1,356.5 L137.6,358.4 L137.5,362.4 L139.9,364.9 Z M168.2,357.1 L169.0,358.6 L165.5,357.4 L160.8,352.1 L160.3,349.7 Z M91.0,339.1 L89.4,341.3 L87.6,336.9 L89.9,337.6 Z M25.6,267.2 L28.6,268.9 L29.0,271.1 L26.7,271.3 L25.3,273.5 Z M154.9,275.2 L154.7,277.1 L148.6,273.4 L147.4,270.0 L148.9,269.3 L152.1,271.4 Z M121.2,263.9 L119.7,264.8 L114.0,259.9 L119.0,259.7 Z">
  <desc xmlns="http://www.highcharts.com/svg/namespace">
    <labelrank>20</labelrank>
    <hasc>-99</hasc>
    <alt-name>NULL</alt-name>
    <woe-id>-99</woe-id>
    <subregion>NULL</subregion>
    <fips>NULL</fips>
    <postal-code>NULL</postal-code>
    <name>NULL</name>
    <country>Croatia</country>
    <type-en>NULL</type-en>
    <region>NULL</region>
    <longitude>16.3392</longitude>
    <woe-name>NULL</woe-name>
    <latitude>42.3759</latitude>
    <woe-label>NULL</woe-label>
    <type>NULL</type>
    <hc-middle-x>0.31</hc-middle-x>
    <hc-middle-y>0.30</hc-middle-y>
    <hc-key>hr-5926</hc-key>
    <hc-a2>NU</hc-a2>
  </desc>
</path>

<path fill="#CEE3F5" stroke="#6E6E6E" stroke-width="0.4" id="HR.SB" d="M254.1,487.0 L261.6,490.5 L252.2,487.4 L245.0,482.4 L250.6,482.7 Z M204.3,451.2 L213.4,459.0 L216.4,462.6 L218.8,464.9 L209.3,459.9 L206.9,456.6 L203.6,454.1 L200.3,450.3 L199.6,448.2 L201.2,447.2 Z M294.7,511.5 L289.9,511.6 L288.4,509.6 L291.2,508.6 L291.6,504.6 L288.2,505.7 L285.3,499.9 L283.2,499.9 L284.9,497.6 L283.2,496.4 L284.1,493.0 L283.4,490.5 L284.7,489.6 L289.2,489.7 L286.3,487.2 L287.4,485.7 L285.0,483.8 L286.7,483.2 L287.3,480.4 L285.9,479.1 L284.9,482.5 L280.3,478.4 L277.6,477.9 L274.4,473.4 L265.5,468.3 L257.6,467.6 L256.0,465.7 L254.7,461.9 L248.8,459.6 L246.9,457.1 L250.5,458.7 L254.4,459.4 L249.5,455.3 L241.7,451.3 L238.4,448.4 L241.9,445.1 L248.4,450.3 L250.2,450.2 L255.3,446.4 L260.4,449.9 L261.9,449.9 L263.7,445.9 L267.8,441.6 L266.0,438.4 L267.6,437.4 L270.0,438.5 L274.0,438.2 L278.3,439.8 L281.8,443.3 L288.7,438.0 L293.8,436.6 L294.3,432.6 L297.0,431.6 L296.5,428.3 L297.6,426.0 L304.9,426.3 L309.5,422.6 L311.7,423.8 L312.3,428.2 L312.3,437.5 L314.2,440.5 L316.9,441.6 L321.7,442.0 L330.4,439.4 L332.3,438.2 L335.4,439.0 L336.2,440.7 L334.6,445.8 L335.2,447.7 L340.5,450.9 L345.4,456.6 L345.3,459.9 L336.9,465.6 L334.8,472.0 L336.4,475.0 L335.0,477.0 L328.8,479.1 L321.2,483.6 L314.5,480.8 L312.9,481.5 L304.5,492.4 L301.8,492.3 L298.8,495.9 L300.1,500.2 L302.7,505.0 L298.5,506.5 L299.4,510.3 Z">
  <desc xmlns="http://www.highcharts.com/svg/namespace">
    <labelrank>9</labelrank>
    <hasc>HR.SB</hasc>
    <alt-name>?ibenik</alt-name>
    <woe-id>12577983</woe-id>
    <subregion>NULL</subregion>
    <fips>HR13</fips>
    <postal-code>SB</postal-code>
    <name>?ibensko-Kninska</name>
    <country>Croatia</country>
    <type-en>County</type-en>
    <region>NULL</region>
    <longitude>16.0356</longitude>
    <woe-name>?ibensko-Kninska</woe-name>
    <latitude>43.7911</latitude>
    <woe-label>Sibenska, HR, Croatia</woe-label>
    <type>?upanija</type>
    <hc-middle-x>0.69</hc-middle-x>
    <hc-middle-y>0.44</hc-middle-y>
    <hc-key>hr-sb</hc-key>
    <hc-a2>SB</hc-a2>
  </desc>
</path>

<path fill="#CEE3F5" stroke="#6E6E6E" stroke-width="0.4" id="HR.ZD" d="M152.8,400.9 L156.3,401.4 L155.3,403.3 L151.0,400.5 L151.3,397.9 Z M144.8,381.5 L142.7,382.1 L141.5,380.3 L144.2,377.0 L148.0,380.3 Z M132.4,373.9 L129.9,373.3 L124.9,368.6 L124.5,367.3 L130.3,371.0 Z M150.6,367.4 L147.4,367.8 L144.0,364.9 L145.5,361.5 L145.1,356.3 L148.8,356.5 L150.0,359.7 L149.0,362.1 Z M208.3,426.3 L214.7,431.3 L218.8,432.4 L219.7,437.1 L223.0,439.4 L225.8,444.5 L226.2,446.4 L221.5,444.9 L220.4,442.9 L215.6,440.9 L215.4,438.2 L209.8,434.2 L208.3,430.9 L204.0,425.3 Z M183.2,406.0 L181.0,404.3 L181.9,403.1 L180.4,399.6 L199.9,416.0 L202.4,419.3 L203.2,424.2 L199.5,418.7 L197.5,419.5 L196.6,417.2 L195.4,419.0 L187.3,411.4 Z M189.7,435.4 L198.4,441.8 L198.8,443.7 L195.7,444.7 L189.7,439.8 L188.3,440.2 L189.6,442.4 L194.3,446.0 L195.9,446.2 L195.6,448.5 L192.9,445.9 L188.6,443.2 L185.0,439.4 L180.3,431.9 L177.5,428.4 L172.8,417.9 L170.4,415.5 L167.1,413.8 L157.0,402.7 L154.6,396.8 L156.3,396.8 L158.6,399.6 L165.3,405.1 L167.1,409.2 L170.8,411.3 L173.5,411.0 L172.6,413.3 L175.3,414.6 L176.3,420.6 L183.0,428.6 L186.1,429.6 Z M262.9,270.8 L262.8,276.2 L266.3,282.6 L267.4,285.8 L266.8,288.8 L262.3,290.5 L260.5,292.8 L260.6,295.6 L265.6,304.5 L268.4,306.4 L271.1,310.8 L277.2,309.7 L279.6,306.2 L281.9,307.2 L283.9,313.0 L286.8,312.2 L289.0,318.3 L290.6,320.6 L297.7,323.1 L299.6,329.1 L295.9,334.5 L294.9,337.2 L297.4,339.8 L299.9,340.2 L304.3,338.2 L306.8,338.7 L308.2,340.5 L309.6,346.8 L312.5,355.1 L313.3,360.9 L310.8,363.4 L314.7,364.8 L318.5,367.8 L318.5,372.2 L316.8,376.4 L316.6,380.8 L320.0,393.3 L321.9,396.1 L327.2,401.8 L331.6,411.5 L333.3,414.4 L338.2,418.5 L343.9,418.9 L347.0,425.9 L352.3,427.9 L357.7,433.7 L353.6,433.3 L350.7,434.3 L344.4,439.1 L343.4,441.3 L340.0,441.8 L336.2,440.7 L335.4,439.0 L332.3,438.2 L330.4,439.4 L321.7,442.0 L316.9,441.6 L314.2,440.5 L312.3,437.5 L312.3,428.2 L311.7,423.8 L309.5,422.6 L304.9,426.3 L297.6,426.0 L296.5,428.3 L297.0,431.6 L294.3,432.6 L293.8,436.6 L288.7,438.0 L281.8,443.3 L278.3,439.8 L274.0,438.2 L270.0,438.5 L267.6,437.4 L266.0,438.4 L267.8,441.6 L263.7,445.9 L261.9,449.9 L260.4,449.9 L255.3,446.4 L250.2,450.2 L248.4,450.3 L241.9,445.1 L238.4,448.4 L234.3,442.5 L228.7,440.7 L225.4,435.9 L218.9,427.8 L215.8,423.0 L211.2,419.7 L206.3,412.8 L200.9,406.8 L198.5,405.1 L198.5,402.2 L190.4,394.1 L192.3,391.1 L191.4,387.4 L189.0,384.1 L186.4,382.4 L190.1,379.5 L192.2,379.8 L194.4,385.0 L197.0,383.8 L198.2,381.2 L195.6,379.1 L198.1,379.1 L197.1,376.3 L203.0,380.4 L206.8,384.9 L208.7,385.1 L207.2,379.2 L209.8,377.0 L206.8,375.1 L204.8,371.3 L207.2,372.1 L210.5,375.3 L213.9,376.6 L224.4,382.4 L233.9,384.0 L236.6,383.8 L235.3,380.8 L227.4,379.5 L222.3,373.5 L210.5,367.7 L208.8,365.9 L213.1,358.1 L215.9,358.1 L223.8,364.5 L233.0,365.6 L235.2,367.1 L239.2,372.1 L240.2,369.3 L244.5,367.7 L247.7,364.0 L250.1,358.6 L250.0,356.9 L244.9,350.8 L246.2,349.1 L252.5,344.6 L250.6,339.1 L248.9,336.7 L241.7,329.9 L241.0,321.6 L238.6,318.7 L237.7,311.8 L236.4,309.1 L231.6,304.9 L231.2,302.0 L232.5,301.1 L238.5,300.7 L245.8,296.0 L246.8,293.8 L240.3,289.7 L237.9,286.5 L241.9,283.2 L242.8,280.0 L242.4,277.6 L239.4,273.2 L239.0,270.8 L241.2,268.1 L245.5,269.2 L248.1,271.4 L251.4,270.5 L253.6,268.5 L260.1,271.5 Z">
  <desc xmlns="http://www.highcharts.com/svg/namespace">
    <labelrank>9</labelrank>
    <hasc>HR.ZD</hasc>
    <alt-name>Zadar-Knin</alt-name>
    <woe-id>12577989</woe-id>
    <subregion>NULL</subregion>
    <fips>HR19</fips>
    <postal-code>ZD</postal-code>
    <name>Zadarska</name>
    <country>Croatia</country>
    <type-en>County</type-en>
    <region>NULL</region>
    <longitude>15.7536</longitude>
    <woe-name>Zadarska</woe-name>
    <latitude>44.2007</latitude>
    <woe-label>Zadarsko-Kninska, HR, Croatia</woe-label>
    <type>?upanija</type>
    <hc-middle-x>0.55</hc-middle-x>
    <hc-middle-y>0.70</hc-middle-y>
    <hc-key>hr-zd</hc-key>
    <hc-a2>ZD</hc-a2>
  </desc>
</path>

<path fill="#CEE3F5" stroke="#6E6E6E" stroke-width="0.4" id="HR.PG" d="M86.6,321.7 L82.1,319.3 L83.6,313.4 L86.3,310.4 L88.1,310.8 L87.2,313.4 L85.2,314.2 L85.0,317.5 Z M106.4,333.5 L109.7,334.7 L106.5,330.2 L102.5,327.6 L100.3,329.9 L97.5,328.5 L97.8,326.2 L100.0,323.6 L99.3,320.2 L96.2,314.7 L94.9,304.3 L100.2,307.5 L102.1,309.8 L101.2,313.7 L103.3,324.0 L107.4,330.0 L116.9,340.7 L117.7,344.1 L115.0,344.3 L111.9,341.1 Z M153.1,305.1 L147.4,298.3 L143.6,295.2 L143.9,297.3 L138.7,297.3 L133.8,291.5 L139.5,292.7 L138.8,289.2 L142.1,291.7 L137.3,283.5 L142.2,284.7 L141.4,282.3 L145.4,283.8 L145.7,285.6 L143.8,287.0 L149.3,293.4 L153.4,296.5 L156.7,302.3 L157.6,305.7 L156.4,308.1 Z M111.2,306.3 L116.0,314.1 L116.0,317.4 L117.6,316.5 L118.3,318.8 L116.6,320.9 L110.9,321.0 L105.7,314.8 L101.9,306.1 L102.4,298.7 L99.7,298.2 L98.5,294.7 L98.4,287.7 L94.7,284.6 L93.1,274.5 L90.8,272.0 L91.7,269.7 L90.7,266.6 L91.8,266.1 L95.4,268.1 L98.6,272.2 L101.9,272.2 L103.2,268.8 L102.5,263.6 L105.0,264.3 L101.0,259.1 L97.0,247.4 L90.8,239.6 L89.8,235.0 L91.2,231.5 L94.3,227.7 L96.5,227.1 L99.3,228.3 L100.2,230.3 L99.6,237.0 L99.8,241.1 L102.5,250.3 L105.3,256.4 L107.4,258.7 L111.6,259.9 L112.1,264.9 L109.7,270.1 L110.5,271.3 L109.3,274.2 L109.4,282.2 L110.9,289.9 L109.1,290.9 L111.1,295.3 L111.6,298.4 L110.5,302.6 Z M135.8,243.0 L139.4,245.4 L144.7,245.6 L144.5,250.4 L151.5,257.2 L153.2,261.9 L149.6,263.2 L146.8,261.7 L145.1,262.9 L146.2,266.6 L142.2,267.4 L140.2,266.8 L134.5,262.7 L131.0,261.3 L130.5,257.3 L130.9,251.3 L130.3,249.9 L128.2,251.0 L129.8,253.4 L126.6,253.6 L117.1,251.8 L114.1,250.8 L111.2,248.3 L107.2,242.3 L109.2,240.3 L111.7,240.1 L112.3,236.3 L117.9,235.6 L119.9,234.6 L118.9,232.3 L121.4,227.3 L121.0,223.4 L122.3,222.0 L122.5,218.7 L120.8,217.4 L124.3,215.4 L126.5,217.5 L131.2,228.1 L128.0,229.5 L129.8,230.8 L133.5,231.3 L136.1,230.5 L136.7,233.6 L135.1,239.5 Z M161.3,252.3 L158.5,245.3 L158.1,242.4 L155.2,239.0 L148.0,234.9 L135.3,224.6 L129.4,216.4 L125.8,213.3 L125.0,211.0 L126.7,209.5 L121.1,204.7 L123.5,207.6 L120.8,209.6 L118.2,206.9 L105.6,200.0 L97.0,197.2 L94.8,198.8 L92.2,202.7 L89.9,207.7 L88.1,213.5 L86.5,225.1 L84.8,230.4 L81.1,227.4 L81.2,219.4 L80.6,210.0 L81.1,205.2 L82.8,201.2 L81.7,193.1 L82.3,188.4 L81.0,186.9 L74.8,183.0 L72.7,180.2 L72.4,176.5 L75.8,176.0 L84.5,172.7 L91.8,175.6 L97.2,176.8 L102.7,176.5 L107.3,174.0 L114.2,168.8 L115.9,166.0 L117.3,159.1 L119.2,155.4 L123.5,150.3 L125.1,147.0 L128.1,145.2 L129.3,145.9 L129.4,153.9 L131.9,157.7 L137.5,161.8 L138.3,164.1 L137.9,167.9 L140.2,170.0 L151.0,175.0 L152.8,179.8 L157.7,181.0 L162.8,179.2 L165.2,175.4 L165.7,171.8 L167.8,171.8 L172.5,175.5 L175.3,175.9 L177.8,177.7 L183.5,177.9 L193.2,186.5 L198.5,187.3 L203.5,185.6 L204.4,188.7 L202.7,195.9 L198.5,200.2 L197.1,204.3 L193.2,205.8 L190.8,209.5 L186.8,206.3 L179.9,203.3 L175.6,206.1 L172.8,213.3 L174.5,218.0 L173.7,230.0 L172.4,233.3 L176.7,237.7 L178.9,242.2 L177.1,246.4 L169.8,246.3 L166.9,245.3 L162.5,248.0 Z">
  <desc xmlns="http://www.highcharts.com/svg/namespace">
    <labelrank>9</labelrank>
    <hasc>HR.PG</hasc>
    <alt-name>Primorje-Gorski Kotar</alt-name>
    <woe-id>12577982</woe-id>
    <subregion>NULL</subregion>
    <fips>HR12</fips>
    <postal-code>PG</postal-code>
    <name>Primorsko-Goranska</name>
    <country>Croatia</country>
    <type-en>County</type-en>
    <region>NULL</region>
    <longitude>14.6925</longitude>
    <woe-name>Primorsko-Goranska</woe-name>
    <latitude>45.3736</latitude>
    <woe-label>Primorsko-Goranska, HR, Croatia</woe-label>
    <type>?upanija</type>
    <hc-middle-x>0.57</hc-middle-x>
    <hc-middle-y>0.25</hc-middle-y>
    <hc-key>hr-pg</hc-key>
    <hc-a2>PG</hc-a2>
  </desc>
</path>

<path fill="#CEE3F5" stroke="#6E6E6E" stroke-width="0.4" id="HR.KA" d="M271.4,226.8 L270.2,227.9 L268.7,232.8 L269.0,242.8 L265.6,252.7 L265.6,255.8 L266.9,260.9 L266.4,263.9 L262.9,270.8 L260.1,271.5 L253.6,268.5 L251.4,270.5 L248.1,271.4 L245.5,269.2 L241.2,268.1 L239.0,270.8 L239.4,273.2 L242.4,277.6 L242.8,280.0 L238.1,276.0 L235.4,272.8 L230.6,272.1 L227.8,265.7 L224.0,262.3 L220.4,254.8 L204.5,244.8 L198.9,237.8 L194.7,240.9 L190.6,241.1 L176.7,237.7 L172.4,233.3 L173.7,230.0 L174.5,218.0 L172.8,213.3 L175.6,206.1 L179.9,203.3 L186.8,206.3 L190.8,209.5 L193.2,205.8 L197.1,204.3 L198.5,200.2 L202.7,195.9 L204.4,188.7 L203.5,185.6 L210.1,183.2 L214.0,183.4 L216.3,182.1 L219.6,178.2 L213.7,174.1 L212.1,171.2 L210.5,163.1 L209.0,157.9 L211.3,156.5 L212.4,153.9 L219.0,151.5 L221.5,151.6 L218.7,146.6 L222.7,143.2 L227.2,142.4 L229.5,143.6 L233.3,148.1 L237.9,150.6 L238.0,153.1 L243.1,157.7 L245.2,158.2 L247.4,155.2 L251.2,155.1 L255.6,157.9 L263.6,160.8 L265.5,159.7 L265.9,163.7 L264.4,165.8 L269.2,171.9 L273.1,171.8 L274.7,178.4 L276.5,181.5 L275.9,186.5 L273.1,192.8 L269.0,193.4 L265.4,190.6 L262.8,190.5 L261.5,189.0 L256.8,188.2 L254.5,189.8 L256.3,192.7 L255.4,196.3 L257.0,201.0 L255.2,202.6 L255.3,205.8 L254.2,212.5 L254.8,214.6 L251.1,219.4 L252.0,224.2 L259.8,225.9 L261.9,224.7 L266.3,224.5 Z">
  <desc xmlns="http://www.highcharts.com/svg/namespace">
    <labelrank>9</labelrank>
    <hasc>HR.KA</hasc>
    <alt-name>Karlovac</alt-name>
    <woe-id>12577975</woe-id>
    <subregion>NULL</subregion>
    <fips>HR05</fips>
    <postal-code>KA</postal-code>
    <name>Karlovacka</name>
    <country>Croatia</country>
    <type-en>County</type-en>
    <region>NULL</region>
    <longitude>15.4054</longitude>
    <woe-name>Karlovacka</woe-name>
    <latitude>45.3396</latitude>
    <woe-label>Karlova?ka, HR, Croatia</woe-label>
    <type>?upanija</type>
    <hc-middle-x>0.51</hc-middle-x>
    <hc-middle-y>0.44</hc-middle-y>
    <hc-key>hr-ka</hc-key>
    <hc-a2>KA</hc-a2>
  </desc>
</path>

<path fill="#CEE3F5" stroke="#6E6E6E" stroke-width="0.4" id="HR.KZ" d="M288.6,102.9 L285.3,98.4 L278.0,96.3 L274.9,94.7 L268.0,96.9 L257.6,96.1 L257.5,92.7 L260.4,85.4 L258.8,82.9 L252.7,79.6 L249.5,76.1 L247.9,72.3 L247.9,68.1 L249.7,63.3 L253.9,56.5 L256.4,55.3 L266.7,56.1 L269.0,54.7 L271.4,50.8 L276.7,48.2 L281.9,48.1 L282.4,51.7 L283.7,53.4 L288.7,55.1 L291.3,59.2 L294.9,59.4 L300.5,60.8 L303.5,59.9 L310.6,59.6 L314.4,60.4 L317.9,56.7 L319.4,56.2 L321.2,59.0 L324.8,60.4 L324.2,63.5 L325.6,66.4 L324.9,73.0 L325.7,81.7 L318.1,82.1 L317.8,83.6 L320.2,85.8 L317.6,88.2 L319.7,90.8 L317.3,91.8 L315.1,91.3 L315.9,94.8 L311.7,96.9 L310.0,97.1 L291.6,106.8 Z">
  <desc xmlns="http://www.highcharts.com/svg/namespace">
    <labelrank>9</labelrank>
    <hasc>HR.KZ</hasc>
    <alt-name>Krapina-Zagorje</alt-name>
    <woe-id>12577977</woe-id>
    <subregion>NULL</subregion>
    <fips>SI92</fips>
    <postal-code>KZ</postal-code>
    <name>Krapinsko-Zagorska</name>
    <country>Croatia</country>
    <type-en>County</type-en>
    <region>NULL</region>
    <longitude>15.9228</longitude>
    <woe-name>Krapinsko-Zagorska</woe-name>
    <latitude>46.0883</latitude>
    <woe-label>Krapinsko-Zagorska, HR, Croatia</woe-label>
    <type>?upanija</type>
    <hc-middle-x>0.49</hc-middle-x>
    <hc-middle-y>0.50</hc-middle-y>
    <hc-key>hr-kz</hc-key>
    <hc-a2>KZ</hc-a2>
  </desc>
</path>

<path fill="#CEE3F5" stroke="#6E6E6E" stroke-width="0.4" id="HR.ZG" d="M257.6,96.1 L268.0,96.9 L274.9,94.7 L278.0,96.3 L285.3,98.4 L288.6,102.9 L285.5,104.6 L279.4,105.9 L275.5,105.9 L274.1,106.8 L273.8,112.2 L268.7,113.9 L268.0,117.5 L269.0,118.4 L273.2,118.4 L277.5,123.8 L273.5,129.4 L275.9,132.8 L273.4,138.0 L269.8,135.7 L268.4,141.1 L270.0,143.5 L273.3,146.0 L280.6,149.4 L284.0,153.9 L286.1,155.3 L288.1,151.9 L289.1,143.3 L291.5,139.4 L306.0,130.0 L311.8,124.2 L317.5,127.2 L320.1,119.7 L322.2,117.2 L321.3,114.8 L317.0,108.9 L314.8,103.1 L311.7,96.9 L315.9,94.8 L315.1,91.3 L317.3,91.8 L319.7,90.8 L317.6,88.2 L320.2,85.8 L317.8,83.6 L318.1,82.1 L325.7,81.7 L330.2,89.8 L337.8,87.9 L347.7,91.3 L351.0,96.4 L351.4,99.1 L356.7,96.1 L360.3,99.8 L364.8,102.4 L366.2,104.3 L371.8,105.4 L375.2,103.9 L376.9,104.7 L377.3,113.4 L376.5,119.0 L374.8,121.2 L371.4,122.2 L370.4,118.8 L368.7,118.6 L366.1,122.7 L366.3,127.9 L365.3,129.0 L361.4,127.5 L358.1,127.6 L353.9,131.5 L348.9,125.5 L347.3,122.2 L345.2,123.7 L340.4,123.6 L340.7,127.4 L339.4,134.2 L336.3,135.8 L333.1,134.3 L330.1,137.7 L329.5,140.5 L330.3,145.0 L329.8,147.2 L330.4,152.1 L328.2,157.1 L323.4,159.8 L316.9,156.6 L315.6,154.4 L312.8,153.5 L306.3,159.1 L301.7,159.3 L301.1,162.3 L303.4,164.0 L303.6,165.9 L307.3,170.4 L308.3,174.9 L304.0,176.0 L300.7,180.0 L296.1,178.4 L292.5,180.5 L287.6,180.1 L286.7,175.3 L283.7,171.2 L280.4,170.6 L279.2,167.8 L276.3,168.0 L273.1,171.8 L269.2,171.9 L264.4,165.8 L265.9,163.7 L265.5,159.7 L263.6,160.8 L255.6,157.9 L251.2,155.1 L247.4,155.2 L245.2,158.2 L243.1,157.7 L238.0,153.1 L237.9,150.6 L233.3,148.1 L229.5,143.6 L227.2,142.4 L222.7,143.2 L218.7,146.6 L216.5,144.1 L213.4,146.1 L210.3,143.9 L207.2,140.0 L208.7,136.2 L213.5,133.6 L228.3,129.0 L229.7,127.8 L229.1,124.5 L231.0,122.3 L235.0,123.2 L239.5,120.4 L247.0,121.8 L251.6,121.7 L256.3,119.8 L257.4,115.7 L255.6,110.2 L257.6,104.1 Z">
  <desc xmlns="http://www.highcharts.com/svg/namespace">
    <labelrank>9</labelrank>
    <hasc>HR.ZG</hasc>
    <alt-name>Zagreb</alt-name>
    <woe-id>12577990</woe-id>
    <subregion>NULL</subregion>
    <fips>HR20</fips>
    <postal-code>ZG</postal-code>
    <name>Zagrebacka</name>
    <country>Croatia</country>
    <type-en>County</type-en>
    <region>Jugovzhodna Slovenija</region>
    <longitude>15.5948</longitude>
    <woe-name>Zagrebacka</woe-name>
    <latitude>45.7203</latitude>
    <woe-label>Zagreba?ka, HR, Croatia</woe-label>
    <type>?upanija</type>
    <hc-middle-x>0.80</hc-middle-x>
    <hc-middle-y>0.27</hc-middle-y>
    <hc-key>hr-zg</hc-key>
    <hc-a2>ZG</hc-a2>
  </desc>
</path>

<path fill="#CEE3F5" stroke="#6E6E6E" stroke-width="0.4" id="HR.GZ" d="M288.6,102.9 L291.6,106.8 L310.0,97.1 L311.7,96.9 L314.8,103.1 L317.0,108.9 L321.3,114.8 L322.2,117.2 L320.1,119.7 L317.5,127.2 L311.8,124.2 L306.0,130.0 L291.5,139.4 L289.1,143.3 L288.1,151.9 L286.1,155.3 L284.0,153.9 L280.6,149.4 L273.3,146.0 L270.0,143.5 L268.4,141.1 L269.8,135.7 L273.4,138.0 L275.9,132.8 L273.5,129.4 L277.5,123.8 L273.2,118.4 L269.0,118.4 L268.0,117.5 L268.7,113.9 L273.8,112.2 L274.1,106.8 L275.5,105.9 L279.4,105.9 L285.5,104.6 Z">
  <desc xmlns="http://www.highcharts.com/svg/namespace">
    <labelrank>9</labelrank>
    <hasc>HR.GZ</hasc>
    <alt-name>NULL</alt-name>
    <woe-id>20070170</woe-id>
    <subregion>NULL</subregion>
    <fips>HR21</fips>
    <postal-code>GZ</postal-code>
    <name>Grad Zagreb</name>
    <country>Croatia</country>
    <type-en>City</type-en>
    <region>NULL</region>
    <longitude>15.9958</longitude>
    <woe-name>Grad Zagreb</woe-name>
    <latitude>45.8251</latitude>
    <woe-label>Grad Zagreb, HR, Croatia</woe-label>
    <type>Grad</type>
    <hc-middle-x>0.52</hc-middle-x>
    <hc-middle-y>0.34</hc-middle-y>
    <hc-key>hr-gz</hc-key>
    <hc-a2>GZ</hc-a2>
  </desc>
</path>

<path fill="#CEE3F5" stroke="#6E6E6E" stroke-width="0.4" id="HR.VA" d="M337.8,87.9 L330.2,89.8 L325.7,81.7 L324.9,73.0 L325.6,66.4 L324.2,63.5 L324.8,60.4 L321.2,59.0 L319.4,56.2 L317.9,56.7 L314.4,60.4 L310.6,59.6 L303.5,59.9 L300.5,60.8 L294.9,59.4 L291.3,59.2 L288.7,55.1 L283.7,53.4 L282.4,51.7 L281.9,48.1 L290.0,44.0 L295.9,42.8 L300.6,40.0 L303.0,36.0 L302.9,28.4 L308.5,29.0 L311.5,25.8 L314.0,26.1 L318.4,29.8 L321.4,30.2 L328.7,28.3 L333.2,30.0 L335.8,32.8 L337.0,37.1 L338.2,38.2 L352.4,41.3 L356.2,41.3 L364.3,38.7 L380.0,39.6 L382.9,40.6 L386.1,43.6 L385.9,46.7 L384.4,50.4 L381.4,53.8 L377.2,56.6 L373.5,58.2 L371.7,56.2 L365.5,57.8 L354.3,64.8 L353.3,67.3 L348.1,69.2 L345.9,67.6 L341.8,70.6 L336.7,71.4 L336.2,73.5 L337.4,78.8 L337.1,84.9 Z">
  <desc xmlns="http://www.highcharts.com/svg/namespace">
    <labelrank>9</labelrank>
    <hasc>HR.VA</hasc>
    <alt-name>Vara?din|Varasd</alt-name>
    <woe-id>12577986</woe-id>
    <subregion>NULL</subregion>
    <fips>HR16</fips>
    <postal-code>VA</postal-code>
    <name>Vara?dinska</name>
    <country>Croatia</country>
    <type-en>County</type-en>
    <region>NULL</region>
    <longitude>16.3267</longitude>
    <woe-name>Vara?dinska</woe-name>
    <latitude>46.1918</latitude>
    <woe-label>Vara?dinska, HR, Croatia</woe-label>
    <type>?upanija</type>
    <hc-middle-x>0.45</hc-middle-x>
    <hc-middle-y>0.36</hc-middle-y>
    <hc-key>hr-va</hc-key>
    <hc-a2>VA</hc-a2>
  </desc>
</path>

<path fill="#CEE3F5" stroke="#6E6E6E" stroke-width="0.4" id="HR.IS" d="M81.1,227.4 L84.8,230.4 L81.6,235.1 L78.1,233.6 L80.0,236.0 L79.6,238.5 L74.8,244.0 L75.2,247.2 L73.5,247.1 L75.3,249.4 L76.0,253.0 L75.6,256.9 L72.6,260.9 L69.5,259.8 L64.0,264.3 L64.5,261.0 L66.0,258.2 L65.1,255.0 L62.7,252.7 L62.5,249.4 L61.1,249.2 L61.4,255.5 L64.6,256.9 L65.0,258.6 L60.4,264.2 L59.8,268.8 L58.0,272.3 L56.9,271.5 L52.3,272.1 L54.6,275.5 L54.6,277.8 L52.0,281.2 L51.9,284.6 L53.9,284.9 L55.1,287.0 L50.8,287.1 L45.5,284.0 L42.1,283.2 L41.2,284.3 L43.7,285.9 L43.6,289.0 L45.1,292.5 L43.3,293.5 L42.8,286.6 L37.1,284.1 L38.0,281.9 L36.5,279.4 L35.2,279.7 L31.4,277.6 L35.5,276.2 L36.7,273.8 L32.2,274.1 L31.0,271.4 L32.7,269.1 L31.4,267.4 L28.9,260.8 L24.2,255.4 L18.3,246.5 L14.0,242.3 L11.6,241.8 L13.3,238.4 L10.6,234.2 L13.7,232.3 L24.2,231.9 L19.2,230.2 L9.3,230.9 L9.3,225.2 L7.4,220.8 L9.0,216.8 L8.5,210.3 L7.0,209.3 L10.4,207.1 L7.3,202.3 L11.4,200.2 L5.8,198.9 L3.5,195.5 L5.2,193.1 L3.9,190.5 L0.7,180.3 L1.7,176.7 L0.0,172.2 L0.5,167.5 L7.6,171.3 L10.1,171.7 L14.6,176.9 L30.0,176.8 L37.0,182.1 L45.1,183.9 L49.3,179.8 L54.9,177.6 L56.5,175.6 L54.1,172.5 L55.4,169.0 L60.4,170.2 L66.5,175.1 L72.4,176.5 L72.7,180.2 L74.8,183.0 L81.0,186.9 L82.3,188.4 L81.7,193.1 L82.8,201.2 L81.1,205.2 L80.6,210.0 L81.2,219.4 Z">
  <desc xmlns="http://www.highcharts.com/svg/namespace">
    <labelrank>9</labelrank>
    <hasc>HR.IS</hasc>
    <alt-name>Istra</alt-name>
    <woe-id>12577974</woe-id>
    <subregion>NULL</subregion>
    <fips>HR04</fips>
    <postal-code>IS</postal-code>
    <name>Istarska</name>
    <country>Croatia</country>
    <type-en>County</type-en>
    <region>NULL</region>
    <longitude>13.8682</longitude>
    <woe-name>Istarska</woe-name>
    <latitude>45.1248</latitude>
    <woe-label>Istarska, HR, Croatia</woe-label>
    <type>?upanija</type>
    <hc-middle-x>0.57</hc-middle-x>
    <hc-middle-y>0.46</hc-middle-y>
    <hc-key>hr-is</hc-key>
    <hc-a2>IS</hc-a2>
  </desc>
</path>

<path fill="#CEE3F5" stroke="#6E6E6E" stroke-width="0.4" id="HR.2228" d="M596.7,242.3 L597.6,247.8 L594.7,247.8 L588.6,244.9 L584.1,240.2 L579.7,237.6 L571.3,237.1 L564.0,232.6 L561.1,231.5 L558.2,232.2 L556.9,233.8 L555.9,239.8 L551.3,241.8 L546.3,241.3 L543.7,240.2 L537.0,234.3 L535.1,233.3 L531.5,234.4 L524.4,243.2 L521.4,245.6 L513.5,248.0 L508.9,245.2 L502.1,236.6 L498.8,233.5 L495.3,231.6 L491.3,231.4 L488.8,232.8 L484.4,237.5 L482.0,239.1 L478.1,239.0 L472.1,239.9 L472.9,235.6 L470.1,237.2 L467.1,236.9 L468.3,234.9 L466.5,232.3 L465.5,234.6 L459.3,236.1 L452.6,231.8 L445.8,227.9 L443.0,233.6 L437.4,234.1 L436.1,234.8 L428.6,231.5 L426.9,227.5 L423.4,223.6 L424.3,220.9 L429.8,215.6 L431.6,212.6 L436.5,211.3 L437.5,210.3 L434.9,206.4 L436.1,204.2 L435.1,201.3 L440.2,197.0 L443.3,195.8 L448.0,197.5 L449.7,197.4 L455.6,194.6 L460.0,194.5 L470.4,201.7 L476.8,209.0 L482.2,212.8 L487.5,214.5 L492.9,214.1 L497.0,215.6 L497.6,220.0 L499.5,223.5 L498.0,226.6 L502.4,227.8 L506.2,226.4 L506.7,222.6 L511.5,222.2 L514.1,221.1 L517.5,216.8 L519.3,215.9 L518.6,213.5 L520.8,210.6 L522.7,210.2 L542.1,212.7 L548.5,217.4 L556.5,220.1 L559.2,220.5 L564.4,219.5 L565.8,217.8 L571.3,216.3 L575.7,216.9 L590.5,221.7 L596.5,224.6 L593.7,228.1 L592.7,231.1 L592.9,235.5 Z">
  <desc xmlns="http://www.highcharts.com/svg/namespace">
    <labelrank>9</labelrank>
    <hasc>HR.SP</hasc>
    <alt-name>Slavonski Brod-Posavina</alt-name>
    <woe-id>12577972</woe-id>
    <subregion>NULL</subregion>
    <fips>HR02</fips>
    <postal-code>NULL</postal-code>
    <name>Brodsko-Posavska</name>
    <country>Croatia</country>
    <type-en>County</type-en>
    <region>NULL</region>
    <longitude>17.8112</longitude>
    <woe-name>Brodsko-Posavska</woe-name>
    <latitude>45.1454</latitude>
    <woe-label>Brodsko-Posavska, HR, Croatia</woe-label>
    <type>?upanija</type>
    <hc-middle-x>0.57</hc-middle-x>
    <hc-middle-y>0.63</hc-middle-y>
    <hc-key>hr-2228</hc-key>
    <hc-a2>BP</hc-a2>
  </desc>
</path>

<path fill="#CEE3F5" stroke="#6E6E6E" stroke-width="0.4" id="HR.OB" d="M519.8,125.5 L527.9,125.4 L540.3,128.6 L546.0,126.2 L555.7,126.0 L561.5,129.2 L564.2,129.2 L568.3,132.1 L572.2,130.1 L574.1,130.1 L576.1,132.6 L579.4,132.5 L581.6,130.7 L585.6,125.5 L587.5,124.2 L590.1,125.4 L593.2,124.2 L599.5,117.9 L603.6,110.8 L604.8,106.8 L607.4,104.1 L609.6,103.6 L615.4,105.5 L620.2,107.8 L622.8,107.2 L624.9,102.6 L626.4,104.0 L636.1,99.3 L636.9,101.9 L633.0,105.5 L636.7,108.7 L636.3,111.1 L631.1,111.9 L630.5,120.0 L636.8,127.3 L638.1,134.9 L639.1,137.1 L644.6,140.8 L645.4,143.2 L641.6,149.3 L639.0,151.8 L638.2,159.6 L642.9,165.2 L645.1,165.1 L647.7,162.4 L651.8,160.1 L655.8,164.8 L661.1,166.8 L662.5,169.1 L659.1,172.6 L651.1,171.7 L649.7,175.9 L651.7,180.1 L648.7,182.4 L643.0,183.1 L636.1,175.6 L633.6,175.1 L629.4,177.7 L626.1,178.3 L625.2,179.7 L626.8,182.0 L626.9,185.2 L625.2,186.8 L616.6,186.6 L609.7,190.9 L609.2,196.0 L607.5,198.8 L607.3,202.8 L602.2,203.4 L600.3,205.7 L595.2,206.5 L593.1,208.0 L592.7,215.0 L598.2,216.5 L600.1,218.9 L599.6,223.0 L598.5,224.8 L596.5,224.6 L590.5,221.7 L575.7,216.9 L571.3,216.3 L565.8,217.8 L564.4,219.5 L559.2,220.5 L556.5,220.1 L548.5,217.4 L542.1,212.7 L545.2,207.4 L545.3,205.8 L543.4,201.3 L541.3,200.3 L542.4,198.1 L545.4,196.5 L547.3,192.8 L551.3,188.8 L554.0,187.2 L560.1,186.3 L566.6,180.8 L568.7,180.1 L573.2,181.1 L578.3,178.7 L584.0,177.8 L582.3,172.6 L578.3,169.6 L576.9,169.9 L576.2,174.0 L567.8,174.9 L564.5,171.8 L559.5,172.0 L554.6,168.1 L554.4,164.0 L557.0,162.7 L557.9,160.8 L555.9,157.5 L552.0,156.0 L549.2,153.9 L541.1,152.3 L540.3,149.8 L534.5,146.8 L532.3,145.0 L531.5,141.5 L528.9,137.8 L524.9,136.9 L520.7,128.8 Z">
  <desc xmlns="http://www.highcharts.com/svg/namespace">
    <labelrank>9</labelrank>
    <hasc>HR.OB</hasc>
    <alt-name>Osijek-Baranja</alt-name>
    <woe-id>12577980</woe-id>
    <subregion>NULL</subregion>
    <fips>HR10</fips>
    <postal-code>OB</postal-code>
    <name>Osjecko-Baranjska</name>
    <country>Croatia</country>
    <type-en>County</type-en>
    <region>NULL</region>
    <longitude>18.506</longitude>
    <woe-name>Osjecko-Baranjska</woe-name>
    <latitude>45.4948</latitude>
    <woe-label>Osje?ko-baranjska, HR, Croatia</woe-label>
    <type>?upanija</type>
    <hc-middle-x>0.54</hc-middle-x>
    <hc-middle-y>0.53</hc-middle-y>
    <hc-key>hr-ob</hc-key>
    <hc-a2>OB</hc-a2>
  </desc>
</path>

<path fill="#CEE3F5" stroke="#6E6E6E" stroke-width="0.4" id="HR.SP" d="M542.1,212.7 L522.7,210.2 L520.8,210.6 L518.6,213.5 L519.3,215.9 L517.5,216.8 L514.1,221.1 L511.5,222.2 L506.7,222.6 L506.2,226.4 L502.4,227.8 L498.0,226.6 L499.5,223.5 L497.6,220.0 L497.0,215.6 L492.9,214.1 L487.5,214.5 L482.2,212.8 L476.8,209.0 L470.4,201.7 L460.0,194.5 L455.6,194.6 L449.7,197.4 L448.0,197.5 L443.3,195.8 L440.2,197.0 L435.1,201.3 L430.7,202.4 L420.9,196.4 L419.5,193.4 L420.6,191.4 L419.8,188.4 L416.3,189.6 L413.4,185.4 L409.3,183.5 L405.1,180.0 L405.2,172.9 L406.8,168.0 L408.6,168.7 L409.8,172.5 L415.4,175.1 L421.8,175.1 L430.8,173.4 L435.3,171.0 L438.6,173.9 L441.1,174.7 L453.1,172.6 L458.8,173.9 L462.9,173.2 L464.1,171.5 L465.6,165.7 L464.2,162.9 L469.2,163.8 L473.0,165.9 L474.4,162.5 L483.9,167.5 L490.3,172.5 L499.3,175.5 L504.5,176.0 L508.1,179.7 L514.2,179.0 L517.5,179.6 L522.9,175.9 L524.6,173.9 L527.3,167.3 L538.2,153.5 L541.1,152.3 L549.2,153.9 L552.0,156.0 L555.9,157.5 L557.9,160.8 L557.0,162.7 L554.4,164.0 L554.6,168.1 L559.5,172.0 L564.5,171.8 L567.8,174.9 L576.2,174.0 L576.9,169.9 L578.3,169.6 L582.3,172.6 L584.0,177.8 L578.3,178.7 L573.2,181.1 L568.7,180.1 L566.6,180.8 L560.1,186.3 L554.0,187.2 L551.3,188.8 L547.3,192.8 L545.4,196.5 L542.4,198.1 L541.3,200.3 L543.4,201.3 L545.3,205.8 L545.2,207.4 Z">
  <desc xmlns="http://www.highcharts.com/svg/namespace">
    <labelrank>9</labelrank>
    <hasc>HR.SP</hasc>
    <alt-name>Slavonski Brod-Posavina</alt-name>
    <woe-id>12577981</woe-id>
    <subregion>NULL</subregion>
    <fips>HR11</fips>
    <postal-code>SP</postal-code>
    <name>Brodsko-Posavska</name>
    <country>Croatia</country>
    <type-en>County</type-en>
    <region>NULL</region>
    <longitude>17.6849</longitude>
    <woe-name>Brodsko-Posavska</woe-name>
    <latitude>45.3863</latitude>
    <woe-label>Po?e?ko-slavonska, HR, Croatia</woe-label>
    <type>?upanija</type>
    <hc-middle-x>0.48</hc-middle-x>
    <hc-middle-y>0.49</hc-middle-y>
    <hc-key>hr-sp</hc-key>
    <hc-a2>SP</hc-a2>
  </desc>
</path>

<path fill="#CEE3F5" stroke="#6E6E6E" stroke-width="0.4" id="HR.VS" d="M651.7,180.1 L654.8,184.4 L653.8,186.2 L647.7,189.2 L651.1,194.0 L655.6,195.9 L661.7,196.4 L662.6,201.4 L665.8,205.0 L670.3,207.0 L694.4,212.4 L696.3,215.5 L698.6,216.4 L700.0,219.8 L699.8,223.7 L698.2,225.5 L687.9,226.4 L686.3,224.6 L683.6,226.6 L678.6,227.5 L673.7,226.6 L670.1,222.2 L666.0,222.2 L668.6,227.8 L668.2,230.5 L665.6,231.1 L659.0,230.7 L657.4,233.8 L660.5,237.3 L661.9,241.0 L663.8,251.7 L662.8,257.4 L664.4,260.2 L666.9,259.2 L668.5,262.9 L665.3,265.6 L662.4,270.3 L659.3,271.0 L655.2,268.0 L652.0,269.9 L652.4,273.3 L655.2,278.1 L653.9,278.5 L640.1,279.3 L636.4,278.2 L631.4,275.1 L627.1,270.8 L625.7,266.0 L629.1,262.3 L629.4,260.7 L627.4,255.4 L622.7,254.4 L619.8,252.1 L615.1,243.2 L612.4,242.8 L611.5,245.6 L609.4,245.8 L606.4,240.5 L602.3,241.6 L598.4,241.1 L596.7,242.3 L592.9,235.5 L592.7,231.1 L593.7,228.1 L596.5,224.6 L598.5,224.8 L599.6,223.0 L600.1,218.9 L598.2,216.5 L592.7,215.0 L593.1,208.0 L595.2,206.5 L600.3,205.7 L602.2,203.4 L607.3,202.8 L607.5,198.8 L609.2,196.0 L609.7,190.9 L616.6,186.6 L625.2,186.8 L626.9,185.2 L626.8,182.0 L625.2,179.7 L626.1,178.3 L629.4,177.7 L633.6,175.1 L636.1,175.6 L643.0,183.1 L648.7,182.4 Z">
  <desc xmlns="http://www.highcharts.com/svg/namespace">
    <labelrank>9</labelrank>
    <hasc>HR.VS</hasc>
    <alt-name>Vukovar-Srijem</alt-name>
    <woe-id>12577988</woe-id>
    <subregion>NULL</subregion>
    <fips>HR18</fips>
    <postal-code>VS</postal-code>
    <name>Vukovarsko-Srijemska</name>
    <country>Croatia</country>
    <type-en>County</type-en>
    <region>NULL</region>
    <longitude>18.9549</longitude>
    <woe-name>Vukovarsko-Srijemska</woe-name>
    <latitude>45.1467</latitude>
    <woe-label>Vukovarsko-Srijemska, HR, Croatia</woe-label>
    <type>?upanija</type>
    <hc-middle-x>0.43</hc-middle-x>
    <hc-middle-y>0.45</hc-middle-y>
    <hc-key>hr-vs</hc-key>
    <hc-a2>VS</hc-a2>
  </desc>
</path>

<path fill="#CEE3F5" stroke="#6E6E6E" stroke-width="0.4" id="HR.VP" d="M541.1,152.3 L538.2,153.5 L527.3,167.3 L524.6,173.9 L522.9,175.9 L517.5,179.6 L514.2,179.0 L508.1,179.7 L504.5,176.0 L499.3,175.5 L490.3,172.5 L483.9,167.5 L474.4,162.5 L473.0,165.9 L469.2,163.8 L464.2,162.9 L463.5,159.9 L471.3,145.9 L471.0,142.9 L466.1,139.5 L463.0,138.8 L458.6,141.5 L455.6,138.3 L456.4,135.7 L454.8,132.7 L451.3,133.5 L446.0,128.1 L445.7,124.6 L429.6,113.5 L428.6,109.6 L428.9,105.9 L431.5,102.9 L434.9,97.5 L438.4,94.8 L440.7,94.4 L446.8,95.3 L448.9,94.9 L451.3,96.2 L452.6,94.1 L453.5,98.9 L458.6,97.6 L460.6,100.9 L463.0,98.7 L473.0,99.0 L478.0,100.0 L482.4,101.9 L488.0,107.7 L488.9,109.2 L490.3,117.0 L493.9,117.8 L508.3,122.0 L511.7,124.4 L514.1,128.3 L515.6,128.7 L516.7,126.2 L519.8,125.5 L520.7,128.8 L524.9,136.9 L528.9,137.8 L531.5,141.5 L532.3,145.0 L534.5,146.8 L540.3,149.8 Z">
  <desc xmlns="http://www.highcharts.com/svg/namespace">
    <labelrank>9</labelrank>
    <hasc>HR.VP</hasc>
    <alt-name>Virovitica-Podravina</alt-name>
    <woe-id>12577987</woe-id>
    <subregion>NULL</subregion>
    <fips>HR17</fips>
    <postal-code>VP</postal-code>
    <name>Viroviticko-Podravska</name>
    <country>Croatia</country>
    <type-en>County</type-en>
    <region>NULL</region>
    <longitude>17.6078</longitude>
    <woe-name>Viroviticko-Podravska</woe-name>
    <latitude>45.7303</latitude>
    <woe-label>Viroviti?ko-podravska, HR, Croatia</woe-label>
    <type>?upanija</type>
    <hc-middle-x>0.54</hc-middle-x>
    <hc-middle-y>0.50</hc-middle-y>
    <hc-key>hr-vp</hc-key>
    <hc-a2>VP</hc-a2>
  </desc>
</path>

<path fill="#CEE3F5" stroke="#6E6E6E" stroke-width="0.4" id="HR.KK" d="M396.2,30.6 L398.0,34.2 L397.6,36.9 L399.7,42.8 L405.7,49.6 L409.8,56.4 L416.0,61.5 L419.0,66.0 L426.4,71.0 L435.9,71.3 L437.2,72.0 L441.9,78.1 L445.2,89.5 L449.0,90.5 L450.1,91.9 L447.0,93.0 L448.9,94.9 L446.8,95.3 L440.7,94.4 L438.4,94.8 L434.9,97.5 L431.5,102.9 L428.9,105.9 L428.6,109.6 L429.6,113.5 L422.4,107.0 L418.9,102.8 L415.7,102.9 L413.8,104.4 L412.1,102.8 L412.3,98.4 L408.9,95.4 L404.1,93.0 L401.7,90.4 L403.0,86.4 L398.8,82.9 L397.2,78.9 L393.5,78.7 L392.6,81.5 L390.1,84.1 L387.6,82.1 L382.6,84.3 L380.0,88.8 L377.4,95.2 L376.9,104.7 L375.2,103.9 L371.8,105.4 L366.2,104.3 L364.8,102.4 L360.3,99.8 L356.7,96.1 L351.4,99.1 L351.0,96.4 L347.7,91.3 L337.8,87.9 L337.1,84.9 L337.4,78.8 L336.2,73.5 L336.7,71.4 L341.8,70.6 L345.9,67.6 L348.1,69.2 L353.3,67.3 L354.3,64.8 L365.5,57.8 L371.7,56.2 L373.5,58.2 L377.2,56.6 L381.4,53.8 L384.4,50.4 L385.9,46.7 L386.1,43.6 L382.9,40.6 L388.3,41.9 L391.1,44.1 L394.5,36.2 Z">
  <desc xmlns="http://www.highcharts.com/svg/namespace">
    <labelrank>9</labelrank>
    <hasc>HR.KK</hasc>
    <alt-name>Koprivnica-Kri?evci</alt-name>
    <woe-id>12577976</woe-id>
    <subregion>NULL</subregion>
    <fips>HR06</fips>
    <postal-code>KK</postal-code>
    <name>Koprivni?ko-Kri?eva?ka</name>
    <country>Croatia</country>
    <type-en>County</type-en>
    <region>NULL</region>
    <longitude>16.831</longitude>
    <woe-name>Koprivni?ko-Kri?eva?ka</woe-name>
    <latitude>46.1914</latitude>
    <woe-label>Koprivni?ko-kri?eva?ka, HR, Croatia</woe-label>
    <type>?upanija</type>
    <hc-middle-x>0.29</hc-middle-x>
    <hc-middle-y>0.53</hc-middle-y>
    <hc-key>hr-kk</hc-key>
    <hc-a2>KK</hc-a2>
  </desc>
</path>

<path fill="#CEE3F5" stroke="#6E6E6E" stroke-width="0.4" id="HR.ME" d="M328.7,28.3 L328.0,26.0 L325.0,22.4 L325.2,18.4 L323.4,11.4 L323.5,9.0 L326.9,5.2 L334.6,1.9 L336.2,0.0 L339.2,1.1 L343.4,1.3 L346.4,4.0 L353.3,5.4 L356.8,8.2 L364.1,12.9 L365.3,10.8 L370.3,12.2 L372.8,13.9 L379.0,22.6 L382.6,24.8 L384.0,27.7 L385.7,25.3 L389.6,26.6 L392.5,29.0 L393.6,27.7 L396.2,30.6 L394.5,36.2 L391.1,44.1 L388.3,41.9 L382.9,40.6 L380.0,39.6 L364.3,38.7 L356.2,41.3 L352.4,41.3 L338.2,38.2 L337.0,37.1 L335.8,32.8 L333.2,30.0 Z">
  <desc xmlns="http://www.highcharts.com/svg/namespace">
    <labelrank>9</labelrank>
    <hasc>HR.ME</hasc>
    <alt-name>Medimurje</alt-name>
    <woe-id>12577979</woe-id>
    <subregion>NULL</subregion>
    <fips>HR09</fips>
    <postal-code>ME</postal-code>
    <name>Medimurska</name>
    <country>Croatia</country>
    <type-en>County</type-en>
    <region>NULL</region>
    <longitude>16.5464</longitude>
    <woe-name>Medimurska</woe-name>
    <latitude>46.398</latitude>
    <woe-label>Medjimurska, HR, Croatia</woe-label>
    <type>?upanija</type>
    <hc-middle-x>0.39</hc-middle-x>
    <hc-middle-y>0.54</hc-middle-y>
    <hc-key>hr-me</hc-key>
    <hc-a2>ME</hc-a2>
  </desc>
</path>

<path fill="#CEE3F5" stroke="#6E6E6E" stroke-width="0.4" id="HR.DN" d="M398.7,632.6 L406.5,633.7 L408.1,634.8 L408.4,637.4 L406.9,639.7 L402.0,641.8 L398.7,639.5 L395.8,641.6 L392.7,638.4 L394.2,637.5 L392.7,634.1 Z M496.6,639.4 L497.9,638.6 L500.5,640.8 L506.8,643.5 L509.2,646.6 L464.0,634.3 L462.6,636.2 L460.1,635.1 L456.3,631.1 L462.5,629.0 L463.5,629.8 L467.3,632.1 L468.2,630.9 L470.3,632.3 L476.4,632.3 L481.1,635.2 L487.4,636.3 L490.3,637.6 L489.4,638.7 Z M420.0,599.1 L429.8,602.1 L432.3,601.2 L436.4,605.9 L440.8,609.2 L440.0,610.5 L437.6,609.2 L429.4,610.5 L418.0,608.2 L412.7,608.6 L403.6,612.1 L397.8,613.0 L383.9,610.3 L378.0,608.4 L375.7,609.5 L371.4,607.4 L379.9,602.7 L379.9,601.5 L370.6,599.3 L373.2,597.7 L381.5,598.0 L387.5,601.0 L394.3,602.7 L401.1,602.7 L405.6,600.6 Z M522.4,625.8 L528.2,627.8 L531.2,630.1 L536.6,636.0 L539.6,638.4 L546.4,642.6 L568.3,656.7 L572.5,658.9 L579.3,661.0 L582.6,660.7 L586.7,665.5 L588.6,666.7 L595.1,667.7 L595.7,670.5 L595.1,675.9 L596.2,681.4 L599.2,685.4 L602.4,687.2 L603.0,691.6 L600.1,687.4 L592.4,684.2 L592.2,681.8 L570.4,668.3 L568.0,665.0 L568.3,659.0 L567.5,658.1 L561.1,657.1 L555.9,654.2 L549.9,653.2 L547.5,650.4 L550.0,650.4 L546.3,646.7 L545.6,644.7 L543.8,646.6 L540.7,645.1 L535.4,640.3 L527.9,636.7 L525.3,633.9 L526.8,630.1 L523.3,630.3 L519.5,627.5 L516.0,626.8 L512.0,629.1 L505.4,624.5 L508.9,628.3 L510.6,633.2 L509.0,633.6 L508.9,630.4 L506.4,628.8 L500.2,626.3 L494.6,625.2 L487.9,622.2 L481.1,621.1 L470.6,617.0 L470.8,612.8 L467.7,610.7 L459.4,609.0 L449.5,602.1 L440.9,598.7 L427.8,598.8 L423.7,597.8 L419.4,595.6 L418.2,593.9 L419.5,592.1 L416.2,587.6 L418.8,588.0 L422.9,591.3 L425.0,592.1 L435.6,590.9 L445.6,592.2 L464.2,599.6 L468.6,602.4 L472.2,605.4 L473.5,609.1 L475.6,608.8 L480.2,611.1 L480.6,609.2 L485.2,610.2 L488.3,612.2 L495.4,614.9 L496.8,616.7 L499.4,616.4 L504.7,621.5 L507.9,622.3 L504.1,619.4 L502.9,617.5 L503.6,614.3 L500.0,615.7 L496.9,613.8 L500.0,609.6 L502.8,608.9 L513.3,611.8 L516.4,610.3 L518.2,613.8 L518.5,619.8 Z M471.4,570.8 L488.3,581.7 L493.4,587.6 L497.3,596.5 L497.9,601.2 L494.4,603.8 L487.8,605.3 L483.9,603.1 L482.1,603.9 L479.7,602.6 L476.3,598.6 L474.1,593.5 L477.9,590.5 L476.1,589.8 L470.3,592.4 L472.7,590.5 L470.3,590.3 L468.5,588.3 L468.5,584.8 L465.8,587.2 L461.0,582.5 L466.0,578.9 L461.5,573.0 L458.8,572.4 L459.3,569.5 L464.0,570.5 L465.9,572.0 L469.7,572.0 Z">
  <desc xmlns="http://www.highcharts.com/svg/namespace">
    <labelrank>9</labelrank>
    <hasc>HR.DN</hasc>
    <alt-name>Dubrovnik-Neretva</alt-name>
    <woe-id>12577973</woe-id>
    <subregion>NULL</subregion>
    <fips>HR03</fips>
    <postal-code>DN</postal-code>
    <name>Dubrovacko-Neretvanska</name>
    <country>Croatia</country>
    <type-en>County</type-en>
    <region>NULL</region>
    <longitude>16.8699</longitude>
    <woe-name>Dubrova?ko-neretvanska</woe-name>
    <latitude>42.761</latitude>
    <woe-label>NULL</woe-label>
    <type>?upanija</type>
    <hc-middle-x>0.61</hc-middle-x>
    <hc-middle-y>0.41</hc-middle-y>
    <hc-key>hr-dn</hc-key>
    <hc-a2>DN</hc-a2>
  </desc>
</path>

<path fill="#CEE3F5" stroke="#6E6E6E" stroke-width="0.4" id="HR.SD" d="M303.1,591.9 L302.4,587.3 L300.5,587.6 L298.7,585.3 L304.1,582.4 L308.8,581.4 L313.7,581.6 L317.3,583.0 L316.7,583.8 L323.5,583.0 L323.8,585.9 L318.6,590.8 L307.6,594.1 L303.4,594.4 L300.4,593.3 Z M385.2,569.1 L397.2,569.0 L399.2,567.9 L403.2,570.3 L410.8,570.6 L418.2,572.5 L429.4,572.0 L435.0,572.5 L439.7,574.7 L378.1,575.0 L375.3,575.3 L361.7,572.4 L351.3,568.4 L347.6,567.7 L345.4,566.2 L338.5,563.5 L339.6,562.4 L343.9,563.0 L346.9,561.1 L347.7,562.4 L353.9,559.8 L361.1,564.8 L364.6,564.7 L361.2,561.1 L356.8,557.9 L362.0,557.9 L364.6,560.1 L367.1,558.8 L373.9,560.1 L377.2,565.8 L379.7,567.7 Z M392.8,551.3 L370.1,552.1 L362.2,551.0 L354.4,548.6 L344.7,543.0 L346.9,540.5 L346.3,538.2 L348.6,537.0 L345.3,530.2 L348.6,530.2 L353.6,532.1 L377.3,533.0 L392.3,537.0 L392.0,538.8 L394.9,538.1 L398.3,541.7 L401.6,542.2 L402.5,543.8 L400.0,547.9 L399.1,547.3 L396.9,550.4 Z M321.5,531.7 L318.4,531.2 L317.6,527.9 L320.0,526.6 L327.0,527.1 L329.6,528.5 L330.1,531.3 L333.5,530.9 L341.0,538.2 L339.1,540.3 L335.8,539.5 L327.6,534.3 Z M325.5,510.2 L334.0,512.1 L339.1,514.0 L338.5,515.0 L333.9,515.5 L327.6,514.4 L323.3,515.4 L319.0,514.0 L319.9,512.7 L322.9,513.2 L323.5,510.9 Z M461.0,582.5 L454.8,574.5 L437.0,565.5 L429.8,560.3 L428.1,557.2 L424.8,556.0 L422.7,553.0 L421.8,549.5 L419.2,548.4 L407.5,533.5 L401.0,528.1 L385.3,525.8 L378.1,522.7 L369.7,520.9 L358.6,512.8 L358.0,510.9 L354.9,511.7 L350.2,510.5 L341.0,510.5 L348.9,507.5 L351.1,505.9 L346.2,504.0 L334.4,503.7 L330.6,505.6 L322.5,507.8 L307.6,508.1 L307.6,509.3 L311.6,510.4 L314.2,514.0 L306.7,514.0 L307.0,515.8 L301.2,514.0 L298.0,513.8 L294.7,511.5 L299.4,510.3 L298.5,506.5 L302.7,505.0 L300.1,500.2 L298.8,495.9 L301.8,492.3 L304.5,492.4 L312.9,481.5 L314.5,480.8 L321.2,483.6 L328.8,479.1 L335.0,477.0 L336.4,475.0 L334.8,472.0 L336.9,465.6 L345.3,459.9 L345.4,456.6 L340.5,450.9 L335.2,447.7 L334.6,445.8 L336.2,440.7 L340.0,441.8 L343.4,441.3 L344.4,439.1 L350.7,434.3 L353.6,433.3 L357.7,433.7 L361.1,438.8 L367.1,444.9 L371.0,450.4 L376.1,455.1 L378.5,463.9 L380.2,466.7 L393.8,477.4 L413.2,497.1 L419.2,504.0 L425.8,509.9 L433.0,513.8 L444.9,515.6 L448.7,518.1 L450.7,522.4 L448.5,536.6 L451.3,544.9 L456.1,552.1 L465.0,559.5 L468.4,567.9 L471.4,570.8 L469.7,572.0 L465.9,572.0 L464.0,570.5 L459.3,569.5 L458.8,572.4 L461.5,573.0 L466.0,578.9 Z">
  <desc xmlns="http://www.highcharts.com/svg/namespace">
    <labelrank>9</labelrank>
    <hasc>HR.SD</hasc>
    <alt-name>Split-Dalmacia</alt-name>
    <woe-id>12577985</woe-id>
    <subregion>NULL</subregion>
    <fips>HR15</fips>
    <postal-code>SD</postal-code>
    <name>Splitsko-Dalmatinska</name>
    <country>Croatia</country>
    <type-en>County</type-en>
    <region>NULL</region>
    <longitude>16.788</longitude>
    <woe-name>Splitsko-Dalmatinska</woe-name>
    <latitude>43.5266</latitude>
    <woe-label>Splitsko-Dalmatinska, HR, Croatia</woe-label>
    <type>?upanija</type>
    <hc-middle-x>0.42</hc-middle-x>
    <hc-middle-y>0.37</hc-middle-y>
    <hc-key>hr-sd</hc-key>
    <hc-a2>SD</hc-a2>
  </desc>
</path>

<path fill="#CEE3F5" stroke="#6E6E6E" stroke-width="0.4" id="HR.LS" d="M178.9,338.1 L182.9,345.4 L180.5,345.0 L177.2,342.1 L174.7,341.8 L175.6,339.5 L165.4,333.6 L163.3,334.7 L169.8,338.5 L179.4,352.9 L185.2,357.1 L181.5,353.2 L178.8,346.6 L183.7,349.2 L194.8,361.2 L197.5,363.0 L204.0,370.0 L201.7,370.6 L196.0,366.5 L193.3,366.4 L197.5,368.3 L200.7,372.2 L198.2,372.2 L197.3,373.8 L192.0,371.3 L189.1,372.1 L194.0,375.7 L194.0,376.7 L188.8,374.5 L185.0,369.7 L186.7,368.7 L184.2,363.9 L186.3,363.8 L187.6,361.8 L184.6,359.7 L179.4,360.4 L176.1,354.4 L168.8,348.1 L161.5,343.9 L164.1,341.6 L157.9,331.1 L145.7,315.3 L143.6,311.6 L143.4,308.1 L148.0,313.6 L155.5,325.3 L160.1,328.9 L159.8,324.0 L162.6,323.9 L166.7,326.6 L170.0,330.2 L174.4,336.5 Z M208.8,365.9 L192.4,348.5 L186.9,340.5 L183.6,336.7 L179.7,334.2 L174.2,329.4 L162.6,310.4 L160.6,304.7 L162.0,302.6 L160.8,293.8 L161.1,281.5 L163.8,271.0 L165.9,265.3 L165.1,261.4 L161.3,252.3 L162.5,248.0 L166.9,245.3 L169.8,246.3 L177.1,246.4 L178.9,242.2 L176.7,237.7 L190.6,241.1 L194.7,240.9 L198.9,237.8 L204.5,244.8 L220.4,254.8 L224.0,262.3 L227.8,265.7 L230.6,272.1 L235.4,272.8 L238.1,276.0 L242.8,280.0 L241.9,283.2 L237.9,286.5 L240.3,289.7 L246.8,293.8 L245.8,296.0 L238.5,300.7 L232.5,301.1 L231.2,302.0 L231.6,304.9 L236.4,309.1 L237.7,311.8 L238.6,318.7 L241.0,321.6 L241.7,329.9 L248.9,336.7 L250.6,339.1 L252.5,344.6 L246.2,349.1 L244.9,350.8 L250.0,356.9 L250.1,358.6 L247.7,364.0 L244.5,367.7 L240.2,369.3 L239.2,372.1 L235.2,367.1 L233.0,365.6 L223.8,364.5 L215.9,358.1 L213.1,358.1 Z">
  <desc xmlns="http://www.highcharts.com/svg/namespace">
    <labelrank>9</labelrank>
    <hasc>HR.LS</hasc>
    <alt-name>Lika-Senj</alt-name>
    <woe-id>12577978</woe-id>
    <subregion>NULL</subregion>
    <fips>HR08</fips>
    <postal-code>LS</postal-code>
    <name>Licko-Senjska</name>
    <country>Croatia</country>
    <type-en>County</type-en>
    <region>NULL</region>
    <longitude>15.2031</longitude>
    <woe-name>Licko-Senjska</woe-name>
    <latitude>44.7521</latitude>
    <woe-label>Li?ko-senjska, HR, Croatia</woe-label>
    <type>?upanija</type>
    <hc-middle-x>0.54</hc-middle-x>
    <hc-middle-y>0.40</hc-middle-y>
    <hc-key>hr-ls</hc-key>
    <hc-a2>LS</hc-a2>
  </desc>
</path>

<path fill="#CEE3F5" stroke="#6E6E6E" stroke-width="0.4" id="HR.SM" d="M428.6,231.5 L425.5,230.0 L420.4,226.2 L418.1,221.2 L414.7,223.6 L414.7,218.9 L413.6,221.1 L409.1,217.8 L409.9,220.1 L407.5,220.4 L405.7,213.2 L404.7,212.2 L401.5,215.0 L398.0,219.1 L397.3,221.0 L393.6,223.6 L392.9,228.3 L388.4,230.0 L364.7,223.0 L357.8,222.8 L352.2,226.6 L348.3,235.3 L346.7,237.8 L342.2,239.7 L340.2,242.1 L339.7,247.5 L337.3,252.0 L335.3,259.2 L332.4,259.9 L328.0,258.9 L320.1,254.8 L309.3,243.9 L307.2,241.1 L304.7,234.6 L302.9,231.5 L297.8,229.0 L298.4,225.5 L294.6,223.2 L291.9,223.8 L280.5,223.4 L274.1,224.4 L271.4,226.8 L266.3,224.5 L261.9,224.7 L259.8,225.9 L252.0,224.2 L251.1,219.4 L254.8,214.6 L254.2,212.5 L255.3,205.8 L255.2,202.6 L257.0,201.0 L255.4,196.3 L256.3,192.7 L254.5,189.8 L256.8,188.2 L261.5,189.0 L262.8,190.5 L265.4,190.6 L269.0,193.4 L273.1,192.8 L275.9,186.5 L276.5,181.5 L274.7,178.4 L273.1,171.8 L276.3,168.0 L279.2,167.8 L280.4,170.6 L283.7,171.2 L286.7,175.3 L287.6,180.1 L292.5,180.5 L296.1,178.4 L300.7,180.0 L304.0,176.0 L308.3,174.9 L307.3,170.4 L303.6,165.9 L303.4,164.0 L301.1,162.3 L301.7,159.3 L306.3,159.1 L312.8,153.5 L315.6,154.4 L316.9,156.6 L323.4,159.8 L328.2,157.1 L330.4,152.1 L329.8,147.2 L330.3,145.0 L329.5,140.5 L330.1,137.7 L333.1,134.3 L336.3,135.8 L339.4,134.2 L340.7,127.4 L340.4,123.6 L345.2,123.7 L347.3,122.2 L348.9,125.5 L353.9,131.5 L355.7,133.4 L354.4,138.8 L359.1,142.0 L362.0,142.9 L368.1,148.7 L372.7,149.2 L380.7,153.0 L382.7,155.2 L387.4,156.5 L388.6,157.7 L391.8,164.8 L394.2,166.4 L397.9,172.2 L395.8,174.3 L393.5,174.3 L394.1,176.9 L395.9,178.6 L401.0,179.3 L402.1,181.1 L405.1,180.0 L409.3,183.5 L413.4,185.4 L416.3,189.6 L419.8,188.4 L420.6,191.4 L419.5,193.4 L420.9,196.4 L430.7,202.4 L435.1,201.3 L436.1,204.2 L434.9,206.4 L437.5,210.3 L436.5,211.3 L431.6,212.6 L429.8,215.6 L424.3,220.9 L423.4,223.6 L426.9,227.5 Z">
  <desc xmlns="http://www.highcharts.com/svg/namespace">
    <labelrank>9</labelrank>
    <hasc>HR.SM</hasc>
    <alt-name>Sisak-Moslavina</alt-name>
    <woe-id>12577984</woe-id>
    <subregion>NULL</subregion>
    <fips>HR14</fips>
    <postal-code>SM</postal-code>
    <name>Sisacko-Moslavacka</name>
    <country>Croatia</country>
    <type-en>County</type-en>
    <region>NULL</region>
    <longitude>16.4156</longitude>
    <woe-name>Sisacko-Moslavacka</woe-name>
    <latitude>45.4687</latitude>
    <woe-label>Sisa?ko-moslava?ka, HR, Croatia</woe-label>
    <type>?upanija</type>
    <hc-middle-x>0.44</hc-middle-x>
    <hc-middle-y>0.53</hc-middle-y>
    <hc-key>hr-sm</hc-key>
    <hc-a2>SM</hc-a2>
  </desc>
</path>

<path fill="#CEE3F5" stroke="#6E6E6E" stroke-width="0.4" id="HR.BB" d="M429.6,113.5 L445.7,124.6 L446.0,128.1 L451.3,133.5 L454.8,132.7 L456.4,135.7 L455.6,138.3 L458.6,141.5 L463.0,138.8 L466.1,139.5 L471.0,142.9 L471.3,145.9 L463.5,159.9 L464.2,162.9 L465.6,165.7 L464.1,171.5 L462.9,173.2 L458.8,173.9 L453.1,172.6 L441.1,174.7 L438.6,173.9 L435.3,171.0 L430.8,173.4 L421.8,175.1 L415.4,175.1 L409.8,172.5 L408.6,168.7 L406.8,168.0 L405.2,172.9 L405.1,180.0 L402.1,181.1 L401.0,179.3 L395.9,178.6 L394.1,176.9 L393.5,174.3 L395.8,174.3 L397.9,172.2 L394.2,166.4 L391.8,164.8 L388.6,157.7 L387.4,156.5 L382.7,155.2 L380.7,153.0 L372.7,149.2 L368.1,148.7 L362.0,142.9 L359.1,142.0 L354.4,138.8 L355.7,133.4 L353.9,131.5 L358.1,127.6 L361.4,127.5 L365.3,129.0 L366.3,127.9 L366.1,122.7 L368.7,118.6 L370.4,118.8 L371.4,122.2 L374.8,121.2 L376.5,119.0 L377.3,113.4 L376.9,104.7 L377.4,95.2 L380.0,88.8 L382.6,84.3 L387.6,82.1 L390.1,84.1 L392.6,81.5 L393.5,78.7 L397.2,78.9 L398.8,82.9 L403.0,86.4 L401.7,90.4 L404.1,93.0 L408.9,95.4 L412.3,98.4 L412.1,102.8 L413.8,104.4 L415.7,102.9 L418.9,102.8 L422.4,107.0 Z">
  <desc xmlns="http://www.highcharts.com/svg/namespace">
    <labelrank>9</labelrank>
    <hasc>HR.BB</hasc>
    <alt-name>Bjelovar-Bilagora</alt-name>
    <woe-id>12577991</woe-id>
    <subregion>NULL</subregion>
    <fips>HR01</fips>
    <postal-code>BB</postal-code>
    <name>Bjelovarska-Bilogorska</name>
    <country>Croatia</country>
    <type-en>County</type-en>
    <region>NULL</region>
    <longitude>16.9948</longitude>
    <woe-name>Bjelovarska-Bilogorska</woe-name>
    <latitude>45.7207</latitude>
    <woe-label>Bjelovarsko-Bilogorska, HR, Croatia</woe-label>
    <type>?upanija</type>
    <hc-middle-x>0.51</hc-middle-x>
    <hc-middle-y>0.61</hc-middle-y>
    <hc-key>hr-bb</hc-key>
    <hc-a2>BB</hc-a2>
  </desc>
</path>
</g>

<text x="350" y="714" text-anchor="middle" font-family="Verdana" font-size="8" stroke-opacity="0.6">Copyright (c) 2023 Highsoft AS, Based on data from Natural Earth</text>

</svg>