<?xml version="1.0" encoding="utf-8" standalone="no"?>
<!DOCTYPE svg PUBLIC "-//W3C//DTD SVG 1.1//EN" "http://www.w3.org/Graphics/SVG/1.1/DTD/svg11.dtd">
<svg version="1.1" viewBox="-5 -5 710 730" xmlns="http://www.w3.org/2000/svg" xmlns:xlink="http://www.w3.org/1999/xlink">
  <desc>
    Map version: 2.3.2
    Copyright (c) 2025 Highsoft AS, Based on data from Natural Earth
  </desc>
  <title>Croatia</title>
  <g id="admin1" stroke-width="0.72" fill="#D4E6F8" stroke="#666">
    <path id="hr-sb" d="M254.1,487 261.5,490.5 252.2,487.4 245,482.4 250.6,482.7 254.1,487 M204.3,451.2 213.4,459 216.4,462.6 218.8,464.9 209.3,459.9 206.8,456.6 203.6,454.1 200.3,450.3 199.6,448.2 201.2,447.2 204.3,451.2 M294.7,511.5 289.9,511.6 288.5,509.6 291.2,508.6 291.6,504.6 288.3,505.7 285.3,499.9 283.2,499.9 285,497.5 283.2,496.5 284.1,493 283.4,490.5 284.6,489.5 289.2,489.7 286.3,487.2 287.4,485.7 285,483.8 286.7,483.2 287.3,480.5 285.9,479.1 284.9,482.5 280.3,478.4 277.6,477.9 274.4,473.4 265.5,468.3 257.6,467.6 256,465.7 254.7,461.9 248.8,459.6 246.9,457.1 250.5,458.7 254.4,459.4 249.5,455.3 241.7,451.3 238.5,448.4 241.9,445 248.4,450.3 250.2,450.3 255.3,446.4 260.4,449.9 261.9,449.9 263.7,445.9 267.8,441.5 266,438.5 267.6,437.4 270,438.5 274,438.2 278.3,439.8 281.9,443.4 288.8,437.9 293.8,436.6 294.3,432.6 297,431.6 296.5,428.3 297.6,426 304.8,426.3 309.5,422.6 311.7,423.8 312.3,428.3 312.3,437.5 314.3,440.5 316.8,441.6 321.7,442 330.5,439.4 332.3,438.2 335.4,439 336.2,440.7 334.6,445.8 335.2,447.7 340.5,450.8 345.4,456.6 345.2,459.9 336.9,465.5 334.8,472 336.3,475 335,477 328.8,479.1 321.2,483.6 314.5,480.8 312.9,481.5 304.5,492.4 301.8,492.3 298.8,495.9 300.1,500.2 302.7,505 298.5,506.5 299.4,510.3 294.7,511.5Z">
    <desc xmlns="https://highcharts.com/docs/mc">
      <hc-group>admin1</hc-group>
      <hc-middle-x>0.69</hc-middle-x>
      <hc-middle-y>0.44</hc-middle-y>
      <hc-key>hr-sb</hc-key>
      <hc-a2>SB</hc-a2>
      <labelrank>9</labelrank>
      <hasc>HR.SB</hasc>
      <alt-name>Šibenik</alt-name>
      <woe-id>12577983</woe-id>
      <subregion>null</subregion>
      <fips>HR13</fips>
      <postal-code>SB</postal-code>
      <name>Šibensko-Kninska</name>
      <country>Croatia</country>
      <type-en>County</type-en>
      <region>null</region>
      <longitude>16.0356</longitude>
      <woe-name>Šibensko-Kninska</woe-name>
      <latitude>43.7911</latitude>
      <woe-label>Sibenska, HR, Croatia</woe-label>
      <type>županija</type>
    </desc>
    </path>
    <path id="hr-zd" d="M152.8,400.9 156.3,401.4 155.3,403.3 151,400.5 151.4,397.9 152.8,400.9 M144.8,381.5 142.7,382.1 141.5,380.3 144.2,377 147.9,380.3 144.8,381.5 M132.4,373.9 129.9,373.4 124.9,368.6 124.5,367.3 130.3,371 132.4,373.9 M150.6,367.4 147.4,367.8 144,364.8 145.5,361.5 145,356.3 148.8,356.5 150,359.7 149,362.1 150.6,367.4 M208.3,426.3 214.7,431.3 218.8,432.4 219.7,437.1 223,439.4 225.8,444.5 226.2,446.4 221.5,444.9 220.3,442.8 215.6,440.9 215.4,438.2 209.7,434.3 208.3,430.9 204,425.3 208.3,426.3 M183.2,406.1 181,404.3 181.9,403.2 180.4,399.5 199.9,416 202.4,419.3 203.2,424.1 199.5,418.6 197.5,419.5 196.6,417.2 195.4,419 187.4,411.4 183.2,406.1 M189.7,435.4 198.4,441.7 198.8,443.7 195.7,444.6 189.7,439.7 188.3,440.2 189.6,442.4 194.3,446.1 195.9,446.1 195.5,448.5 192.9,445.9 188.6,443.2 185,439.4 180.3,431.9 177.5,428.3 172.8,417.9 170.5,415.5 167.1,413.9 157,402.6 154.6,396.8 156.3,396.8 158.6,399.6 165.3,405.2 167.1,409.2 170.8,411.4 173.5,411 172.6,413.3 175.3,414.6 176.3,420.6 183,428.6 186.1,429.6 189.7,435.4 M262.8,270.8 262.8,276.2 266.3,282.6 267.4,285.9 266.8,288.8 262.3,290.5 260.5,292.8 260.6,295.6 265.5,304.5 268.4,306.5 271,310.8 277.2,309.7 279.5,306.1 281.9,307.2 283.9,313 286.8,312.3 289,318.3 290.6,320.6 297.7,323.1 299.6,329 295.9,334.5 295,337.2 297.4,339.9 299.9,340.2 304.3,338.3 306.8,338.7 308.2,340.5 309.6,346.8 312.5,355.1 313.4,360.8 310.8,363.4 314.7,364.8 318.5,367.7 318.5,372.3 316.8,376.4 316.6,380.8 319.9,393.2 321.9,396.1 327.2,401.8 331.5,411.5 333.4,414.5 338.3,418.5 343.9,418.9 347,425.9 352.3,427.9 357.7,433.7 353.6,433.3 350.7,434.3 344.4,439.2 343.4,441.3 340.1,441.8 336.2,440.7 335.4,439 332.3,438.2 330.5,439.4 321.7,442 316.8,441.6 314.3,440.5 312.3,437.5 312.3,428.3 311.7,423.8 309.5,422.6 304.8,426.3 297.6,426 296.5,428.3 297,431.6 294.3,432.6 293.8,436.6 288.8,437.9 281.9,443.4 278.3,439.8 274,438.2 270,438.5 267.6,437.4 266,438.5 267.8,441.5 263.7,445.9 261.9,449.9 260.4,449.9 255.3,446.4 250.2,450.3 248.4,450.3 241.9,445 238.5,448.4 234.3,442.5 228.7,440.7 225.4,435.9 218.9,427.8 215.8,423 211.2,419.7 206.3,412.8 200.9,406.8 198.5,405 198.5,402.1 190.4,394.1 192.3,391.2 191.4,387.4 189,384.1 186.5,382.5 190.1,379.5 192.2,379.9 194.4,385 197,383.8 198.3,381.2 195.5,379 198.1,379.1 197.2,376.3 203,380.4 206.8,384.9 208.8,385.1 207.2,379.2 209.7,377 206.8,375.1 204.8,371.3 207.2,372.1 210.5,375.3 213.9,376.6 224.4,382.4 233.9,384 236.6,383.8 235.4,380.8 227.4,379.5 222.3,373.5 210.5,367.7 208.8,365.9 213.1,358.1 215.9,358.1 223.8,364.5 233,365.5 235.2,367.2 239.2,372.1 240.2,369.3 244.5,367.7 247.7,363.9 250.1,358.6 250,356.8 244.9,350.8 246.2,349.1 252.5,344.6 250.6,339.1 248.9,336.7 241.7,329.9 241,321.6 238.6,318.6 237.7,311.8 236.4,309.1 231.6,304.8 231.2,301.9 232.5,301.1 238.5,300.7 245.9,295.9 246.8,293.7 240.3,289.7 237.9,286.5 241.9,283.2 242.8,279.9 242.4,277.6 239.4,273.2 239,270.8 241.2,268.1 245.5,269.2 248.1,271.4 251.4,270.5 253.5,268.5 260.1,271.5 262.8,270.8Z">
    <desc xmlns="https://highcharts.com/docs/mc">
      <hc-group>admin1</hc-group>
      <hc-middle-x>0.55</hc-middle-x>
      <hc-middle-y>0.7</hc-middle-y>
      <hc-key>hr-zd</hc-key>
      <hc-a2>ZD</hc-a2>
      <labelrank>9</labelrank>
      <hasc>HR.ZD</hasc>
      <alt-name>Zadar-Knin</alt-name>
      <woe-id>12577989</woe-id>
      <subregion>null</subregion>
      <fips>HR19</fips>
      <postal-code>ZD</postal-code>
      <name>Zadarska</name>
      <country>Croatia</country>
      <type-en>County</type-en>
      <region>null</region>
      <longitude>15.7536</longitude>
      <woe-name>Zadarska</woe-name>
      <latitude>44.2007</latitude>
      <woe-label>Zadarsko-Kninska, HR, Croatia</woe-label>
      <type>županija</type>
    </desc>
    </path>
    <path id="hr-pg" d="M86.6,321.7 82.1,319.3 83.6,313.4 86.3,310.4 88.1,310.8 87.2,313.4 85.2,314.2 85,317.5 86.6,321.7 M106.4,333.5 109.7,334.7 106.5,330.3 102.5,327.6 100.3,329.9 97.5,328.5 97.7,326.2 100,323.6 99.3,320.3 96.3,314.7 94.8,304.3 100.2,307.5 102.1,309.8 101.2,313.7 103.3,324.1 107.4,330.1 116.9,340.8 117.7,344.1 115,344.3 111.9,341.2 106.4,333.5 M153.1,305.1 147.4,298.3 143.6,295.2 143.9,297.3 138.6,297.3 133.8,291.5 139.5,292.7 138.8,289.2 142.1,291.7 137.3,283.4 142.2,284.7 141.4,282.3 145.4,283.9 145.7,285.5 143.8,287 149.3,293.4 153.4,296.5 156.7,302.3 157.6,305.7 156.5,308.1 153.1,305.1 M111.2,306.3 116,314.1 116.1,317.4 117.5,316.5 118.3,318.8 116.6,320.9 110.9,321 105.7,314.8 101.9,306.1 102.4,298.7 99.7,298.3 98.5,294.8 98.4,287.7 94.7,284.6 93.1,274.5 90.8,271.9 91.7,269.7 90.7,266.6 91.8,266.1 95.4,268.1 98.6,272.2 101.9,272.2 103.2,268.8 102.5,263.5 105,264.3 101,259 97,247.4 90.8,239.5 89.8,235 91.2,231.5 94.3,227.7 96.5,227.2 99.4,228.3 100.2,230.3 99.6,237 99.8,241.1 102.5,250.3 105.3,256.3 107.4,258.6 111.6,259.9 112.1,264.9 109.7,270.1 110.5,271.4 109.4,274.3 109.4,282.1 110.9,289.9 109.2,290.9 111.1,295.3 111.6,298.5 110.5,302.6 111.2,306.3 M135.8,243 139.4,245.4 144.7,245.6 144.5,250.5 151.5,257.2 153.2,261.9 149.6,263.2 146.8,261.7 145.1,263 146.2,266.6 142.2,267.4 140.1,266.8 134.5,262.7 131,261.3 130.5,257.4 131,251.4 130.3,249.9 128.2,251 129.8,253.4 126.6,253.5 117.1,251.9 114.1,250.8 111.2,248.3 107.2,242.3 109.2,240.3 111.7,240.1 112.3,236.3 117.9,235.5 119.9,234.6 118.9,232.3 121.4,227.3 121,223.4 122.3,222 122.5,218.6 120.8,217.4 124.3,215.4 126.5,217.5 131.2,228.1 128,229.5 129.8,230.8 133.5,231.3 136.1,230.5 136.6,233.6 135.1,239.5 135.8,243 M161.4,252.3 158.5,245.4 158.1,242.5 155.2,239 147.9,234.8 135.3,224.6 129.4,216.5 125.9,213.4 125,211 126.6,209.5 121.1,204.8 123.5,207.6 120.8,209.6 118.2,206.8 105.5,200 97,197.2 94.8,198.8 92.3,202.7 89.9,207.7 88.1,213.5 86.5,225.1 84.8,230.4 81.1,227.4 81.2,219.4 80.6,210 81.1,205.2 82.8,201.2 81.7,193.1 82.3,188.4 81,186.9 74.8,183 72.7,180.2 72.5,176.5 75.8,176 84.5,172.7 91.7,175.7 97.2,176.8 102.6,176.5 107.3,174 114.3,168.8 115.9,165.9 117.2,159.1 119.2,155.4 123.5,150.3 125.1,147 128.1,145.2 129.4,145.9 129.4,153.9 131.9,157.7 137.5,161.8 138.3,164.1 137.9,167.9 140.2,170 151,175 152.8,179.8 157.7,181 162.8,179.2 165.2,175.4 165.7,171.8 167.9,171.7 172.5,175.5 175.3,175.9 177.7,177.7 183.5,177.9 193.2,186.5 198.5,187.4 203.5,185.6 204.5,188.7 202.8,195.9 198.5,200.2 197,204.3 193.2,205.8 190.8,209.5 186.8,206.3 179.9,203.4 175.7,206.1 172.8,213.4 174.5,217.9 173.7,230 172.4,233.3 176.7,237.7 178.9,242.2 177.1,246.4 169.9,246.3 166.8,245.3 162.5,247.9 161.4,252.3Z">
    <desc xmlns="https://highcharts.com/docs/mc">
      <hc-group>admin1</hc-group>
      <hc-middle-x>0.57</hc-middle-x>
      <hc-middle-y>0.25</hc-middle-y>
      <hc-key>hr-pg</hc-key>
      <hc-a2>PG</hc-a2>
      <labelrank>9</labelrank>
      <hasc>HR.PG</hasc>
      <alt-name>Primorje-Gorski Kotar</alt-name>
      <woe-id>12577982</woe-id>
      <subregion>null</subregion>
      <fips>HR12</fips>
      <postal-code>PG</postal-code>
      <name>Primorsko-Goranska</name>
      <country>Croatia</country>
      <type-en>County</type-en>
      <region>null</region>
      <longitude>14.6925</longitude>
      <woe-name>Primorsko-Goranska</woe-name>
      <latitude>45.3736</latitude>
      <woe-label>Primorsko-Goranska, HR, Croatia</woe-label>
      <type>županija</type>
    </desc>
    </path>
    <path id="hr-ka" d="M271.4,226.8 270.2,227.9 268.7,232.8 269,242.8 265.6,252.6 265.5,255.8 266.9,260.9 266.5,263.9 262.8,270.8 260.1,271.5 253.5,268.5 251.4,270.5 248.1,271.4 245.5,269.2 241.2,268.1 239,270.8 239.4,273.2 242.4,277.6 242.8,279.9 238.1,276 235.4,272.8 230.6,272.1 227.8,265.7 224.1,262.3 220.4,254.8 204.5,244.8 198.9,237.7 194.6,240.9 190.6,241.1 176.7,237.7 172.4,233.3 173.7,230 174.5,217.9 172.8,213.4 175.7,206.1 179.9,203.4 186.8,206.3 190.8,209.5 193.2,205.8 197,204.3 198.5,200.2 202.8,195.9 204.5,188.7 203.5,185.6 210.1,183.2 213.9,183.4 216.3,182.1 219.6,178.2 213.7,174.1 212.1,171.2 210.5,163.2 209,157.9 211.3,156.5 212.5,153.9 219,151.5 221.5,151.6 218.8,146.6 222.6,143.2 227.2,142.4 229.5,143.6 233.4,148.1 237.9,150.6 237.9,153.1 243.1,157.7 245.2,158.3 247.4,155.2 251.2,155.1 255.5,157.9 263.6,160.8 265.5,159.7 265.9,163.7 264.5,165.7 269.2,171.9 273.1,171.8 274.7,178.4 276.5,181.5 275.9,186.5 273.1,192.8 269,193.4 265.4,190.6 262.8,190.5 261.5,189 256.8,188.2 254.5,189.8 256.3,192.7 255.4,196.3 257,201 255.2,202.6 255.3,205.9 254.3,212.5 254.8,214.6 251.1,219.4 252.1,224.2 259.8,225.9 261.9,224.7 266.3,224.5 271.4,226.8Z">
    <desc xmlns="https://highcharts.com/docs/mc">
      <hc-group>admin1</hc-group>
      <hc-middle-x>0.51</hc-middle-x>
      <hc-middle-y>0.44</hc-middle-y>
      <hc-key>hr-ka</hc-key>
      <hc-a2>KA</hc-a2>
      <labelrank>9</labelrank>
      <hasc>HR.KA</hasc>
      <alt-name>Karlovac</alt-name>
      <woe-id>12577975</woe-id>
      <subregion>null</subregion>
      <fips>HR05</fips>
      <postal-code>KA</postal-code>
      <name>Karlovacka</name>
      <country>Croatia</country>
      <type-en>County</type-en>
      <region>null</region>
      <longitude>15.4054</longitude>
      <woe-name>Karlovacka</woe-name>
      <latitude>45.3396</latitude>
      <woe-label>Karlovačka, HR, Croatia</woe-label>
      <type>županija</type>
    </desc>
    </path>
    <path id="hr-kz" d="M288.6,102.9 285.4,98.5 278.1,96.3 274.9,94.7 268,97 257.6,96.1 257.5,92.6 260.4,85.4 258.8,82.9 252.6,79.6 249.5,76.1 247.9,72.3 247.9,68.1 249.7,63.4 253.9,56.5 256.4,55.3 266.7,56.1 269,54.7 271.4,50.8 276.6,48.3 281.9,48.1 282.4,51.7 283.7,53.4 288.7,55.1 291.2,59.2 294.9,59.4 300.5,60.8 303.5,59.9 310.6,59.6 314.4,60.4 317.9,56.6 319.4,56.3 321.2,59 324.8,60.4 324.3,63.5 325.6,66.4 324.9,73 325.7,81.7 318.1,82.1 317.8,83.6 320.2,85.8 317.5,88.3 319.7,90.8 317.4,91.8 315.1,91.3 315.9,94.8 311.7,96.9 309.9,97 291.6,106.8 288.6,102.9Z">
    <desc xmlns="https://highcharts.com/docs/mc">
      <hc-group>admin1</hc-group>
      <hc-middle-x>0.49</hc-middle-x>
      <hc-middle-y>0.5</hc-middle-y>
      <hc-key>hr-kz</hc-key>
      <hc-a2>KZ</hc-a2>
      <labelrank>9</labelrank>
      <hasc>HR.KZ</hasc>
      <alt-name>Krapina-Zagorje</alt-name>
      <woe-id>12577977</woe-id>
      <subregion>null</subregion>
      <fips>SI92</fips>
      <postal-code>KZ</postal-code>
      <name>Krapinsko-Zagorska</name>
      <country>Croatia</country>
      <type-en>County</type-en>
      <region>null</region>
      <longitude>15.9228</longitude>
      <woe-name>Krapinsko-Zagorska</woe-name>
      <latitude>46.0883</latitude>
      <woe-label>Krapinsko-Zagorska, HR, Croatia</woe-label>
      <type>županija</type>
    </desc>
    </path>
    <path id="hr-zg" d="M257.6,96.1 268,97 274.9,94.7 278.1,96.3 285.4,98.5 288.6,102.9 285.5,104.6 279.4,105.9 275.5,105.9 274.1,106.8 273.8,112.2 268.7,113.9 268.1,117.5 269,118.4 273.2,118.4 277.5,123.7 273.5,129.4 275.9,132.8 273.4,138 269.8,135.7 268.3,141.2 270.1,143.5 273.3,146 280.6,149.4 284,153.9 286.1,155.3 288.1,151.9 289,143.3 291.5,139.4 306,130.1 311.7,124.1 317.5,127.2 320.1,119.7 322.3,117.2 321.3,114.8 317,108.9 314.8,103.2 311.7,96.9 315.9,94.8 315.1,91.3 317.4,91.8 319.7,90.8 317.5,88.3 320.2,85.8 317.8,83.6 318.1,82.1 325.7,81.7 330.2,89.8 337.8,87.9 347.7,91.4 351,96.3 351.4,99 356.6,96.1 360.3,99.8 364.8,102.5 366.2,104.3 371.7,105.4 375.2,103.9 376.9,104.7 377.4,113.4 376.5,119 374.8,121.2 371.4,122.3 370.5,118.8 368.6,118.6 366.1,122.7 366.3,127.9 365.3,129 361.4,127.5 358.1,127.6 353.9,131.5 348.9,125.5 347.3,122.2 345.2,123.7 340.4,123.6 340.7,127.4 339.4,134.2 336.3,135.8 333.2,134.3 330.1,137.7 329.5,140.5 330.3,145 329.8,147.2 330.5,152.1 328.1,157 323.4,159.8 316.9,156.6 315.6,154.4 312.8,153.5 306.3,159 301.7,159.3 301.1,162.3 303.4,164 303.5,165.9 307.3,170.4 308.3,174.9 304,176 300.7,180 296.1,178.4 292.5,180.5 287.6,180.1 286.8,175.4 283.7,171.2 280.5,170.6 279.2,167.8 276.3,168.1 273.1,171.8 269.2,171.9 264.5,165.7 265.9,163.7 265.5,159.7 263.6,160.8 255.5,157.9 251.2,155.1 247.4,155.2 245.2,158.3 243.1,157.7 237.9,153.1 237.9,150.6 233.4,148.1 229.5,143.6 227.2,142.4 222.6,143.2 218.8,146.6 216.5,144.1 213.4,146.1 210.3,143.9 207.2,140 208.7,136.3 213.5,133.7 228.3,129 229.7,127.8 229.1,124.5 231,122.3 235,123.2 239.5,120.5 247,121.8 251.5,121.7 256.3,119.8 257.4,115.7 255.6,110.2 257.5,104.1 257.6,96.1Z">
    <desc xmlns="https://highcharts.com/docs/mc">
      <hc-group>admin1</hc-group>
      <hc-middle-x>0.8</hc-middle-x>
      <hc-middle-y>0.27</hc-middle-y>
      <hc-key>hr-zg</hc-key>
      <hc-a2>ZG</hc-a2>
      <labelrank>9</labelrank>
      <hasc>HR.ZG</hasc>
      <alt-name>Zagreb</alt-name>
      <woe-id>12577990</woe-id>
      <subregion>null</subregion>
      <fips>HR20</fips>
      <postal-code>ZG</postal-code>
      <name>Zagrebacka</name>
      <country>Croatia</country>
      <type-en>County</type-en>
      <region>Jugovzhodna Slovenija</region>
      <longitude>15.5948</longitude>
      <woe-name>Zagrebacka</woe-name>
      <latitude>45.7203</latitude>
      <woe-label>Zagrebačka, HR, Croatia</woe-label>
      <type>županija</type>
    </desc>
    </path>
    <path id="hr-gz" d="M288.6,102.9 291.6,106.8 309.9,97 311.7,96.9 314.8,103.2 317,108.9 321.3,114.8 322.3,117.2 320.1,119.7 317.5,127.2 311.7,124.1 306,130.1 291.5,139.4 289,143.3 288.1,151.9 286.1,155.3 284,153.9 280.6,149.4 273.3,146 270.1,143.5 268.3,141.2 269.8,135.7 273.4,138 275.9,132.8 273.5,129.4 277.5,123.7 273.2,118.4 269,118.4 268.1,117.5 268.7,113.9 273.8,112.2 274.1,106.8 275.5,105.9 279.4,105.9 285.5,104.6 288.6,102.9Z">
    <desc xmlns="https://highcharts.com/docs/mc">
      <hc-group>admin1</hc-group>
      <hc-middle-x>0.52</hc-middle-x>
      <hc-middle-y>0.34</hc-middle-y>
      <hc-key>hr-gz</hc-key>
      <hc-a2>GZ</hc-a2>
      <labelrank>9</labelrank>
      <hasc>HR.GZ</hasc>
      <alt-name>null</alt-name>
      <woe-id>20070170</woe-id>
      <subregion>null</subregion>
      <fips>HR21</fips>
      <postal-code>GZ</postal-code>
      <name>Grad Zagreb</name>
      <country>Croatia</country>
      <type-en>City</type-en>
      <region>null</region>
      <longitude>15.9958</longitude>
      <woe-name>Grad Zagreb</woe-name>
      <latitude>45.8251</latitude>
      <woe-label>Grad Zagreb, HR, Croatia</woe-label>
      <type>Grad</type>
    </desc>
    </path>
    <path id="hr-va" d="M337.8,87.9 330.2,89.8 325.7,81.7 324.9,73 325.6,66.4 324.3,63.5 324.8,60.4 321.2,59 319.4,56.3 317.9,56.6 314.4,60.4 310.6,59.6 303.5,59.9 300.5,60.8 294.9,59.4 291.2,59.2 288.7,55.1 283.7,53.4 282.4,51.7 281.9,48.1 290.1,44 295.9,42.8 300.6,40 303,36 302.9,28.4 308.5,29 311.4,25.8 314,26.1 318.5,29.7 321.4,30.2 328.7,28.3 333.2,30 335.8,32.8 337,37.1 338.1,38.2 352.5,41.3 356.2,41.3 364.3,38.7 380,39.6 382.9,40.6 386.1,43.6 385.9,46.7 384.4,50.4 381.4,53.7 377.2,56.6 373.5,58.2 371.7,56.1 365.5,57.9 354.3,64.8 353.2,67.4 348.1,69.2 345.9,67.6 341.7,70.6 336.8,71.4 336.3,73.5 337.4,78.8 337.1,84.9 337.8,87.9Z">
    <desc xmlns="https://highcharts.com/docs/mc">
      <hc-group>admin1</hc-group>
      <hc-middle-x>0.45</hc-middle-x>
      <hc-middle-y>0.36</hc-middle-y>
      <hc-key>hr-va</hc-key>
      <hc-a2>VA</hc-a2>
      <labelrank>9</labelrank>
      <hasc>HR.VA</hasc>
      <alt-name>Varaždin|Varasd</alt-name>
      <woe-id>12577986</woe-id>
      <subregion>null</subregion>
      <fips>HR16</fips>
      <postal-code>VA</postal-code>
      <name>Varaždinska</name>
      <country>Croatia</country>
      <type-en>County</type-en>
      <region>null</region>
      <longitude>16.3267</longitude>
      <woe-name>Varaždinska</woe-name>
      <latitude>46.1918</latitude>
      <woe-label>Varaždinska, HR, Croatia</woe-label>
      <type>županija</type>
    </desc>
    </path>
    <path id="hr-is" d="M81.1,227.4 84.8,230.4 81.6,235 78.1,233.6 79.9,236 79.6,238.5 74.8,244 75.2,247.2 73.5,247.2 75.3,249.4 76,253 75.6,256.8 72.6,260.9 69.5,259.7 64.1,264.3 64.5,261 66,258.2 65.2,255 62.7,252.6 62.5,249.4 61.1,249.2 61.4,255.5 64.6,257 65,258.6 60.5,264.2 59.8,268.8 58,272.3 56.8,271.5 52.3,272.1 54.6,275.5 54.6,277.8 52,281.2 51.9,284.6 53.9,285 55.1,287 50.8,287.1 45.5,284 42.1,283.2 41.2,284.3 43.7,285.9 43.6,289 45.1,292.5 43.3,293.5 42.8,286.6 37.2,284.1 38,281.9 36.5,279.4 35.2,279.7 31.4,277.5 35.5,276.3 36.6,273.8 32.1,274.1 31,271.4 32.7,269 31.4,267.4 28.9,260.8 24.2,255.4 18.3,246.5 14,242.3 11.5,241.8 13.3,238.4 10.6,234.2 13.7,232.3 24.2,231.9 19.2,230.2 9.3,230.9 9.3,225.2 7.4,220.8 9,216.8 8.5,210.3 7,209.4 10.4,207 7.3,202.3 11.4,200.2 5.8,199 3.5,195.5 5.2,193.1 3.9,190.5 0.7,180.3 1.7,176.8 0,172.2 0.5,167.5 7.6,171.3 10.1,171.7 14.6,176.9 30,176.8 37,182.1 45.2,183.9 49.3,179.8 54.9,177.6 56.5,175.6 54.1,172.5 55.4,169 60.4,170.2 66.5,175 72.5,176.5 72.7,180.2 74.8,183 81,186.9 82.3,188.4 81.7,193.1 82.8,201.2 81.1,205.2 80.6,210 81.2,219.4 81.1,227.4Z">
    <desc xmlns="https://highcharts.com/docs/mc">
      <hc-group>admin1</hc-group>
      <hc-middle-x>0.57</hc-middle-x>
      <hc-middle-y>0.46</hc-middle-y>
      <hc-key>hr-is</hc-key>
      <hc-a2>IS</hc-a2>
      <labelrank>9</labelrank>
      <hasc>HR.IS</hasc>
      <alt-name>Istra</alt-name>
      <woe-id>12577974</woe-id>
      <subregion>null</subregion>
      <fips>HR04</fips>
      <postal-code>IS</postal-code>
      <name>Istarska</name>
      <country>Croatia</country>
      <type-en>County</type-en>
      <region>null</region>
      <longitude>13.8682</longitude>
      <woe-name>Istarska</woe-name>
      <latitude>45.1248</latitude>
      <woe-label>Istarska, HR, Croatia</woe-label>
      <type>županija</type>
    </desc>
    </path>
    <path id="hr-2228" d="M596.7,242.3 597.6,247.8 594.7,247.8 588.6,244.9 584.1,240.3 579.7,237.6 571.3,237.1 564,232.6 561.1,231.5 558.2,232.1 556.9,233.8 555.9,239.8 551.3,241.7 546.3,241.4 543.7,240.1 537,234.3 535.1,233.4 531.5,234.4 524.4,243.2 521.4,245.7 513.5,248 508.9,245.2 502.1,236.6 498.8,233.5 495.3,231.5 491.3,231.4 488.8,232.8 484.5,237.5 482,239.1 478.1,239 472.1,239.9 472.9,235.6 470.1,237.2 467.1,236.9 468.3,234.9 466.5,232.3 465.5,234.6 459.4,236.1 452.6,231.7 445.7,227.9 443,233.6 437.4,234.1 436.1,234.8 428.6,231.5 426.9,227.5 423.4,223.6 424.3,220.9 429.8,215.6 431.6,212.6 436.5,211.3 437.5,210.3 434.9,206.5 436.1,204.2 435.1,201.4 440.3,197 443.3,195.7 448,197.5 449.7,197.4 455.6,194.6 460,194.5 470.4,201.7 476.8,209 482.2,212.8 487.5,214.5 492.9,214.1 497,215.6 497.6,219.9 499.5,223.5 498.1,226.6 502.5,227.8 506.2,226.4 506.7,222.6 511.5,222.3 514.1,221.2 517.5,216.8 519.2,215.9 518.6,213.5 520.8,210.6 522.7,210.2 542.1,212.7 548.5,217.4 556.5,220.1 559.2,220.5 564.4,219.5 565.9,217.7 571.3,216.3 575.7,216.9 590.5,221.7 596.5,224.6 593.7,228.1 592.7,231.1 592.8,235.5 596.7,242.3Z">
    <desc xmlns="https://highcharts.com/docs/mc">
      <hc-group>admin1</hc-group>
      <hc-middle-x>0.57</hc-middle-x>
      <hc-middle-y>0.63</hc-middle-y>
      <hc-key>hr-2228</hc-key>
      <hc-a2>BP</hc-a2>
      <labelrank>9</labelrank>
      <hasc>HR.SP</hasc>
      <alt-name>Slavonski Brod-Posavina</alt-name>
      <woe-id>12577972</woe-id>
      <subregion>null</subregion>
      <fips>HR02</fips>
      <postal-code>null</postal-code>
      <name>Brodsko-Posavska</name>
      <country>Croatia</country>
      <type-en>County</type-en>
      <region>null</region>
      <longitude>17.8112</longitude>
      <woe-name>Brodsko-Posavska</woe-name>
      <latitude>45.1454</latitude>
      <woe-label>Brodsko-Posavska, HR, Croatia</woe-label>
      <type>županija</type>
    </desc>
    </path>
    <path id="hr-ob" d="M519.7,125.5 527.9,125.4 540.3,128.6 546,126.1 555.7,125.9 561.5,129.2 564.2,129.2 568.3,132.1 572.3,130.1 574.1,130.1 576.1,132.6 579.4,132.5 581.6,130.7 585.6,125.5 587.5,124.2 590.1,125.4 593.2,124.1 599.5,117.9 603.6,110.8 604.8,106.8 607.4,104.1 609.6,103.6 615.4,105.4 620.1,107.7 622.8,107.2 624.9,102.6 626.5,103.9 636.1,99.4 636.8,101.9 633,105.5 636.7,108.6 636.3,111.1 631.1,111.9 630.6,120 636.8,127.3 638.1,134.9 639.2,137 644.6,140.8 645.4,143.2 641.7,149.3 639,151.7 638.2,159.5 642.9,165.2 645,165 647.7,162.3 651.7,160.1 655.8,164.8 661.1,166.8 662.5,169.2 659.2,172.6 651.1,171.7 649.7,175.9 651.7,180.1 648.7,182.5 643,183.1 636.1,175.6 633.6,175.2 629.4,177.7 626.1,178.3 625.2,179.7 626.8,182 626.9,185.2 625.2,186.8 616.6,186.6 609.7,190.9 609.2,196.1 607.5,198.8 607.3,202.8 602.3,203.4 600.3,205.7 595.2,206.5 593.1,208 592.6,215 598.3,216.5 600.1,218.9 599.6,223 598.5,224.8 596.5,224.6 590.5,221.7 575.7,216.9 571.3,216.3 565.9,217.7 564.4,219.5 559.2,220.5 556.5,220.1 548.5,217.4 542.1,212.7 545.2,207.4 545.3,205.7 543.4,201.3 541.4,200.3 542.5,198.1 545.4,196.5 547.4,192.8 551.3,188.8 554,187.2 560.1,186.3 566.6,180.8 568.8,180.1 573.2,181.2 578.3,178.7 584,177.7 582.3,172.6 578.3,169.6 576.8,169.9 576.2,173.9 567.7,174.9 564.5,171.8 559.5,172 554.6,168.1 554.5,164.1 557,162.8 557.9,160.8 555.9,157.5 552,156 549.2,153.9 541.1,152.3 540.3,149.8 534.5,146.8 532.3,145 531.5,141.5 528.9,137.8 524.9,136.8 520.7,128.8 519.7,125.5Z">
    <desc xmlns="https://highcharts.com/docs/mc">
      <hc-group>admin1</hc-group>
      <hc-middle-x>0.54</hc-middle-x>
      <hc-middle-y>0.53</hc-middle-y>
      <hc-key>hr-ob</hc-key>
      <hc-a2>OB</hc-a2>
      <labelrank>9</labelrank>
      <hasc>HR.OB</hasc>
      <alt-name>Osijek-Baranja</alt-name>
      <woe-id>12577980</woe-id>
      <subregion>null</subregion>
      <fips>HR10</fips>
      <postal-code>OB</postal-code>
      <name>Osjecko-Baranjska</name>
      <country>Croatia</country>
      <type-en>County</type-en>
      <region>null</region>
      <longitude>18.506</longitude>
      <woe-name>Osjecko-Baranjska</woe-name>
      <latitude>45.4948</latitude>
      <woe-label>Osječko-baranjska, HR, Croatia</woe-label>
      <type>županija</type>
    </desc>
    </path>
    <path id="hr-sp" d="M542.1,212.7 522.7,210.2 520.8,210.6 518.6,213.5 519.2,215.9 517.5,216.8 514.1,221.2 511.5,222.3 506.7,222.6 506.2,226.4 502.5,227.8 498.1,226.6 499.5,223.5 497.6,219.9 497,215.6 492.9,214.1 487.5,214.5 482.2,212.8 476.8,209 470.4,201.7 460,194.5 455.6,194.6 449.7,197.4 448,197.5 443.3,195.7 440.3,197 435.1,201.4 430.6,202.4 420.9,196.3 419.5,193.4 420.6,191.4 419.9,188.4 416.3,189.5 413.4,185.4 409.4,183.4 405.1,180 405.2,172.9 406.8,168.1 408.6,168.7 409.8,172.5 415.4,175.2 421.8,175.1 430.8,173.4 435.3,171 438.6,173.9 441.1,174.7 453,172.6 458.8,173.9 462.9,173.2 464.1,171.5 465.7,165.7 464.2,162.9 469.2,163.8 473,165.9 474.5,162.5 483.9,167.5 490.3,172.5 499.3,175.5 504.5,176 508.1,179.7 514.2,179 517.5,179.6 522.9,175.9 524.6,173.9 527.2,167.3 538.1,153.5 541.1,152.3 549.2,153.9 552,156 555.9,157.5 557.9,160.8 557,162.8 554.5,164.1 554.6,168.1 559.5,172 564.5,171.8 567.7,174.9 576.2,173.9 576.8,169.9 578.3,169.6 582.3,172.6 584,177.7 578.3,178.7 573.2,181.2 568.8,180.1 566.6,180.8 560.1,186.3 554,187.2 551.3,188.8 547.4,192.8 545.4,196.5 542.5,198.1 541.4,200.3 543.4,201.3 545.3,205.7 545.2,207.4 542.1,212.7Z">
    <desc xmlns="https://highcharts.com/docs/mc">
      <hc-group>admin1</hc-group>
      <hc-middle-x>0.48</hc-middle-x>
      <hc-middle-y>0.49</hc-middle-y>
      <hc-key>hr-sp</hc-key>
      <hc-a2>SP</hc-a2>
      <labelrank>9</labelrank>
      <hasc>HR.SP</hasc>
      <woe-id>12577981</woe-id>
      <subregion>null</subregion>
      <fips>HR11</fips>
      <postal-code>SP</postal-code>
      <name>Požega-Slavonia</name>
      <country>Croatia</country>
      <type-en>County</type-en>
      <region>null</region>
      <longitude>17.6849</longitude>
      <woe-name>Požega-Slavonia</woe-name>
      <latitude>45.3863</latitude>
      <woe-label>Požeško-slavonska, HR, Croatia</woe-label>
      <type>županija</type>
    </desc>
    </path>
    <path id="hr-vs" d="M651.7,180.1 654.8,184.5 653.8,186.1 647.7,189.2 651.1,194 655.5,195.9 661.7,196.4 662.6,201.4 665.8,205 670.3,207 694.4,212.4 696.3,215.5 698.6,216.5 700,219.8 699.9,223.7 698.2,225.5 687.9,226.4 686.3,224.6 683.5,226.6 678.6,227.5 673.7,226.6 670.1,222.2 666.1,222.2 668.6,227.7 668.2,230.5 665.6,231.1 659,230.6 657.4,233.8 660.5,237.3 661.9,241 663.9,251.7 662.8,257.4 664.5,260.3 666.8,259.2 668.5,263 665.3,265.5 662.5,270.3 659.3,271 655.2,268 652,269.9 652.5,273.3 655.2,278.1 653.9,278.5 640.1,279.3 636.4,278.2 631.4,275.1 627.2,270.8 625.7,266.1 629.1,262.3 629.4,260.6 627.4,255.4 622.7,254.4 619.8,252.1 615.1,243.2 612.4,242.8 611.5,245.6 609.4,245.8 606.4,240.5 602.3,241.6 598.5,241.2 596.7,242.3 592.8,235.5 592.7,231.1 593.7,228.1 596.5,224.6 598.5,224.8 599.6,223 600.1,218.9 598.3,216.5 592.6,215 593.1,208 595.2,206.5 600.3,205.7 602.3,203.4 607.3,202.8 607.5,198.8 609.2,196.1 609.7,190.9 616.6,186.6 625.2,186.8 626.9,185.2 626.8,182 625.2,179.7 626.1,178.3 629.4,177.7 633.6,175.2 636.1,175.6 643,183.1 648.7,182.5 651.7,180.1Z">
    <desc xmlns="https://highcharts.com/docs/mc">
      <hc-group>admin1</hc-group>
      <hc-middle-x>0.43</hc-middle-x>
      <hc-middle-y>0.45</hc-middle-y>
      <hc-key>hr-vs</hc-key>
      <hc-a2>VS</hc-a2>
      <labelrank>9</labelrank>
      <hasc>HR.VS</hasc>
      <alt-name>Vukovar-Srijem</alt-name>
      <woe-id>12577988</woe-id>
      <subregion>null</subregion>
      <fips>HR18</fips>
      <postal-code>VS</postal-code>
      <name>Vukovarsko-Srijemska</name>
      <country>Croatia</country>
      <type-en>County</type-en>
      <region>null</region>
      <longitude>18.9549</longitude>
      <woe-name>Vukovarsko-Srijemska</woe-name>
      <latitude>45.1467</latitude>
      <woe-label>Vukovarsko-Srijemska, HR, Croatia</woe-label>
      <type>županija</type>
    </desc>
    </path>
    <path id="hr-vp" d="M541.1,152.3 538.1,153.5 527.2,167.3 524.6,173.9 522.9,175.9 517.5,179.6 514.2,179 508.1,179.7 504.5,176 499.3,175.5 490.3,172.5 483.9,167.5 474.5,162.5 473,165.9 469.2,163.8 464.2,162.9 463.5,159.9 471.3,145.9 471,142.9 466.1,139.5 463,138.8 458.6,141.5 455.6,138.3 456.5,135.7 454.8,132.7 451.3,133.5 445.9,128.1 445.7,124.6 429.5,113.5 428.6,109.6 428.9,105.9 431.5,102.8 434.9,97.5 438.4,94.8 440.7,94.5 446.8,95.3 448.9,94.9 451.3,96.2 452.6,94.1 453.5,99 458.6,97.6 460.6,100.9 463,98.6 473,99 478,100 482.4,101.9 488,107.7 488.9,109.2 490.3,117 493.9,117.8 508.3,121.9 511.7,124.4 514.1,128.3 515.5,128.7 516.8,126.2 519.7,125.5 520.7,128.8 524.9,136.8 528.9,137.8 531.5,141.5 532.3,145 534.5,146.8 540.3,149.8 541.1,152.3Z">
    <desc xmlns="https://highcharts.com/docs/mc">
      <hc-group>admin1</hc-group>
      <hc-middle-x>0.54</hc-middle-x>
      <hc-middle-y>0.5</hc-middle-y>
      <hc-key>hr-vp</hc-key>
      <hc-a2>VP</hc-a2>
      <labelrank>9</labelrank>
      <hasc>HR.VP</hasc>
      <alt-name>Virovitica-Podravina</alt-name>
      <woe-id>12577987</woe-id>
      <subregion>null</subregion>
      <fips>HR17</fips>
      <postal-code>VP</postal-code>
      <name>Viroviticko-Podravska</name>
      <country>Croatia</country>
      <type-en>County</type-en>
      <region>null</region>
      <longitude>17.6078</longitude>
      <woe-name>Viroviticko-Podravska</woe-name>
      <latitude>45.7303</latitude>
      <woe-label>Virovitičko-podravska, HR, Croatia</woe-label>
      <type>županija</type>
    </desc>
    </path>
    <path id="hr-kk" d="M396.2,30.6 398,34.3 397.6,36.9 399.7,42.8 405.7,49.5 409.7,56.5 416,61.5 419,66 426.4,71 435.9,71.3 437.2,72.1 441.9,78.1 445.2,89.5 449,90.5 450.1,91.9 447,93 448.9,94.9 446.8,95.3 440.7,94.5 438.4,94.8 434.9,97.5 431.5,102.8 428.9,105.9 428.6,109.6 429.5,113.5 422.5,107 418.9,102.8 415.7,102.9 413.7,104.4 412.1,102.8 412.3,98.4 409,95.4 404.1,93 401.7,90.4 403,86.4 398.8,82.8 397.2,78.9 393.5,78.8 392.6,81.5 390.1,84.1 387.6,82.1 382.6,84.3 380,88.8 377.4,95.2 376.9,104.7 375.2,103.9 371.7,105.4 366.2,104.3 364.8,102.5 360.3,99.8 356.6,96.1 351.4,99 351,96.3 347.7,91.4 337.8,87.9 337.1,84.9 337.4,78.8 336.3,73.5 336.8,71.4 341.7,70.6 345.9,67.6 348.1,69.2 353.2,67.4 354.3,64.8 365.5,57.9 371.7,56.1 373.5,58.2 377.2,56.6 381.4,53.7 384.4,50.4 385.9,46.7 386.1,43.6 382.9,40.6 388.3,41.9 391,44.1 394.5,36.1 396.2,30.6Z">
    <desc xmlns="https://highcharts.com/docs/mc">
      <hc-group>admin1</hc-group>
      <hc-middle-x>0.29</hc-middle-x>
      <hc-middle-y>0.53</hc-middle-y>
      <hc-key>hr-kk</hc-key>
      <hc-a2>KK</hc-a2>
      <labelrank>9</labelrank>
      <hasc>HR.KK</hasc>
      <alt-name>Koprivnica-Križevci</alt-name>
      <woe-id>12577976</woe-id>
      <subregion>null</subregion>
      <fips>HR06</fips>
      <postal-code>KK</postal-code>
      <name>Koprivničko-križevačka</name>
      <country>Croatia</country>
      <type-en>County</type-en>
      <region>null</region>
      <longitude>16.831</longitude>
      <woe-name>Koprivničko-križevačka</woe-name>
      <latitude>46.1914</latitude>
      <woe-label>Koprivničko-križevačka, HR, Croatia</woe-label>
      <type>županija</type>
    </desc>
    </path>
    <path id="hr-me" d="M328.7,28.3 328.1,26 325,22.5 325.2,18.4 323.4,11.4 323.5,9 326.9,5.2 334.6,1.9 336.3,0 339.2,1.1 343.4,1.3 346.5,4 353.3,5.4 356.8,8.2 364.1,12.8 365.3,10.8 370.3,12.2 372.8,13.9 379,22.6 382.6,24.8 384,27.7 385.7,25.4 389.6,26.6 392.5,29 393.6,27.7 396.2,30.6 394.5,36.1 391,44.1 388.3,41.9 382.9,40.6 380,39.6 364.3,38.7 356.2,41.3 352.5,41.3 338.1,38.2 337,37.1 335.8,32.8 333.2,30 328.7,28.3Z">
    <desc xmlns="https://highcharts.com/docs/mc">
      <hc-group>admin1</hc-group>
      <hc-middle-x>0.39</hc-middle-x>
      <hc-middle-y>0.54</hc-middle-y>
      <hc-key>hr-me</hc-key>
      <hc-a2>ME</hc-a2>
      <labelrank>9</labelrank>
      <hasc>HR.ME</hasc>
      <alt-name>Medimurje</alt-name>
      <woe-id>12577979</woe-id>
      <subregion>null</subregion>
      <fips>HR09</fips>
      <postal-code>ME</postal-code>
      <name>Medimurska</name>
      <country>Croatia</country>
      <type-en>County</type-en>
      <region>null</region>
      <longitude>16.5464</longitude>
      <woe-name>Medimurska</woe-name>
      <latitude>46.398</latitude>
      <woe-label>Medjimurska, HR, Croatia</woe-label>
      <type>županija</type>
    </desc>
    </path>
    <path id="hr-dn" d="M398.6,632.6 406.5,633.7 408.1,634.8 408.4,637.4 407,639.7 402,641.8 398.7,639.5 395.7,641.5 392.7,638.4 394.3,637.5 392.7,634.1 398.6,632.6 M496.6,639.4 497.9,638.6 500.5,640.8 506.8,643.5 509.2,646.6 464.1,634.3 462.6,636.2 460.1,635.1 456.3,631.1 462.5,629 463.5,629.8 467.3,632.1 468.2,631 470.3,632.3 476.4,632.3 481.1,635.2 487.4,636.3 490.3,637.5 489.4,638.7 496.6,639.4 M420,599.1 429.7,602.1 432.3,601.2 436.4,605.9 440.8,609.2 440,610.5 437.6,609.2 429.4,610.5 418,608.2 412.8,608.6 403.6,612.1 397.7,613 383.9,610.3 378,608.5 375.7,609.5 371.4,607.4 379.9,602.8 379.9,601.5 370.6,599.3 373.2,597.7 381.5,598.1 387.5,601 394.3,602.7 401.1,602.6 405.6,600.6 420,599.1 M522.5,625.8 528.1,627.8 531.2,630.1 536.6,636 539.6,638.4 546.4,642.6 568.3,656.8 572.5,658.9 579.3,661 582.6,660.7 586.7,665.5 588.6,666.6 595,667.7 595.7,670.5 595.1,675.9 596.3,681.4 599.2,685.4 602.4,687.2 603,691.6 600.1,687.4 592.4,684.2 592.2,681.8 570.4,668.3 568.1,665 568.3,659 567.5,658.1 561.1,657.1 555.9,654.2 549.9,653.2 547.5,650.5 550,650.4 546.3,646.6 545.6,644.7 543.8,646.6 540.7,645 535.4,640.3 527.9,636.6 525.3,633.9 526.8,630.1 523.3,630.3 519.5,627.5 516,626.8 512,629.1 505.4,624.5 508.9,628.3 510.6,633.2 509,633.5 508.9,630.5 506.4,628.8 500.2,626.3 494.6,625.2 487.9,622.3 481.1,621.1 470.6,617 470.8,612.8 467.7,610.7 459.4,609 449.5,602.1 441,598.7 427.8,598.8 423.7,597.9 419.4,595.6 418.2,593.9 419.5,592.1 416.2,587.5 418.8,588 422.8,591.3 425,592.1 435.5,590.9 445.6,592.2 464.3,599.5 468.6,602.3 472.1,605.4 473.5,609 475.5,608.8 480.2,611.1 480.6,609.2 485.2,610.3 488.3,612.3 495.4,614.9 496.8,616.7 499.4,616.4 504.7,621.5 507.9,622.3 504.1,619.4 502.9,617.5 503.5,614.3 500.1,615.7 496.9,613.7 500.1,609.5 502.8,608.9 513.4,611.7 516.4,610.3 518.3,613.8 518.5,619.8 522.5,625.8 M471.4,570.8 488.3,581.7 493.4,587.6 497.4,596.5 497.9,601.2 494.4,603.8 487.8,605.3 483.9,603.1 482.1,603.9 479.7,602.6 476.3,598.6 474.1,593.5 477.9,590.5 476.1,589.8 470.3,592.4 472.7,590.5 470.3,590.3 468.5,588.3 468.5,584.8 465.8,587.2 461,582.5 465.9,578.9 461.5,573 458.8,572.4 459.3,569.5 464,570.5 465.9,572 469.7,572 471.4,570.8Z">
    <desc xmlns="https://highcharts.com/docs/mc">
      <hc-group>admin1</hc-group>
      <hc-middle-x>0.61</hc-middle-x>
      <hc-middle-y>0.41</hc-middle-y>
      <hc-key>hr-dn</hc-key>
      <hc-a2>DN</hc-a2>
      <labelrank>9</labelrank>
      <hasc>HR.DN</hasc>
      <alt-name>Dubrovnik-Neretva</alt-name>
      <woe-id>12577973</woe-id>
      <subregion>null</subregion>
      <fips>HR03</fips>
      <postal-code>DN</postal-code>
      <name>Dubrovacko-Neretvanska</name>
      <country>Croatia</country>
      <type-en>County</type-en>
      <region>null</region>
      <longitude>16.8699</longitude>
      <woe-name>Dubrovačko-neretvanska</woe-name>
      <latitude>42.761</latitude>
      <woe-label>null</woe-label>
      <type>županija</type>
    </desc>
    </path>
    <path id="hr-sd" d="M303.1,591.9 302.5,587.3 300.5,587.6 298.7,585.3 304.1,582.4 308.8,581.4 313.7,581.6 317.4,583 316.7,583.8 323.5,583 323.8,585.9 318.6,590.8 307.6,594.1 303.4,594.4 300.5,593.4 303.1,591.9 M385.2,569.2 397.2,569 399.2,567.9 403.2,570.3 410.8,570.6 418.1,572.5 429.4,571.9 435,572.5 439.7,574.6 378.1,575 375.3,575.3 361.7,572.4 351.3,568.5 347.6,567.7 345.4,566.2 338.5,563.5 339.6,562.5 343.9,563 346.9,561.2 347.7,562.4 353.9,559.7 361.1,564.8 364.6,564.7 361.2,561.2 356.8,557.9 362.1,557.9 364.6,560.1 367.1,558.8 373.9,560.1 377.2,565.8 379.7,567.7 385.2,569.2 M392.8,551.4 370.1,552.1 362.2,551 354.4,548.6 344.7,543 347,540.5 346.3,538.2 348.6,537 345.3,530.1 348.6,530.1 353.6,532.1 377.4,533 392.3,537 392,538.8 394.8,538.1 398.3,541.7 401.6,542.2 402.5,543.8 400.1,547.9 399.1,547.3 396.8,550.4 392.8,551.4 M321.5,531.7 318.4,531.2 317.6,527.9 320,526.6 327,527.1 329.6,528.5 330.1,531.3 333.5,530.9 341,538.2 339.1,540.3 335.7,539.5 327.5,534.3 321.5,531.7 M325.5,510.1 334.1,512.1 339,514 338.5,515 333.9,515.5 327.6,514.3 323.3,515.4 319,514 319.9,512.7 323,513.2 323.5,510.9 325.5,510.1 M461,582.5 454.8,574.5 437,565.5 429.8,560.3 428.1,557.2 424.8,556 422.7,553 421.8,549.5 419.2,548.5 407.5,533.5 401,528.1 385.3,525.9 378.1,522.7 369.7,520.9 358.6,512.8 358,510.9 354.8,511.7 350.3,510.5 341,510.5 348.9,507.5 351.1,505.9 346.3,504 334.4,503.7 330.6,505.6 322.5,507.9 307.5,508.1 307.5,509.3 311.6,510.4 314.3,514 306.7,514 307,515.8 301.2,513.9 298,513.7 294.7,511.5 299.4,510.3 298.5,506.5 302.7,505 300.1,500.2 298.8,495.9 301.8,492.3 304.5,492.4 312.9,481.5 314.5,480.8 321.2,483.6 328.8,479.1 335,477 336.3,475 334.8,472 336.9,465.5 345.2,459.9 345.4,456.6 340.5,450.8 335.2,447.7 334.6,445.8 336.2,440.7 340.1,441.8 343.4,441.3 344.4,439.2 350.7,434.3 353.6,433.3 357.7,433.7 361.1,438.8 367.1,444.9 371,450.4 376.1,455.1 378.5,463.9 380.3,466.7 393.8,477.4 413.2,497.1 419.2,504 425.9,509.9 433,513.9 444.8,515.6 448.6,518.1 450.6,522.5 448.5,536.6 451.3,545 456.1,552.1 465,559.5 468.4,567.9 471.4,570.8 469.7,572 465.9,572 464,570.5 459.3,569.5 458.8,572.4 461.5,573 465.9,578.9 461,582.5Z">
    <desc xmlns="https://highcharts.com/docs/mc">
      <hc-group>admin1</hc-group>
      <hc-middle-x>0.42</hc-middle-x>
      <hc-middle-y>0.37</hc-middle-y>
      <hc-key>hr-sd</hc-key>
      <hc-a2>SD</hc-a2>
      <labelrank>9</labelrank>
      <hasc>HR.SD</hasc>
      <alt-name>Split-Dalmacia</alt-name>
      <woe-id>12577985</woe-id>
      <subregion>null</subregion>
      <fips>HR15</fips>
      <postal-code>SD</postal-code>
      <name>Splitsko-Dalmatinska</name>
      <country>Croatia</country>
      <type-en>County</type-en>
      <region>null</region>
      <longitude>16.788</longitude>
      <woe-name>Splitsko-Dalmatinska</woe-name>
      <latitude>43.5266</latitude>
      <woe-label>Splitsko-Dalmatinska, HR, Croatia</woe-label>
      <type>županija</type>
    </desc>
    </path>
    <path id="hr-ls" d="M178.8,338.1 182.9,345.4 180.5,345 177.2,342.1 174.7,341.9 175.6,339.5 165.4,333.6 163.3,334.7 169.8,338.5 179.4,352.9 185.2,357 181.5,353.2 178.8,346.6 183.7,349.2 194.8,361.2 197.5,363 204.1,370 201.7,370.6 196,366.5 193.3,366.4 197.5,368.3 200.7,372.3 198.2,372.2 197.3,373.7 191.9,371.4 189.1,372.1 194.1,375.7 194,376.7 188.8,374.5 185,369.7 186.6,368.6 184.2,363.9 186.3,363.8 187.6,361.8 184.6,359.7 179.4,360.4 176.1,354.4 168.8,348.1 161.5,343.9 164.1,341.6 157.9,331.1 145.7,315.4 143.6,311.6 143.4,308.1 147.9,313.5 155.5,325.4 160.1,328.9 159.7,323.9 162.6,323.9 166.7,326.6 170,330.2 174.4,336.5 178.8,338.1 M208.8,365.9 192.4,348.5 186.9,340.5 183.5,336.7 179.7,334.2 174.3,329.4 162.6,310.4 160.6,304.7 162,302.6 160.8,293.7 161,281.5 163.8,271 165.9,265.3 165.1,261.4 161.4,252.3 162.5,247.9 166.8,245.3 169.9,246.3 177.1,246.4 178.9,242.2 176.7,237.7 190.6,241.1 194.6,240.9 198.9,237.7 204.5,244.8 220.4,254.8 224.1,262.3 227.8,265.7 230.6,272.1 235.4,272.8 238.1,276 242.8,279.9 241.9,283.2 237.9,286.5 240.3,289.7 246.8,293.7 245.9,295.9 238.5,300.7 232.5,301.1 231.2,301.9 231.6,304.8 236.4,309.1 237.7,311.8 238.6,318.6 241,321.6 241.7,329.9 248.9,336.7 250.6,339.1 252.5,344.6 246.2,349.1 244.9,350.8 250,356.8 250.1,358.6 247.7,363.9 244.5,367.7 240.2,369.3 239.2,372.1 235.2,367.2 233,365.5 223.8,364.5 215.9,358.1 213.1,358.1 208.8,365.9Z">
    <desc xmlns="https://highcharts.com/docs/mc">
      <hc-group>admin1</hc-group>
      <hc-middle-x>0.54</hc-middle-x>
      <hc-middle-y>0.4</hc-middle-y>
      <hc-key>hr-ls</hc-key>
      <hc-a2>LS</hc-a2>
      <labelrank>9</labelrank>
      <hasc>HR.LS</hasc>
      <alt-name>Lika-Senj</alt-name>
      <woe-id>12577978</woe-id>
      <subregion>null</subregion>
      <fips>HR08</fips>
      <postal-code>LS</postal-code>
      <name>Licko-Senjska</name>
      <country>Croatia</country>
      <type-en>County</type-en>
      <region>null</region>
      <longitude>15.2031</longitude>
      <woe-name>Licko-Senjska</woe-name>
      <latitude>44.7521</latitude>
      <woe-label>Ličko-senjska, HR, Croatia</woe-label>
      <type>županija</type>
    </desc>
    </path>
    <path id="hr-sm" d="M428.6,231.5 425.5,230.1 420.4,226.3 418.1,221.2 414.7,223.6 414.7,218.9 413.5,221.1 409.1,217.8 409.9,220.1 407.5,220.4 405.7,213.2 404.7,212.2 401.5,215 397.9,219.2 397.3,221 393.6,223.6 392.9,228.3 388.4,230.1 364.6,223 357.7,222.8 352.2,226.6 348.3,235.3 346.6,237.8 342.3,239.7 340.3,242.1 339.7,247.4 337.3,252 335.3,259.2 332.4,259.9 328,258.9 320.1,254.8 309.2,243.9 307.2,241.2 304.7,234.6 302.9,231.5 297.7,229 298.4,225.5 294.6,223.2 291.9,223.7 280.5,223.4 274.1,224.4 271.4,226.8 266.3,224.5 261.9,224.7 259.8,225.9 252.1,224.2 251.1,219.4 254.8,214.6 254.3,212.5 255.3,205.9 255.2,202.6 257,201 255.4,196.3 256.3,192.7 254.5,189.8 256.8,188.2 261.5,189 262.8,190.5 265.4,190.6 269,193.4 273.1,192.8 275.9,186.5 276.5,181.5 274.7,178.4 273.1,171.8 276.3,168.1 279.2,167.8 280.5,170.6 283.7,171.2 286.8,175.4 287.6,180.1 292.5,180.5 296.1,178.4 300.7,180 304,176 308.3,174.9 307.3,170.4 303.5,165.9 303.4,164 301.1,162.3 301.7,159.3 306.3,159 312.8,153.5 315.6,154.4 316.9,156.6 323.4,159.8 328.1,157 330.5,152.1 329.8,147.2 330.3,145 329.5,140.5 330.1,137.7 333.2,134.3 336.3,135.8 339.4,134.2 340.7,127.4 340.4,123.6 345.2,123.7 347.3,122.2 348.9,125.5 353.9,131.5 355.7,133.4 354.4,138.8 359.2,142 361.9,142.9 368.1,148.7 372.7,149.2 380.7,153 382.6,155.2 387.4,156.5 388.6,157.7 391.8,164.8 394.3,166.4 397.9,172.2 395.8,174.3 393.5,174.3 394.1,177 395.9,178.6 401,179.3 402.1,181.1 405.1,180 409.4,183.4 413.4,185.4 416.3,189.5 419.9,188.4 420.6,191.4 419.5,193.4 420.9,196.3 430.6,202.4 435.1,201.4 436.1,204.2 434.9,206.5 437.5,210.3 436.5,211.3 431.6,212.6 429.8,215.6 424.3,220.9 423.4,223.6 426.9,227.5 428.6,231.5Z">
    <desc xmlns="https://highcharts.com/docs/mc">
      <hc-group>admin1</hc-group>
      <hc-middle-x>0.44</hc-middle-x>
      <hc-middle-y>0.53</hc-middle-y>
      <hc-key>hr-sm</hc-key>
      <hc-a2>SM</hc-a2>
      <labelrank>9</labelrank>
      <hasc>HR.SM</hasc>
      <alt-name>Sisak-Moslavina</alt-name>
      <woe-id>12577984</woe-id>
      <subregion>null</subregion>
      <fips>HR14</fips>
      <postal-code>SM</postal-code>
      <name>Sisacko-Moslavacka</name>
      <country>Croatia</country>
      <type-en>County</type-en>
      <region>null</region>
      <longitude>16.4156</longitude>
      <woe-name>Sisacko-Moslavacka</woe-name>
      <latitude>45.4687</latitude>
      <woe-label>Sisačko-moslavačka, HR, Croatia</woe-label>
      <type>županija</type>
    </desc>
    </path>
    <path id="hr-bb" d="M429.5,113.5 445.7,124.6 445.9,128.1 451.3,133.5 454.8,132.7 456.5,135.7 455.6,138.3 458.6,141.5 463,138.8 466.1,139.5 471,142.9 471.3,145.9 463.5,159.9 464.2,162.9 465.7,165.7 464.1,171.5 462.9,173.2 458.8,173.9 453,172.6 441.1,174.7 438.6,173.9 435.3,171 430.8,173.4 421.8,175.1 415.4,175.2 409.8,172.5 408.6,168.7 406.8,168.1 405.2,172.9 405.1,180 402.1,181.1 401,179.3 395.9,178.6 394.1,177 393.5,174.3 395.8,174.3 397.9,172.2 394.3,166.4 391.8,164.8 388.6,157.7 387.4,156.5 382.6,155.2 380.7,153 372.7,149.2 368.1,148.7 361.9,142.9 359.2,142 354.4,138.8 355.7,133.4 353.9,131.5 358.1,127.6 361.4,127.5 365.3,129 366.3,127.9 366.1,122.7 368.6,118.6 370.5,118.8 371.4,122.3 374.8,121.2 376.5,119 377.4,113.4 376.9,104.7 377.4,95.2 380,88.8 382.6,84.3 387.6,82.1 390.1,84.1 392.6,81.5 393.5,78.8 397.2,78.9 398.8,82.8 403,86.4 401.7,90.4 404.1,93 409,95.4 412.3,98.4 412.1,102.8 413.7,104.4 415.7,102.9 418.9,102.8 422.5,107 429.5,113.5Z">
    <desc xmlns="https://highcharts.com/docs/mc">
      <hc-group>admin1</hc-group>
      <hc-middle-x>0.51</hc-middle-x>
      <hc-middle-y>0.61</hc-middle-y>
      <hc-key>hr-bb</hc-key>
      <hc-a2>BB</hc-a2>
      <labelrank>9</labelrank>
      <hasc>HR.BB</hasc>
      <alt-name>Bjelovar-Bilagora</alt-name>
      <woe-id>12577991</woe-id>
      <subregion>null</subregion>
      <fips>HR01</fips>
      <postal-code>BB</postal-code>
      <name>Bjelovarska-Bilogorska</name>
      <country>Croatia</country>
      <type-en>County</type-en>
      <region>null</region>
      <longitude>16.9948</longitude>
      <woe-name>Bjelovarska-Bilogorska</woe-name>
      <latitude>45.7207</latitude>
      <woe-label>Bjelovarsko-Bilogorska, HR, Croatia</woe-label>
      <type>županija</type>
    </desc>
    </path>
  </g>
  <text x="50%" y="720" text-anchor="middle" font-family="Verdana" font-size="10px">Copyright (c) 2025 Highsoft AS, Based on data from Natural Earth</text>
</svg>