<?xml version="1.0" encoding="utf-8" standalone="no"?>
<!DOCTYPE svg PUBLIC "-//W3C//DTD SVG 1.1//EN" "http://www.w3.org/Graphics/SVG/1.1/DTD/svg11.dtd">

<svg version="1.1" height="700pt" width="700pt" xmlns="http://www.w3.org/2000/svg" xmlns:xlink="http://www.w3.org/1999/xlink">
<desc>
Map version: 1.1.3
Copyright (c) 2020 Highsoft AS, Based on data from Natural Earth
</desc>
<title>Haiti</title>
<g id="admin1">

<g id="HT">
  <desc xmlns="http://www.highcharts.com/svg/namespace">
    <name>Haiti</name>
    <labelrank>5</labelrank>
    <country-abbrev>Haiti</country-abbrev>
    <subregion>Caribbean</subregion>
    <region-wb>Latin America &amp; Caribbean</region-wb>
    <iso-a3>HTI</iso-a3>
    <iso-a2>HT</iso-a2>
    <woe-id>23424839</woe-id>
    <continent>North America</continent>
    <hc-key>ht</hc-key>
    <hc-a2>HA</hc-a2>
  </desc>
</g>

<path fill="#CEE3F5" stroke="#6E6E6E" stroke-width="0.4" id="HT.OU" d="M411.1,359.5 L408.5,360.6 L406.7,359.0 L404.5,354.4 L402.4,352.6 L394.9,351.8 L372.9,347.2 L365.4,346.7 L357.5,344.8 L335.6,331.1 L313.6,325.4 L307.7,321.6 L302.6,314.6 L298.0,311.4 L294.9,308.1 L292.4,302.6 L293.2,299.7 L296.3,296.3 L300.5,293.4 L305.5,291.3 L310.8,290.6 L316.7,291.2 L351.0,305.1 L367.9,310.4 L386.8,319.7 L404.4,326.8 L411.7,335.5 L413.6,341.1 L414.6,347.8 L414.0,354.3 Z M627.0,400.2 L636.1,409.2 L631.3,406.2 L627.1,400.3 Z M664.9,360.8 L661.0,365.0 L656.1,373.8 L652.9,377.3 L643.4,380.7 L624.8,377.6 L615.7,379.7 L612.4,382.2 L611.4,372.2 L608.3,368.0 L601.2,374.5 L598.2,382.4 L599.4,391.2 L605.3,400.2 L609.2,402.5 L614.4,404.1 L618.9,406.6 L621.0,411.6 L623.2,413.8 L628.3,413.6 L637.1,410.6 L638.8,415.9 L635.7,418.4 L634.8,421.3 L636.4,426.0 L640.1,428.0 L649.8,430.3 L651.9,432.1 L657.8,439.8 L667.2,445.8 L680.6,450.6 L687.0,455.6 L684.2,460.6 L662.4,464.8 L649.5,457.1 L632.8,456.1 L612.0,456.7 L590.5,452.2 L569.0,448.1 L548.0,449.8 L527.5,448.8 L521.0,441.0 L513.8,441.7 L502.5,436.2 L493.6,435.8 L485.5,439.7 L479.5,447.1 L477.0,449.1 L474.0,449.2 L468.0,451.9 L459.0,453.1 L456.2,455.5 L446.7,456.5 L441.2,461.5 L436.9,461.0 L433.0,458.9 L431.1,465.9 L428.1,468.3 L426.2,471.9 L418.0,470.0 L409.6,467.3 L405.4,469.8 L402.7,472.8 L397.3,470.2 L394.5,466.2 L386.9,465.8 L375.1,468.1 L372.1,462.4 L368.5,457.7 L364.6,452.9 L362.7,446.7 L358.4,442.4 L352.2,442.2 L351.6,435.3 L355.3,428.8 L353.7,422.8 L371.1,419.5 L392.5,424.4 L391.3,428.7 L396.0,427.7 L402.6,425.3 L406.9,425.2 L410.6,426.7 L428.1,429.5 L437.6,427.2 L444.3,421.4 L449.1,413.4 L453.1,404.2 L459.0,396.8 L466.8,394.9 L508.0,398.0 L510.5,395.0 L512.9,394.7 L520.2,402.0 L522.5,403.3 L526.9,402.1 L528.8,397.7 L529.3,391.7 L528.6,375.9 L529.0,373.0 L533.4,365.4 L532.0,362.3 L529.8,360.8 L518.5,355.4 L509.4,354.9 L506.5,354.0 L501.4,349.8 L496.9,344.5 L492.1,340.8 L486.1,341.6 L477.6,336.6 L475.5,334.3 L473.3,329.4 L460.4,310.0 L451.9,302.5 L446.7,299.3 L438.5,296.1 L441.9,291.7 L446.0,288.6 L461.7,289.0 L486.1,291.9 L492.2,291.6 L497.5,299.2 L510.2,304.3 L516.9,309.0 L522.8,314.9 L529.3,323.4 L537.5,328.3 L545.9,330.3 L553.4,335.3 L568.4,349.7 L587.3,355.8 L606.8,349.2 L626.6,345.2 L643.4,350.8 L653.7,353.3 L663.2,358.7 Z">
  <desc xmlns="http://www.highcharts.com/svg/namespace">
    <labelrank>7</labelrank>
    <hasc>HT.OU</hasc>
    <alt-name>NULL</alt-name>
    <woe-id>2345620</woe-id>
    <subregion>NULL</subregion>
    <fips>HA11</fips>
    <postal-code>OU</postal-code>
    <name>Ouest</name>
    <country>Haiti</country>
    <type-en>Department</type-en>
    <region>NULL</region>
    <longitude>-72.23990000000001</longitude>
    <woe-name>Ouest</woe-name>
    <latitude>18.5501</latitude>
    <woe-label>Ouest, HT, Haiti</woe-label>
    <type>Département</type>
    <hc-middle-x>0.69</hc-middle-x>
    <hc-middle-y>0.58</hc-middle-y>
    <hc-key>ht-ou</hc-key>
    <hc-a2>OU</hc-a2>
  </desc>
</path>

<path fill="#CEE3F5" stroke="#6E6E6E" stroke-width="0.4" id="HT.GR" d="M190.9,387.3 L185.2,390.7 L177.4,390.7 L171.2,387.3 L170.6,380.4 L176.5,377.6 L184.6,378.1 L190.8,381.6 Z M9.1,450.4 L8.1,444.3 L6.4,440.8 L0.0,432.7 L8.5,420.2 L6.7,416.6 L11.2,413.4 L14.1,401.4 L17.7,398.8 L18.0,394.4 L15.4,386.4 L17.3,384.0 L25.6,379.1 L36.6,374.7 L41.2,373.8 L49.4,375.1 L51.7,371.2 L57.3,370.2 L71.2,370.9 L81.0,373.0 L113.3,387.2 L127.5,387.7 L130.6,392.4 L135.2,391.2 L145.6,396.0 L156.7,396.3 L162.2,398.1 L167.5,402.6 L171.6,403.7 L175.0,401.5 L180.5,403.4 L184.9,402.2 L182.8,406.5 L178.6,411.4 L179.8,415.0 L183.9,416.9 L178.4,423.1 L174.1,433.1 L158.3,437.6 L146.9,437.8 L143.5,442.9 L144.0,449.0 L132.2,448.1 L120.4,444.9 L110.1,441.5 L99.7,439.0 L74.7,441.1 L36.5,449.2 L22.8,450.6 L15.9,449.3 Z">
  <desc xmlns="http://www.highcharts.com/svg/namespace">
    <labelrank>7</labelrank>
    <hasc>HT.GR</hasc>
    <alt-name>Grande-Asne|Grande Anse</alt-name>
    <woe-id>2345617</woe-id>
    <subregion>NULL</subregion>
    <fips>HA00</fips>
    <postal-code>GR</postal-code>
    <name>Grand'Anse</name>
    <country>Haiti</country>
    <type-en>Department</type-en>
    <region>NULL</region>
    <longitude>-74.12730000000001</longitude>
    <woe-name>Grand'Anse</woe-name>
    <latitude>18.5137</latitude>
    <woe-label>Grand 'Anse, HT, Haiti</woe-label>
    <type>Département</type>
    <hc-middle-x>0.51</hc-middle-x>
    <hc-middle-y>0.51</hc-middle-y>
    <hc-key>ht-gr</hc-key>
    <hc-a2>GR</hc-a2>
  </desc>
</path>

<path fill="#CEE3F5" stroke="#6E6E6E" stroke-width="0.4" id="HT.NO" d="M420.8,5.6 L444.1,14.4 L454.0,20.5 L451.4,26.6 L447.4,24.9 L426.6,22.3 L416.9,18.7 L405.0,16.2 L400.9,14.4 L392.6,16.6 L381.5,13.7 L376.0,11.0 L372.5,7.8 L375.6,6.2 L386.9,2.3 L399.2,0.4 L406.3,0.0 L411.0,0.6 Z M443.0,72.8 L435.6,71.8 L425.6,78.6 L420.4,80.0 L405.4,93.2 L386.9,96.7 L376.9,95.0 L366.8,94.3 L356.9,92.0 L347.4,93.0 L336.0,105.2 L334.2,119.4 L334.5,120.1 L330.2,123.2 L327.6,123.8 L318.5,120.8 L313.2,117.9 L309.8,115.0 L304.9,119.9 L294.4,121.4 L271.1,120.4 L263.7,119.0 L257.6,113.1 L251.8,109.8 L250.4,104.6 L249.1,96.2 L257.7,82.1 L259.0,79.2 L261.4,79.1 L274.1,73.0 L274.1,71.1 L260.6,71.2 L264.5,68.2 L269.2,67.6 L279.1,67.6 L308.8,53.6 L317.4,47.2 L322.3,40.4 L325.2,43.9 L328.0,44.8 L335.0,43.9 L338.6,44.4 L345.0,46.7 L353.0,46.8 L361.5,44.9 L368.6,46.4 L371.3,48.8 L373.0,44.8 L377.6,42.2 L383.2,41.6 L387.9,43.3 L394.4,40.5 L402.2,38.4 L410.3,37.3 L417.9,37.6 L443.0,43.1 L449.2,46.8 L454.3,49.2 L468.9,53.5 L469.8,54.5 L467.9,56.0 L464.0,62.8 L456.1,69.9 L447.1,67.1 L443.7,68.1 Z">
  <desc xmlns="http://www.highcharts.com/svg/namespace">
    <labelrank>7</labelrank>
    <hasc>HT.NO</hasc>
    <alt-name>NULL</alt-name>
    <woe-id>2345614</woe-id>
    <subregion>NULL</subregion>
    <fips>HA03</fips>
    <postal-code>NO</postal-code>
    <name>Nord-Ouest</name>
    <country>Haiti</country>
    <type-en>Department</type-en>
    <region>NULL</region>
    <longitude>-73.0166</longitude>
    <woe-name>Nord-Ouest</woe-name>
    <latitude>19.8257</latitude>
    <woe-label>Nord-Ouest, HT, Haiti</woe-label>
    <type>Département</type>
    <hc-middle-x>0.34</hc-middle-x>
    <hc-middle-y>0.67</hc-middle-y>
    <hc-key>ht-no</hc-key>
    <hc-a2>NO</hc-a2>
  </desc>
</path>

<path fill="#CEE3F5" stroke="#6E6E6E" stroke-width="0.4" id="HT.SD" d="M196.8,515.1 L198.4,516.8 L201.2,514.8 L205.3,518.4 L217.2,518.5 L222.1,519.5 L225.6,521.6 L225.7,525.3 L222.6,527.2 L217.5,527.7 L207.9,527.3 L203.6,526.4 L199.8,524.1 L193.5,518.4 L194.3,515.9 Z M366.4,494.4 L345.9,492.4 L337.3,492.5 L330.0,488.0 L327.9,487.3 L295.0,482.3 L280.2,483.9 L278.0,483.3 L279.2,479.9 L282.5,478.6 L291.4,478.6 L291.4,477.0 L274.9,475.4 L254.9,475.7 L249.1,477.4 L241.1,482.1 L236.2,481.8 L234.0,477.0 L232.2,475.6 L228.9,477.6 L225.3,486.5 L220.4,484.7 L217.5,486.6 L215.1,485.3 L213.9,481.9 L215.1,477.7 L211.6,478.7 L208.6,485.5 L205.1,488.3 L206.0,481.7 L208.4,475.8 L203.7,481.0 L201.5,482.4 L197.4,481.3 L196.6,484.9 L185.9,493.5 L168.3,501.8 L163.8,506.3 L159.6,513.4 L170.0,524.4 L172.9,533.5 L172.3,535.5 L169.1,536.3 L152.7,536.3 L147.9,534.8 L146.0,533.0 L145.1,529.2 L129.1,506.6 L125.6,504.7 L123.7,501.1 L119.1,496.8 L95.0,479.4 L90.7,477.3 L83.2,476.1 L77.3,472.8 L75.6,467.6 L69.5,466.0 L61.1,462.4 L59.4,464.3 L54.8,462.6 L49.8,464.7 L44.6,468.0 L39.2,469.7 L34.6,468.7 L24.2,463.8 L20.0,458.8 L10.7,454.1 L9.1,450.4 L15.9,449.3 L22.8,450.6 L36.5,449.2 L74.7,441.1 L99.7,439.0 L110.1,441.5 L120.4,444.9 L132.2,448.1 L144.0,449.0 L143.5,442.9 L146.9,437.8 L158.3,437.6 L174.1,433.1 L182.1,434.1 L190.3,433.7 L199.4,437.5 L205.0,432.8 L212.9,431.6 L219.6,432.2 L224.0,435.8 L227.6,440.2 L233.1,442.9 L228.5,453.0 L241.1,456.1 L256.8,453.4 L264.6,452.6 L272.4,452.8 L281.2,450.4 L288.9,447.2 L301.8,448.9 L314.9,448.5 L327.6,449.8 L333.2,448.1 L339.2,449.7 L348.7,457.2 L356.6,464.4 L358.8,475.6 L365.2,484.1 L366.6,493.2 Z">
  <desc xmlns="http://www.highcharts.com/svg/namespace">
    <labelrank>7</labelrank>
    <hasc>HT.SD</hasc>
    <alt-name>NULL</alt-name>
    <woe-id>2345621</woe-id>
    <subregion>NULL</subregion>
    <fips>HA12</fips>
    <postal-code>SD</postal-code>
    <name>Sud</name>
    <country>Haiti</country>
    <type-en>Department</type-en>
    <region>NULL</region>
    <longitude>-73.7855</longitude>
    <woe-name>Sud</woe-name>
    <latitude>18.2929</latitude>
    <woe-label>Sud, HT, Haiti</woe-label>
    <type>Département</type>
    <hc-middle-x>0.48</hc-middle-x>
    <hc-middle-y>0.28</hc-middle-y>
    <hc-key>ht-sd</hc-key>
    <hc-a2>SD</hc-a2>
  </desc>
</path>

<path fill="#CEE3F5" stroke="#6E6E6E" stroke-width="0.4" id="HT.NI" d="M184.9,402.2 L193.4,394.5 L199.4,394.4 L210.5,391.1 L213.7,390.7 L222.5,392.8 L222.7,397.2 L217.7,400.6 L211.2,399.7 L211.2,401.3 L205.9,399.5 L201.1,398.9 L196.4,399.5 L191.0,401.4 L196.7,404.7 L200.8,405.6 L202.1,411.1 L206.5,413.0 L214.3,411.8 L218.2,413.7 L226.8,408.5 L237.4,407.1 L276.5,409.7 L281.5,410.8 L291.3,415.7 L296.8,416.8 L316.6,415.8 L326.3,416.6 L335.0,419.7 L343.4,423.7 L347.5,424.0 L353.7,422.8 L355.3,428.8 L351.6,435.3 L352.2,442.2 L358.4,442.4 L362.7,446.7 L364.6,452.9 L368.5,457.7 L367.6,465.4 L364.5,472.8 L365.2,484.1 L358.8,475.6 L356.6,464.4 L348.7,457.2 L339.2,449.7 L333.2,448.1 L327.6,449.8 L314.9,448.5 L301.8,448.9 L288.9,447.2 L281.2,450.4 L272.4,452.8 L264.6,452.6 L256.8,453.4 L241.1,456.1 L228.5,453.0 L233.1,442.9 L227.6,440.2 L224.0,435.8 L219.6,432.2 L212.9,431.6 L205.0,432.8 L199.4,437.5 L190.3,433.7 L182.1,434.1 L174.1,433.1 L178.4,423.1 L183.9,416.9 L179.8,415.0 L178.6,411.4 L182.8,406.5 Z">
  <desc xmlns="http://www.highcharts.com/svg/namespace">
    <labelrank>7</labelrank>
    <hasc>HT.NI</hasc>
    <alt-name>NULL</alt-name>
    <woe-id>-2345617</woe-id>
    <subregion>NULL</subregion>
    <fips>HA15</fips>
    <postal-code>NI</postal-code>
    <name>Nippes</name>
    <country>Haiti</country>
    <type-en>Department</type-en>
    <region>NULL</region>
    <longitude>-73.3909</longitude>
    <woe-name>NULL</woe-name>
    <latitude>18.4297</latitude>
    <woe-label>NULL</woe-label>
    <type>Département</type>
    <hc-middle-x>0.40</hc-middle-x>
    <hc-middle-y>0.42</hc-middle-y>
    <hc-key>ht-ni</hc-key>
    <hc-a2>NI</hc-a2>
  </desc>
</path>

<path fill="#CEE3F5" stroke="#6E6E6E" stroke-width="0.4" id="HT.AR" d="M438.5,296.1 L437.9,295.7 L411.7,268.3 L410.4,261.7 L420.8,257.3 L430.2,256.6 L435.4,254.8 L437.7,251.0 L436.1,246.1 L432.5,243.6 L423.9,239.6 L421.3,236.4 L415.2,226.0 L413.6,221.9 L417.8,216.1 L422.0,207.7 L424.7,206.3 L432.5,205.3 L435.4,205.7 L431.8,198.8 L429.2,197.4 L424.3,197.0 L421.3,194.9 L420.3,189.8 L421.6,181.2 L425.3,184.2 L430.1,184.5 L432.8,182.5 L431.5,172.5 L434.9,172.2 L440.3,175.6 L443.4,175.6 L438.5,166.2 L436.0,164.9 L423.3,164.3 L420.1,162.0 L414.6,154.6 L409.9,151.4 L394.2,144.4 L381.1,136.5 L372.4,133.7 L363.6,126.4 L359.6,127.1 L344.3,121.7 L334.5,120.1 L334.2,119.4 L336.0,105.2 L347.4,93.0 L356.9,92.0 L366.8,94.3 L376.9,95.0 L386.9,96.7 L405.4,93.2 L420.4,80.0 L425.6,78.6 L435.6,71.8 L443.0,72.8 L446.0,79.0 L451.1,82.9 L451.9,88.6 L457.2,87.8 L462.3,91.5 L460.1,100.3 L463.3,104.7 L469.2,107.2 L472.8,117.4 L477.0,127.9 L483.8,134.5 L491.4,140.3 L500.2,143.9 L507.5,141.4 L507.4,134.7 L512.3,134.8 L516.8,130.4 L521.0,129.9 L529.3,134.0 L530.8,150.5 L540.4,159.1 L550.3,163.7 L554.6,172.9 L553.5,180.1 L554.7,187.5 L559.0,194.8 L561.7,201.7 L550.6,217.7 L549.5,236.4 L556.3,242.9 L554.0,248.5 L554.7,254.7 L556.5,262.4 L553.3,275.6 L555.8,295.3 L552.5,303.8 L551.7,311.8 L546.0,315.2 L534.3,314.0 L522.8,314.9 L516.9,309.0 L510.2,304.3 L497.5,299.2 L492.2,291.6 L486.1,291.9 L461.7,289.0 L446.0,288.6 L441.9,291.7 Z">
  <desc xmlns="http://www.highcharts.com/svg/namespace">
    <labelrank>7</labelrank>
    <hasc>HT.AR</hasc>
    <alt-name>Artibonite</alt-name>
    <woe-id>2345615</woe-id>
    <subregion>NULL</subregion>
    <fips>HA06</fips>
    <postal-code>AR</postal-code>
    <name>L'Artibonite</name>
    <country>Haiti</country>
    <type-en>Department</type-en>
    <region>NULL</region>
    <longitude>-72.5089</longitude>
    <woe-name>L'Artibonite</woe-name>
    <latitude>19.3089</latitude>
    <woe-label>Artibonite, HT, Haiti</woe-label>
    <type>Département</type>
    <hc-middle-x>0.67</hc-middle-x>
    <hc-middle-y>0.57</hc-middle-y>
    <hc-key>ht-ar</hc-key>
    <hc-a2>AR</hc-a2>
  </desc>
</path>

<path fill="#CEE3F5" stroke="#6E6E6E" stroke-width="0.4" id="HT.CE" d="M672.5,205.5 L680.8,213.6 L700.0,222.5 L699.2,238.0 L698.0,242.4 L695.0,247.1 L686.8,253.2 L683.1,256.6 L675.9,267.0 L665.5,279.0 L662.3,281.1 L649.7,284.7 L645.5,287.7 L646.3,292.1 L650.7,291.4 L656.8,289.2 L662.6,289.3 L664.8,291.0 L668.5,298.3 L678.4,308.3 L679.8,313.0 L680.3,323.5 L682.5,333.7 L682.2,338.5 L679.4,347.8 L676.6,352.6 L673.2,355.5 L664.9,360.8 L663.2,358.7 L653.7,353.3 L643.4,350.8 L626.6,345.2 L606.8,349.2 L587.3,355.8 L568.4,349.7 L553.4,335.3 L545.9,330.3 L537.5,328.3 L529.3,323.4 L522.8,314.9 L534.3,314.0 L546.0,315.2 L551.7,311.8 L552.5,303.8 L555.8,295.3 L553.3,275.6 L556.5,262.4 L554.7,254.7 L554.0,248.5 L556.3,242.9 L549.5,236.4 L550.6,217.7 L561.7,201.7 L568.9,204.1 L574.4,209.4 L576.7,212.7 L581.5,212.2 L598.3,201.3 L615.9,192.0 L624.7,197.0 L633.9,201.0 L638.5,204.8 L650.9,206.6 L655.4,206.2 L664.1,206.8 Z">
  <desc xmlns="http://www.highcharts.com/svg/namespace">
    <labelrank>7</labelrank>
    <hasc>HT.CE</hasc>
    <alt-name>Plateau Central</alt-name>
    <woe-id>2345616</woe-id>
    <subregion>NULL</subregion>
    <fips>HA07</fips>
    <postal-code>CE</postal-code>
    <name>Centre</name>
    <country>Haiti</country>
    <type-en>Department</type-en>
    <region>NULL</region>
    <longitude>-72.0025</longitude>
    <woe-name>Centre</woe-name>
    <latitude>19.029</latitude>
    <woe-label>Centre, HT, Haiti</woe-label>
    <type>Département</type>
    <hc-middle-x>0.52</hc-middle-x>
    <hc-middle-y>0.46</hc-middle-y>
    <hc-key>ht-ce</hc-key>
    <hc-a2>CE</hc-a2>
  </desc>
</path>

<path fill="#CEE3F5" stroke="#6E6E6E" stroke-width="0.4" id="HT.NE" d="M672.5,205.5 L664.1,206.8 L655.4,206.2 L650.9,206.6 L638.5,204.8 L633.9,201.0 L624.7,197.0 L615.9,192.0 L611.5,178.7 L598.9,166.4 L589.8,164.0 L592.2,160.1 L592.8,153.3 L588.5,146.6 L585.9,139.0 L582.5,132.9 L581.6,126.8 L582.3,120.0 L585.2,118.0 L589.2,117.1 L594.3,109.3 L595.2,99.3 L597.2,94.9 L602.2,98.0 L606.4,97.6 L609.1,93.8 L611.9,92.9 L616.5,89.3 L623.5,89.2 L635.5,92.5 L642.1,93.3 L643.9,94.6 L642.5,97.9 L637.5,99.8 L630.6,99.8 L633.3,104.5 L637.5,105.0 L645.8,102.9 L653.0,108.2 L655.5,103.8 L654.9,102.0 L649.5,100.6 L646.8,96.8 L649.0,92.6 L658.2,94.0 L668.5,94.1 L671.7,105.7 L671.3,116.7 L672.5,122.5 L679.7,138.6 L683.0,158.8 L683.1,170.4 L679.0,177.9 L676.1,185.8 L667.2,191.6 L665.6,193.3 L667.0,198.4 Z">
  <desc xmlns="http://www.highcharts.com/svg/namespace">
    <labelrank>7</labelrank>
    <hasc>HT.NE</hasc>
    <alt-name>NULL</alt-name>
    <woe-id>2345619</woe-id>
    <subregion>NULL</subregion>
    <fips>HA10</fips>
    <postal-code>NE</postal-code>
    <name>Nord-Est</name>
    <country>Haiti</country>
    <type-en>Department</type-en>
    <region>NULL</region>
    <longitude>-71.9088</longitude>
    <woe-name>Nord-Est</woe-name>
    <latitude>19.4929</latitude>
    <woe-label>Nord-Est, HT, Haiti</woe-label>
    <type>Département</type>
    <hc-middle-x>0.47</hc-middle-x>
    <hc-middle-y>0.40</hc-middle-y>
    <hc-key>ht-ne</hc-key>
    <hc-a2>NE</hc-a2>
  </desc>
</path>

<path fill="#CEE3F5" stroke="#6E6E6E" stroke-width="0.4" id="HT.ND" d="M615.9,192.0 L598.3,201.3 L581.5,212.2 L576.7,212.7 L574.4,209.4 L568.9,204.1 L561.7,201.7 L559.0,194.8 L554.7,187.5 L553.5,180.1 L554.6,172.9 L550.3,163.7 L540.4,159.1 L530.8,150.5 L529.3,134.0 L521.0,129.9 L516.8,130.4 L512.3,134.8 L507.4,134.7 L507.5,141.4 L500.2,143.9 L491.4,140.3 L483.8,134.5 L477.0,127.9 L472.8,117.4 L469.2,107.2 L463.3,104.7 L460.1,100.3 L462.3,91.5 L457.2,87.8 L451.9,88.6 L451.1,82.9 L446.0,79.0 L443.0,72.8 L443.7,68.1 L447.1,67.1 L456.1,69.9 L464.0,62.8 L467.9,56.0 L469.8,54.5 L475.0,60.8 L481.6,65.1 L488.5,67.5 L492.2,65.0 L496.7,67.3 L504.1,70.1 L511.1,71.7 L514.2,70.8 L515.8,74.8 L527.8,85.7 L527.8,87.3 L522.8,85.7 L526.0,93.2 L527.1,94.4 L532.4,94.9 L531.4,92.7 L534.5,88.9 L531.3,89.0 L532.8,85.6 L531.2,82.1 L536.4,84.0 L541.4,84.4 L545.9,82.8 L547.8,79.0 L550.2,76.4 L555.0,76.2 L558.4,78.9 L556.4,85.2 L560.6,87.6 L564.6,88.0 L574.3,86.1 L578.2,87.6 L581.8,91.1 L584.2,91.8 L592.7,91.7 L597.2,94.9 L595.2,99.3 L594.3,109.3 L589.2,117.1 L585.2,118.0 L582.3,120.0 L581.6,126.8 L582.5,132.9 L585.9,139.0 L588.5,146.6 L592.8,153.3 L592.2,160.1 L589.8,164.0 L598.9,166.4 L611.5,178.7 Z">
  <desc xmlns="http://www.highcharts.com/svg/namespace">
    <labelrank>7</labelrank>
    <hasc>HT.ND</hasc>
    <alt-name>NULL</alt-name>
    <woe-id>2345618</woe-id>
    <subregion>NULL</subregion>
    <fips>HA09</fips>
    <postal-code>ND</postal-code>
    <name>Nord</name>
    <country>Haiti</country>
    <type-en>Department</type-en>
    <region>NULL</region>
    <longitude>-72.3274</longitude>
    <woe-name>Nord</woe-name>
    <latitude>19.6412</latitude>
    <woe-label>Nord, HT, Haiti</woe-label>
    <type>Département</type>
    <hc-middle-x>0.65</hc-middle-x>
    <hc-middle-y>0.50</hc-middle-y>
    <hc-key>ht-nd</hc-key>
    <hc-a2>ND</hc-a2>
  </desc>
</path>

<path fill="#CEE3F5" stroke="#6E6E6E" stroke-width="0.4" id="HT.SE" d="M365.2,484.1 L364.5,472.8 L367.6,465.4 L368.5,457.7 L372.1,462.4 L375.1,468.1 L386.9,465.8 L394.5,466.2 L397.3,470.2 L402.7,472.8 L405.4,469.8 L409.6,467.3 L418.0,470.0 L426.2,471.9 L428.1,468.3 L431.1,465.9 L433.0,458.9 L436.9,461.0 L441.2,461.5 L446.7,456.5 L456.2,455.5 L459.0,453.1 L468.0,451.9 L474.0,449.2 L477.0,449.1 L479.5,447.1 L485.5,439.7 L493.6,435.8 L502.5,436.2 L513.8,441.7 L521.0,441.0 L527.5,448.8 L548.0,449.8 L569.0,448.1 L590.5,452.2 L612.0,456.7 L632.8,456.1 L649.5,457.1 L662.4,464.8 L684.2,460.6 L684.1,460.9 L673.4,479.9 L671.5,484.8 L671.4,492.4 L674.1,499.7 L675.4,514.4 L674.6,518.9 L671.7,526.8 L667.6,524.1 L649.9,502.0 L642.3,495.3 L633.5,490.0 L613.9,483.7 L605.8,479.7 L597.7,476.7 L588.1,476.8 L568.4,480.5 L542.7,480.6 L506.6,481.6 L487.3,485.4 L479.3,481.8 L477.9,482.8 L479.7,492.7 L477.4,495.3 L474.6,495.4 L467.8,492.9 L464.0,492.2 L434.9,495.3 L429.0,495.0 L430.7,500.3 L425.6,499.7 L423.8,498.4 L417.0,502.9 L403.3,501.7 L396.7,504.4 L390.1,500.7 L381.4,497.4 L372.0,495.0 L366.4,494.4 L366.6,493.2 Z">
  <desc xmlns="http://www.highcharts.com/svg/namespace">
    <labelrank>7</labelrank>
    <hasc>HT.SE</hasc>
    <alt-name>NULL</alt-name>
    <woe-id>2345622</woe-id>
    <subregion>NULL</subregion>
    <fips>HA13</fips>
    <postal-code>SE</postal-code>
    <name>Sud-Est</name>
    <country>Haiti</country>
    <type-en>Department</type-en>
    <region>NULL</region>
    <longitude>-72.36830000000001</longitude>
    <woe-name>Sud-Est</woe-name>
    <latitude>18.2947</latitude>
    <woe-label>Sud-Est, HT, Haiti</woe-label>
    <type>Département</type>
    <hc-middle-x>0.26</hc-middle-x>
    <hc-middle-y>0.43</hc-middle-y>
    <hc-key>ht-se</hc-key>
    <hc-a2>SE</hc-a2>
  </desc>
</path>
</g>

<text x="350" y="714" text-anchor="middle" font-family="Verdana" font-size="8" stroke-opacity="0.6">Copyright (c) 2020 Highsoft AS, Based on data from Natural Earth</text>

</svg>