<?xml version="1.0" encoding="utf-8" standalone="no"?>
<!DOCTYPE svg PUBLIC "-//W3C//DTD SVG 1.1//EN" "http://www.w3.org/Graphics/SVG/1.1/DTD/svg11.dtd">

<svg version="1.1" height="700pt" width="700pt" xmlns="http://www.w3.org/2000/svg" xmlns:xlink="http://www.w3.org/1999/xlink">
<desc>
Map version: 2.1.0
Copyright (c) 2023 Highsoft AS, Based on data from Natural Earth
</desc>
<title>Antarctica</title>
<g id="admin1">

<g id="AQ">
  <desc xmlns="http://www.highcharts.com/svg/namespace">
    <name>Antarctica</name>
    <labelrank>4</labelrank>
    <country-abbrev>Ant.</country-abbrev>
    <subregion>Antarctica</subregion>
    <region-wb>Antarctica</region-wb>
    <iso-a3>ATA</iso-a3>
    <iso-a2>AQ</iso-a2>
    <woe-id>28289409</woe-id>
    <continent>Antarctica</continent>
    <hc-key>aq</hc-key>
    <hc-a2>AN</hc-a2>
  </desc>
</g>

<path fill="#CEE3F5" stroke="#6E6E6E" stroke-width="0.4" id="AQ.3638" d="M318.9,398.9 L318.1,396.7 L321.1,396.8 L321.0,400.5 Z M208.1,242.2 L210.9,244.5 L208.5,246.5 L208.4,243.6 Z M263.7,174.7 L264.3,175.9 L258.0,179.3 L258.9,174.9 Z M386.0,467.4 L389.2,464.8 L390.7,467.8 L388.2,466.5 L386.8,470.1 Z M171.9,438.5 L171.9,436.7 L174.8,436.5 L172.6,441.4 Z M150.9,414.5 L148.1,418.0 L146.0,414.8 L148.4,413.7 Z M102.8,306.1 L106.7,306.0 L108.1,308.5 L103.7,307.8 L99.6,309.5 L98.5,306.7 Z M334.3,21.9 L332.5,21.3 L335.6,18.2 L336.4,21.0 Z M477.3,50.0 L473.8,48.2 L474.7,45.4 L478.2,45.2 Z M356.9,15.2 L355.4,19.9 L354.4,16.6 L354.9,14.4 Z M68.1,225.2 L71.0,224.3 L73.8,227.5 L71.8,231.2 L70.2,231.6 L67.2,228.7 Z M71.0,211.3 L69.3,215.2 L66.0,214.5 L67.2,212.5 Z M89.1,162.4 L91.0,165.3 L88.1,164.2 L83.0,163.8 L83.9,162.0 Z M695.7,369.5 L696.6,365.1 L699.2,366.2 L700.0,369.8 L697.9,371.4 Z M16.8,127.1 L18.2,125.9 L20.8,129.0 L21.5,132.0 L15.1,127.8 Z M27.4,81.3 L30.5,79.3 L31.8,81.0 L28.3,84.5 L28.4,88.2 L26.7,88.8 L25.7,86.6 Z M3.6,102.8 L5.3,101.7 L5.6,105.4 L3.7,105.0 L1.3,110.3 L0.0,106.7 L2.5,105.6 L2.2,102.5 Z M46.8,0.0 L41.2,4.3 L40.6,3.2 L43.2,0.8 Z M310.0,418.2 L309.7,415.4 L315.5,419.1 L315.1,421.4 L313.1,421.5 Z M217.0,245.2 L210.9,245.2 L216.9,241.8 L218.8,242.4 L219.8,244.9 Z M268.3,85.3 L268.9,88.4 L271.8,92.4 L270.4,93.7 L266.7,89.3 L264.1,90.5 L266.0,88.0 L266.1,82.4 Z M18.1,141.7 L17.0,137.9 L15.1,135.9 L16.5,133.7 L18.1,135.8 L21.4,133.6 L21.6,138.3 L22.7,140.4 L19.1,142.9 Z M1.5,88.2 L4.0,83.6 L5.8,83.8 L3.8,88.5 L5.0,91.6 L3.1,92.4 Z M272.9,178.4 L271.1,176.7 L272.0,175.9 L276.0,177.8 Z M389.3,472.5 L392.4,475.6 L391.6,481.3 L388.5,478.3 L383.6,479.0 L382.7,477.6 L385.1,474.8 L388.2,474.9 Z M113.7,240.5 L111.2,241.6 L110.6,239.4 L112.4,236.3 L114.3,235.6 L117.6,237.8 L120.7,238.0 L122.6,239.5 L117.5,243.7 L114.5,244.0 Z M35.1,100.4 L36.7,101.1 L33.8,103.6 L30.3,103.6 L29.0,105.3 L27.4,102.8 L27.6,99.2 L30.8,101.8 L30.3,99.0 L33.6,98.1 Z M43.7,176.7 L43.9,176.6 L44.1,177.0 L45.7,180.8 L46.6,179.5 L50.2,184.5 L49.8,186.3 L46.7,186.8 L41.1,181.9 L37.9,178.5 L36.3,174.6 L42.1,177.7 Z M236.9,238.7 L233.7,241.8 L229.5,241.3 L230.4,244.7 L223.6,247.8 L221.4,245.5 L224.1,246.0 L225.4,242.9 L228.2,236.9 L222.5,233.1 L221.8,229.7 L223.0,228.5 L227.7,230.3 L235.2,235.5 Z M299.1,451.9 L296.8,443.9 L297.0,440.6 L297.6,438.2 L301.7,439.2 L307.7,447.8 L308.2,449.8 L306.6,453.7 L303.0,457.0 L300.8,455.6 Z M199.5,249.2 L195.4,236.6 L196.6,235.9 L199.7,239.7 L203.9,246.0 L210.7,252.5 L209.2,255.0 L206.5,255.1 L201.7,252.3 Z M224.9,198.8 L220.2,189.9 L221.0,183.1 L224.2,180.7 L229.5,179.9 L233.1,180.6 L236.3,184.6 L234.5,187.6 L236.0,189.3 L238.7,186.2 L246.5,191.4 L250.5,195.9 L250.4,198.9 L253.0,200.4 L248.0,215.9 L249.0,217.0 L243.8,225.7 L240.0,222.7 L236.0,217.6 L236.8,215.3 L238.3,216.4 L234.4,206.3 L227.5,201.7 Z M154.4,419.4 L157.1,418.2 L160.3,421.5 L159.9,425.4 L156.2,426.4 L154.3,425.7 L155.7,429.7 L153.0,430.1 L149.0,421.1 L151.1,418.0 Z M163.4,443.8 L162.0,445.9 L158.9,447.4 L155.6,443.6 L156.5,440.3 L158.4,437.4 L160.5,439.0 L159.0,435.3 L157.2,435.0 L157.4,431.9 L159.4,429.2 L162.2,428.5 L163.5,431.4 L162.9,440.1 L161.1,441.8 Z M98.6,347.3 L98.3,356.9 L95.9,356.4 L93.1,349.3 L92.9,347.1 L94.9,345.9 L90.2,342.4 L91.0,338.4 L95.6,339.4 L93.7,337.4 L91.2,337.2 L92.5,335.5 L95.7,335.0 L90.7,334.1 L89.8,331.1 L92.4,330.0 L95.6,333.3 L96.2,332.0 L92.7,327.9 L94.8,327.3 L95.5,329.8 L97.6,326.4 L100.1,324.7 L98.2,322.2 L100.2,321.3 L100.9,335.3 L101.7,339.5 L100.1,339.5 L101.2,343.2 L99.3,342.6 Z M81.8,231.3 L79.4,229.5 L82.8,228.6 L80.2,227.3 L80.6,224.4 L83.9,224.0 L85.7,228.4 L85.9,237.0 L82.9,238.3 L81.6,235.8 Z M97.4,221.8 L100.8,226.2 L98.8,229.6 L101.4,228.6 L103.0,231.4 L100.7,232.6 L100.5,234.5 L97.9,236.3 L94.3,235.6 L92.9,232.7 L95.4,231.1 L92.0,230.3 L91.8,228.7 L95.7,227.0 L92.1,226.7 L94.2,220.0 L89.7,223.3 L89.7,219.6 L92.0,216.8 L89.9,214.3 L91.0,210.1 L94.8,208.5 L90.8,206.8 L89.0,210.8 L86.0,212.7 L83.4,210.4 L83.0,205.7 L80.1,205.2 L78.9,210.5 L74.8,212.4 L71.4,211.2 L68.3,208.6 L64.3,210.2 L60.7,208.3 L60.4,204.8 L61.1,199.4 L63.1,198.4 L68.5,200.3 L69.2,198.7 L74.7,198.3 L78.8,199.7 L86.0,199.4 L93.5,200.2 L103.8,203.6 L107.4,205.5 L107.2,206.5 L111.7,208.0 L113.2,212.4 L114.8,213.0 L114.4,219.5 L112.7,222.6 L112.1,226.8 L107.1,228.4 L106.1,226.1 L108.3,223.1 L110.6,218.4 L109.7,215.6 L107.4,216.1 L107.7,221.4 L104.9,222.6 L104.9,216.7 L102.7,216.5 L100.7,220.4 Z M320.8,365.5 L321.7,369.7 L319.2,369.4 L328.0,376.9 L326.1,379.1 L328.2,383.1 L325.8,383.7 L327.3,388.6 L331.4,389.6 L332.4,394.7 L339.1,402.8 L334.6,401.7 L333.9,398.1 L324.6,396.0 L325.0,391.6 L321.9,393.5 L321.3,390.2 L313.6,389.4 L311.7,391.1 L313.6,393.6 L308.6,392.6 L306.2,395.4 L300.5,396.6 L300.0,399.2 L300.7,406.1 L297.3,407.9 L298.2,412.4 L301.4,416.0 L299.0,418.2 L290.5,415.7 L280.1,411.8 L280.3,417.5 L282.8,422.1 L280.8,421.1 L281.2,424.2 L279.4,425.6 L276.5,423.0 L274.9,426.5 L271.6,423.0 L271.6,425.9 L275.9,432.1 L278.2,439.7 L283.2,444.4 L285.0,451.0 L282.7,452.7 L279.0,451.7 L276.2,453.6 L276.2,455.4 L284.4,457.2 L286.3,464.0 L283.2,467.6 L282.4,471.3 L279.9,474.1 L279.0,469.1 L275.2,471.9 L273.3,469.5 L271.2,469.5 L268.2,465.7 L270.3,463.7 L267.1,461.1 L265.7,463.3 L263.6,460.6 L262.3,453.3 L257.4,454.3 L253.8,454.1 L256.2,457.7 L253.8,460.2 L252.7,454.7 L249.9,455.5 L250.4,451.4 L247.7,449.8 L247.4,453.5 L245.3,452.7 L246.2,457.3 L244.1,454.7 L243.4,460.3 L243.9,465.4 L248.4,467.0 L251.3,470.0 L249.8,471.5 L246.5,470.6 L244.4,471.7 L239.0,462.2 L239.5,468.5 L237.2,470.0 L230.4,467.2 L229.4,469.8 L224.0,466.9 L222.2,467.9 L221.3,465.5 L222.6,462.0 L220.8,460.7 L219.2,464.4 L216.0,462.9 L211.3,464.4 L206.3,460.8 L202.7,456.0 L202.9,459.5 L199.7,461.7 L196.7,458.9 L193.8,459.8 L192.4,456.7 L194.3,454.2 L193.6,452.1 L189.1,450.7 L185.1,445.2 L183.6,441.3 L178.3,438.2 L173.7,434.3 L168.3,426.1 L168.9,424.2 L166.5,422.0 L163.9,417.1 L156.0,408.9 L153.7,410.6 L149.9,408.1 L152.9,406.0 L151.5,401.7 L147.2,395.8 L142.7,399.1 L139.9,398.7 L138.4,395.9 L140.9,396.3 L139.3,394.0 L141.0,392.5 L145.3,392.2 L143.7,390.4 L153.4,390.6 L147.5,384.1 L146.6,382.2 L144.7,384.5 L139.4,386.6 L138.0,384.3 L139.0,379.8 L144.7,377.9 L145.8,379.0 L152.1,380.4 L148.9,374.0 L148.0,362.6 L144.3,357.7 L141.2,351.3 L140.7,344.8 L143.1,344.7 L144.5,342.4 L140.0,333.1 L138.8,336.9 L136.6,337.1 L136.8,340.0 L130.1,341.3 L131.4,346.1 L128.1,346.4 L124.4,348.3 L123.5,354.0 L119.6,354.7 L119.5,348.4 L120.8,347.3 L119.3,342.2 L117.4,340.9 L113.9,342.7 L114.7,351.4 L115.7,355.6 L114.0,357.8 L109.7,359.4 L107.3,358.2 L107.3,354.0 L111.1,355.9 L111.3,352.6 L109.1,347.8 L110.1,346.0 L108.9,343.2 L107.7,334.9 L111.1,329.2 L109.4,321.3 L110.5,320.2 L108.2,317.2 L108.0,310.3 L109.6,306.8 L107.4,303.0 L106.8,298.8 L101.8,298.2 L99.9,299.3 L101.1,294.4 L103.0,294.0 L107.0,296.6 L109.1,295.6 L108.7,291.1 L111.1,289.4 L108.3,284.3 L111.3,283.5 L114.6,279.3 L114.7,276.4 L117.4,276.9 L117.3,273.3 L120.3,270.1 L118.5,266.5 L111.9,265.8 L112.1,263.7 L114.6,262.3 L109.6,262.6 L107.9,261.1 L109.7,258.3 L115.1,255.4 L118.1,256.6 L117.6,250.8 L119.5,247.7 L122.7,250.7 L123.8,246.9 L122.0,242.2 L124.2,240.3 L124.6,237.4 L122.0,232.8 L123.5,221.1 L123.1,213.6 L121.5,207.7 L112.8,200.4 L110.9,199.8 L102.4,200.3 L96.8,196.9 L86.6,195.5 L82.1,196.6 L77.2,194.0 L72.9,194.9 L71.9,191.7 L75.4,188.7 L74.2,185.2 L70.4,182.9 L69.3,184.7 L67.7,182.5 L63.5,180.6 L60.3,177.4 L60.2,178.9 L56.0,179.1 L56.2,176.8 L52.0,174.7 L49.8,174.8 L48.5,178.4 L42.2,172.4 L43.0,171.4 L47.2,173.6 L46.6,171.7 L43.1,168.3 L39.4,167.3 L39.9,164.8 L42.3,164.0 L38.8,161.5 L36.5,161.8 L34.4,159.1 L36.4,156.6 L33.4,156.4 L35.1,152.0 L31.0,150.0 L31.7,144.8 L29.1,146.4 L24.8,142.8 L28.6,139.1 L23.3,132.8 L26.3,131.2 L24.7,127.8 L26.0,126.3 L23.3,124.3 L23.4,121.1 L20.5,119.8 L20.6,114.5 L22.8,109.5 L21.2,107.6 L20.5,103.5 L21.9,97.6 L22.1,91.7 L28.4,91.7 L28.2,94.4 L25.7,93.3 L24.9,99.8 L27.4,106.4 L32.7,109.9 L31.0,112.7 L28.5,112.7 L27.9,116.0 L29.7,122.1 L32.6,126.7 L30.0,130.2 L33.8,131.5 L33.0,135.1 L37.8,134.5 L37.2,136.5 L40.6,140.3 L44.1,139.8 L45.9,135.8 L43.6,134.8 L46.1,130.9 L50.0,136.6 L45.8,136.9 L46.1,138.9 L49.5,140.4 L45.6,140.1 L43.9,144.1 L50.7,146.7 L49.3,147.7 L42.5,147.2 L40.3,149.9 L43.6,150.1 L45.5,154.6 L48.4,153.6 L49.9,154.8 L46.6,159.3 L48.6,161.5 L52.1,162.0 L51.6,167.0 L56.1,167.3 L58.0,170.5 L60.8,169.7 L62.0,172.6 L64.2,167.8 L64.6,172.1 L67.0,170.2 L69.4,172.9 L74.7,168.5 L71.7,168.5 L70.6,165.5 L71.7,161.9 L72.1,165.2 L73.9,166.5 L75.7,164.7 L77.8,166.2 L84.6,166.8 L87.7,165.2 L92.0,168.1 L96.0,167.3 L98.8,168.8 L96.9,169.9 L101.9,170.9 L102.9,167.6 L106.9,173.1 L106.9,170.6 L112.7,170.4 L114.8,171.5 L114.7,174.8 L117.9,176.6 L116.9,173.7 L119.4,173.3 L121.2,175.9 L118.9,181.7 L124.9,178.4 L123.7,175.3 L129.4,179.1 L127.3,181.2 L132.8,182.6 L132.2,179.6 L136.5,181.8 L138.0,179.5 L141.5,182.4 L139.0,183.4 L141.4,185.3 L137.9,185.9 L135.1,188.0 L139.7,188.3 L139.2,189.8 L143.6,186.9 L148.1,190.5 L145.8,192.8 L149.8,191.6 L151.1,195.9 L153.3,191.8 L154.5,196.3 L151.2,198.2 L156.3,198.4 L158.6,201.1 L157.8,202.6 L154.0,201.3 L153.6,203.5 L159.6,205.4 L158.8,210.1 L162.8,207.5 L166.0,221.2 L165.2,228.0 L166.3,228.1 L166.1,233.4 L170.0,237.0 L169.4,242.5 L167.7,244.4 L163.3,252.9 L164.1,254.7 L161.6,257.2 L163.7,258.2 L161.4,260.4 L168.5,260.3 L173.6,257.9 L176.7,257.5 L175.6,255.7 L179.6,249.2 L185.0,253.7 L186.0,257.9 L180.7,265.2 L177.3,272.4 L177.6,276.7 L187.7,265.9 L192.0,267.9 L192.2,275.2 L185.8,280.5 L178.2,283.4 L184.7,284.4 L189.9,283.2 L194.7,279.6 L200.7,278.8 L202.5,277.4 L198.0,276.5 L200.8,266.5 L202.8,265.7 L207.0,266.8 L210.1,271.0 L208.6,276.4 L212.4,272.1 L211.7,268.4 L216.6,267.9 L222.3,269.7 L224.2,268.1 L223.1,265.9 L226.2,263.8 L224.0,262.6 L222.4,258.6 L223.7,257.3 L228.3,257.9 L229.2,255.1 L231.4,255.2 L239.4,251.1 L242.6,246.2 L244.5,246.7 L241.6,253.3 L244.4,249.6 L245.5,250.4 L243.8,254.5 L249.2,257.4 L251.2,256.3 L250.9,252.3 L251.9,247.2 L253.8,249.2 L254.5,253.2 L262.3,255.0 L261.8,253.4 L266.0,257.4 L269.1,254.6 L264.0,247.9 L260.4,241.6 L259.7,238.6 L260.6,229.4 L262.9,225.1 L265.4,225.1 L266.0,222.1 L269.5,225.0 L270.6,227.6 L273.0,228.2 L274.0,223.8 L272.5,219.8 L270.3,217.6 L269.4,213.0 L267.1,207.5 L267.7,200.2 L272.5,200.6 L273.2,197.0 L271.9,192.6 L275.6,190.1 L277.0,186.1 L280.5,184.7 L277.5,183.6 L280.3,181.6 L279.8,180.0 L291.3,172.6 L294.3,168.8 L288.4,169.2 L273.6,173.9 L273.9,168.6 L271.7,170.0 L270.4,166.5 L266.2,172.7 L255.2,173.3 L252.7,170.9 L250.3,165.5 L250.8,164.0 L248.9,160.0 L250.9,158.2 L248.7,156.4 L248.6,150.8 L250.5,146.4 L252.2,145.7 L251.5,143.2 L253.4,139.9 L253.4,136.4 L255.2,130.7 L259.6,125.3 L261.3,120.6 L265.8,115.7 L271.5,111.5 L275.3,111.1 L276.9,106.7 L279.5,106.9 L284.3,103.9 L281.1,101.7 L282.8,94.0 L282.1,87.5 L285.2,86.1 L288.9,86.9 L292.1,77.4 L290.2,77.1 L287.3,80.0 L284.0,80.2 L285.9,78.4 L282.4,76.7 L282.2,73.4 L284.4,67.7 L287.0,66.4 L289.2,67.6 L290.9,64.6 L287.8,61.4 L292.0,62.2 L295.5,57.1 L299.8,53.8 L299.4,49.5 L300.3,44.5 L293.8,43.5 L292.2,40.4 L295.1,38.0 L299.8,41.7 L300.1,37.3 L302.1,35.2 L300.2,33.2 L304.9,33.5 L307.5,35.8 L311.1,41.9 L314.5,40.4 L313.5,37.1 L313.9,33.0 L311.9,28.4 L314.5,27.6 L318.0,29.1 L319.0,25.8 L322.2,25.8 L322.3,30.3 L320.9,35.3 L329.1,33.9 L332.3,34.6 L333.5,36.5 L334.1,33.1 L336.0,32.7 L339.7,35.6 L342.7,35.2 L344.3,32.2 L345.8,33.9 L345.2,37.6 L347.5,39.4 L350.7,33.5 L354.0,31.1 L361.7,27.2 L366.8,26.8 L374.3,24.1 L376.8,24.6 L387.1,23.2 L386.5,19.1 L388.6,18.8 L388.5,23.3 L390.9,23.8 L394.9,21.9 L393.7,20.3 L396.5,19.1 L398.4,24.6 L401.5,27.9 L406.5,31.1 L410.0,25.7 L413.8,24.6 L411.6,21.5 L414.2,21.7 L415.1,25.0 L417.4,27.1 L423.3,27.7 L426.8,30.0 L428.2,27.5 L431.5,28.4 L429.7,32.0 L436.7,35.5 L438.8,35.6 L438.5,32.8 L442.4,31.7 L443.1,35.0 L440.1,38.1 L440.5,42.6 L445.4,44.5 L449.6,44.3 L450.2,42.3 L455.4,37.6 L457.3,43.1 L453.5,43.1 L454.9,45.6 L459.1,48.2 L463.4,43.5 L465.6,46.6 L464.0,48.3 L465.5,53.2 L471.3,57.5 L478.3,56.2 L482.2,57.5 L490.9,55.9 L497.6,58.6 L505.5,59.7 L509.2,56.1 L511.6,51.9 L511.8,47.4 L513.9,44.8 L518.3,44.4 L522.7,47.5 L522.4,49.5 L517.7,50.8 L521.1,53.4 L521.9,57.9 L518.3,63.4 L524.1,65.2 L525.4,66.8 L524.3,70.4 L529.2,70.5 L528.3,79.2 L529.8,80.2 L530.5,77.2 L532.9,77.4 L534.7,75.3 L537.8,76.1 L545.5,67.5 L549.9,69.7 L552.5,68.9 L558.2,70.3 L560.7,72.0 L564.8,70.2 L570.8,73.1 L574.1,76.3 L575.6,73.9 L579.2,75.7 L578.9,78.0 L584.2,78.0 L586.5,75.6 L589.7,77.4 L590.2,81.2 L587.2,80.0 L588.1,82.3 L585.8,82.4 L589.2,85.4 L590.5,88.6 L587.7,89.0 L587.0,91.2 L592.1,89.3 L594.3,86.6 L597.2,88.2 L599.7,87.8 L596.6,83.2 L598.1,81.2 L603.6,83.0 L601.4,85.6 L603.4,87.6 L600.1,89.4 L603.9,90.3 L604.2,93.5 L606.2,94.2 L606.5,89.8 L610.2,89.8 L608.3,86.9 L612.6,83.9 L614.5,84.1 L618.5,87.1 L620.2,86.7 L624.7,88.9 L627.1,91.8 L631.7,95.1 L635.8,103.1 L636.1,106.0 L633.4,113.6 L635.4,115.1 L635.2,118.1 L632.9,119.8 L629.7,113.3 L629.0,118.6 L627.9,116.3 L626.5,117.9 L621.4,117.0 L623.5,118.4 L621.0,120.2 L625.9,119.6 L628.7,123.3 L630.5,123.6 L630.7,129.5 L628.6,137.9 L631.8,137.1 L634.4,141.8 L634.5,145.3 L636.3,150.4 L636.4,153.6 L641.1,157.7 L641.7,164.2 L646.6,184.4 L651.1,189.7 L644.0,193.9 L641.8,196.8 L639.7,194.6 L635.5,194.0 L636.0,197.1 L632.5,195.2 L631.6,197.9 L629.4,198.6 L628.2,194.7 L624.5,195.1 L624.8,198.4 L622.2,196.8 L621.7,198.8 L617.8,197.0 L619.8,194.4 L616.1,192.3 L611.4,192.2 L611.6,199.1 L614.9,201.0 L609.4,203.4 L603.7,203.6 L598.6,201.9 L594.2,202.7 L590.3,202.2 L576.0,206.0 L571.8,204.7 L571.2,209.6 L574.3,211.4 L580.1,208.6 L584.2,209.7 L586.6,214.1 L591.9,213.7 L593.2,216.0 L595.6,214.7 L600.8,218.3 L604.1,215.5 L612.7,215.2 L615.0,217.6 L619.1,219.0 L622.1,216.8 L629.2,219.1 L631.0,221.8 L628.4,224.3 L630.2,225.4 L629.6,229.3 L632.5,231.0 L636.0,229.7 L639.7,234.2 L641.9,234.6 L644.1,238.7 L649.8,239.1 L651.2,241.7 L653.8,240.0 L657.6,240.8 L659.7,242.6 L669.3,257.5 L671.5,263.8 L673.8,264.7 L679.9,273.0 L678.5,275.9 L680.9,279.3 L680.8,283.0 L685.5,290.2 L684.3,291.8 L685.5,294.7 L685.0,304.3 L688.6,308.9 L689.6,313.7 L687.4,318.4 L687.9,323.5 L685.4,324.0 L688.9,331.3 L685.2,334.4 L686.8,338.2 L685.8,341.1 L686.9,344.9 L684.1,347.2 L687.0,351.0 L686.8,352.6 L679.7,353.4 L684.3,358.6 L685.4,366.3 L689.4,371.1 L691.2,370.6 L689.9,376.5 L690.7,379.0 L687.5,383.6 L687.3,385.7 L675.9,400.4 L672.8,405.7 L668.7,404.0 L671.1,407.4 L665.7,409.2 L664.4,412.9 L666.1,420.1 L664.7,420.9 L669.1,423.0 L670.9,422.1 L673.5,426.0 L672.3,440.4 L663.0,444.5 L659.5,442.1 L657.9,446.6 L655.1,448.5 L652.1,448.2 L650.0,443.2 L650.9,436.4 L648.2,432.9 L647.0,434.7 L646.3,441.8 L647.4,443.1 L645.7,449.7 L646.9,453.2 L644.8,451.6 L641.8,459.8 L640.2,458.5 L638.6,461.5 L637.6,470.7 L636.6,470.1 L637.7,460.0 L635.5,459.8 L632.1,475.3 L633.0,480.8 L631.5,486.2 L630.1,487.8 L630.5,491.6 L626.0,493.6 L625.8,496.5 L627.8,499.9 L627.5,503.2 L622.8,503.4 L624.9,505.1 L622.4,506.6 L621.1,503.7 L618.2,502.3 L616.9,504.0 L613.0,503.7 L611.3,507.1 L608.2,508.0 L608.8,510.2 L605.9,510.1 L609.1,516.7 L612.0,520.1 L611.4,527.5 L606.2,531.2 L602.3,538.7 L599.4,541.6 L594.5,542.2 L593.8,538.8 L592.8,543.3 L591.2,545.1 L592.9,548.3 L589.7,547.7 L587.9,550.2 L583.6,549.9 L583.6,552.5 L579.8,555.2 L576.0,555.2 L571.0,559.0 L563.9,560.8 L563.8,562.0 L559.2,563.3 L556.4,566.5 L552.0,565.7 L549.0,571.3 L546.3,571.6 L545.1,568.7 L542.6,572.8 L541.1,572.1 L540.8,566.2 L539.2,564.9 L537.6,559.7 L535.8,560.6 L536.1,563.3 L534.0,569.8 L531.2,567.7 L530.6,570.9 L526.3,567.9 L523.9,569.1 L523.0,565.3 L519.3,563.6 L515.9,566.6 L514.4,565.9 L506.0,570.6 L501.9,575.2 L500.4,575.1 L498.7,570.8 L494.5,569.7 L495.8,572.7 L492.1,574.7 L486.9,574.4 L484.8,577.3 L486.9,579.8 L488.0,583.8 L482.1,582.5 L478.5,578.3 L475.2,578.8 L470.0,577.0 L466.5,579.2 L464.2,577.1 L462.8,580.5 L452.0,579.5 L447.7,576.5 L450.0,574.3 L445.0,573.5 L438.2,566.0 L438.0,563.3 L434.6,563.5 L436.9,572.1 L434.0,573.2 L432.2,570.7 L429.2,569.3 L427.1,570.1 L425.9,568.2 L426.0,572.7 L420.7,573.1 L417.3,572.1 L415.6,574.0 L413.0,573.2 L414.5,571.5 L408.6,572.5 L407.1,569.5 L403.7,568.0 L397.7,563.8 L394.3,562.5 L395.1,567.6 L390.7,559.9 L392.0,557.6 L393.6,560.4 L394.0,550.9 L392.6,552.7 L392.0,548.7 L399.3,551.0 L401.0,550.4 L398.0,548.0 L393.0,546.6 L393.5,541.9 L398.7,539.1 L405.4,539.1 L404.3,534.9 L403.4,536.8 L399.7,536.0 L402.3,534.6 L405.0,529.3 L408.5,525.9 L409.7,530.1 L411.9,531.9 L411.0,524.8 L408.0,520.7 L406.5,516.9 L409.8,516.4 L411.3,514.1 L413.4,517.8 L414.6,516.4 L414.9,508.5 L413.4,507.9 L413.2,504.2 L416.1,504.0 L419.1,499.8 L413.8,501.8 L413.5,499.5 L409.4,496.5 L408.9,492.9 L410.6,490.9 L408.1,490.6 L406.9,488.0 L407.5,484.8 L405.6,484.3 L406.5,480.3 L404.0,480.2 L400.3,475.5 L399.4,470.9 L396.1,469.8 L396.5,464.2 L392.9,464.7 L392.8,468.1 L390.4,462.9 L386.7,462.6 L385.8,459.7 L389.0,461.1 L393.5,459.3 L394.5,457.0 L398.0,455.4 L401.9,457.1 L397.8,451.0 L401.5,450.3 L401.7,448.2 L399.6,444.6 L400.5,441.1 L398.4,442.5 L400.7,438.6 L395.6,438.5 L400.1,432.1 L399.4,429.0 L395.0,432.1 L391.9,426.7 L393.0,425.3 L390.1,420.6 L392.4,420.4 L389.0,416.4 L385.4,415.4 L380.6,408.8 L385.5,404.3 L381.5,404.7 L378.6,407.7 L376.3,404.4 L372.2,402.3 L370.8,399.0 L369.4,400.2 L368.2,394.6 L367.2,395.7 L363.2,394.0 L362.0,391.0 L357.4,389.9 L356.1,388.1 L350.6,385.0 L349.6,382.8 L347.2,383.4 L344.0,379.8 L342.9,381.6 L334.1,377.0 L332.9,374.2 L328.1,372.0 L324.3,367.7 Z">
  <desc xmlns="http://www.highcharts.com/svg/namespace">
    <labelrank>20</labelrank>
    <hasc>AQ</hasc>
    <alt-name>NULL</alt-name>
    <woe-id>28289409</woe-id>
    <subregion>NULL</subregion>
    <fips>NULL</fips>
    <postal-code>NULL</postal-code>
    <name>Antarctica</name>
    <country>Antarctica</country>
    <type-en>NULL</type-en>
    <region>NULL</region>
    <longitude>0.238256</longitude>
    <woe-name>Antarctica</woe-name>
    <latitude>-81.6905</latitude>
    <woe-label>NULL</woe-label>
    <type>NULL</type>
    <hc-middle-x>0.65</hc-middle-x>
    <hc-middle-y>0.49</hc-middle-y>
    <hc-key>aq-3638</hc-key>
    <hc-a2>AN</hc-a2>
  </desc>
</path>

<path fill="#CEE3F5" stroke="#6E6E6E" stroke-width="0.4" id="AQ.3639" d="M181.1,454.8 L181.7,451.0 L180.6,449.0 L183.3,447.7 L183.8,452.3 L181.8,452.2 Z M148.4,404.6 L146.5,407.3 L142.0,405.2 L142.0,404.0 Z M104.8,299.9 L106.5,302.7 L104.3,303.3 L103.2,301.5 Z M335.7,32.0 L336.9,28.6 L332.3,24.4 L336.9,24.2 L337.1,26.3 L339.6,26.0 L338.6,28.9 Z M109.8,167.5 L104.4,165.9 L106.4,164.1 L107.0,166.6 Z M360.1,23.5 L364.7,19.8 L365.6,21.3 L364.0,23.1 Z M371.5,21.9 L370.3,21.4 L370.1,18.2 L372.3,18.7 Z M429.7,26.1 L427.4,23.4 L428.7,21.2 L433.0,21.7 Z M686.4,273.8 L684.9,277.5 L686.7,281.6 L684.9,281.6 L684.5,277.7 L681.9,277.6 L683.1,275.1 Z M689.7,344.9 L691.6,343.5 L691.7,340.5 L694.0,340.8 L693.9,343.9 Z M26.0,156.1 L30.3,158.6 L29.8,160.9 L26.1,157.8 Z M37.7,98.6 L39.4,102.3 L37.3,102.7 L37.1,96.3 Z M14.7,121.2 L17.8,116.4 L17.0,114.3 L19.0,116.9 Z M24.1,87.2 L22.1,85.1 L24.2,83.0 L25.4,85.6 Z M4.2,97.4 L5.1,100.1 L2.6,101.2 L3.9,99.1 Z M43.7,176.7 L38.8,172.8 L40.5,172.4 L43.9,176.3 L50.7,179.7 L51.4,176.4 L53.1,178.2 L51.3,180.1 L46.9,178.0 L45.2,177.9 L44.1,177.0 Z M256.1,460.1 L255.7,460.8 L255.7,460.8 L255.7,460.8 L255.5,460.6 L256.1,460.1 L256.1,460.1 Z M256.1,460.1 L256.7,458.9 L260.5,459.6 L262.7,462.2 L260.8,462.3 L260.2,459.9 L257.0,459.3 L256.1,460.1 L256.1,460.1 Z M246.9,460.6 L246.9,460.7 L246.7,460.9 L246.7,460.9 L246.7,460.9 L246.9,460.6 Z M246.9,460.6 L245.1,458.5 L248.2,458.4 L246.9,460.6 Z M619.7,213.5 L615.4,216.9 L614.9,215.0 L618.4,212.8 L619.7,213.5 Z M255.7,460.8 L258.3,463.1 L256.7,468.5 L254.8,467.8 L256.9,465.3 L253.9,463.3 L252.8,464.2 L251.4,466.6 L249.7,464.9 L252.3,463.6 L252.2,461.0 L255.1,462.3 L255.7,460.8 L255.7,460.8 Z M246.7,460.9 L246.0,462.1 L247.0,463.5 L244.9,464.9 L244.3,463.2 L246.7,460.9 L246.7,460.9 Z M619.7,213.5 L619.9,213.3 L623.5,215.3 L619.7,213.5 Z">
  <desc xmlns="http://www.highcharts.com/svg/namespace">
    <labelrank>20</labelrank>
    <hasc>-99</hasc>
    <alt-name>NULL</alt-name>
    <woe-id>-99</woe-id>
    <subregion>NULL</subregion>
    <fips>NULL</fips>
    <postal-code>NULL</postal-code>
    <name>NULL</name>
    <country>Antarctica</country>
    <type-en>NULL</type-en>
    <region>NULL</region>
    <longitude>-170.343</longitude>
    <woe-name>NULL</woe-name>
    <latitude>-83.0384</latitude>
    <woe-label>NULL</woe-label>
    <type>NULL</type>
    <hc-middle-x>0.37</hc-middle-x>
    <hc-middle-y>1.00</hc-middle-y>
    <hc-key>aq-3639</hc-key>
    <hc-a2>NU</hc-a2>
  </desc>
</path>
</g>

<text x="350" y="714" text-anchor="middle" font-family="Verdana" font-size="8" stroke-opacity="0.6">Copyright (c) 2023 Highsoft AS, Based on data from Natural Earth</text>

</svg>