<?xml version="1.0" encoding="utf-8" standalone="no"?>
<!DOCTYPE svg PUBLIC "-//W3C//DTD SVG 1.1//EN" "http://www.w3.org/Graphics/SVG/1.1/DTD/svg11.dtd">

<svg version="1.1" height="700pt" width="700pt" xmlns="http://www.w3.org/2000/svg" xmlns:xlink="http://www.w3.org/1999/xlink">
<desc>
Map version: 1.1.3
Copyright (c) 2020 Highsoft AS, Based on data from Natural Earth
</desc>
<title>Central America</title>
<g id="admin0">

<path fill="#CEE3F5" stroke="#6E6E6E" stroke-width="0.4" id="HN" d="M210.8,245.3 L209.8,245.5 L208.5,243.9 L211.2,243.6 Z M210.9,239.9 L212.5,240.4 L212.3,242.9 L209.2,241.6 Z M244.8,111.9 L241.0,113.7 L239.5,112.9 L241.9,111.4 L244.4,110.8 Z M275.4,97.0 L274.5,97.5 L270.5,97.5 L264.1,100.3 L262.4,101.6 L259.8,102.2 L257.5,104.2 L257.5,102.3 L260.6,100.1 L264.7,98.2 L269.6,96.7 Z M289.3,96.3 L287.0,97.8 L287.9,95.4 L289.8,93.1 L291.3,92.5 L292.8,93.3 Z M182.8,130.9 L184.1,129.5 L187.5,131.4 L188.7,130.9 L192.7,126.5 L194.4,126.8 L197.1,125.2 L196.3,122.9 L198.2,122.9 L201.1,121.7 L205.0,121.5 L206.7,120.4 L210.3,122.0 L211.4,121.7 L216.3,126.2 L219.1,126.5 L223.8,123.8 L228.4,124.9 L232.5,126.3 L236.7,126.8 L241.6,127.9 L244.9,127.9 L248.5,126.9 L249.8,125.9 L253.0,126.7 L263.4,126.0 L265.9,127.2 L269.4,127.0 L273.7,124.3 L275.3,122.6 L278.4,121.6 L284.9,121.4 L287.7,119.7 L289.1,117.5 L288.3,116.5 L284.1,115.8 L285.5,115.2 L293.1,116.5 L298.6,118.0 L302.4,121.0 L307.9,122.7 L318.5,121.9 L321.1,120.8 L326.5,117.1 L330.0,116.9 L336.6,119.6 L344.7,122.0 L344.5,125.9 L345.5,126.8 L347.5,126.5 L347.7,125.1 L349.3,126.3 L353.7,126.5 L354.8,125.7 L349.2,124.5 L346.2,122.6 L354.3,124.1 L362.0,124.9 L367.9,129.5 L380.4,139.9 L384.8,142.4 L387.6,143.2 L387.0,144.4 L379.9,140.6 L378.0,138.4 L375.4,137.5 L373.1,138.8 L371.5,138.2 L371.5,140.1 L369.1,136.9 L365.9,137.0 L367.4,138.7 L367.2,140.2 L369.8,137.8 L371.4,141.6 L370.0,142.6 L371.9,145.9 L374.1,146.7 L374.0,144.9 L375.2,146.0 L375.7,148.2 L377.6,148.7 L379.3,151.0 L382.1,150.8 L383.8,149.9 L380.6,147.5 L376.2,146.2 L374.0,143.9 L375.9,142.9 L380.0,144.7 L380.9,146.1 L383.6,147.1 L386.0,149.2 L386.3,152.3 L388.0,153.0 L389.1,151.4 L392.4,150.4 L392.8,148.6 L397.2,149.0 L397.0,152.5 L394.0,151.5 L393.0,153.3 L396.1,154.5 L397.3,153.0 L399.3,152.2 L397.7,148.8 L396.3,148.7 L390.7,146.4 L388.1,144.9 L389.1,143.7 L396.5,147.6 L402.7,149.8 L405.0,151.5 L406.4,155.4 L408.5,159.0 L409.9,160.1 L415.5,162.2 L409.3,163.0 L409.0,162.0 L405.3,161.8 L403.7,160.8 L402.5,162.4 L400.5,163.1 L398.3,161.8 L397.5,164.8 L394.0,166.7 L393.5,168.4 L390.0,167.8 L389.4,170.1 L387.5,169.5 L386.7,170.6 L384.2,170.8 L385.1,171.8 L382.0,173.1 L379.5,171.8 L379.5,173.7 L375.0,174.0 L370.4,172.9 L371.7,174.8 L367.7,176.2 L364.1,174.2 L363.9,177.9 L360.7,178.1 L359.5,176.2 L357.5,179.3 L354.1,180.8 L352.1,178.9 L348.7,178.8 L345.9,177.9 L344.2,178.3 L340.9,172.2 L338.7,171.1 L334.8,171.7 L330.4,175.3 L329.0,178.7 L329.5,181.7 L326.6,184.6 L324.3,183.0 L323.7,187.3 L322.5,190.1 L321.2,191.0 L322.8,192.2 L323.4,194.2 L322.0,195.6 L316.0,197.0 L312.7,200.3 L311.0,204.0 L307.4,205.8 L306.6,207.8 L303.7,208.6 L298.8,212.0 L297.6,211.9 L296.7,215.5 L297.7,217.4 L293.2,217.4 L291.4,214.8 L289.0,214.6 L283.8,210.5 L284.2,207.7 L280.7,208.3 L278.3,211.1 L276.7,211.9 L275.1,214.4 L272.1,217.6 L270.8,220.8 L268.7,222.0 L266.4,222.1 L264.6,221.0 L262.7,221.6 L260.4,220.6 L254.8,221.4 L251.9,221.2 L250.1,222.3 L249.7,226.6 L250.8,228.0 L250.5,231.0 L252.0,236.6 L251.4,238.6 L253.1,242.5 L252.6,243.8 L250.5,244.8 L247.8,243.5 L245.7,244.1 L243.5,246.0 L242.5,248.8 L243.1,252.7 L240.2,256.2 L237.8,258.1 L235.5,257.4 L225.0,258.0 L227.1,255.8 L224.9,255.6 L223.3,253.0 L225.5,252.6 L222.8,251.9 L220.2,252.0 L219.4,248.3 L217.2,244.5 L215.9,243.8 L219.2,240.4 L222.0,239.8 L221.1,237.9 L218.9,237.5 L217.3,240.4 L214.3,240.6 L214.5,239.8 L212.0,239.2 L211.1,236.0 L209.2,236.5 L208.9,239.1 L206.4,240.3 L202.0,238.1 L205.6,236.5 L206.2,233.8 L203.7,233.3 L203.2,232.2 L204.6,228.3 L204.9,224.9 L207.2,219.0 L203.3,216.4 L202.4,214.6 L197.1,216.0 L195.1,215.5 L193.0,216.6 L190.4,212.9 L189.7,211.2 L188.0,210.7 L183.0,210.6 L182.9,213.2 L177.2,216.2 L175.7,215.8 L171.0,217.2 L171.1,211.4 L164.8,209.5 L162.1,209.7 L159.6,207.7 L159.6,204.9 L155.4,205.4 L153.5,201.4 L151.7,200.7 L150.0,201.4 L149.3,199.4 L147.3,197.3 L146.6,194.9 L144.4,194.3 L143.3,191.4 L141.1,193.5 L137.9,192.0 L131.7,190.4 L132.0,187.6 L133.5,187.1 L137.0,183.1 L140.9,182.7 L141.0,178.8 L141.7,176.8 L138.0,170.9 L137.8,169.3 L140.7,165.4 L139.8,163.3 L142.1,159.6 L149.7,156.6 L175.9,136.6 L178.1,134.6 L179.7,131.9 Z">
  <desc xmlns="http://www.highcharts.com/svg/namespace">
    <name>Honduras</name>
    <labelrank>5</labelrank>
    <country-abbrev>Hond.</country-abbrev>
    <subregion>Central America</subregion>
    <region-wb>Latin America &amp; Caribbean</region-wb>
    <iso-a3>HND</iso-a3>
    <iso-a2>HN</iso-a2>
    <woe-id>23424841</woe-id>
    <continent>North America</continent>
    <hc-middle-x>0.42</hc-middle-x>
    <hc-middle-y>0.47</hc-middle-y>
    <hc-key>hn</hc-key>
    <hc-a2>HN</hc-a2>
  </desc>
</path>

<path fill="#CEE3F5" stroke="#6E6E6E" stroke-width="0.4" id="PA" d="M430.8,488.5 L431.3,485.3 L428.8,480.0 L428.5,478.5 L425.9,477.5 L423.4,475.4 L428.0,471.3 L431.9,469.6 L432.9,468.3 L433.4,465.3 L432.7,460.6 L429.9,456.7 L429.3,454.7 L431.0,453.4 L431.8,450.8 L436.6,448.8 L438.7,446.8 L437.3,444.4 L434.5,443.3 L429.7,439.9 L428.3,440.5 L427.9,422.8 L428.4,421.2 L431.8,420.5 L430.9,417.0 L433.2,414.9 L438.7,417.6 L440.3,419.8 L443.0,420.3 L443.8,417.3 L445.6,417.8 L445.1,416.0 L450.2,419.8 L453.0,422.5 L454.7,423.5 L455.9,422.6 L454.4,426.3 L455.8,428.6 L453.9,429.5 L455.7,433.2 L457.4,434.2 L458.9,433.4 L460.2,434.3 L462.8,432.5 L464.1,433.4 L463.8,436.0 L460.4,434.8 L459.8,436.0 L461.0,439.1 L460.7,442.2 L462.0,443.2 L465.6,443.3 L467.7,446.0 L472.3,445.2 L474.2,445.9 L476.7,444.0 L481.9,445.8 L482.7,445.4 L482.7,442.7 L479.5,441.0 L477.9,438.5 L475.0,436.2 L478.0,436.6 L476.3,434.8 L477.5,434.2 L480.8,437.1 L479.5,437.4 L480.5,439.3 L483.3,439.6 L485.2,441.0 L489.6,447.2 L493.8,451.2 L504.8,452.5 L514.9,451.1 L524.5,447.3 L527.3,447.0 L531.7,441.9 L535.8,439.3 L541.9,436.4 L546.4,434.8 L551.9,434.3 L554.5,432.9 L557.9,432.2 L560.8,430.8 L565.3,426.1 L566.3,424.0 L568.0,424.0 L568.0,426.2 L569.7,426.6 L570.3,424.3 L571.2,424.9 L571.3,422.0 L573.8,422.6 L575.7,420.6 L577.8,419.6 L579.7,417.5 L580.0,414.3 L582.4,412.1 L586.9,411.3 L587.6,413.9 L590.2,413.8 L590.5,412.5 L596.2,413.5 L602.9,414.9 L604.7,414.2 L613.3,413.1 L613.2,414.5 L609.4,415.2 L609.4,418.7 L613.1,418.6 L616.7,420.1 L622.0,419.4 L624.8,418.4 L625.3,419.0 L630.7,420.1 L632.7,419.0 L635.0,420.0 L638.5,420.5 L641.4,422.3 L643.2,422.7 L649.4,425.6 L652.6,426.1 L653.9,427.2 L658.1,428.4 L660.8,430.5 L664.6,435.3 L666.3,436.4 L665.2,433.3 L668.3,436.1 L668.6,437.2 L671.6,440.5 L671.2,441.4 L673.3,444.4 L677.0,447.3 L677.2,446.0 L681.7,450.0 L681.3,452.1 L684.6,454.1 L689.5,454.3 L686.7,456.1 L686.9,457.7 L684.6,460.9 L684.3,463.4 L687.4,464.2 L689.0,467.1 L689.4,470.4 L690.4,472.9 L692.3,473.3 L696.9,480.9 L698.4,486.4 L700.0,488.6 L695.3,489.5 L692.8,491.4 L690.2,496.5 L692.2,499.6 L690.8,500.9 L684.3,505.2 L681.0,508.3 L679.4,508.0 L678.8,505.6 L676.6,502.2 L673.2,499.5 L671.9,501.9 L672.6,505.3 L673.7,507.4 L673.4,509.6 L671.9,511.1 L669.7,511.0 L666.4,522.6 L663.9,521.1 L660.7,517.7 L660.8,515.6 L658.9,513.7 L658.2,514.1 L653.3,509.7 L652.9,506.7 L649.8,503.3 L647.2,501.3 L647.9,499.8 L645.3,494.2 L642.1,490.8 L640.2,484.7 L641.4,482.0 L641.9,483.5 L645.3,483.9 L647.1,482.9 L649.3,479.4 L648.9,477.9 L646.0,474.8 L648.3,474.4 L648.2,472.8 L649.9,473.8 L651.7,472.5 L651.7,470.7 L652.9,468.0 L654.2,467.6 L654.6,469.7 L657.9,471.2 L660.3,475.2 L662.2,474.4 L665.8,475.2 L668.2,477.3 L665.3,474.4 L660.1,473.4 L658.7,471.8 L657.1,467.5 L657.8,466.7 L655.5,464.0 L656.0,462.3 L653.9,460.4 L655.1,462.5 L655.5,467.1 L653.5,464.5 L651.7,465.7 L651.3,467.4 L648.9,468.5 L648.7,466.9 L650.7,466.6 L649.9,463.0 L649.0,466.3 L648.2,463.6 L646.3,465.8 L645.4,463.8 L642.9,466.7 L640.9,460.9 L640.7,462.1 L642.1,466.7 L643.2,468.2 L642.0,471.0 L639.1,468.4 L638.7,465.5 L638.0,466.9 L637.0,464.6 L637.0,462.1 L635.0,459.8 L637.3,459.7 L636.2,457.0 L631.5,455.6 L630.4,453.7 L627.8,451.8 L625.5,451.3 L624.5,449.3 L622.6,447.9 L620.8,448.9 L619.4,447.6 L618.6,445.2 L612.4,442.1 L608.7,440.8 L608.7,437.3 L606.8,436.8 L608.4,438.6 L607.1,440.6 L599.7,439.6 L594.4,439.7 L590.0,440.8 L587.6,443.6 L588.7,445.5 L586.0,442.7 L586.4,444.8 L584.5,446.0 L579.7,447.0 L577.3,450.6 L578.2,454.3 L577.4,456.0 L574.1,458.1 L576.4,459.0 L580.2,457.1 L580.0,457.8 L576.6,460.8 L572.5,462.1 L572.0,463.6 L569.3,465.2 L567.6,467.3 L562.4,470.8 L555.7,474.3 L552.2,474.3 L550.6,475.0 L548.2,473.9 L544.3,478.3 L544.2,483.6 L545.1,486.9 L550.2,489.1 L552.5,494.0 L560.0,500.0 L564.4,505.4 L566.6,509.4 L567.2,511.7 L566.1,513.9 L560.6,515.5 L554.8,515.6 L550.2,517.7 L550.7,520.7 L549.2,520.9 L546.2,524.1 L544.8,523.8 L533.6,525.7 L527.3,525.7 L523.4,523.9 L525.0,520.5 L524.9,518.3 L523.7,517.6 L524.0,514.6 L521.5,512.1 L522.4,509.9 L521.2,507.7 L518.2,504.1 L519.6,503.8 L517.7,502.4 L518.6,501.0 L516.2,500.1 L515.8,498.8 L517.5,497.4 L517.2,493.2 L515.6,496.5 L513.5,496.5 L510.7,495.6 L512.0,499.1 L509.6,502.0 L510.6,502.7 L510.7,506.1 L509.7,507.6 L506.8,505.9 L501.2,504.6 L500.0,504.8 L498.7,503.2 L495.2,502.9 L496.9,501.1 L495.0,500.6 L494.5,501.6 L492.8,500.7 L492.2,498.6 L493.1,496.2 L491.5,496.2 L490.5,494.6 L491.1,490.1 L489.6,491.6 L487.2,486.9 L487.9,486.3 L484.3,480.5 L484.6,482.1 L483.3,483.7 L478.1,481.5 L474.9,480.6 L475.9,478.7 L473.7,480.6 L472.1,479.4 L469.9,479.8 L467.3,478.8 L466.0,482.2 L466.0,479.7 L463.5,480.3 L462.1,473.9 L461.3,475.7 L459.7,475.3 L459.5,473.7 L456.3,474.1 L456.6,475.4 L453.9,476.4 L452.4,475.6 L452.0,473.5 L450.8,475.1 L451.5,476.7 L448.7,477.0 L441.8,474.9 L438.1,475.2 L434.8,476.2 L432.3,478.2 L431.7,479.8 L431.9,483.7 L433.0,486.9 L431.8,489.0 Z M668.2,477.3 L669.0,478.1 L669.1,478.1 L669.1,478.1 L669.1,478.1 L669.1,478.1 L669.5,478.5 L671.0,480.7 L672.5,480.7 L669.8,478.0 L669.1,478.1 L669.1,478.1 L669.1,478.1 L669.1,478.1 Z M517.8,510.0 L516.1,511.0 L513.9,510.5 L511.0,513.0 L508.1,513.1 L509.5,511.7 L511.8,511.2 L512.9,509.8 L515.8,508.8 L518.4,509.0 Z M485.2,506.2 L486.8,510.4 L488.5,512.5 L486.7,513.3 L486.3,515.2 L488.2,518.0 L490.8,517.9 L492.5,520.6 L489.6,521.3 L488.0,520.4 L485.0,520.1 L480.5,516.3 L478.6,512.3 L479.7,512.2 L481.0,509.5 Z M462.4,479.8 L460.8,480.3 L461.2,481.8 L457.9,479.7 L459.9,478.9 Z M457.8,477.3 L457.9,478.6 L454.0,479.6 L452.5,477.7 L453.9,477.8 L456.3,476.1 Z M610.2,475.2 L608.4,475.6 L607.6,477.7 L606.7,476.0 L607.4,473.2 L608.5,472.5 Z M619.6,465.9 L620.9,468.5 L621.0,471.1 L619.9,473.3 L617.0,474.0 L617.9,477.0 L616.7,476.2 L616.1,474.0 L614.7,473.0 L615.3,471.0 L614.5,465.8 L618.3,464.9 Z M463.5,426.6 L464.7,426.4 L468.0,428.6 L464.8,430.7 L464.5,427.6 Z M460.7,427.0 L456.6,423.6 L459.5,422.3 L461.1,425.3 Z">
  <desc xmlns="http://www.highcharts.com/svg/namespace">
    <name>Panama</name>
    <labelrank>4</labelrank>
    <country-abbrev>Pan.</country-abbrev>
    <subregion>Central America</subregion>
    <region-wb>Latin America &amp; Caribbean</region-wb>
    <iso-a3>PAN</iso-a3>
    <iso-a2>PA</iso-a2>
    <woe-id>23424924</woe-id>
    <continent>North America</continent>
    <hc-middle-x>0.33</hc-middle-x>
    <hc-middle-y>0.54</hc-middle-y>
    <hc-key>pa</hc-key>
    <hc-a2>PA</hc-a2>
  </desc>
</path>

<path fill="#CEE3F5" stroke="#6E6E6E" stroke-width="0.4" id="CR" d="M325.4,392.4 L327.6,393.4 L324.8,393.7 L322.9,391.8 L327.0,392.1 Z M394.6,353.4 L396.8,356.6 L397.5,360.4 L395.6,356.5 L396.4,361.8 L397.9,360.7 L400.2,366.9 L403.1,373.5 L406.5,379.0 L415.5,390.5 L421.0,396.4 L423.8,396.2 L424.3,398.1 L427.4,402.6 L432.9,408.5 L434.1,408.1 L434.6,410.8 L435.8,412.2 L438.9,413.2 L442.2,413.3 L445.1,416.0 L445.6,417.8 L443.8,417.3 L443.0,420.3 L440.3,419.8 L438.7,417.6 L433.2,414.9 L430.9,417.0 L431.8,420.5 L428.4,421.2 L427.9,422.8 L428.3,440.5 L429.7,439.9 L434.5,443.3 L437.3,444.4 L438.7,446.8 L436.6,448.8 L431.8,450.8 L431.0,453.4 L429.3,454.7 L429.9,456.7 L432.7,460.6 L433.4,465.3 L432.9,468.3 L431.9,469.6 L428.0,471.3 L423.4,475.4 L425.9,477.5 L428.5,478.5 L428.8,480.0 L431.3,485.3 L430.8,488.5 L430.2,488.0 L430.6,485.2 L427.4,479.8 L426.3,478.6 L420.4,474.5 L418.8,472.9 L421.2,470.0 L421.2,468.5 L419.4,465.4 L421.0,464.5 L418.1,463.8 L420.0,462.6 L417.7,460.4 L414.5,461.0 L413.6,459.8 L410.8,458.9 L410.2,456.5 L407.8,455.7 L406.0,456.8 L403.2,457.0 L406.9,462.7 L412.4,464.9 L412.0,467.2 L412.8,468.1 L412.4,472.6 L409.7,472.2 L404.2,469.6 L399.0,469.6 L397.2,467.5 L393.1,463.7 L391.4,462.7 L391.2,461.3 L393.0,458.7 L394.6,458.5 L396.3,456.1 L396.4,454.5 L398.8,453.2 L395.9,453.0 L398.2,451.3 L396.9,448.7 L398.8,449.3 L396.2,446.8 L397.4,445.1 L396.2,441.9 L394.9,441.0 L391.6,436.9 L389.7,436.6 L388.8,434.3 L386.3,433.4 L382.7,429.9 L378.5,427.8 L370.5,425.2 L371.0,424.3 L369.1,422.0 L363.7,421.0 L357.5,419.3 L354.5,419.6 L350.1,416.9 L349.6,415.5 L347.2,413.5 L347.2,411.5 L349.2,408.5 L349.2,407.3 L346.2,403.3 L344.9,402.6 L345.6,400.8 L344.5,398.7 L343.2,398.3 L339.1,398.8 L342.0,397.8 L339.2,397.5 L336.9,396.5 L331.5,391.8 L327.9,389.2 L324.0,389.6 L321.2,387.6 L320.3,386.0 L321.6,393.1 L323.0,393.6 L323.5,395.6 L325.4,397.3 L331.5,399.8 L334.0,399.7 L336.3,401.7 L335.4,402.6 L336.6,403.9 L335.3,404.9 L338.5,405.5 L336.3,406.8 L334.1,410.0 L331.9,409.2 L332.4,411.3 L329.3,412.9 L328.1,416.5 L326.8,418.1 L325.5,415.4 L319.4,407.5 L316.8,405.5 L311.8,403.7 L310.4,404.4 L302.5,401.8 L301.4,402.1 L300.8,399.5 L296.0,393.7 L293.0,386.6 L292.3,383.9 L293.2,382.8 L291.5,380.8 L293.6,378.2 L294.4,378.5 L296.1,376.5 L294.5,374.3 L295.8,372.0 L296.7,372.5 L299.5,371.1 L302.7,368.3 L301.8,367.2 L299.9,369.2 L301.3,365.6 L301.1,361.0 L297.4,359.2 L296.4,359.7 L294.8,358.3 L289.9,356.0 L288.1,355.8 L291.1,354.3 L291.3,353.2 L293.5,353.0 L295.1,355.1 L295.7,353.6 L299.0,354.0 L299.7,352.0 L297.4,349.7 L298.6,348.6 L301.0,348.8 L299.4,346.8 L302.6,341.4 L304.2,340.8 L308.3,343.5 L335.0,353.1 L337.2,352.9 L345.3,347.4 L346.8,347.0 L349.4,348.6 L351.2,348.7 L355.5,350.4 L356.5,351.7 L358.8,352.3 L361.7,350.5 L363.8,354.0 L365.9,354.8 L368.5,356.7 L367.7,358.6 L369.3,360.4 L371.9,360.0 L374.7,361.2 L377.2,360.0 L381.3,363.2 L384.7,363.0 L385.9,361.8 L392.2,359.8 L393.8,358.9 L393.4,353.5 Z">
  <desc xmlns="http://www.highcharts.com/svg/namespace">
    <name>Costa Rica</name>
    <labelrank>5</labelrank>
    <country-abbrev>C.R.</country-abbrev>
    <subregion>Central America</subregion>
    <region-wb>Latin America &amp; Caribbean</region-wb>
    <iso-a3>CRI</iso-a3>
    <iso-a2>CR</iso-a2>
    <woe-id>23424791</woe-id>
    <continent>North America</continent>
    <hc-middle-x>0.56</hc-middle-x>
    <hc-middle-y>0.36</hc-middle-y>
    <hc-key>cr</hc-key>
    <hc-a2>CR</hc-a2>
  </desc>
</path>

<path fill="#CEE3F5" stroke="#6E6E6E" stroke-width="0.4" id="BZ" d="M203.3,55.2 L202.3,56.3 L202.3,51.3 L203.6,54.4 Z M204.0,45.1 L204.2,46.0 L203.1,48.5 L201.4,50.5 L200.5,49.8 L199.0,51.6 L197.7,56.9 L197.1,56.2 L198.5,50.0 L200.8,47.9 L202.5,48.2 L203.3,46.9 L202.2,44.4 Z M188.5,38.4 L187.0,38.5 L191.4,35.5 L190.9,37.0 Z M201.5,15.8 L198.8,21.9 L197.5,25.8 L196.1,27.1 L197.6,19.8 L198.9,15.9 Z M142.5,31.4 L142.5,27.3 L143.9,24.1 L147.6,22.7 L150.7,25.1 L152.2,25.2 L152.8,26.5 L155.1,28.0 L156.2,26.2 L158.9,24.0 L159.8,21.7 L161.6,20.4 L163.6,15.8 L163.5,14.5 L167.1,11.9 L167.5,9.6 L169.9,6.4 L170.9,2.2 L172.9,0.3 L174.2,0.7 L176.3,0.0 L177.3,0.7 L180.9,0.4 L181.9,1.4 L181.0,2.5 L177.6,5.0 L178.4,6.4 L180.5,5.5 L178.6,8.6 L183.1,6.1 L186.0,7.1 L190.6,5.7 L188.4,7.9 L190.6,7.7 L190.9,13.2 L190.5,17.5 L187.9,24.4 L187.1,24.9 L185.2,28.6 L184.9,33.7 L183.8,37.5 L182.3,39.7 L181.8,42.7 L184.7,45.2 L187.0,45.9 L186.4,46.8 L184.1,46.6 L183.5,47.7 L181.6,53.9 L180.9,61.5 L181.8,65.6 L183.2,66.1 L184.3,68.8 L184.6,71.9 L183.4,72.2 L181.6,74.9 L182.9,78.6 L180.7,80.5 L180.5,86.1 L179.2,86.9 L176.5,90.8 L177.4,91.7 L176.8,93.7 L174.0,98.1 L172.7,98.7 L170.4,102.1 L170.0,103.7 L167.4,104.2 L164.8,103.2 L164.3,104.6 L160.7,105.7 L160.4,109.2 L158.3,110.6 L157.6,112.1 L155.6,113.7 L155.4,115.1 L152.1,117.2 L152.7,121.4 L151.0,122.0 L147.0,121.0 L140.8,121.0 L138.5,121.9 L138.2,118.4 L139.5,107.6 L140.8,93.1 L142.6,67.8 L142.7,54.5 Z">
  <desc xmlns="http://www.highcharts.com/svg/namespace">
    <name>Belize</name>
    <labelrank>6</labelrank>
    <country-abbrev>Belize</country-abbrev>
    <subregion>Central America</subregion>
    <region-wb>Latin America &amp; Caribbean</region-wb>
    <iso-a3>BLZ</iso-a3>
    <iso-a2>BZ</iso-a2>
    <woe-id>23424760</woe-id>
    <continent>North America</continent>
    <hc-middle-x>0.39</hc-middle-x>
    <hc-middle-y>0.40</hc-middle-y>
    <hc-key>bz</hc-key>
    <hc-a2>BZ</hc-a2>
  </desc>
</path>

<path fill="#CEE3F5" stroke="#6E6E6E" stroke-width="0.4" id="NI" d="M434.2,191.3 L431.0,191.5 L432.6,189.3 L433.9,188.9 Z M299.4,346.8 L295.5,345.4 L293.8,341.6 L288.9,336.1 L285.8,334.6 L283.5,332.1 L278.0,328.0 L277.4,326.3 L274.3,324.0 L270.0,322.1 L268.1,319.4 L262.6,315.2 L260.5,311.3 L258.3,309.4 L256.4,305.6 L253.7,302.8 L251.9,299.8 L250.3,295.4 L248.7,293.7 L239.3,288.0 L234.7,284.3 L231.5,282.9 L234.9,283.7 L231.3,281.2 L229.3,279.1 L223.6,275.0 L218.5,269.2 L218.1,267.2 L215.1,266.4 L209.7,263.1 L207.9,261.0 L208.8,258.0 L212.6,254.5 L214.3,254.7 L217.9,258.0 L219.4,260.8 L221.4,261.2 L226.1,260.9 L222.5,260.5 L222.5,259.4 L225.0,258.0 L235.5,257.4 L237.8,258.1 L240.2,256.2 L243.1,252.7 L242.5,248.8 L243.5,246.0 L245.7,244.1 L247.8,243.5 L250.5,244.8 L252.6,243.8 L253.1,242.5 L251.4,238.6 L252.0,236.6 L250.5,231.0 L250.8,228.0 L249.7,226.6 L250.1,222.3 L251.9,221.2 L254.8,221.4 L260.4,220.6 L262.7,221.6 L264.6,221.0 L266.4,222.1 L268.7,222.0 L270.8,220.8 L272.1,217.6 L275.1,214.4 L276.7,211.9 L278.3,211.1 L280.7,208.3 L284.2,207.7 L283.8,210.5 L289.0,214.6 L291.4,214.8 L293.2,217.4 L297.7,217.4 L296.7,215.5 L297.6,211.9 L298.8,212.0 L303.7,208.6 L306.6,207.8 L307.4,205.8 L311.0,204.0 L312.7,200.3 L316.0,197.0 L322.0,195.6 L323.4,194.2 L322.8,192.2 L321.2,191.0 L322.5,190.1 L323.7,187.3 L324.3,183.0 L326.6,184.6 L329.5,181.7 L329.0,178.7 L330.4,175.3 L334.8,171.7 L338.7,171.1 L340.9,172.2 L344.2,178.3 L345.9,177.9 L348.7,178.8 L352.1,178.9 L354.1,180.8 L357.5,179.3 L359.5,176.2 L360.7,178.1 L363.9,177.9 L364.1,174.2 L367.7,176.2 L371.7,174.8 L370.4,172.9 L375.0,174.0 L379.5,173.7 L379.5,171.8 L382.0,173.1 L385.1,171.8 L384.2,170.8 L386.7,170.6 L387.5,169.5 L389.4,170.1 L390.0,167.8 L393.5,168.4 L394.0,166.7 L397.5,164.8 L398.3,161.8 L400.5,163.1 L402.5,162.4 L403.7,160.8 L405.3,161.8 L409.0,162.0 L409.3,163.0 L415.5,162.2 L414.0,163.6 L413.3,162.8 L410.9,165.8 L408.5,170.4 L407.5,166.4 L404.7,167.7 L402.7,170.4 L404.0,173.2 L406.3,174.8 L408.0,172.9 L410.9,184.5 L413.2,190.9 L413.3,194.3 L412.1,197.3 L406.2,206.8 L404.1,208.4 L402.6,211.2 L399.9,221.5 L398.9,226.9 L398.8,231.2 L397.1,236.6 L396.7,242.7 L399.8,260.6 L398.4,273.0 L398.4,275.8 L401.0,280.8 L400.8,284.2 L395.0,285.4 L395.7,283.6 L394.2,280.8 L394.0,276.6 L396.3,276.8 L397.4,275.3 L398.1,265.6 L394.8,264.7 L393.5,266.2 L395.0,268.6 L396.2,273.4 L392.3,276.3 L388.1,277.5 L387.7,280.6 L389.6,280.7 L390.3,283.2 L389.7,286.1 L390.9,287.3 L392.4,287.0 L392.6,289.5 L394.0,286.2 L395.1,286.7 L393.0,291.0 L392.0,296.6 L392.4,302.6 L390.3,299.6 L391.4,298.6 L390.6,296.6 L389.6,300.7 L388.3,301.1 L388.7,305.6 L385.3,309.2 L387.6,311.8 L389.6,312.2 L389.9,309.9 L391.5,310.1 L393.8,318.6 L393.8,321.2 L388.9,323.8 L387.4,329.2 L386.1,329.0 L384.0,332.4 L384.1,337.2 L385.6,343.3 L389.6,350.8 L392.2,352.9 L394.6,353.4 L393.4,353.5 L393.8,358.9 L392.2,359.8 L385.9,361.8 L384.7,363.0 L381.3,363.2 L377.2,360.0 L374.7,361.2 L371.9,360.0 L369.3,360.4 L367.7,358.6 L368.5,356.7 L365.9,354.8 L363.8,354.0 L361.7,350.5 L358.8,352.3 L356.5,351.7 L355.5,350.4 L351.2,348.7 L349.4,348.6 L346.8,347.0 L345.3,347.4 L337.2,352.9 L335.0,353.1 L308.3,343.5 L304.2,340.8 L302.6,341.4 Z">
  <desc xmlns="http://www.highcharts.com/svg/namespace">
    <name>Nicaragua</name>
    <labelrank>5</labelrank>
    <country-abbrev>Nic.</country-abbrev>
    <subregion>Central America</subregion>
    <region-wb>Latin America &amp; Caribbean</region-wb>
    <iso-a3>NIC</iso-a3>
    <iso-a2>NI</iso-a2>
    <woe-id>23424915</woe-id>
    <continent>North America</continent>
    <hc-middle-x>0.55</hc-middle-x>
    <hc-middle-y>0.50</hc-middle-y>
    <hc-key>ni</hc-key>
    <hc-a2>NI</hc-a2>
  </desc>
</path>

<path fill="#CEE3F5" stroke="#6E6E6E" stroke-width="0.4" id="GT" d="M152.7,121.4 L154.9,123.0 L158.4,123.1 L165.7,128.1 L165.2,130.5 L166.9,130.3 L169.2,126.0 L169.2,124.1 L172.0,123.8 L166.1,118.7 L166.7,118.0 L169.2,119.3 L173.8,123.2 L178.5,125.4 L182.5,128.8 L184.0,129.5 L182.8,130.9 L179.7,131.9 L178.1,134.6 L175.9,136.6 L149.7,156.6 L142.1,159.6 L139.8,163.3 L140.7,165.4 L137.8,169.3 L138.0,170.9 L141.7,176.8 L141.0,178.8 L140.9,182.7 L137.0,183.1 L133.5,187.1 L132.0,187.6 L131.7,190.4 L130.0,189.0 L128.5,190.2 L126.0,189.8 L123.5,191.9 L122.2,190.5 L121.2,191.7 L121.9,193.2 L120.8,194.4 L123.0,196.3 L123.9,199.2 L118.9,200.3 L115.6,202.7 L113.6,206.2 L113.2,208.3 L109.8,206.9 L107.8,207.6 L101.2,212.5 L100.1,214.5 L97.7,216.1 L96.9,219.0 L97.9,222.2 L83.8,215.9 L79.3,214.2 L75.7,213.2 L69.9,212.4 L60.6,213.1 L54.5,212.9 L48.9,212.2 L42.0,210.7 L31.3,205.7 L21.8,199.8 L15.2,194.8 L8.9,188.8 L0.0,182.1 L1.8,181.0 L3.9,176.4 L4.0,174.8 L2.8,169.6 L4.6,165.5 L4.7,161.1 L7.0,160.1 L8.4,157.5 L2.7,149.7 L2.7,147.2 L24.2,112.2 L25.5,111.2 L81.6,112.2 L83.3,111.8 L82.8,110.0 L84.4,107.9 L82.8,106.6 L83.6,101.1 L86.6,98.4 L86.0,95.9 L82.3,95.3 L79.3,92.5 L75.3,92.7 L76.2,91.1 L74.6,90.5 L75.3,87.6 L73.8,87.8 L73.8,84.8 L70.9,80.3 L66.6,77.5 L63.5,76.4 L60.4,74.1 L59.3,74.1 L56.1,72.0 L53.7,67.2 L51.5,66.7 L49.1,62.9 L47.6,62.1 L46.2,59.0 L42.9,58.9 L42.5,57.8 L39.4,56.6 L40.0,55.8 L59.8,56.4 L60.3,30.6 L61.6,29.9 L142.5,31.4 L142.7,54.5 L142.6,67.8 L140.8,93.1 L139.5,107.6 L138.2,118.4 L138.5,121.9 L140.8,121.0 L147.0,121.0 L151.0,122.0 Z">
  <desc xmlns="http://www.highcharts.com/svg/namespace">
    <name>Guatemala</name>
    <labelrank>3</labelrank>
    <country-abbrev>Guat.</country-abbrev>
    <subregion>Central America</subregion>
    <region-wb>Latin America &amp; Caribbean</region-wb>
    <iso-a3>GTM</iso-a3>
    <iso-a2>GT</iso-a2>
    <woe-id>23424834</woe-id>
    <continent>North America</continent>
    <hc-middle-x>0.47</hc-middle-x>
    <hc-middle-y>0.62</hc-middle-y>
    <hc-key>gt</hc-key>
    <hc-a2>GT</hc-a2>
  </desc>
</path>

<path fill="#CEE3F5" stroke="#6E6E6E" stroke-width="0.4" id="SV" d="M202.0,238.1 L201.0,236.5 L199.4,240.0 L203.1,242.9 L202.8,244.7 L198.5,247.1 L196.8,249.7 L190.5,249.2 L184.0,249.6 L173.6,248.4 L174.6,246.7 L172.4,244.7 L172.9,246.5 L169.3,245.6 L168.2,244.0 L165.5,243.7 L161.0,244.1 L163.0,245.0 L166.7,244.6 L169.0,246.6 L166.1,246.3 L171.8,247.7 L171.6,249.0 L169.4,247.7 L157.5,245.4 L144.8,239.4 L139.4,236.0 L136.3,234.6 L130.2,233.5 L123.7,233.5 L116.7,231.5 L110.8,231.8 L109.5,228.5 L104.3,225.3 L97.9,222.2 L96.9,219.0 L97.7,216.1 L100.1,214.5 L101.2,212.5 L107.8,207.6 L109.8,206.9 L113.2,208.3 L113.6,206.2 L115.6,202.7 L118.9,200.3 L123.9,199.2 L123.0,196.3 L120.8,194.4 L121.9,193.2 L121.2,191.7 L122.2,190.5 L123.5,191.9 L126.0,189.8 L128.5,190.2 L130.0,189.0 L131.7,190.4 L137.9,192.0 L141.1,193.5 L143.3,191.4 L144.4,194.3 L146.6,194.9 L147.3,197.3 L149.3,199.4 L150.0,201.4 L151.7,200.7 L153.5,201.4 L155.4,205.4 L159.6,204.9 L159.6,207.7 L162.1,209.7 L164.8,209.5 L171.1,211.4 L171.0,217.2 L175.7,215.8 L177.2,216.2 L182.9,213.2 L183.0,210.6 L188.0,210.7 L189.7,211.2 L190.4,212.9 L193.0,216.6 L195.1,215.5 L197.1,216.0 L202.4,214.6 L203.3,216.4 L207.2,219.0 L204.9,224.9 L204.6,228.3 L203.2,232.2 L203.7,233.3 L206.2,233.8 L205.6,236.5 Z">
  <desc xmlns="http://www.highcharts.com/svg/namespace">
    <name>El Salvador</name>
    <labelrank>6</labelrank>
    <country-abbrev>El. S.</country-abbrev>
    <subregion>Central America</subregion>
    <region-wb>Latin America &amp; Caribbean</region-wb>
    <iso-a3>SLV</iso-a3>
    <iso-a2>SV</iso-a2>
    <woe-id>23424807</woe-id>
    <continent>North America</continent>
    <hc-middle-x>0.45</hc-middle-x>
    <hc-middle-y>0.47</hc-middle-y>
    <hc-key>sv</hc-key>
    <hc-a2>SV</hc-a2>
  </desc>
</path>
</g>

<text x="350" y="714" text-anchor="middle" font-family="Verdana" font-size="8" stroke-opacity="0.6">Copyright (c) 2020 Highsoft AS, Based on data from Natural Earth</text>

</svg>