<?xml version="1.0" encoding="utf-8" standalone="no"?>
<!DOCTYPE svg PUBLIC "-//W3C//DTD SVG 1.1//EN" "http://www.w3.org/Graphics/SVG/1.1/DTD/svg11.dtd">

<svg version="1.1" height="700pt" width="700pt" xmlns="http://www.w3.org/2000/svg" xmlns:xlink="http://www.w3.org/1999/xlink">
<desc>
Map version: 1.1.3
Copyright (c) 2020 Highsoft AS, Based on data from Natural Earth
</desc>
<title>Nordic Countries</title>
<g id="admin0">

<path fill="#CEE3F5" stroke="#6E6E6E" stroke-width="0.4" id="DK" d="M610.1,496.0 L614.9,496.6 L615.8,494.9 L618.2,496.4 L618.1,498.5 L615.2,500.4 L608.8,500.2 L608.4,497.1 Z M593.5,501.3 L597.0,502.2 L597.1,504.2 L595.2,504.3 Z M603.1,501.6 L604.3,501.2 L605.3,494.2 L606.3,502.3 Z M645.4,471.3 L649.0,471.4 L649.5,474.1 L644.5,474.7 L643.4,470.8 Z M569.8,473.5 L570.7,476.2 L569.2,479.4 L567.3,478.0 Z M589.0,494.9 L595.1,489.7 L602.0,491.6 L603.6,496.8 L601.9,498.5 L597.8,499.1 L593.1,498.0 L592.4,496.3 Z M567.5,474.6 L566.8,478.4 L568.8,481.4 L564.3,479.6 L565.6,472.0 L573.3,467.6 L574.3,465.6 L575.5,457.8 L577.7,456.6 L580.5,452.2 L580.3,456.0 L582.5,457.8 L584.1,461.2 L584.0,468.0 L587.7,473.5 L592.3,471.8 L594.8,472.4 L594.5,477.4 L593.2,480.4 L590.3,477.7 L589.6,481.1 L591.7,485.0 L588.6,488.0 L591.1,488.7 L587.2,495.8 L591.3,498.9 L589.7,501.4 L593.7,503.3 L594.9,505.7 L592.5,504.9 L591.8,507.7 L584.5,509.0 L582.8,510.0 L581.2,505.8 L579.6,507.9 L578.6,506.0 L581.2,505.6 L578.2,500.9 L576.5,501.7 L574.0,500.2 L571.7,501.1 L570.9,496.4 L572.4,494.1 L569.9,491.5 L567.8,491.5 L564.7,484.0 L564.4,481.7 L566.5,482.7 L569.1,481.6 L571.5,482.5 L570.5,479.8 L571.5,475.9 L576.1,477.4 L572.9,473.4 L574.7,469.9 L576.9,469.9 L577.6,467.0 L573.1,471.1 L571.1,470.8 Z M609.9,481.0 L609.9,475.5 L608.0,475.8 L610.5,471.2 L615.1,470.7 L615.0,473.3 L617.9,476.4 L618.7,479.2 L616.5,478.9 L616.2,482.9 L619.2,483.1 L619.5,485.0 L617.2,488.5 L621.3,490.5 L619.8,496.6 L616.0,494.8 L616.6,492.4 L612.4,490.2 L608.1,491.9 L605.0,490.0 L606.0,489.0 L604.0,486.5 L600.7,484.6 L603.7,483.1 L606.4,478.0 Z">
  <desc xmlns="http://www.highcharts.com/svg/namespace">
    <name>Denmark</name>
    <labelrank>4</labelrank>
    <country-abbrev>Den.</country-abbrev>
    <subregion>Northern Europe</subregion>
    <region-wb>Europe &amp; Central Asia</region-wb>
    <iso-a3>DNK</iso-a3>
    <iso-a2>DK</iso-a2>
    <woe-id>23424796</woe-id>
    <continent>Europe</continent>
    <hc-middle-x>0.18</hc-middle-x>
    <hc-middle-y>0.58</hc-middle-y>
    <hc-key>dk</hc-key>
    <hc-a2>DK</hc-a2>
  </desc>
</path>

<path fill="#CEE3F5" stroke="#6E6E6E" stroke-width="0.4" id="FO" d="M384.4,425.4 L384.6,427.5 L382.0,425.5 L384.0,425.0 L383.8,422.2 L387.4,424.8 L388.7,428.3 Z M388.9,421.8 L390.0,419.8 L391.4,422.0 L389.0,422.0 L389.1,426.0 L384.8,422.1 Z">
  <desc xmlns="http://www.highcharts.com/svg/namespace">
    <name>Faroe Islands</name>
    <labelrank>6</labelrank>
    <country-abbrev>Faeroe Is.</country-abbrev>
    <subregion>Northern Europe</subregion>
    <region-wb>Europe &amp; Central Asia</region-wb>
    <iso-a3>FRO</iso-a3>
    <iso-a2>FO</iso-a2>
    <woe-id>23424816</woe-id>
    <continent>Europe</continent>
    <hc-middle-x>0.40</hc-middle-x>
    <hc-middle-y>0.72</hc-middle-y>
    <hc-key>fo</hc-key>
    <hc-a2>FO</hc-a2>
  </desc>
</path>

<path fill="#CEE3F5" stroke="#6E6E6E" stroke-width="0.4" id="GL" d="M59.6,230.3 L51.8,227.0 L53.0,223.8 L49.7,222.0 L50.3,219.6 L55.3,222.7 L54.9,221.0 L58.8,221.1 L61.0,225.6 L63.9,226.8 L66.8,224.8 L65.4,223.2 L68.7,221.1 L70.8,218.3 L72.4,219.5 L71.9,223.4 L74.8,223.6 L76.2,218.1 L72.3,218.4 L78.6,210.4 L80.9,210.0 L82.7,211.6 L82.5,207.8 L85.6,207.2 L81.0,205.9 L74.4,198.8 L74.8,195.2 L73.1,190.5 L70.3,187.6 L69.7,184.7 L70.6,179.5 L75.0,180.2 L76.9,183.6 L80.3,186.2 L81.4,188.4 L83.0,196.1 L86.6,201.3 L89.7,198.4 L85.9,198.4 L85.7,194.8 L87.3,196.8 L89.2,195.2 L85.7,192.7 L89.0,191.4 L90.8,195.2 L90.8,192.8 L87.7,185.4 L88.9,185.1 L90.9,189.2 L93.1,189.4 L90.7,186.6 L92.3,185.8 L88.2,183.9 L87.5,182.5 L93.2,182.5 L92.7,180.9 L86.8,181.6 L86.4,180.6 L88.0,179.9 L85.8,180.4 L84.1,179.4 L85.3,175.7 L86.8,175.8 L89.3,178.5 L89.1,179.4 L90.2,178.9 L92.9,179.2 L95.3,181.0 L94.8,178.9 L89.4,178.2 L87.1,175.2 L89.8,174.7 L95.3,177.1 L97.1,176.1 L93.5,175.4 L89.2,169.8 L93.1,168.9 L89.6,168.2 L86.2,168.8 L85.3,166.5 L84.4,170.0 L82.6,171.2 L78.2,169.8 L77.5,167.1 L75.3,166.6 L76.6,161.4 L76.2,159.7 L78.6,160.2 L79.2,157.1 L82.3,158.6 L81.5,156.3 L88.1,155.3 L89.6,152.2 L87.9,152.4 L88.5,149.0 L90.9,150.8 L94.5,149.2 L94.6,147.2 L96.6,147.7 L97.2,144.8 L95.4,141.7 L96.1,144.1 L94.6,143.8 L93.8,141.2 L95.1,141.1 L94.7,140.4 L99.0,139.3 L98.1,138.2 L100.7,137.0 L99.0,135.3 L99.8,132.5 L100.4,135.0 L101.4,132.6 L100.5,130.5 L102.8,130.2 L103.7,127.6 L105.2,128.2 L104.4,125.4 L105.7,124.8 L104.5,122.8 L108.3,120.8 L105.1,120.9 L101.3,119.2 L107.6,120.0 L106.8,117.7 L109.3,119.4 L108.5,116.6 L110.6,117.2 L110.9,111.9 L110.1,110.5 L112.5,110.7 L112.8,108.1 L110.7,102.3 L112.6,101.9 L113.0,96.2 L115.3,96.8 L118.5,91.9 L116.0,90.3 L117.6,87.0 L115.4,86.7 L117.0,85.4 L116.0,84.3 L116.8,82.1 L114.4,80.5 L116.1,77.8 L112.8,72.5 L113.4,71.3 L110.7,70.1 L111.8,69.1 L110.9,65.9 L107.3,67.5 L105.6,67.1 L106.4,64.2 L105.7,63.0 L103.4,64.8 L102.2,61.8 L99.9,63.6 L99.5,60.7 L102.5,60.3 L101.2,57.4 L97.6,59.0 L98.9,54.9 L96.2,54.7 L95.3,60.4 L91.7,51.5 L92.7,50.7 L93.1,43.4 L94.2,43.0 L98.8,44.5 L100.7,47.1 L102.4,46.1 L99.6,42.9 L98.2,38.2 L98.6,36.9 L102.2,36.4 L97.7,35.9 L98.5,30.3 L101.2,29.2 L102.8,29.7 L106.5,33.4 L108.3,38.1 L110.7,40.4 L112.1,44.4 L113.3,45.2 L110.8,39.7 L109.9,39.1 L108.7,35.2 L112.2,36.6 L116.0,42.3 L117.3,42.0 L118.9,43.6 L121.3,40.8 L119.9,37.3 L116.5,37.5 L114.1,35.2 L115.9,32.3 L113.6,34.1 L111.2,32.8 L110.5,27.7 L114.2,29.1 L115.4,28.3 L112.6,27.3 L111.7,24.8 L115.6,25.3 L112.9,24.0 L111.2,22.0 L113.3,20.9 L112.0,19.9 L111.9,16.9 L113.7,15.5 L114.0,12.4 L116.7,11.8 L120.7,9.6 L122.7,11.4 L124.9,11.7 L125.8,14.6 L127.5,13.8 L132.2,17.0 L135.8,15.9 L139.5,17.8 L142.5,20.7 L143.4,20.7 L144.7,23.5 L149.5,22.2 L153.4,21.6 L157.8,16.8 L160.7,14.7 L163.1,15.8 L161.2,13.1 L158.7,12.6 L159.1,9.8 L157.0,8.9 L158.0,6.3 L160.5,4.4 L163.7,4.7 L165.8,3.1 L167.2,4.6 L168.3,4.1 L169.3,5.4 L170.1,4.4 L171.9,5.0 L175.7,3.1 L178.4,4.3 L180.5,3.8 L178.4,7.3 L181.0,4.2 L182.8,4.2 L184.0,6.3 L183.5,9.5 L186.4,9.3 L188.3,6.0 L191.3,5.2 L193.3,0.6 L194.6,0.0 L198.8,0.6 L200.1,4.2 L198.0,7.0 L198.9,10.2 L198.1,13.9 L199.0,12.3 L199.5,9.3 L198.9,8.3 L201.0,4.6 L200.8,1.0 L203.8,1.2 L209.8,3.2 L209.3,4.6 L211.3,3.5 L212.4,5.0 L213.3,4.0 L215.6,4.6 L215.7,6.0 L214.3,10.0 L211.8,13.2 L209.3,15.3 L206.9,18.1 L207.5,18.8 L208.6,17.1 L212.6,14.9 L214.7,12.2 L215.4,15.2 L216.5,16.9 L216.9,21.6 L216.5,24.0 L217.6,22.2 L217.1,20.1 L217.8,16.6 L219.6,19.9 L221.3,19.3 L221.1,14.2 L224.1,7.8 L227.9,11.7 L227.4,13.7 L230.2,22.9 L229.5,24.6 L229.8,28.3 L230.5,29.0 L232.5,28.6 L232.3,25.5 L232.8,24.3 L234.6,24.0 L234.5,22.2 L236.1,20.6 L237.1,20.5 L239.0,22.5 L238.2,20.7 L239.1,19.7 L238.3,17.4 L238.6,15.9 L237.9,11.8 L238.2,10.8 L246.0,15.6 L244.4,20.8 L245.9,18.2 L246.1,16.3 L247.0,16.3 L248.5,21.0 L247.6,23.9 L247.8,25.1 L249.1,22.6 L248.9,21.7 L250.2,19.0 L248.6,16.5 L239.5,9.3 L238.4,9.4 L237.7,7.9 L237.9,6.1 L239.2,8.1 L238.5,5.8 L240.8,5.1 L241.6,8.0 L244.7,11.2 L242.1,7.2 L242.1,5.5 L243.3,5.0 L243.6,6.5 L244.4,5.4 L247.4,8.5 L246.0,5.7 L248.3,6.8 L248.1,5.5 L249.5,5.8 L250.2,7.1 L251.0,13.0 L253.5,14.8 L254.0,16.3 L253.6,19.4 L254.6,18.0 L254.6,14.3 L258.7,16.0 L255.8,13.5 L260.4,13.9 L258.7,11.9 L257.1,11.1 L258.0,8.4 L258.8,7.2 L260.1,9.1 L260.2,7.6 L261.7,6.7 L262.8,8.6 L263.7,6.8 L266.8,8.0 L269.1,7.5 L269.3,10.5 L269.7,8.0 L273.1,8.2 L273.2,9.5 L276.8,9.9 L280.7,12.6 L281.0,13.7 L286.4,18.3 L285.1,19.8 L274.2,18.7 L273.6,19.1 L269.7,18.8 L268.1,19.6 L261.9,19.1 L261.6,21.1 L263.2,19.9 L265.4,20.4 L265.6,22.2 L266.5,20.2 L268.0,20.0 L270.9,20.6 L275.5,19.3 L281.5,22.0 L283.5,22.0 L286.9,21.0 L287.6,22.2 L287.4,24.4 L286.0,27.1 L287.7,26.4 L290.6,28.1 L291.3,29.8 L291.9,29.0 L294.7,32.8 L294.4,34.2 L291.8,36.4 L291.2,38.1 L287.3,38.7 L271.1,38.1 L270.0,36.7 L270.6,39.1 L265.2,40.0 L261.8,41.5 L261.1,44.3 L262.6,45.0 L264.7,42.5 L267.2,42.6 L270.4,41.8 L270.7,43.0 L272.6,41.3 L276.3,40.9 L284.4,44.0 L283.5,48.0 L278.4,50.3 L277.0,51.7 L277.5,53.9 L280.2,51.8 L283.5,50.7 L286.0,49.1 L286.7,49.8 L288.4,44.0 L293.4,43.4 L293.9,45.5 L293.7,49.6 L292.5,54.4 L288.7,61.2 L287.8,61.7 L285.6,65.3 L283.8,69.3 L284.5,69.3 L286.7,65.3 L289.3,63.9 L291.6,60.6 L292.9,60.0 L293.9,57.7 L296.7,54.3 L296.7,51.9 L299.0,52.9 L297.5,57.7 L300.0,55.4 L303.3,57.8 L305.4,55.0 L305.4,53.3 L306.5,53.0 L306.5,50.8 L308.3,50.2 L308.5,49.3 L313.7,49.6 L316.2,51.5 L319.2,52.9 L321.2,56.2 L319.1,58.9 L318.1,61.7 L315.7,65.1 L312.1,65.7 L313.2,67.2 L312.9,69.8 L309.7,71.1 L309.3,72.4 L306.7,72.6 L304.1,72.1 L300.8,73.6 L299.1,73.6 L296.4,71.6 L293.2,73.8 L293.2,75.3 L296.3,72.2 L300.7,75.3 L303.2,75.0 L304.6,73.6 L306.0,75.7 L308.1,77.2 L305.8,80.8 L303.0,80.7 L301.0,81.7 L295.8,79.5 L292.9,83.9 L292.2,86.5 L293.2,90.6 L295.0,88.9 L295.9,90.3 L294.1,96.5 L294.4,97.9 L296.2,99.1 L296.0,101.3 L293.7,101.8 L292.3,103.5 L291.9,107.2 L290.0,106.4 L289.3,108.0 L287.9,107.7 L287.8,110.8 L285.5,117.6 L284.9,121.3 L283.5,122.7 L281.4,128.7 L283.5,129.4 L284.3,124.6 L287.0,123.6 L290.0,127.4 L292.4,128.7 L293.8,131.1 L292.1,132.8 L289.6,129.3 L286.1,129.7 L288.0,131.9 L287.1,135.1 L290.2,136.2 L291.3,138.9 L292.9,139.5 L293.0,136.9 L295.2,137.6 L296.1,139.2 L296.1,144.9 L294.2,149.0 L292.4,146.3 L290.9,146.3 L288.8,144.3 L286.1,143.6 L280.0,148.6 L278.1,144.4 L277.7,146.4 L275.6,147.2 L277.1,149.6 L278.1,148.6 L280.0,151.2 L279.3,156.4 L279.9,157.1 L283.1,155.8 L284.9,157.6 L287.5,157.2 L288.5,159.8 L285.5,162.2 L277.3,161.3 L277.9,162.1 L284.0,162.7 L287.0,163.5 L289.5,167.6 L288.1,168.5 L289.1,171.3 L288.4,177.4 L285.9,178.7 L284.8,174.9 L282.2,175.6 L279.9,172.8 L277.9,169.3 L275.2,167.9 L278.1,170.6 L279.2,173.9 L280.7,175.0 L282.7,178.6 L279.3,178.6 L282.0,180.1 L280.4,187.7 L283.5,187.7 L285.9,189.7 L287.4,188.0 L288.1,191.1 L289.6,192.0 L287.2,196.1 L282.8,195.4 L282.3,192.2 L277.6,191.1 L274.8,191.5 L273.0,193.6 L271.5,197.7 L270.2,198.3 L272.6,199.8 L274.9,199.0 L279.4,202.8 L281.7,203.2 L280.3,205.4 L279.4,211.3 L273.9,209.9 L273.5,211.8 L269.0,214.0 L264.7,211.4 L260.5,206.0 L260.8,203.7 L263.2,204.1 L260.8,201.7 L258.6,203.2 L257.8,206.7 L255.4,204.9 L256.2,207.4 L252.9,207.2 L249.9,210.6 L247.3,210.7 L245.8,208.3 L243.9,208.0 L241.7,204.4 L242.3,207.4 L245.8,209.6 L243.7,212.1 L241.8,210.6 L238.8,210.4 L243.6,212.7 L245.5,211.2 L248.0,211.6 L252.9,214.9 L250.7,218.2 L248.6,217.6 L246.5,219.3 L242.0,220.3 L246.9,220.5 L249.4,219.0 L253.6,223.0 L253.7,225.8 L250.3,227.2 L245.6,226.6 L249.7,228.5 L253.7,228.0 L254.9,230.3 L257.8,232.2 L258.4,234.0 L261.2,236.2 L260.6,237.0 L264.5,239.9 L260.6,243.0 L260.7,244.4 L263.7,242.4 L264.5,245.2 L265.3,243.2 L267.8,243.4 L264.0,246.0 L263.2,248.2 L263.8,252.1 L265.8,248.0 L268.2,248.3 L267.2,252.6 L267.8,259.2 L266.6,261.6 L267.7,263.5 L266.0,265.9 L267.8,266.7 L264.4,269.3 L264.1,267.2 L261.6,267.8 L262.3,260.2 L260.5,262.3 L259.7,267.8 L255.2,267.1 L251.9,263.2 L250.8,259.3 L251.2,253.9 L249.2,249.9 L249.7,248.2 L246.5,248.6 L244.4,244.1 L242.8,242.8 L237.0,242.1 L232.1,232.5 L229.4,231.3 L228.5,232.4 L231.1,234.4 L234.4,238.2 L232.0,239.7 L237.4,243.5 L243.3,244.8 L244.7,246.9 L243.0,250.8 L237.0,253.5 L234.3,253.7 L224.4,250.8 L227.1,253.2 L223.3,258.6 L217.3,259.0 L216.7,260.3 L223.2,259.6 L222.9,262.3 L233.1,262.3 L235.4,264.9 L232.6,266.1 L231.0,265.0 L227.3,267.2 L223.8,268.1 L222.7,266.8 L219.4,266.9 L223.1,269.5 L225.8,269.1 L227.5,270.9 L228.9,267.7 L231.5,266.4 L234.7,268.3 L242.2,265.5 L242.3,268.1 L243.9,266.7 L247.1,269.6 L252.9,273.2 L260.8,274.2 L262.7,273.7 L260.4,277.0 L257.0,276.7 L255.5,280.4 L253.7,278.2 L253.5,282.4 L251.3,282.3 L249.4,284.4 L247.5,283.6 L246.9,285.8 L244.8,286.4 L242.8,284.8 L243.1,287.9 L240.1,288.4 L238.2,291.2 L235.2,290.2 L236.2,292.8 L229.3,296.8 L226.1,296.0 L222.1,298.3 L216.4,296.6 L215.9,298.7 L213.8,297.2 L209.4,299.6 L207.6,297.8 L205.1,301.0 L202.8,298.3 L202.7,296.2 L200.6,298.0 L202.8,300.1 L201.3,301.2 L192.5,300.8 L187.9,298.3 L188.7,295.7 L186.7,294.7 L185.8,287.3 L184.1,288.9 L185.7,292.6 L185.5,298.6 L183.3,301.9 L182.2,300.8 L173.6,305.0 L170.8,310.9 L164.8,313.2 L164.8,316.6 L159.4,319.4 L159.5,317.6 L155.8,322.7 L150.7,323.5 L148.2,321.6 L147.0,324.8 L139.0,327.4 L141.0,322.9 L138.5,325.6 L134.8,327.7 L134.5,323.0 L133.0,325.7 L133.7,329.1 L131.9,330.7 L132.3,326.0 L129.9,321.4 L129.8,319.3 L136.4,315.8 L133.3,314.9 L130.2,312.2 L132.3,315.7 L129.8,315.2 L127.7,320.4 L124.0,319.8 L125.7,322.4 L123.4,325.1 L121.7,323.5 L113.5,322.6 L113.1,319.5 L110.0,321.9 L108.8,326.8 L105.3,326.9 L103.0,329.2 L101.1,325.4 L99.7,327.1 L97.7,324.6 L95.8,328.5 L97.7,333.5 L93.9,339.9 L91.2,340.3 L93.3,343.6 L89.9,345.5 L91.3,346.5 L90.5,350.3 L86.9,353.0 L83.8,351.3 L82.0,353.0 L79.4,348.6 L77.1,349.3 L77.0,351.7 L79.0,355.0 L77.5,349.3 L79.7,351.7 L81.6,356.7 L79.0,355.0 L79.7,356.3 L75.6,359.9 L73.6,358.8 L71.1,360.9 L68.1,358.6 L68.0,358.6 L70.4,360.5 L69.3,362.0 L66.4,360.4 L67.6,358.9 L65.7,359.9 L61.5,357.0 L63.2,360.9 L67.4,363.3 L64.1,364.7 L60.2,360.7 L61.6,365.6 L64.2,367.3 L61.9,370.7 L59.6,370.8 L62.8,373.1 L59.7,373.4 L60.8,377.0 L56.7,375.8 L57.7,378.7 L54.5,378.7 L55.2,381.9 L51.5,382.6 L51.8,384.8 L46.7,381.7 L50.4,386.1 L43.2,381.3 L47.7,385.3 L48.1,388.6 L46.3,390.3 L40.6,386.3 L46.0,391.7 L44.4,393.5 L39.6,393.9 L37.0,390.6 L32.4,387.7 L38.0,392.8 L38.6,398.3 L36.9,400.9 L30.4,394.9 L31.4,393.0 L26.2,393.5 L27.5,394.8 L28.4,398.1 L24.3,398.4 L24.2,395.4 L26.1,393.5 L25.4,393.6 L22.9,396.0 L20.3,392.5 L19.5,389.1 L25.5,386.1 L21.6,384.0 L23.3,382.7 L19.1,382.3 L17.8,376.7 L20.9,376.8 L21.0,373.3 L24.7,374.4 L27.0,373.3 L19.6,372.9 L19.7,371.4 L24.2,371.8 L24.2,368.4 L22.3,370.5 L16.5,370.5 L15.3,368.5 L11.5,370.4 L7.9,368.9 L9.4,365.6 L6.9,367.0 L0.5,362.5 L6.7,362.7 L4.2,357.1 L1.3,354.0 L3.1,350.7 L7.8,351.3 L7.3,349.6 L0.8,348.6 L0.4,344.9 L6.3,341.5 L1.2,341.8 L4.0,338.5 L1.2,336.1 L3.1,334.9 L5.6,336.3 L4.8,333.2 L2.2,331.5 L1.6,325.4 L7.8,319.3 L5.8,317.7 L6.1,314.4 L3.9,311.2 L6.2,303.8 L5.9,300.3 L9.7,296.7 L8.8,294.7 L15.2,297.4 L18.5,297.9 L21.2,296.0 L16.6,296.5 L11.1,294.8 L11.1,291.5 L13.4,294.2 L18.6,292.5 L20.6,293.3 L23.1,290.5 L25.7,291.4 L24.8,295.1 L26.7,299.9 L25.8,294.8 L27.9,292.7 L25.1,288.7 L27.1,281.1 L25.1,283.7 L25.2,286.8 L15.5,290.9 L14.1,289.8 L7.1,290.7 L12.9,281.9 L16.5,281.1 L19.4,282.2 L23.0,281.0 L14.2,279.9 L17.4,278.0 L16.7,275.2 L18.2,273.3 L17.6,270.1 L19.1,269.4 L18.6,265.6 L21.5,263.3 L17.5,261.1 L20.1,258.9 L20.2,254.6 L27.5,254.9 L32.0,254.0 L34.5,254.8 L37.4,253.3 L49.7,253.1 L47.7,252.4 L37.1,252.5 L34.3,253.9 L21.8,254.1 L20.1,252.4 L22.1,251.0 L24.7,246.8 L27.5,249.2 L29.6,248.9 L26.9,246.9 L30.3,245.2 L32.9,247.0 L38.1,246.9 L34.5,245.0 L29.5,240.6 L29.6,236.5 L31.5,235.7 L34.4,237.5 L44.2,240.8 L44.6,240.2 L37.2,237.6 L32.0,234.6 L34.7,232.2 L43.3,232.4 L47.2,233.5 L49.6,238.6 L52.2,239.4 L55.6,245.9 L53.4,239.4 L60.8,241.8 L58.9,238.7 L58.2,240.3 L54.6,239.1 L54.9,236.4 L57.9,236.4 L54.2,234.7 L54.4,237.5 L50.7,237.8 L48.2,233.0 L45.1,231.1 L36.5,231.6 L39.0,229.8 L40.1,226.9 L44.2,228.2 L46.9,226.1 L47.9,223.5 L50.3,227.9 L51.1,226.2 L53.3,231.4 L57.9,234.2 L59.7,239.3 L61.9,240.4 L59.4,235.8 L58.1,231.1 Z M255.4,204.9 L255.3,204.8 L255.3,204.8 L255.3,204.8 L255.4,202.8 L252.1,198.2 L254.8,203.1 L255.3,204.8 L255.3,204.8 L255.3,204.8 L255.3,204.9 Z M59.6,230.3 L60.4,230.7 L60.2,230.0 L60.2,230.0 L62.1,229.1 L59.2,227.0 L60.2,230.0 L60.2,230.0 Z M30.2,401.1 L27.4,401.8 L26.5,399.5 L28.7,398.6 Z M33.5,400.2 L32.0,401.9 L29.3,398.4 L29.5,394.8 L36.7,401.0 Z M21.9,386.4 L20.7,387.6 L18.0,387.9 L20.5,384.9 Z M2.9,364.5 L3.6,367.0 L0.3,365.6 L0.0,363.1 Z M16.2,372.8 L16.2,374.4 L11.3,371.0 L18.5,371.4 Z M15.8,292.9 L16.5,291.2 L19.4,289.6 L20.0,291.7 Z M99.2,333.3 L97.8,335.7 L99.0,339.0 L97.0,337.0 L98.0,332.9 L97.5,328.7 L98.9,328.8 Z M131.2,324.5 L130.8,327.3 L126.7,327.9 L125.8,324.8 L128.3,322.3 Z M59.6,220.4 L52.5,218.0 L53.9,217.4 L56.8,218.2 Z M80.1,206.3 L81.0,209.1 L78.0,209.6 L76.3,212.1 L74.4,211.3 L76.2,207.7 Z M229.7,253.6 L231.5,253.9 L228.1,256.2 L228.2,253.6 Z M88.1,189.1 L85.1,187.3 L86.3,185.6 L87.2,186.2 Z M79.9,179.0 L78.5,175.9 L82.8,174.3 L81.9,177.7 Z M89.6,171.2 L91.1,172.3 L88.0,172.9 L86.6,171.7 L87.5,169.8 Z M88.2,153.7 L84.0,154.5 L84.4,152.7 L89.1,152.9 Z M89.4,145.3 L87.5,144.2 L89.7,143.4 L91.2,145.0 L94.1,145.3 L94.8,146.4 L89.0,148.3 Z M253.9,218.6 L252.5,220.8 L250.7,219.4 L251.7,218.5 Z M102.6,126.0 L103.5,127.5 L101.1,127.1 L100.3,125.8 L101.7,124.2 Z M109.7,116.3 L107.1,114.3 L105.4,112.5 L109.6,114.6 Z M290.7,189.2 L290.5,190.8 L288.5,189.9 L290.3,188.3 Z M284.0,183.4 L286.2,184.0 L283.9,187.3 L281.3,184.7 L281.9,181.6 L283.5,180.4 L285.1,181.3 Z M294.0,150.4 L293.5,152.7 L293.6,163.8 L292.4,158.8 L291.7,153.3 L292.7,147.7 Z M103.9,22.2 L104.4,26.2 L102.9,25.5 L102.2,21.7 Z M107.4,26.6 L107.6,29.9 L105.4,27.0 L106.1,25.4 Z M298.5,130.9 L297.0,130.9 L298.5,126.7 L299.7,128.3 Z M290.3,123.7 L291.0,125.5 L292.7,125.5 L292.7,127.4 L288.2,124.1 Z M292.8,119.6 L295.0,120.9 L293.7,124.9 L293.9,122.4 Z M295.0,117.2 L294.2,120.0 L293.5,116.8 L295.2,114.4 Z M298.1,111.7 L298.0,111.5 L298.4,108.0 L299.2,108.7 Z M294.9,106.7 L295.2,109.1 L293.7,109.8 L293.0,108.5 L295.0,105.5 Z M301.5,103.6 L299.8,105.0 L299.8,103.2 L301.1,100.7 Z M298.1,82.0 L294.8,84.0 L295.2,81.5 L296.6,80.5 Z M304.0,53.6 L302.8,53.7 L301.5,51.8 L302.8,50.8 Z M300.5,49.2 L299.4,49.0 L298.1,45.6 L298.2,43.5 L299.5,44.8 Z M234.5,8.4 L233.0,7.2 L234.2,5.5 L235.0,7.7 Z M253.7,13.9 L252.6,11.8 L252.9,10.0 L254.0,10.7 L254.9,12.5 Z M274.2,193.1 L277.6,191.5 L279.1,192.1 L281.2,192.8 L282.8,197.6 L276.7,198.6 L273.4,195.9 Z M293.0,182.5 L290.7,182.0 L291.3,176.3 L293.0,174.9 L293.7,176.2 L295.3,174.1 L296.6,176.2 L294.6,177.5 L296.4,180.6 L298.9,179.8 L298.6,181.9 L294.8,181.5 Z M298.5,84.4 L301.4,83.1 L302.7,85.4 L300.7,89.9 L298.4,90.9 L296.4,89.0 L295.6,87.1 Z M218.3,8.2 L217.6,10.5 L218.1,15.4 L217.8,15.8 L215.9,14.3 L215.0,10.7 L216.4,8.2 Z M251.1,8.9 L252.2,9.6 L252.8,14.0 L251.3,12.3 Z M254.7,8.8 L253.6,8.1 L254.9,7.0 L255.6,8.4 L255.5,10.1 L256.5,11.6 L255.9,12.4 L254.6,10.1 Z M237.3,19.2 L234.2,21.1 L233.8,23.6 L232.6,23.7 L233.0,21.3 L231.5,16.3 L232.4,13.4 L232.7,10.5 L234.8,11.1 L236.0,11.7 L237.0,15.0 Z M237.0,261.1 L234.3,261.8 L224.2,261.4 L226.0,257.7 L227.7,257.8 L232.6,254.1 L235.2,254.6 L242.0,252.2 L241.5,254.0 L243.3,255.7 L243.1,260.9 L239.5,261.3 L237.6,262.5 Z M269.9,225.2 L265.6,224.4 L265.0,222.0 L263.1,220.5 L255.3,218.9 L255.6,217.1 L260.0,217.4 L263.2,216.7 L268.6,219.3 L270.5,220.8 L268.8,222.7 Z M62.9,186.0 L66.3,186.0 L68.9,188.7 L71.2,192.7 L70.8,199.1 L73.3,204.0 L71.6,205.9 L72.2,207.4 L67.3,208.1 L57.9,206.0 L56.0,201.9 L57.1,199.9 L61.3,203.6 L60.1,199.7 L55.9,195.5 L55.9,192.7 L58.7,193.2 L57.8,191.3 L60.4,189.7 L62.5,192.8 L61.3,188.8 Z M262.1,231.5 L256.1,226.0 L255.4,225.0 L255.3,220.3 L258.7,219.8 L263.1,221.3 L265.1,225.6 L269.2,229.0 L268.9,230.9 L267.2,229.5 L264.3,229.3 L264.6,230.9 L268.2,233.1 L266.6,235.8 L264.9,235.3 Z M254.2,210.3 L260.6,213.9 L264.4,214.9 L264.8,216.3 L256.1,216.3 L249.6,212.3 L252.3,210.1 L253.0,208.4 L257.4,208.9 L263.8,213.3 L263.5,213.9 Z">
  <desc xmlns="http://www.highcharts.com/svg/namespace">
    <name>Greenland</name>
    <labelrank>3</labelrank>
    <country-abbrev>Grlnd.</country-abbrev>
    <subregion>Northern America</subregion>
    <region-wb>Europe &amp; Central Asia</region-wb>
    <iso-a3>GRL</iso-a3>
    <iso-a2>GL</iso-a2>
    <woe-id>23424828</woe-id>
    <continent>North America</continent>
    <hc-middle-x>0.56</hc-middle-x>
    <hc-middle-y>0.41</hc-middle-y>
    <hc-key>gl</hc-key>
    <hc-a2>GL</hc-a2>
  </desc>
</path>

<path fill="#CEE3F5" stroke="#6E6E6E" stroke-width="0.4" id="FI" d="M664.2,350.6 L664.2,348.0 L662.4,348.2 L664.9,345.4 L666.5,346.9 L666.5,349.6 Z M659.8,347.1 L658.6,349.2 L659.7,352.0 L657.9,352.0 L658.2,348.7 Z M645.0,359.8 L644.1,362.1 L641.9,361.7 L644.3,364.2 L644.7,362.1 L647.1,364.5 L648.7,360.1 L649.3,361.8 L647.6,364.7 L643.8,364.2 L639.5,366.2 L638.2,364.1 L641.4,359.7 Z M594.9,183.8 L594.0,188.0 L596.6,187.2 L598.7,193.0 L604.3,196.7 L609.4,195.1 L614.7,196.8 L618.5,196.7 L620.4,199.7 L621.1,204.7 L622.9,211.2 L624.9,213.4 L632.0,215.7 L634.4,217.3 L639.3,218.8 L644.2,221.7 L646.6,223.8 L644.7,226.5 L648.8,230.4 L649.2,232.5 L651.2,231.5 L652.6,233.0 L652.6,235.8 L656.4,237.3 L658.2,235.8 L660.9,237.0 L660.4,239.2 L663.3,241.2 L668.9,240.3 L671.7,243.7 L672.5,248.3 L671.8,250.4 L678.8,250.9 L682.1,249.9 L687.1,249.6 L693.3,251.2 L696.7,258.7 L697.1,267.0 L699.4,280.7 L700.0,289.3 L699.1,294.1 L698.9,303.2 L699.3,309.3 L697.6,311.9 L694.3,312.3 L693.9,314.7 L690.2,320.6 L686.9,321.5 L688.9,325.2 L683.3,330.0 L683.9,331.0 L680.1,335.6 L680.7,338.4 L679.0,337.9 L674.4,344.4 L672.9,348.4 L670.4,351.0 L671.9,347.2 L670.6,345.4 L668.3,346.7 L664.5,343.9 L662.8,347.5 L661.7,344.3 L658.9,346.3 L653.9,346.6 L657.5,349.6 L655.0,349.4 L652.9,347.4 L649.7,349.0 L647.7,345.8 L643.3,341.9 L644.6,341.1 L643.8,338.2 L638.6,331.5 L634.0,328.0 L632.5,328.1 L629.1,321.8 L627.0,322.2 L625.2,318.9 L623.5,318.3 L622.6,314.5 L623.3,312.0 L622.1,310.0 L624.1,309.6 L620.6,307.9 L619.4,310.1 L618.8,308.2 L621.8,307.2 L623.7,302.7 L625.7,301.4 L622.8,300.3 L624.1,298.5 L622.8,295.4 L624.2,292.7 L624.8,288.3 L625.9,287.1 L624.3,284.9 L625.7,278.8 L624.5,276.6 L625.0,272.4 L623.8,269.9 L623.8,265.1 L625.1,262.8 L627.6,263.2 L626.9,260.0 L623.5,259.0 L619.9,252.9 L616.7,252.6 L613.8,254.3 L610.8,252.5 L608.2,254.2 L604.5,251.6 L600.8,250.8 L597.5,247.7 L597.5,244.6 L595.2,240.3 L588.5,237.3 L586.4,232.4 L583.6,233.0 L583.2,230.9 L579.3,226.7 L579.6,225.2 L574.3,224.6 L571.7,222.5 L569.2,222.1 L563.9,224.1 L561.9,223.4 L557.9,223.6 L551.7,221.5 L549.1,221.7 L549.0,220.1 L551.4,219.9 L549.8,217.7 L550.1,214.8 L552.4,213.8 L561.6,217.5 L563.3,219.0 L566.9,216.7 L568.8,217.0 L570.6,213.1 L570.5,210.7 L576.5,209.6 L578.8,210.2 L579.4,207.9 L577.6,204.9 L579.2,201.7 L578.4,199.1 L575.8,196.9 L571.0,188.1 L571.6,187.1 L570.6,182.8 L573.9,180.3 L575.7,174.2 L581.8,175.6 L587.1,173.9 L591.0,175.8 L591.9,181.6 Z">
  <desc xmlns="http://www.highcharts.com/svg/namespace">
    <name>Finland</name>
    <labelrank>3</labelrank>
    <country-abbrev>Fin.</country-abbrev>
    <subregion>Northern Europe</subregion>
    <region-wb>Europe &amp; Central Asia</region-wb>
    <iso-a3>FIN</iso-a3>
    <iso-a2>FI</iso-a2>
    <woe-id>23424812</woe-id>
    <continent>Europe</continent>
    <hc-middle-x>0.74</hc-middle-x>
    <hc-middle-y>0.60</hc-middle-y>
    <hc-key>fi</hc-key>
    <hc-a2>FI</hc-a2>
  </desc>
</path>

<path fill="#CEE3F5" stroke="#6E6E6E" stroke-width="0.4" id="SE" d="M588.8,441.5 L587.9,444.3 L585.2,441.3 L586.5,438.0 L588.5,438.6 Z M578.3,427.2 L578.3,427.2 L581.0,427.4 L579.6,421.1 L575.7,416.5 L576.0,411.9 L574.6,410.4 L577.1,408.6 L578.5,403.2 L576.7,400.3 L575.8,396.2 L568.7,389.9 L571.9,386.9 L570.7,380.5 L566.9,378.7 L561.4,377.7 L558.3,368.4 L553.4,363.4 L550.6,357.7 L550.8,355.9 L546.5,351.9 L546.8,348.2 L545.2,345.9 L546.1,337.8 L549.2,333.2 L555.4,331.6 L555.3,327.4 L552.8,323.7 L547.9,323.2 L548.2,312.1 L547.5,307.4 L544.2,300.8 L543.5,298.1 L540.1,293.8 L543.4,291.3 L545.2,287.5 L542.8,284.1 L543.4,281.4 L543.0,275.1 L543.9,270.9 L542.6,268.4 L538.3,265.9 L539.3,262.3 L537.8,255.2 L539.1,250.0 L544.1,249.9 L543.8,245.8 L539.9,239.6 L541.1,238.0 L543.2,238.3 L545.5,236.6 L552.6,235.4 L553.1,232.0 L550.7,232.2 L551.0,229.2 L548.8,224.8 L546.2,224.1 L549.1,221.7 L551.7,221.5 L557.9,223.6 L561.9,223.4 L563.9,224.1 L569.2,222.1 L571.7,222.5 L574.3,224.6 L579.6,225.2 L579.3,226.7 L583.2,230.9 L583.6,233.0 L586.4,232.4 L588.5,237.3 L595.2,240.3 L597.5,244.6 L597.5,247.7 L600.8,250.8 L604.5,251.6 L608.2,254.2 L606.3,256.6 L603.1,258.3 L602.8,261.2 L597.4,260.8 L599.1,262.2 L596.2,262.8 L600.1,267.5 L594.3,268.3 L600.2,268.3 L596.5,270.3 L598.5,271.8 L595.7,274.3 L598.4,274.9 L599.4,277.5 L599.9,284.5 L599.2,285.4 L606.4,288.8 L606.2,296.6 L607.9,301.5 L606.5,303.7 L606.9,307.3 L605.1,308.3 L604.8,314.0 L601.8,313.0 L603.7,315.2 L601.5,315.6 L602.6,317.5 L602.7,321.3 L600.0,323.8 L600.8,333.7 L600.2,339.8 L597.0,339.6 L597.6,342.2 L600.8,344.3 L602.3,349.3 L605.0,352.8 L603.7,356.8 L605.6,357.8 L610.5,365.8 L614.2,369.0 L613.7,370.3 L617.4,369.1 L619.3,370.9 L620.8,368.0 L630.3,371.8 L633.4,370.7 L638.5,373.7 L636.5,382.8 L633.8,386.4 L638.6,384.7 L637.2,383.6 L637.8,380.7 L638.6,383.6 L641.1,383.9 L640.1,386.4 L637.1,386.4 L641.3,388.7 L638.7,389.8 L637.9,394.9 L634.6,398.0 L635.3,399.3 L632.2,405.0 L625.5,408.1 L627.8,408.4 L631.1,406.1 L633.7,407.1 L633.7,411.8 L634.9,411.8 L636.1,416.7 L634.8,419.6 L641.5,424.8 L641.0,427.1 L642.3,430.8 L644.7,432.3 L646.9,451.9 L643.0,451.6 L641.2,454.1 L634.8,457.6 L636.7,459.1 L633.9,460.7 L633.1,465.7 L637.4,469.6 L636.7,472.8 L633.3,473.8 L627.9,478.6 L623.8,479.1 L622.2,476.7 L622.8,474.4 L620.7,473.9 L611.9,467.4 L615.2,466.7 L611.8,464.4 L614.2,462.4 L612.3,459.3 L610.9,460.1 L608.1,457.9 L605.1,457.5 L597.3,450.0 L596.9,452.3 L594.5,448.0 L591.6,447.3 L590.4,445.5 L588.8,438.2 L587.7,436.7 L584.9,438.9 L582.8,436.8 L581.8,439.2 L580.3,434.9 L575.5,429.1 L575.4,426.6 Z M647.8,441.3 L646.7,434.8 L647.5,433.9 L645.7,425.9 L646.3,424.6 L647.4,426.5 L649.9,439.5 L651.4,443.5 L651.0,446.3 Z M656.7,419.9 L654.3,415.8 L654.5,409.1 L655.8,405.6 L659.3,404.4 L658.3,408.1 L661.1,412.7 L662.9,412.5 L662.6,416.4 L660.8,420.2 L661.9,423.6 Z">
  <desc xmlns="http://www.highcharts.com/svg/namespace">
    <name>Sweden</name>
    <labelrank>3</labelrank>
    <country-abbrev>Swe.</country-abbrev>
    <subregion>Northern Europe</subregion>
    <region-wb>Europe &amp; Central Asia</region-wb>
    <iso-a3>SWE</iso-a3>
    <iso-a2>SE</iso-a2>
    <woe-id>23424954</woe-id>
    <continent>Europe</continent>
    <hc-middle-x>0.46</hc-middle-x>
    <hc-middle-y>0.66</hc-middle-y>
    <hc-key>se</hc-key>
    <hc-a2>SE</hc-a2>
  </desc>
</path>

<path fill="#CEE3F5" stroke="#6E6E6E" stroke-width="0.4" id="NO" d="M512.3,435.1 L515.5,432.2 L516.4,435.1 L514.2,435.5 L514.3,439.1 Z M512.7,372.4 L513.9,372.7 L512.2,374.9 L510.4,373.4 Z M514.1,365.9 L511.5,366.5 L512.3,364.0 L514.4,364.8 Z M515.3,358.5 L513.4,359.5 L516.3,355.1 L518.1,358.5 L519.6,356.9 L521.0,359.0 L516.8,362.9 L514.7,363.1 L516.3,359.9 Z M525.3,327.0 L527.0,327.3 L523.3,330.1 L523.1,328.7 Z M530.2,312.6 L532.0,314.3 L530.4,318.8 L529.5,316.2 Z M512.6,266.7 L513.5,268.3 L512.5,272.0 L511.9,266.3 Z M517.0,259.1 L517.3,261.3 L515.8,264.5 L513.3,262.1 L515.5,258.8 Z M522.0,255.9 L518.6,261.1 L519.0,257.3 L517.8,256.8 L519.0,254.8 L522.0,252.5 Z M520.5,240.7 L518.7,243.1 L518.2,240.2 L519.3,234.8 L520.8,237.8 Z M529.6,215.4 L532.1,216.9 L531.5,218.7 L532.5,220.1 L529.5,223.5 L527.6,220.7 L527.7,218.7 L530.3,217.1 Z M538.1,204.4 L540.7,204.5 L539.8,206.6 L538.9,205.1 L535.8,205.9 L535.4,203.0 L537.1,202.7 Z M534.6,208.8 L533.1,208.8 L530.3,207.0 L534.4,206.6 Z M545.0,192.2 L548.2,193.0 L544.8,194.7 L543.9,193.1 Z M546.5,185.4 L549.1,187.0 L549.4,190.4 L548.4,192.1 L545.3,190.4 Z M547.0,182.7 L549.7,182.8 L548.9,185.8 L546.2,183.5 Z M550.7,168.3 L553.1,169.0 L555.1,168.4 L552.9,172.2 L550.3,171.6 Z M355.8,254.2 L355.8,256.9 L351.6,259.3 L350.1,261.8 L349.0,260.8 L352.6,257.6 L353.5,255.0 Z M480.8,139.7 L481.9,140.0 L482.3,142.8 L479.7,141.5 Z M459.1,55.3 L457.3,54.9 L456.4,53.0 L458.3,53.9 Z M433.7,63.3 L436.3,63.0 L435.7,64.9 L434.1,64.9 Z M416.1,47.1 L416.3,48.7 L414.8,48.5 L414.5,46.9 Z M542.6,187.7 L543.6,183.6 L543.2,182.4 L544.5,185.4 L544.1,189.2 L540.9,193.0 L540.4,190.2 L538.9,191.7 L539.6,188.7 Z M443.6,75.6 L443.4,73.9 L440.6,73.3 L442.8,70.3 L442.4,69.0 L443.7,68.9 L445.6,67.4 L447.3,68.7 L450.0,72.0 L446.8,76.0 Z M404.4,85.6 L405.7,85.2 L408.2,87.2 L408.1,88.2 L410.1,90.2 L412.7,91.3 L416.2,94.6 L411.0,91.9 L410.5,92.5 L408.3,89.8 L405.4,87.4 Z M459.4,49.4 L459.4,46.1 L461.8,45.3 L463.8,43.7 L463.2,45.6 L461.4,45.7 L460.4,49.0 Z M451.3,22.5 L453.3,17.7 L453.5,16.3 L454.7,15.8 L454.1,18.9 L452.2,22.8 Z M581.0,427.4 L578.3,427.2 L576.7,425.7 L571.1,427.1 L566.8,423.7 L566.0,420.5 L565.0,422.7 L567.1,427.3 L564.6,434.5 L562.0,435.7 L559.0,439.7 L560.7,438.9 L555.9,452.9 L553.3,457.2 L551.5,455.5 L551.4,458.4 L548.5,461.0 L542.6,463.1 L537.3,463.4 L538.3,460.9 L530.2,460.7 L526.3,459.6 L522.5,456.3 L521.4,451.0 L523.9,452.2 L527.0,451.5 L524.2,448.9 L526.6,444.2 L524.1,446.1 L524.1,442.6 L520.7,445.9 L519.2,444.2 L519.5,449.3 L516.8,445.2 L518.0,449.6 L516.6,449.6 L514.7,443.9 L516.1,438.8 L519.0,439.0 L519.9,436.9 L516.9,436.2 L519.2,433.2 L519.1,428.0 L521.4,422.1 L518.6,425.4 L516.8,430.0 L517.7,432.5 L516.0,432.8 L513.6,429.7 L512.7,431.5 L511.0,430.1 L507.3,430.9 L506.6,428.1 L508.6,429.9 L510.0,427.8 L509.2,425.5 L510.5,425.8 L509.2,425.1 L511.8,421.5 L513.0,425.1 L511.9,426.1 L512.8,426.3 L513.3,425.1 L511.3,420.1 L508.9,424.9 L503.9,421.9 L508.0,422.2 L507.1,420.3 L504.7,420.7 L503.1,417.2 L507.1,416.2 L510.7,412.9 L514.7,412.8 L516.7,409.4 L520.4,409.3 L515.2,408.2 L515.7,411.1 L512.8,410.8 L507.5,413.8 L506.2,415.4 L504.4,414.0 L501.7,414.1 L500.1,410.9 L502.9,407.0 L499.1,406.9 L496.0,403.7 L497.0,402.3 L499.7,402.2 L500.6,400.8 L504.4,400.8 L511.6,398.4 L501.0,400.0 L498.8,401.6 L499.4,398.8 L496.3,397.1 L497.0,395.9 L500.4,397.7 L499.4,395.5 L500.0,392.3 L502.4,392.4 L502.3,389.5 L503.8,391.4 L508.8,386.5 L503.7,389.5 L507.1,384.9 L506.6,381.7 L509.2,383.2 L510.6,381.6 L515.1,382.1 L514.2,379.7 L518.1,375.9 L512.9,380.0 L509.1,380.8 L507.1,377.4 L509.6,374.6 L512.3,375.6 L515.8,372.8 L515.7,370.1 L519.0,371.8 L519.5,373.2 L522.0,372.2 L517.5,370.9 L514.7,367.8 L519.6,363.4 L519.4,361.8 L523.6,361.3 L521.6,359.2 L524.9,354.8 L528.8,357.6 L528.6,359.8 L530.8,358.8 L529.8,356.9 L531.3,355.6 L535.7,354.5 L536.3,353.2 L533.6,352.8 L535.1,348.4 L537.8,345.3 L534.2,345.3 L536.2,341.4 L534.3,342.1 L532.6,344.8 L534.4,346.3 L534.0,348.7 L531.3,353.2 L527.8,356.3 L525.4,353.6 L523.5,355.0 L522.7,353.1 L526.6,347.9 L524.3,348.5 L524.2,343.5 L526.3,339.0 L525.6,337.5 L527.7,336.0 L527.1,333.6 L530.0,335.5 L527.7,332.2 L532.2,326.8 L527.4,328.7 L527.8,326.4 L530.6,323.6 L531.3,318.4 L533.1,319.7 L535.2,318.3 L535.7,313.5 L534.2,318.4 L532.0,316.9 L532.8,313.2 L530.8,310.5 L528.7,310.6 L529.7,306.0 L526.9,301.7 L525.0,304.3 L525.8,300.9 L527.3,301.9 L531.8,295.8 L535.0,294.1 L531.7,294.8 L528.7,298.5 L529.8,295.6 L527.0,295.9 L527.7,294.3 L525.6,293.3 L527.2,298.3 L526.5,299.1 L525.3,293.2 L527.2,292.6 L526.3,290.3 L527.5,288.7 L526.8,286.3 L528.5,285.2 L525.9,283.8 L528.4,281.2 L527.3,278.7 L529.8,280.7 L529.1,277.2 L531.4,274.7 L532.9,275.4 L533.0,271.6 L530.6,275.0 L530.1,274.0 L528.1,275.9 L528.5,271.6 L530.1,271.8 L530.9,269.8 L528.4,270.3 L529.6,268.0 L531.6,267.6 L530.0,265.9 L531.6,262.6 L529.7,262.5 L527.7,267.3 L527.8,264.9 L525.6,264.5 L525.4,261.3 L526.4,259.3 L528.1,262.0 L531.5,256.9 L527.7,259.5 L527.3,256.6 L530.7,253.7 L531.7,256.3 L534.4,257.9 L532.3,251.5 L529.7,251.0 L532.1,247.6 L533.7,248.4 L537.1,243.9 L536.1,242.2 L534.0,245.7 L530.8,247.7 L529.2,244.7 L530.0,242.6 L529.5,238.9 L532.3,240.2 L529.3,237.5 L531.5,236.9 L531.6,235.3 L529.7,234.8 L532.7,229.8 L531.0,228.2 L530.6,223.8 L534.4,225.6 L535.9,223.8 L532.0,223.8 L531.4,222.5 L533.6,220.1 L532.6,216.7 L535.7,213.0 L536.4,215.3 L538.1,215.5 L536.3,209.3 L538.3,209.1 L542.4,217.5 L542.3,213.7 L539.1,208.4 L542.7,206.3 L542.1,203.0 L547.3,204.1 L544.3,200.8 L542.1,201.6 L539.1,201.0 L539.6,198.0 L543.4,199.2 L541.7,197.6 L543.8,195.4 L544.9,195.6 L548.6,193.8 L551.0,196.3 L553.6,196.2 L553.8,194.2 L551.0,194.7 L551.7,193.0 L550.0,192.3 L550.8,190.0 L549.6,189.2 L550.4,183.9 L549.9,180.8 L552.1,180.6 L550.2,179.1 L548.7,179.9 L548.0,177.9 L550.2,178.3 L548.0,176.2 L546.6,173.0 L548.6,174.9 L553.2,175.5 L553.2,173.8 L555.8,171.7 L555.9,180.5 L556.5,179.4 L559.0,182.9 L558.8,185.0 L560.6,187.2 L561.5,186.5 L560.9,181.5 L559.9,181.6 L559.1,174.7 L557.8,169.6 L558.2,166.9 L562.1,171.6 L564.9,176.3 L564.6,169.8 L563.2,168.1 L563.7,164.8 L560.8,165.5 L562.4,163.2 L560.6,161.1 L562.8,160.6 L563.7,158.5 L564.9,159.8 L566.8,158.4 L567.8,162.6 L565.5,164.6 L568.0,163.7 L567.4,167.7 L569.3,163.4 L570.1,165.0 L570.0,168.6 L572.9,167.7 L570.1,162.1 L569.4,158.8 L570.5,157.5 L573.4,157.3 L574.4,158.7 L576.0,156.3 L576.9,158.3 L577.2,155.5 L585.1,155.7 L585.0,154.6 L588.1,156.2 L586.1,159.2 L586.7,163.5 L578.6,168.8 L578.5,170.2 L585.8,167.2 L585.6,169.3 L587.5,167.0 L589.9,167.3 L589.1,170.2 L590.9,167.2 L589.4,166.1 L593.6,163.8 L595.9,165.1 L597.6,167.5 L595.8,169.0 L593.6,169.0 L595.2,172.3 L595.2,174.5 L593.4,178.4 L595.2,181.1 L594.9,183.8 L591.9,181.6 L591.0,175.8 L587.1,173.9 L581.8,175.6 L575.7,174.2 L573.9,180.3 L570.6,182.8 L571.6,187.1 L571.0,188.1 L575.8,196.9 L578.4,199.1 L579.2,201.7 L577.6,204.9 L579.4,207.9 L578.8,210.2 L576.5,209.6 L570.5,210.7 L570.6,213.1 L568.8,217.0 L566.9,216.7 L563.3,219.0 L561.6,217.5 L552.4,213.8 L550.1,214.8 L549.8,217.7 L551.4,219.9 L549.0,220.1 L549.1,221.7 L546.2,224.1 L548.8,224.8 L551.0,229.2 L550.7,232.2 L553.1,232.0 L552.6,235.4 L545.5,236.6 L543.2,238.3 L541.1,238.0 L539.9,239.6 L543.8,245.8 L544.1,249.9 L539.1,250.0 L537.8,255.2 L539.3,262.3 L538.3,265.9 L542.6,268.4 L543.9,270.9 L543.0,275.1 L543.4,281.4 L542.8,284.1 L545.2,287.5 L543.4,291.3 L540.1,293.8 L543.5,298.1 L544.2,300.8 L547.5,307.4 L548.2,312.1 L547.9,323.2 L552.8,323.7 L555.3,327.4 L555.4,331.6 L549.2,333.2 L546.1,337.8 L545.2,345.9 L546.8,348.2 L546.5,351.9 L550.8,355.9 L550.6,357.7 L553.4,363.4 L558.3,368.4 L561.4,377.7 L566.9,378.7 L570.7,380.5 L571.9,386.9 L568.7,389.9 L575.8,396.2 L576.7,400.3 L578.5,403.2 L577.1,408.6 L574.6,410.4 L576.0,411.9 L575.7,416.5 L579.6,421.1 Z M519.0,247.6 L516.9,251.7 L514.7,251.5 L517.1,247.3 L516.3,246.5 L517.3,245.8 L516.4,243.3 L518.4,244.5 L521.1,248.6 L519.9,252.9 L517.4,252.8 L519.6,248.4 Z M528.2,214.7 L526.3,212.2 L529.5,211.9 L528.9,210.4 L527.5,210.5 L527.5,208.0 L529.8,210.9 L531.4,211.5 L531.1,208.9 L532.5,210.7 L534.3,210.0 L534.7,212.3 L532.1,215.8 Z M525.6,240.6 L528.3,243.1 L530.2,248.6 L525.9,250.9 L526.4,253.4 L524.2,253.5 L522.3,255.5 L522.6,252.1 L521.4,250.4 L522.4,248.2 L520.3,245.6 L520.1,242.5 L521.7,241.4 L523.1,244.5 L524.1,244.4 L524.6,247.5 L525.1,244.3 L524.1,242.7 L525.2,240.6 L523.8,239.4 L526.0,239.1 Z M526.3,236.4 L526.9,234.3 L525.3,233.9 L525.5,231.1 L523.5,230.4 L526.4,229.0 L524.6,227.9 L524.3,226.7 L527.0,226.7 L526.8,223.9 L529.1,224.6 L530.8,226.8 L530.1,228.0 L531.8,230.1 L529.3,232.3 Z M455.2,70.8 L454.9,73.2 L456.1,74.3 L459.1,74.7 L460.3,74.2 L460.8,72.3 L462.2,73.3 L464.4,79.5 L464.2,81.8 L465.2,85.1 L463.6,86.9 L462.4,87.2 L460.3,84.5 L460.1,81.8 L458.7,82.3 L458.7,84.1 L455.1,88.3 L453.5,86.4 L454.2,85.1 L452.9,82.9 L452.1,79.0 L447.6,78.2 L447.3,77.1 L448.8,74.3 L451.2,72.8 L452.3,70.5 Z M409.7,68.6 L409.2,62.8 L410.5,62.9 L413.3,64.8 L416.9,69.3 L418.9,70.6 L423.7,74.6 L424.1,74.1 L418.5,68.8 L415.6,64.6 L413.8,62.7 L412.1,59.7 L413.4,59.3 L412.1,58.1 L411.9,55.5 L412.8,55.4 L415.4,57.7 L414.9,56.0 L417.3,56.0 L420.7,57.8 L421.0,60.5 L423.0,63.7 L423.3,62.4 L422.3,60.4 L422.5,58.9 L424.5,59.5 L427.5,62.9 L427.5,64.5 L429.4,65.4 L430.2,64.2 L431.9,63.5 L434.0,65.7 L436.4,65.6 L440.7,64.6 L442.5,67.8 L441.7,69.0 L440.0,69.0 L440.4,70.2 L439.1,70.9 L437.7,73.3 L438.8,74.2 L437.1,76.5 L438.3,77.7 L440.0,81.3 L441.5,82.5 L440.2,84.1 L441.0,87.1 L442.9,89.2 L444.9,94.2 L443.5,95.6 L444.3,98.8 L447.1,104.6 L447.3,108.2 L449.3,109.2 L449.4,112.7 L447.4,112.6 L445.9,111.6 L444.1,111.5 L441.1,109.7 L443.4,106.8 L442.0,106.7 L439.3,108.7 L436.9,107.2 L433.7,107.6 L430.4,105.0 L428.8,102.9 L430.3,100.9 L431.9,100.8 L436.0,98.8 L435.5,98.0 L431.8,99.1 L430.6,98.9 L431.6,97.5 L436.8,91.9 L435.9,91.0 L432.7,93.8 L431.5,93.6 L430.7,96.1 L428.7,97.9 L425.9,99.3 L422.7,94.6 L423.3,93.3 L426.2,94.3 L424.7,92.7 L427.3,90.7 L427.2,88.4 L428.5,87.3 L427.7,85.3 L431.5,82.8 L428.3,82.3 L427.8,77.7 L426.3,77.6 L427.2,80.5 L427.0,82.5 L425.3,84.1 L423.1,81.9 L422.9,79.5 L421.2,77.6 L422.7,80.9 L422.4,82.6 L420.5,80.7 L420.2,82.4 L421.3,85.4 L423.4,86.9 L422.2,87.4 L422.9,88.8 L422.2,91.4 L419.3,93.2 L417.3,90.8 L414.4,89.5 L416.8,87.0 L414.1,88.3 L412.1,87.9 L409.6,86.2 L409.4,83.9 L406.6,82.8 L407.3,82.2 L410.3,82.5 L411.1,81.8 L409.9,80.5 L406.9,80.5 L406.2,75.8 L404.7,76.1 L406.1,78.8 L405.3,80.7 L401.5,76.6 L400.9,74.7 L399.5,73.5 L399.4,71.5 L397.6,69.5 L398.9,69.8 L399.7,71.4 L401.2,71.2 L399.7,69.9 L399.4,68.6 L400.6,66.7 L402.5,68.6 L403.7,69.0 L401.8,66.3 L403.7,67.3 L404.5,65.0 L406.3,62.9 L407.8,64.4 L407.7,66.0 L405.6,67.5 L405.0,70.5 L407.9,68.5 L408.6,70.8 L409.3,70.0 L412.9,73.0 L412.5,71.5 Z M428.9,33.8 L431.8,35.3 L431.9,34.3 L433.1,36.0 L435.0,34.5 L436.4,35.1 L439.2,32.7 L441.3,32.8 L442.5,34.9 L444.2,36.5 L443.8,37.2 L444.2,40.0 L443.7,43.0 L445.3,44.1 L446.1,45.7 L445.6,48.8 L444.4,48.7 L443.4,51.2 L444.3,53.6 L440.6,55.7 L438.7,55.0 L438.1,52.7 L435.3,56.1 L434.4,56.1 L432.6,57.9 L431.4,56.8 L429.7,57.8 L427.3,57.5 L426.5,56.6 L427.8,54.9 L429.0,55.4 L431.4,54.2 L428.1,53.7 L431.8,50.5 L430.5,48.6 L426.1,52.8 L424.9,55.2 L422.8,56.5 L419.1,54.8 L419.6,51.4 L417.7,52.3 L415.6,50.3 L417.8,48.7 L420.3,49.5 L420.3,48.0 L418.8,48.0 L416.5,45.7 L417.7,45.7 L419.6,46.8 L418.6,43.7 L417.6,44.3 L416.5,43.0 L417.2,42.0 L419.0,43.3 L419.5,42.1 L423.2,44.6 L425.1,41.7 L426.5,43.6 L429.6,44.7 L426.6,39.7 L425.3,39.3 L424.7,37.8 L426.0,37.5 L424.7,36.3 L426.7,36.0 L427.0,37.3 L428.7,38.5 L429.4,41.0 L430.2,39.8 L431.3,40.3 L431.3,39.0 L429.7,37.2 L431.5,36.4 L430.2,35.8 Z">
  <desc xmlns="http://www.highcharts.com/svg/namespace">
    <name>Norway</name>
    <labelrank>3</labelrank>
    <country-abbrev>Nor.</country-abbrev>
    <subregion>Northern Europe</subregion>
    <region-wb>Europe &amp; Central Asia</region-wb>
    <iso-a3>NOR</iso-a3>
    <iso-a2>NO</iso-a2>
    <woe-id>-90</woe-id>
    <continent>Europe</continent>
    <hc-middle-x>0.76</hc-middle-x>
    <hc-middle-y>0.87</hc-middle-y>
    <hc-key>no</hc-key>
    <hc-a2>NO</hc-a2>
  </desc>
</path>

<path fill="#CEE3F5" stroke="#6E6E6E" stroke-width="0.4" id="IS" d="M310.1,355.7 L313.3,355.6 L313.9,357.6 L312.0,361.7 L316.2,360.8 L315.7,361.8 L320.8,365.7 L322.3,365.8 L320.9,369.8 L322.7,370.7 L323.2,374.6 L322.2,376.0 L318.9,374.2 L321.4,377.4 L319.4,380.7 L315.5,382.0 L314.6,387.2 L313.2,386.7 L311.1,388.9 L307.2,389.7 L302.0,392.1 L298.7,395.5 L292.8,398.5 L291.1,398.1 L285.7,400.6 L284.0,403.4 L277.0,405.4 L272.1,404.2 L267.9,402.1 L264.2,401.5 L261.2,397.5 L256.1,394.4 L254.3,394.7 L245.7,393.4 L242.3,393.6 L243.2,388.7 L244.2,390.9 L247.3,390.6 L251.9,387.3 L250.2,386.8 L252.4,384.0 L248.9,385.1 L250.4,381.7 L253.9,379.1 L248.4,382.0 L247.4,380.3 L248.1,376.5 L237.4,373.9 L234.3,374.4 L233.7,371.8 L245.7,371.3 L248.3,370.7 L253.1,371.6 L253.8,368.5 L251.3,370.0 L247.1,368.4 L247.8,367.2 L253.3,364.3 L252.6,362.6 L250.3,363.7 L248.2,361.0 L246.6,361.8 L243.0,359.9 L236.6,362.3 L236.2,361.1 L231.6,359.5 L234.2,357.4 L237.0,359.7 L235.8,357.4 L236.5,354.6 L241.4,358.5 L239.1,355.5 L238.8,352.5 L241.1,353.7 L239.1,350.9 L241.5,351.0 L240.5,349.1 L242.4,347.7 L244.9,350.6 L247.8,351.3 L249.4,353.1 L250.2,351.3 L247.1,349.2 L246.9,346.5 L245.0,345.2 L245.7,343.7 L250.2,343.7 L252.4,345.8 L252.6,347.9 L254.5,348.0 L259.2,354.1 L259.2,356.6 L256.9,362.0 L259.0,364.8 L259.3,368.0 L261.7,361.8 L263.7,360.2 L264.9,364.2 L267.3,359.6 L266.6,353.0 L269.4,352.3 L270.7,356.8 L272.4,359.6 L274.1,360.4 L273.8,356.1 L275.2,353.6 L277.5,354.1 L279.5,351.7 L283.0,356.2 L284.4,358.7 L284.0,352.5 L287.1,353.1 L289.5,356.8 L290.9,356.4 L292.7,352.6 L295.0,353.7 L298.6,352.9 L299.2,351.0 L298.4,346.8 L302.5,346.3 L303.2,348.5 L305.0,349.0 L304.4,351.1 L307.6,353.8 L308.2,351.5 L312.0,349.2 L313.8,349.7 L310.6,351.5 L311.0,353.1 L309.2,354.5 Z">
  <desc xmlns="http://www.highcharts.com/svg/namespace">
    <name>Iceland</name>
    <labelrank>3</labelrank>
    <country-abbrev>Iceland</country-abbrev>
    <subregion>Northern Europe</subregion>
    <region-wb>Europe &amp; Central Asia</region-wb>
    <iso-a3>ISL</iso-a3>
    <iso-a2>IS</iso-a2>
    <woe-id>23424845</woe-id>
    <continent>Europe</continent>
    <hc-middle-x>0.59</hc-middle-x>
    <hc-middle-y>0.52</hc-middle-y>
    <hc-key>is</hc-key>
    <hc-a2>IS</hc-a2>
  </desc>
</path>
</g>

<text x="350" y="714" text-anchor="middle" font-family="Verdana" font-size="8" stroke-opacity="0.6">Copyright (c) 2020 Highsoft AS, Based on data from Natural Earth</text>

</svg>