<?xml version="1.0" encoding="utf-8" standalone="no"?>
<!DOCTYPE svg PUBLIC "-//W3C//DTD SVG 1.1//EN" "http://www.w3.org/Graphics/SVG/1.1/DTD/svg11.dtd">

<svg version="1.1" height="700pt" width="700pt" xmlns="http://www.w3.org/2000/svg" xmlns:xlink="http://www.w3.org/1999/xlink">
<desc>
Map version: 2.1.0
Copyright (c) 2023 Highsoft AS, Based on data from Natural Earth
</desc>
<title>Oceania</title>
<g id="admin0">

<path fill="#CEE3F5" stroke="#6E6E6E" stroke-width="0.4" id="ID" d="M217.6,209.3 L218.0,210.2 L216.2,211.4 L213.1,212.4 L212.8,211.1 L214.9,210.5 L217.7,208.1 Z M188.4,199.1 L190.5,200.4 L190.7,201.5 L192.5,201.5 L195.6,205.3 L192.4,207.3 L189.8,206.6 L188.2,204.6 L183.9,202.6 L180.0,202.0 L179.2,201.1 L181.1,199.5 Z M215.5,190.6 L213.3,192.0 L214.6,189.8 L217.1,189.1 Z M159.8,191.4 L157.8,195.0 L158.4,195.8 L153.5,196.0 L152.0,195.1 L154.0,194.4 L153.6,192.0 L156.6,189.8 Z M222.5,188.9 L221.0,189.5 L219.0,191.8 L216.3,191.4 L218.3,190.0 L217.5,189.6 L221.2,188.4 Z M225.0,190.1 L224.4,191.4 L223.1,190.6 L225.2,188.4 Z M227.9,187.9 L232.5,188.2 L232.8,189.9 L226.6,190.9 L225.9,190.4 L226.9,188.1 Z M255.8,188.6 L256.4,187.8 L258.9,188.3 L259.6,189.4 Z M149.0,189.8 L150.9,191.5 L147.5,193.8 L146.8,195.6 L144.0,192.6 L141.5,192.1 L139.8,189.5 L143.3,190.2 L146.4,188.9 Z M273.3,185.5 L274.1,186.6 L273.3,187.7 L271.7,186.5 Z M246.7,183.9 L247.7,184.6 L245.3,185.3 L244.5,186.5 L241.1,185.8 L238.8,186.9 L240.0,184.0 L243.3,184.2 L245.9,183.0 Z M290.6,180.0 L289.8,181.0 L289.7,184.0 L287.4,186.1 L286.7,187.6 L285.0,187.4 L285.1,184.1 L287.1,182.5 L288.8,180.2 Z M135.3,179.0 L136.5,179.9 L131.6,182.3 L127.9,182.4 L124.4,182.0 L125.3,179.7 L127.2,179.4 Z M192.1,173.7 L191.7,168.2 L192.0,167.6 L192.6,169.4 Z M300.0,169.6 L299.1,169.4 L298.7,166.8 L301.1,168.7 L303.1,164.3 L303.1,166.8 L300.7,170.2 Z M204.5,161.5 L205.8,162.3 L205.0,164.8 L203.5,162.9 Z M212.1,160.1 L210.9,161.3 L211.0,163.4 L210.1,164.4 L207.7,163.9 L208.8,161.1 L208.8,158.3 L211.7,157.4 Z M215.9,157.7 L214.5,158.3 L213.6,162.1 L215.9,163.2 L213.0,164.6 L212.6,166.5 L210.9,166.4 L210.3,165.0 L211.7,162.8 L213.2,155.9 L214.2,155.2 Z M214.7,151.7 L216.2,152.5 L214.8,153.8 L213.5,152.2 Z M261.8,148.4 L264.2,148.1 L258.1,149.8 L258.6,148.2 L260.8,147.5 Z M154.8,148.7 L154.7,152.1 L152.8,153.6 L152.0,150.0 L152.9,147.0 L154.2,146.1 Z M248.3,143.9 L250.3,144.7 L250.0,145.9 L251.8,146.3 L251.6,148.3 L247.1,150.5 L242.1,148.2 L240.5,145.1 L244.3,143.5 Z M14.4,154.2 L13.3,154.6 L11.5,153.1 L11.6,151.4 Z M76.1,147.0 L77.5,144.1 L81.1,144.2 L82.9,145.5 L82.6,148.9 L80.8,149.9 L79.6,148.3 L77.6,150.1 L77.2,147.3 Z M11.4,151.3 L9.8,152.1 L9.3,149.0 L11.3,150.5 Z M6.5,146.1 L8.0,148.0 L5.7,147.4 L5.4,145.2 Z M241.3,138.1 L240.3,137.6 L239.4,134.8 L240.5,134.0 Z M235.5,132.2 L240.6,132.1 L243.0,132.8 L235.5,133.5 Z M279.5,131.8 L280.2,133.2 L278.6,134.9 L275.6,134.4 L273.8,133.3 L276.4,132.2 Z M226.1,133.9 L226.2,131.1 L228.4,130.7 L233.4,132.1 L234.6,132.8 L230.4,133.1 Z M325.3,132.2 L336.2,134.0 L337.6,134.8 L332.3,135.4 Z M69.3,148.3 L70.9,148.6 L67.6,149.5 L66.9,148.6 L62.7,147.5 L62.1,144.6 L60.6,141.9 L58.5,141.1 L56.2,141.9 L54.7,140.2 L56.6,139.0 L56.3,137.5 L58.4,136.3 L60.5,138.5 L59.5,136.2 L62.5,136.6 L63.8,139.0 L64.9,143.1 L65.8,144.1 L70.1,144.7 L68.8,146.0 L68.4,148.1 Z M255.4,127.6 L259.7,130.4 L258.9,131.6 L254.3,131.7 L252.9,130.8 Z M218.5,129.4 L216.1,129.3 L214.8,130.1 L215.3,127.9 L212.7,130.4 L212.1,129.1 L212.9,126.8 L215.6,126.5 L215.9,128.7 L217.4,127.1 L218.6,127.6 Z M93.9,129.0 L95.5,130.3 L92.9,131.9 L92.5,129.3 Z M0.0,139.2 L0.8,140.6 L2.2,141.9 L2.2,143.4 L0.0,143.1 Z M283.8,124.5 L280.4,124.7 L280.5,124.0 L284.1,124.4 L286.1,125.5 L285.2,128.8 L283.3,127.9 L282.3,125.6 Z M325.1,123.9 L328.9,124.4 L331.9,127.9 L333.5,128.2 L331.4,129.2 L329.3,128.8 L327.9,125.5 L327.2,126.1 Z M47.4,126.3 L48.7,127.4 L46.7,129.5 L45.7,127.9 Z M252.0,120.4 L250.7,121.0 L250.6,118.8 L251.8,118.5 L252.0,120.4 L254.3,119.0 L255.8,120.4 L255.1,121.9 L257.7,123.2 L256.3,124.2 L255.2,123.0 L253.7,123.6 L253.8,122.0 Z M206.0,118.4 L206.0,119.6 L202.3,120.7 L204.1,119.1 Z M281.8,120.6 L281.1,119.0 L279.1,117.6 L284.0,116.8 L288.3,118.3 L287.7,120.3 L285.1,119.9 L282.9,117.5 L282.3,118.0 L285.1,120.1 Z M46.6,120.9 L49.2,122.7 L50.1,125.0 L47.2,125.5 L48.5,122.6 Z M37.6,116.0 L38.1,118.6 L36.7,117.5 L37.5,116.0 Z M33.7,115.2 L34.3,117.0 L31.5,115.5 L31.5,114.4 Z M41.9,115.1 L43.2,114.8 L44.9,116.0 L44.8,117.5 Z M48.1,116.2 L46.8,115.8 L46.4,114.1 L44.4,113.9 L47.5,112.5 Z M26.1,111.2 L28.4,111.7 L28.7,113.6 L25.2,112.3 L24.0,110.9 Z M21.0,107.2 L21.2,109.7 L20.0,110.4 L18.2,108.6 L18.5,107.4 Z M260.3,95.9 L264.1,92.8 L265.1,94.1 L263.3,98.0 L261.5,98.1 Z M79.3,84.3 L80.4,86.2 L79.7,87.9 L77.6,88.0 L78.9,86.8 L77.2,86.5 L76.4,85.2 L78.5,82.9 Z M246.8,80.4 L248.2,78.2 L247.3,77.8 L247.5,75.3 L249.3,77.7 L248.2,79.9 Z M218.7,206.0 L220.9,205.1 L219.4,204.4 L220.3,200.9 L222.9,198.6 L225.2,199.9 L227.9,197.0 L231.0,195.2 L232.4,195.4 L232.9,197.2 L231.3,197.6 L232.2,199.8 L231.4,201.3 L226.7,205.7 L224.1,205.8 L221.5,207.5 L218.5,207.4 Z M179.6,189.4 L179.9,192.9 L177.4,194.5 L174.9,195.1 L174.2,193.4 L172.2,195.2 L168.6,195.6 L165.1,197.0 L162.3,197.5 L160.2,196.8 L160.7,192.3 L163.7,190.9 L165.9,192.0 L166.3,189.3 L169.8,188.4 L171.7,188.6 L173.4,190.8 L174.6,189.8 L176.8,190.7 Z M166.9,79.6 L164.7,81.3 L165.0,79.6 L165.4,79.7 Z M373.8,143.7 L371.8,176.5 L370.5,179.7 L371.5,181.4 L370.3,200.7 L369.3,200.2 L366.5,196.4 L362.5,192.7 L361.7,191.5 L356.7,192.0 L355.6,190.8 L352.8,192.6 L352.2,191.2 L352.6,190.5 L351.0,191.5 L352.1,191.6 L352.7,193.1 L349.7,193.1 L350.7,191.8 L348.7,193.1 L343.5,192.9 L341.6,193.2 L342.8,190.2 L345.4,186.2 L347.3,185.0 L352.3,184.5 L354.5,186.4 L353.7,188.3 L354.7,186.3 L351.3,182.9 L355.4,183.5 L352.0,182.2 L350.4,180.6 L351.9,180.3 L351.8,178.0 L349.8,175.9 L348.3,171.3 L346.6,169.8 L346.8,167.1 L344.6,166.5 L343.6,165.2 L339.4,163.1 L335.9,162.2 L328.6,158.3 L323.8,157.3 L322.1,157.5 L317.1,154.4 L317.4,152.5 L316.0,153.5 L314.3,152.0 L314.1,153.3 L312.2,151.5 L311.0,151.6 L308.9,149.5 L308.8,146.2 L310.4,144.9 L310.4,143.5 L308.7,145.2 L307.8,149.1 L306.2,150.4 L306.6,151.5 L304.7,153.4 L302.2,153.7 L300.2,149.9 L302.0,148.8 L301.0,146.4 L299.8,146.8 L298.8,144.8 L296.8,143.3 L293.7,142.9 L293.6,141.8 L295.8,140.9 L299.2,141.3 L300.5,142.2 L303.2,139.3 L305.7,139.1 L306.6,140.2 L310.1,141.1 L310.2,139.6 L311.7,139.0 L310.0,137.6 L311.4,136.3 L308.7,137.4 L305.6,137.0 L300.3,137.7 L299.1,136.6 L297.2,137.3 L294.8,135.8 L292.6,130.5 L287.1,130.4 L285.0,129.7 L287.7,126.5 L287.6,124.2 L293.4,123.1 L295.4,121.3 L298.5,120.3 L300.9,120.4 L304.8,122.1 L306.9,123.9 L312.2,124.0 L313.9,125.4 L312.6,126.1 L314.7,129.7 L312.8,132.6 L313.3,138.2 L314.7,140.1 L315.8,143.2 L317.0,139.5 L317.9,144.1 L319.3,143.6 L318.9,145.7 L320.3,147.5 L324.6,147.9 L328.6,144.8 L329.2,142.9 L332.0,141.1 L333.3,138.2 L336.5,138.6 L340.7,137.2 L340.1,134.6 L346.0,132.2 L353.6,135.3 L354.8,136.6 L364.0,141.1 L366.7,140.8 L371.8,142.7 L371.3,143.6 Z M313.9,174.1 L314.4,174.7 L315.1,175.9 L312.1,178.7 L311.0,177.4 L311.9,172.2 L313.8,174.1 L314.2,173.7 L313.6,173.7 L311.8,171.0 L313.8,171.2 L314.0,168.8 L312.8,168.7 L316.0,165.8 L317.5,168.0 L316.3,170.2 L317.5,171.7 L316.8,173.7 L314.9,173.7 L316.1,175.0 L317.6,174.9 L316.6,175.8 Z M28.3,116.3 L26.4,115.4 L26.0,112.6 L28.4,113.9 L28.5,115.5 L28.7,114.9 L31.2,115.7 L34.3,117.7 L29.6,118.0 L28.1,117.3 Z M213.8,188.6 L213.8,188.6 L213.8,188.7 L213.8,188.7 L213.8,188.7 L213.8,188.6 L213.8,188.6 Z M213.8,188.6 L212.0,188.9 L213.1,187.5 L213.8,188.6 L213.8,188.6 Z M213.8,188.7 L214.4,189.8 L212.6,190.7 L212.6,192.2 L209.1,193.4 L206.6,193.3 L203.8,194.7 L200.4,193.9 L199.9,195.0 L196.3,195.2 L193.4,194.1 L189.4,193.9 L187.5,194.8 L186.4,192.9 L185.6,194.3 L184.5,192.4 L182.8,193.6 L183.1,191.2 L185.4,193.0 L190.0,189.7 L193.3,189.6 L196.6,190.0 L201.3,192.3 L205.6,190.7 L208.1,192.5 L213.8,188.7 L213.8,188.7 Z M110.4,178.6 L113.4,177.8 L115.6,179.1 L117.7,179.0 L118.5,179.9 L123.2,179.8 L124.2,182.8 L125.3,182.8 L124.8,185.2 L129.6,187.2 L131.6,186.4 L134.0,186.5 L135.8,185.5 L139.8,187.2 L139.1,192.3 L141.3,195.4 L139.3,195.2 L138.7,194.1 L135.9,194.2 L134.4,193.3 L128.9,191.5 L124.4,193.2 L121.5,192.4 L116.7,192.0 L115.7,193.0 L111.3,192.5 L105.2,191.3 L101.2,189.5 L95.3,188.4 L93.0,188.3 L92.1,189.1 L91.0,187.8 L86.3,189.9 L80.7,188.9 L78.2,187.6 L70.4,187.4 L69.0,186.0 L70.2,183.6 L68.0,183.8 L65.1,182.6 L58.9,183.2 L58.3,181.8 L59.8,181.6 L60.6,182.8 L63.6,179.3 L64.0,176.1 L65.3,174.3 L69.3,175.4 L73.7,175.4 L74.0,174.0 L76.8,174.3 L77.9,175.7 L80.9,175.9 L83.4,177.0 L85.7,176.1 L87.4,178.1 L88.2,180.5 L94.7,181.1 L96.3,180.6 L99.5,181.2 L104.6,181.1 L106.0,178.8 L106.1,177.1 L108.3,176.2 Z M257.6,147.9 L256.9,144.5 L255.0,146.2 L253.7,145.5 L255.7,144.4 L257.5,144.3 L257.9,143.2 L259.9,141.8 L266.1,141.9 L267.7,141.4 L268.3,142.8 L271.2,141.3 L276.5,143.2 L279.2,143.1 L281.2,144.5 L282.0,147.0 L283.8,148.5 L283.4,151.1 L275.9,147.3 L275.1,146.2 L272.0,145.8 L271.5,147.3 L266.8,146.3 L266.1,144.9 L264.3,146.9 L262.6,147.1 L259.5,143.7 Z M190.6,124.6 L192.1,126.4 L193.0,128.9 L194.4,128.4 L196.6,129.1 L200.3,124.1 L202.2,124.7 L205.8,124.6 L206.7,123.2 L213.4,122.8 L211.4,122.1 L215.9,121.3 L217.8,123.0 L216.6,125.6 L214.3,124.1 L212.1,124.5 L208.2,129.6 L206.5,130.7 L203.1,131.7 L202.2,133.4 L198.8,132.3 L201.1,135.6 L203.4,136.7 L205.1,140.3 L207.8,142.3 L208.2,144.9 L207.3,148.8 L211.0,151.1 L211.1,152.8 L213.2,153.5 L212.6,155.6 L210.5,155.3 L206.1,156.4 L205.1,159.4 L202.6,159.2 L200.6,157.7 L201.0,153.9 L201.8,152.6 L199.4,151.6 L195.3,147.9 L196.8,144.8 L196.8,141.0 L194.1,139.7 L189.0,142.9 L190.7,145.1 L191.3,149.6 L190.5,151.4 L190.7,155.5 L191.4,157.5 L190.3,159.7 L189.9,162.2 L191.7,166.3 L190.5,165.3 L186.9,165.9 L186.0,167.0 L183.9,166.7 L181.9,164.1 L183.4,160.0 L183.1,158.8 L184.2,154.9 L183.8,152.4 L182.6,149.7 L182.9,147.7 L181.1,147.2 L177.8,148.5 L176.3,144.3 L176.3,142.3 L179.5,138.5 L179.4,136.4 L181.2,134.3 L180.9,127.6 L182.7,124.3 L184.5,122.3 L184.9,117.6 L185.7,116.0 L184.8,114.5 L186.9,112.0 L187.2,110.0 L189.7,108.9 L191.7,109.5 L193.8,106.9 L194.7,104.4 L197.9,105.4 L199.6,104.8 L199.9,106.4 L208.7,107.2 L212.3,109.0 L213.3,107.7 L221.1,108.8 L225.5,106.9 L226.2,105.6 L228.0,105.5 L227.6,104.0 L230.3,102.9 L230.2,102.0 L233.0,100.6 L234.1,103.5 L233.0,103.5 L230.8,107.5 L228.7,109.0 L227.2,111.4 L225.6,112.6 L220.4,113.4 L215.8,113.4 L214.3,111.6 L207.6,111.9 L202.9,112.6 L201.9,111.7 L194.7,112.7 L192.8,111.8 L190.0,112.3 L187.9,115.0 L186.7,118.5 L187.6,122.5 L189.1,124.5 Z M266.4,114.3 L258.3,112.0 L257.6,113.6 L257.7,116.5 L259.0,120.1 L262.4,124.5 L261.5,124.8 L259.0,122.7 L257.3,119.6 L255.7,118.4 L256.1,113.8 L253.8,110.2 L255.4,108.9 L254.3,108.4 L253.4,105.3 L254.7,103.1 L255.0,100.6 L258.1,96.9 L259.3,96.6 L257.5,100.0 L259.0,100.9 L259.1,102.6 L257.8,106.0 L255.5,107.4 L256.9,109.2 L258.2,107.3 L260.6,105.7 L259.6,105.1 L263.0,102.6 L265.3,102.4 L265.1,106.9 L261.6,108.3 L261.6,110.4 L264.9,111.6 L264.9,113.3 Z M163.8,79.7 L162.2,80.3 L166.3,82.5 L165.6,84.4 L159.6,84.5 L165.0,86.4 L162.0,88.2 L164.5,89.4 L163.9,90.9 L165.7,91.1 L166.5,93.7 L169.0,96.7 L167.7,97.7 L167.1,100.2 L169.5,102.2 L175.0,105.7 L177.6,108.2 L175.8,109.7 L173.7,109.7 L169.2,108.7 L166.9,109.8 L165.2,112.7 L164.0,116.2 L164.5,117.5 L163.7,119.5 L163.9,121.9 L165.2,120.9 L164.8,123.4 L165.5,124.1 L162.5,124.4 L160.3,128.0 L158.5,128.6 L156.1,130.6 L154.7,133.2 L155.5,135.4 L154.0,136.8 L156.8,137.2 L156.4,139.8 L155.1,140.3 L154.9,142.6 L153.9,144.2 L153.0,142.6 L153.2,145.7 L151.6,149.6 L139.9,155.0 L139.6,150.7 L138.5,149.1 L134.5,148.0 L130.9,149.1 L130.6,146.7 L128.3,147.6 L125.3,144.6 L125.3,146.7 L121.9,149.2 L119.0,148.4 L115.6,150.8 L114.9,150.6 L114.7,146.4 L113.8,144.2 L112.5,146.0 L109.9,145.5 L107.9,146.7 L104.4,147.1 L102.9,145.3 L100.8,146.6 L99.6,143.3 L100.2,142.5 L98.9,139.6 L98.6,137.1 L97.0,136.4 L98.2,132.8 L96.8,130.0 L92.8,127.9 L90.8,128.1 L91.3,125.6 L89.3,125.0 L88.5,122.8 L89.7,122.1 L89.4,120.2 L90.6,120.4 L87.0,117.6 L86.2,113.3 L87.2,111.8 L86.7,110.1 L87.9,106.6 L90.1,104.3 L89.9,103.1 L92.6,101.6 L91.7,103.4 L94.8,107.6 L97.8,109.5 L98.8,111.1 L101.4,112.2 L104.1,110.8 L107.1,109.9 L108.6,110.4 L112.8,110.2 L115.2,108.8 L115.8,106.1 L118.4,104.9 L123.4,104.9 L124.0,105.9 L129.2,107.4 L131.5,105.4 L135.8,104.7 L136.8,105.3 L139.6,100.9 L139.0,97.9 L142.8,95.3 L141.4,94.5 L141.4,92.5 L142.9,90.5 L145.0,90.6 L146.1,86.8 L145.4,82.7 L146.3,80.2 L148.0,78.1 L149.6,79.1 L150.6,78.1 L153.0,78.8 L155.9,78.0 L160.5,78.0 Z M13.3,108.4 L12.7,106.2 L14.8,105.7 L17.2,107.6 L18.2,110.0 L21.9,110.9 L25.1,112.9 L26.5,116.4 L28.7,118.1 L32.5,118.2 L34.6,120.3 L37.5,119.7 L40.8,121.9 L41.2,124.1 L39.4,124.2 L38.0,126.2 L41.2,127.1 L38.3,128.9 L37.7,130.5 L42.4,133.1 L43.4,132.5 L45.8,133.2 L47.2,132.7 L49.2,139.9 L52.4,142.4 L52.6,143.5 L59.2,144.0 L59.2,145.3 L60.8,146.4 L61.0,148.0 L63.1,148.8 L63.8,151.2 L62.6,152.3 L61.8,155.1 L63.1,156.4 L62.1,160.1 L63.1,162.0 L62.9,174.0 L61.3,174.0 L58.5,171.2 L57.0,174.1 L52.5,171.8 L51.7,172.5 L53.6,175.5 L49.7,173.4 L43.9,167.8 L41.2,166.8 L36.8,164.3 L31.1,160.4 L30.0,157.4 L24.5,154.4 L21.4,150.1 L19.3,149.0 L16.5,145.3 L16.9,144.3 L13.6,139.3 L12.0,137.9 L10.7,134.0 L5.9,129.8 L5.0,127.5 L3.7,126.5 L0.0,125.5 L0.0,97.7 L2.3,98.8 L4.5,100.7 L4.5,102.9 L6.2,104.3 L6.8,102.6 L8.7,105.7 L10.5,107.3 Z">
  <desc xmlns="http://www.highcharts.com/svg/namespace">
    <name>Indonesia</name>
    <labelrank>2</labelrank>
    <country-abbrev>Indo.</country-abbrev>
    <subregion>South-Eastern Asia</subregion>
    <region-wb>East Asia &amp; Pacific</region-wb>
    <iso-a3>IDN</iso-a3>
    <iso-a2>ID</iso-a2>
    <woe-id>23424846</woe-id>
    <continent>Asia</continent>
    <hc-middle-x>0.35</hc-middle-x>
    <hc-middle-y>0.36</hc-middle-y>
    <hc-key>id</hc-key>
    <hc-a2>ID</hc-a2>
  </desc>
</path>

<path fill="#CEE3F5" stroke="#6E6E6E" stroke-width="0.4" id="PW" d="M321.1,48.9 L320.4,50.9 L319.4,49.9 L320.3,48.6 Z">
  <desc xmlns="http://www.highcharts.com/svg/namespace">
    <name>Palau</name>
    <labelrank>6</labelrank>
    <country-abbrev>Palau</country-abbrev>
    <subregion>Micronesia</subregion>
    <region-wb>East Asia &amp; Pacific</region-wb>
    <iso-a3>PLW</iso-a3>
    <iso-a2>PW</iso-a2>
    <woe-id>23424927</woe-id>
    <continent>Oceania</continent>
    <hc-middle-x>0.44</hc-middle-x>
    <hc-middle-y>0.47</hc-middle-y>
    <hc-key>pw</hc-key>
    <hc-a2>PW</hc-a2>
  </desc>
</path>

<path fill="#CEE3F5" stroke="#6E6E6E" stroke-width="0.4" id="SB" d="M532.2,237.6 L536.4,240.9 L535.5,241.2 L533.9,239.1 L531.9,238.5 Z M584.5,238.0 L584.3,238.9 L582.5,239.5 L581.8,238.4 Z M548.1,229.2 L548.7,230.7 L551.1,231.1 L552.2,233.3 L552.0,234.4 L548.0,233.1 L546.8,232.1 L546.1,229.6 L544.2,229.0 L545.3,228.1 L547.4,229.8 Z M533.7,219.7 L537.4,220.0 L540.6,223.2 L540.8,224.5 L539.2,224.9 L536.5,223.4 L532.4,222.7 L530.7,220.0 L531.9,217.8 Z M519.7,211.2 L517.9,211.7 L517.1,209.8 L519.1,209.8 Z M546.1,222.1 L547.3,223.1 L547.2,224.7 L544.8,221.3 L542.0,218.3 L540.6,211.4 L542.0,210.9 L543.8,213.8 L543.1,215.5 L544.8,217.2 Z M511.5,206.2 L514.4,204.2 L515.5,206.8 L516.2,206.8 L517.0,210.0 L514.5,208.4 L514.6,207.0 L512.7,206.7 L513.0,208.7 L511.9,210.4 L511.1,209.1 L512.5,207.9 Z M511.4,205.1 L509.9,204.7 L509.5,203.7 L510.9,202.8 Z M506.4,201.8 L507.1,199.8 L508.6,201.5 L506.4,203.3 Z M521.4,200.8 L525.6,202.4 L528.5,205.6 L531.0,207.0 L534.2,210.0 L534.4,212.0 L526.0,205.8 Z M516.6,199.7 L511.6,198.3 L510.2,197.0 L508.4,194.1 L506.6,192.4 L507.0,191.3 L511.5,194.4 L512.2,196.5 L514.1,198.5 Z">
  <desc xmlns="http://www.highcharts.com/svg/namespace">
    <name>Solomon Islands</name>
    <labelrank>3</labelrank>
    <country-abbrev>S. Is.</country-abbrev>
    <subregion>Melanesia</subregion>
    <region-wb>East Asia &amp; Pacific</region-wb>
    <iso-a3>SLB</iso-a3>
    <iso-a2>SB</iso-a2>
    <woe-id>23424766</woe-id>
    <continent>Oceania</continent>
    <hc-middle-x>0.38</hc-middle-x>
    <hc-middle-y>0.61</hc-middle-y>
    <hc-key>sb</hc-key>
    <hc-a2>SB</hc-a2>
  </desc>
</path>

<path fill="#CEE3F5" stroke="#6E6E6E" stroke-width="0.4" id="AU" d="M407.8,488.7 L406.1,487.5 L408.5,487.0 L409.6,488.3 Z M406.2,480.9 L408.6,483.6 L408.5,486.3 L407.0,486.5 L404.6,482.4 Z M376.5,481.8 L375.3,482.5 L375.2,478.2 L376.9,477.6 Z M329.7,435.6 L329.3,436.9 L333.0,437.4 L332.8,438.9 L330.6,438.4 L328.2,440.3 L326.3,439.2 L322.5,439.8 L321.1,438.3 L321.5,437.0 L327.6,435.5 Z M133.9,342.5 L136.1,347.4 L134.8,346.6 L133.6,343.9 Z M461.8,346.2 L462.3,348.7 L458.9,355.4 L458.3,353.1 L459.4,349.9 L461.3,348.1 L460.5,346.7 Z M444.7,332.8 L446.0,333.7 L445.9,335.9 L444.2,333.1 Z M332.4,239.7 L333.3,239.8 L331.3,242.0 L332.9,244.1 L329.0,243.0 L329.0,239.6 L331.6,238.3 Z M278.0,217.6 L278.5,219.6 L280.0,220.5 L275.1,220.6 L276.3,217.7 L277.7,216.2 Z M279.1,215.9 L280.9,216.9 L283.4,216.7 L285.3,215.4 L287.0,215.8 L287.8,217.8 L285.8,220.0 L283.0,221.7 L278.9,219.1 L277.9,215.5 Z M351.4,265.7 L352.1,264.0 L354.8,263.5 L353.3,265.8 L351.4,265.7 L351.4,265.7 Z M400.4,513.2 L398.0,514.4 L398.6,517.3 L396.7,516.2 L394.6,519.5 L392.5,518.2 L388.5,518.1 L388.0,514.4 L387.3,515.3 L386.4,512.8 L385.1,511.7 L383.6,508.0 L383.3,503.8 L385.0,505.7 L383.6,501.5 L381.7,498.8 L379.9,491.5 L381.2,487.6 L383.9,490.0 L388.3,491.5 L388.8,492.4 L393.4,494.3 L398.1,492.8 L401.3,493.3 L402.6,491.8 L404.2,492.5 L405.6,491.0 L407.9,493.9 L406.7,501.8 L407.2,505.0 L405.7,504.3 L404.3,506.8 L403.7,510.2 L403.2,516.0 L401.9,516.1 L400.8,513.7 L402.6,514.1 L402.6,512.6 L400.1,511.9 Z M333.9,227.1 L329.9,231.3 L331.2,232.3 L329.7,234.6 L328.9,233.1 L327.0,234.8 L324.6,235.2 L324.6,238.8 L326.0,238.1 L327.5,239.8 L325.5,239.6 L324.5,242.8 L323.2,243.4 L319.8,247.1 L320.5,249.2 L326.8,253.6 L329.2,256.3 L331.9,255.5 L330.6,258.1 L333.0,257.8 L336.0,260.2 L339.2,261.4 L342.7,265.5 L349.8,267.8 L351.6,271.7 L357.5,275.2 L361.8,274.8 L364.6,273.3 L367.1,267.8 L368.1,267.0 L370.4,261.5 L370.0,260.4 L373.0,252.5 L372.0,247.8 L372.8,244.3 L372.0,243.2 L372.6,239.9 L374.2,237.1 L373.4,234.8 L375.6,232.1 L373.7,230.8 L375.8,226.9 L376.8,227.4 L379.0,220.8 L379.6,217.3 L382.1,215.6 L383.5,215.9 L385.3,221.7 L385.1,225.7 L387.8,227.0 L386.5,230.0 L389.4,232.7 L388.7,234.8 L389.7,235.4 L390.2,240.7 L389.5,242.6 L390.7,245.0 L391.3,248.4 L392.5,249.5 L397.3,246.8 L398.7,250.3 L404.1,254.1 L403.2,255.4 L403.1,259.2 L404.4,263.9 L403.6,267.2 L407.2,272.8 L409.0,278.1 L407.5,283.5 L409.9,283.5 L410.2,285.0 L409.2,289.0 L410.5,290.8 L415.9,294.3 L418.6,294.0 L420.2,298.4 L420.8,297.2 L422.3,299.3 L425.0,300.0 L425.9,301.9 L427.3,301.0 L429.0,304.5 L427.6,305.5 L429.1,308.1 L432.0,310.6 L433.5,316.3 L434.1,321.1 L437.4,324.9 L436.6,321.8 L437.8,320.5 L439.0,322.9 L442.0,325.1 L441.5,321.5 L443.3,324.0 L443.7,326.0 L442.8,330.0 L443.0,332.3 L447.6,338.1 L450.3,338.5 L452.7,344.1 L454.7,345.5 L456.4,350.1 L458.3,350.7 L458.1,354.9 L460.0,356.7 L458.6,359.7 L458.9,366.7 L457.4,367.8 L459.6,373.0 L460.5,369.9 L461.3,370.3 L459.9,376.1 L460.8,378.0 L460.3,383.4 L457.8,387.3 L457.2,390.7 L453.6,399.9 L454.2,401.4 L452.4,406.7 L448.4,412.6 L448.4,415.2 L444.6,418.1 L442.4,418.5 L437.8,425.1 L437.1,428.2 L433.9,431.4 L431.8,439.3 L430.2,439.5 L426.5,445.6 L426.0,449.6 L423.6,455.3 L424.4,458.7 L423.7,460.8 L419.6,463.2 L410.6,462.7 L404.9,464.7 L399.0,469.7 L393.6,470.4 L394.2,471.9 L395.9,470.8 L395.1,474.2 L392.8,470.9 L391.5,471.7 L390.8,469.1 L385.6,467.5 L387.2,464.7 L384.3,467.2 L383.3,465.9 L385.9,463.9 L385.1,461.3 L381.4,463.1 L382.2,464.9 L380.3,464.9 L373.3,469.8 L368.0,466.7 L364.9,464.4 L363.6,464.7 L360.1,463.1 L359.2,464.4 L354.1,460.7 L352.2,460.7 L349.6,458.7 L348.8,456.6 L345.3,451.7 L344.9,449.5 L346.4,446.4 L344.5,441.0 L340.7,436.3 L342.2,437.3 L343.4,435.1 L342.6,433.8 L340.2,434.5 L340.4,435.8 L334.2,436.6 L333.6,435.5 L336.1,433.7 L337.2,428.0 L333.9,422.0 L330.3,431.8 L328.2,431.1 L326.3,432.2 L323.7,432.1 L325.4,428.9 L328.6,429.2 L329.3,426.4 L329.0,422.1 L330.3,419.5 L333.1,416.3 L332.2,413.8 L334.0,412.8 L332.6,407.3 L332.0,411.2 L329.5,412.5 L327.5,417.2 L322.5,419.3 L317.0,425.1 L316.5,427.2 L317.5,429.3 L314.3,428.2 L312.9,425.9 L311.4,418.8 L308.8,416.2 L308.7,413.6 L307.6,412.4 L304.6,411.7 L303.1,407.4 L304.9,407.2 L300.0,401.6 L296.0,402.4 L293.3,400.1 L288.8,400.7 L283.4,396.6 L280.6,395.3 L277.8,396.4 L272.5,396.0 L263.2,396.9 L255.5,400.5 L249.7,402.2 L244.9,402.5 L241.0,401.7 L229.4,408.0 L226.6,408.4 L224.7,410.0 L223.5,414.2 L220.1,417.7 L217.2,418.3 L216.7,417.1 L210.6,417.6 L208.8,418.4 L208.3,416.7 L204.5,416.7 L197.0,417.5 L195.9,418.3 L192.6,417.9 L189.2,420.0 L186.9,423.6 L183.6,423.1 L180.8,425.6 L180.1,427.4 L174.7,428.9 L166.6,429.2 L161.4,427.3 L158.4,423.7 L156.2,422.6 L154.5,423.1 L153.2,420.5 L153.2,415.2 L155.5,416.4 L158.4,412.9 L157.7,407.0 L158.5,405.9 L158.6,400.2 L158.0,397.6 L153.7,390.2 L151.9,384.6 L151.7,377.9 L150.3,374.4 L148.2,371.7 L147.7,369.4 L144.7,365.7 L144.3,361.9 L143.1,358.6 L139.5,353.0 L137.0,350.6 L137.7,348.6 L139.2,352.0 L141.2,352.2 L141.7,349.9 L140.0,348.9 L137.7,344.6 L138.6,343.5 L140.5,346.0 L140.9,348.7 L141.8,346.6 L142.4,349.8 L143.5,350.8 L144.5,345.3 L143.7,344.9 L139.8,339.1 L138.8,335.6 L137.4,333.9 L137.0,329.6 L138.3,325.8 L139.5,324.7 L139.9,320.6 L138.3,316.4 L141.0,310.0 L142.2,309.3 L141.7,312.7 L142.7,315.8 L144.2,315.3 L146.3,309.6 L152.8,306.4 L158.9,300.3 L160.7,300.1 L163.8,297.6 L164.4,299.0 L166.6,297.9 L168.3,299.0 L171.5,298.3 L174.7,295.6 L180.5,294.6 L181.6,292.7 L183.6,291.8 L186.5,292.7 L192.1,291.2 L198.0,288.7 L200.0,287.2 L202.6,283.7 L205.1,278.2 L209.3,275.5 L208.0,274.0 L207.9,267.8 L211.2,263.6 L213.3,263.5 L212.8,262.0 L214.9,259.9 L214.5,261.7 L216.1,263.7 L219.5,269.9 L219.9,265.2 L222.1,267.2 L220.7,263.0 L219.1,262.3 L221.0,258.9 L222.5,258.5 L225.1,260.1 L226.6,259.5 L227.1,257.1 L226.5,252.4 L228.5,252.3 L228.8,250.1 L231.1,250.8 L230.5,248.9 L231.8,247.7 L234.5,249.2 L235.3,248.0 L232.9,245.8 L233.8,244.3 L238.5,243.0 L239.4,244.7 L240.5,243.6 L241.3,240.0 L242.1,241.0 L243.9,238.9 L245.3,241.2 L246.6,237.4 L248.3,236.8 L249.8,238.9 L251.7,238.4 L254.4,240.8 L256.1,243.4 L258.7,245.4 L257.7,249.1 L261.7,245.9 L266.1,247.1 L267.8,249.1 L267.5,246.8 L269.7,247.6 L269.9,246.4 L272.4,247.0 L268.7,243.0 L270.4,240.2 L271.9,239.6 L273.4,234.6 L275.5,234.9 L276.5,233.4 L275.6,230.3 L277.2,230.1 L277.5,228.0 L279.3,227.7 L279.8,226.0 L283.6,225.4 L283.1,223.8 L287.3,225.0 L290.9,224.4 L292.1,225.2 L297.6,223.9 L297.2,219.6 L295.1,217.7 L292.6,218.3 L289.9,216.5 L291.8,214.9 L293.7,217.4 L293.6,215.0 L296.8,216.6 L296.9,213.8 L297.7,218.4 L299.4,216.9 L302.0,220.3 L305.5,221.2 L307.3,220.5 L312.6,223.7 L315.5,222.8 L318.0,225.6 L325.1,222.3 L323.0,225.0 L323.7,226.3 L325.1,224.9 L326.5,225.8 L326.1,227.7 L328.1,227.6 L329.1,226.1 L327.2,224.3 L330.1,223.4 L331.9,226.4 L333.0,225.2 Z M351.4,265.7 L350.8,267.0 L351.1,265.7 L351.4,265.7 L351.4,265.7 Z">
  <desc xmlns="http://www.highcharts.com/svg/namespace">
    <name>Australia</name>
    <labelrank>2</labelrank>
    <country-abbrev>Auz.</country-abbrev>
    <subregion>Australia and New Zealand</subregion>
    <region-wb>East Asia &amp; Pacific</region-wb>
    <iso-a3>AUS</iso-a3>
    <iso-a2>AU</iso-a2>
    <woe-id>-90</woe-id>
    <continent>Oceania</continent>
    <hc-middle-x>0.53</hc-middle-x>
    <hc-middle-y>0.38</hc-middle-y>
    <hc-key>au</hc-key>
    <hc-a2>AU</hc-a2>
  </desc>
</path>

<path fill="#CEE3F5" stroke="#6E6E6E" stroke-width="0.4" id="NZ" d="M543.5,571.3 L545.3,570.5 L546.9,572.9 L547.0,575.1 L544.2,575.8 L543.3,575.1 L541.3,576.3 L544.1,572.6 Z M664.0,562.3 L666.7,563.1 L664.0,563.9 L665.0,566.1 L663.3,566.5 L662.5,565.2 L663.8,564.5 Z M572.3,556.2 L570.2,558.4 L569.2,560.9 L566.6,563.7 L567.6,564.6 L566.8,565.9 L564.0,566.2 L563.0,567.8 L557.8,571.5 L553.3,571.9 L552.2,570.3 L549.0,570.3 L548.0,567.4 L545.2,567.4 L544.5,565.1 L542.9,564.3 L542.3,565.4 L537.7,564.3 L536.8,562.7 L537.6,561.2 L536.0,561.8 L536.4,559.6 L537.7,559.1 L539.4,555.2 L543.9,551.0 L547.6,548.7 L550.8,545.6 L553.3,543.9 L555.9,543.9 L559.6,541.9 L564.0,540.6 L568.9,536.7 L572.2,535.7 L575.9,532.6 L577.8,529.9 L580.0,525.5 L583.0,524.4 L585.1,522.2 L586.3,517.1 L591.0,514.1 L591.8,514.4 L590.9,516.6 L593.2,517.5 L593.1,522.7 L595.8,521.4 L598.1,520.9 L599.0,519.8 L598.1,523.4 L601.6,520.8 L602.6,521.4 L600.8,523.4 L599.6,526.0 L601.0,528.4 L598.3,531.0 L597.0,532.9 L594.1,535.0 L591.2,539.2 L587.3,540.7 L586.3,543.1 L587.2,546.0 L588.3,545.9 L588.1,548.0 L586.0,547.9 L585.8,546.9 L583.4,545.9 L581.9,547.1 L574.5,550.0 L572.9,552.7 Z M634.1,505.0 L632.8,508.0 L633.6,508.6 L632.3,510.0 L632.7,508.1 L629.1,507.2 L626.5,507.9 L624.8,510.0 L625.2,513.2 L622.9,517.0 L618.2,521.3 L614.3,526.1 L608.9,528.7 L608.1,526.6 L605.8,526.2 L606.4,524.3 L605.0,525.3 L604.1,524.6 L607.2,521.9 L609.8,518.3 L610.7,515.6 L610.5,513.6 L609.4,511.7 L606.6,510.2 L605.1,507.8 L602.8,506.6 L601.5,504.9 L601.8,503.1 L605.5,501.5 L608.5,500.7 L610.9,493.9 L612.6,490.8 L611.6,483.8 L612.7,484.8 L614.1,484.4 L613.0,482.8 L611.2,483.2 L610.9,479.4 L611.9,479.1 L611.7,475.5 L609.0,473.9 L610.2,476.5 L609.0,475.5 L605.6,468.1 L608.0,466.0 L605.9,466.4 L605.6,467.5 L603.8,464.3 L604.9,463.0 L602.7,457.7 L601.9,456.9 L605.0,456.7 L604.5,458.0 L605.0,460.9 L607.1,462.8 L608.0,462.3 L610.3,463.4 L610.9,465.8 L612.1,467.1 L613.5,466.0 L613.3,468.1 L614.4,470.0 L613.1,473.5 L615.3,477.9 L614.4,477.4 L613.7,479.1 L614.1,481.9 L617.0,483.6 L618.1,486.6 L619.0,486.3 L618.7,483.2 L620.2,480.4 L620.4,482.6 L622.1,482.4 L621.5,486.4 L621.5,491.3 L625.2,493.3 L626.4,494.7 L629.4,496.3 L631.7,496.7 L634.5,494.4 L636.7,493.5 L638.8,494.1 L640.6,496.0 L638.5,498.4 L637.0,503.4 Z">
  <desc xmlns="http://www.highcharts.com/svg/namespace">
    <name>New Zealand</name>
    <labelrank>2</labelrank>
    <country-abbrev>N.Z.</country-abbrev>
    <subregion>Australia and New Zealand</subregion>
    <region-wb>East Asia &amp; Pacific</region-wb>
    <iso-a3>NZL</iso-a3>
    <iso-a2>NZ</iso-a2>
    <woe-id>23424916</woe-id>
    <continent>Oceania</continent>
    <hc-middle-x>0.18</hc-middle-x>
    <hc-middle-y>0.82</hc-middle-y>
    <hc-key>nz</hc-key>
    <hc-a2>NZ</hc-a2>
  </desc>
</path>

<path fill="#CEE3F5" stroke="#6E6E6E" stroke-width="0.4" id="NR" d="M606.4,151.4 L606.1,151.4 L606.2,151.0 L606.5,151.0 Z">
  <desc xmlns="http://www.highcharts.com/svg/namespace">
    <name>Nauru</name>
    <labelrank>6</labelrank>
    <country-abbrev>Nauru</country-abbrev>
    <subregion>Micronesia</subregion>
    <region-wb>East Asia &amp; Pacific</region-wb>
    <iso-a3>NRU</iso-a3>
    <iso-a2>NR</iso-a2>
    <woe-id>23424912</woe-id>
    <continent>Oceania</continent>
    <hc-middle-x>0.50</hc-middle-x>
    <hc-middle-y>0.55</hc-middle-y>
    <hc-key>nr</hc-key>
    <hc-a2>NR</hc-a2>
  </desc>
</path>

<path fill="#CEE3F5" stroke="#6E6E6E" stroke-width="0.4" id="TV" d="M699.9,240.5 L699.9,240.4 L700.0,239.9 L700.0,240.5 Z">
  <desc xmlns="http://www.highcharts.com/svg/namespace">
    <name>Tuvalu</name>
    <labelrank>6</labelrank>
    <country-abbrev>Tuv.</country-abbrev>
    <subregion>Polynesia</subregion>
    <region-wb>East Asia &amp; Pacific</region-wb>
    <iso-a3>TUV</iso-a3>
    <iso-a2>TV</iso-a2>
    <woe-id>23424970</woe-id>
    <continent>Oceania</continent>
    <hc-middle-x>0.36</hc-middle-x>
    <hc-middle-y>0.50</hc-middle-y>
    <hc-key>tv</hc-key>
    <hc-a2>TV</hc-a2>
  </desc>
</path>

<path fill="#CEE3F5" stroke="#6E6E6E" stroke-width="0.4" id="PG" d="M473.8,228.6 L478.0,231.2 L476.7,232.0 L474.1,229.9 Z M456.7,215.0 L457.3,216.0 L458.9,215.5 L458.1,217.5 L455.8,216.4 L454.5,212.7 Z M456.2,212.1 L455.3,212.5 L451.7,211.8 L452.5,209.3 L454.7,210.1 Z M451.3,209.5 L450.9,210.8 L449.1,209.2 L450.1,208.0 Z M469.9,207.7 L472.6,208.5 L474.4,209.9 L472.5,210.7 Z M393.4,195.8 L392.3,197.1 L393.7,198.8 L390.6,196.5 L391.0,195.7 Z M432.4,173.6 L434.2,174.8 L434.0,176.7 L431.8,174.6 Z M493.5,179.8 L495.3,180.5 L496.7,183.6 L498.5,186.2 L499.9,186.8 L502.1,189.9 L502.4,191.8 L500.0,192.8 L497.1,191.4 L495.7,189.5 L496.4,187.9 L494.3,186.2 L492.6,183.8 L492.3,182.2 Z M492.9,176.4 L493.0,177.6 L492.0,179.4 L491.5,176.5 Z M456.1,148.3 L457.7,149.2 L457.8,150.9 L455.5,150.9 L453.6,148.9 Z M426.8,141.8 L431.5,143.0 L429.5,144.1 L427.2,144.0 L425.0,143.1 L423.8,144.0 L424.0,142.0 Z M460.5,152.2 L461.7,151.5 L466.3,154.0 L469.3,156.7 L471.5,157.5 L472.7,159.5 L475.0,161.4 L475.5,163.1 L478.7,165.0 L480.1,167.5 L479.2,170.4 L477.4,172.4 L475.8,168.7 L476.2,166.2 L473.2,160.6 L469.2,158.3 L467.6,156.4 L463.3,153.0 Z M370.3,200.7 L371.5,181.4 L370.5,179.7 L371.8,176.5 L373.8,143.7 L376.6,144.5 L382.7,147.4 L383.2,148.4 L391.6,151.5 L395.9,152.6 L399.9,156.0 L404.4,156.6 L404.6,157.9 L407.4,159.3 L408.8,161.5 L411.4,162.2 L415.1,166.6 L414.0,171.5 L420.3,173.6 L425.2,177.0 L428.7,177.5 L431.7,181.0 L431.7,184.1 L424.0,183.9 L423.7,185.8 L425.1,188.2 L425.3,190.4 L426.7,191.0 L429.3,193.8 L429.6,194.9 L432.9,196.2 L433.6,200.8 L435.2,201.8 L436.0,205.1 L437.6,205.9 L441.1,205.1 L442.6,206.5 L441.1,208.5 L441.4,209.6 L444.7,211.1 L448.0,211.6 L448.3,212.2 L445.5,212.8 L447.1,215.2 L450.1,216.5 L452.6,217.0 L452.5,218.2 L450.3,218.1 L454.9,220.2 L448.9,220.9 L446.3,219.3 L447.9,218.7 L445.2,217.4 L442.7,217.3 L439.4,216.0 L433.7,215.1 L431.7,213.8 L430.1,214.5 L427.1,212.7 L425.1,208.9 L422.6,207.7 L421.7,204.5 L419.3,203.6 L418.9,201.7 L416.7,198.2 L415.2,195.0 L412.6,193.4 L409.5,193.2 L405.0,191.5 L403.2,189.4 L401.7,191.4 L400.4,190.1 L399.2,191.2 L395.4,189.1 L396.8,192.6 L394.4,193.2 L393.5,194.7 L388.1,195.1 L385.8,194.4 L389.3,196.5 L391.5,199.3 L391.4,200.9 L389.4,201.4 L384.7,203.6 L381.1,201.9 L378.0,202.2 L374.1,201.4 L371.4,201.8 Z M439.1,177.0 L437.1,176.6 L436.6,175.4 L437.7,173.7 L438.7,174.6 L442.5,174.3 L444.5,175.7 L448.9,175.8 L451.3,174.9 L452.1,171.4 L453.6,171.8 L451.9,173.7 L452.6,175.9 L455.2,175.5 L456.9,176.5 L460.5,175.4 L462.5,171.7 L466.0,172.2 L466.9,171.0 L466.1,165.2 L468.9,166.1 L470.2,165.8 L473.6,167.4 L473.3,170.5 L472.0,172.6 L469.4,172.6 L469.1,174.3 L470.2,175.5 L469.8,176.9 L467.0,177.8 L464.3,177.0 L464.7,178.3 L460.2,181.0 L458.6,181.1 L454.8,182.6 L447.5,182.1 L446.2,180.3 L444.9,179.8 L442.6,180.5 L442.3,179.3 Z">
  <desc xmlns="http://www.highcharts.com/svg/namespace">
    <name>Papua New Guinea</name>
    <labelrank>2</labelrank>
    <country-abbrev>P.N.G.</country-abbrev>
    <subregion>Melanesia</subregion>
    <region-wb>East Asia &amp; Pacific</region-wb>
    <iso-a3>PNG</iso-a3>
    <iso-a2>PG</iso-a2>
    <woe-id>23424926</woe-id>
    <continent>Oceania</continent>
    <hc-middle-x>0.24</hc-middle-x>
    <hc-middle-y>0.37</hc-middle-y>
    <hc-key>pg</hc-key>
    <hc-a2>PG</hc-a2>
  </desc>
</path>

<path fill="#CEE3F5" stroke="#6E6E6E" stroke-width="0.4" id="MH" d="M655.1,89.0 L656.5,89.9 L656.8,90.1 L656.3,89.9 Z">
  <desc xmlns="http://www.highcharts.com/svg/namespace">
    <name>Marshall Islands</name>
    <labelrank>6</labelrank>
    <country-abbrev>M. Is.</country-abbrev>
    <subregion>Micronesia</subregion>
    <region-wb>East Asia &amp; Pacific</region-wb>
    <iso-a3>MHL</iso-a3>
    <iso-a2>MH</iso-a2>
    <woe-id>23424932</woe-id>
    <continent>Oceania</continent>
    <hc-middle-x>0.48</hc-middle-x>
    <hc-middle-y>0.56</hc-middle-y>
    <hc-key>mh</hc-key>
    <hc-a2>MH</hc-a2>
  </desc>
</path>

<path fill="#CEE3F5" stroke="#6E6E6E" stroke-width="0.4" id="FM" d="M537.4,72.6 L538.5,73.1 L538.1,74.3 L537.2,74.2 Z">
  <desc xmlns="http://www.highcharts.com/svg/namespace">
    <name>Federated States of Micronesia</name>
    <labelrank>6</labelrank>
    <country-abbrev>F.S.M.</country-abbrev>
    <subregion>Micronesia</subregion>
    <region-wb>East Asia &amp; Pacific</region-wb>
    <iso-a3>FSM</iso-a3>
    <iso-a2>FM</iso-a2>
    <woe-id>23424815</woe-id>
    <continent>Oceania</continent>
    <hc-middle-x>0.52</hc-middle-x>
    <hc-middle-y>0.53</hc-middle-y>
    <hc-key>fm</hc-key>
    <hc-a2>FM</hc-a2>
  </desc>
</path>

<path fill="#CEE3F5" stroke="#6E6E6E" stroke-width="0.4" id="VU" d="M599.9,320.2 L598.3,318.5 L599.5,317.1 L600.6,319.2 Z M599.2,311.9 L600.1,313.6 L599.5,314.3 L597.3,312.9 L597.6,311.3 Z M594.0,299.8 L595.7,302.1 L594.0,302.9 L592.4,301.2 Z M594.3,291.2 L595.0,293.9 L593.7,293.8 L593.3,292.9 Z M595.6,289.8 L594.0,290.0 L592.3,288.8 L594.7,287.6 Z M588.4,286.8 L591.4,290.4 L588.3,291.0 L587.5,286.7 L586.1,286.2 L586.7,284.6 L587.9,284.9 Z M595.6,282.3 L595.6,286.6 L594.9,286.7 L594.8,283.9 L595.4,282.2 L595.6,277.7 L596.0,277.9 Z M587.3,276.2 L587.6,281.5 L587.3,283.4 L585.2,281.6 L583.8,282.0 L582.7,279.4 L583.1,278.5 L582.7,274.6 L583.7,273.0 L584.5,274.8 L584.5,277.7 Z">
  <desc xmlns="http://www.highcharts.com/svg/namespace">
    <name>Vanuatu</name>
    <labelrank>4</labelrank>
    <country-abbrev>Van.</country-abbrev>
    <subregion>Melanesia</subregion>
    <region-wb>East Asia &amp; Pacific</region-wb>
    <iso-a3>VUT</iso-a3>
    <iso-a2>VU</iso-a2>
    <woe-id>23424907</woe-id>
    <continent>Oceania</continent>
    <hc-middle-x>0.13</hc-middle-x>
    <hc-middle-y>0.11</hc-middle-y>
    <hc-key>vu</hc-key>
    <hc-a2>VU</hc-a2>
  </desc>
</path>

<path fill="#CEE3F5" stroke="#6E6E6E" stroke-width="0.4" id="MY" d="M157.8,51.2 L160.0,50.5 L160.0,52.1 L158.4,52.8 Z M165.0,79.6 L165.0,78.7 L166.9,79.6 L165.4,79.7 Z M92.6,101.6 L92.8,102.9 L95.4,105.0 L100.7,104.4 L100.3,105.4 L103.7,105.7 L106.6,107.3 L105.2,105.7 L106.8,100.9 L106.6,98.1 L107.5,97.5 L107.4,94.5 L108.3,97.1 L108.6,95.3 L110.6,93.8 L113.7,93.2 L122.6,90.3 L126.2,84.8 L128.9,82.4 L130.7,79.8 L131.0,76.8 L133.3,77.8 L133.8,79.8 L135.0,79.8 L136.6,81.9 L138.2,80.8 L138.9,78.1 L137.9,75.3 L140.2,73.6 L141.3,78.4 L143.6,78.8 L142.7,77.5 L141.9,73.2 L143.4,73.6 L145.5,70.7 L143.2,69.8 L145.2,67.0 L147.7,67.4 L149.4,64.8 L149.8,62.1 L153.4,58.6 L155.7,53.6 L156.6,55.5 L156.3,57.7 L159.1,53.7 L160.2,54.3 L160.6,57.1 L162.8,57.2 L164.8,59.2 L163.6,61.0 L164.3,62.9 L162.7,63.9 L165.2,63.7 L167.4,62.2 L168.5,64.0 L166.5,64.8 L168.6,65.6 L169.5,64.1 L171.1,64.5 L176.1,68.1 L178.5,67.6 L179.1,69.8 L178.1,70.7 L173.8,72.3 L170.8,71.5 L168.8,73.0 L171.9,76.0 L174.6,76.7 L172.7,77.6 L166.7,78.7 L164.7,77.2 L163.8,79.7 L160.5,78.0 L155.9,78.0 L153.0,78.8 L150.6,78.1 L149.6,79.1 L148.0,78.1 L146.3,80.2 L145.4,82.7 L146.1,86.8 L145.0,90.6 L142.9,90.5 L141.4,92.5 L141.4,94.5 L142.8,95.3 L139.0,97.9 L139.6,100.9 L136.8,105.3 L135.8,104.7 L131.5,105.4 L129.2,107.4 L124.0,105.9 L123.4,104.9 L118.4,104.9 L115.8,106.1 L115.2,108.8 L112.8,110.2 L108.6,110.4 L107.1,109.9 L104.1,110.8 L101.4,112.2 L98.8,111.1 L97.8,109.5 L94.8,107.6 L91.7,103.4 Z M34.3,90.6 L35.8,92.7 L35.8,97.7 L37.9,100.2 L39.1,100.5 L43.5,107.6 L44.7,110.7 L43.0,111.5 L39.2,111.2 L37.8,112.9 L36.3,110.6 L30.9,108.1 L27.9,106.3 L25.1,105.4 L21.2,102.5 L16.4,100.4 L17.0,98.3 L16.2,96.6 L13.6,93.7 L10.5,91.7 L10.8,89.7 L8.7,87.8 L9.1,85.8 L8.3,82.9 L6.2,81.0 L6.6,79.0 L5.6,78.3 L6.0,78.0 L5.2,72.5 L2.8,68.8 L3.0,66.4 L5.1,67.8 L9.1,68.5 L9.3,69.9 L11.7,69.8 L11.9,72.8 L11.1,74.1 L12.5,75.3 L13.7,73.8 L16.2,72.5 L18.7,73.8 L20.8,70.4 L20.8,68.9 L23.7,69.7 L25.0,71.8 L31.1,76.0 L34.6,81.1 L35.3,85.3 Z">
  <desc xmlns="http://www.highcharts.com/svg/namespace">
    <name>Malaysia</name>
    <labelrank>3</labelrank>
    <country-abbrev>Malay.</country-abbrev>
    <subregion>South-Eastern Asia</subregion>
    <region-wb>East Asia &amp; Pacific</region-wb>
    <iso-a3>MYS</iso-a3>
    <iso-a2>MY</iso-a2>
    <woe-id>23424901</woe-id>
    <continent>Asia</continent>
    <hc-middle-x>0.71</hc-middle-x>
    <hc-middle-y>0.73</hc-middle-y>
    <hc-key>my</hc-key>
    <hc-a2>MY</hc-a2>
  </desc>
</path>

<path fill="#CEE3F5" stroke="#6E6E6E" stroke-width="0.4" id="FJ" d="M675.1,327.9 L675.1,328.9 L670.4,328.9 L672.7,328.0 Z M673.4,322.7 L673.3,321.6 L671.0,321.0 L667.2,319.1 L666.8,317.7 L668.7,316.2 L669.7,314.3 L672.6,313.6 L675.6,313.7 L678.2,317.0 L678.1,321.2 L674.8,321.1 Z M687.2,307.5 L690.6,306.8 L691.2,307.9 L687.4,310.8 L687.8,311.4 L691.6,309.5 L690.8,311.7 L685.6,311.3 L685.6,310.3 L682.2,311.1 L680.4,312.0 L680.1,308.8 L681.0,309.1 L683.5,307.9 Z">
  <desc xmlns="http://www.highcharts.com/svg/namespace">
    <name>Fiji</name>
    <labelrank>6</labelrank>
    <country-abbrev>Fiji</country-abbrev>
    <subregion>Melanesia</subregion>
    <region-wb>East Asia &amp; Pacific</region-wb>
    <iso-a3>FJI</iso-a3>
    <iso-a2>FJ</iso-a2>
    <woe-id>23424813</woe-id>
    <continent>Oceania</continent>
    <hc-middle-x>0.24</hc-middle-x>
    <hc-middle-y>0.51</hc-middle-y>
    <hc-key>fj</hc-key>
    <hc-a2>FJ</hc-a2>
  </desc>
</path>

<path fill="#CEE3F5" stroke="#6E6E6E" stroke-width="0.4" id="PH" d="M184.1,70.9 L184.0,70.4 L187.6,68.3 L186.9,69.5 Z M197.1,63.9 L197.0,62.7 L194.3,63.2 L195.3,61.3 L198.8,62.2 Z M204.6,58.2 L202.3,56.6 L204.6,55.2 L207.1,56.5 Z M240.8,27.0 L240.3,27.2 L241.8,24.2 L242.7,26.7 Z M227.3,24.0 L227.0,26.9 L225.1,28.4 L221.3,28.2 L220.6,26.6 L224.1,23.3 Z M238.1,20.9 L238.4,25.8 L236.3,23.7 L236.6,21.7 Z M210.3,19.2 L209.5,20.6 L208.1,20.0 L209.9,17.6 Z M215.5,15.5 L218.3,16.9 L216.6,20.6 L215.7,23.8 L214.5,26.0 L214.3,28.3 L216.0,30.9 L215.2,33.1 L213.4,33.8 L211.8,31.1 L209.3,30.1 L207.4,26.3 L208.1,25.0 L210.3,24.9 L211.9,23.6 L211.3,19.7 L213.0,16.1 Z M222.3,14.5 L222.9,16.3 L222.1,21.6 L219.0,24.3 L217.6,28.8 L216.0,29.4 L216.9,24.4 L219.6,20.3 Z M226.7,10.7 L225.6,8.8 L227.5,8.9 L226.9,10.6 L228.2,12.3 L230.2,11.1 L231.5,11.6 L232.2,15.5 L231.7,17.1 L233.5,19.0 L233.8,22.3 L233.0,22.0 L234.5,25.3 L233.0,24.0 L231.8,21.1 L232.0,24.5 L229.6,23.2 L229.2,20.9 L229.6,16.9 L228.1,15.2 L226.1,15.9 L226.1,12.3 L225.4,9.9 Z M206.3,8.1 L209.2,10.4 L210.3,9.5 L214.5,10.8 L214.1,13.5 L210.9,15.7 L209.1,18.2 L205.7,18.7 L203.1,20.8 L203.0,17.5 L204.0,15.2 L204.5,9.1 L202.1,8.1 L203.1,6.5 Z M184.8,6.8 L184.4,9.4 L183.2,6.6 L184.4,5.9 L183.5,3.1 L187.9,5.4 L187.2,7.9 L185.9,5.8 Z M230.2,10.1 L232.2,8.2 L230.7,8.0 L228.7,5.4 L225.9,3.6 L224.9,0.6 L228.7,0.7 L233.3,0.1 L236.4,3.3 L235.9,6.0 L237.0,12.7 L238.3,13.5 L234.0,14.3 L232.9,12.5 Z M220.1,2.2 L218.5,0.0 L219.5,0.0 L220.3,2.4 L222.8,6.1 L222.8,8.3 L216.8,3.8 L214.6,6.4 L215.4,1.7 L215.1,0.0 L219.4,2.6 Z M204.8,0.0 L203.6,4.4 L202.7,3.0 L203.5,0.0 Z M194.9,3.6 L192.6,0.0 L198.9,0.0 L196.3,3.9 Z M239.1,49.4 L237.8,50.5 L238.9,51.4 L238.9,53.7 L237.6,51.8 L236.4,52.5 L235.3,56.4 L237.0,57.1 L238.2,60.5 L237.8,62.4 L235.2,65.8 L233.3,63.7 L234.2,62.1 L233.1,61.0 L232.3,63.2 L228.0,61.9 L224.7,60.2 L223.0,57.9 L222.7,51.6 L224.7,48.9 L223.0,47.1 L219.7,45.2 L217.3,45.3 L217.7,46.6 L214.8,48.2 L214.3,45.9 L212.9,49.2 L211.5,50.0 L211.4,45.9 L208.6,46.3 L207.1,48.6 L205.1,53.8 L203.4,53.0 L203.3,50.8 L204.4,50.0 L205.1,45.3 L206.6,43.4 L212.4,42.1 L213.9,38.6 L217.9,37.6 L220.1,37.8 L221.2,42.0 L224.6,41.4 L226.2,37.7 L229.4,38.7 L229.6,33.3 L232.8,35.7 L233.7,33.2 L236.6,33.8 L236.7,32.3 L235.4,27.7 L236.0,26.4 L237.5,28.2 L240.4,29.5 L241.7,31.8 L243.1,31.2 L242.7,33.2 L243.9,34.5 L243.8,36.3 L242.0,37.8 L244.4,38.4 L244.3,41.7 L245.3,41.3 L244.7,45.0 L246.3,46.1 L246.6,50.2 L245.2,52.7 L244.1,52.7 L243.3,54.9 L242.8,59.2 L241.8,57.2 L241.6,54.2 L240.7,53.3 Z M173.9,23.5 L178.1,20.5 L178.7,18.4 L177.5,16.4 L180.0,11.7 L180.7,14.1 L180.1,16.0 L181.8,20.0 L183.4,19.1 L185.0,19.8 L183.1,21.0 L182.6,20.1 L180.8,21.7 L178.9,22.1 L177.4,24.8 L173.3,26.4 L173.6,27.9 L171.1,31.9 L167.7,33.7 L166.7,36.0 L164.5,37.8 L162.6,38.2 L162.1,39.7 L159.5,41.1 L160.0,38.5 L163.3,34.5 L165.6,32.5 L166.5,32.8 L171.3,27.6 Z M223.0,0.0 L222.9,0.5 L222.0,0.0 Z">
  <desc xmlns="http://www.highcharts.com/svg/namespace">
    <name>Philippines</name>
    <labelrank>2</labelrank>
    <country-abbrev>Phil.</country-abbrev>
    <subregion>South-Eastern Asia</subregion>
    <region-wb>East Asia &amp; Pacific</region-wb>
    <iso-a3>PHL</iso-a3>
    <iso-a2>PH</iso-a2>
    <woe-id>23424934</woe-id>
    <continent>Asia</continent>
    <hc-middle-x>0.83</hc-middle-x>
    <hc-middle-y>0.61</hc-middle-y>
    <hc-key>ph</hc-key>
    <hc-a2>PH</hc-a2>
  </desc>
</path>
</g>

<text x="350" y="714" text-anchor="middle" font-family="Verdana" font-size="8" stroke-opacity="0.6">Copyright (c) 2023 Highsoft AS, Based on data from Natural Earth</text>

</svg>