<?xml version="1.0" encoding="utf-8" standalone="no"?>
<!DOCTYPE svg PUBLIC "-//W3C//DTD SVG 1.1//EN" "http://www.w3.org/Graphics/SVG/1.1/DTD/svg11.dtd">

<svg version="1.1" height="700pt" width="700pt" xmlns="http://www.w3.org/2000/svg" xmlns:xlink="http://www.w3.org/1999/xlink">
<desc>
Map version: 1.1.3
Copyright (c) 2020 Highsoft AS, Based on data from Natural Earth
</desc>
<title>World continents</title>
<g id="admin0">

<path fill="#CEE3F5" stroke="#6E6E6E" stroke-width="0.4" id="EU" d="M358.9,97.6 L359.5,98.7 L359.2,100.1 L357.3,98.3 Z M362.9,97.8 L362.2,99.9 L360.7,100.6 L359.8,100.2 L361.5,99.7 L360.3,99.1 L359.8,97.7 L361.1,97.2 L361.4,97.9 L362.2,96.7 L362.9,96.9 Z M357.6,128.9 L357.0,129.5 L357.1,131.1 L356.5,132.8 L355.7,132.4 L355.2,130.8 L355.5,130.1 L356.6,129.8 L356.7,129.1 Z M379.7,22.7 L380.9,22.7 L381.2,24.0 L378.9,24.3 L377.3,23.1 Z M368.2,58.5 L369.0,58.3 L369.5,59.2 L370.4,58.5 L370.1,60.3 L368.9,60.3 L363.6,61.6 L367.0,60.0 L366.2,59.4 Z M380.1,24.3 L382.6,24.1 L383.8,25.7 L385.3,25.9 L383.1,28.2 L381.5,28.2 L382.2,27.0 L378.7,27.4 L378.6,26.9 L380.1,25.5 L378.6,24.8 Z M375.4,90.6 L375.7,91.7 L374.7,92.3 L374.9,93.2 L373.7,94.5 L373.3,92.9 L374.0,92.1 L375.5,91.6 Z M434.0,58.5 L433.8,58.1 L432.2,59.5 L430.5,58.7 L430.6,57.4 L432.5,56.7 L434.4,57.7 Z M447.4,16.2 L444.7,16.2 L445.2,15.2 L447.7,15.0 L447.0,14.6 L449.9,14.6 L450.2,16.8 L452.8,16.1 L451.6,17.0 L449.5,17.0 L449.8,16.0 Z M442.2,15.0 L441.1,14.6 L440.5,15.9 L438.0,15.5 L439.3,14.9 L440.6,15.3 L441.2,14.0 Z M446.5,13.4 L444.9,13.9 L441.4,13.1 L443.5,12.7 L442.7,11.7 L445.3,12.1 L448.4,13.1 Z M461.8,11.4 L463.2,12.6 L461.2,13.4 L458.8,13.7 L457.6,13.0 L460.5,12.3 Z M430.2,13.8 L429.6,13.3 L426.4,14.8 L424.5,13.8 L430.6,13.0 L431.4,14.0 Z M381.8,89.7 L380.8,88.9 L381.9,88.6 L383.3,89.8 L382.7,90.6 L381.1,91.2 L380.5,90.2 Z M346.2,135.8 L345.1,137.3 L343.4,136.7 L344.5,136.1 Z M367.8,138.6 L367.6,140.0 L368.4,139.6 L367.6,141.8 L368.1,142.5 L367.6,143.2 L366.5,142.9 L364.0,141.4 L363.0,141.2 L362.4,140.4 L363.8,139.9 L363.9,138.8 L364.4,140.1 L365.1,140.4 L367.3,139.9 Z M356.9,133.1 L357.6,134.7 L357.1,137.8 L356.1,137.7 L355.8,138.4 L354.6,137.7 L355.2,136.1 L354.7,133.4 L355.1,134.0 L356.5,133.0 Z M388.4,141.3 L389.9,140.7 L389.4,141.7 L390.3,142.5 L390.6,143.3 L391.4,144.1 L392.6,143.7 L391.7,144.9 L389.3,141.7 Z M385.0,141.3 L385.2,141.0 L385.7,142.9 L387.0,142.9 L386.7,142.2 L387.9,142.3 L388.9,143.5 L387.3,142.8 L386.3,143.3 L385.7,143.0 Z M385.4,138.1 L384.9,139.4 L386.3,140.5 L386.8,141.3 L386.2,141.7 L385.8,140.4 L383.0,138.5 L384.7,138.8 Z M388.6,139.1 L388.3,140.0 L387.5,139.1 L388.4,139.0 L388.6,138.0 L388.0,137.5 L389.0,137.2 L389.4,138.1 Z M383.3,145.0 L385.0,146.0 L387.9,146.1 L388.8,146.7 L385.9,146.9 L385.3,146.4 L384.6,147.1 L383.6,146.2 Z M328.7,144.8 L328.7,144.8 L328.7,144.8 L328.7,144.8 Z M330.8,146.4 L330.8,146.4 L330.8,146.4 L330.8,146.4 Z M401.6,147.6 L401.4,147.5 L401.1,147.5 L401.3,147.4 Z M403.3,146.9 L403.2,146.9 L403.1,146.8 L403.1,146.8 L403.1,146.8 L403.1,146.8 L403.0,146.8 L403.1,146.8 L403.0,146.8 L402.9,146.9 L403.0,146.8 L403.0,146.8 L403.0,146.8 L403.0,146.8 L403.0,146.8 L403.1,146.7 Z M389.5,135.1 L388.6,135.7 L388.7,135.2 L389.9,134.5 L388.5,134.5 L387.5,135.0 L387.1,136.3 L386.4,137.1 L386.5,135.9 L387.0,136.0 L387.4,133.9 L386.5,133.6 L386.0,134.5 L385.6,133.7 L383.9,134.3 L384.4,135.0 L383.3,135.4 L382.3,134.8 L381.8,135.8 L383.3,137.7 L382.2,138.6 L384.4,139.7 L384.6,141.1 L383.7,140.2 L383.5,142.7 L382.2,142.9 L381.7,143.6 L381.0,142.4 L380.1,143.0 L379.9,141.3 L378.4,140.6 L379.1,139.6 L378.0,138.8 L379.1,138.1 L377.2,137.7 L377.3,136.7 L375.9,135.4 L375.6,134.4 L376.0,133.8 L375.8,132.7 L376.1,131.8 L375.4,131.5 L374.4,130.3 L372.8,129.5 L371.1,129.6 L370.7,128.8 L369.6,129.1 L370.1,128.4 L367.7,127.0 L367.9,126.0 L366.1,124.2 L365.5,124.9 L364.8,124.2 L364.7,122.6 L362.1,123.7 L362.4,126.2 L364.8,127.9 L365.7,130.0 L367.7,131.5 L369.4,131.5 L369.4,132.7 L373.1,134.4 L374.1,135.6 L373.8,136.3 L372.8,135.2 L371.3,134.7 L370.5,135.7 L370.3,136.6 L371.5,137.2 L371.4,138.3 L370.4,138.7 L370.4,139.4 L369.5,140.4 L368.7,140.4 L369.0,138.8 L369.7,138.7 L369.3,137.1 L368.6,135.7 L367.3,135.3 L367.0,134.4 L366.2,134.6 L364.4,134.1 L364.7,133.2 L363.7,133.1 L359.3,129.5 L358.2,126.7 L355.5,125.8 L354.5,126.9 L353.2,127.3 L350.7,129.1 L346.4,127.9 L344.9,128.8 L344.8,130.1 L345.3,130.6 L344.5,132.0 L342.9,133.0 L340.9,133.5 L338.4,137.0 L338.6,137.9 L339.4,138.7 L338.0,139.6 L337.6,141.1 L335.8,141.7 L334.9,143.1 L330.6,143.1 L329.1,143.8 L328.3,144.6 L327.3,144.0 L326.6,142.6 L324.9,142.1 L323.9,142.6 L322.6,142.2 L321.9,142.4 L322.3,141.4 L322.3,139.5 L321.0,138.7 L321.8,136.6 L322.6,133.6 L322.1,131.1 L322.6,130.7 L321.3,129.3 L321.6,128.6 L323.2,128.2 L324.0,127.3 L325.3,127.8 L328.7,127.8 L330.7,128.2 L332.2,127.9 L334.9,128.4 L336.2,127.8 L336.7,125.2 L336.9,123.1 L336.4,122.2 L336.9,121.5 L334.5,120.4 L334.9,119.0 L331.5,117.6 L329.2,116.2 L333.1,115.2 L333.9,116.1 L336.4,115.7 L335.5,113.9 L334.7,114.4 L334.8,113.2 L336.3,113.1 L336.7,113.8 L338.6,114.2 L339.8,113.8 L339.4,113.1 L341.2,112.5 L341.9,111.7 L342.0,110.3 L345.7,108.9 L347.5,106.6 L348.2,104.3 L348.8,103.9 L354.0,102.8 L355.2,103.5 L355.2,102.6 L356.1,102.6 L354.7,99.9 L355.5,99.3 L354.3,98.2 L354.9,97.3 L354.4,95.5 L355.3,94.0 L356.8,93.9 L357.9,92.7 L359.1,92.3 L358.5,94.6 L358.6,95.5 L359.8,95.8 L357.0,98.4 L357.2,100.0 L358.0,100.9 L359.4,101.5 L360.4,101.2 L359.4,102.2 L360.6,102.3 L362.7,101.0 L363.4,101.3 L364.4,100.6 L365.9,102.4 L369.6,101.5 L370.4,100.8 L373.7,100.1 L374.2,101.1 L376.2,101.1 L377.0,99.8 L379.3,99.8 L379.2,98.3 L378.8,96.3 L378.9,94.7 L380.2,92.8 L383.1,92.2 L383.1,94.0 L383.9,94.4 L385.2,93.7 L385.1,91.9 L385.5,90.6 L384.5,90.7 L383.6,90.0 L383.5,88.2 L384.7,87.9 L385.5,87.1 L385.2,85.8 L383.4,86.1 L382.3,85.7 L381.7,86.4 L381.3,85.0 L379.7,84.4 L378.9,84.7 L377.8,86.0 L376.5,85.8 L376.8,84.9 L377.8,85.3 L379.5,84.1 L379.8,81.2 L379.3,80.3 L379.5,79.2 L379.0,78.2 L379.5,76.6 L381.4,76.3 L381.8,75.2 L383.3,74.6 L386.0,71.6 L386.9,71.8 L387.1,69.7 L385.5,68.7 L382.1,68.9 L381.4,69.9 L380.4,69.5 L378.9,71.8 L379.8,72.9 L378.4,74.7 L376.3,76.0 L375.6,75.9 L374.4,76.8 L372.6,78.9 L372.1,78.6 L372.0,81.0 L371.6,83.1 L372.4,84.5 L373.1,84.5 L374.7,85.7 L375.0,86.6 L374.6,88.2 L371.1,89.8 L370.8,91.2 L370.1,91.9 L371.4,93.7 L370.1,96.4 L370.4,94.2 L369.1,96.8 L366.8,96.6 L365.9,97.5 L366.2,98.3 L367.7,99.3 L367.6,99.7 L365.9,98.6 L363.6,98.5 L363.8,97.9 L362.7,96.3 L363.4,95.3 L362.5,94.5 L361.9,93.1 L360.8,91.7 L360.3,89.4 L358.9,87.4 L358.8,88.1 L357.4,88.9 L355.1,90.9 L353.4,91.5 L351.4,91.2 L349.4,89.5 L349.6,88.5 L348.8,88.3 L348.8,87.4 L349.7,86.4 L348.9,86.5 L348.9,85.4 L347.8,83.0 L349.3,83.0 L348.4,81.9 L349.1,81.5 L348.1,80.7 L349.3,80.0 L349.6,79.2 L351.4,78.6 L352.1,77.5 L354.3,76.9 L354.7,75.3 L355.7,75.1 L356.4,75.7 L357.4,75.3 L358.1,76.3 L360.7,74.9 L360.0,74.8 L357.8,75.7 L357.1,74.9 L358.3,73.7 L359.6,72.8 L359.5,71.6 L360.3,71.7 L362.9,70.8 L361.9,70.5 L363.2,68.2 L362.4,68.4 L363.3,66.7 L364.0,66.8 L364.8,65.1 L365.6,64.9 L366.3,63.5 L368.6,62.5 L367.0,62.2 L369.0,61.7 L368.0,61.6 L372.3,60.3 L370.4,60.2 L370.5,59.6 L372.2,57.9 L370.9,58.2 L372.8,56.4 L373.3,57.2 L376.5,55.7 L376.4,54.2 L378.0,55.4 L378.0,54.2 L381.6,54.0 L381.4,52.6 L383.2,52.3 L382.4,53.5 L383.9,53.4 L382.6,54.3 L382.7,54.9 L384.4,53.3 L384.4,51.5 L385.1,52.4 L386.0,51.5 L386.7,51.8 L387.7,51.0 L388.7,51.6 L386.6,53.3 L386.7,54.7 L389.0,52.0 L389.6,51.7 L389.3,53.8 L391.2,52.1 L391.3,51.2 L393.1,51.6 L391.8,53.4 L392.6,53.6 L393.6,52.0 L395.9,52.6 L397.9,54.0 L396.2,54.8 L393.3,54.6 L396.8,55.6 L399.3,56.1 L399.8,55.1 L401.8,56.2 L400.0,56.2 L402.6,56.9 L402.2,57.6 L403.9,57.0 L404.7,57.5 L407.2,57.8 L410.5,59.3 L411.9,60.5 L414.9,61.6 L416.8,62.7 L417.5,64.9 L415.7,66.8 L413.6,67.7 L410.9,67.8 L409.0,67.2 L406.1,66.8 L405.0,66.1 L402.5,65.8 L400.2,64.5 L401.5,66.4 L404.4,67.7 L405.2,69.0 L404.3,70.0 L405.3,71.6 L405.0,72.6 L406.2,73.4 L407.1,73.0 L407.0,71.2 L408.1,71.5 L409.2,70.7 L411.2,71.6 L414.1,72.6 L415.6,71.4 L414.3,70.0 L414.5,69.3 L416.4,68.1 L417.4,67.9 L419.8,65.6 L419.7,66.9 L421.0,66.7 L422.8,68.4 L422.7,67.1 L423.4,65.9 L423.0,64.6 L422.1,64.3 L422.9,60.8 L421.2,59.7 L424.9,59.9 L426.2,60.2 L427.6,62.2 L425.0,62.5 L424.3,63.9 L425.5,64.4 L426.0,65.3 L427.4,65.5 L429.5,64.9 L429.7,63.1 L431.5,62.6 L436.1,60.0 L438.1,59.7 L440.4,58.6 L442.1,58.5 L440.9,59.5 L441.4,60.5 L443.1,61.1 L443.2,60.4 L445.2,59.5 L447.8,59.8 L449.0,58.9 L450.7,58.4 L451.0,57.6 L451.7,59.1 L451.1,60.3 L452.2,60.6 L452.4,59.5 L454.6,58.6 L453.1,56.4 L453.7,55.9 L452.0,56.0 L451.8,55.4 L450.1,54.7 L450.0,53.9 L451.6,53.8 L453.7,55.3 L453.7,55.9 L454.3,55.5 L457.8,55.9 L460.7,56.5 L463.7,58.1 L466.8,59.0 L467.6,60.0 L465.9,64.3 L464.5,66.6 L461.0,71.2 L460.9,74.7 L460.4,79.4 L459.6,82.9 L458.2,87.1 L456.5,90.9 L455.0,94.8 L454.2,94.8 L453.6,97.7 L451.8,98.9 L451.6,100.5 L453.3,102.0 L453.7,103.2 L452.6,103.9 L452.5,105.4 L453.0,107.8 L455.3,109.3 L454.8,110.3 L451.9,110.4 L448.9,109.6 L446.2,109.8 L444.1,109.4 L441.6,109.3 L440.0,109.6 L437.7,111.7 L436.9,113.0 L436.7,114.7 L436.0,115.9 L435.2,118.5 L435.1,119.8 L429.9,123.0 L429.3,122.8 L428.5,124.5 L427.6,125.7 L429.3,127.0 L429.0,129.0 L431.2,131.7 L429.8,133.2 L428.7,132.9 L427.4,131.9 L425.5,130.9 L425.7,130.2 L424.1,129.6 L422.4,130.1 L422.1,129.7 L419.5,128.6 L417.8,128.6 L416.1,127.8 L414.9,128.2 L414.9,128.2 L412.9,126.4 L411.4,125.8 L410.8,125.2 L408.4,124.0 L410.6,123.7 L410.3,122.9 L411.0,122.0 L412.1,121.8 L411.0,121.2 L410.6,120.5 L413.5,119.7 L413.5,119.1 L410.3,119.5 L409.8,120.0 L407.1,120.5 L405.0,121.7 L406.0,123.6 L408.4,123.4 L408.1,124.3 L406.6,124.2 L404.4,125.1 L403.4,125.9 L402.7,125.3 L402.7,124.2 L401.4,123.6 L401.3,123.0 L403.1,122.3 L402.0,121.6 L400.7,121.9 L399.0,121.5 L400.7,120.7 L397.8,120.7 L395.5,123.0 L395.2,124.8 L394.2,125.0 L393.3,126.0 L393.3,127.8 L392.4,128.1 L391.4,130.3 L392.3,132.2 L394.2,133.1 L394.0,133.6 L392.6,133.4 L391.2,133.7 L390.5,134.5 L389.8,135.0 Z M372.3,17.1 L374.5,18.7 L374.9,20.3 L378.5,20.8 L377.8,21.2 L379.8,21.6 L379.6,22.4 L378.2,22.3 L375.0,23.2 L375.1,24.8 L374.2,24.9 L373.5,27.2 L372.6,27.3 L370.9,30.9 L368.1,29.2 L366.2,28.4 L365.4,27.1 L367.7,26.4 L371.0,25.9 L370.8,25.7 L365.0,26.1 L364.8,24.9 L367.5,24.7 L368.9,23.7 L371.1,23.7 L368.3,23.3 L367.1,22.1 L366.3,23.1 L366.8,23.6 L365.3,24.3 L363.7,24.3 L361.8,22.6 L361.3,23.3 L362.1,24.3 L360.1,23.3 L358.9,21.9 L360.2,22.1 L360.4,20.6 L359.3,18.6 L359.7,18.2 L361.4,17.4 L362.4,18.1 L365.2,17.2 L364.5,18.5 L365.3,18.7 L366.6,17.5 L367.9,18.3 L368.4,19.6 L370.0,21.3 L369.3,19.7 L368.8,17.2 L369.9,16.4 L370.9,17.2 Z M388.0,19.1 L385.1,19.7 L384.6,20.2 L382.5,20.0 L382.4,19.2 L378.5,19.4 L377.3,19.0 L376.4,19.6 L376.2,18.4 L380.4,18.0 L380.5,17.5 L374.6,17.9 L373.5,17.1 L374.7,16.6 L373.2,16.1 L373.7,15.1 L375.7,16.3 L375.1,15.1 L376.2,15.7 L377.7,14.8 L377.9,13.8 L378.6,15.8 L380.4,15.5 L381.4,16.7 L382.1,14.5 L383.1,14.7 L382.6,16.0 L385.2,15.4 L389.8,15.9 L390.5,17.3 L388.0,18.3 Z M444.9,11.4 L444.2,10.8 L446.3,11.1 L447.2,9.9 L449.8,10.1 L449.6,9.6 L449.0,8.6 L451.3,8.4 L450.1,10.4 L452.5,11.0 L452.3,11.5 L448.7,10.6 L449.2,11.8 L450.3,12.1 L449.8,13.4 L446.8,12.2 L447.2,11.1 Z M452.9,12.2 L456.0,11.8 L456.3,9.7 L457.1,9.1 L459.8,9.1 L459.4,9.6 L457.0,9.8 L456.8,14.0 L454.8,14.9 L451.4,14.4 L451.9,13.2 L454.8,13.0 Z M468.9,29.3 L469.8,30.9 L466.4,32.8 L455.4,35.7 L454.4,36.4 L453.4,38.0 L451.5,38.4 L451.2,39.1 L449.4,38.6 L450.4,39.9 L449.5,40.1 L448.6,41.8 L444.7,45.2 L444.1,47.0 L444.3,48.4 L445.4,50.7 L448.3,52.5 L447.4,53.3 L445.3,53.0 L444.2,52.4 L443.7,53.1 L442.4,52.3 L440.1,52.0 L441.1,51.0 L440.0,50.5 L439.6,51.7 L438.1,50.6 L439.1,50.1 L436.8,49.6 L436.5,48.5 L437.4,47.5 L438.4,47.7 L439.1,45.7 L438.8,45.0 L440.1,44.9 L439.8,43.9 L442.5,42.2 L440.7,41.7 L443.0,40.8 L444.1,39.1 L445.7,39.0 L444.3,38.3 L446.0,38.1 L445.0,37.6 L446.5,37.2 L446.1,36.8 L447.2,35.5 L448.5,35.8 L448.2,35.0 L449.4,34.8 L450.4,33.6 L452.4,33.4 L453.3,32.7 L454.9,32.8 L454.9,32.1 L457.4,32.4 L460.5,31.9 L463.5,30.9 L466.0,29.4 Z M427.5,15.3 L429.5,15.1 L430.8,14.2 L432.2,14.4 L433.2,13.9 L432.0,13.3 L434.6,12.2 L437.1,13.7 L435.7,14.3 L433.3,14.5 L433.7,15.7 L434.9,16.8 L435.8,16.3 L436.5,17.1 L433.9,16.8 L432.9,15.1 L428.4,16.0 Z M308.6,73.8 L306.7,74.9 L305.3,75.2 L303.4,76.1 L300.7,75.6 L298.8,74.6 L295.9,74.8 L297.7,73.6 L296.6,72.6 L296.6,72.0 L293.3,71.5 L297.6,71.1 L296.2,70.7 L297.4,69.9 L295.0,69.4 L293.6,69.9 L292.4,69.6 L293.9,68.8 L294.5,67.4 L296.2,68.2 L295.1,66.7 L296.1,66.6 L298.5,68.1 L298.2,69.4 L298.9,70.4 L299.7,69.0 L300.5,68.9 L300.2,67.8 L300.8,67.7 L301.7,68.8 L303.2,67.4 L304.0,68.0 L304.8,66.4 L305.6,68.2 L306.3,67.5 L307.7,67.5 L307.6,66.5 L308.6,66.4 L309.8,67.6 L310.8,66.8 L310.4,67.9 L311.1,67.9 L310.8,68.9 L313.1,69.6 L313.1,71.2 L311.6,72.2 L311.4,73.0 Z M320.7,105.9 L321.4,104.5 L319.7,103.4 L320.8,102.8 L320.0,101.7 L320.3,101.4 L322.9,101.6 L323.6,100.6 L322.5,100.7 L323.3,99.2 L325.0,98.6 L326.2,99.2 L327.1,98.9 L328.5,100.6 L327.8,102.0 L326.9,102.3 L327.6,105.0 L326.9,107.0 L324.9,107.1 L322.5,108.5 L320.3,108.8 L319.3,107.7 L320.2,107.1 L319.1,107.2 Z M325.6,90.9 L327.1,90.2 L326.8,91.0 L327.4,93.3 L328.2,92.9 L328.0,92.0 L329.5,89.8 L330.1,90.0 L332.5,89.8 L333.0,88.4 L334.2,88.5 L332.9,90.7 L331.2,91.7 L331.8,92.0 L330.9,93.0 L332.3,92.4 L335.3,92.4 L335.6,93.0 L334.2,95.4 L334.1,96.2 L332.9,96.8 L334.9,97.2 L335.9,98.1 L336.9,100.6 L337.9,101.0 L338.8,102.0 L339.6,104.6 L339.0,105.2 L341.4,105.0 L342.3,106.2 L342.0,107.2 L340.8,107.9 L340.6,108.5 L341.7,109.0 L341.5,109.6 L339.5,110.6 L338.6,110.4 L336.5,111.0 L336.5,110.4 L334.3,111.0 L333.5,110.6 L332.3,111.1 L332.1,111.9 L330.0,111.6 L329.1,112.5 L328.7,111.9 L331.1,109.4 L333.2,109.5 L333.9,108.4 L332.3,108.9 L330.6,108.0 L329.6,108.4 L328.9,107.6 L331.0,106.7 L331.2,105.1 L330.3,103.9 L331.1,104.3 L332.9,103.9 L333.7,102.0 L332.8,102.0 L332.1,100.9 L332.5,100.0 L331.5,100.3 L330.6,99.9 L330.7,101.2 L329.2,100.1 L330.2,98.3 L328.9,97.3 L329.3,98.5 L328.0,98.8 L328.3,97.6 L328.0,96.9 L328.4,95.9 L327.0,96.3 L327.2,95.0 L327.9,95.0 L328.2,93.8 L326.6,94.1 L326.9,92.9 L326.6,91.8 L325.3,92.5 Z">
  <desc xmlns="http://www.highcharts.com/svg/namespace">
    <abbrev-a3>EUR</abbrev-a3>
    <iso-a2>EU</iso-a2>
    <name>Europe</name>
    <hc-middle-x>0.65</hc-middle-x>
    <hc-middle-y>0.63</hc-middle-y>
    <hc-key>eu</hc-key>
    <hc-a2>EU</hc-a2>
  </desc>
</path>

<path fill="#CEE3F5" stroke="#6E6E6E" stroke-width="0.4" id="OC" d="M636.2,230.8 L636.0,230.0 L637.1,230.5 L637.3,231.4 L638.0,230.8 L639.3,232.3 Z M600.1,285.7 L601.0,286.1 L599.8,286.8 L598.4,286.8 L598.2,286.1 Z M649.6,253.4 L652.5,255.4 L653.3,256.3 L654.7,257.1 L656.9,259.0 L656.7,259.1 L654.0,257.7 L652.0,256.5 L650.9,255.3 Z M586.5,237.8 L585.8,238.0 L586.4,236.9 L587.0,237.2 L588.0,236.9 L588.6,237.4 L587.5,238.2 Z M632.4,225.9 L632.2,225.3 L634.8,227.9 L635.2,228.7 L634.2,229.5 L634.5,228.6 L633.8,228.4 L633.5,227.6 L632.6,226.9 Z M624.5,220.7 L624.1,220.1 L626.3,221.1 L627.0,221.6 L627.4,221.0 L627.8,222.2 L628.6,221.4 L628.3,222.5 L629.6,223.7 L629.1,224.8 L628.7,223.5 L628.0,222.4 L625.7,221.0 Z M656.1,244.0 L656.7,246.3 L657.5,246.9 L656.8,247.2 L656.2,246.2 L656.2,245.2 L655.5,245.4 L655.1,244.9 L655.1,243.4 L655.5,244.4 Z M646.3,234.0 L645.9,234.9 L646.9,236.1 L646.0,236.0 L645.1,234.9 L645.8,235.0 L646.3,234.0 L645.5,234.1 L644.2,232.9 L643.7,231.4 L643.8,230.6 L645.2,233.6 Z M641.0,232.9 L642.7,232.6 L644.1,234.0 L643.8,234.4 L642.3,234.2 L641.9,233.2 Z M606.5,232.9 L606.5,228.7 L606.5,220.5 L608.6,221.4 L611.2,222.1 L612.4,221.7 L611.9,222.5 L613.2,222.8 L614.2,223.8 L615.7,224.8 L615.5,225.9 L616.9,226.2 L618.0,226.8 L618.8,226.9 L619.5,227.6 L619.5,228.3 L617.9,228.4 L618.3,229.7 L620.0,230.9 L620.9,232.7 L622.0,232.6 L622.1,233.6 L623.6,233.9 L624.0,233.0 L625.1,233.4 L625.4,234.8 L624.3,233.6 L623.1,234.2 L623.5,234.7 L624.8,234.9 L624.3,235.2 L625.2,235.6 L624.0,235.9 L623.1,235.2 L619.8,234.9 L618.0,233.5 L616.2,230.9 L615.6,230.6 L613.2,230.4 L611.8,230.0 L612.1,230.7 L611.6,230.8 L611.2,231.7 L610.3,231.4 L611.1,232.6 L609.7,233.3 Z M639.3,229.8 L638.4,229.6 L638.4,229.6 L639.2,229.7 L639.3,229.8 Z M639.3,229.8 L640.2,230.0 L642.3,231.4 L640.4,230.7 L639.3,229.8 Z M678.8,249.5 L678.5,249.4 L678.5,249.4 L678.7,249.3 L678.8,249.5 L678.8,249.5 Z M678.8,249.5 L679.4,249.5 L679.3,250.2 L678.8,249.5 L678.8,249.5 Z M678.5,249.4 L677.3,250.2 L677.1,250.6 L677.1,250.6 L677.1,250.4 L676.0,251.0 L675.3,249.8 L675.7,249.4 L675.1,248.6 L675.8,249.0 L676.4,248.7 L678.1,249.4 L678.5,249.4 Z M677.1,250.9 L677.0,250.7 L677.1,250.6 L677.1,250.6 L677.1,250.9 Z M677.1,250.9 L677.7,251.9 L677.1,251.8 L677.1,250.9 Z M679.6,247.4 L679.6,247.4 L679.6,247.4 L679.6,247.4 L679.6,247.4 L679.6,247.4 Z M679.6,247.4 L680.3,247.0 L680.2,248.0 L680.0,247.4 L679.6,247.4 Z M658.1,245.3 L658.0,245.0 L658.0,245.0 L658.0,245.0 L658.1,245.0 L658.1,245.3 Z M658.1,245.3 L658.4,246.7 L657.6,246.6 L658.2,246.0 L658.1,245.3 Z M616.0,250.2 L617.1,251.3 L616.9,252.0 L618.7,252.6 L619.2,253.5 L621.7,254.0 L621.9,254.8 L621.1,254.9 L622.2,256.0 L623.1,258.6 L623.7,259.1 L623.4,258.1 L624.2,257.1 L625.2,259.2 L625.2,260.6 L625.9,260.8 L626.4,261.8 L627.0,261.8 L628.7,264.3 L629.4,264.4 L630.0,263.8 L629.4,265.4 L629.7,267.9 L630.3,268.7 L630.2,270.0 L630.5,271.6 L629.3,275.5 L629.2,277.0 L628.4,278.5 L628.4,279.1 L627.1,279.9 L625.4,283.0 L625.1,284.9 L623.9,286.4 L623.4,288.6 L623.6,289.9 L622.6,290.5 L620.4,290.6 L619.0,291.2 L617.7,292.4 L616.9,292.7 L616.8,293.5 L615.7,292.4 L614.0,292.1 L614.1,290.8 L611.4,292.9 L609.2,291.8 L607.8,291.9 L605.3,290.7 L604.1,289.2 L604.4,288.0 L603.2,286.0 L602.7,285.7 L601.2,285.9 L601.9,283.9 L601.0,282.6 L600.2,284.9 L598.6,285.0 L596.3,284.2 L595.5,282.1 L594.8,281.0 L593.8,280.6 L593.8,279.6 L592.6,278.3 L592.5,278.8 L591.0,278.0 L589.9,278.2 L587.9,277.0 L583.7,277.5 L580.5,278.7 L578.4,278.6 L574.5,280.5 L574.2,281.4 L573.4,282.2 L569.6,282.0 L566.7,282.2 L565.3,283.5 L564.5,283.3 L563.6,284.3 L562.3,284.6 L560.3,284.6 L559.1,284.1 L558.4,283.3 L557.4,283.1 L557.2,281.3 L557.7,281.6 L558.5,280.8 L558.5,277.4 L557.5,275.7 L557.2,274.4 L557.2,272.9 L556.3,270.9 L555.6,270.1 L554.8,270.7 L555.6,269.2 L555.3,268.5 L554.0,266.6 L553.3,265.0 L553.7,263.4 L554.2,262.8 L554.2,261.9 L554.8,260.8 L554.6,258.9 L555.3,257.5 L555.6,258.8 L556.5,257.5 L558.3,256.5 L558.0,255.2 L559.0,255.9 L560.7,254.9 L561.7,255.3 L563.1,254.6 L564.5,254.4 L565.2,253.8 L565.9,254.0 L568.5,253.1 L569.6,252.0 L570.1,250.8 L571.1,250.2 L570.8,248.5 L572.3,247.2 L573.4,249.0 L573.3,247.3 L573.8,246.6 L575.0,246.7 L575.1,244.6 L576.0,244.8 L576.2,244.1 L577.0,244.2 L576.4,243.1 L578.2,243.2 L579.9,241.7 L580.6,242.0 L582.2,243.5 L582.0,244.4 L582.9,243.7 L585.3,243.9 L584.4,243.0 L585.1,242.2 L585.5,241.1 L586.1,240.8 L585.9,240.2 L587.6,238.7 L589.5,239.0 L590.7,238.6 L590.8,237.7 L589.0,237.0 L590.6,236.5 L591.7,237.8 L592.9,237.8 L594.1,238.5 L594.7,238.3 L595.3,238.9 L596.9,238.3 L597.9,237.5 L597.9,238.3 L598.8,239.0 L597.3,240.8 L597.4,241.6 L598.8,241.8 L597.9,242.6 L597.9,241.8 L596.9,242.1 L596.0,244.0 L598.2,245.5 L600.4,246.5 L601.2,247.4 L602.8,247.8 L604.6,249.4 L606.2,248.9 L607.4,246.2 L607.8,244.1 L607.5,243.1 L607.7,239.4 L608.3,238.6 L608.7,237.1 L608.8,235.0 L609.6,236.0 L610.1,238.1 L610.7,238.3 L610.5,239.0 L611.2,239.5 L611.3,241.7 L612.1,243.2 L613.1,242.5 L613.5,243.3 L614.8,244.0 L614.6,245.2 L614.9,246.9 L616.3,249.2 Z M613.4,297.6 L613.6,296.5 L614.4,297.2 L616.8,298.0 L619.5,297.4 L620.0,296.7 L619.4,295.1 L620.4,295.3 L620.7,296.4 L620.3,296.5 L620.4,300.6 L619.8,300.6 L619.8,302.7 L619.0,302.1 L617.6,303.7 L616.1,303.5 L614.6,301.3 L614.5,299.8 L614.0,299.2 Z M625.9,225.0 L626.8,224.7 L626.5,223.5 L628.2,223.5 L628.0,224.9 L627.4,225.0 L627.6,225.9 L626.5,226.3 L624.5,227.5 L622.9,227.5 L622.3,227.1 L620.6,226.5 L620.1,225.9 L621.7,226.0 L622.0,224.9 L622.8,224.4 L623.7,225.1 L623.9,226.1 L625.6,225.8 Z M660.9,310.6 L658.9,311.1 L658.3,310.4 L657.7,310.8 L658.3,311.7 L656.7,312.1 L657.4,311.3 L657.2,309.6 L655.4,309.7 L654.9,309.2 L655.8,307.2 L658.5,304.6 L661.1,303.5 L663.7,301.3 L664.4,299.5 L665.5,298.6 L665.6,297.4 L666.6,296.5 L667.3,297.2 L667.5,298.3 L668.7,297.5 L668.8,298.3 L669.5,297.6 L669.3,298.8 L669.7,299.3 L668.3,301.0 L667.8,302.1 L666.7,303.1 L667.4,304.2 L666.1,304.2 L664.1,305.1 L663.8,306.6 L662.8,308.5 L662.9,309.0 Z M671.7,299.0 L670.3,298.3 L670.9,297.6 L671.5,296.0 L671.0,295.2 L668.7,294.1 L668.7,293.6 L670.3,292.8 L670.8,290.5 L669.8,288.0 L669.8,287.1 L669.2,287.2 L667.4,285.0 L667.6,284.6 L666.6,283.4 L667.4,283.2 L667.6,284.1 L668.9,284.5 L670.2,285.8 L670.1,286.6 L671.2,287.1 L672.1,287.0 L672.6,288.0 L672.9,290.2 L675.7,290.9 L676.7,290.0 L677.8,290.4 L677.3,292.2 L676.5,293.4 L675.6,293.4 L674.7,294.2 L674.5,295.8 L672.9,298.2 Z M638.4,229.6 L637.1,229.5 L635.9,228.3 L637.0,228.7 L638.3,229.6 L638.4,229.6 Z M679.6,247.4 L679.2,247.4 L678.1,248.0 L677.9,247.2 L679.4,246.7 L680.2,246.6 L679.6,247.4 L679.6,247.4 Z M658.0,245.0 L657.5,245.0 L658.0,244.9 L658.0,245.0 L658.0,245.0 Z">
  <desc xmlns="http://www.highcharts.com/svg/namespace">
    <abbrev-a3>OCA</abbrev-a3>
    <iso-a2>OC</iso-a2>
    <name>Oceania</name>
    <hc-middle-x>0.34</hc-middle-x>
    <hc-middle-y>0.46</hc-middle-y>
    <hc-key>oc</hc-key>
    <hc-a2>OC</hc-a2>
  </desc>
</path>

<path fill="#CEE3F5" stroke="#6E6E6E" stroke-width="0.4" id="AF" d="M305.1,160.5 L305.3,159.9 L306.5,161.2 L306.9,160.7 L308.4,160.3 L309.7,161.1 L309.4,162.0 L309.0,161.4 L307.8,161.1 L306.3,161.4 Z M328.7,144.8 L328.7,144.8 L328.7,144.8 L329.9,146.3 L330.8,146.4 L330.8,146.4 L330.8,146.4 L333.4,146.1 L334.1,146.6 L335.6,146.5 L336.7,145.6 L341.0,143.6 L344.0,143.3 L344.5,142.9 L348.1,142.7 L348.9,143.2 L350.7,142.7 L352.1,142.7 L353.0,142.3 L354.0,142.8 L355.7,142.5 L357.7,141.8 L358.8,143.1 L359.9,142.3 L360.1,142.8 L358.9,143.9 L359.1,145.0 L360.0,145.5 L360.2,146.3 L359.1,147.8 L358.2,148.2 L358.6,149.6 L360.0,149.4 L360.2,150.6 L362.4,151.4 L364.3,151.3 L367.8,152.3 L368.4,153.9 L369.4,154.7 L371.9,155.1 L373.5,155.7 L375.0,156.7 L375.7,156.7 L377.0,155.6 L377.2,154.8 L376.8,153.7 L377.1,152.8 L378.0,152.0 L380.0,151.2 L381.0,151.2 L382.8,151.8 L382.8,152.5 L384.7,153.1 L386.4,153.2 L386.8,154.1 L388.0,154.0 L390.9,154.5 L394.1,155.6 L395.0,155.3 L396.6,154.2 L399.5,154.1 L399.9,155.1 L400.3,154.7 L401.8,155.1 L403.9,154.6 L403.9,154.6 L403.9,154.6 L404.4,156.0 L405.1,157.8 L405.2,158.4 L403.2,163.2 L403.5,164.2 L406.4,169.6 L406.7,171.6 L409.0,173.4 L409.0,174.2 L409.7,175.8 L409.5,176.7 L409.8,179.1 L410.5,179.9 L412.1,181.1 L412.8,182.5 L413.4,185.0 L414.3,186.6 L415.1,185.2 L414.9,186.7 L415.4,187.3 L417.1,187.8 L418.1,189.2 L419.2,189.9 L420.1,191.3 L421.2,192.0 L421.3,192.9 L420.1,193.5 L421.5,194.1 L422.1,195.2 L423.0,195.9 L424.3,195.9 L425.9,195.1 L427.1,195.4 L428.9,194.5 L431.8,194.3 L434.4,193.7 L435.4,192.9 L436.3,193.2 L435.9,194.5 L436.1,195.7 L435.6,196.1 L435.4,197.8 L434.4,199.6 L433.6,200.6 L432.0,204.0 L430.0,207.2 L426.3,211.0 L423.5,212.7 L421.5,214.5 L418.8,217.3 L418.0,218.6 L415.3,221.3 L413.2,225.3 L412.6,227.0 L413.1,227.9 L413.6,226.4 L414.1,227.8 L413.5,228.3 L414.0,229.1 L413.6,230.4 L414.7,230.3 L413.5,231.3 L414.2,233.0 L414.3,234.5 L415.7,235.2 L416.1,236.2 L415.7,237.7 L416.0,240.2 L415.9,241.5 L416.5,243.1 L416.0,245.0 L414.7,246.9 L413.2,247.7 L410.9,248.7 L409.3,249.7 L408.2,251.1 L404.9,253.6 L404.8,254.7 L405.4,255.3 L405.7,256.7 L406.3,257.4 L406.4,258.6 L406.1,261.5 L406.3,262.0 L405.6,263.0 L403.0,264.0 L401.4,264.9 L401.4,267.5 L400.4,271.0 L399.2,271.8 L398.2,273.1 L396.6,275.7 L393.8,278.7 L391.9,280.3 L389.3,281.8 L387.7,281.9 L387.8,282.4 L386.3,282.3 L386.1,282.7 L383.8,282.3 L383.4,282.6 L381.8,282.3 L380.2,283.2 L378.7,283.1 L376.8,284.1 L374.8,282.7 L373.7,282.7 L374.1,282.1 L372.8,279.8 L373.6,279.5 L373.5,277.4 L371.8,274.7 L370.9,272.1 L368.7,269.7 L368.0,268.5 L367.1,265.3 L367.0,263.4 L366.4,262.1 L366.6,259.5 L366.3,258.3 L365.5,257.4 L364.4,255.5 L363.9,254.2 L362.3,251.3 L361.5,250.2 L361.2,249.1 L361.4,247.0 L361.3,245.7 L361.7,245.3 L362.3,243.6 L362.7,241.1 L364.9,238.8 L365.2,236.7 L365.1,235.8 L364.0,234.0 L363.6,232.8 L364.4,232.2 L364.3,231.4 L363.4,229.4 L363.3,228.7 L362.3,227.2 L362.0,225.4 L361.4,224.3 L357.8,220.7 L356.6,219.2 L356.7,218.2 L356.1,218.1 L355.8,217.2 L356.6,216.4 L356.7,213.4 L357.6,212.1 L357.9,209.8 L357.2,208.2 L356.0,208.8 L355.9,207.1 L350.3,207.5 L349.6,206.9 L349.1,205.6 L348.2,204.3 L347.3,203.6 L346.3,203.5 L342.6,203.8 L341.2,204.1 L340.9,204.6 L339.6,204.7 L337.5,205.8 L335.0,206.7 L334.5,206.4 L331.4,205.8 L327.9,206.1 L324.8,207.4 L323.3,207.0 L321.4,205.9 L319.2,204.0 L317.4,203.0 L316.5,202.1 L314.4,201.3 L315.1,201.3 L314.4,200.0 L314.0,200.2 L313.6,198.0 L313.2,197.2 L311.5,196.3 L310.9,194.9 L309.7,194.5 L309.6,193.9 L308.5,194.5 L308.3,193.9 L309.1,194.0 L309.8,193.0 L308.3,193.3 L307.2,192.3 L307.0,190.3 L307.5,189.9 L306.4,187.8 L307.6,185.6 L307.7,184.0 L308.6,181.4 L308.2,179.4 L307.6,178.6 L308.2,177.0 L306.9,175.1 L306.8,173.9 L307.6,172.9 L309.1,169.8 L310.7,168.1 L310.9,166.6 L311.6,165.0 L313.1,164.1 L314.4,161.6 L317.2,160.8 L318.9,159.4 L320.7,157.1 L320.2,155.9 L320.3,154.4 L321.2,153.1 L321.4,151.9 L322.8,150.5 L324.7,149.7 L326.0,148.8 L327.0,147.1 L327.8,145.1 Z M432.6,250.8 L432.1,252.0 L430.4,257.4 L430.0,258.5 L429.2,261.5 L428.4,263.6 L426.7,264.2 L425.3,264.9 L424.6,265.0 L422.5,263.8 L421.9,262.6 L422.0,260.7 L421.2,259.4 L421.0,258.3 L421.5,256.4 L422.3,255.6 L423.4,253.7 L423.4,252.9 L422.6,250.8 L422.4,248.9 L423.3,247.4 L423.3,246.4 L424.1,246.5 L424.9,245.9 L426.7,245.5 L428.1,244.5 L430.2,242.4 L429.8,241.8 L430.5,241.0 L431.5,241.1 L431.7,239.4 L432.5,238.3 L433.0,239.5 L433.7,240.3 L434.1,241.8 L434.3,243.6 L434.8,245.0 L434.3,246.0 L433.7,244.9 L433.2,245.2 L433.6,247.1 L432.8,248.5 Z">
  <desc xmlns="http://www.highcharts.com/svg/namespace">
    <abbrev-a3>AFR</abbrev-a3>
    <iso-a2>AF</iso-a2>
    <name>Africa</name>
    <hc-middle-x>0.66</hc-middle-x>
    <hc-middle-y>0.54</hc-middle-y>
    <hc-key>af</hc-key>
    <hc-a2>AF</hc-a2>
  </desc>
</path>

<path fill="#CEE3F5" stroke="#6E6E6E" stroke-width="0.4" id="AS" d="M682.9,49.5 L685.3,50.7 L684.4,51.4 L681.7,51.9 L680.5,51.6 L680.5,51.6 L678.3,52.2 L678.5,50.7 L680.5,49.7 L680.5,49.7 L680.5,49.7 L680.5,49.7 L680.5,49.7 Z M681.1,70.7 L680.5,71.0 L680.5,71.0 L679.6,71.7 L677.2,72.2 L675.4,71.7 L673.7,71.6 L674.3,72.5 L675.8,71.9 L675.7,73.0 L676.7,73.6 L677.3,73.2 L678.0,74.4 L677.9,76.0 L679.2,76.6 L679.8,78.1 L678.5,79.1 L675.4,78.5 L671.6,79.9 L670.1,80.8 L669.2,80.8 L665.4,83.5 L663.1,84.5 L662.3,86.1 L661.5,85.8 L660.1,84.4 L658.0,84.4 L656.0,85.1 L654.2,86.5 L654.7,84.6 L652.3,85.7 L651.7,86.6 L651.1,85.7 L649.5,85.9 L648.6,87.4 L648.8,88.6 L649.7,89.2 L651.2,88.1 L651.4,89.2 L650.5,89.3 L649.2,90.3 L648.4,88.8 L647.2,89.8 L646.4,91.3 L647.4,92.3 L647.7,91.7 L648.9,92.4 L648.0,93.3 L647.9,94.9 L648.7,95.0 L649.0,96.5 L648.4,97.0 L647.5,96.3 L646.7,96.7 L646.0,98.0 L646.7,100.1 L645.9,100.9 L644.0,100.9 L642.7,101.8 L642.3,103.5 L642.7,104.6 L641.9,104.2 L640.0,105.1 L639.3,107.5 L636.4,110.2 L635.8,106.9 L635.2,105.0 L634.1,98.9 L634.3,97.2 L635.1,94.9 L636.3,94.2 L636.9,93.2 L636.5,92.2 L637.8,92.1 L640.7,90.4 L642.3,88.4 L646.2,85.4 L646.3,84.8 L649.2,83.1 L650.2,82.1 L650.4,79.4 L651.2,78.9 L652.5,79.1 L651.3,78.2 L648.8,78.7 L648.4,81.6 L647.2,81.2 L646.4,82.0 L642.9,84.3 L643.4,83.0 L642.3,83.3 L642.2,82.4 L643.1,81.5 L643.2,80.4 L641.7,81.2 L641.4,80.5 L637.8,80.9 L636.3,81.6 L636.3,82.5 L633.0,84.9 L631.6,86.4 L631.3,87.4 L633.0,87.4 L634.1,87.9 L631.3,88.7 L630.0,88.1 L629.1,89.0 L628.1,88.6 L626.2,89.2 L624.9,88.4 L624.5,87.1 L622.9,86.7 L621.4,87.3 L622.0,88.2 L619.7,87.7 L619.0,88.1 L616.6,87.7 L612.0,87.6 L608.9,88.5 L607.6,89.9 L606.4,90.5 L605.6,92.0 L602.1,94.4 L600.7,96.0 L598.5,97.9 L595.6,99.9 L596.6,100.8 L598.7,100.7 L598.3,102.8 L599.2,102.8 L599.1,101.9 L600.4,102.4 L599.6,103.5 L600.7,103.3 L601.9,102.3 L602.2,101.5 L604.3,101.5 L605.1,102.6 L607.4,104.5 L606.8,104.9 L607.4,107.6 L606.4,108.4 L605.5,111.1 L605.9,112.3 L605.0,116.2 L603.5,117.5 L601.9,119.8 L601.0,121.6 L596.8,125.8 L595.4,127.9 L593.1,129.4 L591.7,129.8 L590.0,129.4 L590.0,128.4 L588.3,129.3 L587.0,130.7 L586.4,130.6 L585.0,132.4 L585.1,134.0 L584.2,134.3 L583.1,135.4 L581.0,136.4 L580.8,137.7 L582.6,138.9 L584.4,141.9 L584.8,144.5 L584.1,146.5 L583.0,147.3 L582.0,146.7 L580.7,147.3 L580.9,147.9 L579.4,148.3 L579.7,150.4 L578.4,150.5 L579.3,148.7 L578.2,148.3 L577.9,147.4 L579.6,144.9 L578.7,143.4 L579.1,142.4 L579.8,142.6 L579.0,141.3 L578.0,140.5 L576.6,140.9 L576.4,140.2 L575.6,140.0 L576.8,138.7 L577.0,137.4 L575.3,136.3 L573.1,136.3 L571.2,137.2 L571.6,137.5 L568.9,138.7 L570.1,137.3 L569.1,137.2 L569.6,136.2 L571.1,134.7 L570.2,134.0 L568.9,133.8 L567.5,135.4 L565.8,136.1 L564.8,137.7 L563.9,138.3 L563.0,137.6 L562.0,138.9 L563.1,140.0 L564.5,140.0 L564.7,141.9 L565.6,142.2 L568.1,140.5 L569.7,141.6 L570.7,141.3 L571.8,141.6 L571.1,142.9 L570.6,142.5 L568.1,143.7 L568.0,144.3 L566.0,145.5 L565.2,146.7 L566.0,147.8 L567.2,148.3 L568.4,151.0 L568.3,151.7 L570.1,153.3 L570.4,154.1 L570.0,154.7 L570.4,155.4 L568.5,156.2 L568.1,156.8 L569.3,156.6 L569.9,157.3 L570.8,157.1 L571.3,155.9 L571.2,157.6 L570.5,157.3 L570.4,159.2 L569.7,158.8 L569.8,160.7 L568.5,161.5 L567.4,163.5 L565.8,164.0 L565.9,166.1 L565.3,167.1 L563.7,168.7 L562.4,169.4 L562.1,170.0 L560.8,170.2 L560.0,171.6 L558.8,172.0 L556.8,171.9 L556.3,172.6 L555.1,173.1 L554.8,172.0 L554.4,173.2 L553.6,173.1 L553.0,174.3 L552.3,173.8 L551.5,174.3 L549.0,174.8 L548.2,175.5 L548.7,176.5 L547.5,176.9 L547.1,175.6 L547.2,174.5 L544.8,173.7 L543.9,174.7 L542.7,174.9 L543.2,175.2 L541.1,176.4 L541.2,177.0 L540.2,177.4 L539.4,179.4 L540.3,180.8 L540.9,181.1 L541.3,182.4 L543.7,184.7 L544.3,184.8 L545.4,186.4 L546.4,189.3 L546.3,190.2 L546.7,191.7 L546.2,191.7 L546.3,193.4 L545.8,194.1 L542.5,196.0 L541.8,196.0 L541.0,197.6 L539.2,198.4 L538.4,199.3 L537.8,199.0 L538.0,197.0 L536.8,195.6 L535.0,195.6 L534.0,192.8 L533.1,192.5 L532.2,191.6 L530.3,191.6 L530.6,190.1 L528.8,190.2 L528.8,192.5 L528.5,193.0 L527.1,196.5 L527.3,198.2 L528.5,198.1 L528.7,199.3 L529.2,199.9 L529.1,201.4 L530.6,202.7 L531.7,202.7 L534.7,205.5 L535.3,206.6 L535.1,208.6 L535.3,210.1 L535.9,210.7 L536.7,210.5 L536.2,211.2 L536.9,212.9 L535.4,213.2 L535.1,212.7 L531.2,210.3 L531.2,209.5 L530.1,208.3 L529.8,206.5 L529.4,206.0 L529.4,204.3 L529.0,203.5 L528.0,203.2 L528.3,202.2 L526.7,200.4 L526.0,200.3 L525.5,201.0 L525.4,198.3 L526.0,196.8 L525.3,196.6 L525.4,195.1 L526.0,195.3 L526.4,194.3 L525.7,193.6 L524.3,193.1 L526.0,193.3 L526.3,192.4 L525.2,192.4 L525.5,190.8 L526.0,190.6 L525.4,189.6 L524.5,187.4 L524.4,185.4 L522.9,182.6 L522.3,184.2 L520.9,184.7 L520.1,185.7 L517.8,185.2 L518.5,182.2 L517.6,179.7 L516.7,179.6 L516.4,178.8 L517.3,178.6 L516.2,177.3 L515.5,177.8 L513.3,174.5 L513.5,173.9 L512.5,171.9 L511.9,172.5 L511.0,171.9 L511.3,173.2 L510.8,173.7 L509.9,173.5 L508.3,174.2 L506.4,174.4 L505.9,173.8 L504.4,174.4 L503.8,175.1 L504.1,176.1 L502.9,177.5 L501.1,178.1 L500.0,179.0 L498.5,180.8 L496.9,182.1 L495.1,183.2 L495.2,184.1 L493.2,184.6 L492.6,185.7 L491.3,185.8 L490.9,187.1 L491.4,190.3 L491.1,192.0 L490.5,192.9 L490.5,196.2 L489.6,196.1 L488.7,197.7 L489.0,198.0 L487.4,198.7 L487.1,199.8 L486.1,200.4 L485.1,199.8 L484.3,198.8 L483.7,196.8 L482.3,193.5 L481.7,192.9 L480.9,191.3 L480.5,189.3 L479.9,187.7 L478.3,185.1 L477.5,181.2 L476.8,177.7 L477.3,176.4 L476.6,174.1 L476.6,173.2 L475.8,173.5 L476.2,174.2 L475.8,175.1 L473.7,176.0 L471.9,175.2 L469.8,172.9 L472.1,172.4 L472.6,171.6 L471.3,172.0 L469.2,171.1 L468.6,170.3 L466.8,169.4 L466.4,168.2 L465.5,167.8 L465.0,166.3 L463.6,166.8 L461.4,166.9 L459.6,166.8 L459.5,167.1 L457.5,167.0 L456.1,167.4 L450.6,166.4 L449.4,166.4 L447.8,165.9 L447.2,163.8 L446.8,163.2 L446.0,163.8 L444.6,163.5 L442.4,165.0 L442.0,164.0 L441.4,164.5 L440.3,163.5 L438.7,162.7 L438.5,162.1 L436.5,161.4 L435.4,159.1 L434.4,158.9 L435.1,158.5 L434.0,156.9 L433.1,157.3 L431.9,156.5 L431.8,157.1 L430.5,157.3 L430.8,158.5 L430.0,158.2 L430.4,159.3 L432.6,163.0 L433.7,163.7 L434.2,165.1 L435.0,165.1 L434.9,165.9 L436.2,165.2 L436.8,165.7 L436.9,167.6 L436.3,168.9 L437.2,168.9 L437.3,169.5 L438.7,169.2 L441.2,169.4 L443.5,167.5 L445.3,165.7 L445.9,164.7 L446.0,167.5 L446.4,168.5 L447.4,169.6 L450.5,170.5 L452.4,173.1 L451.6,174.6 L450.3,175.8 L450.8,176.4 L450.3,176.7 L449.2,176.3 L448.5,177.9 L448.7,179.4 L447.0,179.8 L446.3,181.0 L445.6,181.4 L445.3,182.3 L444.6,181.5 L443.8,182.3 L443.4,183.3 L441.5,183.3 L438.8,184.3 L437.9,185.3 L438.1,186.0 L436.4,186.7 L434.9,187.1 L432.1,188.1 L431.4,189.0 L430.1,189.0 L428.9,189.7 L427.6,190.2 L425.6,190.3 L424.1,191.5 L422.4,191.8 L421.0,190.6 L420.8,188.9 L420.0,189.1 L420.6,188.0 L420.0,185.8 L420.3,185.1 L419.7,183.5 L418.6,183.9 L418.4,183.5 L419.3,182.9 L419.2,182.4 L418.1,181.5 L417.2,180.0 L416.7,178.4 L415.9,177.5 L414.2,176.5 L413.1,174.8 L412.9,173.6 L413.1,172.4 L411.9,169.9 L410.2,169.0 L409.5,167.8 L409.2,166.7 L408.2,166.2 L408.6,165.4 L406.5,162.5 L405.8,161.3 L404.7,161.2 L405.4,158.3 L405.2,158.4 L405.1,157.8 L403.9,154.6 L403.9,154.6 L404.8,153.3 L405.3,151.4 L407.3,147.8 L407.2,144.6 L406.9,144.0 L407.6,143.3 L407.3,142.6 L406.1,143.5 L404.5,143.0 L402.9,144.3 L401.2,144.6 L399.7,143.5 L397.2,142.7 L396.7,144.1 L395.3,144.4 L394.3,143.9 L393.9,143.0 L392.6,142.8 L392.7,142.4 L390.7,142.6 L391.4,141.9 L390.6,141.7 L390.7,140.3 L388.8,139.7 L390.1,139.3 L389.7,138.7 L390.3,138.2 L389.5,137.5 L390.0,136.8 L388.5,137.0 L387.9,135.7 L388.6,136.0 L389.5,135.1 L389.7,135.0 L389.8,135.0 L394.3,134.9 L394.7,134.2 L394.4,133.1 L398.2,133.4 L400.2,132.0 L402.2,131.3 L404.8,131.5 L405.3,131.1 L406.4,132.2 L407.2,132.0 L408.1,133.1 L408.5,132.8 L410.3,133.5 L411.7,133.8 L413.8,133.4 L415.1,133.8 L417.5,132.8 L418.2,131.8 L417.7,129.9 L416.5,128.9 L414.9,128.2 L414.9,128.2 L414.9,128.2 L415.0,127.9 L416.1,127.8 L417.8,128.6 L419.5,128.6 L422.1,129.7 L422.4,130.1 L424.1,129.6 L425.7,130.2 L425.5,130.9 L427.4,131.9 L428.7,132.9 L429.8,133.2 L431.2,131.7 L433.1,134.5 L434.5,134.8 L432.8,135.7 L432.3,138.1 L431.7,138.4 L431.8,140.5 L432.2,141.1 L434.1,141.6 L435.9,143.1 L437.5,143.4 L440.5,142.7 L441.5,142.9 L441.1,140.9 L441.4,138.3 L440.7,137.4 L440.6,136.0 L439.1,135.8 L439.4,133.7 L440.9,134.5 L442.1,134.3 L442.8,133.4 L441.6,132.6 L441.2,131.2 L439.9,131.1 L438.7,132.5 L438.4,131.2 L439.0,129.7 L437.5,129.5 L436.4,128.1 L435.5,126.3 L434.3,125.9 L433.9,124.3 L435.1,124.6 L436.5,123.7 L438.8,123.5 L439.7,122.0 L439.9,120.4 L438.5,119.7 L438.1,120.2 L436.2,119.4 L435.1,119.8 L435.2,118.5 L436.0,115.9 L436.7,114.7 L436.9,113.0 L437.7,111.7 L440.0,109.6 L441.6,109.3 L444.1,109.4 L446.2,109.8 L448.9,109.6 L451.9,110.4 L454.8,110.3 L455.3,109.3 L453.0,107.8 L452.5,105.4 L452.6,103.9 L453.7,103.2 L453.3,102.0 L451.6,100.5 L451.8,98.9 L453.6,97.7 L454.2,94.8 L455.0,94.8 L456.5,90.9 L458.2,87.1 L459.6,82.9 L460.4,79.4 L460.9,74.7 L461.0,71.2 L464.5,66.6 L465.9,64.3 L467.6,60.0 L468.6,61.1 L470.1,58.6 L468.9,58.5 L468.1,56.7 L466.3,56.0 L465.7,56.3 L466.7,52.5 L465.1,52.7 L466.0,50.5 L467.9,49.7 L468.9,48.6 L469.9,45.5 L471.0,44.9 L474.8,44.8 L477.2,45.5 L477.2,47.1 L476.0,49.4 L475.3,49.7 L476.9,51.2 L477.1,53.6 L476.4,54.1 L476.7,58.6 L478.7,60.0 L477.7,61.0 L477.8,62.5 L476.8,62.9 L476.0,64.4 L474.7,65.3 L474.8,66.0 L473.1,66.5 L471.5,65.5 L469.8,65.5 L470.6,66.5 L470.8,65.6 L472.0,65.9 L471.6,66.8 L475.6,67.4 L476.5,66.1 L478.4,65.5 L479.2,64.0 L480.8,62.7 L480.7,61.1 L480.0,60.4 L480.3,59.4 L483.9,58.4 L485.7,59.9 L485.3,62.4 L487.1,63.2 L488.8,62.9 L486.0,62.5 L486.1,61.2 L487.3,60.8 L486.4,58.8 L484.6,58.0 L482.3,57.5 L481.5,58.0 L478.9,57.8 L479.2,57.0 L478.5,55.9 L478.9,54.4 L480.0,53.2 L478.6,50.7 L477.6,50.0 L478.5,48.7 L481.2,47.7 L481.3,45.7 L479.6,44.4 L481.0,44.1 L482.6,46.1 L482.7,47.2 L481.8,48.2 L482.3,49.7 L481.7,50.2 L483.2,50.7 L486.6,51.1 L487.9,51.9 L487.5,50.7 L483.8,49.6 L483.2,48.4 L485.0,47.9 L486.2,48.7 L487.2,48.5 L486.6,47.0 L484.9,47.0 L486.2,45.8 L487.7,46.3 L488.1,45.0 L489.2,44.1 L489.9,44.7 L489.6,46.7 L494.1,49.1 L496.2,48.8 L497.1,49.2 L496.6,50.1 L495.1,50.6 L495.4,52.3 L496.2,51.6 L497.4,52.5 L496.8,53.7 L497.9,53.4 L496.8,50.7 L497.7,49.4 L497.2,48.6 L494.9,47.7 L494.9,47.0 L493.1,46.8 L492.1,46.1 L492.4,44.7 L491.3,43.3 L492.4,42.4 L494.5,42.0 L497.4,42.1 L496.8,40.2 L499.0,40.7 L499.1,41.9 L501.4,41.4 L504.5,41.3 L502.6,39.2 L500.6,38.8 L500.5,37.9 L501.7,38.4 L504.1,37.1 L504.2,37.5 L508.1,35.3 L509.7,34.8 L516.5,33.7 L515.5,32.9 L516.8,32.6 L517.1,30.9 L518.0,30.9 L518.1,32.3 L520.8,32.0 L520.9,30.7 L519.0,30.7 L519.7,29.2 L522.1,28.4 L520.5,29.4 L520.4,30.5 L522.0,30.4 L521.7,32.0 L523.1,32.2 L520.9,32.6 L521.2,33.2 L526.3,32.4 L528.3,33.0 L526.6,31.1 L530.3,31.0 L531.1,30.1 L530.5,29.3 L532.8,27.6 L534.9,26.5 L537.8,26.4 L539.9,26.9 L540.9,27.9 L540.7,29.0 L542.9,29.6 L541.0,31.2 L543.6,31.1 L543.8,30.3 L547.8,30.4 L549.9,30.2 L550.5,30.8 L552.5,30.7 L552.7,32.3 L554.2,31.8 L554.5,33.6 L555.1,33.7 L554.6,35.9 L547.6,39.5 L544.0,42.1 L542.3,42.2 L541.3,43.3 L540.6,43.3 L539.1,45.3 L540.5,44.5 L540.8,43.8 L543.4,43.8 L549.4,41.9 L546.8,41.6 L547.8,40.7 L552.2,41.9 L553.6,41.2 L554.3,42.6 L558.0,41.9 L563.7,42.3 L563.8,43.7 L566.3,44.4 L572.3,44.9 L573.4,43.7 L572.9,43.0 L573.5,41.8 L574.2,42.2 L575.4,41.1 L577.2,42.9 L578.5,42.4 L581.9,42.7 L581.8,43.2 L584.6,44.4 L584.0,46.3 L584.8,47.2 L583.6,47.8 L581.6,46.5 L585.2,51.1 L587.3,52.3 L588.6,52.0 L590.5,48.5 L592.6,50.0 L594.2,50.3 L597.0,49.3 L601.0,50.8 L600.7,50.1 L599.0,49.7 L602.3,49.3 L603.1,50.1 L604.7,49.9 L603.8,48.3 L604.4,47.4 L603.1,47.5 L603.8,46.3 L606.7,46.0 L605.8,44.8 L607.6,45.3 L614.9,46.1 L617.5,46.9 L614.0,46.5 L614.3,47.1 L617.8,46.9 L616.0,48.6 L614.5,48.6 L614.8,49.2 L616.3,48.7 L618.3,46.9 L620.6,46.9 L622.9,47.5 L623.7,48.3 L622.4,48.4 L621.7,49.1 L623.5,49.2 L623.4,50.0 L624.8,49.8 L626.7,50.5 L627.8,52.0 L630.6,52.0 L634.9,51.2 L638.0,51.3 L639.8,51.7 L642.0,52.7 L642.8,54.1 L642.0,55.4 L644.6,56.9 L646.2,56.2 L650.2,55.8 L651.8,56.5 L655.8,56.7 L657.4,55.8 L658.3,57.6 L660.2,58.0 L660.9,59.1 L663.3,58.4 L662.7,56.4 L662.7,54.6 L669.2,55.4 L672.1,55.5 L677.4,56.7 L680.5,58.4 L680.5,58.4 L682.6,59.2 L682.9,59.9 L684.8,60.5 L687.1,62.0 L689.4,62.7 L689.6,63.8 L691.0,66.4 L691.8,66.6 L691.8,65.0 L690.8,64.6 L696.2,65.0 L696.8,65.9 L699.2,67.6 L700.0,67.6 L698.5,68.5 L698.4,69.2 L695.3,69.5 L695.5,71.0 L694.8,71.7 L695.2,73.0 L692.6,73.2 L690.5,71.8 L689.2,71.9 L688.3,71.2 L688.2,69.9 L686.2,69.3 L685.4,69.8 L683.2,69.6 L682.4,67.9 L680.9,67.7 L681.0,68.7 L681.8,69.2 Z M558.3,232.0 L557.6,232.3 L556.2,230.9 L557.6,230.9 L558.6,231.5 Z M602.2,231.1 L602.5,231.5 L600.2,231.6 L600.9,230.0 L602.4,229.6 L602.9,229.9 Z M588.6,228.4 L589.3,229.1 L587.9,231.0 L587.3,229.8 L588.2,229.7 Z M555.9,228.9 L554.4,229.3 L552.9,229.2 L553.1,228.7 L555.3,228.6 Z M571.5,225.9 L570.4,226.0 L570.1,225.6 L571.2,225.2 L571.3,224.6 L572.2,224.1 L572.7,224.3 L572.3,225.4 L573.6,225.8 Z M580.4,222.8 L579.5,222.9 L578.4,222.4 L578.1,221.8 L579.4,221.4 L580.5,222.0 Z M543.0,221.1 L543.3,220.5 L544.4,220.8 L544.3,221.6 L543.2,221.7 Z M577.0,219.0 L578.7,219.1 L577.8,219.6 L575.9,219.2 L575.0,219.4 L575.0,218.8 Z M542.1,221.1 L541.5,221.5 L540.1,221.0 L539.7,219.7 L538.5,219.3 L539.3,218.5 L540.2,218.6 L540.8,220.3 L541.7,220.5 L541.3,221.2 Z M528.0,219.4 L529.8,221.6 L528.8,221.0 L527.8,219.7 L526.6,218.8 L526.1,217.9 L526.7,217.4 L527.3,219.0 Z M580.5,216.5 L581.2,216.4 L581.7,217.1 L581.2,218.1 L582.1,218.6 L581.0,218.9 L580.5,218.3 L581.0,217.8 Z M522.4,211.7 L520.6,210.4 L521.0,210.2 L522.4,211.7 L523.6,211.5 L524.0,212.9 L524.8,213.8 L524.4,214.6 L523.2,213.0 L523.8,212.8 L523.7,211.8 Z M594.1,227.5 L594.6,227.9 L593.6,228.7 L593.4,228.4 L593.6,226.5 L594.2,225.9 L594.7,226.3 L594.6,227.6 Z M560.2,232.5 L559.1,232.5 L559.1,231.6 L559.8,231.1 L560.7,231.7 L561.8,231.7 L561.9,231.1 L563.1,231.0 L564.8,231.3 L565.2,231.9 L563.8,232.4 L561.0,232.9 Z M581.6,221.4 L582.2,221.0 L584.0,221.2 L584.6,220.9 L586.8,221.5 L588.0,223.1 L584.8,221.9 L584.7,222.2 L583.2,222.1 L582.2,221.4 L581.7,221.9 L580.9,221.8 Z M634.1,110.4 L634.8,110.7 L635.8,110.3 L634.8,111.8 L632.9,113.3 L632.8,114.0 L631.3,115.5 L632.4,114.0 L631.9,113.0 L633.5,112.3 L633.5,111.7 L634.5,111.4 Z M599.0,99.9 L600.1,99.1 L600.8,100.2 L600.3,101.3 L599.9,100.0 Z M569.8,203.2 L570.6,202.9 L570.4,204.3 L568.8,204.7 L567.8,203.6 L569.4,204.3 L570.1,204.2 Z M660.5,55.8 L659.4,56.5 L657.3,55.6 L658.3,54.9 L660.5,55.4 Z M573.8,194.6 L574.4,195.0 L574.2,196.1 L573.6,196.7 L573.0,198.0 L573.6,198.4 L572.4,198.6 L571.2,197.0 L572.1,196.5 L572.4,195.0 L573.5,195.2 L573.2,196.7 L574.2,194.9 Z M474.0,43.2 L475.0,43.6 L471.6,44.3 L471.7,43.0 L473.6,42.6 Z M567.2,189.6 L569.0,190.1 L569.6,191.7 L569.0,192.5 Z M554.1,39.5 L553.0,40.5 L550.5,39.5 L551.5,38.8 L554.0,39.0 Z M570.3,192.3 L571.1,192.0 L570.4,193.0 L571.6,193.8 L572.7,193.9 L572.6,194.5 L571.6,195.4 L570.4,195.9 L570.7,193.6 L570.2,193.4 Z M565.9,170.4 L566.7,170.6 L568.7,167.4 L569.7,167.0 L570.5,167.5 L570.1,167.9 L569.3,171.2 L568.5,172.4 L568.3,173.7 L567.2,172.2 L566.9,170.8 Z M511.9,18.7 L511.3,18.6 L511.9,16.5 L513.1,16.4 L516.8,17.0 L514.7,18.1 L513.7,17.5 L511.8,17.3 Z M605.7,41.1 L605.1,40.0 L606.3,39.8 L606.8,41.2 L608.5,41.1 L611.1,42.5 L611.4,43.6 L610.7,43.8 L606.1,43.0 L604.6,43.3 L604.5,42.7 L605.9,42.3 Z M618.1,37.0 L616.2,36.1 L616.8,34.8 L617.5,35.6 L620.6,35.4 L621.0,36.2 L622.0,36.0 L625.2,36.5 L624.8,37.4 L622.1,37.9 L620.1,37.8 Z M490.6,197.3 L491.0,197.1 L492.2,197.9 L493.4,199.6 L494.4,201.8 L494.0,203.4 L491.9,204.5 L491.1,204.2 L490.5,202.8 L490.3,200.5 L490.9,197.9 Z M594.5,148.3 L594.7,149.3 L593.6,150.5 L593.1,150.0 L591.9,150.3 L591.3,151.4 L590.5,151.6 L590.2,150.1 L591.2,148.6 L592.3,149.0 L592.7,148.1 Z M515.4,189.7 L515.3,190.9 L515.6,192.6 L514.7,194.1 L514.6,193.4 Z M549.0,178.6 L548.6,179.8 L546.9,181.0 L545.2,180.4 L545.1,178.8 L547.2,177.4 L549.5,177.4 L549.6,178.0 Z M566.7,233.3 L568.3,234.7 L567.5,235.1 L566.6,234.5 L564.7,233.7 L565.1,233.4 Z M606.5,220.5 L606.5,228.7 L606.5,232.9 L604.5,231.0 L602.4,231.0 L602.9,229.9 L601.9,228.7 L601.0,225.9 L597.0,224.2 L595.6,224.1 L593.9,222.9 L593.9,223.2 L592.5,222.4 L591.9,223.3 L591.3,223.4 L590.5,221.5 L589.4,221.1 L589.8,220.7 L590.9,220.9 L591.4,220.3 L592.9,220.6 L593.2,220.2 L591.9,219.8 L590.8,220.0 L589.6,219.6 L589.1,218.5 L587.5,218.4 L586.5,217.3 L585.6,217.9 L586.5,219.1 L586.1,219.5 L585.1,219.2 L585.7,218.9 L585.2,217.9 L586.5,217.2 L586.5,216.6 L585.5,216.6 L586.2,215.8 L587.2,215.6 L588.1,215.9 L588.0,216.4 L586.9,216.6 L587.2,217.3 L588.0,217.2 L590.8,216.3 L592.1,217.0 L593.2,217.0 L593.8,218.2 L593.4,218.8 L594.4,220.0 L594.6,221.2 L595.1,221.9 L596.0,222.0 L597.6,220.5 L597.6,219.2 L595.3,218.5 L596.9,218.7 L596.8,217.0 L597.4,217.6 L597.4,218.8 L599.2,219.0 L600.5,218.4 L604.4,220.1 L605.0,220.0 Z M402.9,146.9 L402.7,147.2 L401.6,147.6 L401.3,147.4 L401.1,147.5 L400.2,146.6 L401.3,146.5 L401.4,145.9 L402.4,146.1 L404.6,145.4 L403.3,146.2 L403.3,146.7 L403.3,146.7 L403.3,146.7 L403.3,146.7 L403.3,146.7 L403.0,146.7 L402.9,146.7 L402.9,146.7 L402.9,146.7 Z M403.1,146.8 L403.1,146.8 L403.1,146.8 Z M403.3,146.9 L403.1,146.7 L403.3,146.7 L403.3,146.7 L403.3,146.7 Z M537.2,215.2 L537.1,215.1 L537.0,214.7 L537.0,214.7 L537.2,215.2 L537.2,215.2 Z M403.0,146.8 L403.0,146.8 L403.0,146.8 L403.0,146.8 L403.0,146.8 L403.0,146.8 Z M403.3,146.7 L403.3,146.6 L403.3,146.6 L403.3,146.7 Z M403.0,146.8 L403.1,146.8 L403.1,146.8 L403.1,146.8 L403.1,146.8 L403.1,146.8 Z M564.4,214.1 L562.5,214.1 L561.9,215.4 L561.8,216.6 L561.0,217.9 L559.8,219.0 L560.2,219.8 L559.3,221.3 L559.9,222.1 L559.3,223.2 L559.0,222.4 L556.5,223.5 L556.2,222.2 L554.6,222.2 L553.5,221.1 L552.7,222.1 L552.1,221.9 L551.2,222.3 L551.0,220.9 L549.0,221.4 L548.2,221.3 L547.6,217.7 L546.3,217.9 L547.2,217.4 L546.3,217.2 L545.9,216.1 L546.4,215.6 L545.7,215.0 L545.5,214.1 L546.0,212.7 L547.0,211.7 L547.6,212.4 L549.6,212.7 L550.2,210.4 L553.4,209.7 L555.2,207.6 L555.3,207.0 L556.3,206.8 L558.3,205.0 L558.8,205.1 L559.3,204.1 L560.1,203.4 L560.8,202.0 L561.6,203.1 L562.4,203.6 L562.5,204.5 L562.9,204.2 L564.7,205.5 L565.2,205.4 L565.6,206.4 L567.1,205.5 L565.7,206.8 L565.1,206.0 L563.2,206.4 L564.3,207.2 L561.7,207.8 L562.6,208.9 L561.7,209.6 L562.2,209.8 L563.1,211.4 L562.6,212.1 L564.8,213.8 Z M533.5,213.5 L535.2,213.9 L535.1,214.6 L535.9,215.2 L535.1,217.0 L536.0,217.6 L537.0,217.6 L537.3,219.1 L538.0,219.9 L539.4,220.2 L540.3,221.8 L540.0,222.9 L539.7,226.6 L538.8,226.0 L538.6,226.5 L537.7,226.8 L536.9,226.3 L535.7,225.0 L533.1,223.2 L533.0,222.5 L531.8,221.8 L530.8,220.5 L529.5,218.0 L529.3,217.2 L528.3,215.7 L527.1,215.1 L527.0,214.5 L526.0,212.0 L524.3,211.1 L524.2,210.2 L522.6,208.6 L522.0,208.4 L520.1,206.5 L519.4,205.0 L519.8,204.6 L521.4,205.7 L524.0,205.7 L525.5,207.3 L525.5,207.9 L528.3,209.6 L529.8,211.6 L530.7,211.3 L531.9,211.6 L531.8,212.5 L533.5,212.8 Z M569.9,231.4 L571.0,232.0 L571.9,231.4 L573.9,231.1 L574.3,231.6 L574.8,231.1 L576.4,231.1 L576.4,231.4 L574.6,231.8 L573.9,231.3 L573.4,231.8 L572.7,231.6 L570.1,232.4 L566.5,232.4 L565.5,232.1 L567.1,231.3 L568.5,231.4 L569.6,231.9 Z M540.2,226.7 L542.0,227.1 L542.1,226.8 L544.1,227.6 L544.6,227.4 L545.1,228.4 L548.6,228.8 L549.5,227.7 L551.6,228.7 L552.7,228.7 L553.0,229.9 L554.0,230.3 L555.3,230.0 L556.2,230.4 L556.0,231.5 L556.4,232.2 L554.2,231.6 L553.8,231.3 L552.8,231.6 L551.1,231.2 L550.9,231.4 L548.6,231.0 L546.5,230.2 L544.5,230.4 L542.8,229.8 L541.1,229.6 L541.1,228.8 L539.1,228.5 L539.8,227.8 Z M569.8,215.9 L570.9,217.1 L573.2,217.1 L572.8,217.8 L573.3,218.8 L572.1,218.6 L572.0,217.4 L571.2,218.5 L569.9,219.2 L569.2,219.0 L571.1,221.2 L570.9,222.3 L572.2,223.6 L572.5,222.4 L572.9,223.4 L571.9,224.1 L570.7,224.2 L570.5,224.8 L569.5,224.4 L569.8,223.3 L568.4,222.3 L568.7,220.8 L568.2,220.6 L567.1,221.2 L567.4,221.7 L567.5,224.4 L567.3,226.0 L565.9,226.3 L565.5,225.7 L566.0,223.8 L565.4,222.1 L564.6,222.4 L564.4,221.0 L565.4,219.4 L565.4,217.9 L566.2,216.8 L566.3,215.2 L566.8,214.2 L567.8,214.2 L568.4,213.1 L569.5,213.5 L574.0,214.1 L575.4,213.4 L575.3,213.1 L576.8,211.7 L576.0,213.8 L574.9,214.9 L572.8,215.0 L572.5,214.7 L570.1,214.8 L567.4,214.7 L566.7,216.0 L566.9,216.9 L568.0,218.3 L568.7,218.3 L569.8,217.2 Z M580.8,215.7 L580.6,215.0 L581.1,212.3 L582.2,211.1 L583.2,211.0 L582.4,211.8 L582.1,211.2 L581.6,212.2 L581.9,212.7 L581.2,213.8 L581.5,214.1 L582.7,212.7 L583.2,212.7 L583.2,213.6 L582.5,213.9 L583.5,215.2 L581.8,214.7 L581.7,215.7 L582.6,217.6 Z M574.9,193.5 L575.5,194.2 L575.9,193.8 L576.0,193.4 L574.8,191.9 L576.5,191.8 L577.1,192.4 L577.2,194.3 L576.2,194.3 L576.6,196.5 L575.4,196.5 L574.8,197.5 L574.0,197.4 L574.6,196.5 L575.7,196.0 L575.5,194.8 L575.1,195.4 Z M574.4,203.5 L574.3,202.2 L574.7,201.7 L573.7,200.9 L572.0,201.9 L572.0,201.0 L571.5,201.1 L570.7,202.6 L570.4,202.5 L571.0,200.5 L572.2,200.2 L572.5,199.5 L573.8,199.4 L574.0,200.2 L574.7,200.1 L575.0,199.4 L575.7,199.6 L575.8,198.5 L576.4,199.0 L577.2,198.6 L576.9,197.3 L577.5,195.3 L577.5,197.0 L578.3,197.0 L577.9,197.7 L579.0,200.1 L579.2,201.9 L578.6,202.9 L578.5,203.7 L577.7,201.8 L577.1,202.4 L577.4,204.4 L576.8,205.5 L576.5,204.7 L574.7,204.0 Z M565.7,194.0 L566.3,193.9 L566.6,192.4 L567.3,192.9 L565.9,194.3 L566.2,195.7 L564.4,197.2 L563.6,198.3 L561.6,199.7 L562.2,198.5 L562.9,198.2 L564.5,196.4 L565.3,195.8 L565.2,194.9 Z M574.3,189.7 L574.5,189.0 L575.1,189.3 L574.0,190.7 L573.9,192.6 L574.6,192.8 L574.4,193.4 L573.2,192.5 L572.7,193.0 L573.0,191.0 L572.7,190.1 L571.5,189.2 L571.6,190.7 L571.1,189.9 L570.5,190.6 L570.7,189.6 L570.0,189.1 L568.8,190.0 L567.8,188.7 L568.5,188.1 L567.7,187.5 L567.8,188.1 L566.8,187.5 L566.3,185.4 L566.3,184.5 L567.3,185.2 L567.3,182.2 L567.8,180.3 L569.1,179.6 L569.2,178.7 L570.3,178.3 L570.2,179.7 L568.8,180.1 L570.4,180.8 L570.9,180.3 L570.8,182.1 L571.5,183.1 L570.9,184.6 L569.7,185.4 L569.3,186.6 L570.0,187.7 L570.2,187.1 L571.2,187.7 L571.4,188.4 L572.5,189.1 L573.7,189.2 Z M611.0,105.6 L610.6,107.7 L611.4,109.3 L611.8,111.7 L612.8,114.3 L610.8,113.9 L609.5,117.3 L609.5,117.9 L610.4,119.1 L611.1,120.8 L609.3,120.6 L608.6,122.3 L608.1,120.7 L608.5,119.6 L608.4,118.3 L608.7,116.5 L608.2,115.4 L608.7,113.2 L608.5,111.1 L608.9,109.7 L607.8,108.1 L607.8,106.4 L608.3,104.8 L608.0,103.9 L609.0,103.9 L610.0,103.1 L609.1,101.6 L609.8,101.2 L610.3,101.9 L610.1,102.8 L610.9,104.5 Z M614.8,35.1 L612.9,36.8 L610.1,36.5 L609.4,35.6 L610.3,34.3 L609.1,34.2 L608.6,35.0 L609.6,36.7 L611.7,37.2 L609.1,37.7 L608.1,37.0 L604.8,37.7 L603.7,37.2 L602.8,38.3 L600.6,37.6 L598.7,35.6 L599.7,35.7 L599.2,34.5 L600.3,34.0 L599.8,33.3 L602.5,32.3 L604.2,33.6 L606.5,34.6 L606.6,33.0 L607.2,32.5 L609.5,33.7 L612.1,33.8 Z M533.1,19.1 L534.3,19.8 L534.2,20.8 L536.0,20.3 L537.3,21.6 L538.6,21.8 L538.9,23.1 L537.8,23.8 L535.8,24.1 L531.0,24.4 L528.8,25.3 L527.3,25.0 L530.7,20.4 Z M514.0,19.4 L517.7,17.7 L519.2,16.3 L524.2,15.9 L525.7,17.2 L526.0,16.4 L527.2,16.5 L528.9,18.1 L527.9,19.8 L527.0,19.8 L528.6,21.1 L527.6,21.7 L524.5,21.8 L522.7,21.0 L519.3,20.8 L518.0,20.0 L517.1,18.4 L515.1,19.4 L514.8,20.6 Z M523.0,12.7 L524.8,13.6 L523.4,13.9 L523.4,15.7 L518.4,16.1 L517.8,16.5 L516.8,16.7 L512.7,15.4 L513.4,14.6 L515.0,14.5 L516.0,13.2 L514.5,13.3 L515.6,12.3 L519.0,11.6 L520.7,11.0 Z M577.9,231.7 L579.1,231.7 L580.4,231.0 L581.3,231.0 L580.0,232.0 L577.3,233.0 L576.3,233.6 L575.1,234.9 L573.3,235.2 L573.2,235.8 L572.1,236.3 L573.1,235.4 L573.7,233.8 L576.0,232.6 L577.4,231.0 Z M608.6,136.9 L608.1,138.0 L607.4,138.8 L607.5,139.7 L606.7,139.5 L606.4,140.5 L606.6,141.7 L605.7,144.0 L606.3,145.2 L605.6,145.6 L605.4,146.4 L604.5,147.0 L604.2,145.4 L603.4,147.2 L602.4,147.7 L602.4,146.5 L601.3,147.4 L598.8,147.8 L598.8,148.3 L597.5,148.8 L597.0,149.8 L596.0,149.9 L595.3,149.2 L595.6,147.5 L594.0,147.4 L591.7,148.3 L590.5,148.5 L589.9,149.4 L589.0,148.8 L588.1,149.1 L587.3,148.7 L587.5,148.1 L588.3,148.0 L591.5,145.5 L592.1,145.8 L594.3,145.4 L596.7,145.7 L597.0,144.7 L598.5,142.8 L598.5,141.7 L599.5,141.3 L598.9,142.8 L601.3,142.1 L602.3,141.1 L601.8,140.5 L601.8,139.6 L602.5,140.7 L603.6,139.9 L604.7,137.0 L604.2,136.2 L604.7,135.1 L604.4,134.6 L605.2,133.9 L605.3,133.0 L605.9,133.9 L606.7,133.9 L606.8,133.0 L606.2,133.3 L606.4,132.4 L607.1,132.8 L607.4,134.4 L607.9,135.0 Z M586.3,153.9 L585.3,153.5 L586.0,151.5 L584.6,150.3 L585.0,149.5 L584.1,148.7 L585.2,149.3 L585.7,150.1 L586.6,149.2 L587.6,149.0 L587.7,149.7 L588.9,149.8 L588.5,150.5 L589.3,150.5 L589.5,151.2 L588.9,152.0 L588.2,154.5 L587.4,155.0 L587.5,156.5 L586.5,156.8 L587.2,154.5 L586.1,154.7 Z M621.0,123.3 L621.4,123.7 L619.3,124.4 L617.8,125.8 L617.7,127.1 L615.1,128.7 L613.6,129.3 L612.6,129.1 L611.5,129.9 L610.8,131.5 L607.9,130.0 L606.5,130.6 L606.0,130.1 L605.2,130.8 L606.9,131.8 L606.0,131.8 L605.0,132.7 L603.5,132.5 L603.6,131.2 L604.2,130.8 L604.4,129.9 L605.6,129.1 L605.6,128.2 L606.9,128.8 L607.4,128.3 L607.2,127.4 L607.8,126.9 L607.9,124.6 L607.0,124.2 L608.4,123.3 L610.3,125.4 L611.1,126.0 L613.8,126.9 L614.8,126.0 L614.3,127.4 L614.9,127.2 L614.8,128.4 L615.3,128.4 L617.2,127.2 L617.7,125.6 L619.6,123.9 Z M537.0,214.7 L536.7,214.1 L536.0,213.7 L537.4,213.4 L537.9,213.8 L536.8,214.0 L537.0,214.7 Z M537.2,215.2 L538.2,216.2 L537.3,216.2 L537.4,215.6 L537.2,215.2 L537.2,215.2 Z">
  <desc xmlns="http://www.highcharts.com/svg/namespace">
    <abbrev-a3>ASA</abbrev-a3>
    <iso-a2>AS</iso-a2>
    <name>Asia</name>
    <hc-middle-x>0.44</hc-middle-x>
    <hc-middle-y>0.46</hc-middle-y>
    <hc-key>as</hc-key>
    <hc-a2>AS</hc-a2>
  </desc>
</path>

<path fill="#CEE3F5" stroke="#6E6E6E" stroke-width="0.4" id="NA" d="M288.2,49.7 L290.2,49.9 L290.4,50.9 L288.3,51.8 L290.2,51.3 L291.0,52.8 L289.4,53.2 L285.7,53.5 L287.4,52.1 L286.5,52.5 L286.0,52.0 L285.4,53.7 L288.2,53.3 L286.0,54.7 L287.2,55.0 L288.0,54.1 L289.0,54.3 L291.0,53.6 L294.3,54.6 L296.5,54.6 L294.9,56.2 L293.2,56.6 L292.3,57.4 L289.1,59.4 L287.3,59.9 L285.8,59.8 L283.2,61.0 L280.1,61.5 L278.8,61.3 L277.5,59.6 L278.3,61.5 L275.9,63.2 L275.6,64.4 L273.2,66.9 L271.6,67.5 L268.4,69.5 L266.9,69.0 L267.2,67.9 L268.4,67.0 L266.9,67.3 L266.9,68.2 L265.9,69.1 L262.8,69.8 L264.0,70.2 L262.6,71.2 L261.8,70.8 L261.7,73.6 L262.1,75.1 L260.7,76.1 L261.0,76.6 L258.5,78.5 L259.0,80.8 L258.2,81.0 L258.2,82.6 L257.0,82.5 L258.0,83.5 L257.7,84.2 L256.6,84.6 L257.1,86.0 L255.6,86.6 L255.0,85.7 L253.6,85.9 L252.8,85.4 L253.0,84.7 L251.3,83.9 L248.4,83.9 L247.4,83.6 L247.5,82.6 L246.2,82.4 L245.3,80.9 L245.4,79.8 L243.5,78.8 L243.8,77.4 L242.2,76.8 L241.2,75.2 L241.4,74.0 L240.1,73.9 L240.0,71.8 L240.3,71.3 L238.7,69.2 L237.2,67.7 L237.2,66.5 L238.0,65.7 L239.7,65.1 L237.2,65.2 L236.6,64.7 L240.0,63.7 L236.7,64.2 L237.1,62.3 L238.1,62.0 L238.1,61.0 L240.4,61.5 L241.4,61.0 L239.5,61.1 L239.2,60.5 L237.8,60.8 L238.4,59.6 L240.0,59.4 L240.4,59.9 L241.9,59.8 L242.0,57.9 L243.8,58.3 L243.2,57.4 L242.4,57.8 L242.5,56.3 L241.6,55.9 L242.3,55.1 L239.7,54.8 L238.0,53.8 L236.8,53.7 L235.4,52.6 L236.5,52.2 L237.2,50.4 L237.6,52.4 L239.4,52.6 L241.2,53.5 L240.6,51.3 L238.5,51.0 L238.1,50.4 L239.0,49.7 L240.7,49.5 L239.0,49.2 L238.2,49.7 L236.3,49.1 L236.6,50.0 L234.1,50.2 L232.9,49.2 L233.8,48.7 L233.4,45.7 L232.3,45.5 L234.9,44.6 L233.3,44.5 L234.2,43.6 L232.6,42.1 L232.5,39.7 L231.4,39.5 L230.7,37.3 L228.6,36.8 L227.7,35.6 L228.5,35.4 L228.1,34.2 L223.5,32.5 L218.5,31.7 L217.5,32.6 L213.3,32.1 L212.9,32.8 L211.3,32.5 L212.8,33.4 L209.1,32.9 L206.8,31.7 L205.9,30.0 L203.6,29.2 L204.4,28.4 L204.4,27.3 L207.1,26.4 L204.9,26.3 L206.0,25.7 L203.7,26.1 L200.6,24.5 L201.2,23.0 L207.4,21.8 L208.0,21.1 L209.9,20.7 L213.8,20.5 L215.9,18.8 L215.5,16.6 L212.9,16.2 L211.7,16.4 L211.0,15.2 L212.2,14.7 L213.2,13.1 L213.6,13.8 L215.4,13.3 L216.0,12.3 L219.5,11.3 L222.2,12.0 L223.3,11.5 L222.7,10.6 L223.6,10.0 L222.4,8.9 L225.0,8.0 L228.0,8.3 L226.1,7.7 L227.8,7.3 L235.7,6.0 L237.3,7.2 L236.9,9.8 L238.5,8.4 L237.8,6.5 L244.4,8.3 L245.1,8.0 L243.0,7.0 L242.0,5.4 L246.0,5.6 L246.5,6.1 L251.7,7.6 L253.3,8.7 L255.0,8.5 L253.7,7.5 L254.1,7.3 L250.0,6.1 L248.5,4.7 L248.8,4.1 L253.0,5.1 L254.7,6.0 L253.4,6.7 L254.1,7.3 L256.0,5.9 L252.2,4.1 L259.2,4.2 L259.8,5.5 L260.1,4.3 L262.6,5.1 L263.2,4.5 L261.2,4.1 L252.4,3.6 L250.1,3.2 L251.6,2.6 L253.4,3.1 L254.3,2.2 L259.1,1.9 L261.7,2.9 L260.4,2.2 L263.1,2.3 L262.1,1.3 L265.6,2.5 L265.6,1.0 L269.3,0.5 L272.1,0.5 L277.3,0.0 L280.8,0.2 L290.3,1.6 L289.5,2.1 L280.6,2.4 L272.7,3.5 L278.6,3.1 L281.9,2.4 L287.0,2.8 L291.1,2.3 L292.5,3.5 L296.0,4.0 L298.5,4.8 L296.4,6.2 L293.6,6.4 L282.3,7.1 L276.8,8.5 L278.0,9.2 L278.9,8.5 L286.3,7.5 L292.3,7.8 L292.1,8.7 L289.0,9.5 L288.9,10.4 L293.9,8.9 L295.0,7.6 L298.4,7.4 L299.1,8.8 L298.6,10.0 L295.1,12.6 L297.3,12.2 L303.6,8.6 L303.6,10.0 L305.2,10.4 L305.2,8.9 L306.3,10.1 L309.0,8.5 L312.6,8.6 L316.2,9.4 L317.3,10.2 L313.6,12.2 L311.4,12.3 L311.8,13.2 L309.7,13.9 L306.6,13.8 L303.7,14.2 L304.7,14.5 L306.9,14.1 L309.0,14.9 L307.8,15.7 L303.6,15.8 L301.7,16.6 L302.0,15.6 L300.4,17.2 L301.1,18.1 L302.5,18.0 L301.8,19.3 L303.0,19.9 L302.6,21.9 L299.2,21.9 L299.3,22.6 L297.3,26.5 L298.5,26.5 L298.4,25.5 L299.6,25.3 L302.2,25.6 L302.3,23.7 L304.1,22.5 L303.1,23.8 L303.1,25.0 L302.2,27.1 L301.0,26.4 L299.5,26.6 L300.1,27.7 L302.8,28.5 L303.7,28.1 L305.0,25.7 L305.5,26.1 L304.2,28.4 L304.3,29.5 L303.4,31.2 L303.8,33.4 L302.7,31.3 L302.8,29.9 L300.0,29.4 L297.7,30.6 L296.7,29.8 L295.8,30.4 L297.8,31.1 L297.8,32.2 L301.1,32.2 L300.5,33.2 L302.3,34.2 L302.1,36.2 L299.8,35.9 L297.9,34.7 L298.5,35.6 L301.5,37.5 L300.6,38.2 L303.1,38.3 L303.2,35.9 L304.6,35.4 L304.4,36.1 L306.0,36.9 L304.0,37.1 L303.7,38.1 L302.2,39.8 L300.6,39.7 L300.3,39.1 L297.7,39.1 L296.8,40.4 L299.7,41.2 L300.0,42.8 L298.6,42.8 L296.6,43.5 L293.5,42.3 L291.0,42.7 L289.4,43.6 L291.4,44.2 L292.4,46.5 L296.3,48.4 L295.2,49.1 L297.4,49.0 L296.4,49.5 L296.6,50.6 L297.6,50.6 L298.2,53.1 L294.7,53.5 L293.6,52.9 L292.9,51.3 L289.9,49.6 Z M288.2,49.7 L288.1,49.6 L288.1,49.6 L288.1,49.6 L288.1,49.6 L286.1,48.1 L285.0,48.3 L287.1,49.0 L286.5,49.4 L288.1,49.6 L288.1,49.6 L288.1,49.6 L288.1,49.6 L288.1,49.7 Z M294.9,44.2 L297.4,44.8 L297.4,45.6 L296.0,45.6 L295.0,44.9 L292.4,44.8 L292.4,44.5 Z M299.2,39.2 L300.7,40.2 L298.6,40.5 L297.5,39.5 Z M306.1,16.8 L305.1,17.8 L303.9,18.1 L302.2,17.3 L305.3,16.3 Z M234.7,53.7 L237.9,54.3 L238.9,55.2 L240.3,55.7 L240.0,56.8 L237.3,57.6 L236.1,56.9 L237.6,56.9 L234.6,56.0 L235.1,54.9 Z M293.6,46.4 L292.5,45.1 L295.1,45.0 L297.3,46.7 L296.8,47.6 Z M294.8,43.7 L291.6,43.3 L295.4,44.1 L292.5,44.3 L290.2,43.8 L291.1,43.0 L292.6,42.9 Z M215.8,180.6 L215.1,180.8 L215.9,181.9 L214.5,180.9 L214.1,181.3 L211.6,181.4 L211.3,180.6 L211.8,180.4 Z M4.7,107.4 L5.1,107.8 L3.3,108.4 L2.8,108.1 L1.0,108.3 L0.0,108.0 L0.0,107.9 L1.3,107.6 L3.6,108.0 Z M89.2,98.9 L89.1,97.4 L90.0,97.1 L90.4,97.8 L90.0,99.9 L89.2,99.6 Z M85.3,95.4 L84.2,97.5 L84.2,94.5 L84.7,94.1 L86.4,94.3 L87.5,95.4 L85.3,95.8 Z M23.8,84.9 L24.6,85.1 L24.8,86.2 L22.8,86.4 L21.2,85.4 Z M23.7,102.0 L23.5,103.1 L21.2,104.0 L20.5,103.9 L18.2,105.2 L19.5,103.7 L21.8,103.6 L22.0,102.4 Z M49.3,90.1 L50.8,91.1 L49.3,91.4 L49.9,91.8 L50.1,93.3 L48.4,93.4 L46.8,95.0 L47.1,93.9 L46.3,94.6 L45.4,93.1 L48.3,91.3 Z M80.7,90.9 L82.9,91.5 L83.1,93.0 L81.3,92.2 L81.7,93.1 L83.0,93.4 L83.5,95.0 L83.5,96.5 L82.1,94.8 L82.5,94.2 L81.7,93.7 L81.2,94.3 L81.0,92.6 L79.8,91.5 Z M85.4,97.2 L84.9,97.4 L85.4,96.1 L86.2,96.1 L88.3,98.9 L88.6,100.2 L87.7,99.6 L86.9,100.5 L86.1,99.1 L85.6,100.2 L86.1,98.1 Z M217.3,112.5 L218.7,112.8 L221.5,114.0 L221.9,114.6 L220.9,114.7 L218.3,113.9 L216.7,112.9 Z M184.5,104.3 L185.0,104.3 L185.8,105.6 L183.3,104.8 Z M90.8,101.3 L93.5,103.9 L92.5,103.6 L92.4,104.4 L91.3,103.4 L91.5,103.1 Z M188.2,79.1 L188.4,80.3 L187.6,81.4 L186.8,80.9 L186.8,79.8 L187.5,79.0 Z M183.2,77.4 L183.5,78.1 L181.2,79.7 L180.2,79.8 L179.8,78.8 L180.9,77.5 Z M191.9,76.4 L191.1,77.0 L190.0,76.1 L191.6,75.9 L192.1,75.2 L193.4,75.6 Z M195.5,60.6 L196.4,60.9 L196.5,63.1 L195.0,64.1 L192.9,64.1 L192.2,62.6 L193.4,60.8 Z M189.3,56.7 L190.6,57.4 L189.4,58.6 L189.4,60.7 L188.3,58.6 L189.6,57.3 Z M140.5,43.3 L139.2,45.0 L136.9,42.9 L135.9,42.7 L136.7,41.9 L139.4,41.7 L140.7,42.4 Z M140.9,31.9 L140.4,30.8 L141.6,30.5 L144.0,31.9 L144.7,33.1 L142.2,33.6 L142.0,35.6 L142.4,36.3 L141.2,37.0 L139.9,36.5 L141.4,35.4 L141.7,33.4 Z M115.7,32.7 L115.2,34.2 L113.9,35.1 L112.4,34.7 L113.9,33.5 Z M167.6,26.7 L168.7,27.4 L168.0,28.4 L165.9,27.6 L166.0,26.7 Z M139.7,27.5 L140.8,28.0 L140.2,28.8 L138.7,28.0 L137.7,26.2 L138.8,26.3 Z M157.9,26.1 L162.1,26.3 L161.5,27.3 L156.8,27.3 L156.4,26.4 Z M150.3,16.2 L151.7,16.8 L151.5,18.1 L148.8,16.6 Z M187.5,92.8 L187.6,94.5 L189.0,95.8 L189.5,95.2 L189.7,96.5 L188.8,96.4 L188.2,97.3 L187.1,96.2 L187.8,96.0 L187.5,94.8 Z M93.9,104.6 L94.9,104.5 L95.1,106.3 L94.2,106.3 Z M225.7,122.0 L224.4,122.9 L222.6,123.1 L222.2,122.0 L224.0,119.6 L224.5,120.6 L223.4,122.4 L224.6,121.3 Z M221.4,121.0 L219.7,121.8 L218.2,121.6 L216.7,120.5 L217.4,120.2 L218.1,121.0 Z M186.9,43.6 L185.7,43.4 L185.6,41.8 L188.2,42.1 L190.7,42.0 L192.5,42.6 L194.3,44.1 L194.2,45.1 L190.6,44.8 L188.7,45.3 L187.3,45.0 Z M159.0,33.9 L159.6,33.2 L159.9,34.7 L161.5,36.0 L161.3,38.3 L159.2,38.4 L158.1,37.8 L158.0,38.9 L157.1,38.6 L157.0,37.7 L155.6,37.1 L156.4,35.3 L154.8,35.1 L156.3,34.5 L157.2,35.1 L158.9,34.5 Z M127.5,24.0 L126.1,23.6 L124.2,24.0 L124.1,23.5 L129.4,22.0 L131.2,22.7 L131.3,23.9 L128.0,23.5 Z M155.2,24.6 L153.3,24.2 L152.2,23.1 L152.7,21.7 L156.5,22.6 L159.0,23.7 L158.0,24.1 L158.6,25.3 L155.4,25.7 L153.4,25.0 Z M221.1,183.9 L221.6,183.3 L221.7,181.9 L221.9,183.2 L222.9,184.7 L222.7,186.6 L223.6,188.2 L223.3,188.9 L221.8,184.5 Z M192.0,180.4 L193.1,180.5 L194.4,181.5 L193.1,181.4 L192.4,181.9 L191.5,181.6 L190.3,180.8 L191.1,180.3 Z M191.2,165.9 L191.0,167.5 L191.5,168.1 L191.7,170.0 L190.7,168.5 L190.1,168.3 L191.0,167.2 Z M191.2,164.3 L189.6,164.3 L190.0,164.0 L191.9,163.7 L192.7,164.4 L191.8,164.9 Z M14.3,75.5 L15.8,75.2 L16.2,75.8 L18.8,76.3 L16.8,77.4 L14.8,75.9 L13.7,76.3 L12.9,75.7 L13.1,74.9 Z M192.1,199.3 L192.5,200.7 L191.2,202.0 L190.1,200.4 L190.8,199.6 L188.8,200.1 L189.8,199.3 L188.9,198.6 L187.7,198.9 L187.6,199.4 L186.3,200.1 L187.2,201.5 L185.6,202.0 L185.4,201.4 L183.7,202.0 L184.3,201.1 L184.0,200.4 L182.9,199.9 L181.5,200.1 L179.8,199.2 L180.3,198.6 L178.3,197.4 L178.2,196.8 L177.5,197.6 L176.5,196.9 L176.0,196.0 L176.3,194.7 L174.8,193.4 L174.3,192.5 L172.7,191.2 L173.3,191.0 L172.5,190.3 L172.1,190.7 L170.5,190.5 L168.6,190.0 L166.8,189.2 L165.7,189.2 L163.9,188.0 L162.8,186.8 L160.8,185.0 L159.3,184.8 L159.0,184.4 L157.9,185.3 L155.7,185.9 L153.4,185.3 L151.4,184.2 L149.7,183.8 L147.2,182.8 L145.8,181.6 L142.6,180.7 L141.7,179.6 L139.7,178.7 L138.4,176.6 L139.3,176.2 L138.9,175.7 L139.3,174.5 L138.5,173.6 L138.2,172.2 L135.9,169.5 L134.0,168.2 L133.5,167.3 L131.3,165.9 L131.7,164.8 L131.1,164.0 L129.1,162.8 L129.1,161.8 L127.9,161.3 L126.1,159.3 L124.3,155.6 L124.5,154.9 L122.8,154.0 L121.4,153.7 L121.0,154.9 L121.4,156.9 L123.4,158.9 L124.2,158.8 L124.3,160.4 L124.8,160.1 L125.0,161.7 L126.4,163.5 L127.3,164.1 L128.5,167.2 L129.2,167.7 L128.8,168.4 L130.4,169.1 L131.2,170.4 L131.1,171.3 L130.4,171.7 L129.7,170.4 L127.4,168.8 L127.0,168.9 L126.2,167.8 L126.3,166.2 L126.1,165.5 L124.0,164.0 L121.7,163.0 L121.7,162.6 L120.7,161.7 L120.7,161.7 L121.7,161.9 L122.3,161.5 L122.6,160.5 L120.8,158.6 L119.4,157.8 L118.7,155.6 L117.6,154.1 L117.7,153.4 L116.5,152.3 L116.3,150.8 L114.9,149.5 L114.4,150.2 L114.4,151.4 L113.9,151.0 L114.3,149.3 L112.8,148.6 L111.1,149.2 L111.5,148.1 L110.0,147.7 L110.0,146.5 L108.8,145.4 L107.5,143.4 L107.9,142.9 L106.7,142.1 L106.5,140.8 L107.4,141.5 L106.5,140.0 L106.5,140.7 L104.2,138.3 L103.9,136.2 L102.9,134.9 L103.6,132.6 L102.6,129.4 L103.4,127.1 L103.9,123.1 L103.4,120.0 L102.9,117.9 L102.3,116.9 L102.6,116.4 L103.6,116.9 L106.1,117.1 L106.6,115.9 L105.3,114.4 L102.4,113.0 L102.5,111.8 L101.7,111.2 L98.7,111.1 L98.5,110.5 L96.5,109.3 L96.3,107.2 L97.9,106.6 L97.4,106.2 L96.3,106.9 L95.9,108.7 L95.4,107.0 L95.7,106.2 L95.0,104.5 L93.5,103.8 L91.4,101.5 L91.4,100.4 L90.5,100.2 L90.3,99.1 L90.6,97.8 L90.0,97.1 L89.0,97.3 L88.6,98.3 L88.6,96.6 L87.9,97.2 L87.2,96.7 L87.9,95.3 L86.2,93.8 L84.6,91.4 L84.3,91.3 L84.9,92.1 L84.8,93.5 L84.3,93.8 L83.5,94.3 L83.8,93.2 L83.2,91.3 L84.2,91.2 L83.5,90.9 L82.1,88.0 L82.7,90.6 L81.5,90.7 L80.7,89.1 L79.8,89.2 L80.8,90.5 L79.6,90.9 L77.7,89.8 L76.6,88.6 L73.6,87.3 L74.0,86.3 L72.7,86.8 L68.0,85.7 L65.1,86.0 L64.2,85.1 L62.0,84.7 L60.8,85.3 L61.4,84.1 L60.4,83.6 L60.8,82.7 L59.1,84.2 L59.4,83.5 L57.9,83.7 L58.7,86.0 L55.0,86.3 L53.0,87.9 L51.6,88.4 L50.6,87.9 L51.5,87.5 L50.8,86.6 L51.9,84.5 L51.6,83.9 L54.2,82.7 L53.3,82.1 L50.8,83.8 L50.5,85.0 L49.4,85.3 L49.1,86.2 L48.0,87.0 L47.9,87.9 L46.5,87.7 L46.4,88.7 L48.1,89.2 L46.6,90.2 L45.6,91.5 L44.8,91.5 L43.4,92.8 L42.9,92.7 L41.9,94.4 L40.7,94.9 L41.4,96.5 L39.6,95.2 L38.2,96.1 L37.9,97.1 L35.7,97.4 L33.8,99.3 L34.1,98.4 L32.9,98.7 L32.3,98.0 L32.0,99.5 L29.3,100.1 L30.4,101.1 L29.0,100.3 L27.0,101.1 L25.9,100.7 L26.7,100.0 L28.6,99.5 L29.1,100.0 L29.3,98.6 L30.3,98.7 L31.9,97.3 L34.3,97.0 L34.7,96.3 L37.4,94.7 L38.6,93.5 L39.8,92.7 L40.1,90.3 L40.9,89.1 L38.9,89.9 L37.4,89.4 L37.2,90.4 L36.1,89.1 L34.8,89.8 L34.7,88.6 L33.3,90.1 L32.1,89.5 L31.5,88.0 L32.1,87.4 L31.0,85.7 L28.5,86.6 L25.1,84.4 L26.5,83.6 L25.6,83.3 L23.6,81.4 L23.8,80.7 L25.6,78.7 L26.6,76.9 L27.5,76.5 L29.0,77.2 L30.4,76.4 L30.3,75.4 L33.1,75.7 L33.9,75.0 L33.5,73.5 L32.6,72.9 L33.8,72.3 L33.1,71.4 L29.4,73.0 L28.6,72.5 L25.8,72.9 L23.6,72.5 L22.1,70.7 L23.7,70.3 L21.3,70.0 L20.1,71.3 L20.0,69.4 L23.4,67.5 L26.4,66.3 L28.3,66.2 L28.4,67.8 L31.2,67.8 L33.5,67.3 L31.8,66.6 L30.4,65.2 L30.9,65.0 L32.3,66.6 L33.9,66.9 L34.9,66.4 L33.7,66.0 L32.5,66.4 L31.8,65.8 L31.9,64.7 L30.7,64.9 L28.4,64.6 L27.5,62.9 L22.9,60.5 L23.5,58.8 L27.1,58.6 L29.4,57.1 L29.7,55.5 L31.7,53.9 L33.7,53.8 L36.0,52.2 L39.1,52.1 L41.4,50.5 L43.7,50.9 L42.8,51.7 L43.8,52.1 L44.4,51.1 L46.5,52.3 L48.1,51.8 L50.1,52.2 L49.3,53.1 L50.6,53.5 L55.8,53.1 L57.4,53.9 L59.8,54.4 L62.2,54.4 L64.6,55.1 L67.0,54.6 L68.4,55.0 L70.6,56.2 L73.5,56.3 L74.9,56.6 L76.9,57.9 L79.6,58.8 L80.8,58.8 L81.2,57.3 L83.2,56.7 L84.1,55.9 L85.1,56.7 L84.2,57.6 L86.2,57.0 L86.8,56.2 L90.0,55.6 L91.1,54.5 L93.0,55.0 L90.3,56.2 L88.5,56.6 L85.9,58.9 L87.1,59.1 L86.8,58.2 L88.7,57.4 L89.2,56.8 L90.5,57.5 L91.6,56.0 L94.0,55.5 L94.2,56.1 L95.9,54.4 L95.6,52.8 L97.7,54.1 L98.5,55.8 L100.0,57.0 L100.9,56.6 L102.0,55.2 L101.6,54.4 L102.9,54.5 L102.8,56.0 L103.5,55.9 L102.8,57.1 L105.2,56.7 L105.7,55.6 L108.6,55.8 L110.7,57.0 L113.8,57.6 L115.0,58.3 L118.9,59.0 L119.0,58.4 L122.7,59.7 L122.6,60.8 L120.8,60.7 L119.7,61.9 L121.9,62.5 L123.9,62.6 L124.8,61.1 L124.5,62.7 L128.7,62.3 L130.9,60.9 L132.6,63.0 L134.0,64.0 L133.8,63.1 L134.3,61.4 L136.4,61.3 L137.0,60.5 L138.3,60.3 L138.5,59.6 L136.8,59.9 L134.7,61.1 L132.5,60.8 L133.5,59.6 L137.3,58.7 L138.8,59.3 L138.7,60.3 L140.7,60.0 L140.7,61.6 L142.5,61.4 L144.8,62.6 L146.3,62.7 L147.9,62.2 L152.3,62.3 L151.0,61.5 L151.9,61.4 L153.8,63.0 L154.7,62.4 L153.6,61.6 L152.9,61.9 L151.6,60.5 L154.4,60.1 L154.8,60.8 L157.0,60.7 L155.9,63.4 L157.3,63.7 L158.1,65.2 L158.4,64.0 L157.4,62.6 L157.8,61.4 L159.0,61.6 L161.1,59.7 L159.4,59.2 L160.3,58.2 L160.0,56.9 L156.4,55.5 L155.7,53.9 L156.4,52.9 L155.6,52.2 L156.0,50.5 L157.8,49.9 L156.9,49.6 L158.3,48.2 L159.4,48.1 L158.4,48.2 L158.3,46.2 L157.4,45.1 L157.3,42.1 L158.2,41.7 L158.2,40.7 L161.2,40.1 L163.9,40.8 L165.2,40.7 L167.8,41.1 L164.7,45.0 L163.7,45.5 L160.3,45.3 L161.6,46.4 L160.4,48.0 L159.6,48.0 L162.5,50.3 L162.6,52.2 L163.6,52.7 L164.5,54.1 L164.6,55.5 L165.4,55.6 L166.1,56.7 L167.8,57.0 L166.7,58.0 L167.4,58.8 L167.0,60.2 L167.7,60.9 L168.7,59.5 L168.8,58.2 L170.2,57.6 L171.9,59.0 L172.4,60.6 L171.2,60.8 L171.5,62.4 L173.2,64.1 L174.8,63.7 L174.9,63.0 L173.9,61.4 L174.5,60.7 L175.1,61.9 L176.0,61.5 L176.4,59.3 L178.6,58.3 L177.0,57.7 L176.6,56.2 L177.1,55.5 L179.8,55.6 L182.2,56.2 L183.1,57.4 L184.3,57.0 L184.7,58.1 L183.7,58.7 L184.8,59.1 L182.7,61.1 L184.8,63.4 L184.3,64.9 L183.5,65.0 L181.2,67.1 L180.4,67.0 L180.2,68.3 L180.8,69.3 L179.3,68.8 L178.9,67.5 L177.2,67.2 L176.9,66.3 L174.3,66.7 L176.1,67.6 L174.9,68.9 L173.2,70.2 L172.1,70.2 L170.1,69.0 L170.0,70.2 L173.8,70.5 L174.0,70.8 L172.0,73.7 L170.0,74.4 L168.6,73.5 L167.7,75.4 L166.3,75.5 L167.0,77.1 L166.2,78.2 L163.0,78.9 L162.7,80.4 L160.6,81.8 L160.9,82.2 L159.9,83.5 L159.0,86.1 L159.1,88.8 L160.2,89.3 L162.2,89.5 L163.6,93.3 L163.1,94.4 L166.2,93.6 L168.5,94.4 L170.3,94.7 L172.0,95.8 L172.8,96.9 L176.4,98.1 L178.4,99.0 L179.7,98.8 L182.9,99.3 L182.6,101.7 L183.1,102.8 L182.8,104.9 L184.2,106.3 L184.6,107.1 L186.0,108.1 L186.4,109.0 L187.7,109.6 L188.4,108.3 L187.5,104.6 L187.0,104.0 L187.6,103.5 L187.3,102.5 L188.3,101.8 L187.6,100.6 L187.8,100.0 L189.1,100.0 L191.4,98.9 L193.5,96.8 L193.8,94.9 L192.7,91.7 L189.6,89.4 L191.3,88.0 L191.3,86.9 L192.4,86.0 L191.5,84.8 L191.7,83.8 L190.5,83.6 L191.8,81.7 L190.8,80.5 L190.8,78.5 L192.9,78.6 L197.1,79.8 L197.8,79.5 L197.8,78.3 L198.5,78.2 L200.3,79.7 L201.2,79.9 L203.0,81.2 L203.5,82.7 L205.9,83.0 L206.3,83.6 L207.0,82.9 L207.3,83.7 L206.5,84.5 L206.9,85.3 L206.7,87.2 L207.9,88.8 L211.0,90.8 L213.5,89.4 L214.9,88.0 L214.6,86.7 L215.5,86.0 L216.4,84.0 L216.9,85.8 L219.7,89.7 L220.1,91.1 L222.0,92.2 L221.3,93.6 L222.5,94.0 L222.3,94.9 L222.8,95.8 L221.4,96.4 L223.0,96.5 L223.1,97.4 L224.5,97.6 L224.7,98.5 L223.8,99.6 L225.5,98.8 L225.5,99.4 L227.0,99.2 L227.2,100.0 L230.3,100.8 L229.9,101.8 L230.6,102.9 L233.2,103.6 L233.3,107.1 L230.9,108.9 L229.5,108.7 L227.1,109.9 L226.3,111.1 L224.9,111.9 L223.5,111.8 L221.9,112.2 L221.6,111.9 L219.1,111.7 L217.8,111.9 L215.1,111.6 L212.9,111.8 L211.6,112.8 L211.1,114.1 L209.8,114.2 L207.9,115.5 L208.3,116.3 L212.6,114.6 L214.6,114.2 L216.5,114.6 L217.2,115.5 L216.8,116.3 L214.8,117.3 L213.9,116.8 L212.8,117.1 L214.4,118.1 L216.6,117.6 L214.9,119.5 L215.8,120.0 L216.6,121.5 L217.4,122.0 L220.4,123.0 L221.5,122.4 L223.2,123.7 L218.4,125.7 L216.9,125.5 L215.9,127.2 L214.3,127.9 L213.5,127.4 L213.2,126.1 L213.7,125.4 L216.9,123.7 L216.8,124.2 L218.3,123.5 L215.8,123.4 L216.6,122.7 L213.9,124.0 L212.0,124.3 L211.2,125.4 L210.2,125.5 L208.7,126.7 L208.2,126.0 L207.5,126.9 L206.2,127.1 L205.0,128.5 L204.8,129.9 L204.2,130.7 L205.8,132.1 L203.5,132.6 L203.1,133.3 L202.4,132.9 L200.7,133.1 L199.2,133.6 L200.0,133.8 L201.7,133.3 L202.1,133.6 L200.2,134.4 L198.0,134.8 L198.6,135.1 L198.4,136.5 L196.9,138.2 L195.6,137.0 L196.5,138.5 L196.3,140.1 L195.0,141.7 L195.5,140.4 L194.3,140.5 L194.2,142.5 L194.8,142.7 L195.6,144.9 L194.6,146.0 L194.8,146.5 L193.7,147.5 L192.6,147.5 L191.6,148.1 L191.0,149.3 L189.5,149.4 L188.4,151.0 L185.5,153.0 L184.3,155.5 L184.8,157.9 L186.0,160.2 L185.9,160.9 L187.0,163.5 L186.8,166.6 L186.5,167.0 L185.1,167.3 L184.7,165.9 L183.9,165.8 L182.0,162.5 L182.6,161.8 L181.8,161.8 L182.2,159.6 L180.2,157.5 L179.5,157.1 L177.7,158.1 L175.4,156.3 L172.6,156.8 L171.9,155.8 L171.8,156.8 L170.8,156.5 L169.5,156.7 L169.5,157.8 L168.8,157.9 L169.8,159.3 L168.5,158.7 L167.8,159.2 L166.5,159.3 L165.0,157.8 L163.9,158.3 L162.1,157.8 L160.5,158.0 L157.6,159.9 L155.6,160.2 L156.1,160.6 L154.9,161.7 L154.1,162.9 L154.6,166.0 L153.7,168.5 L153.2,172.3 L153.7,174.2 L154.6,176.2 L155.9,177.7 L156.3,178.8 L157.2,179.9 L158.3,180.0 L159.7,181.1 L163.1,180.1 L164.7,180.0 L166.4,179.1 L167.3,177.6 L167.6,175.4 L168.6,174.9 L171.7,174.2 L174.4,175.0 L174.4,176.3 L173.9,176.9 L173.4,176.5 L172.5,178.2 L173.1,178.4 L172.5,180.0 L173.2,180.6 L171.8,181.1 L172.2,182.5 L171.5,182.3 L171.6,183.4 L171.0,184.7 L170.2,185.3 L171.7,185.8 L172.9,185.6 L175.2,184.4 L176.0,184.4 L175.9,185.2 L177.7,185.2 L179.0,185.6 L179.4,186.5 L180.8,186.7 L181.2,187.2 L181.1,188.3 L180.4,190.4 L180.5,192.1 L179.8,194.1 L180.6,195.8 L181.9,197.4 L183.2,198.1 L183.2,198.8 L184.3,198.5 L184.2,199.0 L185.6,198.8 L188.1,197.4 L190.9,198.2 Z M120.4,161.5 L120.7,161.7 L120.7,161.7 L120.4,161.7 L120.4,161.5 L120.4,161.5 Z M87.9,104.4 L87.1,104.2 L86.3,102.5 L86.4,101.7 L88.2,102.2 L89.1,101.9 L88.6,104.0 L88.2,104.3 L88.9,104.2 L89.9,107.1 L87.9,104.9 L87.4,104.5 Z M184.3,173.6 L184.1,173.3 L184.1,173.3 L184.1,173.3 L184.2,173.4 L184.3,173.6 Z M196.7,171.2 L196.5,171.2 L196.5,171.0 L196.5,171.0 L196.7,171.2 L196.7,171.2 Z M196.7,171.2 L198.0,172.0 L199.6,172.3 L197.9,172.4 L197.0,171.8 L196.7,171.2 L196.7,171.2 Z M223.3,195.1 L223.2,195.4 L223.2,196.5 L221.5,196.6 L222.4,196.2 L222.0,195.4 L223.3,195.1 L223.3,195.1 Z M184.3,174.2 L184.3,174.2 L184.3,174.2 L184.3,174.2 L184.3,174.2 L184.3,174.2 Z M184.3,174.2 L181.3,174.5 L181.3,173.8 L182.1,173.6 L183.4,174.2 L184.3,174.2 Z M184.3,174.2 L184.3,173.6 L184.3,173.6 L184.5,174.1 L184.3,174.2 L184.3,174.2 Z M99.5,114.2 L94.9,110.5 L96.3,110.2 L97.6,110.9 L100.3,111.4 L101.1,111.3 L101.4,112.6 L102.6,114.0 L104.2,114.5 L105.1,115.3 L104.5,116.6 L102.4,115.9 Z M208.7,54.5 L207.1,55.6 L209.6,54.6 L209.8,53.9 L211.4,55.2 L210.8,56.3 L212.5,57.8 L210.5,57.8 L208.0,57.2 L210.4,58.2 L210.1,59.3 L209.2,59.7 L212.0,60.3 L213.8,61.6 L216.2,61.7 L215.4,62.2 L216.8,62.4 L218.3,63.8 L219.5,64.2 L220.7,65.8 L220.8,64.8 L222.6,65.9 L222.3,66.9 L220.3,67.4 L221.4,68.0 L220.5,68.1 L221.1,69.1 L219.1,69.2 L218.2,69.7 L218.8,70.5 L218.4,71.5 L217.9,70.7 L216.5,70.9 L214.2,68.8 L213.8,67.7 L212.1,66.4 L211.1,66.3 L211.6,67.1 L210.2,66.6 L211.7,68.1 L210.1,68.4 L208.9,67.4 L210.2,69.2 L211.0,68.9 L212.4,71.1 L215.2,72.3 L215.8,73.5 L215.3,74.2 L216.3,74.3 L217.4,75.7 L216.5,76.5 L215.4,75.6 L216.3,77.5 L215.1,77.3 L215.2,77.9 L212.3,77.0 L210.3,75.3 L210.4,76.2 L208.6,74.9 L208.3,75.4 L210.8,77.1 L213.9,79.6 L214.8,81.2 L216.3,81.4 L215.9,82.2 L213.8,80.5 L213.2,80.6 L211.2,79.8 L208.9,79.5 L206.9,78.3 L205.2,78.0 L204.7,78.6 L204.0,77.3 L202.9,76.7 L203.7,75.6 L202.3,75.2 L201.9,74.4 L200.9,75.2 L200.6,73.8 L198.5,72.0 L197.3,73.1 L195.1,72.4 L194.4,73.3 L192.6,73.3 L191.0,74.4 L191.2,73.1 L190.6,72.3 L190.7,71.3 L192.3,70.6 L192.0,69.8 L195.2,70.5 L195.9,72.0 L196.0,71.2 L194.9,70.2 L196.2,70.4 L198.5,69.5 L199.5,69.8 L199.2,69.0 L197.7,67.6 L201.7,64.5 L201.2,62.3 L200.5,60.9 L198.7,60.3 L198.0,61.4 L199.7,61.8 L199.7,62.4 L197.8,62.4 L197.1,61.5 L198.2,60.9 L198.1,60.0 L197.1,59.8 L197.0,60.6 L195.9,60.0 L197.3,58.8 L195.7,58.3 L193.6,59.4 L193.5,58.3 L195.5,58.1 L195.3,57.4 L193.6,56.5 L193.0,57.9 L192.1,57.5 L193.1,55.7 L191.6,55.6 L191.6,54.4 L190.2,54.3 L188.9,53.2 L188.0,53.7 L189.1,53.9 L189.7,55.0 L187.8,55.5 L188.4,56.0 L187.3,56.3 L187.0,57.1 L186.2,56.1 L184.1,55.1 L181.8,55.7 L181.4,55.0 L180.2,55.2 L176.2,54.7 L174.7,54.2 L174.9,54.9 L173.7,55.0 L173.9,54.0 L170.7,53.4 L169.0,51.2 L171.4,51.7 L173.3,51.5 L171.9,50.8 L168.5,50.4 L168.6,48.9 L168.0,48.3 L169.0,47.5 L168.3,47.1 L169.0,45.2 L169.5,45.4 L170.0,43.5 L172.4,41.8 L174.4,41.4 L177.5,41.5 L177.8,42.0 L175.7,43.4 L174.5,45.1 L175.3,46.6 L174.9,47.3 L175.5,48.8 L177.9,50.6 L175.8,51.0 L177.9,51.0 L178.6,49.9 L177.2,49.2 L175.8,47.9 L177.6,47.1 L176.3,45.8 L176.6,44.5 L178.3,43.0 L181.8,41.8 L184.3,41.8 L185.0,43.6 L185.9,43.8 L186.7,45.4 L186.2,47.4 L187.5,46.2 L189.2,47.1 L188.6,48.1 L189.6,48.3 L189.3,47.2 L190.1,46.0 L191.7,45.3 L196.3,46.3 L196.5,47.6 L198.1,47.8 L197.3,49.3 L199.3,48.9 L198.5,49.9 L200.4,50.6 L200.4,50.1 L199.8,49.7 L201.4,49.3 L203.1,49.8 L204.0,50.6 L203.6,52.0 L204.6,51.2 L205.2,51.8 L204.3,52.8 L206.3,52.0 L209.2,53.0 L209.0,53.7 L206.7,54.5 Z M237.4,118.4 L237.9,117.3 L238.6,117.1 L237.9,118.2 L238.8,117.8 L239.1,118.5 L238.5,120.2 L237.3,120.6 L237.3,119.3 L236.1,120.0 L236.7,118.8 L236.5,117.8 L236.2,118.9 L234.9,118.7 L234.1,119.9 L232.8,119.9 L232.9,118.6 L232.4,118.2 L231.1,118.4 L228.8,118.0 L226.8,118.4 L226.3,117.6 L228.1,116.1 L227.6,115.9 L228.2,114.5 L228.8,114.9 L228.6,113.8 L230.3,110.3 L231.3,109.1 L233.0,108.4 L233.9,107.5 L233.2,109.8 L231.3,112.4 L231.1,113.5 L232.4,112.0 L233.3,111.9 L233.4,113.3 L235.0,114.2 L235.5,113.3 L237.5,114.3 L236.7,114.9 L236.7,115.9 L237.7,116.4 L236.8,118.0 Z M147.4,56.8 L146.4,55.4 L146.0,56.2 L144.3,55.9 L143.8,57.1 L145.1,57.2 L146.1,58.1 L145.7,59.8 L144.4,58.8 L142.7,59.1 L139.9,58.2 L137.0,57.7 L136.7,56.7 L135.3,58.3 L133.0,58.5 L132.2,59.2 L129.8,59.6 L127.3,60.6 L127.3,59.9 L125.0,60.2 L123.3,59.0 L123.2,57.7 L121.9,57.4 L118.9,57.4 L117.7,56.8 L116.1,55.0 L117.0,54.6 L122.3,53.9 L124.6,54.0 L124.8,53.1 L123.6,52.7 L119.2,53.0 L117.4,53.4 L115.8,52.9 L114.3,51.5 L118.7,50.3 L119.2,49.6 L115.9,50.3 L114.5,49.9 L114.9,49.2 L113.1,49.4 L113.1,48.3 L114.8,47.2 L113.9,46.5 L116.3,44.8 L121.5,43.1 L122.7,44.0 L122.6,45.2 L121.5,45.9 L123.2,45.9 L124.5,44.4 L127.9,45.5 L126.7,46.7 L127.1,47.0 L128.9,46.0 L130.6,46.3 L128.9,44.4 L130.1,44.5 L132.8,46.0 L132.8,46.8 L134.6,49.3 L135.4,48.4 L134.5,47.5 L133.7,43.3 L134.0,42.5 L135.6,43.8 L136.2,43.3 L139.0,45.2 L139.7,47.6 L141.1,50.3 L140.4,51.1 L141.7,52.4 L143.8,53.2 L146.3,54.6 L147.6,53.9 Z M180.2,75.0 L178.8,75.6 L178.5,76.3 L177.2,76.9 L176.5,76.5 L176.2,75.1 L173.5,75.5 L174.1,74.5 L175.4,73.9 L175.0,72.4 L175.5,71.4 L175.9,68.8 L177.5,67.9 L178.5,69.7 L179.4,70.5 L180.7,70.8 L181.1,71.4 L183.8,72.7 L184.1,73.9 L186.2,74.3 L186.8,74.8 L185.2,75.9 L182.5,75.2 L182.4,74.3 L181.4,74.4 L181.4,73.7 L180.2,74.2 Z M148.0,58.4 L150.0,58.3 L152.3,57.3 L151.9,56.9 L153.2,55.4 L154.0,55.3 L155.1,56.7 L157.4,56.3 L156.7,57.6 L157.1,58.7 L158.3,58.9 L155.8,60.2 L154.0,59.9 L149.2,58.5 L149.1,60.5 Z M150.7,50.3 L149.5,48.6 L146.9,46.9 L145.7,46.9 L144.3,45.7 L144.5,44.3 L145.3,44.2 L146.8,45.5 L148.4,45.4 L149.1,44.6 L146.1,42.7 L147.5,42.3 L147.5,41.4 L149.2,41.7 L148.8,41.1 L150.3,41.1 L153.5,40.3 L153.6,39.1 L154.4,38.5 L153.2,41.1 L154.4,41.3 L154.6,43.0 L152.3,44.3 L154.4,44.6 L155.3,43.8 L156.2,46.5 L155.7,48.6 L152.9,49.7 L151.6,50.6 Z M112.9,40.0 L114.9,39.7 L117.2,40.5 L120.1,42.7 L118.0,43.5 L112.8,45.8 L112.5,46.8 L110.8,47.2 L110.3,49.7 L105.4,51.3 L103.5,49.1 L101.3,48.2 L100.0,48.2 L101.2,46.3 L101.6,44.9 L104.1,41.7 L103.4,41.3 L102.2,39.5 L108.3,38.7 L111.0,39.7 Z M149.1,35.3 L149.5,34.5 L146.5,34.7 L144.2,35.1 L143.4,33.5 L145.0,33.2 L146.6,34.0 L145.2,32.3 L146.7,31.0 L148.0,30.2 L149.9,30.7 L150.8,31.4 L151.3,30.7 L153.6,31.3 L154.2,34.4 L152.7,35.7 L153.8,36.5 L152.9,36.9 L148.6,37.0 L147.7,35.7 Z M129.5,32.0 L131.2,30.3 L132.6,29.8 L132.6,30.6 L133.9,32.0 L133.1,33.0 L135.8,33.6 L136.7,32.9 L138.3,33.2 L139.0,34.5 L137.8,36.8 L133.2,37.3 L132.5,36.7 L131.0,37.6 L127.1,38.9 L124.5,39.3 L123.2,39.1 L121.8,38.2 L124.9,37.1 L127.3,37.0 L128.4,36.1 L125.8,36.6 L122.7,36.7 L122.6,35.6 L121.8,36.8 L120.8,37.1 L120.3,36.4 L119.4,37.1 L116.0,36.3 L117.2,34.0 L121.0,33.7 L117.5,33.6 L117.5,32.9 L119.3,32.2 L119.8,31.4 L121.8,31.2 L121.8,30.3 L121.8,29.7 L123.7,30.1 L123.9,32.1 L125.6,32.5 L127.5,33.8 L127.9,35.0 L129.3,34.8 L132.3,35.1 L131.9,34.1 L130.1,33.6 L131.6,32.8 Z M188.3,37.5 L186.7,37.9 L186.9,38.4 L183.8,39.1 L181.6,38.7 L181.2,37.7 L180.5,38.6 L179.1,38.9 L174.6,39.0 L171.0,38.9 L171.0,37.4 L170.3,38.3 L168.3,38.8 L164.4,37.9 L164.2,36.5 L163.5,36.2 L164.4,34.7 L164.0,33.6 L162.3,31.7 L160.5,32.2 L157.1,31.6 L155.3,29.3 L157.2,28.9 L161.2,29.5 L162.3,30.7 L165.5,30.4 L167.1,30.9 L167.3,31.6 L169.5,32.0 L169.4,32.4 L165.8,32.5 L167.8,32.9 L169.7,34.0 L170.2,35.4 L170.9,34.5 L171.6,35.2 L172.5,34.8 L175.0,35.4 L177.6,34.5 L178.5,34.6 L180.1,33.8 L181.3,34.2 L182.7,33.8 L185.1,34.0 L187.8,35.2 L187.9,36.3 L186.3,36.9 L187.9,36.9 Z M120.0,28.0 L118.1,28.7 L119.3,29.4 L119.1,30.4 L116.8,31.1 L116.3,32.1 L115.0,31.6 L115.6,30.1 L114.1,30.3 L114.5,30.9 L113.2,31.2 L114.0,31.8 L111.5,33.7 L109.6,33.4 L107.8,33.0 L106.7,33.4 L105.9,32.2 L106.7,31.6 L108.3,31.5 L109.2,30.5 L113.5,27.8 L115.3,27.6 L116.5,28.1 L116.7,27.4 L118.1,26.9 Z M129.8,27.2 L126.2,27.9 L124.2,27.1 L123.4,25.9 L122.3,26.4 L120.5,25.3 L122.0,24.8 L123.1,25.6 L128.9,24.7 L130.8,24.8 L130.8,25.3 L128.6,25.7 L130.0,26.1 Z M142.2,19.4 L143.7,20.0 L144.6,20.9 L146.1,20.6 L150.1,22.7 L149.5,23.3 L151.0,24.8 L151.1,25.6 L149.3,26.0 L148.1,25.7 L145.8,26.5 L144.6,26.2 L144.4,24.2 L143.9,24.3 L144.0,23.6 L140.7,24.0 L139.6,23.1 L140.4,22.7 L142.6,23.1 L142.6,21.9 L141.2,21.9 L141.5,21.0 L139.7,21.7 L140.3,20.9 L138.7,20.9 L139.0,19.6 Z M170.0,15.9 L171.7,16.3 L170.6,15.4 L171.1,14.8 L172.6,14.9 L174.0,17.1 L173.6,18.5 L174.6,18.2 L176.6,18.5 L177.8,19.7 L174.8,20.7 L172.9,22.4 L171.6,21.2 L171.6,23.3 L170.0,24.4 L168.2,22.6 L169.2,24.5 L167.9,23.8 L167.5,24.6 L164.4,24.3 L160.1,21.1 L162.1,20.3 L164.6,20.3 L163.2,19.1 L160.7,19.9 L157.3,19.3 L157.5,18.6 L160.0,17.7 L157.1,18.2 L155.6,17.2 L155.5,16.1 L159.0,16.5 L160.4,15.9 L157.9,16.1 L155.7,15.5 L156.9,15.0 L156.8,14.1 L158.6,13.7 L157.8,12.7 L159.0,12.0 L162.2,11.8 L162.1,11.3 L159.8,11.1 L162.0,10.6 L164.7,11.6 L166.8,14.2 L169.5,14.3 Z M185.7,27.9 L189.1,28.8 L188.4,29.5 L191.1,29.3 L191.4,30.6 L189.0,31.5 L188.8,33.2 L187.7,33.7 L188.0,31.9 L185.9,32.5 L184.6,32.4 L185.3,31.3 L181.9,31.6 L179.7,31.3 L177.8,31.5 L178.8,32.0 L173.1,31.4 L171.2,31.6 L171.0,29.9 L170.3,31.6 L169.2,30.9 L168.1,31.3 L167.1,30.3 L171.4,28.7 L172.7,28.8 L174.0,28.1 L172.6,27.8 L171.6,26.0 L173.5,25.5 L175.4,26.0 L176.2,27.2 L180.6,27.8 L180.7,27.2 L182.4,25.3 L181.9,25.1 L180.7,26.8 L179.7,27.2 L176.6,27.0 L177.4,25.9 L176.4,25.4 L177.6,24.9 L178.1,23.7 L176.8,24.7 L175.3,24.9 L173.0,24.6 L173.0,23.3 L174.6,21.8 L177.2,21.3 L180.1,21.7 L183.8,21.6 L184.4,20.8 L182.4,21.5 L179.0,21.2 L179.0,20.2 L177.6,18.4 L174.9,17.7 L174.9,15.3 L180.0,15.6 L183.0,17.3 L184.0,18.5 L186.0,18.4 L184.3,17.9 L184.0,17.1 L181.1,15.3 L190.9,14.1 L187.2,14.0 L190.0,13.3 L193.6,12.7 L189.4,12.9 L189.3,12.2 L191.7,10.8 L190.6,10.9 L188.4,12.3 L187.9,13.1 L184.9,13.9 L181.6,14.3 L180.9,13.6 L178.8,14.5 L174.4,14.0 L176.2,12.5 L175.6,12.3 L173.4,13.9 L169.4,12.8 L171.2,12.3 L174.5,12.3 L178.2,11.0 L174.8,11.7 L168.5,12.2 L167.5,11.5 L169.4,11.2 L168.3,10.7 L171.2,9.6 L167.3,10.6 L166.6,10.2 L169.0,9.4 L166.9,9.2 L165.5,9.8 L164.5,9.4 L166.3,8.5 L168.6,8.1 L169.4,8.6 L170.7,7.5 L172.0,7.3 L176.3,7.8 L178.1,7.8 L174.4,7.1 L174.2,6.7 L177.0,6.4 L176.2,5.6 L180.2,6.1 L182.3,7.3 L181.5,6.4 L187.1,7.9 L182.0,6.0 L183.2,4.6 L186.0,5.1 L184.2,4.0 L187.4,4.2 L186.9,3.3 L192.6,3.7 L195.0,5.0 L193.5,3.6 L192.1,3.1 L194.5,2.8 L198.2,3.0 L198.9,3.7 L200.5,2.7 L206.7,2.5 L206.9,3.1 L209.6,3.1 L213.0,3.6 L208.8,4.8 L211.0,4.7 L216.2,3.5 L219.7,5.3 L222.1,5.5 L222.6,6.8 L216.8,9.0 L209.5,9.7 L212.5,10.0 L206.0,11.6 L214.2,10.1 L216.5,9.8 L216.2,10.5 L213.8,11.3 L209.4,13.4 L206.2,15.6 L202.0,16.5 L204.9,16.1 L203.3,17.8 L201.9,18.2 L199.7,17.7 L200.1,18.7 L198.5,19.1 L196.5,18.9 L196.6,19.4 L194.4,18.9 L194.9,19.5 L192.1,19.1 L192.2,19.9 L197.7,20.0 L197.4,21.9 L197.0,22.7 L193.8,22.9 L196.4,23.6 L195.5,24.7 L193.1,25.5 L190.6,25.3 L191.5,26.8 L190.4,27.7 L188.8,28.0 Z M184.1,173.3 L183.1,172.6 L183.6,172.1 L181.9,172.1 L180.4,173.6 L179.7,173.1 L178.6,173.9 L178.7,173.1 L179.4,172.2 L181.0,171.5 L183.0,171.1 L185.9,171.1 L187.0,171.4 L188.1,172.0 L188.6,172.7 L189.5,172.7 L190.8,173.3 L190.3,172.4 L191.9,173.8 L193.5,174.8 L195.6,175.4 L195.6,175.9 L197.1,176.2 L198.1,176.8 L198.0,177.3 L195.5,177.6 L194.3,177.4 L191.5,177.7 L192.7,176.5 L192.3,176.0 L190.1,176.0 L189.8,174.5 L187.4,174.1 L186.3,173.3 L184.0,173.1 L184.1,173.3 L184.1,173.3 Z M203.5,182.1 L202.2,180.9 L200.7,181.1 L199.2,180.8 L198.8,181.3 L197.6,180.5 L198.2,180.1 L200.9,180.5 L201.0,178.5 L199.7,178.1 L200.5,177.3 L202.3,178.0 L204.2,177.6 L206.3,178.1 L206.9,179.2 L208.5,179.5 L210.2,181.2 L208.8,180.6 L206.4,180.4 L205.1,180.9 L204.8,180.5 Z M196.5,171.0 L196.4,170.8 L195.6,170.6 L196.4,169.9 L195.2,168.2 L194.4,168.2 L193.8,169.0 L193.3,168.4 L194.3,167.9 L194.4,167.2 L195.5,168.2 L196.4,169.8 L196.5,171.0 Z M120.4,161.5 L119.6,160.8 L120.4,160.9 L120.4,161.5 L120.4,161.5 Z M223.3,195.1 L223.6,194.5 L223.4,195.1 L223.3,195.1 L223.3,195.1 Z">
  <desc xmlns="http://www.highcharts.com/svg/namespace">
    <abbrev-a3>NAM</abbrev-a3>
    <iso-a2>NA</iso-a2>
    <name>North America</name>
    <hc-middle-x>0.43</hc-middle-x>
    <hc-middle-y>0.51</hc-middle-y>
    <hc-key>na</hc-key>
    <hc-a2>NA</hc-a2>
  </desc>
</path>

<path fill="#CEE3F5" stroke="#6E6E6E" stroke-width="0.4" id="SA" d="M196.2,314.1 L197.2,314.2 L197.6,315.6 L196.5,315.7 L196.1,316.6 L195.4,316.3 L195.5,314.2 Z M197.1,306.0 L197.9,306.5 L199.2,305.8 L198.8,307.8 Z M199.5,327.9 L198.8,327.6 L200.6,327.5 L202.1,328.5 L200.7,329.3 Z M200.2,300.5 L199.3,300.9 L199.7,302.1 L199.1,303.1 L197.8,302.8 L198.3,301.4 L198.4,299.5 L199.4,299.4 Z M244.1,215.7 L242.9,215.5 L244.8,214.9 L244.4,215.8 L245.1,215.5 L245.6,215.9 L247.2,216.2 L246.3,218.4 L244.4,219.1 L242.9,219.0 L242.6,217.7 L242.0,217.2 L242.9,216.1 Z M167.2,215.1 L167.1,216.2 L167.7,216.6 L167.2,218.1 L167.2,216.9 L166.4,217.5 L165.5,217.6 L166.1,216.7 L165.1,215.6 L165.6,215.3 L166.4,216.4 Z M266.7,329.0 L269.4,329.3 L271.1,331.0 L270.5,331.3 L269.8,330.4 L267.6,329.1 Z M223.1,321.5 L224.6,322.3 L226.5,322.3 L225.4,323.7 L224.0,324.5 L223.2,324.0 L224.8,323.0 Z M225.7,323.8 L227.0,323.0 L227.1,322.0 L228.2,322.6 L229.1,322.3 L229.4,323.1 L228.1,323.6 L228.1,324.1 L226.6,323.9 L225.6,324.8 Z M211.7,331.7 L212.0,332.5 L211.1,332.4 L210.7,333.0 L211.3,333.7 L210.6,334.0 L210.6,332.3 L209.8,332.2 L209.3,331.4 Z M191.2,202.0 L192.5,200.7 L192.1,199.3 L193.2,200.3 L193.0,199.5 L194.3,198.6 L195.3,197.3 L195.7,195.6 L196.9,194.6 L197.9,195.2 L198.2,194.2 L199.9,194.3 L201.8,193.1 L202.0,192.5 L202.9,192.0 L204.0,192.7 L203.5,193.4 L202.4,193.7 L203.2,195.4 L202.1,197.1 L203.3,198.5 L204.1,197.9 L204.2,197.2 L203.1,195.2 L206.2,193.8 L205.6,193.2 L206.4,192.1 L206.9,193.9 L208.3,194.0 L209.2,194.6 L209.5,195.6 L210.0,195.8 L213.3,195.5 L214.1,196.3 L215.5,196.6 L217.3,195.8 L217.7,195.3 L220.0,195.3 L221.4,195.5 L219.6,195.7 L221.6,197.1 L222.0,196.9 L223.6,198.0 L223.8,199.4 L225.1,199.5 L226.7,200.4 L228.0,201.8 L228.1,202.6 L228.8,202.8 L230.5,204.2 L232.8,204.7 L233.0,204.4 L235.0,204.3 L236.4,204.6 L238.4,205.3 L240.3,206.9 L241.0,207.7 L241.8,207.8 L241.9,208.8 L242.8,211.5 L244.3,212.5 L244.3,213.4 L242.6,215.3 L241.7,215.9 L241.7,217.6 L240.7,218.4 L239.9,218.2 L239.0,218.7 L240.5,218.6 L242.3,217.8 L242.8,219.0 L245.6,219.3 L247.2,218.1 L247.8,216.9 L250.1,217.0 L250.8,217.6 L251.4,217.4 L253.0,218.9 L253.6,218.0 L254.5,219.1 L254.8,220.4 L255.4,220.9 L256.1,219.9 L258.8,221.0 L258.8,220.7 L260.5,221.1 L263.1,221.0 L265.6,222.6 L268.4,224.9 L269.6,225.3 L271.6,225.3 L272.1,226.0 L272.9,229.2 L272.9,230.6 L272.0,233.0 L269.9,235.5 L268.9,236.0 L267.5,238.5 L266.3,240.2 L265.1,241.0 L264.8,243.5 L265.2,245.8 L264.6,248.3 L264.7,249.3 L263.6,251.0 L263.6,252.7 L262.4,254.8 L261.7,255.5 L261.0,256.8 L261.2,257.7 L259.3,258.9 L259.2,259.7 L254.2,260.0 L252.8,261.1 L251.9,261.3 L249.9,262.4 L248.2,263.6 L246.8,265.5 L246.6,267.2 L247.2,268.7 L246.3,271.1 L244.5,272.8 L243.5,274.9 L241.9,277.0 L241.9,276.2 L242.7,275.6 L242.8,274.7 L241.7,274.3 L241.4,276.2 L240.4,276.7 L239.9,277.6 L239.8,278.7 L239.1,280.4 L237.7,281.8 L236.9,283.2 L234.7,284.4 L233.1,284.0 L232.1,284.3 L230.6,283.3 L229.2,283.3 L228.2,282.2 L228.2,280.4 L227.8,283.0 L228.6,283.9 L229.8,284.5 L230.5,285.5 L230.3,287.0 L231.4,287.5 L231.4,288.5 L229.8,290.7 L229.7,291.3 L226.9,292.5 L223.5,293.1 L221.3,293.0 L220.7,295.0 L220.7,297.4 L219.2,298.0 L217.9,298.0 L215.8,297.0 L215.3,297.7 L215.5,299.9 L216.6,300.5 L217.9,300.1 L218.2,301.6 L217.3,301.9 L216.7,301.1 L215.6,301.7 L216.7,302.1 L215.0,303.7 L215.2,305.3 L214.3,306.2 L214.5,306.9 L213.4,306.8 L212.1,307.4 L211.2,308.3 L210.7,309.6 L211.0,310.5 L212.2,311.6 L213.8,311.7 L214.2,312.8 L213.8,314.1 L210.8,316.4 L210.3,318.7 L208.3,319.7 L207.7,321.3 L208.2,323.0 L209.2,324.6 L207.2,324.5 L204.8,325.7 L204.2,328.5 L203.0,328.5 L201.8,327.9 L201.8,327.0 L203.5,326.7 L203.9,325.9 L201.5,326.9 L201.7,327.8 L200.1,327.0 L201.0,326.1 L203.2,325.3 L201.7,325.2 L199.5,326.8 L198.8,326.4 L199.3,325.8 L198.3,325.7 L198.6,324.6 L199.4,324.7 L197.7,323.5 L198.7,323.0 L198.8,322.0 L197.7,321.9 L196.1,322.9 L196.7,321.6 L196.4,320.6 L197.9,321.0 L197.1,320.1 L198.1,319.9 L197.3,319.4 L197.9,319.1 L197.7,317.7 L197.7,318.5 L195.8,320.7 L195.9,319.3 L196.4,318.5 L195.5,318.0 L196.0,317.0 L196.8,317.1 L196.5,316.0 L197.6,315.7 L197.7,317.6 L197.8,315.4 L196.8,313.4 L198.3,311.5 L196.5,310.7 L195.6,311.4 L195.3,310.7 L196.8,309.4 L196.6,308.9 L198.0,307.3 L198.0,308.3 L199.5,307.9 L199.9,306.7 L199.6,306.0 L200.2,304.9 L198.0,304.9 L198.2,304.2 L200.3,304.3 L200.2,303.3 L200.9,302.2 L200.6,301.6 L201.2,300.0 L200.5,298.7 L200.3,299.3 L199.0,299.3 L198.7,297.6 L199.1,295.4 L200.0,294.3 L199.4,291.9 L198.6,291.7 L199.6,291.2 L199.2,289.6 L200.1,289.1 L201.1,285.7 L201.9,284.7 L202.3,282.7 L203.1,281.4 L203.5,278.9 L203.0,276.4 L203.0,274.5 L203.7,273.8 L203.3,271.8 L204.4,269.1 L205.3,264.5 L205.0,263.2 L205.2,261.3 L205.0,260.0 L205.6,259.6 L206.0,256.7 L205.8,255.5 L205.9,254.0 L205.5,251.4 L205.6,250.8 L203.5,249.3 L203.3,248.5 L201.7,247.5 L199.1,246.5 L196.3,244.8 L194.9,243.5 L193.9,241.9 L194.3,241.0 L192.5,238.5 L192.5,237.9 L191.6,237.0 L189.1,231.2 L188.2,230.2 L187.2,228.5 L185.7,227.5 L185.0,226.7 L185.5,226.3 L184.9,225.5 L184.8,223.6 L185.7,222.6 L187.3,221.7 L187.7,220.5 L186.9,221.3 L186.8,220.8 L185.4,220.0 L185.8,219.6 L185.4,217.6 L186.1,217.3 L186.2,216.4 L187.0,215.5 L187.1,214.1 L189.1,213.5 L189.0,212.6 L189.9,212.3 L189.6,211.5 L190.3,210.6 L191.4,210.8 L191.5,210.0 L192.5,208.6 L191.8,207.7 L192.3,207.1 L192.1,205.3 L192.4,204.7 L191.9,204.0 L192.2,203.3 Z M206.5,331.3 L205.4,331.2 L204.4,331.8 L203.5,330.7 L202.4,331.0 L202.3,330.2 L204.3,330.2 L202.8,329.1 L202.6,329.9 L201.9,328.8 L202.6,328.7 L203.8,329.4 L204.6,329.3 L204.5,328.6 L205.3,327.9 L205.7,329.6 L208.1,330.1 L206.0,329.2 L205.8,328.5 L207.4,327.8 L207.4,327.3 L205.7,327.6 L205.3,326.4 L206.6,325.8 L207.2,325.0 L207.8,325.6 L208.5,325.3 L209.4,326.3 L209.1,327.2 L211.3,329.1 L214.0,330.7 L215.3,330.7 L216.2,331.4 L213.7,331.5 L212.6,332.4 L212.7,331.8 L211.8,331.4 L209.4,331.1 L208.2,331.4 L209.1,331.5 L208.8,332.0 L209.5,333.0 L208.1,332.8 L208.4,332.1 L206.5,332.7 L206.3,331.7 Z">
  <desc xmlns="http://www.highcharts.com/svg/namespace">
    <abbrev-a3>SAM</abbrev-a3>
    <iso-a2>SA</iso-a2>
    <name>South America</name>
    <hc-middle-x>0.59</hc-middle-x>
    <hc-middle-y>0.35</hc-middle-y>
    <hc-key>sa</hc-key>
    <hc-a2>SA</hc-a2>
  </desc>
</path>
</g>

<text x="350" y="714" text-anchor="middle" font-family="Verdana" font-size="8" stroke-opacity="0.6">Copyright (c) 2020 Highsoft AS, Based on data from Natural Earth</text>

</svg>