<?xml version="1.0" encoding="utf-8" standalone="no"?>
        <!DOCTYPE svg PUBLIC "-//W3C//DTD SVG 1.1//EN" "http://www.w3.org/Graphics/SVG/1.1/DTD/svg11.dtd">

        <svg version="1.1" viewBox="-5 -5 710 725" xmlns="http://www.w3.org/2000/svg" xmlns:xlink="http://www.w3.org/1999/xlink">
        <desc>
            Map version: 2.3.0
            Copyright (c) 2024 Highsoft AS, Based on data from OpenStreetMap
        </desc>
        <title>Afghanistan</title>
        <g id="admin1">
<path fill="#CEE3F5" stroke="#6E6E6E" stroke-width="0.4" id="undefined" d="M474.1511,127.2196 475.5636,134.3306 474.1511,137.8862 482.5772,136.0841 489.5909,141.4417 488.1784,144.1205 488.1784,148.5527 493.7796,147.6760 493.7796,144.9972 495.1920,144.1205 500.7932,146.7993 505.0306,146.7993 505.0306,140.5650 510.6318,136.0841 509.2193,132.5285 512.0443,131.6518 512.0443,128.0963 516.2330,123.6641 516.2330,120.9852 520.4217,119.1831 531.6727,108.5166 538.6863,105.8377 537.2739,103.2076 541.4626,101.4055 541.4626,97.8500 549.8887,101.4055 549.8887,96.9733 555.4898,96.9733 555.4898,94.2945 563.9159,92.5411 563.9159,89.8622 568.1534,88.9368 570.9296,84.5046 583.5444,83.6279 589.1943,80.0724 604.5853,80.0724 611.5989,78.2702 627.0387,78.2702 627.0387,77.3935 643.8909,77.3935 648.0796,76.5168 655.0932,79.1957 655.0932,80.9491 663.5193,80.0724 663.5193,77.3935 669.1205,77.3935 676.1341,74.7147 677.5466,72.0359 681.7840,74.7147 684.5603,71.1592 680.3716,69.4058 680.3716,62.2947 681.7840,60.4926 687.3852,60.4926 692.9864,58.6905 695.8113,62.2947 700.0000,61.3693 697.1751,56.0604 694.3988,54.2583 683.1478,54.2583 683.1478,52.5049 670.5330,53.3816 666.3443,56.0604 650.9045,58.6905 649.4921,61.3693 638.2897,60.4926 639.7022,56.9371 645.3034,56.0604 645.3034,51.5795 639.7022,51.5795 635.4648,49.8261 622.8500,49.8261 618.6613,53.3816 613.0114,54.2583 611.5989,57.8138 604.5853,58.6905 601.8091,61.3693 596.2079,63.1714 596.2079,65.8503 591.9705,72.0359 586.3693,72.9613 579.3557,72.0359 573.7545,73.8380 558.3148,82.7512 552.7136,88.0601 541.4626,88.0601 537.2739,84.5046 537.2739,80.0724 533.0852,75.5914 531.6727,71.1592 531.6727,64.0481 534.4489,61.3693 534.4489,43.5917 537.2739,39.1595 538.6863,26.6908 535.8614,25.8141 526.0715,29.3696 523.2466,27.5675 526.0715,18.7030 528.8478,16.9009 528.8478,10.6666 521.8341,8.9132 516.2330,3.5555 512.0443,3.5555 509.2193,0.0000 507.8068,2.6788 495.1920,3.5555 495.1920,6.2343 491.0033,7.1110 491.0033,10.6666 488.1784,11.5433 486.7659,17.7776 482.5772,18.7030 479.7523,22.2586 474.1511,24.8887 475.5636,26.6908 469.9624,27.5675 471.3262,32.0484 475.5636,32.9251 476.9761,38.2341 472.7387,42.7150 472.7387,45.3451 468.5500,47.1472 462.9488,45.3451 461.5363,49.8261 462.9488,62.2947 467.1375,69.4058 467.1375,72.9613 464.3126,72.9613 461.5363,84.5046 464.3126,87.1834 462.9488,89.8622 467.1375,91.6156 467.1375,97.8500 465.7250,100.5288 472.7387,105.8377 482.5772,105.8377 485.3535,115.6276 482.5772,118.3064 483.9897,121.8620 478.3398,126.3429 474.1511,127.2196Z">
                    <desc xmlns="http://www.highcharts.com/svg/namespace">
<hasc>AF.BD</hasc>
<fips>AF01</fips>
<name>Badakhshan</name>
<type-en>Province</type-en>
<iso3166-2>AF-BDS</iso3166-2>
<hc-group>admin1</hc-group>
<hc-key>af-bds</hc-key>
<hc-a2>BA</hc-a2>
<hc-middle-lon>72.435</hc-middle-lon>
<hc-middle-lat>36.967</hc-middle-lat>
</desc>


                </path>
<path fill="#CEE3F5" stroke="#6E6E6E" stroke-width="0.4" id="undefined" d="M423.6432,106.7632 426.4681,109.4420 434.8455,109.4420 436.2580,107.6399 447.5090,104.9610 447.5090,109.4420 450.2853,110.3187 451.6977,115.6276 457.2989,120.9852 460.1239,125.4175 460.1239,130.7751 468.5500,129.8984 469.9624,126.3429 474.1511,127.2196 478.3398,126.3429 483.9897,121.8620 482.5772,118.3064 485.3535,115.6276 482.5772,105.8377 472.7387,105.8377 465.7250,100.5288 467.1375,97.8500 467.1375,91.6156 462.9488,89.8622 464.3126,87.1834 461.5363,84.5046 464.3126,72.9613 467.1375,72.9613 467.1375,69.4058 462.9488,62.2947 461.5363,49.8261 462.9488,45.3451 458.7114,42.7150 453.1102,44.4684 437.6705,44.4684 433.4818,50.7028 430.6568,51.5795 433.4818,60.4926 436.2580,59.6159 433.4818,64.0481 429.2444,66.7270 427.8319,71.1592 427.8319,80.9491 423.6432,85.3813 425.0557,95.1712 422.2307,95.1712 422.2307,101.4055 425.0557,104.0843 423.6432,106.7632Z">
                    <desc xmlns="http://www.highcharts.com/svg/namespace">
<hasc>AF.TK</hasc>
<fips>AF26</fips>
<name>Takhar</name>
<type-en>Province</type-en>
<iso3166-2>AF-TAK</iso3166-2>
<hc-group>admin1</hc-group>
<hc-key>af-tak</hc-key>
<hc-a2>TA</hc-a2>
<hc-middle-lon>69.834</hc-middle-lon>
<hc-middle-lat>36.699</hc-middle-lat>
</desc>


                </path>
<path fill="#CEE3F5" stroke="#6E6E6E" stroke-width="0.4" id="undefined" d="M460.1239,159.2193 460.1239,160.1447 462.9488,161.8981 462.9488,165.4537 465.7250,165.4537 471.3262,166.3304 471.3262,169.9346 475.5636,173.4901 479.7523,174.3668 486.7659,173.4901 489.5909,169.9346 493.7796,163.7003 503.6181,167.2558 505.0306,165.4537 512.0443,165.4537 516.2330,163.7003 520.4217,154.7871 528.8478,152.1083 533.0852,152.9850 534.4489,150.3549 540.0988,146.7993 540.0988,141.4417 537.2739,141.4417 531.6727,126.3429 528.8478,126.3429 528.8478,122.7874 526.0715,123.6641 520.4217,119.1831 516.2330,120.9852 516.2330,123.6641 512.0443,128.0963 512.0443,131.6518 509.2193,132.5285 510.6318,136.0841 505.0306,140.5650 505.0306,146.7993 500.7932,146.7993 495.1920,144.1205 493.7796,144.9972 493.7796,147.6760 488.1784,148.5527 488.1784,144.1205 489.5909,141.4417 482.5772,136.0841 474.1511,137.8862 472.7387,142.3184 469.9624,142.3184 469.9624,146.7993 465.7250,147.6760 457.2989,153.9104 461.5363,155.6638 460.1239,159.2193Z">
                    <desc xmlns="http://www.highcharts.com/svg/namespace">
<hasc>AF.NR</hasc>
<fips>AF38</fips>
<name>Nuristan</name>
<type-en>Province</type-en>
<iso3166-2>AF-NUR</iso3166-2>
<hc-group>admin1</hc-group>
<hc-key>af-nur</hc-key>
<hc-a2>NU</hc-a2>
<hc-middle-lon>70.767</hc-middle-lon>
<hc-middle-lat>35.471</hc-middle-lat>
</desc>


                </path>
<path fill="#CEE3F5" stroke="#6E6E6E" stroke-width="0.4" id="undefined" d="M366.1216,76.5168 367.5341,82.7512 370.3590,88.0601 373.1353,88.9368 373.1353,93.4178 378.7364,93.4178 387.1625,95.1712 399.7773,95.1712 401.1898,97.8500 406.7910,101.4055 411.0284,99.6521 416.6296,101.4055 415.2171,104.9610 422.2307,104.9610 423.6432,106.7632 425.0557,104.0843 422.2307,101.4055 422.2307,95.1712 425.0557,95.1712 423.6432,85.3813 427.8319,80.9491 427.8319,71.1592 429.2444,66.7270 423.6432,67.6037 412.4409,56.9371 408.2035,56.9371 409.6159,59.6159 404.0148,56.9371 404.0148,59.6159 395.5886,60.4926 392.7637,64.0481 387.1625,64.9249 384.3863,67.6037 378.7364,67.6037 377.3727,72.9613 373.1353,72.0359 366.1216,76.5168Z">
                    <desc xmlns="http://www.highcharts.com/svg/namespace">
<hasc>AF.KZ</hasc>
<fips>AF24</fips>
<name>Kunduz</name>
<type-en>Province</type-en>
<iso3166-2>AF-KDZ</iso3166-2>
<hc-group>admin1</hc-group>
<hc-key>af-kdz</hc-key>
<hc-a2>KU</hc-a2>
<hc-middle-lon>68.685</hc-middle-lon>
<hc-middle-lat>36.82</hc-middle-lat>
</desc>


                </path>
<path fill="#CEE3F5" stroke="#6E6E6E" stroke-width="0.4" id="undefined" d="M193.6056,434.1149 193.6056,434.9917 197.7943,433.2382 206.2204,434.9917 211.8216,434.9917 221.6602,436.7938 242.7011,430.5594 258.0921,427.0039 279.1817,420.7696 283.3704,418.0907 284.7829,414.5352 279.1817,410.1030 280.5455,404.7453 283.3704,402.1152 283.3704,391.3999 280.5455,386.0910 286.1954,367.3880 294.5728,366.5113 300.2227,360.2769 301.5864,354.9680 305.8238,354.9680 310.0125,350.4871 318.4386,349.6104 318.4386,354.0426 324.0398,353.1659 328.2772,354.9680 335.2908,354.9680 349.3181,349.6104 354.9193,348.7336 354.9193,346.0548 345.0807,344.2527 343.6682,339.8205 338.0671,339.8205 336.6546,338.0671 336.6546,335.3883 326.8647,329.1539 314.2499,329.1539 310.0125,326.4751 302.9989,326.4751 298.8102,323.7963 291.7965,327.3518 288.9716,328.2772 283.3704,330.9073 276.3568,326.4751 276.3568,322.9196 283.3704,320.2407 283.3704,307.8208 281.9580,306.0186 286.1954,304.2165 287.5591,299.7843 293.2090,298.0309 295.9852,294.4754 290.3841,289.1177 284.7829,292.6733 281.9580,292.6733 277.7693,293.5500 273.5319,294.4754 272.1681,291.7965 272.1681,290.9198 272.1681,291.7965 272.1681,290.9198 267.9307,292.6733 251.0785,293.5500 249.7147,288.2410 245.4773,288.2410 244.0648,294.4754 241.2886,295.3521 239.8761,302.4631 230.0376,300.6610 230.0376,299.7843 230.0376,300.6610 225.8489,307.8208 224.4364,313.1297 214.6465,314.0064 214.6465,319.3640 208.9967,320.2407 207.6329,326.4751 208.9967,330.0306 207.6329,338.0671 204.8080,344.2527 204.8080,357.5981 203.3955,360.2769 203.3955,373.6223 201.9830,377.1778 201.9830,396.7576 200.6193,398.5597 201.9830,403.8686 196.3819,419.0161 193.6056,434.1149Z">
                    <desc xmlns="http://www.highcharts.com/svg/namespace">
<hasc>AF.KD</hasc>
<fips>AF23</fips>
<name>Kandahar</name>
<type-en>Province</type-en>
<iso3166-2>AF-KAN</iso3166-2>
<hc-group>admin1</hc-group>
<hc-key>af-kan</hc-key>
<hc-a2>KA</hc-a2>
<hc-middle-lon>66.149</hc-middle-lon>
<hc-middle-lat>31.058</hc-middle-lat>
</desc>


                </path>
<path fill="#CEE3F5" stroke="#6E6E6E" stroke-width="0.4" id="undefined" d="M99.6034,443.0281 126.2455,440.3493 137.4965,440.3493 143.0977,438.5472 152.8876,438.5472 164.1386,440.3493 166.9148,443.0281 172.5647,442.1027 176.7534,443.9048 176.7534,440.3493 182.3546,436.7938 193.6056,434.9917 193.6056,434.1149 193.6056,434.9917 193.6056,434.1149 196.3819,419.0161 201.9830,403.8686 200.6193,398.5597 201.9830,396.7576 201.9830,377.1778 203.3955,373.6223 203.3955,360.2769 204.8080,357.5981 204.8080,344.2527 207.6329,338.0671 208.9967,330.0306 207.6329,326.4751 208.9967,320.2407 214.6465,319.3640 214.6465,314.0064 224.4364,313.1297 225.8489,307.8208 230.0376,300.6610 230.0376,299.7843 231.4500,294.4754 231.4500,283.7601 225.8489,283.7601 228.6738,282.0067 228.6738,273.0935 230.0376,267.7846 235.6874,262.4269 235.6874,257.0693 230.0376,249.9583 223.0239,249.9583 223.0239,252.6371 213.2341,254.4392 210.4091,257.0693 204.8080,256.1926 204.8080,260.6735 199.2068,264.2291 196.3819,270.4147 197.7943,272.2168 187.9557,274.8956 186.5920,279.3279 182.3546,280.2046 183.7670,283.7601 179.5783,288.2410 169.7398,289.1177 171.1522,294.4754 164.1386,297.1055 161.3137,300.6610 155.7125,301.5864 150.1113,306.0186 147.2864,306.0186 148.6989,314.9318 145.8739,319.3640 140.2728,324.7217 138.8603,331.8327 138.8603,346.9315 136.0841,349.6104 137.4965,352.2892 137.4965,359.4002 134.6716,360.2769 131.8466,365.6346 127.6579,367.3880 127.6579,376.3011 123.4692,379.8567 124.8330,382.5355 124.8330,389.6465 120.6443,390.5232 119.2318,394.9555 113.6307,402.1152 109.4420,402.9919 102.4283,418.0907 102.4283,429.6827 103.7921,434.1149 99.6034,439.4726 99.6034,443.0281Z">
                    <desc xmlns="http://www.highcharts.com/svg/namespace">
<hasc>AF.HM</hasc>
<fips>AF10</fips>
<name>Helmand</name>
<type-en>Province</type-en>
<iso3166-2>AF-HEL</iso3166-2>
<hc-group>admin1</hc-group>
<hc-key>af-hel</hc-key>
<hc-a2>HE</hc-a2>
<hc-middle-lon>63.962</hc-middle-lon>
<hc-middle-lat>31.373</hc-middle-lat>
</desc>


                </path>
<path fill="#CEE3F5" stroke="#6E6E6E" stroke-width="0.4" id="undefined" d="M489.5909,169.9346 492.3671,174.3668 492.3671,179.6758 495.1920,183.2313 493.7796,189.4656 499.3807,189.4656 498.0170,193.0212 502.2057,191.2677 502.2057,192.1444 502.2057,191.2677 502.2057,192.1444 512.0443,191.2677 514.8205,190.3910 514.8205,185.0334 524.6591,179.6758 526.0715,174.3668 535.8614,171.6880 535.8614,165.4537 541.4626,163.7003 542.8750,160.1447 537.2739,156.5892 542.8750,147.6760 540.0988,146.7993 534.4489,150.3549 533.0852,152.9850 528.8478,152.1083 520.4217,154.7871 516.2330,163.7003 512.0443,165.4537 505.0306,165.4537 503.6181,167.2558 493.7796,163.7003 489.5909,169.9346Z">
                    <desc xmlns="http://www.highcharts.com/svg/namespace">
<hasc>AF.KR</hasc>
<fips>AF34</fips>
<name>Kunar</name>
<type-en>Province</type-en>
<iso3166-2>AF-KNR</iso3166-2>
<hc-group>admin1</hc-group>
<hc-key>af-knr</hc-key>
<hc-a2>KN</hc-a2>
<hc-middle-lon>71.13</hc-middle-lon>
<hc-middle-lat>35.004</hc-middle-lat>
</desc>


                </path>
<path fill="#CEE3F5" stroke="#6E6E6E" stroke-width="0.4" id="undefined" d="M99.6034,443.0281 99.6034,439.4726 103.7921,434.1149 102.4283,429.6827 102.4283,418.0907 109.4420,402.9919 113.6307,402.1152 119.2318,394.9555 120.6443,390.5232 124.8330,389.6465 124.8330,382.5355 123.4692,379.8567 127.6579,376.3011 127.6579,367.3880 131.8466,365.6346 134.6716,360.2769 137.4965,359.4002 137.4965,352.2892 136.0841,349.6104 138.8603,346.9315 138.8603,331.8327 140.2728,324.7217 145.8739,319.3640 148.6989,314.9318 147.2864,306.0186 141.6852,306.0186 136.0841,304.2165 127.6579,303.3398 126.2455,305.1419 126.2455,313.1297 119.2318,316.6852 115.0431,316.6852 108.0295,319.3640 103.7921,314.0064 98.1909,311.3763 95.4147,313.1297 75.7375,315.8085 71.5488,314.0064 71.5488,319.3640 67.3114,321.1175 67.3114,326.4751 60.2978,331.8327 60.2978,334.4628 56.1091,335.3883 56.1091,338.9438 57.5216,339.8205 56.1091,338.9438 56.1091,339.8205 57.5216,339.8205 56.1091,339.8205 56.1091,340.6972 56.1091,339.8205 56.1091,340.6972 54.6966,340.6972 53.2842,340.6972 53.2842,341.6226 53.2842,340.6972 53.2842,341.6226 53.2842,346.0548 57.5216,346.0548 61.7103,349.6104 61.7103,356.7214 63.1227,356.7214 63.1227,367.3880 61.7103,367.3880 61.7103,374.4990 57.5216,377.1778 50.5079,386.0910 28.0546,408.3009 22.4534,415.4606 16.8522,420.7696 35.0682,425.2018 50.5079,430.5594 56.1091,431.4361 84.1637,440.3493 95.4147,443.0281 99.6034,443.0281Z">
                    <desc xmlns="http://www.highcharts.com/svg/namespace">
<hasc>AF.NM</hasc>
<fips>AF19</fips>
<name>Nimruz</name>
<type-en>Province</type-en>
<iso3166-2>AF-NIM</iso3166-2>
<hc-group>admin1</hc-group>
<hc-key>af-nim</hc-key>
<hc-a2>NI</hc-a2>
<hc-middle-lon>62.231</hc-middle-lon>
<hc-middle-lat>30.823</hc-middle-lat>
</desc>


                </path>
<path fill="#CEE3F5" stroke="#6E6E6E" stroke-width="0.4" id="undefined" d="M451.6977,166.3304 453.1102,166.3304 457.2989,172.5647 457.2989,177.0456 457.2989,177.9223 457.2989,178.7991 458.7114,182.3546 455.9352,184.1567 454.5227,185.0334 454.5227,199.2555 464.3126,199.2555 471.3262,196.5767 476.9761,196.5767 486.7659,188.5889 486.7659,181.4779 492.3671,179.6758 492.3671,174.3668 489.5909,169.9346 486.7659,173.4901 479.7523,174.3668 475.5636,173.4901 471.3262,169.9346 471.3262,166.3304 465.7250,165.4537 462.9488,165.4537 462.9488,161.8981 460.1239,160.1447 460.1239,159.2193 460.1239,160.1447 457.2989,162.7748 453.1102,162.7748 453.1102,166.3304 451.6977,166.3304Z">
                    <desc xmlns="http://www.highcharts.com/svg/namespace">
<hasc>AF.LA</hasc>
<fips>AF35</fips>
<name>Laghman</name>
<type-en>Province</type-en>
<iso3166-2>AF-LAG</iso3166-2>
<hc-group>admin1</hc-group>
<hc-key>af-lag</hc-key>
<hc-a2>LA</hc-a2>
<hc-middle-lon>70.218</hc-middle-lon>
<hc-middle-lat>34.807</hc-middle-lat>
</desc>


                </path>
<path fill="#CEE3F5" stroke="#6E6E6E" stroke-width="0.4" id="undefined" d="M443.2716,186.8355 441.9079,186.8355 443.2716,186.8355 441.9079,186.8355 443.2716,186.8355 447.5090,186.8355 450.2853,184.1567 450.2853,180.6012 457.2989,177.9223 457.2989,177.0456 457.2989,172.5647 453.1102,166.3304 451.6977,166.3304 448.9215,161.8981 440.4954,162.7748 434.8455,162.7748 433.4818,161.0214 427.8319,161.8981 426.4681,161.8981 427.8319,161.8981 426.4681,168.1325 434.8455,172.5647 441.9079,174.3668 440.4954,180.6012 443.2716,186.8355Z">
                    <desc xmlns="http://www.highcharts.com/svg/namespace">
<hasc>AF.KP</hasc>
<fips>AF14</fips>
<name>Kapisa</name>
<type-en>Province</type-en>
<iso3166-2>AF-KAP</iso3166-2>
<hc-group>admin1</hc-group>
<hc-key>af-kap</hc-key>
<hc-a2>KP</hc-a2>
<hc-middle-lon>69.601</hc-middle-lon>
<hc-middle-lat>34.91</hc-middle-lat>
</desc>


                </path>
<path fill="#CEE3F5" stroke="#6E6E6E" stroke-width="0.4" id="undefined" d="M436.2580,210.8475 448.9215,206.3665 453.1102,209.0454 455.9352,215.2797 455.9352,216.1564 457.2989,217.0818 469.9624,217.9585 471.3262,219.7119 482.5772,221.5141 489.5909,220.6374 500.7932,220.6374 506.3944,219.7119 506.3944,217.9585 514.8205,216.1564 516.2330,204.6131 519.0579,201.0576 516.2330,201.0576 516.2330,197.5021 510.6318,195.7000 512.0443,191.2677 502.2057,192.1444 502.2057,191.2677 502.2057,192.1444 502.2057,191.2677 498.0170,193.0212 499.3807,189.4656 493.7796,189.4656 495.1920,183.2313 492.3671,179.6758 486.7659,181.4779 486.7659,188.5889 476.9761,196.5767 471.3262,196.5767 464.3126,199.2555 454.5227,199.2555 450.2853,198.3788 446.0966,200.1809 443.2716,204.6131 439.0829,206.3665 436.2580,210.8475Z">
                    <desc xmlns="http://www.highcharts.com/svg/namespace">
<hasc>AF.NG</hasc>
<fips>AF18</fips>
<name>Nangarhar</name>
<type-en>Province</type-en>
<iso3166-2>AF-NAN</iso3166-2>
<hc-group>admin1</hc-group>
<hc-key>af-nan</hc-key>
<hc-a2>NA</hc-a2>
<hc-middle-lon>70.327</hc-middle-lon>
<hc-middle-lat>34.374</hc-middle-lat>
</desc>


                </path>
<path fill="#CEE3F5" stroke="#6E6E6E" stroke-width="0.4" id="undefined" d="M373.1353,169.0092 377.3727,173.4901 377.3727,179.6758 382.9738,188.5889 389.9875,185.0334 394.1762,185.0334 398.4136,187.7122 406.7910,188.5889 406.7910,183.2313 409.6159,181.4779 409.6159,177.0456 412.4409,174.3668 420.8183,176.1202 425.0557,175.2435 429.2444,177.9223 427.8319,179.6758 429.2444,180.6012 433.4818,183.2313 434.8455,190.3910 441.9079,186.8355 443.2716,186.8355 441.9079,186.8355 443.2716,186.8355 440.4954,180.6012 441.9079,174.3668 434.8455,172.5647 426.4681,168.1325 427.8319,161.8981 426.4681,161.8981 425.0557,161.8981 425.0557,152.9850 426.4681,151.2316 426.4681,150.3549 422.2307,149.4294 418.0420,152.1083 415.2171,152.9850 413.8046,157.4659 405.4272,155.6638 402.6023,160.1447 394.1762,163.7003 394.1762,166.3304 388.5750,167.2558 382.9738,167.2558 381.5614,167.2558 382.9738,167.2558 381.5614,167.2558 373.1353,169.0092Z">
                    <desc xmlns="http://www.highcharts.com/svg/namespace">
<hasc>AF.PV</hasc>
<fips>AF40</fips>
<name>Parwan</name>
<type-en>Province</type-en>
<iso3166-2>AF-PAR</iso3166-2>
<hc-group>admin1</hc-group>
<hc-key>af-par</hc-key>
<hc-a2>PA</hc-a2>
<hc-middle-lon>68.905</hc-middle-lon>
<hc-middle-lat>35.002</hc-middle-lat>
</desc>


                </path>
<path fill="#CEE3F5" stroke="#6E6E6E" stroke-width="0.4" id="undefined" d="M364.7092,166.3304 366.1216,166.3304 364.7092,166.3304 366.1216,166.3304 366.1216,167.2558 373.1353,169.0092 381.5614,167.2558 382.9738,167.2558 381.5614,167.2558 382.9738,167.2558 388.5750,167.2558 394.1762,166.3304 394.1762,163.7003 402.6023,160.1447 405.4272,155.6638 413.8046,157.4659 415.2171,152.9850 418.0420,152.1083 422.2307,149.4294 426.4681,150.3549 426.4681,151.2316 426.4681,150.3549 427.8319,150.3549 433.4818,149.4294 434.8455,147.6760 441.9079,147.6760 446.0966,144.1205 450.2853,143.2438 451.6977,136.0841 457.2989,134.3306 460.1239,130.7751 460.1239,125.4175 457.2989,120.9852 451.6977,115.6276 450.2853,110.3187 447.5090,109.4420 447.5090,104.9610 436.2580,107.6399 434.8455,109.4420 426.4681,109.4420 423.6432,106.7632 422.2307,104.9610 415.2171,104.9610 416.6296,101.4055 411.0284,99.6521 406.7910,101.4055 401.1898,97.8500 399.7773,95.1712 387.1625,95.1712 378.7364,93.4178 373.1353,93.4178 373.1353,95.1712 371.7228,96.9733 374.5477,101.4055 377.3727,101.4055 382.9738,109.4420 388.5750,111.1954 391.3999,113.8742 384.3863,118.3064 380.1489,122.7874 380.1489,128.9730 373.1353,134.3306 371.7228,138.7629 374.5477,140.5650 371.7228,145.8739 368.9466,147.6760 368.9466,157.4659 364.7092,162.7748 364.7092,166.3304Z">
                    <desc xmlns="http://www.highcharts.com/svg/namespace">
<hasc>AF.BL</hasc>
<fips>AF03</fips>
<name>Baghlan</name>
<type-en>Province</type-en>
<iso3166-2>AF-BGL</iso3166-2>
<hc-group>admin1</hc-group>
<hc-key>af-bgl</hc-key>
<hc-a2>BG</hc-a2>
<hc-middle-lon>68.988</hc-middle-lon>
<hc-middle-lat>35.79</hc-middle-lat>
</desc>


                </path>
<path fill="#CEE3F5" stroke="#6E6E6E" stroke-width="0.4" id="undefined" d="M310.0125,151.2316 310.0125,152.1083 312.8375,152.9850 322.6273,150.3549 329.6410,149.4294 331.0534,147.6760 349.3181,147.6760 354.9193,146.7993 368.9466,147.6760 371.7228,145.8739 374.5477,140.5650 371.7228,138.7629 373.1353,134.3306 380.1489,128.9730 380.1489,122.7874 384.3863,118.3064 391.3999,113.8742 388.5750,111.1954 382.9738,109.4420 377.3727,101.4055 374.5477,101.4055 371.7228,96.9733 373.1353,95.1712 363.3454,93.4178 352.0944,93.4178 350.6819,90.7389 340.8920,91.6156 332.4659,92.5411 335.2908,95.1712 335.2908,104.9610 332.4659,106.7632 336.6546,113.8742 332.4659,112.9975 325.4523,113.8742 319.8511,121.8620 322.6273,124.5408 318.4386,125.4175 318.4386,128.9730 314.2499,129.8984 312.8375,135.2073 317.0262,137.0095 314.2499,140.5650 317.0262,143.2438 312.8375,145.8739 312.8375,149.4294 310.0125,151.2316Z">
                    <desc xmlns="http://www.highcharts.com/svg/namespace">
<hasc>AF.SM</hasc>
<fips>AF32</fips>
<name>Samangan</name>
<type-en>Province</type-en>
<iso3166-2>AF-SAM</iso3166-2>
<hc-group>admin1</hc-group>
<hc-key>af-sam</hc-key>
<hc-a2>SA</hc-a2>
<hc-middle-lon>67.722</hc-middle-lon>
<hc-middle-lat>35.995</hc-middle-lat>
</desc>


                </path>
<path fill="#CEE3F5" stroke="#6E6E6E" stroke-width="0.4" id="undefined" d="M286.1954,93.4178 287.5591,97.8500 280.5455,100.5288 286.1954,107.6399 290.3841,107.6399 290.3841,110.3187 295.9852,113.8742 295.9852,120.1085 298.8102,122.7874 297.3977,130.7751 293.2090,133.4539 293.2090,136.0841 297.3977,137.0095 307.2363,136.0841 312.8375,135.2073 314.2499,129.8984 318.4386,128.9730 318.4386,125.4175 322.6273,124.5408 319.8511,121.8620 325.4523,113.8742 332.4659,112.9975 336.6546,113.8742 332.4659,106.7632 335.2908,104.9610 335.2908,95.1712 332.4659,92.5411 340.8920,91.6156 350.6819,90.7389 352.0944,93.4178 363.3454,93.4178 373.1353,95.1712 373.1353,93.4178 373.1353,88.9368 370.3590,88.0601 367.5341,82.7512 366.1216,76.5168 359.1080,69.4058 354.9193,69.4058 352.0944,62.2947 343.6682,62.2947 340.8920,59.6159 328.2772,64.0481 325.4523,59.6159 321.2636,59.6159 321.2636,56.0604 318.4386,54.2583 311.4250,53.3816 310.0125,55.1350 293.2090,55.1350 290.3841,56.9371 279.1817,56.0604 279.1817,55.1350 279.1817,56.0604 286.1954,58.6905 291.7965,65.8503 288.9716,73.8380 291.7965,75.5914 294.5728,82.7512 291.7965,83.6279 288.9716,84.5046 287.5591,89.8622 291.7965,93.4178 286.1954,93.4178Z">
                    <desc xmlns="http://www.highcharts.com/svg/namespace">
<hasc>AF.BK</hasc>
<fips>AF30</fips>
<name>Balkh</name>
<type-en>Province</type-en>
<iso3166-2>AF-BAL</iso3166-2>
<hc-group>admin1</hc-group>
<hc-key>af-bal</hc-key>
<hc-a2>BL</hc-a2>
<hc-middle-lon>67.228</hc-middle-lon>
<hc-middle-lat>36.535</hc-middle-lat>
</desc>


                </path>
<path fill="#CEE3F5" stroke="#6E6E6E" stroke-width="0.4" id="undefined" d="M244.0648,122.7874 244.0648,121.8620 244.0648,122.7874 244.0648,121.8620 244.0648,119.1831 242.7011,111.1954 245.4773,107.6399 253.9034,105.8377 256.7284,99.6521 260.9171,97.8500 266.5182,97.8500 269.3432,96.0966 274.9443,96.9733 284.7829,96.0966 286.1954,93.4178 291.7965,93.4178 287.5591,89.8622 288.9716,84.5046 291.7965,83.6279 294.5728,82.7512 291.7965,75.5914 288.9716,73.8380 291.7965,65.8503 286.1954,58.6905 279.1817,56.0604 279.1817,55.1350 272.1681,53.3816 270.7556,50.7028 262.3295,49.8261 258.0921,47.1472 252.4910,46.2705 249.7147,50.7028 249.7147,56.9371 244.0648,61.3693 239.8761,61.3693 235.6874,67.6037 234.2750,77.3935 237.0512,78.2702 237.0512,81.8258 239.8761,82.7512 239.8761,86.3067 237.0512,91.6156 239.8761,92.5411 239.8761,99.6521 241.2886,104.0843 231.4500,104.0843 230.0376,107.6399 228.6738,108.5166 227.2613,117.4297 227.2613,123.6641 231.4500,124.5408 232.8625,124.5408 238.4637,125.4175 244.0648,124.5408 244.0648,122.7874Z">
                    <desc xmlns="http://www.highcharts.com/svg/namespace">
<hasc>AF.JW</hasc>
<fips>AF31</fips>
<name>Jowzjan</name>
<type-en>Province</type-en>
<iso3166-2>AF-JOW</iso3166-2>
<hc-group>admin1</hc-group>
<hc-key>af-jow</hc-key>
<hc-a2>JO</hc-a2>
<hc-middle-lon>65.868</hc-middle-lon>
<hc-middle-lat>36.724</hc-middle-lat>
</desc>


                </path>
<path fill="#CEE3F5" stroke="#6E6E6E" stroke-width="0.4" id="undefined" d="M53.2842,346.0548 53.2842,341.6226 53.2842,340.6972 53.2842,341.6226 53.2842,340.6972 54.6966,340.6972 56.1091,340.6972 56.1091,339.8205 56.1091,340.6972 56.1091,339.8205 57.5216,339.8205 56.1091,339.8205 56.1091,338.9438 57.5216,339.8205 56.1091,338.9438 56.1091,335.3883 60.2978,334.4628 60.2978,331.8327 67.3114,326.4751 67.3114,321.1175 71.5488,319.3640 71.5488,314.0064 75.7375,315.8085 95.4147,313.1297 98.1909,311.3763 103.7921,314.0064 108.0295,319.3640 115.0431,316.6852 119.2318,316.6852 126.2455,313.1297 126.2455,305.1419 127.6579,303.3398 136.0841,304.2165 141.6852,306.0186 147.2864,306.0186 150.1113,306.0186 155.7125,301.5864 161.3137,300.6610 164.1386,297.1055 171.1522,294.4754 169.7398,289.1177 179.5783,288.2410 183.7670,283.7601 182.3546,280.2046 186.5920,279.3279 187.9557,274.8956 197.7943,272.2168 196.3819,270.4147 199.2068,264.2291 204.8080,260.6735 204.8080,256.1926 201.9830,255.3159 197.7943,257.9947 194.9694,257.0693 189.3682,258.8714 186.5920,261.5502 179.5783,259.7481 178.1659,255.3159 173.9285,252.6371 175.3409,250.8837 172.5647,246.4027 168.3273,244.6493 168.3273,241.9705 162.7261,244.6493 161.3137,247.3281 152.8876,248.2048 147.2864,249.0815 145.8739,250.8837 140.2728,249.9583 137.4965,251.7604 133.2591,250.8837 133.2591,248.2048 134.6716,248.2048 133.2591,248.2048 134.6716,248.2048 136.0841,243.7239 130.4829,239.2917 130.4829,238.4150 130.4829,239.2917 129.0704,239.2917 124.8330,241.0938 124.8330,244.6493 127.6579,248.2048 127.6579,252.6371 123.4692,253.5138 124.8330,260.6735 116.4556,259.7481 108.0295,261.5502 106.6170,264.2291 102.4283,264.2291 99.6034,266.8592 94.0022,265.1058 88.4011,267.7846 88.4011,268.6613 88.4011,267.7846 88.4011,268.6613 82.7512,267.7846 74.3251,273.0935 72.9613,273.0935 68.7239,272.2168 68.7239,267.7846 64.5352,269.5380 61.7103,273.0935 56.1091,274.8956 51.9204,273.9702 56.1091,266.8592 65.9477,258.8714 60.2978,255.3159 60.2978,252.6371 64.5352,249.9583 65.9477,243.7239 54.6966,243.7239 54.6966,241.9705 49.0955,241.0938 44.9068,244.6493 42.0818,243.7239 32.2433,244.6493 21.0409,242.8472 19.6284,242.8472 16.8522,243.7239 16.8522,247.3281 11.2023,250.8837 4.1887,257.9947 4.1887,262.4269 8.4261,278.4512 15.4397,296.2288 15.4397,299.7843 18.2160,306.0186 15.4397,313.1297 15.4397,321.1175 14.0273,321.1175 14.0273,331.8327 15.4397,332.7094 15.4397,339.8205 19.6284,341.6226 30.8795,343.3760 53.2842,346.0548Z">
                    <desc xmlns="http://www.highcharts.com/svg/namespace">
<hasc>AF.FH</hasc>
<fips>AF06</fips>
<name>Farah</name>
<type-en>Province</type-en>
<iso3166-2>AF-FRA</iso3166-2>
<hc-group>admin1</hc-group>
<hc-key>af-fra</hc-key>
<hc-a2>FA</hc-a2>
<hc-middle-lon>62.665</hc-middle-lon>
<hc-middle-lat>32.49</hc-middle-lat>
</desc>


                </path>
<path fill="#CEE3F5" stroke="#6E6E6E" stroke-width="0.4" id="undefined" d="M21.0409,242.8472 19.6284,242.8472 21.0409,242.8472 32.2433,244.6493 42.0818,243.7239 44.9068,244.6493 49.0955,241.0938 54.6966,241.9705 54.6966,243.7239 65.9477,243.7239 64.5352,249.9583 60.2978,252.6371 60.2978,255.3159 65.9477,258.8714 56.1091,266.8592 51.9204,273.9702 56.1091,274.8956 61.7103,273.0935 64.5352,269.5380 68.7239,267.7846 68.7239,272.2168 72.9613,273.0935 74.3251,273.0935 82.7512,267.7846 88.4011,268.6613 88.4011,267.7846 88.4011,268.6613 88.4011,267.7846 94.0022,265.1058 99.6034,266.8592 102.4283,264.2291 106.6170,264.2291 108.0295,261.5502 116.4556,259.7481 124.8330,260.6735 123.4692,253.5138 127.6579,252.6371 127.6579,248.2048 124.8330,244.6493 124.8330,241.0938 129.0704,239.2917 130.4829,239.2917 130.4829,238.4150 138.8603,235.7362 144.5102,235.7362 147.2864,233.0573 145.8739,228.6251 147.2864,225.0696 148.6989,225.0696 147.2864,225.0696 148.6989,225.0696 150.1113,224.1929 143.0977,220.6374 143.0977,217.9585 138.8603,217.0818 141.6852,213.4776 144.5102,212.6009 144.5102,205.4898 152.8876,204.6131 164.1386,206.3665 166.9148,208.1687 171.1522,205.4898 176.7534,205.4898 176.7534,201.9343 179.5783,201.0576 178.1659,195.7000 186.5920,194.8233 192.1932,191.2677 192.1932,186.8355 192.1932,185.9101 179.5783,185.0334 173.9285,189.4656 171.1522,188.5889 166.9148,192.1444 161.3137,193.9466 157.1250,192.1444 145.8739,191.2677 143.0977,188.5889 131.8466,186.8355 129.0704,188.5889 123.4692,186.8355 123.4692,189.4656 119.2318,191.2677 112.2182,189.4656 110.8057,186.8355 115.0431,181.4779 109.4420,179.6758 110.8057,173.4901 105.2046,172.5647 106.6170,162.7748 109.4420,161.0214 108.0295,157.4659 99.6034,159.2193 95.4147,156.5892 86.9886,163.7003 86.9886,157.4659 78.5625,152.9850 75.7375,148.5527 54.6966,149.4294 42.0818,143.2438 42.0818,139.6883 36.4807,140.5650 37.8931,144.1205 35.0682,149.4294 32.2433,151.2316 32.2433,155.6638 28.0546,156.5892 29.4670,161.8981 29.4670,169.9346 26.6421,173.4901 26.6421,180.6012 23.8659,182.3546 23.8659,187.7122 19.6284,188.5889 18.2160,191.2677 11.2023,193.9466 15.4397,197.5021 15.4397,201.0576 19.6284,203.7364 7.0136,203.7364 0.0000,215.2797 2.8249,225.9463 1.4125,232.1806 4.1887,238.4150 8.4261,241.0938 18.2160,241.0938 21.0409,242.8472Z">
                    <desc xmlns="http://www.highcharts.com/svg/namespace">
<hasc>AF.HR</hasc>
<fips>AF11</fips>
<name>Herat</name>
<type-en>Province</type-en>
<iso3166-2>AF-HER</iso3166-2>
<hc-group>admin1</hc-group>
<hc-key>af-her</hc-key>
<hc-a2>HR</hc-a2>
<hc-middle-lon>62.497</hc-middle-lon>
<hc-middle-lat>34.238</hc-middle-lat>
</desc>


                </path>
<path fill="#CEE3F5" stroke="#6E6E6E" stroke-width="0.4" id="undefined" d="M192.1932,185.9101 192.1932,186.8355 192.1932,185.9101 196.3819,183.2313 204.8080,185.0334 211.8216,182.3546 217.4228,181.4779 221.6602,174.3668 218.8352,168.1325 207.6329,163.7003 203.3955,160.1447 194.9694,160.1447 190.7807,158.3426 189.3682,155.6638 192.1932,152.9850 192.1932,149.4294 183.7670,150.3549 182.3546,146.7993 169.7398,145.8739 169.7398,138.7629 164.1386,135.2073 166.9148,132.5285 166.9148,128.0963 169.7398,124.5408 169.7398,120.1085 169.7398,119.1831 155.7125,122.7874 147.2864,123.6641 145.8739,126.3429 136.0841,128.0963 126.2455,128.0963 126.2455,130.7751 130.4829,134.3306 131.8466,137.8862 126.2455,138.7629 126.2455,149.4294 119.2318,150.3549 117.8194,152.1083 108.0295,157.4659 109.4420,161.0214 106.6170,162.7748 105.2046,172.5647 110.8057,173.4901 109.4420,179.6758 115.0431,181.4779 110.8057,186.8355 112.2182,189.4656 119.2318,191.2677 123.4692,189.4656 123.4692,186.8355 129.0704,188.5889 131.8466,186.8355 143.0977,188.5889 145.8739,191.2677 157.1250,192.1444 161.3137,193.9466 166.9148,192.1444 171.1522,188.5889 173.9285,189.4656 179.5783,185.0334 192.1932,185.9101Z">
                    <desc xmlns="http://www.highcharts.com/svg/namespace">
<hasc>AF.BG</hasc>
<fips>AF02</fips>
<name>Badghis</name>
<type-en>Province</type-en>
<iso3166-2>AF-BDG</iso3166-2>
<hc-group>admin1</hc-group>
<hc-key>af-bdg</hc-key>
<hc-a2>BD</hc-a2>
<hc-middle-lon>63.867</hc-middle-lon>
<hc-middle-lat>35.275</hc-middle-lat>
</desc>


                </path>
<path fill="#CEE3F5" stroke="#6E6E6E" stroke-width="0.4" id="undefined" d="M203.3955,160.1447 206.2204,158.3426 218.8352,158.3426 223.0239,157.4659 231.4500,158.3426 231.4500,161.0214 232.8625,161.0214 239.8761,158.3426 239.8761,157.4659 238.4637,154.7871 238.4637,147.6760 241.2886,144.9972 241.2886,137.8862 249.7147,137.0095 252.4910,131.6518 258.0921,129.8984 253.9034,120.1085 249.7147,121.8620 244.0648,121.8620 244.0648,122.7874 244.0648,124.5408 238.4637,125.4175 232.8625,124.5408 231.4500,124.5408 227.2613,123.6641 227.2613,117.4297 228.6738,108.5166 230.0376,107.6399 231.4500,104.0843 241.2886,104.0843 239.8761,99.6521 239.8761,92.5411 237.0512,91.6156 239.8761,86.3067 239.8761,82.7512 237.0512,81.8258 237.0512,78.2702 234.2750,77.3935 235.6874,67.6037 239.8761,61.3693 227.2613,61.3693 224.4364,60.4926 217.4228,62.2947 206.2204,66.7270 208.9967,76.5168 203.3955,82.7512 199.2068,90.7389 200.6193,99.6521 196.3819,105.8377 189.3682,110.3187 183.7670,112.0721 183.7670,113.8742 176.7534,113.8742 172.5647,116.5530 172.5647,120.9852 169.7398,120.1085 169.7398,124.5408 166.9148,128.0963 166.9148,132.5285 164.1386,135.2073 169.7398,138.7629 169.7398,145.8739 182.3546,146.7993 183.7670,150.3549 192.1932,149.4294 192.1932,152.9850 189.3682,155.6638 190.7807,158.3426 194.9694,160.1447 203.3955,160.1447Z">
                    <desc xmlns="http://www.highcharts.com/svg/namespace">
<hasc>AF.FB</hasc>
<fips>AF07</fips>
<name>Faryab</name>
<type-en>Province</type-en>
<iso3166-2>AF-FYB</iso3166-2>
<hc-group>admin1</hc-group>
<hc-key>af-fyb</hc-key>
<hc-a2>FR</hc-a2>
<hc-middle-lon>64.851</hc-middle-lon>
<hc-middle-lat>36.207</hc-middle-lat>
</desc>


                </path>
<path fill="#CEE3F5" stroke="#6E6E6E" stroke-width="0.4" id="undefined" d="M130.4829,239.2917 136.0841,243.7239 134.6716,248.2048 133.2591,248.2048 134.6716,248.2048 133.2591,248.2048 133.2591,250.8837 137.4965,251.7604 140.2728,249.9583 145.8739,250.8837 147.2864,249.0815 152.8876,248.2048 161.3137,247.3281 162.7261,244.6493 168.3273,241.9705 168.3273,244.6493 172.5647,246.4027 175.3409,250.8837 173.9285,252.6371 178.1659,255.3159 179.5783,259.7481 186.5920,261.5502 189.3682,258.8714 194.9694,257.0693 197.7943,257.9947 201.9830,255.3159 204.8080,256.1926 210.4091,257.0693 213.2341,254.4392 223.0239,252.6371 223.0239,249.9583 230.0376,249.9583 234.2750,248.2048 242.7011,239.2917 249.7147,234.8594 246.8898,231.3039 242.7011,231.3039 238.4637,224.1929 241.2886,220.6374 245.4773,220.6374 244.0648,217.0818 244.0648,216.1564 244.0648,217.0818 244.0648,216.1564 239.8761,211.7242 246.8898,212.6009 249.7147,210.8475 251.0785,209.9221 249.7147,203.7364 249.7147,201.0576 255.3159,202.8110 266.5182,202.8110 267.9307,201.0576 273.5319,201.0576 274.9443,202.8110 283.3704,201.9343 286.1954,204.6131 291.7965,204.6131 298.8102,191.2677 302.9989,187.7122 294.5728,182.3546 290.3841,175.2435 287.5591,174.3668 280.5455,176.1202 273.5319,176.1202 273.5319,168.1325 272.1681,165.4537 262.3295,166.3304 251.0785,160.1447 249.7147,156.5892 246.8898,158.3426 239.8761,158.3426 239.8761,157.4659 239.8761,158.3426 232.8625,161.0214 231.4500,161.0214 231.4500,158.3426 223.0239,157.4659 218.8352,158.3426 206.2204,158.3426 203.3955,160.1447 207.6329,163.7003 218.8352,168.1325 221.6602,174.3668 217.4228,181.4779 211.8216,182.3546 204.8080,185.0334 196.3819,183.2313 192.1932,185.9101 192.1932,186.8355 192.1932,191.2677 186.5920,194.8233 178.1659,195.7000 179.5783,201.0576 176.7534,201.9343 176.7534,205.4898 171.1522,205.4898 166.9148,208.1687 164.1386,206.3665 152.8876,204.6131 144.5102,205.4898 144.5102,212.6009 141.6852,213.4776 138.8603,217.0818 143.0977,217.9585 143.0977,220.6374 150.1113,224.1929 148.6989,225.0696 147.2864,225.0696 148.6989,225.0696 147.2864,225.0696 145.8739,228.6251 147.2864,233.0573 144.5102,235.7362 138.8603,235.7362 130.4829,238.4150 130.4829,239.2917Z">
                    <desc xmlns="http://www.highcharts.com/svg/namespace">
<hasc>AF.GR</hasc>
<fips>AF09</fips>
<name>Ghor</name>
<type-en>Province</type-en>
<iso3166-2>AF-GHO</iso3166-2>
<hc-group>admin1</hc-group>
<hc-key>af-gho</hc-key>
<hc-a2>GH</hc-a2>
<hc-middle-lon>64.964</hc-middle-lon>
<hc-middle-lat>34.201</hc-middle-lat>
</desc>


                </path>
<path fill="#CEE3F5" stroke="#6E6E6E" stroke-width="0.4" id="undefined" d="M230.0376,249.9583 235.6874,257.0693 235.6874,262.4269 239.8761,264.2291 241.2886,259.7481 246.8898,260.6735 253.9034,265.1058 253.9034,267.7846 262.3295,270.4147 265.1545,265.9825 270.7556,260.6735 270.7556,257.9947 284.7829,253.5138 290.3841,252.6371 294.5728,255.3159 304.4114,252.6371 304.4114,254.4392 310.0125,253.5138 308.6001,252.6371 308.6001,238.4150 311.4250,237.5383 325.4523,234.8594 328.2772,229.5018 333.8784,228.6251 336.6546,225.0696 328.2772,218.8352 329.6410,217.9585 328.2772,218.8352 325.4523,219.7119 324.0398,219.7119 325.4523,219.7119 324.0398,219.7119 314.2499,222.3908 312.8375,219.7119 307.2363,219.7119 307.2363,217.9585 301.5864,219.7119 294.5728,218.8352 290.3841,216.1564 290.3841,207.2920 291.7965,204.6131 286.1954,204.6131 283.3704,201.9343 274.9443,202.8110 273.5319,201.0576 267.9307,201.0576 266.5182,202.8110 255.3159,202.8110 249.7147,201.0576 249.7147,203.7364 251.0785,209.9221 249.7147,210.8475 246.8898,212.6009 239.8761,211.7242 244.0648,216.1564 244.0648,217.0818 244.0648,216.1564 244.0648,217.0818 245.4773,220.6374 241.2886,220.6374 238.4637,224.1929 242.7011,231.3039 246.8898,231.3039 249.7147,234.8594 242.7011,239.2917 234.2750,248.2048 230.0376,249.9583Z">
                    <desc xmlns="http://www.highcharts.com/svg/namespace">
<hasc>AF.DK</hasc>
<fips>AF41</fips>
<name>Daykundi</name>
<type-en>Province</type-en>
<iso3166-2>AF-DAY</iso3166-2>
<hc-group>admin1</hc-group>
<hc-key>af-day</hc-key>
<hc-a2>DA</hc-a2>
<hc-middle-lon>66.323</hc-middle-lon>
<hc-middle-lat>33.648</hc-middle-lat>
</desc>


                </path>
<path fill="#CEE3F5" stroke="#6E6E6E" stroke-width="0.4" id="undefined" d="M343.6682,339.8205 350.6819,339.8205 356.3318,334.4628 367.5341,331.8327 370.3590,328.2772 366.1216,326.4751 364.7092,322.0429 367.5341,318.4873 367.5341,312.2530 360.5205,312.2530 356.3318,309.5742 350.6819,308.6975 350.6819,303.3398 346.4932,301.5864 353.5068,298.9076 353.5068,296.2288 349.3181,295.3521 345.0807,290.9198 347.9056,287.3156 342.3045,283.7601 333.8784,275.7723 332.4659,270.4147 326.8647,267.7846 324.0398,265.1058 318.4386,264.2291 319.8511,269.5380 315.6137,271.3401 317.0262,274.8956 314.2499,274.8956 312.8375,274.8956 310.0125,275.7723 305.8238,277.5745 305.8238,276.6490 305.8238,277.5745 305.8238,276.6490 300.2227,280.2046 300.2227,282.0067 297.3977,284.6855 297.3977,278.4512 293.2090,279.3279 293.2090,280.2046 293.2090,279.3279 293.2090,280.2046 286.1954,283.7601 281.9580,292.6733 284.7829,292.6733 290.3841,289.1177 295.9852,294.4754 293.2090,298.0309 287.5591,299.7843 286.1954,304.2165 281.9580,306.0186 283.3704,307.8208 283.3704,320.2407 276.3568,322.9196 276.3568,326.4751 283.3704,330.9073 288.9716,328.2772 291.7965,327.3518 298.8102,323.7963 302.9989,326.4751 310.0125,326.4751 314.2499,329.1539 326.8647,329.1539 336.6546,335.3883 336.6546,338.0671 338.0671,339.8205 343.6682,339.8205Z">
                    <desc xmlns="http://www.highcharts.com/svg/namespace">
<hasc>AF.ZB</hasc>
<fips>AF28</fips>
<name>Zabul</name>
<type-en>Province</type-en>
<iso3166-2>AF-ZAB</iso3166-2>
<hc-group>admin1</hc-group>
<hc-key>af-zab</hc-key>
<hc-a2>ZA</hc-a2>
<hc-middle-lon>67.149</hc-middle-lon>
<hc-middle-lat>32.288</hc-middle-lat>
</desc>


                </path>
<path fill="#CEE3F5" stroke="#6E6E6E" stroke-width="0.4" id="undefined" d="M287.5591,174.3668 290.3841,175.2435 294.5728,182.3546 302.9989,187.7122 298.8102,191.2677 291.7965,204.6131 290.3841,207.2920 290.3841,216.1564 294.5728,218.8352 301.5864,219.7119 307.2363,217.9585 307.2363,219.7119 312.8375,219.7119 314.2499,222.3908 324.0398,219.7119 325.4523,219.7119 324.0398,219.7119 325.4523,219.7119 328.2772,218.8352 329.6410,217.9585 332.4659,213.4776 335.2908,212.6009 332.4659,208.1687 336.6546,207.2920 336.6546,206.3665 336.6546,207.2920 336.6546,206.3665 339.4795,203.7364 333.8784,202.8110 336.6546,201.0576 335.2908,198.3788 331.0534,198.3788 329.6410,198.3788 328.2772,198.3788 328.2772,199.2555 328.2772,198.3788 328.2772,199.2555 328.2772,193.9466 331.0534,193.9466 329.6410,187.7122 332.4659,186.8355 342.3045,185.9101 349.3181,187.7122 363.3454,188.5889 366.1216,185.0334 370.3590,185.0334 373.1353,182.3546 373.1353,181.4779 373.1353,182.3546 373.1353,181.4779 377.3727,179.6758 377.3727,173.4901 373.1353,169.0092 366.1216,167.2558 366.1216,166.3304 364.7092,166.3304 366.1216,166.3304 364.7092,166.3304 364.7092,162.7748 368.9466,157.4659 368.9466,147.6760 354.9193,146.7993 349.3181,147.6760 331.0534,147.6760 329.6410,149.4294 322.6273,150.3549 312.8375,152.9850 310.0125,152.1083 310.0125,151.2316 310.0125,152.1083 308.6001,152.1083 304.4114,153.9104 300.2227,160.1447 283.3704,161.0214 280.5455,163.7003 286.1954,167.2558 287.5591,169.9346 287.5591,174.3668Z">
                    <desc xmlns="http://www.highcharts.com/svg/namespace">
<hasc>AF.BM</hasc>
<fips>AF05</fips>
<name>Bamyan</name>
<type-en>Province</type-en>
<iso3166-2>AF-BAM</iso3166-2>
<hc-group>admin1</hc-group>
<hc-key>af-bam</hc-key>
<hc-a2>BM</hc-a2>
<hc-middle-lon>67.272</hc-middle-lon>
<hc-middle-lat>34.697</hc-middle-lat>
</desc>


                </path>
<path fill="#CEE3F5" stroke="#6E6E6E" stroke-width="0.4" id="undefined" d="M399.7773,228.6251 402.6023,237.5383 413.8046,238.4150 415.2171,234.8594 416.6296,232.1806 422.2307,230.4272 422.2307,228.6251 427.8319,227.7484 432.0693,222.3908 437.6705,219.7119 437.6705,216.1564 446.0966,216.1564 447.5090,217.9585 451.6977,217.0818 451.6977,214.4030 455.9352,215.2797 455.9352,216.1564 455.9352,215.2797 453.1102,209.0454 448.9215,206.3665 436.2580,210.8475 432.0693,209.9221 427.8319,201.0576 422.2307,203.7364 412.4409,201.9343 411.0284,201.9343 406.7910,207.2920 406.7910,208.1687 406.7910,207.2920 406.7910,208.1687 404.0148,210.8475 404.0148,217.0818 408.2035,217.9585 401.1898,221.5141 401.1898,224.1929 402.6023,226.8230 399.7773,228.6251Z">
                    <desc xmlns="http://www.highcharts.com/svg/namespace">
<hasc>AF.LW</hasc>
<fips>AF17</fips>
<name>Logar</name>
<type-en>Province</type-en>
<iso3166-2>AF-LOG</iso3166-2>
<hc-group>admin1</hc-group>
<hc-key>af-log</hc-key>
<hc-a2>LO</hc-a2>
<hc-middle-lon>69.298</hc-middle-lon>
<hc-middle-lat>33.982</hc-middle-lat>
</desc>


                </path>
<path fill="#CEE3F5" stroke="#6E6E6E" stroke-width="0.4" id="undefined" d="M411.0284,201.9343 412.4409,201.9343 422.2307,203.7364 427.8319,201.0576 432.0693,209.9221 436.2580,210.8475 439.0829,206.3665 443.2716,204.6131 446.0966,200.1809 450.2853,198.3788 454.5227,199.2555 454.5227,185.0334 455.9352,184.1567 458.7114,182.3546 457.2989,178.7991 457.2989,177.9223 457.2989,177.0456 457.2989,177.9223 450.2853,180.6012 450.2853,184.1567 447.5090,186.8355 443.2716,186.8355 441.9079,186.8355 434.8455,190.3910 433.4818,183.2313 429.2444,180.6012 427.8319,179.6758 429.2444,177.9223 425.0557,175.2435 420.8183,176.1202 412.4409,174.3668 409.6159,177.0456 409.6159,181.4779 406.7910,183.2313 406.7910,188.5889 405.4272,189.4656 405.4272,196.5767 411.0284,198.3788 411.0284,201.9343Z">
                    <desc xmlns="http://www.highcharts.com/svg/namespace">
<hasc>AF.KB</hasc>
<fips>AF13</fips>
<name>Kabul</name>
<type-en>Province</type-en>
<iso3166-2>AF-KAB</iso3166-2>
<hc-group>admin1</hc-group>
<hc-key>af-kab</hc-key>
<hc-a2>KB</hc-a2>
<hc-middle-lon>69.389</hc-middle-lon>
<hc-middle-lat>34.526</hc-middle-lat>
</desc>


                </path>
<path fill="#CEE3F5" stroke="#6E6E6E" stroke-width="0.4" id="undefined" d="M437.6705,265.9825 440.4954,262.4269 448.9215,261.5502 458.7114,262.4269 458.7114,260.6735 464.3126,259.7481 464.3126,257.0693 469.9624,257.0693 476.9761,250.8837 476.9761,246.4027 469.9624,241.9705 471.3262,236.6129 468.5500,235.7362 468.5500,232.1806 462.9488,232.1806 453.1102,235.7362 454.5227,238.4150 448.9215,238.4150 446.0966,234.8594 440.4954,233.9827 437.6705,238.4150 437.6705,242.8472 440.4954,241.9705 440.4954,248.2048 436.2580,252.6371 432.0693,254.4392 432.0693,255.3159 432.0693,263.3036 430.6568,265.1058 437.6705,265.9825Z">
                    <desc xmlns="http://www.highcharts.com/svg/namespace">
<hasc>AF.KT</hasc>
<fips>AF37</fips>
<name>Khost</name>
<type-en>Province</type-en>
<iso3166-2>AF-KHO</iso3166-2>
<hc-group>admin1</hc-group>
<hc-key>af-kho</hc-key>
<hc-a2>KH</hc-a2>
<hc-middle-lon>69.838</hc-middle-lon>
<hc-middle-lat>33.379</hc-middle-lat>
</desc>


                </path>
<path fill="#CEE3F5" stroke="#6E6E6E" stroke-width="0.4" id="undefined" d="M405.4272,247.3281 411.0284,247.3281 412.4409,250.8837 412.4409,258.8714 413.8046,260.6735 418.0420,257.0693 423.6432,255.3159 432.0693,255.3159 432.0693,254.4392 436.2580,252.6371 440.4954,248.2048 440.4954,241.9705 437.6705,242.8472 437.6705,238.4150 440.4954,233.9827 446.0966,234.8594 448.9215,238.4150 454.5227,238.4150 453.1102,235.7362 462.9488,232.1806 460.1239,230.4272 460.1239,226.8230 454.5227,222.3908 457.2989,217.0818 455.9352,216.1564 455.9352,215.2797 451.6977,214.4030 451.6977,217.0818 447.5090,217.9585 446.0966,216.1564 437.6705,216.1564 437.6705,219.7119 432.0693,222.3908 427.8319,227.7484 422.2307,228.6251 422.2307,230.4272 416.6296,232.1806 415.2171,234.8594 413.8046,238.4150 402.6023,237.5383 402.6023,243.7239 405.4272,247.3281Z">
                    <desc xmlns="http://www.highcharts.com/svg/namespace">
<hasc>AF.PT</hasc>
<fips>AF18</fips>
<name>Paktia</name>
<type-en>Province</type-en>
<iso3166-2>AF-PIA</iso3166-2>
<hc-group>admin1</hc-group>
<hc-key>af-pia</hc-key>
<hc-a2>PK</hc-a2>
<hc-middle-lon>69.389</hc-middle-lon>
<hc-middle-lat>33.616</hc-middle-lat>
</desc>


                </path>
<path fill="#CEE3F5" stroke="#6E6E6E" stroke-width="0.4" id="undefined" d="M230.0376,299.7843 230.0376,300.6610 239.8761,302.4631 241.2886,295.3521 244.0648,294.4754 245.4773,288.2410 249.7147,288.2410 251.0785,293.5500 267.9307,292.6733 272.1681,290.9198 272.1681,291.7965 272.1681,290.9198 272.1681,291.7965 273.5319,294.4754 277.7693,293.5500 281.9580,292.6733 286.1954,283.7601 293.2090,280.2046 293.2090,279.3279 293.2090,280.2046 293.2090,279.3279 297.3977,278.4512 297.3977,284.6855 300.2227,282.0067 300.2227,280.2046 305.8238,276.6490 305.8238,277.5745 305.8238,276.6490 305.8238,277.5745 310.0125,275.7723 312.8375,274.8956 314.2499,274.8956 317.0262,274.8956 315.6137,271.3401 308.6001,269.5380 311.4250,266.8592 311.4250,262.4269 314.2499,261.5502 315.6137,253.5138 310.0125,253.5138 304.4114,254.4392 304.4114,252.6371 294.5728,255.3159 290.3841,252.6371 284.7829,253.5138 270.7556,257.9947 270.7556,260.6735 265.1545,265.9825 262.3295,270.4147 253.9034,267.7846 253.9034,265.1058 246.8898,260.6735 241.2886,259.7481 239.8761,264.2291 235.6874,262.4269 230.0376,267.7846 228.6738,273.0935 228.6738,282.0067 225.8489,283.7601 231.4500,283.7601 231.4500,294.4754 230.0376,299.7843Z">
                    <desc xmlns="http://www.highcharts.com/svg/namespace">
<hasc>AF.OZ</hasc>
<fips>AF39</fips>
<name>Uruzgan</name>
<type-en>Province</type-en>
<iso3166-2>AF-URU</iso3166-2>
<hc-group>admin1</hc-group>
<hc-key>af-uru</hc-key>
<hc-a2>UR</hc-a2>
<hc-middle-lon>66.097</hc-middle-lon>
<hc-middle-lat>32.8</hc-middle-lat>
</desc>


                </path>
<path fill="#CEE3F5" stroke="#6E6E6E" stroke-width="0.4" id="undefined" d="M239.8761,157.4659 239.8761,158.3426 246.8898,158.3426 249.7147,156.5892 251.0785,160.1447 262.3295,166.3304 272.1681,165.4537 273.5319,168.1325 273.5319,176.1202 280.5455,176.1202 287.5591,174.3668 287.5591,169.9346 286.1954,167.2558 280.5455,163.7003 283.3704,161.0214 300.2227,160.1447 304.4114,153.9104 308.6001,152.1083 310.0125,152.1083 310.0125,151.2316 312.8375,149.4294 312.8375,145.8739 317.0262,143.2438 314.2499,140.5650 317.0262,137.0095 312.8375,135.2073 307.2363,136.0841 297.3977,137.0095 293.2090,136.0841 293.2090,133.4539 297.3977,130.7751 298.8102,122.7874 295.9852,120.1085 295.9852,113.8742 290.3841,110.3187 290.3841,107.6399 286.1954,107.6399 280.5455,100.5288 287.5591,97.8500 286.1954,93.4178 284.7829,96.0966 274.9443,96.9733 269.3432,96.0966 266.5182,97.8500 260.9171,97.8500 256.7284,99.6521 253.9034,105.8377 245.4773,107.6399 242.7011,111.1954 244.0648,119.1831 244.0648,121.8620 244.0648,122.7874 244.0648,121.8620 249.7147,121.8620 253.9034,120.1085 258.0921,129.8984 252.4910,131.6518 249.7147,137.0095 241.2886,137.8862 241.2886,144.9972 238.4637,147.6760 238.4637,154.7871 239.8761,157.4659Z">
                    <desc xmlns="http://www.highcharts.com/svg/namespace">
<hasc>AF.SP</hasc>
<fips>AF33</fips>
<name>Sar-e Pol</name>
<type-en>Province</type-en>
<iso3166-2>AF-SAR</iso3166-2>
<hc-group>admin1</hc-group>
<hc-key>af-sar</hc-key>
<hc-a2>SP</hc-a2>
<hc-middle-lon>66.209</hc-middle-lon>
<hc-middle-lat>35.719</hc-middle-lat>
</desc>


                </path>
<path fill="#CEE3F5" stroke="#6E6E6E" stroke-width="0.4" id="undefined" d="M426.4681,161.8981 427.8319,161.8981 433.4818,161.0214 434.8455,162.7748 440.4954,162.7748 448.9215,161.8981 451.6977,166.3304 453.1102,166.3304 453.1102,162.7748 457.2989,162.7748 460.1239,160.1447 460.1239,159.2193 461.5363,155.6638 457.2989,153.9104 465.7250,147.6760 469.9624,146.7993 469.9624,142.3184 472.7387,142.3184 474.1511,137.8862 475.5636,134.3306 474.1511,127.2196 469.9624,126.3429 468.5500,129.8984 460.1239,130.7751 457.2989,134.3306 451.6977,136.0841 450.2853,143.2438 446.0966,144.1205 441.9079,147.6760 434.8455,147.6760 433.4818,149.4294 427.8319,150.3549 426.4681,150.3549 426.4681,151.2316 425.0557,152.9850 425.0557,161.8981 426.4681,161.8981Z">
                    <desc xmlns="http://www.highcharts.com/svg/namespace">
<hasc>AF.PJ</hasc>
<fips>AF42</fips>
<name>Panjshir</name>
<type-en>Province</type-en>
<iso3166-2>AF-PAN</iso3166-2>
<hc-group>admin1</hc-group>
<hc-key>af-pan</hc-key>
<hc-a2>PN</hc-a2>
<hc-middle-lon>69.759</hc-middle-lon>
<hc-middle-lat>35.489</hc-middle-lat>
</desc>


                </path>
<path fill="#CEE3F5" stroke="#6E6E6E" stroke-width="0.4" id="undefined" d="M367.5341,312.2530 367.5341,318.4873 364.7092,322.0429 366.1216,326.4751 370.3590,328.2772 373.1353,325.5984 377.3727,325.5984 377.3727,328.2772 387.1625,328.2772 391.3999,330.0306 392.7637,328.2772 385.7501,328.2772 392.7637,323.7963 395.5886,327.3518 398.4136,327.3518 401.1898,332.7094 405.4272,336.2650 413.8046,334.4628 416.6296,330.9073 419.4545,330.9073 422.2307,322.9196 429.2444,319.3640 426.4681,313.1297 426.4681,304.2165 427.8319,298.9076 425.0557,297.1055 426.4681,289.9944 432.0693,289.1177 434.8455,284.6855 434.8455,280.2046 432.0693,277.5745 439.0829,273.9702 437.6705,273.0935 437.6705,265.9825 430.6568,265.1058 432.0693,263.3036 432.0693,255.3159 432.0693,254.4392 432.0693,255.3159 423.6432,255.3159 418.0420,257.0693 413.8046,260.6735 412.4409,258.8714 412.4409,250.8837 411.0284,247.3281 405.4272,247.3281 398.4136,250.8837 395.5886,257.0693 385.7501,263.3036 387.1625,266.8592 377.3727,274.8956 375.9602,278.4512 371.7228,281.1300 364.7092,281.1300 359.1080,276.6490 354.9193,282.8834 361.9329,286.4389 361.9329,288.2410 367.5341,291.7965 368.9466,306.0186 367.5341,312.2530Z">
                    <desc xmlns="http://www.highcharts.com/svg/namespace">
<hasc>AF.PK</hasc>
<fips>AF29</fips>
<name>Paktika</name>
<type-en>Province</type-en>
<iso3166-2>AF-PKA</iso3166-2>
<hc-group>admin1</hc-group>
<hc-key>af-pka</hc-key>
<hc-a2>PK</hc-a2>
<hc-middle-lon>68.679</hc-middle-lon>
<hc-middle-lat>32.505</hc-middle-lat>
</desc>


                </path>
<path fill="#CEE3F5" stroke="#6E6E6E" stroke-width="0.4" id="undefined" d="M310.0125,253.5138 315.6137,253.5138 314.2499,261.5502 311.4250,262.4269 311.4250,266.8592 308.6001,269.5380 315.6137,271.3401 319.8511,269.5380 318.4386,264.2291 324.0398,265.1058 326.8647,267.7846 332.4659,270.4147 333.8784,275.7723 342.3045,283.7601 347.9056,287.3156 345.0807,290.9198 349.3181,295.3521 353.5068,296.2288 353.5068,298.9076 346.4932,301.5864 350.6819,303.3398 350.6819,308.6975 356.3318,309.5742 360.5205,312.2530 367.5341,312.2530 368.9466,306.0186 367.5341,291.7965 361.9329,288.2410 361.9329,286.4389 354.9193,282.8834 359.1080,276.6490 364.7092,281.1300 371.7228,281.1300 375.9602,278.4512 377.3727,274.8956 387.1625,266.8592 385.7501,263.3036 395.5886,257.0693 398.4136,250.8837 405.4272,247.3281 402.6023,243.7239 402.6023,237.5383 399.7773,228.6251 397.0011,232.1806 391.3999,233.9827 388.5750,232.1806 388.5750,233.0573 388.5750,232.1806 388.5750,233.0573 387.1625,232.1806 384.3863,231.3039 378.7364,233.9827 373.1353,228.6251 377.3727,225.0696 377.3727,221.5141 371.7228,220.6374 370.3590,213.4776 367.5341,212.6009 370.3590,209.9221 367.5341,208.1687 361.9329,211.7242 356.3318,210.8475 350.6819,208.1687 342.3045,209.0454 338.0671,211.7242 335.2908,212.6009 332.4659,213.4776 329.6410,217.9585 328.2772,218.8352 336.6546,225.0696 333.8784,228.6251 328.2772,229.5018 325.4523,234.8594 311.4250,237.5383 308.6001,238.4150 308.6001,252.6371 310.0125,253.5138Z">
                    <desc xmlns="http://www.highcharts.com/svg/namespace">
<hasc>AF.GZ</hasc>
<fips>AF08</fips>
<name>Ghazni</name>
<type-en>Province</type-en>
<iso3166-2>AF-GHA</iso3166-2>
<hc-group>admin1</hc-group>
<hc-key>af-gha</hc-key>
<hc-a2>GA</hc-a2>
<hc-middle-lon>67.826</hc-middle-lon>
<hc-middle-lat>33.148</hc-middle-lat>
</desc>


                </path>
<path fill="#CEE3F5" stroke="#6E6E6E" stroke-width="0.4" id="undefined" d="M328.2772,199.2555 328.2772,198.3788 328.2772,199.2555 328.2772,198.3788 329.6410,198.3788 331.0534,198.3788 335.2908,198.3788 336.6546,201.0576 333.8784,202.8110 339.4795,203.7364 336.6546,206.3665 336.6546,207.2920 336.6546,206.3665 336.6546,207.2920 332.4659,208.1687 335.2908,212.6009 338.0671,211.7242 342.3045,209.0454 350.6819,208.1687 356.3318,210.8475 361.9329,211.7242 367.5341,208.1687 370.3590,209.9221 367.5341,212.6009 370.3590,213.4776 371.7228,220.6374 377.3727,221.5141 377.3727,225.0696 373.1353,228.6251 378.7364,233.9827 384.3863,231.3039 387.1625,232.1806 388.5750,233.0573 388.5750,232.1806 388.5750,233.0573 388.5750,232.1806 391.3999,233.9827 397.0011,232.1806 399.7773,228.6251 402.6023,226.8230 401.1898,224.1929 401.1898,221.5141 408.2035,217.9585 404.0148,217.0818 404.0148,210.8475 406.7910,208.1687 406.7910,207.2920 406.7910,208.1687 406.7910,207.2920 411.0284,201.9343 411.0284,198.3788 405.4272,196.5767 405.4272,189.4656 406.7910,188.5889 398.4136,187.7122 394.1762,185.0334 389.9875,185.0334 382.9738,188.5889 377.3727,179.6758 373.1353,181.4779 373.1353,182.3546 373.1353,181.4779 373.1353,182.3546 370.3590,185.0334 366.1216,185.0334 363.3454,188.5889 349.3181,187.7122 342.3045,185.9101 332.4659,186.8355 329.6410,187.7122 331.0534,193.9466 328.2772,193.9466 328.2772,199.2555Z">
                    <desc xmlns="http://www.highcharts.com/svg/namespace">
<hasc>AF.VR</hasc>
<fips>AF27</fips>
<name>Maidan Wardak</name>
<type-en>Province</type-en>
<iso3166-2>AF-WAR</iso3166-2>
<hc-group>admin1</hc-group>
<hc-key>af-war</hc-key>
<hc-a2>MW</hc-a2>
<hc-middle-lon>68.093</hc-middle-lon>
<hc-middle-lat>34.239</hc-middle-lat>
</desc>


                </path>
</g>
        
<text x="350" y="715" text-anchor="middle" font-family="Verdana" font-size="8" stroke-opacity="0.6">
            Copyright (c) 2024 Highsoft AS, Based on data from OpenStreetMap</text>

        </svg>