<?xml version="1.0" encoding="utf-8" standalone="no"?>
<!DOCTYPE svg PUBLIC "-//W3C//DTD SVG 1.1//EN" "http://www.w3.org/Graphics/SVG/1.1/DTD/svg11.dtd">

<svg version="1.1" height="700pt" width="700pt" xmlns="http://www.w3.org/2000/svg" xmlns:xlink="http://www.w3.org/1999/xlink">
<desc>
Map version: 1.1.3
Copyright (c) 2020 Highsoft AS, Based on data from Natural Earth
</desc>
<title>Republic of the Congo</title>
<g id="admin1">

<g id="CG">
  <desc xmlns="http://www.highcharts.com/svg/namespace">
    <name>Republic of Congo</name>
    <labelrank>4</labelrank>
    <country-abbrev>Rep. Congo</country-abbrev>
    <subregion>Middle Africa</subregion>
    <region-wb>Sub-Saharan Africa</region-wb>
    <iso-a3>COG</iso-a3>
    <iso-a2>CG</iso-a2>
    <woe-id>23424779</woe-id>
    <continent>Africa</continent>
    <hc-key>cg</hc-key>
    <hc-a2>RO</hc-a2>
  </desc>
</g>

<path fill="#CEE3F5" stroke="#6E6E6E" stroke-width="0.4" id="CG.NI" d="M198.8,680.6 L193.5,678.5 L192.0,681.4 L183.7,688.8 L181.0,681.6 L174.2,678.5 L166.0,672.1 L161.1,664.2 L157.8,666.2 L158.0,668.9 L154.3,667.0 L149.0,660.8 L144.2,656.5 L142.8,652.6 L140.3,650.3 L134.6,650.1 L130.5,645.8 L126.9,644.5 L121.7,644.7 L119.1,643.7 L116.2,639.9 L116.1,632.9 L114.6,629.7 L107.9,622.1 L103.5,620.4 L102.4,617.7 L88.5,613.9 L87.7,611.3 L82.6,609.0 L76.4,607.5 L65.5,599.7 L60.1,597.5 L58.5,595.0 L61.7,593.1 L63.7,589.6 L63.1,587.9 L58.0,585.5 L57.4,582.0 L63.1,569.2 L67.6,564.9 L66.8,562.3 L56.9,558.5 L51.9,554.8 L46.0,551.8 L46.1,545.5 L47.5,542.1 L53.3,540.2 L52.1,536.6 L46.0,530.2 L41.8,524.7 L37.9,524.9 L33.3,527.4 L33.8,521.9 L39.7,512.3 L40.8,508.6 L40.3,504.9 L37.5,499.9 L37.4,492.3 L35.4,485.9 L39.2,484.3 L44.4,486.1 L48.6,490.2 L51.4,491.1 L55.4,487.8 L66.1,484.2 L71.1,489.1 L76.1,491.0 L108.1,484.2 L107.2,482.4 L109.4,474.7 L109.0,470.2 L111.3,465.4 L108.2,464.0 L105.8,458.1 L105.1,449.5 L111.3,451.1 L113.2,446.7 L118.0,443.8 L122.0,443.7 L125.4,445.1 L131.1,449.2 L135.9,451.2 L139.3,460.6 L143.2,466.5 L142.4,469.5 L144.2,473.3 L147.3,472.3 L152.6,480.7 L149.0,487.0 L151.2,486.5 L155.8,488.6 L155.1,492.3 L154.8,506.0 L155.7,517.3 L157.8,522.4 L151.7,527.3 L153.8,531.3 L157.3,532.0 L162.2,536.9 L160.3,544.3 L160.5,549.0 L156.7,553.8 L153.0,556.5 L145.7,557.9 L145.6,560.7 L140.8,562.0 L138.4,561.2 L134.6,562.1 L129.6,561.9 L125.9,563.9 L123.9,569.8 L120.0,571.2 L120.3,574.6 L124.2,577.6 L124.2,580.2 L122.2,582.0 L121.1,586.4 L122.9,592.6 L122.1,594.6 L123.3,598.7 L120.1,602.8 L125.0,606.8 L129.8,614.2 L134.1,619.1 L141.1,625.4 L145.4,632.4 L151.1,643.6 L157.2,648.2 L161.6,648.2 L171.4,650.3 L174.3,652.5 L182.6,664.8 L183.2,667.7 L197.3,676.1 Z">
  <desc xmlns="http://www.highcharts.com/svg/namespace">
    <labelrank>6</labelrank>
    <hasc>CG.NI</hasc>
    <alt-name>NULL</alt-name>
    <woe-id>2344972</woe-id>
    <subregion>NULL</subregion>
    <fips>CF07</fips>
    <postal-code>NI</postal-code>
    <name>Niari</name>
    <country>Republic of the Congo</country>
    <type-en>Region</type-en>
    <region>NULL</region>
    <longitude>12.3646</longitude>
    <woe-name>Niari</woe-name>
    <latitude>-2.97914</latitude>
    <woe-label>Niari, CG, Congo</woe-label>
    <type>Région</type>
    <hc-middle-x>0.47</hc-middle-x>
    <hc-middle-y>0.36</hc-middle-y>
    <hc-key>cg-ni</hc-key>
    <hc-a2>NI</hc-a2>
  </desc>
</path>

<path fill="#CEE3F5" stroke="#6E6E6E" stroke-width="0.4" id="CG.PL" d="M446.4,424.8 L443.7,430.8 L443.3,435.9 L435.6,446.5 L434.9,448.6 L431.4,450.6 L424.3,457.8 L412.1,467.9 L408.6,474.0 L407.7,480.6 L411.6,508.5 L409.9,520.3 L407.7,528.3 L408.3,532.9 L401.2,532.0 L396.1,533.4 L390.9,531.0 L389.2,528.3 L379.2,523.6 L371.3,525.3 L366.7,529.1 L360.1,531.8 L351.0,538.2 L345.3,540.1 L341.0,539.2 L332.5,539.2 L326.0,536.4 L322.5,529.4 L315.7,528.6 L312.2,529.8 L308.0,529.2 L307.4,521.3 L304.3,515.0 L296.8,519.2 L295.9,523.3 L291.7,526.1 L285.5,531.5 L284.6,533.3 L278.4,538.3 L274.3,544.1 L267.1,540.4 L262.3,540.5 L255.3,538.8 L253.4,536.2 L257.1,530.4 L259.8,528.5 L256.8,517.8 L255.3,518.8 L256.3,513.3 L252.4,512.4 L248.3,513.1 L243.7,511.7 L243.5,510.1 L247.3,507.1 L242.3,503.9 L244.7,502.4 L240.4,495.9 L242.9,492.4 L243.3,489.5 L247.0,486.7 L250.9,485.8 L250.6,483.5 L244.5,478.3 L244.2,475.6 L249.2,472.6 L248.7,470.5 L251.5,467.2 L252.6,460.6 L251.1,459.0 L252.6,455.0 L262.0,451.3 L263.6,458.8 L266.7,459.6 L271.0,459.0 L274.4,455.3 L279.7,452.0 L284.0,444.6 L291.6,435.2 L293.8,430.5 L298.7,426.6 L302.7,424.9 L307.2,424.9 L311.6,423.0 L314.7,420.2 L320.2,413.1 L324.4,400.1 L326.0,396.6 L331.3,389.7 L342.5,382.6 L348.6,375.7 L354.7,374.6 L359.7,372.5 L370.1,374.2 L373.2,382.0 L380.1,384.2 L385.7,387.1 L389.3,391.7 L396.0,392.9 L401.1,395.1 L411.0,401.5 L415.3,402.8 L418.6,408.3 L421.2,415.4 L429.1,420.9 L433.0,421.2 L437.4,419.7 L441.4,421.1 L441.9,425.0 Z">
  <desc xmlns="http://www.highcharts.com/svg/namespace">
    <labelrank>6</labelrank>
    <hasc>CG.PL</hasc>
    <alt-name>NULL</alt-name>
    <woe-id>2344973</woe-id>
    <subregion>NULL</subregion>
    <fips>CF08</fips>
    <postal-code>PL</postal-code>
    <name>Plateaux</name>
    <country>Republic of the Congo</country>
    <type-en>Region</type-en>
    <region>NULL</region>
    <longitude>15.3777</longitude>
    <woe-name>Plateaux</woe-name>
    <latitude>-2.04221</latitude>
    <woe-label>NULL</woe-label>
    <type>Région</type>
    <hc-middle-x>0.45</hc-middle-x>
    <hc-middle-y>0.53</hc-middle-y>
    <hc-key>cg-pl</hc-key>
    <hc-a2>PL</hc-a2>
  </desc>
</path>

<path fill="#CEE3F5" stroke="#6E6E6E" stroke-width="0.4" id="CG.BR" d="M390.0,603.0 L387.8,606.5 L386.3,611.2 L383.9,613.4 L377.3,616.1 L370.1,617.2 L358.5,620.8 L354.8,623.9 L352.3,631.8 L349.8,634.9 L344.0,637.3 L329.3,644.9 L328.0,647.6 L320.8,657.8 L319.0,659.4 L314.5,652.4 L309.4,646.9 L315.0,638.9 L318.5,630.3 L321.1,626.2 L322.4,620.1 L320.5,610.9 L320.5,606.7 L322.7,602.6 L327.2,600.0 L330.2,596.8 L331.8,592.0 L333.4,576.4 L335.0,573.6 L339.8,575.8 L347.9,578.3 L357.5,588.9 L361.5,587.5 L365.1,580.4 L370.2,577.6 L377.6,580.5 L384.1,591.1 L385.7,597.5 Z">
  <desc xmlns="http://www.highcharts.com/svg/namespace">
    <labelrank>6</labelrank>
    <hasc>CG.BR</hasc>
    <alt-name>NULL</alt-name>
    <woe-id>2344976</woe-id>
    <subregion>NULL</subregion>
    <fips>CF12</fips>
    <postal-code>BR</postal-code>
    <name>Brazzaville</name>
    <country>Republic of the Congo</country>
    <type-en>Region</type-en>
    <region>NULL</region>
    <longitude>15.3319</longitude>
    <woe-name>Brazzaville</woe-name>
    <latitude>-4.06879</latitude>
    <woe-label>Brazzaville, CG, Congo</woe-label>
    <type>Région</type>
    <hc-middle-x>0.51</hc-middle-x>
    <hc-middle-y>0.36</hc-middle-y>
    <hc-key>cg-br</hc-key>
    <hc-a2>BR</hc-a2>
  </desc>
</path>

<path fill="#CEE3F5" stroke="#6E6E6E" stroke-width="0.4" id="CG.7280" d="M62.6,686.9 L57.2,681.2 L59.9,680.3 L58.9,677.8 L63.5,677.7 L63.5,686.9 Z">
  <desc xmlns="http://www.highcharts.com/svg/namespace">
    <labelrank>6</labelrank>
    <hasc>CG.KO</hasc>
    <alt-name>NULL</alt-name>
    <woe-id>2344969</woe-id>
    <subregion>NULL</subregion>
    <fips>CF04</fips>
    <postal-code>NULL</postal-code>
    <name>Pointe Noire</name>
    <country>Republic of the Congo</country>
    <type-en>Region</type-en>
    <region>NULL</region>
    <longitude>11.859</longitude>
    <woe-name>Kouilou</woe-name>
    <latitude>-4.80537</latitude>
    <woe-label>Kouilou, CG, Congo</woe-label>
    <type>Région</type>
    <hc-middle-x>0.50</hc-middle-x>
    <hc-middle-y>0.50</hc-middle-y>
    <hc-key>cg-7280</hc-key>
    <hc-a2>PN</hc-a2>
  </desc>
</path>

<path fill="#CEE3F5" stroke="#6E6E6E" stroke-width="0.4" id="CG.BO" d="M224.9,657.1 L220.9,656.3 L219.0,653.2 L215.6,651.9 L209.2,655.1 L210.1,662.8 L208.3,669.3 L209.4,672.8 L206.8,675.9 L203.1,676.0 L198.8,680.6 L197.3,676.1 L183.2,667.7 L182.6,664.8 L174.3,652.5 L171.4,650.3 L161.6,648.2 L157.2,648.2 L151.1,643.6 L145.4,632.4 L141.1,625.4 L134.1,619.1 L129.8,614.2 L125.0,606.8 L120.1,602.8 L123.3,598.7 L122.1,594.6 L122.9,592.6 L121.1,586.4 L122.2,582.0 L124.2,580.2 L129.6,579.9 L129.2,581.9 L135.4,582.9 L136.9,588.3 L138.6,588.8 L141.4,595.4 L143.1,596.5 L143.9,604.5 L150.2,608.0 L154.4,612.2 L161.7,611.5 L164.9,612.3 L171.7,610.8 L173.4,612.0 L179.9,612.1 L180.4,616.1 L182.6,621.0 L187.6,622.1 L193.2,619.5 L193.9,614.1 L197.0,610.4 L200.2,603.6 L197.7,599.3 L201.3,599.1 L204.2,596.6 L209.7,596.5 L209.8,594.2 L213.5,591.6 L215.4,586.4 L218.1,584.9 L221.1,580.8 L224.0,582.5 L230.8,584.0 L235.6,583.2 L240.1,577.8 L244.5,574.4 L252.0,577.8 L255.2,582.3 L257.2,588.3 L251.7,591.9 L249.4,591.8 L251.7,596.9 L256.1,603.2 L257.1,606.9 L260.1,608.1 L262.8,613.9 L258.4,618.3 L252.4,616.8 L250.7,619.4 L244.0,625.4 L245.5,628.6 L244.6,631.5 L238.8,633.8 L234.5,637.8 L230.4,639.4 L228.7,642.9 L228.3,648.3 Z">
  <desc xmlns="http://www.highcharts.com/svg/namespace">
    <labelrank>6</labelrank>
    <hasc>CG.BO</hasc>
    <alt-name>NULL</alt-name>
    <woe-id>2344967</woe-id>
    <subregion>NULL</subregion>
    <fips>CF01</fips>
    <postal-code>BO</postal-code>
    <name>Bouenza</name>
    <country>Republic of the Congo</country>
    <type-en>Region</type-en>
    <region>NULL</region>
    <longitude>13.491</longitude>
    <woe-name>Bouenza</woe-name>
    <latitude>-4.36333</latitude>
    <woe-label>Bouenza, CG, Congo</woe-label>
    <type>Région</type>
    <hc-middle-x>0.71</hc-middle-x>
    <hc-middle-y>0.40</hc-middle-y>
    <hc-key>cg-bo</hc-key>
    <hc-a2>BO</hc-a2>
  </desc>
</path>

<path fill="#CEE3F5" stroke="#6E6E6E" stroke-width="0.4" id="CG.LI" d="M427.9,78.9 L432.4,68.1 L429.6,63.9 L429.3,60.3 L433.0,51.5 L430.9,44.4 L434.6,38.7 L437.1,30.0 L437.8,23.3 L439.1,19.7 L444.9,14.6 L452.1,13.4 L458.8,15.1 L462.0,14.2 L462.1,12.0 L469.3,12.5 L471.4,14.1 L478.9,11.5 L491.1,9.6 L494.8,6.6 L500.8,7.2 L504.2,3.6 L510.8,0.0 L512.7,0.3 L518.2,4.8 L524.4,6.5 L533.5,6.3 L539.0,7.9 L541.8,13.4 L548.4,11.5 L553.0,13.5 L561.1,11.5 L565.3,13.7 L567.4,18.1 L570.8,17.5 L573.2,14.8 L574.5,10.5 L583.1,9.9 L589.1,8.4 L592.5,5.8 L595.9,9.0 L601.5,18.2 L605.0,18.3 L606.3,30.5 L605.5,42.2 L604.0,46.2 L597.2,51.4 L592.3,64.7 L589.0,70.9 L586.4,79.6 L580.3,90.0 L574.6,95.2 L568.8,109.9 L563.7,115.6 L560.6,124.1 L561.3,130.1 L561.4,141.5 L560.2,148.2 L560.6,172.9 L555.9,183.3 L552.2,196.8 L551.9,201.8 L544.1,215.8 L545.1,221.4 L545.1,227.7 L547.5,237.9 L546.3,246.3 L548.3,254.4 L551.1,259.3 L550.1,268.4 L543.2,278.0 L536.8,295.2 L535.3,298.1 L532.0,313.0 L532.0,317.1 L534.0,325.1 L534.7,339.3 L527.8,346.5 L526.9,348.8 L518.3,358.0 L517.1,357.5 L496.8,357.2 L493.7,355.8 L491.0,352.5 L491.6,347.1 L490.4,342.7 L492.4,336.8 L488.9,333.0 L486.5,334.5 L486.0,330.5 L488.7,326.7 L485.1,324.5 L488.0,321.2 L486.5,319.8 L486.6,313.6 L489.3,311.2 L487.8,304.9 L486.4,291.7 L489.7,289.4 L488.2,284.1 L490.6,280.5 L482.8,268.5 L478.2,265.7 L451.3,231.1 L449.5,226.3 L449.4,218.3 L451.1,215.5 L455.9,212.4 L457.7,201.1 L456.0,194.1 L453.7,191.3 L451.4,185.2 L451.5,181.3 L449.9,179.2 L452.5,173.7 L450.4,164.1 L454.5,153.4 L452.9,145.9 L452.8,139.6 L451.7,132.8 L452.5,129.0 L454.5,127.8 L452.9,121.5 L453.4,112.5 L452.6,106.0 L447.7,97.8 L443.4,96.0 L438.6,96.3 L437.9,92.8 L433.0,88.1 L432.9,83.7 L431.2,80.4 Z">
  <desc xmlns="http://www.highcharts.com/svg/namespace">
    <labelrank>6</labelrank>
    <hasc>CG.LI</hasc>
    <alt-name>NULL</alt-name>
    <woe-id>2344971</woe-id>
    <subregion>NULL</subregion>
    <fips>CF06</fips>
    <postal-code>LI</postal-code>
    <name>Likouala</name>
    <country>Republic of the Congo</country>
    <type-en>Region</type-en>
    <region>NULL</region>
    <longitude>17.5344</longitude>
    <woe-name>Likouala</woe-name>
    <latitude>1.45488</latitude>
    <woe-label>Likuoala, CG, Congo</woe-label>
    <type>Région</type>
    <hc-middle-x>0.43</hc-middle-x>
    <hc-middle-y>0.47</hc-middle-y>
    <hc-key>cg-li</hc-key>
    <hc-a2>LI</hc-a2>
  </desc>
</path>

<path fill="#CEE3F5" stroke="#6E6E6E" stroke-width="0.4" id="CG.SA" d="M427.9,78.9 L431.2,80.4 L432.9,83.7 L433.0,88.1 L437.9,92.8 L438.6,96.3 L443.4,96.0 L447.7,97.8 L452.6,106.0 L453.4,112.5 L452.9,121.5 L454.5,127.8 L452.5,129.0 L451.7,132.8 L452.8,139.6 L452.9,145.9 L454.5,153.4 L450.4,164.1 L452.5,173.7 L449.9,179.2 L451.5,181.3 L451.4,185.2 L453.7,191.3 L456.0,194.1 L457.7,201.1 L455.9,212.4 L451.1,215.5 L449.4,218.3 L449.5,226.3 L451.3,231.1 L478.2,265.7 L421.1,294.0 L419.9,291.6 L417.0,291.8 L411.2,287.8 L407.5,289.0 L403.9,287.4 L403.7,283.7 L401.9,281.5 L402.0,276.7 L398.0,271.4 L391.9,269.6 L389.5,265.3 L383.5,261.8 L376.2,260.9 L374.2,261.7 L370.5,260.0 L360.1,263.4 L358.8,266.4 L355.4,269.0 L344.8,266.1 L342.6,267.0 L336.0,266.2 L335.9,264.4 L335.9,264.4 L329.4,261.3 L325.3,257.3 L320.3,255.1 L319.8,250.6 L321.1,247.0 L319.8,242.3 L320.5,232.2 L318.5,226.2 L322.4,222.2 L324.9,221.5 L324.1,217.2 L318.9,213.7 L308.8,212.4 L301.3,208.1 L298.2,204.5 L294.6,202.7 L288.3,202.2 L279.6,199.6 L274.9,196.0 L273.4,187.0 L272.1,185.9 L261.8,187.0 L257.2,186.8 L250.0,188.8 L247.1,186.7 L242.3,185.7 L236.3,187.1 L230.9,183.8 L215.7,182.4 L212.8,187.0 L203.4,188.6 L198.3,191.3 L195.4,194.5 L190.3,195.0 L185.0,193.5 L180.4,194.0 L171.8,199.4 L166.5,199.4 L163.7,196.6 L166.8,193.8 L170.5,192.4 L170.9,182.9 L166.9,175.1 L164.9,174.1 L162.1,169.7 L163.5,168.1 L163.8,156.6 L166.2,153.7 L167.2,149.5 L164.7,145.1 L168.6,140.5 L168.4,137.6 L174.3,133.4 L175.4,124.1 L253.8,124.9 L258.1,123.4 L263.2,124.1 L267.2,126.5 L275.7,124.0 L277.6,120.4 L279.7,121.0 L283.6,126.0 L286.5,126.4 L290.4,129.1 L290.4,126.9 L293.7,129.1 L293.9,131.9 L298.9,131.3 L301.4,127.8 L305.4,132.4 L304.2,136.6 L309.9,136.3 L311.3,134.5 L315.2,137.5 L320.3,138.4 L325.1,133.8 L331.7,134.6 L336.1,138.1 L337.8,142.3 L341.0,143.3 L348.3,139.5 L351.8,139.1 L362.2,141.7 L369.9,142.6 L374.5,144.4 L377.6,148.3 L384.0,151.8 L384.6,153.7 L395.6,156.9 L395.3,159.3 L399.1,164.8 L402.8,159.6 L406.3,158.3 L404.4,149.5 L401.7,142.5 L398.7,138.8 L400.9,128.5 L400.2,126.1 L401.9,121.6 L406.3,122.5 L410.2,119.2 L409.3,118.1 Z">
  <desc xmlns="http://www.highcharts.com/svg/namespace">
    <labelrank>6</labelrank>
    <hasc>CG.SA</hasc>
    <alt-name>NULL</alt-name>
    <woe-id>2344974</woe-id>
    <subregion>NULL</subregion>
    <fips>CF10</fips>
    <postal-code>SA</postal-code>
    <name>Sangha</name>
    <country>Republic of the Congo</country>
    <type-en>Region</type-en>
    <region>NULL</region>
    <longitude>15.7466</longitude>
    <woe-name>Sangha</woe-name>
    <latitude>1.12682</latitude>
    <woe-label>Sangha, CG, Congo</woe-label>
    <type>Région</type>
    <hc-middle-x>0.67</hc-middle-x>
    <hc-middle-y>0.55</hc-middle-y>
    <hc-key>cg-sa</hc-key>
    <hc-a2>SA</hc-a2>
  </desc>
</path>

<path fill="#CEE3F5" stroke="#6E6E6E" stroke-width="0.4" id="CG.CU" d="M336.0,266.2 L342.6,267.0 L344.8,266.1 L355.4,269.0 L358.8,266.4 L360.1,263.4 L370.5,260.0 L374.2,261.7 L376.2,260.9 L383.5,261.8 L389.5,265.3 L391.9,269.6 L398.0,271.4 L402.0,276.7 L401.9,281.5 L403.7,283.7 L403.9,287.4 L407.5,289.0 L411.2,287.8 L417.0,291.8 L419.9,291.6 L421.1,294.0 L478.2,265.7 L482.8,268.5 L490.6,280.5 L488.2,284.1 L489.7,289.4 L486.4,291.7 L487.8,304.9 L489.3,311.2 L486.6,313.6 L486.5,319.8 L488.0,321.2 L485.1,324.5 L488.7,326.7 L486.0,330.5 L486.5,334.5 L488.9,333.0 L492.4,336.8 L490.4,342.7 L491.6,347.1 L491.0,352.5 L493.7,355.8 L496.8,357.2 L517.1,357.5 L518.3,358.0 L507.4,371.0 L498.2,379.2 L488.3,381.4 L483.0,383.6 L476.5,385.1 L466.9,394.4 L461.3,398.5 L452.0,415.9 L446.4,424.8 L441.9,425.0 L441.4,421.1 L437.4,419.7 L433.0,421.2 L429.1,420.9 L421.2,415.4 L418.6,408.3 L415.3,402.8 L411.0,401.5 L401.1,395.1 L396.0,392.9 L389.3,391.7 L385.7,387.1 L380.1,384.2 L373.2,382.0 L370.1,374.2 L359.7,372.5 L354.7,374.6 L348.6,375.7 L342.5,382.6 L331.3,389.7 L326.0,396.6 L324.4,400.1 L320.2,413.1 L314.7,420.2 L311.6,423.0 L307.2,424.9 L302.7,424.9 L298.7,426.6 L293.8,430.5 L291.6,435.2 L284.0,444.6 L279.7,452.0 L274.4,455.3 L271.0,459.0 L266.7,459.6 L263.6,458.8 L262.0,451.3 L264.9,449.0 L264.3,445.5 L265.6,434.6 L268.5,432.4 L264.8,431.2 L261.7,426.5 L265.6,424.3 L267.0,421.9 L269.6,421.4 L267.6,417.7 L269.1,412.7 L271.6,410.2 L267.1,405.5 L266.9,403.1 L269.4,399.7 L269.8,395.4 L267.7,392.3 L278.1,390.5 L283.9,388.9 L287.8,386.2 L291.1,386.9 L306.2,386.4 L312.3,385.0 L316.7,381.2 L324.6,372.3 L327.8,366.0 L326.4,363.4 L313.7,352.4 L321.7,343.4 L325.0,335.3 L321.3,321.0 L320.1,318.2 L311.4,316.6 L308.9,315.4 L305.0,305.2 L303.9,297.7 L304.6,294.7 L316.3,294.4 L328.4,291.3 L332.5,287.0 L331.2,281.6 L326.0,277.8 L323.7,273.2 L332.0,268.9 L335.9,264.4 L335.9,264.4 Z">
  <desc xmlns="http://www.highcharts.com/svg/namespace">
    <labelrank>6</labelrank>
    <hasc>CG.CU</hasc>
    <alt-name>NULL</alt-name>
    <woe-id>2344968</woe-id>
    <subregion>NULL</subregion>
    <fips>CF13</fips>
    <postal-code>CU</postal-code>
    <name>Cuvette</name>
    <country>Republic of the Congo</country>
    <type-en>Region</type-en>
    <region>NULL</region>
    <longitude>15.9548</longitude>
    <woe-name>Cuvette</woe-name>
    <latitude>-0.393114</latitude>
    <woe-label>NULL</woe-label>
    <type>Région</type>
    <hc-middle-x>0.52</hc-middle-x>
    <hc-middle-y>0.36</hc-middle-y>
    <hc-key>cg-cu</hc-key>
    <hc-a2>CU</hc-a2>
  </desc>
</path>

<path fill="#CEE3F5" stroke="#6E6E6E" stroke-width="0.4" id="CG.PO" d="M408.3,532.9 L408.7,544.3 L408.4,548.6 L409.5,551.5 L409.0,556.8 L411.7,560.9 L410.1,566.7 L406.2,573.5 L402.7,581.3 L397.7,587.4 L390.0,603.0 L385.7,597.5 L384.1,591.1 L377.6,580.5 L370.2,577.6 L365.1,580.4 L361.5,587.5 L357.5,588.9 L347.9,578.3 L339.8,575.8 L335.0,573.6 L333.4,576.4 L331.8,592.0 L330.2,596.8 L327.2,600.0 L322.7,602.6 L320.5,606.7 L320.5,610.9 L322.4,620.1 L321.1,626.2 L318.5,630.3 L315.0,638.9 L309.4,646.9 L314.5,652.4 L319.0,659.4 L314.7,661.6 L307.3,669.6 L299.3,683.1 L289.0,689.0 L283.5,690.2 L274.3,685.2 L270.3,686.1 L264.7,688.8 L265.7,680.1 L264.6,676.9 L265.2,671.9 L261.9,668.0 L260.6,663.2 L262.6,660.3 L265.7,659.0 L270.3,652.2 L266.9,649.9 L263.5,644.9 L264.3,641.0 L262.1,640.1 L255.0,642.8 L250.3,646.6 L244.2,649.0 L237.2,649.9 L234.2,651.1 L228.9,657.2 L224.9,657.1 L228.3,648.3 L228.7,642.9 L230.4,639.4 L234.5,637.8 L238.8,633.8 L244.6,631.5 L245.5,628.6 L244.0,625.4 L250.7,619.4 L252.4,616.8 L258.4,618.3 L262.8,613.9 L260.1,608.1 L257.1,606.9 L256.1,603.2 L251.7,596.9 L249.4,591.8 L251.7,591.9 L257.2,588.3 L255.2,582.3 L252.0,577.8 L244.5,574.4 L240.1,577.8 L235.6,583.2 L230.8,584.0 L224.0,582.5 L221.1,580.8 L224.0,576.3 L226.0,571.0 L230.0,567.8 L242.6,552.2 L245.4,542.0 L247.5,539.6 L253.4,536.2 L255.3,538.8 L262.3,540.5 L267.1,540.4 L274.3,544.1 L278.4,538.3 L284.6,533.3 L285.5,531.5 L291.7,526.1 L295.9,523.3 L296.8,519.2 L304.3,515.0 L307.4,521.3 L308.0,529.2 L312.2,529.8 L315.7,528.6 L322.5,529.4 L326.0,536.4 L332.5,539.2 L341.0,539.2 L345.3,540.1 L351.0,538.2 L360.1,531.8 L366.7,529.1 L371.3,525.3 L379.2,523.6 L389.2,528.3 L390.9,531.0 L396.1,533.4 L401.2,532.0 Z">
  <desc xmlns="http://www.highcharts.com/svg/namespace">
    <labelrank>6</labelrank>
    <hasc>CG.PO</hasc>
    <alt-name>NULL</alt-name>
    <woe-id>2344975</woe-id>
    <subregion>NULL</subregion>
    <fips>CF11</fips>
    <postal-code>PO</postal-code>
    <name>Pool</name>
    <country>Republic of the Congo</country>
    <type-en>Region</type-en>
    <region>NULL</region>
    <longitude>15.0436</longitude>
    <woe-name>Pool</woe-name>
    <latitude>-3.71115</latitude>
    <woe-label>Pool, CG, Congo</woe-label>
    <type>Région</type>
    <hc-middle-x>0.36</hc-middle-x>
    <hc-middle-y>0.47</hc-middle-y>
    <hc-key>cg-po</hc-key>
    <hc-a2>PO</hc-a2>
  </desc>
</path>

<path fill="#CEE3F5" stroke="#6E6E6E" stroke-width="0.4" id="CG.CO" d="M335.9,264.4 L332.0,268.9 L323.7,273.2 L326.0,277.8 L331.2,281.6 L332.5,287.0 L328.4,291.3 L316.3,294.4 L304.6,294.7 L303.9,297.7 L305.0,305.2 L308.9,315.4 L311.4,316.6 L320.1,318.2 L321.3,321.0 L325.0,335.3 L321.7,343.4 L313.7,352.4 L326.4,363.4 L327.8,366.0 L324.6,372.3 L316.7,381.2 L312.3,385.0 L306.2,386.4 L291.1,386.9 L287.8,386.2 L283.9,388.9 L278.1,390.5 L267.7,392.3 L267.3,388.3 L263.9,379.3 L265.5,371.2 L269.1,365.9 L268.7,357.5 L272.5,347.9 L269.9,341.6 L261.2,334.3 L255.9,332.3 L252.0,333.5 L247.8,332.6 L245.1,333.8 L244.4,327.5 L242.0,321.5 L237.0,318.1 L230.8,318.3 L225.9,316.4 L222.4,318.2 L218.6,313.8 L219.6,309.5 L225.9,301.6 L225.2,298.7 L226.2,294.6 L223.8,293.8 L223.4,288.0 L221.9,281.6 L227.8,269.3 L235.5,264.2 L237.3,260.8 L235.9,257.5 L238.4,254.1 L242.4,253.6 L250.9,253.9 L258.8,247.6 L259.5,241.7 L261.9,238.4 L268.4,231.9 L267.5,227.2 L270.0,224.2 L264.6,219.6 L260.2,210.2 L256.3,208.5 L254.4,204.8 L254.3,196.6 L252.6,190.7 L250.0,188.8 L257.2,186.8 L261.8,187.0 L272.1,185.9 L273.4,187.0 L274.9,196.0 L279.6,199.6 L288.3,202.2 L294.6,202.7 L298.2,204.5 L301.3,208.1 L308.8,212.4 L318.9,213.7 L324.1,217.2 L324.9,221.5 L322.4,222.2 L318.5,226.2 L320.5,232.2 L319.8,242.3 L321.1,247.0 L319.8,250.6 L320.3,255.1 L325.3,257.3 L329.4,261.3 L335.9,264.4 Z">
  <desc xmlns="http://www.highcharts.com/svg/namespace">
    <labelrank>6</labelrank>
    <hasc>CG.CO</hasc>
    <alt-name>NULL</alt-name>
    <woe-id>55998384</woe-id>
    <subregion>NULL</subregion>
    <fips>CF10</fips>
    <postal-code>CO</postal-code>
    <name>Cuvette-Ouest</name>
    <country>Republic of the Congo</country>
    <type-en>Region</type-en>
    <region>NULL</region>
    <longitude>14.558</longitude>
    <woe-name>Cuvette-Ouest</woe-name>
    <latitude>0.034861</latitude>
    <woe-label>NULL</woe-label>
    <type>Région</type>
    <hc-middle-x>0.51</hc-middle-x>
    <hc-middle-y>0.50</hc-middle-y>
    <hc-key>cg-co</hc-key>
    <hc-a2>CO</hc-a2>
  </desc>
</path>

<path fill="#CEE3F5" stroke="#6E6E6E" stroke-width="0.4" id="CG.KO" d="M134.6,650.1 L131.0,650.5 L129.4,654.3 L125.6,657.4 L122.7,662.0 L120.5,663.4 L111.6,665.0 L106.2,666.8 L102.8,666.7 L101.8,672.9 L98.4,679.5 L90.6,682.6 L86.8,679.8 L84.4,688.0 L82.3,691.4 L72.5,700.0 L63.3,689.1 L62.6,686.9 L63.5,686.9 L63.5,677.7 L58.9,677.8 L54.1,672.9 L57.5,667.6 L56.0,664.6 L46.9,655.5 L31.1,642.0 L23.3,636.2 L20.3,631.5 L19.8,627.4 L12.6,621.8 L0.0,613.4 L1.2,611.1 L6.5,596.7 L7.9,594.2 L17.7,587.0 L24.1,585.3 L27.4,580.5 L29.6,579.0 L33.6,579.6 L36.6,581.8 L43.1,592.1 L46.2,594.1 L50.6,593.6 L58.5,595.0 L60.1,597.5 L65.5,599.7 L76.4,607.5 L82.6,609.0 L87.7,611.3 L88.5,613.9 L102.4,617.7 L103.5,620.4 L107.9,622.1 L114.6,629.7 L116.1,632.9 L116.2,639.9 L119.1,643.7 L121.7,644.7 L126.9,644.5 L130.5,645.8 Z">
  <desc xmlns="http://www.highcharts.com/svg/namespace">
    <labelrank>6</labelrank>
    <hasc>CG.KO</hasc>
    <alt-name>NULL</alt-name>
    <woe-id>2344969</woe-id>
    <subregion>NULL</subregion>
    <fips>CF04</fips>
    <postal-code>KO</postal-code>
    <name>Kouilou</name>
    <country>Republic of the Congo</country>
    <type-en>Region</type-en>
    <region>NULL</region>
    <longitude>11.9549</longitude>
    <woe-name>Kouilou</woe-name>
    <latitude>-4.3684</latitude>
    <woe-label>Kouilou, CG, Congo</woe-label>
    <type>Région</type>
    <hc-middle-x>0.48</hc-middle-x>
    <hc-middle-y>0.45</hc-middle-y>
    <hc-key>cg-ko</hc-key>
    <hc-a2>KO</hc-a2>
  </desc>
</path>

<path fill="#CEE3F5" stroke="#6E6E6E" stroke-width="0.4" id="CG.LE" d="M253.4,536.2 L247.5,539.6 L245.4,542.0 L242.6,552.2 L230.0,567.8 L226.0,571.0 L224.0,576.3 L221.1,580.8 L218.1,584.9 L215.4,586.4 L213.5,591.6 L209.8,594.2 L209.7,596.5 L204.2,596.6 L201.3,599.1 L197.7,599.3 L200.2,603.6 L197.0,610.4 L193.9,614.1 L193.2,619.5 L187.6,622.1 L182.6,621.0 L180.4,616.1 L179.9,612.1 L173.4,612.0 L171.7,610.8 L164.9,612.3 L161.7,611.5 L154.4,612.2 L150.2,608.0 L143.9,604.5 L143.1,596.5 L141.4,595.4 L138.6,588.8 L136.9,588.3 L135.4,582.9 L129.2,581.9 L129.6,579.9 L124.2,580.2 L124.2,577.6 L120.3,574.6 L120.0,571.2 L123.9,569.8 L125.9,563.9 L129.6,561.9 L134.6,562.1 L138.4,561.2 L140.8,562.0 L145.6,560.7 L145.7,557.9 L153.0,556.5 L156.7,553.8 L160.5,549.0 L160.3,544.3 L162.2,536.9 L157.3,532.0 L153.8,531.3 L151.7,527.3 L157.8,522.4 L155.7,517.3 L154.8,506.0 L155.1,492.3 L155.8,488.6 L151.2,486.5 L155.7,485.1 L162.6,487.8 L166.8,486.8 L180.8,492.0 L189.6,492.5 L190.6,490.3 L195.9,485.6 L199.5,483.8 L201.5,480.0 L207.6,474.1 L208.9,469.9 L211.6,465.4 L213.8,467.1 L218.1,477.4 L221.1,481.1 L221.3,483.3 L224.7,486.4 L220.0,491.5 L219.9,495.0 L223.1,496.7 L228.9,495.3 L231.8,497.8 L235.5,496.6 L239.6,497.5 L240.4,495.9 L244.7,502.4 L242.3,503.9 L247.3,507.1 L243.5,510.1 L243.7,511.7 L248.3,513.1 L252.4,512.4 L256.3,513.3 L255.3,518.8 L256.8,517.8 L259.8,528.5 L257.1,530.4 Z">
  <desc xmlns="http://www.highcharts.com/svg/namespace">
    <labelrank>6</labelrank>
    <hasc>CG.LE</hasc>
    <alt-name>NULL</alt-name>
    <woe-id>2344970</woe-id>
    <subregion>NULL</subregion>
    <fips>CF05</fips>
    <postal-code>LE</postal-code>
    <name>Lékoumou</name>
    <country>Republic of the Congo</country>
    <type-en>Region</type-en>
    <region>NULL</region>
    <longitude>13.4727</longitude>
    <woe-name>Lékoumou</woe-name>
    <latitude>-3.2378</latitude>
    <woe-label>Lékoumou, CG, Congo</woe-label>
    <type>Région</type>
    <hc-middle-x>0.49</hc-middle-x>
    <hc-middle-y>0.59</hc-middle-y>
    <hc-key>cg-le</hc-key>
    <hc-a2>LE</hc-a2>
  </desc>
</path>
</g>

<text x="350" y="714" text-anchor="middle" font-family="Verdana" font-size="8" stroke-opacity="0.6">Copyright (c) 2020 Highsoft AS, Based on data from Natural Earth</text>

</svg>