<?xml version="1.0" encoding="utf-8" standalone="no"?>
<!DOCTYPE svg PUBLIC "-//W3C//DTD SVG 1.1//EN" "http://www.w3.org/Graphics/SVG/1.1/DTD/svg11.dtd">

<svg version="1.1" height="700pt" width="700pt" xmlns="http://www.w3.org/2000/svg" xmlns:xlink="http://www.w3.org/1999/xlink">
<desc>
Map version: 1.1.3
Copyright (c) 2020 Highsoft AS, Based on data from Natural Earth
</desc>
<title>Belgium</title>
<g id="admin1">

<g id="BE">
  <desc xmlns="http://www.highcharts.com/svg/namespace">
    <name>Belgium</name>
    <labelrank>2</labelrank>
    <country-abbrev>Belg.</country-abbrev>
    <subregion>Western Europe</subregion>
    <region-wb>Europe &amp; Central Asia</region-wb>
    <iso-a3>BEL</iso-a3>
    <iso-a2>BE</iso-a2>
    <woe-id>23424757</woe-id>
    <continent>Europe</continent>
    <hc-key>be</hc-key>
    <hc-a2>BE</hc-a2>
  </desc>
</g>

<path fill="#CEE3F5" stroke="#6E6E6E" stroke-width="0.4" id="BE.3530" d="M341.1,169.1 L344.0,173.9 L343.9,176.6 L341.2,179.6 L348.5,184.0 L351.5,193.0 L347.7,193.6 L346.3,196.1 L352.4,200.4 L337.8,208.6 L334.0,209.5 L330.1,208.9 L325.0,205.6 L320.1,195.6 L316.8,197.4 L310.0,193.7 L312.1,189.3 L316.6,188.5 L317.7,183.7 L315.8,180.5 L319.1,173.7 L325.6,170.3 L333.3,171.4 L337.9,166.7 Z">
  <desc xmlns="http://www.highcharts.com/svg/namespace">
    <labelrank>9</labelrank>
    <iso_3166_2>BE-BRU</iso_3166_2>
    <hasc>BE.BU</hasc>
    <alt-name>Bruselas|Brussel Hoofstadt|Brusselse Hoofdstedelijke Gewest|Brüssel|Bruxelas|Région de Bruxelles-Capitale</alt-name>
    <country>Belgium</country>
    <type-en>Capital Region</type-en>
    <region>Capital Region</region>
    <woe-id>55965974</woe-id>
    <longitude>4.36266</longitude>
    <subregion>NULL</subregion>
    <woe-name>Brussels</woe-name>
    <fips>BE11</fips>
    <latitude>50.8332</latitude>
    <woe-label>Capital Region of Brussels, BE, Belgium</woe-label>
    <postal-code>NULL</postal-code>
    <type>Hoofdstedelijk Gewest|Région Capitale</type>
    <name>Brussels</name>
    <hc-key>be-3530</hc-key>
    <hc-a2>BR</hc-a2>
  </desc>
</path>

<path fill="#CEE3F5" stroke="#6E6E6E" stroke-width="0.4" id="BE.3534" d="M115.0,216.0 L112.0,210.6 L109.0,207.7 L104.3,206.3 L89.9,210.8 L88.3,200.3 L85.4,198.5 L75.0,202.7 L78.5,208.4 L71.7,211.2 L70.9,213.8 L65.7,214.8 L63.2,212.4 L57.2,215.7 L61.6,230.2 L47.2,223.5 L43.8,220.7 L39.5,211.3 L32.8,204.9 L30.1,199.1 L27.8,197.9 L22.7,198.1 L17.3,196.9 L14.8,191.7 L11.8,189.6 L13.1,182.3 L9.6,169.8 L10.6,167.3 L15.9,161.4 L15.3,155.8 L12.5,151.5 L6.2,144.3 L4.4,138.8 L2.7,126.3 L0.0,119.7 L3.6,117.1 L10.4,114.9 L34.8,96.6 L72.0,74.8 L107.9,51.1 L147.8,38.0 L149.4,49.0 L148.6,62.7 L151.2,69.8 L156.8,75.1 L151.2,79.4 L154.3,86.8 L150.0,89.9 L154.8,91.5 L159.0,98.9 L152.7,111.1 L144.9,116.3 L165.2,130.6 L161.3,133.5 L166.8,142.7 L162.1,149.7 L165.2,153.8 L159.7,156.4 L168.3,160.7 L164.7,160.6 L167.5,163.3 L166.2,164.6 L162.0,164.0 L163.4,167.3 L161.0,169.7 L162.5,173.6 L166.6,171.0 L169.5,172.1 L170.9,177.4 L166.7,181.8 L177.9,191.4 L175.6,194.3 L179.8,200.0 L179.4,202.0 L168.2,210.5 L160.1,216.5 L152.0,225.1 L151.3,227.3 L148.4,226.7 L144.0,223.4 L144.2,219.5 L140.4,214.1 L132.7,215.2 L125.3,211.0 Z">
  <desc xmlns="http://www.highcharts.com/svg/namespace">
    <labelrank>7</labelrank>
    <iso_3166_2>BE-VWV</iso_3166_2>
    <hasc>BE.</hasc>
    <alt-name>West-Vlaanderen</alt-name>
    <country>Belgium</country>
    <type-en>Province</type-en>
    <region>Flemish</region>
    <woe-id>7153305</woe-id>
    <longitude>3.02202</longitude>
    <subregion>NULL</subregion>
    <woe-name>West Flanders</woe-name>
    <fips>NULL</fips>
    <latitude>51.0312</latitude>
    <woe-label>West-Vlaanderen, BE, Belgium</woe-label>
    <postal-code>NULL</postal-code>
    <type>Province</type>
    <name>West Flanders</name>
    <hc-key>be-3534</hc-key>
    <hc-a2>WF</hc-a2>
  </desc>
</path>

<path fill="#CEE3F5" stroke="#6E6E6E" stroke-width="0.4" id="BE.3528" d="M607.2,205.4 L609.2,206.0 L622.3,205.9 L625.9,205.1 L625.9,207.2 L628.9,208.6 L629.4,216.7 L631.8,216.9 L638.9,214.6 L641.9,214.8 L645.5,218.1 L657.2,234.5 L654.9,236.1 L657.1,240.1 L660.9,241.9 L673.4,241.7 L673.9,243.3 L670.9,249.5 L661.4,257.1 L658.3,262.5 L661.5,266.2 L660.5,269.7 L664.1,270.3 L662.7,272.8 L666.0,277.3 L669.2,278.4 L676.1,275.7 L679.8,277.4 L691.0,278.9 L688.8,283.3 L690.5,288.6 L694.2,292.3 L694.3,297.0 L692.2,307.6 L692.6,311.0 L699.4,321.7 L700.0,325.6 L697.8,328.2 L693.0,329.3 L686.4,328.1 L684.0,329.7 L681.2,334.7 L681.9,340.1 L678.7,343.3 L667.2,347.8 L665.6,350.6 L659.8,356.3 L662.3,358.9 L663.5,365.3 L661.2,369.0 L656.0,370.4 L654.9,376.0 L657.6,379.2 L655.5,383.1 L652.8,382.0 L651.4,374.5 L649.0,372.3 L644.9,374.9 L637.9,375.2 L637.9,366.4 L636.8,362.7 L639.3,359.8 L635.2,359.1 L634.3,356.0 L634.2,329.5 L628.3,326.7 L627.9,324.3 L605.6,320.4 L604.2,325.6 L607.7,328.4 L604.0,338.4 L610.4,339.1 L609.3,342.0 L597.9,344.0 L596.8,346.8 L595.5,344.1 L592.4,343.3 L581.5,345.4 L586.0,334.8 L581.1,333.7 L578.0,328.9 L577.7,325.7 L580.6,318.5 L571.4,318.8 L572.1,315.4 L566.1,316.0 L555.9,307.2 L549.9,310.3 L545.8,309.1 L546.3,306.5 L543.2,306.0 L541.3,300.4 L534.2,305.5 L526.1,299.6 L522.6,301.8 L526.5,308.2 L520.6,314.1 L512.8,311.7 L503.1,318.7 L500.4,315.3 L500.5,310.0 L491.4,307.9 L489.1,304.3 L491.7,298.6 L488.1,291.1 L484.1,287.3 L478.0,289.9 L475.9,286.6 L476.7,284.1 L473.2,284.7 L471.8,280.3 L467.4,279.6 L464.5,273.0 L454.4,272.7 L457.7,270.0 L452.7,256.5 L443.7,248.4 L444.1,241.5 L447.4,235.0 L447.0,226.5 L449.8,224.4 L445.2,218.2 L449.4,215.7 L449.9,210.5 L454.4,212.9 L454.4,218.0 L457.5,221.8 L460.3,223.0 L465.0,222.1 L465.0,222.1 L477.2,225.3 L479.4,222.4 L477.2,217.8 L488.0,218.8 L489.2,216.1 L490.6,219.3 L496.3,215.5 L502.2,218.5 L503.0,215.2 L506.4,211.9 L514.7,208.9 L517.1,209.8 L519.6,215.4 L524.5,217.1 L528.5,216.5 L529.7,211.5 L533.4,215.2 L536.3,214.4 L541.0,210.0 L540.5,205.4 L555.9,200.2 L564.5,191.0 L572.3,194.2 L570.5,204.1 L573.9,205.9 L578.5,204.4 L581.8,207.7 L586.4,206.3 L594.4,216.1 L600.9,214.9 L605.3,217.0 L606.8,216.3 L610.8,209.7 Z">
  <desc xmlns="http://www.highcharts.com/svg/namespace">
    <labelrank>7</labelrank>
    <iso_3166_2>BE-WLG</iso_3166_2>
    <hasc>BE.</hasc>
    <alt-name>Luik</alt-name>
    <country>Belgium</country>
    <type-en>Province</type-en>
    <region>Walloon</region>
    <woe-id>7153300</woe-id>
    <longitude>5.67651</longitude>
    <subregion>NULL</subregion>
    <woe-name>Liege</woe-name>
    <fips>NULL</fips>
    <latitude>50.5794</latitude>
    <woe-label>Liege, BE, Belgium</woe-label>
    <postal-code>NULL</postal-code>
    <type>Province</type>
    <name>Liege</name>
    <hc-key>be-3528</hc-key>
    <hc-a2>LI</hc-a2>
  </desc>
</path>

<path fill="#CEE3F5" stroke="#6E6E6E" stroke-width="0.4" id="BE.3529" d="M449.4,215.7 L445.2,218.2 L449.8,224.4 L447.0,226.5 L447.4,235.0 L444.1,241.5 L438.4,240.4 L434.4,246.1 L429.6,245.8 L429.4,247.5 L410.1,253.1 L410.0,257.3 L407.9,254.3 L400.7,257.4 L399.4,251.7 L394.8,253.1 L394.0,256.2 L388.9,252.8 L387.1,252.9 L385.2,256.3 L387.5,265.1 L383.5,266.1 L376.8,263.9 L373.6,264.4 L370.6,266.9 L371.4,271.7 L360.5,276.6 L357.9,275.4 L358.0,272.8 L352.1,276.0 L352.5,269.0 L351.6,267.5 L343.4,267.7 L341.5,265.8 L331.2,267.1 L326.8,272.3 L327.2,265.0 L321.8,265.6 L317.2,258.6 L311.3,257.5 L312.1,251.6 L302.5,249.3 L303.3,243.3 L299.7,238.8 L297.7,239.6 L292.2,247.5 L288.0,248.2 L284.8,246.9 L282.9,241.9 L282.6,231.4 L284.2,226.7 L284.2,226.7 L285.6,223.8 L290.0,223.8 L291.3,220.7 L294.8,220.7 L298.8,226.0 L303.7,225.9 L309.6,230.6 L313.1,228.0 L318.1,229.5 L322.0,227.1 L322.4,222.8 L326.3,222.6 L324.4,219.8 L325.7,218.3 L329.2,223.0 L332.6,223.2 L333.6,218.9 L342.2,217.4 L348.7,212.1 L355.2,211.1 L355.4,215.8 L361.2,219.0 L361.6,215.5 L369.4,213.4 L373.6,208.7 L374.7,214.9 L380.7,214.4 L384.1,210.3 L380.7,205.9 L381.3,198.6 L390.7,200.8 L393.9,199.0 L394.6,201.1 L396.1,197.4 L400.9,195.6 L408.5,198.0 L412.5,204.3 L416.9,204.6 L416.2,207.7 L429.7,206.0 L429.2,211.1 L431.6,213.0 L434.3,212.5 L442.9,205.3 L449.9,210.5 L449.9,210.5 Z">
  <desc xmlns="http://www.highcharts.com/svg/namespace">
    <labelrank>7</labelrank>
    <iso_3166_2>BE-WBR</iso_3166_2>
    <hasc>BE.</hasc>
    <alt-name>Waals-Brabant|Brabant Wallon</alt-name>
    <country>Belgium</country>
    <type-en>Province</type-en>
    <region>Walloon</region>
    <woe-id>22525997</woe-id>
    <longitude>4.55466</longitude>
    <subregion>NULL</subregion>
    <woe-name>Walloon Brabant</woe-name>
    <fips>NULL</fips>
    <latitude>50.6416</latitude>
    <woe-label>Walloon Brabant, BE, Belgium</woe-label>
    <postal-code>NULL</postal-code>
    <type>Province</type>
    <name>Walloon Brabant</name>
    <hc-key>be-3529</hc-key>
    <hc-a2>WB</hc-a2>
  </desc>
</path>

<path fill="#CEE3F5" stroke="#6E6E6E" stroke-width="0.4" id="BE.3532" d="M449.9,210.5 L442.9,205.3 L434.3,212.5 L431.6,213.0 L429.2,211.1 L429.7,206.0 L416.2,207.7 L416.9,204.6 L412.5,204.3 L408.5,198.0 L400.9,195.6 L396.1,197.4 L394.6,201.1 L393.9,199.0 L390.7,200.8 L381.3,198.6 L380.7,205.9 L384.1,210.3 L380.7,214.4 L374.7,214.9 L373.6,208.7 L369.4,213.4 L361.6,215.5 L361.2,219.0 L355.4,215.8 L355.2,211.1 L348.7,212.1 L342.2,217.4 L333.6,218.9 L332.6,223.2 L329.2,223.0 L325.7,218.3 L324.4,219.8 L326.3,222.6 L322.4,222.8 L322.0,227.1 L318.1,229.5 L313.1,228.0 L309.6,230.6 L303.7,225.9 L298.8,226.0 L294.8,220.7 L291.3,220.7 L290.0,223.8 L285.6,223.8 L284.2,226.7 L284.2,226.7 L279.3,225.1 L276.8,230.0 L275.5,228.1 L271.3,230.3 L267.9,229.3 L264.3,232.2 L253.3,232.1 L249.5,230.7 L246.0,224.3 L247.2,219.5 L251.4,221.0 L257.2,219.4 L257.4,217.9 L253.6,212.8 L255.9,207.7 L258.1,206.4 L262.8,210.0 L265.8,206.1 L268.4,208.4 L271.4,207.2 L276.8,202.5 L279.3,194.5 L277.6,190.3 L273.0,189.5 L281.2,177.2 L281.4,174.2 L278.7,171.9 L283.4,168.3 L281.8,162.8 L290.0,166.2 L294.2,163.2 L294.2,159.6 L291.5,151.7 L294.2,145.9 L300.0,147.9 L304.1,145.9 L308.0,132.2 L314.2,130.5 L318.5,131.2 L327.4,135.0 L327.4,137.6 L333.0,133.7 L331.3,138.1 L334.7,139.1 L335.6,143.3 L346.5,140.4 L350.6,144.4 L353.7,139.4 L359.9,143.9 L363.1,140.8 L368.9,144.1 L371.6,144.1 L373.8,138.2 L386.8,134.4 L391.7,136.9 L389.8,141.5 L396.6,133.5 L400.6,134.2 L406.3,129.6 L409.6,136.2 L411.9,137.7 L421.1,133.6 L423.4,134.7 L428.1,130.3 L434.9,127.3 L438.3,127.0 L440.8,129.9 L445.4,128.5 L448.4,134.0 L452.0,132.6 L455.7,134.8 L458.9,132.7 L458.6,125.5 L463.6,124.7 L467.7,126.4 L472.7,132.6 L468.2,134.5 L465.5,132.8 L466.8,139.5 L459.5,143.1 L459.5,149.4 L452.4,156.0 L455.0,162.2 L459.1,161.7 L462.2,164.9 L469.1,161.4 L469.7,163.6 L476.0,163.5 L478.7,165.7 L477.4,173.6 L473.0,173.5 L470.3,181.9 L469.3,191.5 L473.3,192.8 L465.4,201.5 L467.0,206.7 L464.7,212.5 L468.3,214.5 L465.0,222.1 L465.0,222.1 L460.3,223.0 L457.5,221.8 L454.4,218.0 L454.4,212.9 L449.9,210.5 Z M341.1,169.1 L337.9,166.7 L333.3,171.4 L325.6,170.3 L319.1,173.7 L315.8,180.5 L317.7,183.7 L316.6,188.5 L312.1,189.3 L310.0,193.7 L316.8,197.4 L320.1,195.6 L325.0,205.6 L330.1,208.9 L334.0,209.5 L337.8,208.6 L352.4,200.4 L346.3,196.1 L347.7,193.6 L351.5,193.0 L348.5,184.0 L341.2,179.6 L343.9,176.6 L344.0,173.9 Z">
  <desc xmlns="http://www.highcharts.com/svg/namespace">
    <labelrank>7</labelrank>
    <iso_3166_2>BE-VBR</iso_3166_2>
    <hasc>BE.VB</hasc>
    <alt-name>Vlaams Brabant|Flamish-Brabant|Brabant flamand</alt-name>
    <country>Belgium</country>
    <type-en>Province</type-en>
    <region>Flemish</region>
    <woe-id>22525998</woe-id>
    <longitude>4.53709</longitude>
    <subregion>NULL</subregion>
    <woe-name>Flemish Brabant</woe-name>
    <fips>NULL</fips>
    <latitude>50.8709</latitude>
    <woe-label>Vlaams Brabant, BE, Belgium</woe-label>
    <postal-code>NULL</postal-code>
    <type>Province</type>
    <name>Flemish Brabant</name>
    <hc-key>be-3532</hc-key>
    <hc-a2>FB</hc-a2>
  </desc>
</path>

<path fill="#CEE3F5" stroke="#6E6E6E" stroke-width="0.4" id="BE.489" d="M282.6,231.4 L282.9,241.9 L284.8,246.9 L288.0,248.2 L292.2,247.5 L297.7,239.6 L299.7,238.8 L303.3,243.3 L302.5,249.3 L312.1,251.6 L311.3,257.5 L317.2,258.6 L321.8,265.6 L327.2,265.0 L326.8,272.3 L331.2,267.1 L341.5,265.8 L343.4,267.7 L351.6,267.5 L352.5,269.0 L352.1,276.0 L358.0,272.8 L357.9,275.4 L360.5,276.6 L371.4,271.7 L368.4,285.8 L374.9,284.0 L373.5,286.7 L375.8,289.7 L372.9,298.9 L371.2,300.6 L379.2,305.2 L376.6,311.2 L373.7,312.1 L377.6,316.4 L373.3,323.8 L374.7,334.5 L362.4,336.7 L359.0,332.5 L354.0,333.1 L350.4,339.6 L340.3,338.4 L338.9,343.7 L335.6,343.6 L333.3,347.9 L327.2,348.5 L320.1,353.9 L323.1,357.9 L329.9,361.7 L334.6,357.7 L341.1,360.4 L339.0,369.6 L340.6,373.6 L334.0,378.8 L341.3,390.9 L339.0,395.8 L339.3,407.2 L340.2,411.8 L343.2,412.8 L345.0,427.6 L350.5,438.4 L347.7,445.7 L320.0,438.6 L306.0,440.9 L303.5,440.2 L293.2,434.8 L294.6,434.9 L293.1,422.7 L295.3,418.9 L302.8,412.6 L307.1,410.4 L304.7,403.6 L301.4,391.4 L299.6,390.5 L294.0,392.5 L291.4,391.3 L291.8,386.1 L296.8,367.1 L298.7,364.3 L304.7,358.8 L305.1,355.8 L301.7,352.1 L297.5,350.0 L295.3,351.0 L294.2,356.1 L290.8,354.6 L285.6,344.0 L277.9,338.5 L271.8,331.8 L268.2,330.2 L264.4,330.7 L252.9,335.7 L248.7,335.8 L238.5,330.2 L231.0,329.4 L220.6,331.0 L212.6,343.9 L206.1,337.9 L204.4,326.3 L204.3,313.1 L202.7,302.1 L199.7,296.7 L196.0,293.3 L187.9,290.5 L176.2,290.5 L173.9,288.9 L175.7,285.7 L174.8,281.9 L169.6,281.4 L163.5,286.3 L155.6,289.3 L148.0,289.0 L140.0,284.9 L134.8,279.3 L133.8,276.1 L133.5,267.0 L128.7,251.1 L127.2,242.8 L129.7,238.1 L126.2,228.7 L121.2,227.6 L119.8,225.9 L115.0,216.0 L125.3,211.0 L132.7,215.2 L140.4,214.1 L144.2,219.5 L144.0,223.4 L148.4,226.7 L151.3,227.3 L152.0,225.1 L160.1,216.5 L168.2,210.5 L174.8,213.2 L182.0,211.0 L183.2,219.9 L195.1,220.0 L200.2,223.5 L207.4,209.2 L212.6,206.3 L214.5,210.1 L222.3,206.7 L225.4,215.6 L232.6,214.6 L235.1,217.0 L245.2,214.7 L247.2,219.5 L246.0,224.3 L249.5,230.7 L253.3,232.1 L264.3,232.2 L267.9,229.3 L271.3,230.3 L275.5,228.1 L276.8,230.0 L279.3,225.1 L284.2,226.7 L284.2,226.7 Z M89.9,210.8 L80.5,213.8 L76.3,216.4 L73.1,219.9 L67.6,229.3 L65.2,231.2 L61.6,230.2 L57.2,215.7 L63.2,212.4 L65.7,214.8 L70.9,213.8 L71.7,211.2 L78.5,208.4 L75.0,202.7 L85.4,198.5 L88.3,200.3 Z">
  <desc xmlns="http://www.highcharts.com/svg/namespace">
    <labelrank>7</labelrank>
    <iso_3166_2>BE-WHT</iso_3166_2>
    <hasc>BE.</hasc>
    <alt-name>Henegouwen</alt-name>
    <country>Belgium</country>
    <type-en>Province</type-en>
    <region>Walloon</region>
    <woe-id>7153299</woe-id>
    <longitude>3.88925</longitude>
    <subregion>NULL</subregion>
    <woe-name>Hainaut</woe-name>
    <fips>NULL</fips>
    <latitude>50.521</latitude>
    <woe-label>Hainault, BE, Belgium</woe-label>
    <postal-code>NULL</postal-code>
    <type>Province</type>
    <name>Hainaut</name>
    <hc-key>be-489</hc-key>
    <hc-a2>HA</hc-a2>
  </desc>
</path>

<path fill="#CEE3F5" stroke="#6E6E6E" stroke-width="0.4" id="BE.3535" d="M440.8,129.9 L438.3,127.0 L434.9,127.3 L428.1,130.3 L423.4,134.7 L421.1,133.6 L411.9,137.7 L409.6,136.2 L406.3,129.6 L400.6,134.2 L396.6,133.5 L389.8,141.5 L391.7,136.9 L386.8,134.4 L373.8,138.2 L371.6,144.1 L368.9,144.1 L363.1,140.8 L359.9,143.9 L353.7,139.4 L350.6,144.4 L346.5,140.4 L335.6,143.3 L334.7,139.1 L331.3,138.1 L333.0,133.7 L327.4,137.6 L327.4,135.0 L318.5,131.2 L314.2,130.5 L308.0,132.2 L306.5,130.5 L303.0,133.4 L298.8,130.7 L300.1,127.7 L297.3,114.8 L300.1,110.8 L303.3,108.5 L314.0,107.7 L321.1,105.2 L323.3,100.7 L324.0,94.5 L322.5,88.9 L318.1,82.7 L319.6,81.7 L315.6,69.6 L317.3,66.2 L317.3,66.2 L320.5,64.1 L322.9,58.5 L316.9,56.1 L314.7,52.5 L314.1,43.3 L310.1,37.9 L315.3,38.0 L325.3,42.5 L333.6,42.9 L336.9,41.0 L337.7,36.1 L336.6,33.3 L331.1,26.1 L332.6,19.0 L330.4,16.6 L339.6,11.0 L349.1,7.3 L356.5,6.7 L358.0,9.1 L357.9,13.8 L356.2,20.2 L359.6,22.6 L367.1,21.7 L375.5,22.7 L379.7,20.4 L393.0,3.2 L398.8,0.0 L404.7,1.3 L409.6,5.6 L410.1,9.9 L408.4,18.3 L409.8,23.2 L402.0,19.8 L400.0,20.1 L399.0,23.6 L402.8,25.1 L415.3,25.2 L425.5,29.0 L429.4,27.9 L433.7,23.4 L440.3,13.0 L443.0,5.1 L445.7,4.3 L451.7,8.4 L455.3,14.9 L454.8,19.7 L453.0,24.3 L452.5,30.5 L453.8,33.2 L460.1,39.8 L464.0,50.3 L467.1,51.9 L477.3,51.3 L480.6,55.2 L481.0,65.4 L485.3,65.7 L483.2,67.6 L481.6,78.5 L489.0,85.1 L490.0,96.6 L485.6,100.7 L479.8,99.2 L475.9,105.2 L466.9,106.0 L460.0,115.4 L445.7,118.6 L445.8,122.5 Z">
  <desc xmlns="http://www.highcharts.com/svg/namespace">
    <labelrank>7</labelrank>
    <iso_3166_2>BE-VAN</iso_3166_2>
    <hasc>BE.</hasc>
    <alt-name>Antwerpen</alt-name>
    <country>Belgium</country>
    <type-en>Province</type-en>
    <region>Flemish</region>
    <woe-id>7153308</woe-id>
    <longitude>4.72122</longitude>
    <subregion>NULL</subregion>
    <woe-name>Antwerp</woe-name>
    <fips>NULL</fips>
    <latitude>51.2485</latitude>
    <woe-label>Antwerp, BE, Belgium</woe-label>
    <postal-code>NULL</postal-code>
    <type>Province</type>
    <name>Antwerp</name>
    <hc-key>be-3535</hc-key>
    <hc-a2>AN</hc-a2>
  </desc>
</path>

<path fill="#CEE3F5" stroke="#6E6E6E" stroke-width="0.4" id="BE.490" d="M465.0,222.1 L468.3,214.5 L464.7,212.5 L467.0,206.7 L465.4,201.5 L473.3,192.8 L469.3,191.5 L470.3,181.9 L473.0,173.5 L477.4,173.6 L478.7,165.7 L476.0,163.5 L469.7,163.6 L469.1,161.4 L462.2,164.9 L459.1,161.7 L455.0,162.2 L452.4,156.0 L459.5,149.4 L459.5,143.1 L466.8,139.5 L465.5,132.8 L468.2,134.5 L472.7,132.6 L467.7,126.4 L463.6,124.7 L458.6,125.5 L458.9,132.7 L455.7,134.8 L452.0,132.6 L448.4,134.0 L445.4,128.5 L440.8,129.9 L445.8,122.5 L445.7,118.6 L460.0,115.4 L466.9,106.0 L475.9,105.2 L479.8,99.2 L485.6,100.7 L490.0,96.6 L489.0,85.1 L481.6,78.5 L483.2,67.6 L485.3,65.7 L490.8,64.2 L511.9,64.4 L515.6,62.9 L522.9,57.4 L526.4,55.6 L530.3,55.9 L534.5,58.4 L538.0,62.6 L540.2,74.5 L544.4,77.8 L554.7,80.5 L560.9,85.4 L571.4,83.4 L576.7,85.2 L583.1,92.2 L591.6,90.7 L593.8,95.6 L591.4,98.2 L590.9,101.4 L595.2,105.6 L591.8,107.6 L587.9,107.9 L589.3,111.9 L585.9,119.8 L582.3,119.0 L581.2,125.6 L583.8,128.8 L581.2,135.9 L574.6,147.4 L578.5,146.2 L582.0,147.1 L577.3,157.4 L574.2,161.7 L570.1,163.5 L557.7,178.4 L558.3,184.8 L561.4,189.0 L564.5,191.0 L555.9,200.2 L540.5,205.4 L541.0,210.0 L536.3,214.4 L533.4,215.2 L529.7,211.5 L528.5,216.5 L524.5,217.1 L519.6,215.4 L517.1,209.8 L514.7,208.9 L506.4,211.9 L503.0,215.2 L502.2,218.5 L496.3,215.5 L490.6,219.3 L489.2,216.1 L488.0,218.8 L477.2,217.8 L479.4,222.4 L477.2,225.3 L465.0,222.1 L465.0,222.1 Z M578.5,204.4 L581.9,200.1 L583.8,200.7 L589.5,205.9 L605.1,204.9 L607.2,205.4 L610.8,209.7 L606.8,216.3 L605.3,217.0 L600.9,214.9 L594.4,216.1 L586.4,206.3 L581.8,207.7 Z">
  <desc xmlns="http://www.highcharts.com/svg/namespace">
    <labelrank>7</labelrank>
    <iso_3166_2>BE-VLI</iso_3166_2>
    <hasc>BE.</hasc>
    <alt-name>NULL</alt-name>
    <country>Belgium</country>
    <type-en>Province</type-en>
    <region>Flemish</region>
    <woe-id>7153301</woe-id>
    <longitude>5.41314</longitude>
    <subregion>NULL</subregion>
    <woe-name>Limburg</woe-name>
    <fips>NULL</fips>
    <latitude>50.9954</latitude>
    <woe-label>Limburg, BE, Belgium</woe-label>
    <postal-code>NULL</postal-code>
    <type>Province</type>
    <name>Limburg</name>
    <hc-key>be-490</hc-key>
    <hc-a2>LI</hc-a2>
  </desc>
</path>

<path fill="#CEE3F5" stroke="#6E6E6E" stroke-width="0.4" id="BE.3526" d="M371.4,271.7 L370.6,266.9 L373.6,264.4 L376.8,263.9 L383.5,266.1 L387.5,265.1 L385.2,256.3 L387.1,252.9 L388.9,252.8 L394.0,256.2 L394.8,253.1 L399.4,251.7 L400.7,257.4 L407.9,254.3 L410.0,257.3 L410.1,253.1 L429.4,247.5 L429.6,245.8 L434.4,246.1 L438.4,240.4 L444.1,241.5 L443.7,248.4 L452.7,256.5 L457.7,270.0 L454.4,272.7 L464.5,273.0 L467.4,279.6 L471.8,280.3 L473.2,284.7 L476.7,284.1 L475.9,286.6 L478.0,289.9 L484.1,287.3 L488.1,291.1 L491.7,298.6 L489.1,304.3 L491.4,307.9 L500.5,310.0 L500.4,315.3 L503.1,318.7 L512.8,311.7 L520.6,314.1 L522.3,317.7 L518.7,322.9 L521.4,326.2 L511.7,333.9 L513.2,335.3 L515.3,332.0 L519.5,331.6 L521.6,336.0 L521.5,340.4 L516.7,345.7 L504.1,354.5 L502.1,352.0 L496.1,355.2 L496.7,358.5 L491.4,358.3 L488.1,360.8 L495.2,364.5 L493.3,367.4 L495.5,367.3 L495.3,370.2 L502.0,377.6 L500.5,382.7 L495.3,384.6 L500.1,388.8 L499.3,391.8 L494.4,391.5 L489.5,395.1 L485.7,396.0 L468.6,397.7 L464.6,396.5 L463.3,388.6 L461.0,399.6 L462.6,401.1 L460.8,406.0 L455.0,412.4 L451.5,411.3 L450.3,415.8 L446.9,415.8 L451.4,420.0 L454.1,429.2 L456.0,430.2 L463.8,428.4 L465.6,432.2 L471.0,434.8 L470.5,441.1 L474.6,445.0 L465.5,448.9 L460.9,453.5 L464.1,456.4 L450.6,466.7 L449.8,469.2 L451.5,474.6 L449.2,475.4 L447.9,482.2 L444.5,482.5 L436.6,485.5 L427.7,485.7 L426.0,483.6 L425.7,473.0 L423.4,468.3 L427.2,455.8 L427.2,449.7 L424.2,444.5 L415.4,441.1 L412.9,437.2 L413.6,432.7 L420.2,414.9 L420.1,407.0 L423.3,399.3 L426.5,401.1 L427.7,385.2 L426.0,383.1 L420.3,384.4 L418.2,383.6 L417.3,379.4 L412.4,381.7 L393.4,401.9 L391.9,407.0 L393.3,412.1 L392.1,421.2 L389.3,429.0 L387.4,430.4 L379.8,431.7 L354.5,444.9 L347.7,445.7 L350.5,438.4 L345.0,427.6 L343.2,412.8 L340.2,411.8 L339.3,407.2 L339.0,395.8 L341.3,390.9 L334.0,378.8 L340.6,373.6 L339.0,369.6 L341.1,360.4 L334.6,357.7 L329.9,361.7 L323.1,357.9 L320.1,353.9 L327.2,348.5 L333.3,347.9 L335.6,343.6 L338.9,343.7 L340.3,338.4 L350.4,339.6 L354.0,333.1 L359.0,332.5 L362.4,336.7 L374.7,334.5 L373.3,323.8 L377.6,316.4 L373.7,312.1 L376.6,311.2 L379.2,305.2 L371.2,300.6 L372.9,298.9 L375.8,289.7 L373.5,286.7 L374.9,284.0 L368.4,285.8 Z">
  <desc xmlns="http://www.highcharts.com/svg/namespace">
    <labelrank>7</labelrank>
    <iso_3166_2>BE-WNA</iso_3166_2>
    <hasc>BE.</hasc>
    <alt-name>Namen</alt-name>
    <country>Belgium</country>
    <type-en>Province</type-en>
    <region>Walloon</region>
    <woe-id>7153303</woe-id>
    <longitude>4.88712</longitude>
    <subregion>NULL</subregion>
    <woe-name>Namur</woe-name>
    <fips>NULL</fips>
    <latitude>50.3244</latitude>
    <woe-label>Namur, BE, Belgium</woe-label>
    <postal-code>NULL</postal-code>
    <type>Province</type>
    <name>Namur</name>
    <hc-key>be-3526</hc-key>
    <hc-a2>NA</hc-a2>
  </desc>
</path>

<path fill="#CEE3F5" stroke="#6E6E6E" stroke-width="0.4" id="BE.3527" d="M520.6,314.1 L526.5,308.2 L522.6,301.8 L526.1,299.6 L534.2,305.5 L541.3,300.4 L543.2,306.0 L546.3,306.5 L545.8,309.1 L549.9,310.3 L555.9,307.2 L566.1,316.0 L572.1,315.4 L571.4,318.8 L580.6,318.5 L577.7,325.7 L578.0,328.9 L581.1,333.7 L586.0,334.8 L581.5,345.4 L592.4,343.3 L595.5,344.1 L596.8,346.8 L597.9,344.0 L609.3,342.0 L610.4,339.1 L604.0,338.4 L607.7,328.4 L604.2,325.6 L605.6,320.4 L627.9,324.3 L628.3,326.7 L634.2,329.5 L634.3,356.0 L635.2,359.1 L639.3,359.8 L636.8,362.7 L637.9,366.4 L637.9,375.2 L636.3,374.5 L633.1,368.5 L630.4,370.9 L626.5,371.4 L625.1,374.1 L623.2,382.2 L620.6,385.1 L613.9,388.7 L611.0,391.6 L609.8,400.0 L605.2,405.9 L605.6,411.9 L604.0,415.6 L599.3,418.9 L599.2,422.9 L601.3,425.9 L599.5,429.9 L592.7,435.0 L591.0,439.8 L585.1,451.1 L584.4,453.8 L590.8,457.7 L592.6,460.3 L587.8,459.9 L587.0,464.1 L588.8,465.7 L586.0,470.0 L587.6,476.9 L589.7,480.1 L593.6,481.2 L597.2,484.3 L601.9,492.7 L602.7,498.7 L608.7,501.0 L611.1,500.6 L612.5,504.4 L610.0,512.1 L612.1,515.0 L617.2,516.4 L618.4,520.4 L614.2,526.5 L610.8,536.0 L608.8,538.1 L612.0,539.7 L610.4,544.2 L606.3,548.9 L602.0,551.1 L595.6,548.3 L591.7,549.2 L587.2,553.6 L574.9,550.4 L570.4,552.9 L567.4,559.2 L563.0,559.3 L557.1,556.8 L553.7,558.5 L544.5,565.2 L540.4,564.3 L539.2,561.8 L539.8,553.6 L538.9,551.0 L529.5,535.2 L526.0,532.2 L516.9,529.0 L514.5,532.8 L510.2,532.7 L508.7,529.1 L509.2,525.0 L511.4,523.0 L510.0,518.7 L502.3,510.8 L498.4,511.0 L490.1,513.5 L485.8,512.4 L479.6,507.4 L471.4,496.3 L469.2,494.3 L462.5,492.5 L458.8,490.6 L451.8,484.0 L447.9,482.2 L449.2,475.4 L451.5,474.6 L449.8,469.2 L450.6,466.7 L464.1,456.4 L460.9,453.5 L465.5,448.9 L474.6,445.0 L470.5,441.1 L471.0,434.8 L465.6,432.2 L463.8,428.4 L456.0,430.2 L454.1,429.2 L451.4,420.0 L446.9,415.8 L450.3,415.8 L451.5,411.3 L455.0,412.4 L460.8,406.0 L462.6,401.1 L461.0,399.6 L463.3,388.6 L464.6,396.5 L468.6,397.7 L485.7,396.0 L489.5,395.1 L494.4,391.5 L499.3,391.8 L500.1,388.8 L495.3,384.6 L500.5,382.7 L502.0,377.6 L495.3,370.2 L495.5,367.3 L493.3,367.4 L495.2,364.5 L488.1,360.8 L491.4,358.3 L496.7,358.5 L496.1,355.2 L502.1,352.0 L504.1,354.5 L516.7,345.7 L521.5,340.4 L521.6,336.0 L519.5,331.6 L515.3,332.0 L513.2,335.3 L511.7,333.9 L521.4,326.2 L518.7,322.9 L522.3,317.7 Z">
  <desc xmlns="http://www.highcharts.com/svg/namespace">
    <labelrank>7</labelrank>
    <iso_3166_2>BE-WLX</iso_3166_2>
    <hasc>BE.</hasc>
    <alt-name>Luxemburg</alt-name>
    <country>Belgium</country>
    <type-en>Province</type-en>
    <region>Walloon</region>
    <woe-id>7153302</woe-id>
    <longitude>5.50117</longitude>
    <subregion>NULL</subregion>
    <woe-name>Luxembourg</woe-name>
    <fips>NULL</fips>
    <latitude>49.9637</latitude>
    <woe-label>Luxemburg, BE, Belgium</woe-label>
    <postal-code>NULL</postal-code>
    <type>Province</type>
    <name>Luxembourg</name>
    <hc-key>be-3527</hc-key>
    <hc-a2>LU</hc-a2>
  </desc>
</path>

<path fill="#CEE3F5" stroke="#6E6E6E" stroke-width="0.4" id="BE.3533" d="M308.0,132.2 L304.1,145.9 L300.0,147.9 L294.2,145.9 L291.5,151.7 L294.2,159.6 L294.2,163.2 L290.0,166.2 L281.8,162.8 L283.4,168.3 L278.7,171.9 L281.4,174.2 L281.2,177.2 L273.0,189.5 L277.6,190.3 L279.3,194.5 L276.8,202.5 L271.4,207.2 L268.4,208.4 L265.8,206.1 L262.8,210.0 L258.1,206.4 L255.9,207.7 L253.6,212.8 L257.4,217.9 L257.2,219.4 L251.4,221.0 L247.2,219.5 L245.2,214.7 L235.1,217.0 L232.6,214.6 L225.4,215.6 L222.3,206.7 L214.5,210.1 L212.6,206.3 L207.4,209.2 L200.2,223.5 L195.1,220.0 L183.2,219.9 L182.0,211.0 L174.8,213.2 L168.2,210.5 L179.4,202.0 L179.8,200.0 L175.6,194.3 L177.9,191.4 L166.7,181.8 L170.9,177.4 L169.5,172.1 L166.6,171.0 L162.5,173.6 L161.0,169.7 L163.4,167.3 L162.0,164.0 L166.2,164.6 L167.5,163.3 L164.7,160.6 L168.3,160.7 L159.7,156.4 L165.2,153.8 L162.1,149.7 L166.8,142.7 L161.3,133.5 L165.2,130.6 L144.9,116.3 L152.7,111.1 L159.0,98.9 L154.8,91.5 L150.0,89.9 L154.3,86.8 L151.2,79.4 L156.8,75.1 L161.0,77.0 L166.7,77.6 L175.1,76.3 L175.4,66.7 L177.4,64.7 L189.9,62.1 L198.9,62.6 L220.8,69.6 L224.2,71.8 L225.2,81.6 L230.1,85.7 L251.3,85.2 L255.3,83.9 L263.3,77.4 L285.3,65.9 L294.0,58.8 L300.9,49.1 L303.1,38.4 L306.6,41.6 L309.5,49.6 L318.0,58.6 L318.9,62.2 L317.3,66.2 L317.3,66.2 L315.6,69.6 L319.6,81.7 L318.1,82.7 L322.5,88.9 L324.0,94.5 L323.3,100.7 L321.1,105.2 L314.0,107.7 L303.3,108.5 L300.1,110.8 L297.3,114.8 L300.1,127.7 L298.8,130.7 L303.0,133.4 L306.5,130.5 Z">
  <desc xmlns="http://www.highcharts.com/svg/namespace">
    <labelrank>7</labelrank>
    <iso_3166_2>BE-VOV</iso_3166_2>
    <hasc>BE.OV</hasc>
    <alt-name>Oost-Vlaanderen|Ostflandern|Falndre orientale</alt-name>
    <country>Belgium</country>
    <type-en>Province</type-en>
    <region>Flemish</region>
    <woe-id>7153304</woe-id>
    <longitude>3.83186</longitude>
    <subregion>NULL</subregion>
    <woe-name>East Flanders</woe-name>
    <fips>NULL</fips>
    <latitude>50.9749</latitude>
    <woe-label>Oost-Vlaanderen, BE, Belgium</woe-label>
    <postal-code>NULL</postal-code>
    <type>Province</type>
    <name>East Flanders</name>
    <hc-key>be-3533</hc-key>
    <hc-a2>EF</hc-a2>
  </desc>
</path>
</g>

<text x="350" y="714" text-anchor="middle" font-family="Verdana" font-size="8" stroke-opacity="0.6">Copyright (c) 2020 Highsoft AS, Based on data from Natural Earth</text>

</svg>