<?xml version="1.0" encoding="utf-8" standalone="no"?>
<!DOCTYPE svg PUBLIC "-//W3C//DTD SVG 1.1//EN" "http://www.w3.org/Graphics/SVG/1.1/DTD/svg11.dtd">

<svg version="1.1" height="700pt" width="700pt" xmlns="http://www.w3.org/2000/svg" xmlns:xlink="http://www.w3.org/1999/xlink">
<desc>
Map version: 1.1.3
Copyright (c) 2020 Highsoft AS, Based on data from Natural Earth
</desc>
<title>Burundi (2014)</title>
<g id="admin1">

<g id="BI">
  <desc xmlns="http://www.highcharts.com/svg/namespace">
    <name>Burundi</name>
    <labelrank>6</labelrank>
    <country-abbrev>Bur.</country-abbrev>
    <subregion>Eastern Africa</subregion>
    <region-wb>Sub-Saharan Africa</region-wb>
    <iso-a3>BDI</iso-a3>
    <iso-a2>BI</iso-a2>
    <woe-id>23424774</woe-id>
    <continent>Africa</continent>
    <hc-key>bi</hc-key>
    <hc-a2>BU</hc-a2>
  </desc>
</g>

<path fill="#CEE3F5" stroke="#6E6E6E" stroke-width="0.4" id="BI.BR" d="M170.5,607.5 L166.4,602.4 L165.2,595.6 L164.1,584.1 L157.9,576.0 L153.0,566.8 L145.7,556.6 L143.6,550.1 L146.4,541.4 L145.0,538.1 L138.9,531.9 L136.2,524.0 L126.4,516.1 L125.1,512.9 L124.0,502.4 L113.3,472.5 L113.5,461.5 L143.2,460.9 L150.2,458.5 L162.7,457.8 L166.0,454.3 L166.3,446.2 L169.3,439.0 L177.1,417.6 L181.6,409.1 L194.0,402.5 L199.2,412.2 L213.0,429.6 L221.5,435.0 L223.8,443.9 L223.5,457.6 L232.4,446.5 L233.7,441.9 L240.2,433.1 L249.6,434.1 L258.4,436.4 L258.8,443.6 L256.9,451.0 L253.1,475.1 L253.5,478.9 L249.7,485.4 L255.2,491.3 L264.0,485.8 L270.6,477.9 L274.8,466.1 L277.7,461.5 L286.3,473.3 L281.6,481.3 L292.1,485.7 L300.9,486.0 L305.9,491.8 L299.1,497.2 L299.8,503.5 L303.3,508.5 L305.6,515.6 L294.8,529.0 L296.3,537.0 L294.1,544.4 L293.2,559.6 L290.4,569.2 L280.5,575.2 L275.7,572.6 L273.5,564.9 L273.7,552.2 L269.7,541.8 L269.6,531.3 L265.1,533.7 L263.7,541.1 L257.7,556.2 L245.5,567.1 L233.5,570.4 L223.2,577.2 L211.7,589.9 L196.1,597.1 L187.6,597.9 L176.4,607.2 Z">
  <desc xmlns="http://www.highcharts.com/svg/namespace">
    <labelrank>7</labelrank>
    <hasc>BI.BR</hasc>
    <alt-name>NULL</alt-name>
    <woe-id>2344903</woe-id>
    <subregion>NULL</subregion>
    <fips>BY10</fips>
    <postal-code>BR</postal-code>
    <name>Bururi</name>
    <country>Burundi</country>
    <type-en>Province</type-en>
    <region>NULL</region>
    <longitude>29.5672</longitude>
    <woe-name>Bururi</woe-name>
    <latitude>-3.85152</latitude>
    <woe-label>Bururi, BI, Burundi</woe-label>
    <type>Province</type>
    <hc-middle-x>0.45</hc-middle-x>
    <hc-middle-y>0.52</hc-middle-y>
    <hc-key>bi-br</hc-key>
    <hc-a2>BR</hc-a2>
  </desc>
</path>

<path fill="#CEE3F5" stroke="#6E6E6E" stroke-width="0.4" id="BI.BB" d="M80.9,312.9 L82.5,311.5 L76.9,307.0 L74.7,300.7 L73.8,279.1 L74.9,272.5 L77.4,267.1 L81.5,264.8 L82.8,258.9 L97.6,258.5 L107.3,248.7 L104.6,242.1 L100.4,236.8 L98.4,232.1 L100.0,229.3 L120.5,221.0 L125.3,209.3 L136.1,209.3 L139.1,212.1 L146.8,206.4 L157.6,204.0 L165.5,196.5 L173.7,207.7 L178.2,227.3 L181.5,233.3 L185.4,243.8 L186.2,254.8 L182.8,261.7 L181.8,269.1 L186.1,277.3 L185.0,286.3 L180.5,293.8 L178.0,302.7 L180.9,307.8 L178.3,312.5 L174.4,316.1 L164.9,309.7 L151.6,310.3 L145.3,311.8 L133.6,308.6 L127.4,309.1 L118.7,311.0 L110.6,314.6 L99.7,326.0 L88.4,322.2 Z">
  <desc xmlns="http://www.highcharts.com/svg/namespace">
    <labelrank>9</labelrank>
    <hasc>BI.BB</hasc>
    <alt-name>NULL</alt-name>
    <woe-id>2344902</woe-id>
    <subregion>NULL</subregion>
    <fips>BY09</fips>
    <postal-code>BB</postal-code>
    <name>Bubanza</name>
    <country>Burundi</country>
    <type-en>Province</type-en>
    <region>NULL</region>
    <longitude>29.3862</longitude>
    <woe-name>Bubanza</woe-name>
    <latitude>-3.1045</latitude>
    <woe-label>Bubanza, BI, Burundi</woe-label>
    <type>Province</type>
    <hc-middle-x>0.50</hc-middle-x>
    <hc-middle-y>0.50</hc-middle-y>
    <hc-key>bi-bb</hc-key>
    <hc-a2>BB</hc-a2>
  </desc>
</path>

<path fill="#CEE3F5" stroke="#6E6E6E" stroke-width="0.4" id="BI.CI" d="M165.5,196.5 L157.6,204.0 L146.8,206.4 L139.1,212.1 L136.1,209.3 L125.3,209.3 L120.5,221.0 L100.0,229.3 L98.4,232.1 L100.4,236.8 L104.6,242.1 L107.3,248.7 L97.6,258.5 L82.8,258.9 L80.6,240.3 L77.6,235.5 L73.1,232.0 L67.5,229.9 L61.5,229.2 L55.2,226.7 L52.4,220.9 L49.3,209.0 L44.4,205.7 L33.5,201.1 L31.3,195.9 L29.5,187.5 L24.7,180.4 L20.2,169.1 L15.4,167.0 L8.5,166.3 L2.6,164.6 L0.0,159.1 L0.6,152.2 L2.8,146.7 L7.0,143.2 L13.6,142.3 L9.3,134.5 L15.0,102.1 L22.4,94.9 L41.4,93.7 L46.7,94.5 L66.4,103.1 L73.7,105.3 L87.5,107.0 L94.4,108.7 L104.3,115.0 L104.1,120.4 L105.3,125.1 L112.3,131.7 L114.3,135.7 L113.6,139.4 L109.1,144.9 L108.0,148.2 L108.7,152.0 L111.7,158.7 L112.1,162.8 L115.0,169.0 L123.0,168.2 L137.0,162.2 L142.9,161.6 L149.2,162.7 L155.0,167.9 L155.8,177.1 L159.9,187.0 Z">
  <desc xmlns="http://www.highcharts.com/svg/namespace">
    <labelrank>9</labelrank>
    <hasc>BI.CI</hasc>
    <alt-name>NULL</alt-name>
    <woe-id>2344905</woe-id>
    <subregion>NULL</subregion>
    <fips>BY12</fips>
    <postal-code>CI</postal-code>
    <name>Cibitoke</name>
    <country>Burundi</country>
    <type-en>Province</type-en>
    <region>NULL</region>
    <longitude>29.2407</longitude>
    <woe-name>Cibitoke</woe-name>
    <latitude>-2.86742</latitude>
    <woe-label>Cibitoke, BI, Burundi</woe-label>
    <type>Province</type>
    <hc-middle-x>0.47</hc-middle-x>
    <hc-middle-y>0.48</hc-middle-y>
    <hc-key>bi-ci</hc-key>
    <hc-a2>CI</hc-a2>
  </desc>
</path>

<path fill="#CEE3F5" stroke="#6E6E6E" stroke-width="0.4" id="BI.GI" d="M305.9,491.8 L300.9,486.0 L292.1,485.7 L281.6,481.3 L286.3,473.3 L277.7,461.5 L274.8,466.1 L270.6,477.9 L264.0,485.8 L255.2,491.3 L249.7,485.4 L253.5,478.9 L253.1,475.1 L256.9,451.0 L258.8,443.6 L258.4,436.4 L249.6,434.1 L240.2,433.1 L252.0,424.7 L267.2,426.6 L266.3,420.0 L263.7,413.6 L259.6,407.2 L254.6,402.1 L272.5,391.2 L287.0,380.1 L288.5,373.7 L288.7,367.2 L290.1,361.8 L292.9,356.5 L288.4,347.2 L278.7,341.1 L277.2,327.7 L263.7,319.5 L272.1,308.2 L286.1,301.2 L280.8,298.7 L276.0,295.1 L273.1,288.9 L269.5,283.7 L274.5,282.2 L278.0,278.2 L275.6,260.6 L290.2,244.6 L298.8,247.7 L299.9,253.9 L296.8,267.3 L294.4,274.1 L294.5,277.4 L296.7,280.8 L301.0,283.2 L306.8,276.4 L314.2,276.6 L317.1,277.7 L321.2,287.5 L325.2,291.9 L330.3,295.9 L334.8,301.0 L336.7,308.7 L335.8,316.1 L331.1,322.0 L323.3,334.2 L325.2,340.7 L330.7,345.8 L336.4,347.5 L342.2,338.2 L350.2,351.2 L351.0,356.0 L356.5,363.6 L353.6,381.8 L353.8,390.4 L356.2,394.6 L360.0,406.4 L363.4,413.8 L363.9,422.9 L363.2,432.1 L361.8,441.0 L355.9,448.5 L345.1,453.9 L334.3,458.1 L330.2,464.0 L329.4,471.4 L314.7,486.0 L313.5,495.5 L309.3,495.3 Z">
  <desc xmlns="http://www.highcharts.com/svg/namespace">
    <labelrank>9</labelrank>
    <hasc>BI.GI</hasc>
    <alt-name>Kitega</alt-name>
    <woe-id>2344906</woe-id>
    <subregion>NULL</subregion>
    <fips>BY13</fips>
    <postal-code>GI</postal-code>
    <name>Gitega</name>
    <country>Burundi</country>
    <type-en>Province</type-en>
    <region>NULL</region>
    <longitude>29.9159</longitude>
    <woe-name>Gitega</woe-name>
    <latitude>-3.48983</latitude>
    <woe-label>Gitega, BI, Burundi</woe-label>
    <type>Province</type>
    <hc-middle-x>0.56</hc-middle-x>
    <hc-middle-y>0.66</hc-middle-y>
    <hc-key>bi-gi</hc-key>
    <hc-a2>GI</hc-a2>
  </desc>
</path>

<path fill="#CEE3F5" stroke="#6E6E6E" stroke-width="0.4" id="BI.KY" d="M290.2,244.6 L275.6,260.6 L278.0,278.2 L274.5,282.2 L269.5,283.7 L253.8,287.1 L250.0,289.5 L245.1,290.5 L239.2,287.3 L235.9,281.4 L236.5,276.5 L234.5,273.1 L226.3,276.5 L219.0,277.3 L218.2,264.0 L214.1,261.1 L209.1,262.6 L205.8,260.8 L202.7,257.2 L194.8,257.0 L186.2,254.8 L185.4,243.8 L181.5,233.3 L178.2,227.3 L173.7,207.7 L165.5,196.5 L159.9,187.0 L155.8,177.1 L155.0,167.9 L149.2,162.7 L161.0,164.9 L168.5,169.2 L174.8,167.1 L180.9,163.3 L191.4,162.5 L196.4,160.1 L206.1,156.6 L211.9,157.9 L213.4,174.3 L201.4,183.0 L205.4,185.0 L209.0,184.0 L215.9,190.5 L223.6,189.8 L227.1,192.3 L239.1,195.3 L245.7,192.1 L252.2,191.8 L259.0,194.8 L262.5,205.8 L265.5,220.6 L277.3,222.1 L281.9,225.1 L286.9,226.5 L290.3,228.9 L288.7,239.0 Z">
  <desc xmlns="http://www.highcharts.com/svg/namespace">
    <labelrank>9</labelrank>
    <hasc>BI.KY</hasc>
    <alt-name>NULL</alt-name>
    <woe-id>2344908</woe-id>
    <subregion>NULL</subregion>
    <fips>BY15</fips>
    <postal-code>KY</postal-code>
    <name>Kayanza</name>
    <country>Burundi</country>
    <type-en>Province</type-en>
    <region>NULL</region>
    <longitude>29.6613</longitude>
    <woe-name>Kayanza</woe-name>
    <latitude>-3.02498</latitude>
    <woe-label>Kayanza, BI, Burundi</woe-label>
    <type>Province</type>
    <hc-middle-x>0.54</hc-middle-x>
    <hc-middle-y>0.54</hc-middle-y>
    <hc-key>bi-ky</hc-key>
    <hc-a2>KY</hc-a2>
  </desc>
</path>

<path fill="#CEE3F5" stroke="#6E6E6E" stroke-width="0.4" id="BI.MA" d="M386.3,563.3 L377.7,578.4 L367.8,590.3 L345.6,608.6 L342.2,613.4 L333.8,633.1 L329.7,638.3 L319.1,644.9 L307.9,651.2 L296.2,662.0 L276.0,671.0 L263.6,667.8 L258.3,671.0 L257.0,677.5 L255.3,680.2 L247.7,684.7 L245.3,697.1 L241.5,700.0 L226.7,698.3 L216.0,695.8 L216.8,686.0 L216.0,679.1 L211.9,672.7 L200.4,661.9 L195.6,656.4 L183.4,635.9 L180.7,628.6 L177.8,614.6 L170.5,607.5 L176.4,607.2 L187.6,597.9 L196.1,597.1 L211.7,589.9 L223.2,577.2 L233.5,570.4 L245.5,567.1 L257.7,556.2 L263.7,541.1 L265.1,533.7 L269.6,531.3 L269.7,541.8 L273.7,552.2 L273.5,564.9 L275.7,572.6 L280.5,575.2 L290.4,569.2 L293.7,575.7 L305.5,583.2 L313.6,594.0 L318.9,590.4 L327.4,580.0 L342.2,571.6 L369.8,570.6 L379.0,565.8 L383.3,562.5 Z">
  <desc xmlns="http://www.highcharts.com/svg/namespace">
    <labelrank>7</labelrank>
    <hasc>BI.MA</hasc>
    <alt-name>NULL</alt-name>
    <woe-id>2344910</woe-id>
    <subregion>NULL</subregion>
    <fips>BY17</fips>
    <postal-code>MA</postal-code>
    <name>Makamba</name>
    <country>Burundi</country>
    <type-en>Province</type-en>
    <region>NULL</region>
    <longitude>29.771</longitude>
    <woe-name>Makamba</woe-name>
    <latitude>-4.21622</latitude>
    <woe-label>Makamba, BI, Burundi</woe-label>
    <type>Province</type>
    <hc-middle-x>0.38</hc-middle-x>
    <hc-middle-y>0.53</hc-middle-y>
    <hc-key>bi-ma</hc-key>
    <hc-a2>MA</hc-a2>
  </desc>
</path>

<path fill="#CEE3F5" stroke="#6E6E6E" stroke-width="0.4" id="BI.NG" d="M299.9,253.9 L298.8,247.7 L290.2,244.6 L288.7,239.0 L290.3,228.9 L286.9,226.5 L281.9,225.1 L277.3,222.1 L265.5,220.6 L262.5,205.8 L259.0,194.8 L252.2,191.8 L245.7,192.1 L239.1,195.3 L227.1,192.3 L223.6,189.8 L215.9,190.5 L209.0,184.0 L205.4,185.0 L201.4,183.0 L213.4,174.3 L211.9,157.9 L225.5,162.4 L231.6,163.3 L238.9,162.4 L242.1,160.5 L243.5,157.5 L244.6,150.7 L247.0,147.7 L250.8,147.7 L258.0,149.9 L266.2,150.1 L272.7,148.9 L278.9,145.3 L285.6,138.6 L293.9,126.1 L297.0,119.0 L299.0,108.3 L307.5,109.5 L323.3,113.7 L333.1,125.7 L337.5,133.9 L344.2,139.6 L355.7,154.8 L363.8,159.0 L369.1,167.6 L364.3,177.7 L357.1,187.9 L364.6,191.8 L376.8,180.5 L382.3,181.2 L386.5,183.5 L391.2,183.6 L391.1,192.8 L381.5,204.5 L360.3,219.1 L347.8,219.5 L334.9,225.0 L327.9,236.0 L322.3,241.4 L315.6,244.9 L312.9,250.7 Z">
  <desc xmlns="http://www.highcharts.com/svg/namespace">
    <labelrank>9</labelrank>
    <hasc>BI.NG</hasc>
    <alt-name>NULL</alt-name>
    <woe-id>2344912</woe-id>
    <subregion>NULL</subregion>
    <fips>BY19</fips>
    <postal-code>NG</postal-code>
    <name>Ngozi</name>
    <country>Burundi</country>
    <type-en>Province</type-en>
    <region>NULL</region>
    <longitude>29.896</longitude>
    <woe-name>Ngozi</woe-name>
    <latitude>-2.86902</latitude>
    <woe-label>Ngozi, BI, Burundi</woe-label>
    <type>Province</type>
    <hc-middle-x>0.56</hc-middle-x>
    <hc-middle-y>0.50</hc-middle-y>
    <hc-key>bi-ng</hc-key>
    <hc-a2>NG</hc-a2>
  </desc>
</path>

<path fill="#CEE3F5" stroke="#6E6E6E" stroke-width="0.4" id="BI.KI" d="M355.7,154.8 L344.2,139.6 L337.5,133.9 L333.1,125.7 L323.3,113.7 L307.5,109.5 L299.0,108.3 L300.4,75.0 L307.5,50.5 L305.2,25.6 L308.3,4.2 L314.3,5.6 L322.8,12.9 L331.2,13.1 L338.9,17.5 L349.0,29.4 L354.3,34.1 L361.1,38.6 L368.6,41.5 L375.9,41.3 L381.5,37.4 L396.3,19.1 L398.3,11.6 L402.1,12.0 L412.3,16.9 L421.6,17.6 L433.9,14.4 L438.6,12.0 L444.3,6.2 L451.5,11.7 L454.8,24.1 L459.1,30.7 L459.4,35.4 L461.3,39.4 L466.1,44.0 L469.4,49.9 L464.6,63.6 L469.5,75.7 L468.5,82.5 L466.0,88.8 L459.5,92.4 L452.4,93.1 L445.1,102.0 L421.7,122.5 L417.1,120.5 L406.6,125.8 L399.8,130.7 L391.2,132.3 L383.9,135.3 L379.0,141.1 L377.0,148.1 L368.8,152.4 Z">
  <desc xmlns="http://www.highcharts.com/svg/namespace">
    <labelrank>7</labelrank>
    <hasc>BI.KI</hasc>
    <alt-name>NULL</alt-name>
    <woe-id>2344909</woe-id>
    <subregion>NULL</subregion>
    <fips>BY16</fips>
    <postal-code>KI</postal-code>
    <name>Kirundo</name>
    <country>Burundi</country>
    <type-en>Province</type-en>
    <region>NULL</region>
    <longitude>30.1647</longitude>
    <woe-name>Kirundo</woe-name>
    <latitude>-2.56414</latitude>
    <woe-label>Kirundo, BI, Burundi</woe-label>
    <type>Province</type>
    <hc-middle-x>0.56</hc-middle-x>
    <hc-middle-y>0.49</hc-middle-y>
    <hc-key>bi-ki</hc-key>
    <hc-a2>KI</hc-a2>
  </desc>
</path>

<path fill="#CEE3F5" stroke="#6E6E6E" stroke-width="0.4" id="BI.MY" d="M391.1,192.8 L391.2,183.6 L386.5,183.5 L382.3,181.2 L376.8,180.5 L364.6,191.8 L357.1,187.9 L364.3,177.7 L369.1,167.6 L363.8,159.0 L355.7,154.8 L368.8,152.4 L377.0,148.1 L379.0,141.1 L383.9,135.3 L391.2,132.3 L399.8,130.7 L406.6,125.8 L417.1,120.5 L421.7,122.5 L445.1,102.0 L452.4,93.1 L459.5,92.4 L466.0,88.8 L468.5,82.5 L469.5,75.7 L464.6,63.6 L469.4,49.9 L466.1,44.0 L461.3,39.4 L459.4,35.4 L459.1,30.7 L454.8,24.1 L451.5,11.7 L444.3,6.2 L448.9,1.5 L454.1,0.0 L466.0,3.3 L468.7,4.7 L472.2,11.8 L489.9,26.3 L500.8,31.4 L511.5,31.8 L500.7,45.3 L496.3,52.1 L483.8,82.1 L481.1,92.4 L476.6,99.8 L468.7,107.1 L466.1,111.2 L464.8,119.1 L468.4,122.6 L474.7,122.7 L481.6,120.5 L493.3,115.2 L500.8,112.5 L498.7,118.6 L479.9,138.2 L477.2,142.4 L476.2,147.4 L476.0,155.7 L468.9,165.2 L465.1,172.4 L465.8,178.0 L473.9,188.5 L478.9,193.2 L484.8,194.8 L483.3,198.4 L488.0,203.7 L489.4,207.8 L485.8,210.0 L480.7,217.3 L475.8,219.4 L471.8,222.4 L470.1,227.4 L465.5,229.7 L464.5,233.4 L464.8,240.2 L463.8,242.5 L455.3,244.8 L452.8,248.6 L451.0,261.1 L446.7,270.2 L440.2,273.1 L430.4,269.1 L422.2,271.3 L412.0,264.6 L409.5,261.5 L412.3,252.1 L419.2,239.5 L424.1,226.1 L424.1,213.2 L418.6,201.6 L405.2,195.6 Z">
  <desc xmlns="http://www.highcharts.com/svg/namespace">
    <labelrank>7</labelrank>
    <hasc>BI.MY</hasc>
    <alt-name>Muhinga</alt-name>
    <woe-id>2344911</woe-id>
    <subregion>NULL</subregion>
    <fips>BY18</fips>
    <postal-code>MY</postal-code>
    <name>Muyinga</name>
    <country>Burundi</country>
    <type-en>Province</type-en>
    <region>NULL</region>
    <longitude>30.3161</longitude>
    <woe-name>Muyinga</woe-name>
    <latitude>-2.89215</latitude>
    <woe-label>NULL</woe-label>
    <type>Province</type>
    <hc-middle-x>0.56</hc-middle-x>
    <hc-middle-y>0.59</hc-middle-y>
    <hc-key>bi-my</hc-key>
    <hc-a2>MY</hc-a2>
  </desc>
</path>

<path fill="#CEE3F5" stroke="#6E6E6E" stroke-width="0.4" id="BI.BM" d="M114.6,407.2 L115.7,356.0 L111.1,342.6 L104.1,337.9 L118.6,326.8 L126.0,325.6 L131.2,325.9 L136.7,330.6 L138.3,336.5 L137.9,345.1 L136.0,352.8 L130.4,372.0 L126.8,395.5 L120.9,402.2 Z">
  <desc xmlns="http://www.highcharts.com/svg/namespace">
    <labelrank>9</labelrank>
    <hasc>BI.BM</hasc>
    <alt-name>NULL</alt-name>
    <woe-id>2344900</woe-id>
    <subregion>NULL</subregion>
    <fips>BY24</fips>
    <postal-code>BM</postal-code>
    <name>Bujumbura Mairie</name>
    <country>Burundi</country>
    <type-en>Province</type-en>
    <region>NULL</region>
    <longitude>29.3689</longitude>
    <woe-name>Bujumbura Mairie</woe-name>
    <latitude>-3.39861</latitude>
    <woe-label>Bujumbura Mairie, BI, Burundi</woe-label>
    <type>Province</type>
    <hc-middle-x>0.64</hc-middle-x>
    <hc-middle-y>0.28</hc-middle-y>
    <hc-key>bi-bm</hc-key>
    <hc-a2>BM</hc-a2>
  </desc>
</path>

<path fill="#CEE3F5" stroke="#6E6E6E" stroke-width="0.4" id="BI.MV" d="M269.5,283.7 L273.1,288.9 L276.0,295.1 L280.8,298.7 L286.1,301.2 L272.1,308.2 L263.7,319.5 L277.2,327.7 L278.7,341.1 L270.8,344.3 L247.0,348.6 L234.1,348.3 L224.5,350.2 L218.1,354.4 L215.4,354.7 L213.6,351.8 L208.8,349.2 L202.2,351.0 L196.9,354.8 L193.7,351.0 L188.1,355.7 L184.8,349.9 L182.2,342.9 L178.9,336.8 L179.2,330.3 L174.4,316.1 L178.3,312.5 L180.9,307.8 L178.0,302.7 L180.5,293.8 L185.0,286.3 L186.1,277.3 L181.8,269.1 L182.8,261.7 L186.2,254.8 L194.8,257.0 L202.7,257.2 L205.8,260.8 L209.1,262.6 L214.1,261.1 L218.2,264.0 L219.0,277.3 L226.3,276.5 L234.5,273.1 L236.5,276.5 L235.9,281.4 L239.2,287.3 L245.1,290.5 L250.0,289.5 L253.8,287.1 Z">
  <desc xmlns="http://www.highcharts.com/svg/namespace">
    <labelrank>7</labelrank>
    <hasc>BI.MV</hasc>
    <alt-name>Muramviya</alt-name>
    <woe-id>2344901</woe-id>
    <subregion>NULL</subregion>
    <fips>BY22</fips>
    <postal-code>MV</postal-code>
    <name>Muramvya</name>
    <country>Burundi</country>
    <type-en>Province</type-en>
    <region>NULL</region>
    <longitude>29.668</longitude>
    <woe-name>Muramvya</woe-name>
    <latitude>-3.2533</latitude>
    <woe-label>Muramvya, BI, Burundi</woe-label>
    <type>Province</type>
    <hc-middle-x>0.42</hc-middle-x>
    <hc-middle-y>0.62</hc-middle-y>
    <hc-key>bi-mv</hc-key>
    <hc-a2>MV</hc-a2>
  </desc>
</path>

<path fill="#CEE3F5" stroke="#6E6E6E" stroke-width="0.4" id="BI.BU" d="M174.4,316.1 L179.2,330.3 L178.9,336.8 L182.2,342.9 L184.8,349.9 L188.1,355.7 L193.7,351.0 L196.9,354.8 L196.3,360.7 L200.7,375.8 L196.6,387.5 L196.9,395.3 L194.0,402.5 L181.6,409.1 L177.1,417.6 L169.3,439.0 L166.3,446.2 L166.0,454.3 L162.7,457.8 L150.2,458.5 L143.2,460.9 L113.5,461.5 L114.6,407.2 L120.9,402.2 L126.8,395.5 L130.4,372.0 L136.0,352.8 L137.9,345.1 L138.3,336.5 L136.7,330.6 L131.2,325.9 L126.0,325.6 L118.6,326.8 L104.1,337.9 L100.6,335.6 L86.4,333.1 L71.3,333.5 L72.0,324.1 L73.4,319.8 L80.9,312.9 L88.4,322.2 L99.7,326.0 L110.6,314.6 L118.7,311.0 L127.4,309.1 L133.6,308.6 L145.3,311.8 L151.6,310.3 L164.9,309.7 Z">
  <desc xmlns="http://www.highcharts.com/svg/namespace">
    <labelrank>9</labelrank>
    <hasc>BI.BU</hasc>
    <alt-name>NULL</alt-name>
    <woe-id>56017453</woe-id>
    <subregion>NULL</subregion>
    <fips>BY25</fips>
    <postal-code>BU</postal-code>
    <name>Bujumbura Rural</name>
    <country>Burundi</country>
    <type-en>Province</type-en>
    <region>NULL</region>
    <longitude>29.4237</longitude>
    <woe-name>Bujumbura Rural</woe-name>
    <latitude>-3.61843</latitude>
    <woe-label>Bujumbura Rural, BI, Burundi</woe-label>
    <type>Province</type>
    <hc-middle-x>0.72</hc-middle-x>
    <hc-middle-y>0.48</hc-middle-y>
    <hc-key>bi-bu</hc-key>
    <hc-a2>BU</hc-a2>
  </desc>
</path>

<path fill="#CEE3F5" stroke="#6E6E6E" stroke-width="0.4" id="BI.MW" d="M240.2,433.1 L233.7,441.9 L232.4,446.5 L223.5,457.6 L223.8,443.9 L221.5,435.0 L213.0,429.6 L199.2,412.2 L194.0,402.5 L196.9,395.3 L196.6,387.5 L200.7,375.8 L196.3,360.7 L196.9,354.8 L202.2,351.0 L208.8,349.2 L213.6,351.8 L215.4,354.7 L218.1,354.4 L224.5,350.2 L234.1,348.3 L247.0,348.6 L270.8,344.3 L278.7,341.1 L288.4,347.2 L292.9,356.5 L290.1,361.8 L288.7,367.2 L288.5,373.7 L287.0,380.1 L272.5,391.2 L254.6,402.1 L259.6,407.2 L263.7,413.6 L266.3,420.0 L267.2,426.6 L252.0,424.7 Z">
  <desc xmlns="http://www.highcharts.com/svg/namespace">
    <labelrank>7</labelrank>
    <hasc>BI.MW</hasc>
    <alt-name>NULL</alt-name>
    <woe-id>-2344901</woe-id>
    <subregion>NULL</subregion>
    <fips>BY23</fips>
    <postal-code>MW</postal-code>
    <name>Mwaro</name>
    <country>Burundi</country>
    <type-en>Province</type-en>
    <region>NULL</region>
    <longitude>29.6943</longitude>
    <woe-name>Muramvya</woe-name>
    <latitude>-3.51787</latitude>
    <woe-label>Muramvya, BI, Burundi</woe-label>
    <type>Province</type>
    <hc-middle-x>0.41</hc-middle-x>
    <hc-middle-y>0.42</hc-middle-y>
    <hc-key>bi-mw</hc-key>
    <hc-a2>MW</hc-a2>
  </desc>
</path>

<path fill="#CEE3F5" stroke="#6E6E6E" stroke-width="0.4" id="BI.CA" d="M440.2,273.1 L446.7,270.2 L451.0,261.1 L452.8,248.6 L455.3,244.8 L463.8,242.5 L464.8,240.2 L464.5,233.4 L465.5,229.7 L470.1,227.4 L471.8,222.4 L475.8,219.4 L480.7,217.3 L485.8,210.0 L489.4,207.9 L491.0,207.2 L497.5,198.3 L501.4,195.2 L505.9,193.5 L508.6,193.9 L529.7,206.6 L535.4,209.4 L538.0,218.1 L542.4,219.0 L549.1,216.9 L553.1,216.7 L557.1,218.2 L564.6,223.1 L568.8,224.4 L576.5,223.7 L591.7,219.5 L599.4,219.6 L596.2,225.2 L586.0,236.8 L583.9,241.9 L585.5,246.7 L593.5,254.2 L596.7,258.7 L594.9,266.7 L596.0,269.1 L601.6,274.5 L601.3,282.7 L598.5,290.4 L593.8,296.9 L595.6,307.0 L590.6,315.7 L582.7,321.0 L573.7,322.0 L565.1,317.7 L561.9,324.4 L545.8,330.0 L538.6,334.4 L532.4,340.1 L526.4,347.2 L528.7,348.5 L522.8,350.7 L522.5,343.4 L520.5,335.0 L514.5,328.6 L502.3,321.5 L494.8,325.5 L485.8,323.4 L478.6,317.5 L478.3,308.6 L473.3,301.2 L468.6,299.0 L463.2,298.6 L458.0,296.6 L449.6,291.3 L442.1,292.7 L436.5,290.2 L424.1,286.1 L437.6,274.6 Z">
  <desc xmlns="http://www.highcharts.com/svg/namespace">
    <labelrank>7</labelrank>
    <hasc>BI.CA</hasc>
    <alt-name>NULL</alt-name>
    <woe-id>2344904</woe-id>
    <subregion>NULL</subregion>
    <fips>BY11</fips>
    <postal-code>CA</postal-code>
    <name>Cankuzo</name>
    <country>Burundi</country>
    <type-en>Province</type-en>
    <region>NULL</region>
    <longitude>30.5612</longitude>
    <woe-name>Cankuzo</woe-name>
    <latitude>-3.11103</latitude>
    <woe-label>Cankuzo, BI, Burundi</woe-label>
    <type>Province</type>
    <hc-middle-x>0.57</hc-middle-x>
    <hc-middle-y>0.52</hc-middle-y>
    <hc-key>bi-ca</hc-key>
    <hc-a2>CA</hc-a2>
  </desc>
</path>

<path fill="#CEE3F5" stroke="#6E6E6E" stroke-width="0.4" id="BI.KR" d="M440.2,273.1 L437.6,274.6 L424.1,286.1 L419.8,292.3 L387.2,324.4 L380.8,328.9 L374.1,330.6 L359.1,332.1 L352.8,336.0 L345.3,336.9 L342.2,338.2 L336.4,347.5 L330.7,345.8 L325.2,340.7 L323.3,334.2 L331.1,322.0 L335.8,316.1 L336.7,308.7 L334.8,301.0 L330.3,295.9 L325.2,291.9 L321.2,287.5 L317.1,277.7 L314.2,276.6 L306.8,276.4 L301.0,283.2 L296.7,280.8 L294.5,277.4 L294.4,274.1 L296.8,267.3 L299.9,253.9 L312.9,250.7 L315.6,244.9 L322.3,241.4 L327.9,236.0 L334.9,225.0 L347.8,219.5 L360.3,219.1 L381.5,204.5 L391.1,192.8 L405.2,195.6 L418.6,201.6 L424.1,213.2 L424.1,226.1 L419.2,239.5 L412.3,252.1 L409.5,261.5 L412.0,264.6 L422.2,271.3 L430.4,269.1 Z">
  <desc xmlns="http://www.highcharts.com/svg/namespace">
    <labelrank>9</labelrank>
    <hasc>BI.KR</hasc>
    <alt-name>Karusi</alt-name>
    <woe-id>2344907</woe-id>
    <subregion>NULL</subregion>
    <fips>BY14</fips>
    <postal-code>KR</postal-code>
    <name>Karuzi</name>
    <country>Burundi</country>
    <type-en>Province</type-en>
    <region>NULL</region>
    <longitude>30.1146</longitude>
    <woe-name>Karuzi</woe-name>
    <latitude>-3.14444</latitude>
    <woe-label>Karuzi, BI, Burundi</woe-label>
    <type>Province</type>
    <hc-middle-x>0.54</hc-middle-x>
    <hc-middle-y>0.53</hc-middle-y>
    <hc-key>bi-kr</hc-key>
    <hc-a2>KR</hc-a2>
  </desc>
</path>

<path fill="#CEE3F5" stroke="#6E6E6E" stroke-width="0.4" id="BI.RT" d="M450.9,454.6 L450.6,460.6 L454.7,476.2 L453.6,481.9 L439.1,477.1 L430.8,482.3 L418.2,503.8 L401.1,521.1 L397.1,527.8 L391.4,551.1 L386.3,563.3 L383.3,562.5 L379.0,565.8 L369.8,570.6 L342.2,571.6 L327.4,580.0 L318.9,590.4 L313.6,594.0 L305.5,583.2 L293.7,575.7 L290.4,569.2 L293.2,559.6 L294.1,544.4 L296.3,537.0 L294.8,529.0 L305.6,515.6 L303.3,508.5 L299.8,503.5 L299.1,497.2 L305.9,491.8 L309.3,495.3 L313.5,495.5 L314.7,486.0 L329.4,471.4 L330.2,464.0 L334.3,458.1 L345.1,453.9 L355.9,448.5 L361.8,441.0 L363.2,432.1 L371.0,432.2 L378.3,434.4 L382.0,439.6 L385.9,443.3 L403.8,433.1 L423.2,440.3 L431.0,444.7 L439.6,447.3 L447.3,454.5 Z">
  <desc xmlns="http://www.highcharts.com/svg/namespace">
    <labelrank>7</labelrank>
    <hasc>BI.RT</hasc>
    <alt-name>NULL</alt-name>
    <woe-id>2344913</woe-id>
    <subregion>NULL</subregion>
    <fips>BY20</fips>
    <postal-code>RT</postal-code>
    <name>Rutana</name>
    <country>Burundi</country>
    <type-en>Province</type-en>
    <region>NULL</region>
    <longitude>30.1331</longitude>
    <woe-name>Rutana</woe-name>
    <latitude>-3.84824</latitude>
    <woe-label>Rutana, BI, Burundi</woe-label>
    <type>Province</type>
    <hc-middle-x>0.43</hc-middle-x>
    <hc-middle-y>0.45</hc-middle-y>
    <hc-key>bi-rt</hc-key>
    <hc-a2>RT</hc-a2>
  </desc>
</path>

<path fill="#CEE3F5" stroke="#6E6E6E" stroke-width="0.4" id="BI.RY" d="M363.2,432.1 L363.9,422.9 L363.4,413.8 L360.0,406.4 L356.2,394.6 L353.8,390.4 L353.6,381.8 L356.5,363.6 L351.0,356.0 L350.2,351.2 L342.2,338.2 L345.3,336.9 L352.8,336.0 L359.1,332.1 L374.1,330.6 L380.8,328.9 L387.2,324.4 L419.8,292.3 L424.1,286.1 L436.5,290.2 L442.1,292.7 L449.6,291.3 L458.0,296.6 L463.2,298.6 L468.6,299.0 L473.3,301.2 L478.3,308.6 L478.6,317.5 L485.8,323.4 L494.8,325.5 L502.3,321.5 L514.5,328.6 L520.5,335.0 L522.5,343.4 L522.8,350.7 L528.7,348.5 L538.5,353.9 L538.0,362.5 L529.4,370.7 L514.1,377.8 L507.3,385.0 L496.3,387.7 L494.9,392.1 L482.4,392.7 L479.5,398.8 L470.4,405.2 L468.6,409.1 L469.3,421.5 L466.8,427.6 L453.3,448.5 L450.9,454.6 L447.3,454.5 L439.6,447.3 L431.0,444.7 L423.2,440.3 L403.8,433.1 L385.9,443.3 L382.0,439.6 L378.3,434.4 L371.0,432.2 Z">
  <desc xmlns="http://www.highcharts.com/svg/namespace">
    <labelrank>7</labelrank>
    <hasc>BI.RY</hasc>
    <alt-name>NULL</alt-name>
    <woe-id>2344914</woe-id>
    <subregion>NULL</subregion>
    <fips>BY21</fips>
    <postal-code>RY</postal-code>
    <name>Ruyigi</name>
    <country>Burundi</country>
    <type-en>Province</type-en>
    <region>NULL</region>
    <longitude>30.3391</longitude>
    <woe-name>Ruyigi</woe-name>
    <latitude>-3.44273</latitude>
    <woe-label>Ruyigi, BI, Burundi</woe-label>
    <type>Province</type>
    <hc-middle-x>0.42</hc-middle-x>
    <hc-middle-y>0.53</hc-middle-y>
    <hc-key>bi-ry</hc-key>
    <hc-a2>RY</hc-a2>
  </desc>
</path>
</g>

<text x="350" y="714" text-anchor="middle" font-family="Verdana" font-size="8" stroke-opacity="0.6">Copyright (c) 2020 Highsoft AS, Based on data from Natural Earth</text>

</svg>