<?xml version="1.0" encoding="utf-8" standalone="no"?>
<!DOCTYPE svg PUBLIC "-//W3C//DTD SVG 1.1//EN" "http://www.w3.org/Graphics/SVG/1.1/DTD/svg11.dtd">

<svg version="1.1" height="700pt" width="700pt" xmlns="http://www.w3.org/2000/svg" xmlns:xlink="http://www.w3.org/1999/xlink">
<desc>
Map version: 1.1.3
Copyright (c) 2020 Highsoft AS, Based on data from Natural Earth
</desc>
<title>Norway (2019)</title>
<g id="admin1">

<g id="NO">
  <desc xmlns="http://www.highcharts.com/svg/namespace">
    <name>Norway</name>
    <labelrank>3</labelrank>
    <country-abbrev>Nor.</country-abbrev>
    <subregion>Northern Europe</subregion>
    <region-wb>Europe &amp; Central Asia</region-wb>
    <iso-a3>NOR</iso-a3>
    <iso-a2>NO</iso-a2>
    <woe-id>-90</woe-id>
    <continent>Europe</continent>
    <hc-key>no</hc-key>
    <hc-a2>NO</hc-a2>
  </desc>
</g>

<path fill="#CEE3F5" stroke="#6E6E6E" stroke-width="0.4" id="NO.MR" d="M30.8,481.0 L33.0,482.1 L32.2,485.6 L30.3,486.3 L26.6,486.0 L25.7,484.2 L28.2,484.4 L26.2,483.4 L27.4,481.0 Z M31.4,477.7 L31.9,477.8 L31.4,479.5 L28.5,479.2 Z M39.4,479.0 L34.6,483.4 L33.1,483.8 L34.2,482.1 L33.4,477.9 L34.3,475.9 L36.9,474.8 L37.9,478.0 Z M43.3,474.6 L45.7,475.7 L45.5,476.6 L40.2,476.3 L38.8,474.5 Z M41.8,468.3 L41.6,470.0 L39.0,468.6 L41.6,467.0 Z M60.2,460.9 L60.4,462.7 L56.5,463.5 L54.6,464.5 L54.1,463.0 L55.2,460.7 L56.5,461.2 L59.1,460.2 Z M58.3,454.6 L61.1,454.7 L60.0,458.8 L57.7,457.0 Z M84.4,444.5 L82.7,446.9 L81.4,447.5 L79.0,445.6 L80.3,443.6 L81.3,444.4 L83.8,443.6 Z M78.9,447.4 L75.2,450.9 L72.2,449.1 L71.9,447.7 L73.3,447.1 L72.6,445.3 L74.7,444.7 L76.3,447.2 L77.4,443.8 L78.4,442.8 Z M93.6,440.6 L91.0,440.5 L90.6,437.8 L92.0,437.7 Z M90.8,440.9 L86.9,441.8 L84.9,439.7 L88.5,436.6 L90.2,438.2 Z M97.7,436.7 L99.7,439.1 L99.5,440.2 L96.2,441.0 L94.4,440.1 L92.7,437.2 L93.1,435.1 L94.8,435.5 L95.7,437.6 L96.1,434.8 Z M104.9,427.7 L107.7,431.5 L106.5,438.8 L100.6,439.0 L99.8,436.4 L97.6,434.3 L102.8,432.9 L104.3,431.7 L102.7,431.3 L101.5,429.5 L102.3,428.0 L103.3,428.7 Z M91.1,429.2 L89.2,431.5 L86.7,432.8 L85.0,431.3 L86.1,430.8 L82.6,429.8 L82.1,427.7 L85.4,426.6 L87.3,424.8 L89.5,425.4 Z M23.9,495.2 L26.6,491.2 L23.3,489.9 L22.7,488.7 L23.9,486.1 L28.3,487.5 L29.1,489.8 L31.0,491.6 L29.3,488.7 L29.8,486.9 L31.8,487.1 L34.0,485.9 L35.5,488.1 L34.8,491.6 L33.0,495.2 L35.4,492.0 L36.1,489.3 L38.0,491.6 L38.1,493.1 L39.9,492.5 L45.5,493.7 L39.1,491.1 L36.9,487.2 L35.7,486.3 L36.3,484.0 L38.4,481.1 L45.3,478.2 L46.9,483.0 L48.3,484.7 L50.2,488.8 L49.5,491.8 L51.1,490.6 L49.2,484.5 L47.6,481.5 L47.4,477.6 L49.8,477.2 L51.2,479.5 L50.9,476.6 L54.8,474.8 L58.7,476.8 L58.4,479.9 L60.7,483.7 L61.1,487.5 L59.4,491.0 L59.6,492.8 L61.1,493.5 L64.3,492.4 L64.2,491.6 L61.3,493.0 L60.1,491.5 L61.5,489.6 L62.0,484.3 L63.8,484.0 L66.0,485.6 L68.4,484.2 L70.8,486.9 L69.9,484.7 L68.1,483.4 L64.9,483.8 L61.7,482.7 L60.3,481.6 L59.4,479.3 L60.8,479.0 L58.2,474.9 L54.5,473.5 L49.5,475.6 L47.5,475.7 L45.4,473.8 L49.0,471.9 L54.2,472.7 L52.8,471.2 L49.6,471.4 L51.0,470.3 L44.7,470.3 L44.5,467.9 L46.3,466.3 L51.4,466.3 L52.9,469.2 L53.9,466.8 L55.9,464.8 L57.0,464.9 L59.3,467.5 L60.6,464.9 L64.4,465.3 L63.0,466.6 L64.3,467.3 L65.0,471.3 L65.8,466.5 L70.5,468.6 L71.9,470.9 L74.0,471.4 L74.4,473.3 L75.3,471.0 L80.1,470.0 L79.4,469.4 L73.7,470.1 L71.9,468.4 L71.9,466.6 L73.3,466.4 L73.6,469.0 L74.5,467.7 L74.4,464.7 L76.7,463.5 L81.8,462.1 L86.6,462.5 L88.5,464.3 L88.6,463.1 L86.7,460.9 L87.4,459.9 L82.5,461.2 L77.4,462.0 L74.5,463.8 L71.3,463.8 L70.9,461.5 L73.5,459.9 L78.4,458.8 L76.7,458.6 L69.7,460.9 L61.8,461.4 L61.5,459.1 L64.1,456.4 L67.7,457.2 L65.9,455.4 L63.2,455.6 L61.0,451.0 L64.9,448.5 L69.5,447.2 L72.8,450.5 L73.2,452.3 L74.5,452.7 L78.5,449.4 L81.0,449.6 L79.0,452.8 L85.5,449.9 L87.8,451.3 L89.4,458.2 L93.1,460.3 L95.2,462.9 L97.5,463.9 L98.1,466.5 L98.2,463.3 L93.4,459.1 L90.1,456.6 L90.1,452.9 L85.4,447.3 L85.5,448.4 L83.4,448.1 L86.3,444.1 L88.4,443.3 L89.2,446.3 L91.9,448.5 L93.9,451.1 L93.2,451.8 L93.5,455.0 L95.2,454.8 L97.9,457.0 L99.2,455.5 L102.0,458.3 L100.2,455.4 L97.0,453.8 L95.7,451.2 L100.9,450.9 L100.9,449.8 L98.2,449.7 L99.7,448.2 L95.2,450.4 L93.5,449.0 L96.2,448.6 L96.2,447.5 L93.2,448.0 L91.4,447.2 L91.6,445.7 L90.2,443.0 L91.5,442.1 L93.8,444.5 L93.4,442.7 L91.9,441.3 L98.9,442.5 L101.1,443.7 L99.5,441.1 L100.5,440.1 L106.0,439.1 L105.0,440.1 L106.1,442.4 L108.1,442.8 L110.2,441.7 L114.3,442.2 L114.3,440.4 L115.8,439.0 L118.9,439.3 L120.1,440.1 L120.5,447.1 L122.5,448.8 L119.2,452.9 L119.4,455.4 L118.5,458.2 L115.9,459.5 L107.6,462.5 L107.4,463.9 L112.5,470.7 L114.3,471.7 L112.3,478.9 L110.4,480.9 L107.6,481.2 L104.9,480.3 L94.5,480.5 L88.2,482.1 L86.6,486.3 L85.0,488.6 L82.2,489.7 L79.9,488.7 L78.1,489.1 L75.1,492.6 L75.3,493.9 L71.6,493.9 L68.2,495.9 L63.7,496.4 L61.1,498.1 L55.6,499.1 L54.7,498.1 L52.7,493.6 L46.7,496.3 L45.1,498.1 L43.0,497.8 L41.7,496.5 L38.3,497.9 L34.9,496.3 L31.9,497.2 L30.1,496.6 L26.4,497.6 Z">
  <desc xmlns="http://www.highcharts.com/svg/namespace">
    <labelrank>7</labelrank>
    <hasc>NO.MR</hasc>
    <alt-name>Moere og Romsdal fylk|Møre|Romsdal</alt-name>
    <woe-id>2346391</woe-id>
    <subregion>NULL</subregion>
    <fips>NO08</fips>
    <postal-code>MR</postal-code>
    <name>Møre og Romsdal</name>
    <country>Norway</country>
    <type-en>County</type-en>
    <region>NULL</region>
    <longitude>8.35107</longitude>
    <woe-name>Møre og Romsdal</woe-name>
    <latitude>62.5471</latitude>
    <woe-label>More og Romsdal, NO, Norway</woe-label>
    <type>Fylke</type>
    <hc-middle-x>0.74</hc-middle-x>
    <hc-middle-y>0.63</hc-middle-y>
    <hc-key>no-mr</hc-key>
    <hc-a2>MR</hc-a2>
  </desc>
</path>

<path fill="#CEE3F5" stroke="#6E6E6E" stroke-width="0.4" id="NO.ST" d="M111.0,415.9 L112.6,415.5 L113.7,417.6 L110.7,418.3 Z M131.2,398.0 L130.3,399.5 L129.3,398.0 L130.3,396.9 Z M106.0,439.1 L108.1,438.8 L106.5,438.8 L107.7,431.5 L104.9,427.7 L107.0,429.3 L107.3,428.2 L109.1,428.1 L109.8,426.0 L112.3,428.5 L113.0,430.6 L112.0,432.2 L111.7,434.7 L112.8,432.9 L115.6,431.3 L119.5,430.5 L114.6,430.8 L113.5,429.3 L113.9,427.7 L120.7,425.9 L116.4,426.5 L113.6,426.0 L113.5,424.0 L115.4,423.7 L118.2,421.3 L119.0,423.5 L121.1,420.6 L122.8,422.5 L122.2,420.5 L121.0,420.0 L125.7,417.3 L128.2,422.2 L128.0,423.9 L130.1,425.8 L131.5,428.3 L130.7,430.9 L128.5,433.3 L131.9,431.6 L134.6,433.6 L138.6,433.6 L137.9,432.6 L134.2,431.7 L133.3,429.4 L134.5,427.8 L139.2,426.4 L140.4,427.5 L143.3,427.1 L145.4,428.3 L148.0,427.2 L150.4,428.9 L152.2,427.5 L152.4,430.5 L154.2,432.4 L165.4,432.9 L169.7,439.9 L179.2,439.4 L183.2,449.6 L180.5,453.6 L180.4,455.4 L182.0,463.1 L180.6,470.6 L185.3,482.7 L182.8,483.4 L179.0,481.8 L174.5,480.9 L172.1,481.8 L167.9,479.9 L166.4,477.2 L160.7,471.8 L159.1,466.9 L158.1,466.2 L152.8,464.8 L148.9,466.8 L147.6,465.4 L145.6,465.8 L138.6,464.8 L135.6,467.4 L134.1,470.9 L133.6,474.7 L134.3,478.1 L131.4,480.0 L129.5,482.6 L128.6,482.2 L126.6,486.0 L122.2,486.5 L119.1,484.8 L110.4,480.9 L112.3,478.9 L114.3,471.7 L112.5,470.7 L107.4,463.9 L107.6,462.5 L115.9,459.5 L118.5,458.2 L119.4,455.4 L119.2,452.9 L122.5,448.8 L120.5,447.1 L120.1,440.1 L118.9,439.3 L115.8,439.0 L114.3,440.4 L114.3,442.2 L110.2,441.7 L108.1,442.8 L106.1,442.4 L105.0,440.1 Z M109.7,419.6 L111.8,418.9 L112.8,420.8 L113.9,420.9 L112.3,422.6 L106.6,424.8 L103.4,424.9 L100.1,426.0 L98.5,427.2 L95.9,427.2 L93.5,425.4 L94.4,423.1 L96.8,420.6 L102.8,420.1 L99.7,418.8 L105.3,417.0 L106.2,418.2 L107.5,416.6 L109.3,416.3 Z M94.7,415.3 L93.8,414.4 L95.1,413.6 L99.3,412.8 L104.5,410.2 L102.8,409.9 L102.7,409.1 L105.9,408.2 L106.2,413.0 L104.3,414.6 L97.9,415.2 L99.5,414.2 Z M136.9,422.6 L134.2,424.3 L132.0,425.0 L130.6,423.9 L129.9,420.9 L128.7,419.5 L128.0,414.9 L132.5,413.4 L134.8,411.2 L132.7,412.2 L133.2,410.4 L130.5,411.7 L129.4,412.9 L122.3,416.2 L122.5,413.1 L127.6,410.8 L123.2,411.5 L122.4,410.7 L125.1,408.5 L128.9,406.4 L128.0,405.2 L130.2,404.3 L130.5,405.2 L134.2,403.6 L135.2,402.4 L137.0,402.6 L135.8,401.2 L131.4,403.5 L132.1,402.3 L134.6,401.1 L134.0,400.1 L131.3,401.4 L132.9,397.4 L131.2,396.3 L132.5,395.4 L133.1,393.4 L135.1,394.9 L137.0,394.3 L135.1,393.5 L136.5,392.5 L136.5,389.4 L140.9,389.0 L138.2,387.7 L141.6,386.1 L142.9,384.3 L142.8,381.8 L144.0,380.8 L146.2,381.0 L145.0,379.0 L143.1,379.0 L144.1,377.7 L146.6,379.0 L148.4,380.3 L150.2,382.6 L154.0,384.7 L152.8,388.2 L151.1,389.6 L150.7,392.2 L153.0,394.1 L150.9,397.4 L150.1,401.8 L146.9,404.7 L144.3,409.4 L143.3,412.8 L137.9,416.9 L136.2,419.8 Z">
  <desc xmlns="http://www.highcharts.com/svg/namespace">
    <labelrank>7</labelrank>
    <hasc>NO.ST</hasc>
    <alt-name>Soer-Troendelag fylke|Søndre Trondhjem|Suður-Þrændalög</alt-name>
    <woe-id>2346399</woe-id>
    <subregion>NULL</subregion>
    <fips>NO16</fips>
    <postal-code>ST</postal-code>
    <name>Sør-Trøndelag</name>
    <country>Norway</country>
    <type-en>County</type-en>
    <region>NULL</region>
    <longitude>10.6956</longitude>
    <woe-name>Sør-Trøndelag</woe-name>
    <latitude>62.9613</latitude>
    <woe-label>Sor-Trondelag, NO, Norway</woe-label>
    <type>Fylke</type>
    <hc-middle-x>0.59</hc-middle-x>
    <hc-middle-y>0.71</hc-middle-y>
    <hc-key>no-st</hc-key>
    <hc-a2>ST</hc-a2>
  </desc>
</path>

<path fill="#CEE3F5" stroke="#6E6E6E" stroke-width="0.4" id="NO.HO" d="M15.9,606.3 L13.7,608.4 L12.8,606.6 L11.1,606.3 L10.0,600.4 L11.7,597.1 L14.4,599.3 L15.9,603.4 Z M9.1,595.0 L9.1,597.0 L7.0,597.2 L6.5,596.0 Z M21.0,593.4 L20.6,596.6 L19.2,598.5 L19.9,600.9 L18.2,600.4 L16.5,601.5 L16.0,598.2 L13.8,597.9 L13.2,596.3 L15.4,596.0 L15.9,593.7 L21.0,592.7 Z M10.9,592.1 L11.7,594.6 L10.8,596.2 L8.7,593.4 L9.7,590.4 Z M7.8,579.4 L7.4,581.1 L7.8,585.5 L6.4,585.7 L6.0,583.4 L4.9,584.0 L3.9,580.5 L5.9,579.9 L4.8,578.5 L4.6,573.5 L5.2,572.9 Z M7.0,569.1 L10.0,570.4 L11.0,572.0 L10.7,574.7 L9.0,575.3 L9.3,573.3 L7.7,572.1 L7.6,570.2 L6.1,569.8 L5.6,567.0 Z M3.6,566.8 L4.5,569.8 L3.2,570.0 L2.6,567.7 Z M2.6,563.1 L2.8,565.3 L1.3,565.0 L1.8,561.3 Z M6.7,621.9 L7.2,619.0 L10.2,614.7 L12.4,613.8 L15.4,609.6 L15.5,612.9 L14.6,618.0 L12.4,620.6 L9.9,621.2 Z M5.0,607.3 L6.2,602.2 L7.4,602.0 L8.7,604.4 L11.1,608.5 L11.6,610.7 L10.6,611.6 L10.3,608.6 L8.7,608.2 L6.8,611.7 L7.5,615.2 L6.3,616.3 L5.4,613.1 L6.2,610.1 L7.8,607.9 Z M24.0,562.6 L23.0,572.9 L21.2,574.2 L18.5,574.4 L14.5,568.5 L20.9,565.0 L22.1,561.9 Z M15.7,618.7 L15.8,615.7 L17.0,612.8 L20.3,613.4 L21.2,614.6 L20.6,616.6 L21.9,616.3 L22.7,614.3 L25.0,614.5 L25.1,613.4 L22.7,614.1 L21.7,613.2 L23.6,610.7 L25.8,609.2 L28.0,610.6 L29.4,610.3 L33.7,607.3 L35.0,605.7 L29.4,609.3 L27.5,609.4 L26.8,607.2 L24.2,608.5 L22.6,606.1 L19.8,604.0 L22.4,602.8 L23.3,600.4 L28.3,599.5 L28.0,597.4 L29.8,594.5 L32.1,592.9 L37.1,591.7 L36.4,589.6 L34.8,591.4 L32.4,592.1 L31.9,587.5 L33.7,586.7 L35.6,583.7 L35.4,582.6 L37.4,582.0 L39.4,579.4 L41.7,578.5 L43.4,576.5 L46.8,577.4 L43.6,585.0 L42.6,592.7 L44.6,587.0 L44.6,584.6 L47.0,579.1 L48.3,578.4 L51.0,574.8 L54.5,574.0 L57.9,574.9 L58.7,573.6 L53.6,573.3 L56.7,569.3 L54.0,570.9 L52.4,573.4 L50.3,574.1 L47.7,576.4 L45.7,576.0 L48.5,572.3 L47.3,572.6 L45.0,574.9 L40.1,576.6 L38.1,578.3 L33.6,579.0 L35.3,579.8 L33.9,582.1 L34.4,583.2 L32.8,585.2 L30.2,584.0 L27.6,589.0 L26.4,588.9 L26.4,592.7 L25.8,595.9 L23.1,597.4 L21.4,594.7 L22.0,593.4 L23.9,593.6 L24.6,592.2 L22.6,592.6 L22.5,588.7 L24.0,586.3 L22.0,587.1 L19.6,589.6 L18.4,588.3 L19.1,586.2 L22.9,584.8 L19.4,584.5 L22.3,578.8 L24.2,577.1 L21.5,578.1 L18.2,585.5 L15.5,588.0 L15.0,589.6 L12.3,588.2 L12.5,586.4 L13.8,585.1 L10.6,585.2 L13.0,582.6 L9.6,581.7 L9.3,578.3 L10.2,576.1 L13.2,576.0 L12.2,574.2 L12.1,571.2 L14.0,569.4 L17.2,573.8 L19.1,575.2 L21.3,575.6 L23.8,573.0 L24.9,563.2 L25.7,560.7 L23.6,561.2 L24.5,558.8 L21.8,561.4 L20.0,561.8 L19.9,564.7 L17.7,565.3 L14.0,567.7 L12.1,566.9 L9.1,562.1 L12.5,564.5 L9.3,559.7 L10.4,559.1 L8.1,558.0 L5.8,554.9 L7.9,555.0 L11.7,558.3 L14.7,560.1 L14.7,561.9 L17.6,564.6 L16.2,562.1 L17.5,562.8 L17.4,560.7 L16.1,558.6 L14.4,558.3 L13.3,556.7 L16.3,555.1 L16.1,553.7 L18.5,552.4 L21.1,552.3 L19.6,550.6 L15.9,552.3 L14.9,554.5 L10.3,553.4 L12.1,549.1 L14.9,547.8 L17.0,548.9 L20.6,548.5 L23.9,546.7 L25.6,547.5 L27.9,547.0 L29.5,547.9 L33.1,545.3 L35.9,547.7 L35.9,549.4 L39.3,551.5 L44.8,549.8 L45.1,551.4 L46.9,551.5 L48.9,549.4 L52.6,551.1 L52.7,552.0 L50.2,554.1 L50.9,555.2 L53.8,556.4 L53.6,558.5 L56.0,559.1 L56.3,561.1 L68.4,564.1 L71.1,566.4 L72.8,572.2 L72.3,582.3 L69.1,590.1 L66.7,593.8 L64.5,598.1 L61.2,599.8 L58.3,604.1 L58.2,607.0 L56.3,609.5 L53.4,609.4 L46.2,613.0 L45.0,612.1 L46.0,608.7 L45.7,606.2 L42.2,605.4 L36.1,608.6 L32.7,615.1 L32.3,617.0 L26.5,616.6 L23.7,617.9 L21.1,617.6 Z">
  <desc xmlns="http://www.highcharts.com/svg/namespace">
    <labelrank>7</labelrank>
    <hasc>NO.HO</hasc>
    <alt-name>Hordaland fylke|Hörðaland|Søndre Bergenhus</alt-name>
    <woe-id>2346390</woe-id>
    <subregion>NULL</subregion>
    <fips>NO07</fips>
    <postal-code>HO</postal-code>
    <name>Hordaland</name>
    <country>Norway</country>
    <type-en>County</type-en>
    <region>NULL</region>
    <longitude>6.89657</longitude>
    <woe-name>Hordaland</woe-name>
    <latitude>60.1134</latitude>
    <woe-label>Hordaland Fylke, NO, Norway</woe-label>
    <type>Fylke</type>
    <hc-middle-x>0.64</hc-middle-x>
    <hc-middle-y>0.65</hc-middle-y>
    <hc-key>no-ho</hc-key>
    <hc-a2>HO</hc-a2>
  </desc>
</path>

<path fill="#CEE3F5" stroke="#6E6E6E" stroke-width="0.4" id="NO.SF" d="M3.9,548.1 L5.0,548.1 L6.0,550.9 L4.9,551.5 L2.7,548.0 Z M2.2,543.0 L1.2,544.9 L0.0,542.8 L0.1,541.1 L1.5,540.2 Z M6.4,537.4 L8.3,535.9 L8.7,538.9 L6.1,541.9 L5.5,539.6 L3.8,541.4 L4.1,536.8 L5.1,536.4 L5.7,538.5 L5.6,534.7 Z M14.5,494.3 L15.9,493.5 L16.5,495.0 L14.8,498.4 L13.1,497.7 L14.1,496.1 L12.9,494.8 L12.7,492.8 Z M9.2,499.9 L11.3,499.7 L17.5,502.7 L14.9,503.8 L15.3,502.1 L12.3,504.9 L9.9,505.4 L10.4,503.1 L7.5,502.1 Z M10.3,553.4 L8.9,552.9 L8.6,546.7 L10.2,548.1 L11.9,545.7 L10.3,546.6 L8.7,545.9 L9.1,542.6 L12.1,541.4 L15.5,543.6 L19.2,544.5 L21.7,542.2 L24.4,543.2 L23.4,541.9 L26.9,540.9 L28.2,541.2 L27.8,543.3 L30.8,540.6 L35.8,540.9 L39.6,542.6 L39.8,545.0 L42.2,544.7 L41.3,546.9 L44.6,543.1 L47.2,541.9 L48.2,539.1 L49.3,540.0 L52.7,540.6 L54.3,541.8 L54.8,543.9 L56.8,544.4 L57.5,548.5 L54.2,551.5 L56.5,550.2 L58.6,550.4 L61.0,553.9 L61.3,551.2 L59.8,550.7 L57.9,545.9 L57.7,543.8 L61.8,543.2 L62.9,541.8 L68.4,544.0 L66.3,541.8 L69.1,539.4 L72.8,539.3 L72.7,538.5 L67.5,539.0 L66.5,537.8 L65.9,533.3 L67.0,532.5 L67.7,529.9 L70.6,525.9 L66.9,529.3 L65.0,528.9 L65.8,531.3 L64.1,533.8 L65.4,535.7 L65.6,537.9 L66.8,539.3 L64.7,540.6 L63.6,539.5 L61.2,541.3 L56.6,542.8 L55.8,541.5 L58.1,539.2 L55.3,540.1 L49.8,538.2 L47.3,536.5 L51.0,530.7 L51.3,527.9 L49.5,532.3 L47.6,534.5 L46.0,534.5 L46.8,537.5 L45.8,538.0 L45.8,540.3 L44.0,541.9 L40.3,541.1 L38.5,539.8 L37.9,538.0 L35.3,539.6 L32.1,538.2 L28.7,538.7 L28.4,536.6 L27.4,538.6 L22.7,539.2 L20.5,541.2 L18.0,541.7 L16.3,539.1 L13.7,540.1 L13.1,537.4 L10.3,536.8 L10.7,535.6 L14.6,537.2 L15.4,536.2 L12.9,533.9 L9.9,534.1 L9.2,531.0 L13.7,529.6 L14.3,528.2 L16.4,529.0 L17.7,532.8 L17.6,529.6 L16.2,528.0 L20.8,527.3 L25.4,528.0 L23.6,527.0 L14.0,527.4 L11.3,528.8 L10.1,526.0 L12.6,524.0 L9.1,523.9 L11.8,522.7 L15.8,521.8 L18.0,523.0 L18.7,522.2 L22.1,524.2 L27.8,521.8 L29.9,523.8 L28.6,521.6 L26.7,521.2 L24.4,522.7 L21.1,522.7 L20.2,521.2 L17.6,521.4 L14.1,518.8 L14.3,517.3 L19.5,517.8 L14.6,515.3 L21.3,516.2 L17.7,514.5 L19.5,513.3 L16.8,513.8 L11.1,513.2 L10.1,511.2 L11.1,507.7 L13.1,507.3 L14.7,509.0 L14.8,507.3 L13.4,506.8 L15.1,505.2 L20.2,503.2 L19.4,501.8 L21.1,500.1 L24.1,500.2 L28.5,501.6 L29.9,503.7 L27.4,504.2 L26.8,505.1 L29.7,504.3 L34.2,503.9 L34.7,504.6 L33.2,509.5 L34.4,508.0 L35.3,505.0 L36.2,505.0 L38.7,508.3 L40.1,508.6 L37.4,504.9 L42.9,505.3 L45.1,506.8 L48.4,506.7 L50.2,504.0 L51.4,503.8 L54.6,505.7 L54.5,504.3 L52.5,502.9 L49.4,503.5 L47.3,506.1 L42.2,504.2 L38.3,504.3 L37.0,503.1 L33.1,502.3 L31.2,503.3 L29.8,501.2 L34.7,501.3 L35.4,500.6 L27.9,499.6 L22.8,498.6 L16.1,500.1 L14.9,499.0 L16.5,496.1 L18.1,497.1 L20.4,493.9 L21.9,494.5 L20.3,491.7 L18.3,489.8 L16.0,489.3 L15.3,486.5 L16.0,485.0 L18.1,484.2 L20.1,486.6 L19.9,488.3 L20.9,489.9 L23.9,492.4 L23.9,495.2 L26.4,497.6 L30.1,496.6 L31.9,497.2 L34.9,496.3 L38.3,497.9 L41.7,496.5 L43.0,497.8 L45.1,498.1 L46.7,496.3 L52.7,493.6 L54.7,498.1 L55.6,499.1 L61.1,498.1 L63.7,496.4 L68.2,495.9 L69.9,498.4 L69.3,504.7 L70.9,509.5 L72.1,511.1 L77.7,511.0 L80.9,512.4 L81.7,517.9 L83.3,520.9 L88.0,523.5 L90.4,527.3 L86.9,527.8 L86.4,530.3 L87.6,532.9 L83.8,537.6 L84.1,540.3 L86.6,544.4 L86.9,546.2 L86.7,548.7 L82.7,553.1 L78.7,553.1 L75.2,556.5 L73.6,560.5 L71.2,561.5 L68.4,564.1 L56.3,561.1 L56.0,559.1 L53.6,558.5 L53.8,556.4 L50.9,555.2 L50.2,554.1 L52.7,552.0 L52.6,551.1 L48.9,549.4 L46.9,551.5 L45.1,551.4 L44.8,549.8 L39.3,551.5 L35.9,549.4 L35.9,547.7 L33.1,545.3 L29.5,547.9 L27.9,547.0 L25.6,547.5 L23.9,546.7 L20.6,548.5 L17.0,548.9 L14.9,547.8 L12.1,549.1 Z">
  <desc xmlns="http://www.highcharts.com/svg/namespace">
    <labelrank>7</labelrank>
    <hasc>NO.SF</hasc>
    <alt-name>Sogn og Fjordane fyl|Nordre Bergenhus|Sogn og Firða-Fylki</alt-name>
    <woe-id>2346398</woe-id>
    <subregion>NULL</subregion>
    <fips>NO15</fips>
    <postal-code>SF</postal-code>
    <name>Sogn og Fjordane</name>
    <country>Norway</country>
    <type-en>County</type-en>
    <region>NULL</region>
    <longitude>6.43282</longitude>
    <woe-name>Sogn og Fjordane</woe-name>
    <latitude>61.5538</latitude>
    <woe-label>Sogn og Fjordane Fylke, NO, Norway</woe-label>
    <type>Fylke</type>
    <hc-middle-x>0.54</hc-middle-x>
    <hc-middle-y>0.45</hc-middle-y>
    <hc-key>no-sf</hc-key>
    <hc-a2>SF</hc-a2>
  </desc>
</path>

<path fill="#CEE3F5" stroke="#6E6E6E" stroke-width="0.4" id="NO.VA" d="M39.5,687.6 L39.6,689.2 L38.4,689.0 L37.0,686.8 Z M82.1,693.4 L81.4,695.1 L80.3,694.0 L79.2,696.1 L76.7,694.0 L78.2,693.0 L77.0,689.8 L76.2,693.9 L73.7,696.9 L66.6,697.5 L64.5,699.8 L59.5,699.5 L56.2,698.4 L55.8,697.3 L53.7,698.5 L51.3,698.1 L51.0,699.6 L48.9,700.0 L49.0,698.3 L53.2,695.0 L50.1,696.8 L47.4,697.5 L48.7,694.5 L46.4,697.1 L46.8,694.7 L45.6,695.6 L44.0,694.5 L48.0,693.7 L49.1,692.7 L46.0,692.9 L43.5,690.3 L44.2,693.5 L42.1,693.4 L42.1,689.9 L41.0,693.3 L43.4,696.0 L38.9,695.8 L36.8,693.0 L38.7,690.3 L40.8,690.2 L40.9,688.9 L45.6,685.9 L44.5,685.9 L41.6,688.1 L40.2,684.5 L41.7,684.7 L41.6,682.9 L39.8,683.2 L39.7,686.9 L33.7,685.1 L37.9,683.1 L40.1,680.8 L39.6,673.9 L39.7,668.4 L37.2,667.6 L36.2,665.8 L39.2,664.5 L40.5,662.8 L38.5,659.5 L40.3,655.6 L40.5,651.8 L48.6,643.0 L49.2,640.7 L50.9,638.8 L56.7,640.5 L55.8,645.5 L56.1,647.6 L54.9,648.6 L56.0,651.6 L53.5,655.5 L53.2,657.2 L55.4,657.9 L56.5,657.0 L62.5,655.7 L65.6,655.9 L67.1,656.7 L68.9,661.0 L68.2,664.3 L66.4,665.5 L66.2,668.2 L66.8,670.9 L64.9,673.1 L65.6,676.4 L68.3,677.1 L70.5,676.6 L71.7,679.2 L74.0,680.4 L76.1,683.8 L77.4,682.6 L78.9,683.2 L79.4,686.0 L81.9,686.8 L82.2,689.5 L81.1,691.1 Z">
  <desc xmlns="http://www.highcharts.com/svg/namespace">
    <labelrank>7</labelrank>
    <hasc>NO.VA</hasc>
    <alt-name>Vest-Agder fylke|Lister og Mandal|Vestur-Agðir</alt-name>
    <woe-id>2346402</woe-id>
    <subregion>NULL</subregion>
    <fips>NO19</fips>
    <postal-code>VA</postal-code>
    <name>Vest-Agder</name>
    <country>Norway</country>
    <type-en>County</type-en>
    <region>NULL</region>
    <longitude>7.30897</longitude>
    <woe-name>Vest-Agder</woe-name>
    <latitude>58.4481</latitude>
    <woe-label>Vest-Agder Fylke, NO, Norway</woe-label>
    <type>Fylke</type>
    <hc-middle-x>0.43</hc-middle-x>
    <hc-middle-y>0.67</hc-middle-y>
    <hc-key>no-va</hc-key>
    <hc-a2>VA</hc-a2>
  </desc>
</path>

<path fill="#CEE3F5" stroke="#6E6E6E" stroke-width="0.4" id="NO.OF" d="M157.0,648.3 L158.1,648.2 L157.2,650.7 L155.7,650.4 L155.8,648.2 Z M178.3,611.2 L178.8,613.0 L178.6,616.2 L177.0,618.6 L173.6,620.5 L173.2,623.7 L176.1,633.7 L176.9,639.3 L175.3,644.8 L175.3,647.3 L173.3,656.0 L170.3,657.8 L167.8,657.3 L167.8,654.0 L165.6,646.9 L164.1,646.2 L160.7,646.2 L160.5,642.1 L158.5,645.3 L156.8,645.6 L155.9,643.4 L153.4,642.2 L151.3,643.8 L149.3,638.6 L150.2,636.3 L149.0,635.2 L147.5,636.2 L146.7,633.2 L147.1,631.9 L145.5,630.7 L147.0,627.0 L146.8,629.7 L147.8,627.7 L149.8,626.0 L151.0,623.4 L154.8,617.7 L155.3,615.8 L162.3,615.8 L162.6,612.3 L164.8,613.4 L166.0,616.0 L168.1,617.3 L168.3,619.9 L169.2,620.4 L172.1,616.4 L173.3,615.9 L174.0,613.2 L176.2,611.4 Z">
  <desc xmlns="http://www.highcharts.com/svg/namespace">
    <labelrank>7</labelrank>
    <hasc>NO.OF</hasc>
    <alt-name>Oestfold fylke</alt-name>
    <woe-id>2346396</woe-id>
    <subregion>NULL</subregion>
    <fips>NO13</fips>
    <postal-code>OF</postal-code>
    <name>Østfold</name>
    <country>Norway</country>
    <type-en>County</type-en>
    <region>NULL</region>
    <longitude>11.2074</longitude>
    <woe-name>Østfold</woe-name>
    <latitude>59.4065</latitude>
    <woe-label>Ostfold, NO, Norway</woe-label>
    <type>Fylke</type>
    <hc-middle-x>0.48</hc-middle-x>
    <hc-middle-y>0.48</hc-middle-y>
    <hc-key>no-of</hc-key>
    <hc-a2>OF</hc-a2>
  </desc>
</path>

<path fill="#CEE3F5" stroke="#6E6E6E" stroke-width="0.4" id="NO.NT" d="M162.7,367.4 L164.9,369.7 L164.2,372.0 L162.4,370.9 Z M162.3,366.5 L161.5,369.1 L160.1,367.1 L158.5,367.3 L158.7,365.4 L161.3,364.5 Z M150.7,355.6 L149.1,356.5 L150.0,352.8 L151.9,352.6 L155.4,350.3 L157.1,350.3 L153.9,353.1 L152.5,353.6 Z M153.2,349.4 L153.7,349.9 L150.8,351.7 L149.6,349.5 Z M171.2,343.2 L166.6,346.7 L165.7,346.1 L167.0,343.3 Z M178.3,347.7 L179.8,348.0 L179.7,348.7 L180.4,348.6 L182.7,349.9 L185.0,349.1 L188.0,349.5 L189.5,350.9 L192.4,350.8 L195.2,349.2 L196.3,346.4 L197.8,345.4 L200.6,341.9 L204.1,342.5 L209.0,341.9 L211.7,342.1 L223.3,340.2 L225.6,341.0 L225.2,342.5 L222.5,347.4 L212.1,368.5 L218.8,372.9 L221.5,373.5 L222.8,375.2 L224.4,387.1 L224.2,388.9 L221.0,396.7 L220.0,397.2 L204.2,393.8 L198.7,395.6 L193.8,399.2 L192.2,401.0 L188.0,408.6 L184.0,416.4 L181.3,419.4 L182.5,424.6 L182.2,426.7 L177.6,435.2 L179.2,439.4 L169.7,439.9 L165.4,432.9 L154.2,432.4 L152.4,430.5 L152.2,427.5 L153.1,426.5 L150.0,425.4 L150.0,422.8 L153.2,422.0 L151.7,421.3 L153.2,419.6 L151.6,419.8 L147.6,422.3 L149.5,418.5 L151.9,417.1 L152.8,415.4 L155.7,413.7 L157.6,414.4 L159.1,413.6 L160.3,411.3 L165.3,409.4 L164.2,407.0 L160.5,406.2 L157.4,407.1 L157.0,405.1 L158.8,404.1 L159.9,402.2 L164.6,400.3 L165.9,398.3 L160.7,397.6 L160.2,396.4 L162.8,393.5 L159.8,395.8 L158.8,399.1 L154.1,402.1 L151.3,405.2 L148.7,406.1 L145.4,409.1 L149.8,407.1 L153.4,404.6 L156.2,406.5 L156.6,407.8 L154.7,409.5 L154.4,411.2 L152.9,413.1 L150.7,413.6 L149.1,415.2 L146.9,415.8 L146.2,417.7 L141.8,420.7 L137.9,421.6 L136.9,422.6 L136.2,419.8 L137.9,416.9 L143.3,412.8 L144.3,409.4 L146.9,404.7 L150.1,401.8 L150.9,397.4 L153.0,394.1 L150.7,392.2 L151.1,389.6 L152.8,388.2 L154.0,384.7 L150.2,382.6 L148.4,380.3 L146.6,379.0 L146.2,376.6 L147.5,378.4 L148.9,378.5 L150.7,380.8 L151.6,380.4 L149.4,377.0 L147.3,377.0 L148.1,375.9 L151.2,375.1 L150.2,372.0 L152.4,375.5 L153.8,371.6 L152.9,370.1 L153.8,369.0 L155.9,370.2 L156.4,373.0 L158.7,375.3 L158.3,376.9 L161.2,376.7 L162.2,377.6 L161.4,380.7 L163.0,379.4 L163.7,376.6 L164.7,377.2 L166.1,376.0 L169.1,375.1 L164.3,375.9 L164.8,373.6 L166.5,373.1 L169.0,370.6 L171.7,369.1 L168.6,369.9 L168.0,367.6 L166.0,370.4 L163.9,367.3 L163.3,363.7 L166.2,361.8 L168.0,362.0 L166.6,360.6 L171.7,359.7 L172.8,358.7 L168.5,357.8 L171.6,357.1 L171.6,356.0 L168.7,356.7 L170.3,355.0 L174.3,352.5 L175.9,352.2 L177.4,350.7 L180.9,351.6 L179.2,350.2 L177.2,350.0 L174.2,351.3 L170.5,354.3 L167.9,355.4 L168.1,356.8 L165.0,358.4 L162.9,361.4 L159.9,362.0 L162.5,360.5 L163.9,358.2 L162.2,358.8 L159.7,357.9 L160.8,356.8 L165.9,355.8 L169.0,354.2 L160.0,356.1 L163.3,352.8 L165.7,354.0 L164.9,352.3 L166.7,351.2 L168.3,351.6 L172.5,349.4 L172.1,347.9 L175.5,345.2 L176.3,347.2 L176.9,345.6 Z M155.7,367.6 L156.6,366.5 L159.7,368.6 L161.5,372.1 L164.0,372.1 L164.6,373.4 L163.9,375.5 L161.7,374.8 L160.9,373.5 L158.7,373.8 L157.6,371.4 L159.6,370.7 L158.9,369.4 L156.6,369.8 Z M156.6,351.4 L159.1,353.5 L160.4,354.0 L159.4,355.7 L156.4,357.2 L155.7,356.1 L156.4,354.1 L154.8,354.1 L152.7,356.2 L151.0,356.2 Z">
  <desc xmlns="http://www.highcharts.com/svg/namespace">
    <labelrank>7</labelrank>
    <hasc>NO.NT</hasc>
    <alt-name>Nord-Troendelag fylke|Nordre Trondhjem|Norður-Þrændalög</alt-name>
    <woe-id>2346393</woe-id>
    <subregion>NULL</subregion>
    <fips>NO10</fips>
    <postal-code>NT</postal-code>
    <name>Nord-Trøndelag</name>
    <country>Norway</country>
    <type-en>County</type-en>
    <region>NULL</region>
    <longitude>12.2637</longitude>
    <woe-name>Nord-Trøndelag</woe-name>
    <latitude>64.2773</latitude>
    <woe-label>Nord-Trondelag, NO, Norway</woe-label>
    <type>Fylke</type>
    <hc-middle-x>0.63</hc-middle-x>
    <hc-middle-y>0.32</hc-middle-y>
    <hc-key>no-nt</hc-key>
    <hc-a2>NT</hc-a2>
  </desc>
</path>

<path fill="#CEE3F5" stroke="#6E6E6E" stroke-width="0.4" id="NO.RO" d="M16.1,640.2 L20.3,641.7 L19.5,643.6 L15.2,640.7 Z M23.1,639.1 L21.0,640.4 L20.7,638.5 L22.1,637.4 Z M12.1,638.5 L10.4,636.1 L11.5,634.5 L12.7,636.4 Z M26.7,636.1 L24.8,635.4 L25.5,633.4 L27.2,633.1 L29.3,634.0 Z M8.2,631.6 L9.0,632.6 L8.1,637.9 L6.4,639.1 L4.9,636.2 L5.6,631.4 L6.8,631.8 L5.7,628.5 L6.9,625.2 L8.5,630.2 Z M6.7,621.9 L9.9,621.2 L12.4,620.6 L15.0,619.9 L15.7,618.7 L21.1,617.6 L23.7,617.9 L26.5,616.6 L32.3,617.0 L32.7,615.1 L36.1,608.6 L42.2,605.4 L45.7,606.2 L46.0,608.7 L45.0,612.1 L46.2,613.0 L53.4,609.4 L56.3,609.5 L56.7,612.5 L59.9,614.9 L56.8,615.5 L53.3,618.6 L52.9,622.7 L53.5,624.3 L50.5,626.3 L49.5,628.1 L47.9,633.4 L48.0,638.5 L50.9,638.8 L49.2,640.7 L48.6,643.0 L40.5,651.8 L40.3,655.6 L38.5,659.5 L40.5,662.8 L39.2,664.5 L36.2,665.8 L37.2,667.6 L39.7,668.4 L39.6,673.9 L40.1,680.8 L37.9,683.1 L33.7,685.1 L28.8,681.6 L27.1,681.3 L23.6,678.5 L22.9,674.5 L22.0,673.7 L18.5,673.1 L18.2,671.5 L16.2,671.4 L13.1,665.7 L11.2,659.1 L12.6,657.7 L13.0,653.5 L13.9,652.9 L13.5,649.1 L15.4,651.7 L15.7,650.8 L13.3,647.3 L14.2,645.0 L18.2,648.4 L17.8,653.9 L18.6,650.9 L22.5,649.6 L24.6,652.6 L27.6,655.6 L26.9,652.8 L28.9,649.9 L30.7,648.9 L42.2,646.2 L42.2,645.8 L35.0,646.7 L29.9,648.1 L26.3,652.6 L25.0,649.6 L27.0,647.9 L26.1,646.5 L24.1,646.7 L22.7,643.1 L24.1,641.9 L29.5,640.5 L26.5,640.2 L28.5,637.0 L31.1,634.9 L33.2,634.2 L35.0,632.0 L31.9,634.2 L29.6,634.1 L29.0,632.5 L32.9,632.4 L32.1,630.4 L29.3,631.8 L28.5,630.0 L26.8,630.9 L29.2,627.6 L32.1,626.4 L33.8,622.5 L40.7,619.8 L36.3,620.4 L33.7,621.7 L34.9,619.4 L34.8,616.7 L33.8,620.5 L31.6,624.4 L25.1,629.7 L24.2,627.3 L24.4,625.0 L31.4,624.0 L29.4,623.2 L28.1,623.9 L24.2,622.9 L23.0,620.2 L21.9,620.8 L22.2,624.0 L20.2,624.5 L18.6,626.6 L21.2,625.5 L23.3,628.1 L23.4,629.8 L19.2,630.1 L18.2,631.8 L16.6,626.0 L15.7,631.0 L13.2,632.7 L12.1,630.0 L12.6,626.2 L11.8,627.5 L11.3,631.6 L10.7,631.0 L10.1,625.7 L9.8,628.6 L8.9,629.0 Z">
  <desc xmlns="http://www.highcharts.com/svg/namespace">
    <labelrank>7</labelrank>
    <hasc>NO.RO</hasc>
    <alt-name>Rogaland fylke|Stavanger</alt-name>
    <woe-id>2346397</woe-id>
    <subregion>NULL</subregion>
    <fips>NO14</fips>
    <postal-code>RO</postal-code>
    <name>Rogaland</name>
    <country>Norway</country>
    <type-en>County</type-en>
    <region>NULL</region>
    <longitude>6.41809</longitude>
    <woe-name>Rogaland</woe-name>
    <latitude>59.1585</latitude>
    <woe-label>Rogaland Fylke, NO, Norway</woe-label>
    <type>Fylke</type>
    <hc-middle-x>0.39</hc-middle-x>
    <hc-middle-y>0.74</hc-middle-y>
    <hc-key>no-ro</hc-key>
    <hc-a2>RO</hc-a2>
  </desc>
</path>

<path fill="#CEE3F5" stroke="#6E6E6E" stroke-width="0.4" id="NO.BU" d="M142.7,611.5 L142.8,615.2 L143.5,617.3 L145.1,618.7 L146.0,621.4 L145.4,623.3 L142.6,626.1 L141.1,625.1 L141.2,621.9 L140.6,617.6 L139.8,616.4 L136.4,614.8 L137.5,616.9 L133.6,617.2 L132.1,618.4 L131.1,617.4 L128.4,620.3 L128.7,621.7 L130.9,624.3 L131.9,626.8 L130.6,627.1 L124.6,627.1 L124.5,630.1 L120.8,628.8 L118.6,625.8 L117.2,625.8 L116.1,618.9 L113.9,615.0 L114.0,611.0 L110.1,608.7 L110.1,605.4 L108.1,602.3 L105.1,600.2 L104.3,595.7 L103.3,594.2 L100.5,592.3 L90.5,591.5 L84.6,590.4 L75.7,593.5 L72.9,592.4 L70.7,592.4 L66.7,593.8 L69.1,590.1 L72.3,582.3 L72.8,572.2 L71.1,566.4 L68.4,564.1 L71.2,561.5 L73.6,560.5 L75.2,556.5 L78.7,553.1 L82.7,553.1 L86.7,548.7 L86.9,546.2 L89.0,544.0 L91.5,547.0 L97.0,550.2 L97.4,552.1 L100.0,553.8 L103.7,554.8 L105.6,556.5 L111.5,560.6 L113.1,561.3 L114.2,563.2 L114.0,565.1 L116.1,569.5 L116.1,571.7 L121.0,573.0 L122.2,575.4 L126.5,577.0 L126.0,572.2 L128.9,570.5 L129.4,568.2 L131.9,568.4 L134.9,574.7 L136.6,582.4 L138.9,587.4 L140.6,589.6 L146.2,593.8 L143.9,598.7 L141.6,599.9 L139.9,602.8 L139.2,609.7 L140.5,611.3 Z">
  <desc xmlns="http://www.highcharts.com/svg/namespace">
    <labelrank>7</labelrank>
    <hasc>NO.BU</hasc>
    <alt-name>Buskerud fylke</alt-name>
    <woe-id>2346387</woe-id>
    <subregion>NULL</subregion>
    <fips>NO04</fips>
    <postal-code>BU</postal-code>
    <name>Buskerud</name>
    <country>Norway</country>
    <type-en>County</type-en>
    <region>NULL</region>
    <longitude>9.045730000000001</longitude>
    <woe-name>Buskerud</woe-name>
    <latitude>60.4253</latitude>
    <woe-label>Buskerud Fylke, NO, Norway</woe-label>
    <type>Fylke</type>
    <hc-middle-x>0.57</hc-middle-x>
    <hc-middle-y>0.48</hc-middle-y>
    <hc-key>no-bu</hc-key>
    <hc-a2>BU</hc-a2>
  </desc>
</path>

<path fill="#CEE3F5" stroke="#6E6E6E" stroke-width="0.4" id="NO.VF" d="M124.5,630.1 L124.6,627.1 L130.6,627.1 L131.9,626.8 L130.9,624.3 L128.7,621.7 L128.4,620.3 L131.1,617.4 L132.1,618.4 L133.6,617.2 L137.5,616.9 L139.5,618.1 L140.2,619.9 L140.2,623.9 L139.5,625.5 L136.3,623.8 L139.6,629.1 L141.9,629.8 L142.3,632.2 L141.5,634.5 L143.3,636.8 L142.2,639.6 L139.4,638.4 L138.1,645.6 L137.0,646.3 L136.9,649.7 L136.0,646.3 L135.8,650.6 L134.5,651.8 L133.8,649.4 L131.5,651.1 L128.8,654.2 L125.0,653.8 L125.4,651.0 L126.2,646.5 L125.6,643.4 L127.0,641.7 L126.6,637.8 L124.6,634.9 Z">
  <desc xmlns="http://www.highcharts.com/svg/namespace">
    <labelrank>7</labelrank>
    <hasc>NO.VF</hasc>
    <alt-name>Vestfold fylke|Jarlsberg og Larvik</alt-name>
    <woe-id>2346403</woe-id>
    <subregion>NULL</subregion>
    <fips>NO20</fips>
    <postal-code>VF</postal-code>
    <name>Vestfold</name>
    <country>Norway</country>
    <type-en>County</type-en>
    <region>NULL</region>
    <longitude>10.1269</longitude>
    <woe-name>Vestfold</woe-name>
    <latitude>59.3146</latitude>
    <woe-label>Vestfold Fylke, NO, Norway</woe-label>
    <type>Fylke</type>
    <hc-middle-x>0.50</hc-middle-x>
    <hc-middle-y>0.50</hc-middle-y>
    <hc-key>no-vf</hc-key>
    <hc-a2>VF</hc-a2>
  </desc>
</path>

<path fill="#CEE3F5" stroke="#6E6E6E" stroke-width="0.4" id="NO.FI" d="M480.6,51.3 L482.0,51.9 L479.6,54.9 L478.3,54.2 L478.1,56.5 L476.6,56.6 L477.3,52.3 L476.3,49.8 L476.9,48.4 L479.2,48.7 Z M396.0,51.6 L396.6,52.9 L395.2,54.4 L395.4,51.9 Z M336.0,65.8 L334.9,64.9 L334.3,61.0 L334.5,59.6 L336.2,60.9 L336.5,62.6 Z M330.8,63.0 L330.0,63.8 L329.4,62.4 L330.0,60.6 Z M400.0,30.7 L399.3,31.3 L398.6,29.9 L399.4,28.9 Z M367.0,20.8 L367.6,23.2 L369.7,22.5 L369.4,24.6 L368.2,25.6 L365.0,24.2 L366.5,23.3 L364.7,22.8 L365.0,20.4 Z M381.2,15.8 L382.5,16.1 L382.2,18.1 L380.7,17.2 Z M377.4,14.1 L378.3,13.6 L378.1,17.5 L375.2,16.6 L375.8,14.8 L377.0,15.5 L376.2,13.7 Z M339.9,73.4 L335.4,70.2 L333.3,70.4 L328.0,69.3 L331.0,66.4 L332.4,69.3 L332.0,65.0 L333.1,63.8 L334.4,66.2 L335.8,66.6 L339.5,71.2 L337.5,65.3 L339.7,62.0 L340.5,63.8 L341.9,62.6 L342.5,65.5 L342.7,63.5 L344.7,62.6 L345.7,63.5 L345.2,65.9 L346.4,68.8 L345.7,70.4 L348.5,69.5 L350.7,70.3 L350.2,69.2 L346.9,68.7 L346.9,64.5 L348.4,63.7 L351.1,65.3 L352.3,64.8 L357.4,64.6 L357.6,65.5 L356.4,69.0 L354.5,70.6 L351.6,72.0 L349.5,72.3 L349.1,73.8 L353.3,72.2 L354.2,71.0 L356.7,70.0 L358.8,67.4 L359.2,70.7 L360.3,73.2 L361.5,72.2 L363.2,76.6 L364.9,74.1 L366.2,76.2 L368.1,73.8 L368.9,71.7 L364.7,71.8 L362.1,69.6 L364.9,67.8 L365.4,66.4 L363.4,65.4 L365.1,63.6 L362.7,63.9 L362.4,62.6 L365.8,61.4 L365.3,60.4 L362.5,61.6 L363.9,59.5 L366.6,58.3 L364.9,57.4 L364.9,54.8 L367.9,49.8 L368.9,47.1 L370.0,46.2 L376.9,46.1 L375.1,44.4 L372.8,43.6 L374.7,40.2 L374.5,37.1 L375.2,35.6 L377.7,35.7 L380.2,37.8 L382.1,37.7 L381.6,35.5 L379.9,33.6 L377.7,32.2 L373.4,32.2 L372.4,31.4 L372.2,28.7 L373.9,26.8 L375.5,28.9 L378.5,30.3 L377.7,25.9 L379.1,25.2 L377.5,24.5 L376.0,22.7 L377.1,21.7 L375.9,21.3 L377.0,20.3 L378.8,20.3 L380.7,22.0 L380.3,23.1 L382.9,22.2 L382.3,19.3 L383.6,19.8 L383.8,21.3 L383.1,24.1 L384.9,24.9 L385.3,21.2 L387.3,23.2 L388.5,25.5 L388.6,27.2 L389.9,25.8 L389.8,22.1 L388.2,18.9 L388.2,17.7 L391.6,19.6 L391.5,22.0 L390.6,23.2 L394.7,20.2 L395.8,21.7 L397.6,19.5 L398.8,21.3 L397.5,23.1 L396.5,26.1 L395.1,27.0 L395.9,28.3 L394.4,32.1 L393.4,32.8 L392.5,35.9 L389.4,41.0 L389.2,42.1 L391.7,40.2 L392.2,42.3 L389.1,42.9 L390.0,43.6 L392.3,42.7 L393.6,47.2 L392.5,46.7 L391.0,49.2 L392.0,49.3 L392.2,51.1 L393.0,49.8 L393.7,51.3 L390.9,56.0 L391.2,59.7 L392.4,63.4 L393.8,63.9 L392.6,61.4 L393.7,59.3 L394.0,61.7 L395.3,62.8 L397.0,61.2 L397.1,57.5 L398.0,56.1 L399.4,50.4 L397.1,49.5 L399.6,42.8 L401.5,35.9 L403.1,32.2 L402.9,27.7 L403.9,26.9 L403.9,25.1 L405.8,18.8 L408.6,13.8 L409.8,13.1 L411.2,15.8 L411.1,19.4 L412.4,19.4 L412.3,25.6 L408.2,29.8 L408.8,30.1 L410.6,28.4 L413.4,28.8 L413.4,35.2 L414.3,37.1 L413.8,39.6 L414.6,43.0 L415.5,43.3 L416.7,41.6 L416.3,39.2 L418.1,38.1 L418.1,35.9 L420.2,35.2 L420.5,36.2 L422.0,35.1 L419.8,32.4 L420.3,28.5 L424.1,28.7 L421.3,27.4 L420.5,26.0 L421.0,24.5 L419.4,23.8 L419.9,21.7 L422.2,20.9 L421.7,19.4 L422.1,16.6 L426.9,16.3 L424.2,16.0 L424.8,14.8 L422.9,13.5 L422.1,13.9 L421.9,12.0 L421.1,13.8 L418.6,13.9 L417.1,12.9 L417.3,10.5 L420.5,10.9 L417.9,8.8 L417.8,7.2 L421.6,7.2 L423.6,9.3 L423.2,6.2 L421.5,4.0 L421.8,2.3 L423.0,2.1 L422.7,0.5 L424.0,1.3 L424.3,3.3 L427.5,3.8 L429.7,1.4 L430.8,2.7 L431.8,0.0 L433.4,1.2 L433.0,4.4 L434.1,5.1 L435.4,3.3 L437.8,2.8 L439.0,3.5 L439.3,8.2 L437.6,8.9 L439.1,9.5 L437.7,11.0 L438.4,11.9 L436.1,12.2 L437.6,12.8 L436.7,14.5 L432.1,15.2 L429.2,16.4 L430.6,17.1 L430.1,18.7 L431.7,16.9 L433.8,17.6 L435.9,17.3 L435.5,19.2 L433.4,20.7 L431.9,23.8 L430.0,25.9 L432.2,24.9 L437.1,20.1 L438.2,17.7 L439.2,18.2 L439.7,20.6 L439.3,22.7 L436.7,28.2 L435.0,31.0 L436.3,33.5 L436.2,31.2 L440.2,28.4 L438.8,30.2 L440.1,31.7 L441.2,27.8 L442.4,27.0 L441.5,33.7 L443.4,41.0 L445.2,46.4 L444.5,50.5 L445.7,47.3 L445.6,44.3 L443.4,39.1 L442.5,32.5 L443.3,30.9 L443.2,28.6 L444.2,27.6 L446.0,29.8 L446.1,26.3 L444.9,26.6 L443.0,25.2 L443.0,18.3 L444.6,18.0 L442.5,16.1 L443.8,9.0 L444.5,7.5 L448.6,5.6 L449.0,6.8 L451.6,6.2 L453.8,8.5 L455.6,8.7 L454.5,11.3 L456.6,11.0 L455.3,12.1 L456.2,13.3 L455.2,14.3 L456.3,15.1 L456.8,13.0 L458.6,11.9 L461.0,9.2 L462.5,9.6 L463.2,12.7 L462.6,15.3 L464.7,13.8 L466.1,9.1 L468.0,8.6 L470.1,9.5 L468.8,11.7 L471.4,11.6 L473.4,12.4 L473.5,13.5 L470.8,16.2 L471.9,17.3 L476.0,14.0 L478.3,14.2 L478.4,15.5 L482.0,16.9 L484.1,19.1 L485.3,16.4 L489.0,20.0 L489.0,22.2 L490.6,23.9 L488.6,25.7 L482.6,28.5 L482.4,31.1 L481.0,31.9 L481.5,34.0 L480.9,36.1 L478.5,38.3 L479.1,39.2 L462.9,41.8 L452.5,41.8 L451.9,43.1 L454.4,42.0 L452.7,45.0 L453.9,45.7 L455.6,44.6 L457.1,45.1 L455.3,46.1 L458.6,45.7 L460.1,46.2 L462.4,45.3 L463.6,46.0 L463.5,47.6 L466.5,46.2 L472.9,46.7 L469.9,51.4 L469.2,53.8 L470.4,53.2 L471.0,50.5 L474.8,49.4 L476.4,52.6 L476.3,54.5 L475.3,56.5 L474.3,62.7 L476.4,58.1 L480.1,56.8 L481.7,54.2 L482.0,56.8 L483.1,55.7 L484.2,57.1 L485.6,57.2 L483.3,54.7 L484.5,52.8 L483.3,51.8 L482.3,48.5 L484.2,47.4 L484.5,49.5 L486.8,49.2 L489.2,55.7 L488.9,57.6 L490.2,56.6 L489.3,52.9 L488.1,50.2 L488.5,49.7 L492.3,48.9 L492.9,50.5 L494.7,48.2 L497.1,53.0 L498.4,54.2 L499.9,58.7 L499.5,61.6 L498.0,62.4 L493.6,63.1 L488.6,60.3 L486.4,59.9 L485.4,60.6 L487.3,61.3 L488.7,64.5 L488.1,66.2 L488.6,69.9 L486.1,75.1 L483.6,76.0 L481.7,78.9 L478.8,80.0 L477.6,82.2 L478.3,86.1 L478.5,90.6 L478.0,93.2 L476.7,95.4 L474.8,96.4 L472.1,94.4 L471.4,93.2 L470.5,87.6 L474.3,77.9 L474.9,73.0 L470.7,67.9 L468.1,64.0 L455.5,61.9 L454.0,61.5 L452.8,59.0 L448.7,58.2 L441.6,50.9 L440.0,52.0 L437.0,52.7 L436.7,54.8 L435.0,56.4 L433.6,59.1 L433.8,60.6 L430.6,63.0 L426.2,62.3 L423.5,63.1 L420.3,64.9 L420.0,69.3 L418.8,71.8 L417.8,76.2 L415.2,77.9 L414.5,80.3 L415.8,82.2 L415.8,85.5 L414.9,87.1 L415.7,90.4 L415.4,92.4 L416.6,94.6 L415.7,97.8 L416.3,104.0 L417.5,106.3 L418.2,110.5 L419.7,112.5 L418.7,119.6 L417.9,120.4 L415.6,120.1 L414.1,121.2 L411.5,125.0 L411.1,127.6 L412.2,132.4 L412.1,134.0 L409.5,136.4 L409.2,138.9 L408.3,138.8 L405.5,135.6 L403.6,134.6 L397.1,133.8 L394.1,132.6 L392.8,131.3 L388.7,130.1 L386.3,131.5 L386.3,135.8 L384.8,137.2 L382.0,138.3 L377.6,142.7 L375.3,140.5 L373.7,140.0 L370.7,141.1 L365.6,139.6 L362.7,140.9 L362.0,140.0 L360.6,135.5 L358.6,134.1 L355.6,129.6 L352.6,127.3 L350.7,124.8 L359.3,122.0 L360.6,120.7 L361.2,117.9 L360.6,114.5 L357.6,110.0 L354.7,106.6 L354.0,103.0 L358.0,100.5 L360.8,99.8 L361.3,96.0 L362.5,92.9 L359.9,92.6 L357.4,91.6 L353.9,86.3 L354.5,83.8 L353.5,83.0 L353.5,80.7 L348.9,79.5 L346.9,76.5 L346.6,75.1 L343.4,69.9 L341.4,71.1 Z M347.7,62.2 L346.2,60.4 L347.5,57.4 L351.0,56.7 L352.4,56.3 L353.8,58.8 L356.0,58.8 L357.5,62.4 L352.9,62.9 Z M360.8,60.0 L358.9,60.3 L358.1,58.2 L358.0,53.7 L357.2,57.7 L355.5,57.1 L353.8,55.2 L355.1,54.0 L353.7,52.7 L355.3,50.0 L356.8,48.5 L357.5,49.5 L359.2,48.0 L359.9,49.7 L359.9,46.2 L361.0,47.0 L361.1,45.4 L363.4,45.8 L361.3,44.2 L362.0,42.4 L362.9,42.1 L364.1,43.9 L364.6,47.1 L365.8,47.5 L366.2,49.1 L365.7,52.1 L363.3,55.8 L361.9,56.7 L363.2,57.6 Z M364.6,39.2 L363.4,37.7 L364.0,35.1 L365.7,34.6 L366.2,36.7 L368.6,36.2 L370.0,36.9 L371.0,38.9 L372.3,40.0 L372.2,41.6 L371.0,43.0 L370.1,45.5 L369.2,46.3 L367.1,46.1 L364.2,40.3 Z M352.4,48.4 L348.4,47.9 L348.6,49.9 L347.7,51.2 L346.1,50.1 L346.2,52.0 L344.8,51.2 L344.0,52.2 L342.7,50.2 L342.5,52.9 L340.8,53.6 L341.5,48.5 L342.8,46.5 L337.6,48.2 L338.3,46.3 L336.1,46.0 L337.6,45.1 L340.3,46.0 L340.5,43.8 L342.1,44.2 L344.0,45.6 L342.6,42.2 L343.2,41.5 L344.8,42.9 L345.2,40.7 L347.3,41.8 L346.7,43.7 L348.5,43.4 L349.1,45.4 L349.3,43.5 L350.6,43.2 L347.9,38.5 L350.0,38.4 L351.6,39.4 L351.2,40.6 L352.8,42.0 L353.1,38.8 L354.8,39.1 L355.3,37.9 L352.5,35.4 L353.2,34.0 L354.6,34.9 L354.3,33.2 L356.6,35.3 L357.5,34.9 L356.3,30.9 L357.9,31.6 L359.5,33.9 L358.4,34.5 L359.0,36.5 L358.1,36.2 L357.6,40.0 L355.6,39.8 L356.4,41.7 L355.5,45.4 L354.2,44.7 L354.2,46.3 Z M398.9,13.5 L400.8,10.6 L401.0,13.0 L399.6,14.8 L397.9,15.1 L397.0,16.2 L394.1,16.2 L394.9,17.8 L391.5,19.2 L389.0,17.1 L390.9,14.8 L389.0,14.6 L387.2,16.3 L386.3,14.5 L387.5,12.1 L388.6,12.6 L388.4,11.0 L392.7,12.0 L391.9,10.6 L389.2,8.8 L391.0,7.3 L391.3,8.1 L393.1,7.1 L393.3,9.3 L395.0,9.6 L396.6,7.7 L397.6,9.5 L395.7,11.8 L397.1,12.2 L396.9,13.6 Z">
  <desc xmlns="http://www.highcharts.com/svg/namespace">
    <labelrank>7</labelrank>
    <hasc>NO.FI</hasc>
    <alt-name>Finnmark fylke|Finmarken|Finnmárkku|Finnmörk</alt-name>
    <woe-id>2346388</woe-id>
    <subregion>NULL</subregion>
    <fips>NO05</fips>
    <postal-code>FI</postal-code>
    <name>Finnmark</name>
    <country>Norway</country>
    <type-en>County</type-en>
    <region>NULL</region>
    <longitude>24.4789</longitude>
    <woe-name>Finnmark</woe-name>
    <latitude>69.56480000000001</latitude>
    <woe-label>Finnmark Fylke, NO, Norway</woe-label>
    <type>Fylke</type>
    <hc-middle-x>0.35</hc-middle-x>
    <hc-middle-y>0.57</hc-middle-y>
    <hc-key>no-fi</hc-key>
    <hc-a2>FI</hc-a2>
  </desc>
</path>

<path fill="#CEE3F5" stroke="#6E6E6E" stroke-width="0.4" id="NO.NO" d="M181.4,341.1 L180.7,342.3 L182.5,342.9 L180.9,345.1 L179.3,345.8 L176.0,344.9 L178.0,342.4 L177.9,339.6 L179.9,337.8 L181.6,340.2 Z M179.1,324.6 L178.0,327.6 L176.7,328.5 L177.7,326.9 Z M174.4,313.5 L174.8,316.8 L173.7,318.9 L172.2,317.7 L170.4,317.5 L171.7,313.7 Z M184.6,312.3 L182.6,315.8 L181.7,315.0 L182.6,313.4 Z M184.3,310.0 L183.1,310.8 L183.8,309.0 L185.5,307.9 Z M182.7,301.9 L180.0,306.2 L180.1,304.9 L181.8,302.4 Z M198.5,283.3 L193.7,286.2 L194.8,283.8 L198.3,283.0 Z M191.1,282.3 L192.4,282.9 L192.7,285.4 L191.6,286.8 L190.3,286.5 L189.3,284.7 Z M193.9,275.7 L193.5,277.9 L192.8,276.6 L192.9,279.7 L190.9,278.3 L191.8,277.0 L191.1,275.3 L192.5,274.6 Z M187.5,267.9 L188.2,269.2 L187.5,270.2 L186.4,268.6 Z M201.6,257.7 L203.4,257.9 L203.1,258.8 L199.3,259.5 Z M210.7,243.3 L208.6,244.2 L208.6,242.6 L209.8,242.0 Z M217.9,240.1 L217.1,241.7 L217.6,245.5 L216.6,245.9 L215.3,242.9 L213.2,242.2 L214.5,239.3 L216.6,240.3 L217.9,237.1 Z M220.1,224.3 L220.1,225.6 L216.9,226.9 L219.5,223.5 Z M187.1,213.5 L184.3,214.3 L185.7,212.7 L187.0,212.1 Z M231.9,195.5 L235.5,197.8 L233.2,198.8 L229.5,198.7 L229.5,195.9 Z M247.1,192.4 L247.4,193.3 L245.7,194.1 L243.1,192.9 L241.5,194.4 L238.9,193.7 L240.5,192.4 L245.9,191.9 Z M235.0,195.8 L233.4,195.9 L232.8,194.5 L234.0,192.3 Z M199.3,193.2 L198.6,195.7 L197.9,194.7 L196.4,197.1 L195.9,194.5 L195.0,195.6 L195.1,193.4 L196.2,191.7 L197.7,193.3 L198.1,191.9 L196.9,189.8 L197.2,188.6 L199.2,188.8 L199.9,189.8 Z M227.0,182.3 L226.6,183.4 L225.1,182.3 L226.6,179.5 L227.9,180.5 Z M214.5,179.5 L215.1,181.1 L213.9,182.9 L212.8,180.6 L211.1,180.6 L211.2,178.8 L212.7,178.6 Z M223.6,169.8 L220.5,166.8 L221.6,165.3 L222.5,165.7 L227.8,166.5 L227.9,167.5 L226.0,169.7 Z M225.9,150.4 L223.8,150.0 L224.2,147.8 L225.8,147.8 L226.5,149.0 Z M176.9,345.6 L178.9,346.3 L179.8,348.0 L178.3,347.7 Z M253.7,187.9 L254.2,186.1 L255.8,184.3 L255.6,182.9 L258.2,183.8 L256.0,180.9 L255.4,181.9 L251.0,182.5 L251.7,181.3 L254.2,180.9 L254.0,179.9 L251.1,179.7 L249.4,178.6 L250.5,176.7 L252.6,177.1 L253.4,178.2 L257.1,179.3 L258.1,180.3 L258.4,182.3 L262.0,184.7 L263.2,185.0 L261.6,182.9 L259.9,181.8 L258.9,179.1 L257.2,177.6 L255.1,177.3 L251.3,174.9 L254.9,172.7 L259.8,171.4 L263.2,172.7 L262.6,175.3 L265.7,173.9 L268.0,172.2 L270.3,176.5 L272.4,177.7 L272.7,182.1 L273.4,181.3 L273.0,179.2 L274.2,178.5 L273.5,177.0 L271.0,175.1 L269.5,172.1 L270.1,170.3 L271.6,170.1 L274.9,171.9 L275.8,171.2 L272.2,169.7 L275.4,168.6 L280.7,169.6 L276.6,167.3 L273.9,167.8 L274.9,163.5 L271.7,165.2 L270.0,167.8 L266.2,169.3 L266.4,166.5 L264.5,165.7 L262.5,168.9 L256.7,170.0 L255.1,166.5 L256.3,164.7 L257.1,165.1 L257.6,166.3 L260.1,165.5 L262.5,162.9 L271.4,161.5 L274.9,159.5 L283.4,157.9 L286.7,161.7 L286.2,162.2 L286.6,169.0 L288.8,178.8 L288.6,180.8 L285.1,190.7 L284.6,190.9 L273.1,185.3 L271.5,188.8 L264.4,196.1 L263.7,197.9 L261.9,209.7 L259.9,214.5 L257.8,216.5 L254.7,217.5 L253.6,221.9 L260.7,232.6 L260.9,240.1 L255.7,246.5 L254.2,249.0 L248.1,264.2 L243.6,270.0 L245.3,277.5 L245.6,280.8 L237.3,287.6 L226.9,289.7 L229.9,303.8 L229.9,306.9 L228.6,311.1 L228.3,323.1 L228.8,330.5 L226.6,333.8 L226.0,335.8 L225.6,341.0 L223.3,340.2 L211.7,342.1 L209.0,341.9 L204.1,342.5 L200.6,341.9 L197.8,345.4 L196.3,346.4 L195.2,349.2 L192.4,350.8 L189.5,350.9 L188.0,349.5 L185.0,349.1 L182.7,349.9 L180.4,348.6 L180.1,346.0 L183.8,343.9 L186.0,343.9 L186.7,342.3 L188.8,342.0 L192.7,337.2 L195.4,332.4 L195.4,331.3 L190.0,338.4 L186.6,341.1 L183.7,340.8 L184.0,339.5 L185.8,339.2 L184.1,336.2 L190.1,335.7 L190.2,335.0 L185.0,334.7 L183.1,335.0 L181.0,336.8 L183.0,333.2 L186.0,329.8 L187.2,330.0 L185.6,325.9 L189.1,327.3 L189.3,324.0 L187.4,322.4 L188.4,321.7 L187.4,318.6 L186.3,322.5 L184.0,321.4 L184.2,318.3 L183.1,318.6 L182.7,316.3 L185.6,311.4 L187.3,312.0 L188.0,314.9 L189.1,316.1 L191.8,316.0 L189.6,314.9 L188.8,312.5 L187.2,311.3 L187.0,309.7 L189.9,306.5 L188.2,306.5 L187.9,305.4 L189.2,301.5 L191.3,299.5 L194.0,300.0 L196.6,301.3 L199.5,304.7 L198.0,300.2 L195.2,299.6 L194.0,297.9 L194.5,295.8 L196.0,294.1 L189.6,295.6 L188.7,294.6 L190.3,292.4 L192.7,290.9 L196.3,289.8 L199.9,288.0 L201.4,286.3 L205.9,285.0 L206.9,286.0 L205.3,287.8 L207.1,287.7 L206.2,291.0 L206.9,291.5 L208.4,289.1 L212.3,288.3 L207.7,287.7 L209.3,284.9 L212.2,285.6 L215.0,284.7 L215.6,283.0 L218.1,280.5 L217.9,279.2 L214.6,281.3 L213.6,283.2 L210.4,282.0 L209.4,284.2 L207.8,284.9 L206.8,282.5 L203.6,284.9 L201.0,285.2 L199.4,287.1 L196.7,288.7 L195.9,287.5 L198.4,284.3 L201.6,282.1 L205.1,282.0 L205.3,281.0 L203.2,281.2 L203.7,279.9 L202.2,280.0 L199.7,282.4 L197.8,282.1 L198.3,280.9 L195.8,281.4 L194.9,279.5 L197.7,277.9 L198.3,276.6 L196.3,272.3 L194.1,271.2 L196.7,270.1 L199.1,271.9 L199.3,274.5 L200.1,273.8 L199.9,271.3 L201.8,269.9 L204.4,269.4 L208.2,271.0 L207.2,269.8 L203.8,268.7 L206.6,266.4 L204.6,266.5 L203.1,268.8 L200.0,269.7 L198.7,269.3 L199.5,266.4 L201.9,265.3 L199.5,265.4 L198.2,263.7 L201.4,264.7 L203.4,263.9 L205.4,264.9 L204.0,263.1 L199.6,261.9 L199.4,260.8 L204.1,261.1 L204.9,262.1 L208.2,262.0 L208.2,260.9 L211.3,260.6 L212.0,259.6 L208.5,259.8 L206.5,261.0 L205.2,260.5 L205.9,258.6 L208.5,259.0 L208.6,258.1 L204.3,257.6 L204.9,256.5 L207.8,256.2 L209.4,256.9 L213.9,256.8 L210.1,256.0 L206.7,252.8 L205.9,251.2 L204.3,251.4 L205.5,249.7 L208.6,249.6 L208.9,248.0 L210.9,247.9 L213.0,246.5 L211.5,248.6 L212.3,249.6 L214.4,246.4 L213.7,245.0 L214.5,243.0 L215.7,246.5 L218.0,246.8 L218.7,242.8 L221.6,242.5 L225.0,244.1 L224.8,242.5 L220.7,241.8 L219.0,242.0 L220.2,237.7 L222.1,237.9 L226.4,237.3 L227.8,239.3 L227.3,237.2 L225.8,236.5 L223.1,236.5 L224.8,235.2 L225.8,236.1 L228.2,234.4 L231.1,234.9 L230.8,237.9 L232.4,239.7 L231.4,237.3 L232.9,234.6 L234.4,234.1 L239.7,236.1 L240.5,237.2 L240.3,239.5 L241.5,239.4 L241.6,235.6 L239.9,234.3 L241.4,233.5 L246.7,235.2 L246.3,233.1 L244.4,233.8 L240.4,232.5 L238.6,234.0 L239.1,232.3 L236.6,232.8 L233.6,232.4 L235.2,230.7 L235.4,229.1 L232.5,230.2 L231.9,231.4 L227.9,231.6 L229.2,232.3 L226.1,234.4 L226.1,231.3 L224.1,232.8 L219.3,233.6 L224.2,226.4 L225.0,223.9 L227.9,223.9 L228.5,226.1 L229.6,224.7 L232.7,222.3 L228.3,222.6 L226.3,220.6 L227.5,218.7 L232.4,215.7 L234.5,217.7 L233.5,218.1 L231.5,216.5 L232.5,218.8 L231.8,220.4 L229.3,220.6 L228.8,221.4 L231.9,221.3 L234.8,218.4 L235.7,220.0 L234.5,223.6 L236.3,220.4 L238.7,219.8 L240.8,221.0 L243.3,227.4 L245.1,230.1 L245.8,228.6 L244.2,227.2 L243.2,224.2 L241.7,222.7 L242.9,220.8 L241.9,220.6 L243.0,218.4 L246.5,216.0 L248.6,215.5 L248.0,214.7 L244.2,216.1 L241.1,218.5 L236.6,218.1 L235.8,217.4 L235.9,215.1 L237.1,214.5 L240.2,215.2 L238.9,212.5 L238.1,213.9 L236.4,213.0 L234.9,214.0 L234.8,212.2 L237.3,209.8 L236.5,208.2 L238.8,209.6 L241.3,210.2 L240.7,209.2 L243.5,209.7 L241.3,208.3 L240.1,209.0 L238.4,207.0 L242.1,206.3 L246.2,209.5 L246.9,208.7 L245.8,207.1 L242.7,205.6 L243.7,203.8 L241.9,205.1 L237.8,203.9 L234.5,208.4 L231.7,210.7 L227.9,212.7 L225.7,212.0 L228.5,209.8 L226.8,208.4 L232.9,207.4 L230.9,207.3 L231.2,205.4 L227.6,206.3 L225.8,204.7 L226.4,203.7 L231.5,202.5 L231.7,201.4 L227.4,202.5 L230.1,199.8 L233.8,200.0 L234.7,200.6 L234.2,202.7 L235.9,199.6 L240.4,197.9 L239.8,200.1 L241.5,197.1 L244.9,195.8 L246.5,198.1 L247.9,194.4 L248.1,192.6 L249.8,192.1 L245.7,191.4 L246.1,189.6 L244.6,191.6 L241.0,191.7 L239.8,190.0 L236.9,192.8 L238.0,193.4 L236.5,194.2 L235.0,192.3 L237.0,188.7 L238.9,187.1 L239.1,188.9 L241.1,186.8 L241.1,185.2 L243.1,186.4 L243.3,188.8 L241.1,189.0 L241.2,190.7 L245.0,188.6 L246.7,186.5 L245.6,184.7 L246.8,183.7 L246.9,180.6 L248.3,180.7 L249.0,182.8 L248.8,184.8 L249.8,184.1 L249.5,187.2 L250.1,189.1 L249.3,191.4 L251.7,192.8 L252.8,194.8 L253.7,198.5 L254.6,198.7 L257.8,202.0 L257.9,199.8 L255.1,198.9 L253.9,197.6 L254.0,193.8 L252.6,192.5 L254.4,192.8 L256.7,196.4 L258.0,197.3 L257.8,195.2 L255.0,192.7 L255.8,191.9 L258.0,194.4 L258.1,191.4 L255.4,190.9 L257.0,187.5 L261.0,189.3 L261.4,188.3 L259.2,187.7 L257.6,186.2 L254.9,188.3 L253.8,188.0 L254.6,188.6 L254.5,190.3 L251.8,189.7 L253.4,187.6 Z M178.3,330.6 L179.6,330.7 L180.1,329.1 L179.0,328.6 L182.5,324.9 L182.1,323.5 L179.7,324.6 L181.2,319.2 L182.3,321.6 L183.9,322.8 L184.9,324.9 L186.0,328.9 L182.8,331.8 L180.2,332.2 L181.0,334.4 L177.5,337.8 L178.3,333.3 L177.4,333.0 Z M190.2,297.1 L192.7,296.3 L193.6,296.9 L190.2,299.0 L187.9,300.7 L185.3,304.0 L185.0,303.0 L182.8,303.4 L184.8,298.9 L187.4,296.7 L188.4,297.0 L187.6,298.8 Z M184.6,292.3 L186.6,289.8 L183.6,289.2 L185.9,287.7 L187.2,288.7 L187.4,289.9 L186.1,291.2 L188.1,292.1 L185.9,294.8 L181.1,297.2 L183.7,293.5 L181.9,293.8 Z M189.1,202.7 L191.4,194.7 L193.2,192.1 L194.7,192.1 L193.6,193.5 L194.5,198.8 L192.8,199.5 L191.5,198.1 L191.5,199.8 L192.9,200.7 L192.4,202.6 L190.2,203.9 L189.8,205.4 L188.2,206.2 L189.3,203.9 Z M203.9,192.4 L203.5,190.6 L202.2,190.0 L202.4,191.9 L201.5,194.1 L200.4,192.6 L200.9,190.7 L202.7,188.0 L200.7,189.4 L201.5,187.3 L201.2,185.5 L203.0,184.6 L200.8,183.9 L203.3,181.1 L206.2,182.3 L207.6,179.3 L209.6,178.6 L210.2,180.8 L209.5,182.1 L211.7,181.3 L213.1,182.6 L212.4,185.1 L211.0,186.5 L206.2,187.8 L207.6,189.7 L206.3,190.7 L205.3,189.7 L205.3,192.0 Z M222.7,182.3 L219.7,185.2 L214.2,187.7 L214.0,185.3 L216.9,183.0 L214.9,182.8 L216.3,182.0 L215.7,179.6 L216.7,179.1 L217.5,180.7 L218.3,179.1 L219.3,179.1 L217.0,176.4 L219.0,175.6 L220.8,176.6 L219.8,174.6 L221.8,173.3 L223.0,175.8 L223.2,173.1 L224.5,173.2 L225.1,175.0 L224.5,176.9 L226.2,175.2 L226.3,172.7 L228.5,172.9 L229.4,171.8 L231.1,172.1 L229.1,176.1 L227.5,176.8 L227.4,178.0 L224.4,181.7 L223.6,181.6 L224.4,178.7 L223.6,177.8 L223.0,180.4 L221.9,181.4 Z M255.3,168.6 L253.6,169.8 L254.3,170.7 L254.3,171.5 L251.2,172.0 L249.3,173.7 L248.7,172.8 L250.0,171.2 L249.0,171.0 L250.0,166.8 L252.7,165.4 L254.0,166.2 Z M233.7,161.1 L228.9,165.2 L225.4,165.2 L224.1,162.5 L226.5,161.0 L228.1,160.8 L229.0,159.3 L230.3,158.9 L229.9,156.1 L227.5,155.5 L228.4,156.6 L227.6,158.5 L224.2,160.7 L223.7,158.8 L222.8,161.1 L221.4,160.2 L220.5,163.4 L217.2,164.3 L215.8,160.6 L216.7,159.1 L218.8,157.9 L216.8,157.0 L218.2,154.3 L219.6,157.7 L219.8,154.2 L221.1,153.2 L221.2,156.2 L224.9,154.8 L224.9,156.3 L226.0,155.0 L226.0,153.3 L225.1,151.9 L225.9,150.8 L227.1,154.4 L227.7,151.4 L229.8,153.0 L227.9,150.0 L226.5,145.0 L228.7,143.2 L230.0,147.1 L232.0,148.3 L231.3,152.5 L232.7,150.7 L233.8,151.0 L233.4,153.5 L232.1,153.6 L232.1,155.6 L234.4,157.1 L234.6,158.9 Z M237.6,136.1 L239.9,134.8 L240.8,130.2 L244.8,126.6 L245.8,128.8 L244.8,135.2 L244.0,135.9 L240.9,141.7 L237.8,143.8 L236.1,142.5 L236.6,144.4 L236.2,147.7 L234.5,149.3 L234.1,145.4 L234.5,142.7 L236.1,137.9 Z M255.3,163.0 L255.2,164.6 L252.7,164.2 L250.4,165.1 L249.0,166.4 L248.1,166.0 L247.7,169.5 L246.4,173.3 L244.8,174.6 L244.6,170.8 L242.2,172.0 L242.0,174.7 L240.4,178.5 L238.4,176.7 L235.6,177.4 L235.2,176.1 L235.9,174.2 L237.1,173.4 L239.4,169.7 L238.0,168.0 L238.4,169.7 L236.5,172.8 L235.4,172.8 L233.6,175.3 L232.4,175.7 L232.9,177.1 L231.2,178.8 L230.4,180.7 L228.9,181.7 L228.8,178.6 L229.9,177.3 L230.7,174.5 L233.1,170.9 L233.0,168.1 L231.2,167.8 L232.2,165.7 L236.0,163.7 L235.7,162.6 L237.0,161.7 L235.8,160.2 L235.4,157.1 L238.9,156.1 L236.3,156.3 L235.5,155.7 L235.2,152.9 L238.5,152.0 L237.1,151.4 L236.8,149.7 L238.0,148.9 L237.4,147.9 L238.1,145.4 L240.5,145.2 L241.9,144.3 L242.9,144.9 L242.3,146.1 L242.7,149.0 L240.5,156.5 L241.7,158.0 L241.6,159.4 L240.1,162.4 L239.7,166.5 L240.7,169.9 L243.9,165.5 L244.9,163.1 L246.7,163.2 L250.5,160.9 Z">
  <desc xmlns="http://www.highcharts.com/svg/namespace">
    <labelrank>7</labelrank>
    <hasc>NO.NO</hasc>
    <alt-name>Nordland fylke</alt-name>
    <woe-id>2346392</woe-id>
    <subregion>NULL</subregion>
    <fips>NO09</fips>
    <postal-code>NO</postal-code>
    <name>Nordland</name>
    <country>Norway</country>
    <type-en>County</type-en>
    <region>NULL</region>
    <longitude>14.7203</longitude>
    <woe-name>Nordland</woe-name>
    <latitude>66.7347</latitude>
    <woe-label>Nordland Fylke, NO, Norway</woe-label>
    <type>Fylke</type>
    <hc-middle-x>0.47</hc-middle-x>
    <hc-middle-y>0.68</hc-middle-y>
    <hc-key>no-no</hc-key>
    <hc-a2>NO</hc-a2>
  </desc>
</path>

<path fill="#CEE3F5" stroke="#6E6E6E" stroke-width="0.4" id="NO.TR" d="M265.6,152.9 L260.9,155.0 L260.7,152.6 L263.4,147.9 L264.3,150.0 L266.3,152.2 Z M267.2,147.5 L266.9,144.4 L268.6,144.4 L271.1,146.8 L268.9,150.2 L267.6,150.9 L266.6,149.9 L266.0,147.4 L264.5,145.8 L264.7,144.5 Z M252.0,143.3 L254.7,143.3 L255.4,144.3 L255.1,147.4 L251.9,146.9 L249.2,143.8 L249.9,142.4 Z M269.7,140.7 L268.8,140.4 L268.6,138.5 L270.1,135.8 L271.8,135.2 L271.8,137.1 Z M283.8,96.7 L283.1,95.8 L284.1,94.6 L285.4,94.9 L285.5,96.3 Z M321.7,92.0 L319.9,92.4 L319.1,90.6 L319.3,87.6 L321.8,86.5 L322.5,90.1 Z M304.3,92.0 L301.1,93.4 L300.3,92.5 L301.4,89.2 L303.8,86.6 L304.9,84.3 L306.5,85.7 L305.0,91.4 Z M324.7,80.9 L327.5,80.4 L325.7,82.1 L325.3,84.0 L323.0,84.3 L321.8,81.9 L322.2,79.9 L323.2,79.4 Z M338.0,78.0 L337.7,79.5 L335.3,78.5 L335.8,77.1 Z M287.8,83.6 L289.0,81.4 L290.7,82.8 L289.8,84.4 L287.5,86.0 L286.6,87.9 L285.4,84.8 L286.1,82.9 L285.8,81.5 L287.2,81.8 Z M323.4,77.5 L322.3,78.0 L321.4,75.8 L321.8,74.1 L323.5,76.0 Z M300.4,80.3 L297.0,79.9 L296.8,77.8 L298.2,77.6 L300.7,79.4 Z M288.2,77.1 L288.6,79.5 L286.8,79.0 L287.5,77.2 Z M293.4,73.2 L294.7,76.5 L294.6,79.1 L292.6,80.3 L290.5,78.8 L292.6,76.2 L291.8,74.1 Z M310.9,72.3 L310.4,72.1 L309.8,68.0 L311.6,70.0 Z M333.3,70.4 L335.4,70.2 L337.4,72.0 L339.9,73.4 L341.4,71.1 L343.4,69.9 L346.6,75.1 L346.9,76.5 L348.9,79.5 L353.5,80.7 L353.5,83.0 L354.5,83.8 L353.9,86.3 L357.4,91.6 L359.9,92.6 L362.5,92.9 L361.3,96.0 L360.8,99.8 L358.0,100.5 L354.0,103.0 L354.7,106.6 L357.6,110.0 L360.6,114.5 L361.2,117.9 L360.6,120.7 L359.3,122.0 L350.7,124.8 L343.9,115.9 L343.4,115.6 L337.5,115.6 L334.1,118.9 L333.5,122.0 L336.5,126.3 L335.8,128.6 L334.6,129.0 L329.0,126.7 L327.3,130.4 L318.1,132.6 L323.3,137.6 L324.4,142.8 L324.4,144.8 L323.4,150.4 L322.2,153.3 L319.3,157.1 L325.0,159.5 L321.5,165.8 L320.1,166.7 L311.3,164.3 L302.5,161.3 L296.4,162.6 L295.3,162.5 L291.0,159.3 L286.7,161.7 L283.4,157.9 L274.9,159.5 L271.4,161.5 L262.5,162.9 L260.1,165.5 L257.6,166.3 L257.1,165.1 L256.6,161.2 L257.5,159.6 L260.6,157.3 L263.8,155.6 L267.0,159.1 L266.0,157.4 L266.1,155.8 L268.4,154.3 L270.7,154.7 L272.6,156.8 L275.4,155.7 L273.1,155.5 L271.1,153.0 L269.7,153.8 L268.0,152.7 L271.8,149.3 L273.8,150.4 L276.7,150.6 L278.0,152.0 L277.8,150.5 L271.8,148.5 L275.6,145.0 L277.6,146.0 L277.9,144.6 L275.7,143.9 L275.8,142.8 L270.7,145.1 L271.4,142.6 L272.3,141.8 L271.3,140.2 L274.2,135.0 L273.6,133.7 L277.4,133.1 L278.8,131.5 L282.3,130.8 L280.9,130.2 L281.0,127.2 L279.4,127.3 L278.8,124.5 L280.5,121.9 L281.2,118.0 L280.5,115.6 L282.8,113.8 L284.8,116.8 L284.6,118.4 L286.0,118.1 L287.4,119.9 L287.5,123.2 L288.2,122.9 L288.3,119.3 L289.4,122.5 L291.4,124.1 L290.8,121.4 L293.1,120.7 L295.2,121.9 L296.8,121.8 L295.0,120.0 L290.0,118.9 L287.8,115.7 L286.0,115.5 L286.1,111.6 L288.3,110.3 L292.1,109.2 L292.3,111.7 L293.2,111.9 L294.3,114.4 L295.7,115.1 L296.0,116.6 L298.7,118.6 L302.3,118.5 L303.0,120.6 L301.1,122.2 L302.3,124.6 L303.6,123.5 L305.5,124.3 L304.7,122.4 L304.4,119.5 L302.1,116.7 L298.7,117.3 L296.7,114.5 L295.3,113.3 L295.1,111.2 L296.1,109.7 L298.1,108.5 L299.5,109.7 L298.6,107.6 L295.6,108.8 L295.1,109.8 L293.9,108.5 L293.3,105.9 L295.2,101.6 L295.2,99.4 L298.3,96.6 L300.9,96.5 L302.7,95.1 L305.7,94.0 L306.6,94.3 L305.6,100.7 L306.8,102.6 L306.1,107.9 L306.8,111.9 L305.1,115.2 L307.6,112.6 L307.3,104.0 L310.6,103.9 L309.2,103.0 L308.1,100.0 L308.4,96.1 L310.1,91.8 L310.1,95.9 L310.7,95.5 L312.1,86.4 L312.7,89.5 L313.5,90.4 L312.9,87.2 L313.7,84.8 L314.5,84.9 L316.8,88.3 L317.1,92.7 L316.7,96.8 L317.0,99.6 L318.1,100.8 L318.6,103.0 L317.2,104.5 L317.6,109.0 L316.7,110.0 L316.7,112.8 L313.6,117.1 L314.0,117.7 L312.9,120.8 L314.3,119.7 L315.1,117.0 L318.3,113.6 L319.1,109.6 L320.7,103.7 L323.8,106.1 L326.8,106.2 L325.0,105.6 L322.9,102.5 L320.2,101.3 L320.2,96.0 L319.4,94.1 L321.7,93.6 L323.9,91.7 L324.2,89.6 L323.4,87.8 L327.3,83.8 L328.0,83.8 L326.4,86.0 L325.3,88.8 L328.1,91.7 L327.3,89.9 L328.1,88.0 L329.9,86.9 L329.7,90.2 L330.9,89.0 L330.3,85.2 L332.3,84.8 L330.1,83.8 L330.2,80.3 L332.4,78.6 L335.5,80.0 L336.7,81.6 L336.5,83.0 L338.6,84.6 L339.9,84.7 L343.0,87.1 L344.3,89.3 L346.9,90.8 L345.9,88.2 L343.0,86.4 L344.5,86.3 L344.5,85.1 L342.9,84.3 L342.0,81.1 L342.1,79.0 L343.5,78.8 L344.4,80.1 L343.7,77.1 L340.6,77.9 L339.2,76.9 L339.7,75.9 L342.5,75.0 L343.6,71.8 L341.5,74.0 L339.4,74.0 L337.7,76.0 L335.5,74.4 L333.9,75.1 L332.0,72.4 L332.8,71.0 L330.6,71.9 L327.7,70.1 L328.0,69.3 Z M288.0,108.5 L281.9,111.7 L280.7,111.8 L278.9,109.9 L276.8,109.1 L277.4,107.7 L279.0,106.6 L280.8,106.8 L282.0,108.5 L283.6,105.8 L281.7,106.2 L279.5,102.9 L284.6,102.2 L287.0,102.7 L286.5,101.9 L282.9,101.9 L281.6,99.7 L281.9,98.3 L284.2,98.8 L284.4,100.1 L285.8,97.3 L287.0,97.0 L287.1,99.5 L288.7,102.8 L289.5,97.8 L287.4,95.4 L286.9,92.9 L288.5,93.5 L289.7,92.9 L289.9,94.6 L292.5,94.8 L294.2,97.0 L294.0,99.2 L292.2,101.7 L290.4,102.9 L290.0,104.7 L291.2,105.8 L291.3,107.4 L289.9,108.9 Z M301.1,89.5 L299.8,93.5 L298.7,95.0 L295.2,96.8 L293.5,94.4 L289.6,91.6 L288.2,91.2 L287.3,89.7 L289.7,89.6 L290.7,88.1 L289.1,87.7 L288.9,86.0 L290.3,85.1 L293.5,84.6 L292.2,82.3 L293.2,82.5 L294.5,81.0 L295.0,82.2 L296.7,81.7 L296.4,84.2 L298.4,85.9 L299.3,83.0 L300.8,82.2 L301.7,85.4 L302.7,83.8 L303.5,85.5 L301.3,87.5 Z M316.9,70.5 L319.4,70.1 L321.3,72.0 L321.0,76.1 L321.8,78.4 L320.0,78.5 L318.5,80.0 L318.3,77.4 L317.0,79.7 L315.6,79.4 L314.7,77.8 L314.5,74.2 L316.4,72.0 Z M303.5,77.8 L300.9,73.9 L299.0,72.6 L301.1,70.2 L301.8,72.2 L303.6,73.9 L304.4,75.9 L304.9,73.8 L306.3,74.3 L306.6,75.6 L308.5,75.6 L307.4,76.6 L310.6,77.9 L308.9,78.7 L308.0,81.0 L305.3,81.4 L303.9,80.3 Z M242.3,146.1 L242.9,144.9 L243.5,148.5 L242.8,153.8 L241.1,156.3 L242.8,155.6 L244.4,153.2 L245.2,154.5 L244.5,158.6 L243.5,160.3 L242.1,160.9 L241.7,162.3 L242.2,165.0 L242.9,164.9 L242.7,162.5 L245.8,158.9 L247.1,161.1 L247.3,159.0 L246.2,157.1 L247.4,155.5 L249.4,155.6 L247.5,153.3 L247.0,150.7 L248.5,149.5 L249.9,150.3 L249.4,147.1 L250.6,148.7 L253.0,149.5 L253.5,151.2 L255.2,150.5 L254.3,152.4 L255.2,155.8 L256.2,156.4 L256.1,159.1 L255.1,161.7 L255.3,163.0 L250.5,160.9 L246.7,163.2 L244.9,163.1 L243.9,165.5 L240.7,169.9 L239.7,166.5 L240.1,162.4 L241.6,159.4 L241.7,158.0 L240.5,156.5 L242.7,149.0 Z M268.3,112.8 L267.5,109.8 L268.4,109.9 L270.6,113.7 L271.8,114.0 L270.8,109.7 L271.1,109.2 L272.9,112.2 L274.1,109.5 L275.4,112.1 L274.7,114.0 L275.1,116.8 L276.3,112.7 L278.4,113.9 L277.3,114.7 L276.8,117.5 L278.0,118.3 L278.7,116.5 L279.3,117.4 L279.9,121.0 L277.6,121.8 L276.9,123.1 L278.1,126.4 L276.8,126.6 L278.6,129.9 L274.2,130.8 L272.6,132.0 L270.4,132.2 L270.9,129.8 L269.8,129.9 L268.4,132.4 L266.1,135.1 L265.0,138.1 L265.6,139.3 L263.1,140.0 L264.0,136.4 L259.0,138.5 L258.1,137.8 L258.5,135.2 L262.7,134.1 L263.0,131.6 L259.6,131.3 L259.1,129.9 L260.2,129.1 L262.8,129.2 L263.1,128.0 L259.6,126.3 L259.3,125.1 L263.2,125.0 L261.4,123.5 L261.5,122.5 L258.4,123.0 L259.3,121.0 L261.8,121.3 L262.9,120.5 L265.3,120.6 L267.1,121.7 L267.4,121.0 L265.3,119.5 L268.2,119.2 L269.0,118.4 L264.4,117.6 L263.1,115.2 L265.3,116.1 L266.8,115.9 L265.2,113.4 L267.9,114.2 L270.3,116.2 L271.4,116.4 L269.7,113.5 Z">
  <desc xmlns="http://www.highcharts.com/svg/namespace">
    <labelrank>7</labelrank>
    <hasc>NO.TR</hasc>
    <alt-name>Troms fylke|Tromsø|Troms-Fylki</alt-name>
    <woe-id>2346401</woe-id>
    <subregion>NULL</subregion>
    <fips>NO18</fips>
    <postal-code>TR</postal-code>
    <name>Troms</name>
    <country>Norway</country>
    <type-en>County</type-en>
    <region>NULL</region>
    <longitude>19.0835</longitude>
    <woe-name>Troms</woe-name>
    <latitude>68.9053</latitude>
    <woe-label>Troms Fylke, NO, Norway</woe-label>
    <type>Fylke</type>
    <hc-middle-x>0.50</hc-middle-x>
    <hc-middle-y>0.71</hc-middle-y>
    <hc-key>no-tr</hc-key>
    <hc-a2>TR</hc-a2>
  </desc>
</path>

<path fill="#CEE3F5" stroke="#6E6E6E" stroke-width="0.4" id="NO.AK" d="M147.8,627.7 L146.7,624.4 L147.0,622.1 L144.6,615.4 L146.0,610.0 L147.0,608.8 L148.6,614.8 L149.6,609.5 L152.6,610.2 L154.1,608.0 L153.9,601.9 L152.2,599.6 L149.8,595.1 L147.7,593.9 L149.5,593.1 L151.1,588.1 L153.5,584.3 L153.6,582.7 L150.9,579.6 L147.7,578.7 L149.0,574.8 L152.2,576.8 L158.0,574.7 L159.7,570.1 L159.7,570.1 L161.7,575.7 L164.5,578.2 L166.5,582.9 L170.3,587.3 L170.3,591.9 L171.4,593.5 L174.3,595.5 L176.9,598.2 L177.1,604.7 L178.0,607.2 L177.2,609.5 L178.3,611.2 L176.2,611.4 L174.0,613.2 L173.3,615.9 L172.1,616.4 L169.2,620.4 L168.3,619.9 L168.1,617.3 L166.0,616.0 L164.8,613.4 L162.6,612.3 L162.3,615.8 L155.3,615.8 L154.8,617.7 L151.0,623.4 L149.8,626.0 Z">
  <desc xmlns="http://www.highcharts.com/svg/namespace">
    <labelrank>7</labelrank>
    <hasc>NO.AK</hasc>
    <alt-name>Akershus fylke</alt-name>
    <woe-id>2346385</woe-id>
    <subregion>NULL</subregion>
    <fips>NO01</fips>
    <postal-code>AK</postal-code>
    <name>Akershus</name>
    <country>Norway</country>
    <type-en>County</type-en>
    <region>NULL</region>
    <longitude>11.2222</longitude>
    <woe-name>Akershus</woe-name>
    <latitude>60.1365</latitude>
    <woe-label>Akershus Fylke, NO, Norway</woe-label>
    <type>Fylke</type>
    <hc-middle-x>0.56</hc-middle-x>
    <hc-middle-y>0.44</hc-middle-y>
    <hc-key>no-ak</hc-key>
    <hc-a2>AK</hc-a2>
  </desc>
</path>

<path fill="#CEE3F5" stroke="#6E6E6E" stroke-width="0.4" id="NO.OP" d="M158.0,574.7 L152.2,576.8 L149.0,574.8 L147.7,578.7 L150.9,579.6 L153.6,582.7 L153.5,584.3 L151.1,588.1 L149.5,593.1 L147.7,593.9 L146.2,593.8 L140.6,589.6 L138.9,587.4 L136.6,582.4 L134.9,574.7 L131.9,568.4 L129.4,568.2 L128.9,570.5 L126.0,572.2 L126.5,577.0 L122.2,575.4 L121.0,573.0 L116.1,571.7 L116.1,569.5 L114.0,565.1 L114.2,563.2 L113.1,561.3 L111.5,560.6 L105.6,556.5 L103.7,554.8 L100.0,553.8 L97.4,552.1 L97.0,550.2 L91.5,547.0 L89.0,544.0 L86.9,546.2 L86.6,544.4 L84.1,540.3 L83.8,537.6 L87.6,532.9 L86.4,530.3 L86.9,527.8 L90.4,527.3 L88.0,523.5 L83.3,520.9 L81.7,517.9 L80.9,512.4 L77.7,511.0 L72.1,511.1 L70.9,509.5 L69.3,504.7 L69.9,498.4 L68.2,495.9 L71.6,493.9 L75.3,493.9 L75.1,492.6 L78.1,489.1 L79.9,488.7 L82.2,489.7 L85.0,488.6 L86.6,486.3 L88.2,482.1 L94.5,480.5 L104.9,480.3 L107.6,481.2 L110.4,480.9 L119.1,484.8 L122.2,486.5 L126.6,486.0 L123.9,490.0 L123.6,491.8 L129.0,496.1 L129.3,497.6 L127.0,499.5 L127.0,504.0 L131.5,506.4 L131.6,505.0 L133.5,505.3 L134.0,508.2 L132.8,512.8 L138.1,514.6 L141.0,516.6 L143.2,514.2 L145.0,513.4 L146.4,515.4 L147.7,523.0 L147.9,526.9 L151.9,536.9 L150.1,538.0 L146.7,543.9 L142.0,548.2 L143.7,550.9 L145.7,552.2 L148.9,556.9 L148.8,561.0 L150.8,562.8 L156.8,567.0 L159.7,570.1 L159.7,570.1 Z">
  <desc xmlns="http://www.highcharts.com/svg/namespace">
    <labelrank>7</labelrank>
    <hasc>NO.OP</hasc>
    <alt-name>Oppland fylke|Kristian|Opland|Upplönd</alt-name>
    <woe-id>2346394</woe-id>
    <subregion>NULL</subregion>
    <fips>NO11</fips>
    <postal-code>OP</postal-code>
    <name>Oppland</name>
    <country>Norway</country>
    <type-en>County</type-en>
    <region>NULL</region>
    <longitude>9.24644</longitude>
    <woe-name>Oppland</woe-name>
    <latitude>61.5731</latitude>
    <woe-label>Oppland Fylke, NO, Norway</woe-label>
    <type>Fylke</type>
    <hc-middle-x>0.53</hc-middle-x>
    <hc-middle-y>0.45</hc-middle-y>
    <hc-key>no-op</hc-key>
    <hc-a2>OP</hc-a2>
  </desc>
</path>

<path fill="#CEE3F5" stroke="#6E6E6E" stroke-width="0.4" id="NO.HE" d="M159.7,570.1 L159.7,570.1 L156.8,567.0 L150.8,562.8 L148.8,561.0 L148.9,556.9 L145.7,552.2 L143.7,550.9 L142.0,548.2 L146.7,543.9 L150.1,538.0 L151.9,536.9 L147.9,526.9 L147.7,523.0 L146.4,515.4 L145.0,513.4 L143.2,514.2 L141.0,516.6 L138.1,514.6 L132.8,512.8 L134.0,508.2 L133.5,505.3 L131.6,505.0 L131.5,506.4 L127.0,504.0 L127.0,499.5 L129.3,497.6 L129.0,496.1 L123.6,491.8 L123.9,490.0 L126.6,486.0 L128.6,482.2 L129.5,482.6 L131.4,480.0 L134.3,478.1 L133.6,474.7 L134.1,470.9 L135.6,467.4 L138.6,464.8 L145.6,465.8 L147.6,465.4 L148.9,466.8 L152.8,464.8 L158.1,466.2 L159.1,466.9 L160.7,471.8 L166.4,477.2 L167.9,479.9 L172.1,481.8 L174.5,480.9 L179.0,481.8 L182.8,483.4 L185.3,482.7 L186.3,488.3 L183.2,514.1 L189.5,521.1 L194.3,522.8 L200.9,531.5 L201.3,532.6 L199.8,539.9 L198.1,542.7 L197.5,547.3 L196.7,548.3 L192.5,548.0 L186.9,549.9 L186.4,551.6 L187.9,555.6 L189.6,563.0 L192.4,567.8 L195.3,574.9 L195.9,577.9 L195.5,581.0 L193.0,586.1 L194.0,591.0 L193.8,595.0 L192.3,598.5 L188.4,603.2 L184.8,606.3 L179.7,606.3 L178.0,607.2 L177.1,604.7 L176.9,598.2 L174.3,595.5 L171.4,593.5 L170.3,591.9 L170.3,587.3 L166.5,582.9 L164.5,578.2 L161.7,575.7 Z">
  <desc xmlns="http://www.highcharts.com/svg/namespace">
    <labelrank>7</labelrank>
    <hasc>NO.HE</hasc>
    <alt-name>Hedmark fylke|Hedemarken|Heiðmörk</alt-name>
    <woe-id>2346389</woe-id>
    <subregion>NULL</subregion>
    <fips>NO06</fips>
    <postal-code>HE</postal-code>
    <name>Hedmark</name>
    <country>Norway</country>
    <type-en>County</type-en>
    <region>NULL</region>
    <longitude>11.2721</longitude>
    <woe-name>Hedmark</woe-name>
    <latitude>61.5285</latitude>
    <woe-label>Hedmark Fylke, NO, Norway</woe-label>
    <type>Fylke</type>
    <hc-middle-x>0.59</hc-middle-x>
    <hc-middle-y>0.54</hc-middle-y>
    <hc-key>no-he</hc-key>
    <hc-a2>HE</hc-a2>
  </desc>
</path>

<path fill="#CEE3F5" stroke="#6E6E6E" stroke-width="0.4" id="NO.OS" d="M146.2,593.8 L147.7,593.9 L149.8,595.1 L152.2,599.6 L153.9,601.9 L154.1,608.0 L152.6,610.2 L149.6,609.5 L149.5,607.2 L147.9,606.1 L147.3,607.2 L143.8,607.5 L142.4,609.2 L142.7,611.5 L140.5,611.3 L139.2,609.7 L139.9,602.8 L141.6,599.9 L143.9,598.7 Z">
  <desc xmlns="http://www.highcharts.com/svg/namespace">
    <labelrank>9</labelrank>
    <hasc>NO.OS</hasc>
    <alt-name>Oslo fylke|Kristiania</alt-name>
    <woe-id>2346395</woe-id>
    <subregion>NULL</subregion>
    <fips>NO12</fips>
    <postal-code>OS</postal-code>
    <name>Oslo</name>
    <country>Norway</country>
    <type-en>County</type-en>
    <region>NULL</region>
    <longitude>10.6419</longitude>
    <woe-name>Oslo</woe-name>
    <latitude>60.0237</latitude>
    <woe-label>Oslo Fylke, NO, Norway</woe-label>
    <type>Fylke</type>
    <hc-middle-x>0.94</hc-middle-x>
    <hc-middle-y>0.86</hc-middle-y>
    <hc-key>no-os</hc-key>
    <hc-a2>OS</hc-a2>
  </desc>
</path>

<path fill="#CEE3F5" stroke="#6E6E6E" stroke-width="0.4" id="NO.TE" d="M59.9,614.9 L56.7,612.5 L56.3,609.5 L58.2,607.0 L58.3,604.1 L61.2,599.8 L64.5,598.1 L66.7,593.8 L70.7,592.4 L72.9,592.4 L75.7,593.5 L84.6,590.4 L90.5,591.5 L100.5,592.3 L103.3,594.2 L104.3,595.7 L105.1,600.2 L108.1,602.3 L110.1,605.4 L110.1,608.7 L114.0,611.0 L113.9,615.0 L116.1,618.9 L117.2,625.8 L118.6,625.8 L120.8,628.8 L124.5,630.1 L124.6,634.9 L126.6,637.8 L127.0,641.7 L125.6,643.4 L126.2,646.5 L125.4,651.0 L123.6,650.3 L121.8,647.3 L121.7,649.6 L120.4,645.2 L118.0,645.8 L120.9,650.0 L122.8,651.2 L120.9,652.7 L121.8,654.1 L119.3,654.7 L118.8,655.8 L116.0,655.4 L117.4,656.9 L114.1,656.9 L112.5,658.7 L111.5,657.7 L110.7,660.1 L114.2,659.6 L115.4,660.2 L113.7,662.6 L109.0,660.9 L108.9,658.3 L107.8,656.4 L104.6,653.0 L104.2,651.2 L99.9,651.3 L98.9,653.3 L99.4,655.2 L98.6,657.9 L97.4,658.6 L92.8,654.2 L89.5,655.1 L88.0,653.2 L86.4,653.2 L82.2,650.8 L81.3,652.0 L78.6,651.6 L77.0,650.5 L74.0,644.3 L72.0,641.8 L72.6,637.3 L71.4,634.3 L68.5,631.4 L66.5,628.5 L68.4,627.0 L68.9,624.7 L66.9,622.4 L67.4,619.1 L65.4,616.5 L62.9,616.7 Z">
  <desc xmlns="http://www.highcharts.com/svg/namespace">
    <labelrank>7</labelrank>
    <hasc>NO.TE</hasc>
    <alt-name>Telemark fylke|Bratsberg|Þelamörk</alt-name>
    <woe-id>2346400</woe-id>
    <subregion>NULL</subregion>
    <fips>NO17</fips>
    <postal-code>TE</postal-code>
    <name>Telemark</name>
    <country>Norway</country>
    <type-en>County</type-en>
    <region>NULL</region>
    <longitude>8.48804</longitude>
    <woe-name>Telemark</woe-name>
    <latitude>59.5476</latitude>
    <woe-label>Telemark Fylke, NO, Norway</woe-label>
    <type>Fylke</type>
    <hc-middle-x>0.52</hc-middle-x>
    <hc-middle-y>0.50</hc-middle-y>
    <hc-key>no-te</hc-key>
    <hc-a2>TE</hc-a2>
  </desc>
</path>

<path fill="#CEE3F5" stroke="#6E6E6E" stroke-width="0.4" id="NO.AA" d="M113.7,662.6 L112.5,664.3 L110.0,665.1 L105.6,664.5 L105.1,665.5 L109.1,665.7 L107.5,667.4 L108.7,668.2 L104.2,672.0 L101.9,672.7 L101.7,675.4 L98.5,679.0 L96.6,680.3 L95.3,682.7 L91.8,684.2 L89.6,688.6 L87.6,687.9 L85.7,689.1 L82.1,693.4 L81.1,691.1 L82.2,689.5 L81.9,686.8 L79.4,686.0 L78.9,683.2 L77.4,682.6 L76.1,683.8 L74.0,680.4 L71.7,679.2 L70.5,676.6 L68.3,677.1 L65.6,676.4 L64.9,673.1 L66.8,670.9 L66.2,668.2 L66.4,665.5 L68.2,664.3 L68.9,661.0 L67.1,656.7 L65.6,655.9 L62.5,655.7 L56.5,657.0 L55.4,657.9 L53.2,657.2 L53.5,655.5 L56.0,651.6 L54.9,648.6 L56.1,647.6 L55.8,645.5 L56.7,640.5 L50.9,638.8 L48.0,638.5 L47.9,633.4 L49.5,628.1 L50.5,626.3 L53.5,624.3 L52.9,622.7 L53.3,618.6 L56.8,615.5 L59.9,614.9 L62.9,616.7 L65.4,616.5 L67.4,619.1 L66.9,622.4 L68.9,624.7 L68.4,627.0 L66.5,628.5 L68.5,631.4 L71.4,634.3 L72.6,637.3 L72.0,641.8 L74.0,644.3 L77.0,650.5 L78.6,651.6 L81.3,652.0 L82.2,650.8 L86.4,653.2 L88.0,653.2 L89.5,655.1 L92.8,654.2 L97.4,658.6 L98.6,657.9 L99.4,655.2 L98.9,653.3 L99.9,651.3 L104.2,651.2 L104.6,653.0 L107.8,656.4 L108.9,658.3 L109.0,660.9 Z">
  <desc xmlns="http://www.highcharts.com/svg/namespace">
    <labelrank>7</labelrank>
    <hasc>NO.AA</hasc>
    <alt-name>Aust-Agder fylke|Austur-Agðir|Nedenes</alt-name>
    <woe-id>2346386</woe-id>
    <subregion>NULL</subregion>
    <fips>NO02</fips>
    <postal-code>AA</postal-code>
    <name>Aust-Agder</name>
    <country>Norway</country>
    <type-en>County</type-en>
    <region>NULL</region>
    <longitude>8.14878</longitude>
    <woe-name>Aust-Agder</woe-name>
    <latitude>58.6698</latitude>
    <woe-label>Aust-Agder Fylke, NO, Norway</woe-label>
    <type>Fylke</type>
    <hc-middle-x>0.51</hc-middle-x>
    <hc-middle-y>0.70</hc-middle-y>
    <hc-key>no-aa</hc-key>
    <hc-a2>AA</hc-a2>
  </desc>
</path>
</g>

<text x="350" y="714" text-anchor="middle" font-family="Verdana" font-size="8" stroke-opacity="0.6">Copyright (c) 2020 Highsoft AS, Based on data from Natural Earth</text>

</svg>