<?xml version="1.0" encoding="utf-8" standalone="no"?>
<!DOCTYPE svg PUBLIC "-//W3C//DTD SVG 1.1//EN" "http://www.w3.org/Graphics/SVG/1.1/DTD/svg11.dtd">

<svg version="1.1" height="700pt" width="700pt" xmlns="http://www.w3.org/2000/svg" xmlns:xlink="http://www.w3.org/1999/xlink">
<desc>
Map version: 1.1.3
Copyright (c) 2020 Highsoft AS, Based on data from Kartverket
</desc>
<title>Finnmark (2019)</title>
<g id="admin2">

<g id="NO.TR">
  <desc xmlns="http://www.highcharts.com/svg/namespace">
    <labelrank>7</labelrank>
    <hasc>NO.TR</hasc>
    <alt-name>Troms fylke|Tromsø|Troms-Fylki</alt-name>
    <woe-id>2346401</woe-id>
    <subregion>NULL</subregion>
    <fips>NO18</fips>
    <postal-code>TR</postal-code>
    <name>Troms</name>
    <country>Norway</country>
    <type-en>County</type-en>
    <region>NULL</region>
    <longitude>19.0835</longitude>
    <woe-name>Troms</woe-name>
    <latitude>68.9053</latitude>
    <woe-label>Troms Fylke, NO, Norway</woe-label>
    <type>Fylke</type>
    <hc-key>no-tr</hc-key>
    <hc-a2>TR</hc-a2>
  </desc>
</g>

<g id="NO.FI">
  <desc xmlns="http://www.highcharts.com/svg/namespace">
    <labelrank>7</labelrank>
    <hasc>NO.FI</hasc>
    <alt-name>Finnmark fylke|Finmarken|Finnmárkku|Finnmörk</alt-name>
    <woe-id>2346388</woe-id>
    <subregion>NULL</subregion>
    <fips>NO05</fips>
    <postal-code>FI</postal-code>
    <name>Finnmark</name>
    <country>Norway</country>
    <type-en>County</type-en>
    <region>NULL</region>
    <longitude>24.4789</longitude>
    <woe-name>Finnmark</woe-name>
    <latitude>69.56480000000001</latitude>
    <woe-label>Finnmark Fylke, NO, Norway</woe-label>
    <type>Fylke</type>
    <hc-key>no-fi</hc-key>
    <hc-a2>FI</hc-a2>
  </desc>
</g>

<g id="NO">
  <desc xmlns="http://www.highcharts.com/svg/namespace">
    <name>Norway</name>
    <labelrank>3</labelrank>
    <country-abbrev>Nor.</country-abbrev>
    <subregion>Northern Europe</subregion>
    <region-wb>Europe &amp; Central Asia</region-wb>
    <iso-a3>NOR</iso-a3>
    <iso-a2>NO</iso-a2>
    <woe-id>-90</woe-id>
    <continent>Europe</continent>
    <hc-key>no</hc-key>
    <hc-a2>NO</hc-a2>
  </desc>
</g>

<path fill="#CEE3F5" stroke="#6E6E6E" stroke-width="0.4" id="NO.FI.2002" d="M700.0,158.9 L697.8,159.2 L696.2,156.2 L695.9,151.1 L697.6,155.9 L699.6,156.2 Z M671.7,139.9 L672.6,144.7 L677.9,150.1 L679.4,146.4 L685.3,140.9 L686.9,142.1 L689.1,148.0 L691.6,150.4 L696.2,159.0 L693.5,164.8 L693.9,167.9 L697.4,172.9 L698.3,176.2 L695.8,176.3 L688.5,181.2 L661.4,186.0 L659.1,188.2 L659.4,193.0 L657.7,195.8 L655.6,196.5 L655.6,194.7 L627.3,177.8 L647.0,158.0 Z">
  <desc xmlns="http://www.highcharts.com/svg/namespace">
    <name>Vardø</name>
    <hc-middle-x>0.55</hc-middle-x>
    <hc-middle-y>0.49</hc-middle-y>
    <hc-key>no-fi-2002</hc-key>
    <hc-a2>VA</hc-a2>
  </desc>
</path>

<path fill="#CEE3F5" stroke="#6E6E6E" stroke-width="0.4" id="NO.FI.2019" d="M336.3,26.7 L339.0,27.2 L338.9,31.5 L336.5,32.7 L340.7,35.3 L345.0,34.3 L349.3,28.2 L354.1,24.8 L355.7,24.9 L356.3,28.7 L355.4,32.5 L353.6,34.7 L349.0,36.2 L346.2,40.4 L339.1,39.8 L334.3,43.1 L327.5,42.7 L324.3,39.7 L322.8,39.9 L321.8,44.0 L324.2,46.9 L318.3,46.1 L313.6,48.8 L309.0,48.8 L306.3,43.0 L301.3,37.8 L309.7,33.8 L311.3,30.9 L306.6,29.8 L304.1,28.0 L295.2,32.5 L293.2,29.8 L293.2,24.6 L297.1,20.4 L294.8,18.9 L297.7,16.6 L300.7,16.2 L304.7,19.2 L306.0,17.9 L304.7,14.8 L305.7,12.8 L311.2,15.1 L313.8,18.2 L316.7,17.8 L321.6,21.7 L322.0,19.9 L320.1,15.1 L311.5,5.0 L312.3,2.6 L315.1,4.2 L319.3,0.0 L320.3,4.3 L328.8,2.5 L327.0,11.3 L328.4,14.8 L332.1,11.2 L333.7,11.2 L333.4,14.7 L337.4,12.0 L339.0,12.5 L342.1,8.9 L343.7,10.7 L343.9,16.9 L340.9,21.0 L333.9,24.1 Z M297.7,64.4 L298.0,62.9 L300.3,59.9 L303.0,59.7 L302.4,57.2 L305.7,51.4 L306.2,47.2 L309.2,50.6 L308.4,55.9 L306.0,60.0 L301.1,63.7 L302.3,67.6 L303.9,67.1 L307.3,61.7 L310.0,65.4 L312.6,59.6 L317.7,56.6 L320.7,56.6 L323.4,63.7 L324.9,63.6 L326.5,59.9 L332.8,56.9 L334.7,60.1 L335.6,65.3 L331.7,69.5 L328.6,71.1 L323.5,80.0 L321.6,81.9 L314.8,84.1 L316.6,90.1 L313.9,95.0 L310.5,97.3 L306.0,91.5 L293.0,85.5 L296.6,79.6 L299.5,71.4 Z M342.5,106.0 L345.2,95.5 L349.8,93.4 L351.8,86.1 L353.8,82.8 L358.2,77.9 L362.0,70.4 L366.6,63.1 L383.2,46.3 L386.8,45.3 L381.0,63.4 L370.7,73.5 L360.4,93.3 L356.1,97.1 L356.2,103.0 L347.8,107.4 L344.2,107.0 Z">
  <desc xmlns="http://www.highcharts.com/svg/namespace">
    <name>Nordkapp</name>
    <hc-middle-x>0.30</hc-middle-x>
    <hc-middle-y>0.26</hc-middle-y>
    <hc-key>no-fi-2019</hc-key>
    <hc-a2>NO</hc-a2>
  </desc>
</path>

<path fill="#CEE3F5" stroke="#6E6E6E" stroke-width="0.4" id="NO.FI.2030" d="M639.0,284.7 L635.5,284.9 L637.2,281.2 L639.4,283.6 Z M628.5,264.6 L632.0,265.1 L633.0,269.4 L629.7,270.3 Z M614.5,274.7 L612.6,269.0 L612.9,263.7 L614.7,259.9 L617.1,258.7 L624.0,260.9 L625.8,262.5 L626.5,268.4 L628.7,271.0 L628.3,275.3 L634.0,274.6 L633.3,278.3 L625.4,282.2 L620.5,287.3 L616.1,283.4 L616.2,287.0 L612.8,292.1 L606.7,290.8 L608.1,285.1 Z M576.0,239.1 L577.8,238.8 L581.2,241.2 L602.8,247.7 L601.2,248.5 L595.2,255.1 L585.7,262.8 L583.6,268.2 L580.6,271.7 L585.7,270.9 L588.1,265.5 L591.1,260.8 L594.5,259.9 L597.6,262.3 L599.4,261.0 L602.1,262.0 L605.4,259.3 L607.4,260.5 L606.8,263.3 L607.8,269.2 L610.5,274.9 L609.1,277.0 L608.1,282.5 L602.0,289.2 L598.1,299.8 L592.3,302.9 L594.9,302.9 L591.2,313.0 L594.7,309.9 L596.7,305.6 L604.6,296.8 L607.1,295.5 L614.7,294.5 L620.7,295.9 L627.0,288.9 L629.6,287.1 L632.0,288.2 L628.0,297.8 L623.5,302.2 L630.0,298.3 L633.6,294.7 L636.4,301.4 L641.1,305.4 L641.9,303.3 L635.6,291.0 L641.2,289.3 L642.5,284.7 L638.5,279.2 L638.8,271.8 L638.2,264.9 L643.7,264.6 L647.1,263.0 L649.8,266.9 L646.1,271.7 L648.4,273.1 L653.5,270.8 L655.6,272.6 L657.2,284.7 L658.0,301.1 L656.7,305.8 L653.0,307.3 L654.8,308.6 L660.7,306.0 L660.9,298.3 L660.3,294.4 L661.5,290.3 L660.1,284.3 L659.7,278.3 L661.9,276.5 L677.6,277.6 L679.4,279.8 L678.4,284.7 L679.5,285.6 L683.9,281.0 L686.4,279.9 L692.2,291.3 L692.7,295.3 L691.5,296.4 L695.1,300.4 L697.4,304.5 L696.1,304.6 L696.9,310.4 L698.5,313.3 L698.4,328.4 L693.1,333.6 L689.8,335.7 L678.5,333.9 L667.6,334.6 L659.9,324.6 L651.1,316.9 L645.0,312.1 L639.5,309.0 L634.8,311.6 L635.4,314.8 L638.8,314.5 L641.6,325.3 L643.3,329.7 L642.5,337.4 L638.9,341.7 L639.2,350.9 L636.3,354.7 L634.2,359.6 L631.7,362.7 L627.0,365.1 L625.0,362.5 L620.5,361.6 L616.2,365.4 L615.7,367.1 L611.6,368.9 L609.3,374.5 L600.5,384.6 L597.6,384.8 L596.9,382.7 L588.8,385.0 L587.5,384.0 L579.4,390.5 L578.9,398.0 L581.8,402.3 L580.6,408.9 L580.9,413.3 L576.7,426.3 L577.5,428.6 L571.7,438.5 L570.4,439.4 L563.2,450.6 L561.5,447.6 L548.7,437.2 L544.8,430.1 L546.3,417.3 L546.1,406.3 L573.6,369.0 L581.6,351.7 L568.2,318.5 L565.1,306.8 L549.1,300.1 L532.3,292.0 L511.4,282.5 L505.9,276.2 L516.2,271.7 L526.5,263.5 L534.0,258.0 L546.8,255.6 L560.1,252.3 L577.1,249.4 Z">
  <desc xmlns="http://www.highcharts.com/svg/namespace">
    <name>Sør-Varanger</name>
    <hc-middle-x>0.52</hc-middle-x>
    <hc-middle-y>0.47</hc-middle-y>
    <hc-key>no-fi-2030</hc-key>
    <hc-a2>SV</hc-a2>
  </desc>
</path>

<path fill="#CEE3F5" stroke="#6E6E6E" stroke-width="0.4" id="NO.FI.2018" d="M271.5,24.0 L273.1,27.1 L276.4,26.8 L273.1,34.2 L270.7,33.5 L268.3,28.9 L269.3,24.5 Z M258.6,13.3 L262.5,12.2 L260.7,16.2 L261.6,16.9 L258.1,20.5 L258.9,23.1 L257.4,27.4 L254.1,27.2 L247.0,20.6 L247.5,17.9 L251.2,14.1 L255.2,18.4 L254.1,10.2 L256.3,10.0 Z M210.5,45.7 L209.2,48.8 L206.7,48.8 L204.2,46.8 L203.1,42.7 L197.9,39.6 L200.1,37.9 L204.8,37.7 L207.0,35.7 L204.9,34.2 L200.4,35.1 L198.2,33.8 L197.4,29.8 L201.2,29.6 L199.5,26.7 L202.2,24.5 L210.8,25.8 L209.7,28.5 L212.1,30.5 L217.5,30.2 L219.9,32.0 L217.3,33.5 L211.8,32.2 L209.4,34.4 L209.2,38.7 L218.6,38.2 L220.9,40.7 L218.6,40.6 L217.7,43.5 L215.6,43.3 L214.8,46.2 L212.6,44.7 Z M298.0,62.9 L299.5,55.1 L298.1,52.4 L296.0,44.1 L297.7,39.2 L301.3,41.7 L306.2,47.2 L305.7,51.4 L302.4,57.2 L303.0,59.7 L300.3,59.9 Z M268.7,113.4 L253.9,105.6 L251.9,105.4 L251.5,103.0 L247.3,98.0 L246.0,94.9 L247.1,93.5 L242.5,90.7 L239.6,85.5 L237.7,84.2 L234.1,84.4 L226.2,81.2 L222.4,81.0 L219.3,76.6 L221.0,73.4 L221.5,65.4 L228.2,60.5 L230.4,59.8 L231.1,64.2 L235.0,66.8 L234.7,70.2 L238.5,71.7 L242.1,74.6 L244.9,78.7 L246.2,78.7 L247.3,74.8 L244.2,69.0 L245.3,62.0 L246.4,60.5 L252.0,62.3 L253.1,59.4 L247.3,54.8 L245.3,54.6 L246.8,51.8 L244.5,49.6 L243.3,45.9 L246.0,43.5 L249.0,43.2 L244.4,40.2 L249.9,37.3 L257.2,39.6 L259.3,44.0 L262.8,48.1 L260.0,52.3 L271.3,51.4 L270.2,48.1 L272.3,39.3 L275.0,39.5 L276.9,42.5 L276.1,48.7 L271.4,56.2 L266.3,59.8 L267.4,61.0 L270.1,59.3 L272.3,62.5 L276.5,64.5 L276.7,60.2 L279.9,52.7 L282.2,50.2 L288.0,60.5 L290.1,70.6 L288.4,77.7 L289.9,77.2 L292.0,73.2 L295.2,73.5 L297.7,64.4 L299.5,71.4 L296.6,79.6 L293.0,85.5 L290.4,91.0 Z">
  <desc xmlns="http://www.highcharts.com/svg/namespace">
    <name>Måsøy</name>
    <hc-middle-x>0.63</hc-middle-x>
    <hc-middle-y>0.69</hc-middle-y>
    <hc-key>no-fi-2018</hc-key>
    <hc-a2>MÅ</hc-a2>
  </desc>
</path>

<path fill="#CEE3F5" stroke="#6E6E6E" stroke-width="0.4" id="NO.FI.2014" d="M36.4,173.8 L35.2,174.7 L32.9,169.3 L34.7,158.8 L34.9,152.8 L37.3,147.7 L42.4,154.7 L41.9,161.9 L39.2,169.4 Z M18.8,157.2 L14.6,159.2 L14.9,154.8 L13.8,153.1 L17.2,145.8 L18.1,146.5 Z M91.1,172.8 L90.9,172.8 L90.2,173.6 L87.3,172.3 L83.3,164.8 L83.2,161.8 L84.7,162.3 L86.1,169.4 L90.3,170.9 Z M92.8,207.3 L89.5,202.9 L76.9,197.6 L80.1,187.7 L81.6,180.6 L85.2,178.8 L83.5,183.6 L86.6,187.7 L84.9,189.8 L88.9,194.5 L89.6,197.4 L92.4,198.6 Z M92.8,207.4 L92.8,209.4 L95.6,213.5 L90.7,214.2 L87.8,210.5 L82.1,212.9 L77.5,213.8 L72.3,213.2 L71.0,219.1 L68.6,220.5 L67.0,224.0 L66.4,218.4 L64.1,218.3 L61.4,206.5 L60.5,204.9 L62.4,202.5 L62.3,195.8 L59.9,195.4 L53.7,197.0 L50.9,199.4 L47.4,197.2 L47.1,200.6 L43.8,202.9 L44.0,206.8 L40.4,208.7 L37.8,204.9 L33.3,203.6 L33.4,199.7 L29.4,196.6 L26.1,191.2 L27.8,188.9 L23.6,187.3 L20.4,189.6 L16.0,187.7 L14.2,189.2 L11.8,186.7 L6.9,184.2 L2.0,180.4 L0.0,179.8 L3.3,176.3 L8.4,174.4 L13.5,171.2 L15.9,171.0 L15.7,177.6 L18.3,184.1 L19.1,177.5 L20.6,174.1 L21.4,166.5 L23.4,161.7 L27.0,163.0 L26.8,168.2 L29.6,173.9 L34.6,176.8 L40.0,186.5 L41.0,193.1 L44.4,199.3 L45.1,196.5 L44.4,187.7 L47.0,186.6 L42.5,182.4 L41.5,175.9 L42.9,173.6 L55.5,163.1 L58.6,164.4 L55.3,168.9 L56.4,170.9 L61.2,167.5 L63.5,167.8 L62.7,180.1 L64.9,182.2 L66.1,177.4 L65.7,172.2 L74.8,170.6 L77.4,172.4 L77.8,175.5 L76.5,179.1 L73.0,184.3 L73.9,186.8 L74.5,197.4 L70.1,202.8 L72.7,204.0 L82.2,202.3 L90.3,207.9 Z">
  <desc xmlns="http://www.highcharts.com/svg/namespace">
    <name>Loppa</name>
    <hc-middle-x>0.61</hc-middle-x>
    <hc-middle-y>0.55</hc-middle-y>
    <hc-key>no-fi-2014</hc-key>
    <hc-a2>LO</hc-a2>
  </desc>
</path>

<path fill="#CEE3F5" stroke="#6E6E6E" stroke-width="0.4" id="NO.FI.2020" d="M291.4,182.9 L293.1,186.0 L292.3,188.9 L285.2,193.2 L287.0,186.2 L288.6,183.4 Z M330.2,104.0 L326.8,105.8 L325.3,103.2 L325.6,99.2 L329.9,96.4 L332.4,99.2 Z M268.7,113.4 L290.4,91.0 L293.0,85.5 L306.0,91.5 L310.5,97.3 L306.3,103.4 L301.6,105.3 L300.2,109.3 L294.9,116.6 L290.1,119.5 L286.6,125.2 L276.7,133.7 L274.6,137.8 L286.9,133.0 L289.6,136.7 L286.4,141.6 L273.6,140.6 L276.1,144.5 L286.4,143.4 L289.3,148.1 L286.8,149.8 L286.3,152.6 L287.4,158.7 L286.8,162.7 L282.7,159.6 L279.8,160.9 L274.2,168.0 L278.0,169.4 L275.8,172.9 L276.8,176.7 L281.5,172.4 L282.7,174.0 L282.4,179.2 L271.9,190.0 L266.2,195.0 L264.8,203.0 L265.1,206.0 L263.3,210.0 L262.7,221.6 L264.0,226.2 L266.8,229.8 L269.1,229.8 L269.0,223.9 L267.3,218.3 L269.0,213.3 L273.8,211.1 L272.1,216.8 L275.6,215.7 L276.6,216.9 L273.3,218.9 L272.5,221.1 L274.7,226.2 L276.3,227.0 L283.0,224.3 L284.8,222.5 L289.3,208.0 L291.6,204.1 L294.6,203.0 L298.1,197.5 L299.7,191.8 L304.6,186.0 L306.3,181.8 L304.7,178.9 L298.2,175.9 L299.5,172.3 L315.2,152.0 L330.6,126.4 L334.7,123.9 L339.3,117.7 L340.8,113.6 L342.5,106.0 L344.2,107.0 L347.8,107.4 L350.1,131.0 L346.3,149.6 L339.6,163.0 L339.3,176.6 L338.3,181.1 L339.5,187.0 L343.0,199.7 L339.4,203.7 L336.6,208.3 L337.6,213.0 L332.1,225.8 L331.8,231.4 L334.3,239.8 L334.6,249.2 L331.6,250.7 L326.2,255.4 L320.7,265.0 L300.4,296.9 L282.4,300.2 L270.1,297.7 L261.8,296.4 L234.7,280.1 L208.0,281.6 L202.4,243.1 L199.3,244.2 L187.9,239.0 L192.5,219.9 L192.5,219.9 L208.0,217.3 L223.5,189.1 L232.5,171.2 L242.9,166.2 L250.1,155.3 L246.2,149.6 L247.3,145.5 L256.2,132.9 L261.2,127.7 Z">
  <desc xmlns="http://www.highcharts.com/svg/namespace">
    <name>Porsanger / Porsangu / Porsanki</name>
    <hc-middle-x>0.43</hc-middle-x>
    <hc-middle-y>0.77</hc-middle-y>
    <hc-key>no-fi-2020</hc-key>
    <hc-a2>P/</hc-a2>
  </desc>
</path>

<path fill="#CEE3F5" stroke="#6E6E6E" stroke-width="0.4" id="NO.FI.2015" d="M83.2,161.8 L85.0,158.2 L86.7,157.5 L92.0,165.6 L90.0,159.5 L91.6,153.1 L94.4,157.5 L97.9,154.0 L99.4,157.4 L100.0,154.6 L102.0,153.6 L102.9,156.3 L104.1,151.6 L105.8,151.8 L105.0,155.1 L105.4,160.3 L103.0,163.7 L103.1,168.1 L101.4,173.8 L98.8,172.5 L95.9,175.3 L91.1,172.8 L90.3,170.9 L86.1,169.4 L84.7,162.3 Z M111.6,118.0 L105.4,116.2 L104.0,120.2 L104.0,124.1 L101.1,123.4 L99.1,128.6 L96.0,123.2 L94.2,122.2 L92.1,129.9 L87.6,125.5 L83.4,128.3 L80.2,124.8 L81.8,121.4 L80.1,119.1 L78.7,121.6 L76.3,129.7 L72.1,132.9 L69.8,132.9 L69.0,130.6 L70.9,124.7 L74.4,118.1 L77.6,115.7 L79.1,112.7 L77.3,111.0 L82.8,106.7 L84.6,104.4 L68.2,104.5 L65.8,107.2 L62.0,105.4 L66.8,98.6 L62.4,98.3 L58.6,95.0 L61.3,92.1 L65.3,93.0 L75.3,99.7 L78.8,98.2 L79.6,94.3 L78.4,90.9 L80.9,91.1 L84.5,94.2 L90.5,102.1 L88.8,86.8 L89.7,84.5 L91.7,85.0 L93.7,90.5 L96.6,92.1 L97.8,85.4 L100.6,83.6 L107.8,90.4 L106.9,93.8 L103.4,97.5 L105.6,101.1 L108.7,96.8 L110.9,98.2 L111.0,107.0 L112.3,106.8 L113.9,99.3 L119.4,99.6 L116.9,93.8 L117.7,89.9 L113.9,82.0 L113.7,78.0 L116.5,77.1 L115.5,79.2 L119.8,85.1 L123.1,87.4 L122.3,89.9 L119.9,91.3 L122.7,97.9 L119.7,101.7 L122.8,102.7 L123.9,108.6 L121.8,108.7 L121.0,111.0 L118.2,112.8 L118.4,111.0 Z">
  <desc xmlns="http://www.highcharts.com/svg/namespace">
    <name>Hasvik</name>
    <hc-middle-x>0.64</hc-middle-x>
    <hc-middle-y>0.31</hc-middle-y>
    <hc-key>no-fi-2015</hc-key>
    <hc-a2>HA</hc-a2>
  </desc>
</path>

<path fill="#CEE3F5" stroke="#6E6E6E" stroke-width="0.4" id="NO.FI.2017" d="M171.7,131.0 L175.4,133.5 L173.2,136.2 L175.4,140.5 L173.1,147.2 L169.9,151.7 L161.8,158.9 L157.7,155.0 L153.2,153.3 L147.1,148.2 L154.5,144.3 L157.8,144.0 L159.6,141.9 L166.7,138.6 Z M205.5,104.2 L206.6,107.2 L209.6,110.7 L207.4,117.2 L201.0,121.3 L194.7,130.3 L190.3,132.4 L185.8,131.9 L182.2,129.5 L179.3,120.4 L190.5,117.3 Z M164.5,161.1 L169.4,157.7 L173.3,152.7 L181.4,145.3 L188.2,135.5 L193.8,133.2 L212.4,137.3 L220.0,141.7 L223.5,145.7 L224.0,142.5 L221.3,140.0 L215.8,131.2 L207.8,127.8 L207.8,125.6 L218.9,114.0 L220.1,105.5 L221.6,101.5 L225.8,96.5 L229.7,98.7 L234.5,98.5 L235.8,99.7 L243.5,110.9 L248.5,113.6 L251.0,112.2 L251.9,105.4 L253.9,105.6 L268.7,113.4 L261.2,127.7 L256.2,132.9 L247.3,145.5 L246.2,149.6 L250.1,155.3 L242.9,166.2 L232.5,171.2 L223.5,189.1 L208.0,217.3 L192.5,219.9 L192.5,219.9 L186.4,204.9 L180.1,192.9 L179.1,186.1 L177.9,183.0 L178.5,170.3 L169.5,165.4 Z">
  <desc xmlns="http://www.highcharts.com/svg/namespace">
    <name>Kvalsund</name>
    <hc-middle-x>0.50</hc-middle-x>
    <hc-middle-y>0.54</hc-middle-y>
    <hc-key>no-fi-2017</hc-key>
    <hc-a2>KV</hc-a2>
  </desc>
</path>

<path fill="#CEE3F5" stroke="#6E6E6E" stroke-width="0.4" id="NO.TR.2012" d="M192.5,219.9 L187.9,239.0 L199.3,244.2 L202.4,243.1 L208.0,281.6 L205.6,299.0 L205.2,306.4 L206.2,310.4 L158.0,298.9 L154.0,298.4 L142.1,298.5 L129.8,302.6 L110.8,299.6 L105.9,305.0 L99.8,309.2 L87.1,297.4 L85.1,292.0 L86.8,286.7 L85.7,282.1 L79.9,277.2 L83.0,271.4 L87.7,266.1 L86.8,262.9 L82.9,262.2 L81.0,259.9 L87.1,254.5 L85.2,250.6 L81.1,248.7 L78.5,248.9 L70.2,243.8 L67.6,240.4 L68.2,237.3 L65.4,230.6 L64.6,226.6 L67.0,224.0 L68.6,220.5 L71.0,219.1 L72.3,213.2 L77.5,213.8 L82.1,212.9 L87.8,210.5 L90.7,214.2 L95.6,213.5 L92.8,209.4 L92.8,207.4 L92.9,207.4 L92.8,207.3 L92.4,198.6 L89.6,197.4 L88.9,194.5 L84.9,189.8 L86.6,187.7 L83.5,183.6 L85.2,178.8 L91.5,180.6 L94.2,184.0 L96.6,183.4 L97.4,188.4 L102.6,187.8 L123.0,192.5 L123.0,196.3 L114.3,209.0 L105.1,213.5 L91.7,216.0 L86.4,214.5 L83.4,214.7 L80.0,218.9 L72.0,223.2 L73.3,224.4 L77.3,223.2 L80.1,220.3 L98.4,218.6 L103.4,214.8 L114.5,213.3 L123.0,205.6 L125.9,205.4 L124.3,212.2 L123.5,218.9 L123.8,225.6 L125.2,229.9 L131.3,227.6 L132.2,229.7 L131.1,236.9 L132.9,241.9 L128.7,245.9 L130.8,248.4 L133.3,247.1 L142.7,238.8 L145.0,238.3 L146.5,242.3 L144.1,247.2 L145.5,248.4 L152.4,242.6 L155.8,241.2 L157.3,236.9 L161.5,233.4 L158.0,231.1 L144.3,229.1 L142.7,227.6 L136.3,217.6 L140.1,216.7 L143.7,214.0 L149.6,213.6 L153.1,208.5 L151.6,206.5 L146.1,202.4 L148.2,200.9 L153.7,200.0 L155.2,197.1 L148.5,197.2 L145.2,195.8 L142.8,192.0 L145.2,190.2 L160.3,188.9 L163.6,187.4 L159.4,184.6 L146.6,186.4 L148.2,183.7 L154.6,179.5 L166.9,177.7 L170.1,174.9 L162.8,176.0 L165.5,170.4 L161.0,172.2 L159.6,171.5 L164.5,161.1 L169.5,165.4 L178.5,170.3 L177.9,183.0 L179.1,186.1 L180.1,192.9 L186.4,204.9 L188.6,210.4 L192.5,219.9 L192.5,219.9 Z M91.1,172.8 L95.9,175.3 L98.8,172.5 L101.4,173.8 L103.1,168.1 L103.0,163.7 L105.4,160.3 L105.0,155.1 L105.8,151.8 L106.0,160.7 L107.0,164.2 L109.0,158.4 L108.9,153.7 L110.8,152.2 L112.4,154.2 L113.5,163.5 L115.0,165.4 L123.9,167.8 L121.2,171.9 L125.7,174.7 L127.5,180.7 L126.0,183.9 L107.1,181.0 L90.2,173.6 L90.9,172.8 Z M161.8,158.9 L156.2,164.0 L149.7,165.9 L147.7,167.9 L151.0,168.3 L153.8,171.1 L141.7,177.9 L137.3,178.7 L133.8,177.3 L132.5,173.3 L133.2,167.8 L137.3,156.0 L137.7,149.9 L132.8,161.1 L130.0,164.9 L127.1,161.3 L123.9,160.6 L119.9,153.0 L129.7,153.6 L135.3,143.1 L147.1,148.2 L153.2,153.3 L157.7,155.0 Z">
  <desc xmlns="http://www.highcharts.com/svg/namespace">
    <name>Alta</name>
    <hc-middle-x>0.53</hc-middle-x>
    <hc-middle-y>0.75</hc-middle-y>
    <hc-key>no-tr-2012</hc-key>
    <hc-a2>AL</hc-a2>
  </desc>
</path>

<path fill="#CEE3F5" stroke="#6E6E6E" stroke-width="0.4" id="NO.FI.2004" d="M179.3,120.4 L178.6,113.4 L175.5,113.3 L178.5,108.1 L177.0,103.2 L179.6,99.1 L176.5,95.3 L176.6,91.7 L181.9,82.3 L189.3,82.1 L190.9,83.8 L189.9,86.5 L191.1,88.1 L189.0,90.9 L199.1,91.4 L203.6,95.9 L205.7,101.9 L205.5,104.2 L190.5,117.3 Z M116.5,77.1 L119.6,75.2 L118.5,78.0 L122.4,80.0 L122.4,84.0 L126.0,83.3 L127.7,85.7 L124.8,90.0 L129.5,97.5 L131.1,96.2 L130.3,93.3 L134.5,89.4 L134.2,84.8 L140.7,88.1 L139.3,85.1 L139.7,82.4 L144.0,83.9 L145.3,82.8 L142.2,80.6 L141.8,78.0 L136.8,74.3 L135.5,70.6 L139.8,69.1 L138.3,66.2 L140.1,66.1 L144.6,71.1 L146.5,68.9 L145.0,63.9 L152.0,74.6 L156.0,74.3 L157.0,70.4 L155.9,66.1 L155.9,57.0 L159.0,56.7 L161.4,61.3 L164.5,64.4 L165.0,69.5 L166.9,70.9 L165.2,72.4 L161.9,72.0 L160.1,73.5 L162.5,77.4 L160.6,82.1 L157.0,79.9 L155.3,82.1 L154.4,88.9 L152.9,88.6 L149.5,91.6 L150.8,94.6 L143.1,91.4 L141.1,96.9 L144.2,99.9 L141.0,105.6 L135.3,105.2 L138.9,108.2 L136.8,113.7 L132.1,109.7 L130.3,116.1 L127.0,117.3 L123.9,114.5 L122.1,115.8 L125.7,118.8 L124.0,121.8 L120.9,122.5 L118.5,119.8 L115.0,125.4 L113.4,123.8 L114.6,119.5 L111.6,118.0 L118.4,111.0 L118.2,112.8 L121.0,111.0 L121.8,108.7 L123.9,108.6 L122.8,102.7 L119.7,101.7 L122.7,97.9 L119.9,91.3 L122.3,89.9 L123.1,87.4 L119.8,85.1 L115.5,79.2 Z M119.9,153.0 L117.9,150.0 L119.8,148.8 L123.9,150.6 L125.8,147.7 L122.8,145.5 L121.5,141.2 L126.0,138.5 L126.5,136.1 L128.9,136.3 L130.7,132.1 L138.4,127.6 L139.9,132.4 L145.3,127.4 L142.6,124.1 L143.8,121.4 L146.8,122.9 L148.7,128.3 L147.4,136.6 L149.6,136.1 L152.6,126.3 L151.2,125.4 L151.6,122.2 L153.4,122.0 L156.9,126.2 L159.0,120.3 L165.2,124.1 L167.7,124.3 L164.5,118.7 L161.0,115.4 L162.7,111.1 L158.2,108.4 L164.8,107.4 L167.0,110.5 L169.8,108.9 L169.8,111.5 L172.4,117.4 L170.4,127.3 L171.7,131.0 L166.7,138.6 L159.6,141.9 L157.8,144.0 L154.5,144.3 L147.1,148.2 L135.3,143.1 L129.7,153.6 Z">
  <desc xmlns="http://www.highcharts.com/svg/namespace">
    <name>Hammerfest</name>
    <hc-middle-x>0.37</hc-middle-x>
    <hc-middle-y>0.28</hc-middle-y>
    <hc-key>no-fi-2004</hc-key>
    <hc-a2>HA</hc-a2>
  </desc>
</path>

<path fill="#CEE3F5" stroke="#6E6E6E" stroke-width="0.4" id="NO.FI.2027" d="M505.9,276.2 L506.4,272.6 L506.8,269.5 L508.9,257.8 L505.0,243.5 L503.0,225.9 L504.1,205.5 L507.0,197.9 L519.2,172.7 L531.8,171.7 L537.3,172.9 L542.0,164.6 L545.1,163.5 L549.2,158.0 L551.1,160.5 L557.4,163.6 L564.5,163.6 L566.7,165.7 L569.3,163.9 L570.9,167.8 L571.4,175.9 L569.6,183.2 L569.5,186.3 L567.1,193.5 L565.1,194.4 L565.4,208.6 L567.8,211.8 L567.1,217.0 L527.4,205.7 L524.8,206.9 L523.5,210.2 L534.6,208.6 L533.2,212.5 L530.3,215.7 L524.7,218.8 L526.1,221.5 L528.7,222.9 L533.5,223.1 L536.4,220.3 L541.9,224.1 L535.4,224.1 L533.6,225.8 L547.4,227.9 L552.4,231.5 L562.8,230.8 L561.9,233.7 L566.1,233.6 L566.8,234.9 L562.5,239.4 L564.6,240.9 L576.0,239.1 L577.1,249.4 L560.1,252.3 L546.8,255.6 L534.0,258.0 L526.5,263.5 L516.2,271.7 Z">
  <desc xmlns="http://www.highcharts.com/svg/namespace">
    <name>Unjárga / Nesseby</name>
    <hc-middle-x>0.45</hc-middle-x>
    <hc-middle-y>0.29</hc-middle-y>
    <hc-key>no-fi-2027</hc-key>
    <hc-a2>U/</hc-a2>
  </desc>
</path>

<path fill="#CEE3F5" stroke="#6E6E6E" stroke-width="0.4" id="NO.FI.2025" d="M498.1,94.0 L500.0,97.1 L499.3,107.4 L495.6,115.6 L491.1,121.5 L483.6,128.3 L479.3,134.5 L473.6,137.7 L469.3,143.8 L471.8,155.2 L473.9,145.8 L478.4,140.7 L475.5,146.5 L483.9,141.4 L492.7,139.1 L485.5,144.7 L483.5,148.5 L483.5,152.0 L487.8,147.5 L487.5,151.3 L488.9,152.1 L492.3,144.7 L497.5,137.6 L500.3,135.9 L503.2,135.9 L502.4,140.2 L499.7,144.1 L495.0,156.3 L492.3,161.8 L491.4,167.5 L492.6,174.9 L491.6,185.1 L491.8,192.9 L493.5,206.5 L493.0,216.3 L488.3,226.3 L484.1,230.0 L486.0,231.6 L490.4,227.7 L494.2,220.5 L496.6,212.4 L496.9,208.2 L494.9,199.4 L495.1,193.1 L494.1,185.1 L494.3,181.4 L496.2,172.1 L496.5,160.9 L497.4,157.7 L502.5,152.4 L503.0,145.9 L504.6,143.0 L509.9,140.3 L512.0,141.6 L511.9,145.3 L514.3,150.8 L515.9,148.1 L514.9,142.9 L518.6,137.0 L513.5,136.8 L511.8,135.7 L507.4,129.4 L507.6,127.1 L512.7,112.9 L514.0,104.1 L515.4,101.8 L520.3,106.9 L521.4,112.2 L529.8,120.8 L529.9,126.2 L535.4,137.6 L550.6,136.1 L558.7,142.5 L565.9,142.4 L560.4,145.4 L556.4,150.6 L554.1,157.4 L549.2,158.0 L545.1,163.5 L542.0,164.6 L537.3,172.9 L531.8,171.7 L519.2,172.7 L507.0,197.9 L504.1,205.5 L503.0,225.9 L505.0,243.5 L508.9,257.8 L506.8,269.5 L493.3,261.3 L480.3,242.0 L479.7,233.6 L478.3,225.7 L466.5,229.1 L462.7,231.8 L459.2,229.2 L453.7,229.6 L449.2,233.3 L447.7,240.1 L440.4,241.4 L435.4,247.3 L432.1,247.5 L429.5,249.9 L431.6,254.3 L421.9,259.1 L418.7,260.1 L416.4,263.0 L411.9,264.3 L408.6,259.2 L404.5,258.3 L401.4,259.7 L399.6,258.2 L399.0,253.9 L394.5,254.2 L390.4,256.7 L388.3,256.3 L386.7,253.0 L382.1,254.0 L377.5,256.4 L371.2,257.9 L370.4,262.4 L366.9,266.0 L367.3,270.6 L363.4,277.9 L356.1,283.2 L344.8,283.3 L342.9,276.6 L333.9,278.1 L328.7,273.1 L323.9,273.5 L325.4,267.7 L320.7,265.0 L326.2,255.4 L331.6,250.7 L334.6,249.2 L341.7,248.8 L346.7,250.7 L356.9,245.7 L355.6,228.8 L391.3,215.5 L410.5,212.7 L410.3,200.6 L435.7,184.1 L435.8,176.1 L436.6,167.8 L439.8,161.6 L444.5,158.4 L452.0,143.2 L457.0,136.0 L464.2,130.5 L470.4,127.5 L474.1,127.3 L488.7,111.4 L495.8,105.3 Z">
  <desc xmlns="http://www.highcharts.com/svg/namespace">
    <name>Deatnu / Tana</name>
    <hc-middle-x>0.58</hc-middle-x>
    <hc-middle-y>0.49</hc-middle-y>
    <hc-key>no-fi-2025</hc-key>
    <hc-a2>D/</hc-a2>
  </desc>
</path>

<path fill="#CEE3F5" stroke="#6E6E6E" stroke-width="0.4" id="NO.FI.2011" d="M288.5,477.0 L288.4,477.9 L278.4,484.8 L275.2,490.5 L269.7,495.3 L267.1,504.0 L265.1,520.2 L265.8,528.1 L261.9,532.8 L260.3,531.3 L256.2,534.3 L253.4,533.0 L250.1,535.5 L248.7,546.1 L245.2,544.4 L240.1,528.7 L227.1,518.6 L216.5,514.5 L204.1,510.2 L200.3,508.0 L197.2,504.0 L193.1,502.1 L193.8,494.5 L187.4,496.3 L180.9,486.1 L172.5,483.7 L165.1,487.0 L160.9,501.1 L156.1,510.3 L138.2,512.1 L116.5,524.2 L108.0,510.9 L89.3,510.0 L75.1,500.9 L70.0,496.7 L57.3,501.6 L56.5,478.3 L46.8,458.2 L46.2,450.3 L33.7,424.7 L58.9,425.3 L66.7,421.0 L71.3,419.9 L73.2,416.6 L73.0,413.0 L75.9,409.3 L75.2,405.9 L76.8,400.7 L77.1,393.3 L75.9,388.3 L74.0,387.1 L71.1,378.3 L68.8,373.7 L66.9,366.3 L64.2,365.0 L64.5,359.1 L62.2,352.0 L63.6,347.1 L61.8,343.2 L62.5,340.8 L70.0,340.5 L79.9,335.6 L88.9,335.0 L95.4,337.7 L94.5,330.5 L97.5,329.1 L100.0,322.9 L100.8,317.4 L106.1,314.7 L110.0,309.5 L105.9,305.0 L110.8,299.6 L129.8,302.6 L142.1,298.5 L154.0,298.4 L158.0,298.9 L206.2,310.4 L210.4,318.7 L211.5,324.2 L213.5,322.5 L215.0,325.2 L215.2,330.1 L218.9,332.7 L218.9,336.4 L215.2,345.9 L209.8,354.3 L211.3,361.1 L209.7,361.7 L207.4,367.8 L203.4,368.5 L203.1,373.4 L208.7,378.3 L213.5,402.5 L234.3,422.9 L238.0,447.7 L260.0,464.1 L262.5,470.2 L263.1,475.6 L274.2,477.6 L281.0,478.1 Z">
  <desc xmlns="http://www.highcharts.com/svg/namespace">
    <name>Guovdageaidnu / Kautokeino</name>
    <hc-middle-x>0.41</hc-middle-x>
    <hc-middle-y>0.52</hc-middle-y>
    <hc-key>no-fi-2011</hc-key>
    <hc-a2>G/</hc-a2>
  </desc>
</path>

<path fill="#CEE3F5" stroke="#6E6E6E" stroke-width="0.4" id="NO.FI.2022" d="M347.8,107.4 L356.2,103.0 L356.1,97.1 L360.4,93.3 L370.7,73.5 L381.0,63.4 L386.8,45.3 L387.5,47.8 L390.8,50.8 L391.3,57.1 L389.6,63.0 L386.9,65.1 L387.0,71.2 L388.3,72.3 L391.5,69.5 L392.0,72.7 L388.3,83.3 L388.3,91.0 L384.7,97.2 L363.8,109.3 L366.2,111.4 L374.8,106.7 L377.5,106.5 L383.4,108.7 L385.8,111.1 L381.8,128.2 L382.1,131.2 L378.9,136.8 L378.7,139.6 L380.3,145.4 L377.4,148.6 L375.4,154.8 L376.1,161.4 L374.8,169.3 L378.2,171.3 L380.3,166.9 L384.9,165.8 L383.7,161.3 L385.9,156.0 L390.2,157.2 L394.2,153.5 L396.5,144.8 L405.8,144.2 L406.0,148.5 L413.3,145.6 L411.6,139.9 L407.3,132.6 L410.2,128.3 L407.8,126.9 L409.1,123.2 L413.4,117.5 L415.3,116.9 L417.8,119.7 L421.6,119.7 L426.6,122.7 L428.3,122.7 L426.1,119.2 L418.7,114.1 L416.6,111.0 L417.0,107.9 L420.6,102.5 L415.3,98.1 L417.3,92.6 L419.3,90.1 L429.5,89.5 L431.6,90.4 L433.4,86.4 L430.0,85.2 L429.1,82.9 L431.1,73.8 L433.7,72.3 L453.1,76.4 L442.8,72.2 L446.5,67.9 L444.1,63.6 L442.0,63.7 L440.2,60.6 L436.6,61.5 L436.3,58.3 L437.8,53.6 L434.1,59.3 L432.7,60.0 L422.8,57.7 L418.1,52.1 L418.8,46.2 L421.4,42.6 L433.6,47.8 L432.4,43.9 L425.6,36.3 L424.8,31.7 L426.9,30.1 L442.2,34.2 L443.9,36.9 L444.5,42.1 L447.6,44.9 L449.1,42.0 L448.3,36.7 L449.5,31.9 L446.1,29.5 L445.3,21.6 L446.0,17.4 L448.4,15.1 L453.4,15.4 L453.8,8.8 L456.7,17.4 L452.1,26.4 L453.8,29.9 L455.9,38.2 L456.4,57.6 L458.7,63.9 L460.6,72.0 L459.9,79.4 L457.7,82.7 L447.6,96.0 L437.2,113.5 L434.6,126.6 L434.9,133.5 L436.4,136.5 L438.0,146.4 L438.8,160.0 L439.8,161.6 L436.6,167.8 L435.8,176.1 L435.7,184.1 L410.3,200.6 L410.5,212.7 L391.3,215.5 L355.6,228.8 L356.9,245.7 L346.7,250.7 L341.7,248.8 L334.6,249.2 L334.3,239.8 L331.8,231.4 L332.1,225.8 L337.6,213.0 L336.6,208.3 L339.4,203.7 L343.0,199.7 L339.5,187.0 L338.3,181.1 L339.3,176.6 L339.6,163.0 L346.3,149.6 L350.1,131.0 Z">
  <desc xmlns="http://www.highcharts.com/svg/namespace">
    <name>Lebesby</name>
    <hc-middle-x>0.42</hc-middle-x>
    <hc-middle-y>0.74</hc-middle-y>
    <hc-key>no-fi-2022</hc-key>
    <hc-a2>LE</hc-a2>
  </desc>
</path>

<path fill="#CEE3F5" stroke="#6E6E6E" stroke-width="0.4" id="NO.FI.2024" d="M515.4,101.8 L521.8,102.7 L521.5,99.5 L516.6,95.4 L515.5,92.8 L517.3,86.7 L523.2,78.4 L526.4,69.8 L528.5,65.7 L533.2,60.5 L551.2,57.6 L554.3,60.7 L551.7,62.7 L562.6,63.2 L565.5,66.4 L565.9,71.6 L568.6,74.9 L574.2,75.9 L575.9,77.6 L574.3,80.8 L568.6,86.5 L570.5,88.2 L577.2,87.7 L574.1,90.4 L570.6,90.7 L571.8,93.8 L573.6,93.5 L572.9,96.5 L568.1,99.6 L568.3,103.9 L570.1,105.5 L571.6,103.9 L575.7,95.9 L584.3,93.8 L596.6,85.3 L599.8,85.4 L601.2,87.2 L585.5,108.7 L584.5,115.3 L572.1,128.6 L565.1,138.3 L565.9,142.4 L558.7,142.5 L550.6,136.1 L535.4,137.6 L529.9,126.2 L529.8,120.8 L521.4,112.2 L520.3,106.9 Z">
  <desc xmlns="http://www.highcharts.com/svg/namespace">
    <name>Berlevåg</name>
    <hc-middle-x>0.39</hc-middle-x>
    <hc-middle-y>0.44</hc-middle-y>
    <hc-key>no-fi-2024</hc-key>
    <hc-a2>BE</hc-a2>
  </desc>
</path>

<path fill="#CEE3F5" stroke="#6E6E6E" stroke-width="0.4" id="NO.FI.2021" d="M288.5,477.0 L281.0,478.1 L274.2,477.6 L263.1,475.6 L262.5,470.2 L260.0,464.1 L238.0,447.7 L234.3,422.9 L213.5,402.5 L208.7,378.3 L203.1,373.4 L203.4,368.5 L207.4,367.8 L209.7,361.7 L211.3,361.1 L209.8,354.3 L215.2,345.9 L218.9,336.4 L218.9,332.7 L215.2,330.1 L215.0,325.2 L213.5,322.5 L211.5,324.2 L210.4,318.7 L206.2,310.4 L205.2,306.4 L205.6,299.0 L208.0,281.6 L234.7,280.1 L261.8,296.4 L270.1,297.7 L282.4,300.2 L300.4,296.9 L320.7,265.0 L325.4,267.7 L323.9,273.5 L328.7,273.1 L333.9,278.1 L342.9,276.6 L344.8,283.3 L356.1,283.2 L355.0,288.2 L351.0,291.9 L350.4,295.3 L344.6,301.9 L340.4,303.7 L337.9,303.0 L334.3,306.8 L332.6,311.1 L328.8,315.0 L333.3,319.1 L333.6,324.6 L334.8,326.5 L331.8,334.6 L324.6,340.8 L327.1,343.6 L324.8,351.2 L326.0,355.0 L324.3,355.9 L321.9,364.6 L324.4,371.9 L321.8,375.7 L322.2,378.9 L319.7,379.8 L317.7,383.0 L316.1,389.1 L316.6,394.4 L314.5,400.4 L313.2,400.9 L313.8,410.0 L312.3,411.6 L315.7,424.1 L313.8,431.6 L314.0,437.7 L316.0,442.4 L315.7,447.6 L317.7,450.6 L314.1,455.7 L312.7,461.3 L305.9,476.6 L302.6,478.6 L299.5,477.9 L294.9,473.9 Z">
  <desc xmlns="http://www.highcharts.com/svg/namespace">
    <name>Kárásjohka / Karasjok</name>
    <hc-middle-x>0.38</hc-middle-x>
    <hc-middle-y>0.49</hc-middle-y>
    <hc-key>no-fi-2021</hc-key>
    <hc-a2>K/</hc-a2>
  </desc>
</path>

<path fill="#CEE3F5" stroke="#6E6E6E" stroke-width="0.4" id="NO.FI.2023" d="M453.8,8.8 L458.3,13.5 L459.0,16.4 L457.2,21.6 L458.9,22.9 L463.4,22.8 L469.5,27.3 L475.4,25.4 L477.7,21.3 L480.7,20.2 L483.8,26.3 L487.7,19.4 L490.8,16.8 L493.6,18.5 L495.6,23.1 L495.1,26.5 L492.4,29.0 L490.7,35.6 L494.4,32.5 L492.1,38.4 L494.1,39.6 L501.5,33.8 L511.6,34.5 L515.5,38.5 L514.5,47.1 L511.6,57.6 L508.9,58.9 L503.8,58.4 L504.9,60.8 L509.1,62.5 L505.9,66.7 L502.2,67.0 L503.7,71.3 L494.2,70.0 L499.5,74.1 L497.1,77.8 L494.3,79.8 L488.3,80.2 L483.0,77.3 L479.4,77.9 L478.6,73.8 L475.3,77.6 L466.5,79.1 L464.8,78.0 L462.2,79.1 L463.3,81.2 L467.0,83.4 L463.8,86.7 L463.2,89.2 L469.0,85.0 L471.9,83.9 L478.0,86.1 L479.4,89.1 L484.5,88.4 L488.0,90.4 L484.1,97.3 L474.5,100.9 L470.1,105.0 L470.6,106.4 L464.9,111.6 L456.8,116.1 L455.0,118.1 L465.1,116.4 L489.8,102.5 L496.6,94.3 L498.1,94.0 L495.8,105.3 L488.7,111.4 L474.1,127.3 L470.4,127.5 L464.2,130.5 L457.0,136.0 L452.0,143.2 L444.5,158.4 L439.8,161.6 L438.8,160.0 L438.0,146.4 L436.4,136.5 L434.9,133.5 L434.6,126.6 L437.2,113.5 L447.6,96.0 L457.7,82.7 L459.9,79.4 L460.6,72.0 L458.7,63.9 L456.4,57.6 L455.9,38.2 L453.8,29.9 L452.1,26.4 L456.7,17.4 Z">
  <desc xmlns="http://www.highcharts.com/svg/namespace">
    <name>Gamvik</name>
    <hc-middle-x>0.64</hc-middle-x>
    <hc-middle-y>0.27</hc-middle-y>
    <hc-key>no-fi-2023</hc-key>
    <hc-a2>GA</hc-a2>
  </desc>
</path>

<path fill="#CEE3F5" stroke="#6E6E6E" stroke-width="0.4" id="NO.FI.2028" d="M601.2,87.2 L602.3,88.7 L602.8,96.5 L601.7,101.7 L597.8,107.1 L596.3,111.3 L606.2,108.0 L609.2,101.4 L615.0,92.7 L617.3,90.8 L622.5,90.0 L625.0,90.9 L632.4,96.7 L631.1,100.2 L625.1,104.1 L627.6,105.9 L635.3,106.5 L642.3,112.0 L643.1,114.0 L641.8,116.4 L637.7,119.8 L630.0,122.7 L628.1,124.2 L631.1,128.3 L628.3,128.3 L622.3,126.0 L619.6,127.4 L631.1,129.7 L651.1,120.9 L654.3,121.3 L660.1,124.4 L661.5,126.9 L659.1,129.6 L671.6,139.3 L671.7,139.9 L647.0,158.0 L627.3,177.8 L620.9,174.8 L617.0,174.4 L611.9,172.5 L602.9,172.5 L593.0,170.4 L597.9,165.1 L591.4,163.0 L582.1,152.6 L572.4,148.6 L565.9,142.4 L565.1,138.3 L572.1,128.6 L584.5,115.3 L585.5,108.7 Z">
  <desc xmlns="http://www.highcharts.com/svg/namespace">
    <name>Båtsfjord</name>
    <hc-middle-x>0.47</hc-middle-x>
    <hc-middle-y>0.48</hc-middle-y>
    <hc-key>no-fi-2028</hc-key>
    <hc-a2>BÅ</hc-a2>
  </desc>
</path>

<path fill="#CEE3F5" stroke="#6E6E6E" stroke-width="0.4" id="NO.FI.2003" d="M655.6,196.5 L651.4,197.8 L648.7,202.6 L648.9,205.1 L650.9,206.6 L649.1,211.7 L646.5,214.5 L634.5,220.4 L632.7,223.5 L635.7,224.7 L568.2,217.4 L567.1,217.0 L567.8,211.8 L565.4,208.6 L565.1,194.4 L567.1,193.5 L569.5,186.3 L569.6,183.2 L571.4,175.9 L570.9,167.8 L569.3,163.9 L566.7,165.7 L564.5,163.6 L557.4,163.6 L551.1,160.5 L549.2,158.0 L554.1,157.4 L556.4,150.6 L560.4,145.4 L565.9,142.4 L572.4,148.6 L582.1,152.6 L591.4,163.0 L597.9,165.1 L593.0,170.4 L602.9,172.5 L611.9,172.5 L617.0,174.4 L620.9,174.8 L627.3,177.8 L655.6,194.7 Z">
  <desc xmlns="http://www.highcharts.com/svg/namespace">
    <name>Vadsø</name>
    <hc-middle-x>0.51</hc-middle-x>
    <hc-middle-y>0.68</hc-middle-y>
    <hc-key>no-fi-2003</hc-key>
    <hc-a2>VA</hc-a2>
  </desc>
</path>
</g>

<text x="350" y="714" text-anchor="middle" font-family="Verdana" font-size="8" stroke-opacity="0.6">Copyright (c) 2020 Highsoft AS, Based on data from Kartverket</text>

</svg>