<?xml version="1.0" encoding="utf-8" standalone="no"?>
<!DOCTYPE svg PUBLIC "-//W3C//DTD SVG 1.1//EN" "http://www.w3.org/Graphics/SVG/1.1/DTD/svg11.dtd">

<svg version="1.1" height="700pt" width="700pt" xmlns="http://www.w3.org/2000/svg" xmlns:xlink="http://www.w3.org/1999/xlink">
<desc>
Map version: 2.1.0
Copyright (c) 2023 Highsoft AS, Based on data from Kartverket
</desc>
<title>Nord-Trøndelag (2019)</title>
<g id="admin2">

<g id="NO.NT">
  <desc xmlns="http://www.highcharts.com/svg/namespace">
    <labelrank>7</labelrank>
    <hasc>NO.NT</hasc>
    <alt-name>Nord-Troendelag fylke|Nordre Trondhjem|Norður-Þrændalög</alt-name>
    <woe-id>2346393</woe-id>
    <subregion>NULL</subregion>
    <fips>NO10</fips>
    <postal-code>NT</postal-code>
    <name>Nord-Trøndelag</name>
    <country>Norway</country>
    <type-en>County</type-en>
    <region>NULL</region>
    <longitude>12.2637</longitude>
    <woe-name>Nord-Trøndelag</woe-name>
    <latitude>64.2773</latitude>
    <woe-label>Nord-Trondelag, NO, Norway</woe-label>
    <type>Fylke</type>
    <hc-key>no-nt</hc-key>
    <hc-a2>NT</hc-a2>
  </desc>
</g>

<g id="NO">
  <desc xmlns="http://www.highcharts.com/svg/namespace">
    <name>Norway</name>
    <labelrank>3</labelrank>
    <country-abbrev>Nor.</country-abbrev>
    <subregion>Northern Europe</subregion>
    <region-wb>Europe &amp; Central Asia</region-wb>
    <iso-a3>NOR</iso-a3>
    <iso-a2>NO</iso-a2>
    <woe-id>-90</woe-id>
    <continent>Europe</continent>
    <hc-key>no</hc-key>
    <hc-a2>NO</hc-a2>
  </desc>
</g>

<path fill="#CEE3F5" stroke="#6E6E6E" stroke-width="0.4" id="NO.NT.1749" d="M135.5,208.5 L134.4,209.7 L126.6,208.0 L125.3,202.1 L128.3,199.0 Z M143.3,295.2 L139.5,294.7 L126.0,289.0 L119.5,282.2 L115.6,281.2 L112.7,273.9 L109.1,269.1 L109.9,265.9 L113.7,263.8 L109.5,256.2 L103.3,257.9 L99.4,257.8 L95.9,250.1 L88.2,244.9 L81.7,236.9 L87.1,238.6 L95.0,247.9 L99.5,249.8 L99.0,245.2 L93.7,236.1 L97.2,229.9 L103.2,236.4 L105.9,242.8 L114.4,243.4 L116.1,244.4 L117.7,251.0 L127.9,261.6 L131.0,262.2 L134.3,259.3 L126.2,250.5 L124.5,246.6 L127.6,243.3 L126.5,239.1 L123.3,235.4 L120.0,233.7 L108.5,235.5 L105.0,232.7 L111.1,225.2 L114.8,223.8 L120.5,226.6 L122.3,221.5 L127.1,221.8 L132.1,226.8 L134.2,227.5 L134.0,221.3 L128.9,212.1 L132.8,210.9 L136.3,213.5 L142.4,224.8 L146.5,218.4 L150.9,222.0 L152.7,221.0 L148.3,215.3 L148.8,211.3 L154.3,213.7 L152.4,208.9 L154.2,197.6 L151.9,192.4 L148.5,188.7 L148.6,186.2 L154.1,183.9 L155.3,179.3 L157.6,179.6 L161.1,183.4 L169.5,188.5 L171.0,193.6 L170.1,199.7 L165.7,201.6 L164.9,207.3 L165.4,212.3 L161.7,219.4 L162.2,225.0 L165.7,231.9 L170.1,236.3 L162.8,241.3 L161.6,248.4 L167.6,248.0 L171.0,246.3 L172.6,250.7 L171.5,261.3 L172.3,266.2 L168.9,268.5 L161.1,266.8 L157.6,271.8 L155.0,280.6 Z">
  <desc xmlns="http://www.highcharts.com/svg/namespace">
    <name>Flatanger</name>
    <hc-middle-x>0.73</hc-middle-x>
    <hc-middle-y>0.60</hc-middle-y>
    <hc-key>no-nt-1749</hc-key>
    <hc-a2>FL</hc-a2>
  </desc>
</path>

<path fill="#CEE3F5" stroke="#6E6E6E" stroke-width="0.4" id="NO.NT.1755" d="M291.5,3.9 L289.6,6.7 L280.7,13.6 L275.1,16.9 L279.1,19.6 L278.6,22.2 L273.9,26.5 L271.3,26.1 L271.3,19.1 L264.0,24.8 L257.0,26.6 L251.2,21.8 L253.7,10.9 L261.6,2.5 L274.2,0.0 L278.3,0.3 L283.7,4.7 L289.3,0.4 L291.6,0.9 Z">
  <desc xmlns="http://www.highcharts.com/svg/namespace">
    <name>Leka</name>
    <hc-middle-x>0.50</hc-middle-x>
    <hc-middle-y>0.50</hc-middle-y>
    <hc-key>no-nt-1755</hc-key>
    <hc-a2>LE</hc-a2>
  </desc>
</path>

<path fill="#CEE3F5" stroke="#6E6E6E" stroke-width="0.4" id="NO.NT.1703" d="M187.7,191.7 L196.1,193.9 L191.5,184.2 L174.7,185.8 L168.6,181.2 L168.1,175.9 L169.2,170.3 L173.4,162.9 L176.4,162.9 L184.7,171.0 L197.7,178.9 L203.5,186.1 L205.4,198.2 L209.0,205.3 L226.6,206.4 L230.1,215.6 L228.0,218.4 L223.8,230.5 L220.1,226.6 L208.4,224.1 L206.2,220.7 L204.0,214.7 L198.3,213.6 L187.8,215.8 L180.9,197.9 L183.2,192.5 Z M233.8,190.3 L235.3,201.0 L233.0,202.6 L228.7,202.9 L227.7,205.5 L220.7,201.4 L215.6,196.9 L214.7,193.5 L216.5,188.6 L218.9,186.1 L223.0,186.6 L222.7,189.4 L225.9,190.8 L228.5,194.6 L232.7,194.3 Z M200.7,271.6 L203.5,266.3 L216.2,257.3 L218.2,254.6 L214.0,252.1 L220.2,240.0 L222.3,237.8 L225.9,242.1 L228.9,242.6 L232.8,238.4 L239.7,235.1 L254.2,233.3 L258.8,231.0 L256.7,241.5 L258.3,243.9 L257.0,253.0 L259.5,253.4 L261.3,259.9 L260.7,261.8 L259.1,280.6 L257.9,287.3 L273.6,301.5 L257.8,312.4 L238.6,317.8 L233.5,316.3 L233.3,310.4 L226.5,300.6 L225.4,297.3 L222.7,300.5 L219.0,298.3 L217.1,295.1 L211.8,296.4 L206.5,293.1 L203.5,285.1 L205.5,277.5 L200.1,274.2 Z M210.6,246.9 L207.3,256.3 L205.0,259.1 L197.3,257.4 L194.5,254.1 L196.2,249.7 Z M258.3,230.1 L226.9,233.1 L228.7,229.2 L229.7,222.3 L231.4,217.0 L233.8,214.9 L241.0,215.0 L243.9,214.1 L244.0,211.6 L240.8,209.6 L239.2,204.0 L249.8,201.9 L245.4,206.8 L248.9,208.5 L262.9,197.6 L277.8,192.6 L282.5,188.8 L263.8,188.7 L259.9,192.8 L258.4,189.1 L260.2,181.8 L259.7,177.7 L257.0,176.0 L253.5,177.8 L247.6,184.7 L250.5,187.3 L253.9,187.3 L250.7,195.0 L246.0,197.2 L241.3,195.2 L236.6,186.2 L238.9,182.3 L243.5,178.6 L245.9,173.6 L249.0,171.0 L263.3,170.6 L284.4,174.7 L284.4,176.0 L299.0,175.7 L302.9,193.4 L299.0,200.1 L289.5,203.4 L288.2,205.8 L276.7,207.8 L272.1,207.3 L271.5,203.5 L268.1,208.8 L265.4,209.3 L263.0,215.5 L260.1,215.6 L255.9,218.0 L256.1,220.7 L253.4,221.0 L257.6,223.6 L256.8,227.8 Z">
  <desc xmlns="http://www.highcharts.com/svg/namespace">
    <name>Namsos</name>
    <hc-middle-x>0.52</hc-middle-x>
    <hc-middle-y>0.73</hc-middle-y>
    <hc-key>no-nt-1703</hc-key>
    <hc-a2>NA</hc-a2>
  </desc>
</path>

<path fill="#CEE3F5" stroke="#6E6E6E" stroke-width="0.4" id="NO.NT.1750" d="M125.6,98.8 L123.5,101.4 L121.3,98.2 L123.4,96.8 Z M141.3,86.3 L183.5,55.5 L187.7,55.5 L191.3,59.1 L195.2,60.9 L198.8,66.0 L200.6,71.4 L209.4,75.8 L208.2,78.4 L201.3,87.1 L194.6,92.9 L187.7,96.0 L179.7,96.6 L181.1,91.6 L178.1,89.7 L174.7,91.2 L174.9,88.5 L180.5,82.5 L182.6,77.4 L182.8,73.1 L181.2,74.1 L169.6,73.4 L159.1,81.3 L153.6,87.2 L149.2,89.0 L141.1,89.0 Z M186.4,49.4 L163.9,65.7 L153.5,68.8 L144.0,79.3 L140.0,82.3 L127.5,88.1 L128.9,83.3 L123.7,82.9 L126.9,80.1 L130.7,68.9 L133.4,63.8 L136.3,62.0 L146.7,62.2 L149.8,61.5 L158.2,57.0 L164.5,51.7 L175.4,46.8 L175.9,41.3 L179.9,40.8 L184.8,43.5 L188.0,47.6 Z M149.1,39.5 L154.5,38.0 L156.2,39.2 L155.3,42.6 L159.1,37.3 L160.4,39.8 L165.0,40.4 L160.9,41.8 L163.8,43.4 L162.2,47.0 L157.8,46.3 L151.1,49.5 L149.6,47.1 L151.6,42.7 L147.1,46.4 L148.1,48.8 L142.4,54.5 L140.0,55.0 L141.5,50.3 L138.9,49.5 L139.0,43.0 L137.3,46.2 L129.9,45.9 L135.4,41.2 L134.5,38.2 L139.3,39.2 L142.9,37.6 L142.7,41.2 L145.7,40.6 L148.5,36.3 L150.6,36.9 Z M206.5,90.2 L209.0,86.1 L218.2,78.6 L211.3,84.6 L209.7,89.1 Z">
  <desc xmlns="http://www.highcharts.com/svg/namespace">
    <name>Vikna</name>
    <hc-middle-x>0.71</hc-middle-x>
    <hc-middle-y>0.55</hc-middle-y>
    <hc-key>no-nt-1750</hc-key>
    <hc-a2>VI</hc-a2>
  </desc>
</path>

<path fill="#CEE3F5" stroke="#6E6E6E" stroke-width="0.4" id="NO.NT.1719" d="M177.9,471.6 L174.7,473.0 L167.2,471.6 L151.2,484.8 L148.7,488.9 L143.4,489.7 L143.8,484.5 L147.9,479.3 L149.3,473.4 L153.0,469.7 L155.4,470.5 L177.4,465.0 L180.4,468.7 Z M124.2,512.3 L126.1,509.4 L147.3,498.2 L151.0,499.6 L154.9,504.0 L160.8,504.3 L166.8,502.3 L171.4,499.4 L175.2,494.6 L181.6,483.7 L185.6,480.6 L197.2,477.7 L208.5,477.9 L213.2,480.2 L215.6,485.6 L215.1,494.2 L224.0,494.1 L227.0,499.9 L232.5,499.8 L234.7,513.2 L235.0,525.9 L247.9,541.4 L255.9,549.8 L255.9,549.9 L255.9,549.9 L255.9,549.9 L255.8,549.8 L255.8,549.8 L251.4,551.0 L238.1,547.6 L237.0,550.0 L231.3,551.6 L228.7,549.8 L229.0,547.2 L224.6,546.5 L221.8,549.9 L206.4,555.7 L197.9,551.9 L171.0,552.9 L164.1,554.0 L158.4,553.5 L147.6,554.2 L140.6,552.2 L126.0,554.5 L126.0,553.6 L118.8,552.3 L115.7,550.4 L116.6,547.1 L125.0,544.0 L127.0,539.1 L119.4,539.7 L123.9,535.8 L123.2,531.7 L131.6,526.8 L126.9,518.7 Z">
  <desc xmlns="http://www.highcharts.com/svg/namespace">
    <name>Levanger</name>
    <hc-middle-x>0.50</hc-middle-x>
    <hc-middle-y>0.64</hc-middle-y>
    <hc-key>no-nt-1719</hc-key>
    <hc-a2>LE</hc-a2>
  </desc>
</path>

<path fill="#CEE3F5" stroke="#6E6E6E" stroke-width="0.4" id="NO.NT.1748" d="M217.3,165.5 L215.0,176.6 L210.2,183.8 L205.5,179.2 L200.8,168.9 L196.8,170.8 L189.5,169.0 L189.2,166.3 L191.3,161.8 L189.2,160.9 L192.3,156.0 L210.9,150.5 L212.8,151.4 L212.6,154.6 L216.6,156.0 L218.4,159.9 Z M236.6,186.2 L231.1,175.1 L227.8,171.6 L228.6,166.2 L225.4,161.8 L225.0,153.6 L228.7,153.7 L229.5,150.2 L225.4,146.0 L229.4,143.7 L238.6,142.1 L246.1,134.5 L261.8,142.2 L269.8,143.2 L271.2,139.6 L275.0,137.5 L283.5,130.9 L292.4,130.2 L302.2,128.7 L304.9,125.6 L315.7,123.3 L321.1,117.0 L319.9,114.2 L321.3,111.3 L327.9,108.9 L334.4,109.4 L338.7,105.5 L343.1,108.3 L350.2,116.8 L346.0,119.1 L353.1,124.9 L350.1,129.7 L350.2,134.1 L346.3,141.0 L344.6,146.9 L321.6,161.5 L310.6,168.4 L299.0,175.7 L284.4,176.0 L284.4,174.7 L263.3,170.6 L249.0,171.0 L245.9,173.6 L243.5,178.6 L238.9,182.3 Z M218.9,186.1 L218.4,174.2 L219.3,171.8 L222.7,180.4 L223.3,175.1 L224.7,176.3 L230.5,186.5 L233.8,190.3 L232.7,194.3 L228.5,194.6 L225.9,190.8 L222.7,189.4 L223.0,186.6 Z">
  <desc xmlns="http://www.highcharts.com/svg/namespace">
    <name>Fosnes</name>
    <hc-middle-x>0.69</hc-middle-x>
    <hc-middle-y>0.46</hc-middle-y>
    <hc-key>no-nt-1748</hc-key>
    <hc-a2>FO</hc-a2>
  </desc>
</path>

<path fill="#CEE3F5" stroke="#6E6E6E" stroke-width="0.4" id="NO.NT.1744" d="M258.8,231.0 L261.2,229.8 L258.3,230.1 L256.8,227.8 L257.6,223.6 L253.4,221.0 L256.1,220.7 L255.9,218.0 L260.1,215.6 L263.0,215.5 L265.4,209.3 L268.1,208.8 L271.5,203.5 L272.1,207.3 L276.7,207.8 L288.2,205.8 L289.5,203.4 L299.0,200.1 L302.9,193.4 L299.0,175.7 L310.6,168.4 L321.6,161.5 L325.3,182.0 L327.6,182.7 L331.4,190.6 L329.8,192.8 L331.2,195.9 L331.2,203.7 L333.0,208.7 L335.0,210.2 L336.2,207.7 L340.7,207.0 L342.1,212.1 L346.5,217.5 L350.8,217.0 L342.7,222.0 L338.4,219.1 L337.8,222.5 L334.8,221.9 L335.1,226.0 L332.8,229.9 L327.9,230.9 L325.6,233.9 L326.5,237.7 L331.6,238.0 L333.9,240.0 L334.6,245.7 L330.7,253.9 L333.0,258.3 L337.3,263.3 L338.2,270.9 L331.8,286.7 L326.6,287.7 L316.0,291.6 L311.4,292.4 L304.5,297.1 L301.7,286.0 L288.9,292.4 L273.6,301.5 L257.9,287.3 L259.1,280.6 L260.7,261.8 L261.3,259.9 L259.5,253.4 L257.0,253.0 L258.3,243.9 L256.7,241.5 Z">
  <desc xmlns="http://www.highcharts.com/svg/namespace">
    <name>Overhalla</name>
    <hc-middle-x>0.42</hc-middle-x>
    <hc-middle-y>0.62</hc-middle-y>
    <hc-key>no-nt-1744</hc-key>
    <hc-a2>OV</hc-a2>
  </desc>
</path>

<path fill="#CEE3F5" stroke="#6E6E6E" stroke-width="0.4" id="NO.NT.1718" d="M116.9,494.7 L111.9,495.6 L99.9,505.6 L88.8,506.1 L84.0,509.1 L78.1,522.2 L70.5,527.1 L64.4,528.8 L45.2,541.9 L37.1,543.6 L29.4,547.0 L16.8,546.0 L10.4,552.0 L4.1,554.2 L2.3,552.7 L0.7,546.3 L2.5,541.5 L0.0,538.2 L6.7,530.0 L9.8,523.6 L12.7,521.7 L14.8,514.7 L21.2,508.2 L33.3,502.2 L40.0,498.1 L53.8,484.4 L58.4,480.7 L67.1,475.6 L76.2,471.8 L81.7,468.3 L89.4,467.6 L99.1,473.2 L99.2,476.5 L108.2,475.3 L110.0,479.2 L116.4,483.2 L117.3,489.5 Z">
  <desc xmlns="http://www.highcharts.com/svg/namespace">
    <name>Leksvik</name>
    <hc-middle-x>0.56</hc-middle-x>
    <hc-middle-y>0.41</hc-middle-y>
    <hc-key>no-nt-1718</hc-key>
    <hc-a2>LE</hc-a2>
  </desc>
</path>

<path fill="#CEE3F5" stroke="#6E6E6E" stroke-width="0.4" id="NO.NT.1724" d="M89.4,467.6 L81.7,468.3 L76.2,471.8 L67.1,475.6 L58.4,480.7 L53.8,484.4 L53.3,472.6 L50.4,468.5 L53.8,466.5 L55.8,473.3 L69.1,448.3 L77.4,439.2 L84.7,425.8 L101.3,415.2 L107.2,406.7 L108.9,402.5 L111.7,400.6 L114.2,392.4 L111.2,387.6 L111.9,383.7 L120.4,375.1 L121.9,371.6 L121.6,365.6 L123.7,362.7 L131.7,360.3 L161.6,344.9 L169.2,347.4 L173.8,347.2 L174.3,350.2 L177.4,349.5 L179.6,352.3 L179.8,355.6 L182.4,357.4 L186.4,356.4 L188.2,359.2 L193.6,360.8 L200.4,359.8 L198.0,361.1 L185.5,373.0 L181.1,388.9 L176.2,395.9 L141.3,415.1 L136.8,419.1 L129.2,429.0 L125.6,432.5 L120.1,435.7 L101.0,440.8 L95.8,443.8 L88.3,453.1 L80.0,457.2 L76.2,461.0 L79.4,461.4 L85.6,459.1 L90.8,454.8 L86.4,459.2 Z M204.4,362.9 L203.9,364.5 L201.8,366.7 L198.5,368.2 Z M114.1,444.5 L130.1,433.7 L131.7,433.4 L114.9,444.3 Z">
  <desc xmlns="http://www.highcharts.com/svg/namespace">
    <name>Verran</name>
    <hc-middle-x>0.63</hc-middle-x>
    <hc-middle-y>0.28</hc-middle-y>
    <hc-key>no-nt-1724</hc-key>
    <hc-a2>VE</hc-a2>
  </desc>
</path>

<path fill="#CEE3F5" stroke="#6E6E6E" stroke-width="0.4" id="NO.NT.1702" d="M204.4,362.9 L208.0,358.0 L200.4,359.8 L193.6,360.8 L188.2,359.2 L186.4,356.4 L182.4,357.4 L179.8,355.6 L179.6,352.3 L177.4,349.5 L180.9,348.4 L186.9,348.7 L191.2,344.0 L197.6,343.1 L199.2,341.8 L208.0,340.5 L210.2,338.5 L210.8,332.3 L218.6,327.0 L223.5,325.8 L230.0,321.4 L234.2,321.0 L238.6,317.8 L257.8,312.4 L273.6,301.5 L288.9,292.4 L301.7,286.0 L304.5,297.1 L304.9,314.1 L304.0,322.1 L306.5,326.4 L309.7,326.1 L311.4,331.4 L313.0,346.0 L311.6,350.7 L314.6,349.7 L313.6,355.2 L315.4,362.6 L317.9,367.8 L335.2,371.7 L332.6,376.4 L329.1,386.5 L349.7,399.4 L365.6,423.6 L341.9,425.8 L325.9,433.6 L305.8,437.7 L264.4,438.1 L248.6,444.4 L242.9,444.1 L243.0,446.4 L231.5,451.8 L228.5,451.7 L227.6,448.4 L223.5,446.4 L219.5,446.3 L217.4,449.3 L214.0,444.8 L214.6,439.1 L208.6,440.2 L208.0,441.8 L200.0,441.8 L200.6,431.2 L206.5,420.8 L207.4,413.0 L206.8,409.3 L217.1,407.0 L225.4,398.9 L227.5,393.9 L220.5,394.8 L216.3,390.4 L206.8,390.4 L190.5,386.3 L187.7,380.5 L187.7,377.1 L198.5,368.2 L201.8,366.7 Z">
  <desc xmlns="http://www.highcharts.com/svg/namespace">
    <name>Steinkjer</name>
    <hc-middle-x>0.42</hc-middle-x>
    <hc-middle-y>0.55</hc-middle-y>
    <hc-key>no-nt-1702</hc-key>
    <hc-a2>ST</hc-a2>
  </desc>
</path>

<path fill="#CEE3F5" stroke="#6E6E6E" stroke-width="0.4" id="NO.NT.1725" d="M205.0,259.1 L198.6,267.3 L190.8,282.8 L194.4,281.9 L200.7,271.6 L200.1,274.2 L205.5,277.5 L203.5,285.1 L206.5,293.1 L211.8,296.4 L217.1,295.1 L219.0,298.3 L222.7,300.5 L225.4,297.3 L226.5,300.6 L233.3,310.4 L233.5,316.3 L238.6,317.8 L234.2,321.0 L230.0,321.4 L223.5,325.8 L218.6,327.0 L210.8,332.3 L210.2,338.5 L208.0,340.5 L199.2,341.8 L197.6,343.1 L191.2,344.0 L186.9,348.7 L180.9,348.4 L177.4,349.5 L174.3,350.2 L173.8,347.2 L169.2,347.4 L161.6,344.9 L131.7,360.3 L130.0,354.9 L117.3,353.4 L111.7,330.4 L134.8,321.0 L139.7,313.2 L143.3,295.2 L155.0,280.6 L157.6,271.8 L161.1,266.8 L168.9,268.5 L172.3,266.2 L171.5,261.3 L172.6,250.7 L171.0,246.3 L167.6,248.0 L161.6,248.4 L162.8,241.3 L170.1,236.3 L165.7,231.9 L162.2,225.0 L161.7,219.4 L165.4,212.3 L164.9,207.3 L165.7,201.6 L170.1,199.7 L172.0,209.0 L175.9,210.1 L185.4,222.3 L186.9,226.2 L186.3,230.9 L183.8,237.8 L187.1,239.6 L196.8,236.3 L204.2,237.9 L211.3,244.6 L210.6,246.9 L196.2,249.7 L194.5,254.1 L197.3,257.4 Z">
  <desc xmlns="http://www.highcharts.com/svg/namespace">
    <name>Namdalseid</name>
    <hc-middle-x>0.56</hc-middle-x>
    <hc-middle-y>0.66</hc-middle-y>
    <hc-key>no-nt-1725</hc-key>
    <hc-a2>NA</hc-a2>
  </desc>
</path>

<path fill="#CEE3F5" stroke="#6E6E6E" stroke-width="0.4" id="NO.NT.1721" d="M208.5,477.9 L214.1,478.0 L216.5,476.7 L217.7,472.5 L215.7,466.2 L211.8,464.8 L214.2,460.0 L213.4,458.6 L217.9,454.9 L228.5,451.7 L231.5,451.8 L243.0,446.4 L242.9,444.1 L248.6,444.4 L264.4,438.1 L305.8,437.7 L325.9,433.6 L341.9,425.8 L365.6,423.6 L407.2,419.9 L414.2,419.3 L389.6,458.7 L379.8,474.1 L354.4,510.5 L348.8,525.8 L336.6,540.1 L323.6,552.8 L296.0,549.0 L270.3,536.2 L258.2,548.1 L255.9,549.8 L247.9,541.4 L235.0,525.9 L234.7,513.2 L232.5,499.8 L227.0,499.9 L224.0,494.1 L215.1,494.2 L215.6,485.6 L213.2,480.2 Z">
  <desc xmlns="http://www.highcharts.com/svg/namespace">
    <name>Verdal</name>
    <hc-middle-x>0.43</hc-middle-x>
    <hc-middle-y>0.52</hc-middle-y>
    <hc-key>no-nt-1721</hc-key>
    <hc-a2>VE</hc-a2>
  </desc>
</path>

<path fill="#CEE3F5" stroke="#6E6E6E" stroke-width="0.4" id="NO.NT.1736" d="M365.6,423.6 L349.7,399.4 L329.1,386.5 L332.6,376.4 L335.2,371.7 L317.9,367.8 L315.4,362.6 L313.6,355.2 L314.6,349.7 L311.6,350.7 L313.0,346.0 L311.4,331.4 L309.7,326.1 L306.5,326.4 L304.0,322.1 L304.9,314.1 L304.5,297.1 L311.4,292.4 L316.0,291.6 L326.6,287.7 L331.8,286.7 L342.0,284.2 L350.6,283.3 L360.1,283.9 L362.8,279.4 L364.4,280.3 L370.9,276.7 L377.1,269.2 L378.7,266.0 L384.8,271.1 L399.4,270.4 L405.6,264.3 L421.8,259.6 L480.3,255.6 L488.3,285.1 L502.2,300.0 L506.3,321.7 L501.7,352.4 L498.9,378.3 L453.7,390.4 L414.2,419.3 L407.2,419.9 Z">
  <desc xmlns="http://www.highcharts.com/svg/namespace">
    <name>Snåsa</name>
    <hc-middle-x>0.55</hc-middle-x>
    <hc-middle-y>0.45</hc-middle-y>
    <hc-key>no-nt-1736</hc-key>
    <hc-a2>SN</hc-a2>
  </desc>
</path>

<path fill="#CEE3F5" stroke="#6E6E6E" stroke-width="0.4" id="NO.NT.1740" d="M431.9,66.9 L436.8,70.6 L439.9,71.4 L443.5,67.0 L441.3,58.9 L461.4,60.1 L465.7,56.5 L468.0,51.0 L462.6,44.6 L462.2,40.3 L465.7,36.9 L471.4,39.2 L476.1,26.6 L484.9,24.9 L490.2,12.0 L500.4,10.2 L523.3,15.8 L539.6,17.3 L557.7,11.4 L572.7,15.8 L570.0,21.3 L565.9,22.5 L558.8,29.0 L541.6,37.6 L541.4,44.5 L539.6,48.3 L529.0,79.4 L500.0,129.8 L501.0,142.1 L484.7,139.4 L479.2,140.8 L479.9,142.0 L485.2,172.5 L490.6,180.2 L484.4,230.8 L448.7,174.5 L449.4,169.9 L445.2,169.5 L439.4,165.8 L440.9,161.7 L436.3,161.4 L433.9,159.0 L425.6,163.5 L421.5,159.5 L412.2,153.4 L415.7,147.9 L398.2,148.7 L401.2,128.6 L400.5,120.8 L410.4,111.8 L400.6,101.9 L403.8,98.3 L415.9,97.8 L424.9,93.7 L431.7,92.9 L431.0,81.9 L434.4,74.3 Z">
  <desc xmlns="http://www.highcharts.com/svg/namespace">
    <name>Namsskogan</name>
    <hc-middle-x>0.45</hc-middle-x>
    <hc-middle-y>0.36</hc-middle-y>
    <hc-key>no-nt-1740</hc-key>
    <hc-a2>NA</hc-a2>
  </desc>
</path>

<path fill="#CEE3F5" stroke="#6E6E6E" stroke-width="0.4" id="NO.NT.1743" d="M411.8,53.7 L412.5,62.6 L418.5,71.1 L422.5,68.9 L431.9,66.9 L434.4,74.3 L431.0,81.9 L431.7,92.9 L424.9,93.7 L415.9,97.8 L403.8,98.3 L400.6,101.9 L410.4,111.8 L400.5,120.8 L401.2,128.6 L398.2,148.7 L407.1,152.3 L401.1,157.9 L399.2,163.0 L394.2,166.4 L392.4,172.7 L388.3,176.1 L394.8,180.9 L386.8,187.3 L378.4,195.9 L377.9,198.3 L373.2,198.2 L369.8,201.6 L367.7,206.7 L351.8,212.8 L350.8,217.0 L346.5,217.5 L342.1,212.1 L340.7,207.0 L336.2,207.7 L335.0,210.2 L333.0,208.7 L331.2,203.7 L331.2,195.9 L329.8,192.8 L331.4,190.6 L327.6,182.7 L325.3,182.0 L321.6,161.5 L344.6,146.9 L346.3,141.0 L350.2,134.1 L350.1,129.7 L353.1,124.9 L346.0,119.1 L350.2,116.8 L353.2,113.8 L357.3,114.9 L356.5,110.7 L357.8,104.6 L363.0,103.1 L363.2,96.5 L365.5,89.4 L369.2,83.2 L372.6,72.1 L380.7,76.1 L384.9,82.0 L388.1,79.2 L401.1,70.9 Z">
  <desc xmlns="http://www.highcharts.com/svg/namespace">
    <name>Høylandet</name>
    <hc-middle-x>0.48</hc-middle-x>
    <hc-middle-y>0.42</hc-middle-y>
    <hc-key>no-nt-1743</hc-key>
    <hc-a2>HØ</hc-a2>
  </desc>
</path>

<path fill="#CEE3F5" stroke="#6E6E6E" stroke-width="0.4" id="NO.NT.1739" d="M572.7,15.8 L585.0,13.5 L595.8,14.4 L604.0,11.8 L618.8,11.9 L621.4,9.0 L631.1,8.2 L638.9,11.0 L654.2,5.0 L658.3,8.0 L667.6,8.0 L668.6,10.7 L671.4,10.8 L674.2,14.0 L678.7,12.7 L663.3,37.8 L648.2,62.9 L640.0,77.1 L616.9,118.8 L587.3,126.3 L572.1,131.9 L558.4,137.6 L554.3,138.0 L530.9,151.5 L531.8,162.1 L526.7,167.1 L523.6,172.8 L512.6,200.8 L509.2,202.2 L508.6,204.5 L503.6,211.7 L484.4,230.8 L490.6,180.2 L485.2,172.5 L479.9,142.0 L479.2,140.8 L484.7,139.4 L501.0,142.1 L500.0,129.8 L529.0,79.4 L539.6,48.3 L541.4,44.5 L541.6,37.6 L558.8,29.0 L565.9,22.5 L570.0,21.3 Z">
  <desc xmlns="http://www.highcharts.com/svg/namespace">
    <name>Røyrvik</name>
    <hc-middle-x>0.56</hc-middle-x>
    <hc-middle-y>0.29</hc-middle-y>
    <hc-key>no-nt-1739</hc-key>
    <hc-a2>RØ</hc-a2>
  </desc>
</path>

<path fill="#CEE3F5" stroke="#6E6E6E" stroke-width="0.4" id="NO.NT.1742" d="M480.3,255.6 L421.8,259.6 L405.6,264.3 L399.4,270.4 L384.8,271.1 L378.7,266.0 L377.1,269.2 L370.9,276.7 L364.4,280.3 L362.8,279.4 L360.1,283.9 L350.6,283.3 L342.0,284.2 L331.8,286.7 L338.2,270.9 L337.3,263.3 L333.0,258.3 L330.7,253.9 L334.6,245.7 L333.9,240.0 L331.6,238.0 L326.5,237.7 L325.6,233.9 L327.9,230.9 L332.8,229.9 L335.1,226.0 L334.8,221.9 L337.8,222.5 L338.4,219.1 L342.7,222.0 L350.8,217.0 L351.8,212.8 L367.7,206.7 L369.8,201.6 L373.2,198.2 L377.9,198.3 L378.4,195.9 L386.8,187.3 L394.8,180.9 L388.3,176.1 L392.4,172.7 L394.2,166.4 L399.2,163.0 L401.1,157.9 L407.1,152.3 L398.2,148.7 L415.7,147.9 L412.2,153.4 L421.5,159.5 L425.6,163.5 L433.9,159.0 L436.3,161.4 L440.9,161.7 L439.4,165.8 L445.2,169.5 L449.4,169.9 L448.7,174.5 L484.4,230.8 L483.0,239.1 Z">
  <desc xmlns="http://www.highcharts.com/svg/namespace">
    <name>Grong</name>
    <hc-middle-x>0.46</hc-middle-x>
    <hc-middle-y>0.56</hc-middle-y>
    <hc-key>no-nt-1742</hc-key>
    <hc-a2>GR</hc-a2>
  </desc>
</path>

<path fill="#CEE3F5" stroke="#6E6E6E" stroke-width="0.4" id="NO.NT.1714" d="M206.7,643.7 L179.2,636.4 L164.2,633.4 L156.0,635.7 L140.4,634.6 L132.1,635.7 L127.5,637.8 L110.0,631.4 L108.6,627.3 L111.9,618.5 L112.6,611.3 L111.9,605.4 L112.8,601.6 L111.1,595.2 L115.8,595.0 L121.3,591.6 L122.8,588.0 L108.0,583.6 L101.0,579.0 L98.7,568.0 L102.7,560.5 L111.1,556.9 L125.9,556.3 L126.0,554.5 L140.6,552.2 L147.6,554.2 L158.4,553.5 L164.1,554.0 L171.0,552.9 L197.9,551.9 L206.4,555.7 L221.8,549.9 L224.6,546.5 L229.0,547.2 L228.7,549.8 L231.3,551.6 L237.0,550.0 L238.1,547.6 L251.4,551.0 L255.8,549.8 L255.9,549.8 L255.9,549.9 L248.0,560.1 L241.3,567.5 L235.0,577.8 L221.4,594.1 L217.1,613.2 Z">
  <desc xmlns="http://www.highcharts.com/svg/namespace">
    <name>Stjørdal</name>
    <hc-middle-x>0.47</hc-middle-x>
    <hc-middle-y>0.49</hc-middle-y>
    <hc-key>no-nt-1714</hc-key>
    <hc-a2>ST</hc-a2>
  </desc>
</path>

<path fill="#CEE3F5" stroke="#6E6E6E" stroke-width="0.4" id="NO.NT.1738" d="M480.3,255.6 L483.0,239.1 L484.4,230.8 L503.6,211.7 L508.6,204.5 L509.2,202.2 L512.6,200.8 L523.6,172.8 L526.7,167.1 L531.8,162.1 L530.9,151.5 L554.3,138.0 L558.4,137.6 L572.1,131.9 L587.3,126.3 L616.9,118.8 L580.9,183.9 L572.5,205.2 L608.8,232.3 L638.8,243.2 L643.1,248.9 L647.1,313.2 L648.6,345.4 L625.0,397.3 L617.7,412.4 L578.1,397.9 L550.2,390.4 L525.2,384.7 L498.9,378.3 L501.7,352.4 L506.3,321.7 L502.2,300.0 L488.3,285.1 Z">
  <desc xmlns="http://www.highcharts.com/svg/namespace">
    <name>Lierne</name>
    <hc-middle-x>0.51</hc-middle-x>
    <hc-middle-y>0.58</hc-middle-y>
    <hc-key>no-nt-1738</hc-key>
    <hc-a2>LI</hc-a2>
  </desc>
</path>

<path fill="#CEE3F5" stroke="#6E6E6E" stroke-width="0.4" id="NO.NT.1711" d="M323.6,552.8 L331.9,594.8 L319.1,618.8 L309.1,638.2 L289.9,668.5 L301.2,700.0 L281.6,694.9 L232.5,697.6 L221.0,666.9 L206.7,643.7 L217.1,613.2 L221.4,594.1 L235.0,577.8 L241.3,567.5 L248.0,560.1 L255.9,549.9 L255.9,549.9 L255.9,549.8 L258.2,548.1 L270.3,536.2 L296.0,549.0 Z">
  <desc xmlns="http://www.highcharts.com/svg/namespace">
    <name>Meråker</name>
    <hc-middle-x>0.49</hc-middle-x>
    <hc-middle-y>0.45</hc-middle-y>
    <hc-key>no-nt-1711</hc-key>
    <hc-a2>ME</hc-a2>
  </desc>
</path>

<path fill="#CEE3F5" stroke="#6E6E6E" stroke-width="0.4" id="NO.NT.1717" d="M119.4,539.7 L115.4,539.9 L109.9,542.2 L101.6,547.7 L95.4,548.1 L90.6,553.0 L85.4,555.8 L83.1,553.5 L85.8,552.4 L88.5,545.6 L91.7,543.6 L93.5,538.1 L100.8,529.2 L106.1,526.0 L115.4,523.3 L118.8,520.8 L124.2,512.3 L126.9,518.7 L131.6,526.8 L123.2,531.7 L123.9,535.8 Z">
  <desc xmlns="http://www.highcharts.com/svg/namespace">
    <name>Frosta</name>
    <hc-middle-x>0.59</hc-middle-x>
    <hc-middle-y>0.48</hc-middle-y>
    <hc-key>no-nt-1717</hc-key>
    <hc-a2>FR</hc-a2>
  </desc>
</path>

<path fill="#CEE3F5" stroke="#6E6E6E" stroke-width="0.4" id="NO.NT.1756" d="M90.8,454.8 L97.2,450.3 L108.4,448.3 L114.1,444.5 L114.9,444.3 L131.7,433.4 L135.7,432.8 L145.7,440.9 L150.3,443.2 L154.1,447.3 L156.4,456.6 L149.1,460.6 L142.5,468.1 L139.6,480.2 L127.9,492.7 L116.9,494.7 L117.3,489.5 L116.4,483.2 L110.0,479.2 L108.2,475.3 L99.2,476.5 L99.1,473.2 L89.4,467.6 L86.4,459.2 Z M228.5,451.7 L217.9,454.9 L213.4,458.6 L210.9,454.7 L201.3,454.8 L197.0,452.8 L193.2,449.0 L189.4,447.2 L185.3,447.0 L162.7,452.0 L160.5,448.8 L161.2,437.5 L174.3,431.2 L178.3,427.6 L182.5,418.6 L195.0,412.0 L206.8,409.3 L207.4,413.0 L206.5,420.8 L200.6,431.2 L200.0,441.8 L208.0,441.8 L208.6,440.2 L214.6,439.1 L214.0,444.8 L217.4,449.3 L219.5,446.3 L223.5,446.4 L227.6,448.4 Z">
  <desc xmlns="http://www.highcharts.com/svg/namespace">
    <name>Inderøy</name>
    <hc-middle-x>0.26</hc-middle-x>
    <hc-middle-y>0.58</hc-middle-y>
    <hc-key>no-nt-1756</hc-key>
    <hc-a2>IN</hc-a2>
  </desc>
</path>

<path fill="#CEE3F5" stroke="#6E6E6E" stroke-width="0.4" id="NO.NT.1751" d="M411.8,53.7 L401.1,70.9 L388.1,79.2 L384.9,82.0 L380.7,76.1 L372.6,72.1 L369.2,83.2 L365.5,89.4 L363.2,96.5 L363.0,103.1 L357.8,104.6 L356.5,110.7 L357.3,114.9 L353.2,113.8 L350.2,116.8 L343.1,108.3 L338.7,105.5 L334.4,109.4 L327.9,108.9 L321.3,111.3 L319.9,114.2 L321.1,117.0 L315.7,123.3 L304.9,125.6 L302.2,128.7 L292.4,130.2 L283.5,130.9 L275.0,137.5 L271.2,139.6 L269.8,143.2 L261.8,142.2 L246.1,134.5 L251.4,134.6 L255.6,137.0 L259.9,135.8 L256.8,133.0 L257.1,129.1 L250.8,125.5 L287.6,121.6 L292.8,118.2 L295.7,117.9 L295.8,115.3 L280.0,114.5 L281.1,112.0 L276.7,111.1 L269.9,107.3 L265.7,106.3 L271.1,103.2 L288.0,102.8 L287.1,97.6 L288.4,94.9 L277.7,100.3 L272.2,101.5 L267.0,99.0 L276.4,94.0 L279.4,87.6 L285.8,83.4 L293.3,81.6 L309.5,71.6 L321.0,70.3 L330.5,61.0 L332.5,60.1 L356.8,68.6 L351.2,61.1 L344.9,57.2 L331.2,55.3 L328.1,56.3 L319.9,62.0 L309.1,62.8 L281.6,82.5 L262.6,89.2 L261.1,91.9 L262.8,98.8 L251.0,106.7 L242.8,107.9 L240.1,109.3 L231.4,123.4 L223.6,129.4 L205.2,134.9 L201.8,132.5 L203.9,130.8 L213.2,127.5 L221.3,122.5 L231.4,109.7 L232.8,107.0 L219.8,110.2 L213.4,103.7 L206.0,105.2 L202.6,102.8 L206.1,97.5 L210.7,95.4 L248.2,91.0 L270.4,81.1 L275.6,74.5 L271.9,74.3 L260.6,81.4 L206.5,90.2 L209.7,89.1 L211.3,84.6 L218.2,78.6 L230.6,68.4 L234.0,67.6 L238.1,68.9 L247.1,78.0 L250.3,79.1 L253.5,78.1 L260.1,71.5 L257.6,69.8 L253.0,74.9 L248.8,74.6 L242.5,65.4 L245.4,62.6 L255.5,58.7 L258.5,59.0 L264.6,62.3 L266.9,62.0 L264.1,56.7 L266.3,54.7 L271.2,59.5 L278.6,58.4 L287.4,53.9 L288.9,51.9 L295.7,50.7 L298.1,48.8 L293.6,44.3 L293.3,41.0 L295.5,37.3 L304.8,29.2 L310.2,26.8 L315.9,22.3 L321.4,20.3 L326.3,25.3 L325.6,32.3 L326.3,34.7 L329.8,29.6 L331.3,40.1 L333.7,41.1 L336.4,45.8 L340.9,44.5 L343.5,46.5 L342.0,41.4 L344.3,38.3 L346.6,39.5 L348.2,44.0 L351.4,48.6 L350.7,52.9 L354.3,56.6 L359.2,58.4 L360.8,57.2 L365.0,61.6 L382.7,51.0 L385.6,50.6 L392.2,52.6 L400.6,56.8 L402.6,56.5 L408.9,52.4 Z">
  <desc xmlns="http://www.highcharts.com/svg/namespace">
    <name>Nærøy</name>
    <hc-middle-x>0.56</hc-middle-x>
    <hc-middle-y>0.60</hc-middle-y>
    <hc-key>no-nt-1751</hc-key>
    <hc-a2>NÆ</hc-a2>
  </desc>
</path>
</g>

<text x="350" y="714" text-anchor="middle" font-family="Verdana" font-size="8" stroke-opacity="0.6">Copyright (c) 2023 Highsoft AS, Based on data from Kartverket</text>

</svg>