<?xml version="1.0" encoding="utf-8" standalone="no"?>
<!DOCTYPE svg PUBLIC "-//W3C//DTD SVG 1.1//EN" "http://www.w3.org/Graphics/SVG/1.1/DTD/svg11.dtd">

<svg version="1.1" height="700pt" width="700pt" xmlns="http://www.w3.org/2000/svg" xmlns:xlink="http://www.w3.org/1999/xlink">
<desc>
Map version: 2.1.0
Copyright (c) 2023 Highsoft AS, Based on data from Kartverket
</desc>
<title>Oppland (2019)</title>
<g id="admin2">

<g id="NO.OP">
  <desc xmlns="http://www.highcharts.com/svg/namespace">
    <labelrank>7</labelrank>
    <hasc>NO.OP</hasc>
    <alt-name>Oppland fylke|Kristian|Opland|Upplönd</alt-name>
    <woe-id>2346394</woe-id>
    <subregion>NULL</subregion>
    <fips>NO11</fips>
    <postal-code>OP</postal-code>
    <name>Oppland</name>
    <country>Norway</country>
    <type-en>County</type-en>
    <region>NULL</region>
    <longitude>9.24644</longitude>
    <woe-name>Oppland</woe-name>
    <latitude>61.5731</latitude>
    <woe-label>Oppland Fylke, NO, Norway</woe-label>
    <type>Fylke</type>
    <hc-key>no-op</hc-key>
    <hc-a2>OP</hc-a2>
  </desc>
</g>

<g id="NO">
  <desc xmlns="http://www.highcharts.com/svg/namespace">
    <name>Norway</name>
    <labelrank>3</labelrank>
    <country-abbrev>Nor.</country-abbrev>
    <subregion>Northern Europe</subregion>
    <region-wb>Europe &amp; Central Asia</region-wb>
    <iso-a3>NOR</iso-a3>
    <iso-a2>NO</iso-a2>
    <woe-id>-90</woe-id>
    <continent>Europe</continent>
    <hc-key>no</hc-key>
    <hc-a2>NO</hc-a2>
  </desc>
</g>

<path fill="#CEE3F5" stroke="#6E6E6E" stroke-width="0.4" id="NO.OP.522" d="M339.4,382.1 L328.0,369.8 L317.8,357.8 L314.1,356.1 L298.9,346.4 L289.1,340.0 L296.0,338.3 L301.5,333.6 L315.8,318.7 L322.5,307.4 L324.8,301.8 L327.0,299.5 L334.1,301.3 L349.7,306.2 L357.8,303.9 L365.0,300.2 L371.7,300.5 L376.6,304.5 L384.7,308.6 L386.3,310.6 L390.5,312.0 L402.4,305.1 L420.9,313.7 L421.0,316.5 L424.9,323.0 L425.4,326.6 L423.7,329.5 L426.7,334.2 L425.0,334.1 L429.9,341.7 L435.8,347.0 L442.1,346.9 L443.5,349.6 L449.4,350.5 L450.1,351.9 L446.1,362.6 L443.2,364.9 L440.8,364.1 L440.5,366.8 L436.0,368.8 L433.7,367.3 L428.5,370.6 L425.5,370.6 L425.0,373.8 L426.6,374.9 L425.3,379.8 L427.3,380.9 L429.7,385.2 L429.5,387.8 L423.2,395.3 L418.5,396.5 L415.1,394.4 L413.5,391.8 L406.1,391.4 L402.0,393.5 L395.2,396.0 L390.4,392.3 L390.9,386.9 L388.7,384.6 L367.7,379.5 L369.0,384.6 L363.8,385.9 L351.3,380.9 Z">
  <desc xmlns="http://www.highcharts.com/svg/namespace">
    <name>Gausdal</name>
    <hc-middle-x>0.54</hc-middle-x>
    <hc-middle-y>0.50</hc-middle-y>
    <hc-key>no-op-522</hc-key>
    <hc-a2>GA</hc-a2>
  </desc>
</path>

<path fill="#CEE3F5" stroke="#6E6E6E" stroke-width="0.4" id="NO.OP.542" d="M314.1,356.1 L317.8,357.8 L328.0,369.8 L339.4,382.1 L345.4,385.2 L348.3,391.1 L344.8,392.0 L346.2,393.7 L342.6,399.2 L334.8,393.9 L331.0,394.9 L319.1,401.9 L315.7,401.9 L308.0,408.7 L306.5,411.8 L301.5,413.0 L301.6,414.8 L305.4,414.1 L313.0,420.4 L315.1,425.7 L317.3,426.4 L323.7,432.3 L325.9,438.7 L321.5,438.8 L319.4,445.9 L324.4,448.6 L321.8,451.7 L325.5,455.0 L326.2,457.7 L324.7,462.6 L328.8,471.5 L328.7,474.4 L320.9,477.9 L316.5,470.1 L315.3,469.3 L310.5,472.9 L305.4,472.2 L302.9,475.6 L303.0,480.8 L299.5,481.5 L294.6,486.4 L287.6,496.2 L283.2,504.4 L276.9,503.5 L273.4,497.3 L266.2,492.2 L262.1,490.1 L257.3,489.2 L234.2,475.3 L231.4,474.5 L230.2,470.5 L228.2,468.4 L226.9,464.1 L228.1,461.1 L236.6,448.4 L239.9,439.2 L248.5,428.1 L255.3,425.6 L257.8,426.1 L264.3,424.7 L270.9,421.5 L269.6,415.7 L276.4,414.1 L282.4,409.7 L289.4,407.2 L291.3,407.5 L300.5,401.9 L307.3,391.7 L307.5,376.4 L312.3,366.8 Z">
  <desc xmlns="http://www.highcharts.com/svg/namespace">
    <name>Nord-Aurdal</name>
    <hc-middle-x>0.43</hc-middle-x>
    <hc-middle-y>0.66</hc-middle-y>
    <hc-key>no-op-542</hc-key>
    <hc-a2>NA</hc-a2>
  </desc>
</path>

<path fill="#CEE3F5" stroke="#6E6E6E" stroke-width="0.4" id="NO.OP.513" d="M80.7,217.7 L81.5,204.4 L71.8,197.5 L58.6,193.6 L48.4,197.2 L40.2,197.4 L23.0,201.4 L23.4,191.1 L20.0,185.4 L10.4,164.3 L8.9,160.3 L9.4,149.7 L6.0,136.6 L7.9,122.6 L5.4,114.7 L0.7,113.1 L1.4,106.3 L0.0,104.3 L9.0,96.6 L11.2,89.0 L11.0,86.9 L16.3,88.3 L21.5,87.9 L25.7,85.5 L31.3,94.4 L35.7,95.8 L37.0,93.0 L42.9,89.8 L39.8,84.2 L35.4,78.1 L46.7,72.4 L58.6,58.9 L72.2,57.6 L77.4,63.6 L95.0,61.8 L108.7,102.5 L116.3,109.5 L128.6,117.1 L154.1,117.9 L165.8,113.9 L183.6,115.9 L160.5,138.0 L173.6,151.1 L170.3,158.9 L167.7,160.2 L165.1,164.5 L150.1,174.7 L140.2,175.4 L135.4,177.9 L129.6,185.3 L123.9,187.3 L114.2,198.5 L96.9,201.4 Z">
  <desc xmlns="http://www.highcharts.com/svg/namespace">
    <name>Skjåk</name>
    <hc-middle-x>0.46</hc-middle-x>
    <hc-middle-y>0.50</hc-middle-y>
    <hc-key>no-op-513</hc-key>
    <hc-a2>SK</hc-a2>
  </desc>
</path>

<path fill="#CEE3F5" stroke="#6E6E6E" stroke-width="0.4" id="NO.OP.519" d="M393.8,153.6 L393.4,145.6 L397.5,146.2 L399.0,144.5 L404.4,146.7 L405.8,149.4 L410.0,153.3 L415.9,154.0 L410.6,169.0 L400.0,195.0 L396.4,204.2 L390.8,205.0 L386.6,211.5 L388.8,215.5 L386.1,220.3 L388.8,226.9 L388.8,234.9 L391.2,239.1 L397.4,243.9 L400.5,249.0 L400.2,251.6 L402.5,256.5 L400.3,261.8 L401.6,262.1 L401.2,267.4 L399.5,272.5 L398.0,272.5 L396.7,280.4 L394.2,289.0 L391.7,303.7 L387.6,305.1 L384.7,308.6 L376.6,304.5 L371.7,300.5 L365.0,300.2 L357.8,303.9 L349.7,306.2 L334.1,301.3 L327.0,299.5 L324.8,301.8 L322.5,307.4 L315.8,318.7 L301.5,333.6 L296.0,338.3 L289.1,340.0 L288.2,333.5 L272.5,320.6 L272.5,317.1 L279.7,322.2 L283.4,322.3 L289.8,320.8 L292.2,322.0 L297.2,312.1 L302.4,310.9 L299.6,305.6 L297.0,295.1 L294.6,293.4 L302.6,290.5 L307.4,285.7 L303.9,284.1 L302.3,281.1 L304.8,280.7 L310.0,277.0 L326.9,284.6 L342.1,284.1 L348.4,278.5 L351.9,271.7 L354.9,268.8 L356.7,264.4 L364.5,251.0 L365.1,248.1 L371.4,243.0 L374.8,237.3 L375.9,231.2 L380.5,213.7 L380.3,204.3 L382.2,193.3 L384.3,190.3 L388.7,179.3 L394.1,173.9 L393.7,166.4 L390.7,159.3 L393.5,155.8 Z">
  <desc xmlns="http://www.highcharts.com/svg/namespace">
    <name>Sør-Fron</name>
    <hc-middle-x>0.73</hc-middle-x>
    <hc-middle-y>0.64</hc-middle-y>
    <hc-key>no-op-519</hc-key>
    <hc-a2>SF</hc-a2>
  </desc>
</path>

<path fill="#CEE3F5" stroke="#6E6E6E" stroke-width="0.4" id="NO.OP.517" d="M369.0,147.9 L379.6,148.3 L393.8,153.6 L393.5,155.8 L390.7,159.3 L386.3,165.0 L380.7,169.8 L371.2,171.0 L367.0,170.2 L361.6,170.6 L357.0,173.2 L354.3,172.8 L347.0,189.8 L334.4,207.1 L331.1,212.6 L330.4,216.4 L326.2,221.5 L323.3,222.4 L319.7,226.7 L315.2,229.4 L313.7,228.5 L308.9,231.6 L303.5,228.2 L287.7,248.1 L275.3,256.2 L260.9,246.3 L261.6,231.0 L262.5,229.5 L264.1,217.0 L260.4,206.8 L261.0,197.1 L262.0,195.1 L268.8,190.6 L274.3,188.7 L273.7,183.1 L276.8,181.7 L280.5,182.5 L282.4,184.8 L292.9,188.9 L297.0,182.8 L298.1,184.5 L301.4,182.5 L307.6,176.1 L301.8,171.4 L290.9,168.4 L287.0,166.4 L288.8,160.6 L288.5,157.6 L290.4,153.2 L298.3,154.0 L301.4,150.6 L304.6,149.7 L328.9,131.5 L335.9,134.3 L339.0,138.5 L342.1,145.2 L352.9,146.3 L362.5,145.3 Z">
  <desc xmlns="http://www.highcharts.com/svg/namespace">
    <name>Sel</name>
    <hc-middle-x>0.46</hc-middle-x>
    <hc-middle-y>0.45</hc-middle-y>
    <hc-key>no-op-517</hc-key>
    <hc-a2>SE</hc-a2>
  </desc>
</path>

<path fill="#CEE3F5" stroke="#6E6E6E" stroke-width="0.4" id="NO.OP.543" d="M269.6,415.7 L270.9,421.5 L264.3,424.7 L257.8,426.1 L255.3,425.6 L248.5,428.1 L239.9,439.2 L236.6,448.4 L228.1,461.1 L226.9,464.1 L215.5,462.8 L203.0,456.8 L197.0,454.9 L191.0,451.6 L191.5,450.6 L195.2,443.1 L204.0,430.2 L203.1,429.4 L204.7,422.3 L201.8,418.3 L195.1,414.2 L199.9,405.6 L200.6,406.2 L206.7,398.3 L213.2,388.7 L218.9,388.8 L222.6,390.4 L223.5,380.9 L227.0,366.0 L232.0,369.0 L229.7,375.6 L232.1,381.4 L234.7,382.8 L241.8,382.9 L245.7,384.0 L247.0,386.5 L245.6,396.9 L250.0,401.8 L254.1,403.4 L251.8,404.1 L253.9,407.7 L257.4,410.3 L262.7,410.5 Z">
  <desc xmlns="http://www.highcharts.com/svg/namespace">
    <name>Vestre Slidre</name>
    <hc-middle-x>0.45</hc-middle-x>
    <hc-middle-y>0.47</hc-middle-y>
    <hc-key>no-op-543</hc-key>
    <hc-a2>VS</hc-a2>
  </desc>
</path>

<path fill="#CEE3F5" stroke="#6E6E6E" stroke-width="0.4" id="NO.OP.515" d="M290.4,153.2 L288.5,157.6 L288.8,160.6 L287.0,166.4 L290.9,168.4 L301.8,171.4 L307.6,176.1 L301.4,182.5 L298.1,184.5 L297.0,182.8 L292.9,188.9 L282.4,184.8 L280.5,182.5 L276.8,181.7 L273.7,183.1 L274.3,188.7 L268.8,190.6 L262.0,195.1 L261.0,197.1 L260.4,206.8 L264.1,217.0 L262.5,229.5 L261.6,231.0 L260.9,246.3 L275.3,256.2 L276.7,257.1 L269.4,261.4 L258.6,272.8 L255.4,273.2 L247.9,268.0 L243.8,268.5 L239.8,270.8 L235.5,270.4 L228.7,279.4 L229.1,289.4 L232.0,285.6 L237.2,283.8 L241.3,287.0 L247.9,288.2 L252.8,287.7 L259.1,283.8 L264.3,284.1 L265.5,285.7 L265.7,292.7 L262.4,300.3 L259.7,304.6 L254.3,310.6 L246.2,304.4 L217.6,292.5 L211.0,290.5 L210.6,294.1 L207.6,296.4 L201.9,306.8 L190.7,309.0 L186.8,308.6 L180.6,309.7 L176.8,307.4 L170.4,305.3 L170.6,300.7 L167.0,290.4 L171.4,287.5 L188.8,278.7 L189.0,277.7 L177.5,261.2 L174.0,252.3 L174.1,248.5 L187.0,247.3 L197.6,243.7 L198.6,241.9 L207.9,242.7 L215.9,232.2 L219.7,230.8 L223.1,227.1 L223.8,220.8 L222.8,216.1 L224.9,208.5 L233.3,201.6 L236.4,201.0 L238.9,198.5 L242.6,200.3 L240.6,190.9 L237.1,187.2 L238.6,181.7 L235.1,179.2 L235.0,176.6 L228.2,175.3 L224.4,173.3 L224.7,165.5 L223.2,152.9 L227.4,139.4 L228.4,131.0 L224.8,128.5 L224.9,115.7 L230.0,116.5 L238.6,114.6 L240.1,112.7 L246.0,113.0 L248.6,117.7 L259.5,131.3 L268.2,135.5 L269.1,140.1 L273.2,141.8 L275.8,146.5 L280.0,148.3 L283.2,148.0 Z">
  <desc xmlns="http://www.highcharts.com/svg/namespace">
    <name>Vågå</name>
    <hc-middle-x>0.41</hc-middle-x>
    <hc-middle-y>0.70</hc-middle-y>
    <hc-key>no-op-515</hc-key>
    <hc-a2>VÅ</hc-a2>
  </desc>
</path>

<path fill="#CEE3F5" stroke="#6E6E6E" stroke-width="0.4" id="NO.OP.544" d="M201.9,306.8 L207.6,296.4 L210.6,294.1 L211.0,290.5 L217.6,292.5 L246.2,304.4 L254.3,310.6 L265.2,316.7 L264.5,318.9 L269.8,324.1 L272.9,324.6 L272.5,320.6 L288.2,333.5 L289.1,340.0 L298.9,346.4 L314.1,356.1 L312.3,366.8 L307.5,376.4 L307.3,391.7 L300.5,401.9 L291.3,407.5 L289.4,407.2 L282.4,409.7 L276.4,414.1 L269.6,415.7 L262.7,410.5 L257.4,410.3 L253.9,407.7 L251.8,404.1 L254.1,403.4 L250.0,401.8 L245.6,396.9 L247.0,386.5 L245.7,384.0 L241.8,382.9 L234.7,382.8 L232.1,381.4 L229.7,375.6 L232.0,369.0 L227.0,366.0 L221.5,358.0 L217.2,358.8 L213.4,352.2 L208.5,352.8 L207.5,349.0 L204.6,345.9 L213.5,339.5 L217.4,341.1 L217.6,325.9 L213.2,323.0 L209.3,314.1 L204.7,310.5 Z">
  <desc xmlns="http://www.highcharts.com/svg/namespace">
    <name>Øystre Slidre</name>
    <hc-middle-x>0.49</hc-middle-x>
    <hc-middle-y>0.47</hc-middle-y>
    <hc-key>no-op-544</hc-key>
    <hc-a2>ØS</hc-a2>
  </desc>
</path>

<path fill="#CEE3F5" stroke="#6E6E6E" stroke-width="0.4" id="NO.OP.511" d="M274.7,11.0 L296.3,18.9 L314.7,27.0 L318.9,31.2 L331.6,38.1 L348.5,29.4 L359.3,27.7 L356.4,30.7 L352.9,32.3 L348.9,37.1 L343.2,49.8 L337.9,56.4 L333.3,55.8 L329.2,60.4 L332.5,65.7 L339.1,74.4 L356.0,79.3 L370.9,88.0 L375.4,94.1 L377.6,96.0 L379.9,103.0 L372.6,105.0 L367.2,113.6 L369.0,123.7 L372.1,133.5 L369.0,147.9 L362.5,145.3 L352.9,146.3 L342.1,145.2 L339.0,138.5 L335.9,134.3 L328.9,131.5 L304.6,149.7 L301.4,150.6 L298.3,154.0 L290.4,153.2 L283.2,148.0 L280.0,148.3 L275.8,146.5 L273.2,141.8 L269.1,140.1 L268.2,135.5 L259.5,131.3 L248.6,117.7 L246.0,113.0 L245.3,103.8 L251.7,102.8 L253.2,101.4 L254.3,95.6 L259.0,90.6 L259.6,85.7 L255.4,83.7 L257.6,78.9 L266.4,74.3 L276.6,62.2 L285.8,57.0 L288.4,44.7 L290.4,39.1 L288.6,35.0 L283.7,27.0 L276.1,18.1 Z">
  <desc xmlns="http://www.highcharts.com/svg/namespace">
    <name>Dovre</name>
    <hc-middle-x>0.50</hc-middle-x>
    <hc-middle-y>0.66</hc-middle-y>
    <hc-key>no-op-511</hc-key>
    <hc-a2>DO</hc-a2>
  </desc>
</path>

<path fill="#CEE3F5" stroke="#6E6E6E" stroke-width="0.4" id="NO.OP.516" d="M272.5,320.6 L272.9,324.6 L269.8,324.1 L264.5,318.9 L265.2,316.7 L254.3,310.6 L259.7,304.6 L262.4,300.3 L265.7,292.7 L265.5,285.7 L264.3,284.1 L259.1,283.8 L252.8,287.7 L247.9,288.2 L241.3,287.0 L237.2,283.8 L232.0,285.6 L229.1,289.4 L228.7,279.4 L235.5,270.4 L239.8,270.8 L243.8,268.5 L247.9,268.0 L255.4,273.2 L258.6,272.8 L269.4,261.4 L276.7,257.1 L275.3,256.2 L287.7,248.1 L303.5,228.2 L308.9,231.6 L313.7,228.5 L315.2,229.4 L319.7,226.7 L323.3,222.4 L326.2,221.5 L330.4,216.4 L331.1,212.6 L334.4,207.1 L347.0,189.8 L354.3,172.8 L357.0,173.2 L361.6,170.6 L367.0,170.2 L371.2,171.0 L380.7,169.8 L386.3,165.0 L390.7,159.3 L393.7,166.4 L394.1,173.9 L388.7,179.3 L384.3,190.3 L382.2,193.3 L380.3,204.3 L380.5,213.7 L375.9,231.2 L374.8,237.3 L371.4,243.0 L365.1,248.1 L364.5,251.0 L356.7,264.4 L354.9,268.8 L351.9,271.7 L348.4,278.5 L342.1,284.1 L326.9,284.6 L310.0,277.0 L304.8,280.7 L302.3,281.1 L303.9,284.1 L307.4,285.7 L302.6,290.5 L294.6,293.4 L297.0,295.1 L299.6,305.6 L302.4,310.9 L297.2,312.1 L292.2,322.0 L289.8,320.8 L283.4,322.3 L279.7,322.2 L272.5,317.1 Z">
  <desc xmlns="http://www.highcharts.com/svg/namespace">
    <name>Nord-Fron</name>
    <hc-middle-x>0.55</hc-middle-x>
    <hc-middle-y>0.58</hc-middle-y>
    <hc-key>no-op-516</hc-key>
    <hc-a2>NF</hc-a2>
  </desc>
</path>

<path fill="#CEE3F5" stroke="#6E6E6E" stroke-width="0.4" id="NO.OP.541" d="M328.7,474.4 L328.8,471.5 L324.7,462.6 L326.2,457.7 L325.5,455.0 L321.8,451.7 L324.4,448.6 L319.4,445.9 L321.5,438.8 L325.9,438.7 L323.7,432.3 L317.3,426.4 L315.1,425.7 L313.0,420.4 L305.4,414.1 L301.6,414.8 L301.5,413.0 L306.5,411.8 L308.0,408.7 L315.7,401.9 L319.1,401.9 L331.0,394.9 L334.8,393.9 L342.6,399.2 L346.2,393.7 L344.8,392.0 L348.3,391.1 L353.3,408.1 L359.2,405.2 L363.5,406.9 L359.9,417.4 L357.3,418.3 L361.4,431.0 L361.4,437.0 L364.4,446.6 L364.9,456.9 L364.3,462.6 L365.8,467.1 L364.4,474.7 L361.6,483.6 L366.8,485.1 L368.5,493.8 L364.1,491.0 L364.1,487.5 L358.1,487.0 L358.2,488.8 L353.7,490.4 L348.0,484.5 L343.5,483.9 L328.6,477.9 Z">
  <desc xmlns="http://www.highcharts.com/svg/namespace">
    <name>Etnedal</name>
    <hc-middle-x>0.60</hc-middle-x>
    <hc-middle-y>0.48</hc-middle-y>
    <hc-key>no-op-541</hc-key>
    <hc-a2>ET</hc-a2>
  </desc>
</path>

<path fill="#CEE3F5" stroke="#6E6E6E" stroke-width="0.4" id="NO.OP.545" d="M170.4,305.3 L176.8,307.4 L180.6,309.7 L186.8,308.6 L190.7,309.0 L201.9,306.8 L204.7,310.5 L209.3,314.1 L213.2,323.0 L217.6,325.9 L217.4,341.1 L213.5,339.5 L204.6,345.9 L207.5,349.0 L208.5,352.8 L213.4,352.2 L217.2,358.8 L221.5,358.0 L227.0,366.0 L223.5,380.9 L222.6,390.4 L218.9,388.8 L213.2,388.7 L206.7,398.3 L200.6,406.2 L199.9,405.6 L195.1,414.2 L201.8,418.3 L204.7,422.3 L203.1,429.4 L204.0,430.2 L195.2,443.1 L191.5,450.6 L186.1,446.6 L187.8,443.6 L186.9,440.5 L180.0,433.4 L178.2,433.2 L174.3,428.4 L169.7,427.5 L169.2,425.7 L164.8,424.6 L159.0,424.8 L156.3,422.2 L147.6,416.1 L139.0,402.4 L130.2,407.9 L124.5,402.2 L114.0,396.5 L105.0,380.0 L104.0,374.4 L99.8,376.1 L99.2,374.1 L101.8,370.2 L100.4,364.4 L100.8,361.7 L94.0,358.6 L93.8,357.0 L100.5,357.8 L103.1,352.9 L113.5,346.6 L114.2,343.4 L120.0,335.4 L125.0,335.6 L130.0,330.3 L131.1,324.9 L127.1,323.7 L125.4,319.7 L120.5,319.2 L117.2,314.6 L117.8,309.6 L116.3,297.2 L122.6,293.6 L126.0,296.3 L135.0,296.1 L139.2,291.6 L150.9,301.0 L155.2,300.4 L163.6,306.8 Z">
  <desc xmlns="http://www.highcharts.com/svg/namespace">
    <name>Vang</name>
    <hc-middle-x>0.58</hc-middle-x>
    <hc-middle-y>0.46</hc-middle-y>
    <hc-key>no-op-545</hc-key>
    <hc-a2>VA</hc-a2>
  </desc>
</path>

<path fill="#CEE3F5" stroke="#6E6E6E" stroke-width="0.4" id="NO.OP.520" d="M421.0,316.5 L420.9,313.7 L402.4,305.1 L390.5,312.0 L386.3,310.6 L384.7,308.6 L387.6,305.1 L391.7,303.7 L394.2,289.0 L396.7,280.4 L398.0,272.5 L399.5,272.5 L401.2,267.4 L401.6,262.1 L400.3,261.8 L402.5,256.5 L400.2,251.6 L400.5,249.0 L397.4,243.9 L391.2,239.1 L388.8,234.9 L388.8,226.9 L386.1,220.3 L388.8,215.5 L386.6,211.5 L390.8,205.0 L396.4,204.2 L400.0,195.0 L421.0,204.7 L435.6,206.4 L452.8,220.2 L459.9,209.1 L463.8,207.1 L465.0,203.7 L478.0,195.9 L487.5,207.0 L490.6,240.7 L493.4,253.6 L498.9,271.4 L495.5,280.8 L478.0,296.7 L473.4,300.4 L468.1,300.3 L464.3,301.4 L459.7,304.5 L446.3,306.3 L440.4,308.4 L438.3,311.3 L434.7,312.5 L430.9,310.2 L426.3,316.1 Z">
  <desc xmlns="http://www.highcharts.com/svg/namespace">
    <name>Ringebu</name>
    <hc-middle-x>0.44</hc-middle-x>
    <hc-middle-y>0.54</hc-middle-y>
    <hc-key>no-op-520</hc-key>
    <hc-a2>RI</hc-a2>
  </desc>
</path>

<path fill="#CEE3F5" stroke="#6E6E6E" stroke-width="0.4" id="NO.OP.532" d="M487.2,690.1 L484.8,690.4 L481.7,688.2 L477.0,688.1 L474.0,684.7 L470.1,682.2 L464.9,677.3 L457.8,672.5 L455.2,674.8 L451.0,671.2 L447.6,666.0 L449.0,660.4 L442.6,650.9 L437.4,641.0 L435.9,636.1 L429.6,625.5 L428.7,617.8 L430.0,620.3 L439.1,619.7 L451.4,628.1 L453.6,626.0 L459.0,625.1 L458.7,631.2 L455.9,642.1 L459.1,643.4 L463.4,642.9 L464.6,644.6 L470.1,643.1 L471.9,646.7 L470.0,648.6 L472.2,651.8 L475.2,652.8 L474.5,650.4 L478.6,651.1 L478.6,652.9 L481.9,653.9 L483.6,660.4 L481.1,661.0 L483.4,666.5 L484.4,674.9 L489.0,679.8 L489.6,685.2 Z">
  <desc xmlns="http://www.highcharts.com/svg/namespace">
    <name>Jevnaker</name>
    <hc-middle-x>0.63</hc-middle-x>
    <hc-middle-y>0.63</hc-middle-y>
    <hc-key>no-op-532</hc-key>
    <hc-a2>JE</hc-a2>
  </desc>
</path>

<path fill="#CEE3F5" stroke="#6E6E6E" stroke-width="0.4" id="NO.OP.529" d="M508.1,577.3 L507.8,578.7 L508.0,579.8 L501.6,581.6 L503.1,584.0 L498.3,584.9 L498.2,582.6 L494.5,579.3 L490.0,579.1 L492.7,575.3 L488.6,573.1 L485.9,567.8 L483.5,568.7 L482.8,565.5 L476.3,565.3 L478.1,558.3 L480.1,557.1 L482.3,545.9 L480.9,545.0 L481.3,539.3 L474.7,539.7 L472.9,538.7 L473.0,525.2 L475.8,520.6 L476.8,516.0 L480.5,515.2 L481.9,510.9 L484.9,508.7 L487.8,511.0 L491.1,510.3 L492.3,506.0 L504.5,504.9 L505.0,506.2 L509.5,512.8 L512.7,516.2 L514.0,519.5 L512.7,525.2 L514.1,527.7 L509.5,529.4 L510.3,532.3 L506.8,535.4 L503.4,535.8 L505.1,539.9 L501.2,545.8 L502.4,546.4 L501.1,554.7 L503.5,559.7 L502.8,561.7 L504.5,566.0 L507.0,568.0 L506.9,576.1 Z">
  <desc xmlns="http://www.highcharts.com/svg/namespace">
    <name>Vestre Toten</name>
    <hc-middle-x>0.50</hc-middle-x>
    <hc-middle-y>0.34</hc-middle-y>
    <hc-key>no-op-529</hc-key>
    <hc-a2>VT</hc-a2>
  </desc>
</path>

<path fill="#CEE3F5" stroke="#6E6E6E" stroke-width="0.4" id="NO.OP.502" d="M505.0,506.2 L504.5,504.9 L492.3,506.0 L491.1,510.3 L487.8,511.0 L484.9,508.7 L481.9,510.9 L480.5,515.2 L476.8,516.0 L475.8,520.6 L453.2,497.4 L453.4,492.8 L451.9,489.6 L455.0,482.6 L455.1,477.7 L451.9,477.0 L450.5,474.7 L446.9,474.0 L438.1,467.8 L435.1,470.1 L430.3,466.0 L430.2,459.3 L421.7,449.5 L421.6,448.1 L428.4,431.1 L428.4,426.7 L431.1,422.7 L441.0,418.2 L452.0,421.8 L455.1,423.7 L458.2,421.0 L462.0,421.9 L466.4,419.4 L469.2,423.4 L474.6,427.6 L482.3,430.5 L487.3,433.8 L493.0,439.0 L495.7,443.6 L499.0,453.0 L500.9,460.0 L504.0,463.1 L506.7,469.0 L506.1,473.6 L502.8,481.8 L503.0,484.3 L509.4,496.9 L510.9,498.6 L507.2,503.7 L507.5,505.9 Z">
  <desc xmlns="http://www.highcharts.com/svg/namespace">
    <name>Gjøvik</name>
    <hc-middle-x>0.58</hc-middle-x>
    <hc-middle-y>0.50</hc-middle-y>
    <hc-key>no-op-502</hc-key>
    <hc-a2>GJ</hc-a2>
  </desc>
</path>

<path fill="#CEE3F5" stroke="#6E6E6E" stroke-width="0.4" id="NO.OP.538" d="M348.3,391.1 L345.4,385.2 L339.4,382.1 L351.3,380.9 L363.8,385.9 L369.0,384.6 L367.7,379.5 L388.7,384.6 L390.9,386.9 L390.4,392.3 L395.2,396.0 L402.0,393.5 L401.2,401.5 L407.4,405.2 L413.9,406.8 L418.8,411.1 L421.4,415.3 L425.2,415.7 L431.1,422.7 L428.4,426.7 L428.4,431.1 L421.6,448.1 L421.7,449.5 L430.2,459.3 L430.3,466.0 L435.1,470.1 L432.6,474.2 L433.9,477.2 L433.2,483.9 L430.7,488.1 L423.1,488.3 L419.7,485.8 L415.1,488.8 L416.0,492.8 L420.0,495.0 L421.7,493.7 L429.2,494.8 L427.6,496.8 L423.8,497.7 L418.0,500.6 L413.7,500.7 L411.1,502.1 L410.7,508.4 L406.9,511.8 L405.4,510.0 L401.4,514.6 L396.6,511.6 L393.6,513.0 L384.7,505.8 L380.6,509.9 L376.1,516.6 L371.7,514.9 L367.2,508.6 L368.5,493.8 L366.8,485.1 L361.6,483.6 L364.4,474.7 L365.8,467.1 L364.3,462.6 L364.9,456.9 L364.4,446.6 L361.4,437.0 L361.4,431.0 L357.3,418.3 L359.9,417.4 L363.5,406.9 L359.2,405.2 L353.3,408.1 Z">
  <desc xmlns="http://www.highcharts.com/svg/namespace">
    <name>Nordre Land</name>
    <hc-middle-x>0.59</hc-middle-x>
    <hc-middle-y>0.51</hc-middle-y>
    <hc-key>no-op-538</hc-key>
    <hc-a2>NL</hc-a2>
  </desc>
</path>

<path fill="#CEE3F5" stroke="#6E6E6E" stroke-width="0.4" id="NO.OP.501" d="M431.1,422.7 L425.2,415.7 L421.4,415.3 L418.8,411.1 L413.9,406.8 L407.4,405.2 L401.2,401.5 L402.0,393.5 L406.1,391.4 L413.5,391.8 L415.1,394.4 L418.5,396.5 L423.2,395.3 L429.5,387.8 L429.7,385.2 L427.3,380.9 L425.3,379.8 L426.6,374.9 L425.0,373.8 L425.5,370.6 L428.5,370.6 L433.7,367.3 L436.0,368.8 L440.5,366.8 L440.8,364.1 L443.2,364.9 L446.1,362.6 L450.1,351.9 L456.0,356.5 L460.5,355.7 L461.5,360.9 L456.5,368.8 L458.2,372.1 L461.8,371.1 L477.7,364.9 L506.9,354.2 L504.0,364.9 L501.3,367.0 L494.4,377.6 L490.9,387.5 L485.0,397.9 L482.1,402.0 L478.3,403.0 L477.8,404.8 L472.9,408.8 L466.1,410.0 L462.7,409.8 L466.4,419.4 L462.0,421.9 L458.2,421.0 L455.1,423.7 L452.0,421.8 L441.0,418.2 Z">
  <desc xmlns="http://www.highcharts.com/svg/namespace">
    <name>Lillehammer</name>
    <hc-middle-x>0.50</hc-middle-x>
    <hc-middle-y>0.56</hc-middle-y>
    <hc-key>no-op-501</hc-key>
    <hc-a2>LI</hc-a2>
  </desc>
</path>

<path fill="#CEE3F5" stroke="#6E6E6E" stroke-width="0.4" id="NO.OP.528" d="M508.1,577.3 L506.9,576.1 L507.0,568.0 L504.5,566.0 L502.8,561.7 L503.5,559.7 L501.1,554.7 L502.4,546.4 L501.2,545.8 L505.1,539.9 L503.4,535.8 L506.8,535.4 L510.3,532.3 L509.5,529.4 L514.1,527.7 L512.7,525.2 L514.0,519.5 L512.7,516.2 L509.5,512.8 L505.0,506.2 L507.5,505.9 L507.2,503.7 L510.9,498.6 L516.2,501.9 L526.0,504.3 L529.5,506.0 L535.9,512.5 L565.4,533.6 L571.2,541.5 L575.3,549.9 L572.0,552.8 L568.5,561.2 L566.7,577.9 L562.8,577.4 L551.6,583.6 L549.8,583.5 L544.1,587.8 L545.0,590.5 L540.9,593.1 L539.8,591.9 L527.2,591.0 L522.1,588.3 L515.6,586.5 Z">
  <desc xmlns="http://www.highcharts.com/svg/namespace">
    <name>Østre Toten</name>
    <hc-middle-x>0.52</hc-middle-x>
    <hc-middle-y>0.56</hc-middle-y>
    <hc-key>no-op-528</hc-key>
    <hc-a2>ØT</hc-a2>
  </desc>
</path>

<path fill="#CEE3F5" stroke="#6E6E6E" stroke-width="0.4" id="NO.OP.521" d="M506.9,354.2 L477.7,364.9 L461.8,371.1 L458.2,372.1 L456.5,368.8 L461.5,360.9 L460.5,355.7 L456.0,356.5 L450.1,351.9 L449.4,350.5 L443.5,349.6 L442.1,346.9 L435.8,347.0 L429.9,341.7 L425.0,334.1 L426.7,334.2 L423.7,329.5 L425.4,326.6 L424.9,323.0 L421.0,316.5 L426.3,316.1 L430.9,310.2 L434.7,312.5 L438.3,311.3 L440.4,308.4 L446.3,306.3 L459.7,304.5 L464.3,301.4 L468.1,300.3 L473.4,300.4 L478.0,296.7 L495.5,280.8 L506.9,301.4 L522.5,344.5 Z">
  <desc xmlns="http://www.highcharts.com/svg/namespace">
    <name>Øyer</name>
    <hc-middle-x>0.55</hc-middle-x>
    <hc-middle-y>0.53</hc-middle-y>
    <hc-key>no-op-521</hc-key>
    <hc-a2>ØY</hc-a2>
  </desc>
</path>

<path fill="#CEE3F5" stroke="#6E6E6E" stroke-width="0.4" id="NO.OP.534" d="M470.1,643.1 L464.6,644.6 L463.4,642.9 L459.1,643.4 L455.9,642.1 L458.7,631.2 L459.0,625.1 L453.6,626.0 L451.4,628.1 L439.1,619.7 L430.0,620.3 L428.7,617.8 L426.7,607.3 L425.1,595.6 L425.5,593.6 L421.9,578.9 L417.3,575.7 L420.9,571.5 L434.0,576.6 L447.4,577.9 L450.3,576.3 L453.8,572.5 L457.9,570.1 L461.5,569.5 L476.3,565.3 L482.8,565.5 L483.5,568.7 L485.9,567.8 L488.6,573.1 L492.7,575.3 L490.0,579.1 L494.5,579.3 L498.2,582.6 L498.3,584.9 L503.1,584.0 L501.6,581.6 L508.0,579.8 L508.0,585.7 L505.2,587.4 L508.2,599.2 L505.1,601.4 L502.5,605.7 L504.9,606.6 L509.9,605.3 L517.3,607.7 L523.7,608.2 L525.3,607.1 L538.6,616.5 L538.6,622.2 L543.8,631.9 L536.1,640.8 L533.3,642.4 L517.6,642.8 L510.7,638.2 L509.7,635.2 L508.2,638.2 L498.9,640.5 L497.3,639.7 L492.9,644.1 L492.3,640.9 L489.9,642.3 L489.1,640.3 L485.9,641.6 L484.0,639.4 L472.1,641.3 Z">
  <desc xmlns="http://www.highcharts.com/svg/namespace">
    <name>Gran</name>
    <hc-middle-x>0.43</hc-middle-x>
    <hc-middle-y>0.53</hc-middle-y>
    <hc-key>no-op-534</hc-key>
    <hc-a2>GR</hc-a2>
  </desc>
</path>

<path fill="#CEE3F5" stroke="#6E6E6E" stroke-width="0.4" id="NO.OP.533" d="M470.1,643.1 L472.1,641.3 L484.0,639.4 L485.9,641.6 L489.1,640.3 L489.9,642.3 L492.3,640.9 L492.9,644.1 L497.3,639.7 L498.9,640.5 L508.2,638.2 L509.7,635.2 L510.7,638.2 L517.6,642.8 L533.3,642.4 L525.7,658.4 L523.2,666.5 L519.8,673.8 L521.2,686.0 L519.5,690.7 L519.8,693.9 L512.6,693.4 L505.5,695.3 L506.1,699.7 L501.0,700.0 L493.0,699.1 L493.0,696.3 L489.1,694.1 L487.2,690.1 L489.6,685.2 L489.0,679.8 L484.4,674.9 L483.4,666.5 L481.1,661.0 L483.6,660.4 L481.9,653.9 L478.6,652.9 L478.6,651.1 L474.5,650.4 L475.2,652.8 L472.2,651.8 L470.0,648.6 L471.9,646.7 Z">
  <desc xmlns="http://www.highcharts.com/svg/namespace">
    <name>Lunner</name>
    <hc-middle-x>0.56</hc-middle-x>
    <hc-middle-y>0.50</hc-middle-y>
    <hc-key>no-op-533</hc-key>
    <hc-a2>LU</hc-a2>
  </desc>
</path>

<path fill="#CEE3F5" stroke="#6E6E6E" stroke-width="0.4" id="NO.OP.512" d="M95.0,61.8 L109.5,38.6 L111.5,36.6 L117.2,26.6 L122.7,22.2 L128.1,14.0 L138.2,9.0 L154.9,4.2 L165.7,4.4 L189.3,1.3 L213.6,0.0 L227.7,0.9 L232.0,7.9 L239.5,7.7 L246.7,6.1 L252.8,1.9 L257.9,4.8 L274.7,11.0 L276.1,18.1 L283.7,27.0 L288.6,35.0 L290.4,39.1 L288.4,44.7 L285.8,57.0 L276.6,62.2 L266.4,74.3 L257.6,78.9 L255.4,83.7 L259.6,85.7 L259.0,90.6 L254.3,95.6 L253.2,101.4 L251.7,102.8 L245.3,103.8 L246.0,113.0 L240.1,112.7 L238.6,114.6 L230.0,116.5 L224.9,115.7 L223.4,114.7 L215.7,114.1 L210.7,109.4 L208.8,108.8 L204.7,111.8 L196.4,115.5 L183.6,115.9 L165.8,113.9 L154.1,117.9 L128.6,117.1 L116.3,109.5 L108.7,102.5 Z">
  <desc xmlns="http://www.highcharts.com/svg/namespace">
    <name>Lesja</name>
    <hc-middle-x>0.50</hc-middle-x>
    <hc-middle-y>0.50</hc-middle-y>
    <hc-key>no-op-512</hc-key>
    <hc-a2>LE</hc-a2>
  </desc>
</path>

<path fill="#CEE3F5" stroke="#6E6E6E" stroke-width="0.4" id="NO.OP.540" d="M403.0,545.7 L391.8,544.0 L382.6,545.3 L385.3,549.7 L390.3,552.5 L389.0,555.0 L379.4,561.1 L375.3,566.2 L373.6,560.3 L368.7,569.9 L369.8,579.3 L369.4,586.2 L371.2,589.3 L372.2,601.1 L367.6,601.8 L348.6,593.2 L338.0,587.4 L339.5,585.4 L337.4,575.7 L333.0,577.1 L324.4,577.8 L321.1,579.3 L317.6,578.6 L312.9,574.3 L308.1,573.1 L306.9,566.6 L307.0,562.1 L310.7,556.9 L308.6,552.7 L302.4,550.6 L299.2,544.6 L300.0,541.8 L297.9,535.8 L292.8,531.2 L292.6,525.8 L294.2,522.9 L294.7,516.2 L290.4,511.4 L288.4,506.2 L283.2,504.4 L287.6,496.2 L294.6,486.4 L299.5,481.5 L303.0,480.8 L302.9,475.6 L305.4,472.2 L310.5,472.9 L315.3,469.3 L316.5,470.1 L320.9,477.9 L328.7,474.4 L328.6,477.9 L343.5,483.9 L348.0,484.5 L353.7,490.4 L358.2,488.8 L358.1,487.0 L364.1,487.5 L364.1,491.0 L368.5,493.8 L367.2,508.6 L371.7,514.9 L376.1,516.6 L380.6,509.9 L384.7,505.8 L393.6,513.0 L397.0,521.2 L402.4,539.0 Z">
  <desc xmlns="http://www.highcharts.com/svg/namespace">
    <name>Sør-Aurdal</name>
    <hc-middle-x>0.44</hc-middle-x>
    <hc-middle-y>0.44</hc-middle-y>
    <hc-key>no-op-540</hc-key>
    <hc-a2>SA</hc-a2>
  </desc>
</path>

<path fill="#CEE3F5" stroke="#6E6E6E" stroke-width="0.4" id="NO.OP.514" d="M183.6,115.9 L196.4,115.5 L204.7,111.8 L208.8,108.8 L210.7,109.4 L215.7,114.1 L223.4,114.7 L224.9,115.7 L224.8,128.5 L228.4,131.0 L227.4,139.4 L223.2,152.9 L224.7,165.5 L224.4,173.3 L228.2,175.3 L235.0,176.6 L235.1,179.2 L238.6,181.7 L237.1,187.2 L240.6,190.9 L242.6,200.3 L238.9,198.5 L236.4,201.0 L233.3,201.6 L224.9,208.5 L222.8,216.1 L223.8,220.8 L223.1,227.1 L219.7,230.8 L215.9,232.2 L207.9,242.7 L198.6,241.9 L197.6,243.7 L187.0,247.3 L174.1,248.5 L174.0,252.3 L177.5,261.2 L189.0,277.7 L188.8,278.7 L171.4,287.5 L167.0,290.4 L170.6,300.7 L170.4,305.3 L163.6,306.8 L155.2,300.4 L150.9,301.0 L139.2,291.6 L142.2,288.4 L139.5,281.2 L137.1,277.8 L133.5,263.9 L123.6,259.4 L111.8,267.1 L96.7,261.4 L86.5,256.1 L86.0,248.0 L84.6,241.8 L79.3,228.8 L80.7,217.7 L96.9,201.4 L114.2,198.5 L123.9,187.3 L129.6,185.3 L135.4,177.9 L140.2,175.4 L150.1,174.7 L165.1,164.5 L167.7,160.2 L170.3,158.9 L173.6,151.1 L160.5,138.0 Z">
  <desc xmlns="http://www.highcharts.com/svg/namespace">
    <name>Lom</name>
    <hc-middle-x>0.53</hc-middle-x>
    <hc-middle-y>0.51</hc-middle-y>
    <hc-key>no-op-514</hc-key>
    <hc-a2>LO</hc-a2>
  </desc>
</path>

<path fill="#CEE3F5" stroke="#6E6E6E" stroke-width="0.4" id="NO.OP.536" d="M393.6,513.0 L396.6,511.6 L401.4,514.6 L405.4,510.0 L406.9,511.8 L410.7,508.4 L411.1,502.1 L413.7,500.7 L418.0,500.6 L423.8,497.7 L427.6,496.8 L429.2,494.8 L421.7,493.7 L420.0,495.0 L416.0,492.8 L415.1,488.8 L419.7,485.8 L423.1,488.3 L430.7,488.1 L433.2,483.9 L433.9,477.2 L432.6,474.2 L435.1,470.1 L438.1,467.8 L446.9,474.0 L450.5,474.7 L451.9,477.0 L455.1,477.7 L455.0,482.6 L451.9,489.6 L453.4,492.8 L453.2,497.4 L475.8,520.6 L473.0,525.2 L472.9,538.7 L474.7,539.7 L481.3,539.3 L480.9,545.0 L482.3,545.9 L480.1,557.1 L478.1,558.3 L476.3,565.3 L461.5,569.5 L457.9,570.1 L453.8,572.5 L450.3,576.3 L447.4,577.9 L434.0,576.6 L420.9,571.5 L417.3,575.7 L412.4,568.2 L407.6,553.2 L403.0,545.7 L402.4,539.0 L397.0,521.2 Z">
  <desc xmlns="http://www.highcharts.com/svg/namespace">
    <name>Søndre Land</name>
    <hc-middle-x>0.50</hc-middle-x>
    <hc-middle-y>0.56</hc-middle-y>
    <hc-key>no-op-536</hc-key>
    <hc-a2>SL</hc-a2>
  </desc>
</path>
</g>

<text x="350" y="714" text-anchor="middle" font-family="Verdana" font-size="8" stroke-opacity="0.6">Copyright (c) 2023 Highsoft AS, Based on data from Kartverket</text>

</svg>