<?xml version="1.0" encoding="utf-8" standalone="no"?>
<!DOCTYPE svg PUBLIC "-//W3C//DTD SVG 1.1//EN" "http://www.w3.org/Graphics/SVG/1.1/DTD/svg11.dtd">

<svg version="1.1" height="700pt" width="700pt" xmlns="http://www.w3.org/2000/svg" xmlns:xlink="http://www.w3.org/1999/xlink">
<desc>
Map version: 1.1.3
Copyright (c) 2020 Highsoft AS, Based on data from Kartverket
</desc>
<title>Troms (2019)</title>
<g id="admin2">

<g id="NO.TR">
  <desc xmlns="http://www.highcharts.com/svg/namespace">
    <labelrank>7</labelrank>
    <hasc>NO.TR</hasc>
    <alt-name>Troms fylke|Tromsø|Troms-Fylki</alt-name>
    <woe-id>2346401</woe-id>
    <subregion>NULL</subregion>
    <fips>NO18</fips>
    <postal-code>TR</postal-code>
    <name>Troms</name>
    <country>Norway</country>
    <type-en>County</type-en>
    <region>NULL</region>
    <longitude>19.0835</longitude>
    <woe-name>Troms</woe-name>
    <latitude>68.9053</latitude>
    <woe-label>Troms Fylke, NO, Norway</woe-label>
    <type>Fylke</type>
    <hc-key>no-tr</hc-key>
    <hc-a2>TR</hc-a2>
  </desc>
</g>

<g id="NO">
  <desc xmlns="http://www.highcharts.com/svg/namespace">
    <name>Norway</name>
    <labelrank>3</labelrank>
    <country-abbrev>Nor.</country-abbrev>
    <subregion>Northern Europe</subregion>
    <region-wb>Europe &amp; Central Asia</region-wb>
    <iso-a3>NOR</iso-a3>
    <iso-a2>NO</iso-a2>
    <woe-id>-90</woe-id>
    <continent>Europe</continent>
    <hc-key>no</hc-key>
    <hc-a2>NO</hc-a2>
  </desc>
</g>

<path fill="#CEE3F5" stroke="#6E6E6E" stroke-width="0.4" id="NO.TR.1943" d="M589.4,99.8 L587.4,100.2 L585.7,95.4 L588.8,93.7 L592.0,95.3 L591.4,98.0 Z M557.2,55.3 L555.5,55.9 L551.7,54.4 L550.9,52.8 L552.0,49.7 L554.5,49.5 L557.6,53.5 Z M575.7,73.7 L579.7,70.0 L584.7,71.6 L586.6,74.1 L590.3,76.5 L590.8,78.8 L589.4,82.1 L587.4,83.9 L578.1,78.5 L575.9,76.8 Z M545.8,87.5 L547.9,81.2 L551.2,76.4 L555.1,73.9 L560.5,74.2 L575.6,84.6 L575.5,88.4 L576.7,91.0 L580.1,93.6 L577.7,100.9 L580.5,105.2 L583.9,108.6 L587.4,110.9 L594.1,112.7 L607.8,127.8 L610.3,132.3 L611.4,137.9 L612.8,140.4 L621.6,147.7 L620.1,149.5 L614.8,147.8 L619.7,151.8 L622.6,152.0 L624.9,150.3 L625.3,145.5 L622.2,142.2 L621.8,136.0 L617.5,131.1 L608.7,124.3 L610.7,123.2 L616.5,125.1 L618.1,122.3 L617.5,118.6 L615.4,116.4 L611.1,115.0 L609.9,113.4 L609.7,105.2 L608.1,96.0 L609.4,91.3 L608.7,87.6 L610.4,85.2 L614.4,85.8 L618.0,85.1 L619.0,86.7 L618.2,93.1 L620.8,97.6 L621.6,92.7 L621.2,84.0 L620.4,76.8 L626.0,73.1 L611.3,78.1 L603.5,78.3 L597.3,71.7 L600.9,66.9 L614.1,66.0 L616.0,65.0 L623.9,53.3 L624.2,49.2 L616.0,54.1 L614.1,57.7 L611.6,58.9 L600.8,57.0 L597.8,62.6 L590.1,65.6 L587.3,64.4 L582.0,56.7 L580.4,55.6 L571.3,57.5 L567.3,53.6 L564.5,45.5 L564.3,42.2 L569.6,35.4 L557.2,38.4 L553.0,37.5 L550.3,35.2 L547.1,29.0 L543.7,26.6 L545.4,23.4 L548.0,23.9 L554.6,28.1 L561.1,30.6 L564.5,33.4 L566.6,31.3 L572.3,33.2 L573.5,30.7 L576.1,29.9 L581.5,31.4 L579.7,34.4 L581.5,37.6 L584.3,39.1 L584.6,40.8 L590.0,44.3 L589.2,46.7 L590.4,49.2 L596.2,50.3 L599.9,54.8 L604.1,51.9 L603.4,47.0 L607.3,43.7 L607.3,39.4 L612.0,41.7 L615.2,38.3 L622.8,35.6 L625.8,35.8 L626.8,44.2 L624.8,47.5 L626.0,49.4 L630.9,63.9 L633.8,63.7 L634.8,65.4 L635.3,70.7 L632.6,74.2 L632.7,78.3 L634.1,79.2 L638.4,87.2 L638.1,91.3 L641.7,95.3 L652.9,100.6 L656.1,100.0 L661.5,101.9 L664.3,106.6 L657.4,114.1 L660.1,116.8 L665.1,117.3 L666.5,121.1 L665.3,121.8 L661.3,128.4 L658.2,136.1 L666.1,141.5 L668.0,147.2 L666.5,154.1 L669.7,160.7 L687.1,173.9 L694.3,167.9 L700.0,173.0 L695.8,180.0 L689.5,184.1 L689.1,191.2 L686.8,196.5 L686.8,199.3 L683.1,201.4 L685.1,210.3 L680.7,208.5 L676.6,207.8 L665.4,209.6 L653.5,217.0 L644.1,218.3 L639.2,212.6 L637.8,200.4 L629.9,198.2 L623.5,199.8 L609.7,206.7 L599.7,201.9 L593.9,203.6 L584.2,194.2 L582.6,181.2 L580.2,174.3 L587.5,167.3 L586.9,162.4 L587.8,160.0 L592.4,154.4 L592.8,151.1 L590.8,147.3 L591.2,140.1 L595.4,139.6 L594.5,134.6 L594.9,131.8 L593.2,129.3 L590.1,130.1 L587.2,129.0 L581.8,124.4 L576.7,124.1 L578.6,120.0 L576.9,116.8 L579.9,113.2 L578.2,110.0 L574.8,108.7 L570.8,103.8 L569.4,101.0 L565.7,97.4 L565.6,93.2 L564.0,91.0 L548.3,88.5 Z">
  <desc xmlns="http://www.highcharts.com/svg/namespace">
    <name>Kvænangen</name>
    <hc-middle-x>0.62</hc-middle-x>
    <hc-middle-y>0.78</hc-middle-y>
    <hc-key>no-tr-1943</hc-key>
    <hc-a2>KV</hc-a2>
  </desc>
</path>

<path fill="#CEE3F5" stroke="#6E6E6E" stroke-width="0.4" id="NO.TR.1941" d="M526.7,74.6 L520.8,75.6 L524.1,68.4 L526.7,65.2 L528.6,65.7 L529.1,71.6 Z M511.9,43.5 L517.2,53.4 L517.2,56.7 L515.3,60.9 L512.3,63.7 L509.1,62.6 L506.7,57.2 L506.1,50.4 L507.5,44.6 L509.7,41.9 Z M482.7,117.9 L484.9,109.5 L488.2,107.3 L498.7,106.0 L499.5,109.2 L497.7,111.5 L497.1,114.4 L499.3,125.3 L498.3,129.0 L496.4,127.3 L491.6,130.6 L488.9,126.9 L489.0,121.4 L487.4,119.5 Z M533.9,79.2 L523.1,86.9 L522.6,91.9 L519.4,96.1 L515.0,98.5 L510.5,98.5 L507.1,95.7 L503.2,85.3 L503.1,82.1 L506.9,72.0 L508.9,70.6 L512.2,70.3 L514.5,72.0 L519.0,79.5 L521.1,81.2 Z M487.8,19.2 L500.9,19.1 L504.8,21.0 L507.7,23.5 L509.1,26.3 L509.0,30.3 L507.6,36.5 L505.1,44.2 L504.2,51.3 L506.0,57.5 L506.2,64.0 L504.1,66.7 L502.0,67.1 L496.6,63.0 L494.1,67.5 L489.9,69.9 L487.5,69.7 L488.5,64.6 L488.8,56.1 L486.6,52.8 L485.0,57.0 L485.5,61.0 L481.2,60.9 L481.4,65.3 L480.1,66.4 L473.4,63.7 L470.5,59.0 L469.7,54.5 L470.7,41.8 L472.2,36.2 L474.2,32.2 L476.5,29.9 L482.1,28.0 L483.9,26.5 L484.2,22.2 L485.4,19.9 Z">
  <desc xmlns="http://www.highcharts.com/svg/namespace">
    <name>Skjervøy</name>
    <hc-middle-x>0.30</hc-middle-x>
    <hc-middle-y>0.22</hc-middle-y>
    <hc-key>no-tr-1941</hc-key>
    <hc-a2>SK</hc-a2>
  </desc>
</path>

<path fill="#CEE3F5" stroke="#6E6E6E" stroke-width="0.4" id="NO.TR.1902" d="M270.9,149.3 L268.6,150.1 L264.1,145.8 L264.2,142.2 L269.4,139.9 L271.6,147.9 Z M303.4,70.2 L300.4,70.6 L299.5,68.2 L301.3,64.7 L304.1,64.3 L305.1,67.1 Z M433.6,191.3 L435.8,192.3 L435.1,196.2 L435.5,201.1 L420.4,222.0 L419.6,232.2 L421.1,240.1 L419.0,245.4 L415.5,247.6 L414.1,249.7 L411.0,250.2 L409.0,251.9 L405.9,256.6 L406.8,266.3 L397.2,271.3 L398.8,266.4 L398.7,260.6 L396.0,260.6 L392.0,256.2 L393.1,255.0 L391.5,251.0 L387.0,250.0 L384.9,253.2 L383.1,252.9 L381.2,249.5 L375.7,242.6 L372.0,239.0 L370.5,239.2 L368.7,236.6 L370.7,236.4 L370.8,231.5 L373.5,229.6 L372.1,224.6 L369.8,223.7 L364.1,225.8 L360.4,227.9 L354.1,229.6 L355.7,235.5 L353.8,238.0 L350.8,235.5 L347.3,225.9 L343.5,222.2 L340.2,217.8 L339.8,213.4 L338.6,213.3 L339.3,210.2 L341.8,206.3 L345.4,203.2 L355.6,198.9 L357.2,199.0 L360.8,205.0 L363.3,206.4 L360.8,198.4 L360.6,194.4 L353.0,195.0 L348.8,197.3 L344.1,198.1 L340.5,202.7 L338.5,201.3 L335.3,195.5 L334.5,181.0 L348.2,160.7 L349.8,149.4 L353.7,146.5 L359.4,145.1 L364.0,138.9 L368.3,137.5 L381.9,139.4 L385.5,138.4 L392.6,133.6 L409.0,130.5 L413.3,132.9 L411.8,138.2 L408.2,145.4 L408.5,150.0 L407.7,154.4 L406.0,159.0 L402.5,165.3 L404.2,170.1 L406.2,172.5 L407.2,175.9 L405.9,183.7 L404.4,188.7 L398.8,202.7 L397.4,208.0 L397.0,214.5 L399.0,224.2 L392.4,229.9 L389.6,234.5 L387.4,239.7 L402.5,228.2 L405.3,215.7 L406.2,209.4 L404.8,205.4 L409.7,187.2 L408.5,183.7 L414.1,183.4 L417.7,184.3 L423.9,186.6 L430.1,190.8 Z M259.1,165.8 L254.7,162.5 L255.4,161.1 L259.1,161.5 L262.9,163.4 L262.8,167.7 L259.0,170.6 L254.4,170.3 L256.2,168.6 L255.4,166.1 Z M302.6,124.8 L293.6,125.1 L290.0,124.2 L290.5,120.0 L295.6,117.0 L296.7,114.6 L303.4,117.5 L303.5,123.1 Z M325.8,70.4 L321.9,73.2 L315.8,82.2 L313.1,78.3 L313.2,74.8 L315.1,71.0 L313.0,70.7 L312.4,65.1 L313.9,61.5 L320.0,64.2 L324.0,64.6 Z M372.6,129.3 L372.0,129.7 L352.4,135.7 L349.4,132.2 L345.6,122.0 L327.9,104.2 L320.8,100.9 L318.1,96.4 L317.9,92.0 L321.6,90.2 L330.3,94.0 L332.0,93.2 L336.8,86.9 L331.5,85.8 L328.8,83.3 L328.0,80.1 L332.3,79.3 L335.2,85.3 L339.8,82.4 L347.1,88.9 L343.6,103.4 L346.4,104.2 L348.4,101.8 L351.8,103.0 L352.7,109.8 L352.9,115.5 L354.8,118.5 L357.2,119.8 L359.5,118.7 L364.1,118.4 L365.2,115.9 L371.4,122.8 Z M291.2,204.9 L298.5,203.3 L304.7,199.7 L325.5,197.5 L326.5,203.2 L325.8,207.5 L324.3,210.6 L328.8,212.1 L330.3,216.4 L330.3,220.9 L327.0,221.1 L309.4,224.7 L308.9,217.9 L299.4,214.6 L292.5,208.9 Z M314.4,193.6 L304.7,189.9 L300.2,194.2 L298.4,194.9 L291.5,194.5 L270.4,201.0 L264.1,200.7 L261.9,198.0 L258.4,191.3 L256.4,189.5 L251.0,189.1 L248.6,187.8 L246.4,183.5 L250.7,176.5 L250.1,172.8 L254.7,175.8 L259.9,172.3 L269.2,174.7 L271.5,176.9 L273.7,184.8 L277.0,178.0 L279.0,177.9 L284.5,172.4 L277.4,174.1 L274.4,172.4 L265.6,153.4 L268.2,152.1 L277.6,154.0 L280.9,155.2 L292.5,154.6 L304.5,159.3 L306.6,157.0 L303.1,154.5 L284.4,151.3 L281.0,148.5 L280.6,143.2 L279.2,139.0 L280.1,134.9 L282.2,131.8 L285.7,131.1 L289.3,136.5 L293.5,136.5 L293.3,143.4 L296.2,142.7 L298.3,135.8 L300.6,131.6 L303.3,129.9 L309.5,129.9 L307.9,142.8 L309.5,154.2 L313.3,161.3 L318.4,161.2 L316.6,159.3 L316.2,156.3 L318.5,144.2 L321.9,135.8 L320.6,132.6 L313.1,121.7 L311.3,115.2 L312.7,108.3 L316.2,109.6 L320.3,112.9 L323.3,112.1 L322.2,110.4 L323.9,108.3 L325.8,108.8 L328.9,114.2 L326.8,119.6 L332.4,119.1 L340.3,123.1 L345.4,131.7 L346.8,135.8 L346.3,142.0 L343.9,147.2 L338.0,149.7 L332.5,158.7 L325.5,161.0 L322.1,163.0 L320.1,167.1 L318.6,172.1 L319.3,175.1 L322.5,176.9 L323.8,178.6 L324.5,183.6 L323.1,187.2 L317.9,192.0 Z">
  <desc xmlns="http://www.highcharts.com/svg/namespace">
    <name>Tromsø</name>
    <hc-middle-x>0.67</hc-middle-x>
    <hc-middle-y>0.53</hc-middle-y>
    <hc-key>no-tr-1902</hc-key>
    <hc-a2>TR</hc-a2>
  </desc>
</path>

<path fill="#CEE3F5" stroke="#6E6E6E" stroke-width="0.4" id="NO.TR.1936" d="M433.6,76.8 L429.4,78.6 L424.9,76.7 L426.8,74.7 L431.9,74.8 Z M329.9,53.9 L327.3,56.3 L326.1,48.4 L326.5,43.7 L330.4,44.3 L330.6,50.9 Z M374.4,46.0 L375.0,42.8 L377.5,39.1 L381.2,37.1 L384.7,39.0 L394.0,48.4 L395.8,50.9 L395.4,53.6 L393.7,55.3 L388.3,55.4 L376.5,50.0 Z M439.6,38.0 L439.0,42.3 L438.1,43.0 L429.7,37.8 L431.6,34.3 L433.4,33.6 Z M328.4,31.8 L329.9,27.8 L333.7,27.7 L335.5,28.4 L334.4,35.7 L334.6,39.0 L333.5,40.8 L326.0,39.6 L324.6,36.5 Z M457.1,8.8 L460.9,11.5 L460.4,14.9 L455.0,23.2 L452.9,21.5 L452.8,13.6 L452.0,7.7 L450.1,3.4 L450.9,0.1 L453.3,0.0 Z M328.0,80.1 L329.1,74.6 L332.0,72.2 L337.3,70.8 L341.9,72.6 L345.0,69.8 L347.3,70.1 L348.4,74.8 L349.9,75.0 L354.1,71.3 L349.7,62.9 L349.5,58.3 L351.4,60.1 L354.4,60.1 L362.7,53.5 L364.4,54.8 L363.9,60.1 L364.9,62.4 L366.8,61.9 L370.9,57.1 L373.1,59.0 L370.1,67.2 L369.8,71.6 L374.0,75.3 L378.7,82.3 L381.2,83.0 L381.2,76.5 L383.1,71.4 L385.9,67.9 L392.1,65.2 L394.0,65.3 L395.6,67.8 L396.2,71.6 L395.1,76.7 L395.9,82.3 L399.4,76.2 L402.5,75.0 L405.3,78.9 L405.1,84.5 L401.7,88.7 L391.8,93.3 L390.2,97.7 L389.4,103.2 L385.3,110.4 L381.6,114.8 L378.9,123.0 L375.9,127.0 L372.6,129.3 L371.4,122.8 L365.2,115.9 L364.1,118.4 L359.5,118.7 L357.2,119.8 L354.8,118.5 L352.9,115.5 L352.7,109.8 L351.8,103.0 L348.4,101.8 L346.4,104.2 L343.6,103.4 L347.1,88.9 L339.8,82.4 L335.2,85.3 L332.3,79.3 Z M313.9,61.5 L317.7,56.0 L317.1,48.5 L318.9,47.4 L321.8,48.6 L324.2,51.3 L325.3,56.1 L326.0,62.7 L334.0,50.5 L341.0,56.6 L341.5,59.4 L337.9,64.7 L335.3,66.7 L328.6,68.4 L325.8,70.4 L324.0,64.6 L320.0,64.2 Z M407.8,116.8 L403.8,119.2 L385.9,123.3 L381.4,122.6 L382.3,117.8 L388.7,108.6 L391.0,101.8 L392.3,100.3 L396.7,98.0 L405.8,90.4 L408.9,86.4 L411.2,82.2 L413.4,79.6 L417.0,80.3 L418.8,82.4 L420.8,88.2 L418.7,94.4 L414.7,100.8 L411.4,109.6 Z M364.7,43.9 L359.8,49.0 L356.7,50.0 L353.4,48.3 L344.0,38.7 L344.6,37.0 L350.3,34.0 L353.3,37.4 L353.5,30.0 L357.1,27.1 L355.6,24.0 L354.9,19.8 L353.1,17.3 L354.6,15.3 L357.3,15.5 L358.8,16.4 L360.4,11.9 L363.0,11.4 L365.8,17.5 L365.4,23.4 L367.4,30.2 L367.1,33.5 L364.7,38.8 Z M432.2,65.3 L417.8,65.0 L414.0,63.0 L411.6,58.1 L411.7,44.8 L409.9,40.9 L407.8,32.7 L404.6,26.2 L401.9,22.4 L395.3,19.1 L393.5,14.0 L394.6,12.3 L398.4,14.1 L398.2,9.3 L400.7,6.5 L406.3,3.6 L407.4,5.0 L408.2,14.4 L411.0,19.8 L414.2,21.9 L416.0,25.0 L418.1,35.9 L420.7,34.6 L422.8,25.2 L425.1,24.3 L429.5,29.3 L428.4,34.3 L429.1,37.7 L433.0,42.2 L444.6,49.5 L448.4,49.5 L448.4,51.5 L439.3,54.4 L436.5,56.8 L437.6,59.3 L435.8,62.9 Z">
  <desc xmlns="http://www.highcharts.com/svg/namespace">
    <name>Karlsøy</name>
    <hc-middle-x>0.34</hc-middle-x>
    <hc-middle-y>0.71</hc-middle-y>
    <hc-key>no-tr-1936</hc-key>
    <hc-a2>KA</hc-a2>
  </desc>
</path>

<path fill="#CEE3F5" stroke="#6E6E6E" stroke-width="0.4" id="NO.TR.1940" d="M467.7,188.0 L467.1,190.9 L465.1,192.1 L465.2,191.8 Z M551.0,264.8 L533.9,278.4 L527.9,285.4 L521.8,278.4 L519.2,282.0 L510.1,275.1 L512.3,272.0 L510.5,265.7 L496.6,264.6 L490.5,260.1 L485.4,257.3 L482.8,257.4 L478.8,253.6 L476.4,247.6 L477.4,241.4 L475.3,231.6 L475.7,229.3 L463.8,225.4 L466.5,219.3 L471.2,212.8 L472.9,208.6 L474.0,199.8 L476.0,195.1 L478.2,194.0 L485.0,202.8 L492.0,209.1 L505.5,212.3 L509.7,217.4 L511.2,215.9 L507.4,212.1 L498.7,207.3 L495.6,202.1 L493.2,194.4 L490.3,189.7 L482.3,185.4 L477.9,180.9 L477.0,178.3 L477.6,175.2 L481.2,167.5 L482.6,160.1 L482.1,153.5 L480.1,148.6 L477.3,146.0 L481.4,146.8 L488.7,151.2 L492.4,161.7 L492.3,164.5 L496.3,169.1 L500.3,168.4 L503.0,176.8 L509.5,179.5 L509.7,183.4 L514.2,189.6 L511.3,191.8 L511.3,196.0 L515.0,198.4 L516.3,200.4 L520.1,202.7 L522.8,208.1 L521.5,211.0 L517.8,213.5 L531.1,213.6 L538.5,211.1 L540.9,221.5 L527.1,234.7 L536.9,239.4 L539.7,247.4 L551.1,261.8 Z">
  <desc xmlns="http://www.highcharts.com/svg/namespace">
    <name>Gáivuotna / Kåfjord</name>
    <hc-middle-x>0.56</hc-middle-x>
    <hc-middle-y>0.66</hc-middle-y>
    <hc-key>no-tr-1940</hc-key>
    <hc-a2>G/</hc-a2>
  </desc>
</path>

<path fill="#CEE3F5" stroke="#6E6E6E" stroke-width="0.4" id="NO.TR.1938" d="M417.7,184.3 L425.6,186.0 L433.6,191.3 L430.1,190.8 L423.9,186.6 Z M467.7,188.0 L465.2,191.8 L465.1,192.1 L459.1,194.9 L457.5,198.4 L460.2,202.7 L457.7,206.8 L456.3,213.7 L457.6,218.4 L456.5,222.9 L454.1,225.1 L451.7,222.7 L450.8,230.4 L449.4,237.0 L445.7,236.9 L421.1,240.1 L419.6,232.2 L420.4,222.0 L435.5,201.1 L435.1,196.2 L435.8,192.3 L437.7,193.2 L442.6,191.6 L439.1,191.8 L435.1,190.7 L431.2,188.3 L425.3,183.2 L422.0,182.4 L419.2,180.1 L417.9,171.4 L416.2,163.7 L416.5,157.5 L417.7,154.3 L421.6,149.0 L421.2,143.9 L422.8,140.9 L426.4,138.5 L428.0,135.9 L431.2,126.3 L433.8,123.0 L433.4,128.8 L431.5,135.3 L430.0,144.1 L433.6,142.8 L436.1,137.0 L440.4,122.5 L443.9,113.8 L446.7,102.2 L449.0,96.9 L449.0,113.3 L452.3,119.0 L452.5,113.6 L452.0,101.7 L458.4,90.2 L460.5,89.4 L462.5,91.3 L471.6,110.9 L472.3,114.4 L469.9,122.8 L469.2,133.7 L466.4,140.6 L465.1,149.4 L463.7,154.6 L462.3,165.1 L462.3,169.6 L467.1,176.8 L468.1,181.9 Z">
  <desc xmlns="http://www.highcharts.com/svg/namespace">
    <name>Lyngen</name>
    <hc-middle-x>0.52</hc-middle-x>
    <hc-middle-y>0.48</hc-middle-y>
    <hc-key>no-tr-1938</hc-key>
    <hc-a2>LY</hc-a2>
  </desc>
</path>

<path fill="#CEE3F5" stroke="#6E6E6E" stroke-width="0.4" id="NO.TR.1917" d="M183.8,364.4 L183.0,364.4 L183.3,363.5 L183.3,363.6 Z M149.9,400.0 L124.0,407.0 L121.8,404.2 L123.3,401.2 L125.1,394.4 L132.0,388.5 L138.9,376.1 L143.1,372.5 L145.9,383.9 L147.8,385.5 L152.9,393.5 L154.1,397.0 Z M155.1,358.5 L158.5,366.6 L163.3,373.4 L166.0,375.1 L168.6,374.5 L167.1,371.6 L163.1,367.8 L161.9,364.8 L162.1,359.5 L164.1,357.5 L173.1,358.8 L177.2,361.4 L180.9,366.2 L183.9,373.4 L174.6,381.0 L169.4,389.1 L165.6,391.5 L161.9,391.5 L159.2,388.4 L157.9,385.4 L157.9,376.6 L156.9,371.8 L150.6,362.7 L150.5,358.6 L152.7,355.8 Z">
  <desc xmlns="http://www.highcharts.com/svg/namespace">
    <name>Ibestad</name>
    <hc-middle-x>0.78</hc-middle-x>
    <hc-middle-y>0.41</hc-middle-y>
    <hc-key>no-tr-1917</hc-key>
    <hc-a2>IB</hc-a2>
  </desc>
</path>

<path fill="#CEE3F5" stroke="#6E6E6E" stroke-width="0.4" id="NO.TR.1926" d="M183.3,363.6 L183.3,363.5 L184.2,360.8 L188.9,351.9 L190.4,350.1 L193.2,350.2 L194.2,348.7 L194.3,341.8 L190.3,341.1 L190.4,339.2 L197.7,330.1 L202.3,322.6 L207.7,318.3 L210.0,314.7 L205.6,310.9 L208.4,308.0 L228.3,307.9 L232.2,304.9 L234.9,310.8 L233.7,313.9 L231.3,316.3 L232.2,318.4 L230.2,320.5 L230.6,326.4 L235.2,333.1 L239.2,335.9 L242.6,342.4 L243.9,346.1 L241.3,346.7 L237.1,350.5 L234.1,349.6 L229.5,344.4 L224.1,340.7 L221.2,337.6 L217.5,338.5 L209.3,336.3 L205.2,338.8 L204.1,340.6 L204.0,345.2 L206.2,351.0 L200.8,353.6 L196.8,354.5 L194.0,358.5 L185.4,363.1 Z M188.3,315.4 L197.4,314.0 L199.8,314.8 L197.7,316.9 L196.1,323.6 L192.3,327.7 L188.0,330.7 L183.8,338.7 L182.0,340.4 L177.4,338.5 L178.1,328.1 L181.8,320.7 L185.2,316.7 Z">
  <desc xmlns="http://www.highcharts.com/svg/namespace">
    <name>Dyrøy</name>
    <hc-middle-x>0.58</hc-middle-x>
    <hc-middle-y>0.32</hc-middle-y>
    <hc-key>no-tr-1926</hc-key>
    <hc-a2>DY</hc-a2>
  </desc>
</path>

<path fill="#CEE3F5" stroke="#6E6E6E" stroke-width="0.4" id="NO.TR.1923" d="M183.8,364.4 L183.3,363.6 L185.4,363.1 L194.0,358.5 L196.8,354.5 L200.8,353.6 L206.2,351.0 L204.0,345.2 L204.1,340.6 L205.2,338.8 L209.3,336.3 L217.5,338.5 L221.2,337.6 L224.1,340.7 L229.5,344.4 L234.1,349.6 L237.1,350.5 L241.3,346.7 L243.9,346.1 L260.7,342.9 L251.8,364.7 L253.1,370.9 L255.3,371.1 L253.9,373.8 L248.8,376.3 L244.3,376.9 L245.4,379.6 L247.8,380.2 L248.5,384.7 L250.1,385.2 L245.8,396.5 L245.1,402.4 L241.6,402.8 L239.9,404.7 L234.6,405.0 L236.8,410.0 L230.4,406.4 L233.6,397.3 L232.0,395.2 L228.2,394.0 L222.3,388.8 L222.0,384.7 L218.8,384.3 L217.1,387.7 L213.0,383.5 L208.2,384.2 L206.1,387.1 L204.0,385.5 L201.4,386.0 L198.4,390.3 L185.9,382.7 L193.6,378.9 L200.1,372.8 L205.6,370.5 L208.5,367.9 L210.8,368.3 L212.9,371.5 L217.9,374.7 L223.3,373.7 L221.1,368.0 L210.1,362.1 L211.7,356.8 L192.4,360.4 L186.0,364.5 Z">
  <desc xmlns="http://www.highcharts.com/svg/namespace">
    <name>Salangen</name>
    <hc-middle-x>0.68</hc-middle-x>
    <hc-middle-y>0.52</hc-middle-y>
    <hc-key>no-tr-1923</hc-key>
    <hc-a2>SA</hc-a2>
  </desc>
</path>

<path fill="#CEE3F5" stroke="#6E6E6E" stroke-width="0.4" id="NO.TR.1931" d="M268.1,284.2 L263.2,284.9 L259.1,283.4 L255.8,286.1 L249.3,286.5 L252.0,280.4 L249.5,278.1 L243.7,279.9 L241.1,278.2 L242.8,274.3 L243.2,264.9 L244.6,260.0 L247.5,256.7 L254.0,252.7 L256.7,247.8 L256.2,243.3 L261.3,233.3 L260.1,229.7 L260.8,226.4 L259.4,224.1 L259.6,220.0 L263.3,217.0 L267.9,215.4 L270.0,212.3 L273.5,212.8 L277.1,218.1 L280.4,227.9 L280.8,230.3 L278.7,238.2 L286.1,238.2 L289.7,241.4 L291.5,248.4 L289.6,264.3 L285.6,263.3 L276.7,268.4 L266.9,276.4 Z M199.4,179.3 L202.2,179.9 L205.3,186.0 L210.4,201.6 L214.0,204.1 L216.3,204.0 L217.2,198.6 L215.4,197.9 L214.8,181.4 L216.8,179.0 L219.7,184.0 L221.8,193.0 L223.3,196.1 L225.2,194.2 L228.1,187.1 L231.8,182.8 L233.7,184.3 L234.9,188.0 L236.2,197.7 L231.2,206.6 L228.6,218.4 L230.5,221.8 L233.7,214.8 L235.5,207.8 L238.1,206.1 L240.8,201.6 L243.4,202.6 L250.3,209.3 L247.4,213.1 L243.8,212.6 L244.6,217.8 L243.6,221.3 L239.2,226.8 L242.9,231.0 L244.7,231.9 L246.1,229.1 L245.7,225.8 L249.5,223.4 L251.5,224.8 L252.0,228.3 L251.8,238.2 L253.3,241.3 L251.7,247.5 L250.3,248.4 L245.2,247.2 L239.4,249.5 L236.3,252.1 L234.5,255.7 L235.6,257.4 L235.9,265.1 L239.5,270.7 L237.8,273.9 L235.5,274.7 L231.0,273.9 L230.9,275.7 L235.8,280.1 L237.0,286.0 L242.6,287.4 L240.5,290.9 L237.6,292.6 L226.4,294.5 L227.7,285.9 L225.1,282.4 L224.1,283.0 L217.0,281.6 L215.7,282.3 L216.3,276.3 L211.6,276.2 L212.1,272.6 L210.1,272.0 L212.5,270.2 L210.4,261.2 L207.3,255.9 L203.3,245.8 L207.9,242.8 L203.7,236.7 L210.1,224.2 L213.0,219.1 L218.1,217.5 L218.2,216.7 L224.2,213.4 L223.9,210.6 L219.8,208.0 L217.8,208.5 L219.0,211.1 L215.4,212.6 L211.6,210.2 L209.3,207.6 L206.2,200.9 L206.7,198.4 L204.9,197.4 L203.8,192.9 L201.1,190.4 L199.6,187.4 L200.7,186.4 Z">
  <desc xmlns="http://www.highcharts.com/svg/namespace">
    <name>Lenvik</name>
    <hc-middle-x>0.30</hc-middle-x>
    <hc-middle-y>0.49</hc-middle-y>
    <hc-key>no-tr-1931</hc-key>
    <hc-a2>LE</hc-a2>
  </desc>
</path>

<path fill="#CEE3F5" stroke="#6E6E6E" stroke-width="0.4" id="NO.TR.1925" d="M249.3,286.5 L255.8,286.1 L259.1,283.4 L263.2,284.9 L268.1,284.2 L270.5,283.5 L274.2,287.2 L273.8,291.9 L271.9,294.3 L269.7,293.5 L260.2,292.0 L258.3,293.5 L263.3,298.9 L275.1,306.8 L283.0,307.9 L280.6,315.7 L281.0,323.4 L283.7,327.1 L282.7,331.0 L275.6,329.9 L274.6,332.3 L260.7,342.9 L243.9,346.1 L242.6,342.4 L239.2,335.9 L235.2,333.1 L230.6,326.4 L230.2,320.5 L232.2,318.4 L231.3,316.3 L233.7,313.9 L234.9,310.8 L232.2,304.9 L237.2,301.1 L243.5,299.5 L255.6,300.5 L249.0,296.2 L248.2,293.9 Z">
  <desc xmlns="http://www.highcharts.com/svg/namespace">
    <name>Sørreisa</name>
    <hc-middle-x>0.51</hc-middle-x>
    <hc-middle-y>0.57</hc-middle-y>
    <hc-key>no-tr-1925</hc-key>
    <hc-a2>SØ</hc-a2>
  </desc>
</path>

<path fill="#CEE3F5" stroke="#6E6E6E" stroke-width="0.4" id="NO.TR.1927" d="M187.4,258.4 L198.9,257.4 L201.6,256.1 L203.3,245.8 L207.3,255.9 L210.4,261.2 L212.5,270.2 L210.1,272.0 L212.1,272.6 L211.6,276.2 L216.3,276.3 L215.7,282.3 L217.0,281.6 L224.1,283.0 L225.1,282.4 L227.7,285.9 L226.4,294.5 L224.4,294.8 L213.8,293.4 L204.4,297.9 L195.8,296.4 L192.8,297.3 L193.6,293.3 L197.4,285.0 L192.0,284.9 L186.8,289.8 L182.4,296.7 L168.1,308.5 L163.3,314.2 L160.0,322.9 L161.2,324.2 L165.1,324.8 L162.0,329.9 L156.5,333.0 L151.1,333.5 L148.3,331.1 L148.7,327.4 L150.2,325.2 L154.0,324.1 L152.8,322.4 L153.8,319.4 L158.4,317.0 L155.9,313.5 L128.2,319.7 L127.1,316.9 L124.4,315.2 L124.1,310.4 L125.7,305.2 L128.8,302.5 L133.8,306.8 L136.0,307.0 L136.0,301.0 L145.4,298.2 L149.4,300.4 L151.6,300.4 L153.2,296.7 L152.1,293.1 L160.8,287.3 L161.4,286.5 L167.0,283.9 L169.4,281.8 L172.0,281.8 L170.5,279.5 L168.4,279.8 L167.0,275.5 L166.9,271.5 L173.0,269.5 L172.0,266.7 L175.3,265.5 L174.3,261.4 L177.4,261.6 Z">
  <desc xmlns="http://www.highcharts.com/svg/namespace">
    <name>Tranøy</name>
    <hc-middle-x>0.62</hc-middle-x>
    <hc-middle-y>0.34</hc-middle-y>
    <hc-key>no-tr-1927</hc-key>
    <hc-a2>TR</hc-a2>
  </desc>
</path>

<path fill="#CEE3F5" stroke="#6E6E6E" stroke-width="0.4" id="NO.TR.1929" d="M203.3,245.8 L201.6,256.1 L198.9,257.4 L187.4,258.4 L185.4,255.1 L181.8,253.5 L179.9,251.2 L178.5,243.0 L175.5,244.4 L170.4,242.6 L170.2,236.4 L169.4,233.5 L165.0,232.5 L164.8,230.1 L176.6,232.5 L184.8,240.1 L187.7,240.5 L187.0,236.6 L181.7,232.8 L177.5,227.1 L192.9,228.0 L197.7,224.5 L182.0,220.6 L174.5,216.1 L170.1,203.1 L175.5,205.2 L176.8,210.0 L181.5,214.7 L180.6,209.2 L187.0,211.0 L188.9,209.7 L186.8,207.3 L183.3,199.9 L181.3,198.3 L182.7,195.3 L185.2,194.7 L187.8,195.9 L190.7,199.0 L195.8,201.7 L197.1,205.6 L201.9,208.3 L206.4,214.5 L212.1,216.4 L212.2,214.6 L209.6,212.5 L207.4,208.7 L205.7,199.7 L199.3,194.7 L197.6,191.3 L196.6,186.3 L198.0,182.4 L197.7,179.0 L199.4,179.3 L200.7,186.4 L199.6,187.4 L201.1,190.4 L203.8,192.9 L204.9,197.4 L206.7,198.4 L206.2,200.9 L209.3,207.6 L211.6,210.2 L215.4,212.6 L219.0,211.1 L217.8,208.5 L219.8,208.0 L223.9,210.6 L224.2,213.4 L218.2,216.7 L218.1,217.5 L213.0,219.1 L210.1,224.2 L203.7,236.7 L207.9,242.8 Z">
  <desc xmlns="http://www.highcharts.com/svg/namespace">
    <name>Berg</name>
    <hc-middle-x>0.46</hc-middle-x>
    <hc-middle-y>0.79</hc-middle-y>
    <hc-key>no-tr-1929</hc-key>
    <hc-a2>BE</hc-a2>
  </desc>
</path>

<path fill="#CEE3F5" stroke="#6E6E6E" stroke-width="0.4" id="NO.TR.1942" d="M498.3,129.0 L498.0,130.5 L493.7,134.2 L488.7,136.7 L483.9,134.9 L482.0,131.7 L481.1,124.5 L482.7,117.9 L487.4,119.5 L489.0,121.4 L488.9,126.9 L491.6,130.6 L496.4,127.3 Z M477.3,146.0 L480.0,143.1 L492.0,142.3 L505.1,134.7 L508.6,127.5 L508.8,124.1 L505.8,114.0 L509.3,113.1 L529.6,96.7 L533.3,95.7 L533.3,97.4 L523.3,107.5 L515.1,121.1 L520.8,122.9 L522.0,126.6 L519.5,130.2 L524.4,136.9 L526.7,138.3 L529.5,135.8 L525.3,131.5 L524.5,128.6 L529.4,126.7 L531.1,123.8 L530.2,119.3 L532.7,117.6 L540.5,115.1 L542.1,116.7 L541.4,120.6 L536.5,132.2 L541.3,130.0 L543.8,127.0 L545.3,123.1 L545.4,119.9 L544.0,106.6 L554.6,106.5 L552.4,103.1 L549.5,100.6 L543.9,99.3 L545.8,87.5 L548.3,88.5 L564.0,91.0 L565.6,93.2 L565.7,97.4 L569.4,101.0 L570.8,103.8 L574.8,108.7 L578.2,110.0 L579.9,113.2 L576.9,116.8 L578.6,120.0 L576.7,124.1 L581.8,124.4 L587.2,129.0 L590.1,130.1 L593.2,129.3 L594.9,131.8 L594.5,134.6 L595.4,139.6 L591.2,140.1 L590.8,147.3 L592.8,151.1 L592.4,154.4 L587.8,160.0 L586.9,162.4 L587.5,167.3 L580.2,174.3 L582.6,181.2 L584.2,194.2 L593.9,203.6 L599.7,201.9 L609.7,206.7 L623.5,199.8 L629.9,198.2 L637.8,200.4 L639.2,212.6 L644.1,218.3 L643.6,221.5 L646.3,226.1 L645.1,232.4 L648.8,241.1 L649.2,248.6 L652.8,249.9 L656.2,259.0 L659.5,264.4 L664.4,275.1 L666.9,276.5 L669.0,282.6 L668.5,286.2 L669.6,292.0 L668.1,298.7 L669.4,303.0 L666.3,307.9 L667.0,312.5 L665.0,316.8 L659.3,318.8 L653.0,322.4 L650.0,325.2 L640.3,325.6 L618.3,327.6 L605.0,308.8 L593.1,290.3 L583.9,273.9 L566.4,269.3 L551.0,264.8 L551.1,261.8 L539.7,247.4 L536.9,239.4 L527.1,234.7 L540.9,221.5 L538.5,211.1 L531.1,213.6 L517.8,213.5 L521.5,211.0 L522.8,208.1 L520.1,202.7 L516.3,200.4 L515.0,198.4 L511.3,196.0 L511.3,191.8 L514.2,189.6 L509.7,183.4 L509.5,179.5 L503.0,176.8 L500.3,168.4 L496.3,169.1 L492.3,164.5 L492.4,161.7 L488.7,151.2 L481.4,146.8 Z">
  <desc xmlns="http://www.highcharts.com/svg/namespace">
    <name>Nordreisa</name>
    <hc-middle-x>0.57</hc-middle-x>
    <hc-middle-y>0.61</hc-middle-y>
    <hc-key>no-tr-1942</hc-key>
    <hc-a2>NO</hc-a2>
  </desc>
</path>

<path fill="#CEE3F5" stroke="#6E6E6E" stroke-width="0.4" id="NO.TR.1903" d="M114.8,340.5 L117.0,340.9 L121.0,345.3 L111.9,351.4 L110.3,344.8 Z M68.7,370.1 L71.1,373.0 L72.7,372.7 L74.1,368.9 L71.2,365.6 L70.3,360.8 L71.2,355.8 L76.2,365.0 L83.2,369.7 L87.7,371.4 L87.4,377.1 L88.6,380.6 L96.0,378.3 L98.4,378.7 L93.2,384.1 L91.9,387.5 L95.3,388.1 L97.4,393.2 L94.4,395.5 L94.7,400.8 L93.8,405.8 L98.2,410.0 L93.6,416.7 L96.0,419.4 L95.5,423.7 L91.5,432.1 L88.0,436.3 L87.4,439.3 L88.7,446.4 L87.9,448.9 L83.5,450.8 L84.0,446.2 L81.5,442.7 L78.2,442.6 L75.1,440.4 L72.2,436.0 L70.1,436.1 L66.9,428.0 L80.7,420.8 L82.6,418.5 L81.5,414.1 L79.5,413.0 L82.1,410.7 L78.2,408.0 L79.1,400.5 L78.5,395.3 L75.7,395.9 L76.1,392.7 L78.9,390.8 L76.3,384.0 L72.3,382.5 L68.3,378.4 L69.1,376.5 L66.8,373.1 Z M97.7,342.1 L102.2,340.8 L103.8,342.6 L104.9,346.6 L104.9,350.9 L102.9,353.4 L102.8,359.7 L100.7,362.3 L92.0,362.0 L88.1,360.3 L84.5,357.2 L80.3,348.4 L75.1,343.1 L73.2,338.6 L78.0,331.8 L82.9,333.6 L87.9,338.6 L92.6,341.7 Z">
  <desc xmlns="http://www.highcharts.com/svg/namespace">
    <name>Harstad</name>
    <hc-middle-x>0.38</hc-middle-x>
    <hc-middle-y>0.57</hc-middle-y>
    <hc-key>no-tr-1903</hc-key>
    <hc-a2>HA</hc-a2>
  </desc>
</path>

<path fill="#CEE3F5" stroke="#6E6E6E" stroke-width="0.4" id="NO.TR.1924" d="M268.1,284.2 L266.9,276.4 L276.7,268.4 L285.6,263.3 L289.6,264.3 L291.3,269.6 L289.3,275.9 L289.5,280.4 L291.9,273.4 L293.4,264.8 L294.1,250.6 L294.8,247.6 L296.8,246.3 L298.0,249.4 L298.8,259.6 L299.6,263.5 L304.1,266.9 L307.6,273.6 L309.0,271.6 L308.8,273.5 L311.9,275.0 L314.2,283.7 L322.1,292.9 L335.6,307.5 L337.2,305.9 L338.9,307.4 L338.7,312.1 L346.1,316.6 L348.7,321.7 L354.7,327.6 L364.4,336.0 L365.9,334.5 L368.7,335.0 L368.0,331.7 L370.5,331.0 L372.6,335.3 L372.1,336.7 L377.0,334.3 L388.1,333.9 L392.7,334.9 L394.9,333.1 L400.4,333.4 L402.4,332.3 L407.7,334.9 L409.7,337.6 L413.5,332.3 L420.5,329.6 L423.7,327.0 L426.7,327.2 L427.4,329.4 L435.5,334.8 L452.1,358.9 L458.6,366.9 L461.0,399.8 L454.9,416.2 L447.8,435.9 L432.9,455.6 L421.6,464.2 L401.4,462.8 L388.3,453.6 L375.7,439.1 L355.5,417.7 L353.1,411.8 L354.9,407.9 L349.0,404.5 L346.5,409.2 L343.1,411.2 L336.3,410.3 L333.1,403.1 L332.9,397.6 L326.9,398.3 L323.5,394.8 L318.8,396.7 L316.9,393.1 L319.7,391.0 L319.5,387.9 L312.9,386.1 L308.0,382.6 L304.8,378.1 L303.9,374.6 L299.6,370.8 L297.8,372.4 L294.8,369.8 L294.8,363.4 L292.5,361.1 L292.9,356.9 L294.4,357.0 L294.0,342.6 L295.2,331.6 L289.8,330.1 L289.0,334.5 L287.4,336.5 L281.2,332.4 L275.6,329.9 L282.7,331.0 L283.7,327.1 L281.0,323.4 L280.6,315.7 L283.0,307.9 L275.1,306.8 L263.3,298.9 L258.3,293.5 L260.2,292.0 L269.7,293.5 L271.9,294.3 L273.8,291.9 L274.2,287.2 L270.5,283.5 Z">
  <desc xmlns="http://www.highcharts.com/svg/namespace">
    <name>Målselv</name>
    <hc-middle-x>0.60</hc-middle-x>
    <hc-middle-y>0.57</hc-middle-y>
    <hc-key>no-tr-1924</hc-key>
    <hc-a2>MÅ</hc-a2>
  </desc>
</path>

<path fill="#CEE3F5" stroke="#6E6E6E" stroke-width="0.4" id="NO.TR.1939" d="M449.4,237.0 L447.1,242.6 L442.1,245.4 L436.6,251.5 L431.1,254.4 L429.4,256.8 L431.3,260.5 L425.0,270.2 L422.9,275.2 L425.8,276.9 L428.1,275.1 L430.9,271.0 L435.4,261.5 L437.7,257.8 L452.4,245.1 L457.2,243.1 L463.8,225.4 L475.7,229.3 L475.3,231.6 L477.4,241.4 L476.4,247.6 L478.8,253.6 L482.8,257.4 L485.4,257.3 L490.5,260.1 L496.6,264.6 L510.5,265.7 L512.3,272.0 L510.1,275.1 L519.2,282.0 L521.8,278.4 L527.9,285.4 L525.2,288.6 L523.7,296.7 L529.3,310.6 L530.1,315.2 L535.2,320.0 L530.3,338.0 L513.6,326.7 L498.1,315.8 L482.3,331.5 L435.5,334.8 L427.4,329.4 L426.7,327.2 L429.2,322.6 L425.7,320.2 L424.1,308.8 L422.7,292.1 L421.8,290.9 L413.8,285.4 L407.6,282.6 L403.6,282.1 L397.2,271.3 L406.8,266.3 L405.9,256.6 L409.0,251.9 L411.0,250.2 L414.1,249.7 L415.5,247.6 L419.0,245.4 L421.1,240.1 L445.7,236.9 Z">
  <desc xmlns="http://www.highcharts.com/svg/namespace">
    <name>Storfjord</name>
    <hc-middle-x>0.54</hc-middle-x>
    <hc-middle-y>0.53</hc-middle-y>
    <hc-key>no-tr-1939</hc-key>
    <hc-a2>ST</hc-a2>
  </desc>
</path>

<path fill="#CEE3F5" stroke="#6E6E6E" stroke-width="0.4" id="NO.TR.1919" d="M158.7,413.1 L163.3,410.0 L168.9,414.6 L174.7,414.0 L177.5,421.3 L179.1,423.7 L182.7,426.3 L185.6,426.8 L194.1,425.0 L201.4,429.9 L203.8,429.2 L198.4,423.3 L186.4,420.3 L182.2,413.4 L178.4,405.4 L175.7,403.7 L170.5,408.4 L167.4,406.8 L162.3,401.3 L165.3,398.3 L172.3,393.7 L178.5,391.6 L181.7,388.6 L185.2,387.0 L181.4,392.3 L186.0,397.8 L188.8,400.1 L195.1,401.8 L198.2,403.7 L196.9,408.4 L198.4,412.4 L196.7,415.5 L199.6,417.1 L205.4,417.7 L206.6,416.8 L215.2,422.2 L220.0,421.5 L218.8,427.8 L218.9,431.3 L216.8,433.0 L216.1,435.9 L217.1,438.2 L214.3,440.6 L214.4,445.9 L209.3,446.2 L190.1,445.3 L186.8,442.9 L184.6,438.7 L181.2,434.0 L178.4,433.4 L174.5,434.6 L173.0,431.5 L170.7,431.7 L168.1,428.7 L170.6,427.5 L171.1,425.2 L168.4,423.8 L163.2,422.9 L161.4,423.5 L161.0,419.9 L157.7,418.3 L156.2,415.0 Z">
  <desc xmlns="http://www.highcharts.com/svg/namespace">
    <name>Gratangen</name>
    <hc-middle-x>0.75</hc-middle-x>
    <hc-middle-y>0.82</hc-middle-y>
    <hc-key>no-tr-1919</hc-key>
    <hc-a2>GR</hc-a2>
  </desc>
</path>

<path fill="#CEE3F5" stroke="#6E6E6E" stroke-width="0.4" id="NO.TR.1913" d="M190.1,445.3 L169.2,453.3 L155.4,453.8 L149.9,452.4 L123.7,447.7 L115.5,456.3 L113.3,456.8 L111.1,460.4 L107.8,463.1 L99.3,465.6 L94.4,464.5 L92.7,458.4 L94.1,455.0 L97.5,457.5 L99.2,456.4 L100.2,451.9 L97.3,449.9 L95.2,446.6 L94.6,440.6 L95.9,435.2 L98.7,430.8 L102.0,427.8 L108.7,425.9 L120.2,418.6 L131.5,416.1 L135.1,413.3 L138.3,412.6 L142.8,421.5 L146.0,424.8 L146.0,429.6 L150.2,433.1 L152.0,433.6 L155.8,432.2 L154.4,428.6 L150.9,427.5 L148.0,423.5 L148.4,417.9 L149.9,415.7 L158.7,413.1 L156.2,415.0 L157.7,418.3 L161.0,419.9 L161.4,423.5 L163.2,422.9 L168.4,423.8 L171.1,425.2 L170.6,427.5 L168.1,428.7 L170.7,431.7 L173.0,431.5 L174.5,434.6 L178.4,433.4 L181.2,434.0 L184.6,438.7 L186.8,442.9 Z">
  <desc xmlns="http://www.highcharts.com/svg/namespace">
    <name>Skånland</name>
    <hc-middle-x>0.40</hc-middle-x>
    <hc-middle-y>0.46</hc-middle-y>
    <hc-key>no-tr-1913</hc-key>
    <hc-a2>SK</hc-a2>
  </desc>
</path>

<path fill="#CEE3F5" stroke="#6E6E6E" stroke-width="0.4" id="NO.TR.1911" d="M66.9,428.0 L64.1,430.0 L59.9,431.2 L55.7,430.8 L53.8,433.5 L47.6,434.1 L46.1,439.0 L42.1,440.5 L39.8,438.3 L40.5,435.2 L37.0,430.2 L33.9,433.4 L33.1,438.1 L30.4,443.3 L28.7,444.2 L29.4,446.9 L28.3,450.8 L22.4,450.2 L19.6,454.7 L16.8,457.5 L14.2,458.6 L14.3,460.8 L9.0,463.1 L7.1,465.6 L7.4,467.7 L4.1,469.7 L2.8,472.8 L0.0,470.0 L1.7,465.5 L4.0,464.8 L6.3,461.9 L5.4,458.4 L6.2,455.0 L5.1,451.1 L3.1,450.2 L1.9,446.1 L1.6,440.7 L0.2,439.0 L4.3,437.7 L7.9,435.1 L8.8,432.4 L6.8,422.7 L8.4,422.9 L12.5,419.0 L15.8,421.2 L20.0,418.7 L23.1,412.3 L20.8,409.2 L22.5,405.9 L21.9,403.5 L23.8,403.2 L31.2,404.4 L32.5,399.5 L37.1,399.1 L40.7,396.8 L42.3,393.6 L38.2,406.1 L35.7,411.4 L32.8,412.9 L29.0,419.1 L21.3,421.2 L19.3,423.8 L18.0,428.2 L18.8,438.1 L18.0,442.4 L15.2,446.6 L13.6,450.6 L17.8,448.0 L21.8,442.2 L22.9,429.9 L27.4,424.0 L34.9,419.6 L39.8,415.1 L42.5,413.7 L44.6,414.8 L45.7,423.2 L46.9,426.7 L49.2,424.6 L50.2,420.0 L49.7,415.6 L45.9,405.0 L50.6,398.9 L53.7,397.8 L63.8,399.9 L63.1,393.2 L61.2,390.1 L56.2,386.4 L53.8,381.5 L53.5,378.0 L55.7,372.5 L64.2,367.6 L67.3,368.1 L68.7,370.1 L66.8,373.1 L69.1,376.5 L68.3,378.4 L72.3,382.5 L76.3,384.0 L78.9,390.8 L76.1,392.7 L75.7,395.9 L78.5,395.3 L79.1,400.5 L78.2,408.0 L82.1,410.7 L79.5,413.0 L81.5,414.1 L82.6,418.5 L80.7,420.8 Z">
  <desc xmlns="http://www.highcharts.com/svg/namespace">
    <name>Kvæfjord</name>
    <hc-middle-x>0.78</hc-middle-x>
    <hc-middle-y>0.39</hc-middle-y>
    <hc-key>no-tr-1911</hc-key>
    <hc-a2>KV</hc-a2>
  </desc>
</path>

<path fill="#CEE3F5" stroke="#6E6E6E" stroke-width="0.4" id="NO.TR.1920" d="M185.2,387.0 L194.6,394.5 L209.5,398.1 L215.0,406.3 L215.4,398.5 L211.4,394.8 L202.5,392.8 L198.4,390.3 L201.4,386.0 L204.0,385.5 L206.1,387.1 L208.2,384.2 L213.0,383.5 L217.1,387.7 L218.8,384.3 L222.0,384.7 L222.3,388.8 L228.2,394.0 L232.0,395.2 L233.6,397.3 L230.4,406.4 L236.8,410.0 L235.1,413.4 L240.3,418.2 L239.1,432.4 L234.6,433.5 L235.9,434.9 L236.3,444.7 L230.1,444.7 L214.4,445.9 L214.3,440.6 L217.1,438.2 L216.1,435.9 L216.8,433.0 L218.9,431.3 L218.8,427.8 L220.0,421.5 L215.2,422.2 L206.6,416.8 L205.4,417.7 L199.6,417.1 L196.7,415.5 L198.4,412.4 L196.9,408.4 L198.2,403.7 L195.1,401.8 L188.8,400.1 L186.0,397.8 L181.4,392.3 Z">
  <desc xmlns="http://www.highcharts.com/svg/namespace">
    <name>Lavangen</name>
    <hc-middle-x>0.67</hc-middle-x>
    <hc-middle-y>0.51</hc-middle-y>
    <hc-key>no-tr-1920</hc-key>
    <hc-a2>LA</hc-a2>
  </desc>
</path>

<path fill="#CEE3F5" stroke="#6E6E6E" stroke-width="0.4" id="NO.TR.1922" d="M275.6,329.9 L281.2,332.4 L287.4,336.5 L289.0,334.5 L289.8,330.1 L295.2,331.6 L294.0,342.6 L294.4,357.0 L292.9,356.9 L292.5,361.1 L294.8,363.4 L294.8,369.8 L297.8,372.4 L299.6,370.8 L303.9,374.6 L304.8,378.1 L308.0,382.6 L312.9,386.1 L319.5,387.9 L319.7,391.0 L316.9,393.1 L318.8,396.7 L323.5,394.8 L326.9,398.3 L332.9,397.6 L333.1,403.1 L336.3,410.3 L343.1,411.2 L346.5,409.2 L349.0,404.5 L354.9,407.9 L353.1,411.8 L355.5,417.7 L375.7,439.1 L388.3,453.6 L401.4,462.8 L421.6,464.2 L430.1,471.5 L449.5,482.4 L438.0,494.8 L424.8,509.3 L419.1,517.8 L398.4,507.3 L373.4,495.0 L328.6,472.7 L293.2,474.1 L280.6,460.5 L273.1,453.4 L245.4,464.2 L236.3,444.7 L235.9,434.9 L234.6,433.5 L239.1,432.4 L240.3,418.2 L235.1,413.4 L236.8,410.0 L234.6,405.0 L239.9,404.7 L241.6,402.8 L245.1,402.4 L245.8,396.5 L250.1,385.2 L248.5,384.7 L247.8,380.2 L245.4,379.6 L244.3,376.9 L248.8,376.3 L253.9,373.8 L255.3,371.1 L253.1,370.9 L251.8,364.7 L260.7,342.9 L274.6,332.3 Z">
  <desc xmlns="http://www.highcharts.com/svg/namespace">
    <name>Bardu</name>
    <hc-middle-x>0.33</hc-middle-x>
    <hc-middle-y>0.54</hc-middle-y>
    <hc-key>no-tr-1922</hc-key>
    <hc-a2>BA</hc-a2>
  </desc>
</path>

<path fill="#CEE3F5" stroke="#6E6E6E" stroke-width="0.4" id="NO.TR.1928" d="M161.4,286.5 L163.8,283.0 L154.9,287.6 L151.8,287.7 L145.0,283.4 L137.8,282.9 L140.1,277.6 L136.5,275.6 L142.9,272.2 L156.2,275.1 L162.2,268.2 L158.6,269.2 L159.0,264.8 L157.4,259.0 L155.3,264.6 L152.5,264.4 L147.1,261.7 L149.9,256.3 L142.1,257.0 L140.4,255.7 L139.8,252.0 L141.6,250.5 L161.8,253.6 L159.4,249.6 L160.8,248.1 L157.0,248.1 L153.9,244.0 L157.2,242.4 L160.5,242.4 L158.2,239.8 L155.6,239.0 L147.5,240.5 L138.9,239.2 L139.0,237.4 L141.7,236.9 L144.4,234.1 L144.0,230.5 L145.2,229.2 L151.2,232.3 L153.0,229.2 L157.9,233.4 L162.6,230.5 L164.8,230.1 L165.0,232.5 L169.4,233.5 L170.2,236.4 L170.4,242.6 L175.5,244.4 L178.5,243.0 L179.9,251.2 L181.8,253.5 L185.4,255.1 L187.4,258.4 L177.4,261.6 L174.3,261.4 L175.3,265.5 L172.0,266.7 L173.0,269.5 L166.9,271.5 L167.0,275.5 L168.4,279.8 L170.5,279.5 L172.0,281.8 L169.4,281.8 L167.0,283.9 Z">
  <desc xmlns="http://www.highcharts.com/svg/namespace">
    <name>Torsken</name>
    <hc-middle-x>0.62</hc-middle-x>
    <hc-middle-y>0.45</hc-middle-y>
    <hc-key>no-tr-1928</hc-key>
    <hc-a2>TO</hc-a2>
  </desc>
</path>

<path fill="#CEE3F5" stroke="#6E6E6E" stroke-width="0.4" id="NO.TR.1933" d="M330.3,220.9 L332.2,225.9 L339.0,230.9 L338.2,236.3 L339.1,239.2 L343.1,242.2 L348.9,249.7 L351.1,251.4 L369.9,254.2 L372.8,260.2 L371.8,265.9 L369.8,268.4 L363.5,272.2 L358.4,269.9 L352.4,274.2 L354.2,278.9 L360.3,272.5 L361.9,274.7 L362.2,278.3 L359.9,280.9 L364.7,285.9 L368.0,285.8 L372.2,281.2 L375.4,281.9 L381.3,287.2 L384.3,285.1 L378.8,276.7 L378.3,270.4 L379.7,264.5 L379.8,261.3 L377.6,255.0 L370.4,244.9 L365.6,243.0 L352.3,244.9 L348.9,242.4 L345.9,234.9 L344.7,228.6 L342.3,227.5 L338.5,221.3 L337.9,216.3 L338.6,213.3 L339.8,213.4 L340.2,217.8 L343.5,222.2 L347.3,225.9 L350.8,235.5 L353.8,238.0 L355.7,235.5 L354.1,229.6 L360.4,227.9 L364.1,225.8 L369.8,223.7 L372.1,224.6 L373.5,229.6 L370.8,231.5 L370.7,236.4 L368.7,236.6 L370.5,239.2 L372.0,239.0 L375.7,242.6 L381.2,249.5 L383.1,252.9 L384.9,253.2 L387.0,250.0 L391.5,251.0 L393.1,255.0 L392.0,256.2 L396.0,260.6 L398.7,260.6 L398.8,266.4 L397.2,271.3 L403.6,282.1 L407.6,282.6 L413.8,285.4 L421.8,290.9 L422.7,292.1 L424.1,308.8 L425.7,320.2 L429.2,322.6 L426.7,327.2 L423.7,327.0 L420.5,329.6 L413.5,332.3 L409.7,337.6 L407.7,334.9 L402.4,332.3 L400.4,333.4 L394.9,333.1 L392.7,334.9 L388.1,333.9 L377.0,334.3 L372.1,336.7 L372.6,335.3 L370.5,331.0 L368.0,331.7 L368.7,335.0 L365.9,334.5 L364.4,336.0 L354.7,327.6 L348.7,321.7 L346.1,316.6 L338.7,312.1 L338.9,307.4 L337.2,305.9 L335.6,307.5 L322.1,292.9 L314.2,283.7 L311.9,275.0 L308.8,273.5 L309.0,271.6 L309.0,267.2 L306.4,262.7 L308.0,259.1 L312.3,257.6 L320.7,257.6 L324.3,259.3 L330.3,265.8 L337.3,268.8 L338.4,266.6 L332.9,257.3 L331.0,255.7 L306.2,245.4 L301.0,239.6 L299.9,231.5 L297.3,227.1 L288.5,224.5 L287.4,222.0 L288.7,216.9 L290.9,214.8 L289.3,208.9 L291.2,204.9 L292.5,208.9 L299.4,214.6 L308.9,217.9 L309.4,224.7 L327.0,221.1 Z">
  <desc xmlns="http://www.highcharts.com/svg/namespace">
    <name>Balsfjord</name>
    <hc-middle-x>0.63</hc-middle-x>
    <hc-middle-y>0.73</hc-middle-y>
    <hc-key>no-tr-1933</hc-key>
    <hc-a2>BA</hc-a2>
  </desc>
</path>
</g>

<text x="350" y="714" text-anchor="middle" font-family="Verdana" font-size="8" stroke-opacity="0.6">Copyright (c) 2020 Highsoft AS, Based on data from Kartverket</text>

</svg>