<?xml version="1.0" encoding="utf-8" standalone="no"?>
<!DOCTYPE svg PUBLIC "-//W3C//DTD SVG 1.1//EN" "http://www.w3.org/Graphics/SVG/1.1/DTD/svg11.dtd">

<svg version="1.1" height="700pt" width="700pt" xmlns="http://www.w3.org/2000/svg" xmlns:xlink="http://www.w3.org/1999/xlink">
<desc>
Map version: 1.1.3
Copyright (c) 2020 Highsoft AS, Based on data from Natural Earth
</desc>
<title>Democratic Republic of the Congo</title>
<g id="admin1">

<g id="CD">
  <desc xmlns="http://www.highcharts.com/svg/namespace">
    <name>Democratic Republic of the Congo</name>
    <labelrank>2</labelrank>
    <country-abbrev>D.R.C.</country-abbrev>
    <subregion>Middle Africa</subregion>
    <region-wb>Sub-Saharan Africa</region-wb>
    <iso-a3>COD</iso-a3>
    <iso-a2>CD</iso-a2>
    <woe-id>23424780</woe-id>
    <continent>Africa</continent>
    <hc-key>cd</hc-key>
    <hc-a2>DR</hc-a2>
  </desc>
</g>

<path fill="#CEE3F5" stroke="#6E6E6E" stroke-width="0.4" id="CD.BC" d="M29.0,412.1 L22.1,415.4 L19.8,414.9 L22.8,412.3 Z M142.9,410.4 L91.8,411.8 L87.1,412.7 L66.7,411.8 L63.8,410.7 L52.8,411.7 L43.1,411.5 L41.8,412.7 L35.4,411.3 L30.5,411.7 L26.3,410.2 L22.6,410.8 L18.8,414.6 L19.0,416.3 L9.0,419.2 L0.0,408.7 L4.9,407.2 L11.0,407.1 L11.5,386.4 L8.3,382.5 L13.5,380.4 L16.8,377.5 L22.5,370.1 L31.0,367.8 L32.7,364.6 L34.9,368.2 L41.9,372.5 L43.2,375.8 L47.6,371.0 L49.7,372.1 L54.9,368.3 L54.7,360.2 L57.6,358.7 L63.7,361.1 L66.1,358.3 L70.7,357.3 L78.9,353.2 L82.6,358.7 L78.3,363.7 L80.4,367.7 L80.3,375.4 L84.6,373.7 L88.9,376.0 L96.0,372.7 L99.7,366.5 L107.7,358.3 L112.3,364.7 L116.2,366.7 L118.5,362.2 L126.8,362.8 L127.2,366.0 L129.9,368.2 L128.6,373.8 L125.1,375.6 L129.2,379.6 L134.6,379.2 L135.1,376.1 L140.2,378.6 L149.2,379.0 L147.2,394.9 L147.3,404.6 Z">
  <desc xmlns="http://www.highcharts.com/svg/namespace">
    <labelrank>6</labelrank>
    <hasc>CD.BC</hasc>
    <alt-name>Bas-Zaire|Bas-Zaïre|Kongo-Central|Lower Zaire</alt-name>
    <woe-id>2344984</woe-id>
    <subregion>NULL</subregion>
    <fips>CG08</fips>
    <postal-code>BC</postal-code>
    <name>Bas-Congo</name>
    <country>Democratic Republic of the Congo</country>
    <type-en>Province</type-en>
    <region>NULL</region>
    <longitude>14.2052</longitude>
    <woe-name>Bas-Congo</woe-name>
    <latitude>-5.31907</latitude>
    <woe-label>Bas-Congo, CD, Democratic Republic of Congo</woe-label>
    <type>Province</type>
    <hc-middle-x>0.51</hc-middle-x>
    <hc-middle-y>0.59</hc-middle-y>
    <hc-key>cd-bc</hc-key>
    <hc-a2>BC</hc-a2>
  </desc>
</path>

<path fill="#CEE3F5" stroke="#6E6E6E" stroke-width="0.4" id="CD.KV" d="M619.0,267.2 L619.3,278.0 L616.3,279.4 L616.3,275.3 Z M617.9,259.9 L616.4,260.7 L613.1,269.1 L614.6,271.8 L610.5,275.1 L612.5,281.3 L609.9,283.6 L611.7,293.8 L615.7,295.7 L615.5,299.8 L624.3,308.4 L624.4,316.5 L620.5,322.4 L621.0,331.7 L618.9,335.1 L619.9,337.2 L618.5,344.9 L618.9,352.0 L617.0,354.7 L620.3,356.3 L623.9,345.2 L624.8,347.9 L622.5,362.5 L620.6,362.3 L618.6,371.8 L619.1,380.2 L608.4,380.1 L605.4,376.6 L602.3,368.5 L596.4,357.3 L589.2,350.7 L584.2,348.1 L582.0,350.4 L572.2,345.5 L568.7,342.7 L560.0,342.0 L549.1,338.4 L545.4,334.4 L546.5,324.1 L545.1,318.4 L546.6,316.5 L545.9,310.6 L543.5,303.9 L539.0,299.1 L535.8,288.5 L535.7,280.4 L537.2,274.2 L542.8,275.5 L548.2,278.5 L555.9,274.1 L558.0,270.3 L570.0,269.7 L573.6,268.3 L577.4,271.4 L582.0,271.8 L590.7,269.1 L592.6,262.9 L595.8,266.5 L600.9,266.4 L603.6,261.9 L608.0,261.1 L610.9,257.7 L613.7,260.1 Z">
  <desc xmlns="http://www.highcharts.com/svg/namespace">
    <labelrank>6</labelrank>
    <hasc>CD.KV</hasc>
    <alt-name>Sud-Kivou|Sud Kivou|Sud Kivu</alt-name>
    <woe-id>20069829</woe-id>
    <subregion>NULL</subregion>
    <fips>CG12</fips>
    <postal-code>KV</postal-code>
    <name>Sud-Kivu</name>
    <country>Democratic Republic of the Congo</country>
    <type-en>Province</type-en>
    <region>NULL</region>
    <longitude>28.1159</longitude>
    <woe-name>Sud-Kivu</woe-name>
    <latitude>-3.10474</latitude>
    <woe-label>South Kivu, CD, Democratic Republic of Congo</woe-label>
    <type>Province</type>
    <hc-middle-x>0.55</hc-middle-x>
    <hc-middle-y>0.43</hc-middle-y>
    <hc-key>cd-kv</hc-key>
    <hc-a2>KV</hc-a2>
  </desc>
</path>

<path fill="#CEE3F5" stroke="#6E6E6E" stroke-width="0.4" id="CD.EQ" d="M157.7,264.2 L161.1,259.5 L161.8,255.5 L169.2,242.4 L176.1,236.3 L186.0,233.6 L190.2,229.8 L202.6,215.4 L201.4,203.5 L202.9,196.7 L206.4,187.5 L209.6,183.2 L210.0,179.0 L207.9,173.1 L208.4,169.3 L206.9,159.3 L210.5,152.9 L212.3,144.5 L214.5,139.8 L214.5,117.6 L220.9,104.5 L226.3,97.4 L231.3,84.6 L234.4,82.3 L235.5,75.2 L233.7,61.1 L235.7,51.2 L234.8,44.4 L231.8,39.4 L233.2,37.0 L238.5,36.8 L242.4,30.2 L249.2,22.7 L251.8,17.5 L263.7,9.5 L275.1,9.3 L278.9,10.7 L281.3,14.2 L285.4,15.2 L297.7,22.6 L302.2,28.8 L301.8,31.4 L307.3,35.8 L317.1,34.2 L324.9,36.6 L329.5,40.1 L332.7,38.7 L341.5,41.8 L348.2,39.9 L353.5,41.9 L358.7,41.8 L369.5,46.0 L374.9,45.3 L386.0,51.3 L386.9,54.2 L391.6,55.9 L400.4,54.1 L407.8,57.4 L413.7,57.2 L408.9,64.2 L401.3,62.4 L396.8,66.7 L392.4,67.2 L383.2,70.6 L382.4,75.4 L386.8,76.8 L386.9,83.8 L389.4,87.1 L396.4,80.8 L397.8,84.2 L394.5,92.2 L393.8,98.6 L397.4,104.1 L400.6,105.1 L405.8,104.0 L418.0,111.4 L418.5,116.6 L408.1,114.3 L398.0,119.9 L394.8,117.0 L389.1,122.3 L386.2,123.1 L379.5,119.5 L375.5,135.1 L369.2,140.8 L374.4,142.1 L381.5,147.3 L388.1,159.6 L390.0,171.6 L392.1,174.4 L395.0,182.6 L400.4,190.7 L409.7,203.2 L406.3,207.5 L400.3,206.5 L394.5,210.8 L402.2,211.7 L406.0,214.2 L411.0,212.4 L418.0,219.5 L408.8,225.0 L410.0,227.9 L416.0,232.8 L422.0,236.1 L423.7,239.3 L431.2,244.7 L437.0,247.0 L443.0,247.4 L445.4,252.1 L447.2,261.5 L434.8,260.0 L425.4,260.8 L420.3,269.8 L415.0,269.4 L402.4,271.5 L398.7,267.0 L392.7,267.6 L388.1,263.9 L381.3,262.2 L376.0,267.7 L365.2,266.0 L366.8,275.7 L369.1,283.9 L367.7,286.2 L365.2,284.2 L364.6,279.6 L362.5,280.1 L354.7,287.0 L352.2,288.2 L339.4,281.5 L338.4,285.8 L331.2,287.8 L322.1,286.9 L321.3,282.7 L310.5,270.0 L301.5,272.2 L295.1,270.1 L292.0,267.3 L282.9,267.0 L278.9,259.8 L274.5,257.1 L270.2,261.8 L267.4,261.1 L265.9,254.4 L259.3,242.7 L251.6,232.7 L250.3,225.8 L247.7,223.5 L246.5,226.3 L241.5,229.4 L241.0,232.9 L244.0,237.5 L241.9,240.8 L231.0,242.5 L225.1,238.7 L218.8,237.6 L209.3,246.4 L194.3,252.0 L181.9,259.3 L178.0,262.3 L168.5,261.8 L171.1,264.9 L171.1,269.3 L162.1,269.3 Z">
  <desc xmlns="http://www.highcharts.com/svg/namespace">
    <labelrank>6</labelrank>
    <hasc>CD.EQ</hasc>
    <alt-name>Equator|Equatorial</alt-name>
    <woe-id>2344978</woe-id>
    <subregion>NULL</subregion>
    <fips>CG02</fips>
    <postal-code>EQ</postal-code>
    <name>Équateur</name>
    <country>Democratic Republic of the Congo</country>
    <type-en>Province</type-en>
    <region>NULL</region>
    <longitude>20.4731</longitude>
    <woe-name>Équateur</woe-name>
    <latitude>1.21836</latitude>
    <woe-label>Equateur, CD, Democratic Republic of Congo</woe-label>
    <type>Province</type>
    <hc-middle-x>0.47</hc-middle-x>
    <hc-middle-y>0.51</hc-middle-y>
    <hc-key>cd-eq</hc-key>
    <hc-a2>EQ</hc-a2>
  </desc>
</path>

<path fill="#CEE3F5" stroke="#6E6E6E" stroke-width="0.4" id="CD.HC" d="M447.2,261.5 L445.4,252.1 L443.0,247.4 L437.0,247.0 L431.2,244.7 L423.7,239.3 L422.0,236.1 L416.0,232.8 L410.0,227.9 L408.8,225.0 L418.0,219.5 L411.0,212.4 L406.0,214.2 L402.2,211.7 L394.5,210.8 L400.3,206.5 L406.3,207.5 L409.7,203.2 L400.4,190.7 L395.0,182.6 L392.1,174.4 L390.0,171.6 L388.1,159.6 L381.5,147.3 L374.4,142.1 L369.2,140.8 L375.5,135.1 L379.5,119.5 L386.2,123.1 L389.1,122.3 L394.8,117.0 L398.0,119.9 L408.1,114.3 L418.5,116.6 L418.0,111.4 L405.8,104.0 L400.6,105.1 L397.4,104.1 L393.8,98.6 L394.5,92.2 L397.8,84.2 L396.4,80.8 L389.4,87.1 L386.9,83.8 L386.8,76.8 L382.4,75.4 L383.2,70.6 L392.4,67.2 L396.8,66.7 L401.3,62.4 L408.9,64.2 L413.7,57.2 L407.8,57.4 L400.4,54.1 L391.6,55.9 L386.9,54.2 L386.0,51.3 L374.9,45.3 L380.6,37.4 L379.8,34.3 L383.6,32.7 L387.1,24.2 L389.5,24.7 L391.2,20.6 L394.4,20.5 L395.5,23.3 L401.1,23.7 L404.6,27.4 L409.1,29.2 L415.6,24.1 L424.7,20.6 L429.5,20.7 L434.7,16.9 L437.4,17.4 L446.0,12.6 L445.9,9.5 L449.2,10.3 L456.0,15.5 L460.3,16.8 L466.5,14.2 L471.1,15.5 L472.7,13.1 L479.2,12.6 L479.2,7.0 L481.2,2.4 L489.2,0.0 L498.2,6.5 L505.6,6.6 L509.3,4.1 L515.3,8.0 L518.9,8.0 L521.6,11.3 L532.5,10.1 L536.4,11.9 L539.8,7.8 L545.5,5.9 L557.5,10.5 L557.3,12.6 L561.6,16.7 L564.9,17.0 L569.6,22.7 L569.8,27.8 L578.7,29.4 L580.1,34.2 L582.0,33.3 L584.8,36.8 L589.5,36.6 L593.2,39.3 L598.5,35.8 L606.1,29.0 L608.3,31.7 L614.6,31.0 L621.6,36.4 L626.4,34.9 L631.4,27.6 L631.6,24.9 L637.9,25.4 L644.5,28.5 L643.8,34.0 L647.8,36.2 L649.7,40.2 L656.8,45.0 L659.9,50.6 L671.8,53.5 L673.2,59.9 L672.5,62.9 L680.1,60.6 L685.7,66.2 L686.2,70.9 L682.4,76.4 L680.2,84.2 L684.4,89.4 L680.2,100.2 L679.0,105.4 L682.3,106.2 L685.2,110.1 L689.4,107.8 L692.0,111.6 L696.5,111.1 L700.0,116.0 L698.8,118.0 L690.2,124.6 L686.8,125.9 L676.0,137.1 L671.2,141.1 L667.6,149.9 L669.5,151.6 L661.9,154.4 L661.2,158.8 L658.4,163.0 L652.4,165.0 L647.8,161.0 L637.0,165.9 L631.0,164.9 L630.2,169.7 L633.7,171.8 L630.9,173.6 L621.5,171.2 L616.5,173.8 L609.2,173.1 L600.6,174.8 L591.4,169.2 L581.3,170.6 L569.9,176.6 L580.7,180.7 L581.4,186.3 L584.2,190.2 L582.4,195.6 L582.9,204.7 L577.9,207.9 L572.2,215.1 L569.1,217.1 L559.2,213.9 L556.1,214.7 L547.0,211.4 L541.8,205.9 L536.5,203.7 L536.2,205.4 L522.5,209.9 L516.9,203.7 L511.1,199.6 L509.6,203.3 L520.0,212.3 L515.0,219.5 L515.9,228.4 L511.6,231.1 L510.0,242.0 L505.4,250.7 L500.1,247.2 L500.2,255.0 L498.2,264.1 L489.9,263.8 L486.6,265.6 L480.6,272.1 L471.4,272.8 L470.9,268.7 L467.9,267.0 L462.4,267.7 L448.3,267.0 L447.7,262.6 Z">
  <desc xmlns="http://www.highcharts.com/svg/namespace">
    <labelrank>6</labelrank>
    <hasc>CD.HC</hasc>
    <alt-name>Haut-Zaire|Haut-ZaïreUpper Zaire</alt-name>
    <woe-id>2344985</woe-id>
    <subregion>NULL</subregion>
    <fips>CG09</fips>
    <postal-code>HC</postal-code>
    <name>Orientale</name>
    <country>Democratic Republic of the Congo</country>
    <type-en>Province</type-en>
    <region>NULL</region>
    <longitude>26.785</longitude>
    <woe-name>Orientale</woe-name>
    <latitude>2.40438</latitude>
    <woe-label>Orientale, CD, Democratic Republic of Congo</woe-label>
    <type>Province</type>
    <hc-middle-x>0.42</hc-middle-x>
    <hc-middle-y>0.48</hc-middle-y>
    <hc-key>cd-hc</hc-key>
    <hc-a2>HC</hc-a2>
  </desc>
</path>

<path fill="#CEE3F5" stroke="#6E6E6E" stroke-width="0.4" id="CD.BN" d="M134.6,340.4 L140.6,328.6 L142.9,325.9 L147.0,316.5 L145.7,314.7 L145.0,301.7 L146.8,292.6 L144.9,279.9 L146.9,274.1 L157.7,264.2 L162.1,269.3 L171.1,269.3 L171.1,264.9 L168.5,261.8 L178.0,262.3 L181.9,259.3 L194.3,252.0 L209.3,246.4 L218.8,237.6 L225.1,238.7 L231.0,242.5 L241.9,240.8 L244.0,237.5 L241.0,232.9 L241.5,229.4 L246.5,226.3 L247.7,223.5 L250.3,225.8 L251.6,232.7 L259.3,242.7 L265.9,254.4 L267.4,261.1 L270.2,261.8 L274.5,257.1 L278.9,259.8 L282.9,267.0 L292.0,267.3 L295.1,270.1 L301.5,272.2 L310.5,270.0 L321.3,282.7 L322.1,286.9 L320.1,294.2 L316.0,299.3 L309.5,315.8 L308.7,324.1 L310.0,345.4 L307.2,349.6 L299.0,352.6 L297.8,356.2 L295.0,356.2 L290.1,352.2 L286.6,352.4 L289.6,360.1 L287.7,363.5 L287.3,369.9 L292.3,384.0 L290.7,391.6 L291.9,402.1 L289.3,408.9 L284.1,414.3 L281.2,414.9 L274.3,420.5 L275.5,434.9 L282.4,444.7 L284.1,451.3 L268.0,451.4 L266.4,462.8 L267.8,468.8 L264.6,472.4 L262.0,472.2 L262.9,477.9 L261.3,482.9 L262.1,487.8 L241.0,487.9 L239.7,485.4 L231.6,485.4 L231.3,487.8 L219.3,488.0 L216.5,492.0 L212.2,491.9 L209.3,489.8 L205.2,491.1 L196.3,491.2 L196.0,488.7 L192.3,485.1 L184.3,473.2 L179.3,464.3 L176.1,462.7 L173.6,454.1 L175.2,452.4 L173.5,447.8 L170.0,445.6 L167.6,441.3 L166.8,434.5 L164.8,430.0 L165.9,422.3 L161.4,417.7 L161.1,412.7 L150.8,410.2 L142.9,410.4 L147.3,404.6 L147.2,394.9 L149.2,379.0 L148.5,371.5 L154.3,361.9 L156.8,360.9 L158.9,355.2 L158.0,351.6 L153.1,346.1 L146.1,342.3 L138.3,342.1 Z">
  <desc xmlns="http://www.highcharts.com/svg/namespace">
    <labelrank>6</labelrank>
    <hasc>CD.BN</hasc>
    <alt-name>NULL</alt-name>
    <woe-id>2344977</woe-id>
    <subregion>NULL</subregion>
    <fips>CG01</fips>
    <postal-code>BN</postal-code>
    <name>Bandundu</name>
    <country>Democratic Republic of the Congo</country>
    <type-en>Province</type-en>
    <region>NULL</region>
    <longitude>18.4474</longitude>
    <woe-name>Bandundu</woe-name>
    <latitude>-4.61778</latitude>
    <woe-label>Bandundu, CD, Democratic Republic of Congo</woe-label>
    <type>Province</type>
    <hc-middle-x>0.45</hc-middle-x>
    <hc-middle-y>0.43</hc-middle-y>
    <hc-key>cd-bn</hc-key>
    <hc-a2>BN</hc-a2>
  </desc>
</path>

<path fill="#CEE3F5" stroke="#6E6E6E" stroke-width="0.4" id="CD.KN" d="M107.7,358.3 L109.6,355.1 L118.9,350.5 L122.8,344.0 L134.6,340.4 L138.3,342.1 L146.1,342.3 L153.1,346.1 L158.0,351.6 L158.9,355.2 L156.8,360.9 L154.3,361.9 L148.5,371.5 L149.2,379.0 L140.2,378.6 L135.1,376.1 L134.6,379.2 L129.2,379.6 L125.1,375.6 L128.6,373.8 L129.9,368.2 L127.2,366.0 L126.8,362.8 L118.5,362.2 L116.2,366.7 L112.3,364.7 Z">
  <desc xmlns="http://www.highcharts.com/svg/namespace">
    <labelrank>6</labelrank>
    <hasc>CD.KN</hasc>
    <alt-name>Kinshasa|Léopoldville</alt-name>
    <woe-id>2344982</woe-id>
    <subregion>NULL</subregion>
    <fips>CG06</fips>
    <postal-code>KN</postal-code>
    <name>Kinshasa City</name>
    <country>Democratic Republic of the Congo</country>
    <type-en>Neutral City</type-en>
    <region>NULL</region>
    <longitude>15.8492</longitude>
    <woe-name>Kinshasa City</woe-name>
    <latitude>-4.49522</latitude>
    <woe-label>Kinshasa, CD, Democratic Republic of Congo</woe-label>
    <type>Neutral City</type>
    <hc-middle-x>0.56</hc-middle-x>
    <hc-middle-y>0.47</hc-middle-y>
    <hc-key>cd-kn</hc-key>
    <hc-a2>KN</hc-a2>
  </desc>
</path>

<path fill="#CEE3F5" stroke="#6E6E6E" stroke-width="0.4" id="CD.KR" d="M447.2,261.5 L447.7,262.6 L448.3,267.0 L449.9,273.2 L456.7,284.3 L458.9,286.4 L472.1,285.7 L471.2,290.8 L472.3,298.2 L469.6,304.3 L469.6,307.8 L464.9,318.7 L460.2,322.5 L460.8,330.8 L459.4,336.0 L466.4,343.3 L468.0,346.1 L468.5,352.5 L467.2,356.6 L468.6,358.6 L462.7,366.0 L468.1,373.2 L470.1,378.4 L471.8,378.8 L514.5,379.2 L512.1,385.1 L507.7,393.0 L509.7,397.6 L506.9,402.6 L510.5,408.2 L510.6,416.3 L509.2,425.2 L502.6,426.6 L501.9,424.2 L495.6,423.0 L491.4,426.7 L485.7,428.4 L479.9,427.4 L477.0,430.0 L480.8,434.6 L485.8,435.0 L483.8,441.0 L478.1,443.1 L472.8,439.8 L466.6,439.5 L463.9,444.2 L447.5,454.2 L439.9,451.3 L438.4,447.3 L436.0,447.2 L436.0,453.2 L433.7,454.0 L429.8,459.1 L430.6,464.1 L428.4,470.7 L428.0,478.2 L428.9,481.9 L425.0,482.2 L422.5,484.4 L412.5,485.2 L404.5,484.3 L402.6,485.6 L400.2,480.5 L402.3,465.3 L401.9,454.5 L403.4,449.5 L397.7,445.0 L392.4,439.2 L392.2,435.8 L397.9,422.7 L393.9,417.2 L393.1,409.8 L394.7,406.6 L405.0,405.5 L408.9,404.3 L410.3,406.3 L413.9,403.4 L421.8,400.5 L421.3,393.1 L411.9,388.6 L410.1,386.5 L404.0,387.7 L393.4,377.6 L395.0,371.6 L401.3,368.9 L399.3,361.5 L389.8,360.0 L383.1,352.7 L373.8,347.0 L369.5,341.8 L363.3,343.0 L359.8,339.4 L364.9,338.7 L365.6,336.8 L362.9,330.8 L357.9,328.5 L357.5,324.0 L360.2,320.0 L365.5,306.2 L364.2,301.7 L358.2,293.9 L357.3,289.7 L354.7,287.0 L362.5,280.1 L364.6,279.6 L365.2,284.2 L367.7,286.2 L369.1,283.9 L366.8,275.7 L365.2,266.0 L376.0,267.7 L381.3,262.2 L388.1,263.9 L392.7,267.6 L398.7,267.0 L402.4,271.5 L415.0,269.4 L420.3,269.8 L425.4,260.8 L434.8,260.0 Z">
  <desc xmlns="http://www.highcharts.com/svg/namespace">
    <labelrank>6</labelrank>
    <hasc>CD.KR</hasc>
    <alt-name>East Kasai|Kasai East</alt-name>
    <woe-id>2344980</woe-id>
    <subregion>NULL</subregion>
    <fips>CG04</fips>
    <postal-code>KR</postal-code>
    <name>Kasaï-Oriental</name>
    <country>Democratic Republic of the Congo</country>
    <type-en>Province</type-en>
    <region>NULL</region>
    <longitude>24.0842</longitude>
    <woe-name>Kasaï-Oriental</woe-name>
    <latitude>-4.40511</latitude>
    <woe-label>Kasai-Oriental, CD, Democratic Republic of Congo</woe-label>
    <type>Province</type>
    <hc-middle-x>0.44</hc-middle-x>
    <hc-middle-y>0.41</hc-middle-y>
    <hc-key>cd-kr</hc-key>
    <hc-a2>KR</hc-a2>
  </desc>
</path>

<path fill="#CEE3F5" stroke="#6E6E6E" stroke-width="0.4" id="CD.KT" d="M400.2,480.5 L402.6,485.6 L404.5,484.3 L412.5,485.2 L422.5,484.4 L425.0,482.2 L428.9,481.9 L428.0,478.2 L428.4,470.7 L430.6,464.1 L429.8,459.1 L433.7,454.0 L436.0,453.2 L436.0,447.2 L438.4,447.3 L439.9,451.3 L447.5,454.2 L463.9,444.2 L466.6,439.5 L472.8,439.8 L478.1,443.1 L483.8,441.0 L485.8,435.0 L480.8,434.6 L477.0,430.0 L479.9,427.4 L485.7,428.4 L491.4,426.7 L495.6,423.0 L501.9,424.2 L502.6,426.6 L509.2,425.2 L510.6,416.3 L510.5,408.2 L506.9,402.6 L509.7,397.6 L507.7,393.0 L512.1,385.1 L514.5,379.2 L608.4,380.1 L619.1,380.2 L618.4,382.7 L621.3,391.0 L628.3,402.8 L626.0,410.7 L621.0,414.0 L621.4,419.2 L626.3,424.8 L630.4,436.3 L632.0,436.1 L632.3,443.1 L636.9,447.8 L641.8,455.0 L649.6,458.4 L654.6,462.9 L657.1,468.1 L657.5,476.7 L659.7,485.0 L668.7,493.1 L671.2,496.9 L670.6,499.9 L609.7,507.8 L595.7,522.4 L592.9,526.4 L588.3,529.8 L587.1,540.0 L587.5,546.1 L592.0,546.0 L593.2,541.0 L595.8,544.3 L600.0,556.5 L597.9,561.9 L597.5,568.9 L595.7,571.7 L597.8,574.5 L597.8,582.8 L600.0,587.4 L594.9,593.4 L591.5,603.1 L589.9,613.0 L586.8,616.6 L590.0,628.9 L591.9,632.3 L600.8,638.6 L607.3,645.0 L610.2,651.4 L618.4,651.2 L627.1,654.7 L625.3,650.3 L626.4,647.0 L638.3,644.3 L636.6,690.8 L630.5,690.8 L632.1,685.8 L628.9,683.2 L614.0,690.4 L612.4,688.5 L607.7,688.8 L604.8,680.1 L596.6,668.4 L593.6,669.7 L589.8,664.0 L591.2,661.5 L585.2,653.4 L576.2,650.4 L571.6,650.0 L567.1,645.9 L560.1,647.0 L555.9,642.7 L552.6,633.1 L545.9,628.9 L544.2,620.0 L538.0,621.4 L536.2,630.9 L532.8,634.3 L526.4,636.1 L516.3,632.0 L512.1,633.0 L507.4,631.5 L501.2,631.5 L496.1,627.3 L491.6,627.5 L487.9,624.8 L484.0,626.5 L478.2,621.6 L475.7,612.5 L477.4,608.4 L475.8,605.3 L470.2,607.4 L463.7,607.6 L455.3,609.6 L450.0,613.9 L445.7,614.5 L439.9,611.4 L443.8,607.8 L443.5,602.0 L440.4,599.4 L434.3,599.1 L434.0,594.5 L428.0,593.1 L423.8,598.4 L411.6,596.0 L407.2,596.3 L400.9,599.8 L394.3,600.9 L387.6,599.0 L384.0,600.6 L377.1,598.4 L374.7,601.5 L366.3,606.1 L366.6,599.8 L363.8,591.6 L369.0,588.6 L369.2,574.0 L365.2,565.3 L363.7,558.0 L359.9,556.0 L357.4,551.4 L352.7,546.6 L350.5,538.4 L352.2,534.1 L353.0,518.5 L355.7,502.7 L352.7,492.9 L349.3,488.2 L349.8,480.6 L351.8,474.8 L360.9,479.5 L367.1,480.6 L375.8,480.0 L379.8,477.6 L383.0,482.6 L390.0,484.2 Z">
  <desc xmlns="http://www.highcharts.com/svg/namespace">
    <labelrank>6</labelrank>
    <hasc>CD.KT</hasc>
    <alt-name>Shaba</alt-name>
    <woe-id>2344981</woe-id>
    <subregion>NULL</subregion>
    <fips>CG05</fips>
    <postal-code>KT</postal-code>
    <name>Katanga</name>
    <country>Democratic Republic of the Congo</country>
    <type-en>Province</type-en>
    <region>NULL</region>
    <longitude>26.2512</longitude>
    <woe-name>Katanga</woe-name>
    <latitude>-8.483739999999999</latitude>
    <woe-label>Katanga, CD, Democratic Republic of Congo</woe-label>
    <type>Province</type>
    <hc-middle-x>0.55</hc-middle-x>
    <hc-middle-y>0.38</hc-middle-y>
    <hc-key>cd-kt</hc-key>
    <hc-a2>KT</hc-a2>
  </desc>
</path>

<path fill="#CEE3F5" stroke="#6E6E6E" stroke-width="0.4" id="CD.KC" d="M400.2,480.5 L390.0,484.2 L383.0,482.6 L379.8,477.6 L375.8,480.0 L367.1,480.6 L360.9,479.5 L351.8,474.8 L353.1,468.4 L350.3,461.6 L304.4,461.7 L304.5,456.4 L307.7,448.2 L297.5,448.2 L296.1,451.3 L284.1,451.3 L282.4,444.7 L275.5,434.9 L274.3,420.5 L281.2,414.9 L284.1,414.3 L289.3,408.9 L291.9,402.1 L290.7,391.6 L292.3,384.0 L287.3,369.9 L287.7,363.5 L289.6,360.1 L286.6,352.4 L290.1,352.2 L295.0,356.2 L297.8,356.2 L299.0,352.6 L307.2,349.6 L310.0,345.4 L308.7,324.1 L309.5,315.8 L316.0,299.3 L320.1,294.2 L322.1,286.9 L331.2,287.8 L338.4,285.8 L339.4,281.5 L352.2,288.2 L354.7,287.0 L357.3,289.7 L358.2,293.9 L364.2,301.7 L365.5,306.2 L360.2,320.0 L357.5,324.0 L357.9,328.5 L362.9,330.8 L365.6,336.8 L364.9,338.7 L359.8,339.4 L363.3,343.0 L369.5,341.8 L373.8,347.0 L383.1,352.7 L389.8,360.0 L399.3,361.5 L401.3,368.9 L395.0,371.6 L393.4,377.6 L404.0,387.7 L410.1,386.5 L411.9,388.6 L421.3,393.1 L421.8,400.5 L413.9,403.4 L410.3,406.3 L408.9,404.3 L405.0,405.5 L394.7,406.6 L393.1,409.8 L393.9,417.2 L397.9,422.7 L392.2,435.8 L392.4,439.2 L397.7,445.0 L403.4,449.5 L401.9,454.5 L402.3,465.3 Z">
  <desc xmlns="http://www.highcharts.com/svg/namespace">
    <labelrank>6</labelrank>
    <hasc>CD.KC</hasc>
    <alt-name>Kasai West|West Kasai|West Kassai</alt-name>
    <woe-id>2344979</woe-id>
    <subregion>NULL</subregion>
    <fips>CG03</fips>
    <postal-code>KC</postal-code>
    <name>Kasaï-Occidental</name>
    <country>Democratic Republic of the Congo</country>
    <type-en>Province</type-en>
    <region>NULL</region>
    <longitude>21.7144</longitude>
    <woe-name>Kasaï-Occidental</woe-name>
    <latitude>-4.87578</latitude>
    <woe-label>Kasai-Occidental, CD, Democratic Republic of Congo</woe-label>
    <type>Province</type>
    <hc-middle-x>0.53</hc-middle-x>
    <hc-middle-y>0.58</hc-middle-y>
    <hc-key>cd-kc</hc-key>
    <hc-a2>KC</hc-a2>
  </desc>
</path>

<path fill="#CEE3F5" stroke="#6E6E6E" stroke-width="0.4" id="CD.1694" d="M608.4,380.1 L514.5,379.2 L471.8,378.8 L470.1,378.4 L468.1,373.2 L462.7,366.0 L468.6,358.6 L467.2,356.6 L468.5,352.5 L468.0,346.1 L466.4,343.3 L459.4,336.0 L460.8,330.8 L460.2,322.5 L464.9,318.7 L469.6,307.8 L469.6,304.3 L472.3,298.2 L471.2,290.8 L472.1,285.7 L458.9,286.4 L456.7,284.3 L449.9,273.2 L448.3,267.0 L462.4,267.7 L467.9,267.0 L470.9,268.7 L471.4,272.8 L480.6,272.1 L486.6,265.6 L489.9,263.8 L498.2,264.1 L500.2,255.0 L500.1,247.2 L505.4,250.7 L510.0,242.0 L511.6,231.1 L515.9,228.4 L515.0,219.5 L520.0,212.3 L509.6,203.3 L511.1,199.6 L516.9,203.7 L522.5,209.9 L536.2,205.4 L536.5,203.7 L541.8,205.9 L547.0,211.4 L556.1,214.7 L559.2,213.9 L569.1,217.1 L572.4,221.4 L569.8,228.8 L562.2,230.6 L560.5,229.5 L552.0,232.8 L551.7,235.6 L554.3,239.8 L549.7,240.4 L551.0,243.4 L558.7,252.1 L561.8,256.8 L568.2,262.6 L570.0,269.7 L558.0,270.3 L555.9,274.1 L548.2,278.5 L542.8,275.5 L537.2,274.2 L535.7,280.4 L535.8,288.5 L539.0,299.1 L543.5,303.9 L545.9,310.6 L546.6,316.5 L545.1,318.4 L546.5,324.1 L545.4,334.4 L549.1,338.4 L560.0,342.0 L568.7,342.7 L572.2,345.5 L582.0,350.4 L584.2,348.1 L589.2,350.7 L596.4,357.3 L602.3,368.5 L605.4,376.6 Z">
  <desc xmlns="http://www.highcharts.com/svg/namespace">
    <labelrank>6</labelrank>
    <hasc>CD.</hasc>
    <alt-name>NULL</alt-name>
    <woe-id>20069831</woe-id>
    <subregion>NULL</subregion>
    <fips>NULL</fips>
    <postal-code>NULL</postal-code>
    <name>Maniema</name>
    <country>Democratic Republic of the Congo</country>
    <type-en>Province</type-en>
    <region>NULL</region>
    <longitude>26.0336</longitude>
    <woe-name>Maniema</woe-name>
    <latitude>-3.26017</latitude>
    <woe-label>Maniema, CD, Democratic Republic of Congo</woe-label>
    <type>Province</type>
    <hc-middle-x>0.34</hc-middle-x>
    <hc-middle-y>0.64</hc-middle-y>
    <hc-key>cd-1694</hc-key>
    <hc-a2>MA</hc-a2>
  </desc>
</path>

<path fill="#CEE3F5" stroke="#6E6E6E" stroke-width="0.4" id="CD.1697" d="M570.0,269.7 L568.2,262.6 L561.8,256.8 L558.7,252.1 L551.0,243.4 L549.7,240.4 L554.3,239.8 L551.7,235.6 L552.0,232.8 L560.5,229.5 L562.2,230.6 L569.8,228.8 L572.4,221.4 L569.1,217.1 L572.2,215.1 L577.9,207.9 L582.9,204.7 L582.4,195.6 L584.2,190.2 L581.4,186.3 L580.7,180.7 L569.9,176.6 L581.3,170.6 L591.4,169.2 L600.6,174.8 L609.2,173.1 L616.5,173.8 L621.5,171.2 L630.9,173.6 L633.7,171.8 L630.2,169.7 L631.0,164.9 L637.0,165.9 L647.8,161.0 L652.4,165.0 L650.4,167.4 L650.9,178.0 L646.9,183.9 L645.7,190.0 L642.4,192.7 L641.0,200.5 L635.7,202.0 L633.2,204.3 L630.5,211.9 L627.4,214.6 L627.4,218.1 L629.7,218.4 L629.7,221.7 L637.8,217.7 L639.2,214.4 L638.6,228.2 L636.6,230.2 L637.3,247.5 L632.0,251.8 L629.2,251.9 L624.1,258.2 L619.0,255.7 L617.9,259.9 L613.7,260.1 L610.9,257.7 L608.0,261.1 L603.6,261.9 L600.9,266.4 L595.8,266.5 L592.6,262.9 L590.7,269.1 L582.0,271.8 L577.4,271.4 L573.6,268.3 Z">
  <desc xmlns="http://www.highcharts.com/svg/namespace">
    <labelrank>6</labelrank>
    <hasc>CD.</hasc>
    <alt-name>NULL</alt-name>
    <woe-id>20069830</woe-id>
    <subregion>NULL</subregion>
    <fips>CG11</fips>
    <postal-code>NULL</postal-code>
    <name>Nord-Kivu</name>
    <country>Democratic Republic of the Congo</country>
    <type-en>Province</type-en>
    <region>NULL</region>
    <longitude>28.5939</longitude>
    <woe-name>Nord-Kivu</woe-name>
    <latitude>-0.6591280000000001</latitude>
    <woe-label>North Kivu, CD, Democratic Republic of Congo</woe-label>
    <type>Province</type>
    <hc-middle-x>0.55</hc-middle-x>
    <hc-middle-y>0.58</hc-middle-y>
    <hc-key>cd-1697</hc-key>
    <hc-a2>NK</hc-a2>
  </desc>
</path>
</g>

<text x="350" y="714" text-anchor="middle" font-family="Verdana" font-size="8" stroke-opacity="0.6">Copyright (c) 2020 Highsoft AS, Based on data from Natural Earth</text>

</svg>