<?xml version="1.0" encoding="utf-8" standalone="no"?>
<!DOCTYPE svg PUBLIC "-//W3C//DTD SVG 1.1//EN" "http://www.w3.org/Graphics/SVG/1.1/DTD/svg11.dtd">

<svg version="1.1" height="700pt" width="700pt" xmlns="http://www.w3.org/2000/svg" xmlns:xlink="http://www.w3.org/1999/xlink">
<desc>
Map version: 1.1.3
Copyright (c) 2020 Highsoft AS, Based on data from Natural Earth
</desc>
<title>France, mainland (2015)</title>
<g id="admin1">

<g id="FR">
  <desc xmlns="http://www.highcharts.com/svg/namespace">
    <name>France</name>
    <labelrank>2</labelrank>
    <country-abbrev>Fr.</country-abbrev>
    <subregion>Western Europe</subregion>
    <region-wb>Europe &amp; Central Asia</region-wb>
    <iso-a3>FRA</iso-a3>
    <iso-a2>FR</iso-a2>
    <woe-id>-90</woe-id>
    <continent>Europe</continent>
    <hc-key>fr</hc-key>
    <hc-a2>FR</hc-a2>
  </desc>
</g>

<path fill="#CEE3F5" stroke="#6E6E6E" stroke-width="0.4" id="FR.T" d="M175.5,400.1 L178.3,401.1 L178.6,405.6 L181.1,408.7 L178.9,415.3 L176.3,409.8 L170.2,401.9 L169.0,395.6 Z M166.4,379.7 L165.0,381.7 L175.1,383.7 L177.9,387.4 L173.4,386.7 L168.2,383.0 L164.2,383.0 L161.6,379.3 Z M205.2,456.0 L202.9,447.7 L198.3,440.3 L190.6,434.1 L190.3,432.2 L179.3,423.7 L176.3,423.5 L177.6,417.0 L182.5,416.2 L187.1,421.7 L190.9,423.7 L183.6,416.1 L182.3,411.2 L186.9,408.5 L187.3,403.7 L185.2,399.3 L188.1,399.6 L186.4,392.7 L183.6,388.4 L180.9,387.8 L182.3,382.2 L186.2,380.1 L186.0,375.9 L188.3,373.5 L194.5,372.2 L195.9,375.6 L202.4,375.1 L206.0,377.7 L212.5,375.8 L217.4,372.7 L213.3,368.3 L213.3,360.9 L214.7,358.4 L212.7,347.4 L210.0,341.9 L210.4,337.8 L205.6,333.3 L204.2,328.1 L199.0,320.1 L204.2,322.5 L215.5,322.8 L220.1,320.4 L219.9,317.5 L229.8,315.8 L240.5,315.2 L243.8,318.8 L247.4,315.8 L250.3,311.1 L254.2,311.5 L255.4,314.1 L260.8,315.9 L261.1,319.6 L266.9,320.8 L266.8,328.1 L273.6,329.9 L280.7,328.4 L282.0,324.6 L286.7,327.6 L288.8,332.9 L295.0,342.8 L298.4,346.1 L299.3,356.0 L305.9,362.6 L309.3,362.7 L311.9,365.5 L311.5,368.4 L314.3,371.3 L313.2,374.6 L306.0,377.1 L302.5,382.6 L297.2,383.2 L291.5,387.5 L293.4,393.8 L291.6,394.4 L292.1,399.6 L294.2,403.4 L296.3,403.4 L298.4,407.3 L295.7,410.4 L291.9,411.2 L289.6,421.5 L287.0,420.6 L281.7,427.9 L277.6,432.7 L274.9,433.7 L273.7,439.6 L269.3,445.6 L261.5,449.7 L259.5,454.7 L259.0,460.5 L251.7,466.6 L248.8,465.9 L244.6,468.1 L242.5,473.7 L234.5,474.9 L225.4,469.3 L222.2,469.2 L220.9,462.5 L218.4,459.7 L214.2,458.7 L212.2,454.4 L210.1,456.2 Z">
  <desc xmlns="http://www.highcharts.com/svg/namespace">
    <name>Poitou-Charentes</name>
    <hc-middle-x>0.56</hc-middle-x>
    <hc-middle-y>0.42</hc-middle-y>
    <hc-key>fr-t</hc-key>
    <hc-a2>PC</hc-a2>
  </desc>
</path>

<path fill="#CEE3F5" stroke="#6E6E6E" stroke-width="0.4" id="FR.E" d="M81.9,287.2 L84.3,289.8 L78.6,289.4 L75.0,287.6 L75.0,281.6 Z M118.1,280.2 L116.3,274.1 L106.5,275.2 L99.1,275.1 L94.4,270.0 L103.5,271.2 L106.6,267.2 L102.1,264.9 L93.1,266.4 L92.8,269.7 L90.1,266.7 L85.7,267.8 L83.7,265.9 L82.6,272.2 L84.5,275.7 L81.9,275.4 L82.2,265.8 L79.4,262.8 L80.2,259.0 L84.5,257.5 L83.3,253.5 L79.2,257.6 L78.1,260.8 L73.4,256.3 L71.2,255.9 L75.8,250.1 L66.4,256.0 L62.5,249.6 L57.7,249.3 L52.2,246.0 L49.3,247.4 L45.2,246.4 L41.4,239.1 L35.7,241.2 L32.1,238.8 L25.1,244.5 L17.3,243.3 L19.0,239.0 L15.2,229.5 L10.3,225.0 L0.0,222.8 L2.6,220.9 L20.2,218.7 L24.0,219.7 L24.0,212.6 L16.1,207.6 L11.6,212.5 L11.1,206.0 L7.2,205.3 L12.0,202.7 L19.4,204.7 L30.9,204.9 L28.5,202.9 L23.8,202.5 L27.0,199.5 L19.5,201.0 L17.0,200.2 L22.6,195.2 L19.0,195.4 L8.3,198.8 L4.6,197.3 L1.0,198.6 L0.1,192.4 L1.2,186.6 L4.6,180.7 L8.9,180.1 L13.5,176.7 L21.9,176.4 L25.5,173.9 L27.2,177.0 L36.9,173.3 L40.0,174.8 L40.9,172.7 L45.4,171.4 L45.9,177.5 L48.3,175.8 L51.1,180.2 L54.1,172.2 L62.8,176.6 L66.4,176.9 L66.2,173.2 L69.0,173.0 L66.6,168.6 L70.4,164.9 L77.8,167.0 L83.9,165.5 L85.7,163.7 L86.4,168.3 L90.0,164.8 L92.9,164.4 L93.4,167.9 L96.5,168.2 L95.0,170.7 L100.6,173.3 L99.7,176.0 L105.6,182.5 L105.9,187.3 L111.0,190.7 L109.7,192.8 L112.3,195.0 L118.3,189.5 L133.0,182.2 L134.5,183.0 L131.7,186.7 L136.0,185.3 L137.6,190.9 L141.5,186.8 L146.5,186.1 L149.9,195.5 L151.9,195.7 L147.7,186.7 L150.7,183.0 L157.9,181.8 L157.7,188.9 L163.8,190.0 L171.0,188.3 L173.7,197.3 L177.6,202.8 L181.2,202.6 L187.6,197.8 L197.4,201.2 L197.1,215.7 L195.2,219.7 L196.5,227.2 L196.1,233.9 L197.3,241.1 L190.3,244.0 L185.1,258.1 L179.7,256.9 L173.9,254.1 L166.7,257.5 L161.4,261.7 L154.8,263.4 L151.6,262.4 L139.7,265.9 L137.6,274.3 L133.1,278.9 L131.9,276.8 L127.0,276.9 L125.0,279.8 Z">
  <desc xmlns="http://www.highcharts.com/svg/namespace">
    <name>Bretagne</name>
    <hc-middle-x>0.50</hc-middle-x>
    <hc-middle-y>0.46</hc-middle-y>
    <hc-key>fr-e</hc-key>
    <hc-a2>BR</hc-a2>
  </desc>
</path>

<path fill="#CEE3F5" stroke="#6E6E6E" stroke-width="0.4" id="FR.R" d="M130.2,319.2 L132.6,320.9 L131.6,324.2 L129.9,320.4 L127.0,320.0 L124.8,314.3 L129.9,315.4 Z M186.0,375.9 L182.8,374.5 L180.7,378.2 L172.3,371.7 L167.9,372.3 L165.2,366.1 L158.5,364.7 L149.0,358.4 L146.7,347.7 L144.1,343.0 L141.2,341.3 L136.9,334.5 L133.3,332.0 L132.9,327.8 L134.8,323.2 L137.8,321.3 L141.4,313.9 L136.4,308.5 L128.3,305.8 L132.6,304.1 L133.9,295.2 L140.3,294.5 L145.0,295.9 L153.7,301.9 L147.4,294.9 L141.8,292.5 L134.3,292.5 L126.9,297.4 L122.0,293.8 L117.7,295.1 L118.6,291.9 L112.5,285.4 L117.0,283.1 L121.7,282.8 L118.1,280.2 L125.0,279.8 L127.0,276.9 L131.9,276.8 L133.1,278.9 L137.6,274.3 L139.7,265.9 L151.6,262.4 L154.8,263.4 L161.4,261.7 L166.7,257.5 L173.9,254.1 L179.7,256.9 L185.1,258.1 L190.3,244.0 L197.3,241.1 L196.1,233.9 L196.5,227.2 L195.2,219.7 L197.1,215.7 L197.4,201.2 L208.9,201.6 L211.5,205.8 L214.4,206.7 L219.3,204.4 L220.5,205.9 L225.1,205.1 L228.1,202.6 L235.9,203.7 L241.6,201.1 L242.5,198.4 L245.8,199.8 L246.5,204.3 L251.5,209.1 L251.5,213.2 L256.8,213.6 L264.8,207.4 L269.5,206.4 L274.3,208.6 L275.0,217.9 L280.0,220.2 L280.7,223.0 L289.5,225.2 L292.5,229.5 L296.4,230.3 L302.4,234.1 L298.0,237.0 L296.0,240.8 L298.2,243.1 L298.1,248.9 L294.7,252.6 L292.6,262.1 L286.6,265.8 L285.2,270.8 L276.3,274.8 L272.7,274.5 L271.9,278.0 L265.0,276.0 L263.6,284.0 L260.6,291.6 L260.8,293.8 L256.3,300.9 L254.2,311.5 L250.3,311.1 L247.4,315.8 L243.8,318.8 L240.5,315.2 L229.8,315.8 L219.9,317.5 L220.1,320.4 L215.5,322.8 L204.2,322.5 L199.0,320.1 L204.2,328.1 L205.6,333.3 L210.4,337.8 L210.0,341.9 L212.7,347.4 L214.7,358.4 L213.3,360.9 L213.3,368.3 L217.4,372.7 L212.5,375.8 L206.0,377.7 L202.4,375.1 L195.9,375.6 L194.5,372.2 L188.3,373.5 Z">
  <desc xmlns="http://www.highcharts.com/svg/namespace">
    <name>Pays de la Loire</name>
    <hc-middle-x>0.54</hc-middle-x>
    <hc-middle-y>0.40</hc-middle-y>
    <hc-key>fr-r</hc-key>
    <hc-a2>PD</hc-a2>
  </desc>
</path>

<path fill="#CEE3F5" stroke="#6E6E6E" stroke-width="0.4" id="FR.U" d="M527.6,540.1 L522.8,540.2 L522.2,536.7 L525.0,531.8 L528.1,531.2 L531.1,535.6 Z M619.2,472.1 L617.8,473.7 L621.4,479.5 L625.0,480.6 L625.5,487.4 L628.5,490.5 L633.6,492.8 L637.4,492.2 L641.8,495.1 L641.4,497.4 L645.1,506.0 L640.9,505.6 L639.1,511.0 L633.7,517.5 L633.4,521.1 L638.2,526.2 L635.5,531.5 L643.5,541.8 L645.6,541.3 L658.4,547.3 L666.0,549.9 L681.6,544.8 L681.0,547.4 L684.1,551.9 L681.0,559.4 L677.0,563.6 L672.7,570.1 L674.5,575.9 L670.9,580.0 L667.2,580.0 L665.0,584.9 L660.7,584.7 L657.8,588.6 L654.7,588.0 L653.4,591.9 L654.4,596.0 L651.4,595.0 L648.6,597.7 L644.9,597.1 L642.1,605.0 L638.7,607.8 L631.2,608.8 L630.7,613.4 L623.9,619.1 L629.8,620.3 L629.0,625.4 L625.0,627.9 L620.9,627.3 L619.0,629.9 L611.6,631.4 L611.5,635.0 L605.9,633.0 L599.1,635.4 L598.6,638.9 L596.0,636.2 L591.2,636.8 L586.0,632.5 L582.4,633.8 L586.1,637.6 L581.3,639.8 L576.8,637.2 L578.9,635.6 L571.7,632.0 L567.9,628.9 L566.7,631.1 L562.2,627.5 L551.1,627.1 L552.3,622.7 L550.3,617.7 L547.7,616.0 L544.5,618.3 L534.4,618.6 L530.8,614.4 L533.7,611.1 L540.5,610.4 L543.2,604.3 L539.9,606.1 L536.4,602.2 L531.9,600.2 L530.8,603.5 L534.0,608.7 L532.0,611.5 L526.2,609.8 L520.8,614.6 L520.1,617.4 L511.1,617.5 L505.3,615.8 L505.9,611.1 L502.0,609.1 L496.0,609.8 L485.3,609.1 L486.5,605.7 L498.1,598.6 L496.9,595.7 L500.9,589.1 L507.0,589.8 L509.3,581.8 L508.8,575.8 L518.2,569.0 L520.6,564.2 L516.4,558.6 L513.6,558.5 L512.9,550.2 L509.1,543.0 L509.0,539.4 L514.0,539.3 L517.9,545.4 L531.7,541.3 L538.7,541.0 L538.2,545.0 L550.7,548.3 L551.6,550.9 L558.2,554.5 L562.9,549.8 L567.8,551.4 L568.1,543.2 L564.5,539.8 L554.9,534.7 L553.0,530.4 L556.7,530.4 L555.4,525.2 L562.0,526.4 L565.9,522.9 L563.0,519.6 L565.6,512.7 L573.2,511.4 L575.9,503.7 L583.1,501.3 L583.1,498.8 L591.8,494.7 L604.7,494.0 L605.3,489.6 L602.5,482.7 L596.9,482.4 L597.4,474.4 L603.9,474.0 L609.9,478.1 L613.1,473.9 Z">
  <desc xmlns="http://www.highcharts.com/svg/namespace">
    <name>Provence-Alpes-Côte-d'Azur</name>
    <hc-middle-x>0.58</hc-middle-x>
    <hc-middle-y>0.56</hc-middle-y>
    <hc-key>fr-u</hc-key>
    <hc-a2>PA</hc-a2>
  </desc>
</path>

<path fill="#CEE3F5" stroke="#6E6E6E" stroke-width="0.4" id="FR.N" d="M234.1,616.7 L232.5,615.0 L233.5,612.2 L235.6,613.7 Z M232.6,623.1 L231.1,622.2 L232.5,618.5 L234.3,621.2 Z M340.9,680.2 L338.7,676.8 L332.0,676.1 L328.2,673.5 L323.7,674.1 L321.4,677.7 L317.5,670.3 L315.1,668.2 L304.2,667.7 L300.4,662.8 L291.8,662.0 L285.5,658.0 L276.3,657.2 L274.8,664.7 L275.2,669.5 L260.2,669.0 L258.3,666.4 L253.5,670.1 L251.4,666.7 L247.4,665.3 L235.0,668.2 L230.4,665.5 L228.1,659.1 L223.8,659.7 L219.8,656.0 L219.4,650.3 L221.2,643.5 L227.5,639.0 L227.3,635.4 L234.0,629.2 L237.4,622.8 L237.5,618.3 L240.5,616.1 L239.9,609.4 L236.6,609.4 L238.6,606.4 L237.0,601.3 L233.5,597.0 L226.2,595.7 L224.5,592.8 L229.0,583.7 L230.0,575.5 L227.8,571.4 L231.2,568.4 L235.1,568.8 L239.6,565.5 L240.4,569.3 L244.0,570.8 L247.7,565.0 L250.1,566.1 L253.9,562.2 L259.2,564.0 L268.1,559.7 L275.4,558.6 L279.2,561.5 L284.0,559.3 L288.6,552.8 L292.9,552.9 L296.1,542.6 L292.8,539.9 L294.9,534.6 L302.4,535.7 L303.4,531.4 L301.7,529.4 L300.5,521.3 L307.4,516.1 L310.0,511.5 L316.5,508.1 L320.5,501.0 L325.3,495.0 L324.7,487.0 L326.7,484.5 L330.8,482.2 L335.3,483.5 L341.1,489.1 L345.9,491.4 L352.1,488.7 L360.7,488.2 L362.5,497.0 L366.2,504.3 L364.6,510.4 L367.3,515.8 L374.2,512.8 L376.8,514.2 L382.9,513.5 L387.7,508.1 L391.0,499.7 L398.5,491.7 L401.7,497.6 L403.8,497.2 L408.7,506.0 L409.8,511.2 L412.9,515.0 L417.8,521.4 L419.6,528.6 L422.1,532.8 L421.2,536.8 L422.4,542.2 L421.1,545.4 L426.8,548.5 L428.4,551.1 L434.2,550.9 L435.7,552.9 L430.5,559.5 L436.7,562.3 L439.5,566.3 L432.6,575.1 L429.9,575.4 L425.0,581.3 L417.1,581.6 L417.0,590.2 L410.2,590.9 L407.4,594.1 L401.0,596.9 L393.2,595.7 L392.2,601.6 L394.3,604.6 L394.1,609.4 L388.9,612.4 L377.2,612.2 L371.1,610.8 L368.4,615.4 L361.0,614.7 L357.7,612.2 L349.6,614.4 L347.1,612.0 L344.7,618.3 L340.7,619.5 L337.9,626.2 L339.2,631.0 L342.4,633.6 L351.1,636.5 L353.2,640.4 L354.8,649.1 L351.9,651.1 L354.0,656.8 L348.6,658.3 L347.3,660.5 L350.1,665.3 L354.7,667.4 L360.2,666.9 L365.0,672.4 L355.4,673.4 L351.4,680.1 Z">
  <desc xmlns="http://www.highcharts.com/svg/namespace">
    <name>Midi-Pyrénées</name>
    <hc-middle-x>0.51</hc-middle-x>
    <hc-middle-y>0.49</hc-middle-y>
    <hc-key>fr-n</hc-key>
    <hc-a2>MP</hc-a2>
  </desc>
</path>

<path fill="#CEE3F5" stroke="#6E6E6E" stroke-width="0.4" id="FR.P" d="M197.4,201.2 L187.6,197.8 L181.2,202.6 L177.6,202.8 L173.7,197.3 L171.0,188.3 L175.7,189.0 L182.6,187.4 L175.6,183.8 L173.4,180.0 L173.0,169.8 L175.1,157.4 L173.3,158.6 L172.2,151.4 L173.4,148.2 L173.1,141.6 L171.2,141.0 L170.5,136.5 L167.8,132.2 L162.6,127.2 L163.0,123.3 L159.9,116.3 L162.3,113.1 L161.4,105.9 L157.5,104.3 L158.3,100.7 L163.2,101.7 L164.5,103.7 L175.5,107.5 L180.0,107.0 L183.1,104.0 L186.4,103.3 L192.6,104.8 L194.5,110.9 L190.1,115.9 L192.2,121.3 L195.9,126.5 L195.7,132.4 L199.8,133.2 L201.6,129.5 L208.5,130.2 L214.5,132.9 L228.9,133.9 L235.9,135.5 L245.7,141.0 L255.5,138.2 L261.2,135.3 L266.0,131.0 L273.0,129.7 L273.2,139.4 L276.6,143.6 L275.0,146.6 L278.8,154.2 L276.3,160.5 L278.3,162.6 L278.7,167.4 L276.8,171.5 L278.1,174.0 L284.3,175.5 L287.1,174.7 L290.5,180.8 L294.8,183.1 L293.9,188.1 L298.4,192.1 L300.0,198.7 L305.0,203.6 L306.6,210.8 L301.9,216.6 L296.2,218.4 L296.4,225.0 L298.0,228.5 L296.4,230.3 L292.5,229.5 L289.5,225.2 L280.7,223.0 L280.0,220.2 L275.0,217.9 L274.3,208.6 L269.5,206.4 L264.8,207.4 L256.8,213.6 L251.5,213.2 L251.5,209.1 L246.5,204.3 L245.8,199.8 L242.5,198.4 L241.6,201.1 L235.9,203.7 L228.1,202.6 L225.1,205.1 L220.5,205.9 L219.3,204.4 L214.4,206.7 L211.5,205.8 L208.9,201.6 Z">
  <desc xmlns="http://www.highcharts.com/svg/namespace">
    <name>Basse-Normandie</name>
    <hc-middle-x>0.45</hc-middle-x>
    <hc-middle-y>0.53</hc-middle-y>
    <hc-key>fr-p</hc-key>
    <hc-a2>BN</hc-a2>
  </desc>
</path>

<path fill="#CEE3F5" stroke="#6E6E6E" stroke-width="0.4" id="FR.O" d="M346.5,59.3 L342.2,56.6 L340.2,53.9 L341.2,50.7 L341.9,40.4 L341.0,32.1 L343.4,23.2 L342.2,16.9 L345.9,15.3 L349.9,11.0 L362.2,6.1 L370.4,5.2 L380.0,2.1 L383.0,2.5 L389.9,0.0 L391.7,6.9 L394.3,10.1 L392.6,14.1 L393.3,19.7 L398.4,22.3 L403.2,29.2 L409.0,30.8 L412.6,26.4 L419.3,24.3 L421.4,25.5 L425.7,34.6 L427.8,44.9 L431.5,47.6 L437.6,45.4 L439.5,48.0 L445.1,48.8 L446.9,51.3 L447.9,61.3 L449.7,63.0 L452.0,59.4 L457.0,59.2 L459.9,60.7 L466.3,59.6 L471.7,66.0 L475.7,66.4 L473.4,69.6 L471.9,76.3 L474.7,76.4 L476.3,81.7 L472.3,85.2 L472.4,88.6 L465.4,87.3 L464.2,83.4 L459.7,85.1 L458.0,83.3 L449.2,82.1 L446.4,83.8 L442.6,83.0 L437.1,85.7 L432.7,84.4 L430.3,85.5 L422.1,85.5 L415.7,81.2 L412.2,84.0 L406.4,85.4 L404.9,81.5 L402.0,83.9 L401.3,79.1 L399.1,76.7 L398.1,80.8 L391.8,78.0 L392.1,76.6 L386.2,76.7 L383.5,79.4 L381.9,76.0 L386.7,71.4 L379.8,67.9 L375.1,70.0 L368.5,70.5 L365.7,66.9 L357.1,61.5 L353.6,58.2 Z">
  <desc xmlns="http://www.highcharts.com/svg/namespace">
    <name>Nord-Pas-de-Calais</name>
    <hc-middle-x>0.35</hc-middle-x>
    <hc-middle-y>0.56</hc-middle-y>
    <hc-key>fr-o</hc-key>
    <hc-a2>NP</hc-a2>
  </desc>
</path>

<path fill="#CEE3F5" stroke="#6E6E6E" stroke-width="0.4" id="FR.V" d="M583.0,370.1 L587.5,374.5 L585.3,383.7 L578.1,386.7 L579.6,389.9 L578.4,393.2 L582.2,391.6 L586.6,392.2 L595.9,383.7 L592.6,379.5 L596.2,373.0 L600.8,374.7 L607.4,369.7 L618.3,368.1 L623.3,368.7 L621.5,374.2 L626.1,380.0 L624.3,383.9 L623.6,390.9 L628.1,391.7 L628.2,397.5 L631.8,397.4 L635.8,401.5 L638.2,407.0 L635.5,411.6 L626.3,415.5 L626.4,424.1 L629.2,426.8 L636.1,429.9 L635.8,434.3 L637.7,440.2 L648.1,447.7 L644.6,454.8 L645.8,459.9 L642.7,463.6 L637.5,464.3 L631.4,471.0 L625.2,469.1 L619.2,472.1 L613.1,473.9 L609.9,478.1 L603.9,474.0 L597.4,474.4 L596.9,482.4 L602.5,482.7 L605.3,489.6 L604.7,494.0 L591.8,494.7 L583.1,498.8 L583.1,501.3 L575.9,503.7 L573.2,511.4 L565.6,512.7 L563.0,519.6 L565.9,522.9 L562.0,526.4 L555.4,525.2 L556.7,530.4 L553.0,530.4 L554.9,534.7 L564.5,539.8 L568.1,543.2 L567.8,551.4 L562.9,549.8 L558.2,554.5 L551.6,550.9 L550.7,548.3 L538.2,545.0 L538.7,541.0 L531.7,541.3 L517.9,545.4 L514.0,539.3 L509.0,539.4 L509.1,543.0 L501.2,538.7 L498.0,538.8 L494.8,542.3 L494.1,539.5 L490.5,539.4 L485.8,543.4 L478.8,539.5 L473.9,539.6 L474.1,533.8 L470.9,529.5 L469.2,523.3 L466.6,519.8 L463.5,508.5 L463.7,506.2 L467.9,500.7 L472.2,497.3 L479.5,496.0 L482.9,489.3 L487.5,488.0 L487.8,484.3 L491.1,483.3 L492.3,475.0 L494.3,476.5 L497.4,467.7 L490.7,464.1 L490.2,459.3 L487.3,454.6 L484.7,456.2 L479.3,455.2 L477.5,457.6 L470.5,458.7 L468.7,456.8 L464.9,458.7 L465.1,453.2 L468.5,447.7 L465.7,440.2 L459.1,434.5 L453.0,423.3 L454.8,415.1 L451.9,409.9 L457.5,408.0 L459.5,405.7 L456.8,387.8 L463.1,384.3 L463.8,389.4 L468.4,392.1 L473.0,390.9 L480.1,391.0 L485.6,392.3 L490.8,388.0 L492.0,382.8 L503.0,384.8 L504.7,381.8 L508.5,385.9 L509.5,390.6 L513.8,391.8 L514.8,385.0 L517.6,378.5 L520.9,365.3 L527.9,365.8 L534.2,364.6 L541.6,368.4 L542.2,372.2 L545.4,375.9 L550.7,379.0 L553.1,383.6 L560.5,376.7 L565.3,382.4 L573.6,381.8 Z M527.6,540.1 L531.1,535.6 L528.1,531.2 L525.0,531.8 L522.2,536.7 L522.8,540.2 Z">
  <desc xmlns="http://www.highcharts.com/svg/namespace">
    <name>Rhône-Alpes</name>
    <hc-middle-x>0.44</hc-middle-x>
    <hc-middle-y>0.42</hc-middle-y>
    <hc-key>fr-v</hc-key>
    <hc-a2>RA</hc-a2>
  </desc>
</path>

<path fill="#CEE3F5" stroke="#6E6E6E" stroke-width="0.4" id="FR.S" d="M472.4,88.6 L475.3,90.1 L476.7,90.2 L478.5,98.1 L476.6,104.2 L477.8,108.3 L472.0,114.7 L468.4,116.6 L469.8,121.2 L468.3,127.6 L469.9,130.8 L467.9,132.5 L468.7,137.3 L463.8,137.6 L459.8,136.2 L458.4,139.1 L450.8,140.8 L448.0,142.6 L449.6,150.4 L452.9,152.4 L450.9,155.1 L447.4,155.1 L444.9,163.9 L449.0,166.1 L441.0,175.4 L439.2,178.9 L436.1,178.7 L432.8,172.9 L430.9,173.3 L423.3,166.6 L421.4,159.5 L418.2,158.5 L412.9,160.7 L402.7,160.1 L400.7,161.5 L394.4,159.1 L392.1,160.1 L379.2,152.7 L374.1,153.7 L365.9,149.8 L361.7,152.0 L355.6,153.1 L347.9,151.3 L345.9,147.9 L347.4,144.8 L350.4,146.4 L347.3,135.9 L347.1,132.5 L349.6,125.8 L347.0,125.6 L345.6,114.8 L347.6,113.3 L345.9,109.6 L349.5,105.2 L345.9,95.3 L337.6,86.2 L330.3,80.9 L335.1,75.6 L336.4,71.4 L339.9,68.9 L345.0,71.5 L345.6,68.8 L339.3,64.1 L339.9,58.4 L342.2,56.6 L346.5,59.3 L353.6,58.2 L357.1,61.5 L365.7,66.9 L368.5,70.5 L375.1,70.0 L379.8,67.9 L386.7,71.4 L381.9,76.0 L383.5,79.4 L386.2,76.7 L392.1,76.6 L391.8,78.0 L398.1,80.8 L399.1,76.7 L401.3,79.1 L402.0,83.9 L404.9,81.5 L406.4,85.4 L412.2,84.0 L415.7,81.2 L422.1,85.5 L430.3,85.5 L432.7,84.4 L437.1,85.7 L442.6,83.0 L446.4,83.8 L449.2,82.1 L458.0,83.3 L459.7,85.1 L464.2,83.4 L465.4,87.3 Z">
  <desc xmlns="http://www.highcharts.com/svg/namespace">
    <name>Picardie</name>
    <hc-middle-x>0.46</hc-middle-x>
    <hc-middle-y>0.49</hc-middle-y>
    <hc-key>fr-s</hc-key>
    <hc-a2>PI</hc-a2>
  </desc>
</path>

<path fill="#CEE3F5" stroke="#6E6E6E" stroke-width="0.4" id="FR.G" d="M439.2,178.9 L441.0,175.4 L449.0,166.1 L444.9,163.9 L447.4,155.1 L450.9,155.1 L452.9,152.4 L449.6,150.4 L448.0,142.6 L450.8,140.8 L458.4,139.1 L459.8,136.2 L463.8,137.6 L468.7,137.3 L467.9,132.5 L469.9,130.8 L468.3,127.6 L469.8,121.2 L468.4,116.6 L472.0,114.7 L477.8,108.3 L476.6,104.2 L478.5,98.1 L476.7,90.2 L479.9,89.6 L488.1,91.7 L499.4,87.0 L500.5,79.3 L505.9,73.7 L510.2,74.6 L506.2,88.0 L509.2,91.3 L509.0,98.0 L510.2,102.9 L514.9,102.0 L521.8,105.3 L527.7,110.7 L531.2,109.9 L533.3,112.2 L533.4,116.1 L538.2,116.3 L533.7,121.2 L523.2,120.4 L521.8,125.5 L524.2,131.7 L520.7,139.0 L521.2,143.1 L517.6,146.8 L516.5,152.4 L518.4,161.8 L520.9,164.5 L519.5,171.2 L515.3,175.4 L515.3,182.7 L518.8,185.6 L520.2,193.1 L521.9,196.0 L530.1,201.9 L538.6,205.0 L544.6,211.3 L543.6,217.9 L547.6,216.7 L551.9,221.9 L554.7,222.0 L558.9,227.4 L556.4,236.4 L563.5,242.4 L564.2,247.0 L566.9,246.6 L569.3,249.3 L565.7,255.0 L560.2,259.3 L559.7,268.9 L553.7,271.9 L549.0,270.1 L544.7,271.1 L542.4,276.2 L537.0,277.8 L536.5,275.8 L531.0,271.2 L526.3,272.5 L523.7,269.1 L520.4,270.0 L518.1,263.7 L521.1,261.4 L515.8,252.7 L510.2,246.0 L505.1,244.1 L500.4,244.8 L496.8,248.8 L485.2,250.6 L483.2,252.4 L479.4,248.6 L478.6,251.2 L471.4,251.4 L469.8,252.7 L462.8,251.5 L462.2,247.7 L458.5,246.7 L459.8,244.9 L452.4,233.7 L450.4,235.4 L445.1,232.3 L446.4,226.2 L441.9,219.7 L436.5,217.3 L435.1,213.9 L435.9,204.7 L438.0,204.2 L442.5,197.8 L438.8,195.8 L437.9,188.9 L435.1,186.9 L435.6,181.8 Z">
  <desc xmlns="http://www.highcharts.com/svg/namespace">
    <name>Champagne-Ardenne</name>
    <hc-middle-x>0.33</hc-middle-x>
    <hc-middle-y>0.47</hc-middle-y>
    <hc-key>fr-g</hc-key>
    <hc-a2>CA</hc-a2>
  </desc>
</path>

<path fill="#CEE3F5" stroke="#6E6E6E" stroke-width="0.4" id="FR.K" d="M340.9,680.2 L351.4,680.1 L355.4,673.4 L365.0,672.4 L360.2,666.9 L354.7,667.4 L350.1,665.3 L347.3,660.5 L348.6,658.3 L354.0,656.8 L351.9,651.1 L354.8,649.1 L353.2,640.4 L351.1,636.5 L342.4,633.6 L339.2,631.0 L337.9,626.2 L340.7,619.5 L344.7,618.3 L347.1,612.0 L349.6,614.4 L357.7,612.2 L361.0,614.7 L368.4,615.4 L371.1,610.8 L377.2,612.2 L388.9,612.4 L394.1,609.4 L394.3,604.6 L392.2,601.6 L393.2,595.7 L401.0,596.9 L407.4,594.1 L410.2,590.9 L417.0,590.2 L417.1,581.6 L425.0,581.3 L429.9,575.4 L432.6,575.1 L439.5,566.3 L436.7,562.3 L430.5,559.5 L435.7,552.9 L434.2,550.9 L428.4,551.1 L426.8,548.5 L421.1,545.4 L422.4,542.2 L421.2,536.8 L422.1,532.8 L419.6,528.6 L417.8,521.4 L412.9,515.0 L415.2,510.0 L416.6,503.2 L419.7,496.0 L422.8,496.9 L427.9,492.8 L435.5,489.9 L440.2,499.5 L442.0,501.2 L446.9,499.8 L447.5,497.2 L451.2,496.8 L451.6,499.9 L456.0,501.0 L463.7,506.2 L463.5,508.5 L466.6,519.8 L469.2,523.3 L470.9,529.5 L474.1,533.8 L473.9,539.6 L478.8,539.5 L485.8,543.4 L490.5,539.4 L494.1,539.5 L494.8,542.3 L498.0,538.8 L501.2,538.7 L509.1,543.0 L512.9,550.2 L513.6,558.5 L516.4,558.6 L520.6,564.2 L518.2,569.0 L508.8,575.8 L509.3,581.8 L507.0,589.8 L500.9,589.1 L496.9,595.7 L498.1,598.6 L486.5,605.7 L485.3,609.1 L479.9,606.9 L478.2,601.8 L471.6,601.9 L468.6,603.4 L457.1,613.1 L450.3,616.2 L444.0,623.7 L436.5,623.5 L428.3,628.7 L420.7,637.8 L416.3,650.8 L417.3,653.7 L416.2,671.6 L417.1,681.8 L422.1,684.2 L424.7,691.6 L417.9,691.6 L415.8,688.9 L410.1,688.6 L400.3,693.4 L395.7,693.6 L392.7,696.3 L394.0,699.0 L387.3,697.9 L385.9,700.0 L382.3,698.8 L379.8,695.3 L371.3,691.7 L363.0,692.6 L357.9,697.7 L352.7,696.4 L350.6,690.8 L337.6,685.4 Z">
  <desc xmlns="http://www.highcharts.com/svg/namespace">
    <name>Languedoc-Roussillon</name>
    <hc-middle-x>0.27</hc-middle-x>
    <hc-middle-y>0.78</hc-middle-y>
    <hc-key>fr-k</hc-key>
    <hc-a2>LR</hc-a2>
  </desc>
</path>

<path fill="#CEE3F5" stroke="#6E6E6E" stroke-width="0.4" id="FR.A" d="M658.1,156.6 L664.8,155.2 L673.2,155.7 L681.8,159.6 L687.7,160.9 L685.2,165.5 L683.3,172.2 L676.6,177.8 L675.7,181.5 L670.9,186.1 L668.9,189.7 L669.5,197.3 L667.7,199.1 L666.1,206.6 L667.1,210.6 L664.7,214.3 L663.7,220.2 L660.6,225.2 L658.8,232.0 L661.7,239.2 L659.0,249.3 L657.8,257.1 L658.1,266.1 L662.0,270.9 L661.9,272.7 L656.5,276.4 L656.0,281.3 L651.4,285.7 L644.2,287.1 L640.0,285.3 L638.4,281.8 L638.5,278.3 L634.5,273.8 L632.2,273.5 L632.4,263.9 L623.1,258.3 L622.2,256.1 L625.1,254.0 L624.6,250.9 L626.5,244.0 L628.9,240.5 L632.7,231.0 L631.9,228.9 L638.4,216.5 L637.2,214.3 L633.0,213.7 L633.3,202.3 L631.1,199.2 L636.6,198.1 L640.4,193.9 L641.7,188.1 L639.7,185.8 L642.0,181.2 L641.4,178.5 L635.7,172.5 L630.7,177.7 L630.1,172.9 L624.1,169.5 L623.6,167.1 L626.4,163.6 L628.2,156.4 L632.5,160.5 L639.8,162.7 L642.6,164.9 L649.8,163.3 L654.7,164.2 Z">
  <desc xmlns="http://www.highcharts.com/svg/namespace">
    <name>Alsace</name>
    <hc-middle-x>0.36</hc-middle-x>
    <hc-middle-y>0.60</hc-middle-y>
    <hc-key>fr-a</hc-key>
    <hc-a2>AL</hc-a2>
  </desc>
</path>

<path fill="#CEE3F5" stroke="#6E6E6E" stroke-width="0.4" id="FR.C" d="M412.9,515.0 L409.8,511.2 L408.7,506.0 L403.8,497.2 L401.7,497.6 L398.5,491.7 L391.0,499.7 L387.7,508.1 L382.9,513.5 L376.8,514.2 L374.2,512.8 L367.3,515.8 L364.6,510.4 L366.2,504.3 L362.5,497.0 L360.7,488.2 L364.8,486.9 L363.8,481.6 L367.0,478.7 L369.2,473.6 L368.6,468.5 L377.3,459.3 L379.8,453.4 L385.2,454.7 L387.0,448.2 L384.0,439.8 L387.2,434.6 L387.4,430.7 L382.9,426.0 L380.5,420.2 L386.2,417.0 L391.5,408.9 L389.8,401.0 L390.0,395.7 L384.9,384.9 L377.0,380.2 L372.8,372.9 L374.9,369.1 L380.9,364.9 L392.7,362.7 L390.7,354.2 L393.1,353.8 L398.8,348.0 L401.5,349.7 L405.1,348.7 L410.3,344.1 L415.7,343.5 L416.9,346.7 L425.9,351.8 L428.1,350.6 L434.3,351.8 L437.8,350.2 L439.4,354.6 L444.8,352.1 L446.8,347.2 L454.9,357.7 L454.9,362.6 L468.1,369.4 L469.4,380.3 L463.1,384.3 L456.8,387.8 L459.5,405.7 L457.5,408.0 L451.9,409.9 L454.8,415.1 L453.0,423.3 L459.1,434.5 L465.7,440.2 L468.5,447.7 L465.1,453.2 L464.9,458.7 L468.7,456.8 L470.5,458.7 L477.5,457.6 L479.3,455.2 L484.7,456.2 L487.3,454.6 L490.2,459.3 L490.7,464.1 L497.4,467.7 L494.3,476.5 L492.3,475.0 L491.1,483.3 L487.8,484.3 L487.5,488.0 L482.9,489.3 L479.5,496.0 L472.2,497.3 L467.9,500.7 L463.7,506.2 L456.0,501.0 L451.6,499.9 L451.2,496.8 L447.5,497.2 L446.9,499.8 L442.0,501.2 L440.2,499.5 L435.5,489.9 L427.9,492.8 L422.8,496.9 L419.7,496.0 L416.6,503.2 L415.2,510.0 Z">
  <desc xmlns="http://www.highcharts.com/svg/namespace">
    <name>Auvergne</name>
    <hc-middle-x>0.47</hc-middle-x>
    <hc-middle-y>0.44</hc-middle-y>
    <hc-key>fr-c</hc-key>
    <hc-a2>AU</hc-a2>
  </desc>
</path>

<path fill="#CEE3F5" stroke="#6E6E6E" stroke-width="0.4" id="FR.F" d="M415.7,343.5 L410.3,344.1 L405.1,348.7 L401.5,349.7 L398.8,348.0 L393.1,353.8 L390.7,354.2 L392.7,362.7 L380.9,364.9 L374.9,369.1 L372.8,372.9 L364.4,373.2 L352.2,371.2 L349.5,372.6 L345.7,370.2 L344.7,373.9 L337.3,375.3 L336.0,373.2 L331.8,373.0 L326.3,377.8 L322.0,374.0 L315.6,376.1 L313.2,374.6 L314.3,371.3 L311.5,368.4 L311.9,365.5 L309.3,362.7 L305.9,362.6 L299.3,356.0 L298.4,346.1 L295.0,342.8 L288.8,332.9 L286.7,327.6 L282.0,324.6 L280.7,328.4 L273.6,329.9 L266.8,328.1 L266.9,320.8 L261.1,319.6 L260.8,315.9 L255.4,314.1 L254.2,311.5 L256.3,300.9 L260.8,293.8 L260.6,291.6 L263.6,284.0 L265.0,276.0 L271.9,278.0 L272.7,274.5 L276.3,274.8 L285.2,270.8 L286.6,265.8 L292.6,262.1 L294.7,252.6 L298.1,248.9 L298.2,243.1 L296.0,240.8 L298.0,237.0 L302.4,234.1 L296.4,230.3 L298.0,228.5 L296.4,225.0 L296.2,218.4 L301.9,216.6 L306.6,210.8 L305.0,203.6 L300.0,198.7 L298.4,192.1 L301.5,189.4 L308.8,187.9 L313.9,183.8 L322.0,185.8 L326.6,183.0 L328.1,179.6 L332.4,176.5 L332.5,172.3 L334.7,171.0 L338.6,178.6 L338.3,183.2 L340.3,186.2 L338.7,189.9 L341.7,194.9 L347.6,201.4 L350.3,209.0 L356.6,210.9 L356.7,213.5 L360.7,221.0 L360.1,224.4 L367.8,222.7 L371.8,219.6 L374.4,222.3 L377.6,220.5 L382.0,221.6 L384.0,226.8 L388.0,230.3 L387.2,234.6 L384.6,236.1 L397.2,237.0 L402.7,234.1 L404.7,236.4 L410.0,234.4 L414.5,235.5 L416.4,240.8 L420.0,244.8 L418.6,251.0 L413.6,254.9 L414.0,262.8 L405.1,266.9 L405.2,269.6 L409.4,272.6 L410.3,278.1 L412.4,281.4 L406.4,283.3 L410.2,290.6 L407.2,299.8 L412.5,305.5 L417.8,323.1 L418.2,328.9 L417.0,333.7 L418.0,337.1 Z">
  <desc xmlns="http://www.highcharts.com/svg/namespace">
    <name>Centre</name>
    <hc-middle-x>0.54</hc-middle-x>
    <hc-middle-y>0.56</hc-middle-y>
    <hc-key>fr-f</hc-key>
    <hc-a2>CE</hc-a2>
  </desc>
</path>

<path fill="#CEE3F5" stroke="#6E6E6E" stroke-width="0.4" id="FR.L" d="M360.7,488.2 L352.1,488.7 L345.9,491.4 L341.1,489.1 L335.3,483.5 L330.8,482.2 L326.7,484.5 L323.7,480.0 L323.7,475.5 L317.3,473.8 L317.0,469.5 L314.8,469.3 L317.1,465.2 L315.4,460.4 L319.8,455.5 L316.8,454.3 L317.7,450.4 L308.8,446.3 L309.9,442.5 L306.4,441.6 L302.4,436.1 L291.7,437.3 L288.5,435.7 L289.2,431.9 L287.2,429.4 L281.7,427.9 L287.0,420.6 L289.6,421.5 L291.9,411.2 L295.7,410.4 L298.4,407.3 L296.3,403.4 L294.2,403.4 L292.1,399.6 L291.6,394.4 L293.4,393.8 L291.5,387.5 L297.2,383.2 L302.5,382.6 L306.0,377.1 L313.2,374.6 L315.6,376.1 L322.0,374.0 L326.3,377.8 L331.8,373.0 L336.0,373.2 L337.3,375.3 L344.7,373.9 L345.7,370.2 L349.5,372.6 L352.2,371.2 L364.4,373.2 L372.8,372.9 L377.0,380.2 L384.9,384.9 L390.0,395.7 L389.8,401.0 L391.5,408.9 L386.2,417.0 L380.5,420.2 L382.9,426.0 L387.4,430.7 L387.2,434.6 L384.0,439.8 L387.0,448.2 L385.2,454.7 L379.8,453.4 L377.3,459.3 L368.6,468.5 L369.2,473.6 L367.0,478.7 L363.8,481.6 L364.8,486.9 Z">
  <desc xmlns="http://www.highcharts.com/svg/namespace">
    <name>Limousin</name>
    <hc-middle-x>0.59</hc-middle-x>
    <hc-middle-y>0.38</hc-middle-y>
    <hc-key>fr-l</hc-key>
    <hc-a2>LI</hc-a2>
  </desc>
</path>

<path fill="#CEE3F5" stroke="#6E6E6E" stroke-width="0.4" id="FR.D" d="M541.6,368.4 L534.2,364.6 L527.9,365.8 L520.9,365.3 L517.6,378.5 L514.8,385.0 L513.8,391.8 L509.5,390.6 L508.5,385.9 L504.7,381.8 L503.0,384.8 L492.0,382.8 L490.8,388.0 L485.6,392.3 L480.1,391.0 L473.0,390.9 L468.4,392.1 L463.8,389.4 L463.1,384.3 L469.4,380.3 L468.1,369.4 L454.9,362.6 L454.9,357.7 L446.8,347.2 L444.8,352.1 L439.4,354.6 L437.8,350.2 L434.3,351.8 L428.1,350.6 L425.9,351.8 L416.9,346.7 L415.7,343.5 L418.0,337.1 L417.0,333.7 L418.2,328.9 L417.8,323.1 L412.5,305.5 L407.2,299.8 L410.2,290.6 L406.4,283.3 L412.4,281.4 L410.3,278.1 L409.4,272.6 L405.2,269.6 L405.1,266.9 L414.0,262.8 L413.6,254.9 L418.6,251.0 L420.0,244.8 L416.4,240.8 L414.5,235.5 L410.0,234.4 L411.2,230.5 L415.6,225.4 L414.8,221.3 L416.3,218.0 L432.9,216.9 L435.1,213.9 L436.5,217.3 L441.9,219.7 L446.4,226.2 L445.1,232.3 L450.4,235.4 L452.4,233.7 L459.8,244.9 L458.5,246.7 L462.2,247.7 L462.8,251.5 L469.8,252.7 L471.4,251.4 L478.6,251.2 L479.4,248.6 L483.2,252.4 L485.2,250.6 L496.8,248.8 L500.4,244.8 L505.1,244.1 L510.2,246.0 L515.8,252.7 L521.1,261.4 L518.1,263.7 L520.4,270.0 L523.7,269.1 L526.3,272.5 L531.0,271.2 L536.5,275.8 L537.0,277.8 L542.4,276.2 L548.0,276.8 L548.9,282.2 L545.2,285.4 L544.5,288.3 L547.0,290.1 L551.1,301.5 L549.4,309.4 L544.1,318.3 L540.0,320.5 L540.3,323.9 L537.1,326.5 L541.6,332.6 L548.8,336.2 L547.7,338.4 L542.9,340.7 L544.8,342.6 L547.4,354.2 L544.3,359.3 L544.7,362.4 L547.8,364.8 Z">
  <desc xmlns="http://www.highcharts.com/svg/namespace">
    <name>Bourgogne</name>
    <hc-middle-x>0.51</hc-middle-x>
    <hc-middle-y>0.55</hc-middle-y>
    <hc-key>fr-d</hc-key>
    <hc-a2>BO</hc-a2>
  </desc>
</path>

<path fill="#CEE3F5" stroke="#6E6E6E" stroke-width="0.4" id="FR.B" d="M326.7,484.5 L324.7,487.0 L325.3,495.0 L320.5,501.0 L316.5,508.1 L310.0,511.5 L307.4,516.1 L300.5,521.3 L301.7,529.4 L303.4,531.4 L302.4,535.7 L294.9,534.6 L292.8,539.9 L296.1,542.6 L292.9,552.9 L288.6,552.8 L284.0,559.3 L279.2,561.5 L275.4,558.6 L268.1,559.7 L259.2,564.0 L253.9,562.2 L250.1,566.1 L247.7,565.0 L244.0,570.8 L240.4,569.3 L239.6,565.5 L235.1,568.8 L231.2,568.4 L227.8,571.4 L230.0,575.5 L229.0,583.7 L224.5,592.8 L226.2,595.7 L233.5,597.0 L237.0,601.3 L238.6,606.4 L236.6,609.4 L239.9,609.4 L240.5,616.1 L237.5,618.3 L237.4,622.8 L234.0,629.2 L227.3,635.4 L227.5,639.0 L221.2,643.5 L219.4,650.3 L219.8,656.0 L218.8,655.0 L212.7,658.9 L206.3,657.2 L203.3,658.1 L199.7,653.6 L195.0,651.2 L193.5,645.6 L180.5,644.2 L177.9,641.7 L170.8,639.8 L163.7,636.1 L159.6,632.2 L157.3,637.2 L154.2,636.5 L151.4,632.7 L155.2,628.6 L157.0,620.1 L148.1,616.3 L143.3,618.3 L141.5,614.3 L137.1,615.1 L134.4,611.0 L134.8,607.4 L142.6,606.8 L146.6,603.5 L154.1,592.9 L163.6,558.3 L168.5,535.9 L171.3,519.8 L170.9,515.7 L175.4,507.1 L183.5,507.2 L182.5,503.3 L177.1,498.1 L172.9,503.7 L171.0,510.0 L176.6,470.7 L179.6,458.2 L181.4,441.4 L184.8,435.3 L186.1,438.7 L193.9,445.2 L201.8,455.5 L203.8,470.0 L205.6,475.7 L210.3,480.1 L214.7,479.9 L208.1,476.1 L206.6,471.4 L205.2,456.0 L210.1,456.2 L212.2,454.4 L214.2,458.7 L218.4,459.7 L220.9,462.5 L222.2,469.2 L225.4,469.3 L234.5,474.9 L242.5,473.7 L244.6,468.1 L248.8,465.9 L251.7,466.6 L259.0,460.5 L259.5,454.7 L261.5,449.7 L269.3,445.6 L273.7,439.6 L274.9,433.7 L277.6,432.7 L281.7,427.9 L287.2,429.4 L289.2,431.9 L288.5,435.7 L291.7,437.3 L302.4,436.1 L306.4,441.6 L309.9,442.5 L308.8,446.3 L317.7,450.4 L316.8,454.3 L319.8,455.5 L315.4,460.4 L317.1,465.2 L314.8,469.3 L317.0,469.5 L317.3,473.8 L323.7,475.5 L323.7,480.0 Z M234.1,616.7 L235.6,613.7 L233.5,612.2 L232.5,615.0 Z M232.6,623.1 L234.3,621.2 L232.5,618.5 L231.1,622.2 Z">
  <desc xmlns="http://www.highcharts.com/svg/namespace">
    <name>Aquitaine</name>
    <hc-middle-x>0.47</hc-middle-x>
    <hc-middle-y>0.44</hc-middle-y>
    <hc-key>fr-b</hc-key>
    <hc-a2>AQ</hc-a2>
  </desc>
</path>

<path fill="#CEE3F5" stroke="#6E6E6E" stroke-width="0.4" id="FR.I" d="M583.0,370.1 L573.6,381.8 L565.3,382.4 L560.5,376.7 L553.1,383.6 L550.7,379.0 L545.4,375.9 L542.2,372.2 L541.6,368.4 L547.8,364.8 L544.7,362.4 L544.3,359.3 L547.4,354.2 L544.8,342.6 L542.9,340.7 L547.7,338.4 L548.8,336.2 L541.6,332.6 L537.1,326.5 L540.3,323.9 L540.0,320.5 L544.1,318.3 L549.4,309.4 L551.1,301.5 L547.0,290.1 L544.5,288.3 L545.2,285.4 L548.9,282.2 L548.0,276.8 L542.4,276.2 L544.7,271.1 L549.0,270.1 L553.7,271.9 L559.7,268.9 L560.2,259.3 L565.7,255.0 L569.3,249.3 L572.6,245.5 L573.5,248.5 L578.7,243.2 L582.8,243.3 L588.2,248.6 L595.1,246.7 L602.0,250.2 L606.2,249.8 L608.0,247.0 L612.7,250.9 L622.2,256.1 L623.1,258.3 L632.4,263.9 L632.2,273.5 L634.5,273.8 L638.5,278.3 L638.4,281.8 L631.1,281.3 L630.3,285.1 L626.9,287.5 L624.0,293.3 L631.4,291.8 L633.7,293.9 L629.2,298.1 L629.3,301.7 L614.7,317.1 L614.3,320.4 L610.8,323.3 L602.4,327.1 L602.9,334.0 L601.5,338.1 L602.3,341.8 L593.6,348.6 L586.5,355.7 L587.4,359.1 L583.2,365.8 Z">
  <desc xmlns="http://www.highcharts.com/svg/namespace">
    <name>Franche-Comté</name>
    <hc-middle-x>0.48</hc-middle-x>
    <hc-middle-y>0.37</hc-middle-y>
    <hc-key>fr-i</hc-key>
    <hc-a2>FC</hc-a2>
  </desc>
</path>

<path fill="#CEE3F5" stroke="#6E6E6E" stroke-width="0.4" id="FR.Q" d="M273.0,129.7 L279.1,128.5 L271.1,127.3 L263.3,124.6 L262.1,120.7 L265.0,115.9 L267.3,108.9 L270.8,106.0 L278.8,102.7 L285.9,98.3 L293.9,95.1 L298.4,95.3 L319.8,89.0 L330.3,80.9 L337.6,86.2 L345.9,95.3 L349.5,105.2 L345.9,109.6 L347.6,113.3 L345.6,114.8 L347.0,125.6 L349.6,125.8 L347.1,132.5 L347.3,135.9 L350.4,146.4 L347.4,144.8 L345.9,147.9 L341.6,159.7 L332.8,162.2 L332.8,167.6 L334.7,171.0 L332.5,172.3 L332.4,176.5 L328.1,179.6 L326.6,183.0 L322.0,185.8 L313.9,183.8 L308.8,187.9 L301.5,189.4 L298.4,192.1 L293.9,188.1 L294.8,183.1 L290.5,180.8 L287.1,174.7 L284.3,175.5 L278.1,174.0 L276.8,171.5 L278.7,167.4 L278.3,162.6 L276.3,160.5 L278.8,154.2 L275.0,146.6 L276.6,143.6 L273.2,139.4 Z">
  <desc xmlns="http://www.highcharts.com/svg/namespace">
    <name>Haute-Normandie</name>
    <hc-middle-x>0.57</hc-middle-x>
    <hc-middle-y>0.44</hc-middle-y>
    <hc-key>fr-q</hc-key>
    <hc-a2>HN</hc-a2>
  </desc>
</path>

<path fill="#CEE3F5" stroke="#6E6E6E" stroke-width="0.4" id="FR.J" d="M334.7,171.0 L332.8,167.6 L332.8,162.2 L341.6,159.7 L345.9,147.9 L347.9,151.3 L355.6,153.1 L361.7,152.0 L365.9,149.8 L374.1,153.7 L379.2,152.7 L392.1,160.1 L394.4,159.1 L400.7,161.5 L402.7,160.1 L412.9,160.7 L418.2,158.5 L421.4,159.5 L423.3,166.6 L430.9,173.3 L432.8,172.9 L436.1,178.7 L439.2,178.9 L435.6,181.8 L435.1,186.9 L437.9,188.9 L438.8,195.8 L442.5,197.8 L438.0,204.2 L435.9,204.7 L435.1,213.9 L432.9,216.9 L416.3,218.0 L414.8,221.3 L415.6,225.4 L411.2,230.5 L410.0,234.4 L404.7,236.4 L402.7,234.1 L397.2,237.0 L384.6,236.1 L387.2,234.6 L388.0,230.3 L384.0,226.8 L382.0,221.6 L377.6,220.5 L374.4,222.3 L371.8,219.6 L367.8,222.7 L360.1,224.4 L360.7,221.0 L356.7,213.5 L356.6,210.9 L350.3,209.0 L347.6,201.4 L341.7,194.9 L338.7,189.9 L340.3,186.2 L338.3,183.2 L338.6,178.6 Z">
  <desc xmlns="http://www.highcharts.com/svg/namespace">
    <name>Île-de-France</name>
    <hc-middle-x>0.49</hc-middle-x>
    <hc-middle-y>0.45</hc-middle-y>
    <hc-key>fr-j</hc-key>
    <hc-a2>ÎD</hc-a2>
  </desc>
</path>

<path fill="#CEE3F5" stroke="#6E6E6E" stroke-width="0.4" id="FR.M" d="M658.1,156.6 L654.7,164.2 L649.8,163.3 L642.6,164.9 L639.8,162.7 L632.5,160.5 L628.2,156.4 L626.4,163.6 L623.6,167.1 L624.1,169.5 L630.1,172.9 L630.7,177.7 L635.7,172.5 L641.4,178.5 L642.0,181.2 L639.7,185.8 L641.7,188.1 L640.4,193.9 L636.6,198.1 L631.1,199.2 L633.3,202.3 L633.0,213.7 L637.2,214.3 L638.4,216.5 L631.9,228.9 L632.7,231.0 L628.9,240.5 L626.5,244.0 L624.6,250.9 L625.1,254.0 L622.2,256.1 L612.7,250.9 L608.0,247.0 L606.2,249.8 L602.0,250.2 L595.1,246.7 L588.2,248.6 L582.8,243.3 L578.7,243.2 L573.5,248.5 L572.6,245.5 L569.3,249.3 L566.9,246.6 L564.2,247.0 L563.5,242.4 L556.4,236.4 L558.9,227.4 L554.7,222.0 L551.9,221.9 L547.6,216.7 L543.6,217.9 L544.6,211.3 L538.6,205.0 L530.1,201.9 L521.9,196.0 L520.2,193.1 L518.8,185.6 L515.3,182.7 L515.3,175.4 L519.5,171.2 L520.9,164.5 L518.4,161.8 L516.5,152.4 L517.6,146.8 L521.2,143.1 L520.7,139.0 L524.2,131.7 L521.8,125.5 L523.2,120.4 L533.7,121.2 L538.2,116.3 L543.0,125.3 L546.6,122.9 L549.5,123.6 L551.6,121.1 L557.4,120.5 L563.2,124.8 L566.5,125.4 L568.3,128.7 L573.7,127.9 L577.3,124.0 L583.2,124.1 L587.3,126.6 L591.3,125.8 L596.2,127.9 L600.6,133.6 L599.4,135.6 L604.4,140.7 L608.0,148.4 L613.7,150.3 L614.7,145.1 L619.6,145.2 L624.1,146.9 L624.9,151.8 L628.2,149.9 L632.0,151.8 L638.0,152.2 L644.1,146.7 L648.7,147.9 L651.3,153.2 Z">
  <desc xmlns="http://www.highcharts.com/svg/namespace">
    <name>Lorraine</name>
    <hc-middle-x>0.43</hc-middle-x>
    <hc-middle-y>0.49</hc-middle-y>
    <hc-key>fr-m</hc-key>
    <hc-a2>LO</hc-a2>
  </desc>
</path>
</g>

<text x="350" y="714" text-anchor="middle" font-family="Verdana" font-size="8" stroke-opacity="0.6">Copyright (c) 2020 Highsoft AS, Based on data from Natural Earth</text>

</svg>