<?xml version="1.0" encoding="utf-8" standalone="no"?>
<!DOCTYPE svg PUBLIC "-//W3C//DTD SVG 1.1//EN" "http://www.w3.org/Graphics/SVG/1.1/DTD/svg11.dtd">

<svg version="1.1" height="700pt" width="700pt" xmlns="http://www.w3.org/2000/svg" xmlns:xlink="http://www.w3.org/1999/xlink">
<desc>
Map version: 1.1.3
Copyright (c) 2020 Highsoft AS, Based on data from Natural Earth
</desc>
<title>Colombia</title>
<g id="admin1">

<g id="CO">
  <desc xmlns="http://www.highcharts.com/svg/namespace">
    <name>Colombia</name>
    <labelrank>2</labelrank>
    <country-abbrev>Col.</country-abbrev>
    <subregion>South America</subregion>
    <region-wb>Latin America &amp; Caribbean</region-wb>
    <iso-a3>COL</iso-a3>
    <iso-a2>CO</iso-a2>
    <woe-id>23424787</woe-id>
    <continent>South America</continent>
    <hc-key>co</hc-key>
    <hc-a2>CO</hc-a2>
  </desc>
</g>

<path fill="#CEE3F5" stroke="#6E6E6E" stroke-width="0.4" id="CO.SA" d="M3.1,3.6 L2.7,1.1 L3.8,0.0 L4.0,0.5 Z">
  <desc xmlns="http://www.highcharts.com/svg/namespace">
    <labelrank>5</labelrank>
    <hasc>CO.SA</hasc>
    <alt-name>Saint Andrew and Providence</alt-name>
    <woe-id>2345070</woe-id>
    <subregion>NULL</subregion>
    <fips>CO17</fips>
    <postal-code>SA</postal-code>
    <name>San Andrés y Providencia</name>
    <country>Colombia</country>
    <type-en>Department</type-en>
    <region>NULL</region>
    <longitude>-81.7049</longitude>
    <woe-name>San Andrés y Providencia</woe-name>
    <latitude>12.5429</latitude>
    <woe-label>San Andres y Providencia, CO, Colombia</woe-label>
    <type>Departamento</type>
    <hc-middle-x>0.31</hc-middle-x>
    <hc-middle-y>0.47</hc-middle-y>
    <hc-key>co-sa</hc-key>
    <hc-a2>SA</hc-a2>
  </desc>
</path>

<path fill="#CEE3F5" stroke="#6E6E6E" stroke-width="0.4" id="CO.CA" d="M158.5,417.9 L155.2,417.2 L156.1,415.3 L159.5,417.2 Z M230.6,391.8 L229.1,396.7 L231.9,399.1 L232.5,403.5 L241.8,412.2 L242.8,414.3 L241.1,420.0 L242.2,422.3 L240.2,424.3 L235.1,421.7 L231.6,424.6 L227.3,426.5 L222.2,427.2 L218.0,424.6 L217.4,426.8 L218.9,430.0 L217.8,433.2 L214.8,437.3 L211.4,436.6 L210.1,437.8 L210.2,441.3 L208.7,443.1 L209.7,446.9 L212.7,449.2 L216.7,454.9 L219.3,456.8 L227.6,459.5 L224.2,464.0 L221.8,469.7 L221.3,475.2 L223.1,477.6 L227.0,477.8 L231.1,481.5 L224.9,484.4 L219.1,484.2 L213.2,482.2 L211.3,480.1 L211.1,474.8 L212.2,471.9 L209.2,466.4 L205.8,465.3 L202.6,469.6 L195.7,470.3 L195.2,462.4 L198.2,460.2 L198.5,458.1 L194.5,453.1 L182.4,455.8 L178.6,454.7 L180.3,447.8 L183.8,443.5 L178.4,438.9 L179.1,434.8 L174.2,432.7 L166.1,435.3 L161.2,435.8 L157.2,434.5 L152.7,426.0 L153.4,422.9 L152.5,418.8 L147.5,415.0 L152.6,413.9 L155.2,415.5 L154.5,417.8 L159.8,417.9 L160.7,416.2 L156.9,415.0 L155.9,412.2 L156.9,411.8 L160.7,416.2 L160.9,415.9 L158.9,413.6 L159.5,408.9 L162.7,406.2 L162.7,403.8 L165.4,404.7 L166.3,401.2 L162.2,401.2 L168.5,394.7 L172.9,388.0 L177.1,393.6 L179.0,393.2 L181.3,395.4 L187.7,392.6 L191.6,393.6 L196.9,396.6 L200.1,395.4 L201.4,392.9 L205.1,395.7 L210.8,396.0 L214.4,393.2 L215.6,387.4 L223.2,388.9 Z">
  <desc xmlns="http://www.highcharts.com/svg/namespace">
    <labelrank>5</labelrank>
    <hasc>CO.CA</hasc>
    <alt-name>NULL</alt-name>
    <woe-id>2345055</woe-id>
    <subregion>NULL</subregion>
    <fips>CO09</fips>
    <postal-code>CA</postal-code>
    <name>Cauca</name>
    <country>Colombia</country>
    <type-en>Department</type-en>
    <region>NULL</region>
    <longitude>-77.277</longitude>
    <woe-name>Cauca</woe-name>
    <latitude>2.61609</latitude>
    <woe-label>Cauca, CO, Colombia</woe-label>
    <type>Departamento</type>
    <hc-middle-x>0.48</hc-middle-x>
    <hc-middle-y>0.26</hc-middle-y>
    <hc-key>co-ca</hc-key>
    <hc-a2>CA</hc-a2>
  </desc>
</path>

<path fill="#CEE3F5" stroke="#6E6E6E" stroke-width="0.4" id="CO.NA" d="M142.0,413.3 L144.5,413.9 L146.5,418.1 L146.1,420.6 L144.0,420.3 L141.5,417.1 Z M187.7,509.9 L183.4,510.8 L176.9,509.1 L174.4,507.7 L172.6,497.7 L169.4,497.4 L165.2,494.9 L164.0,490.7 L161.7,489.7 L156.7,491.1 L154.2,488.8 L145.4,486.4 L140.0,482.4 L134.9,480.1 L131.0,475.8 L126.7,475.0 L125.3,472.2 L122.7,472.1 L118.3,466.8 L115.9,465.1 L114.3,459.9 L112.9,460.5 L107.9,456.7 L115.2,449.1 L118.8,448.7 L126.7,450.8 L127.6,445.0 L125.8,446.0 L126.1,441.7 L124.7,440.4 L122.7,442.4 L121.2,433.8 L127.2,423.1 L132.6,417.4 L136.7,415.0 L139.0,419.3 L139.3,415.5 L142.9,420.4 L146.9,420.6 L146.2,415.2 L147.5,415.0 L152.5,418.8 L153.4,422.9 L152.7,426.0 L157.2,434.5 L161.2,435.8 L166.1,435.3 L174.2,432.7 L179.1,434.8 L178.4,438.9 L183.8,443.5 L180.3,447.8 L178.6,454.7 L182.4,455.8 L194.5,453.1 L198.5,458.1 L198.2,460.2 L195.2,462.4 L195.7,470.3 L193.0,473.4 L188.4,475.5 L188.4,480.2 L190.7,481.5 L188.3,488.0 L182.1,495.7 L187.5,500.4 L186.9,501.8 L188.5,508.2 Z">
  <desc xmlns="http://www.highcharts.com/svg/namespace">
    <labelrank>5</labelrank>
    <hasc>CO.NA</hasc>
    <alt-name>NULL</alt-name>
    <woe-id>2345065</woe-id>
    <subregion>NULL</subregion>
    <fips>CO20</fips>
    <postal-code>NA</postal-code>
    <name>Nariño</name>
    <country>Colombia</country>
    <type-en>Department</type-en>
    <region>NULL</region>
    <longitude>-77.9777</longitude>
    <woe-name>Nariño</woe-name>
    <latitude>1.60168</latitude>
    <woe-label>Narino, CO, Colombia</woe-label>
    <type>Departamento</type>
    <hc-middle-x>0.47</hc-middle-x>
    <hc-middle-y>0.41</hc-middle-y>
    <hc-key>co-na</hc-key>
    <hc-a2>NA</hc-a2>
  </desc>
</path>

<path fill="#CEE3F5" stroke="#6E6E6E" stroke-width="0.4" id="CO.CH" d="M177.7,348.1 L178.5,349.0 L169.8,349.5 L175.1,345.8 Z M174.3,352.8 L177.9,349.8 L180.5,350.4 L177.8,351.1 Z M230.8,316.5 L228.1,319.2 L226.9,322.5 L221.9,327.3 L221.3,330.3 L216.2,335.2 L215.5,340.0 L214.2,342.5 L211.2,342.9 L213.3,346.0 L213.3,349.4 L215.6,351.0 L209.2,357.1 L206.2,356.8 L203.5,359.3 L196.8,357.5 L194.1,354.1 L189.6,354.9 L187.2,352.3 L183.4,352.3 L181.8,349.1 L178.4,348.0 L176.3,344.7 L177.5,343.1 L179.2,336.5 L178.9,328.0 L181.3,328.7 L178.4,325.5 L177.3,317.8 L177.6,307.3 L175.7,298.5 L173.4,297.0 L169.7,297.4 L172.3,293.1 L175.8,291.7 L177.9,292.6 L181.8,288.8 L182.4,285.2 L178.1,275.3 L177.5,276.4 L172.7,268.5 L173.0,263.9 L175.6,266.5 L177.0,263.9 L176.3,260.3 L178.6,253.9 L175.7,250.0 L175.9,247.7 L173.7,246.5 L170.6,248.9 L169.2,243.2 L164.7,240.0 L164.3,237.1 L165.9,235.9 L164.5,232.6 L156.0,225.1 L159.2,215.1 L161.1,215.2 L162.8,212.1 L161.3,207.2 L162.6,205.1 L165.5,207.6 L167.8,212.7 L169.1,213.1 L172.1,210.4 L179.1,205.8 L177.5,203.0 L179.9,198.6 L182.1,197.1 L186.2,196.4 L183.7,189.6 L179.9,182.8 L178.3,182.4 L176.0,174.7 L173.2,174.0 L178.3,165.6 L182.0,173.2 L187.8,176.8 L191.1,182.3 L193.9,183.2 L195.1,190.2 L193.1,193.8 L192.3,197.9 L188.2,200.2 L188.6,203.9 L198.2,211.8 L205.7,220.5 L210.1,222.6 L212.4,224.9 L213.4,232.1 L211.7,235.6 L206.0,234.1 L199.9,235.2 L201.3,239.7 L199.7,241.7 L194.0,243.0 L195.4,248.5 L196.8,247.8 L197.3,252.4 L201.6,256.5 L201.0,263.4 L205.1,269.6 L210.6,269.9 L218.0,268.8 L222.6,268.9 L225.1,275.2 L229.5,277.6 L228.6,282.4 L230.4,287.9 L230.0,291.4 L232.3,294.1 L230.1,299.1 L227.1,301.1 L226.5,305.2 L229.9,310.7 Z">
  <desc xmlns="http://www.highcharts.com/svg/namespace">
    <labelrank>5</labelrank>
    <hasc>CO.CH</hasc>
    <alt-name>NULL</alt-name>
    <woe-id>2345057</woe-id>
    <subregion>NULL</subregion>
    <fips>CO11</fips>
    <postal-code>CH</postal-code>
    <name>Chocó</name>
    <country>Colombia</country>
    <type-en>Department</type-en>
    <region>NULL</region>
    <longitude>-76.7263</longitude>
    <woe-name>Chocó</woe-name>
    <latitude>5.38283</latitude>
    <woe-label>Choco, CO, Colombia</woe-label>
    <type>Departamento</type>
    <hc-middle-x>0.59</hc-middle-x>
    <hc-middle-y>0.68</hc-middle-y>
    <hc-key>co-ch</hc-key>
    <hc-a2>CH</hc-a2>
  </desc>
</path>

<path fill="#CEE3F5" stroke="#6E6E6E" stroke-width="0.4" id="CO.3653" d="M1.4,358.3 L1.6,358.9 L0.0,359.4 L0.6,358.4 Z">
  <desc xmlns="http://www.highcharts.com/svg/namespace">
    <labelrank>20</labelrank>
    <hasc>-99</hasc>
    <alt-name>NULL</alt-name>
    <woe-id>-99</woe-id>
    <subregion>NULL</subregion>
    <fips>NULL</fips>
    <postal-code>NULL</postal-code>
    <name>NULL</name>
    <country>Colombia</country>
    <type-en>NULL</type-en>
    <region>NULL</region>
    <longitude>-81.5928</longitude>
    <woe-name>NULL</woe-name>
    <latitude>3.97794</latitude>
    <woe-label>NULL</woe-label>
    <type>NULL</type>
    <hc-middle-x>0.44</hc-middle-x>
    <hc-middle-y>0.44</hc-middle-y>
    <hc-key>co-3653</hc-key>
    <hc-a2>NU</hc-a2>
  </desc>
</path>

<path fill="#CEE3F5" stroke="#6E6E6E" stroke-width="0.4" id="CO.TO" d="M285.8,306.1 L286.3,313.6 L285.2,319.5 L285.2,326.3 L282.5,329.5 L283.9,332.9 L282.9,334.3 L283.0,340.1 L280.0,346.6 L280.3,348.3 L284.3,347.7 L289.7,350.7 L293.8,348.3 L296.6,352.4 L294.8,360.0 L295.6,361.5 L293.4,368.8 L289.0,372.8 L284.9,378.9 L284.8,381.9 L279.1,388.7 L276.7,389.2 L272.3,387.8 L273.8,382.7 L269.7,382.8 L267.9,384.6 L264.6,385.2 L262.2,383.6 L255.5,385.8 L252.8,389.1 L248.5,397.8 L239.8,405.1 L234.8,402.8 L232.5,403.5 L231.9,399.1 L229.1,396.7 L230.6,391.8 L232.0,387.6 L231.7,382.3 L233.9,377.5 L235.4,371.2 L239.7,364.7 L243.7,356.1 L250.4,347.1 L251.2,341.7 L255.4,334.8 L257.4,333.7 L259.2,329.7 L259.7,326.3 L261.7,322.4 L260.7,320.6 L262.2,316.9 L261.0,315.5 L263.2,312.6 L268.3,310.9 L269.8,311.4 L272.8,306.9 L277.8,305.3 L282.3,305.1 Z">
  <desc xmlns="http://www.highcharts.com/svg/namespace">
    <labelrank>5</labelrank>
    <hasc>CO.TO</hasc>
    <alt-name>NULL</alt-name>
    <woe-id>2345073</woe-id>
    <subregion>NULL</subregion>
    <fips>CO28</fips>
    <postal-code>TO</postal-code>
    <name>Tolima</name>
    <country>Colombia</country>
    <type-en>Department</type-en>
    <region>NULL</region>
    <longitude>-75.2073</longitude>
    <woe-name>Tolima</woe-name>
    <latitude>3.93749</latitude>
    <woe-label>Tolima, CO, Colombia</woe-label>
    <type>Departamento</type>
    <hc-middle-x>0.55</hc-middle-x>
    <hc-middle-y>0.47</hc-middle-y>
    <hc-key>co-to</hc-key>
    <hc-a2>TO</hc-a2>
  </desc>
</path>

<path fill="#CEE3F5" stroke="#6E6E6E" stroke-width="0.4" id="CO.CQ" d="M231.1,481.5 L227.0,477.8 L223.1,477.6 L221.3,475.2 L221.8,469.7 L224.2,464.0 L227.6,459.5 L235.3,459.6 L240.3,455.1 L249.2,443.4 L252.4,440.6 L257.8,431.7 L261.0,429.4 L263.7,425.6 L266.2,419.5 L268.8,420.3 L273.7,417.2 L275.5,414.9 L272.9,411.0 L276.3,405.1 L279.5,402.7 L286.5,404.5 L292.0,412.2 L289.7,422.8 L290.0,428.8 L294.2,434.5 L291.2,440.2 L291.6,443.5 L295.6,448.4 L320.2,457.1 L330.3,457.5 L334.9,465.2 L340.0,470.8 L340.7,474.6 L351.1,484.6 L354.9,486.4 L357.9,485.4 L362.8,481.4 L363.8,476.8 L365.9,475.1 L368.3,476.9 L369.3,475.1 L372.1,475.4 L377.3,479.0 L380.3,479.8 L382.6,482.2 L383.2,485.4 L387.0,488.1 L387.0,491.0 L390.1,494.1 L395.5,495.2 L398.5,497.1 L400.2,500.8 L403.0,502.3 L402.6,504.5 L406.5,507.3 L406.1,509.4 L408.8,509.2 L412.9,513.9 L419.2,517.2 L424.1,516.7 L428.2,519.1 L425.4,521.8 L415.6,526.4 L411.3,529.9 L409.4,533.9 L406.4,534.7 L398.5,535.3 L394.6,538.1 L390.3,543.9 L389.9,548.8 L386.5,550.6 L382.4,547.6 L377.1,552.8 L374.4,551.7 L370.0,548.2 L367.6,547.9 L363.2,549.4 L358.5,546.3 L355.0,549.1 L349.9,549.6 L344.6,545.5 L338.5,546.6 L334.8,545.8 L333.6,543.7 L328.1,540.5 L322.5,540.8 L316.3,538.4 L312.0,534.8 L306.8,534.0 L304.7,530.4 L300.9,530.1 L299.6,528.3 L297.3,529.8 L292.2,528.8 L289.2,526.8 L287.9,521.5 L288.4,518.3 L285.9,516.3 L281.3,515.4 L276.8,513.4 L275.4,505.2 L266.8,503.2 L266.4,499.0 L264.7,494.9 L262.0,493.5 L256.2,493.6 L250.3,489.6 L245.6,489.6 L240.1,487.8 L237.1,482.5 Z">
  <desc xmlns="http://www.highcharts.com/svg/namespace">
    <labelrank>5</labelrank>
    <hasc>CO.CQ</hasc>
    <alt-name>NULL</alt-name>
    <woe-id>2345054</woe-id>
    <subregion>NULL</subregion>
    <fips>CO08</fips>
    <postal-code>CQ</postal-code>
    <name>Caquetá</name>
    <country>Colombia</country>
    <type-en>Intendancy</type-en>
    <region>NULL</region>
    <longitude>-73.80970000000001</longitude>
    <woe-name>Caquetá</woe-name>
    <latitude>0.615494</latitude>
    <woe-label>Caqueta, CO, Colombia</woe-label>
    <type>Intendencia</type>
    <hc-middle-x>0.45</hc-middle-x>
    <hc-middle-y>0.57</hc-middle-y>
    <hc-key>co-cq</hc-key>
    <hc-a2>CQ</hc-a2>
  </desc>
</path>

<path fill="#CEE3F5" stroke="#6E6E6E" stroke-width="0.4" id="CO.HU" d="M279.5,402.7 L276.3,405.1 L272.9,411.0 L275.5,414.9 L273.7,417.2 L268.8,420.3 L266.2,419.5 L263.7,425.6 L261.0,429.4 L257.8,431.7 L252.4,440.6 L249.2,443.4 L240.3,455.1 L235.3,459.6 L227.6,459.5 L219.3,456.8 L216.7,454.9 L212.7,449.2 L209.7,446.9 L208.7,443.1 L210.2,441.3 L210.1,437.8 L211.4,436.6 L214.8,437.3 L217.8,433.2 L218.9,430.0 L217.4,426.8 L218.0,424.6 L222.2,427.2 L227.3,426.5 L231.6,424.6 L235.1,421.7 L240.2,424.3 L242.2,422.3 L241.1,420.0 L242.8,414.3 L241.8,412.2 L232.5,403.5 L234.8,402.8 L239.8,405.1 L248.5,397.8 L252.8,389.1 L255.5,385.8 L262.2,383.6 L264.6,385.2 L267.9,384.6 L269.7,382.8 L273.8,382.7 L272.3,387.8 L276.7,389.2 L279.1,388.7 L284.8,381.9 L284.9,378.9 L289.0,372.8 L293.4,368.8 L294.8,370.5 L296.3,371.6 L294.3,376.6 L291.3,380.6 L289.8,389.9 L288.5,392.0 L282.6,396.2 Z">
  <desc xmlns="http://www.highcharts.com/svg/namespace">
    <labelrank>5</labelrank>
    <hasc>CO.HU</hasc>
    <alt-name>NULL</alt-name>
    <woe-id>2345061</woe-id>
    <subregion>NULL</subregion>
    <fips>CO16</fips>
    <postal-code>HU</postal-code>
    <name>Huila</name>
    <country>Colombia</country>
    <type-en>Department</type-en>
    <region>NULL</region>
    <longitude>-75.5471</longitude>
    <woe-name>Huila</woe-name>
    <latitude>2.65469</latitude>
    <woe-label>Huila, CO, Colombia</woe-label>
    <type>Departamento</type>
    <hc-middle-x>0.39</hc-middle-x>
    <hc-middle-y>0.69</hc-middle-y>
    <hc-key>co-hu</hc-key>
    <hc-a2>HU</hc-a2>
  </desc>
</path>

<path fill="#CEE3F5" stroke="#6E6E6E" stroke-width="0.4" id="CO.PU" d="M231.1,481.5 L237.1,482.5 L240.1,487.8 L245.6,489.6 L250.3,489.6 L256.2,493.6 L262.0,493.5 L264.7,494.9 L266.4,499.0 L266.8,503.2 L275.4,505.2 L276.8,513.4 L281.3,515.4 L285.9,516.3 L288.4,518.3 L287.9,521.5 L289.2,526.8 L292.2,528.8 L297.3,529.8 L299.6,528.3 L300.9,530.1 L304.7,530.4 L306.8,534.0 L312.0,534.8 L316.3,538.4 L322.5,540.8 L299.6,547.9 L299.6,547.9 L294.5,543.6 L290.1,538.6 L283.9,537.5 L285.4,536.1 L282.5,531.6 L280.5,533.7 L278.0,533.2 L273.1,530.1 L269.3,526.4 L266.0,525.9 L263.5,529.0 L257.7,527.2 L248.3,521.1 L242.4,521.1 L236.7,517.1 L231.4,509.6 L228.7,510.0 L227.6,508.0 L224.3,507.8 L220.7,505.6 L216.3,508.0 L216.7,514.1 L209.3,515.4 L203.5,513.1 L203.1,514.9 L196.3,514.4 L194.3,512.7 L190.2,511.9 L187.7,509.9 L188.5,508.2 L186.9,501.8 L187.5,500.4 L182.1,495.7 L188.3,488.0 L190.7,481.5 L188.4,480.2 L188.4,475.5 L193.0,473.4 L195.7,470.3 L202.6,469.6 L205.8,465.3 L209.2,466.4 L212.2,471.9 L211.1,474.8 L211.3,480.1 L213.2,482.2 L219.1,484.2 L224.9,484.4 Z">
  <desc xmlns="http://www.highcharts.com/svg/namespace">
    <labelrank>5</labelrank>
    <hasc>CO.PU</hasc>
    <alt-name>NULL</alt-name>
    <woe-id>2345067</woe-id>
    <subregion>NULL</subregion>
    <fips>CO22</fips>
    <postal-code>PU</postal-code>
    <name>Putumayo</name>
    <country>Colombia</country>
    <type-en>Intendancy</type-en>
    <region>NULL</region>
    <longitude>-75.5514</longitude>
    <woe-name>Putumayo</woe-name>
    <latitude>0.420217</latitude>
    <woe-label>Putumayo, CO, Colombia</woe-label>
    <type>Intendencia</type>
    <hc-middle-x>0.30</hc-middle-x>
    <hc-middle-y>0.36</hc-middle-y>
    <hc-key>co-pu</hc-key>
    <hc-a2>PU</hc-a2>
  </desc>
</path>

<path fill="#CEE3F5" stroke="#6E6E6E" stroke-width="0.4" id="CO.AM" d="M322.5,540.8 L328.1,540.5 L333.6,543.7 L334.8,545.8 L338.5,546.6 L344.6,545.5 L349.9,549.6 L355.0,549.1 L358.5,546.3 L363.2,549.4 L367.6,547.9 L370.0,548.2 L374.4,551.7 L377.1,552.8 L382.4,547.6 L386.5,550.6 L389.9,548.8 L390.3,543.9 L394.6,538.1 L398.5,535.3 L406.4,534.7 L409.4,533.9 L411.3,529.9 L415.6,526.4 L425.4,521.8 L428.2,519.1 L430.4,520.5 L434.4,519.8 L435.8,523.0 L439.9,524.7 L441.8,524.2 L444.0,526.9 L444.1,530.6 L447.7,537.5 L449.8,538.0 L451.6,536.2 L462.4,539.5 L464.6,543.8 L468.5,544.2 L471.6,541.3 L474.3,542.1 L470.6,547.6 L473.3,548.6 L473.5,554.4 L471.9,555.7 L474.4,559.9 L471.6,563.2 L473.9,565.3 L475.5,564.2 L475.4,567.3 L477.5,568.9 L480.2,567.8 L478.1,564.9 L487.5,562.9 L485.4,567.2 L491.8,567.8 L494.4,565.7 L497.3,567.7 L498.6,572.9 L500.8,571.6 L505.5,573.5 L507.4,575.9 L506.8,583.5 L505.4,589.3 L485.0,698.5 L484.3,700.0 L480.3,694.6 L475.0,691.4 L473.9,687.1 L470.0,683.1 L467.2,682.6 L464.7,684.6 L460.3,684.5 L452.4,681.0 L481.0,637.0 L479.1,633.6 L477.2,635.0 L473.3,633.2 L470.8,629.5 L468.1,630.6 L468.2,627.5 L464.1,627.7 L459.0,624.1 L456.2,626.0 L453.7,620.9 L450.3,620.0 L446.7,616.8 L441.8,615.5 L440.7,618.0 L435.6,618.2 L432.4,621.4 L428.4,621.1 L424.0,622.8 L422.5,617.8 L420.8,620.3 L419.1,616.5 L413.3,614.3 L411.1,615.1 L410.8,612.9 L406.5,615.1 L401.3,620.8 L396.2,620.9 L393.2,624.0 L389.9,623.6 L388.1,625.1 L383.4,625.7 L381.6,624.0 L376.5,623.0 L373.1,621.0 L370.1,624.5 L366.5,622.8 L360.7,624.5 L359.6,621.9 L356.0,619.6 L354.9,621.4 L351.8,619.3 L350.1,616.0 L353.8,610.2 L351.4,605.5 L350.6,598.9 L348.1,596.5 L344.2,598.6 L336.3,593.7 L338.2,589.5 L337.7,585.6 L334.1,582.5 L335.0,581.3 L331.9,576.4 L327.0,573.5 L325.0,575.1 L321.8,573.8 L320.1,570.6 L316.1,569.7 L314.1,565.9 L311.8,566.7 L306.8,565.3 L302.5,560.0 L304.5,559.6 L304.2,557.0 L301.1,555.0 L301.6,552.5 L299.6,547.9 L299.6,547.9 Z">
  <desc xmlns="http://www.highcharts.com/svg/namespace">
    <labelrank>5</labelrank>
    <hasc>CO.AM</hasc>
    <alt-name>NULL</alt-name>
    <woe-id>2345047</woe-id>
    <subregion>NULL</subregion>
    <fips>CO01</fips>
    <postal-code>AM</postal-code>
    <name>Amazonas</name>
    <country>Colombia</country>
    <type-en>Commissiary</type-en>
    <region>NULL</region>
    <longitude>-71.91710000000001</longitude>
    <woe-name>Amazonas</woe-name>
    <latitude>-1.26032</latitude>
    <woe-label>Amazonas, CO, Colombia</woe-label>
    <type>Comisaría</type>
    <hc-middle-x>0.60</hc-middle-x>
    <hc-middle-y>0.31</hc-middle-y>
    <hc-key>co-am</hc-key>
    <hc-a2>AM</hc-a2>
  </desc>
</path>

<path fill="#CEE3F5" stroke="#6E6E6E" stroke-width="0.4" id="CO.BL" d="M252.0,107.6 L251.7,106.1 L254.1,101.5 L249.5,105.0 L247.0,105.8 L251.6,100.3 L254.8,98.2 L254.4,95.3 L252.6,93.8 L255.3,91.3 L255.0,87.2 L259.4,83.3 L265.4,82.2 L266.6,85.5 L265.0,89.5 L265.9,91.3 L268.9,91.8 L270.4,94.9 L272.7,94.4 L279.2,100.5 L278.1,105.8 L281.6,107.5 L283.7,110.1 L283.5,112.1 L280.9,114.1 L280.8,116.9 L283.4,121.1 L282.7,123.7 L284.7,126.8 L284.0,134.3 L287.4,135.1 L295.8,142.9 L299.1,141.8 L299.8,143.5 L304.3,144.5 L308.7,149.0 L313.0,151.7 L315.0,150.6 L317.4,153.3 L322.0,154.0 L322.1,157.5 L324.7,160.4 L323.8,167.6 L326.6,175.2 L326.8,180.6 L325.3,185.2 L325.6,187.5 L322.7,189.8 L322.1,193.9 L324.4,203.3 L323.6,210.9 L320.6,214.4 L320.9,218.5 L319.7,223.1 L306.4,235.6 L302.6,235.0 L300.4,228.5 L300.3,222.2 L302.5,217.6 L301.8,215.3 L297.5,220.5 L293.6,218.0 L292.6,213.8 L293.7,209.4 L296.2,207.5 L296.8,205.0 L294.9,202.4 L294.4,198.3 L292.1,194.2 L282.4,186.4 L283.8,183.8 L283.7,182.6 L288.8,181.4 L293.2,177.6 L294.1,175.0 L292.0,164.1 L294.5,160.8 L289.7,154.3 L282.9,149.7 L279.8,145.5 L278.2,138.5 L279.9,135.1 L278.1,133.4 L274.5,132.9 L275.4,130.9 L273.0,130.5 L268.3,126.2 L263.6,124.8 L260.4,126.3 L262.4,116.4 L256.2,114.9 L256.3,109.8 L254.0,109.9 L256.0,105.5 Z M266.5,79.9 L264.9,80.1 L266.6,78.0 L266.9,79.3 Z">
  <desc xmlns="http://www.highcharts.com/svg/namespace">
    <labelrank>5</labelrank>
    <hasc>CO.BL</hasc>
    <alt-name>NULL</alt-name>
    <woe-id>2345051</woe-id>
    <subregion>NULL</subregion>
    <fips>CO35</fips>
    <postal-code>BL</postal-code>
    <name>Bolívar</name>
    <country>Colombia</country>
    <type-en>Department</type-en>
    <region>NULL</region>
    <longitude>-74.1807</longitude>
    <woe-name>Bolívar</woe-name>
    <latitude>8.57823</latitude>
    <woe-label>Bolivar, CO, Colombia</woe-label>
    <type>Departamento</type>
    <hc-middle-x>0.79</hc-middle-x>
    <hc-middle-y>0.75</hc-middle-y>
    <hc-key>co-bl</hc-key>
    <hc-a2>BL</hc-a2>
  </desc>
</path>

<path fill="#CEE3F5" stroke="#6E6E6E" stroke-width="0.4" id="CO.VC" d="M243.7,356.1 L239.7,364.7 L235.4,371.2 L233.9,377.5 L231.7,382.3 L232.0,387.6 L230.6,391.8 L223.2,388.9 L215.6,387.4 L214.4,393.2 L210.8,396.0 L205.1,395.7 L201.4,392.9 L200.1,395.4 L196.9,396.6 L191.6,393.6 L187.7,392.6 L181.3,395.4 L179.0,393.2 L177.1,393.6 L172.9,388.0 L173.2,385.7 L177.0,383.8 L180.4,376.5 L183.0,375.7 L185.2,372.5 L184.2,369.1 L186.3,369.1 L186.7,366.3 L191.0,362.4 L187.1,362.1 L187.2,363.9 L181.8,365.7 L179.4,362.9 L179.9,360.4 L182.2,360.1 L184.5,356.4 L181.4,354.7 L179.9,356.3 L177.9,362.0 L174.7,358.9 L175.4,357.2 L174.3,352.8 L177.8,351.1 L180.5,350.4 L181.4,349.7 L181.8,349.1 L183.4,352.3 L187.2,352.3 L189.6,354.9 L194.1,354.1 L196.8,357.5 L203.5,359.3 L206.2,356.8 L209.2,357.1 L215.6,351.0 L213.3,349.4 L213.3,346.0 L211.2,342.9 L214.2,342.5 L215.5,340.0 L216.2,335.2 L221.3,330.3 L221.9,327.3 L226.9,322.5 L228.1,319.2 L230.8,316.5 L237.7,327.8 L245.8,329.9 L246.0,331.7 L241.2,331.9 L239.0,336.5 L238.4,341.8 L241.8,342.9 L242.6,347.4 L241.0,350.6 L240.9,354.8 Z">
  <desc xmlns="http://www.highcharts.com/svg/namespace">
    <labelrank>5</labelrank>
    <hasc>CO.VC</hasc>
    <alt-name>Valle</alt-name>
    <woe-id>2345074</woe-id>
    <subregion>NULL</subregion>
    <fips>CO11</fips>
    <postal-code>VC</postal-code>
    <name>Valle del Cauca</name>
    <country>Colombia</country>
    <type-en>Department</type-en>
    <region>NULL</region>
    <longitude>-76.59229999999999</longitude>
    <woe-name>Valle del Cauca</woe-name>
    <latitude>3.58331</latitude>
    <woe-label>Valle del Cauca, CO, Colombia</woe-label>
    <type>Departamento</type>
    <hc-middle-x>0.50</hc-middle-x>
    <hc-middle-y>0.67</hc-middle-y>
    <hc-key>co-vc</hc-key>
    <hc-a2>VC</hc-a2>
  </desc>
</path>

<path fill="#CEE3F5" stroke="#6E6E6E" stroke-width="0.4" id="CO.SU" d="M247.1,135.5 L250.3,134.0 L252.1,127.1 L250.4,124.3 L246.9,123.8 L249.2,121.5 L251.7,112.9 L252.0,107.6 L256.0,105.5 L254.0,109.9 L256.3,109.8 L256.2,114.9 L262.4,116.4 L260.4,126.3 L263.6,124.8 L268.3,126.2 L273.0,130.5 L275.4,130.9 L274.5,132.9 L278.1,133.4 L279.9,135.1 L278.2,138.5 L279.8,145.5 L282.9,149.7 L289.7,154.3 L294.5,160.8 L292.0,164.1 L294.1,175.0 L293.2,177.6 L288.8,181.4 L283.7,182.6 L283.5,179.7 L278.0,174.0 L272.4,175.4 L268.1,177.5 L263.5,174.2 L260.9,160.9 L263.5,157.1 L267.1,155.9 L267.0,151.1 L258.1,146.5 L256.6,142.9 L247.1,138.1 Z">
  <desc xmlns="http://www.highcharts.com/svg/namespace">
    <labelrank>5</labelrank>
    <hasc>CO.SU</hasc>
    <alt-name>NULL</alt-name>
    <woe-id>2345072</woe-id>
    <subregion>NULL</subregion>
    <fips>CO27</fips>
    <postal-code>SU</postal-code>
    <name>Sucre</name>
    <country>Colombia</country>
    <type-en>Department</type-en>
    <region>NULL</region>
    <longitude>-75.1319</longitude>
    <woe-name>Sucre</woe-name>
    <latitude>9.012359999999999</latitude>
    <woe-label>Sucre, CO, Colombia</woe-label>
    <type>Departamento</type>
    <hc-middle-x>0.67</hc-middle-x>
    <hc-middle-y>0.78</hc-middle-y>
    <hc-key>co-su</hc-key>
    <hc-a2>SU</hc-a2>
  </desc>
</path>

<path fill="#CEE3F5" stroke="#6E6E6E" stroke-width="0.4" id="CO.AT" d="M265.4,82.2 L266.8,81.1 L266.5,79.9 L266.9,79.3 L266.6,78.0 L274.5,73.6 L275.0,71.2 L282.2,66.6 L285.5,70.4 L287.2,74.3 L287.0,87.4 L283.8,90.4 L282.6,94.7 L279.2,100.5 L272.7,94.4 L270.4,94.9 L268.9,91.8 L265.9,91.3 L265.0,89.5 L266.6,85.5 Z">
  <desc xmlns="http://www.highcharts.com/svg/namespace">
    <labelrank>5</labelrank>
    <hasc>CO.AT</hasc>
    <alt-name>NULL</alt-name>
    <woe-id>2345050</woe-id>
    <subregion>NULL</subregion>
    <fips>CO04</fips>
    <postal-code>AT</postal-code>
    <name>Atlántico</name>
    <country>Colombia</country>
    <type-en>Department</type-en>
    <region>NULL</region>
    <longitude>-74.9941</longitude>
    <woe-name>Atlántico</woe-name>
    <latitude>10.6712</latitude>
    <woe-label>Atlantico, CO, Colombia</woe-label>
    <type>Departamento</type>
    <hc-middle-x>0.46</hc-middle-x>
    <hc-middle-y>0.18</hc-middle-y>
    <hc-key>co-at</hc-key>
    <hc-a2>AT</hc-a2>
  </desc>
</path>

<path fill="#CEE3F5" stroke="#6E6E6E" stroke-width="0.4" id="CO.CE" d="M325.6,187.5 L325.3,185.2 L326.8,180.6 L326.6,175.2 L323.8,167.6 L324.7,160.4 L322.1,157.5 L325.0,150.6 L321.8,145.2 L318.7,144.8 L318.6,140.7 L316.7,136.4 L311.2,132.3 L315.7,128.4 L321.9,129.3 L325.6,128.2 L323.2,122.3 L323.3,120.2 L316.4,113.3 L314.1,109.3 L314.7,104.5 L321.1,96.1 L326.2,95.4 L334.0,90.8 L332.5,84.7 L334.7,81.3 L331.2,79.7 L332.9,76.6 L339.1,75.7 L346.5,76.7 L347.4,81.2 L352.6,83.5 L354.6,85.5 L350.2,92.6 L352.3,95.0 L357.1,94.9 L361.1,93.8 L360.3,104.2 L358.2,111.5 L358.7,118.2 L352.7,129.6 L350.5,131.2 L346.4,137.9 L345.0,141.4 L342.3,144.0 L342.9,146.0 L340.7,146.6 L339.5,158.4 L340.3,161.4 L335.1,168.0 L334.8,169.9 L337.7,175.1 L336.2,177.9 L339.2,180.8 L341.2,178.7 L340.4,175.8 L342.5,175.4 L343.4,177.8 L341.1,184.8 L341.1,188.9 L343.0,193.5 L346.1,194.7 L343.5,198.4 L343.3,202.0 L340.2,206.2 L337.6,207.5 L332.2,205.1 L327.0,204.9 L327.2,201.6 L330.1,198.6 L330.1,196.4 L328.0,194.7 Z">
  <desc xmlns="http://www.highcharts.com/svg/namespace">
    <labelrank>5</labelrank>
    <hasc>CO.CE</hasc>
    <alt-name>El Cesar</alt-name>
    <woe-id>2345056</woe-id>
    <subregion>NULL</subregion>
    <fips>CO10</fips>
    <postal-code>CE</postal-code>
    <name>Cesar</name>
    <country>Colombia</country>
    <type-en>Department</type-en>
    <region>NULL</region>
    <longitude>-73.43389999999999</longitude>
    <woe-name>Cesar</woe-name>
    <latitude>9.848929999999999</latitude>
    <woe-label>Cesar, CO, Colombia</woe-label>
    <type>Departamento</type>
    <hc-middle-x>0.52</hc-middle-x>
    <hc-middle-y>0.26</hc-middle-y>
    <hc-key>co-ce</hc-key>
    <hc-a2>CE</hc-a2>
  </desc>
</path>

<path fill="#CEE3F5" stroke="#6E6E6E" stroke-width="0.4" id="CO.LG" d="M333.8,62.3 L334.5,58.8 L341.1,58.8 L345.6,58.1 L355.3,49.8 L360.2,47.2 L367.3,41.3 L379.8,37.4 L387.4,33.4 L392.4,24.3 L391.1,19.0 L399.3,18.1 L397.4,20.6 L399.4,22.3 L403.4,20.0 L402.4,17.1 L399.6,16.9 L403.4,13.5 L406.0,15.2 L410.4,10.8 L410.3,9.3 L417.0,10.0 L428.8,14.8 L434.1,24.4 L433.2,27.6 L426.7,31.7 L425.5,34.6 L420.6,36.9 L399.4,42.6 L397.9,44.1 L387.9,63.1 L378.0,65.1 L374.9,71.9 L369.6,77.9 L367.7,83.6 L364.1,88.3 L361.1,93.8 L357.1,94.9 L352.3,95.0 L350.2,92.6 L354.6,85.5 L352.6,83.5 L347.4,81.2 L346.5,76.7 L339.1,75.7 L332.9,76.6 L331.1,70.6 L331.5,64.5 Z">
  <desc xmlns="http://www.highcharts.com/svg/namespace">
    <labelrank>5</labelrank>
    <hasc>CO.LG</hasc>
    <alt-name>Guajira|Goagira|La Goajira</alt-name>
    <woe-id>2345062</woe-id>
    <subregion>NULL</subregion>
    <fips>CO17</fips>
    <postal-code>LG</postal-code>
    <name>La Guajira</name>
    <country>Colombia</country>
    <type-en>Department</type-en>
    <region>NULL</region>
    <longitude>-72.67019999999999</longitude>
    <woe-name>La Guajira</woe-name>
    <latitude>11.4245</latitude>
    <woe-label>La Guajira, CO, Colombia</woe-label>
    <type>Departamento</type>
    <hc-middle-x>0.45</hc-middle-x>
    <hc-middle-y>0.50</hc-middle-y>
    <hc-key>co-lg</hc-key>
    <hc-a2>LG</hc-a2>
  </desc>
</path>

<path fill="#CEE3F5" stroke="#6E6E6E" stroke-width="0.4" id="CO.MA" d="M332.9,76.6 L331.2,79.7 L334.7,81.3 L332.5,84.7 L334.0,90.8 L326.2,95.4 L321.1,96.1 L314.7,104.5 L314.1,109.3 L316.4,113.3 L323.3,120.2 L323.2,122.3 L325.6,128.2 L321.9,129.3 L315.7,128.4 L311.2,132.3 L316.7,136.4 L318.6,140.7 L318.7,144.8 L321.8,145.2 L325.0,150.6 L322.1,157.5 L322.0,154.0 L317.4,153.3 L315.0,150.6 L313.0,151.7 L308.7,149.0 L304.3,144.5 L299.8,143.5 L299.1,141.8 L295.8,142.9 L287.4,135.1 L284.0,134.3 L284.7,126.8 L282.7,123.7 L283.4,121.1 L280.8,116.9 L280.9,114.1 L283.5,112.1 L283.7,110.1 L281.6,107.5 L278.1,105.8 L279.2,100.5 L282.6,94.7 L283.8,90.4 L287.0,87.4 L287.2,74.3 L285.5,70.4 L282.2,66.6 L282.3,65.7 L295.4,70.4 L302.0,71.4 L296.2,71.3 L295.6,73.3 L297.1,76.4 L292.7,75.0 L292.1,78.9 L296.8,76.8 L298.1,80.6 L302.0,79.5 L305.3,70.7 L307.9,67.0 L306.9,62.0 L309.1,57.2 L316.6,55.6 L323.8,58.8 L334.5,58.8 L333.8,62.3 L331.5,64.5 L331.1,70.6 Z">
  <desc xmlns="http://www.highcharts.com/svg/namespace">
    <labelrank>5</labelrank>
    <hasc>CO.MA</hasc>
    <alt-name>La Magdalena</alt-name>
    <woe-id>2345063</woe-id>
    <subregion>NULL</subregion>
    <fips>CO18</fips>
    <postal-code>MA</postal-code>
    <name>Magdalena</name>
    <country>Colombia</country>
    <type-en>Department</type-en>
    <region>NULL</region>
    <longitude>-74.34739999999999</longitude>
    <woe-name>Magdalena</woe-name>
    <latitude>10.3731</latitude>
    <woe-label>Magdalena, CO, Colombia</woe-label>
    <type>Departamento</type>
    <hc-middle-x>0.55</hc-middle-x>
    <hc-middle-y>0.34</hc-middle-y>
    <hc-key>co-ma</hc-key>
    <hc-a2>MA</hc-a2>
  </desc>
</path>

<path fill="#CEE3F5" stroke="#6E6E6E" stroke-width="0.4" id="CO.AR" d="M400.8,235.0 L406.3,235.8 L408.7,234.1 L415.0,233.1 L428.9,234.4 L429.3,235.8 L433.1,236.7 L442.3,234.7 L444.6,232.4 L452.9,230.8 L458.1,231.4 L460.5,234.3 L462.9,234.6 L468.8,237.4 L475.5,235.7 L478.0,237.1 L505.4,270.9 L505.9,270.9 L500.1,273.8 L491.2,273.5 L488.3,275.0 L484.0,270.9 L481.2,269.9 L477.4,265.8 L474.4,265.0 L466.8,264.8 L461.4,267.0 L452.2,267.7 L446.5,267.5 L432.3,265.1 L421.7,268.3 L415.7,267.9 L411.0,268.3 L405.4,270.2 L401.7,270.4 L393.0,273.6 L388.7,270.9 L385.2,265.8 L386.2,262.1 L388.5,258.6 L392.9,257.0 L394.2,254.4 L395.2,246.5 L397.2,244.3 Z">
  <desc xmlns="http://www.highcharts.com/svg/namespace">
    <labelrank>7</labelrank>
    <hasc>CO.AR</hasc>
    <alt-name>NULL</alt-name>
    <woe-id>2345049</woe-id>
    <subregion>NULL</subregion>
    <fips>CO03</fips>
    <postal-code>AR</postal-code>
    <name>Arauca</name>
    <country>Colombia</country>
    <type-en>Intendancy</type-en>
    <region>NULL</region>
    <longitude>-70.8913</longitude>
    <woe-name>Arauca</woe-name>
    <latitude>6.64307</latitude>
    <woe-label>Arauca, CO, Colombia</woe-label>
    <type>Intendencia</type>
    <hc-middle-x>0.53</hc-middle-x>
    <hc-middle-y>0.42</hc-middle-y>
    <hc-key>co-ar</hc-key>
    <hc-a2>AR</hc-a2>
  </desc>
</path>

<path fill="#CEE3F5" stroke="#6E6E6E" stroke-width="0.4" id="CO.NS" d="M332.2,205.1 L337.6,207.5 L340.2,206.2 L343.3,202.0 L343.5,198.4 L346.1,194.7 L343.0,193.5 L341.1,188.9 L341.1,184.8 L343.4,177.8 L342.5,175.4 L340.4,175.8 L341.2,178.7 L339.2,180.8 L336.2,177.9 L337.7,175.1 L334.8,169.9 L335.1,168.0 L340.3,161.4 L339.5,158.4 L340.7,146.6 L342.9,146.0 L349.1,145.7 L357.4,140.6 L358.7,146.6 L360.4,148.7 L364.9,146.9 L366.7,150.3 L371.2,167.2 L372.1,168.5 L383.2,180.0 L382.8,183.4 L385.3,189.7 L384.7,192.3 L382.4,192.2 L379.1,196.1 L380.6,201.0 L379.3,208.5 L380.1,211.8 L379.4,214.4 L380.6,217.2 L386.0,219.2 L390.8,219.5 L392.5,221.7 L393.0,227.4 L396.0,232.6 L399.6,234.8 L391.8,233.7 L389.0,236.3 L387.5,235.1 L383.5,240.4 L378.5,238.9 L376.8,240.1 L375.6,235.2 L368.6,235.8 L362.8,232.4 L365.1,228.7 L362.9,224.8 L364.5,220.6 L362.0,215.7 L359.0,213.4 L358.4,210.1 L349.1,209.4 L347.3,212.9 L342.7,212.6 L337.2,210.4 Z">
  <desc xmlns="http://www.highcharts.com/svg/namespace">
    <labelrank>5</labelrank>
    <hasc>CO.NS</hasc>
    <alt-name>Santander del Norte</alt-name>
    <woe-id>2345066</woe-id>
    <subregion>NULL</subregion>
    <fips>CO21</fips>
    <postal-code>NS</postal-code>
    <name>Norte de Santander</name>
    <country>Colombia</country>
    <type-en>Department</type-en>
    <region>NULL</region>
    <longitude>-72.8175</longitude>
    <woe-name>Norte de Santander</woe-name>
    <latitude>8.086</latitude>
    <woe-label>Norte de Santander, CO, Colombia</woe-label>
    <type>Departamento</type>
    <hc-middle-x>0.48</hc-middle-x>
    <hc-middle-y>0.48</hc-middle-y>
    <hc-key>co-ns</hc-key>
    <hc-a2>NS</hc-a2>
  </desc>
</path>

<path fill="#CEE3F5" stroke="#6E6E6E" stroke-width="0.4" id="CO.CS" d="M386.2,262.1 L385.2,265.8 L388.7,270.9 L393.0,273.6 L401.7,270.4 L405.4,270.2 L411.0,268.3 L415.7,267.9 L421.7,268.3 L432.3,265.1 L446.5,267.5 L452.2,267.7 L461.4,267.0 L466.8,264.8 L474.4,265.0 L477.4,265.8 L481.2,269.9 L484.0,270.9 L488.3,275.0 L486.6,277.3 L483.7,284.1 L479.6,289.9 L474.8,293.3 L468.2,294.1 L463.9,295.6 L454.4,301.6 L454.0,304.3 L445.7,311.4 L442.7,312.9 L438.6,321.1 L432.2,325.5 L429.8,325.8 L417.7,331.0 L412.7,334.1 L407.2,335.7 L404.0,339.2 L399.2,342.8 L396.8,343.0 L393.5,340.7 L386.3,342.4 L384.5,345.1 L381.8,344.7 L378.8,346.0 L376.5,344.7 L375.4,346.5 L368.7,346.4 L368.5,344.9 L361.3,337.7 L356.0,329.0 L355.4,325.9 L356.9,318.7 L359.3,318.9 L362.1,314.6 L360.1,312.0 L360.8,308.1 L366.1,302.2 L370.2,306.5 L375.2,303.4 L382.2,295.0 L386.4,297.1 L388.3,291.1 L389.7,289.8 L385.0,284.8 L381.0,282.7 L383.3,280.8 L385.4,273.4 L382.3,268.2 L384.8,262.8 Z">
  <desc xmlns="http://www.highcharts.com/svg/namespace">
    <labelrank>5</labelrank>
    <hasc>CO.CS</hasc>
    <alt-name>NULL</alt-name>
    <woe-id>2345077</woe-id>
    <subregion>NULL</subregion>
    <fips>CO32</fips>
    <postal-code>CS</postal-code>
    <name>Casanare</name>
    <country>Colombia</country>
    <type-en>Intendancy</type-en>
    <region>NULL</region>
    <longitude>-71.4622</longitude>
    <woe-name>Casanare</woe-name>
    <latitude>5.46249</latitude>
    <woe-label>Casanare, CO, Colombia</woe-label>
    <type>Intendencia</type>
    <hc-middle-x>0.39</hc-middle-x>
    <hc-middle-y>0.51</hc-middle-y>
    <hc-key>co-cs</hc-key>
    <hc-a2>CS</hc-a2>
  </desc>
</path>

<path fill="#CEE3F5" stroke="#6E6E6E" stroke-width="0.4" id="CO.GV" d="M398.5,497.1 L395.5,495.2 L390.1,494.1 L387.0,491.0 L387.0,488.1 L383.2,485.4 L382.6,482.2 L380.3,479.8 L377.3,479.0 L372.1,475.4 L369.3,475.1 L368.3,476.9 L365.9,475.1 L363.8,476.8 L362.8,481.4 L357.9,485.4 L354.9,486.4 L351.1,484.6 L340.7,474.6 L340.0,470.8 L334.9,465.2 L330.3,457.5 L330.9,456.8 L331.2,429.9 L333.5,426.0 L340.6,428.3 L348.3,427.5 L349.4,425.9 L352.0,427.1 L357.5,425.0 L361.4,422.3 L362.2,419.3 L367.1,417.1 L369.3,418.8 L370.7,416.9 L373.6,418.6 L374.6,416.3 L382.4,413.3 L384.7,411.5 L389.4,413.1 L389.6,410.8 L391.9,410.0 L391.7,407.5 L394.9,406.1 L400.2,408.9 L406.6,407.6 L408.5,406.3 L409.9,408.2 L410.9,405.5 L415.6,408.2 L418.1,406.5 L425.6,406.9 L428.8,404.5 L432.1,406.5 L434.4,405.3 L438.8,405.9 L443.0,406.0 L448.9,408.9 L458.4,407.0 L462.3,409.4 L445.8,416.2 L445.6,417.3 L452.0,420.0 L455.0,423.7 L457.2,428.3 L462.2,430.4 L470.5,432.4 L481.6,430.3 L483.1,433.6 L478.8,437.6 L474.8,440.5 L464.7,442.3 L462.4,443.8 L453.9,445.9 L452.1,445.2 L445.2,445.4 L442.9,447.9 L434.9,452.0 L430.6,455.4 L425.3,453.0 L424.7,458.5 L423.5,459.9 L419.0,471.7 L419.0,476.7 L416.2,481.5 L413.6,484.0 L410.1,484.4 L408.9,486.7 Z">
  <desc xmlns="http://www.highcharts.com/svg/namespace">
    <labelrank>6</labelrank>
    <hasc>CO.GV</hasc>
    <alt-name>NULL</alt-name>
    <woe-id>2345059</woe-id>
    <subregion>NULL</subregion>
    <fips>CO14</fips>
    <postal-code>GV</postal-code>
    <name>Guaviare</name>
    <country>Colombia</country>
    <type-en>Commissiary</type-en>
    <region>NULL</region>
    <longitude>-71.8348</longitude>
    <woe-name>Guaviare</woe-name>
    <latitude>1.85144</latitude>
    <woe-label>Guavaire, CO, Colombia</woe-label>
    <type>Comisaría</type>
    <hc-middle-x>0.40</hc-middle-x>
    <hc-middle-y>0.44</hc-middle-y>
    <hc-key>co-gv</hc-key>
    <hc-a2>GV</hc-a2>
  </desc>
</path>

<path fill="#CEE3F5" stroke="#6E6E6E" stroke-width="0.4" id="CO.ME" d="M438.8,405.9 L434.4,405.3 L432.1,406.5 L428.8,404.5 L425.6,406.9 L418.1,406.5 L415.6,408.2 L410.9,405.5 L409.9,408.2 L408.5,406.3 L406.6,407.6 L400.2,408.9 L394.9,406.1 L391.7,407.5 L391.9,410.0 L389.6,410.8 L389.4,413.1 L384.7,411.5 L382.4,413.3 L374.6,416.3 L373.6,418.6 L370.7,416.9 L369.3,418.8 L367.1,417.1 L362.2,419.3 L361.4,422.3 L357.5,425.0 L352.0,427.1 L349.4,425.9 L348.3,427.5 L340.6,428.3 L333.5,426.0 L331.2,429.9 L330.9,456.8 L330.3,457.5 L320.2,457.1 L295.6,448.4 L291.6,443.5 L291.2,440.2 L294.2,434.5 L290.0,428.8 L289.7,422.8 L292.0,412.2 L286.5,404.5 L279.5,402.7 L282.6,396.2 L288.5,392.0 L289.8,389.9 L291.3,380.6 L294.3,376.6 L296.3,371.6 L299.1,372.6 L302.8,367.2 L304.0,364.1 L308.2,358.6 L310.4,359.1 L311.7,359.2 L316.6,355.1 L324.5,351.0 L327.1,351.0 L325.6,347.3 L325.3,341.0 L329.4,337.9 L332.5,339.4 L335.9,346.7 L338.1,347.6 L343.1,346.1 L348.2,347.3 L352.8,349.5 L355.6,329.7 L356.0,329.0 L361.3,337.7 L368.5,344.9 L368.7,346.4 L375.4,346.5 L376.5,344.7 L378.8,346.0 L381.8,344.7 L384.5,345.1 L386.3,342.4 L393.5,340.7 L396.8,343.0 L399.2,342.8 L404.0,339.2 L407.2,335.7 L412.7,334.1 L417.7,331.0 L429.8,325.8 L432.2,325.5 L438.6,321.1 L438.7,385.5 Z">
  <desc xmlns="http://www.highcharts.com/svg/namespace">
    <labelrank>5</labelrank>
    <hasc>CO.ME</hasc>
    <alt-name>NULL</alt-name>
    <woe-id>2345064</woe-id>
    <subregion>NULL</subregion>
    <fips>CO19</fips>
    <postal-code>ME</postal-code>
    <name>Meta</name>
    <country>Colombia</country>
    <type-en>Department</type-en>
    <region>NULL</region>
    <longitude>-72.9789</longitude>
    <woe-name>Meta</woe-name>
    <latitude>3.5302</latitude>
    <woe-label>Meta, CO, Colombia</woe-label>
    <type>Departamento</type>
    <hc-middle-x>0.62</hc-middle-x>
    <hc-middle-y>0.43</hc-middle-y>
    <hc-key>co-me</hc-key>
    <hc-a2>ME</hc-a2>
  </desc>
</path>

<path fill="#CEE3F5" stroke="#6E6E6E" stroke-width="0.4" id="CO.VP" d="M428.2,519.1 L424.1,516.7 L419.2,517.2 L412.9,513.9 L408.8,509.2 L406.1,509.4 L406.5,507.3 L402.6,504.5 L403.0,502.3 L400.2,500.8 L398.5,497.1 L408.9,486.7 L410.1,484.4 L413.6,484.0 L416.2,481.5 L419.0,476.7 L419.0,471.7 L423.5,459.9 L424.7,458.5 L425.3,453.0 L430.6,455.4 L434.9,452.0 L442.9,447.9 L445.2,445.4 L452.1,445.2 L453.9,445.9 L462.4,443.8 L464.7,442.3 L474.8,440.5 L478.8,437.6 L476.7,447.2 L481.1,450.8 L489.8,453.9 L489.5,455.5 L489.4,480.7 L493.1,479.4 L495.1,480.7 L499.1,480.1 L505.0,480.6 L507.5,482.0 L509.5,480.5 L512.9,481.5 L518.6,488.6 L517.1,494.9 L519.2,497.6 L515.5,499.1 L509.8,498.0 L506.6,494.9 L503.9,494.4 L499.1,497.6 L496.0,496.9 L491.4,499.4 L481.0,500.2 L480.2,529.8 L480.4,531.2 L485.6,537.2 L489.2,538.7 L493.8,543.3 L498.6,545.6 L500.6,551.3 L498.7,555.0 L501.1,558.3 L502.5,562.7 L506.2,565.9 L506.2,569.8 L508.3,573.6 L507.4,575.9 L505.5,573.5 L500.8,571.6 L498.6,572.9 L497.3,567.7 L494.4,565.7 L491.8,567.8 L485.4,567.2 L487.5,562.9 L478.1,564.9 L480.2,567.8 L477.5,568.9 L475.4,567.3 L475.5,564.2 L473.9,565.3 L471.6,563.2 L474.4,559.9 L471.9,555.7 L473.5,554.4 L473.3,548.6 L470.6,547.6 L474.3,542.1 L471.6,541.3 L468.5,544.2 L464.6,543.8 L462.4,539.5 L451.6,536.2 L449.8,538.0 L447.7,537.5 L444.1,530.6 L444.0,526.9 L441.8,524.2 L439.9,524.7 L435.8,523.0 L434.4,519.8 L430.4,520.5 Z">
  <desc xmlns="http://www.highcharts.com/svg/namespace">
    <labelrank>5</labelrank>
    <hasc>CO.VP</hasc>
    <alt-name>NULL</alt-name>
    <woe-id>2345075</woe-id>
    <subregion>NULL</subregion>
    <fips>CO30</fips>
    <postal-code>VP</postal-code>
    <name>Vaupés</name>
    <country>Colombia</country>
    <type-en>Commissiary</type-en>
    <region>NULL</region>
    <longitude>-70.5869</longitude>
    <woe-name>Vaupés</woe-name>
    <latitude>0.790971</latitude>
    <woe-label>Vaupes, CO, Colombia</woe-label>
    <type>Comisaría</type>
    <hc-middle-x>0.46</hc-middle-x>
    <hc-middle-y>0.38</hc-middle-y>
    <hc-key>co-vp</hc-key>
    <hc-a2>VP</hc-a2>
  </desc>
</path>

<path fill="#CEE3F5" stroke="#6E6E6E" stroke-width="0.4" id="CO.VD" d="M462.3,409.4 L458.4,407.0 L448.9,408.9 L443.0,406.0 L438.8,405.9 L438.7,385.5 L438.6,321.1 L442.7,312.9 L445.7,311.4 L454.0,304.3 L454.4,301.6 L463.9,295.6 L468.2,294.1 L474.8,293.3 L479.6,289.9 L483.7,284.1 L486.6,277.3 L488.3,275.0 L491.2,273.5 L500.1,273.8 L505.9,270.9 L510.8,269.9 L513.6,272.6 L521.2,266.8 L530.8,268.0 L538.9,270.0 L541.0,268.6 L546.6,267.5 L552.6,268.2 L559.2,266.2 L564.5,266.6 L568.4,265.6 L571.9,262.5 L576.4,262.7 L583.0,264.1 L586.5,266.8 L586.5,270.4 L589.1,273.5 L588.9,276.4 L586.8,277.5 L582.0,282.6 L580.4,285.8 L580.1,289.5 L581.6,293.7 L580.3,296.7 L573.6,301.1 L572.2,304.5 L573.5,309.1 L573.1,312.3 L574.4,314.2 L573.0,322.2 L573.6,323.5 L571.6,337.1 L573.1,338.0 L575.1,344.3 L574.2,347.2 L575.0,351.2 L577.9,356.7 L574.6,360.3 L571.3,361.6 L568.2,360.2 L566.7,361.2 L562.3,358.3 L559.1,361.8 L558.3,359.6 L555.6,360.9 L555.0,358.4 L551.3,357.7 L550.3,362.0 L543.4,367.1 L537.5,367.0 L532.7,371.5 L526.8,371.0 L526.1,373.6 L522.9,373.0 L521.4,374.7 L518.7,372.3 L517.2,373.1 L512.4,370.1 L506.6,371.8 L504.8,370.6 L499.4,371.6 L497.4,377.9 L495.2,376.8 L487.3,376.9 L484.5,379.5 L479.5,378.6 L480.1,382.8 L478.0,383.1 L476.7,386.0 L477.6,391.9 L474.7,392.3 L470.2,396.9 L471.6,402.1 L467.1,406.8 Z">
  <desc xmlns="http://www.highcharts.com/svg/namespace">
    <labelrank>5</labelrank>
    <hasc>CO.VD</hasc>
    <alt-name>NULL</alt-name>
    <woe-id>2345076</woe-id>
    <subregion>NULL</subregion>
    <fips>CO31</fips>
    <postal-code>VD</postal-code>
    <name>Vichada</name>
    <country>Colombia</country>
    <type-en>Commissiary</type-en>
    <region>NULL</region>
    <longitude>-69.2414</longitude>
    <woe-name>Vichada</woe-name>
    <latitude>4.89224</latitude>
    <woe-label>Vichada, CO, Colombia</woe-label>
    <type>Comisaría</type>
    <hc-middle-x>0.44</hc-middle-x>
    <hc-middle-y>0.46</hc-middle-y>
    <hc-key>co-vd</hc-key>
    <hc-a2>VD</hc-a2>
  </desc>
</path>

<path fill="#CEE3F5" stroke="#6E6E6E" stroke-width="0.4" id="CO.AN" d="M282.4,186.4 L292.1,194.2 L294.4,198.3 L294.9,202.4 L296.8,205.0 L296.2,207.5 L293.7,209.4 L292.6,213.8 L293.6,218.0 L297.5,220.5 L301.8,215.3 L302.5,217.6 L300.3,222.2 L300.4,228.5 L302.6,235.0 L306.4,235.6 L319.7,223.1 L320.0,231.1 L321.4,234.7 L316.5,238.2 L312.3,244.1 L304.7,249.8 L300.8,250.9 L300.0,257.1 L301.1,259.3 L295.3,265.1 L292.8,267.9 L291.8,271.8 L293.0,274.1 L292.4,280.2 L290.3,282.5 L289.4,286.2 L287.4,286.1 L284.6,289.6 L280.9,287.3 L275.8,288.6 L271.7,290.8 L271.6,293.4 L269.5,296.2 L267.3,296.7 L264.0,300.1 L262.2,298.9 L261.4,293.8 L259.5,290.2 L256.0,290.3 L250.1,287.6 L250.9,289.8 L251.2,296.6 L244.8,295.0 L239.9,297.8 L235.7,297.0 L232.3,294.1 L230.0,291.4 L230.4,287.9 L228.6,282.4 L229.5,277.6 L225.1,275.2 L222.6,268.9 L218.0,268.8 L210.6,269.9 L205.1,269.6 L201.0,263.4 L201.6,256.5 L197.3,252.4 L196.8,247.8 L195.4,248.5 L194.0,243.0 L199.7,241.7 L201.3,239.7 L199.9,235.2 L206.0,234.1 L211.7,235.6 L213.4,232.1 L212.4,224.9 L210.1,222.6 L205.7,220.5 L198.2,211.8 L188.6,203.9 L188.2,200.2 L192.3,197.9 L193.1,193.8 L195.1,190.2 L193.9,183.2 L195.9,186.1 L195.6,188.4 L200.2,188.1 L200.1,192.7 L197.0,192.0 L195.9,195.2 L199.2,197.4 L203.2,197.0 L204.3,190.5 L202.8,183.1 L202.8,177.4 L200.0,173.1 L195.6,171.2 L197.8,168.1 L206.9,165.7 L208.0,162.9 L211.5,161.8 L216.3,157.9 L218.6,163.4 L220.9,166.6 L225.1,170.1 L225.6,177.0 L221.4,182.3 L217.2,189.8 L216.6,196.7 L213.5,204.6 L213.8,210.4 L217.5,219.5 L239.7,220.3 L243.8,214.7 L251.2,211.8 L253.1,206.9 L256.7,202.0 L260.7,198.9 L266.2,192.2 L270.9,191.3 L278.0,191.1 Z">
  <desc xmlns="http://www.highcharts.com/svg/namespace">
    <labelrank>5</labelrank>
    <hasc>CO.AN</hasc>
    <alt-name>NULL</alt-name>
    <woe-id>2345048</woe-id>
    <subregion>NULL</subregion>
    <fips>CO02</fips>
    <postal-code>AN</postal-code>
    <name>Antioquia</name>
    <country>Colombia</country>
    <type-en>Department</type-en>
    <region>NULL</region>
    <longitude>-75.50709999999999</longitude>
    <woe-name>Antioquia</woe-name>
    <latitude>6.70366</latitude>
    <woe-label>Antioquia, CO, Colombia</woe-label>
    <type>Departamento</type>
    <hc-middle-x>0.53</hc-middle-x>
    <hc-middle-y>0.62</hc-middle-y>
    <hc-key>co-an</hc-key>
    <hc-a2>AN</hc-a2>
  </desc>
</path>

<path fill="#CEE3F5" stroke="#6E6E6E" stroke-width="0.4" id="CO.CO" d="M282.4,186.4 L278.0,191.1 L270.9,191.3 L266.2,192.2 L260.7,198.9 L256.7,202.0 L253.1,206.9 L251.2,211.8 L243.8,214.7 L239.7,220.3 L217.5,219.5 L213.8,210.4 L213.5,204.6 L216.6,196.7 L217.2,189.8 L221.4,182.3 L225.6,177.0 L225.1,170.1 L220.9,166.6 L218.6,163.4 L216.3,157.9 L217.1,156.3 L221.3,155.0 L224.1,152.3 L224.2,149.7 L227.0,146.4 L227.8,142.4 L229.9,141.6 L231.5,138.4 L238.4,135.0 L242.2,134.3 L242.4,136.5 L247.1,135.5 L247.1,138.1 L256.6,142.9 L258.1,146.5 L267.0,151.1 L267.1,155.9 L263.5,157.1 L260.9,160.9 L263.5,174.2 L268.1,177.5 L272.4,175.4 L278.0,174.0 L283.5,179.7 L283.7,182.6 L283.8,183.8 Z">
  <desc xmlns="http://www.highcharts.com/svg/namespace">
    <labelrank>5</labelrank>
    <hasc>CO.CO</hasc>
    <alt-name>NULL</alt-name>
    <woe-id>2345058</woe-id>
    <subregion>NULL</subregion>
    <fips>CO12</fips>
    <postal-code>CO</postal-code>
    <name>Córdoba</name>
    <country>Colombia</country>
    <type-en>Department</type-en>
    <region>NULL</region>
    <longitude>-75.65219999999999</longitude>
    <woe-name>Córdoba</woe-name>
    <latitude>8.438940000000001</latitude>
    <woe-label>Cordoba, CO, Colombia</woe-label>
    <type>Departamento</type>
    <hc-middle-x>0.45</hc-middle-x>
    <hc-middle-y>0.45</hc-middle-y>
    <hc-key>co-co</hc-key>
    <hc-a2>CO</hc-a2>
  </desc>
</path>

<path fill="#CEE3F5" stroke="#6E6E6E" stroke-width="0.4" id="CO.BY" d="M378.5,238.9 L383.5,240.4 L387.5,235.1 L389.0,236.3 L391.8,233.7 L399.6,234.8 L400.8,235.0 L397.2,244.3 L395.2,246.5 L394.2,254.4 L392.9,257.0 L388.5,258.6 L386.2,262.1 L384.8,262.8 L382.3,268.2 L385.4,273.4 L383.3,280.8 L381.0,282.7 L385.0,284.8 L389.7,289.8 L388.3,291.1 L386.4,297.1 L382.2,295.0 L375.2,303.4 L370.2,306.5 L366.1,302.2 L360.8,308.1 L360.1,312.0 L362.1,314.6 L359.3,318.9 L356.9,318.7 L355.4,325.9 L356.0,329.0 L354.4,331.3 L349.2,331.4 L348.8,329.5 L345.6,328.9 L341.6,323.4 L336.6,322.7 L335.6,320.9 L336.8,317.1 L338.4,315.9 L336.6,308.3 L334.0,305.5 L333.8,302.2 L331.1,299.0 L325.4,297.1 L324.2,295.0 L316.8,302.6 L313.1,300.8 L312.7,299.3 L306.7,298.1 L304.4,293.9 L304.7,290.4 L303.9,285.5 L302.4,284.0 L298.6,286.4 L294.7,285.4 L290.1,287.0 L289.6,286.5 L289.4,286.2 L290.3,282.5 L292.4,280.2 L293.0,274.1 L291.8,271.8 L292.8,267.9 L295.3,265.1 L298.6,272.8 L302.0,275.2 L304.8,273.9 L306.9,277.5 L305.6,281.6 L307.1,283.1 L309.6,280.9 L312.2,282.1 L317.9,287.8 L327.7,286.6 L331.8,288.2 L332.8,280.0 L334.2,276.5 L337.5,272.3 L341.7,275.4 L341.6,280.0 L338.7,283.1 L341.5,286.8 L343.5,282.6 L346.3,282.7 L349.1,277.5 L356.7,279.2 L362.5,271.6 L365.7,270.4 L368.3,267.2 L369.1,257.9 L366.6,254.7 L367.9,253.0 L370.1,254.9 L372.1,258.7 L374.0,258.6 L377.0,255.9 L378.8,250.0 L379.6,241.8 Z">
  <desc xmlns="http://www.highcharts.com/svg/namespace">
    <labelrank>5</labelrank>
    <hasc>CO.BY</hasc>
    <alt-name>NULL</alt-name>
    <woe-id>2345052</woe-id>
    <subregion>NULL</subregion>
    <fips>CO36</fips>
    <postal-code>BY</postal-code>
    <name>Boyacá</name>
    <country>Colombia</country>
    <type-en>Department</type-en>
    <region>NULL</region>
    <longitude>-72.93300000000001</longitude>
    <woe-name>Boyacá</woe-name>
    <latitude>5.68515</latitude>
    <woe-label>Boyaca, CO, Colombia</woe-label>
    <type>Departamento</type>
    <hc-middle-x>0.70</hc-middle-x>
    <hc-middle-y>0.58</hc-middle-y>
    <hc-key>co-by</hc-key>
    <hc-a2>BY</hc-a2>
  </desc>
</path>

<path fill="#CEE3F5" stroke="#6E6E6E" stroke-width="0.4" id="CO.ST" d="M378.5,238.9 L379.6,241.8 L378.8,250.0 L377.0,255.9 L374.0,258.6 L372.1,258.7 L370.1,254.9 L367.9,253.0 L366.6,254.7 L369.1,257.9 L368.3,267.2 L365.7,270.4 L362.5,271.6 L356.7,279.2 L349.1,277.5 L346.3,282.7 L343.5,282.6 L341.5,286.8 L338.7,283.1 L341.6,280.0 L341.7,275.4 L337.5,272.3 L334.2,276.5 L332.8,280.0 L331.8,288.2 L327.7,286.6 L317.9,287.8 L312.2,282.1 L309.6,280.9 L307.1,283.1 L305.6,281.6 L306.9,277.5 L304.8,273.9 L302.0,275.2 L298.6,272.8 L295.3,265.1 L301.1,259.3 L300.0,257.1 L300.8,250.9 L304.7,249.8 L312.3,244.1 L316.5,238.2 L321.4,234.7 L320.0,231.1 L319.7,223.1 L320.9,218.5 L320.6,214.4 L323.6,210.9 L324.4,203.3 L322.1,193.9 L322.7,189.8 L325.6,187.5 L328.0,194.7 L330.1,196.4 L330.1,198.6 L327.2,201.6 L327.0,204.9 L332.2,205.1 L337.2,210.4 L342.7,212.6 L347.3,212.9 L349.1,209.4 L358.4,210.1 L359.0,213.4 L362.0,215.7 L364.5,220.6 L362.9,224.8 L365.1,228.7 L362.8,232.4 L368.6,235.8 L375.6,235.2 L376.8,240.1 Z">
  <desc xmlns="http://www.highcharts.com/svg/namespace">
    <labelrank>5</labelrank>
    <hasc>CO.ST</hasc>
    <alt-name>NULL</alt-name>
    <woe-id>2345071</woe-id>
    <subregion>NULL</subregion>
    <fips>CO26</fips>
    <postal-code>ST</postal-code>
    <name>Santander</name>
    <country>Colombia</country>
    <type-en>Department</type-en>
    <region>NULL</region>
    <longitude>-73.49809999999999</longitude>
    <woe-name>Santander</woe-name>
    <latitude>6.85402</latitude>
    <woe-label>Santander, CO, Colombia</woe-label>
    <type>Departamento</type>
    <hc-middle-x>0.58</hc-middle-x>
    <hc-middle-y>0.60</hc-middle-y>
    <hc-key>co-st</hc-key>
    <hc-a2>ST</hc-a2>
  </desc>
</path>

<path fill="#CEE3F5" stroke="#6E6E6E" stroke-width="0.4" id="CO.CL" d="M289.4,286.2 L289.6,286.5 L290.1,287.0 L290.4,291.5 L288.8,295.4 L289.5,299.1 L285.8,306.1 L282.3,305.1 L277.8,305.3 L272.8,306.9 L269.8,311.4 L268.3,310.9 L263.2,312.6 L261.0,315.5 L262.2,316.9 L260.7,320.6 L261.7,322.4 L259.7,326.3 L255.0,321.4 L250.1,320.8 L248.9,319.1 L246.0,320.0 L244.4,316.1 L242.4,320.5 L239.8,320.8 L237.0,316.2 L238.4,313.0 L240.7,313.4 L241.9,310.1 L241.6,306.7 L246.7,307.4 L248.7,305.4 L245.6,301.6 L239.9,302.5 L239.9,297.8 L244.8,295.0 L251.2,296.6 L250.9,289.8 L250.1,287.6 L256.0,290.3 L259.5,290.2 L261.4,293.8 L262.2,298.9 L264.0,300.1 L267.3,296.7 L269.5,296.2 L271.6,293.4 L271.7,290.8 L275.8,288.6 L280.9,287.3 L284.6,289.6 L287.4,286.1 Z">
  <desc xmlns="http://www.highcharts.com/svg/namespace">
    <labelrank>5</labelrank>
    <hasc>CO.CL</hasc>
    <alt-name>NULL</alt-name>
    <woe-id>2345053</woe-id>
    <subregion>NULL</subregion>
    <fips>CO37</fips>
    <postal-code>CL</postal-code>
    <name>Caldas</name>
    <country>Colombia</country>
    <type-en>Department</type-en>
    <region>NULL</region>
    <longitude>-75.27930000000001</longitude>
    <woe-name>Caldas</woe-name>
    <latitude>5.29037</latitude>
    <woe-label>Caldas, CO, Colombia</woe-label>
    <type>Departamento</type>
    <hc-middle-x>0.40</hc-middle-x>
    <hc-middle-y>0.46</hc-middle-y>
    <hc-key>co-cl</hc-key>
    <hc-a2>CL</hc-a2>
  </desc>
</path>

<path fill="#CEE3F5" stroke="#6E6E6E" stroke-width="0.4" id="CO.CU" d="M285.8,306.1 L289.5,299.1 L288.8,295.4 L290.4,291.5 L290.1,287.0 L294.7,285.4 L298.6,286.4 L302.4,284.0 L303.9,285.5 L304.7,290.4 L304.4,293.9 L306.7,298.1 L312.7,299.3 L313.1,300.8 L316.8,302.6 L324.2,295.0 L325.4,297.1 L331.1,299.0 L333.8,302.2 L334.0,305.5 L336.6,308.3 L338.4,315.9 L336.8,317.1 L335.6,320.9 L336.6,322.7 L341.6,323.4 L345.6,328.9 L348.8,329.5 L349.2,331.4 L354.4,331.3 L356.0,329.0 L355.6,329.7 L352.8,349.5 L348.2,347.3 L343.1,346.1 L338.1,347.6 L335.9,346.7 L332.5,339.4 L329.4,337.9 L325.3,341.0 L325.6,347.3 L327.1,351.0 L324.5,351.0 L316.6,355.1 L311.7,359.2 L310.4,359.1 L312.9,353.5 L310.6,347.9 L312.3,345.3 L312.0,342.7 L317.0,333.3 L316.1,331.7 L316.4,325.7 L313.4,324.9 L310.1,331.5 L307.5,333.4 L309.4,338.7 L307.9,348.8 L305.5,355.3 L303.2,354.2 L301.4,358.0 L301.8,361.6 L299.3,367.4 L296.3,371.6 L294.8,370.5 L293.4,368.8 L295.6,361.5 L294.8,360.0 L296.6,352.4 L293.8,348.3 L289.7,350.7 L284.3,347.7 L280.3,348.3 L280.0,346.6 L283.0,340.1 L282.9,334.3 L283.9,332.9 L282.5,329.5 L285.2,326.3 L285.2,319.5 L286.3,313.6 L285.8,306.1 Z">
  <desc xmlns="http://www.highcharts.com/svg/namespace">
    <labelrank>5</labelrank>
    <hasc>CO.CU</hasc>
    <alt-name>NULL</alt-name>
    <woe-id>2345078</woe-id>
    <subregion>NULL</subregion>
    <fips>NULL</fips>
    <postal-code>CU</postal-code>
    <name>Cundinamarca</name>
    <country>Colombia</country>
    <type-en>Department</type-en>
    <region>NULL</region>
    <longitude>-74.0613</longitude>
    <woe-name>Cundinamarca</woe-name>
    <latitude>5.11121</latitude>
    <woe-label>Cundinamarca, CO, Colombia</woe-label>
    <type>Departamento</type>
    <hc-middle-x>0.26</hc-middle-x>
    <hc-middle-y>0.35</hc-middle-y>
    <hc-key>co-cu</hc-key>
    <hc-a2>CU</hc-a2>
  </desc>
</path>

<path fill="#CEE3F5" stroke="#6E6E6E" stroke-width="0.4" id="CO.1136" d="M296.3,371.6 L299.3,367.4 L301.8,361.6 L301.4,358.0 L303.2,354.2 L305.5,355.3 L307.9,348.8 L309.4,338.7 L307.5,333.4 L310.1,331.5 L313.4,324.9 L316.4,325.7 L316.1,331.7 L317.0,333.3 L312.0,342.7 L312.3,345.3 L310.6,347.9 L312.9,353.5 L310.4,359.1 L308.2,358.6 L304.0,364.1 L302.8,367.2 L299.1,372.6 Z">
  <desc xmlns="http://www.highcharts.com/svg/namespace">
    <labelrank>9</labelrank>
    <hasc>CO.CU</hasc>
    <alt-name>Bogota Capital District</alt-name>
    <woe-id>2345079</woe-id>
    <subregion>NULL</subregion>
    <fips>CO34</fips>
    <postal-code>NULL</postal-code>
    <name>Bogota</name>
    <country>Colombia</country>
    <type-en>Federal District</type-en>
    <region>NULL</region>
    <longitude>-74.2443</longitude>
    <woe-name>Bogota</woe-name>
    <latitude>4.08564</latitude>
    <woe-label>Distrito Especial, CO, Colombia</woe-label>
    <type>Distrito Federal</type>
    <hc-middle-x>0.67</hc-middle-x>
    <hc-middle-y>0.38</hc-middle-y>
    <hc-key>co-1136</hc-key>
    <hc-a2>BO</hc-a2>
  </desc>
</path>

<path fill="#CEE3F5" stroke="#6E6E6E" stroke-width="0.4" id="CO.RI" d="M239.9,297.8 L239.9,302.5 L245.6,301.6 L248.7,305.4 L246.7,307.4 L241.6,306.7 L241.9,310.1 L240.7,313.4 L238.4,313.0 L237.0,316.2 L239.8,320.8 L242.4,320.5 L244.4,316.1 L246.0,320.0 L248.9,319.1 L250.1,320.8 L255.0,321.4 L259.7,326.3 L259.2,329.7 L254.8,331.5 L253.3,330.4 L245.8,329.9 L237.7,327.8 L230.8,316.5 L229.9,310.7 L226.5,305.2 L227.1,301.1 L230.1,299.1 L232.3,294.1 L235.7,297.0 Z">
  <desc xmlns="http://www.highcharts.com/svg/namespace">
    <labelrank>5</labelrank>
    <hasc>CO.RI</hasc>
    <alt-name>NULL</alt-name>
    <woe-id>2345069</woe-id>
    <subregion>NULL</subregion>
    <fips>CO24</fips>
    <postal-code>RI</postal-code>
    <name>Risaralda</name>
    <country>Colombia</country>
    <type-en>Department</type-en>
    <region>NULL</region>
    <longitude>-75.6743</longitude>
    <woe-name>Risaralda</woe-name>
    <latitude>4.82682</latitude>
    <woe-label>Risaralda, CO, Colombia</woe-label>
    <type>Departamento</type>
    <hc-middle-x>0.28</hc-middle-x>
    <hc-middle-y>0.62</hc-middle-y>
    <hc-key>co-ri</hc-key>
    <hc-a2>RI</hc-a2>
  </desc>
</path>

<path fill="#CEE3F5" stroke="#6E6E6E" stroke-width="0.4" id="CO.QD" d="M245.8,329.9 L253.3,330.4 L254.8,331.5 L259.2,329.7 L257.4,333.7 L255.4,334.8 L251.2,341.7 L250.4,347.1 L243.7,356.1 L240.9,354.8 L241.0,350.6 L242.6,347.4 L241.8,342.9 L238.4,341.8 L239.0,336.5 L241.2,331.9 L246.0,331.7 Z">
  <desc xmlns="http://www.highcharts.com/svg/namespace">
    <labelrank>5</labelrank>
    <hasc>CO.QD</hasc>
    <alt-name>NULL</alt-name>
    <woe-id>2345068</woe-id>
    <subregion>NULL</subregion>
    <fips>CO23</fips>
    <postal-code>QD</postal-code>
    <name>Quindío</name>
    <country>Colombia</country>
    <type-en>Department</type-en>
    <region>NULL</region>
    <longitude>-75.64</longitude>
    <woe-name>Quindío</woe-name>
    <latitude>4.47197</latitude>
    <woe-label>Quindio, CO, Colombia</woe-label>
    <type>Departamento</type>
    <hc-middle-x>0.35</hc-middle-x>
    <hc-middle-y>0.39</hc-middle-y>
    <hc-key>co-qd</hc-key>
    <hc-a2>QD</hc-a2>
  </desc>
</path>

<path fill="#CEE3F5" stroke="#6E6E6E" stroke-width="0.4" id="CO.GN" d="M489.8,453.9 L481.1,450.8 L476.7,447.2 L478.8,437.6 L483.1,433.6 L481.6,430.3 L470.5,432.4 L462.2,430.4 L457.2,428.3 L455.0,423.7 L452.0,420.0 L445.6,417.3 L445.8,416.2 L462.3,409.4 L467.1,406.8 L471.6,402.1 L470.2,396.9 L474.7,392.3 L477.6,391.9 L476.7,386.0 L478.0,383.1 L480.1,382.8 L479.5,378.6 L484.5,379.5 L487.3,376.9 L495.2,376.8 L497.4,377.9 L499.4,371.6 L504.8,370.6 L506.6,371.8 L512.4,370.1 L517.2,373.1 L518.7,372.3 L521.4,374.7 L522.9,373.0 L526.1,373.6 L526.8,371.0 L532.7,371.5 L537.5,367.0 L543.4,367.1 L550.3,362.0 L551.3,357.7 L555.0,358.4 L555.6,360.9 L558.3,359.6 L559.1,361.8 L562.3,358.3 L566.7,361.2 L568.2,360.2 L571.3,361.6 L574.6,360.3 L577.9,356.7 L578.9,361.3 L581.6,368.2 L585.5,369.3 L588.3,371.6 L591.2,378.9 L595.3,382.1 L595.2,383.8 L591.6,388.7 L589.2,389.7 L573.2,404.7 L572.5,408.7 L576.8,406.5 L582.1,407.6 L584.2,412.7 L588.0,413.9 L594.7,421.7 L600.1,424.7 L601.1,427.4 L599.3,429.6 L601.3,435.5 L603.3,436.4 L602.8,441.2 L605.7,445.8 L609.3,455.2 L611.3,462.1 L611.3,465.3 L613.5,469.4 L613.8,473.7 L605.8,475.8 L604.4,472.4 L605.4,460.5 L603.6,453.4 L601.9,450.2 L597.4,444.2 L594.2,437.7 L590.0,435.6 L583.6,439.2 L575.4,449.3 L572.5,451.4 L566.7,451.9 L564.2,449.1 L562.4,444.7 L558.2,441.2 L554.9,448.6 L559.8,453.1 L510.2,453.3 L500.7,451.2 L497.8,452.6 Z">
  <desc xmlns="http://www.highcharts.com/svg/namespace">
    <labelrank>5</labelrank>
    <hasc>CO.GN</hasc>
    <alt-name>Guania</alt-name>
    <woe-id>2345060</woe-id>
    <subregion>NULL</subregion>
    <fips>CO15</fips>
    <postal-code>GN</postal-code>
    <name>Guainía</name>
    <country>Colombia</country>
    <type-en>Commissiary</type-en>
    <region>NULL</region>
    <longitude>-68.8925</longitude>
    <woe-name>Guainía</woe-name>
    <latitude>2.70535</latitude>
    <woe-label>Guainia, CO, Colombia</woe-label>
    <type>Comisaría</type>
    <hc-middle-x>0.43</hc-middle-x>
    <hc-middle-y>0.49</hc-middle-y>
    <hc-key>co-gn</hc-key>
    <hc-a2>GN</hc-a2>
  </desc>
</path>
</g>

<text x="350" y="714" text-anchor="middle" font-family="Verdana" font-size="8" stroke-opacity="0.6">Copyright (c) 2020 Highsoft AS, Based on data from Natural Earth</text>

</svg>