<?xml version="1.0" encoding="utf-8" standalone="no"?>
<!DOCTYPE svg PUBLIC "-//W3C//DTD SVG 1.1//EN" "http://www.w3.org/Graphics/SVG/1.1/DTD/svg11.dtd">

<svg version="1.1" height="700pt" width="700pt" xmlns="http://www.w3.org/2000/svg" xmlns:xlink="http://www.w3.org/1999/xlink">
<desc>
Map version: 2.1.0
Copyright (c) 2023 Highsoft AS, Based on data from Natural Earth
</desc>
<title>Saint Vincent and the Grenadines</title>
<g id="admin1">

<g id="VC">
  <desc xmlns="http://www.highcharts.com/svg/namespace">
    <name>Saint Vincent and the Grenadines</name>
    <labelrank>6</labelrank>
    <country-abbrev>St.V.G.</country-abbrev>
    <subregion>Caribbean</subregion>
    <region-wb>Latin America &amp; Caribbean</region-wb>
    <iso-a3>VCT</iso-a3>
    <iso-a2>VC</iso-a2>
    <woe-id>23424981</woe-id>
    <continent>North America</continent>
    <hc-key>vc</hc-key>
    <hc-a2>SV</hc-a2>
  </desc>
</g>

<path fill="#CEE3F5" stroke="#6E6E6E" stroke-width="0.4" id="VC.GT" d="M23.4,697.6 L14.3,700.0 L3.4,699.2 L0.0,694.5 L3.6,690.0 L4.4,686.3 L2.6,683.1 L3.6,680.8 L9.8,678.3 L15.8,680.0 L26.2,686.5 L28.6,694.0 Z M54.5,645.6 L58.7,648.2 L62.2,651.2 L58.7,657.2 L53.8,660.6 L51.0,665.4 L49.2,661.4 L47.5,657.0 L50.9,651.4 L51.7,647.7 L55.2,648.1 Z M108.0,604.2 L99.2,604.7 L91.4,601.8 L93.5,599.1 L103.3,596.9 L107.9,591.1 L106.2,583.3 L106.6,574.7 L114.3,569.5 L120.3,568.9 L123.0,572.1 L124.7,580.1 L120.1,586.3 L115.2,591.4 L112.8,599.1 Z M233.1,460.5 L230.3,460.9 L229.5,450.1 L236.8,436.6 L243.8,438.1 L236.5,455.5 Z M273.0,388.6 L266.0,391.1 L263.4,380.6 L262.3,376.0 L267.5,372.8 L268.2,376.0 L267.5,378.2 L271.1,382.0 Z M280.9,371.4 L275.6,375.7 L273.7,370.5 L278.7,365.5 Z M198.8,340.6 L185.1,350.3 L191.5,350.2 L185.2,356.8 L180.7,350.4 L173.9,346.4 L165.1,344.7 L155.1,345.0 L155.1,338.5 L167.9,342.4 L187.5,338.4 L187.5,331.3 L181.7,324.9 L179.0,320.4 L186.1,313.4 L210.0,297.8 L219.9,289.5 L221.2,292.9 L221.6,296.1 L222.8,299.1 L226.5,302.1 L214.2,314.1 Z">
  <desc xmlns="http://www.highcharts.com/svg/namespace">
    <labelrank>20</labelrank>
    <hasc>VC.GT</hasc>
    <alt-name>NULL</alt-name>
    <woe-id>2347676</woe-id>
    <subregion>NULL</subregion>
    <fips>VC06</fips>
    <postal-code>GT</postal-code>
    <name>Grenadines</name>
    <country>Saint Vincent and the Grenadines</country>
    <type-en>Parish</type-en>
    <region>NULL</region>
    <longitude>-61.229</longitude>
    <woe-name>Grenadines</woe-name>
    <latitude>13.0161</latitude>
    <woe-label>Grenadines, VC, Saint Vincent and the Grenadines</woe-label>
    <type>Parish</type>
    <hc-middle-x>0.70</hc-middle-x>
    <hc-middle-y>0.09</hc-middle-y>
    <hc-key>vc-gt</hc-key>
    <hc-a2>GT</hc-a2>
  </desc>
</path>

<path fill="#CEE3F5" stroke="#6E6E6E" stroke-width="0.4" id="VC.CH" d="M243.9,0.7 L261.1,3.3 L267.3,5.7 L270.8,11.5 L276.3,24.3 L285.0,63.3 L285.0,117.1 L275.8,160.3 L265.3,156.3 L252.3,154.0 L242.1,155.9 L230.8,147.9 L226.4,144.2 L220.0,138.7 L221.0,124.3 L224.4,115.7 L230.5,103.6 L241.8,105.8 L243.9,94.2 L244.9,77.5 L243.7,63.2 L243.1,51.1 L245.8,34.9 L253.1,33.7 L252.4,22.2 L243.9,18.8 Z">
  <desc xmlns="http://www.highcharts.com/svg/namespace">
    <labelrank>20</labelrank>
    <hasc>VC.CH</hasc>
    <alt-name>NULL</alt-name>
    <woe-id>2347671</woe-id>
    <subregion>NULL</subregion>
    <fips>VC01</fips>
    <postal-code>CH</postal-code>
    <name>Charlotte</name>
    <country>Saint Vincent and the Grenadines</country>
    <type-en>Parish</type-en>
    <region>NULL</region>
    <longitude>-61.1475</longitude>
    <woe-name>Charlotte</woe-name>
    <latitude>13.2825</latitude>
    <woe-label>Charlotte, VC, Saint Vincent and the Grenadines</woe-label>
    <type>Parish</type>
    <hc-middle-x>0.68</hc-middle-x>
    <hc-middle-y>0.50</hc-middle-y>
    <hc-key>vc-ch</hc-key>
    <hc-a2>CH</hc-a2>
  </desc>
</path>

<path fill="#CEE3F5" stroke="#6E6E6E" stroke-width="0.4" id="VC.AN" d="M187.9,191.2 L159.0,171.1 L170.0,159.2 L187.4,146.5 L203.0,129.1 L209.8,126.2 L221.0,124.3 L220.0,138.7 L226.4,144.2 L221.3,154.8 L202.2,176.3 Z">
  <desc xmlns="http://www.highcharts.com/svg/namespace">
    <labelrank>20</labelrank>
    <hasc>VC.AN</hasc>
    <alt-name>NULL</alt-name>
    <woe-id>2347672</woe-id>
    <subregion>NULL</subregion>
    <fips>VC02</fips>
    <postal-code>AN</postal-code>
    <name>Saint Andrew</name>
    <country>Saint Vincent and the Grenadines</country>
    <type-en>Parish</type-en>
    <region>NULL</region>
    <longitude>-61.2287</longitude>
    <woe-name>Saint Andrew</woe-name>
    <latitude>13.1977</latitude>
    <woe-label>NULL</woe-label>
    <type>Parish</type>
    <hc-middle-x>0.51</hc-middle-x>
    <hc-middle-y>0.53</hc-middle-y>
    <hc-key>vc-an</hc-key>
    <hc-a2>AN</hc-a2>
  </desc>
</path>

<path fill="#CEE3F5" stroke="#6E6E6E" stroke-width="0.4" id="VC.DA" d="M161.1,101.4 L165.7,92.1 L163.4,88.8 L159.2,80.2 L182.4,76.3 L192.2,56.4 L197.9,31.0 L208.9,10.7 L219.9,3.4 L230.2,0.4 L239.4,0.0 L243.9,0.7 L243.9,18.8 L252.4,22.2 L253.1,33.7 L245.8,34.9 L243.1,51.1 L243.7,63.2 L244.9,77.5 L243.9,94.2 L241.8,105.8 L230.5,103.6 L219.1,92.1 L207.3,102.6 L196.0,110.4 L176.9,106.2 Z">
  <desc xmlns="http://www.highcharts.com/svg/namespace">
    <labelrank>20</labelrank>
    <hasc>VC.DA</hasc>
    <alt-name>NULL</alt-name>
    <woe-id>2347673</woe-id>
    <subregion>NULL</subregion>
    <fips>VC03</fips>
    <postal-code>DA</postal-code>
    <name>Saint David</name>
    <country>Saint Vincent and the Grenadines</country>
    <type-en>Parish</type-en>
    <region>NULL</region>
    <longitude>-61.204</longitude>
    <woe-name>Saint David</woe-name>
    <latitude>13.3142</latitude>
    <woe-label>Saint David, VC, Saint Vincent and the Grenadines</woe-label>
    <type>Parish</type>
    <hc-middle-x>0.65</hc-middle-x>
    <hc-middle-y>0.51</hc-middle-y>
    <hc-key>vc-da</hc-key>
    <hc-a2>DA</hc-a2>
  </desc>
</path>

<path fill="#CEE3F5" stroke="#6E6E6E" stroke-width="0.4" id="VC.GE" d="M275.8,160.3 L273.7,170.0 L248.7,206.0 L233.4,218.0 L211.9,207.9 L187.9,191.2 L202.2,176.3 L221.3,154.8 L226.4,144.2 L230.8,147.9 L242.1,155.9 L252.3,154.0 L265.3,156.3 Z">
  <desc xmlns="http://www.highcharts.com/svg/namespace">
    <labelrank>20</labelrank>
    <hasc>VC.GE</hasc>
    <alt-name>NULL</alt-name>
    <woe-id>2347674</woe-id>
    <subregion>NULL</subregion>
    <fips>VC04</fips>
    <postal-code>GE</postal-code>
    <name>Saint George</name>
    <country>Saint Vincent and the Grenadines</country>
    <type-en>Parish</type-en>
    <region>NULL</region>
    <longitude>-61.1899</longitude>
    <woe-name>Saint George</woe-name>
    <latitude>13.1695</latitude>
    <woe-label>Saint George, VC, Saint Vincent and the Grenadines</woe-label>
    <type>Parish</type>
    <hc-middle-x>0.48</hc-middle-x>
    <hc-middle-y>0.52</hc-middle-y>
    <hc-key>vc-ge</hc-key>
    <hc-a2>GE</hc-a2>
  </desc>
</path>

<path fill="#CEE3F5" stroke="#6E6E6E" stroke-width="0.4" id="VC.PA" d="M230.5,103.6 L224.4,115.7 L221.0,124.3 L209.8,126.2 L203.0,129.1 L187.4,146.5 L170.0,159.2 L159.0,171.1 L151.9,145.4 L154.0,115.5 L161.1,101.4 L176.9,106.2 L196.0,110.4 L207.3,102.6 L219.1,92.1 Z">
  <desc xmlns="http://www.highcharts.com/svg/namespace">
    <labelrank>20</labelrank>
    <hasc>VC.PA</hasc>
    <alt-name>NULL</alt-name>
    <woe-id>2347675</woe-id>
    <subregion>NULL</subregion>
    <fips>VC05</fips>
    <postal-code>PA</postal-code>
    <name>Saint Patrick</name>
    <country>Saint Vincent and the Grenadines</country>
    <type-en>Parish</type-en>
    <region>NULL</region>
    <longitude>-61.2534</longitude>
    <woe-name>Saint Patrick</woe-name>
    <latitude>13.2313</latitude>
    <woe-label>Saint Patrick, VC, Saint Vincent and the Grenadines</woe-label>
    <type>Parish</type>
    <hc-middle-x>0.32</hc-middle-x>
    <hc-middle-y>0.48</hc-middle-y>
    <hc-key>vc-pa</hc-key>
    <hc-a2>PA</hc-a2>
  </desc>
</path>
</g>

<text x="350" y="714" text-anchor="middle" font-family="Verdana" font-size="8" stroke-opacity="0.6">Copyright (c) 2023 Highsoft AS, Based on data from Natural Earth</text>

</svg>