<?xml version="1.0" encoding="utf-8" standalone="no"?>
<!DOCTYPE svg PUBLIC "-//W3C//DTD SVG 1.1//EN" "http://www.w3.org/Graphics/SVG/1.1/DTD/svg11.dtd">

<svg version="1.1" height="700pt" width="700pt" xmlns="http://www.w3.org/2000/svg" xmlns:xlink="http://www.w3.org/1999/xlink">
<desc>
Map version: 2.1.0
Copyright (c) 2023 Highsoft AS, Based on data from Natural Earth
</desc>
<title>Solomon Islands</title>
<g id="admin1">

<g id="SB">
  <desc xmlns="http://www.highcharts.com/svg/namespace">
    <name>Solomon Islands</name>
    <labelrank>3</labelrank>
    <country-abbrev>S. Is.</country-abbrev>
    <subregion>Melanesia</subregion>
    <region-wb>East Asia &amp; Pacific</region-wb>
    <iso-a3>SLB</iso-a3>
    <iso-a2>SB</iso-a2>
    <woe-id>23424766</woe-id>
    <continent>Oceania</continent>
    <hc-key>sb</hc-key>
    <hc-a2>SI</hc-a2>
  </desc>
</g>

<path fill="#CEE3F5" stroke="#6E6E6E" stroke-width="0.4" id="SB.4191" d="M365.7,290.5 L366.1,291.4 L365.1,291.4 L364.8,290.8 Z M367.3,288.9 L366.8,289.0 L366.1,288.8 L366.0,288.1 L366.3,287.7 L366.3,286.8 L367.0,286.5 L367.7,287.1 L368.1,288.0 Z M542.3,283.6 L541.5,283.8 L542.4,282.4 L542.6,281.3 L543.0,281.1 L543.8,281.7 L544.0,282.4 L543.5,283.4 Z M341.1,255.6 L341.8,256.5 L341.6,256.9 L341.2,256.2 L340.7,255.9 L340.4,255.3 L340.7,254.9 Z M239.3,182.9 L239.7,183.4 L240.0,184.6 L239.3,184.8 L238.5,183.9 L238.0,183.5 L238.1,184.3 L237.7,183.9 L237.3,185.2 L236.8,184.6 L237.1,183.8 L238.0,183.0 L238.4,183.2 Z M27.1,72.0 L28.0,72.2 L28.1,72.7 L27.1,73.8 L25.7,74.3 L25.4,73.4 L25.7,72.5 Z M222.9,3.7 L222.6,3.9 L222.6,2.6 L222.9,2.9 Z M204.9,0.9 L204.1,0.7 L203.7,0.2 L203.9,0.0 L204.6,0.4 Z">
  <desc xmlns="http://www.highcharts.com/svg/namespace">
    <labelrank>20</labelrank>
    <hasc>-99</hasc>
    <alt-name>NULL</alt-name>
    <woe-id>-99</woe-id>
    <subregion>NULL</subregion>
    <fips>NULL</fips>
    <postal-code>NULL</postal-code>
    <name>NULL</name>
    <country>Solomon Islands</country>
    <type-en>NULL</type-en>
    <region>NULL</region>
    <longitude>159.413</longitude>
    <woe-name>NULL</woe-name>
    <latitude>-5.10703</latitude>
    <woe-label>NULL</woe-label>
    <type>NULL</type>
    <hc-middle-x>0.00</hc-middle-x>
    <hc-middle-y>0.25</hc-middle-y>
    <hc-key>sb-4191</hc-key>
    <hc-a2>NU</hc-a2>
  </desc>
</path>

<path fill="#CEE3F5" stroke="#6E6E6E" stroke-width="0.4" id="SB.ML" d="M341.8,226.7 L341.8,227.4 L341.0,228.5 L341.4,229.3 L342.0,233.7 L342.0,234.5 L341.7,235.4 L341.0,234.8 L340.3,233.6 L339.8,232.2 L339.2,228.5 L339.3,227.8 L339.8,227.0 L341.1,227.0 Z M382.9,158.0 L382.6,158.1 L382.2,157.5 L382.4,157.3 L383.6,157.6 Z M272.2,132.8 L271.3,132.8 L270.3,131.5 L270.0,130.8 L270.3,130.2 L270.9,130.1 L271.5,130.9 Z M314.9,226.7 L314.5,228.1 L313.9,229.0 L313.1,228.1 L312.2,226.9 L311.4,225.6 L311.1,224.5 L311.2,218.1 L311.1,216.3 L311.9,214.7 L311.8,213.9 L311.4,213.0 L311.2,211.9 L310.2,212.3 L310.2,211.2 L309.8,210.1 L308.7,208.2 L309.3,208.0 L310.5,209.4 L312.3,210.5 L312.6,211.0 L312.9,211.9 L314.4,214.1 L315.7,216.8 L316.7,218.0 L317.0,219.2 L318.4,220.9 L319.1,222.2 L319.4,223.1 L319.5,224.1 L319.4,226.0 L319.6,226.9 L320.3,228.6 L320.5,229.8 L320.2,231.0 L319.7,232.0 L319.2,232.1 L319.0,231.1 L316.8,228.7 L316.0,226.8 L315.4,226.5 Z M287.7,180.0 L288.7,180.9 L289.3,181.9 L290.0,181.8 L291.3,181.2 L291.8,181.4 L293.2,182.5 L293.7,183.0 L293.3,184.0 L294.1,184.8 L294.7,184.5 L296.0,185.1 L297.3,186.1 L298.5,187.2 L299.4,188.6 L298.7,188.3 L298.2,188.7 L298.0,189.3 L299.1,189.9 L299.7,190.5 L300.0,191.4 L299.8,192.2 L300.4,192.8 L300.6,194.4 L301.2,194.5 L302.5,195.5 L302.5,196.3 L301.1,197.3 L302.1,197.7 L302.6,198.4 L303.3,198.1 L304.0,198.3 L304.3,198.8 L304.1,199.5 L305.5,199.9 L305.5,200.2 L303.5,200.6 L303.3,200.8 L303.6,202.1 L304.2,202.8 L304.5,204.7 L305.1,205.3 L304.4,205.7 L303.8,204.8 L303.3,204.6 L302.8,204.9 L303.4,206.1 L305.5,208.2 L306.0,209.1 L307.7,213.3 L308.7,214.2 L309.4,215.2 L310.4,217.0 L311.0,221.2 L311.0,222.3 L310.7,223.0 L310.1,223.2 L309.3,222.8 L306.6,220.9 L306.1,220.8 L306.0,219.9 L305.6,219.1 L303.5,216.3 L303.1,215.3 L302.9,213.7 L302.3,212.8 L299.8,210.2 L296.2,208.3 L295.0,206.9 L292.5,206.5 L292.8,205.6 L291.4,203.9 L290.6,203.4 L289.4,203.4 L288.9,202.8 L288.8,201.6 L287.6,200.5 L284.7,199.1 L283.5,197.9 L279.7,190.8 L278.8,188.2 L278.1,187.0 L278.5,186.3 L278.1,185.6 L278.1,184.8 L277.3,182.1 L276.5,181.0 L274.4,176.6 L274.2,175.9 L274.2,173.0 L274.1,172.5 L272.4,168.8 L273.3,168.2 L274.9,166.8 L275.8,166.6 L275.8,166.1 L274.6,163.3 L272.5,160.6 L272.2,160.0 L271.6,159.7 L269.8,157.9 L269.2,157.1 L268.6,154.8 L269.6,154.0 L271.6,154.2 L273.5,154.9 L274.6,155.9 L275.0,156.1 L276.1,155.7 L276.4,155.3 L276.3,154.8 L274.6,153.7 L275.1,153.0 L276.1,152.8 L276.1,153.1 L277.3,153.2 L278.0,153.5 L279.0,155.0 L280.1,155.8 L280.6,156.2 L281.4,157.8 L281.6,159.1 L282.6,159.7 L284.4,162.5 L287.1,165.4 L289.2,167.2 L290.5,168.8 L291.0,169.9 L291.2,170.9 L290.7,172.0 L289.7,172.6 L288.6,173.0 L287.6,173.5 L288.1,174.9 L288.1,175.6 L287.3,177.1 L287.2,177.7 Z">
  <desc xmlns="http://www.highcharts.com/svg/namespace">
    <labelrank>6</labelrank>
    <hasc>SB.ML</hasc>
    <alt-name>NULL</alt-name>
    <woe-id>2344836</woe-id>
    <subregion>NULL</subregion>
    <fips>BP03</fips>
    <postal-code>ML</postal-code>
    <name>Malaita</name>
    <country>Solomon Islands</country>
    <type-en>Province</type-en>
    <region>NULL</region>
    <longitude>161.956</longitude>
    <woe-name>Malaita</woe-name>
    <latitude>-9.75831</latitude>
    <woe-label>Malaita, SB, Solomon Islands</woe-label>
    <type>Province</type>
    <hc-middle-x>0.20</hc-middle-x>
    <hc-middle-y>0.59</hc-middle-y>
    <hc-key>sb-ml</hc-key>
    <hc-a2>ML</hc-a2>
  </desc>
</path>

<path fill="#CEE3F5" stroke="#6E6E6E" stroke-width="0.4" id="SB.RB" d="M229.6,312.1 L229.7,313.0 L228.5,312.5 L227.5,312.2 L226.6,311.8 L225.7,310.8 L226.5,310.8 L227.2,311.2 L229.0,311.5 Z M266.8,336.9 L267.7,338.1 L266.5,339.0 L265.0,338.7 L264.4,338.9 L263.7,340.4 L263.3,340.8 L262.5,340.7 L261.3,339.1 L260.8,338.6 L260.0,338.9 L259.4,338.8 L257.4,337.4 L257.2,337.1 L256.6,334.8 L256.1,333.9 L255.1,333.1 L252.9,332.7 L252.3,332.3 L252.2,330.3 L251.5,329.4 L250.5,329.0 L249.4,329.0 L248.3,330.5 L247.2,330.6 L246.1,330.5 L245.2,330.1 L243.2,329.0 L242.2,328.7 L242.6,327.9 L241.6,327.2 L240.8,327.3 L239.5,327.9 L238.6,327.6 L237.9,327.1 L236.4,325.2 L236.2,324.4 L235.4,323.4 L236.1,321.8 L237.1,320.9 L237.5,320.2 L238.3,320.6 L239.0,321.4 L240.1,322.1 L241.9,322.0 L242.4,322.3 L243.4,323.2 L244.5,323.9 L247.5,325.3 L249.0,326.5 L250.8,327.4 L252.4,328.6 L253.4,329.1 L255.8,329.8 L257.9,330.8 L263.6,334.9 Z">
  <desc xmlns="http://www.highcharts.com/svg/namespace">
    <labelrank>6</labelrank>
    <hasc>SB.RB</hasc>
    <alt-name>NULL</alt-name>
    <woe-id>-2344841</woe-id>
    <subregion>NULL</subregion>
    <fips>BP10</fips>
    <postal-code>RB</postal-code>
    <name>Rennell and Bellona</name>
    <country>Solomon Islands</country>
    <type-en>Province</type-en>
    <region>NULL</region>
    <longitude>160.273</longitude>
    <woe-name>NULL</woe-name>
    <latitude>-11.6204</latitude>
    <woe-label>NULL</woe-label>
    <type>Province</type>
    <hc-middle-x>0.83</hc-middle-x>
    <hc-middle-y>0.84</hc-middle-y>
    <hc-key>sb-rb</hc-key>
    <hc-a2>RB</hc-a2>
  </desc>
</path>

<path fill="#CEE3F5" stroke="#6E6E6E" stroke-width="0.4" id="SB.1014" d="M228.9,195.1 L229.3,196.2 L229.5,197.4 L229.4,198.4 L228.7,198.8 L228.0,198.5 L227.5,197.6 L227.4,196.5 L227.8,195.5 L228.6,195.4 Z M258.9,197.4 L258.1,198.8 L257.0,199.6 L255.9,199.2 L254.9,198.6 L253.8,198.2 L252.8,198.5 L253.0,199.2 L252.2,199.6 L251.0,199.9 L249.9,199.9 L250.1,199.2 L249.1,198.9 L249.9,198.1 L251.1,198.1 L252.3,197.6 L253.1,196.7 L253.8,194.1 L254.4,193.0 L255.3,193.1 L256.7,195.6 L257.3,196.0 L258.7,196.1 L259.6,196.7 Z M196.5,193.6 L196.7,193.8 L197.5,193.6 L197.3,195.0 L196.5,195.8 L194.2,196.9 L194.2,195.5 L194.4,194.5 L195.3,192.6 L195.8,192.5 L196.9,191.3 L197.5,190.8 L197.1,191.5 L197.1,192.6 L196.6,193.1 Z M192.1,189.0 L192.4,189.7 L192.6,190.7 L193.4,191.1 L193.8,190.5 L194.2,190.5 L195.3,190.8 L193.5,194.4 L192.8,195.1 L190.3,195.8 L189.0,194.7 L188.4,195.1 L187.1,193.2 L187.2,192.6 L188.8,192.6 L188.5,191.9 L188.7,191.4 L189.2,191.2 L189.9,191.5 L189.9,190.8 L191.0,191.1 L190.7,190.1 L189.9,189.3 L190.6,189.3 L191.6,189.6 Z M243.8,188.3 L243.7,189.4 L243.0,189.1 L242.5,189.5 L241.9,190.9 L241.3,190.4 L241.3,189.8 L241.9,188.5 L241.7,187.1 L241.9,186.7 L242.6,186.5 L243.5,187.6 Z M243.3,191.5 L244.3,191.2 L244.8,190.5 L245.2,190.9 L245.5,190.1 L245.2,189.4 L245.5,189.1 L245.9,189.4 L246.9,189.8 L247.8,189.7 L248.8,189.8 L249.5,190.9 L249.9,190.9 L250.4,190.0 L251.4,190.2 L252.4,190.9 L253.3,191.8 L253.6,193.0 L253.3,194.5 L252.5,195.9 L251.7,196.7 L251.3,196.1 L250.6,196.3 L250.5,195.7 L249.8,194.9 L249.1,194.9 L249.5,196.0 L249.1,196.0 L248.3,194.6 L247.6,194.0 L246.0,194.7 L245.0,194.7 L244.1,194.5 L243.3,194.1 L243.1,192.9 L242.2,192.4 L241.9,191.8 Z">
  <desc xmlns="http://www.highcharts.com/svg/namespace">
    <labelrank>6</labelrank>
    <hasc>SB.GC</hasc>
    <alt-name>NULL</alt-name>
    <woe-id>2344838</woe-id>
    <subregion>NULL</subregion>
    <fips>BP10</fips>
    <postal-code>NULL</postal-code>
    <name>Central</name>
    <country>Solomon Islands</country>
    <type-en>Province</type-en>
    <region>NULL</region>
    <longitude>159.825</longitude>
    <woe-name>Central</woe-name>
    <latitude>-9.140029999999999</latitude>
    <woe-label>Central, SB, Solomon Islands</woe-label>
    <type>Province</type>
    <hc-middle-x>0.84</hc-middle-x>
    <hc-middle-y>0.44</hc-middle-y>
    <hc-key>sb-1014</hc-key>
    <hc-a2>CE</hc-a2>
  </desc>
</path>

<path fill="#CEE3F5" stroke="#6E6E6E" stroke-width="0.4" id="SB.IS" d="M219.8,162.2 L222.0,164.1 L222.0,164.4 L220.9,165.2 L219.9,165.2 L218.6,164.6 L217.4,163.5 L216.8,162.5 L216.3,162.3 L215.6,162.8 L214.9,162.0 L214.1,161.5 L213.5,160.9 L213.4,159.5 L213.8,158.1 L214.5,157.2 L215.6,156.7 L217.1,156.6 L218.6,157.0 L219.0,157.8 L218.9,160.3 L219.2,161.4 Z M148.3,109.1 L148.6,109.7 L149.3,109.5 L149.9,109.8 L151.1,110.8 L151.7,110.3 L152.9,110.4 L154.1,110.8 L155.1,111.5 L154.2,112.2 L154.4,113.3 L152.0,112.8 L151.4,112.6 L150.0,111.0 L148.4,110.6 L147.3,109.9 L146.1,109.4 L146.3,108.3 L146.7,108.3 Z M146.3,104.3 L146.3,105.7 L147.1,105.4 L146.7,106.4 L146.7,107.5 L145.6,106.8 L145.3,108.6 L144.5,108.1 L143.5,106.8 L142.4,106.8 L142.4,106.5 L143.1,105.7 L143.9,105.8 L145.3,104.5 Z M153.2,114.0 L154.5,114.3 L155.1,115.1 L156.0,115.5 L157.8,115.9 L158.6,116.2 L159.4,117.0 L160.0,117.8 L159.8,118.4 L159.0,118.5 L158.2,118.1 L157.2,116.6 L156.7,117.3 L155.7,117.1 L153.6,115.9 L153.7,116.4 L154.4,117.7 L152.5,117.3 L151.3,117.4 L151.1,116.3 L150.5,115.5 L149.4,115.2 L148.9,114.3 L149.6,114.2 L151.3,114.6 L151.6,114.5 L151.3,113.6 L152.1,113.4 Z M185.2,128.5 L185.9,128.3 L188.0,129.1 L188.6,129.5 L189.2,131.0 L189.5,131.4 L190.3,131.2 L191.7,132.3 L192.9,131.7 L193.9,131.5 L194.9,131.6 L196.0,131.9 L195.4,132.2 L195.5,132.7 L196.6,133.3 L198.0,133.7 L198.5,134.8 L199.4,134.1 L200.0,134.6 L200.4,135.4 L200.9,135.9 L202.7,136.0 L203.4,135.8 L203.7,135.1 L204.7,135.6 L205.5,136.2 L206.3,135.6 L206.8,136.2 L207.8,138.2 L208.7,138.9 L211.6,140.6 L212.0,141.3 L214.4,143.3 L219.3,146.2 L229.5,153.9 L229.7,154.4 L228.6,155.6 L227.5,157.1 L227.1,157.4 L226.0,157.0 L225.4,157.0 L225.0,157.7 L225.9,158.3 L226.3,159.2 L227.3,158.9 L227.7,158.4 L228.2,158.9 L229.8,161.1 L230.2,161.9 L230.4,163.7 L232.0,164.9 L232.6,165.8 L231.9,166.4 L231.4,166.3 L229.7,165.3 L228.6,165.3 L228.0,164.4 L227.1,164.0 L226.5,163.1 L225.4,162.7 L224.3,161.4 L222.6,160.1 L222.1,159.5 L222.0,158.2 L221.2,158.1 L220.6,157.7 L218.1,155.5 L213.8,154.6 L211.9,153.5 L210.6,152.9 L209.4,151.9 L208.5,151.5 L207.6,151.3 L206.9,151.5 L205.1,150.4 L204.2,150.1 L203.3,150.4 L202.7,149.2 L202.3,148.5 L201.6,148.2 L200.2,148.0 L199.7,147.5 L199.7,146.8 L198.5,147.2 L197.4,147.0 L196.3,146.4 L191.4,142.8 L189.9,142.8 L189.7,142.4 L189.6,141.3 L189.1,141.2 L188.4,141.7 L187.0,141.0 L185.5,141.0 L185.2,139.9 L183.9,139.2 L183.8,138.4 L182.3,139.1 L182.2,138.1 L181.7,137.3 L180.9,136.8 L179.9,136.6 L176.9,135.1 L176.6,133.1 L176.1,132.2 L175.2,132.4 L173.6,132.1 L172.8,131.6 L173.2,130.8 L172.1,129.7 L171.8,129.7 L171.2,130.4 L170.7,129.8 L169.9,127.9 L168.5,126.5 L167.6,126.2 L166.7,126.5 L166.2,125.5 L163.9,124.2 L163.1,123.5 L162.8,122.8 L163.1,121.2 L163.1,119.0 L158.9,115.5 L156.2,114.1 L155.7,113.3 L155.6,112.4 L156.0,111.7 L156.9,111.9 L158.0,112.5 L163.2,114.3 L163.6,114.6 L164.1,114.6 L165.2,113.4 L165.9,113.7 L166.7,113.3 L167.1,114.3 L167.9,115.0 L169.9,115.9 L170.9,114.9 L171.9,115.0 L172.7,116.8 L173.7,117.8 L175.2,118.8 L176.0,120.3 L177.0,120.9 L178.3,122.4 L178.9,122.8 L180.8,123.5 L181.8,124.1 L183.4,125.4 L184.5,126.1 L183.9,127.1 L184.3,128.0 Z">
  <desc xmlns="http://www.highcharts.com/svg/namespace">
    <labelrank>6</labelrank>
    <hasc>SB.IS</hasc>
    <alt-name>NULL</alt-name>
    <woe-id>2344840</woe-id>
    <subregion>NULL</subregion>
    <fips>BP07</fips>
    <postal-code>IS</postal-code>
    <name>Isabel</name>
    <country>Solomon Islands</country>
    <type-en>Province</type-en>
    <region>NULL</region>
    <longitude>159.619</longitude>
    <woe-name>Isabel</woe-name>
    <latitude>-8.446949999999999</latitude>
    <woe-label>Isabel, SB, Solomon Islands</woe-label>
    <type>Province</type>
    <hc-middle-x>0.44</hc-middle-x>
    <hc-middle-y>0.44</hc-middle-y>
    <hc-key>sb-is</hc-key>
    <hc-a2>IS</hc-a2>
  </desc>
</path>

<path fill="#CEE3F5" stroke="#6E6E6E" stroke-width="0.4" id="SB.TE" d="M699.6,373.3 L698.7,373.6 L698.5,373.1 L699.3,372.3 L699.9,372.4 L700.0,373.1 Z M602.7,336.1 L601.8,336.2 L601.4,335.6 L601.8,334.7 L602.5,334.0 L603.4,334.0 L603.9,334.2 L603.6,335.5 Z M582.2,314.6 L581.8,315.9 L580.6,317.2 L579.6,317.3 L578.8,316.9 L578.8,316.1 L579.4,315.3 L579.3,314.6 L577.9,315.5 L577.6,315.0 L577.8,313.8 L578.6,312.9 L579.5,312.1 L580.2,311.8 L581.0,312.2 L581.8,312.8 L582.2,313.6 Z M540.0,268.8 L539.1,268.8 L538.8,268.3 L539.0,267.3 L539.4,267.1 L540.1,267.3 L540.5,268.0 L540.4,268.5 Z M566.6,258.6 L566.5,261.2 L567.8,261.0 L568.5,261.5 L567.9,262.5 L566.9,263.4 L566.2,263.5 L566.2,262.0 L565.8,261.6 L566.2,260.5 L566.4,259.4 L566.3,258.3 Z M617.4,242.3 L617.0,242.4 L616.3,241.9 L616.0,240.9 L616.2,240.5 L616.8,240.5 L617.4,241.2 L617.5,241.9 Z M596.7,332.8 L597.9,332.7 L599.1,332.9 L601.3,333.8 L600.7,335.5 L600.6,337.3 L603.5,337.2 L603.7,339.3 L599.8,339.5 L598.7,339.6 L596.3,339.3 L595.5,338.2 L594.9,337.6 L594.2,337.3 L592.4,334.9 L592.4,334.0 L592.9,333.5 L594.5,332.7 Z M543.9,289.8 L542.4,291.1 L540.8,290.9 L540.1,289.7 L540.0,286.4 L541.1,285.7 L542.2,284.2 L542.7,284.2 L542.4,286.0 L543.2,286.9 L543.7,287.1 L544.0,286.4 L544.2,284.2 L545.1,283.0 L546.8,281.5 L549.2,281.4 L552.9,281.9 L554.6,281.2 L556.4,281.6 L557.3,282.1 L557.7,282.6 L559.2,282.4 L560.7,282.5 L561.0,283.8 L560.4,284.4 L560.1,285.4 L558.2,286.2 L557.5,286.7 L555.9,287.6 L554.6,287.6 L553.2,287.0 L552.0,287.9 L551.5,287.7 L549.6,287.9 L547.3,290.5 L545.7,292.8 L545.0,292.1 L545.2,290.7 L544.6,289.9 Z">
  <desc xmlns="http://www.highcharts.com/svg/namespace">
    <labelrank>6</labelrank>
    <hasc>SB.TE</hasc>
    <alt-name>Eastern Islands</alt-name>
    <woe-id>20069919</woe-id>
    <subregion>NULL</subregion>
    <fips>BP09</fips>
    <postal-code>TE</postal-code>
    <name>Temotu</name>
    <country>Solomon Islands</country>
    <type-en>Province</type-en>
    <region>NULL</region>
    <longitude>168.812</longitude>
    <woe-name>Temotu</woe-name>
    <latitude>-12.277</latitude>
    <woe-label>Temotu, SB, Solomon Islands</woe-label>
    <type>Province</type>
    <hc-middle-x>0.07</hc-middle-x>
    <hc-middle-y>0.34</hc-middle-y>
    <hc-key>sb-te</hc-key>
    <hc-a2>TE</hc-a2>
  </desc>
</path>

<path fill="#CEE3F5" stroke="#6E6E6E" stroke-width="0.4" id="SB.3343" d="M110.6,174.4 L111.6,175.4 L113.0,176.1 L113.8,177.3 L113.7,178.4 L112.3,178.9 L110.0,177.8 L107.4,177.1 L104.6,175.9 L103.3,175.0 L103.5,174.2 L105.5,174.5 L106.3,174.5 L107.1,174.2 L107.4,174.6 L107.9,173.9 L108.5,173.4 L108.9,173.5 L109.5,174.0 Z M143.0,180.7 L142.1,181.0 L141.1,179.4 L140.4,178.8 L140.4,178.2 L141.0,176.3 L142.5,175.2 L143.0,174.1 L143.2,172.6 L143.6,172.6 L143.6,173.7 L144.0,174.5 L144.4,175.7 L144.5,176.9 L144.3,177.7 L145.8,178.3 L145.6,179.2 L145.3,179.4 L144.1,179.8 Z M87.4,154.3 L87.4,154.7 L85.9,153.8 L85.1,151.8 L84.1,150.0 L82.0,149.6 L82.7,148.9 L81.8,148.5 L80.9,147.7 L80.5,147.0 L81.2,146.7 L81.9,147.2 L83.3,147.3 L84.6,147.6 L85.2,148.7 L85.3,149.3 L85.9,151.4 L86.2,153.1 L86.6,153.9 Z M84.5,145.2 L85.8,145.7 L87.0,145.6 L88.1,145.6 L89.2,146.6 L89.7,147.7 L90.1,149.1 L90.3,150.6 L90.3,152.1 L89.9,152.1 L89.8,151.3 L88.5,151.0 L87.8,149.2 L86.7,147.4 L85.9,146.8 L84.8,146.3 L85.2,145.9 L84.4,145.8 Z M69.2,139.8 L69.4,140.7 L70.0,140.5 L70.9,142.8 L69.5,142.8 L67.9,141.4 L68.1,139.8 Z M58.4,147.1 L57.5,147.5 L57.0,146.9 L55.6,143.0 L54.9,141.8 L54.7,140.6 L55.1,138.1 L54.5,135.4 L54.5,134.2 L55.4,133.7 L56.9,135.1 L57.4,137.0 L58.1,138.2 L58.4,139.1 L59.0,142.1 L59.0,142.9 L58.7,143.5 L59.1,144.7 L59.0,146.0 Z M55.7,127.2 L54.6,127.8 L53.6,127.3 L53.7,126.8 L54.7,125.8 L55.1,125.9 L55.9,126.4 Z M3.3,101.3 L4.1,101.8 L5.8,103.5 L4.7,104.5 L3.6,104.8 L0.9,104.6 L0.0,104.2 L0.3,103.2 L1.8,101.3 Z M16.2,85.2 L18.2,85.7 L19.0,86.6 L19.0,87.3 L18.5,89.0 L18.1,89.3 L16.2,89.7 L15.5,89.6 L14.7,90.3 L12.9,90.2 L11.9,90.7 L10.4,89.6 L8.9,89.1 L8.6,88.9 L8.7,88.2 L10.1,85.2 L10.5,85.5 L11.0,83.7 L11.9,83.4 L11.7,83.0 L11.9,82.3 L12.5,82.6 L14.4,84.1 Z M129.5,176.5 L129.4,176.1 L128.4,175.6 L127.7,174.5 L125.9,172.8 L125.8,170.1 L126.2,168.3 L127.0,167.2 L126.9,166.5 L128.4,167.3 L128.9,167.4 L129.1,166.5 L129.7,166.7 L129.8,167.2 L130.3,166.5 L129.8,165.5 L129.8,164.6 L130.2,164.3 L132.7,163.2 L133.1,163.9 L132.5,164.6 L132.9,165.5 L133.6,165.8 L134.2,165.5 L135.2,164.6 L136.3,164.4 L137.6,164.4 L138.7,164.7 L139.2,165.5 L139.3,166.7 L138.9,167.5 L137.3,167.7 L136.8,168.3 L135.8,168.7 L136.0,169.3 L137.0,169.5 L137.4,169.7 L138.5,169.4 L137.8,170.3 L137.1,170.8 L138.3,172.0 L137.8,173.3 L135.7,175.2 L134.8,176.5 L132.9,177.2 L132.2,177.3 L131.0,177.1 Z M91.4,164.4 L92.9,163.7 L93.6,163.1 L94.6,161.1 L96.1,159.6 L97.7,158.6 L98.7,158.6 L99.7,159.3 L100.5,160.3 L101.0,161.6 L101.2,163.1 L100.3,164.4 L99.8,166.1 L99.4,166.9 L98.9,167.4 L97.6,167.1 L97.2,167.6 L97.3,168.8 L96.9,170.3 L96.8,171.2 L97.1,171.9 L99.0,173.9 L100.1,174.7 L101.3,175.0 L101.3,175.3 L100.5,175.5 L99.5,175.4 L98.5,175.2 L97.2,174.2 L95.9,173.7 L95.8,172.1 L94.1,169.6 L91.5,168.2 L90.5,167.4 L90.0,166.8 L90.5,165.4 Z M125.8,166.2 L126.2,167.6 L122.9,166.3 L121.5,166.2 L121.5,166.5 L122.2,166.9 L122.7,167.6 L122.9,168.4 L122.6,169.4 L122.2,169.4 L122.1,168.5 L121.1,167.4 L120.9,166.6 L120.5,165.9 L119.3,164.7 L117.9,163.9 L115.0,163.7 L113.7,163.1 L111.4,161.5 L109.9,159.8 L109.8,159.0 L109.2,157.1 L109.2,153.8 L109.8,155.1 L109.9,156.5 L110.2,157.2 L111.4,157.5 L111.9,158.5 L112.6,158.0 L112.8,157.3 L112.5,156.7 L111.2,155.5 L110.7,153.8 L110.1,152.6 L109.3,151.3 L108.4,150.6 L107.7,150.4 L105.9,151.0 L104.8,150.3 L104.5,151.0 L103.5,150.6 L101.9,151.3 L100.1,151.3 L98.2,151.2 L97.6,151.3 L96.8,153.1 L96.2,154.0 L95.0,154.6 L94.1,154.4 L92.3,153.4 L91.4,153.6 L91.0,148.6 L92.0,147.2 L92.3,147.0 L93.6,146.9 L94.6,146.2 L94.9,146.9 L95.3,147.1 L96.1,146.6 L96.2,145.0 L96.4,144.4 L96.3,143.8 L96.5,143.1 L98.2,140.9 L99.0,139.1 L99.5,138.4 L101.8,136.2 L102.6,135.6 L105.8,134.6 L106.2,134.9 L109.9,137.0 L111.3,137.1 L110.9,138.0 L111.6,140.2 L111.6,142.2 L111.7,143.2 L112.0,144.0 L111.5,145.0 L111.7,145.6 L112.9,146.7 L113.4,147.5 L113.0,148.8 L113.1,149.4 L113.5,149.1 L114.6,149.4 L115.5,148.9 L117.0,148.5 L117.9,148.5 L118.7,148.8 L120.3,149.9 L120.7,150.5 L121.1,152.0 L121.7,152.8 L123.1,153.8 L123.6,154.5 L123.6,155.9 L123.9,156.8 L125.1,157.8 L125.5,158.7 L125.9,160.5 L126.2,161.4 L127.1,161.7 L127.3,162.1 L127.1,163.1 L125.9,165.2 Z M84.0,128.8 L86.5,130.1 L88.2,132.0 L89.4,134.3 L89.9,136.8 L90.0,139.3 L89.8,140.2 L89.0,142.4 L88.1,144.0 L87.0,144.7 L85.9,143.4 L85.2,143.6 L84.8,143.4 L82.1,143.6 L79.4,141.4 L77.3,138.3 L76.4,135.7 L76.7,134.4 L77.2,133.2 L78.4,131.3 L79.3,130.2 L80.9,129.5 L82.8,129.0 Z M62.8,133.5 L62.2,133.3 L61.2,133.7 L61.1,132.6 L61.3,131.5 L61.2,130.7 L58.7,130.1 L58.5,129.2 L59.0,127.0 L58.8,126.6 L57.5,125.7 L56.8,124.3 L56.5,123.9 L55.1,123.5 L55.1,123.1 L54.5,121.9 L54.2,121.7 L53.5,122.1 L52.5,119.7 L52.9,117.3 L54.3,115.3 L56.4,114.1 L58.0,114.5 L58.5,114.1 L59.0,114.9 L59.6,115.5 L59.8,116.2 L60.6,116.3 L60.8,117.1 L62.0,117.9 L62.5,119.1 L63.0,119.5 L64.1,119.8 L63.7,120.2 L64.4,121.0 L65.6,120.5 L66.8,120.9 L67.9,121.6 L69.0,122.0 L69.4,122.8 L68.6,124.5 L66.6,127.1 L65.7,128.0 L64.4,129.3 L63.6,130.8 L63.9,132.0 L64.4,132.7 L64.5,133.3 L64.1,133.7 L63.4,134.0 Z M29.8,77.0 L31.4,77.5 L31.1,78.2 L31.9,79.3 L32.6,79.9 L34.0,80.3 L33.0,80.7 L31.9,80.3 L31.5,82.0 L31.1,82.7 L30.4,83.3 L30.0,82.2 L29.3,82.9 L28.2,83.0 L29.8,81.6 L30.0,81.2 L29.4,80.5 L29.3,80.0 L29.7,79.0 L30.6,78.8 L29.6,78.2 L29.0,77.2 L28.4,76.1 L28.5,75.1 L30.0,74.2 L31.1,74.2 L31.1,74.5 L30.4,74.7 L29.8,75.1 L29.4,75.8 L29.3,76.5 Z">
  <desc xmlns="http://www.highcharts.com/svg/namespace">
    <labelrank>6</labelrank>
    <hasc>SB.WE</hasc>
    <alt-name>Lauru</alt-name>
    <woe-id>2344837</woe-id>
    <subregion>NULL</subregion>
    <fips>BP11</fips>
    <postal-code>NULL</postal-code>
    <name>Western</name>
    <country>Solomon Islands</country>
    <type-en>Province</type-en>
    <region>NULL</region>
    <longitude>157.551</longitude>
    <woe-name>Western</woe-name>
    <latitude>-8.729990000000001</latitude>
    <woe-label>Western, SB, Solomon Islands</woe-label>
    <type>Province</type>
    <hc-middle-x>0.72</hc-middle-x>
    <hc-middle-y>0.65</hc-middle-y>
    <hc-key>sb-3343</hc-key>
    <hc-a2>WE</hc-a2>
  </desc>
</path>

<path fill="#CEE3F5" stroke="#6E6E6E" stroke-width="0.4" id="SB.CH" d="M106.1,104.4 L107.5,104.6 L109.0,104.4 L110.3,104.5 L111.2,105.5 L111.5,105.1 L111.9,105.5 L111.4,106.4 L111.9,107.6 L110.4,106.5 L110.4,107.3 L109.9,107.6 L108.2,107.6 L108.2,107.3 L109.3,106.6 L106.2,105.6 L104.8,105.6 L104.3,105.5 Z M120.9,108.0 L121.3,108.7 L119.2,108.7 L118.3,108.4 L117.2,108.7 L116.4,108.1 L115.1,107.4 L115.6,106.0 L117.3,104.0 L119.8,104.9 L120.2,105.2 L120.3,106.0 Z M81.8,78.7 L82.9,80.3 L84.9,81.9 L85.4,82.7 L85.5,83.6 L85.7,85.9 L86.2,88.3 L87.1,90.3 L88.7,92.2 L89.0,93.2 L90.1,92.4 L90.5,93.4 L91.2,94.0 L92.1,94.5 L93.2,94.6 L93.9,94.9 L94.4,95.7 L94.8,97.3 L95.1,97.8 L97.3,98.6 L98.6,99.5 L99.6,100.8 L99.9,100.8 L100.0,99.9 L100.4,99.9 L101.5,100.4 L103.2,100.3 L105.1,99.6 L106.2,99.6 L106.9,100.1 L107.2,101.3 L107.2,102.6 L107.0,103.3 L106.3,103.6 L104.8,103.7 L104.2,104.0 L102.8,106.6 L102.5,105.6 L101.7,105.8 L101.1,105.3 L99.8,105.0 L97.4,104.8 L96.3,104.5 L95.6,103.8 L95.4,102.8 L95.9,101.5 L95.4,101.7 L94.5,102.6 L93.8,102.6 L93.7,103.3 L92.7,102.8 L90.8,102.1 L89.7,101.5 L86.9,101.3 L86.4,101.4 L86.1,101.9 L85.4,101.9 L84.6,101.3 L84.0,99.7 L82.7,98.3 L82.1,98.0 L80.6,98.6 L79.8,98.7 L80.3,98.0 L79.8,97.1 L79.0,96.4 L78.0,95.9 L76.8,95.8 L76.1,95.5 L75.2,94.8 L70.2,89.1 L69.7,87.3 L68.4,86.9 L68.1,86.4 L67.5,85.3 L65.4,82.4 L64.3,81.5 L62.4,78.3 L61.5,77.7 L59.0,76.4 L57.6,75.9 L50.4,69.7 L50.0,69.0 L49.6,66.1 L49.6,65.0 L50.0,64.3 L51.7,62.8 L52.6,62.6 L53.9,62.8 L54.9,63.2 L55.6,63.9 L56.3,64.3 L56.7,65.2 L58.0,64.9 L60.0,65.5 L61.4,66.6 L64.1,69.6 L64.9,70.3 L67.3,71.9 L69.6,72.5 L72.9,74.7 L75.1,75.8 L77.0,76.1 L79.2,77.1 L79.6,78.1 L81.2,78.3 Z">
  <desc xmlns="http://www.highcharts.com/svg/namespace">
    <labelrank>6</labelrank>
    <hasc>SB.CH</hasc>
    <alt-name>Lauru</alt-name>
    <woe-id>-2344837</woe-id>
    <subregion>NULL</subregion>
    <fips>BP11</fips>
    <postal-code>CH</postal-code>
    <name>Choiseul</name>
    <country>Solomon Islands</country>
    <type-en>Province</type-en>
    <region>NULL</region>
    <longitude>157.547</longitude>
    <woe-name>NULL</woe-name>
    <latitude>-7.40991</latitude>
    <woe-label>NULL</woe-label>
    <type>Province</type>
    <hc-middle-x>0.39</hc-middle-x>
    <hc-middle-y>0.50</hc-middle-y>
    <hc-key>sb-ch</hc-key>
    <hc-a2>CH</hc-a2>
  </desc>
</path>

<path fill="#CEE3F5" stroke="#6E6E6E" stroke-width="0.4" id="SB.MK" d="M330.6,258.0 L329.4,258.6 L328.8,258.1 L329.3,257.2 L328.5,256.8 L327.8,255.5 L327.8,254.8 L328.6,254.2 L329.7,255.1 L330.5,256.6 Z M334.0,267.0 L335.1,267.1 L336.3,266.8 L337.1,266.3 L339.1,267.0 L340.0,267.1 L340.7,266.7 L341.9,268.2 L343.1,268.8 L344.8,268.6 L346.0,268.7 L346.2,267.5 L346.6,267.3 L347.5,267.2 L348.6,267.7 L350.0,269.7 L351.2,270.5 L351.6,271.3 L352.6,274.2 L352.9,274.5 L353.9,275.2 L354.1,276.9 L354.5,277.7 L355.2,278.3 L357.1,279.6 L357.6,280.3 L357.8,281.1 L357.8,284.1 L356.6,285.1 L356.4,285.4 L356.7,286.8 L358.4,287.0 L360.5,287.0 L362.1,287.3 L362.7,287.1 L363.0,287.5 L363.0,288.1 L362.3,288.4 L360.3,288.1 L359.6,288.4 L359.2,288.2 L357.0,287.9 L353.3,286.4 L352.1,286.5 L350.9,287.6 L349.7,287.2 L347.7,287.0 L346.6,286.1 L344.3,285.2 L343.0,284.2 L340.8,284.8 L339.9,284.4 L337.7,283.8 L336.8,284.2 L334.8,282.9 L334.4,282.0 L334.1,283.1 L332.9,282.2 L332.3,282.0 L331.6,282.3 L330.8,281.2 L330.4,281.4 L329.9,281.1 L329.8,280.1 L329.3,279.5 L328.0,279.5 L327.3,279.3 L326.9,278.8 L326.5,277.7 L325.7,277.5 L324.7,276.5 L324.0,276.0 L323.4,276.7 L322.9,276.3 L321.9,275.3 L321.7,274.6 L320.8,274.2 L320.8,273.4 L320.1,272.7 L319.7,273.3 L319.0,273.4 L317.6,273.1 L318.7,269.8 L318.1,269.4 L318.1,268.4 L317.5,267.7 L315.8,268.0 L316.7,266.5 L316.7,265.7 L315.8,265.4 L316.8,263.5 L317.4,263.1 L316.9,262.5 L315.5,262.5 L314.6,261.5 L312.5,261.4 L311.8,261.2 L311.3,260.6 L309.4,260.6 L308.6,261.3 L307.8,261.3 L307.4,261.1 L306.1,260.9 L305.1,260.2 L304.9,259.4 L305.3,258.3 L305.1,257.7 L305.9,257.0 L305.5,256.2 L305.5,255.0 L305.9,254.1 L306.9,253.7 L307.8,254.1 L308.1,254.4 L311.0,253.9 L316.5,256.4 L322.1,260.0 L325.2,262.6 L326.2,262.2 L326.9,262.6 L327.9,264.3 L328.7,264.8 L331.0,264.8 L331.6,265.1 L333.2,266.1 Z">
  <desc xmlns="http://www.highcharts.com/svg/namespace">
    <labelrank>6</labelrank>
    <hasc>SB.MK</hasc>
    <alt-name>Makira and Ulawa</alt-name>
    <woe-id>2344841</woe-id>
    <subregion>NULL</subregion>
    <fips>BP08</fips>
    <postal-code>MK</postal-code>
    <name>Makira</name>
    <country>Solomon Islands</country>
    <type-en>Province</type-en>
    <region>NULL</region>
    <longitude>161.744</longitude>
    <woe-name>Makira</woe-name>
    <latitude>-10.2782</latitude>
    <woe-label>Makira, SB, Solomon Islands</woe-label>
    <type>Province</type>
    <hc-middle-x>0.54</hc-middle-x>
    <hc-middle-y>0.59</hc-middle-y>
    <hc-key>sb-mk</hc-key>
    <hc-a2>MK</hc-a2>
  </desc>
</path>

<path fill="#CEE3F5" stroke="#6E6E6E" stroke-width="0.4" id="SB.6633" d="M234.5,212.6 L235.6,212.7 L238.2,212.6 L239.2,212.1 L239.9,212.5 L239.6,213.6 L239.6,214.2 L238.8,214.5 L238.4,214.0 L236.7,214.1 L235.3,213.5 Z">
  <desc xmlns="http://www.highcharts.com/svg/namespace">
    <labelrank>6</labelrank>
    <hasc>SB.CT</hasc>
    <alt-name>NULL</alt-name>
    <woe-id>-2344839</woe-id>
    <subregion>NULL</subregion>
    <fips>BP06</fips>
    <postal-code>NULL</postal-code>
    <name>Capital Territory (Honiara)</name>
    <country>Solomon Islands</country>
    <type-en>Province</type-en>
    <region>NULL</region>
    <longitude>160.019</longitude>
    <woe-name>NULL</woe-name>
    <latitude>-9.446580000000001</latitude>
    <woe-label>NULL</woe-label>
    <type>Province</type>
    <hc-middle-x>0.52</hc-middle-x>
    <hc-middle-y>0.58</hc-middle-y>
    <hc-key>sb-6633</hc-key>
    <hc-a2>CT</hc-a2>
  </desc>
</path>

<path fill="#CEE3F5" stroke="#6E6E6E" stroke-width="0.4" id="SB.GC" d="M234.5,212.6 L235.3,213.5 L236.7,214.1 L238.4,214.0 L238.8,214.5 L239.6,214.2 L239.6,213.6 L239.9,212.5 L239.2,212.1 L240.0,211.6 L242.9,212.6 L244.0,212.7 L245.5,211.7 L246.0,211.6 L247.1,211.7 L248.8,212.2 L249.8,212.3 L250.6,211.8 L251.2,211.6 L252.0,212.0 L255.9,212.0 L257.0,211.6 L257.6,212.2 L258.7,212.7 L259.8,214.2 L261.9,214.9 L262.7,215.9 L264.2,218.2 L266.2,218.0 L268.6,219.0 L270.8,220.7 L272.1,222.2 L272.7,224.2 L272.8,226.4 L273.1,226.8 L274.5,226.6 L275.2,226.7 L276.8,227.7 L278.6,228.2 L279.0,228.4 L279.2,230.4 L280.0,230.9 L280.0,232.6 L280.2,233.1 L281.1,234.3 L281.0,235.9 L279.6,236.7 L275.7,237.5 L273.6,238.2 L272.5,238.8 L271.5,239.5 L267.7,238.5 L264.4,236.9 L263.2,236.7 L261.1,237.1 L260.4,236.9 L259.1,235.3 L258.0,235.3 L257.3,234.2 L254.5,233.0 L248.6,232.7 L244.1,233.4 L241.8,233.4 L240.3,233.2 L239.3,233.4 L238.9,233.2 L236.6,232.7 L234.3,232.4 L232.5,231.4 L231.7,231.2 L230.7,231.3 L229.8,231.7 L229.0,231.8 L227.9,231.0 L225.5,228.5 L223.1,227.1 L223.1,226.1 L222.2,225.5 L221.8,224.1 L220.6,223.7 L220.4,223.4 L220.6,222.4 L220.1,221.2 L219.4,220.1 L217.8,218.2 L216.7,217.3 L216.6,216.8 L217.8,216.0 L218.0,215.5 L217.9,215.0 L217.0,213.4 L217.0,212.7 L217.3,211.3 L217.0,209.5 L216.2,208.8 L217.0,207.9 L217.1,206.1 L217.5,205.3 L219.1,204.7 L222.4,202.8 L224.2,203.4 L226.1,204.6 L228.9,207.2 L231.0,208.7 L232.1,210.8 L233.6,212.3 Z">
  <desc xmlns="http://www.highcharts.com/svg/namespace">
    <labelrank>6</labelrank>
    <hasc>SB.GC</hasc>
    <alt-name>NULL</alt-name>
    <woe-id>2344839</woe-id>
    <subregion>NULL</subregion>
    <fips>BP06</fips>
    <postal-code>GC</postal-code>
    <name>Guadalcanal</name>
    <country>Solomon Islands</country>
    <type-en>Province</type-en>
    <region>NULL</region>
    <longitude>160.209</longitude>
    <woe-name>Guadalcanal</woe-name>
    <latitude>-9.616949999999999</latitude>
    <woe-label>Guadalcanal, SB, Solomon Islands</woe-label>
    <type>Province</type>
    <hc-middle-x>0.49</hc-middle-x>
    <hc-middle-y>0.54</hc-middle-y>
    <hc-key>sb-gc</hc-key>
    <hc-a2>GC</hc-a2>
  </desc>
</path>
</g>

<text x="350" y="714" text-anchor="middle" font-family="Verdana" font-size="8" stroke-opacity="0.6">Copyright (c) 2023 Highsoft AS, Based on data from Natural Earth</text>

</svg>