<?xml version="1.0" encoding="utf-8" standalone="no"?>
<!DOCTYPE svg PUBLIC "-//W3C//DTD SVG 1.1//EN" "http://www.w3.org/Graphics/SVG/1.1/DTD/svg11.dtd">

<svg version="1.1" height="700pt" width="700pt" xmlns="http://www.w3.org/2000/svg" xmlns:xlink="http://www.w3.org/1999/xlink">
<desc>
Map version: 2.1.0
Copyright (c) 2023 Highsoft AS, Based on data from Natural Earth
</desc>
<title>India with disputed territories (2013)</title>
<g id="admin1">

<g id="IN">
  <desc xmlns="http://www.highcharts.com/svg/namespace">
    <name>India</name>
    <labelrank>2</labelrank>
    <country-abbrev>India</country-abbrev>
    <subregion>Southern Asia</subregion>
    <region-wb>South Asia</region-wb>
    <iso-a3>IND</iso-a3>
    <iso-a2>IN</iso-a2>
    <woe-id>23424848</woe-id>
    <continent>Asia</continent>
    <hc-key>in</hc-key>
    <hc-a2>IN</hc-a2>
  </desc>
</g>

<path fill="#CEE3F5" stroke="#6E6E6E" stroke-width="0.4" id="IN.AN" d="M573.5,688.9 L575.4,693.6 L574.6,698.7 L573.3,700.0 L570.4,694.2 L568.8,693.8 L569.3,689.8 Z M563.0,671.7 L563.6,673.7 L560.0,671.9 L562.0,670.3 Z M565.1,670.5 L564.5,669.1 L563.2,666.7 L565.0,665.2 Z M540.8,605.6 L540.8,610.5 L539.5,612.3 L536.3,611.6 L537.1,609.5 L536.0,605.9 L539.4,603.2 Z M550.1,573.9 L549.7,576.3 L551.0,579.0 L548.1,577.0 Z M547.4,553.8 L545.5,555.4 L547.6,556.4 L548.6,564.5 L546.6,572.1 L543.6,575.2 L543.3,577.9 L544.8,580.1 L544.3,585.9 L541.8,592.2 L540.4,583.7 L538.8,579.7 L540.7,580.1 L540.9,573.9 L541.7,571.9 L544.3,572.1 L542.4,568.5 L542.3,562.9 L543.6,561.3 L542.4,558.0 L543.8,556.8 L544.9,547.8 L544.2,545.7 L546.4,540.6 L548.6,539.7 L549.2,543.5 L548.0,545.4 L549.8,547.0 L548.7,552.4 Z">
  <desc xmlns="http://www.highcharts.com/svg/namespace">
    <labelrank>2</labelrank>
    <hasc>IN.AN</hasc>
    <alt-name>Andaman &amp; Nicobar Islands|Andaman et Nicobar|Iihas de Andama e Nicobar|Inseln Andamanen und Nikobare</alt-name>
    <woe-id>2345739</woe-id>
    <subregion>NULL</subregion>
    <fips>IN01</fips>
    <postal-code>AN</postal-code>
    <name>Andaman and Nicobar</name>
    <country>India</country>
    <type-en>Union Territory</type-en>
    <region>NULL</region>
    <longitude>93.7895</longitude>
    <woe-name>Andaman and Nicobar</woe-name>
    <latitude>6.83654</latitude>
    <woe-label>Andaman and Nicobar Islands, IN, India</woe-label>
    <type>Union Territor</type>
    <hc-middle-x>0.22</hc-middle-x>
    <hc-middle-y>0.16</hc-middle-y>
    <hc-key>in-an</hc-key>
    <hc-a2>AN</hc-a2>
  </desc>
</path>

<path fill="#CEE3F5" stroke="#6E6E6E" stroke-width="0.4" id="IN.WB" d="M428.4,351.6 L429.8,353.8 L429.2,357.0 L427.5,356.8 Z M422.5,243.0 L423.9,238.2 L421.7,232.5 L419.3,230.1 L419.8,226.6 L422.3,229.1 L427.7,230.0 L430.6,227.7 L435.1,228.1 L438.5,231.8 L443.1,235.2 L448.2,234.1 L454.0,235.8 L453.7,236.8 L459.2,236.4 L460.1,240.8 L459.2,245.7 L455.9,249.2 L453.9,250.3 L453.9,254.4 L449.7,254.0 L444.9,251.1 L443.8,246.5 L440.6,244.3 L439.5,246.0 L442.8,248.6 L438.0,249.2 L434.5,245.2 L428.9,242.2 L427.3,244.1 L430.4,244.5 L427.5,250.5 L424.6,252.2 L423.0,257.7 L424.3,260.7 L426.3,259.9 L430.6,263.2 L433.1,266.6 L436.3,267.2 L438.2,266.3 L440.1,270.2 L442.8,270.7 L441.9,273.9 L435.0,273.7 L431.5,274.3 L431.5,277.2 L429.4,281.5 L426.9,279.9 L423.4,287.0 L426.1,290.4 L433.5,294.2 L436.9,294.5 L439.4,296.0 L438.0,297.7 L439.1,303.0 L436.6,304.5 L435.7,309.6 L439.8,313.6 L440.8,313.6 L439.3,317.7 L439.8,318.9 L445.2,319.9 L443.1,322.6 L443.0,325.2 L445.4,327.8 L444.7,330.3 L449.1,343.8 L449.0,348.8 L448.0,349.6 L449.9,354.9 L448.1,356.6 L445.5,355.2 L443.0,358.0 L441.2,354.8 L441.7,346.9 L438.9,358.2 L437.2,358.8 L437.7,352.0 L436.1,353.6 L436.3,356.8 L434.0,355.4 L431.8,358.5 L430.2,355.6 L430.6,352.8 L429.2,349.3 L430.7,346.5 L429.3,344.7 L425.5,352.3 L419.9,356.8 L415.0,358.0 L413.4,354.0 L410.4,353.5 L408.5,350.3 L405.7,351.5 L404.3,348.4 L397.4,344.6 L400.8,342.4 L397.8,338.8 L398.4,337.0 L395.4,335.7 L394.8,334.0 L390.7,331.7 L391.6,326.6 L385.0,326.3 L382.3,323.5 L379.4,323.3 L378.1,321.1 L379.4,317.5 L377.9,316.0 L381.5,315.2 L382.0,313.0 L384.2,313.5 L386.2,316.5 L388.7,315.0 L391.2,311.9 L398.4,309.6 L399.9,305.2 L404.3,307.3 L407.7,306.3 L408.3,303.6 L412.8,301.5 L412.7,299.7 L416.3,298.1 L415.6,296.2 L417.4,295.0 L418.9,290.6 L417.8,288.5 L420.4,288.5 L420.2,281.5 L417.8,277.0 L417.7,274.1 L418.8,272.6 L416.7,269.8 L421.0,266.5 L423.4,267.4 L422.7,263.3 L417.4,258.8 L417.8,255.6 L420.7,252.3 L427.2,246.9 L424.7,242.6 Z">
  <desc xmlns="http://www.highcharts.com/svg/namespace">
    <labelrank>2</labelrank>
    <hasc>IN.WB</hasc>
    <alt-name>Bangla|Bengala Occidentale|Bengala Ocidental|Bengale occidental</alt-name>
    <woe-id>2345761</woe-id>
    <subregion>NULL</subregion>
    <fips>IN28</fips>
    <postal-code>WB</postal-code>
    <name>West Bengal</name>
    <country>India</country>
    <type-en>State</type-en>
    <region>East</region>
    <longitude>87.7289</longitude>
    <woe-name>West Bengal</woe-name>
    <latitude>23.0523</latitude>
    <woe-label>West Bengal, IN, India</woe-label>
    <type>State</type>
    <hc-middle-x>0.50</hc-middle-x>
    <hc-middle-y>0.74</hc-middle-y>
    <hc-key>in-wb</hc-key>
    <hc-a2>WB</hc-a2>
  </desc>
</path>

<path fill="#CEE3F5" stroke="#6E6E6E" stroke-width="0.4" id="IN.LD" d="M91.9,667.2 L91.1,667.3 L92.0,666.8 L92.5,666.1 Z">
  <desc xmlns="http://www.highcharts.com/svg/namespace">
    <labelrank>2</labelrank>
    <hasc>IN.LD</hasc>
    <alt-name>Íles Laquedives|Laccadive|Minicoy and Amindivi Islands|Laccadives|Lackadiverna|Lakkadiven|Lakkadi</alt-name>
    <woe-id>2345748</woe-id>
    <subregion>NULL</subregion>
    <fips>IN14</fips>
    <postal-code>LD</postal-code>
    <name>Lakshadweep</name>
    <country>India</country>
    <type-en>Union Territory</type-en>
    <region>South</region>
    <longitude>72.7811</longitude>
    <woe-name>Lakshadweep</woe-name>
    <latitude>11.2249</latitude>
    <woe-label>Lakshadweep, IN, India</woe-label>
    <type>Union Territor</type>
    <hc-middle-x>0.60</hc-middle-x>
    <hc-middle-y>0.63</hc-middle-y>
    <hc-key>in-ld</hc-key>
    <hc-a2>LD</hc-a2>
  </desc>
</path>

<path fill="#CEE3F5" stroke="#6E6E6E" stroke-width="0.4" id="IN.5390" d="M230.9,647.3 L231.0,647.5 L230.4,647.2 L230.6,647.1 Z">
  <desc xmlns="http://www.highcharts.com/svg/namespace">
    <labelrank>20</labelrank>
    <hasc>-99</hasc>
    <alt-name>NULL</alt-name>
    <woe-id>-99</woe-id>
    <subregion>NULL</subregion>
    <fips>NULL</fips>
    <postal-code>NULL</postal-code>
    <name>NULL</name>
    <country>India</country>
    <type-en>NULL</type-en>
    <region>NULL</region>
    <longitude>79.0729</longitude>
    <woe-name>NULL</woe-name>
    <latitude>9.19759</latitude>
    <woe-label>NULL</woe-label>
    <type>NULL</type>
    <hc-middle-x>0.54</hc-middle-x>
    <hc-middle-y>0.46</hc-middle-y>
    <hc-key>in-5390</hc-key>
    <hc-a2>NU</hc-a2>
  </desc>
</path>

<path fill="#CEE3F5" stroke="#6E6E6E" stroke-width="0.4" id="IN.PY" d="M302.7,474.4 L301.1,473.8 L302.3,473.8 L303.9,473.5 Z M248.6,606.3 L248.5,606.9 L248.6,610.2 L245.4,607.8 L246.2,606.1 Z M248.8,583.8 L248.1,585.5 L247.9,586.6 L245.5,586.0 L245.1,582.7 Z M145.4,580.4 L144.5,581.1 L143.5,580.9 L143.6,579.1 L147.6,578.2 Z">
  <desc xmlns="http://www.highcharts.com/svg/namespace">
    <labelrank>2</labelrank>
    <hasc>IN.PY</hasc>
    <alt-name>Pondicherry|Puduchcheri|Pondichéry</alt-name>
    <woe-id>20070459</woe-id>
    <subregion>NULL</subregion>
    <fips>IN22</fips>
    <postal-code>PY</postal-code>
    <name>Puducherry</name>
    <country>India</country>
    <type-en>Union Territory</type-en>
    <region>South</region>
    <longitude>79.7758</longitude>
    <woe-name>Puducherry</woe-name>
    <latitude>10.9224</latitude>
    <woe-label>Puducherry, IN, India</woe-label>
    <type>Union Territor</type>
    <hc-middle-x>0.64</hc-middle-x>
    <hc-middle-y>0.81</hc-middle-y>
    <hc-key>in-py</hc-key>
    <hc-a2>PY</hc-a2>
  </desc>
</path>

<path fill="#CEE3F5" stroke="#6E6E6E" stroke-width="0.4" id="IN.3464" d="M96.3,384.9 L96.7,383.6 L97.1,382.9 L97.8,384.7 Z M57.0,374.4 L56.9,374.7 L56.3,374.9 L56.5,374.3 Z">
  <desc xmlns="http://www.highcharts.com/svg/namespace">
    <labelrank>2</labelrank>
    <hasc>IN.</hasc>
    <alt-name>NULL</alt-name>
    <woe-id>20070460</woe-id>
    <subregion>NULL</subregion>
    <fips>IN32</fips>
    <postal-code>NULL</postal-code>
    <name>Daman and Diu</name>
    <country>India</country>
    <type-en>NULL</type-en>
    <region>West</region>
    <longitude>72.8511</longitude>
    <woe-name>Daman and Diu</woe-name>
    <latitude>20.4226</latitude>
    <woe-label>Daman and Diu, IN, India</woe-label>
    <type>NULL</type>
    <hc-middle-x>0.98</hc-middle-x>
    <hc-middle-y>0.90</hc-middle-y>
    <hc-key>in-3464</hc-key>
    <hc-a2>DA</hc-a2>
  </desc>
</path>

<path fill="#CEE3F5" stroke="#6E6E6E" stroke-width="0.4" id="IN.MZ" d="M537.3,293.3 L539.5,300.2 L540.9,302.2 L540.7,314.5 L539.3,317.2 L535.8,317.8 L536.9,320.7 L535.0,323.4 L535.9,329.5 L537.6,332.3 L537.5,337.0 L534.9,336.9 L534.3,341.8 L531.5,341.3 L527.5,338.6 L527.1,341.8 L525.5,342.9 L525.2,338.4 L522.5,326.2 L518.9,320.3 L517.9,315.4 L518.3,312.6 L515.5,305.2 L515.5,303.0 L516.5,299.5 L516.0,291.6 L515.3,290.5 L517.8,290.2 L518.8,292.7 L522.3,289.9 L524.4,284.2 L526.4,286.2 L530.4,285.4 L530.6,292.5 L533.0,293.5 Z">
  <desc xmlns="http://www.highcharts.com/svg/namespace">
    <labelrank>2</labelrank>
    <hasc>IN.MZ</hasc>
    <alt-name>NULL</alt-name>
    <woe-id>20070461</woe-id>
    <subregion>NULL</subregion>
    <fips>IN31</fips>
    <postal-code>MZ</postal-code>
    <name>Mizoram</name>
    <country>India</country>
    <type-en>State</type-en>
    <region>Northeast</region>
    <longitude>92.84090000000001</longitude>
    <woe-name>Mizoram</woe-name>
    <latitude>23.2037</latitude>
    <woe-label>Mizoram, IN, India</woe-label>
    <type>State</type>
    <hc-middle-x>0.53</hc-middle-x>
    <hc-middle-y>0.38</hc-middle-y>
    <hc-key>in-mz</hc-key>
    <hc-a2>MZ</hc-a2>
  </desc>
</path>

<path fill="#CEE3F5" stroke="#6E6E6E" stroke-width="0.4" id="IN.AS" d="M459.2,236.4 L464.0,235.6 L465.7,233.4 L469.9,231.7 L474.3,234.0 L477.1,234.1 L487.1,232.4 L488.8,233.0 L491.3,230.5 L493.8,232.0 L497.6,231.5 L501.5,229.4 L504.5,229.7 L505.3,228.1 L508.1,228.1 L520.4,223.7 L524.9,225.5 L532.3,224.0 L534.2,224.8 L539.0,222.9 L541.5,220.5 L541.7,218.0 L549.2,209.5 L548.9,206.6 L553.9,207.4 L570.6,198.2 L575.4,197.5 L578.7,195.0 L583.9,194.3 L580.8,201.3 L583.6,204.8 L584.1,208.4 L585.8,207.0 L586.6,209.0 L584.7,211.3 L579.4,213.1 L577.2,212.3 L575.0,215.7 L570.1,218.9 L567.3,221.6 L564.8,221.4 L560.6,226.9 L556.5,228.9 L554.2,233.3 L552.2,232.2 L550.7,236.7 L547.6,241.5 L547.7,247.1 L546.1,249.4 L543.5,250.3 L543.8,247.6 L534.8,258.0 L537.7,261.5 L537.7,263.4 L537.7,263.4 L537.7,263.4 L537.7,263.4 L536.7,265.0 L533.2,275.4 L531.8,275.5 L531.8,281.0 L530.4,285.4 L526.4,286.2 L524.4,284.2 L522.3,289.9 L518.8,292.7 L517.8,290.2 L515.3,290.5 L513.6,290.0 L514.1,286.8 L511.5,283.6 L513.0,275.0 L515.9,276.3 L517.9,274.0 L515.6,272.4 L519.2,268.6 L524.2,266.4 L523.6,263.5 L519.0,260.4 L518.9,258.4 L514.1,254.6 L509.6,256.5 L510.9,248.0 L508.8,247.4 L503.8,249.0 L501.6,248.0 L499.6,251.0 L496.6,249.9 L494.6,253.9 L492.3,254.6 L489.3,257.3 L488.8,254.2 L485.4,255.3 L484.0,252.8 L479.5,252.8 L474.8,254.3 L474.9,252.7 L471.2,252.1 L466.3,253.8 L463.1,257.7 L462.6,260.3 L464.0,262.7 L460.2,266.4 L460.4,261.8 L459.1,257.1 L460.0,254.9 L455.9,249.2 L459.2,245.7 L460.1,240.8 Z">
  <desc xmlns="http://www.highcharts.com/svg/namespace">
    <labelrank>2</labelrank>
    <hasc>IN.AS</hasc>
    <alt-name>NULL</alt-name>
    <woe-id>2345741</woe-id>
    <subregion>NULL</subregion>
    <fips>IN03</fips>
    <postal-code>AS</postal-code>
    <name>Assam</name>
    <country>India</country>
    <type-en>State</type-en>
    <region>Northeast</region>
    <longitude>92.99290000000001</longitude>
    <woe-name>Assam</woe-name>
    <latitude>26.3302</latitude>
    <woe-label>Assam, IN, India</woe-label>
    <type>State</type>
    <hc-middle-x>0.53</hc-middle-x>
    <hc-middle-y>0.46</hc-middle-y>
    <hc-key>in-as</hc-key>
    <hc-a2>AS</hc-a2>
  </desc>
</path>

<path fill="#CEE3F5" stroke="#6E6E6E" stroke-width="0.4" id="IN.PB" d="M133.1,158.0 L131.2,154.4 L135.8,150.5 L141.8,142.3 L143.2,142.6 L148.6,138.4 L145.7,136.1 L148.2,130.1 L146.1,123.7 L147.8,120.8 L153.2,116.8 L157.5,115.3 L160.1,115.8 L162.6,114.4 L164.0,111.9 L162.9,110.2 L165.7,109.7 L166.9,111.1 L173.9,106.5 L175.1,108.5 L170.6,112.0 L168.2,116.0 L173.9,119.1 L175.5,122.1 L174.6,123.0 L177.3,128.7 L178.8,134.0 L181.1,134.8 L183.1,132.4 L184.2,134.8 L187.1,136.9 L188.2,142.3 L190.5,144.5 L191.8,146.1 L191.4,147.3 L189.1,147.4 L191.5,149.8 L192.9,151.8 L192.8,156.7 L189.2,156.0 L189.0,157.7 L185.2,159.9 L187.3,160.7 L185.0,163.4 L182.4,161.0 L182.0,162.5 L179.0,161.9 L177.8,166.1 L178.4,168.4 L173.1,170.9 L169.8,168.6 L166.0,170.0 L162.9,168.9 L158.3,174.3 L157.2,171.3 L158.6,170.0 L155.4,166.5 L153.8,166.9 L150.5,164.1 L146.9,165.6 L144.3,164.6 L131.6,163.0 L133.5,159.6 Z">
  <desc xmlns="http://www.highcharts.com/svg/namespace">
    <labelrank>2</labelrank>
    <hasc>IN.PB</hasc>
    <alt-name>NULL</alt-name>
    <woe-id>2345756</woe-id>
    <subregion>NULL</subregion>
    <fips>IN23</fips>
    <postal-code>PB</postal-code>
    <name>Punjab</name>
    <country>India</country>
    <type-en>State</type-en>
    <region>North</region>
    <longitude>75.3762</longitude>
    <woe-name>Punjab</woe-name>
    <latitude>31.0245</latitude>
    <woe-label>Punjab, IN, India</woe-label>
    <type>State</type>
    <hc-middle-x>0.52</hc-middle-x>
    <hc-middle-y>0.53</hc-middle-y>
    <hc-key>in-pb</hc-key>
    <hc-a2>PB</hc-a2>
  </desc>
</path>

<path fill="#CEE3F5" stroke="#6E6E6E" stroke-width="0.4" id="IN.GA" d="M119.6,513.7 L115.7,509.2 L116.5,507.3 L115.4,503.0 L113.3,500.5 L111.4,494.0 L114.3,492.7 L116.8,496.3 L120.3,496.3 L123.2,496.6 L124.5,504.9 L123.0,512.2 Z">
  <desc xmlns="http://www.highcharts.com/svg/namespace">
    <labelrank>2</labelrank>
    <hasc>IN.GA</hasc>
    <alt-name>Gôa</alt-name>
    <woe-id>2345764</woe-id>
    <subregion>NULL</subregion>
    <fips>IN08</fips>
    <postal-code>GA</postal-code>
    <name>Goa</name>
    <country>India</country>
    <type-en>State</type-en>
    <region>West</region>
    <longitude>73.99509999999999</longitude>
    <woe-name>Goa</woe-name>
    <latitude>15.3133</latitude>
    <woe-label>Goa, IN, India</woe-label>
    <type>State</type>
    <hc-middle-x>0.60</hc-middle-x>
    <hc-middle-y>0.47</hc-middle-y>
    <hc-key>in-ga</hc-key>
    <hc-a2>GA</hc-a2>
  </desc>
</path>

<path fill="#CEE3F5" stroke="#6E6E6E" stroke-width="0.4" id="IN.2984" d="M93.6,391.9 L94.7,387.1 L96.3,384.9 L97.8,384.7 L97.1,382.9 L98.5,376.8 L98.0,372.9 L94.6,368.6 L95.2,365.7 L92.8,364.0 L92.0,361.2 L93.3,358.9 L100.3,354.7 L93.5,354.3 L91.7,353.5 L94.0,347.8 L91.4,347.4 L92.5,343.2 L94.6,342.1 L97.0,343.3 L99.2,341.7 L92.9,340.3 L89.4,340.8 L89.7,338.2 L87.5,341.2 L87.3,344.8 L83.3,346.8 L84.0,350.1 L80.4,349.5 L80.7,351.5 L83.9,351.2 L86.5,354.6 L85.1,358.6 L81.9,362.3 L81.7,364.9 L67.2,371.5 L57.0,374.4 L56.5,374.3 L56.3,374.9 L53.3,374.9 L46.9,372.0 L42.6,368.9 L36.8,363.3 L28.2,351.7 L19.4,342.5 L14.5,334.6 L15.3,332.1 L20.4,332.7 L20.3,335.6 L26.4,334.3 L27.9,332.0 L29.2,334.4 L32.0,331.7 L33.1,333.1 L37.1,330.7 L41.8,330.5 L46.7,322.8 L50.2,320.2 L49.1,317.6 L47.3,321.8 L43.8,320.3 L43.1,321.4 L34.9,323.0 L32.1,325.4 L21.9,322.3 L14.2,317.5 L9.2,313.0 L9.2,309.8 L5.4,306.7 L6.9,305.2 L5.9,302.3 L14.9,297.3 L10.8,298.0 L5.7,300.7 L3.6,303.2 L0.0,302.5 L2.7,301.2 L0.5,299.1 L1.1,296.9 L6.7,294.4 L13.0,295.1 L13.7,287.5 L17.3,287.1 L18.7,288.7 L25.6,288.6 L31.7,289.3 L33.8,291.6 L40.2,292.6 L43.5,289.6 L52.5,287.5 L53.1,290.8 L57.2,292.4 L60.9,289.6 L64.5,288.7 L62.3,287.3 L62.0,284.4 L64.4,282.1 L68.4,283.7 L74.8,282.9 L83.3,284.1 L85.6,283.2 L93.1,288.1 L93.7,290.1 L96.0,288.6 L99.9,291.7 L103.7,292.4 L105.5,289.4 L107.2,289.2 L108.2,293.3 L106.8,296.3 L110.1,300.8 L112.5,298.9 L113.8,302.8 L112.2,306.4 L117.5,311.3 L117.5,314.7 L121.5,315.0 L124.5,316.9 L130.2,321.9 L132.0,324.8 L132.7,328.5 L134.6,330.3 L132.7,333.7 L127.9,336.7 L125.0,337.4 L129.1,340.6 L125.8,340.6 L125.7,344.0 L127.0,347.0 L126.7,349.7 L119.6,352.1 L119.8,356.4 L118.1,357.3 L119.5,359.7 L123.4,358.8 L129.7,360.1 L122.4,362.5 L121.4,364.9 L118.8,365.0 L116.4,368.6 L120.0,372.2 L120.7,376.8 L117.9,380.7 L114.3,381.5 L110.6,377.7 L108.7,379.4 L110.6,381.9 L108.2,385.7 L108.1,390.2 L106.1,389.7 L103.7,391.4 L101.7,386.2 L97.9,388.7 L98.9,390.9 L95.0,391.4 Z">
  <desc xmlns="http://www.highcharts.com/svg/namespace">
    <labelrank>2</labelrank>
    <hasc>IN.</hasc>
    <alt-name>NULL</alt-name>
    <woe-id>2345743</woe-id>
    <subregion>NULL</subregion>
    <fips>IN32</fips>
    <postal-code>NULL</postal-code>
    <name>Gujarat</name>
    <country>India</country>
    <type-en>NULL</type-en>
    <region>West</region>
    <longitude>71.3013</longitude>
    <woe-name>Gujarat</woe-name>
    <latitude>22.7501</latitude>
    <woe-label>Gujarat, IN, India</woe-label>
    <type>NULL</type>
    <hc-middle-x>0.51</hc-middle-x>
    <hc-middle-y>0.29</hc-middle-y>
    <hc-key>in-2984</hc-key>
    <hc-a2>GU</hc-a2>
  </desc>
</path>

<path fill="#CEE3F5" stroke="#6E6E6E" stroke-width="0.4" id="IN.JK" d="M173.9,106.5 L166.9,111.1 L165.7,109.7 L162.9,110.2 L157.7,106.8 L151.8,106.6 L150.1,103.5 L151.5,97.9 L148.2,99.7 L138.0,93.9 L134.9,92.6 L131.2,89.8 L130.7,83.6 L131.8,82.2 L131.7,71.5 L130.7,69.1 L130.2,63.0 L129.0,60.4 L130.2,56.3 L133.6,56.4 L136.6,51.3 L141.6,49.7 L144.1,44.7 L140.4,42.1 L136.8,41.6 L136.1,39.2 L138.2,36.1 L137.8,34.2 L131.3,33.2 L126.4,29.0 L125.7,25.1 L120.4,25.6 L115.0,23.6 L116.6,21.2 L115.7,19.0 L116.6,16.1 L119.1,15.3 L124.9,11.2 L127.3,8.3 L127.2,6.0 L133.6,5.3 L142.1,6.9 L142.1,5.2 L139.4,2.4 L143.6,4.2 L146.4,4.4 L152.2,1.1 L154.8,2.0 L157.3,0.0 L161.8,2.4 L165.4,1.9 L169.9,4.0 L170.8,8.0 L173.8,7.7 L177.8,9.8 L181.1,15.6 L184.2,16.2 L185.7,18.7 L188.5,19.1 L189.2,20.8 L193.7,22.1 L195.3,24.0 L195.5,28.7 L199.7,31.0 L201.1,32.9 L206.0,33.5 L208.2,35.2 L209.1,39.3 L216.1,39.4 L217.4,37.6 L220.4,38.1 L220.9,36.7 L226.6,33.2 L228.6,32.8 L231.7,30.0 L236.2,30.4 L242.8,28.6 L245.3,29.5 L245.4,31.4 L249.3,32.7 L249.7,36.1 L254.3,37.2 L255.9,41.2 L257.9,41.5 L260.2,38.7 L263.0,40.7 L260.8,44.2 L261.0,46.9 L259.2,49.7 L259.3,53.7 L256.8,58.9 L253.0,59.6 L250.3,62.1 L249.4,65.0 L246.4,65.3 L247.1,68.6 L246.0,71.9 L243.6,74.1 L235.2,74.0 L234.2,75.4 L236.1,80.0 L236.3,83.0 L234.2,83.0 L234.5,88.4 L235.6,90.2 L243.4,93.7 L242.5,98.5 L245.6,103.4 L245.1,105.7 L241.1,109.3 L237.9,109.6 L237.2,112.0 L233.9,112.3 L231.2,109.7 L230.2,105.6 L228.5,107.0 L223.6,108.0 L221.4,108.5 L223.6,105.2 L223.5,102.5 L216.4,105.9 L213.6,99.8 L211.0,96.5 L203.6,99.6 L199.5,98.1 L196.1,95.6 L192.1,91.5 L188.6,90.5 L183.3,92.3 L181.7,94.4 L176.8,97.5 L173.5,97.6 L175.4,100.6 L175.5,104.2 Z">
  <desc xmlns="http://www.highcharts.com/svg/namespace">
    <labelrank>2</labelrank>
    <hasc>IN.JK</hasc>
    <alt-name>NULL</alt-name>
    <woe-id>2345746</woe-id>
    <subregion>NULL</subregion>
    <fips>IN12</fips>
    <postal-code>JK</postal-code>
    <name>Jammu and Kashmir</name>
    <country>India</country>
    <type-en>State</type-en>
    <region>North</region>
    <longitude>76.6395</longitude>
    <woe-name>Jammu and Kashmir</woe-name>
    <latitude>33.9658</latitude>
    <woe-label>Jammu and Kashmir, IN, India</woe-label>
    <type>State</type>
    <hc-middle-x>0.58</hc-middle-x>
    <hc-middle-y>0.56</hc-middle-y>
    <hc-key>in-jk</hc-key>
    <hc-a2>JK</hc-a2>
  </desc>
</path>

<path fill="#CEE3F5" stroke="#6E6E6E" stroke-width="0.4" id="IN.HR" d="M144.3,164.6 L146.9,165.6 L150.5,164.1 L153.8,166.9 L155.4,166.5 L158.6,170.0 L157.2,171.3 L158.3,174.3 L162.9,168.9 L166.0,170.0 L169.8,168.6 L173.1,170.9 L178.4,168.4 L177.8,166.1 L179.0,161.9 L182.0,162.5 L182.4,161.0 L185.0,163.4 L187.3,160.7 L185.2,159.9 L189.0,157.7 L189.2,156.0 L192.8,156.7 L192.9,151.8 L191.5,149.8 L191.5,148.6 L191.4,147.3 L191.8,146.1 L190.5,144.5 L193.3,144.8 L195.1,147.7 L197.3,149.1 L197.5,152.6 L198.9,154.3 L206.5,157.2 L206.1,159.6 L199.0,166.4 L197.9,170.4 L195.2,176.0 L197.0,179.6 L196.6,185.9 L197.6,191.8 L194.9,191.6 L192.2,193.1 L192.3,195.8 L189.9,198.7 L190.6,199.9 L194.7,199.8 L197.1,202.1 L199.9,200.2 L203.3,203.2 L203.9,206.5 L202.5,211.2 L203.7,213.4 L198.5,216.6 L193.5,216.5 L194.1,218.0 L190.8,219.6 L191.7,209.1 L190.1,206.6 L185.7,209.8 L183.6,212.3 L181.6,210.2 L181.8,207.8 L176.2,209.7 L175.6,210.9 L176.6,215.1 L172.1,214.9 L170.9,212.2 L172.9,209.3 L171.2,208.5 L174.1,207.3 L170.4,201.8 L168.2,201.1 L164.6,196.0 L162.1,187.0 L159.9,180.6 L154.8,181.7 L149.7,177.6 L145.4,179.0 L144.0,176.4 L145.4,175.8 L145.6,168.9 L143.0,169.3 L144.8,166.7 Z">
  <desc xmlns="http://www.highcharts.com/svg/namespace">
    <labelrank>2</labelrank>
    <hasc>IN.HR</hasc>
    <alt-name>NULL</alt-name>
    <woe-id>2345744</woe-id>
    <subregion>NULL</subregion>
    <fips>IN10</fips>
    <postal-code>HR</postal-code>
    <name>Haryana</name>
    <country>India</country>
    <type-en>State</type-en>
    <region>Central</region>
    <longitude>76.271</longitude>
    <woe-name>Haryana</woe-name>
    <latitude>29.1003</latitude>
    <woe-label>Haryana, IN, India</woe-label>
    <type>State</type>
    <hc-middle-x>0.53</hc-middle-x>
    <hc-middle-y>0.63</hc-middle-y>
    <hc-key>in-hr</hc-key>
    <hc-a2>HR</hc-a2>
  </desc>
</path>

<path fill="#CEE3F5" stroke="#6E6E6E" stroke-width="0.4" id="IN.NL" d="M572.6,227.7 L570.0,229.1 L568.7,232.3 L569.4,237.7 L572.2,242.1 L569.3,245.4 L569.9,249.8 L565.3,256.1 L563.0,257.4 L560.4,256.1 L560.8,252.0 L555.9,256.6 L553.5,257.2 L549.4,256.3 L544.7,257.0 L545.0,259.2 L541.3,265.3 L537.7,263.4 L537.7,263.4 L537.7,263.4 L537.7,263.4 L537.7,261.5 L534.8,258.0 L543.8,247.6 L543.5,250.3 L546.1,249.4 L547.7,247.1 L547.6,241.5 L550.7,236.7 L552.2,232.2 L554.2,233.3 L556.5,228.9 L560.6,226.9 L564.8,221.4 L567.3,221.6 L570.1,218.9 L571.1,222.7 Z">
  <desc xmlns="http://www.highcharts.com/svg/namespace">
    <labelrank>2</labelrank>
    <hasc>IN.NL</hasc>
    <alt-name>NULL</alt-name>
    <woe-id>2345754</woe-id>
    <subregion>NULL</subregion>
    <fips>IN20</fips>
    <postal-code>NL</postal-code>
    <name>Nagaland</name>
    <country>India</country>
    <type-en>State</type-en>
    <region>Northeast</region>
    <longitude>94.5664</longitude>
    <woe-name>Nagaland</woe-name>
    <latitude>26.1094</latitude>
    <woe-label>Nagaland, IN, India</woe-label>
    <type>State</type>
    <hc-middle-x>0.78</hc-middle-x>
    <hc-middle-y>0.63</hc-middle-y>
    <hc-key>in-nl</hc-key>
    <hc-a2>NL</hc-a2>
  </desc>
</path>

<path fill="#CEE3F5" stroke="#6E6E6E" stroke-width="0.4" id="IN.MN" d="M530.4,285.4 L531.8,281.0 L531.8,275.5 L533.2,275.4 L536.7,265.0 L537.7,263.4 L537.7,263.4 L541.3,265.3 L545.0,259.2 L544.7,257.0 L549.4,256.3 L553.5,257.2 L555.9,256.6 L560.8,252.0 L560.4,256.1 L563.0,257.4 L561.4,262.4 L564.6,264.6 L565.3,267.2 L563.4,274.0 L561.9,275.2 L558.0,284.8 L556.5,292.5 L554.9,296.3 L552.5,294.8 L548.3,294.7 L544.0,293.4 L540.8,294.8 L538.6,292.2 L537.3,293.3 L533.0,293.5 L530.6,292.5 Z">
  <desc xmlns="http://www.highcharts.com/svg/namespace">
    <labelrank>2</labelrank>
    <hasc>IN.MN</hasc>
    <alt-name>NULL</alt-name>
    <woe-id>2345751</woe-id>
    <subregion>NULL</subregion>
    <fips>IN17</fips>
    <postal-code>MN</postal-code>
    <name>Manipur</name>
    <country>India</country>
    <type-en>State</type-en>
    <region>Northeast</region>
    <longitude>93.84569999999999</longitude>
    <woe-name>Manipur</woe-name>
    <latitude>24.7442</latitude>
    <woe-label>Manipur, IN, India</woe-label>
    <type>State</type>
    <hc-middle-x>0.51</hc-middle-x>
    <hc-middle-y>0.48</hc-middle-y>
    <hc-key>in-mn</hc-key>
    <hc-a2>MN</hc-a2>
  </desc>
</path>

<path fill="#CEE3F5" stroke="#6E6E6E" stroke-width="0.4" id="IN.TR" d="M515.3,290.5 L516.0,291.6 L516.5,299.5 L515.5,303.0 L513.1,302.6 L510.1,304.8 L508.5,303.1 L509.0,308.4 L506.0,311.7 L505.1,314.0 L506.6,318.2 L502.3,321.9 L499.2,316.5 L497.1,314.8 L497.4,319.5 L495.8,317.7 L493.7,310.2 L491.5,307.0 L492.7,300.0 L495.2,297.7 L495.5,295.3 L499.7,295.2 L500.9,292.4 L503.2,291.5 L506.2,293.2 L507.0,288.6 L510.9,286.9 L511.5,283.6 L514.1,286.8 L513.6,290.0 Z">
  <desc xmlns="http://www.highcharts.com/svg/namespace">
    <labelrank>2</labelrank>
    <hasc>IN.TR</hasc>
    <alt-name>NULL</alt-name>
    <woe-id>2345759</woe-id>
    <subregion>NULL</subregion>
    <fips>IN26</fips>
    <postal-code>TR</postal-code>
    <name>Tripura</name>
    <country>India</country>
    <type-en>State</type-en>
    <region>Northeast</region>
    <longitude>91.70310000000001</longitude>
    <woe-name>Tripura</woe-name>
    <latitude>23.8519</latitude>
    <woe-label>Tripura, IN, India</woe-label>
    <type>State</type>
    <hc-middle-x>0.51</hc-middle-x>
    <hc-middle-y>0.46</hc-middle-y>
    <hc-key>in-tr</hc-key>
    <hc-a2>TR</hc-a2>
  </desc>
</path>

<path fill="#CEE3F5" stroke="#6E6E6E" stroke-width="0.4" id="IN.MP" d="M126.7,349.7 L127.0,347.0 L125.7,344.0 L125.8,340.6 L129.1,340.6 L125.0,337.4 L127.9,336.7 L132.7,333.7 L134.6,330.3 L132.7,328.5 L132.0,324.8 L135.3,324.3 L140.6,321.8 L136.8,320.0 L137.6,317.3 L143.2,314.5 L145.8,310.2 L145.4,305.4 L146.8,302.3 L144.9,297.4 L142.1,296.8 L144.6,292.8 L141.9,290.6 L143.6,287.3 L147.4,286.9 L147.7,284.8 L144.8,284.4 L144.7,281.3 L147.9,283.0 L150.1,282.5 L151.3,279.1 L155.4,278.8 L154.6,282.7 L152.5,282.5 L152.5,286.4 L157.6,287.1 L164.3,285.7 L166.5,291.9 L163.5,293.9 L164.8,296.6 L163.5,299.3 L164.7,301.0 L163.0,303.7 L159.0,302.6 L157.8,304.9 L160.0,307.8 L162.2,308.4 L163.9,306.4 L168.1,304.9 L168.8,302.7 L171.3,300.9 L171.8,296.3 L173.9,297.6 L178.6,298.1 L180.4,299.3 L182.8,297.2 L185.2,300.7 L187.9,298.9 L186.3,296.1 L186.3,291.6 L188.3,293.0 L191.6,291.6 L189.8,287.5 L185.9,285.0 L188.1,283.7 L187.8,280.6 L194.7,278.6 L197.9,279.0 L199.2,276.7 L197.9,271.4 L194.7,273.6 L189.1,274.2 L183.6,272.4 L181.6,270.5 L180.2,264.4 L181.8,261.5 L185.6,260.0 L189.5,255.9 L195.9,252.8 L198.4,250.3 L200.6,249.9 L209.1,245.4 L210.6,243.4 L214.3,243.1 L214.8,240.5 L216.9,239.9 L220.4,239.3 L224.4,241.6 L227.4,240.7 L231.9,242.9 L234.6,251.1 L232.5,252.8 L232.3,256.7 L229.1,262.8 L227.7,264.0 L227.1,267.8 L219.8,269.4 L217.5,272.6 L219.6,277.8 L218.9,281.6 L215.3,285.2 L217.1,289.2 L216.4,292.9 L219.6,298.3 L221.8,295.8 L228.2,300.4 L232.2,294.7 L229.7,290.7 L227.1,290.7 L227.1,286.5 L225.2,283.1 L224.7,279.1 L222.7,276.0 L224.5,272.6 L227.4,274.1 L227.3,270.8 L228.8,272.4 L230.9,269.9 L231.9,272.1 L230.6,278.3 L233.8,276.3 L233.4,278.3 L238.5,278.6 L239.1,276.4 L241.8,276.5 L240.0,279.0 L241.1,280.8 L244.3,278.4 L251.0,279.0 L250.8,276.8 L258.0,273.1 L259.9,273.0 L262.8,278.5 L260.0,282.3 L264.7,281.7 L263.5,279.9 L272.0,278.3 L270.3,283.3 L275.0,283.4 L277.0,284.8 L278.8,283.3 L280.1,278.7 L286.2,278.0 L287.3,280.8 L292.1,281.8 L293.5,284.4 L301.6,287.5 L302.5,291.0 L305.1,289.0 L312.4,290.1 L311.6,292.8 L312.3,296.6 L311.7,300.6 L310.4,301.4 L313.2,305.6 L312.5,307.2 L307.5,310.8 L297.8,310.3 L294.8,309.4 L291.5,310.3 L288.1,308.8 L289.5,312.9 L287.5,315.9 L288.7,317.7 L290.8,316.3 L294.7,317.4 L296.1,319.5 L300.3,322.1 L299.1,326.5 L295.2,327.8 L295.1,330.1 L291.8,332.2 L291.4,336.6 L288.7,339.2 L283.9,341.8 L282.3,340.5 L278.8,340.9 L277.5,345.2 L275.4,347.5 L274.5,350.7 L273.2,349.7 L271.4,353.1 L271.4,355.5 L269.1,358.6 L268.9,364.1 L268.0,366.9 L262.2,366.0 L262.2,364.2 L257.4,360.2 L253.4,362.3 L249.9,362.6 L249.0,361.4 L243.6,362.2 L240.7,358.9 L237.0,358.4 L236.4,359.7 L230.0,361.5 L229.6,363.0 L225.1,363.7 L219.3,362.9 L218.1,360.1 L210.7,364.3 L203.8,365.5 L199.0,365.1 L197.8,362.7 L200.5,361.7 L200.5,358.1 L198.6,356.4 L195.8,356.2 L193.3,357.9 L191.1,357.3 L184.0,360.5 L182.5,364.3 L180.4,365.9 L179.9,369.1 L176.0,371.1 L170.5,371.5 L168.5,364.9 L164.1,364.0 L156.6,364.4 L151.8,364.0 L147.9,362.6 L146.2,359.8 L142.9,358.3 L138.9,358.2 L134.7,355.3 L134.4,350.2 L132.8,348.3 L128.3,350.4 Z">
  <desc xmlns="http://www.highcharts.com/svg/namespace">
    <labelrank>2</labelrank>
    <hasc>IN.MP</hasc>
    <alt-name>NULL</alt-name>
    <woe-id>2345749</woe-id>
    <subregion>NULL</subregion>
    <fips>IN35</fips>
    <postal-code>MP</postal-code>
    <name>Madhya Pradesh</name>
    <country>India</country>
    <type-en>State</type-en>
    <region>Central</region>
    <longitude>78.42140000000001</longitude>
    <woe-name>Madhya Pradesh</woe-name>
    <latitude>22.9404</latitude>
    <woe-label>Madhya Pradesh, IN, India</woe-label>
    <type>State</type>
    <hc-middle-x>0.47</hc-middle-x>
    <hc-middle-y>0.61</hc-middle-y>
    <hc-key>in-mp</hc-key>
    <hc-a2>MP</hc-a2>
  </desc>
</path>

<path fill="#CEE3F5" stroke="#6E6E6E" stroke-width="0.4" id="IN.CT" d="M268.0,366.9 L268.9,364.1 L269.1,358.6 L271.4,355.5 L271.4,353.1 L273.2,349.7 L274.5,350.7 L275.4,347.5 L277.5,345.2 L278.8,340.9 L282.3,340.5 L283.9,341.8 L288.7,339.2 L291.4,336.6 L291.8,332.2 L295.1,330.1 L295.2,327.8 L299.1,326.5 L300.3,322.1 L296.1,319.5 L294.7,317.4 L290.8,316.3 L288.7,317.7 L287.5,315.9 L289.5,312.9 L288.1,308.8 L291.5,310.3 L294.8,309.4 L297.8,310.3 L307.5,310.8 L312.5,307.2 L313.2,305.6 L316.7,307.5 L321.8,306.7 L324.5,302.1 L328.4,303.8 L329.2,306.8 L332.3,309.4 L334.2,314.7 L336.8,315.2 L338.3,313.3 L339.1,315.4 L337.8,319.7 L339.2,319.4 L339.7,324.8 L341.6,328.2 L346.2,328.7 L346.7,330.7 L343.3,335.0 L338.7,338.9 L339.3,341.1 L331.0,347.0 L329.1,352.3 L330.1,355.3 L328.3,356.0 L325.3,363.1 L326.0,366.9 L324.3,366.4 L322.6,370.7 L320.0,372.1 L317.5,370.7 L311.1,371.3 L308.8,375.9 L306.5,378.4 L304.1,378.1 L304.1,385.2 L305.9,388.1 L305.8,396.5 L310.1,398.2 L311.9,397.9 L312.4,401.3 L309.4,403.3 L309.4,401.6 L305.1,400.6 L303.1,401.8 L301.8,399.0 L295.4,395.7 L292.8,399.8 L297.4,403.2 L297.5,409.2 L300.5,412.2 L300.4,418.3 L301.8,420.8 L300.0,427.0 L296.3,428.4 L295.0,431.7 L291.3,436.0 L286.9,438.2 L284.8,447.1 L283.7,448.8 L278.2,448.1 L275.9,449.5 L274.6,448.0 L273.6,442.3 L269.9,438.9 L268.2,434.8 L264.0,430.4 L260.7,430.6 L258.9,427.8 L260.5,424.6 L258.9,421.7 L261.9,415.4 L265.6,412.2 L268.9,415.1 L271.3,413.3 L272.6,410.0 L268.7,407.5 L264.8,402.5 L263.3,403.5 L262.4,400.6 L264.7,400.0 L264.7,395.0 L262.4,394.7 L262.4,392.7 L266.7,390.6 L266.7,384.3 L264.0,384.4 L265.7,382.0 L265.2,376.9 L262.7,375.0 L263.8,371.2 L266.8,369.4 Z">
  <desc xmlns="http://www.highcharts.com/svg/namespace">
    <labelrank>2</labelrank>
    <hasc>IN.CT</hasc>
    <alt-name>NULL</alt-name>
    <woe-id>20070464</woe-id>
    <subregion>NULL</subregion>
    <fips>IN37</fips>
    <postal-code>CT</postal-code>
    <name>Chhattisgarh</name>
    <country>India</country>
    <type-en>State</type-en>
    <region>Central</region>
    <longitude>82.3069</longitude>
    <woe-name>Chhattisgarh</woe-name>
    <latitude>21.8044</latitude>
    <woe-label>Chhattisgarh, IN, India</woe-label>
    <type>State</type>
    <hc-middle-x>0.51</hc-middle-x>
    <hc-middle-y>0.34</hc-middle-y>
    <hc-key>in-ct</hc-key>
    <hc-a2>CT</hc-a2>
  </desc>
</path>

<path fill="#CEE3F5" stroke="#6E6E6E" stroke-width="0.4" id="IN.AR" d="M570.1,218.9 L575.0,215.7 L577.2,212.3 L579.4,213.1 L584.7,211.3 L586.6,209.0 L585.8,207.0 L584.1,208.4 L583.6,204.8 L580.8,201.3 L583.9,194.3 L578.7,195.0 L575.4,197.5 L570.6,198.2 L553.9,207.4 L548.9,206.6 L549.2,209.5 L541.7,218.0 L541.5,220.5 L539.0,222.9 L534.2,224.8 L532.3,224.0 L524.9,225.5 L520.4,223.7 L508.1,228.1 L505.3,228.1 L503.1,222.7 L504.6,219.1 L502.0,215.4 L497.4,217.2 L493.9,214.4 L494.3,209.4 L501.4,209.5 L503.3,207.7 L508.1,207.5 L514.6,203.8 L515.8,200.8 L514.7,199.3 L518.6,196.9 L523.2,192.3 L524.2,189.2 L529.7,184.4 L533.4,184.0 L543.4,177.6 L547.4,174.1 L545.6,172.5 L547.9,169.7 L550.6,168.8 L552.4,166.5 L555.9,169.7 L559.5,169.2 L566.6,171.1 L566.9,169.1 L571.1,168.7 L572.4,165.7 L575.1,166.1 L575.3,163.2 L583.4,161.4 L585.1,163.9 L587.7,163.0 L587.6,165.6 L584.9,167.4 L585.6,169.3 L588.6,167.2 L594.2,173.4 L594.9,175.7 L591.8,178.5 L593.7,182.8 L594.5,178.8 L597.4,178.2 L603.8,183.6 L606.8,182.3 L611.6,185.2 L611.4,188.2 L613.2,190.4 L612.9,192.8 L610.6,193.0 L604.0,200.7 L605.4,205.5 L611.2,211.5 L609.0,212.7 L604.8,210.9 L602.5,207.5 L598.9,207.7 L597.5,209.4 L589.8,211.2 L587.3,213.1 L585.1,217.2 L582.9,218.3 L579.4,222.8 L577.3,223.3 L575.6,226.4 L572.6,227.7 L571.1,222.7 Z">
  <desc xmlns="http://www.highcharts.com/svg/namespace">
    <labelrank>2</labelrank>
    <hasc>IN.AR</hasc>
    <alt-name>Agence de la Frontisre du Nord-Est(French-obsolete)|North East Frontier Agency</alt-name>
    <woe-id>2345763</woe-id>
    <subregion>NULL</subregion>
    <fips>IN30</fips>
    <postal-code>AR</postal-code>
    <name>Arunachal Pradesh</name>
    <country>India</country>
    <type-en>State</type-en>
    <region>Northeast</region>
    <longitude>94.46729999999999</longitude>
    <woe-name>Arunachal Pradesh</woe-name>
    <latitude>28.4056</latitude>
    <woe-label>Arunachal Pradesh, IN, India</woe-label>
    <type>State</type>
    <hc-middle-x>0.53</hc-middle-x>
    <hc-middle-y>0.39</hc-middle-y>
    <hc-key>in-ar</hc-key>
    <hc-a2>AR</hc-a2>
  </desc>
</path>

<path fill="#CEE3F5" stroke="#6E6E6E" stroke-width="0.4" id="IN.ML" d="M515.6,272.4 L513.8,270.9 L507.1,268.9 L495.9,270.9 L490.8,269.7 L482.1,271.8 L480.3,271.3 L472.4,272.3 L462.5,269.5 L461.0,270.0 L460.2,266.4 L464.0,262.7 L462.6,260.3 L463.1,257.7 L466.3,253.8 L471.2,252.1 L474.9,252.7 L474.8,254.3 L479.5,252.8 L484.0,252.8 L485.4,255.3 L488.8,254.2 L489.3,257.3 L492.3,254.6 L494.6,253.9 L496.6,249.9 L499.6,251.0 L501.6,248.0 L503.8,249.0 L508.8,247.4 L510.9,248.0 L509.6,256.5 L514.1,254.6 L518.9,258.4 L519.0,260.4 L523.6,263.5 L524.2,266.4 L519.2,268.6 Z">
  <desc xmlns="http://www.highcharts.com/svg/namespace">
    <labelrank>2</labelrank>
    <hasc>IN.ML</hasc>
    <alt-name>NULL</alt-name>
    <woe-id>2345752</woe-id>
    <subregion>NULL</subregion>
    <fips>IN18</fips>
    <postal-code>ML</postal-code>
    <name>Meghalaya</name>
    <country>India</country>
    <type-en>State</type-en>
    <region>Northeast</region>
    <longitude>91.3031</longitude>
    <woe-name>Meghalaya</woe-name>
    <latitude>25.4804</latitude>
    <woe-label>Meghalaya, IN, India</woe-label>
    <type>State</type>
    <hc-middle-x>0.30</hc-middle-x>
    <hc-middle-y>0.76</hc-middle-y>
    <hc-key>in-ml</hc-key>
    <hc-a2>ML</hc-a2>
  </desc>
</path>

<path fill="#CEE3F5" stroke="#6E6E6E" stroke-width="0.4" id="IN.KL" d="M143.5,580.9 L137.7,568.8 L135.5,563.5 L137.6,563.3 L141.3,566.7 L144.9,567.5 L147.5,574.6 L152.8,579.2 L155.8,580.0 L157.7,582.8 L162.5,582.6 L170.6,589.6 L168.8,591.3 L166.6,591.0 L166.9,593.9 L170.4,594.9 L173.4,597.3 L171.0,600.1 L175.6,600.3 L178.4,604.0 L176.6,606.7 L179.5,608.0 L181.1,610.3 L179.5,613.7 L179.9,621.1 L183.2,623.0 L187.9,620.3 L189.8,623.6 L188.6,627.1 L189.4,629.3 L187.6,637.4 L191.1,638.2 L192.4,640.0 L189.0,648.7 L186.9,651.5 L188.8,654.8 L187.2,658.6 L189.4,662.5 L186.8,667.5 L185.5,668.0 L182.9,666.1 L173.0,653.9 L168.6,643.8 L167.5,639.9 L166.4,630.8 L169.9,635.5 L168.7,630.1 L166.0,628.4 L161.9,616.2 L159.0,610.3 L157.1,602.6 L154.0,595.0 L152.3,593.8 L150.4,588.6 L145.4,583.0 L145.4,580.4 L147.6,578.2 L143.6,579.1 Z">
  <desc xmlns="http://www.highcharts.com/svg/namespace">
    <labelrank>2</labelrank>
    <hasc>IN.KL</hasc>
    <alt-name>NULL</alt-name>
    <woe-id>2345747</woe-id>
    <subregion>NULL</subregion>
    <fips>IN13</fips>
    <postal-code>KL</postal-code>
    <name>Kerala</name>
    <country>India</country>
    <type-en>State</type-en>
    <region>South</region>
    <longitude>76.52370000000001</longitude>
    <woe-name>Kerala</woe-name>
    <latitude>10.3666</latitude>
    <woe-label>Kerala, IN, India</woe-label>
    <type>State</type>
    <hc-middle-x>0.74</hc-middle-x>
    <hc-middle-y>0.64</hc-middle-y>
    <hc-key>in-kl</hc-key>
    <hc-a2>KL</hc-a2>
  </desc>
</path>

<path fill="#CEE3F5" stroke="#6E6E6E" stroke-width="0.4" id="IN.TN" d="M170.6,589.6 L179.8,590.7 L181.9,586.7 L185.8,587.8 L189.9,586.4 L193.8,586.6 L195.1,584.0 L199.3,583.0 L201.5,579.6 L199.3,577.6 L195.3,577.5 L198.3,571.2 L197.1,569.4 L198.1,566.7 L200.2,566.6 L202.5,562.6 L208.3,562.9 L212.2,564.9 L216.4,567.9 L220.2,564.6 L221.6,559.6 L223.3,558.3 L228.4,557.4 L233.3,558.5 L235.4,556.2 L239.2,554.5 L239.7,552.2 L244.8,552.9 L247.5,554.5 L248.2,552.8 L254.6,549.0 L258.2,548.9 L259.3,549.5 L258.6,547.8 L258.6,547.8 L258.9,547.5 L259.3,549.5 L259.7,549.7 L259.9,555.1 L258.8,558.1 L257.5,567.2 L255.8,571.8 L249.1,582.2 L248.8,583.8 L245.1,582.7 L245.5,586.0 L247.9,586.6 L246.5,592.5 L247.3,596.0 L245.3,598.8 L248.4,597.9 L248.6,606.3 L246.2,606.1 L245.4,607.8 L248.6,610.2 L248.7,622.4 L242.7,620.9 L238.3,621.3 L234.6,625.0 L235.6,628.0 L233.8,629.5 L228.7,636.4 L227.1,640.9 L230.0,644.6 L234.9,645.2 L236.4,644.4 L238.8,648.2 L235.8,646.1 L228.1,645.5 L220.3,648.6 L216.5,649.1 L211.6,652.5 L208.7,659.6 L209.0,663.5 L207.4,666.2 L194.7,672.9 L190.2,671.7 L185.5,668.0 L186.8,667.5 L189.4,662.5 L187.2,658.6 L188.8,654.8 L186.9,651.5 L189.0,648.7 L192.4,640.0 L191.1,638.2 L187.6,637.4 L189.4,629.3 L188.6,627.1 L189.8,623.6 L187.9,620.3 L183.2,623.0 L179.9,621.1 L179.5,613.7 L181.1,610.3 L176.6,606.7 L178.4,604.0 L175.6,600.3 L171.0,600.1 L173.4,597.3 L170.4,594.9 L166.9,593.9 L166.6,591.0 Z">
  <desc xmlns="http://www.highcharts.com/svg/namespace">
    <labelrank>2</labelrank>
    <hasc>IN.</hasc>
    <alt-name>NULL</alt-name>
    <woe-id>2345758</woe-id>
    <subregion>NULL</subregion>
    <fips>IN22</fips>
    <postal-code>TN</postal-code>
    <name>Tamil Nadu</name>
    <country>India</country>
    <type-en>State</type-en>
    <region>South</region>
    <longitude>78.2704</longitude>
    <woe-name>Tamil Nadu</woe-name>
    <latitude>11.0159</latitude>
    <woe-label>Tamil Nadu, IN, India</woe-label>
    <type>State</type>
    <hc-middle-x>0.59</hc-middle-x>
    <hc-middle-y>0.40</hc-middle-y>
    <hc-key>in-tn</hc-key>
    <hc-a2>TN</hc-a2>
  </desc>
</path>

<path fill="#CEE3F5" stroke="#6E6E6E" stroke-width="0.4" id="IN.AP" d="M258.6,547.8 L255.6,542.8 L253.6,545.4 L255.1,548.1 L258.2,548.9 L254.6,549.0 L248.2,552.8 L247.5,554.5 L244.8,552.9 L239.7,552.2 L239.2,554.5 L235.4,556.2 L233.3,558.5 L228.4,557.4 L223.3,558.3 L221.6,559.6 L220.2,564.6 L216.4,567.9 L212.2,564.9 L212.5,562.7 L216.4,560.6 L219.9,554.4 L215.1,550.7 L215.5,545.7 L211.4,545.5 L209.3,543.3 L208.0,538.9 L205.5,540.1 L205.9,537.0 L202.6,537.5 L202.6,539.0 L198.1,542.0 L194.6,542.9 L193.4,539.5 L188.0,538.0 L187.7,540.9 L183.7,540.9 L184.9,538.1 L181.8,532.3 L184.1,531.9 L184.7,534.3 L187.3,535.8 L191.3,535.7 L193.7,538.4 L192.3,533.0 L195.4,531.6 L190.7,528.2 L188.1,528.0 L185.9,530.5 L182.8,529.9 L181.8,526.8 L183.4,525.4 L179.4,522.7 L179.2,520.3 L181.1,514.5 L178.8,512.9 L179.9,510.5 L185.8,512.6 L188.1,509.7 L187.6,505.7 L185.9,504.6 L184.7,501.1 L187.3,497.3 L186.3,492.5 L188.8,490.6 L195.6,490.9 L196.4,489.8 L196.8,481.1 L191.5,479.3 L195.5,476.1 L195.1,473.1 L196.4,465.7 L194.5,461.5 L201.5,453.7 L199.6,454.1 L195.5,452.1 L198.0,449.5 L197.5,447.9 L200.2,445.3 L198.9,436.5 L197.8,434.8 L199.9,430.9 L201.8,430.5 L202.6,427.7 L207.0,424.4 L203.6,419.5 L205.4,417.8 L207.0,413.1 L212.8,414.6 L213.0,412.1 L215.9,409.6 L218.1,403.8 L216.6,400.2 L219.8,402.4 L221.0,401.8 L226.4,403.0 L230.7,407.7 L234.9,406.1 L240.4,408.7 L247.3,407.2 L251.5,410.0 L252.3,411.9 L251.5,419.9 L252.1,424.2 L251.1,425.2 L254.9,428.2 L258.9,427.8 L260.7,430.6 L264.0,430.4 L268.2,434.8 L269.9,438.9 L273.6,442.3 L274.6,448.0 L275.9,449.5 L278.2,448.1 L283.7,448.8 L287.7,449.0 L295.3,444.3 L298.0,443.2 L302.3,444.4 L304.3,443.2 L303.8,439.7 L305.1,434.6 L306.9,432.1 L310.2,436.6 L309.9,438.5 L314.2,435.9 L319.9,435.0 L320.8,431.9 L319.6,429.3 L321.7,426.5 L323.4,426.9 L327.6,423.9 L325.5,421.1 L328.8,421.6 L332.3,417.8 L335.1,422.4 L336.5,420.7 L338.8,425.2 L344.5,425.6 L347.9,424.9 L352.4,419.7 L356.0,416.7 L357.9,417.6 L355.5,422.0 L350.3,428.9 L344.3,435.1 L342.8,437.5 L332.7,442.9 L329.4,446.2 L324.5,453.4 L317.0,457.7 L313.0,459.2 L307.7,462.5 L303.8,466.6 L303.1,470.4 L305.2,470.5 L304.0,477.0 L297.1,481.0 L291.9,483.0 L284.1,481.6 L280.5,483.1 L278.4,490.8 L274.9,494.0 L272.5,492.9 L270.6,497.0 L269.9,493.1 L265.0,493.2 L260.6,495.6 L258.5,498.0 L254.6,506.5 L253.7,513.2 L255.0,520.3 L256.9,523.6 L255.3,530.7 L256.1,536.9 L257.7,540.3 L257.4,543.6 L258.9,547.5 L258.6,547.8 Z M302.7,474.4 L303.9,473.5 L302.3,473.8 L301.1,473.8 Z">
  <desc xmlns="http://www.highcharts.com/svg/namespace">
    <labelrank>2</labelrank>
    <hasc>IN.AP</hasc>
    <alt-name>NULL</alt-name>
    <woe-id>2345740</woe-id>
    <subregion>NULL</subregion>
    <fips>IN02</fips>
    <postal-code>AP</postal-code>
    <name>Andhra Pradesh</name>
    <country>India</country>
    <type-en>State</type-en>
    <region>South</region>
    <longitude>79.208</longitude>
    <woe-name>Andhra Pradesh</woe-name>
    <latitude>16.4854</latitude>
    <woe-label>Andhra Pradesh, IN, India</woe-label>
    <type>State</type>
    <hc-middle-x>0.26</hc-middle-x>
    <hc-middle-y>0.56</hc-middle-y>
    <hc-key>in-ap</hc-key>
    <hc-a2>AP</hc-a2>
  </desc>
</path>

<path fill="#CEE3F5" stroke="#6E6E6E" stroke-width="0.4" id="IN.KA" d="M170.6,589.6 L162.5,582.6 L157.7,582.8 L155.8,580.0 L152.8,579.2 L147.5,574.6 L144.9,567.5 L141.3,566.7 L137.6,563.3 L135.5,563.5 L134.7,561.2 L131.9,545.7 L130.0,536.9 L128.3,534.4 L126.0,523.8 L124.0,522.2 L123.3,518.2 L119.6,515.9 L119.6,513.7 L123.0,512.2 L124.5,504.9 L123.2,496.6 L120.3,496.3 L122.3,493.4 L125.6,493.6 L129.0,485.6 L128.7,482.3 L126.0,481.6 L126.4,479.1 L124.2,475.5 L126.7,475.5 L128.5,473.2 L131.0,475.3 L133.7,474.2 L134.2,471.9 L138.1,470.9 L137.9,468.7 L140.6,466.4 L145.1,468.5 L147.2,466.5 L155.2,466.3 L156.0,463.6 L154.0,456.7 L155.5,454.8 L159.2,457.2 L161.1,456.3 L162.6,458.4 L168.7,457.1 L171.6,458.0 L171.3,451.9 L175.6,448.4 L179.2,450.0 L184.0,443.9 L184.2,440.0 L188.6,438.8 L193.4,432.9 L196.3,437.0 L198.9,436.5 L200.2,445.3 L197.5,447.9 L198.0,449.5 L195.5,452.1 L199.6,454.1 L201.5,453.7 L194.5,461.5 L196.4,465.7 L195.1,473.1 L195.5,476.1 L191.5,479.3 L196.8,481.1 L196.4,489.8 L195.6,490.9 L188.8,490.6 L186.3,492.5 L187.3,497.3 L184.7,501.1 L185.9,504.6 L187.6,505.7 L188.1,509.7 L185.8,512.6 L179.9,510.5 L178.8,512.9 L181.1,514.5 L179.2,520.3 L179.4,522.7 L183.4,525.4 L181.8,526.8 L182.8,529.9 L185.9,530.5 L188.1,528.0 L190.7,528.2 L195.4,531.6 L192.3,533.0 L193.7,538.4 L191.3,535.7 L187.3,535.8 L184.7,534.3 L184.1,531.9 L181.8,532.3 L184.9,538.1 L183.7,540.9 L187.7,540.9 L188.0,538.0 L193.4,539.5 L194.6,542.9 L198.1,542.0 L202.6,539.0 L202.6,537.5 L205.9,537.0 L205.5,540.1 L208.0,538.9 L209.3,543.3 L211.4,545.5 L215.5,545.7 L215.1,550.7 L219.9,554.4 L216.4,560.6 L212.5,562.7 L212.2,564.9 L208.3,562.9 L202.5,562.6 L200.2,566.6 L198.1,566.7 L197.1,569.4 L198.3,571.2 L195.3,577.5 L199.3,577.6 L201.5,579.6 L199.3,583.0 L195.1,584.0 L193.8,586.6 L189.9,586.4 L185.8,587.8 L181.9,586.7 L179.8,590.7 Z">
  <desc xmlns="http://www.highcharts.com/svg/namespace">
    <labelrank>2</labelrank>
    <hasc>IN.KA</hasc>
    <alt-name>Maisur|Mysore</alt-name>
    <woe-id>2345753</woe-id>
    <subregion>NULL</subregion>
    <fips>IN19</fips>
    <postal-code>KA</postal-code>
    <name>Karnataka</name>
    <country>India</country>
    <type-en>State</type-en>
    <region>South</region>
    <longitude>75.667</longitude>
    <woe-name>Karnataka</woe-name>
    <latitude>14.3681</latitude>
    <woe-label>Karnataka, IN, India</woe-label>
    <type>State</type>
    <hc-middle-x>0.40</hc-middle-x>
    <hc-middle-y>0.62</hc-middle-y>
    <hc-key>in-ka</hc-key>
    <hc-a2>KA</hc-a2>
  </desc>
</path>

<path fill="#CEE3F5" stroke="#6E6E6E" stroke-width="0.4" id="IN.MH" d="M103.7,391.4 L106.1,389.7 L108.1,390.2 L108.2,385.7 L110.6,381.9 L108.7,379.4 L110.6,377.7 L114.3,381.5 L117.9,380.7 L120.7,376.8 L120.0,372.2 L116.4,368.6 L118.8,365.0 L121.4,364.9 L122.4,362.5 L129.7,360.1 L123.4,358.8 L119.5,359.7 L118.1,357.3 L119.8,356.4 L119.6,352.1 L126.7,349.7 L128.3,350.4 L132.8,348.3 L134.4,350.2 L134.7,355.3 L138.9,358.2 L142.9,358.3 L146.2,359.8 L147.9,362.6 L151.8,364.0 L156.6,364.4 L164.1,364.0 L168.5,364.9 L170.5,371.5 L176.0,371.1 L179.9,369.1 L180.4,365.9 L182.5,364.3 L184.0,360.5 L191.1,357.3 L193.3,357.9 L195.8,356.2 L198.6,356.4 L200.5,358.1 L200.5,361.7 L197.8,362.7 L199.0,365.1 L203.8,365.5 L210.7,364.3 L218.1,360.1 L219.3,362.9 L225.1,363.7 L229.6,363.0 L230.0,361.5 L236.4,359.7 L237.0,358.4 L240.7,358.9 L243.6,362.2 L249.0,361.4 L249.9,362.6 L253.4,362.3 L257.4,360.2 L262.2,364.2 L262.2,366.0 L268.0,366.9 L266.8,369.4 L263.8,371.2 L262.7,375.0 L265.2,376.9 L265.7,382.0 L264.0,384.4 L266.7,384.3 L266.7,390.6 L262.4,392.7 L262.4,394.7 L264.7,395.0 L264.7,400.0 L262.4,400.6 L263.3,403.5 L264.8,402.5 L268.7,407.5 L272.6,410.0 L271.3,413.3 L268.9,415.1 L265.6,412.2 L261.9,415.4 L258.9,421.7 L260.5,424.6 L258.9,427.8 L254.9,428.2 L251.1,425.2 L252.1,424.2 L251.5,419.9 L252.3,411.9 L251.5,410.0 L247.3,407.2 L240.4,408.7 L234.9,406.1 L230.7,407.7 L226.4,403.0 L221.0,401.8 L219.8,402.4 L216.6,400.2 L218.1,403.8 L215.9,409.6 L213.0,412.1 L212.8,414.6 L207.0,413.1 L205.4,417.8 L203.6,419.5 L207.0,424.4 L202.6,427.7 L201.8,430.5 L199.9,430.9 L197.8,434.8 L198.9,436.5 L196.3,437.0 L193.4,432.9 L188.6,438.8 L184.2,440.0 L184.0,443.9 L179.2,450.0 L175.6,448.4 L171.3,451.9 L171.6,458.0 L168.7,457.1 L162.6,458.4 L161.1,456.3 L159.2,457.2 L155.5,454.8 L154.0,456.7 L156.0,463.6 L155.2,466.3 L147.2,466.5 L145.1,468.5 L140.6,466.4 L137.9,468.7 L138.1,470.9 L134.2,471.9 L133.7,474.2 L131.0,475.3 L128.5,473.2 L126.7,475.5 L124.2,475.5 L126.4,479.1 L126.0,481.6 L128.7,482.3 L129.0,485.6 L125.6,493.6 L122.3,493.4 L120.3,496.3 L116.8,496.3 L114.3,492.7 L111.4,494.0 L106.0,485.8 L103.3,474.2 L103.0,462.2 L100.9,454.3 L100.2,447.0 L97.4,438.6 L97.5,434.8 L99.6,435.3 L96.1,431.8 L96.4,427.4 L95.3,422.4 L98.3,420.2 L96.4,419.6 L98.5,417.2 L94.3,417.3 L95.0,412.9 L92.0,397.2 L93.6,391.9 L95.0,391.4 L98.9,390.9 L99.9,393.0 L103.5,393.0 Z">
  <desc xmlns="http://www.highcharts.com/svg/namespace">
    <labelrank>2</labelrank>
    <hasc>IN.MH</hasc>
    <alt-name>NULL</alt-name>
    <woe-id>2345750</woe-id>
    <subregion>NULL</subregion>
    <fips>IN16</fips>
    <postal-code>MH</postal-code>
    <name>Maharashtra</name>
    <country>India</country>
    <type-en>State</type-en>
    <region>West</region>
    <longitude>75.46469999999999</longitude>
    <woe-name>Maharashtra</woe-name>
    <latitude>19.4723</latitude>
    <woe-label>Maharashtra, IN, India</woe-label>
    <type>State</type>
    <hc-middle-x>0.32</hc-middle-x>
    <hc-middle-y>0.46</hc-middle-y>
    <hc-key>in-mh</hc-key>
    <hc-a2>MH</hc-a2>
  </desc>
</path>

<path fill="#CEE3F5" stroke="#6E6E6E" stroke-width="0.4" id="IN.OR" d="M397.4,344.6 L404.3,348.4 L405.7,351.5 L408.5,350.3 L410.4,353.5 L413.4,354.0 L415.0,358.0 L409.1,359.6 L406.2,361.5 L403.1,365.1 L401.5,368.7 L405.4,380.2 L400.7,384.1 L399.7,389.4 L394.9,391.9 L392.9,396.6 L386.0,400.1 L378.7,402.1 L372.3,404.6 L374.8,402.4 L374.8,399.7 L372.5,399.1 L367.3,403.1 L364.8,407.9 L367.0,408.2 L368.2,404.9 L371.0,404.0 L369.9,406.7 L366.5,409.1 L357.9,417.6 L356.0,416.7 L352.4,419.7 L347.9,424.9 L344.5,425.6 L338.8,425.2 L336.5,420.7 L335.1,422.4 L332.3,417.8 L328.8,421.6 L325.5,421.1 L327.6,423.9 L323.4,426.9 L321.7,426.5 L319.6,429.3 L320.8,431.9 L319.9,435.0 L314.2,435.9 L309.9,438.5 L310.2,436.6 L306.9,432.1 L305.1,434.6 L303.8,439.7 L304.3,443.2 L302.3,444.4 L298.0,443.2 L295.3,444.3 L287.7,449.0 L283.7,448.8 L284.8,447.1 L286.9,438.2 L291.3,436.0 L295.0,431.7 L296.3,428.4 L300.0,427.0 L301.8,420.8 L300.4,418.3 L300.5,412.2 L297.5,409.2 L297.4,403.2 L292.8,399.8 L295.4,395.7 L301.8,399.0 L303.1,401.8 L305.1,400.6 L309.4,401.6 L309.4,403.3 L312.4,401.3 L311.9,397.9 L310.1,398.2 L305.8,396.5 L305.9,388.1 L304.1,385.2 L304.1,378.1 L306.5,378.4 L308.8,375.9 L311.1,371.3 L317.5,370.7 L320.0,372.1 L322.6,370.7 L324.3,366.4 L326.0,366.9 L325.3,363.1 L328.3,356.0 L330.1,355.3 L329.1,352.3 L331.0,347.0 L339.3,341.1 L338.7,338.9 L342.6,342.3 L348.5,343.5 L350.8,341.3 L358.9,341.1 L362.2,339.2 L362.9,344.3 L360.7,348.2 L363.4,348.3 L365.9,350.0 L370.2,346.8 L375.7,348.7 L378.1,347.3 L378.1,350.1 L380.9,349.7 L382.1,347.8 L382.1,341.1 L381.0,338.6 L383.1,337.3 L390.4,342.3 L392.9,342.0 Z">
  <desc xmlns="http://www.highcharts.com/svg/namespace">
    <labelrank>2</labelrank>
    <hasc>IN.OR</hasc>
    <alt-name>NULL</alt-name>
    <woe-id>2345755</woe-id>
    <subregion>NULL</subregion>
    <fips>IN21</fips>
    <postal-code>OR</postal-code>
    <name>Orissa</name>
    <country>India</country>
    <type-en>State</type-en>
    <region>East</region>
    <longitude>84.4341</longitude>
    <woe-name>Orissa</woe-name>
    <latitude>20.625</latitude>
    <woe-label>Orissa, IN, India</woe-label>
    <type>State</type>
    <hc-middle-x>0.49</hc-middle-x>
    <hc-middle-y>0.44</hc-middle-y>
    <hc-key>in-or</hc-key>
    <hc-a2>OR</hc-a2>
  </desc>
</path>

<path fill="#CEE3F5" stroke="#6E6E6E" stroke-width="0.4" id="IN.DN" d="M103.7,391.4 L103.5,393.0 L99.9,393.0 L98.9,390.9 L97.9,388.7 L101.7,386.2 Z">
  <desc xmlns="http://www.highcharts.com/svg/namespace">
    <labelrank>9</labelrank>
    <hasc>IN.DN</hasc>
    <alt-name>DAdra et Nagar Haveli|Dadra e Nagar Haveli</alt-name>
    <woe-id>20070457</woe-id>
    <subregion>NULL</subregion>
    <fips>IN06</fips>
    <postal-code>DN</postal-code>
    <name>Dadra and Nagar Haveli</name>
    <country>India</country>
    <type-en>Union Territory</type-en>
    <region>West</region>
    <longitude>73.029</longitude>
    <woe-name>Dadra and Nagar Haveli</woe-name>
    <latitude>20.1841</latitude>
    <woe-label>Dadra and Nagar Haveli, IN, India</woe-label>
    <type>Union Territor</type>
    <hc-middle-x>0.52</hc-middle-x>
    <hc-middle-y>0.60</hc-middle-y>
    <hc-key>in-dn</hc-key>
    <hc-a2>DN</hc-a2>
  </desc>
</path>

<path fill="#CEE3F5" stroke="#6E6E6E" stroke-width="0.4" id="IN.DL" d="M199.9,200.2 L197.1,202.1 L194.7,199.8 L190.6,199.9 L189.9,198.7 L192.3,195.8 L192.2,193.1 L194.9,191.6 L197.6,191.8 L199.7,195.5 Z">
  <desc xmlns="http://www.highcharts.com/svg/namespace">
    <labelrank>9</labelrank>
    <hasc>IN.DL</hasc>
    <alt-name>NULL</alt-name>
    <woe-id>20070458</woe-id>
    <subregion>NULL</subregion>
    <fips>IN07</fips>
    <postal-code>DL</postal-code>
    <name>Delhi</name>
    <country>India</country>
    <type-en>Union Territory</type-en>
    <region>Central</region>
    <longitude>77.0856</longitude>
    <woe-name>Delhi</woe-name>
    <latitude>28.69</latitude>
    <woe-label>Delhi, IN, India</woe-label>
    <type>Union Territor</type>
    <hc-middle-x>0.60</hc-middle-x>
    <hc-middle-y>0.46</hc-middle-y>
    <hc-key>in-dl</hc-key>
    <hc-a2>DL</hc-a2>
  </desc>
</path>

<path fill="#CEE3F5" stroke="#6E6E6E" stroke-width="0.4" id="IN.HP" d="M206.5,157.2 L198.9,154.3 L197.5,152.6 L197.3,149.1 L195.1,147.7 L193.3,144.8 L190.5,144.5 L188.2,142.3 L187.1,136.9 L184.2,134.8 L183.1,132.4 L181.1,134.8 L178.8,134.0 L177.3,128.7 L174.6,123.0 L175.5,122.1 L173.9,119.1 L168.2,116.0 L170.6,112.0 L175.1,108.5 L173.9,106.5 L175.5,104.2 L175.4,100.6 L173.5,97.6 L176.8,97.5 L181.7,94.4 L183.3,92.3 L188.6,90.5 L192.1,91.5 L196.1,95.6 L199.5,98.1 L203.6,99.6 L211.0,96.5 L213.6,99.8 L216.4,105.9 L223.5,102.5 L223.6,105.2 L221.4,108.5 L223.6,108.0 L224.9,110.6 L225.0,115.0 L230.5,121.2 L228.9,125.7 L231.8,129.5 L229.4,131.7 L230.6,133.2 L230.0,135.8 L232.8,136.7 L235.0,140.6 L232.6,140.8 L231.1,138.8 L225.3,138.4 L221.0,136.6 L216.1,139.2 L214.1,139.2 L210.2,143.8 L210.9,144.7 L209.2,147.8 L211.1,154.2 L206.1,156.5 Z">
  <desc xmlns="http://www.highcharts.com/svg/namespace">
    <labelrank>2</labelrank>
    <hasc>IN.HP</hasc>
    <alt-name>NULL</alt-name>
    <woe-id>2345745</woe-id>
    <subregion>NULL</subregion>
    <fips>IN11</fips>
    <postal-code>HP</postal-code>
    <name>Himachal Pradesh</name>
    <country>India</country>
    <type-en>Union Territory</type-en>
    <region>North</region>
    <longitude>77.28749999999999</longitude>
    <woe-name>Himachal Pradesh</woe-name>
    <latitude>31.6755</latitude>
    <woe-label>Himachal Pradesh, IN, India</woe-label>
    <type>Union Territor</type>
    <hc-middle-x>0.38</hc-middle-x>
    <hc-middle-y>0.41</hc-middle-y>
    <hc-key>in-hp</hc-key>
    <hc-a2>HP</hc-a2>
  </desc>
</path>

<path fill="#CEE3F5" stroke="#6E6E6E" stroke-width="0.4" id="IN.RJ" d="M144.3,164.6 L144.8,166.7 L143.0,169.3 L145.6,168.9 L145.4,175.8 L144.0,176.4 L145.4,179.0 L149.7,177.6 L154.8,181.7 L159.9,180.6 L162.1,187.0 L164.6,196.0 L168.2,201.1 L170.4,201.8 L174.1,207.3 L171.2,208.5 L172.9,209.3 L170.9,212.2 L172.1,214.9 L176.6,215.1 L175.6,210.9 L176.2,209.7 L181.8,207.8 L181.6,210.2 L183.6,212.3 L185.7,209.8 L190.1,206.6 L191.7,209.1 L190.8,219.6 L194.1,218.0 L193.5,216.5 L198.5,216.6 L199.6,222.8 L201.9,226.5 L204.9,228.0 L205.8,230.8 L202.5,233.4 L206.6,235.8 L201.6,237.6 L200.1,240.3 L206.7,237.2 L212.3,237.9 L215.0,237.0 L217.9,237.7 L216.9,239.9 L214.8,240.5 L214.3,243.1 L210.6,243.4 L209.1,245.4 L200.6,249.9 L198.4,250.3 L195.9,252.8 L189.5,255.9 L185.6,260.0 L181.8,261.5 L180.2,264.4 L181.6,270.5 L183.6,272.4 L189.1,274.2 L194.7,273.6 L197.9,271.4 L199.2,276.7 L197.9,279.0 L194.7,278.6 L187.8,280.6 L188.1,283.7 L185.9,285.0 L189.8,287.5 L191.6,291.6 L188.3,293.0 L186.3,291.6 L186.3,296.1 L187.9,298.9 L185.2,300.7 L182.8,297.2 L180.4,299.3 L178.6,298.1 L173.9,297.6 L171.8,296.3 L171.3,300.9 L168.8,302.7 L168.1,304.9 L163.9,306.4 L162.2,308.4 L160.0,307.8 L157.8,304.9 L159.0,302.6 L163.0,303.7 L164.7,301.0 L163.5,299.3 L164.8,296.6 L163.5,293.9 L166.5,291.9 L164.3,285.7 L157.6,287.1 L152.5,286.4 L152.5,282.5 L154.6,282.7 L155.4,278.8 L151.3,279.1 L150.1,282.5 L147.9,283.0 L144.7,281.3 L144.8,284.4 L147.7,284.8 L147.4,286.9 L143.6,287.3 L141.9,290.6 L144.6,292.8 L142.1,296.8 L144.9,297.4 L146.8,302.3 L145.4,305.4 L145.8,310.2 L143.2,314.5 L137.6,317.3 L136.8,320.0 L140.6,321.8 L135.3,324.3 L132.0,324.8 L130.2,321.9 L124.5,316.9 L121.5,315.0 L117.5,314.7 L117.5,311.3 L112.2,306.4 L113.8,302.8 L112.5,298.9 L110.1,300.8 L106.8,296.3 L108.2,293.3 L107.2,289.2 L105.5,289.4 L103.7,292.4 L99.9,291.7 L96.0,288.6 L93.7,290.1 L93.1,288.1 L85.6,283.2 L83.3,284.1 L74.8,282.9 L68.4,283.7 L64.4,282.1 L61.4,274.6 L61.0,271.3 L57.0,264.2 L57.2,257.9 L51.4,258.0 L49.4,257.3 L45.7,250.4 L47.5,245.8 L48.8,237.7 L46.7,236.1 L41.7,235.9 L35.5,231.7 L34.8,229.9 L36.2,224.3 L37.9,221.2 L44.1,216.5 L48.0,212.4 L49.9,208.0 L55.6,203.4 L58.0,203.0 L61.5,205.8 L62.7,210.4 L65.1,211.5 L75.4,208.6 L80.6,208.9 L86.9,207.4 L87.8,204.1 L90.0,201.2 L93.6,198.5 L96.3,191.9 L99.1,188.8 L110.1,184.0 L117.7,172.6 L121.1,163.7 L128.7,161.3 L133.1,158.0 L133.5,159.6 L131.6,163.0 Z">
  <desc xmlns="http://www.highcharts.com/svg/namespace">
    <labelrank>2</labelrank>
    <hasc>IN.RJ</hasc>
    <alt-name>Greater Rajasthan|Rajputana</alt-name>
    <woe-id>2345757</woe-id>
    <subregion>NULL</subregion>
    <fips>IN24</fips>
    <postal-code>RJ</postal-code>
    <name>Rajasthan</name>
    <country>India</country>
    <type-en>State</type-en>
    <region>Central</region>
    <longitude>73.8556</longitude>
    <woe-name>Rajasthan</woe-name>
    <latitude>26.7468</latitude>
    <woe-label>Rajasthan, IN, India</woe-label>
    <type>State</type>
    <hc-middle-x>0.54</hc-middle-x>
    <hc-middle-y>0.52</hc-middle-y>
    <hc-key>in-rj</hc-key>
    <hc-a2>RJ</hc-a2>
  </desc>
</path>

<path fill="#CEE3F5" stroke="#6E6E6E" stroke-width="0.4" id="IN.UP" d="M216.9,239.9 L217.9,237.7 L215.0,237.0 L212.3,237.9 L206.7,237.2 L200.1,240.3 L201.6,237.6 L206.6,235.8 L202.5,233.4 L205.8,230.8 L204.9,228.0 L201.9,226.5 L199.6,222.8 L198.5,216.6 L203.7,213.4 L202.5,211.2 L203.9,206.5 L203.3,203.2 L199.9,200.2 L199.7,195.5 L197.6,191.8 L196.6,185.9 L197.0,179.6 L195.2,176.0 L197.9,170.4 L199.0,166.4 L206.1,159.6 L206.5,157.2 L208.0,157.0 L213.6,161.0 L209.4,166.7 L210.9,174.1 L213.5,172.7 L216.5,174.4 L218.2,173.2 L217.6,168.1 L219.1,167.7 L222.1,172.0 L224.1,173.0 L227.3,177.3 L232.8,180.1 L228.8,183.2 L231.7,184.9 L232.6,187.4 L235.5,186.4 L240.3,190.6 L241.8,190.7 L243.3,193.5 L245.8,192.8 L251.4,193.5 L253.6,196.2 L256.1,194.3 L261.7,199.0 L264.6,200.0 L264.7,197.8 L267.8,199.0 L274.9,204.2 L277.9,204.7 L281.2,210.5 L283.1,209.6 L284.3,211.5 L293.1,216.8 L296.5,215.4 L303.8,220.6 L308.9,220.0 L311.1,224.8 L318.9,225.8 L322.5,228.3 L323.6,225.3 L328.4,225.3 L333.8,227.8 L335.7,230.6 L338.6,237.4 L342.1,238.5 L342.3,241.2 L345.2,243.8 L339.3,243.8 L335.7,247.9 L341.1,249.4 L341.3,252.0 L337.3,253.3 L338.9,256.4 L343.1,260.3 L345.5,260.0 L348.8,261.8 L350.3,264.4 L348.0,265.5 L345.5,264.1 L342.8,266.9 L340.7,264.9 L335.8,269.8 L325.0,276.8 L324.0,278.3 L324.7,285.4 L327.9,287.7 L328.3,293.0 L325.7,293.8 L326.9,297.0 L324.5,302.1 L321.8,306.7 L316.7,307.5 L313.2,305.6 L310.4,301.4 L311.7,300.6 L312.3,296.6 L311.6,292.8 L312.4,290.1 L305.1,289.0 L302.5,291.0 L301.6,287.5 L293.5,284.4 L292.1,281.8 L287.3,280.8 L286.2,278.0 L280.1,278.7 L278.8,283.3 L277.0,284.8 L275.0,283.4 L270.3,283.3 L272.0,278.3 L263.5,279.9 L264.7,281.7 L260.0,282.3 L262.8,278.5 L259.9,273.0 L258.0,273.1 L250.8,276.8 L251.0,279.0 L244.3,278.4 L241.1,280.8 L240.0,279.0 L241.8,276.5 L239.1,276.4 L238.5,278.6 L233.4,278.3 L233.8,276.3 L230.6,278.3 L231.9,272.1 L230.9,269.9 L228.8,272.4 L227.3,270.8 L227.4,274.1 L224.5,272.6 L222.7,276.0 L224.7,279.1 L225.2,283.1 L227.1,286.5 L227.1,290.7 L229.7,290.7 L232.2,294.7 L228.2,300.4 L221.8,295.8 L219.6,298.3 L216.4,292.9 L217.1,289.2 L215.3,285.2 L218.9,281.6 L219.6,277.8 L217.5,272.6 L219.8,269.4 L227.1,267.8 L227.7,264.0 L229.1,262.8 L232.3,256.7 L232.5,252.8 L234.6,251.1 L231.9,242.9 L227.4,240.7 L224.4,241.6 L220.4,239.3 Z">
  <desc xmlns="http://www.highcharts.com/svg/namespace">
    <labelrank>2</labelrank>
    <hasc>IN.UP</hasc>
    <alt-name>United Provinces</alt-name>
    <woe-id>2345760</woe-id>
    <subregion>NULL</subregion>
    <fips>IN36</fips>
    <postal-code>UP</postal-code>
    <name>Uttar Pradesh</name>
    <country>India</country>
    <type-en>State</type-en>
    <region>Central</region>
    <longitude>80.9966</longitude>
    <woe-name>Uttar Pradesh</woe-name>
    <latitude>26.7201</latitude>
    <woe-label>Uttar Pradesh, IN, India</woe-label>
    <type>State</type>
    <hc-middle-x>0.42</hc-middle-x>
    <hc-middle-y>0.53</hc-middle-y>
    <hc-key>in-up</hc-key>
    <hc-a2>UP</hc-a2>
  </desc>
</path>

<path fill="#CEE3F5" stroke="#6E6E6E" stroke-width="0.4" id="IN.UT" d="M206.5,157.2 L206.1,156.5 L211.1,154.2 L209.2,147.8 L210.9,144.7 L210.2,143.8 L214.1,139.2 L216.1,139.2 L221.0,136.6 L225.3,138.4 L231.1,138.8 L232.6,140.8 L235.0,140.6 L232.8,136.7 L234.8,136.2 L236.5,133.6 L239.2,136.2 L241.0,140.9 L243.1,143.2 L246.6,145.2 L251.7,144.8 L256.2,148.9 L259.6,150.3 L258.5,154.1 L261.4,154.4 L269.4,158.0 L270.6,159.7 L275.0,162.2 L271.9,163.8 L268.0,167.8 L266.3,168.3 L264.4,171.6 L262.2,172.7 L262.5,176.2 L259.0,180.5 L260.4,183.0 L259.4,187.0 L257.3,187.6 L255.3,192.1 L256.1,194.3 L253.6,196.2 L251.4,193.5 L245.8,192.8 L243.3,193.5 L241.8,190.7 L240.3,190.6 L235.5,186.4 L232.6,187.4 L231.7,184.9 L228.8,183.2 L232.8,180.1 L227.3,177.3 L224.1,173.0 L222.1,172.0 L219.1,167.7 L217.6,168.1 L218.2,173.2 L216.5,174.4 L213.5,172.7 L210.9,174.1 L209.4,166.7 L213.6,161.0 L208.0,157.0 Z">
  <desc xmlns="http://www.highcharts.com/svg/namespace">
    <labelrank>2</labelrank>
    <hasc>IN.UT</hasc>
    <alt-name>Uttarakhand</alt-name>
    <woe-id>20070462</woe-id>
    <subregion>NULL</subregion>
    <fips>IN39</fips>
    <postal-code>UT</postal-code>
    <name>Uttaranchal</name>
    <country>India</country>
    <type-en>State</type-en>
    <region>Central</region>
    <longitude>79.2841</longitude>
    <woe-name>Uttaranchal</woe-name>
    <latitude>30.0576</latitude>
    <woe-label>Uttarakhand, IN, India</woe-label>
    <type>State</type>
    <hc-middle-x>0.45</hc-middle-x>
    <hc-middle-y>0.46</hc-middle-y>
    <hc-key>in-ut</hc-key>
    <hc-a2>UT</hc-a2>
  </desc>
</path>

<path fill="#CEE3F5" stroke="#6E6E6E" stroke-width="0.4" id="IN.JH" d="M324.5,302.1 L326.9,297.0 L325.7,293.8 L328.3,293.0 L331.9,293.5 L336.6,292.6 L339.2,290.6 L340.4,293.4 L344.8,292.7 L345.0,294.5 L348.5,297.7 L352.4,296.1 L355.3,293.2 L358.8,296.5 L367.8,292.5 L370.7,292.6 L373.5,291.0 L373.1,289.1 L375.1,286.2 L378.7,287.8 L380.9,286.7 L384.0,290.9 L386.8,290.9 L386.6,293.6 L390.2,295.6 L393.1,290.4 L396.6,289.6 L399.6,290.8 L400.1,288.9 L402.9,289.2 L403.9,280.4 L407.0,277.9 L407.4,275.5 L409.8,275.3 L412.1,271.8 L417.7,274.1 L417.8,277.0 L420.2,281.5 L420.4,288.5 L417.8,288.5 L418.9,290.6 L417.4,295.0 L415.6,296.2 L416.3,298.1 L412.7,299.7 L412.8,301.5 L408.3,303.6 L407.7,306.3 L404.3,307.3 L399.9,305.2 L398.4,309.6 L391.2,311.9 L388.7,315.0 L386.2,316.5 L384.2,313.5 L382.0,313.0 L381.5,315.2 L377.9,316.0 L379.4,317.5 L378.1,321.1 L379.4,323.3 L382.3,323.5 L385.0,326.3 L391.6,326.6 L390.7,331.7 L394.8,334.0 L395.4,335.7 L398.4,337.0 L397.8,338.8 L400.8,342.4 L397.4,344.6 L392.9,342.0 L390.4,342.3 L383.1,337.3 L381.0,338.6 L382.1,341.1 L382.1,347.8 L380.9,349.7 L378.1,350.1 L378.1,347.3 L375.7,348.7 L370.2,346.8 L365.9,350.0 L363.4,348.3 L360.7,348.2 L362.9,344.3 L362.2,339.2 L358.9,341.1 L350.8,341.3 L348.5,343.5 L342.6,342.3 L338.7,338.9 L343.3,335.0 L346.7,330.7 L346.2,328.7 L341.6,328.2 L339.7,324.8 L339.2,319.4 L337.8,319.7 L339.1,315.4 L338.3,313.3 L336.8,315.2 L334.2,314.7 L332.3,309.4 L329.2,306.8 L328.4,303.8 Z">
  <desc xmlns="http://www.highcharts.com/svg/namespace">
    <labelrank>2</labelrank>
    <hasc>IN.JH</hasc>
    <alt-name>Vananchal</alt-name>
    <woe-id>20070463</woe-id>
    <subregion>NULL</subregion>
    <fips>IN38</fips>
    <postal-code>JH</postal-code>
    <name>Jharkhand</name>
    <country>India</country>
    <type-en>State</type-en>
    <region>East</region>
    <longitude>85.05840000000001</longitude>
    <woe-name>Jharkhand</woe-name>
    <latitude>23.5221</latitude>
    <woe-label>Jharkhand, IN, India</woe-label>
    <type>State</type>
    <hc-middle-x>0.45</hc-middle-x>
    <hc-middle-y>0.58</hc-middle-y>
    <hc-key>in-jh</hc-key>
    <hc-a2>JH</hc-a2>
  </desc>
</path>

<path fill="#CEE3F5" stroke="#6E6E6E" stroke-width="0.4" id="IN.CH" d="M191.4,147.3 L191.5,148.6 L191.5,149.8 L189.1,147.4 Z">
  <desc xmlns="http://www.highcharts.com/svg/namespace">
    <labelrank>9</labelrank>
    <hasc>IN.CH</hasc>
    <alt-name>NULL</alt-name>
    <woe-id>20070456</woe-id>
    <subregion>NULL</subregion>
    <fips>IN05</fips>
    <postal-code>CH</postal-code>
    <name>Chandigarh</name>
    <country>India</country>
    <type-en>Union Territory</type-en>
    <region>North</region>
    <longitude>76.76049999999999</longitude>
    <woe-name>Chandigarh</woe-name>
    <latitude>30.7452</latitude>
    <woe-label>Chandigarh, IN, India</woe-label>
    <type>Union Territor</type>
    <hc-middle-x>0.74</hc-middle-x>
    <hc-middle-y>0.29</hc-middle-y>
    <hc-key>in-ch</hc-key>
    <hc-a2>CH</hc-a2>
  </desc>
</path>

<path fill="#CEE3F5" stroke="#6E6E6E" stroke-width="0.4" id="IN.BR" d="M417.7,274.1 L412.1,271.8 L409.8,275.3 L407.4,275.5 L407.0,277.9 L403.9,280.4 L402.9,289.2 L400.1,288.9 L399.6,290.8 L396.6,289.6 L393.1,290.4 L390.2,295.6 L386.6,293.6 L386.8,290.9 L384.0,290.9 L380.9,286.7 L378.7,287.8 L375.1,286.2 L373.1,289.1 L373.5,291.0 L370.7,292.6 L367.8,292.5 L358.8,296.5 L355.3,293.2 L352.4,296.1 L348.5,297.7 L345.0,294.5 L344.8,292.7 L340.4,293.4 L339.2,290.6 L336.6,292.6 L331.9,293.5 L328.3,293.0 L327.9,287.7 L324.7,285.4 L324.0,278.3 L325.0,276.8 L335.8,269.8 L340.7,264.9 L342.8,266.9 L345.5,264.1 L348.0,265.5 L350.3,264.4 L348.8,261.8 L345.5,260.0 L343.1,260.3 L338.9,256.4 L337.3,253.3 L341.3,252.0 L341.1,249.4 L335.7,247.9 L339.3,243.8 L345.2,243.8 L342.3,241.2 L342.1,238.5 L338.6,237.4 L335.7,230.6 L333.8,227.8 L333.4,225.8 L337.0,225.5 L338.4,223.9 L342.8,226.9 L348.8,227.8 L350.5,230.6 L350.3,234.7 L356.2,236.2 L358.3,238.7 L361.3,238.5 L363.9,241.0 L370.3,238.1 L372.2,239.0 L372.9,242.7 L375.2,244.5 L379.1,242.4 L383.1,243.9 L384.8,243.1 L393.9,247.3 L400.6,243.2 L401.6,246.6 L406.8,248.2 L407.9,246.6 L412.2,247.3 L418.0,245.1 L420.4,247.1 L422.5,243.0 L424.7,242.6 L427.2,246.9 L420.7,252.3 L417.8,255.6 L417.4,258.8 L422.7,263.3 L423.4,267.4 L421.0,266.5 L416.7,269.8 L418.8,272.6 Z">
  <desc xmlns="http://www.highcharts.com/svg/namespace">
    <labelrank>2</labelrank>
    <hasc>IN.BR</hasc>
    <alt-name>NULL</alt-name>
    <woe-id>2345742</woe-id>
    <subregion>NULL</subregion>
    <fips>IN34</fips>
    <postal-code>BR</postal-code>
    <name>Bihar</name>
    <country>India</country>
    <type-en>State</type-en>
    <region>East</region>
    <longitude>85.8134</longitude>
    <woe-name>Bihar</woe-name>
    <latitude>25.6853</latitude>
    <woe-label>Bihar, IN, India</woe-label>
    <type>State</type>
    <hc-middle-x>0.44</hc-middle-x>
    <hc-middle-y>0.59</hc-middle-y>
    <hc-key>in-br</hc-key>
    <hc-a2>BR</hc-a2>
  </desc>
</path>

<path fill="#CEE3F5" stroke="#6E6E6E" stroke-width="0.4" id="IN.SK" d="M435.1,228.1 L430.6,227.7 L427.7,230.0 L422.3,229.1 L419.8,226.6 L419.9,220.9 L422.3,214.3 L421.2,210.3 L426.6,209.1 L431.2,206.0 L435.6,208.3 L436.6,211.8 L434.7,218.8 L435.6,222.0 L438.2,224.0 Z">
  <desc xmlns="http://www.highcharts.com/svg/namespace">
    <labelrank>2</labelrank>
    <hasc>IN.SK</hasc>
    <alt-name>NULL</alt-name>
    <woe-id>2345762</woe-id>
    <subregion>NULL</subregion>
    <fips>IN29</fips>
    <postal-code>SK</postal-code>
    <name>Sikkim</name>
    <country>India</country>
    <type-en>State</type-en>
    <region>East</region>
    <longitude>88.4482</longitude>
    <woe-name>Sikkim</woe-name>
    <latitude>27.5709</latitude>
    <woe-label>Sikkim, IN, India</woe-label>
    <type>State</type>
    <hc-middle-x>0.45</hc-middle-x>
    <hc-middle-y>0.51</hc-middle-y>
    <hc-key>in-sk</hc-key>
    <hc-a2>SK</hc-a2>
  </desc>
</path>
</g>

<text x="350" y="714" text-anchor="middle" font-family="Verdana" font-size="8" stroke-opacity="0.6">Copyright (c) 2023 Highsoft AS, Based on data from Natural Earth</text>

</svg>