<?xml version="1.0" encoding="utf-8" standalone="no"?>
<!DOCTYPE svg PUBLIC "-//W3C//DTD SVG 1.1//EN" "http://www.w3.org/Graphics/SVG/1.1/DTD/svg11.dtd">

<svg version="1.1" height="700pt" width="700pt" xmlns="http://www.w3.org/2000/svg" xmlns:xlink="http://www.w3.org/1999/xlink">
<desc>
Map version: 2.1.0
Copyright (c) 2023 Highsoft AS, Based on data from Natural Earth
</desc>
<title>Honduras</title>
<g id="admin1">

<g id="HN">
  <desc xmlns="http://www.highcharts.com/svg/namespace">
    <name>Honduras</name>
    <labelrank>5</labelrank>
    <country-abbrev>Hond.</country-abbrev>
    <subregion>Central America</subregion>
    <region-wb>Latin America &amp; Caribbean</region-wb>
    <iso-a3>HND</iso-a3>
    <iso-a2>HN</iso-a2>
    <woe-id>23424841</woe-id>
    <continent>North America</continent>
    <hc-key>hn</hc-key>
    <hc-a2>HO</hc-a2>
  </desc>
</g>

<path fill="#CEE3F5" stroke="#6E6E6E" stroke-width="0.4" id="HN.IB" d="M279.1,48.0 L277.2,49.2 L269.8,52.4 L266.1,50.4 L267.1,49.0 L272.0,46.6 L278.0,45.3 L280.0,46.1 Z M354.6,11.1 L352.2,12.3 L350.1,11.7 L346.7,12.5 L342.4,12.3 L336.8,14.4 L330.7,17.9 L326.7,19.4 L322.5,22.4 L316.1,23.9 L310.3,28.9 L310.4,24.3 L318.1,18.9 L328.1,14.2 L340.2,10.4 L343.5,10.0 L356.9,10.4 Z M388.8,9.3 L383.1,13.2 L382.6,12.2 L385.3,7.3 L387.0,6.4 L390.0,1.7 L393.7,0.0 L397.5,2.2 L394.5,3.9 L392.4,7.5 L390.2,7.7 Z">
  <desc xmlns="http://www.highcharts.com/svg/namespace">
    <labelrank>7</labelrank>
    <hasc>HN.IB</hasc>
    <alt-name>Islas de Bahia</alt-name>
    <woe-id>2345633</woe-id>
    <subregion>NULL</subregion>
    <fips>HO01</fips>
    <postal-code>IB</postal-code>
    <name>Islas de la Bahía</name>
    <country>Honduras</country>
    <type-en>Department</type-en>
    <region>NULL</region>
    <longitude>-86.9319</longitude>
    <woe-name>Islas de la Bahía</woe-name>
    <latitude>16.1048</latitude>
    <woe-label>Islas de la Bahía, HN, Honduras</woe-label>
    <type>Departamento</type>
    <hc-middle-x>0.46</hc-middle-x>
    <hc-middle-y>0.34</hc-middle-y>
    <hc-key>hn-ib</hc-key>
    <hc-a2>IB</hc-a2>
  </desc>
</path>

<path fill="#CEE3F5" stroke="#6E6E6E" stroke-width="0.4" id="HN.VA" d="M195.3,376.9 L192.7,377.3 L189.7,373.3 L196.3,372.6 Z M195.5,363.5 L201.3,363.1 L199.4,364.7 L200.7,369.3 L199.0,370.9 L193.8,369.2 L191.4,367.8 L191.6,365.8 L194.1,362.9 Z M223.0,360.7 L220.6,358.7 L217.3,358.9 L215.3,357.6 L212.2,360.7 L212.5,363.7 L211.4,364.7 L203.9,365.1 L204.5,363.1 L198.2,361.7 L195.9,363.1 L197.4,359.1 L195.9,358.5 L196.0,354.0 L193.9,352.5 L191.3,355.2 L192.3,358.4 L190.6,361.5 L187.6,363.7 L184.4,364.6 L177.6,361.8 L177.0,359.9 L173.5,359.1 L182.4,355.0 L184.4,352.8 L183.9,348.4 L181.4,346.8 L177.8,347.2 L176.6,344.5 L177.3,341.3 L180.0,334.8 L180.6,326.4 L183.3,322.7 L182.6,320.8 L186.5,312.0 L181.3,308.4 L187.7,308.0 L190.5,309.8 L192.9,309.8 L192.6,318.2 L198.0,322.7 L203.5,323.1 L211.8,328.9 L213.8,328.8 L218.2,332.5 L217.9,337.1 L220.6,343.2 L224.7,346.2 L224.3,348.6 L226.3,353.8 L226.5,356.1 L225.3,359.0 Z">
  <desc xmlns="http://www.highcharts.com/svg/namespace">
    <labelrank>7</labelrank>
    <hasc>HN.VA</hasc>
    <alt-name>NULL</alt-name>
    <woe-id>2345639</woe-id>
    <subregion>NULL</subregion>
    <fips>HO17</fips>
    <postal-code>VA</postal-code>
    <name>Valle</name>
    <country>Honduras</country>
    <type-en>Department</type-en>
    <region>NULL</region>
    <longitude>-87.5992</longitude>
    <woe-name>Valle</woe-name>
    <latitude>13.5753</latitude>
    <woe-label>Valle, HN, Honduras</woe-label>
    <type>Departamento</type>
    <hc-middle-x>0.47</hc-middle-x>
    <hc-middle-y>0.48</hc-middle-y>
    <hc-key>hn-va</hc-key>
    <hc-a2>VA</hc-a2>
  </desc>
</path>

<path fill="#CEE3F5" stroke="#6E6E6E" stroke-width="0.4" id="HN.AT" d="M184.5,69.0 L189.0,69.7 L194.0,72.7 L194.8,71.1 L199.8,67.4 L196.9,72.1 L208.9,83.2 L212.2,84.7 L215.8,84.0 L218.1,80.9 L222.1,80.9 L223.4,78.5 L227.3,77.3 L238.8,79.9 L248.8,83.5 L259.2,84.6 L271.1,87.3 L279.3,87.2 L288.2,84.9 L291.4,82.3 L294.7,84.0 L299.4,84.4 L321.2,82.5 L324.9,82.6 L328.6,84.1 L327.5,85.4 L328.2,88.8 L331.9,92.9 L333.5,96.4 L336.9,97.8 L337.2,103.0 L335.6,105.6 L330.6,108.1 L325.0,106.5 L319.7,107.5 L316.5,106.8 L312.4,107.1 L306.5,105.6 L302.7,106.7 L295.8,110.3 L290.5,111.9 L283.3,111.6 L281.9,109.7 L273.9,111.9 L266.8,112.1 L260.8,117.8 L257.7,119.8 L250.4,122.5 L245.4,126.2 L240.8,126.1 L227.4,122.7 L223.8,124.5 L219.2,122.2 L217.6,119.9 L216.8,114.3 L213.2,113.2 L208.9,115.7 L197.6,117.1 L195.8,116.4 L190.7,110.1 L189.0,100.9 L187.8,98.7 L177.8,92.1 L180.4,91.1 L181.1,88.6 L177.0,83.7 L177.6,81.5 L180.2,78.5 L181.9,74.6 L184.8,71.7 Z">
  <desc xmlns="http://www.highcharts.com/svg/namespace">
    <labelrank>7</labelrank>
    <hasc>HN.AT</hasc>
    <alt-name>NULL</alt-name>
    <woe-id>2345623</woe-id>
    <subregion>NULL</subregion>
    <fips>HO01</fips>
    <postal-code>AT</postal-code>
    <name>Atlántida</name>
    <country>Honduras</country>
    <type-en>Department</type-en>
    <region>NULL</region>
    <longitude>-87.0783</longitude>
    <woe-name>Atlántida</woe-name>
    <latitude>15.6343</latitude>
    <woe-label>Atlántida, HN, Honduras</woe-label>
    <type>Departamento</type>
    <hc-middle-x>0.38</hc-middle-x>
    <hc-middle-y>0.60</hc-middle-y>
    <hc-key>hn-at</hc-key>
    <hc-a2>AT</hc-a2>
  </desc>
</path>

<path fill="#CEE3F5" stroke="#6E6E6E" stroke-width="0.4" id="HN.GD" d="M489.0,60.4 L494.6,62.1 L505.4,66.9 L525.3,72.9 L526.9,74.1 L524.9,77.7 L524.9,82.3 L527.3,84.6 L532.2,84.0 L532.9,80.6 L536.7,83.4 L539.5,82.9 L547.7,83.9 L550.4,81.9 L548.1,80.9 L536.4,78.9 L530.2,76.2 L529.2,74.4 L549.1,78.0 L565.8,79.2 L568.1,79.9 L582.5,91.4 L613.4,116.9 L624.2,123.2 L631.2,125.2 L632.0,127.2 L629.6,128.0 L623.4,124.0 L617.0,121.1 L612.1,120.8 L612.3,118.8 L607.6,113.2 L605.6,113.9 L601.0,111.0 L598.7,111.4 L595.3,114.2 L591.5,112.7 L593.2,109.7 L589.9,109.6 L590.3,112.8 L593.1,116.6 L591.6,117.5 L588.1,111.0 L585.6,109.5 L582.2,110.4 L577.6,109.8 L579.3,113.3 L581.3,114.0 L580.8,117.6 L584.1,114.8 L585.1,111.5 L587.2,111.8 L590.6,118.6 L591.3,121.2 L587.7,123.6 L588.6,126.5 L592.5,131.7 L597.8,133.7 L598.9,132.6 L597.8,129.2 L600.6,131.9 L600.3,135.6 L601.9,137.5 L609.5,137.0 L606.5,138.6 L607.4,141.3 L610.7,144.4 L613.1,144.9 L617.7,143.9 L621.9,141.6 L615.6,137.7 L614.0,135.6 L611.7,135.3 L603.1,132.4 L597.7,126.9 L602.3,124.4 L612.4,128.7 L614.7,132.2 L618.1,134.1 L621.3,134.8 L624.8,138.4 L622.6,140.0 L624.4,141.1 L627.2,139.8 L628.0,143.1 L627.8,147.4 L629.0,149.4 L631.2,147.0 L632.2,149.2 L635.0,145.3 L639.0,143.5 L643.0,142.9 L644.1,138.3 L653.0,139.9 L654.9,139.5 L654.4,148.0 L651.8,148.2 L649.8,145.3 L647.0,145.5 L644.4,149.9 L644.5,152.2 L646.5,151.5 L647.3,148.3 L648.4,153.1 L652.0,153.0 L655.1,149.3 L660.1,147.4 L657.8,143.8 L656.0,138.9 L654.6,137.6 L652.5,138.7 L647.5,136.4 L645.6,137.3 L645.5,134.9 L638.8,133.0 L636.6,131.0 L632.5,129.3 L635.0,126.2 L638.3,128.6 L653.1,135.9 L668.3,141.3 L674.2,145.5 L675.5,147.6 L677.5,155.0 L679.5,159.7 L682.6,164.0 L686.0,166.7 L700.0,172.0 L694.7,172.1 L690.2,173.8 L684.8,173.9 L682.6,172.8 L684.0,171.5 L674.8,170.9 L670.7,168.5 L668.0,172.5 L663.1,174.3 L660.0,171.1 L657.4,171.0 L657.1,175.9 L655.3,175.4 L655.6,178.3 L646.9,183.0 L645.7,187.2 L641.8,185.4 L637.1,185.7 L634.6,188.0 L635.7,191.3 L631.0,189.8 L631.3,191.6 L629.0,192.5 L622.7,193.0 L625.0,195.5 L620.7,196.3 L617.3,198.7 L615.0,197.1 L614.3,198.3 L611.1,195.7 L611.2,200.3 L600.1,201.1 L597.3,199.7 L594.2,199.6 L590.9,197.1 L588.9,198.2 L592.0,202.9 L591.3,204.2 L588.3,204.0 L586.6,205.5 L582.2,206.4 L576.3,201.8 L573.3,201.4 L572.7,202.8 L573.3,208.2 L572.8,210.7 L570.5,212.0 L564.8,211.2 L562.0,206.5 L557.0,214.2 L548.6,217.7 L544.5,215.6 L542.8,216.2 L543.6,213.1 L535.4,212.9 L528.4,210.6 L524.2,211.6 L521.3,205.8 L519.0,204.2 L518.8,201.3 L516.5,201.1 L517.8,199.4 L516.1,196.6 L510.7,194.0 L501.1,195.4 L494.1,201.5 L490.4,204.2 L490.4,204.1 L490.0,166.5 Z">
  <desc xmlns="http://www.highcharts.com/svg/namespace">
    <labelrank>7</labelrank>
    <hasc>HN.GD</hasc>
    <alt-name>NULL</alt-name>
    <woe-id>2345631</woe-id>
    <subregion>NULL</subregion>
    <fips>HO09</fips>
    <postal-code>GD</postal-code>
    <name>Gracias a Dios</name>
    <country>Honduras</country>
    <type-en>Department</type-en>
    <region>NULL</region>
    <longitude>-84.37009999999999</longitude>
    <woe-name>Gracias a Dios</woe-name>
    <latitude>15.1219</latitude>
    <woe-label>Gracias a Dios, HN, Honduras</woe-label>
    <type>Departamento</type>
    <hc-middle-x>0.30</hc-middle-x>
    <hc-middle-y>0.55</hc-middle-y>
    <hc-key>hn-gd</hc-key>
    <hc-a2>GD</hc-a2>
  </desc>
</path>

<path fill="#CEE3F5" stroke="#6E6E6E" stroke-width="0.4" id="HN.CL" d="M330.6,108.1 L335.6,105.6 L337.2,103.0 L336.9,97.8 L333.5,96.4 L331.9,92.9 L328.2,88.8 L327.5,85.4 L328.6,84.1 L331.2,85.7 L335.7,86.4 L339.7,85.1 L350.3,78.5 L354.3,74.4 L362.1,71.9 L378.0,71.2 L380.6,70.2 L384.9,67.0 L387.2,64.4 L388.2,61.6 L386.4,59.3 L376.0,57.5 L376.5,56.2 L379.4,55.9 L394.0,58.7 L398.2,59.1 L411.8,62.9 L412.4,67.0 L414.0,65.4 L421.2,70.2 L426.1,72.3 L434.6,74.5 L448.7,73.0 L460.8,72.6 L467.2,69.8 L475.3,63.9 L480.6,60.6 L489.0,60.4 L490.0,166.5 L483.3,158.6 L479.5,155.2 L463.8,148.5 L461.9,147.3 L455.4,139.5 L449.3,130.7 L445.3,127.6 L433.1,123.0 L421.5,113.2 L412.5,108.4 L410.1,107.9 L407.2,109.0 L404.0,107.5 L401.5,108.8 L400.5,111.7 L395.9,115.1 L391.8,113.8 L387.8,119.2 L381.1,125.9 L374.6,129.4 L370.6,129.4 L361.1,132.2 L358.5,131.6 L351.7,128.0 L350.7,122.8 L351.3,117.7 L350.8,115.2 L342.5,112.8 L335.4,112.7 Z">
  <desc xmlns="http://www.highcharts.com/svg/namespace">
    <labelrank>7</labelrank>
    <hasc>HN.CL</hasc>
    <alt-name>NULL</alt-name>
    <woe-id>2345625</woe-id>
    <subregion>NULL</subregion>
    <fips>HO03</fips>
    <postal-code>CL</postal-code>
    <name>Colón</name>
    <country>Honduras</country>
    <type-en>Department</type-en>
    <region>NULL</region>
    <longitude>-85.72360000000001</longitude>
    <woe-name>Colón</woe-name>
    <latitude>15.7786</latitude>
    <woe-label>Colón, HN, Honduras</woe-label>
    <type>Departamento</type>
    <hc-middle-x>0.71</hc-middle-x>
    <hc-middle-y>0.40</hc-middle-y>
    <hc-key>hn-cl</hc-key>
    <hc-a2>CL</hc-a2>
  </desc>
</path>

<path fill="#CEE3F5" stroke="#6E6E6E" stroke-width="0.4" id="HN.OL" d="M490.0,166.5 L490.4,204.1 L490.4,204.2 L487.6,207.6 L486.7,212.6 L484.4,213.3 L488.2,216.7 L485.1,219.9 L488.0,219.9 L487.2,221.9 L483.2,225.9 L480.9,227.0 L477.1,223.7 L475.1,223.2 L473.7,228.0 L473.6,233.9 L470.6,237.4 L470.6,240.6 L467.6,243.0 L471.4,246.0 L473.0,250.9 L469.4,254.3 L463.8,255.7 L459.6,255.8 L454.7,257.6 L451.7,261.4 L450.0,261.3 L446.6,265.8 L445.8,268.8 L442.4,274.9 L437.5,278.3 L433.5,279.4 L431.6,284.4 L427.6,285.4 L426.2,281.6 L422.8,279.1 L421.7,273.3 L418.1,269.2 L415.3,269.9 L405.6,267.5 L403.1,270.8 L400.5,271.1 L395.8,269.4 L392.8,271.4 L392.2,274.0 L388.2,275.2 L384.6,271.2 L380.3,269.2 L376.1,261.2 L373.8,259.5 L370.8,259.2 L369.3,261.3 L362.3,259.6 L357.5,252.1 L352.1,251.2 L344.7,254.1 L340.5,257.1 L338.4,257.6 L330.1,257.1 L326.9,253.4 L322.1,251.2 L319.5,248.6 L313.1,246.9 L310.0,246.8 L307.3,243.7 L302.8,243.9 L297.9,241.9 L296.0,233.0 L294.0,228.3 L294.6,224.4 L287.5,216.9 L285.3,216.4 L282.8,213.9 L278.0,202.8 L276.2,197.3 L275.6,193.0 L273.3,187.3 L276.3,182.3 L270.1,178.0 L267.2,173.6 L268.8,170.7 L274.7,169.2 L278.6,166.0 L282.0,155.6 L281.2,148.6 L281.6,146.1 L286.5,142.5 L291.7,141.3 L295.1,144.1 L300.2,144.4 L303.2,142.8 L306.9,136.0 L309.3,136.0 L318.8,130.8 L321.4,130.4 L327.1,133.1 L332.0,137.4 L336.1,137.3 L345.2,132.1 L351.7,128.0 L358.5,131.6 L361.1,132.2 L370.6,129.4 L374.6,129.4 L381.1,125.9 L387.8,119.2 L391.8,113.8 L395.9,115.1 L400.5,111.7 L401.5,108.8 L404.0,107.5 L407.2,109.0 L410.1,107.9 L412.5,108.4 L421.5,113.2 L433.1,123.0 L445.3,127.6 L449.3,130.7 L455.4,139.5 L461.9,147.3 L463.8,148.5 L479.5,155.2 L483.3,158.6 Z">
  <desc xmlns="http://www.highcharts.com/svg/namespace">
    <labelrank>7</labelrank>
    <hasc>HN.OL</hasc>
    <alt-name>NULL</alt-name>
    <woe-id>2345637</woe-id>
    <subregion>NULL</subregion>
    <fips>HO15</fips>
    <postal-code>OL</postal-code>
    <name>Olancho</name>
    <country>Honduras</country>
    <type-en>Department</type-en>
    <region>NULL</region>
    <longitude>-85.9937</longitude>
    <woe-name>Olancho</woe-name>
    <latitude>14.8052</latitude>
    <woe-label>Olancho, HN, Honduras</woe-label>
    <type>Departamento</type>
    <hc-middle-x>0.53</hc-middle-x>
    <hc-middle-y>0.50</hc-middle-y>
    <hc-key>hn-ol</hc-key>
    <hc-a2>OL</hc-a2>
  </desc>
</path>

<path fill="#CEE3F5" stroke="#6E6E6E" stroke-width="0.4" id="HN.FM" d="M267.2,173.6 L270.1,178.0 L276.3,182.3 L273.3,187.3 L275.6,193.0 L276.2,197.3 L278.0,202.8 L282.8,213.9 L285.3,216.4 L287.5,216.9 L294.6,224.4 L294.0,228.3 L296.0,233.0 L297.9,241.9 L289.5,248.3 L285.9,251.8 L285.0,255.6 L282.9,259.4 L277.4,264.2 L274.7,270.6 L276.8,272.2 L275.7,274.5 L270.0,274.5 L267.6,275.5 L271.2,281.5 L275.1,284.3 L275.3,290.8 L274.1,293.2 L270.9,295.6 L267.0,294.9 L267.5,298.3 L266.6,301.0 L266.4,308.5 L264.2,313.8 L261.8,316.7 L256.3,315.7 L252.1,312.6 L251.0,314.9 L251.3,319.4 L253.3,322.6 L251.1,330.0 L245.2,327.5 L241.6,328.7 L236.1,326.7 L232.2,327.2 L229.8,325.9 L225.2,326.5 L221.5,322.9 L222.2,319.0 L218.0,318.3 L214.6,318.8 L213.3,325.6 L213.8,328.8 L211.8,328.9 L203.5,323.1 L198.0,322.7 L192.6,318.2 L192.9,309.8 L196.0,305.8 L197.5,301.9 L198.6,295.6 L196.5,280.5 L196.6,278.1 L200.6,274.1 L204.9,273.8 L209.4,271.5 L211.4,267.5 L217.9,264.3 L217.4,262.4 L214.4,260.1 L213.6,253.6 L214.1,251.7 L218.6,251.6 L222.8,245.1 L219.6,242.1 L219.5,238.6 L215.1,235.1 L213.4,230.5 L219.2,224.8 L221.0,218.4 L227.4,220.6 L229.1,217.7 L229.2,213.9 L230.7,212.4 L235.9,209.6 L237.8,202.9 L236.9,195.4 L238.3,193.2 L242.4,191.6 L241.2,189.1 L238.2,187.2 L242.2,180.9 L244.5,179.0 L245.1,174.1 L247.1,172.4 L252.4,171.7 L257.4,173.0 L263.4,172.7 Z">
  <desc xmlns="http://www.highcharts.com/svg/namespace">
    <labelrank>7</labelrank>
    <hasc>HN.FM</hasc>
    <alt-name>Tegucigalpa</alt-name>
    <woe-id>2345630</woe-id>
    <subregion>NULL</subregion>
    <fips>HO08</fips>
    <postal-code>FM</postal-code>
    <name>Francisco Morazán</name>
    <country>Honduras</country>
    <type-en>Department</type-en>
    <region>NULL</region>
    <longitude>-87.1815</longitude>
    <woe-name>Francisco Morazán</woe-name>
    <latitude>14.3474</latitude>
    <woe-label>Francisco Morazán, HN, Honduras</woe-label>
    <type>Departamento</type>
    <hc-middle-x>0.49</hc-middle-x>
    <hc-middle-y>0.56</hc-middle-y>
    <hc-key>hn-fm</hc-key>
    <hc-a2>FM</hc-a2>
  </desc>
</path>

<path fill="#CEE3F5" stroke="#6E6E6E" stroke-width="0.4" id="HN.YO" d="M330.6,108.1 L335.4,112.7 L342.5,112.8 L350.8,115.2 L351.3,117.7 L350.7,122.8 L351.7,128.0 L345.2,132.1 L336.1,137.3 L332.0,137.4 L327.1,133.1 L321.4,130.4 L318.8,130.8 L309.3,136.0 L306.9,136.0 L303.2,142.8 L300.2,144.4 L295.1,144.1 L291.7,141.3 L286.5,142.5 L281.6,146.1 L281.2,148.6 L282.0,155.6 L278.6,166.0 L274.7,169.2 L268.8,170.7 L267.2,173.6 L263.4,172.7 L257.4,173.0 L252.4,171.7 L247.1,172.4 L245.1,174.1 L244.5,179.0 L242.2,180.9 L238.2,187.2 L235.2,184.5 L232.5,185.0 L230.5,183.7 L223.8,182.4 L218.8,185.9 L216.0,185.6 L213.8,178.6 L210.1,176.1 L209.0,172.7 L205.5,169.1 L203.6,168.9 L199.9,172.3 L195.0,173.4 L183.3,173.4 L182.7,168.2 L183.7,165.9 L183.0,162.5 L179.8,159.1 L176.8,159.1 L176.2,157.5 L171.4,156.7 L168.6,153.4 L162.4,153.2 L163.0,147.8 L161.1,146.9 L162.0,145.3 L162.1,141.0 L163.5,137.9 L168.4,135.1 L174.0,127.2 L173.6,125.6 L170.4,123.1 L171.1,122.1 L174.4,123.1 L174.8,121.1 L172.8,116.6 L175.2,113.7 L177.0,108.6 L178.8,109.0 L180.6,104.9 L178.9,102.2 L174.2,97.8 L175.8,95.9 L173.8,95.4 L177.8,92.1 L187.8,98.7 L189.0,100.9 L190.7,110.1 L195.8,116.4 L197.6,117.1 L208.9,115.7 L213.2,113.2 L216.8,114.3 L217.6,119.9 L219.2,122.2 L223.8,124.5 L227.4,122.7 L240.8,126.1 L245.4,126.2 L250.4,122.5 L257.7,119.8 L260.8,117.8 L266.8,112.1 L273.9,111.9 L281.9,109.7 L283.3,111.6 L290.5,111.9 L295.8,110.3 L302.7,106.7 L306.5,105.6 L312.4,107.1 L316.5,106.8 L319.7,107.5 L325.0,106.5 Z">
  <desc xmlns="http://www.highcharts.com/svg/namespace">
    <labelrank>9</labelrank>
    <hasc>HN.YO</hasc>
    <alt-name>NULL</alt-name>
    <woe-id>2345640</woe-id>
    <subregion>NULL</subregion>
    <fips>HO18</fips>
    <postal-code>YO</postal-code>
    <name>Yoro</name>
    <country>Honduras</country>
    <type-en>Department</type-en>
    <region>NULL</region>
    <longitude>-87.206</longitude>
    <woe-name>Yoro</woe-name>
    <latitude>15.233</latitude>
    <woe-label>Yoro, HN, Honduras</woe-label>
    <type>Departamento</type>
    <hc-middle-x>0.29</hc-middle-x>
    <hc-middle-y>0.60</hc-middle-y>
    <hc-key>hn-yo</hc-key>
    <hc-a2>YO</hc-a2>
  </desc>
</path>

<path fill="#CEE3F5" stroke="#6E6E6E" stroke-width="0.4" id="HN.CM" d="M238.2,187.2 L241.2,189.1 L242.4,191.6 L238.3,193.2 L236.9,195.4 L237.8,202.9 L235.9,209.6 L230.7,212.4 L229.2,213.9 L229.1,217.7 L227.4,220.6 L221.0,218.4 L219.2,224.8 L213.4,230.5 L215.1,235.1 L219.5,238.6 L219.6,242.1 L222.8,245.1 L218.6,251.6 L214.1,251.7 L213.6,253.6 L214.4,260.1 L217.4,262.4 L217.9,264.3 L211.4,267.5 L209.4,271.5 L204.9,273.8 L200.6,274.1 L196.6,278.1 L196.5,280.5 L192.5,280.9 L188.1,284.8 L188.0,280.9 L186.6,278.6 L182.2,275.6 L177.9,274.1 L178.3,270.4 L176.8,268.5 L172.9,266.9 L172.9,263.8 L183.9,262.5 L188.9,260.0 L193.9,259.1 L195.3,256.2 L194.8,251.9 L192.6,247.6 L187.5,249.6 L178.1,247.0 L177.0,245.6 L172.6,244.4 L169.9,241.1 L169.6,238.0 L164.7,232.1 L164.8,229.9 L160.1,226.8 L158.9,223.0 L156.9,219.8 L153.0,217.7 L146.6,215.9 L145.1,213.8 L146.5,211.4 L144.8,207.3 L145.7,204.3 L151.0,199.8 L155.0,199.1 L155.2,194.0 L157.7,197.8 L166.6,191.6 L171.1,186.6 L175.8,185.0 L182.7,179.6 L183.3,173.4 L195.0,173.4 L199.9,172.3 L203.6,168.9 L205.5,169.1 L209.0,172.7 L210.1,176.1 L213.8,178.6 L216.0,185.6 L218.8,185.9 L223.8,182.4 L230.5,183.7 L232.5,185.0 L235.2,184.5 Z">
  <desc xmlns="http://www.highcharts.com/svg/namespace">
    <labelrank>9</labelrank>
    <hasc>HN.CM</hasc>
    <alt-name>NULL</alt-name>
    <woe-id>2345626</woe-id>
    <subregion>NULL</subregion>
    <fips>HO04</fips>
    <postal-code>CM</postal-code>
    <name>Comayagua</name>
    <country>Honduras</country>
    <type-en>Department</type-en>
    <region>NULL</region>
    <longitude>-87.678</longitude>
    <woe-name>Comayagua</woe-name>
    <latitude>14.6577</latitude>
    <woe-label>Comayagua, HN, Honduras</woe-label>
    <type>Departamento</type>
    <hc-middle-x>0.47</hc-middle-x>
    <hc-middle-y>0.34</hc-middle-y>
    <hc-key>hn-cm</hc-key>
    <hc-a2>CM</hc-a2>
  </desc>
</path>

<path fill="#CEE3F5" stroke="#6E6E6E" stroke-width="0.4" id="HN.CR" d="M177.8,92.1 L173.8,95.4 L175.8,95.9 L174.2,97.8 L178.9,102.2 L180.6,104.9 L178.8,109.0 L177.0,108.6 L175.2,113.7 L172.8,116.6 L174.8,121.1 L174.4,123.1 L171.1,122.1 L170.4,123.1 L173.6,125.6 L174.0,127.2 L168.4,135.1 L163.5,137.9 L162.1,141.0 L162.0,145.3 L161.1,146.9 L163.0,147.8 L162.4,153.2 L168.6,153.4 L171.4,156.7 L176.2,157.5 L176.8,159.1 L179.8,159.1 L183.0,162.5 L183.7,165.9 L182.7,168.2 L183.3,173.4 L182.7,179.6 L175.8,185.0 L171.1,186.6 L166.6,191.6 L157.7,197.8 L155.2,194.0 L155.0,189.3 L154.1,186.6 L150.6,183.4 L147.6,183.1 L148.1,176.4 L150.2,170.2 L151.7,168.7 L148.9,166.5 L143.2,163.4 L141.0,160.0 L141.6,157.8 L146.2,152.9 L146.9,151.2 L142.3,148.8 L139.9,143.8 L139.2,132.6 L134.9,131.0 L128.5,126.5 L126.9,123.7 L127.0,118.4 L124.6,116.8 L114.1,113.5 L108.1,112.5 L101.6,114.8 L109.3,108.8 L114.6,103.8 L118.6,97.1 L121.0,97.1 L126.3,94.7 L127.0,95.6 L128.0,91.8 L130.0,91.6 L135.1,95.2 L137.8,96.1 L140.7,94.8 L147.3,87.9 L150.0,86.2 L150.5,84.0 L154.9,84.6 L161.5,80.7 L162.5,78.0 L159.6,75.1 L164.3,75.0 L171.3,72.1 L180.9,71.5 L184.5,69.0 L184.8,71.7 L181.9,74.6 L180.2,78.5 L177.6,81.5 L177.0,83.7 L181.1,88.6 L180.4,91.1 Z">
  <desc xmlns="http://www.highcharts.com/svg/namespace">
    <labelrank>7</labelrank>
    <hasc>HN.CR</hasc>
    <alt-name>Cortez</alt-name>
    <woe-id>2345628</woe-id>
    <subregion>NULL</subregion>
    <fips>HO06</fips>
    <postal-code>CR</postal-code>
    <name>Cortés</name>
    <country>Honduras</country>
    <type-en>Department</type-en>
    <region>NULL</region>
    <longitude>-88.0359</longitude>
    <woe-name>Cortés</woe-name>
    <latitude>15.5336</latitude>
    <woe-label>Cortés, HN, Honduras</woe-label>
    <type>Departamento</type>
    <hc-middle-x>0.61</hc-middle-x>
    <hc-middle-y>0.35</hc-middle-y>
    <hc-key>hn-cr</hc-key>
    <hc-a2>CR</hc-a2>
  </desc>
</path>

<path fill="#CEE3F5" stroke="#6E6E6E" stroke-width="0.4" id="HN.IN" d="M145.1,213.8 L146.6,215.9 L153.0,217.7 L156.9,219.8 L158.9,223.0 L160.1,226.8 L164.8,229.9 L164.7,232.1 L169.6,238.0 L169.9,241.1 L162.1,246.1 L158.7,245.6 L158.6,251.3 L156.7,254.7 L153.0,257.3 L151.8,261.3 L147.0,261.4 L141.3,266.4 L139.1,270.5 L135.9,272.1 L127.0,281.3 L129.5,285.4 L128.6,291.5 L125.6,291.6 L126.5,297.5 L123.4,298.1 L120.9,301.2 L117.1,302.2 L116.3,303.6 L113.1,302.9 L112.5,305.1 L108.8,304.2 L104.3,305.2 L100.1,307.3 L97.1,307.4 L98.0,303.9 L96.5,299.8 L97.1,293.8 L97.2,293.7 L99.1,291.2 L110.9,284.5 L115.3,281.5 L117.2,276.3 L116.4,271.2 L116.3,265.5 L114.3,264.3 L109.6,263.8 L105.8,261.7 L107.0,255.8 L105.8,250.0 L102.2,248.3 L97.7,243.3 L97.0,238.5 L99.2,236.4 L102.0,235.6 L109.8,235.3 L112.9,233.7 L115.0,228.2 L117.2,224.2 L116.0,217.0 L114.9,214.8 L123.6,215.5 L135.1,214.5 L142.2,215.6 Z">
  <desc xmlns="http://www.highcharts.com/svg/namespace">
    <labelrank>7</labelrank>
    <hasc>HN.IN</hasc>
    <alt-name>NULL</alt-name>
    <woe-id>2345632</woe-id>
    <subregion>NULL</subregion>
    <fips>HO10</fips>
    <postal-code>IN</postal-code>
    <name>Intibucá</name>
    <country>Honduras</country>
    <type-en>Department</type-en>
    <region>NULL</region>
    <longitude>-88.1754</longitude>
    <woe-name>Intibucá</woe-name>
    <latitude>14.3981</latitude>
    <woe-label>Intibucá, HN, Honduras</woe-label>
    <type>Departamento</type>
    <hc-middle-x>0.53</hc-middle-x>
    <hc-middle-y>0.29</hc-middle-y>
    <hc-key>hn-in</hc-key>
    <hc-a2>IN</hc-a2>
  </desc>
</path>

<path fill="#CEE3F5" stroke="#6E6E6E" stroke-width="0.4" id="HN.LP" d="M196.5,280.5 L198.6,295.6 L197.5,301.9 L196.0,305.8 L192.9,309.8 L190.5,309.8 L187.7,308.0 L181.3,308.4 L176.7,305.6 L174.7,301.2 L171.9,300.4 L168.8,303.3 L164.4,302.8 L161.5,304.5 L159.1,303.1 L156.5,303.4 L151.4,305.9 L150.4,303.1 L144.9,297.0 L143.3,292.7 L139.0,291.5 L133.1,292.1 L128.6,291.5 L129.5,285.4 L127.0,281.3 L135.9,272.1 L139.1,270.5 L141.3,266.4 L147.0,261.4 L151.8,261.3 L153.0,257.3 L156.7,254.7 L158.6,251.3 L158.7,245.6 L162.1,246.1 L169.9,241.1 L172.6,244.4 L177.0,245.6 L178.1,247.0 L187.5,249.6 L192.6,247.6 L194.8,251.9 L195.3,256.2 L193.9,259.1 L188.9,260.0 L183.9,262.5 L172.9,263.8 L172.9,266.9 L176.8,268.5 L178.3,270.4 L177.9,274.1 L182.2,275.6 L186.6,278.6 L188.0,280.9 L188.1,284.8 L192.5,280.9 Z">
  <desc xmlns="http://www.highcharts.com/svg/namespace">
    <labelrank>9</labelrank>
    <hasc>HN.LP</hasc>
    <alt-name>NULL</alt-name>
    <woe-id>2345634</woe-id>
    <subregion>NULL</subregion>
    <fips>HO12</fips>
    <postal-code>LP</postal-code>
    <name>La Paz</name>
    <country>Honduras</country>
    <type-en>Department</type-en>
    <region>NULL</region>
    <longitude>-87.9144</longitude>
    <woe-name>La Paz</woe-name>
    <latitude>14.138</latitude>
    <woe-label>La Paz, HN, Honduras</woe-label>
    <type>Departamento</type>
    <hc-middle-x>0.52</hc-middle-x>
    <hc-middle-y>0.66</hc-middle-y>
    <hc-key>hn-lp</hc-key>
    <hc-a2>LP</hc-a2>
  </desc>
</path>

<path fill="#CEE3F5" stroke="#6E6E6E" stroke-width="0.4" id="HN.SB" d="M155.2,194.0 L155.0,199.1 L151.0,199.8 L145.7,204.3 L144.8,207.3 L146.5,211.4 L145.1,213.8 L142.2,215.6 L135.1,214.5 L123.6,215.5 L114.9,214.8 L117.3,210.9 L117.2,206.0 L112.3,205.0 L109.9,201.2 L113.1,195.8 L110.8,194.4 L107.8,194.5 L106.2,192.2 L103.9,191.7 L101.5,194.8 L98.9,196.6 L93.8,188.8 L91.3,182.3 L86.1,181.5 L81.3,183.1 L77.3,183.8 L74.8,180.2 L78.7,168.2 L81.4,165.8 L81.4,163.5 L79.3,158.6 L80.4,155.9 L77.6,154.4 L73.3,149.6 L73.6,146.4 L68.6,140.0 L98.0,117.6 L101.6,114.8 L108.1,112.5 L114.1,113.5 L124.6,116.8 L127.0,118.4 L126.9,123.7 L128.5,126.5 L134.9,131.0 L139.2,132.6 L139.9,143.8 L142.3,148.8 L146.9,151.2 L146.2,152.9 L141.6,157.8 L141.0,160.0 L143.2,163.4 L148.9,166.5 L151.7,168.7 L150.2,170.2 L148.1,176.4 L147.6,183.1 L150.6,183.4 L154.1,186.6 L155.0,189.3 Z">
  <desc xmlns="http://www.highcharts.com/svg/namespace">
    <labelrank>9</labelrank>
    <hasc>HN.SB</hasc>
    <alt-name>NULL</alt-name>
    <woe-id>2345638</woe-id>
    <subregion>NULL</subregion>
    <fips>HO16</fips>
    <postal-code>SB</postal-code>
    <name>Santa Bárbara</name>
    <country>Honduras</country>
    <type-en>Department</type-en>
    <region>NULL</region>
    <longitude>-88.33</longitude>
    <woe-name>Santa Bárbara</woe-name>
    <latitude>15.0527</latitude>
    <woe-label>Santa Bárbara, HN, Honduras</woe-label>
    <type>Departamento</type>
    <hc-middle-x>0.59</hc-middle-x>
    <hc-middle-y>0.52</hc-middle-y>
    <hc-key>hn-sb</hc-key>
    <hc-a2>SB</hc-a2>
  </desc>
</path>

<path fill="#CEE3F5" stroke="#6E6E6E" stroke-width="0.4" id="HN.CP" d="M24.8,207.6 L22.1,204.4 L20.0,199.2 L15.8,193.2 L15.4,189.5 L19.1,185.7 L22.5,179.8 L22.5,176.7 L20.3,174.6 L22.2,169.3 L25.8,165.4 L29.3,163.7 L40.7,160.0 L44.6,158.2 L68.6,140.0 L73.6,146.4 L73.3,149.6 L77.6,154.4 L80.4,155.9 L79.3,158.6 L81.4,163.5 L81.4,165.8 L78.7,168.2 L74.8,180.2 L77.3,183.8 L81.3,183.1 L81.9,186.8 L81.4,189.8 L77.6,196.0 L77.6,199.3 L79.4,203.2 L79.9,206.6 L71.7,207.8 L66.1,207.1 L64.5,207.7 L65.5,212.8 L68.9,216.1 L71.0,219.7 L71.3,226.7 L65.6,226.5 L60.8,228.2 L60.8,231.7 L57.9,231.9 L53.1,229.5 L49.7,225.1 L48.9,219.6 L41.7,214.1 L40.0,209.0 L38.3,206.6 L31.6,205.6 Z">
  <desc xmlns="http://www.highcharts.com/svg/namespace">
    <labelrank>9</labelrank>
    <hasc>HN.CP</hasc>
    <alt-name>NULL</alt-name>
    <woe-id>2345627</woe-id>
    <subregion>NULL</subregion>
    <fips>HO05</fips>
    <postal-code>CP</postal-code>
    <name>Copán</name>
    <country>Honduras</country>
    <type-en>Department</type-en>
    <region>NULL</region>
    <longitude>-88.9362</longitude>
    <woe-name>Copán</woe-name>
    <latitude>14.8909</latitude>
    <woe-label>Copán, HN, Honduras</woe-label>
    <type>Departamento</type>
    <hc-middle-x>0.56</hc-middle-x>
    <hc-middle-y>0.49</hc-middle-y>
    <hc-key>hn-cp</hc-key>
    <hc-a2>CP</hc-a2>
  </desc>
</path>

<path fill="#CEE3F5" stroke="#6E6E6E" stroke-width="0.4" id="HN.LE" d="M114.9,214.8 L116.0,217.0 L117.2,224.2 L115.0,228.2 L112.9,233.7 L109.8,235.3 L102.0,235.6 L99.2,236.4 L97.0,238.5 L97.7,243.3 L102.2,248.3 L105.8,250.0 L107.0,255.8 L105.8,261.7 L109.6,263.8 L114.3,264.3 L116.3,265.5 L116.4,271.2 L117.2,276.3 L115.3,281.5 L110.9,284.5 L99.1,291.2 L97.2,293.7 L97.2,293.7 L95.2,291.6 L90.3,291.2 L81.8,288.5 L75.3,288.9 L73.2,285.5 L69.1,284.0 L70.0,278.5 L69.2,277.2 L65.7,278.5 L58.7,278.4 L56.4,271.7 L54.0,268.7 L49.5,266.8 L45.5,268.5 L44.0,265.6 L44.0,258.8 L43.3,255.1 L47.6,250.1 L53.1,248.3 L54.9,243.1 L56.3,242.9 L59.3,245.4 L62.2,245.3 L60.8,243.5 L61.4,240.7 L64.6,241.6 L69.7,239.0 L73.0,229.1 L71.3,226.7 L71.0,219.7 L68.9,216.1 L65.5,212.8 L64.5,207.7 L66.1,207.1 L71.7,207.8 L79.9,206.6 L79.4,203.2 L77.6,199.3 L77.6,196.0 L81.4,189.8 L81.9,186.8 L81.3,183.1 L86.1,181.5 L91.3,182.3 L93.8,188.8 L98.9,196.6 L101.5,194.8 L103.9,191.7 L106.2,192.2 L107.8,194.5 L110.8,194.4 L113.1,195.8 L109.9,201.2 L112.3,205.0 L117.2,206.0 L117.3,210.9 Z">
  <desc xmlns="http://www.highcharts.com/svg/namespace">
    <labelrank>7</labelrank>
    <hasc>HN.LE</hasc>
    <alt-name>Gracias</alt-name>
    <woe-id>2345635</woe-id>
    <subregion>NULL</subregion>
    <fips>HO13</fips>
    <postal-code>LE</postal-code>
    <name>Lempira</name>
    <country>Honduras</country>
    <type-en>Department</type-en>
    <region>NULL</region>
    <longitude>-88.6478</longitude>
    <woe-name>Lempira</woe-name>
    <latitude>14.4408</latitude>
    <woe-label>Lempira, HN, Honduras</woe-label>
    <type>Departamento</type>
    <hc-middle-x>0.58</hc-middle-x>
    <hc-middle-y>0.46</hc-middle-y>
    <hc-key>hn-le</hc-key>
    <hc-a2>LE</hc-a2>
  </desc>
</path>

<path fill="#CEE3F5" stroke="#6E6E6E" stroke-width="0.4" id="HN.OC" d="M71.3,226.7 L73.0,229.1 L69.7,239.0 L64.6,241.6 L61.4,240.7 L60.8,243.5 L62.2,245.3 L59.3,245.4 L56.3,242.9 L54.9,243.1 L53.1,248.3 L47.6,250.1 L43.3,255.1 L44.0,258.8 L44.0,265.6 L41.5,260.6 L38.7,258.4 L37.1,252.4 L31.5,251.0 L30.2,249.9 L30.8,247.6 L28.8,244.0 L27.1,244.1 L23.5,249.1 L18.3,247.5 L15.5,245.5 L9.8,244.2 L6.3,242.5 L0.2,241.5 L0.0,237.9 L1.0,234.6 L4.6,233.2 L6.7,230.2 L11.8,225.6 L13.4,223.4 L16.2,222.6 L20.4,223.9 L23.0,222.6 L23.6,218.6 L23.2,212.8 L25.1,209.9 L24.8,207.6 L31.6,205.6 L38.3,206.6 L40.0,209.0 L41.7,214.1 L48.9,219.6 L49.7,225.1 L53.1,229.5 L57.9,231.9 L60.8,231.7 L60.8,228.2 L65.6,226.5 Z">
  <desc xmlns="http://www.highcharts.com/svg/namespace">
    <labelrank>9</labelrank>
    <hasc>HN.OC</hasc>
    <alt-name>NULL</alt-name>
    <woe-id>2345636</woe-id>
    <subregion>NULL</subregion>
    <fips>HO14</fips>
    <postal-code>OC</postal-code>
    <name>Ocotepeque</name>
    <country>Honduras</country>
    <type-en>Department</type-en>
    <region>NULL</region>
    <longitude>-89.0399</longitude>
    <woe-name>Ocotepeque</woe-name>
    <latitude>14.5248</latitude>
    <woe-label>Ocotepeque, HN, Honduras</woe-label>
    <type>Departamento</type>
    <hc-middle-x>0.52</hc-middle-x>
    <hc-middle-y>0.46</hc-middle-y>
    <hc-key>hn-oc</hc-key>
    <hc-a2>OC</hc-a2>
  </desc>
</path>

<path fill="#CEE3F5" stroke="#6E6E6E" stroke-width="0.4" id="HN.CH" d="M223.0,360.7 L225.3,359.0 L226.5,356.1 L226.3,353.8 L224.3,348.6 L224.7,346.2 L220.6,343.2 L217.9,337.1 L218.2,332.5 L213.8,328.8 L213.3,325.6 L214.6,318.8 L218.0,318.3 L222.2,319.0 L221.5,322.9 L225.2,326.5 L229.8,325.9 L232.2,327.2 L236.1,326.7 L241.6,328.7 L240.5,333.6 L244.2,337.2 L245.0,340.8 L246.6,341.7 L251.8,342.0 L253.8,346.0 L255.8,347.6 L257.9,347.5 L261.4,345.5 L263.9,342.6 L264.6,339.9 L269.6,336.7 L272.8,332.4 L273.4,329.9 L278.0,330.1 L278.5,330.9 L282.8,328.1 L287.3,327.5 L289.0,325.3 L291.6,324.5 L291.3,330.6 L293.8,334.1 L293.3,341.6 L296.9,355.4 L295.3,360.4 L295.6,363.2 L297.7,364.4 L299.5,369.9 L298.4,373.1 L295.2,375.7 L293.1,375.6 L286.6,372.4 L284.6,372.3 L281.3,373.8 L275.9,378.5 L274.2,381.2 L273.4,385.4 L274.4,387.5 L273.4,393.6 L274.8,395.0 L271.6,398.1 L267.7,403.6 L262.4,406.6 L261.8,408.5 L256.2,406.6 L230.3,408.2 L232.6,404.8 L235.4,402.7 L230.0,402.2 L228.3,401.2 L225.9,397.7 L226.1,395.9 L231.4,394.8 L224.9,393.0 L218.4,393.2 L218.1,388.8 L216.5,384.2 L211.1,374.9 L209.1,375.0 L207.9,373.0 L209.1,371.0 L213.0,368.6 L216.1,364.7 L217.6,365.0 L223.0,363.2 Z">
  <desc xmlns="http://www.highcharts.com/svg/namespace">
    <labelrank>9</labelrank>
    <hasc>HN.CH</hasc>
    <alt-name>NULL</alt-name>
    <woe-id>2345624</woe-id>
    <subregion>NULL</subregion>
    <fips>HO02</fips>
    <postal-code>CH</postal-code>
    <name>Choluteca</name>
    <country>Honduras</country>
    <type-en>Department</type-en>
    <region>NULL</region>
    <longitude>-87.1074</longitude>
    <woe-name>Choluteca</woe-name>
    <latitude>13.2587</latitude>
    <woe-label>Choluteca, HN, Honduras</woe-label>
    <type>Departamento</type>
    <hc-middle-x>0.47</hc-middle-x>
    <hc-middle-y>0.58</hc-middle-y>
    <hc-key>hn-ch</hc-key>
    <hc-a2>CH</hc-a2>
  </desc>
</path>

<path fill="#CEE3F5" stroke="#6E6E6E" stroke-width="0.4" id="HN.EP" d="M241.6,328.7 L245.2,327.5 L251.1,330.0 L253.3,322.6 L251.3,319.4 L251.0,314.9 L252.1,312.6 L256.3,315.7 L261.8,316.7 L264.2,313.8 L266.4,308.5 L266.6,301.0 L267.5,298.3 L267.0,294.9 L270.9,295.6 L274.1,293.2 L275.3,290.8 L275.1,284.3 L271.2,281.5 L267.6,275.5 L270.0,274.5 L275.7,274.5 L276.8,272.2 L274.7,270.6 L277.4,264.2 L282.9,259.4 L285.0,255.6 L285.9,251.8 L289.5,248.3 L297.9,241.9 L302.8,243.9 L307.3,243.7 L310.0,246.8 L313.1,246.9 L319.5,248.6 L322.1,251.2 L326.9,253.4 L330.1,257.1 L338.4,257.6 L340.5,257.1 L344.7,254.1 L352.1,251.2 L357.5,252.1 L362.3,259.6 L369.3,261.3 L370.8,259.2 L373.8,259.5 L376.1,261.2 L380.3,269.2 L384.6,271.2 L388.2,275.2 L392.2,274.0 L392.8,271.4 L395.8,269.4 L400.5,271.1 L403.1,270.8 L405.6,267.5 L415.3,269.9 L418.1,269.2 L421.7,273.3 L422.8,279.1 L426.2,281.6 L427.6,285.4 L424.2,286.4 L422.1,289.2 L418.1,290.4 L412.3,294.8 L409.2,294.4 L407.0,303.3 L409.1,304.8 L409.5,307.9 L407.6,310.7 L405.8,308.9 L400.8,308.9 L398.3,308.0 L394.1,301.5 L391.6,300.4 L388.0,301.2 L385.7,299.9 L383.2,296.7 L375.2,291.0 L374.9,287.9 L376.1,284.2 L367.5,285.5 L364.7,287.4 L361.6,292.4 L357.7,294.4 L353.8,300.5 L346.5,308.4 L344.7,311.3 L343.2,316.4 L341.9,317.9 L338.1,319.2 L332.3,319.6 L328.0,316.9 L323.2,318.5 L317.5,315.9 L313.0,316.1 L303.8,317.9 L296.6,317.5 L292.2,320.1 L291.6,324.5 L289.0,325.3 L287.3,327.5 L282.8,328.1 L278.5,330.9 L278.0,330.1 L273.4,329.9 L272.8,332.4 L269.6,336.7 L264.6,339.9 L263.9,342.6 L261.4,345.5 L257.9,347.5 L255.8,347.6 L253.8,346.0 L251.8,342.0 L246.6,341.7 L245.0,340.8 L244.2,337.2 L240.5,333.6 Z">
  <desc xmlns="http://www.highcharts.com/svg/namespace">
    <labelrank>7</labelrank>
    <hasc>HN.EP</hasc>
    <alt-name>Paraiso</alt-name>
    <woe-id>2345629</woe-id>
    <subregion>NULL</subregion>
    <fips>HO07</fips>
    <postal-code>EP</postal-code>
    <name>El Paraíso</name>
    <country>Honduras</country>
    <type-en>Department</type-en>
    <region>NULL</region>
    <longitude>-86.5592</longitude>
    <woe-name>El Paraíso</woe-name>
    <latitude>14.037</latitude>
    <woe-label>El Paraíso, HN, Honduras</woe-label>
    <type>Departamento</type>
    <hc-middle-x>0.43</hc-middle-x>
    <hc-middle-y>0.40</hc-middle-y>
    <hc-key>hn-ep</hc-key>
    <hc-a2>EP</hc-a2>
  </desc>
</path>
</g>

<text x="350" y="714" text-anchor="middle" font-family="Verdana" font-size="8" stroke-opacity="0.6">Copyright (c) 2023 Highsoft AS, Based on data from Natural Earth</text>

</svg>