<?xml version="1.0" encoding="utf-8" standalone="no"?>
<!DOCTYPE svg PUBLIC "-//W3C//DTD SVG 1.1//EN" "http://www.w3.org/Graphics/SVG/1.1/DTD/svg11.dtd">

<svg version="1.1" height="700pt" width="700pt" xmlns="http://www.w3.org/2000/svg" xmlns:xlink="http://www.w3.org/1999/xlink">
<desc>
Map version: 1.1.3
Copyright (c) 2020 Highsoft AS, Based on data from Natural Earth
</desc>
<title>Mauritius</title>
<g id="admin1">

<g id="MU">
  <desc xmlns="http://www.highcharts.com/svg/namespace">
    <name>Mauritius</name>
    <labelrank>5</labelrank>
    <country-abbrev>Mus.</country-abbrev>
    <subregion>Eastern Africa</subregion>
    <region-wb>Sub-Saharan Africa</region-wb>
    <iso-a3>MUS</iso-a3>
    <iso-a2>MU</iso-a2>
    <woe-id>23424894</woe-id>
    <continent>Seven seas (open ocean)</continent>
    <hc-key>mu</hc-key>
    <hc-a2>MA</hc-a2>
  </desc>
</g>

<path fill="#CEE3F5" stroke="#6E6E6E" stroke-width="0.4" id="MU.6684" d="M582.6,423.6 L579.7,443.9 L586.6,463.9 L556.6,473.8 L522.4,500.5 L501.5,531.1 L511.0,552.6 L511.9,561.8 L518.4,573.0 L519.3,580.1 L515.0,592.0 L508.0,594.4 L500.3,594.0 L493.6,597.8 L477.1,627.5 L467.7,640.6 L452.3,651.0 L401.7,667.1 L398.9,652.6 L395.0,623.2 L379.2,579.9 L356.8,554.7 L331.8,549.1 L297.5,550.5 L363.4,473.7 L405.6,475.1 L433.3,466.7 L447.8,454.2 L472.9,452.8 L520.3,448.7 L556.0,420.8 Z">
  <desc xmlns="http://www.highcharts.com/svg/namespace">
    <labelrank>20</labelrank>
    <hasc>MU.</hasc>
    <alt-name>NULL</alt-name>
    <woe-id>2346230</woe-id>
    <subregion>Grand Port</subregion>
    <fips>NULL</fips>
    <postal-code>NULL</postal-code>
    <name>Grand Port</name>
    <country>Mauritius</country>
    <type-en>District</type-en>
    <region>NULL</region>
    <longitude>57.6498</longitude>
    <woe-name>Grand Port</woe-name>
    <latitude>-20.392</latitude>
    <woe-label>Grand Port, MU, Mauritius</woe-label>
    <type>District</type>
    <hc-middle-x>0.43</hc-middle-x>
    <hc-middle-y>0.52</hc-middle-y>
    <hc-key>mu-6684</hc-key>
    <hc-a2>GP</hc-a2>
  </desc>
</path>

<path fill="#CEE3F5" stroke="#6E6E6E" stroke-width="0.4" id="MU.6682" d="M447.8,454.2 L433.3,466.7 L405.6,475.1 L363.4,473.7 L337.1,455.5 L325.2,433.1 L330.5,416.4 L309.4,388.4 L297.6,371.7 L273.8,368.9 L244.8,342.3 L227.7,299.0 L223.7,275.2 L247.4,266.8 L263.3,273.8 L288.3,286.4 L297.9,289.6 L309.4,293.4 L330.6,285.0 L355.6,268.3 L373.6,267.3 L372.8,272.5 L397.8,283.7 L440.0,315.8 L400.4,354.9 L461.1,405.3 Z">
  <desc xmlns="http://www.highcharts.com/svg/namespace">
    <labelrank>20</labelrank>
    <hasc>MU.</hasc>
    <alt-name>NULL</alt-name>
    <woe-id>2346231</woe-id>
    <subregion>Moka</subregion>
    <fips>NULL</fips>
    <postal-code>NULL</postal-code>
    <name>Moka</name>
    <country>Mauritius</country>
    <type-en>District</type-en>
    <region>NULL</region>
    <longitude>57.5955</longitude>
    <woe-name>Moka</woe-name>
    <latitude>-20.2492</latitude>
    <woe-label>Moka, MU, Mauritius</woe-label>
    <type>District</type>
    <hc-middle-x>0.58</hc-middle-x>
    <hc-middle-y>0.50</hc-middle-y>
    <hc-key>mu-6682</hc-key>
    <hc-a2>MO</hc-a2>
  </desc>
</path>

<path fill="#CEE3F5" stroke="#6E6E6E" stroke-width="0.4" id="MU.6679" d="M373.6,267.3 L355.6,268.3 L330.6,285.0 L309.4,293.4 L297.9,289.6 L302.9,255.7 L298.9,202.6 L289.7,185.8 L267.2,191.4 L240.1,187.0 L233.4,185.9 L234.2,161.7 L252.8,127.5 L268.0,80.9 L275.6,66.9 L281.0,59.1 L314.9,31.7 L323.3,27.9 L339.8,26.7 L376.8,71.2 L379.5,88.0 L371.5,106.2 L407.2,142.5 L387.4,166.3 L401.8,229.2 L396.5,241.7 L375.4,255.7 Z">
  <desc xmlns="http://www.highcharts.com/svg/namespace">
    <labelrank>20</labelrank>
    <hasc>MU.</hasc>
    <alt-name>NULL</alt-name>
    <woe-id>2346232</woe-id>
    <subregion>Pamplemousses</subregion>
    <fips>NULL</fips>
    <postal-code>NULL</postal-code>
    <name>Pamplemousses</name>
    <country>Mauritius</country>
    <type-en>District</type-en>
    <region>NULL</region>
    <longitude>57.573</longitude>
    <woe-name>Pamplemousses</woe-name>
    <latitude>-20.0899</latitude>
    <woe-label>Pamplemousses, MU, Mauritius</woe-label>
    <type>District</type>
    <hc-middle-x>0.49</hc-middle-x>
    <hc-middle-y>0.39</hc-middle-y>
    <hc-key>mu-6679</hc-key>
    <hc-a2>PA</hc-a2>
  </desc>
</path>

<path fill="#CEE3F5" stroke="#6E6E6E" stroke-width="0.4" id="MU.6683" d="M223.7,275.2 L227.7,299.0 L244.8,342.3 L273.8,368.9 L297.6,371.7 L309.4,388.4 L330.5,416.4 L325.2,433.1 L337.1,455.5 L363.4,473.7 L297.5,550.5 L284.4,553.3 L273.8,544.9 L255.4,542.1 L252.7,553.3 L244.8,579.9 L225.1,577.1 L226.4,557.5 L214.5,550.5 L190.8,545.0 L180.3,531.0 L192.1,521.2 L184.2,500.2 L177.6,473.7 L185.5,465.3 L202.6,465.3 L207.9,456.9 L205.5,454.7 L220.3,445.9 L245.5,478.2 L308.0,451.5 L303.0,436.3 L276.4,412.6 L254.8,386.7 L234.7,350.1 L220.3,312.0 L191.5,311.8 L194.3,291.5 L205.2,272.4 Z">
  <desc xmlns="http://www.highcharts.com/svg/namespace">
    <labelrank>20</labelrank>
    <hasc>MU.</hasc>
    <alt-name>NULL</alt-name>
    <woe-id>2346233</woe-id>
    <subregion>Plaines Wilhems</subregion>
    <fips>NULL</fips>
    <postal-code>NULL</postal-code>
    <name>Plaines Wilhems</name>
    <country>Mauritius</country>
    <type-en>District</type-en>
    <region>NULL</region>
    <longitude>57.5197</longitude>
    <woe-name>Plaines Wilhems</woe-name>
    <latitude>-20.3599</latitude>
    <woe-label>Plaines Wilhems, MU, Mauritius</woe-label>
    <type>District</type>
    <hc-middle-x>0.47</hc-middle-x>
    <hc-middle-y>0.75</hc-middle-y>
    <hc-key>mu-6683</hc-key>
    <hc-a2>PW</hc-a2>
  </desc>
</path>

<path fill="#CEE3F5" stroke="#6E6E6E" stroke-width="0.4" id="MU.6691" d="M276.4,412.6 L303.0,436.3 L308.0,451.5 L245.5,478.2 L220.3,445.9 Z">
  <desc xmlns="http://www.highcharts.com/svg/namespace">
    <labelrank>20</labelrank>
    <hasc>MU.</hasc>
    <alt-name>NULL</alt-name>
    <woe-id>1377308</woe-id>
    <subregion>Plaines Wilhems</subregion>
    <fips>NULL</fips>
    <postal-code>NULL</postal-code>
    <name>Curepipe</name>
    <country>Mauritius</country>
    <type-en>City</type-en>
    <region>NULL</region>
    <longitude>57.5168</longitude>
    <woe-name>Curepipe (2)</woe-name>
    <latitude>-20.3183</latitude>
    <woe-label>NULL</woe-label>
    <type>City</type>
    <hc-middle-x>0.51</hc-middle-x>
    <hc-middle-y>0.53</hc-middle-y>
    <hc-key>mu-6691</hc-key>
    <hc-a2>CU</hc-a2>
  </desc>
</path>

<path fill="#CEE3F5" stroke="#6E6E6E" stroke-width="0.4" id="MU.6690" d="M191.5,311.8 L220.3,312.0 L234.7,350.1 L188.2,360.0 L187.2,343.3 Z">
  <desc xmlns="http://www.highcharts.com/svg/namespace">
    <labelrank>20</labelrank>
    <hasc>MU.</hasc>
    <alt-name>NULL</alt-name>
    <woe-id>1377240</woe-id>
    <subregion>Plaines Wilhems</subregion>
    <fips>NULL</fips>
    <postal-code>NULL</postal-code>
    <name>Beau Bassin-Rose Hill</name>
    <country>Mauritius</country>
    <type-en>City</type-en>
    <region>NULL</region>
    <longitude>57.4713</longitude>
    <woe-name>Beau Bassin</woe-name>
    <latitude>-20.2387</latitude>
    <woe-label>NULL</woe-label>
    <type>City</type>
    <hc-middle-x>0.41</hc-middle-x>
    <hc-middle-y>0.43</hc-middle-y>
    <hc-key>mu-6690</hc-key>
    <hc-a2>BB</hc-a2>
  </desc>
</path>

<path fill="#CEE3F5" stroke="#6E6E6E" stroke-width="0.4" id="MU.90" d="M297.9,289.6 L288.3,286.4 L263.3,273.8 L247.4,266.8 L223.7,275.2 L205.2,272.4 L198.5,244.8 L213.6,242.6 L230.3,245.6 L242.9,249.9 L253.1,243.0 L256.4,231.4 L268.2,220.2 L264.9,202.5 L256.8,200.8 L248.2,207.7 L240.5,199.1 L240.1,187.0 L267.2,191.4 L289.7,185.8 L298.9,202.6 L302.9,255.7 Z">
  <desc xmlns="http://www.highcharts.com/svg/namespace">
    <labelrank>20</labelrank>
    <hasc>MU.</hasc>
    <alt-name>NULL</alt-name>
    <woe-id>2346234</woe-id>
    <subregion>Port Louis</subregion>
    <fips>NULL</fips>
    <postal-code>NULL</postal-code>
    <name>Port Louis</name>
    <country>Mauritius</country>
    <type-en>City</type-en>
    <region>NULL</region>
    <longitude>57.5296</longitude>
    <woe-name>Port Louis</woe-name>
    <latitude>-20.1667</latitude>
    <woe-label>Port Louis, MU, Mauritius</woe-label>
    <type>City</type>
    <hc-middle-x>0.77</hc-middle-x>
    <hc-middle-y>0.50</hc-middle-y>
    <hc-key>mu-90</hc-key>
    <hc-a2>PL</hc-a2>
  </desc>
</path>

<path fill="#CEE3F5" stroke="#6E6E6E" stroke-width="0.4" id="MU.6689" d="M240.1,187.0 L240.5,199.1 L248.2,207.7 L256.8,200.8 L264.9,202.5 L268.2,220.2 L256.4,231.4 L253.1,243.0 L242.9,249.9 L230.3,245.6 L213.6,242.6 L198.5,244.8 L196.6,237.0 L208.6,231.7 L229.6,210.0 L233.4,185.9 Z">
  <desc xmlns="http://www.highcharts.com/svg/namespace">
    <labelrank>20</labelrank>
    <hasc>MU.</hasc>
    <alt-name>NULL</alt-name>
    <woe-id>1377436</woe-id>
    <subregion>Port Louis</subregion>
    <fips>NULL</fips>
    <postal-code>NULL</postal-code>
    <name>Port Louis city</name>
    <country>Mauritius</country>
    <type-en>City</type-en>
    <region>NULL</region>
    <longitude>57.5038</longitude>
    <woe-name>Port Louis</woe-name>
    <latitude>-20.1496</latitude>
    <woe-label>NULL</woe-label>
    <type>City</type>
    <hc-middle-x>0.63</hc-middle-x>
    <hc-middle-y>0.62</hc-middle-y>
    <hc-key>mu-6689</hc-key>
    <hc-a2>PL</hc-a2>
  </desc>
</path>

<path fill="#CEE3F5" stroke="#6E6E6E" stroke-width="0.4" id="MU.6692" d="M188.2,360.0 L234.7,350.1 L254.8,386.7 L191.0,405.3 Z">
  <desc xmlns="http://www.highcharts.com/svg/namespace">
    <labelrank>20</labelrank>
    <hasc>MU.</hasc>
    <alt-name>NULL</alt-name>
    <woe-id>1377444</woe-id>
    <subregion>Plaines Wilhems</subregion>
    <fips>NULL</fips>
    <postal-code>NULL</postal-code>
    <name>Quatre Bornes</name>
    <country>Mauritius</country>
    <type-en>City</type-en>
    <region>NULL</region>
    <longitude>57.4801</longitude>
    <woe-name>Quatre Bornes</woe-name>
    <latitude>-20.2688</latitude>
    <woe-label>NULL</woe-label>
    <type>City</type>
    <hc-middle-x>0.52</hc-middle-x>
    <hc-middle-y>0.41</hc-middle-y>
    <hc-key>mu-6692</hc-key>
    <hc-a2>QB</hc-a2>
  </desc>
</path>

<path fill="#CEE3F5" stroke="#6E6E6E" stroke-width="0.4" id="MU.6680" d="M401.8,229.2 L387.4,166.3 L407.2,142.5 L371.5,106.2 L379.5,88.0 L376.8,71.2 L339.8,26.7 L346.9,22.5 L352.3,13.3 L359.8,4.1 L372.8,0.0 L392.2,3.0 L447.3,19.1 L462.1,26.8 L468.3,41.2 L461.4,63.6 L466.2,76.0 L474.9,88.4 L484.2,110.2 L494.6,128.9 L497.8,143.9 L504.0,152.0 L509.0,153.0 L523.5,150.7 L528.3,152.0 Z">
  <desc xmlns="http://www.highcharts.com/svg/namespace">
    <labelrank>20</labelrank>
    <hasc>MU.</hasc>
    <alt-name>NULL</alt-name>
    <woe-id>2346235</woe-id>
    <subregion>Rivière du Rempart</subregion>
    <fips>NULL</fips>
    <postal-code>NULL</postal-code>
    <name>Rivière du Rempart</name>
    <country>Mauritius</country>
    <type-en>District</type-en>
    <region>NULL</region>
    <longitude>57.6557</longitude>
    <woe-name>Riviere du Rempart</woe-name>
    <latitude>-20.0651</latitude>
    <woe-label>Riviere du Rempart, MU, Mauritius</woe-label>
    <type>District</type>
    <hc-middle-x>0.44</hc-middle-x>
    <hc-middle-y>0.41</hc-middle-y>
    <hc-key>mu-6680</hc-key>
    <hc-a2>RD</hc-a2>
  </desc>
</path>

<path fill="#CEE3F5" stroke="#6E6E6E" stroke-width="0.4" id="MU.6686" d="M198.5,244.8 L205.2,272.4 L194.3,291.5 L191.5,311.8 L187.2,343.3 L188.2,360.0 L191.0,405.3 L192.1,423.4 L196.0,445.7 L205.5,454.7 L207.9,456.9 L202.6,465.3 L185.5,465.3 L177.6,473.7 L184.2,500.2 L192.1,521.2 L180.3,531.0 L190.8,545.0 L214.5,550.5 L226.4,557.5 L225.1,577.1 L210.6,568.7 L184.2,577.1 L159.2,586.9 L130.2,609.3 L107.9,616.3 L107.9,642.8 L121.1,655.4 L117.6,674.8 L91.6,686.6 L21.0,623.2 L5.4,605.1 L0.0,587.7 L19.5,580.1 L49.8,586.3 L66.6,583.1 L74.0,566.2 L80.3,529.7 L78.9,516.3 L65.5,508.8 L75.4,477.1 L76.5,405.2 L82.2,365.8 L90.5,343.2 L118.4,287.9 L128.6,277.1 L131.1,273.0 L158.3,250.4 L170.0,244.6 L196.6,237.0 Z">
  <desc xmlns="http://www.highcharts.com/svg/namespace">
    <labelrank>20</labelrank>
    <hasc>MU.</hasc>
    <alt-name>Black River</alt-name>
    <woe-id>2346228</woe-id>
    <subregion>Rivière Noire</subregion>
    <fips>NULL</fips>
    <postal-code>NULL</postal-code>
    <name>Rivière Noire</name>
    <country>Mauritius</country>
    <type-en>District</type-en>
    <region>NULL</region>
    <longitude>57.4149</longitude>
    <woe-name>Black River</woe-name>
    <latitude>-20.3424</latitude>
    <woe-label>Black River, MU, Mauritius</woe-label>
    <type>District</type>
    <hc-middle-x>0.50</hc-middle-x>
    <hc-middle-y>0.66</hc-middle-y>
    <hc-key>mu-6686</hc-key>
    <hc-a2>RN</hc-a2>
  </desc>
</path>

<path fill="#CEE3F5" stroke="#6E6E6E" stroke-width="0.4" id="MU.6685" d="M297.5,550.5 L331.8,549.1 L356.8,554.7 L379.2,579.9 L395.0,623.2 L398.9,652.6 L401.7,667.1 L349.5,683.7 L245.5,700.0 L208.8,697.0 L151.5,678.6 L117.6,674.8 L121.1,655.4 L107.9,642.8 L107.9,616.3 L130.2,609.3 L159.2,586.9 L184.2,577.1 L210.6,568.7 L225.1,577.1 L244.8,579.9 L252.7,553.3 L255.4,542.1 L273.8,544.9 L284.4,553.3 Z">
  <desc xmlns="http://www.highcharts.com/svg/namespace">
    <labelrank>20</labelrank>
    <hasc>MU.</hasc>
    <alt-name>NULL</alt-name>
    <woe-id>2346236</woe-id>
    <subregion>Savanne</subregion>
    <fips>NULL</fips>
    <postal-code>NULL</postal-code>
    <name>Savanne</name>
    <country>Mauritius</country>
    <type-en>District</type-en>
    <region>NULL</region>
    <longitude>57.5211</longitude>
    <woe-name>Savanne</woe-name>
    <latitude>-20.464</latitude>
    <woe-label>Savanne, MU, Mauritius</woe-label>
    <type>District</type>
    <hc-middle-x>0.50</hc-middle-x>
    <hc-middle-y>0.50</hc-middle-y>
    <hc-key>mu-6685</hc-key>
    <hc-a2>SA</hc-a2>
  </desc>
</path>

<path fill="#CEE3F5" stroke="#6E6E6E" stroke-width="0.4" id="MU.6693" d="M220.3,445.9 L205.5,454.7 L196.0,445.7 L192.1,423.4 L191.0,405.3 L254.8,386.7 L276.4,412.6 Z">
  <desc xmlns="http://www.highcharts.com/svg/namespace">
    <labelrank>20</labelrank>
    <hasc>MU.</hasc>
    <alt-name>NULL</alt-name>
    <woe-id>1377510</woe-id>
    <subregion>Plaines Wilhems</subregion>
    <fips>NULL</fips>
    <postal-code>NULL</postal-code>
    <name>Vacoas-Phoenix</name>
    <country>Mauritius</country>
    <type-en>City</type-en>
    <region>NULL</region>
    <longitude>57.4908</longitude>
    <woe-name>Vacoas</woe-name>
    <latitude>-20.3024</latitude>
    <woe-label>NULL</woe-label>
    <type>City</type>
    <hc-middle-x>0.46</hc-middle-x>
    <hc-middle-y>0.48</hc-middle-y>
    <hc-key>mu-6693</hc-key>
    <hc-a2>VP</hc-a2>
  </desc>
</path>

<path fill="#CEE3F5" stroke="#6E6E6E" stroke-width="0.4" id="MU.6681" d="M528.3,152.0 L542.0,163.7 L545.5,172.0 L541.5,214.1 L551.0,227.6 L563.7,237.8 L575.4,274.9 L599.0,303.1 L604.3,316.9 L602.1,348.1 L595.8,383.8 L582.6,423.6 L556.0,420.8 L520.3,448.7 L472.9,452.8 L447.8,454.2 L461.1,405.3 L400.4,354.9 L440.0,315.8 L397.8,283.7 L372.8,272.5 L373.6,267.3 L375.4,255.7 L396.5,241.7 L401.8,229.2 Z">
  <desc xmlns="http://www.highcharts.com/svg/namespace">
    <labelrank>20</labelrank>
    <hasc>MU.</hasc>
    <alt-name>NULL</alt-name>
    <woe-id>2346229</woe-id>
    <subregion>Flacq</subregion>
    <fips>NULL</fips>
    <postal-code>NULL</postal-code>
    <name>Flacq</name>
    <country>Mauritius</country>
    <type-en>District</type-en>
    <region>NULL</region>
    <longitude>57.7206</longitude>
    <woe-name>Flacq</woe-name>
    <latitude>-20.2173</latitude>
    <woe-label>Flacq, MU, Mauritius</woe-label>
    <type>District</type>
    <hc-middle-x>0.58</hc-middle-x>
    <hc-middle-y>0.51</hc-middle-y>
    <hc-key>mu-6681</hc-key>
    <hc-a2>FL</hc-a2>
  </desc>
</path>
</g>

<text x="350" y="714" text-anchor="middle" font-family="Verdana" font-size="8" stroke-opacity="0.6">Copyright (c) 2020 Highsoft AS, Based on data from Natural Earth</text>

</svg>