<?xml version="1.0" encoding="utf-8" standalone="no"?>
<!DOCTYPE svg PUBLIC "-//W3C//DTD SVG 1.1//EN" "http://www.w3.org/Graphics/SVG/1.1/DTD/svg11.dtd">

<svg version="1.1" height="700pt" width="700pt" xmlns="http://www.w3.org/2000/svg" xmlns:xlink="http://www.w3.org/1999/xlink">
<desc>
Map version: 1.1.3
Copyright (c) 2020 Highsoft AS, Based on data from The United States Census Bureau
</desc>
<title>Arkansas</title>
<g id="admin2">

<g id="US.AR">
  <desc xmlns="http://www.highcharts.com/svg/namespace">
    <labelrank>0</labelrank>
    <hasc>US.AR</hasc>
    <alt-name>AR|Ark.</alt-name>
    <woe-id>2347562</woe-id>
    <subregion>West South Central</subregion>
    <fips>US05</fips>
    <postal-code>AR</postal-code>
    <name>Arkansas</name>
    <country>United States of America</country>
    <type-en>State</type-en>
    <region>South</region>
    <longitude>-92.14279999999999</longitude>
    <woe-name>Arkansas</woe-name>
    <latitude>34.7563</latitude>
    <woe-label>Arkansas, US, United States</woe-label>
    <type>State</type>
    <hc-key>us-ar</hc-key>
    <hc-a2>AR</hc-a2>
  </desc>
</g>

<g id="US">
  <desc xmlns="http://www.highcharts.com/svg/namespace">
    <name>United States of America</name>
    <labelrank>2</labelrank>
    <country-abbrev>U.S.A.</country-abbrev>
    <subregion>Northern America</subregion>
    <region-wb>North America</region-wb>
    <iso-a3>USA</iso-a3>
    <iso-a2>US</iso-a2>
    <woe-id>23424977</woe-id>
    <continent>North America</continent>
    <hc-key>us</hc-key>
    <hc-a2>US</hc-a2>
  </desc>
</g>

<path fill="#CEE3F5" stroke="#6E6E6E" stroke-width="0.4" id="US.AR.073" d="M116.4,526.8 L130.6,527.5 L151.2,528.4 L151.0,533.4 L168.3,534.2 L166.6,536.2 L158.7,556.5 L156.7,566.4 L150.9,566.0 L149.0,607.9 L129.2,607.5 L102.9,607.0 L95.1,594.1 L96.7,585.0 L111.5,578.6 L115.2,569.2 L118.6,567.9 L115.9,560.4 L120.1,562.9 L119.3,556.3 L124.3,553.0 L118.1,551.2 L119.8,545.8 L114.6,537.4 L117.5,536.5 L113.9,531.3 Z">
  <desc xmlns="http://www.highcharts.com/svg/namespace">
    <fips>05073</fips>
    <name>Lafayette</name>
    <hc-middle-x>0.54</hc-middle-x>
    <hc-middle-y>0.55</hc-middle-y>
    <hc-key>us-ar-073</hc-key>
    <hc-a2>LA</hc-a2>
  </desc>
</path>

<path fill="#CEE3F5" stroke="#6E6E6E" stroke-width="0.4" id="US.AR.057" d="M151.2,528.4 L130.6,527.5 L116.4,526.8 L111.9,520.8 L109.2,523.8 L105.3,512.3 L101.5,510.1 L101.8,504.4 L95.0,500.0 L88.6,500.6 L90.7,497.0 L85.5,497.5 L81.7,493.6 L83.9,487.1 L83.2,479.5 L83.1,479.5 L83.1,479.5 L101.4,480.4 L103.5,435.1 L114.1,435.6 L123.7,439.8 L128.7,440.0 L133.1,444.1 L139.6,444.0 L145.9,447.2 L156.3,445.0 L155.4,467.9 L153.9,467.8 Z M83.1,479.5 L82.9,479.5 L83.1,479.5 L83.1,479.5 Z">
  <desc xmlns="http://www.highcharts.com/svg/namespace">
    <fips>05057</fips>
    <name>Hempstead</name>
    <hc-middle-x>0.59</hc-middle-x>
    <hc-middle-y>0.50</hc-middle-y>
    <hc-key>us-ar-057</hc-key>
    <hc-a2>HE</hc-a2>
  </desc>
</path>

<path fill="#CEE3F5" stroke="#6E6E6E" stroke-width="0.4" id="US.AR.037" d="M503.8,238.9 L503.9,217.2 L503.8,203.1 L503.7,193.9 L503.7,187.4 L519.1,187.8 L564.6,186.0 L564.6,187.2 L580.0,187.0 L580.2,232.7 L580.8,238.7 L530.4,238.5 Z">
  <desc xmlns="http://www.highcharts.com/svg/namespace">
    <fips>05037</fips>
    <name>Cross</name>
    <hc-middle-x>0.50</hc-middle-x>
    <hc-middle-y>0.50</hc-middle-y>
    <hc-key>us-ar-037</hc-key>
    <hc-a2>CR</hc-a2>
  </desc>
</path>

<path fill="#CEE3F5" stroke="#6E6E6E" stroke-width="0.4" id="US.AR.147" d="M503.8,203.1 L503.9,217.2 L503.8,238.9 L503.6,264.5 L488.7,264.4 L476.2,264.2 L476.1,267.5 L468.2,267.6 L468.1,280.2 L457.5,280.2 L457.5,280.2 L457.5,280.2 L457.5,280.2 L458.1,256.0 L444.1,256.1 L443.5,249.6 L448.7,241.4 L444.2,236.2 L447.9,236.1 L451.6,228.2 L455.6,227.7 L454.4,221.4 L451.0,219.1 L450.8,212.5 L447.2,213.5 L448.2,200.6 L458.7,194.2 L460.0,188.8 L473.4,187.5 L473.7,202.8 Z M457.5,280.2 L457.5,280.2 L457.5,280.2 Z">
  <desc xmlns="http://www.highcharts.com/svg/namespace">
    <fips>05147</fips>
    <name>Woodruff</name>
    <hc-middle-x>0.53</hc-middle-x>
    <hc-middle-y>0.47</hc-middle-y>
    <hc-key>us-ar-147</hc-key>
    <hc-a2>WO</hc-a2>
  </desc>
</path>

<path fill="#CEE3F5" stroke="#6E6E6E" stroke-width="0.4" id="US.AR.049" d="M373.9,47.1 L345.1,46.2 L346.0,15.9 L346.1,5.0 L413.1,4.8 L444.3,5.0 L443.9,33.2 L428.2,32.9 L428.2,48.1 L410.6,47.6 L410.6,47.6 Z">
  <desc xmlns="http://www.highcharts.com/svg/namespace">
    <fips>05049</fips>
    <name>Fulton</name>
    <hc-middle-x>0.50</hc-middle-x>
    <hc-middle-y>0.49</hc-middle-y>
    <hc-key>us-ar-049</hc-key>
    <hc-a2>FU</hc-a2>
  </desc>
</path>

<path fill="#CEE3F5" stroke="#6E6E6E" stroke-width="0.4" id="US.AR.065" d="M373.9,47.1 L410.6,47.6 L410.6,47.6 L410.5,55.2 L413.1,55.3 L412.3,63.0 L412.0,91.5 L408.2,91.4 L408.1,101.7 L402.0,101.5 L388.5,114.7 L381.8,112.0 L373.8,103.5 L369.8,102.1 L366.5,105.7 L360.5,101.5 L351.8,103.6 L355.1,97.6 L353.2,90.6 L358.2,87.4 L356.7,82.4 L351.2,80.4 L347.6,72.1 L340.5,73.3 L339.6,68.5 L336.9,68.4 L337.1,61.2 L344.7,61.4 L345.1,46.2 Z">
  <desc xmlns="http://www.highcharts.com/svg/namespace">
    <fips>05065</fips>
    <name>Izard</name>
    <hc-middle-x>0.57</hc-middle-x>
    <hc-middle-y>0.42</hc-middle-y>
    <hc-key>us-ar-065</hc-key>
    <hc-a2>IZ</hc-a2>
  </desc>
</path>

<path fill="#CEE3F5" stroke="#6E6E6E" stroke-width="0.4" id="US.AR.045" d="M298.7,201.2 L306.9,201.4 L331.2,202.1 L336.1,202.3 L351.3,202.3 L350.7,231.3 L350.1,253.8 L350.0,257.5 L349.8,263.2 L334.7,262.8 L334.3,277.9 L307.2,277.1 L307.4,280.3 L302.5,283.9 L298.0,273.7 L289.3,273.2 L283.1,269.2 L282.4,263.0 L287.4,258.6 L290.0,251.4 L288.0,245.4 L288.0,245.4 L292.8,245.1 L295.8,235.0 L291.8,232.2 L293.9,220.5 L298.2,216.4 Z">
  <desc xmlns="http://www.highcharts.com/svg/namespace">
    <fips>05045</fips>
    <name>Faulkner</name>
    <hc-middle-x>0.58</hc-middle-x>
    <hc-middle-y>0.44</hc-middle-y>
    <hc-key>us-ar-045</hc-key>
    <hc-a2>FA</hc-a2>
  </desc>
</path>

<path fill="#CEE3F5" stroke="#6E6E6E" stroke-width="0.4" id="US.AR.141" d="M331.2,202.1 L306.9,201.4 L298.7,201.2 L299.1,186.1 L246.3,184.4 L246.6,169.4 L251.7,169.5 L252.5,139.4 L277.8,140.3 L278.0,127.7 L308.2,128.2 L307.9,140.8 L333.1,141.6 L332.4,171.9 L331.9,171.9 Z">
  <desc xmlns="http://www.highcharts.com/svg/namespace">
    <fips>05141</fips>
    <name>Van Buren</name>
    <hc-middle-x>0.63</hc-middle-x>
    <hc-middle-y>0.47</hc-middle-y>
    <hc-key>us-ar-141</hc-key>
    <hc-a2>VB</hc-a2>
  </desc>
</path>

<path fill="#CEE3F5" stroke="#6E6E6E" stroke-width="0.4" id="US.AR.023" d="M351.3,202.3 L336.1,202.3 L331.2,202.1 L331.9,171.9 L332.4,171.9 L333.1,141.6 L373.5,142.7 L390.3,142.9 L397.0,141.7 L396.4,172.5 L396.2,186.2 L388.5,189.5 L388.3,203.1 Z">
  <desc xmlns="http://www.highcharts.com/svg/namespace">
    <fips>05023</fips>
    <name>Cleburne</name>
    <hc-middle-x>0.50</hc-middle-x>
    <hc-middle-y>0.49</hc-middle-y>
    <hc-key>us-ar-023</hc-key>
    <hc-a2>CL</hc-a2>
  </desc>
</path>

<path fill="#CEE3F5" stroke="#6E6E6E" stroke-width="0.4" id="US.AR.015" d="M183.9,69.3 L174.0,69.0 L158.7,68.4 L148.6,68.0 L148.7,63.0 L143.8,62.8 L144.0,57.6 L139.1,54.8 L139.5,44.8 L133.3,41.9 L134.1,37.0 L111.9,36.0 L104.6,30.8 L105.3,2.5 L125.9,2.8 L185.7,3.9 L185.0,29.5 Z">
  <desc xmlns="http://www.highcharts.com/svg/namespace">
    <fips>05015</fips>
    <name>Carroll</name>
    <hc-middle-x>0.60</hc-middle-x>
    <hc-middle-y>0.49</hc-middle-y>
    <hc-key>us-ar-015</hc-key>
    <hc-a2>CA</hc-a2>
  </desc>
</path>

<path fill="#CEE3F5" stroke="#6E6E6E" stroke-width="0.4" id="US.AR.101" d="M158.7,68.4 L174.0,69.0 L183.9,69.3 L206.5,70.3 L234.0,71.0 L234.8,78.6 L232.4,138.8 L210.5,138.1 L202.3,137.8 L172.6,137.1 L152.0,136.1 L152.1,131.1 L151.8,110.5 L154.3,110.7 L154.6,103.0 L157.3,98.2 L162.3,95.8 L163.3,76.1 L158.5,75.9 Z">
  <desc xmlns="http://www.highcharts.com/svg/namespace">
    <fips>05101</fips>
    <name>Newton</name>
    <hc-middle-x>0.50</hc-middle-x>
    <hc-middle-y>0.50</hc-middle-y>
    <hc-key>us-ar-101</hc-key>
    <hc-a2>NE</hc-a2>
  </desc>
</path>

<path fill="#CEE3F5" stroke="#6E6E6E" stroke-width="0.4" id="US.AR.115" d="M202.3,137.8 L210.5,138.1 L232.4,138.8 L243.2,139.1 L252.5,139.4 L251.7,169.5 L246.6,169.4 L246.3,184.4 L245.3,234.8 L239.4,235.1 L235.4,235.5 L224.5,235.4 L220.4,237.2 L218.0,244.0 L212.4,242.4 L212.5,232.7 L207.8,234.5 L202.4,223.5 L196.1,217.1 L190.0,216.3 L185.2,209.0 L184.6,208.9 L182.3,207.3 L183.1,182.5 L193.3,182.9 L194.0,160.2 L201.5,160.5 Z">
  <desc xmlns="http://www.highcharts.com/svg/namespace">
    <fips>05115</fips>
    <name>Pope</name>
    <hc-middle-x>0.50</hc-middle-x>
    <hc-middle-y>0.49</hc-middle-y>
    <hc-key>us-ar-115</hc-key>
    <hc-a2>PO</hc-a2>
  </desc>
</path>

<path fill="#CEE3F5" stroke="#6E6E6E" stroke-width="0.4" id="US.AR.005" d="M346.1,5.0 L346.0,15.9 L345.1,46.2 L344.7,61.4 L337.1,61.2 L336.9,68.4 L339.6,68.5 L339.3,81.3 L324.2,81.0 L323.8,96.1 L308.7,95.7 L309.0,86.8 L309.1,80.6 L309.2,63.4 L304.9,63.0 L299.6,56.8 L302.5,54.2 L301.2,47.9 L290.8,44.6 L293.3,39.0 L286.3,37.7 L292.2,30.5 L285.9,32.0 L283.8,29.1 L292.3,24.3 L293.0,4.8 L314.6,5.2 Z">
  <desc xmlns="http://www.highcharts.com/svg/namespace">
    <fips>05005</fips>
    <name>Baxter</name>
    <hc-middle-x>0.59</hc-middle-x>
    <hc-middle-y>0.35</hc-middle-y>
    <hc-key>us-ar-005</hc-key>
    <hc-a2>BA</hc-a2>
  </desc>
</path>

<path fill="#CEE3F5" stroke="#6E6E6E" stroke-width="0.4" id="US.AR.051" d="M182.6,303.5 L185.2,303.8 L213.1,304.1 L228.3,304.2 L228.0,319.4 L226.5,327.7 L241.5,328.2 L241.2,335.8 L251.1,336.0 L253.5,341.0 L253.1,351.1 L235.6,350.5 L235.7,360.5 L230.8,360.4 L230.7,370.8 L164.6,368.7 L166.0,318.6 L167.3,308.5 L167.3,303.5 Z">
  <desc xmlns="http://www.highcharts.com/svg/namespace">
    <fips>05051</fips>
    <name>Garland</name>
    <hc-middle-x>0.41</hc-middle-x>
    <hc-middle-y>0.50</hc-middle-y>
    <hc-key>us-ar-051</hc-key>
    <hc-a2>GA</hc-a2>
  </desc>
</path>

<path fill="#CEE3F5" stroke="#6E6E6E" stroke-width="0.4" id="US.AR.105" d="M213.1,304.1 L185.2,303.8 L182.6,303.5 L182.8,288.3 L180.3,285.7 L188.0,280.9 L198.3,268.4 L201.3,268.5 L209.2,258.6 L218.6,251.2 L264.9,252.5 L270.8,251.4 L278.2,246.2 L275.1,251.8 L280.1,251.2 L288.0,245.4 L288.0,245.4 L290.0,251.4 L287.4,258.6 L282.4,263.0 L283.1,269.2 L289.3,273.2 L289.3,276.2 L274.5,275.6 L274.2,280.7 L259.4,280.3 L259.0,290.3 L261.3,290.4 L261.1,294.8 L248.4,290.0 L213.4,289.2 Z">
  <desc xmlns="http://www.highcharts.com/svg/namespace">
    <fips>05105</fips>
    <name>Perry</name>
    <hc-middle-x>0.55</hc-middle-x>
    <hc-middle-y>0.42</hc-middle-y>
    <hc-key>us-ar-105</hc-key>
    <hc-a2>PE</hc-a2>
  </desc>
</path>

<path fill="#CEE3F5" stroke="#6E6E6E" stroke-width="0.4" id="US.AR.063" d="M426.6,173.1 L403.4,172.5 L396.4,172.5 L397.0,141.7 L390.3,142.9 L390.4,135.3 L386.3,131.4 L385.4,124.5 L388.5,114.7 L402.0,101.5 L408.1,101.7 L443.0,102.4 L442.9,110.1 L458.0,110.3 L473.1,110.2 L480.5,110.3 L477.7,112.3 L479.1,117.4 L475.8,123.8 L464.8,131.9 L459.5,140.1 L458.8,147.1 L462.9,154.4 L456.7,153.9 L456.7,173.6 Z">
  <desc xmlns="http://www.highcharts.com/svg/namespace">
    <fips>05063</fips>
    <name>Independence</name>
    <hc-middle-x>0.41</hc-middle-x>
    <hc-middle-y>0.50</hc-middle-y>
    <hc-key>us-ar-063</hc-key>
    <hc-a2>IN</hc-a2>
  </desc>
</path>

<path fill="#CEE3F5" stroke="#6E6E6E" stroke-width="0.4" id="US.AR.145" d="M396.4,172.5 L403.4,172.5 L426.6,173.1 L426.2,188.4 L460.0,188.8 L458.7,194.2 L448.2,200.6 L447.2,213.5 L450.8,212.5 L451.0,219.1 L454.4,221.4 L455.6,227.7 L451.6,228.2 L447.9,236.1 L444.2,236.2 L448.7,241.4 L443.5,249.6 L426.6,249.3 L426.5,260.8 L418.5,260.5 L416.1,256.1 L410.7,254.4 L400.6,256.6 L395.4,260.0 L384.5,261.1 L378.3,257.6 L371.4,256.7 L365.3,252.1 L350.1,253.8 L350.7,231.3 L351.3,202.3 L388.3,203.1 L388.5,189.5 L396.2,186.2 Z">
  <desc xmlns="http://www.highcharts.com/svg/namespace">
    <fips>05145</fips>
    <name>White</name>
    <hc-middle-x>0.60</hc-middle-x>
    <hc-middle-y>0.57</hc-middle-y>
    <hc-key>us-ar-145</hc-key>
    <hc-a2>WH</hc-a2>
  </desc>
</path>

<path fill="#CEE3F5" stroke="#6E6E6E" stroke-width="0.4" id="US.AR.043" d="M368.6,543.6 L368.3,537.1 L365.0,533.4 L367.2,530.6 L366.0,520.8 L370.7,520.7 L370.7,490.4 L370.7,483.9 L370.7,475.2 L416.0,475.0 L431.4,476.5 L446.9,477.0 L446.7,514.6 L446.5,527.1 L446.3,545.0 L401.0,544.3 L368.6,543.6 Z">
  <desc xmlns="http://www.highcharts.com/svg/namespace">
    <fips>05043</fips>
    <name>Drew</name>
    <hc-middle-x>0.50</hc-middle-x>
    <hc-middle-y>0.49</hc-middle-y>
    <hc-key>us-ar-043</hc-key>
    <hc-a2>DR</hc-a2>
  </desc>
</path>

<path fill="#CEE3F5" stroke="#6E6E6E" stroke-width="0.4" id="US.AR.003" d="M368.6,543.6 L401.0,544.3 L446.3,545.0 L446.0,564.8 L446.2,611.5 L405.9,611.4 L357.1,611.4 L351.1,606.9 L350.4,600.6 L347.1,595.2 L350.6,589.8 L350.6,585.1 L347.1,584.5 L350.3,574.0 L360.7,568.1 L361.0,564.4 L370.5,560.3 L369.0,553.5 L373.0,547.1 L368.6,543.6 L368.6,543.6 Z">
  <desc xmlns="http://www.highcharts.com/svg/namespace">
    <fips>05003</fips>
    <name>Ashley</name>
    <hc-middle-x>0.56</hc-middle-x>
    <hc-middle-y>0.50</hc-middle-y>
    <hc-key>us-ar-003</hc-key>
    <hc-a2>AS</hc-a2>
  </desc>
</path>

<path fill="#CEE3F5" stroke="#6E6E6E" stroke-width="0.4" id="US.AR.127" d="M15.2,308.0 L16.2,290.4 L17.1,272.5 L28.6,267.8 L31.2,270.3 L48.3,267.2 L49.8,248.0 L61.7,244.7 L61.3,252.3 L71.0,252.8 L70.8,257.6 L123.6,259.8 L123.0,278.0 L122.0,307.5 L111.7,309.4 L111.7,311.9 L99.0,312.7 L97.7,320.9 L90.2,320.7 L90.3,318.2 L77.6,317.4 L77.7,315.8 L34.7,314.0 L35.0,308.9 Z">
  <desc xmlns="http://www.highcharts.com/svg/namespace">
    <fips>05127</fips>
    <name>Scott</name>
    <hc-middle-x>0.55</hc-middle-x>
    <hc-middle-y>0.58</hc-middle-y>
    <hc-key>us-ar-127</hc-key>
    <hc-a2>SC</hc-a2>
  </desc>
</path>

<path fill="#CEE3F5" stroke="#6E6E6E" stroke-width="0.4" id="US.AR.129" d="M252.5,139.4 L243.2,139.1 L232.4,138.8 L234.8,78.6 L234.0,71.0 L236.6,71.1 L241.6,71.2 L249.2,71.4 L249.0,79.0 L309.1,80.6 L309.0,86.8 L308.7,95.7 L308.6,110.8 L308.2,128.2 L278.0,127.7 L277.8,140.3 Z">
  <desc xmlns="http://www.highcharts.com/svg/namespace">
    <fips>05129</fips>
    <name>Searcy</name>
    <hc-middle-x>0.50</hc-middle-x>
    <hc-middle-y>0.55</hc-middle-y>
    <hc-key>us-ar-129</hc-key>
    <hc-a2>SE</hc-a2>
  </desc>
</path>

<path fill="#CEE3F5" stroke="#6E6E6E" stroke-width="0.4" id="US.AR.061" d="M103.5,435.1 L101.4,480.4 L83.2,479.5 L83.1,479.5 L83.1,479.5 L83.1,479.5 L83.1,479.5 L83.1,479.5 L82.9,479.5 L81.3,469.8 L74.6,462.0 L74.5,458.2 L69.8,455.7 L67.4,448.4 L69.4,441.4 L65.3,429.9 L64.3,422.2 L66.7,414.0 L64.3,402.6 L43.3,401.9 L43.6,388.5 L41.9,388.5 L42.4,373.6 L88.4,375.5 L87.9,390.6 L89.7,390.6 L89.2,403.9 L104.4,404.7 Z">
  <desc xmlns="http://www.highcharts.com/svg/namespace">
    <fips>05061</fips>
    <name>Howard</name>
    <hc-middle-x>0.67</hc-middle-x>
    <hc-middle-y>0.48</hc-middle-y>
    <hc-key>us-ar-061</hc-key>
    <hc-a2>HO</hc-a2>
  </desc>
</path>

<path fill="#CEE3F5" stroke="#6E6E6E" stroke-width="0.4" id="US.AR.071" d="M127.1,129.8 L137.1,130.4 L152.1,131.1 L152.0,136.1 L172.6,137.1 L202.3,137.8 L201.5,160.5 L194.0,160.2 L193.3,182.9 L183.1,182.5 L182.3,207.3 L177.5,204.8 L165.4,207.1 L168.5,202.9 L166.0,200.5 L163.8,190.3 L159.2,190.1 L154.6,194.8 L150.0,192.7 L140.4,196.9 L133.8,196.3 L129.7,192.9 L123.9,198.1 L123.9,198.0 L125.5,164.9 Z">
  <desc xmlns="http://www.highcharts.com/svg/namespace">
    <fips>05071</fips>
    <name>Johnson</name>
    <hc-middle-x>0.43</hc-middle-x>
    <hc-middle-y>0.46</hc-middle-y>
    <hc-key>us-ar-071</hc-key>
    <hc-a2>JO</hc-a2>
  </desc>
</path>

<path fill="#CEE3F5" stroke="#6E6E6E" stroke-width="0.4" id="US.AR.087" d="M152.1,131.1 L137.1,130.4 L127.1,129.8 L96.8,128.2 L96.7,130.8 L91.7,130.5 L89.3,130.4 L91.1,117.9 L93.1,73.1 L101.5,48.3 L104.1,48.4 L104.4,35.7 L111.9,36.0 L134.1,37.0 L133.3,41.9 L139.5,44.8 L139.1,54.8 L144.0,57.6 L143.8,62.8 L148.7,63.0 L148.6,68.0 L158.7,68.4 L158.5,75.9 L163.3,76.1 L162.3,95.8 L157.3,98.2 L154.6,103.0 L154.3,110.7 L151.8,110.5 Z">
  <desc xmlns="http://www.highcharts.com/svg/namespace">
    <fips>05087</fips>
    <name>Madison</name>
    <hc-middle-x>0.51</hc-middle-x>
    <hc-middle-y>0.51</hc-middle-y>
    <hc-key>us-ar-087</hc-key>
    <hc-a2>MA</hc-a2>
  </desc>
</path>

<path fill="#CEE3F5" stroke="#6E6E6E" stroke-width="0.4" id="US.AR.095" d="M488.7,264.4 L488.4,280.1 L493.6,280.1 L493.5,287.8 L496.0,287.8 L495.9,310.8 L503.5,310.9 L503.3,326.2 L503.2,356.6 L511.0,356.8 L510.9,379.9 L503.2,379.9 L495.7,377.1 L485.9,360.3 L479.6,361.5 L480.9,354.6 L473.1,351.5 L473.3,347.1 L467.6,345.5 L469.0,341.1 L456.6,340.9 L456.7,335.8 L446.5,333.0 L446.5,322.9 L456.9,323.1 L457.3,295.6 L458.2,288.2 L461.0,287.4 L455.6,281.5 L457.5,280.2 L457.5,280.2 L457.5,280.2 L457.5,280.2 L468.1,280.2 L468.2,267.6 L476.1,267.5 L476.2,264.2 Z M457.5,280.2 L457.5,280.2 L457.5,280.2 Z">
  <desc xmlns="http://www.highcharts.com/svg/namespace">
    <fips>05095</fips>
    <name>Monroe</name>
    <hc-middle-x>0.51</hc-middle-x>
    <hc-middle-y>0.42</hc-middle-y>
    <hc-key>us-ar-095</hc-key>
    <hc-a2>MO</hc-a2>
  </desc>
</path>

<path fill="#CEE3F5" stroke="#6E6E6E" stroke-width="0.4" id="US.AR.123" d="M496.0,287.8 L493.5,287.8 L493.6,280.1 L488.4,280.1 L488.7,264.4 L503.6,264.5 L503.8,238.9 L530.4,238.5 L580.8,238.7 L595.4,237.7 L595.5,263.1 L594.9,280.2 L564.6,280.2 L517.2,280.7 L496.1,280.1 Z">
  <desc xmlns="http://www.highcharts.com/svg/namespace">
    <fips>05123</fips>
    <name>St. Francis</name>
    <hc-middle-x>0.57</hc-middle-x>
    <hc-middle-y>0.43</hc-middle-y>
    <hc-key>us-ar-123</hc-key>
    <hc-a2>SF</hc-a2>
  </desc>
</path>

<path fill="#CEE3F5" stroke="#6E6E6E" stroke-width="0.4" id="US.AR.019" d="M154.1,378.2 L162.8,378.6 L164.3,378.6 L171.8,378.9 L171.5,389.0 L194.4,389.8 L194.2,394.9 L210.0,395.5 L217.9,397.1 L219.1,403.1 L216.7,410.5 L239.2,411.4 L237.9,441.4 L229.8,440.7 L228.1,442.7 L237.8,455.3 L235.4,456.1 L236.8,463.3 L239.8,466.8 L237.6,471.5 L234.0,469.4 L230.8,473.1 L217.4,478.2 L211.9,474.9 L207.0,476.9 L202.0,470.3 L196.1,472.7 L190.5,467.7 L180.1,464.7 L178.6,455.7 L173.6,452.3 L168.4,445.1 L167.6,440.0 L159.8,428.9 L156.8,414.8 L158.1,406.2 L156.2,401.7 L150.4,400.2 L150.6,393.3 L153.7,393.4 Z">
  <desc xmlns="http://www.highcharts.com/svg/namespace">
    <fips>05019</fips>
    <name>Clark</name>
    <hc-middle-x>0.49</hc-middle-x>
    <hc-middle-y>0.50</hc-middle-y>
    <hc-key>us-ar-019</hc-key>
    <hc-a2>CL</hc-a2>
  </desc>
</path>

<path fill="#CEE3F5" stroke="#6E6E6E" stroke-width="0.4" id="US.AR.097" d="M164.3,378.6 L162.8,378.6 L154.1,378.2 L116.1,376.3 L88.4,375.5 L89.2,349.1 L90.2,320.7 L97.7,320.9 L99.0,312.7 L111.7,311.9 L111.7,309.4 L122.0,307.5 L142.1,308.0 L167.3,308.5 L166.0,318.6 L164.6,368.7 L164.5,372.4 Z">
  <desc xmlns="http://www.highcharts.com/svg/namespace">
    <fips>05097</fips>
    <name>Montgomery</name>
    <hc-middle-x>0.50</hc-middle-x>
    <hc-middle-y>0.49</hc-middle-y>
    <hc-key>us-ar-097</hc-key>
    <hc-a2>MO</hc-a2>
  </desc>
</path>

<path fill="#CEE3F5" stroke="#6E6E6E" stroke-width="0.4" id="US.AR.149" d="M235.4,235.5 L227.2,244.3 L218.7,245.6 L218.6,251.2 L209.2,258.6 L201.3,268.5 L198.3,268.4 L188.0,280.9 L180.3,285.7 L182.8,288.3 L182.6,303.5 L167.3,303.5 L167.3,308.5 L142.1,308.0 L122.0,307.5 L123.0,278.0 L123.6,259.8 L123.7,239.8 L130.0,237.6 L148.9,238.4 L151.7,233.4 L155.6,232.4 L159.5,226.3 L184.7,227.2 L185.2,209.0 L190.0,216.3 L196.1,217.1 L202.4,223.5 L207.8,234.5 L212.5,232.7 L212.4,242.4 L218.0,244.0 L220.4,237.2 L224.5,235.4 L239.4,235.1 Z">
  <desc xmlns="http://www.highcharts.com/svg/namespace">
    <fips>05149</fips>
    <name>Yell</name>
    <hc-middle-x>0.34</hc-middle-x>
    <hc-middle-y>0.60</hc-middle-y>
    <hc-key>us-ar-149</hc-key>
    <hc-a2>YE</hc-a2>
  </desc>
</path>

<path fill="#CEE3F5" stroke="#6E6E6E" stroke-width="0.4" id="US.AR.013" d="M318.7,474.6 L317.6,483.6 L319.1,489.7 L320.7,494.2 L319.4,505.5 L321.9,525.9 L317.4,540.7 L312.6,546.9 L311.9,557.9 L316.1,560.8 L311.6,564.3 L302.2,564.9 L298.1,561.5 L297.0,555.7 L290.8,557.6 L289.5,550.7 L284.5,548.7 L281.8,543.4 L274.4,540.3 L272.0,537.1 L264.5,537.5 L261.7,532.4 L262.9,528.7 L255.6,526.5 L258.1,517.9 L263.7,513.3 L263.4,507.2 L260.3,504.7 L262.0,499.1 L273.1,497.1 L274.9,492.1 L282.3,484.6 L282.6,473.2 L312.8,474.2 Z">
  <desc xmlns="http://www.highcharts.com/svg/namespace">
    <fips>05013</fips>
    <name>Calhoun</name>
    <hc-middle-x>0.61</hc-middle-x>
    <hc-middle-y>0.48</hc-middle-y>
    <hc-key>us-ar-013</hc-key>
    <hc-a2>CA</hc-a2>
  </desc>
</path>

<path fill="#CEE3F5" stroke="#6E6E6E" stroke-width="0.4" id="US.AR.025" d="M319.1,489.7 L317.6,483.6 L318.7,474.6 L318.2,468.0 L309.8,458.6 L309.1,453.9 L301.2,443.6 L298.4,443.6 L299.0,429.0 L318.5,428.6 L327.1,428.3 L333.4,428.2 L350.1,428.0 L373.9,427.9 L374.0,443.0 L370.6,443.0 L370.7,475.2 L370.7,483.9 L370.7,490.4 L325.8,490.1 Z">
  <desc xmlns="http://www.highcharts.com/svg/namespace">
    <fips>05025</fips>
    <name>Cleveland</name>
    <hc-middle-x>0.58</hc-middle-x>
    <hc-middle-y>0.50</hc-middle-y>
    <hc-key>us-ar-025</hc-key>
    <hc-a2>CL</hc-a2>
  </desc>
</path>

<path fill="#CEE3F5" stroke="#6E6E6E" stroke-width="0.4" id="US.AR.031" d="M503.6,141.6 L503.7,126.9 L504.0,110.9 L526.5,111.4 L526.5,103.9 L529.3,96.2 L594.9,95.9 L596.2,90.5 L601.6,90.4 L608.7,90.2 L609.3,111.3 L609.9,141.7 L579.6,140.9 L563.6,141.6 Z">
  <desc xmlns="http://www.highcharts.com/svg/namespace">
    <fips>05031</fips>
    <name>Craighead</name>
    <hc-middle-x>0.50</hc-middle-x>
    <hc-middle-y>0.50</hc-middle-y>
    <hc-key>us-ar-031</hc-key>
    <hc-a2>CR</hc-a2>
  </desc>
</path>

<path fill="#CEE3F5" stroke="#6E6E6E" stroke-width="0.4" id="US.AR.067" d="M504.0,110.9 L503.7,126.9 L503.6,141.6 L503.5,151.7 L503.7,187.4 L503.7,193.9 L503.8,203.1 L473.7,202.8 L473.4,187.5 L460.0,188.8 L426.2,188.4 L426.6,173.1 L456.7,173.6 L456.7,153.9 L462.9,154.4 L458.8,147.1 L459.5,140.1 L464.8,131.9 L475.8,123.8 L479.1,117.4 L477.7,112.3 L480.5,110.3 L488.9,110.2 Z">
  <desc xmlns="http://www.highcharts.com/svg/namespace">
    <fips>05067</fips>
    <name>Jackson</name>
    <hc-middle-x>0.70</hc-middle-x>
    <hc-middle-y>0.50</hc-middle-y>
    <hc-key>us-ar-067</hc-key>
    <hc-a2>JA</hc-a2>
  </desc>
</path>

<path fill="#CEE3F5" stroke="#6E6E6E" stroke-width="0.4" id="US.AR.099" d="M168.3,534.2 L151.0,533.4 L151.2,528.4 L153.9,467.8 L155.4,467.9 L156.3,445.0 L164.6,446.1 L168.4,445.1 L173.6,452.3 L178.6,455.7 L180.1,464.7 L190.5,467.7 L196.1,472.7 L202.0,470.3 L207.0,476.9 L205.9,502.1 L204.6,533.2 L189.4,532.6 L189.3,535.2 Z">
  <desc xmlns="http://www.highcharts.com/svg/namespace">
    <fips>05099</fips>
    <name>Nevada</name>
    <hc-middle-x>0.50</hc-middle-x>
    <hc-middle-y>0.63</hc-middle-y>
    <hc-key>us-ar-099</hc-key>
    <hc-a2>NE</hc-a2>
  </desc>
</path>

<path fill="#CEE3F5" stroke="#6E6E6E" stroke-width="0.4" id="US.AR.011" d="M368.6,543.6 L368.7,543.7 L373.0,547.1 L369.0,553.5 L370.5,560.3 L361.0,564.4 L360.7,568.1 L350.3,574.0 L347.1,584.5 L334.7,576.4 L334.5,569.0 L319.5,567.0 L314.8,563.8 L316.1,560.8 L311.9,557.9 L312.6,546.9 L317.4,540.7 L321.9,525.9 L319.4,505.5 L320.7,494.2 L319.1,489.7 L325.8,490.1 L370.7,490.4 L370.7,520.7 L366.0,520.8 L367.2,530.6 L365.0,533.4 L368.3,537.1 L368.6,543.6 L368.6,543.6 Z">
  <desc xmlns="http://www.highcharts.com/svg/namespace">
    <fips>05011</fips>
    <name>Bradley</name>
    <hc-middle-x>0.51</hc-middle-x>
    <hc-middle-y>0.50</hc-middle-y>
    <hc-key>us-ar-011</hc-key>
    <hc-a2>BR</hc-a2>
  </desc>
</path>

<path fill="#CEE3F5" stroke="#6E6E6E" stroke-width="0.4" id="US.AR.053" d="M331.8,353.3 L334.4,353.3 L337.3,353.4 L336.5,399.0 L333.6,398.9 L333.4,428.2 L327.1,428.3 L318.5,428.6 L313.3,426.1 L305.6,417.3 L295.9,413.8 L269.2,412.7 L270.0,397.1 L270.9,366.8 L277.3,367.0 L282.4,359.6 L309.0,360.4 L309.2,352.8 Z">
  <desc xmlns="http://www.highcharts.com/svg/namespace">
    <fips>05053</fips>
    <name>Grant</name>
    <hc-middle-x>0.59</hc-middle-x>
    <hc-middle-y>0.42</hc-middle-y>
    <hc-key>us-ar-053</hc-key>
    <hc-a2>GR</hc-a2>
  </desc>
</path>

<path fill="#CEE3F5" stroke="#6E6E6E" stroke-width="0.4" id="US.AR.119" d="M337.3,353.4 L334.4,353.3 L331.8,353.3 L332.1,338.1 L317.1,337.8 L317.4,330.3 L303.3,330.0 L303.6,322.2 L295.4,321.8 L295.6,319.4 L288.0,319.1 L288.4,306.5 L273.4,305.9 L273.9,290.8 L261.3,290.4 L259.0,290.3 L259.4,280.3 L274.2,280.7 L274.5,275.6 L289.3,276.2 L289.3,273.2 L298.0,273.7 L302.5,283.9 L307.4,280.3 L307.2,277.1 L334.3,277.9 L334.7,262.8 L349.8,263.2 L357.1,263.3 L355.9,312.2 L353.8,315.6 L350.9,330.8 L362.9,331.1 L362.9,354.0 L353.4,353.8 Z">
  <desc xmlns="http://www.highcharts.com/svg/namespace">
    <fips>05119</fips>
    <name>Pulaski</name>
    <hc-middle-x>0.61</hc-middle-x>
    <hc-middle-y>0.49</hc-middle-y>
    <hc-key>us-ar-119</hc-key>
    <hc-a2>PU</hc-a2>
  </desc>
</path>

<path fill="#CEE3F5" stroke="#6E6E6E" stroke-width="0.4" id="US.AR.001" d="M494.6,417.8 L483.7,426.2 L483.6,432.6 L492.7,446.3 L490.1,449.4 L487.5,445.8 L481.5,446.4 L477.3,443.2 L461.6,446.6 L465.3,438.7 L461.2,438.3 L455.1,441.9 L450.8,436.3 L448.6,432.8 L447.3,424.9 L446.4,415.6 L440.4,416.7 L437.3,414.1 L435.2,401.5 L426.0,399.2 L408.8,398.3 L409.6,355.1 L412.8,355.2 L413.5,355.3 L425.4,355.5 L425.5,340.2 L456.6,340.9 L469.0,341.1 L467.6,345.5 L473.3,347.1 L473.1,351.5 L480.9,354.6 L479.6,361.5 L485.9,360.3 L495.7,377.1 L503.2,379.9 L500.0,395.0 L502.7,400.7 L497.9,407.7 L499.4,413.9 L494.6,417.8 L494.6,417.8 Z">
  <desc xmlns="http://www.highcharts.com/svg/namespace">
    <fips>05001</fips>
    <name>Arkansas</name>
    <hc-middle-x>0.51</hc-middle-x>
    <hc-middle-y>0.46</hc-middle-y>
    <hc-key>us-ar-001</hc-key>
    <hc-a2>AR</hc-a2>
  </desc>
</path>

<path fill="#CEE3F5" stroke="#6E6E6E" stroke-width="0.4" id="US.AR.107" d="M494.6,417.8 L499.4,413.9 L497.9,407.7 L502.7,400.7 L500.0,395.0 L503.2,379.9 L510.9,379.9 L511.0,356.8 L503.2,356.6 L503.3,326.2 L523.7,326.4 L570.6,326.2 L570.9,332.6 L576.1,339.7 L570.0,353.4 L573.6,361.9 L571.5,366.3 L560.4,372.5 L560.7,380.9 L555.5,381.8 L557.8,373.2 L546.3,374.1 L545.1,378.4 L548.7,384.6 L545.2,389.2 L539.8,388.9 L535.4,392.1 L533.5,402.2 L520.5,397.3 L523.6,404.0 L527.7,406.5 L538.0,406.2 L539.4,409.6 L533.7,414.3 L524.6,409.4 L518.2,414.2 L518.1,417.6 L498.9,417.7 L494.6,417.8 Z">
  <desc xmlns="http://www.highcharts.com/svg/namespace">
    <fips>05107</fips>
    <name>Phillips</name>
    <hc-middle-x>0.55</hc-middle-x>
    <hc-middle-y>0.29</hc-middle-y>
    <hc-key>us-ar-107</hc-key>
    <hc-a2>PH</hc-a2>
  </desc>
</path>

<path fill="#CEE3F5" stroke="#6E6E6E" stroke-width="0.4" id="US.AR.085" d="M413.5,355.3 L412.8,355.2 L409.6,355.1 L378.4,354.3 L362.9,354.0 L362.9,331.1 L350.9,330.8 L353.8,315.6 L355.9,312.2 L357.1,263.3 L349.8,263.2 L350.0,257.5 L350.1,253.8 L365.3,252.1 L371.4,256.7 L378.3,257.6 L384.5,261.1 L395.4,260.0 L395.3,278.9 L411.0,279.2 L410.1,322.2 L419.1,330.2 L415.3,338.2 L419.7,344.0 L414.6,348.8 Z">
  <desc xmlns="http://www.highcharts.com/svg/namespace">
    <fips>05085</fips>
    <name>Lonoke</name>
    <hc-middle-x>0.48</hc-middle-x>
    <hc-middle-y>0.50</hc-middle-y>
    <hc-key>us-ar-085</hc-key>
    <hc-a2>LO</hc-a2>
  </desc>
</path>

<path fill="#CEE3F5" stroke="#6E6E6E" stroke-width="0.4" id="US.AR.117" d="M457.5,280.2 L457.5,280.2 L457.5,280.2 L457.5,280.2 L455.6,281.5 L461.0,287.4 L458.2,288.2 L457.3,295.6 L456.9,323.1 L446.5,322.9 L446.5,333.0 L456.7,335.8 L456.6,340.9 L425.5,340.2 L425.4,355.5 L413.5,355.3 L414.6,348.8 L419.7,344.0 L415.3,338.2 L419.1,330.2 L410.1,322.2 L411.0,279.2 L395.3,278.9 L395.4,260.0 L400.6,256.6 L410.7,254.4 L416.1,256.1 L418.5,260.5 L426.5,260.8 L426.6,249.3 L443.5,249.6 L444.1,256.1 L458.1,256.0 L457.5,280.2 L457.5,280.2 Z">
  <desc xmlns="http://www.highcharts.com/svg/namespace">
    <fips>05117</fips>
    <name>Prairie</name>
    <hc-middle-x>0.62</hc-middle-x>
    <hc-middle-y>0.45</hc-middle-y>
    <hc-key>us-ar-117</hc-key>
    <hc-a2>PR</hc-a2>
  </desc>
</path>

<path fill="#CEE3F5" stroke="#6E6E6E" stroke-width="0.4" id="US.AR.075" d="M504.0,110.9 L488.9,110.2 L480.5,110.3 L473.1,110.2 L458.0,110.3 L458.8,79.4 L458.7,51.2 L461.3,48.8 L471.4,49.0 L471.5,46.5 L473.9,52.0 L485.0,55.4 L488.1,62.2 L496.4,64.8 L499.2,70.3 L501.7,64.7 L534.9,64.6 L543.7,64.6 L540.5,71.3 L533.5,76.8 L531.2,86.8 L528.3,92.3 L529.3,96.2 L526.5,103.9 L526.5,111.4 Z">
  <desc xmlns="http://www.highcharts.com/svg/namespace">
    <fips>05075</fips>
    <name>Lawrence</name>
    <hc-middle-x>0.43</hc-middle-x>
    <hc-middle-y>0.59</hc-middle-y>
    <hc-key>us-ar-075</hc-key>
    <hc-a2>LA</hc-a2>
  </desc>
</path>

<path fill="#CEE3F5" stroke="#6E6E6E" stroke-width="0.4" id="US.AR.135" d="M410.6,47.6 L410.6,47.6 L428.2,48.1 L428.2,32.9 L443.9,33.2 L444.3,5.0 L448.3,5.0 L450.4,5.0 L456.7,9.3 L458.6,18.2 L464.3,18.3 L464.1,23.6 L469.1,26.3 L469.0,33.8 L471.4,33.8 L471.5,46.5 L471.4,49.0 L461.3,48.8 L458.7,51.2 L458.8,79.4 L458.0,110.3 L442.9,110.1 L443.0,102.4 L408.1,101.7 L408.2,91.4 L412.0,91.5 L412.3,63.0 L413.1,55.3 L410.5,55.2 Z">
  <desc xmlns="http://www.highcharts.com/svg/namespace">
    <fips>05135</fips>
    <name>Sharp</name>
    <hc-middle-x>0.41</hc-middle-x>
    <hc-middle-y>0.63</hc-middle-y>
    <hc-key>us-ar-135</hc-key>
    <hc-a2>SH</hc-a2>
  </desc>
</path>

<path fill="#CEE3F5" stroke="#6E6E6E" stroke-width="0.4" id="US.AR.059" d="M164.3,378.6 L164.5,372.4 L164.6,368.7 L230.7,370.8 L230.8,360.4 L235.7,360.5 L235.6,350.5 L253.1,351.1 L261.0,351.2 L260.9,356.3 L268.6,356.5 L268.4,366.7 L270.9,366.8 L270.0,397.1 L269.2,412.7 L249.6,412.2 L239.2,411.4 L216.7,410.5 L219.1,403.1 L217.9,397.1 L210.0,395.5 L194.2,394.9 L194.4,389.8 L171.5,389.0 L171.8,378.9 Z">
  <desc xmlns="http://www.highcharts.com/svg/namespace">
    <fips>05059</fips>
    <name>Hot Spring</name>
    <hc-middle-x>0.70</hc-middle-x>
    <hc-middle-y>0.58</hc-middle-y>
    <hc-key>us-ar-059</hc-key>
    <hc-a2>HS</hc-a2>
  </desc>
</path>

<path fill="#CEE3F5" stroke="#6E6E6E" stroke-width="0.4" id="US.AR.029" d="M280.1,251.2 L275.1,251.8 L278.2,246.2 L270.8,251.4 L264.9,252.5 L218.6,251.2 L218.7,245.6 L227.2,244.3 L235.4,235.5 L239.4,235.1 L245.3,234.8 L246.3,184.4 L299.1,186.1 L298.7,201.2 L298.2,216.4 L293.9,220.5 L291.8,232.2 L295.8,235.0 L292.8,245.1 L288.0,245.4 L288.0,245.4 Z">
  <desc xmlns="http://www.highcharts.com/svg/namespace">
    <fips>05029</fips>
    <name>Conway</name>
    <hc-middle-x>0.66</hc-middle-x>
    <hc-middle-y>0.42</hc-middle-y>
    <hc-key>us-ar-029</hc-key>
    <hc-a2>CO</hc-a2>
  </desc>
</path>

<path fill="#CEE3F5" stroke="#6E6E6E" stroke-width="0.4" id="US.AR.007" d="M111.9,36.0 L104.4,35.7 L104.1,48.4 L101.5,48.3 L89.6,49.2 L89.4,53.4 L83.2,52.6 L38.7,50.4 L38.0,63.0 L30.5,62.8 L30.1,70.3 L7.4,69.2 L4.2,40.9 L0.0,0.0 L105.3,2.5 L104.6,30.8 Z">
  <desc xmlns="http://www.highcharts.com/svg/namespace">
    <fips>05007</fips>
    <name>Benton</name>
    <hc-middle-x>0.30</hc-middle-x>
    <hc-middle-y>0.39</hc-middle-y>
    <hc-key>us-ar-007</hc-key>
    <hc-a2>BE</hc-a2>
  </desc>
</path>

<path fill="#CEE3F5" stroke="#6E6E6E" stroke-width="0.4" id="US.AR.035" d="M616.2,187.1 L631.5,187.0 L627.5,189.6 L626.2,196.0 L632.4,197.4 L630.8,193.5 L635.3,191.4 L641.0,195.9 L636.5,203.2 L636.4,209.8 L628.6,211.5 L630.4,218.4 L638.0,219.1 L640.9,222.9 L635.6,230.1 L643.0,239.0 L638.2,242.5 L632.7,239.6 L627.8,242.4 L623.0,258.4 L611.2,256.0 L608.8,264.0 L618.0,272.8 L617.6,279.2 L608.6,285.6 L609.9,287.5 L604.8,287.6 L595.2,292.5 L595.1,284.9 L594.9,280.2 L595.5,263.1 L595.4,237.7 L580.8,238.7 L580.2,232.7 L580.0,187.0 L598.1,187.1 L610.7,187.0 L610.7,187.0 Z">
  <desc xmlns="http://www.highcharts.com/svg/namespace">
    <fips>05035</fips>
    <name>Crittenden</name>
    <hc-middle-x>0.41</hc-middle-x>
    <hc-middle-y>0.28</hc-middle-y>
    <hc-key>us-ar-035</hc-key>
    <hc-a2>CR</hc-a2>
  </desc>
</path>

<path fill="#CEE3F5" stroke="#6E6E6E" stroke-width="0.4" id="US.AR.093" d="M616.2,187.1 L610.7,187.0 L610.7,187.0 L610.1,155.9 L609.9,141.7 L609.3,111.3 L608.7,90.2 L687.1,87.9 L689.3,93.4 L698.3,100.6 L700.0,104.3 L697.1,108.1 L686.2,104.2 L682.0,109.6 L683.7,112.8 L691.2,115.9 L691.9,119.2 L681.0,122.0 L675.7,130.5 L667.9,133.9 L663.5,130.2 L657.4,134.0 L656.8,142.4 L660.7,147.8 L666.7,148.6 L670.8,146.0 L671.1,151.8 L658.3,158.1 L658.7,164.8 L663.9,168.8 L662.8,172.9 L658.6,172.0 L652.5,165.1 L645.5,167.3 L644.0,173.0 L648.7,181.7 L645.7,193.7 L643.9,195.0 L639.4,179.6 L634.5,181.4 L631.5,187.0 Z">
  <desc xmlns="http://www.highcharts.com/svg/namespace">
    <fips>05093</fips>
    <name>Mississippi</name>
    <hc-middle-x>0.33</hc-middle-x>
    <hc-middle-y>0.36</hc-middle-y>
    <hc-key>us-ar-093</hc-key>
    <hc-a2>MI</hc-a2>
  </desc>
</path>

<path fill="#CEE3F5" stroke="#6E6E6E" stroke-width="0.4" id="US.AR.111" d="M610.7,187.0 L598.1,187.1 L580.0,187.0 L564.6,187.2 L564.6,186.0 L519.1,187.8 L503.7,187.4 L503.5,151.7 L503.6,141.6 L563.6,141.6 L579.6,140.9 L609.9,141.7 L610.1,155.9 L610.7,187.0 Z">
  <desc xmlns="http://www.highcharts.com/svg/namespace">
    <fips>05111</fips>
    <name>Poinsett</name>
    <hc-middle-x>0.50</hc-middle-x>
    <hc-middle-y>0.50</hc-middle-y>
    <hc-key>us-ar-111</hc-key>
    <hc-a2>PO</hc-a2>
  </desc>
</path>

<path fill="#CEE3F5" stroke="#6E6E6E" stroke-width="0.4" id="US.AR.083" d="M123.9,198.1 L129.7,192.9 L133.8,196.3 L140.4,196.9 L150.0,192.7 L154.6,194.8 L159.2,190.1 L163.8,190.3 L166.0,200.5 L168.5,202.9 L165.4,207.1 L177.5,204.8 L182.3,207.3 L184.6,208.9 L185.2,209.0 L184.7,227.2 L159.5,226.3 L155.6,232.4 L151.7,233.4 L148.9,238.4 L130.0,237.6 L123.7,239.8 L123.6,259.8 L70.8,257.6 L71.0,252.8 L61.3,252.3 L61.7,244.7 L62.0,237.1 L77.4,237.9 L78.1,225.2 L78.1,222.2 L93.5,222.8 L94.3,207.3 L109.5,208.6 L110.3,188.3 L112.0,193.0 L118.4,199.8 L123.9,198.0 Z">
  <desc xmlns="http://www.highcharts.com/svg/namespace">
    <fips>05083</fips>
    <name>Logan</name>
    <hc-middle-x>0.39</hc-middle-x>
    <hc-middle-y>0.51</hc-middle-y>
    <hc-key>us-ar-083</hc-key>
    <hc-a2>LO</hc-a2>
  </desc>
</path>

<path fill="#CEE3F5" stroke="#6E6E6E" stroke-width="0.4" id="US.AR.047" d="M123.9,198.1 L118.4,199.8 L112.0,193.0 L110.3,188.3 L109.5,208.6 L94.3,207.3 L93.5,222.8 L78.1,222.2 L78.1,225.2 L75.2,227.7 L70.3,224.7 L72.3,184.9 L79.2,182.2 L74.8,180.1 L79.0,174.2 L77.4,170.1 L80.1,162.7 L72.6,162.3 L73.3,147.2 L85.9,147.7 L86.3,140.2 L89.0,135.4 L96.5,135.8 L96.7,130.8 L96.8,128.2 L127.1,129.8 L125.5,164.9 L123.9,198.0 Z">
  <desc xmlns="http://www.highcharts.com/svg/namespace">
    <fips>05047</fips>
    <name>Franklin</name>
    <hc-middle-x>0.51</hc-middle-x>
    <hc-middle-y>0.45</hc-middle-y>
    <hc-key>us-ar-047</hc-key>
    <hc-a2>FR</hc-a2>
  </desc>
</path>

<path fill="#CEE3F5" stroke="#6E6E6E" stroke-width="0.4" id="US.AR.041" d="M483.7,426.2 L494.6,417.8 L494.6,417.8 L494.6,417.8 L498.9,417.7 L518.1,417.6 L523.1,421.9 L530.4,423.5 L526.7,433.9 L513.6,435.0 L517.5,441.7 L511.9,444.1 L509.1,437.8 L499.2,442.7 L499.2,445.4 L510.5,450.6 L501.5,463.2 L505.4,470.4 L513.4,474.3 L512.3,478.4 L504.4,476.8 L496.7,478.3 L492.7,476.3 L491.1,485.3 L495.3,489.7 L502.5,487.7 L508.0,492.6 L501.1,497.8 L493.1,494.6 L489.0,489.4 L482.2,490.7 L480.3,497.1 L487.6,499.7 L493.6,506.9 L490.5,511.0 L479.1,514.8 L477.0,522.5 L461.7,522.2 L461.8,514.5 L446.7,514.6 L446.9,477.0 L431.4,476.5 L432.5,442.9 L444.5,443.0 L444.6,438.0 L450.8,439.1 L450.8,436.3 L455.1,441.9 L461.2,438.3 L465.3,438.7 L461.6,446.6 L477.3,443.2 L481.5,446.4 L487.5,445.8 L490.1,449.4 L492.7,446.3 L483.6,432.6 Z">
  <desc xmlns="http://www.highcharts.com/svg/namespace">
    <fips>05041</fips>
    <name>Desha</name>
    <hc-middle-x>0.45</hc-middle-x>
    <hc-middle-y>0.53</hc-middle-y>
    <hc-key>us-ar-041</hc-key>
    <hc-a2>DE</hc-a2>
  </desc>
</path>

<path fill="#CEE3F5" stroke="#6E6E6E" stroke-width="0.4" id="US.AR.079" d="M447.3,424.9 L448.6,432.8 L450.8,436.3 L450.8,439.1 L444.6,438.0 L444.5,443.0 L432.5,442.9 L431.4,476.5 L416.0,475.0 L370.7,475.2 L370.6,443.0 L374.0,443.0 L373.9,427.9 L373.9,422.8 L404.0,422.7 L406.7,427.7 L406.6,408.7 L411.4,409.3 L424.6,418.4 L424.7,423.6 L431.9,420.5 L438.5,425.9 Z">
  <desc xmlns="http://www.highcharts.com/svg/namespace">
    <fips>05079</fips>
    <name>Lincoln</name>
    <hc-middle-x>0.49</hc-middle-x>
    <hc-middle-y>0.50</hc-middle-y>
    <hc-key>us-ar-079</hc-key>
    <hc-a2>LI</hc-a2>
  </desc>
</path>

<path fill="#CEE3F5" stroke="#6E6E6E" stroke-width="0.4" id="US.AR.009" d="M241.6,71.2 L236.6,71.1 L234.0,71.0 L206.5,70.3 L183.9,69.3 L185.0,29.5 L185.7,3.9 L207.7,4.2 L247.4,4.6 L247.2,10.4 L243.0,5.8 Z">
  <desc xmlns="http://www.highcharts.com/svg/namespace">
    <fips>05009</fips>
    <name>Boone</name>
    <hc-middle-x>0.50</hc-middle-x>
    <hc-middle-y>0.49</hc-middle-y>
    <hc-key>us-ar-009</hc-key>
    <hc-a2>BO</hc-a2>
  </desc>
</path>

<path fill="#CEE3F5" stroke="#6E6E6E" stroke-width="0.4" id="US.AR.033" d="M89.3,130.4 L91.7,130.5 L96.7,130.8 L96.5,135.8 L89.0,135.4 L86.3,140.2 L85.9,147.7 L73.3,147.2 L72.6,162.3 L80.1,162.7 L77.4,170.1 L79.0,174.2 L74.8,180.1 L79.2,182.2 L72.3,184.9 L64.5,183.7 L60.4,185.5 L63.6,192.7 L58.9,196.3 L55.7,194.5 L50.8,200.3 L36.9,199.4 L33.8,195.2 L33.7,188.7 L25.6,183.0 L21.4,192.0 L19.2,173.7 L14.2,129.0 L66.3,131.8 L66.5,129.3 Z">
  <desc xmlns="http://www.highcharts.com/svg/namespace">
    <fips>05033</fips>
    <name>Crawford</name>
    <hc-middle-x>0.41</hc-middle-x>
    <hc-middle-y>0.40</hc-middle-y>
    <hc-key>us-ar-033</hc-key>
    <hc-a2>CR</hc-a2>
  </desc>
</path>

<path fill="#CEE3F5" stroke="#6E6E6E" stroke-width="0.4" id="US.AR.109" d="M168.4,445.1 L164.6,446.1 L156.3,445.0 L145.9,447.2 L139.6,444.0 L133.1,444.1 L128.7,440.0 L123.7,439.8 L114.1,435.6 L103.5,435.1 L104.4,404.7 L89.2,403.9 L89.7,390.6 L87.9,390.6 L88.4,375.5 L116.1,376.3 L154.1,378.2 L153.7,393.4 L150.6,393.3 L150.4,400.2 L156.2,401.7 L158.1,406.2 L156.8,414.8 L159.8,428.9 L167.6,440.0 Z">
  <desc xmlns="http://www.highcharts.com/svg/namespace">
    <fips>05109</fips>
    <name>Pike</name>
    <hc-middle-x>0.54</hc-middle-x>
    <hc-middle-y>0.51</hc-middle-y>
    <hc-key>us-ar-109</hc-key>
    <hc-a2>PI</hc-a2>
  </desc>
</path>

<path fill="#CEE3F5" stroke="#6E6E6E" stroke-width="0.4" id="US.AR.121" d="M535.1,44.3 L535.0,53.2 L534.9,64.6 L501.7,64.7 L499.2,70.3 L496.4,64.8 L488.1,62.2 L485.0,55.4 L473.9,52.0 L471.5,46.5 L471.4,33.8 L469.0,33.8 L469.1,26.3 L464.1,23.6 L464.3,18.3 L458.6,18.2 L456.7,9.3 L450.4,5.0 L514.7,4.3 L537.7,4.0 L539.8,6.3 L538.5,14.6 L542.9,18.8 L542.8,41.9 L535.1,40.6 Z">
  <desc xmlns="http://www.highcharts.com/svg/namespace">
    <fips>05121</fips>
    <name>Randolph</name>
    <hc-middle-x>0.63</hc-middle-x>
    <hc-middle-y>0.41</hc-middle-y>
    <hc-key>us-ar-121</hc-key>
    <hc-a2>RA</hc-a2>
  </desc>
</path>

<path fill="#CEE3F5" stroke="#6E6E6E" stroke-width="0.4" id="US.AR.055" d="M534.9,64.6 L535.0,53.2 L535.1,44.3 L547.8,43.9 L583.6,44.8 L603.6,44.6 L603.6,54.8 L622.0,54.3 L617.7,57.4 L615.8,65.2 L607.8,69.7 L604.0,74.5 L599.7,85.4 L596.2,90.5 L594.9,95.9 L529.3,96.2 L528.3,92.3 L531.2,86.8 L533.5,76.8 L540.5,71.3 L543.7,64.6 Z">
  <desc xmlns="http://www.highcharts.com/svg/namespace">
    <fips>05055</fips>
    <name>Greene</name>
    <hc-middle-x>0.44</hc-middle-x>
    <hc-middle-y>0.50</hc-middle-y>
    <hc-key>us-ar-055</hc-key>
    <hc-a2>GR</hc-a2>
  </desc>
</path>

<path fill="#CEE3F5" stroke="#6E6E6E" stroke-width="0.4" id="US.AR.081" d="M82.9,479.5 L83.1,479.5 L83.1,479.5 L83.1,479.5 L83.1,479.5 L83.1,479.5 L83.2,479.5 L83.9,487.1 L81.7,493.6 L85.5,497.5 L90.7,497.0 L88.6,500.6 L95.0,500.0 L101.8,504.4 L97.2,504.0 L91.2,510.8 L86.5,508.8 L83.3,514.5 L81.1,509.0 L79.1,516.7 L76.5,511.8 L69.9,513.7 L64.4,509.5 L54.9,511.2 L49.6,506.0 L44.4,512.5 L39.8,512.2 L40.6,506.7 L34.7,512.3 L26.1,510.1 L24.8,514.2 L19.6,513.6 L13.9,505.7 L7.9,503.0 L10.7,501.1 L6.0,497.4 L8.5,444.8 L18.0,447.5 L21.8,445.1 L21.2,453.1 L28.0,455.4 L29.1,459.3 L42.7,469.7 L50.6,468.5 L49.5,472.1 L59.5,472.0 L71.1,473.8 L70.9,478.8 Z">
  <desc xmlns="http://www.highcharts.com/svg/namespace">
    <fips>05081</fips>
    <name>Little River</name>
    <hc-middle-x>0.29</hc-middle-x>
    <hc-middle-y>0.57</hc-middle-y>
    <hc-key>us-ar-081</hc-key>
    <hc-a2>LR</hc-a2>
  </desc>
</path>

<path fill="#CEE3F5" stroke="#6E6E6E" stroke-width="0.4" id="US.AR.139" d="M357.1,611.4 L261.1,609.9 L222.4,609.0 L223.6,570.5 L224.5,546.5 L251.4,547.6 L256.4,545.0 L270.9,550.7 L280.6,547.6 L284.5,548.7 L289.5,550.7 L290.8,557.6 L297.0,555.7 L298.1,561.5 L302.2,564.9 L311.6,564.3 L316.1,560.8 L314.8,563.8 L319.5,567.0 L334.5,569.0 L334.7,576.4 L347.1,584.5 L350.6,585.1 L350.6,589.8 L347.1,595.2 L350.4,600.6 L351.1,606.9 Z">
  <desc xmlns="http://www.highcharts.com/svg/namespace">
    <fips>05139</fips>
    <name>Union</name>
    <hc-middle-x>0.29</hc-middle-x>
    <hc-middle-y>0.49</hc-middle-y>
    <hc-key>us-ar-139</hc-key>
    <hc-a2>UN</hc-a2>
  </desc>
</path>

<path fill="#CEE3F5" stroke="#6E6E6E" stroke-width="0.4" id="US.AR.089" d="M247.4,4.6 L264.5,4.7 L293.0,4.8 L292.3,24.3 L283.8,29.1 L285.9,32.0 L292.2,30.5 L286.3,37.7 L293.3,39.0 L290.8,44.6 L301.2,47.9 L302.5,54.2 L299.6,56.8 L304.9,63.0 L309.2,63.4 L309.1,80.6 L249.0,79.0 L249.2,71.4 L241.6,71.2 L243.0,5.8 L247.2,10.4 Z">
  <desc xmlns="http://www.highcharts.com/svg/namespace">
    <fips>05089</fips>
    <name>Marion</name>
    <hc-middle-x>0.42</hc-middle-x>
    <hc-middle-y>0.50</hc-middle-y>
    <hc-key>us-ar-089</hc-key>
    <hc-a2>MA</hc-a2>
  </desc>
</path>

<path fill="#CEE3F5" stroke="#6E6E6E" stroke-width="0.4" id="US.AR.113" d="M10.6,401.6 L11.9,373.8 L15.2,308.0 L35.0,308.9 L34.7,314.0 L77.7,315.8 L77.6,317.4 L90.3,318.2 L90.2,320.7 L89.2,349.1 L88.4,375.5 L42.4,373.6 L41.9,388.5 L43.6,388.5 L43.3,401.9 L24.4,401.9 Z">
  <desc xmlns="http://www.highcharts.com/svg/namespace">
    <fips>05113</fips>
    <name>Polk</name>
    <hc-middle-x>0.52</hc-middle-x>
    <hc-middle-y>0.36</hc-middle-y>
    <hc-key>us-ar-113</hc-key>
    <hc-a2>PO</hc-a2>
  </desc>
</path>

<path fill="#CEE3F5" stroke="#6E6E6E" stroke-width="0.4" id="US.AR.133" d="M8.5,444.8 L9.8,419.3 L10.6,401.6 L24.4,401.9 L43.3,401.9 L64.3,402.6 L66.7,414.0 L64.3,422.2 L65.3,429.9 L69.4,441.4 L67.4,448.4 L69.8,455.7 L74.5,458.2 L74.6,462.0 L81.3,469.8 L82.9,479.5 L70.9,478.8 L71.1,473.8 L59.5,472.0 L49.5,472.1 L50.6,468.5 L42.7,469.7 L29.1,459.3 L28.0,455.4 L21.2,453.1 L21.8,445.1 L18.0,447.5 Z">
  <desc xmlns="http://www.highcharts.com/svg/namespace">
    <fips>05133</fips>
    <name>Sevier</name>
    <hc-middle-x>0.49</hc-middle-x>
    <hc-middle-y>0.45</hc-middle-y>
    <hc-key>us-ar-133</hc-key>
    <hc-a2>SE</hc-a2>
  </desc>
</path>

<path fill="#CEE3F5" stroke="#6E6E6E" stroke-width="0.4" id="US.AR.027" d="M222.4,609.0 L163.4,608.2 L149.0,607.9 L150.9,566.0 L156.7,566.4 L158.7,556.5 L166.6,536.2 L168.3,534.2 L189.3,535.2 L189.4,532.6 L204.6,533.2 L204.1,545.8 L224.5,546.5 L223.6,570.5 Z">
  <desc xmlns="http://www.highcharts.com/svg/namespace">
    <fips>05027</fips>
    <name>Columbia</name>
    <hc-middle-x>0.50</hc-middle-x>
    <hc-middle-y>0.58</hc-middle-y>
    <hc-key>us-ar-027</hc-key>
    <hc-a2>CO</hc-a2>
  </desc>
</path>

<path fill="#CEE3F5" stroke="#6E6E6E" stroke-width="0.4" id="US.AR.069" d="M373.9,427.9 L350.1,428.0 L333.4,428.2 L333.6,398.9 L336.5,399.0 L337.3,353.4 L353.4,353.8 L362.9,354.0 L378.4,354.3 L409.6,355.1 L408.8,398.3 L426.0,399.2 L435.2,401.5 L437.3,414.1 L440.4,416.7 L446.4,415.6 L447.3,424.9 L438.5,425.9 L431.9,420.5 L424.7,423.6 L424.6,418.4 L411.4,409.3 L406.6,408.7 L406.7,427.7 L404.0,422.7 L373.9,422.8 Z">
  <desc xmlns="http://www.highcharts.com/svg/namespace">
    <fips>05069</fips>
    <name>Jefferson</name>
    <hc-middle-x>0.33</hc-middle-x>
    <hc-middle-y>0.51</hc-middle-y>
    <hc-key>us-ar-069</hc-key>
    <hc-a2>JE</hc-a2>
  </desc>
</path>

<path fill="#CEE3F5" stroke="#6E6E6E" stroke-width="0.4" id="US.AR.131" d="M17.1,272.5 L21.2,197.9 L21.4,192.0 L25.6,183.0 L33.7,188.7 L33.8,195.2 L36.9,199.4 L50.8,200.3 L55.7,194.5 L58.9,196.3 L63.6,192.7 L60.4,185.5 L64.5,183.7 L72.3,184.9 L70.3,224.7 L75.2,227.7 L78.1,225.2 L77.4,237.9 L62.0,237.1 L61.7,244.7 L49.8,248.0 L48.3,267.2 L31.2,270.3 L28.6,267.8 Z">
  <desc xmlns="http://www.highcharts.com/svg/namespace">
    <fips>05131</fips>
    <name>Sebastian</name>
    <hc-middle-x>0.45</hc-middle-x>
    <hc-middle-y>0.54</hc-middle-y>
    <hc-key>us-ar-131</hc-key>
    <hc-a2>SE</hc-a2>
  </desc>
</path>

<path fill="#CEE3F5" stroke="#6E6E6E" stroke-width="0.4" id="US.AR.021" d="M537.7,4.0 L626.4,2.7 L628.9,17.4 L636.8,19.4 L639.2,22.2 L636.8,33.1 L639.4,36.5 L636.7,41.8 L632.1,43.3 L631.1,48.3 L622.0,54.3 L603.6,54.8 L603.6,44.6 L583.6,44.8 L547.8,43.9 L535.1,44.3 L535.1,40.6 L542.8,41.9 L542.9,18.8 L538.5,14.6 L539.8,6.3 Z">
  <desc xmlns="http://www.highcharts.com/svg/namespace">
    <fips>05021</fips>
    <name>Clay</name>
    <hc-middle-x>0.56</hc-middle-x>
    <hc-middle-y>0.41</hc-middle-y>
    <hc-key>us-ar-021</hc-key>
    <hc-a2>CL</hc-a2>
  </desc>
</path>

<path fill="#CEE3F5" stroke="#6E6E6E" stroke-width="0.4" id="US.AR.137" d="M333.1,141.6 L307.9,140.8 L308.2,128.2 L308.6,110.8 L308.7,95.7 L323.8,96.1 L324.2,81.0 L339.3,81.3 L339.6,68.5 L340.5,73.3 L347.6,72.1 L351.2,80.4 L356.7,82.4 L358.2,87.4 L353.2,90.6 L355.1,97.6 L351.8,103.6 L360.5,101.5 L366.5,105.7 L369.8,102.1 L373.8,103.5 L381.8,112.0 L388.5,114.7 L385.4,124.5 L386.3,131.4 L390.4,135.3 L390.3,142.9 L373.5,142.7 Z">
  <desc xmlns="http://www.highcharts.com/svg/namespace">
    <fips>05137</fips>
    <name>Stone</name>
    <hc-middle-x>0.43</hc-middle-x>
    <hc-middle-y>0.68</hc-middle-y>
    <hc-key>us-ar-137</hc-key>
    <hc-a2>ST</hc-a2>
  </desc>
</path>

<path fill="#CEE3F5" stroke="#6E6E6E" stroke-width="0.4" id="US.AR.125" d="M253.1,351.1 L253.5,341.0 L251.1,336.0 L241.2,335.8 L241.5,328.2 L226.5,327.7 L228.0,319.4 L228.3,304.2 L213.1,304.1 L213.4,289.2 L248.4,290.0 L261.1,294.8 L261.3,290.4 L273.9,290.8 L273.4,305.9 L288.4,306.5 L288.0,319.1 L295.6,319.4 L295.4,321.8 L303.6,322.2 L303.3,330.0 L317.4,330.3 L317.1,337.8 L332.1,338.1 L331.8,353.3 L309.2,352.8 L309.0,360.4 L282.4,359.6 L277.3,367.0 L270.9,366.8 L268.4,366.7 L268.6,356.5 L260.9,356.3 L261.0,351.2 Z">
  <desc xmlns="http://www.highcharts.com/svg/namespace">
    <fips>05125</fips>
    <name>Saline</name>
    <hc-middle-x>0.49</hc-middle-x>
    <hc-middle-y>0.46</hc-middle-y>
    <hc-key>us-ar-125</hc-key>
    <hc-a2>SA</hc-a2>
  </desc>
</path>

<path fill="#CEE3F5" stroke="#6E6E6E" stroke-width="0.4" id="US.AR.091" d="M95.1,594.1 L102.7,607.0 L68.1,606.3 L69.9,513.7 L76.5,511.8 L79.1,516.7 L81.1,509.0 L83.3,514.5 L86.5,508.8 L91.2,510.8 L97.2,504.0 L101.8,504.4 L101.5,510.1 L105.3,512.3 L109.2,523.8 L111.9,520.8 L116.4,526.8 L113.9,531.3 L117.5,536.5 L114.6,537.4 L119.8,545.8 L118.1,551.2 L124.3,553.0 L119.3,556.3 L120.1,562.9 L115.9,560.4 L118.6,567.9 L115.2,569.2 L111.5,578.6 L96.7,585.0 Z">
  <desc xmlns="http://www.highcharts.com/svg/namespace">
    <fips>05091</fips>
    <name>Miller</name>
    <hc-middle-x>0.41</hc-middle-x>
    <hc-middle-y>0.50</hc-middle-y>
    <hc-key>us-ar-091</hc-key>
    <hc-a2>MI</hc-a2>
  </desc>
</path>

<path fill="#CEE3F5" stroke="#6E6E6E" stroke-width="0.4" id="US.AR.143" d="M89.3,130.4 L66.5,129.3 L66.3,131.8 L14.2,129.0 L10.9,99.0 L7.4,69.2 L30.1,70.3 L30.5,62.8 L38.0,63.0 L38.7,50.4 L83.2,52.6 L89.4,53.4 L89.6,49.2 L101.5,48.3 L93.1,73.1 L91.1,117.9 Z">
  <desc xmlns="http://www.highcharts.com/svg/namespace">
    <fips>05143</fips>
    <name>Washington</name>
    <hc-middle-x>0.47</hc-middle-x>
    <hc-middle-y>0.65</hc-middle-y>
    <hc-key>us-ar-143</hc-key>
    <hc-a2>WA</hc-a2>
  </desc>
</path>

<path fill="#CEE3F5" stroke="#6E6E6E" stroke-width="0.4" id="US.AR.103" d="M204.6,533.2 L205.9,502.1 L207.0,476.9 L211.9,474.9 L217.4,478.2 L230.8,473.1 L234.0,469.4 L237.6,471.5 L274.5,472.8 L282.6,473.2 L282.3,484.6 L274.9,492.1 L273.1,497.1 L262.0,499.1 L260.3,504.7 L263.4,507.2 L263.7,513.3 L258.1,517.9 L255.6,526.5 L262.9,528.7 L261.7,532.4 L264.5,537.5 L272.0,537.1 L274.4,540.3 L281.8,543.4 L284.5,548.7 L280.6,547.6 L270.9,550.7 L256.4,545.0 L251.4,547.6 L224.5,546.5 L204.1,545.8 Z">
  <desc xmlns="http://www.highcharts.com/svg/namespace">
    <fips>05103</fips>
    <name>Ouachita</name>
    <hc-middle-x>0.38</hc-middle-x>
    <hc-middle-y>0.48</hc-middle-y>
    <hc-key>us-ar-103</hc-key>
    <hc-a2>OU</hc-a2>
  </desc>
</path>

<path fill="#CEE3F5" stroke="#6E6E6E" stroke-width="0.4" id="US.AR.039" d="M269.2,412.7 L295.9,413.8 L305.6,417.3 L313.3,426.1 L318.5,428.6 L299.0,429.0 L298.4,443.6 L301.2,443.6 L309.1,453.9 L309.8,458.6 L318.2,468.0 L318.7,474.6 L312.8,474.2 L282.6,473.2 L274.5,472.8 L237.6,471.5 L239.8,466.8 L236.8,463.3 L235.4,456.1 L237.8,455.3 L228.1,442.7 L229.8,440.7 L237.9,441.4 L239.2,411.4 L249.6,412.2 Z">
  <desc xmlns="http://www.highcharts.com/svg/namespace">
    <fips>05039</fips>
    <name>Dallas</name>
    <hc-middle-x>0.45</hc-middle-x>
    <hc-middle-y>0.49</hc-middle-y>
    <hc-key>us-ar-039</hc-key>
    <hc-a2>DA</hc-a2>
  </desc>
</path>

<path fill="#CEE3F5" stroke="#6E6E6E" stroke-width="0.4" id="US.AR.077" d="M595.2,292.5 L592.2,291.1 L590.7,283.6 L586.7,282.6 L584.2,287.8 L588.2,294.3 L586.1,298.0 L589.2,308.4 L586.1,311.2 L579.4,310.3 L581.9,302.8 L580.0,298.2 L575.3,302.2 L577.1,307.2 L572.6,311.9 L575.7,315.5 L585.6,315.6 L587.7,318.5 L580.1,327.8 L575.8,327.9 L576.4,318.1 L573.6,316.5 L569.7,321.0 L570.6,326.2 L523.7,326.4 L503.3,326.2 L503.5,310.9 L495.9,310.8 L496.0,287.8 L496.1,280.1 L517.2,280.7 L564.6,280.2 L594.9,280.2 L595.1,284.9 Z">
  <desc xmlns="http://www.highcharts.com/svg/namespace">
    <fips>05077</fips>
    <name>Lee</name>
    <hc-middle-x>0.38</hc-middle-x>
    <hc-middle-y>0.48</hc-middle-y>
    <hc-key>us-ar-077</hc-key>
    <hc-a2>LE</hc-a2>
  </desc>
</path>

<path fill="#CEE3F5" stroke="#6E6E6E" stroke-width="0.4" id="US.AR.017" d="M477.0,522.5 L478.9,516.3 L486.1,525.7 L478.6,536.1 L483.3,536.8 L488.2,533.7 L488.8,525.8 L494.6,530.1 L493.7,537.5 L482.4,542.0 L488.7,546.3 L495.4,544.7 L501.5,533.0 L504.4,537.6 L492.3,551.6 L492.5,560.4 L498.6,570.8 L500.8,564.0 L504.6,562.3 L505.8,568.6 L499.8,573.8 L500.6,586.9 L498.1,589.3 L486.5,587.7 L484.0,593.5 L495.3,601.1 L494.7,606.4 L489.3,611.6 L446.2,611.5 L446.0,564.8 L446.3,545.0 L446.5,527.1 L446.7,514.6 L461.8,514.5 L461.7,522.2 Z">
  <desc xmlns="http://www.highcharts.com/svg/namespace">
    <fips>05017</fips>
    <name>Chicot</name>
    <hc-middle-x>0.46</hc-middle-x>
    <hc-middle-y>0.56</hc-middle-y>
    <hc-key>us-ar-017</hc-key>
    <hc-a2>CH</hc-a2>
  </desc>
</path>
</g>

<text x="350" y="714" text-anchor="middle" font-family="Verdana" font-size="8" stroke-opacity="0.6">Copyright (c) 2020 Highsoft AS, Based on data from The United States Census Bureau</text>

</svg>