<?xml version="1.0" encoding="utf-8" standalone="no"?>
<!DOCTYPE svg PUBLIC "-//W3C//DTD SVG 1.1//EN" "http://www.w3.org/Graphics/SVG/1.1/DTD/svg11.dtd">

<svg version="1.1" height="700pt" width="700pt" xmlns="http://www.w3.org/2000/svg" xmlns:xlink="http://www.w3.org/1999/xlink">
<desc>
Map version: 1.1.3
Copyright (c) 2020 Highsoft AS, Based on data from The United States Census Bureau
</desc>
<title>Hawaii</title>
<g id="admin2">

<g id="US">
  <desc xmlns="http://www.highcharts.com/svg/namespace">
    <name>United States of America</name>
    <labelrank>2</labelrank>
    <country-abbrev>U.S.A.</country-abbrev>
    <subregion>Northern America</subregion>
    <region-wb>North America</region-wb>
    <iso-a3>USA</iso-a3>
    <iso-a2>US</iso-a2>
    <woe-id>23424977</woe-id>
    <continent>North America</continent>
    <hc-key>us</hc-key>
    <hc-a2>US</hc-a2>
  </desc>
</g>

<g id="US.HI">
  <desc xmlns="http://www.highcharts.com/svg/namespace">
    <labelrank>0</labelrank>
    <iso_3166_2>US-HI</iso_3166_2>
    <hasc>US.HI</hasc>
    <alt-name>HI|Hawaii</alt-name>
    <country>United States of America</country>
    <type-en>State</type-en>
    <region>West</region>
    <woe-id>2347570</woe-id>
    <longitude>-157.999</longitude>
    <subregion>Pacific</subregion>
    <woe-name>Hawaii</woe-name>
    <fips>US15</fips>
    <latitude>21.4919</latitude>
    <woe-label>Hawaii, US, United States</woe-label>
    <postal-code>HI</postal-code>
    <type>State</type>
    <name>Hawaii</name>
    <hc-key>us-hi</hc-key>
    <hc-a2>HA</hc-a2>
  </desc>
</g>

<path fill="#CEE3F5" stroke="#6E6E6E" stroke-width="0.4" id="US.HI.003" d="M271.1,94.4 L269.5,92.1 L269.2,89.8 L270.4,87.1 L271.7,85.7 L273.1,84.9 L277.2,84.2 L282.9,83.8 L286.6,83.4 L289.5,83.7 L292.6,82.5 L293.8,81.1 L295.8,79.5 L296.0,80.6 L298.1,76.2 L299.9,74.0 L301.8,72.8 L304.5,70.2 L306.7,69.8 L310.8,67.5 L313.0,67.4 L317.4,68.4 L319.8,70.1 L324.6,74.7 L327.1,79.7 L329.0,85.2 L329.8,86.2 L333.1,88.3 L334.4,89.8 L335.4,92.8 L336.5,94.9 L340.1,98.4 L344.7,97.9 L345.8,98.2 L348.8,100.3 L350.8,100.9 L353.0,104.0 L353.2,105.2 L351.8,108.2 L353.0,109.8 L353.9,112.6 L354.7,116.1 L357.1,119.0 L358.2,122.4 L358.3,126.3 L357.1,129.6 L353.9,132.4 L352.5,133.2 L351.6,134.6 L349.0,136.5 L347.3,137.1 L345.1,137.2 L342.4,136.7 L340.6,135.5 L337.5,137.3 L335.2,138.0 L332.9,138.3 L330.6,138.1 L327.0,136.5 L324.4,133.2 L322.3,131.9 L318.4,132.1 L314.6,130.9 L313.3,131.6 L307.1,132.0 L306.3,132.5 L301.5,132.8 L297.0,133.4 L294.1,132.7 L292.4,131.6 L290.6,129.0 L288.3,119.7 L287.7,118.7 L284.2,117.3 L282.9,115.9 L282.1,114.2 L281.6,111.4 L279.5,109.6 L277.3,106.6 L275.6,103.3 L275.7,100.6 L274.3,100.6 L274.7,97.1 Z">
  <desc xmlns="http://www.highcharts.com/svg/namespace">
    <fips>15003</fips>
    <name>Honolulu</name>
    <hc-key>us-hi-003</hc-key>
    <hc-a2>HO</hc-a2>
  </desc>
</path>

<path fill="#CEE3F5" stroke="#6E6E6E" stroke-width="0.4" id="US.HI.007" d="M131.1,57.3 L128.0,57.2 L121.1,55.7 L118.2,56.0 L115.9,55.4 L110.2,51.1 L109.2,49.8 L106.4,47.7 L103.5,47.1 L100.4,45.1 L98.9,44.7 L96.7,43.5 L94.9,41.9 L92.0,37.3 L90.8,35.9 L90.1,33.8 L90.0,30.8 L90.5,29.3 L90.4,26.4 L91.6,24.1 L96.9,19.1 L97.6,15.9 L99.5,13.3 L102.2,11.0 L107.3,9.3 L110.9,7.6 L113.8,5.5 L115.4,4.8 L118.7,2.0 L123.2,0.7 L126.5,0.8 L129.2,1.7 L131.3,0.9 L134.0,0.5 L139.3,1.0 L140.1,1.5 L142.6,0.2 L143.7,0.0 L146.4,0.9 L149.3,2.7 L151.8,3.1 L154.8,5.2 L156.9,7.3 L159.9,11.0 L162.3,15.7 L162.7,20.9 L162.6,22.6 L161.7,26.1 L160.6,27.5 L159.2,31.4 L157.6,34.3 L158.0,36.4 L157.8,38.9 L158.0,41.0 L157.4,44.0 L154.6,48.0 L150.7,50.8 L148.6,53.4 L143.0,57.2 L139.6,58.9 L138.2,59.3 L136.0,59.1 Z M35.6,54.6 L35.9,52.7 L37.4,49.2 L38.7,45.3 L40.5,43.4 L43.2,42.4 L45.6,39.8 L48.4,37.8 L51.4,36.5 L53.2,30.3 L54.2,27.9 L55.6,26.3 L57.5,25.3 L60.3,25.2 L63.3,25.9 L65.5,27.0 L67.2,29.4 L70.0,31.9 L72.5,36.7 L72.7,38.0 L71.4,41.2 L68.8,44.3 L69.4,46.8 L69.0,50.1 L68.3,52.1 L64.9,55.0 L60.8,56.9 L57.4,57.5 L54.9,60.7 L53.7,65.3 L51.5,68.2 L49.6,69.1 L45.7,69.5 L40.1,67.2 L38.6,65.7 L36.3,61.6 L35.7,57.9 Z M0.0,78.8 L0.1,76.5 L1.1,74.3 L2.7,72.5 L6.1,71.0 L8.3,71.1 L11.0,72.2 L13.2,74.6 L14.0,77.0 L13.8,81.2 L12.4,82.8 L9.5,84.6 L6.4,85.1 L3.5,84.2 L1.1,81.9 Z">
  <desc xmlns="http://www.highcharts.com/svg/namespace">
    <fips>15007</fips>
    <name>Kauai</name>
    <hc-key>us-hi-007</hc-key>
    <hc-a2>KA</hc-a2>
  </desc>
</path>

<path fill="#CEE3F5" stroke="#6E6E6E" stroke-width="0.4" id="US.HI.009" d="M480.4,195.9 L479.3,195.0 L474.7,195.0 L474.7,193.4 L472.9,193.1 L470.5,191.4 L469.0,189.4 L467.5,188.2 L463.1,183.4 L461.2,180.2 L461.0,177.5 L459.5,174.4 L459.5,170.0 L461.5,162.8 L464.6,158.1 L466.8,156.8 L469.2,153.9 L470.9,153.2 L473.6,153.0 L475.5,152.1 L478.7,151.9 L482.5,153.1 L484.4,154.8 L490.7,159.0 L492.5,161.1 L494.0,166.1 L495.5,167.4 L498.3,166.8 L501.0,166.7 L504.3,164.7 L507.0,164.2 L508.9,162.9 L511.1,162.7 L514.2,163.3 L516.6,162.9 L518.7,163.4 L521.0,164.7 L523.8,165.5 L526.1,167.0 L530.1,170.6 L533.2,173.8 L536.2,174.9 L538.0,176.1 L539.7,178.4 L543.6,179.6 L545.7,181.0 L549.5,181.9 L549.5,179.1 L554.4,179.0 L556.8,183.9 L558.0,188.3 L558.3,190.8 L558.1,193.7 L558.2,197.9 L556.1,203.1 L554.2,206.1 L548.9,211.1 L546.1,213.2 L543.1,214.1 L540.9,213.9 L537.4,215.9 L533.4,217.6 L528.4,217.2 L526.2,216.7 L519.7,220.1 L519.7,219.6 L514.8,221.8 L507.6,222.1 L504.7,222.5 L499.3,221.8 L494.5,219.2 L491.6,216.5 L491.1,219.1 L491.8,220.4 L492.2,222.7 L491.0,226.5 L488.3,229.7 L485.7,231.2 L482.1,231.2 L479.7,231.8 L477.6,231.4 L470.9,231.9 L469.0,231.8 L465.1,232.3 L459.8,232.3 L459.7,225.7 L459.1,224.0 L459.2,220.9 L460.6,217.7 L461.7,216.2 L465.2,213.3 L468.8,212.0 L471.1,210.8 L474.7,208.2 L478.0,206.6 L483.7,206.6 L485.9,203.9 L488.6,202.6 L490.2,202.3 L488.3,196.8 L484.1,197.2 Z M415.7,177.2 L416.4,172.2 L417.8,170.0 L419.1,168.8 L423.8,166.2 L425.5,165.7 L431.0,165.4 L434.0,165.9 L440.1,166.3 L445.5,168.0 L448.0,169.7 L450.9,172.3 L453.2,175.3 L454.8,176.8 L458.8,182.3 L459.7,185.4 L459.7,187.8 L457.4,192.4 L455.8,195.0 L454.3,196.9 L451.7,198.8 L448.3,199.9 L444.7,202.5 L443.2,202.7 L440.5,202.2 L437.4,202.3 L434.2,203.2 L430.4,202.1 L428.7,200.6 L426.5,197.7 L425.2,195.0 L424.3,192.5 L424.1,190.0 L424.5,187.5 L424.0,186.1 L420.8,185.3 L418.4,182.8 L416.6,180.0 Z M428.0,130.7 L428.0,140.6 L429.3,141.1 L431.7,141.0 L432.9,141.5 L433.9,143.4 L434.5,141.0 L434.7,143.3 L435.6,144.2 L436.7,143.4 L438.3,146.2 L439.6,147.2 L441.7,147.0 L441.9,145.0 L439.7,142.9 L439.2,143.0 L441.8,138.6 L445.2,134.4 L447.3,135.5 L448.8,135.5 L454.3,134.1 L457.1,134.2 L459.7,134.8 L463.0,135.1 L467.3,137.0 L468.5,138.0 L470.5,140.6 L471.5,145.3 L471.6,146.6 L470.7,149.1 L468.9,151.5 L466.4,152.5 L464.7,154.4 L461.4,156.5 L459.7,158.0 L458.3,158.4 L455.5,160.4 L453.5,160.8 L450.1,163.3 L449.3,163.5 L444.7,163.5 L444.7,164.3 L440.0,163.9 L437.5,162.7 L434.2,161.9 L432.9,160.8 L426.8,158.7 L423.8,158.2 L421.1,156.3 L417.5,156.3 L414.3,157.4 L403.9,157.8 L402.1,158.1 L395.1,157.7 L391.3,157.1 L388.0,154.4 L385.9,150.8 L386.0,147.8 L387.9,143.7 L390.4,139.9 L392.5,137.8 L392.2,134.5 L392.6,132.8 L394.8,130.1 L397.2,128.7 L400.6,128.3 L402.1,128.8 L403.4,128.5 L405.9,128.7 L407.8,129.4 L410.8,131.1 L413.6,131.4 L414.8,131.2 L416.7,131.8 L418.9,131.8 L422.9,132.8 L426.2,132.8 Z">
  <desc xmlns="http://www.highcharts.com/svg/namespace">
    <fips>15009</fips>
    <name>Maui</name>
    <hc-key>us-hi-009</hc-key>
    <hc-a2>MA</hc-a2>
  </desc>
</path>

<path fill="#CEE3F5" stroke="#6E6E6E" stroke-width="0.4" id="US.HI.001" d="M535.7,322.7 L536.9,318.5 L537.1,315.9 L538.5,312.8 L540.5,310.7 L543.6,309.1 L548.5,303.3 L551.7,301.6 L554.5,300.8 L555.9,296.7 L557.3,294.2 L559.7,291.3 L563.8,287.0 L562.5,284.8 L558.0,278.8 L556.6,275.1 L554.9,268.2 L554.6,264.4 L554.9,259.7 L556.1,256.3 L558.6,252.5 L561.0,250.7 L563.8,249.5 L566.5,248.9 L569.4,248.8 L574.7,250.2 L576.8,251.6 L579.6,252.1 L582.6,253.9 L585.6,256.2 L587.2,258.3 L588.5,258.8 L590.8,260.7 L594.0,262.1 L597.1,264.7 L600.4,266.4 L602.5,265.9 L605.0,266.4 L608.9,267.8 L611.6,268.3 L617.4,270.3 L622.2,272.2 L625.6,274.3 L631.9,277.3 L634.2,278.6 L639.7,280.9 L644.6,284.0 L653.3,290.1 L655.5,292.4 L659.8,296.1 L661.7,299.0 L664.6,301.6 L666.4,304.5 L666.6,308.9 L666.1,311.1 L666.3,314.8 L667.3,315.2 L671.0,315.3 L673.0,316.2 L676.1,319.3 L677.3,321.5 L679.1,325.9 L679.0,329.8 L681.1,331.2 L683.1,334.5 L685.6,337.0 L691.9,339.8 L697.3,344.0 L699.6,346.9 L700.0,348.9 L699.5,351.5 L697.7,357.0 L696.4,359.1 L693.6,362.2 L689.1,366.1 L684.1,369.3 L679.6,373.6 L678.1,375.4 L671.1,379.0 L664.9,381.2 L663.5,382.4 L661.3,382.9 L661.3,383.6 L658.2,385.5 L649.0,388.6 L643.2,388.3 L639.8,387.1 L635.0,390.0 L632.3,393.2 L629.7,394.9 L623.8,397.1 L622.0,399.6 L619.3,401.8 L614.8,403.3 L611.3,406.3 L608.5,414.4 L606.3,416.8 L605.3,420.2 L602.9,423.7 L600.7,425.3 L596.8,429.3 L595.1,430.7 L591.2,432.4 L587.4,432.4 L584.0,430.4 L581.9,426.0 L576.8,424.0 L571.2,419.8 L568.5,419.5 L565.5,418.6 L560.9,415.9 L559.4,414.6 L557.6,411.1 L556.0,408.9 L553.7,402.8 L553.5,397.6 L554.7,390.3 L555.5,386.5 L555.6,382.8 L556.7,378.9 L557.1,372.1 L554.6,366.8 L552.9,359.3 L550.3,356.8 L548.6,352.5 L547.4,344.5 L545.8,340.1 L541.1,337.2 L539.6,334.1 L539.4,332.1 L537.5,327.9 L535.8,324.8 Z">
  <desc xmlns="http://www.highcharts.com/svg/namespace">
    <fips>15001</fips>
    <name>Hawaii</name>
    <hc-key>us-hi-001</hc-key>
    <hc-a2>HA</hc-a2>
  </desc>
</path>

<path fill="#CEE3F5" stroke="#6E6E6E" stroke-width="0.4" id="US.HI.005" d="M428.0,130.7 L430.9,129.1 L433.2,129.0 L435.5,129.7 L438.4,131.3 L440.5,134.7 L443.4,134.1 L445.2,134.4 L441.8,138.6 L439.2,143.0 L439.7,142.9 L441.9,145.0 L441.7,147.0 L439.6,147.2 L438.3,146.2 L436.7,143.4 L435.6,144.2 L434.7,143.3 L434.5,141.0 L433.9,143.4 L432.9,141.5 L431.7,141.0 L429.3,141.1 L428.0,140.6 Z">
  <desc xmlns="http://www.highcharts.com/svg/namespace">
    <fips>15005</fips>
    <name>Kalawao</name>
    <hc-key>us-hi-005</hc-key>
    <hc-a2>KA</hc-a2>
  </desc>
</path>
</g>

<text x="350" y="714" text-anchor="middle" font-family="Verdana" font-size="8" stroke-opacity="0.6">Copyright (c) 2020 Highsoft AS, Based on data from The United States Census Bureau</text>

</svg>