<?xml version="1.0" encoding="utf-8" standalone="no"?>
<!DOCTYPE svg PUBLIC "-//W3C//DTD SVG 1.1//EN" "http://www.w3.org/Graphics/SVG/1.1/DTD/svg11.dtd">

<svg version="1.1" height="700pt" width="700pt" xmlns="http://www.w3.org/2000/svg" xmlns:xlink="http://www.w3.org/1999/xlink">
<desc>
Map version: 1.1.3
Copyright (c) 2020 Highsoft AS, Based on data from The United States Census Bureau
</desc>
<title>Illinois</title>
<g id="admin2">

<g id="US.IL">
  <desc xmlns="http://www.highcharts.com/svg/namespace">
    <labelrank>0</labelrank>
    <hasc>US.IL</hasc>
    <alt-name>IL|Ill.</alt-name>
    <woe-id>2347572</woe-id>
    <subregion>East North Central</subregion>
    <fips>US17</fips>
    <postal-code>IL</postal-code>
    <name>Illinois</name>
    <country>United States of America</country>
    <type-en>State</type-en>
    <region>Midwest</region>
    <longitude>-89.1991</longitude>
    <woe-name>Illinois</woe-name>
    <latitude>39.946</latitude>
    <woe-label>Illinois, US, United States</woe-label>
    <type>State</type>
    <hc-key>us-il</hc-key>
    <hc-a2>IL</hc-a2>
  </desc>
</g>

<g id="US">
  <desc xmlns="http://www.highcharts.com/svg/namespace">
    <name>United States of America</name>
    <labelrank>2</labelrank>
    <country-abbrev>U.S.A.</country-abbrev>
    <subregion>Northern America</subregion>
    <region-wb>North America</region-wb>
    <iso-a3>USA</iso-a3>
    <iso-a2>US</iso-a2>
    <woe-id>23424977</woe-id>
    <continent>North America</continent>
    <hc-key>us</hc-key>
    <hc-a2>US</hc-a2>
  </desc>
</g>

<path fill="#CEE3F5" stroke="#6E6E6E" stroke-width="0.4" id="US.IL.003" d="M191.7,654.9 L204.3,655.1 L215.6,655.2 L219.8,656.9 L220.2,661.0 L215.8,664.1 L213.5,674.6 L214.4,678.9 L212.8,681.4 L214.8,684.9 L220.5,686.7 L223.0,688.9 L222.8,696.1 L226.9,699.8 L220.9,700.0 L219.8,695.1 L214.1,689.3 L209.3,688.6 L209.9,691.7 L214.3,695.5 L210.8,698.4 L208.7,696.2 L202.3,692.4 L202.2,685.4 L197.5,679.8 L193.9,672.0 L194.1,665.6 L191.3,665.4 L188.4,661.0 Z">
  <desc xmlns="http://www.highcharts.com/svg/namespace">
    <fips>17003</fips>
    <name>Alexander</name>
    <hc-middle-x>0.27</hc-middle-x>
    <hc-middle-y>0.24</hc-middle-y>
    <hc-key>us-il-003</hc-key>
    <hc-a2>AL</hc-a2>
  </desc>
</path>

<path fill="#CEE3F5" stroke="#6E6E6E" stroke-width="0.4" id="US.IL.181" d="M215.6,655.2 L204.3,655.1 L191.7,654.9 L196.7,653.8 L198.3,647.6 L196.5,642.1 L193.4,638.4 L188.9,629.6 L188.5,625.0 L193.2,626.3 L195.7,621.5 L225.5,621.8 L233.0,622.2 L236.7,622.4 L236.3,640.3 L236.1,656.0 L230.6,655.5 Z">
  <desc xmlns="http://www.highcharts.com/svg/namespace">
    <fips>17181</fips>
    <name>Union</name>
    <hc-middle-x>0.49</hc-middle-x>
    <hc-middle-y>0.49</hc-middle-y>
    <hc-key>us-il-181</hc-key>
    <hc-a2>UN</hc-a2>
  </desc>
</path>

<path fill="#CEE3F5" stroke="#6E6E6E" stroke-width="0.4" id="US.IL.187" d="M71.6,236.0 L72.4,213.5 L73.6,181.3 L96.0,182.5 L106.6,182.8 L105.5,215.1 L105.1,226.9 L104.8,234.2 L104.7,237.8 L82.9,236.8 L71.6,236.0 Z">
  <desc xmlns="http://www.highcharts.com/svg/namespace">
    <fips>17187</fips>
    <name>Warren</name>
    <hc-middle-x>0.50</hc-middle-x>
    <hc-middle-y>0.50</hc-middle-y>
    <hc-key>us-il-187</hc-key>
    <hc-a2>WA</hc-a2>
  </desc>
</path>

<path fill="#CEE3F5" stroke="#6E6E6E" stroke-width="0.4" id="US.IL.109" d="M71.6,236.0 L82.9,236.8 L104.7,237.8 L103.7,270.6 L103.2,282.2 L81.2,281.3 L58.8,280.0 L60.3,242.2 L60.6,235.2 L67.4,235.7 L71.6,236.0 Z">
  <desc xmlns="http://www.highcharts.com/svg/namespace">
    <fips>17109</fips>
    <name>McDonough</name>
    <hc-middle-x>0.50</hc-middle-x>
    <hc-middle-y>0.50</hc-middle-y>
    <hc-key>us-il-109</hc-key>
    <hc-a2>MC</hc-a2>
  </desc>
</path>

<path fill="#CEE3F5" stroke="#6E6E6E" stroke-width="0.4" id="US.IL.147" d="M293.5,284.0 L295.5,283.9 L295.2,291.3 L295.2,334.7 L295.2,345.7 L294.2,345.7 L279.3,345.6 L267.6,345.6 L267.6,338.2 L267.8,312.4 L267.8,306.9 L273.4,307.0 L273.4,301.5 L284.4,283.9 L284.4,283.9 Z">
  <desc xmlns="http://www.highcharts.com/svg/namespace">
    <fips>17147</fips>
    <name>Piatt</name>
    <hc-middle-x>0.50</hc-middle-x>
    <hc-middle-y>0.61</hc-middle-y>
    <hc-key>us-il-147</hc-key>
    <hc-a2>PI</hc-a2>
  </desc>
</path>

<path fill="#CEE3F5" stroke="#6E6E6E" stroke-width="0.4" id="US.IL.113" d="M293.5,284.0 L284.4,283.9 L284.4,283.9 L238.3,283.5 L229.0,283.5 L218.0,283.6 L217.9,278.0 L217.9,260.5 L217.7,244.0 L217.7,244.0 L217.7,244.0 L217.7,244.0 L217.7,244.0 L217.7,244.0 L217.7,244.0 L217.7,244.0 L230.8,243.8 L233.9,240.3 L239.4,240.0 L239.4,235.4 L245.2,235.4 L245.1,224.3 L250.6,224.2 L250.6,224.2 L283.7,223.9 L284.6,241.7 L295.6,241.6 L295.6,258.2 L295.6,269.2 L295.5,274.3 L295.5,283.9 Z">
  <desc xmlns="http://www.highcharts.com/svg/namespace">
    <fips>17113</fips>
    <name>McLean</name>
    <hc-middle-x>0.50</hc-middle-x>
    <hc-middle-y>0.50</hc-middle-y>
    <hc-key>us-il-113</hc-key>
    <hc-a2>MC</hc-a2>
  </desc>
</path>

<path fill="#CEE3F5" stroke="#6E6E6E" stroke-width="0.4" id="US.IL.195" d="M127.4,92.5 L132.6,90.1 L136.4,74.3 L152.9,74.3 L180.3,74.9 L185.7,75.0 L185.6,78.6 L184.8,107.6 L184.8,118.6 L170.1,118.4 L162.9,118.3 L162.9,118.3 L151.7,118.2 L132.3,117.6 L134.3,116.1 L134.7,110.2 L128.3,106.1 L127.0,102.7 L128.0,98.4 Z">
  <desc xmlns="http://www.highcharts.com/svg/namespace">
    <fips>17195</fips>
    <name>Whiteside</name>
    <hc-middle-x>0.50</hc-middle-x>
    <hc-middle-y>0.50</hc-middle-y>
    <hc-key>us-il-195</hc-key>
    <hc-a2>WH</hc-a2>
  </desc>
</path>

<path fill="#CEE3F5" stroke="#6E6E6E" stroke-width="0.4" id="US.IL.089" d="M314.5,101.9 L313.6,101.9 L282.4,102.5 L282.5,58.7 L283.8,58.7 L283.8,47.7 L293.8,47.6 L316.7,47.6 L316.7,58.7 L314.3,58.7 L314.4,68.8 L314.4,92.4 L314.6,101.9 L314.5,101.9 Z">
  <desc xmlns="http://www.highcharts.com/svg/namespace">
    <fips>17089</fips>
    <name>Kane</name>
    <hc-middle-x>0.50</hc-middle-x>
    <hc-middle-y>0.50</hc-middle-y>
    <hc-key>us-il-089</hc-key>
    <hc-a2>KA</hc-a2>
  </desc>
</path>

<path fill="#CEE3F5" stroke="#6E6E6E" stroke-width="0.4" id="US.IL.043" d="M314.5,101.9 L314.4,92.4 L314.4,68.8 L346.6,67.8 L346.7,82.0 L347.4,102.8 L342.4,106.6 L336.5,106.8 L336.4,101.3 L314.6,101.9 L314.5,101.9 Z">
  <desc xmlns="http://www.highcharts.com/svg/namespace">
    <fips>17043</fips>
    <name>DuPage</name>
    <hc-middle-x>0.49</hc-middle-x>
    <hc-middle-y>0.50</hc-middle-y>
    <hc-key>us-il-043</hc-key>
    <hc-a2>DU</hc-a2>
  </desc>
</path>

<path fill="#CEE3F5" stroke="#6E6E6E" stroke-width="0.4" id="US.IL.119" d="M116.4,453.2 L116.8,443.7 L129.3,443.8 L135.4,444.2 L173.4,444.8 L177.8,444.8 L179.2,444.8 L179.2,444.8 L179.2,460.6 L182.9,460.6 L182.9,477.2 L183.0,488.2 L171.9,488.1 L150.0,487.4 L125.0,486.6 L122.0,480.1 L126.7,472.5 L131.6,468.4 L132.2,462.9 Z">
  <desc xmlns="http://www.highcharts.com/svg/namespace">
    <fips>17119</fips>
    <name>Madison</name>
    <hc-middle-x>0.60</hc-middle-x>
    <hc-middle-y>0.50</hc-middle-y>
    <hc-key>us-il-119</hc-key>
    <hc-a2>MA</hc-a2>
  </desc>
</path>

<path fill="#CEE3F5" stroke="#6E6E6E" stroke-width="0.4" id="US.IL.083" d="M129.3,443.8 L116.8,443.7 L116.4,453.2 L113.0,453.1 L104.9,448.5 L99.2,447.3 L92.4,448.9 L87.6,443.8 L86.7,434.6 L84.7,428.0 L87.7,420.4 L91.5,418.7 L96.2,421.0 L113.3,421.5 L113.4,415.1 L124.4,415.3 L124.3,411.1 L129.8,410.8 L129.8,420.0 Z">
  <desc xmlns="http://www.highcharts.com/svg/namespace">
    <fips>17083</fips>
    <name>Jersey</name>
    <hc-middle-x>0.42</hc-middle-x>
    <hc-middle-y>0.58</hc-middle-y>
    <hc-key>us-il-083</hc-key>
    <hc-a2>JE</hc-a2>
  </desc>
</path>

<path fill="#CEE3F5" stroke="#6E6E6E" stroke-width="0.4" id="US.IL.193" d="M303.6,583.3 L303.7,568.8 L304.1,539.7 L304.1,539.6 L304.1,539.5 L304.1,539.5 L304.1,539.5 L304.1,539.6 L304.1,539.6 L304.1,539.5 L315.5,539.3 L325.9,539.4 L325.9,539.4 L325.9,539.4 L325.9,539.4 L338.2,539.5 L341.8,538.9 L341.9,539.2 L342.1,539.3 L342.7,545.6 L349.8,551.2 L346.5,555.6 L339.7,558.6 L340.5,561.1 L344.9,559.1 L344.3,563.2 L336.8,565.9 L339.3,567.3 L339.8,574.6 L337.4,577.2 L339.7,585.0 L331.9,585.5 L327.5,583.4 L303.6,583.4 Z M325.9,539.4 L325.9,539.4 L325.9,539.4 L325.9,539.4 L325.9,539.4 Z">
  <desc xmlns="http://www.highcharts.com/svg/namespace">
    <fips>17193</fips>
    <name>White</name>
    <hc-middle-x>0.36</hc-middle-x>
    <hc-middle-y>0.49</hc-middle-y>
    <hc-key>us-il-193</hc-key>
    <hc-a2>WH</hc-a2>
  </desc>
</path>

<path fill="#CEE3F5" stroke="#6E6E6E" stroke-width="0.4" id="US.IL.059" d="M303.6,583.3 L327.5,583.4 L331.9,585.5 L335.2,590.8 L338.3,592.1 L336.7,594.2 L332.1,594.8 L338.3,597.0 L336.2,602.6 L328.6,608.7 L325.1,615.1 L327.8,625.4 L323.2,622.3 L303.6,622.3 L303.7,605.8 L303.6,583.4 Z">
  <desc xmlns="http://www.highcharts.com/svg/namespace">
    <fips>17059</fips>
    <name>Gallatin</name>
    <hc-middle-x>0.50</hc-middle-x>
    <hc-middle-y>0.34</hc-middle-y>
    <hc-key>us-il-059</hc-key>
    <hc-a2>GA</hc-a2>
  </desc>
</path>

<path fill="#CEE3F5" stroke="#6E6E6E" stroke-width="0.4" id="US.IL.019" d="M346.4,269.0 L346.9,290.9 L345.6,291.0 L346.2,334.6 L328.3,334.6 L295.2,334.7 L295.2,291.3 L295.5,283.9 L295.5,274.3 L295.6,269.2 L328.7,268.9 L346.5,269.0 Z">
  <desc xmlns="http://www.highcharts.com/svg/namespace">
    <fips>17019</fips>
    <name>Champaign</name>
    <hc-middle-x>0.50</hc-middle-x>
    <hc-middle-y>0.50</hc-middle-y>
    <hc-key>us-il-019</hc-key>
    <hc-a2>CH</hc-a2>
  </desc>
</path>

<path fill="#CEE3F5" stroke="#6E6E6E" stroke-width="0.4" id="US.IL.053" d="M346.4,269.0 L328.7,268.9 L295.6,269.2 L295.6,258.2 L295.6,241.6 L317.2,241.5 L316.0,194.0 L319.7,193.9 L327.0,193.6 L328.5,246.9 L328.5,257.9 L346.1,258.1 L346.5,269.0 Z">
  <desc xmlns="http://www.highcharts.com/svg/namespace">
    <fips>17053</fips>
    <name>Ford</name>
    <hc-middle-x>0.32</hc-middle-x>
    <hc-middle-y>0.82</hc-middle-y>
    <hc-key>us-il-053</hc-key>
    <hc-a2>FO</hc-a2>
  </desc>
</path>

<path fill="#CEE3F5" stroke="#6E6E6E" stroke-width="0.4" id="US.IL.041" d="M346.2,334.6 L346.3,345.6 L343.2,345.6 L343.5,359.0 L334.1,359.6 L334.1,363.3 L294.2,363.4 L294.2,352.7 L294.2,345.7 L295.2,345.7 L295.2,334.7 L328.3,334.6 Z">
  <desc xmlns="http://www.highcharts.com/svg/namespace">
    <fips>17041</fips>
    <name>Douglas</name>
    <hc-middle-x>0.50</hc-middle-x>
    <hc-middle-y>0.50</hc-middle-y>
    <hc-key>us-il-041</hc-key>
    <hc-a2>DO</hc-a2>
  </desc>
</path>

<path fill="#CEE3F5" stroke="#6E6E6E" stroke-width="0.4" id="US.IL.045" d="M343.5,359.0 L343.2,345.6 L346.3,345.6 L346.2,334.6 L377.6,334.1 L377.4,335.8 L383.2,335.7 L380.8,334.0 L385.5,333.9 L385.6,343.9 L386.1,385.1 L370.7,385.3 L370.9,383.9 L344.2,384.8 L344.0,379.3 Z">
  <desc xmlns="http://www.highcharts.com/svg/namespace">
    <fips>17045</fips>
    <name>Edgar</name>
    <hc-middle-x>0.66</hc-middle-x>
    <hc-middle-y>0.63</hc-middle-y>
    <hc-key>us-il-045</hc-key>
    <hc-a2>ED</hc-a2>
  </desc>
</path>

<path fill="#CEE3F5" stroke="#6E6E6E" stroke-width="0.4" id="US.IL.007" d="M250.8,47.7 L250.8,35.7 L251.1,4.4 L266.4,4.9 L272.8,4.7 L272.9,17.0 L272.8,47.7 L263.6,47.6 Z">
  <desc xmlns="http://www.highcharts.com/svg/namespace">
    <fips>17007</fips>
    <name>Boone</name>
    <hc-middle-x>0.50</hc-middle-x>
    <hc-middle-y>0.50</hc-middle-y>
    <hc-key>us-il-007</hc-key>
    <hc-a2>BO</hc-a2>
  </desc>
</path>

<path fill="#CEE3F5" stroke="#6E6E6E" stroke-width="0.4" id="US.IL.201" d="M250.8,35.7 L250.8,47.7 L228.9,47.8 L229.0,40.9 L208.0,41.0 L208.1,19.1 L208.0,3.3 L221.0,3.8 L251.0,4.4 Z">
  <desc xmlns="http://www.highcharts.com/svg/namespace">
    <fips>17201</fips>
    <name>Winnebago</name>
    <hc-middle-x>0.50</hc-middle-x>
    <hc-middle-y>0.50</hc-middle-y>
    <hc-key>us-il-201</hc-key>
    <hc-a2>WI</hc-a2>
  </desc>
</path>

<path fill="#CEE3F5" stroke="#6E6E6E" stroke-width="0.4" id="US.IL.155" d="M228.8,153.8 L228.8,162.0 L228.6,179.8 L209.9,179.7 L212.8,174.1 L199.7,173.9 L199.8,163.1 L210.3,163.3 L212.5,154.8 L219.7,152.1 Z">
  <desc xmlns="http://www.highcharts.com/svg/namespace">
    <fips>17155</fips>
    <name>Putnam</name>
    <hc-middle-x>0.50</hc-middle-x>
    <hc-middle-y>0.50</hc-middle-y>
    <hc-key>us-il-155</hc-key>
    <hc-a2>PU</hc-a2>
  </desc>
</path>

<path fill="#CEE3F5" stroke="#6E6E6E" stroke-width="0.4" id="US.IL.099" d="M228.6,179.8 L228.8,162.0 L228.8,153.8 L228.7,130.4 L228.8,119.1 L228.8,119.1 L228.8,119.1 L228.8,119.1 L228.8,119.1 L228.8,119.1 L228.8,113.6 L250.5,113.8 L261.8,113.5 L282.3,113.6 L282.5,123.1 L282.8,135.6 L283.4,157.6 L283.6,179.6 L250.7,179.8 L250.5,202.2 L244.1,202.3 L239.4,202.4 L239.6,179.8 Z">
  <desc xmlns="http://www.highcharts.com/svg/namespace">
    <fips>17099</fips>
    <name>LaSalle</name>
    <hc-middle-x>0.50</hc-middle-x>
    <hc-middle-y>0.37</hc-middle-y>
    <hc-key>us-il-099</hc-key>
    <hc-a2>LA</hc-a2>
  </desc>
</path>

<path fill="#CEE3F5" stroke="#6E6E6E" stroke-width="0.4" id="US.IL.121" d="M272.1,467.5 L271.9,477.3 L271.6,495.2 L271.5,508.6 L271.5,511.8 L249.4,511.4 L227.3,511.6 L227.4,510.4 L227.4,508.0 L227.9,494.2 L228.2,478.5 L228.4,467.5 L239.0,467.7 Z">
  <desc xmlns="http://www.highcharts.com/svg/namespace">
    <fips>17121</fips>
    <name>Marion</name>
    <hc-middle-x>0.50</hc-middle-x>
    <hc-middle-y>0.50</hc-middle-y>
    <hc-key>us-il-121</hc-key>
    <hc-a2>MA</hc-a2>
  </desc>
</path>

<path fill="#CEE3F5" stroke="#6E6E6E" stroke-width="0.4" id="US.IL.025" d="M271.6,495.2 L271.9,477.3 L272.1,467.5 L272.2,460.9 L272.3,456.3 L272.3,456.3 L272.3,456.3 L272.3,456.3 L272.3,456.3 L285.5,456.3 L305.0,456.9 L305.0,464.3 L315.1,464.9 L315.2,479.5 L312.7,479.5 L313.8,488.2 L311.3,491.7 L315.6,496.1 L282.9,495.1 Z M272.3,456.3 L272.3,456.3 L272.3,456.3 L272.3,456.3 L272.3,456.3 L272.3,456.3 L272.3,456.3 Z">
  <desc xmlns="http://www.highcharts.com/svg/namespace">
    <fips>17025</fips>
    <name>Clay</name>
    <hc-middle-x>0.51</hc-middle-x>
    <hc-middle-y>0.50</hc-middle-y>
    <hc-key>us-il-025</hc-key>
    <hc-a2>CL</hc-a2>
  </desc>
</path>

<path fill="#CEE3F5" stroke="#6E6E6E" stroke-width="0.4" id="US.IL.197" d="M384.4,133.6 L384.5,141.5 L384.5,155.3 L338.2,156.3 L338.4,167.3 L316.3,167.9 L315.9,155.1 L315.5,134.9 L314.8,113.0 L314.6,101.9 L336.4,101.3 L336.5,106.8 L336.7,112.3 L347.7,112.0 L347.9,123.0 L359.0,122.7 L359.3,133.9 Z">
  <desc xmlns="http://www.highcharts.com/svg/namespace">
    <fips>17197</fips>
    <name>Will</name>
    <hc-middle-x>0.33</hc-middle-x>
    <hc-middle-y>0.60</hc-middle-y>
    <hc-key>us-il-197</hc-key>
    <hc-a2>WI</hc-a2>
  </desc>
</path>

<path fill="#CEE3F5" stroke="#6E6E6E" stroke-width="0.4" id="US.IL.049" d="M305.0,456.9 L285.5,456.3 L272.3,456.3 L272.3,456.3 L272.3,456.3 L272.3,456.3 L272.3,456.3 L272.3,456.3 L272.3,456.3 L272.3,456.3 L272.3,456.3 L272.3,456.3 L272.3,456.3 L261.1,456.7 L261.4,418.2 L273.7,418.3 L294.3,418.5 L294.3,424.0 L305.1,424.0 L305.1,424.0 L304.9,445.5 Z">
  <desc xmlns="http://www.highcharts.com/svg/namespace">
    <fips>17049</fips>
    <name>Effingham</name>
    <hc-middle-x>0.65</hc-middle-x>
    <hc-middle-y>0.67</hc-middle-y>
    <hc-key>us-il-049</hc-key>
    <hc-a2>EF</hc-a2>
  </desc>
</path>

<path fill="#CEE3F5" stroke="#6E6E6E" stroke-width="0.4" id="US.IL.051" d="M261.4,418.2 L261.1,456.7 L272.3,456.3 L272.3,456.3 L272.3,456.3 L272.3,456.3 L272.2,460.9 L272.1,467.5 L239.0,467.7 L228.4,467.5 L228.2,478.5 L217.7,477.8 L216.8,477.7 L216.8,445.3 L217.5,441.6 L217.8,417.7 L228.6,417.8 L239.7,418.2 Z M272.3,456.3 L272.3,456.3 L272.3,456.3 L272.3,456.3 Z">
  <desc xmlns="http://www.highcharts.com/svg/namespace">
    <fips>17051</fips>
    <name>Fayette</name>
    <hc-middle-x>0.38</hc-middle-x>
    <hc-middle-y>0.28</hc-middle-y>
    <hc-key>us-il-051</hc-key>
    <hc-a2>FA</hc-a2>
  </desc>
</path>

<path fill="#CEE3F5" stroke="#6E6E6E" stroke-width="0.4" id="US.IL.035" d="M294.3,398.4 L320.5,398.3 L339.2,397.8 L339.3,401.4 L339.7,423.6 L323.9,424.0 L305.1,424.0 L305.1,424.0 L294.3,424.0 L294.3,418.5 L294.3,402.1 L294.3,398.4 L294.3,398.4 L294.3,398.4 L294.3,398.4 Z">
  <desc xmlns="http://www.highcharts.com/svg/namespace">
    <fips>17035</fips>
    <name>Cumberland</name>
    <hc-middle-x>0.64</hc-middle-x>
    <hc-middle-y>0.50</hc-middle-y>
    <hc-key>us-il-035</hc-key>
    <hc-a2>CU</hc-a2>
  </desc>
</path>

<path fill="#CEE3F5" stroke="#6E6E6E" stroke-width="0.4" id="US.IL.163" d="M116.4,504.0 L123.7,494.4 L125.0,486.6 L150.0,487.4 L171.9,488.1 L171.9,501.0 L171.7,518.3 L171.5,535.0 L171.5,543.1 L162.3,542.9 L152.0,542.6 L149.6,536.5 L151.9,534.1 L150.8,531.6 L138.5,531.2 L138.6,529.4 L127.9,518.0 L128.0,516.2 Z">
  <desc xmlns="http://www.highcharts.com/svg/namespace">
    <fips>17163</fips>
    <name>St. Clair</name>
    <hc-middle-x>0.62</hc-middle-x>
    <hc-middle-y>0.38</hc-middle-y>
    <hc-key>us-il-163</hc-key>
    <hc-a2>SC</hc-a2>
  </desc>
</path>

<path fill="#CEE3F5" stroke="#6E6E6E" stroke-width="0.4" id="US.IL.027" d="M171.7,518.3 L171.9,501.0 L171.9,488.1 L183.0,488.2 L182.9,477.2 L192.5,477.6 L216.8,477.7 L217.7,477.8 L228.2,478.5 L227.9,494.2 L227.4,508.0 L212.2,507.5 L206.0,506.0 L205.5,508.0 L199.2,508.2 L193.9,512.0 L189.3,510.4 L180.7,511.3 L179.4,514.0 L175.9,514.6 Z">
  <desc xmlns="http://www.highcharts.com/svg/namespace">
    <fips>17027</fips>
    <name>Clinton</name>
    <hc-middle-x>0.38</hc-middle-x>
    <hc-middle-y>0.35</hc-middle-y>
    <hc-key>us-il-027</hc-key>
    <hc-a2>CL</hc-a2>
  </desc>
</path>

<path fill="#CEE3F5" stroke="#6E6E6E" stroke-width="0.4" id="US.IL.189" d="M226.8,544.6 L208.5,544.3 L182.4,543.3 L178.8,543.2 L171.5,543.1 L171.5,535.0 L171.7,518.3 L175.9,514.6 L179.4,514.0 L180.7,511.3 L189.3,510.4 L193.9,512.0 L199.2,508.2 L205.5,508.0 L206.0,506.0 L212.2,507.5 L227.4,508.0 L227.4,510.4 L227.3,511.6 L227.1,526.6 Z">
  <desc xmlns="http://www.highcharts.com/svg/namespace">
    <fips>17189</fips>
    <name>Washington</name>
    <hc-middle-x>0.73</hc-middle-x>
    <hc-middle-y>0.50</hc-middle-y>
    <hc-key>us-il-189</hc-key>
    <hc-a2>WA</hc-a2>
  </desc>
</path>

<path fill="#CEE3F5" stroke="#6E6E6E" stroke-width="0.4" id="US.IL.145" d="M182.4,543.3 L208.5,544.3 L226.8,544.6 L226.4,555.6 L228.4,555.7 L229.6,563.4 L225.7,575.5 L223.5,577.6 L211.2,577.5 L181.8,576.5 L182.3,554.3 Z">
  <desc xmlns="http://www.highcharts.com/svg/namespace">
    <fips>17145</fips>
    <name>Perry</name>
    <hc-middle-x>0.50</hc-middle-x>
    <hc-middle-y>0.50</hc-middle-y>
    <hc-key>us-il-145</hc-key>
    <hc-a2>PE</hc-a2>
  </desc>
</path>

<path fill="#CEE3F5" stroke="#6E6E6E" stroke-width="0.4" id="US.IL.175" d="M150.3,173.0 L161.3,173.2 L161.6,162.4 L162.5,162.4 L183.4,162.9 L183.3,173.6 L183.2,179.6 L182.9,195.7 L164.3,195.2 L149.8,195.0 L149.8,191.8 Z">
  <desc xmlns="http://www.highcharts.com/svg/namespace">
    <fips>17175</fips>
    <name>Stark</name>
    <hc-middle-x>0.70</hc-middle-x>
    <hc-middle-y>0.50</hc-middle-y>
    <hc-key>us-il-175</hc-key>
    <hc-a2>ST</hc-a2>
  </desc>
</path>

<path fill="#CEE3F5" stroke="#6E6E6E" stroke-width="0.4" id="US.IL.073" d="M162.5,162.4 L161.6,162.4 L161.3,173.2 L150.3,173.0 L128.9,172.2 L107.1,171.8 L107.5,159.3 L108.0,149.6 L108.5,133.3 L113.9,130.6 L118.1,126.3 L126.8,125.1 L131.1,123.2 L132.3,117.6 L151.7,118.2 L162.9,118.3 L162.9,118.3 L163.2,126.6 Z">
  <desc xmlns="http://www.highcharts.com/svg/namespace">
    <fips>17073</fips>
    <name>Henry</name>
    <hc-middle-x>0.50</hc-middle-x>
    <hc-middle-y>0.50</hc-middle-y>
    <hc-key>us-il-073</hc-key>
    <hc-a2>HE</hc-a2>
  </desc>
</path>

<path fill="#CEE3F5" stroke="#6E6E6E" stroke-width="0.4" id="US.IL.123" d="M198.7,202.5 L201.2,196.0 L182.9,195.7 L183.2,179.6 L183.3,173.6 L194.1,173.8 L199.7,173.9 L212.8,174.1 L209.9,179.7 L228.6,179.8 L239.6,179.8 L239.4,202.4 L230.2,202.2 Z">
  <desc xmlns="http://www.highcharts.com/svg/namespace">
    <fips>17123</fips>
    <name>Marshall</name>
    <hc-middle-x>0.39</hc-middle-x>
    <hc-middle-y>0.51</hc-middle-y>
    <hc-key>us-il-123</hc-key>
    <hc-a2>MA</hc-a2>
  </desc>
</path>

<path fill="#CEE3F5" stroke="#6E6E6E" stroke-width="0.4" id="US.IL.143" d="M182.9,195.7 L201.2,196.0 L198.7,202.5 L196.1,208.3 L190.9,216.4 L190.5,224.3 L190.4,230.0 L184.6,234.8 L185.0,236.3 L180.3,242.6 L180.3,246.9 L172.5,248.9 L169.5,248.6 L159.5,253.4 L159.7,239.4 L148.6,239.0 L149.1,228.1 L149.3,218.0 L149.8,195.0 L164.3,195.2 Z">
  <desc xmlns="http://www.highcharts.com/svg/namespace">
    <fips>17143</fips>
    <name>Peoria</name>
    <hc-middle-x>0.38</hc-middle-x>
    <hc-middle-y>0.39</hc-middle-y>
    <hc-key>us-il-143</hc-key>
    <hc-a2>PE</hc-a2>
  </desc>
</path>

<path fill="#CEE3F5" stroke="#6E6E6E" stroke-width="0.4" id="US.IL.011" d="M228.7,130.4 L228.8,153.8 L219.7,152.1 L212.5,154.8 L210.3,163.3 L199.8,163.1 L199.7,173.9 L194.1,173.8 L183.3,173.6 L183.4,162.9 L162.5,162.4 L163.2,126.6 L162.9,118.3 L162.9,118.3 L170.1,118.4 L184.8,118.6 L214.3,119.0 L228.8,119.1 L228.8,119.1 L228.8,119.1 L228.8,119.1 Z">
  <desc xmlns="http://www.highcharts.com/svg/namespace">
    <fips>17011</fips>
    <name>Bureau</name>
    <hc-middle-x>0.40</hc-middle-x>
    <hc-middle-y>0.38</hc-middle-y>
    <hc-key>us-il-011</hc-key>
    <hc-a2>BU</hc-a2>
  </desc>
</path>

<path fill="#CEE3F5" stroke="#6E6E6E" stroke-width="0.4" id="US.IL.103" d="M210.9,80.7 L250.4,80.6 L250.2,102.6 L250.5,113.8 L228.8,113.6 L228.8,119.1 L228.8,119.1 L228.8,119.1 L228.8,119.1 L228.8,119.1 L214.3,119.0 L184.8,118.6 L184.8,107.6 L185.6,78.6 L199.5,78.7 L200.4,77.5 L210.9,78.8 Z">
  <desc xmlns="http://www.highcharts.com/svg/namespace">
    <fips>17103</fips>
    <name>Lee</name>
    <hc-middle-x>0.50</hc-middle-x>
    <hc-middle-y>0.50</hc-middle-y>
    <hc-key>us-il-103</hc-key>
    <hc-a2>LE</hc-a2>
  </desc>
</path>

<path fill="#CEE3F5" stroke="#6E6E6E" stroke-width="0.4" id="US.IL.029" d="M343.5,359.0 L344.0,379.3 L344.2,384.8 L339.0,384.9 L339.2,397.8 L320.5,398.3 L294.3,398.4 L294.3,398.4 L294.3,398.4 L294.3,398.4 L294.3,397.8 L294.3,396.5 L294.3,389.2 L294.3,373.1 L294.2,363.4 L334.1,363.3 L334.1,359.6 Z">
  <desc xmlns="http://www.highcharts.com/svg/namespace">
    <fips>17029</fips>
    <name>Coles</name>
    <hc-middle-x>0.23</hc-middle-x>
    <hc-middle-y>0.52</hc-middle-y>
    <hc-key>us-il-029</hc-key>
    <hc-a2>CO</hc-a2>
  </desc>
</path>

<path fill="#CEE3F5" stroke="#6E6E6E" stroke-width="0.4" id="US.IL.037" d="M282.4,102.5 L282.2,102.5 L282.3,113.6 L261.8,113.5 L250.5,113.8 L250.2,102.6 L250.4,80.6 L250.5,58.7 L250.8,47.7 L263.6,47.6 L272.8,47.7 L281.1,47.7 L283.8,47.7 L283.8,58.7 L282.5,58.7 Z">
  <desc xmlns="http://www.highcharts.com/svg/namespace">
    <fips>17037</fips>
    <name>DeKalb</name>
    <hc-middle-x>0.49</hc-middle-x>
    <hc-middle-y>0.50</hc-middle-y>
    <hc-key>us-il-037</hc-key>
    <hc-a2>DE</hc-a2>
  </desc>
</path>

<path fill="#CEE3F5" stroke="#6E6E6E" stroke-width="0.4" id="US.IL.093" d="M282.3,113.6 L282.2,102.5 L282.4,102.5 L313.6,101.9 L314.5,101.9 L314.5,101.9 L314.6,101.9 L314.8,113.0 L315.5,134.9 L293.7,135.5 L282.8,135.6 L282.5,123.1 Z">
  <desc xmlns="http://www.highcharts.com/svg/namespace">
    <fips>17093</fips>
    <name>Kendall</name>
    <hc-middle-x>0.50</hc-middle-x>
    <hc-middle-y>0.50</hc-middle-y>
    <hc-key>us-il-093</hc-key>
    <hc-a2>KE</hc-a2>
  </desc>
</path>

<path fill="#CEE3F5" stroke="#6E6E6E" stroke-width="0.4" id="US.IL.039" d="M229.1,313.0 L229.1,303.4 L229.0,283.5 L238.3,283.5 L284.4,283.9 L284.4,283.9 L273.4,301.5 L273.4,307.0 L267.8,306.9 L267.8,312.4 L251.1,312.6 Z">
  <desc xmlns="http://www.highcharts.com/svg/namespace">
    <fips>17039</fips>
    <name>De Witt</name>
    <hc-middle-x>0.38</hc-middle-x>
    <hc-middle-y>0.50</hc-middle-y>
    <hc-key>us-il-039</hc-key>
    <hc-a2>DW</hc-a2>
  </desc>
</path>

<path fill="#CEE3F5" stroke="#6E6E6E" stroke-width="0.4" id="US.IL.107" d="M229.0,283.5 L229.1,303.4 L229.1,313.0 L229.1,329.5 L221.8,329.5 L221.8,329.5 L203.7,329.2 L203.7,327.3 L196.1,327.2 L196.1,321.7 L186.9,321.6 L187.0,307.0 L184.9,307.0 L184.9,303.2 L185.1,291.0 L185.1,278.2 L185.1,278.2 L207.2,278.0 L217.9,278.0 L218.0,283.6 Z">
  <desc xmlns="http://www.highcharts.com/svg/namespace">
    <fips>17107</fips>
    <name>Logan</name>
    <hc-middle-x>0.50</hc-middle-x>
    <hc-middle-y>0.50</hc-middle-y>
    <hc-key>us-il-107</hc-key>
    <hc-a2>LO</hc-a2>
  </desc>
</path>

<path fill="#CEE3F5" stroke="#6E6E6E" stroke-width="0.4" id="US.IL.129" d="M184.9,303.2 L184.9,307.0 L187.0,307.0 L186.9,321.6 L175.3,321.6 L174.8,329.0 L168.3,328.9 L168.2,330.7 L146.4,330.4 L146.6,312.1 L146.8,304.3 L149.2,300.1 L156.2,302.0 L170.6,302.4 L177.0,298.9 L181.4,299.0 Z">
  <desc xmlns="http://www.highcharts.com/svg/namespace">
    <fips>17129</fips>
    <name>Menard</name>
    <hc-middle-x>0.50</hc-middle-x>
    <hc-middle-y>0.50</hc-middle-y>
    <hc-key>us-il-129</hc-key>
    <hc-a2>ME</hc-a2>
  </desc>
</path>

<path fill="#CEE3F5" stroke="#6E6E6E" stroke-width="0.4" id="US.IL.157" d="M171.5,543.1 L178.8,543.2 L182.4,543.3 L182.3,554.3 L181.8,576.5 L175.5,588.7 L173.6,595.6 L167.1,590.0 L161.4,588.0 L161.2,585.6 L156.7,582.4 L150.6,586.9 L147.3,586.2 L143.8,580.5 L148.2,576.9 L147.3,574.0 L142.5,575.1 L135.0,568.0 L132.2,567.9 L128.5,562.2 L121.0,558.8 L138.1,553.1 L138.3,542.1 L152.0,542.6 L162.3,542.9 Z">
  <desc xmlns="http://www.highcharts.com/svg/namespace">
    <fips>17157</fips>
    <name>Randolph</name>
    <hc-middle-x>0.71</hc-middle-x>
    <hc-middle-y>0.50</hc-middle-y>
    <hc-key>us-il-157</hc-key>
    <hc-a2>RA</hc-a2>
  </desc>
</path>

<path fill="#CEE3F5" stroke="#6E6E6E" stroke-width="0.4" id="US.IL.077" d="M173.6,595.6 L175.5,588.7 L181.8,576.5 L211.2,577.5 L223.5,577.6 L226.1,577.7 L226.0,588.8 L225.9,598.4 L225.5,621.8 L195.7,621.5 L193.2,626.3 L188.5,625.0 L192.9,621.6 L189.0,616.3 L189.6,610.7 L182.5,607.1 L179.1,602.4 L174.1,601.0 Z">
  <desc xmlns="http://www.highcharts.com/svg/namespace">
    <fips>17077</fips>
    <name>Jackson</name>
    <hc-middle-x>0.62</hc-middle-x>
    <hc-middle-y>0.51</hc-middle-y>
    <hc-key>us-il-077</hc-key>
    <hc-a2>JA</hc-a2>
  </desc>
</path>

<path fill="#CEE3F5" stroke="#6E6E6E" stroke-width="0.4" id="US.IL.203" d="M245.1,224.3 L245.2,235.4 L239.4,235.4 L239.4,240.0 L233.9,240.3 L230.8,243.8 L217.7,244.0 L217.7,244.0 L217.7,244.0 L217.7,244.0 L217.7,244.0 L217.7,244.0 L217.7,244.0 L217.7,241.3 L212.2,241.3 L212.1,224.5 L190.5,224.3 L190.9,216.4 L196.1,208.3 L198.7,202.5 L230.2,202.2 L239.4,202.4 L244.1,202.3 L250.5,202.2 L250.5,207.7 L250.6,224.2 Z M217.7,244.0 L217.7,244.0 L217.7,244.0 L217.7,244.0 L217.7,244.0 Z M217.7,244.0 L217.7,244.0 L217.7,244.0 L217.7,244.0 L217.7,244.0 Z M217.7,244.0 L217.7,244.0 L217.7,244.0 L217.7,244.0 L217.7,244.0 L217.7,244.0 L217.7,244.0 Z">
  <desc xmlns="http://www.highcharts.com/svg/namespace">
    <fips>17203</fips>
    <name>Woodford</name>
    <hc-middle-x>0.61</hc-middle-x>
    <hc-middle-y>0.50</hc-middle-y>
    <hc-key>us-il-203</hc-key>
    <hc-a2>WO</hc-a2>
  </desc>
</path>

<path fill="#CEE3F5" stroke="#6E6E6E" stroke-width="0.4" id="US.IL.105" d="M250.6,224.2 L250.5,207.7 L250.5,202.2 L250.7,179.8 L283.6,179.6 L295.8,179.5 L315.5,178.9 L315.6,181.2 L316.0,194.0 L317.2,241.5 L295.6,241.6 L284.6,241.7 L283.7,223.9 L250.6,224.2 Z">
  <desc xmlns="http://www.highcharts.com/svg/namespace">
    <fips>17105</fips>
    <name>Livingston</name>
    <hc-middle-x>0.49</hc-middle-x>
    <hc-middle-y>0.36</hc-middle-y>
    <hc-key>us-il-105</hc-key>
    <hc-a2>LI</hc-a2>
  </desc>
</path>

<path fill="#CEE3F5" stroke="#6E6E6E" stroke-width="0.4" id="US.IL.057" d="M104.7,237.8 L104.8,234.2 L105.1,226.9 L131.8,227.6 L149.1,228.1 L148.6,239.0 L159.7,239.4 L159.5,253.4 L157.9,258.5 L154.3,263.1 L148.5,268.5 L143.8,270.2 L140.1,280.5 L135.1,288.1 L131.3,290.0 L127.2,294.4 L102.8,293.2 L103.2,282.2 L103.7,270.6 Z">
  <desc xmlns="http://www.highcharts.com/svg/namespace">
    <fips>17057</fips>
    <name>Fulton</name>
    <hc-middle-x>0.39</hc-middle-x>
    <hc-middle-y>0.50</hc-middle-y>
    <hc-key>us-il-057</hc-key>
    <hc-a2>FU</hc-a2>
  </desc>
</path>

<path fill="#CEE3F5" stroke="#6E6E6E" stroke-width="0.4" id="US.IL.071" d="M71.6,236.0 L71.6,236.0 L67.4,235.7 L60.6,235.2 L49.2,235.4 L33.6,234.6 L40.0,230.4 L40.7,223.8 L43.1,217.3 L42.8,212.9 L52.6,201.0 L56.1,199.0 L58.5,185.2 L58.0,180.7 L67.0,181.0 L73.6,181.3 L72.4,213.5 Z">
  <desc xmlns="http://www.highcharts.com/svg/namespace">
    <fips>17071</fips>
    <name>Henderson</name>
    <hc-middle-x>0.66</hc-middle-x>
    <hc-middle-y>0.62</hc-middle-y>
    <hc-key>us-il-071</hc-key>
    <hc-a2>HE</hc-a2>
  </desc>
</path>

<path fill="#CEE3F5" stroke="#6E6E6E" stroke-width="0.4" id="US.IL.135" d="M179.2,444.8 L177.8,444.8 L173.4,444.8 L173.5,400.7 L174.0,400.7 L174.1,378.6 L185.0,378.6 L190.5,378.7 L190.5,400.8 L228.8,401.3 L228.7,414.0 L228.6,417.8 L217.8,417.7 L217.5,441.6 L184.5,441.2 L184.4,444.9 L179.2,444.8 Z">
  <desc xmlns="http://www.highcharts.com/svg/namespace">
    <fips>17135</fips>
    <name>Montgomery</name>
    <hc-middle-x>0.38</hc-middle-x>
    <hc-middle-y>0.67</hc-middle-y>
    <hc-key>us-il-135</hc-key>
    <hc-a2>MO</hc-a2>
  </desc>
</path>

<path fill="#CEE3F5" stroke="#6E6E6E" stroke-width="0.4" id="US.IL.061" d="M84.6,392.9 L85.1,385.1 L88.1,377.1 L99.0,377.4 L115.4,377.9 L120.9,378.1 L129.9,378.2 L129.8,400.2 L129.8,410.8 L124.3,411.1 L124.4,415.3 L113.4,415.1 L113.3,421.5 L96.2,421.0 L91.5,418.7 L87.7,420.4 L84.7,428.0 L83.6,424.1 L86.1,417.8 L84.5,410.1 L85.3,405.9 L83.6,396.7 Z">
  <desc xmlns="http://www.highcharts.com/svg/namespace">
    <fips>17061</fips>
    <name>Greene</name>
    <hc-middle-x>0.50</hc-middle-x>
    <hc-middle-y>0.37</hc-middle-y>
    <hc-key>us-il-061</hc-key>
    <hc-a2>GR</hc-a2>
  </desc>
</path>

<path fill="#CEE3F5" stroke="#6E6E6E" stroke-width="0.4" id="US.IL.149" d="M88.1,377.1 L85.1,385.1 L84.6,392.9 L64.1,391.9 L52.9,391.6 L43.2,385.1 L37.4,373.5 L32.8,372.5 L30.1,365.8 L25.8,363.2 L12.2,348.7 L12.5,344.9 L56.3,346.5 L56.5,335.4 L58.8,336.0 L90.1,337.0 L90.5,338.6 L87.2,343.2 L82.4,354.0 L85.9,362.4 L88.7,372.3 Z">
  <desc xmlns="http://www.highcharts.com/svg/namespace">
    <fips>17149</fips>
    <name>Pike</name>
    <hc-middle-x>0.57</hc-middle-x>
    <hc-middle-y>0.50</hc-middle-y>
    <hc-key>us-il-149</hc-key>
    <hc-a2>PI</hc-a2>
  </desc>
</path>

<path fill="#CEE3F5" stroke="#6E6E6E" stroke-width="0.4" id="US.IL.017" d="M89.0,332.3 L93.7,326.6 L96.2,318.4 L104.1,314.1 L104.6,309.5 L108.1,307.2 L110.1,301.9 L111.9,301.6 L115.9,302.9 L118.4,310.5 L120.3,309.6 L127.1,311.0 L133.9,308.1 L137.1,308.0 L140.1,305.1 L146.8,304.3 L146.6,312.1 L146.4,330.4 L146.3,331.5 L146.3,334.0 L122.9,333.5 Z">
  <desc xmlns="http://www.highcharts.com/svg/namespace">
    <fips>17017</fips>
    <name>Cass</name>
    <hc-middle-x>0.62</hc-middle-x>
    <hc-middle-y>0.50</hc-middle-y>
    <hc-key>us-il-017</hc-key>
    <hc-a2>CA</hc-a2>
  </desc>
</path>

<path fill="#CEE3F5" stroke="#6E6E6E" stroke-width="0.4" id="US.IL.009" d="M96.2,318.4 L93.7,326.6 L89.0,332.3 L89.1,335.1 L90.1,337.0 L58.8,336.0 L56.5,335.4 L57.1,323.6 L57.8,302.7 L78.9,303.3 L77.8,305.7 L81.0,306.3 L80.4,309.8 L87.6,316.3 L87.1,319.0 Z">
  <desc xmlns="http://www.highcharts.com/svg/namespace">
    <fips>17009</fips>
    <name>Brown</name>
    <hc-middle-x>0.34</hc-middle-x>
    <hc-middle-y>0.50</hc-middle-y>
    <hc-key>us-il-009</hc-key>
    <hc-a2>BR</hc-a2>
  </desc>
</path>

<path fill="#CEE3F5" stroke="#6E6E6E" stroke-width="0.4" id="US.IL.137" d="M142.7,378.3 L129.9,378.2 L120.9,378.1 L115.4,377.9 L115.9,363.2 L112.2,363.1 L112.3,359.5 L108.9,359.4 L109.3,348.3 L98.4,348.1 L98.5,343.6 L87.2,343.2 L90.5,338.6 L90.1,337.0 L89.1,335.1 L89.0,332.3 L122.9,333.5 L146.3,334.0 L146.2,345.1 L146.9,353.6 L152.4,373.8 L152.2,377.9 L152.2,378.3 L152.2,378.4 L152.2,378.4 Z">
  <desc xmlns="http://www.highcharts.com/svg/namespace">
    <fips>17137</fips>
    <name>Morgan</name>
    <hc-middle-x>0.67</hc-middle-x>
    <hc-middle-y>0.51</hc-middle-y>
    <hc-key>us-il-137</hc-key>
    <hc-a2>MO</hc-a2>
  </desc>
</path>

<path fill="#CEE3F5" stroke="#6E6E6E" stroke-width="0.4" id="US.IL.117" d="M142.7,378.3 L152.2,378.3 L152.2,378.4 L152.2,378.4 L164.4,378.5 L174.1,378.6 L174.1,378.6 L174.0,400.7 L173.5,400.7 L173.4,444.8 L135.4,444.2 L129.3,443.8 L129.8,420.0 L129.8,410.8 L129.8,400.2 L129.9,378.2 Z">
  <desc xmlns="http://www.highcharts.com/svg/namespace">
    <fips>17117</fips>
    <name>Macoupin</name>
    <hc-middle-x>0.50</hc-middle-x>
    <hc-middle-y>0.50</hc-middle-y>
    <hc-key>us-il-117</hc-key>
    <hc-a2>MA</hc-a2>
  </desc>
</path>

<path fill="#CEE3F5" stroke="#6E6E6E" stroke-width="0.4" id="US.IL.005" d="M184.4,444.9 L184.5,441.2 L217.5,441.6 L216.8,445.3 L216.8,477.7 L192.5,477.6 L182.9,477.2 L182.9,460.6 L179.2,460.6 L179.2,444.8 L179.2,444.8 Z">
  <desc xmlns="http://www.highcharts.com/svg/namespace">
    <fips>17005</fips>
    <name>Bond</name>
    <hc-middle-x>0.49</hc-middle-x>
    <hc-middle-y>0.50</hc-middle-y>
    <hc-key>us-il-005</hc-key>
    <hc-a2>BO</hc-a2>
  </desc>
</path>

<path fill="#CEE3F5" stroke="#6E6E6E" stroke-width="0.4" id="US.IL.191" d="M304.1,539.5 L304.1,539.5 L293.9,539.5 L271.1,539.3 L271.1,539.3 L271.3,528.5 L271.5,511.8 L271.5,508.6 L271.6,495.2 L282.9,495.1 L315.6,496.1 L326.1,496.3 L326.1,500.0 L326.1,500.0 L326.1,500.0 L326.1,518.6 L325.9,539.4 L325.9,539.4 L325.9,539.4 L325.9,539.4 L325.9,539.4 L325.9,539.4 L315.5,539.3 L304.1,539.6 L304.1,539.6 L304.1,539.5 Z">
  <desc xmlns="http://www.highcharts.com/svg/namespace">
    <fips>17191</fips>
    <name>Wayne</name>
    <hc-middle-x>0.50</hc-middle-x>
    <hc-middle-y>0.51</hc-middle-y>
    <hc-key>us-il-191</hc-key>
    <hc-a2>WA</hc-a2>
  </desc>
</path>

<path fill="#CEE3F5" stroke="#6E6E6E" stroke-width="0.4" id="US.IL.167" d="M152.2,378.3 L152.4,373.8 L146.9,353.6 L146.2,345.1 L146.3,334.0 L146.3,331.5 L146.4,330.4 L168.2,330.7 L168.3,328.9 L174.8,329.0 L175.3,321.6 L186.9,321.6 L196.1,321.7 L196.1,327.2 L203.7,327.3 L203.7,329.2 L221.8,329.5 L221.8,329.5 L221.8,335.0 L221.7,342.6 L218.4,341.4 L213.4,347.3 L208.4,347.7 L204.6,351.2 L201.5,348.9 L201.3,358.7 L196.1,358.6 L196.1,364.1 L190.6,364.0 L190.5,378.7 L185.0,378.6 L174.1,378.6 L164.4,378.5 L152.2,378.4 L152.2,378.4 Z">
  <desc xmlns="http://www.highcharts.com/svg/namespace">
    <fips>17167</fips>
    <name>Sangamon</name>
    <hc-middle-x>0.38</hc-middle-x>
    <hc-middle-y>0.50</hc-middle-y>
    <hc-key>us-il-167</hc-key>
    <hc-a2>SA</hc-a2>
  </desc>
</path>

<path fill="#CEE3F5" stroke="#6E6E6E" stroke-width="0.4" id="US.IL.153" d="M247.7,659.5 L247.8,666.1 L247.8,669.1 L243.2,668.7 L237.5,671.0 L231.1,677.8 L229.2,682.5 L223.0,688.9 L220.5,686.7 L214.8,684.9 L212.8,681.4 L214.4,678.9 L213.5,674.6 L215.8,664.1 L220.2,661.0 L219.8,656.9 L215.6,655.2 L230.6,655.5 L236.1,656.0 L236.1,660.5 L240.3,658.4 L244.3,660.2 Z">
  <desc xmlns="http://www.highcharts.com/svg/namespace">
    <fips>17153</fips>
    <name>Pulaski</name>
    <hc-middle-x>0.53</hc-middle-x>
    <hc-middle-y>0.32</hc-middle-y>
    <hc-key>us-il-153</hc-key>
    <hc-a2>PU</hc-a2>
  </desc>
</path>

<path fill="#CEE3F5" stroke="#6E6E6E" stroke-width="0.4" id="US.IL.127" d="M247.8,669.1 L247.8,666.1 L247.7,659.5 L250.3,655.4 L269.8,655.3 L291.9,677.8 L291.9,689.2 L284.3,688.4 L279.1,683.2 L272.6,680.5 L267.2,679.5 L260.4,674.1 Z">
  <desc xmlns="http://www.highcharts.com/svg/namespace">
    <fips>17127</fips>
    <name>Massac</name>
    <hc-middle-x>0.30</hc-middle-x>
    <hc-middle-y>0.24</hc-middle-y>
    <hc-key>us-il-127</hc-key>
    <hc-a2>MA</hc-a2>
  </desc>
</path>

<path fill="#CEE3F5" stroke="#6E6E6E" stroke-width="0.4" id="US.IL.065" d="M304.1,539.6 L304.1,539.6 L303.7,568.8 L303.6,583.3 L303.6,583.4 L287.7,583.5 L270.5,583.4 L270.6,571.0 L270.8,555.9 L270.9,544.8 L271.1,539.3 L271.1,539.3 L293.9,539.5 L304.1,539.5 L304.1,539.5 L304.1,539.5 Z">
  <desc xmlns="http://www.highcharts.com/svg/namespace">
    <fips>17065</fips>
    <name>Hamilton</name>
    <hc-middle-x>0.50</hc-middle-x>
    <hc-middle-y>0.50</hc-middle-y>
    <hc-key>us-il-065</hc-key>
    <hc-a2>HA</hc-a2>
  </desc>
</path>

<path fill="#CEE3F5" stroke="#6E6E6E" stroke-width="0.4" id="US.IL.047" d="M325.9,539.4 L326.1,518.6 L326.1,500.0 L326.1,500.0 L326.1,500.0 L338.4,499.7 L345.3,499.8 L346.9,504.4 L345.3,506.6 L346.4,514.2 L343.2,521.3 L345.5,529.2 L345.8,535.0 L341.8,538.9 L338.2,539.5 L325.9,539.4 L325.9,539.4 L325.9,539.4 L325.9,539.4 Z">
  <desc xmlns="http://www.highcharts.com/svg/namespace">
    <fips>17047</fips>
    <name>Edwards</name>
    <hc-middle-x>0.49</hc-middle-x>
    <hc-middle-y>0.50</hc-middle-y>
    <hc-key>us-il-047</hc-key>
    <hc-a2>ED</hc-a2>
  </desc>
</path>

<path fill="#CEE3F5" stroke="#6E6E6E" stroke-width="0.4" id="US.IL.173" d="M250.5,363.1 L261.2,363.1 L261.3,372.3 L270.3,372.5 L270.3,379.8 L277.7,379.9 L279.5,383.6 L283.2,385.5 L283.2,389.1 L294.3,389.2 L294.3,391.1 L294.3,396.5 L294.3,397.8 L294.3,398.4 L294.3,398.4 L294.3,398.4 L294.3,398.4 L294.3,398.4 L294.3,398.4 L294.3,402.1 L294.3,418.5 L273.7,418.3 L261.4,418.2 L239.7,418.2 L228.6,417.8 L228.7,414.0 L228.8,401.3 L240.0,401.7 L240.3,362.9 L240.3,362.8 Z">
  <desc xmlns="http://www.highcharts.com/svg/namespace">
    <fips>17173</fips>
    <name>Shelby</name>
    <hc-middle-x>0.50</hc-middle-x>
    <hc-middle-y>0.62</hc-middle-y>
    <hc-key>us-il-173</hc-key>
    <hc-a2>SH</hc-a2>
  </desc>
</path>

<path fill="#CEE3F5" stroke="#6E6E6E" stroke-width="0.4" id="US.IL.115" d="M250.5,363.1 L240.3,362.9 L240.3,362.8 L229.2,362.6 L229.1,344.2 L224.6,342.1 L221.7,342.6 L221.8,335.0 L221.8,329.5 L221.8,329.5 L229.1,329.5 L229.1,313.0 L251.1,312.6 L267.8,312.4 L267.6,338.2 L267.6,345.6 L266.4,345.6 L266.4,352.2 L261.1,352.1 L261.2,363.1 Z">
  <desc xmlns="http://www.highcharts.com/svg/namespace">
    <fips>17115</fips>
    <name>Macon</name>
    <hc-middle-x>0.50</hc-middle-x>
    <hc-middle-y>0.50</hc-middle-y>
    <hc-key>us-il-115</hc-key>
    <hc-a2>MA</hc-a2>
  </desc>
</path>

<path fill="#CEE3F5" stroke="#6E6E6E" stroke-width="0.4" id="US.IL.021" d="M240.3,362.8 L240.3,362.9 L240.0,401.7 L228.8,401.3 L190.5,400.8 L190.5,378.7 L190.6,364.0 L196.1,364.1 L196.1,358.6 L201.3,358.7 L201.5,348.9 L204.6,351.2 L208.4,347.7 L213.4,347.3 L218.4,341.4 L221.7,342.6 L224.6,342.1 L229.1,344.2 L229.2,362.6 Z">
  <desc xmlns="http://www.highcharts.com/svg/namespace">
    <fips>17021</fips>
    <name>Christian</name>
    <hc-middle-x>0.50</hc-middle-x>
    <hc-middle-y>0.60</hc-middle-y>
    <hc-key>us-il-021</hc-key>
    <hc-a2>CH</hc-a2>
  </desc>
</path>

<path fill="#CEE3F5" stroke="#6E6E6E" stroke-width="0.4" id="US.IL.031" d="M314.4,68.8 L314.3,58.7 L316.7,58.7 L316.7,47.6 L316.8,47.6 L320.3,47.6 L340.9,47.7 L361.6,47.7 L365.1,54.7 L368.5,56.1 L371.0,62.7 L372.3,73.8 L375.2,80.3 L379.1,93.5 L384.3,100.7 L384.4,133.6 L359.3,133.9 L359.0,122.7 L347.9,123.0 L347.7,112.0 L336.7,112.3 L336.5,106.8 L342.4,106.6 L347.4,102.8 L346.7,82.0 L346.6,67.8 Z">
  <desc xmlns="http://www.highcharts.com/svg/namespace">
    <fips>17031</fips>
    <name>Cook</name>
    <hc-middle-x>0.73</hc-middle-x>
    <hc-middle-y>0.65</hc-middle-y>
    <hc-key>us-il-031</hc-key>
    <hc-a2>CO</hc-a2>
  </desc>
</path>

<path fill="#CEE3F5" stroke="#6E6E6E" stroke-width="0.4" id="US.IL.131" d="M108.0,149.6 L107.5,159.3 L107.1,171.8 L106.8,177.8 L106.6,182.8 L96.0,182.5 L73.6,181.3 L67.0,181.0 L58.0,180.7 L58.3,177.6 L54.4,169.8 L49.5,168.3 L42.9,157.5 L47.0,150.0 L47.3,147.1 L77.9,148.6 Z">
  <desc xmlns="http://www.highcharts.com/svg/namespace">
    <fips>17131</fips>
    <name>Mercer</name>
    <hc-middle-x>0.49</hc-middle-x>
    <hc-middle-y>0.50</hc-middle-y>
    <hc-key>us-il-131</hc-key>
    <hc-a2>ME</hc-a2>
  </desc>
</path>

<path fill="#CEE3F5" stroke="#6E6E6E" stroke-width="0.4" id="US.IL.183" d="M346.5,269.0 L346.1,258.1 L373.4,257.6 L385.5,257.1 L385.4,300.4 L385.5,333.9 L380.8,334.0 L383.2,335.7 L377.4,335.8 L377.6,334.1 L346.2,334.6 L345.6,291.0 L346.9,290.9 L346.4,269.0 Z">
  <desc xmlns="http://www.highcharts.com/svg/namespace">
    <fips>17183</fips>
    <name>Vermilion</name>
    <hc-middle-x>0.50</hc-middle-x>
    <hc-middle-y>0.50</hc-middle-y>
    <hc-key>us-il-183</hc-key>
    <hc-a2>VE</hc-a2>
  </desc>
</path>

<path fill="#CEE3F5" stroke="#6E6E6E" stroke-width="0.4" id="US.IL.185" d="M366.4,499.9 L375.3,499.9 L373.5,502.8 L375.9,506.7 L369.2,511.0 L366.1,511.4 L367.5,514.9 L366.3,519.3 L362.2,525.2 L360.1,525.8 L355.7,536.9 L353.0,532.8 L350.2,537.7 L348.4,534.0 L345.7,537.6 L344.9,541.8 L342.1,539.3 L341.9,539.2 L341.8,538.9 L345.8,535.0 L345.5,529.2 L343.2,521.3 L346.4,514.2 L345.3,506.6 L346.9,504.4 L345.3,499.8 L349.5,499.8 L349.5,499.8 Z">
  <desc xmlns="http://www.highcharts.com/svg/namespace">
    <fips>17185</fips>
    <name>Wabash</name>
    <hc-middle-x>0.52</hc-middle-x>
    <hc-middle-y>0.34</hc-middle-y>
    <hc-key>us-il-185</hc-key>
    <hc-a2>WA</hc-a2>
  </desc>
</path>

<path fill="#CEE3F5" stroke="#6E6E6E" stroke-width="0.4" id="US.IL.101" d="M366.4,499.9 L349.5,499.8 L349.5,499.8 L349.7,499.1 L349.7,464.4 L371.8,464.1 L386.9,463.9 L387.3,468.1 L390.4,472.3 L388.2,483.5 L386.8,485.4 L380.6,487.6 L375.3,499.9 Z">
  <desc xmlns="http://www.highcharts.com/svg/namespace">
    <fips>17101</fips>
    <name>Lawrence</name>
    <hc-middle-x>0.50</hc-middle-x>
    <hc-middle-y>0.50</hc-middle-y>
    <hc-key>us-il-101</hc-key>
    <hc-a2>LA</hc-a2>
  </desc>
</path>

<path fill="#CEE3F5" stroke="#6E6E6E" stroke-width="0.4" id="US.IL.111" d="M320.3,47.6 L316.8,47.6 L316.7,47.6 L293.8,47.6 L283.8,47.7 L281.1,47.7 L272.8,47.7 L272.9,17.0 L272.8,4.7 L282.2,4.6 L320.3,4.6 L320.4,36.6 Z">
  <desc xmlns="http://www.highcharts.com/svg/namespace">
    <fips>17111</fips>
    <name>McHenry</name>
    <hc-middle-x>0.50</hc-middle-x>
    <hc-middle-y>0.50</hc-middle-y>
    <hc-key>us-il-111</hc-key>
    <hc-a2>MC</hc-a2>
  </desc>
</path>

<path fill="#CEE3F5" stroke="#6E6E6E" stroke-width="0.4" id="US.IL.179" d="M185.1,278.2 L174.3,278.2 L174.4,263.5 L154.3,263.1 L157.9,258.5 L159.5,253.4 L169.5,248.6 L172.5,248.9 L180.3,246.9 L180.3,242.6 L185.0,236.3 L184.6,234.8 L190.4,230.0 L190.5,224.3 L212.1,224.5 L212.2,241.3 L217.7,241.3 L217.7,244.0 L217.7,244.0 L217.7,244.0 L217.7,244.0 L217.7,244.0 L217.7,244.0 L217.7,244.0 L217.7,244.0 L217.9,260.5 L217.9,278.0 L207.2,278.0 Z">
  <desc xmlns="http://www.highcharts.com/svg/namespace">
    <fips>17179</fips>
    <name>Tazewell</name>
    <hc-middle-x>0.60</hc-middle-x>
    <hc-middle-y>0.50</hc-middle-y>
    <hc-key>us-il-179</hc-key>
    <hc-a2>TA</hc-a2>
  </desc>
</path>

<path fill="#CEE3F5" stroke="#6E6E6E" stroke-width="0.4" id="US.IL.055" d="M270.8,555.9 L270.6,571.0 L270.5,583.4 L270.4,585.9 L270.4,588.9 L246.3,589.0 L226.0,588.8 L226.1,577.7 L223.5,577.6 L225.7,575.5 L229.6,563.4 L228.4,555.7 L256.0,555.6 Z">
  <desc xmlns="http://www.highcharts.com/svg/namespace">
    <fips>17055</fips>
    <name>Franklin</name>
    <hc-middle-x>0.50</hc-middle-x>
    <hc-middle-y>0.50</hc-middle-y>
    <hc-key>us-il-055</hc-key>
    <hc-a2>FR</hc-a2>
  </desc>
</path>

<path fill="#CEE3F5" stroke="#6E6E6E" stroke-width="0.4" id="US.IL.081" d="M270.9,544.8 L270.8,555.9 L256.0,555.6 L228.4,555.7 L226.4,555.6 L226.8,544.6 L226.8,544.6 L227.1,526.6 L227.3,511.6 L249.4,511.4 L271.5,511.8 L271.3,528.5 L271.1,539.3 L271.1,539.3 Z">
  <desc xmlns="http://www.highcharts.com/svg/namespace">
    <fips>17081</fips>
    <name>Jefferson</name>
    <hc-middle-x>0.50</hc-middle-x>
    <hc-middle-y>0.50</hc-middle-y>
    <hc-key>us-il-081</hc-key>
    <hc-a2>JE</hc-a2>
  </desc>
</path>

<path fill="#CEE3F5" stroke="#6E6E6E" stroke-width="0.4" id="US.IL.141" d="M185.6,78.6 L185.7,75.0 L180.3,74.9 L180.6,62.9 L180.6,41.0 L186.1,40.9 L208.0,41.0 L229.0,40.9 L228.9,47.8 L250.8,47.7 L250.5,58.7 L250.4,80.6 L250.4,80.6 L210.9,80.7 L210.9,78.8 L200.4,77.5 L199.5,78.7 Z">
  <desc xmlns="http://www.highcharts.com/svg/namespace">
    <fips>17141</fips>
    <name>Ogle</name>
    <hc-middle-x>0.50</hc-middle-x>
    <hc-middle-y>0.50</hc-middle-y>
    <hc-key>us-il-141</hc-key>
    <hc-a2>OG</hc-a2>
  </desc>
</path>

<path fill="#CEE3F5" stroke="#6E6E6E" stroke-width="0.4" id="US.IL.067" d="M58.8,280.0 L58.5,286.9 L58.3,291.5 L35.7,290.5 L0.9,288.7 L1.9,282.6 L5.7,270.9 L10.0,266.6 L14.5,264.1 L14.0,257.8 L15.4,249.8 L12.0,245.9 L16.7,238.5 L21.6,235.8 L27.6,234.3 L33.6,234.6 L49.2,235.4 L60.6,235.2 L60.3,242.2 Z">
  <desc xmlns="http://www.highcharts.com/svg/namespace">
    <fips>17067</fips>
    <name>Hancock</name>
    <hc-middle-x>0.61</hc-middle-x>
    <hc-middle-y>0.49</hc-middle-y>
    <hc-key>us-il-067</hc-key>
    <hc-a2>HA</hc-a2>
  </desc>
</path>

<path fill="#CEE3F5" stroke="#6E6E6E" stroke-width="0.4" id="US.IL.169" d="M58.3,291.5 L58.5,286.9 L58.8,280.0 L81.2,281.3 L103.2,282.2 L102.8,293.2 L127.2,294.4 L125.5,298.6 L120.5,297.9 L111.9,301.6 L110.1,301.9 L108.1,307.2 L104.6,309.5 L104.1,314.1 L96.2,318.4 L87.1,319.0 L87.6,316.3 L80.4,309.8 L81.0,306.3 L77.8,305.7 L78.9,303.3 L57.8,302.7 L57.9,299.1 Z">
  <desc xmlns="http://www.highcharts.com/svg/namespace">
    <fips>17169</fips>
    <name>Schuyler</name>
    <hc-middle-x>0.50</hc-middle-x>
    <hc-middle-y>0.52</hc-middle-y>
    <hc-key>us-il-169</hc-key>
    <hc-a2>SC</hc-a2>
  </desc>
</path>

<path fill="#CEE3F5" stroke="#6E6E6E" stroke-width="0.4" id="US.IL.079" d="M305.1,424.0 L305.1,424.0 L323.9,424.0 L339.7,423.6 L344.0,423.5 L345.4,423.5 L345.8,435.0 L346.0,464.5 L325.8,464.9 L315.1,464.9 L305.0,464.3 L305.0,456.9 L304.9,445.5 Z">
  <desc xmlns="http://www.highcharts.com/svg/namespace">
    <fips>17079</fips>
    <name>Jasper</name>
    <hc-middle-x>0.50</hc-middle-x>
    <hc-middle-y>0.50</hc-middle-y>
    <hc-key>us-il-079</hc-key>
    <hc-a2>JA</hc-a2>
  </desc>
</path>

<path fill="#CEE3F5" stroke="#6E6E6E" stroke-width="0.4" id="US.IL.023" d="M345.4,423.5 L344.0,423.5 L339.7,423.6 L339.3,401.4 L339.2,397.8 L339.0,384.9 L344.2,384.8 L370.9,383.9 L370.7,385.3 L386.1,385.1 L386.3,401.4 L381.7,402.4 L377.8,407.3 L379.3,412.6 L381.6,413.1 L382.0,418.7 L377.0,425.5 L374.2,423.7 L365.4,422.8 Z">
  <desc xmlns="http://www.highcharts.com/svg/namespace">
    <fips>17023</fips>
    <name>Clark</name>
    <hc-middle-x>0.51</hc-middle-x>
    <hc-middle-y>0.50</hc-middle-y>
    <hc-key>us-il-023</hc-key>
    <hc-a2>CL</hc-a2>
  </desc>
</path>

<path fill="#CEE3F5" stroke="#6E6E6E" stroke-width="0.4" id="US.IL.091" d="M327.0,193.6 L319.7,193.9 L316.0,194.0 L315.6,181.2 L315.5,178.9 L316.6,178.9 L316.3,167.9 L338.4,167.3 L338.2,156.3 L384.5,155.3 L384.9,189.9 L384.9,191.6 L350.8,192.7 Z">
  <desc xmlns="http://www.highcharts.com/svg/namespace">
    <fips>17091</fips>
    <name>Kankakee</name>
    <hc-middle-x>0.59</hc-middle-x>
    <hc-middle-y>0.49</hc-middle-y>
    <hc-key>us-il-091</hc-key>
    <hc-a2>KA</hc-a2>
  </desc>
</path>

<path fill="#CEE3F5" stroke="#6E6E6E" stroke-width="0.4" id="US.IL.125" d="M174.3,278.2 L185.1,278.2 L185.1,278.2 L185.1,291.0 L184.9,303.2 L181.4,299.0 L177.0,298.9 L170.6,302.4 L156.2,302.0 L149.2,300.1 L146.8,304.3 L140.1,305.1 L137.1,308.0 L133.9,308.1 L127.1,311.0 L120.3,309.6 L118.4,310.5 L115.9,302.9 L111.9,301.6 L120.5,297.9 L125.5,298.6 L127.2,294.4 L131.3,290.0 L135.1,288.1 L140.1,280.5 L143.8,270.2 L148.5,268.5 L154.3,263.1 L174.4,263.5 Z">
  <desc xmlns="http://www.highcharts.com/svg/namespace">
    <fips>17125</fips>
    <name>Mason</name>
    <hc-middle-x>0.67</hc-middle-x>
    <hc-middle-y>0.44</hc-middle-y>
    <hc-key>us-il-125</hc-key>
    <hc-a2>MA</hc-a2>
  </desc>
</path>

<path fill="#CEE3F5" stroke="#6E6E6E" stroke-width="0.4" id="US.IL.159" d="M338.4,499.7 L326.1,500.0 L326.1,500.0 L326.1,500.0 L326.1,496.3 L315.6,496.1 L311.3,491.7 L313.8,488.2 L312.7,479.5 L315.2,479.5 L315.1,464.9 L325.8,464.9 L346.0,464.5 L347.8,464.4 L349.7,464.4 L349.7,499.1 L349.5,499.8 L349.5,499.8 L345.3,499.8 Z">
  <desc xmlns="http://www.highcharts.com/svg/namespace">
    <fips>17159</fips>
    <name>Richland</name>
    <hc-middle-x>0.50</hc-middle-x>
    <hc-middle-y>0.50</hc-middle-y>
    <hc-key>us-il-159</hc-key>
    <hc-a2>RI</hc-a2>
  </desc>
</path>

<path fill="#CEE3F5" stroke="#6E6E6E" stroke-width="0.4" id="US.IL.165" d="M303.6,622.3 L301.9,622.2 L299.9,622.2 L282.9,622.3 L270.1,622.2 L270.3,610.8 L270.4,588.9 L270.4,585.9 L270.5,583.4 L287.7,583.5 L303.6,583.4 L303.7,605.8 Z">
  <desc xmlns="http://www.highcharts.com/svg/namespace">
    <fips>17165</fips>
    <name>Saline</name>
    <hc-middle-x>0.50</hc-middle-x>
    <hc-middle-y>0.50</hc-middle-y>
    <hc-key>us-il-165</hc-key>
    <hc-a2>SA</hc-a2>
  </desc>
</path>

<path fill="#CEE3F5" stroke="#6E6E6E" stroke-width="0.4" id="US.IL.069" d="M299.9,622.2 L301.9,622.2 L303.6,622.3 L323.2,622.3 L327.8,625.4 L334.0,631.1 L335.1,634.1 L333.0,638.2 L327.6,638.4 L313.2,640.7 L305.2,646.8 L299.5,644.4 L299.7,625.1 Z">
  <desc xmlns="http://www.highcharts.com/svg/namespace">
    <fips>17069</fips>
    <name>Hardin</name>
    <hc-middle-x>0.32</hc-middle-x>
    <hc-middle-y>0.50</hc-middle-y>
    <hc-key>us-il-069</hc-key>
    <hc-a2>HA</hc-a2>
  </desc>
</path>

<path fill="#CEE3F5" stroke="#6E6E6E" stroke-width="0.4" id="US.IL.151" d="M299.9,622.2 L299.7,625.1 L299.5,644.4 L293.6,648.4 L292.3,655.1 L289.7,660.4 L289.8,664.9 L296.2,672.2 L298.6,678.7 L296.0,686.8 L291.9,689.2 L291.9,677.8 L269.8,655.3 L269.8,643.9 L270.1,622.2 L282.9,622.3 Z">
  <desc xmlns="http://www.highcharts.com/svg/namespace">
    <fips>17151</fips>
    <name>Pope</name>
    <hc-middle-x>0.50</hc-middle-x>
    <hc-middle-y>0.30</hc-middle-y>
    <hc-key>us-il-151</hc-key>
    <hc-a2>PO</hc-a2>
  </desc>
</path>

<path fill="#CEE3F5" stroke="#6E6E6E" stroke-width="0.4" id="US.IL.133" d="M152.0,542.6 L138.3,542.1 L138.1,553.1 L121.0,558.8 L117.5,555.7 L112.9,548.2 L108.6,545.7 L106.2,541.6 L105.0,533.7 L105.3,527.5 L108.4,520.6 L113.6,515.1 L116.4,504.0 L128.0,516.2 L127.9,518.0 L138.6,529.4 L138.5,531.2 L150.8,531.6 L151.9,534.1 L149.6,536.5 Z">
  <desc xmlns="http://www.highcharts.com/svg/namespace">
    <fips>17133</fips>
    <name>Monroe</name>
    <hc-middle-x>0.41</hc-middle-x>
    <hc-middle-y>0.58</hc-middle-y>
    <hc-key>us-il-133</hc-key>
    <hc-a2>MO</hc-a2>
  </desc>
</path>

<path fill="#CEE3F5" stroke="#6E6E6E" stroke-width="0.4" id="US.IL.177" d="M158.9,1.9 L182.9,2.4 L208.0,3.3 L208.1,19.1 L208.0,41.0 L186.1,40.9 L180.6,41.0 L172.4,41.1 L158.9,40.9 L159.0,29.9 Z">
  <desc xmlns="http://www.highcharts.com/svg/namespace">
    <fips>17177</fips>
    <name>Stephenson</name>
    <hc-middle-x>0.50</hc-middle-x>
    <hc-middle-y>0.50</hc-middle-y>
    <hc-key>us-il-177</hc-key>
    <hc-a2>ST</hc-a2>
  </desc>
</path>

<path fill="#CEE3F5" stroke="#6E6E6E" stroke-width="0.4" id="US.IL.161" d="M47.3,147.1 L49.8,137.6 L56.9,134.7 L61.0,136.4 L68.1,132.7 L79.5,133.3 L87.3,132.0 L93.2,126.0 L98.4,124.2 L105.9,124.8 L110.7,119.6 L117.3,116.9 L117.5,109.4 L120.5,102.9 L120.3,99.2 L124.0,94.4 L127.4,92.5 L128.0,98.4 L127.0,102.7 L128.3,106.1 L134.7,110.2 L134.3,116.1 L132.3,117.6 L131.1,123.2 L126.8,125.1 L118.1,126.3 L113.9,130.6 L108.5,133.3 L108.0,149.6 L77.9,148.6 Z">
  <desc xmlns="http://www.highcharts.com/svg/namespace">
    <fips>17161</fips>
    <name>Rock Island</name>
    <hc-middle-x>0.58</hc-middle-x>
    <hc-middle-y>0.78</hc-middle-y>
    <hc-key>us-il-161</hc-key>
    <hc-a2>RI</hc-a2>
  </desc>
</path>

<path fill="#CEE3F5" stroke="#6E6E6E" stroke-width="0.4" id="US.IL.001" d="M12.5,344.9 L11.7,338.4 L6.2,334.2 L5.0,329.6 L7.8,325.0 L6.5,321.2 L1.1,309.4 L1.7,306.8 L0.0,298.1 L0.9,288.7 L35.7,290.5 L58.3,291.5 L57.9,299.1 L57.8,302.7 L57.1,323.6 L56.5,335.4 L56.3,346.5 Z">
  <desc xmlns="http://www.highcharts.com/svg/namespace">
    <fips>17001</fips>
    <name>Adams</name>
    <hc-middle-x>0.49</hc-middle-x>
    <hc-middle-y>0.50</hc-middle-y>
    <hc-key>us-il-001</hc-key>
    <hc-a2>AD</hc-a2>
  </desc>
</path>

<path fill="#CEE3F5" stroke="#6E6E6E" stroke-width="0.4" id="US.IL.075" d="M384.9,191.6 L385.2,213.6 L385.5,257.1 L373.4,257.6 L346.1,258.1 L328.5,257.9 L328.5,246.9 L327.0,193.6 L350.8,192.7 Z">
  <desc xmlns="http://www.highcharts.com/svg/namespace">
    <fips>17075</fips>
    <name>Iroquois</name>
    <hc-middle-x>0.50</hc-middle-x>
    <hc-middle-y>0.50</hc-middle-y>
    <hc-key>us-il-075</hc-key>
    <hc-a2>IR</hc-a2>
  </desc>
</path>

<path fill="#CEE3F5" stroke="#6E6E6E" stroke-width="0.4" id="US.IL.087" d="M236.1,656.0 L236.3,640.3 L236.7,622.4 L257.3,622.4 L270.1,622.2 L269.8,643.9 L269.8,655.3 L250.3,655.4 L247.7,659.5 L244.3,660.2 L240.3,658.4 L236.1,660.5 Z">
  <desc xmlns="http://www.highcharts.com/svg/namespace">
    <fips>17087</fips>
    <name>Johnson</name>
    <hc-middle-x>0.50</hc-middle-x>
    <hc-middle-y>0.50</hc-middle-y>
    <hc-key>us-il-087</hc-key>
    <hc-a2>JO</hc-a2>
  </desc>
</path>

<path fill="#CEE3F5" stroke="#6E6E6E" stroke-width="0.4" id="US.IL.095" d="M105.1,226.9 L105.5,215.1 L106.6,182.8 L106.8,177.8 L107.1,171.8 L128.9,172.2 L150.3,173.0 L149.8,191.8 L149.8,195.0 L149.3,218.0 L149.1,228.1 L131.8,227.6 Z">
  <desc xmlns="http://www.highcharts.com/svg/namespace">
    <fips>17095</fips>
    <name>Knox</name>
    <hc-middle-x>0.51</hc-middle-x>
    <hc-middle-y>0.50</hc-middle-y>
    <hc-key>us-il-095</hc-key>
    <hc-a2>KN</hc-a2>
  </desc>
</path>

<path fill="#CEE3F5" stroke="#6E6E6E" stroke-width="0.4" id="US.IL.013" d="M99.2,447.3 L89.5,458.9 L86.4,459.5 L82.0,457.0 L78.2,451.0 L76.8,443.4 L73.8,435.4 L76.8,431.5 L74.4,423.0 L73.0,410.8 L66.7,403.3 L54.4,393.6 L52.9,391.6 L64.1,391.9 L84.6,392.9 L83.6,396.7 L85.3,405.9 L84.5,410.1 L86.1,417.8 L83.6,424.1 L84.7,428.0 L86.7,434.6 L87.6,443.8 L92.4,448.9 Z">
  <desc xmlns="http://www.highcharts.com/svg/namespace">
    <fips>17013</fips>
    <name>Calhoun</name>
    <hc-middle-x>0.48</hc-middle-x>
    <hc-middle-y>0.25</hc-middle-y>
    <hc-key>us-il-013</hc-key>
    <hc-a2>CA</hc-a2>
  </desc>
</path>

<path fill="#CEE3F5" stroke="#6E6E6E" stroke-width="0.4" id="US.IL.171" d="M88.1,377.1 L88.7,372.3 L85.9,362.4 L82.4,354.0 L87.2,343.2 L98.5,343.6 L98.4,348.1 L109.3,348.3 L108.9,359.4 L112.3,359.5 L112.2,363.1 L115.9,363.2 L115.4,377.9 L99.0,377.4 Z">
  <desc xmlns="http://www.highcharts.com/svg/namespace">
    <fips>17171</fips>
    <name>Scott</name>
    <hc-middle-x>0.50</hc-middle-x>
    <hc-middle-y>0.50</hc-middle-y>
    <hc-key>us-il-171</hc-key>
    <hc-a2>SC</hc-a2>
  </desc>
</path>

<path fill="#CEE3F5" stroke="#6E6E6E" stroke-width="0.4" id="US.IL.015" d="M180.3,74.9 L152.9,74.3 L136.4,74.3 L135.2,71.7 L137.6,65.8 L135.2,55.7 L135.8,50.5 L132.3,48.7 L131.6,45.9 L121.5,40.5 L133.5,40.4 L158.9,40.9 L172.4,41.1 L180.6,41.0 L180.6,62.9 Z">
  <desc xmlns="http://www.highcharts.com/svg/namespace">
    <fips>17015</fips>
    <name>Carroll</name>
    <hc-middle-x>0.61</hc-middle-x>
    <hc-middle-y>0.50</hc-middle-y>
    <hc-key>us-il-015</hc-key>
    <hc-a2>CA</hc-a2>
  </desc>
</path>

<path fill="#CEE3F5" stroke="#6E6E6E" stroke-width="0.4" id="US.IL.063" d="M315.5,178.9 L295.8,179.5 L283.6,179.6 L283.4,157.6 L282.8,135.6 L293.7,135.5 L315.5,134.9 L315.9,155.1 L316.3,167.9 L316.6,178.9 Z">
  <desc xmlns="http://www.highcharts.com/svg/namespace">
    <fips>17063</fips>
    <name>Grundy</name>
    <hc-middle-x>0.50</hc-middle-x>
    <hc-middle-y>0.50</hc-middle-y>
    <hc-key>us-il-063</hc-key>
    <hc-a2>GR</hc-a2>
  </desc>
</path>

<path fill="#CEE3F5" stroke="#6E6E6E" stroke-width="0.4" id="US.IL.085" d="M158.9,1.9 L159.0,29.9 L158.9,40.9 L133.5,40.4 L121.5,40.5 L114.7,36.3 L111.2,29.6 L112.7,24.0 L107.5,16.4 L100.0,11.9 L98.6,8.6 L91.2,4.2 L92.1,0.0 L112.3,0.7 L137.4,1.1 Z">
  <desc xmlns="http://www.highcharts.com/svg/namespace">
    <fips>17085</fips>
    <name>Jo Daviess</name>
    <hc-middle-x>0.69</hc-middle-x>
    <hc-middle-y>0.51</hc-middle-y>
    <hc-key>us-il-085</hc-key>
    <hc-a2>JD</hc-a2>
  </desc>
</path>

<path fill="#CEE3F5" stroke="#6E6E6E" stroke-width="0.4" id="US.IL.199" d="M226.0,588.8 L246.3,589.0 L270.4,588.9 L270.3,610.8 L270.1,622.2 L257.3,622.4 L236.7,622.4 L233.0,622.2 L225.5,621.8 L225.9,598.4 Z">
  <desc xmlns="http://www.highcharts.com/svg/namespace">
    <fips>17199</fips>
    <name>Williamson</name>
    <hc-middle-x>0.50</hc-middle-x>
    <hc-middle-y>0.50</hc-middle-y>
    <hc-key>us-il-199</hc-key>
    <hc-a2>WI</hc-a2>
  </desc>
</path>

<path fill="#CEE3F5" stroke="#6E6E6E" stroke-width="0.4" id="US.IL.033" d="M377.0,425.5 L374.0,428.2 L378.0,432.2 L377.9,434.4 L382.6,438.1 L382.6,447.2 L388.5,450.8 L387.6,457.6 L385.6,458.5 L384.8,462.9 L386.9,463.9 L371.8,464.1 L349.7,464.4 L347.8,464.4 L346.0,464.5 L345.8,435.0 L345.4,423.5 L365.4,422.8 L374.2,423.7 Z">
  <desc xmlns="http://www.highcharts.com/svg/namespace">
    <fips>17033</fips>
    <name>Crawford</name>
    <hc-middle-x>0.35</hc-middle-x>
    <hc-middle-y>0.50</hc-middle-y>
    <hc-key>us-il-033</hc-key>
    <hc-a2>CR</hc-a2>
  </desc>
</path>

<path fill="#CEE3F5" stroke="#6E6E6E" stroke-width="0.4" id="US.IL.097" d="M320.3,4.6 L331.1,4.5 L357.2,4.8 L356.5,18.3 L355.2,22.2 L355.6,31.7 L358.1,41.0 L361.6,47.7 L340.9,47.7 L320.3,47.6 L320.4,36.6 Z">
  <desc xmlns="http://www.highcharts.com/svg/namespace">
    <fips>17097</fips>
    <name>Lake</name>
    <hc-middle-x>0.50</hc-middle-x>
    <hc-middle-y>0.50</hc-middle-y>
    <hc-key>us-il-097</hc-key>
    <hc-a2>LA</hc-a2>
  </desc>
</path>

<path fill="#CEE3F5" stroke="#6E6E6E" stroke-width="0.4" id="US.IL.139" d="M267.6,345.6 L279.3,345.6 L294.2,345.7 L294.2,352.7 L294.2,363.4 L294.3,373.1 L294.3,389.2 L283.2,389.1 L283.2,385.5 L279.5,383.6 L277.7,379.9 L270.3,379.8 L270.3,372.5 L261.3,372.3 L261.2,363.1 L261.1,352.1 L266.4,352.2 L266.4,345.6 Z">
  <desc xmlns="http://www.highcharts.com/svg/namespace">
    <fips>17139</fips>
    <name>Moultrie</name>
    <hc-middle-x>0.50</hc-middle-x>
    <hc-middle-y>0.35</hc-middle-y>
    <hc-key>us-il-139</hc-key>
    <hc-a2>MO</hc-a2>
  </desc>
</path>
</g>

<text x="350" y="714" text-anchor="middle" font-family="Verdana" font-size="8" stroke-opacity="0.6">Copyright (c) 2020 Highsoft AS, Based on data from The United States Census Bureau</text>

</svg>