<?xml version="1.0" encoding="utf-8" standalone="no"?>
<!DOCTYPE svg PUBLIC "-//W3C//DTD SVG 1.1//EN" "http://www.w3.org/Graphics/SVG/1.1/DTD/svg11.dtd">

<svg version="1.1" height="700pt" width="700pt" xmlns="http://www.w3.org/2000/svg" xmlns:xlink="http://www.w3.org/1999/xlink">
<desc>
Map version: 2.1.0
Copyright (c) 2023 Highsoft AS, Based on data from The United States Census Bureau
</desc>
<title>New Jersey</title>
<g id="admin2">

<g id="US">
  <desc xmlns="http://www.highcharts.com/svg/namespace">
    <name>United States of America</name>
    <labelrank>2</labelrank>
    <country-abbrev>U.S.A.</country-abbrev>
    <subregion>Northern America</subregion>
    <region-wb>North America</region-wb>
    <iso-a3>USA</iso-a3>
    <iso-a2>US</iso-a2>
    <woe-id>23424977</woe-id>
    <continent>North America</continent>
    <hc-key>us</hc-key>
    <hc-a2>US</hc-a2>
  </desc>
</g>

<g id="US.NJ">
  <desc xmlns="http://www.highcharts.com/svg/namespace">
    <labelrank>0</labelrank>
    <hasc>US.NJ</hasc>
    <alt-name>NJ|N.J.</alt-name>
    <woe-id>2347589</woe-id>
    <subregion>Middle Atlantic</subregion>
    <fips>US34</fips>
    <postal-code>NJ</postal-code>
    <name>New Jersey</name>
    <country>United States of America</country>
    <type-en>State</type-en>
    <region>Northeast</region>
    <longitude>-74.4653</longitude>
    <woe-name>New Jersey</woe-name>
    <latitude>40.0449</latitude>
    <woe-label>New Jersey, US, United States</woe-label>
    <type>State</type>
    <hc-key>us-nj</hc-key>
    <hc-a2>NJ</hc-a2>
  </desc>
</g>

<path fill="#CEE3F5" stroke="#6E6E6E" stroke-width="0.4" id="US.NJ.029" d="M295.5,519.7 L290.0,528.6 L293.6,513.2 L311.3,481.5 L325.0,461.2 L323.3,468.8 Z M254.1,518.5 L260.1,507.4 L260.1,456.3 L223.9,368.2 L229.6,365.0 L256.2,341.4 L287.8,342.5 L296.6,359.6 L313.1,362.4 L322.3,351.4 L330.7,365.1 L340.2,362.2 L333.4,403.9 L326.1,455.2 L324.4,453.3 L330.4,398.6 L335.2,374.9 L328.5,376.1 L332.3,381.9 L323.4,386.8 L322.1,413.4 L316.2,422.3 L318.4,434.5 L309.9,446.6 L304.5,464.6 L310.5,467.2 L309.6,477.5 L300.0,491.5 L292.7,493.6 L289.9,502.8 L282.2,504.7 L273.6,517.1 L282.4,528.3 L277.8,533.1 L275.5,526.4 L267.1,520.6 L256.4,522.5 L254.4,520.8 Z">
  <desc xmlns="http://www.highcharts.com/svg/namespace">
    <fips>34029</fips>
    <name>Ocean</name>
    <hc-middle-x>0.48</hc-middle-x>
    <hc-middle-y>0.29</hc-middle-y>
    <hc-key>us-nj-029</hc-key>
    <hc-a2>OC</hc-a2>
  </desc>
</path>

<path fill="#CEE3F5" stroke="#6E6E6E" stroke-width="0.4" id="US.NJ.001" d="M267.1,563.4 L252.3,565.6 L247.2,558.1 L261.0,562.0 L268.8,543.6 L279.8,545.1 Z M254.1,518.5 L254.4,520.8 L256.4,522.5 L257.7,534.3 L262.4,538.6 L258.8,550.2 L250.6,547.6 L242.7,564.0 L250.3,565.3 L255.0,576.2 L228.9,589.6 L239.7,574.0 L233.5,569.9 L223.3,584.2 L224.3,589.6 L210.0,589.0 L200.1,595.2 L162.9,591.0 L154.9,585.6 L156.2,556.6 L127.4,530.5 L134.7,522.3 L151.6,503.7 L155.7,499.1 L183.1,468.8 L196.5,479.9 L201.6,498.6 L208.5,498.5 L226.5,513.0 L245.0,521.3 Z M202.1,595.7 L201.6,595.9 L201.4,595.9 L200.6,595.7 Z">
  <desc xmlns="http://www.highcharts.com/svg/namespace">
    <fips>34001</fips>
    <name>Atlantic</name>
    <hc-middle-x>0.44</hc-middle-x>
    <hc-middle-y>0.51</hc-middle-y>
    <hc-key>us-nj-001</hc-key>
    <hc-a2>AT</hc-a2>
  </desc>
</path>

<path fill="#CEE3F5" stroke="#6E6E6E" stroke-width="0.4" id="US.NJ.005" d="M114.7,392.2 L119.7,386.0 L122.0,384.9 L130.7,376.8 L139.4,371.3 L156.1,366.3 L165.9,354.1 L173.4,356.0 L186.1,348.5 L190.9,337.9 L208.4,350.1 L216.2,351.2 L218.1,355.5 L223.9,368.2 L260.1,456.3 L260.1,507.4 L254.1,518.5 L245.0,521.3 L226.5,513.0 L208.5,498.5 L201.6,498.6 L196.5,479.9 L183.1,468.8 L167.4,453.2 L152.0,453.7 L145.9,450.3 L139.8,423.2 L130.4,408.5 L121.5,406.1 L120.7,393.8 Z">
  <desc xmlns="http://www.highcharts.com/svg/namespace">
    <fips>34005</fips>
    <name>Burlington</name>
    <hc-middle-x>0.67</hc-middle-x>
    <hc-middle-y>0.56</hc-middle-y>
    <hc-key>us-nj-005</hc-key>
    <hc-a2>BU</hc-a2>
  </desc>
</path>

<path fill="#CEE3F5" stroke="#6E6E6E" stroke-width="0.4" id="US.NJ.025" d="M223.9,368.2 L218.1,355.5 L216.2,351.2 L210.4,338.5 L221.8,336.3 L226.1,328.7 L239.7,321.0 L239.1,318.1 L244.3,318.6 L259.1,310.5 L263.4,302.3 L291.1,273.9 L296.1,260.6 L302.3,263.9 L319.3,262.6 L338.6,269.3 L347.3,274.8 L341.6,252.3 L347.9,255.9 L352.2,277.0 L352.0,296.3 L347.8,325.4 L340.2,362.2 L330.7,365.1 L322.3,351.4 L313.1,362.4 L296.6,359.6 L287.8,342.5 L256.2,341.4 L229.6,365.0 Z">
  <desc xmlns="http://www.highcharts.com/svg/namespace">
    <fips>34025</fips>
    <name>Monmouth</name>
    <hc-middle-x>0.75</hc-middle-x>
    <hc-middle-y>0.53</hc-middle-y>
    <hc-key>us-nj-025</hc-key>
    <hc-a2>MO</hc-a2>
  </desc>
</path>

<path fill="#CEE3F5" stroke="#6E6E6E" stroke-width="0.4" id="US.NJ.009" d="M202.1,595.7 L212.1,599.8 L224.3,595.7 L208.6,614.7 L201.1,621.0 L190.5,643.1 L181.3,644.9 L188.9,650.8 L180.5,663.2 L171.0,667.7 L167.5,682.5 L151.3,694.8 L138.2,700.0 L130.5,697.2 L134.0,676.6 L147.2,647.8 L148.8,636.6 L142.5,625.5 L141.1,614.1 L146.7,611.2 L150.2,590.0 L154.9,585.6 L162.9,591.0 L200.1,595.2 L199.7,595.6 L200.6,595.7 L201.4,595.9 Z">
  <desc xmlns="http://www.highcharts.com/svg/namespace">
    <fips>34009</fips>
    <name>Cape May</name>
    <hc-middle-x>0.40</hc-middle-x>
    <hc-middle-y>0.41</hc-middle-y>
    <hc-key>us-nj-009</hc-key>
    <hc-a2>CM</hc-a2>
  </desc>
</path>

<path fill="#CEE3F5" stroke="#6E6E6E" stroke-width="0.4" id="US.NJ.031" d="M264.6,44.4 L278.7,53.2 L298.1,64.3 L285.3,97.7 L295.7,108.2 L314.0,112.5 L319.0,143.3 L316.6,154.7 L292.4,137.4 L285.5,132.5 L281.7,123.5 L284.2,110.3 L277.1,103.4 L260.5,99.6 L246.9,87.5 L235.2,91.7 L238.5,80.9 L235.0,78.3 L252.7,56.7 Z">
  <desc xmlns="http://www.highcharts.com/svg/namespace">
    <fips>34031</fips>
    <name>Passaic</name>
    <hc-middle-x>0.36</hc-middle-x>
    <hc-middle-y>0.27</hc-middle-y>
    <hc-key>us-nj-031</hc-key>
    <hc-a2>PA</hc-a2>
  </desc>
</path>

<path fill="#CEE3F5" stroke="#6E6E6E" stroke-width="0.4" id="US.NJ.019" d="M138.0,292.4 L132.7,275.9 L118.6,274.1 L112.2,269.2 L110.7,234.5 L96.2,224.7 L87.8,227.9 L84.2,220.0 L93.8,209.6 L102.2,206.3 L122.4,190.7 L133.0,186.0 L150.3,163.9 L163.9,176.6 L186.2,183.7 L186.2,209.0 L190.9,212.0 L188.8,222.8 L175.2,245.7 L170.2,242.4 L181.0,268.8 L167.7,270.9 L169.1,280.1 L154.2,282.0 L157.1,291.0 Z">
  <desc xmlns="http://www.highcharts.com/svg/namespace">
    <fips>34019</fips>
    <name>Hunterdon</name>
    <hc-middle-x>0.58</hc-middle-x>
    <hc-middle-y>0.55</hc-middle-y>
    <hc-key>us-nj-019</hc-key>
    <hc-a2>HU</hc-a2>
  </desc>
</path>

<path fill="#CEE3F5" stroke="#6E6E6E" stroke-width="0.4" id="US.NJ.039" d="M314.1,196.2 L299.4,208.3 L298.5,217.2 L281.5,220.5 L278.8,215.6 L245.1,219.5 L243.7,218.4 L253.9,210.1 L256.2,198.6 L246.2,202.6 L244.1,197.1 L251.7,188.9 L263.7,178.1 L273.9,184.5 L282.6,183.0 L296.5,187.2 L301.1,193.2 Z">
  <desc xmlns="http://www.highcharts.com/svg/namespace">
    <fips>34039</fips>
    <name>Union</name>
    <hc-middle-x>0.50</hc-middle-x>
    <hc-middle-y>0.51</hc-middle-y>
    <hc-key>us-nj-039</hc-key>
    <hc-a2>UN</hc-a2>
  </desc>
</path>

<path fill="#CEE3F5" stroke="#6E6E6E" stroke-width="0.4" id="US.NJ.017" d="M347.1,160.3 L338.2,185.1 L324.3,202.3 L314.8,201.4 L322.1,187.7 L319.4,185.8 L319.6,178.5 L309.7,178.9 L312.8,164.4 L312.8,164.4 L312.8,164.4 L319.3,169.0 L341.3,153.5 Z M312.8,164.4 L312.8,164.3 L312.8,164.4 L312.8,164.4 L312.8,164.4 L312.8,164.4 L312.8,164.4 Z">
  <desc xmlns="http://www.highcharts.com/svg/namespace">
    <fips>34017</fips>
    <name>Hudson</name>
    <hc-middle-x>0.63</hc-middle-x>
    <hc-middle-y>0.39</hc-middle-y>
    <hc-key>us-nj-017</hc-key>
    <hc-a2>HU</hc-a2>
  </desc>
</path>

<path fill="#CEE3F5" stroke="#6E6E6E" stroke-width="0.4" id="US.NJ.041" d="M150.3,163.9 L133.0,186.0 L122.4,190.7 L102.2,206.3 L93.8,209.6 L84.2,220.0 L82.7,215.1 L82.0,204.1 L87.1,195.4 L81.3,191.3 L86.0,179.1 L83.1,173.9 L88.6,166.5 L95.7,167.7 L107.9,153.1 L106.4,146.0 L112.2,146.3 L114.6,139.0 L100.2,111.6 L98.0,105.1 L121.0,91.2 L123.8,83.5 L133.9,75.5 L160.2,108.0 L177.1,128.3 L168.5,136.9 L169.6,142.1 L159.0,159.2 Z">
  <desc xmlns="http://www.highcharts.com/svg/namespace">
    <fips>34041</fips>
    <name>Warren</name>
    <hc-middle-x>0.54</hc-middle-x>
    <hc-middle-y>0.36</hc-middle-y>
    <hc-key>us-nj-041</hc-key>
    <hc-a2>WA</hc-a2>
  </desc>
</path>

<path fill="#CEE3F5" stroke="#6E6E6E" stroke-width="0.4" id="US.NJ.011" d="M142.5,625.5 L137.4,623.3 L118.6,624.2 L114.6,616.9 L102.9,618.8 L90.8,624.6 L86.3,611.0 L71.3,599.6 L67.9,592.8 L55.9,590.9 L49.7,579.1 L43.5,580.8 L32.9,568.6 L32.6,566.5 L31.8,567.3 L30.7,566.0 L32.4,548.4 L41.8,546.6 L70.8,517.3 L105.2,546.7 L107.6,521.9 L110.4,514.9 L118.5,522.3 L127.4,530.5 L156.2,556.6 L154.9,585.6 L150.2,590.0 L146.7,611.2 L141.1,614.1 Z">
  <desc xmlns="http://www.highcharts.com/svg/namespace">
    <fips>34011</fips>
    <name>Cumberland</name>
    <hc-middle-x>0.62</hc-middle-x>
    <hc-middle-y>0.48</hc-middle-y>
    <hc-key>us-nj-011</hc-key>
    <hc-a2>CU</hc-a2>
  </desc>
</path>

<path fill="#CEE3F5" stroke="#6E6E6E" stroke-width="0.4" id="US.NJ.033" d="M32.6,566.5 L32.9,568.6 L31.8,567.3 L32.1,566.4 Z M28.6,452.4 L40.7,468.8 L51.8,479.5 L66.0,482.0 L69.2,486.9 L79.9,486.4 L110.4,514.9 L107.6,521.9 L105.2,546.7 L70.8,517.3 L41.8,546.6 L32.4,548.4 L30.7,566.0 L5.4,540.1 L4.1,534.6 L7.2,535.2 L10.1,514.5 L9.9,511.2 L6.9,509.5 L2.3,504.6 L0.0,500.3 L10.7,489.8 L12.9,479.6 L21.0,472.1 L21.8,462.4 Z">
  <desc xmlns="http://www.highcharts.com/svg/namespace">
    <fips>34033</fips>
    <name>Salem</name>
    <hc-middle-x>0.27</hc-middle-x>
    <hc-middle-y>0.42</hc-middle-y>
    <hc-key>us-nj-033</hc-key>
    <hc-a2>SA</hc-a2>
  </desc>
</path>

<path fill="#CEE3F5" stroke="#6E6E6E" stroke-width="0.4" id="US.NJ.037" d="M133.9,75.5 L129.2,77.3 L128.5,76.1 L130.6,71.5 L143.5,63.0 L152.5,50.7 L162.1,23.0 L180.1,3.5 L193.3,0.0 L244.9,31.5 L264.6,44.4 L252.7,56.7 L235.0,78.3 L204.9,113.0 L202.2,125.6 L189.4,132.0 L185.0,125.7 L177.1,128.3 L160.2,108.0 Z">
  <desc xmlns="http://www.highcharts.com/svg/namespace">
    <fips>34037</fips>
    <name>Sussex</name>
    <hc-middle-x>0.49</hc-middle-x>
    <hc-middle-y>0.49</hc-middle-y>
    <hc-key>us-nj-037</hc-key>
    <hc-a2>SU</hc-a2>
  </desc>
</path>

<path fill="#CEE3F5" stroke="#6E6E6E" stroke-width="0.4" id="US.NJ.035" d="M244.1,197.1 L246.2,202.6 L256.2,198.6 L253.9,210.1 L243.7,218.4 L230.0,227.3 L232.9,235.4 L244.5,249.6 L227.7,264.8 L216.7,270.9 L216.3,277.5 L209.3,283.2 L201.8,278.4 L186.7,282.9 L181.0,268.8 L170.2,242.4 L175.2,245.7 L188.8,222.8 L190.9,212.0 L186.2,209.0 L186.2,183.7 L223.4,172.6 L232.7,190.2 L230.6,204.1 Z">
  <desc xmlns="http://www.highcharts.com/svg/namespace">
    <fips>34035</fips>
    <name>Somerset</name>
    <hc-middle-x>0.48</hc-middle-x>
    <hc-middle-y>0.53</hc-middle-y>
    <hc-key>us-nj-035</hc-key>
    <hc-a2>SO</hc-a2>
  </desc>
</path>

<path fill="#CEE3F5" stroke="#6E6E6E" stroke-width="0.4" id="US.NJ.027" d="M177.1,128.3 L185.0,125.7 L189.4,132.0 L202.2,125.6 L204.9,113.0 L235.0,78.3 L238.5,80.9 L235.2,91.7 L246.9,87.5 L260.5,99.6 L277.1,103.4 L284.2,110.3 L281.7,123.5 L285.5,132.5 L271.9,130.3 L274.6,142.1 L270.8,156.9 L265.4,160.9 L263.7,178.1 L251.7,188.9 L244.1,197.1 L230.6,204.1 L232.7,190.2 L223.4,172.6 L186.2,183.7 L163.9,176.6 L150.3,163.9 L159.0,159.2 L169.6,142.1 L168.5,136.9 Z">
  <desc xmlns="http://www.highcharts.com/svg/namespace">
    <fips>34027</fips>
    <name>Morris</name>
    <hc-middle-x>0.63</hc-middle-x>
    <hc-middle-y>0.47</hc-middle-y>
    <hc-key>us-nj-027</hc-key>
    <hc-a2>MO</hc-a2>
  </desc>
</path>

<path fill="#CEE3F5" stroke="#6E6E6E" stroke-width="0.4" id="US.NJ.023" d="M209.3,283.2 L216.3,277.5 L216.7,270.9 L227.7,264.8 L244.5,249.6 L232.9,235.4 L230.0,227.3 L243.7,218.4 L245.1,219.5 L278.8,215.6 L281.5,220.5 L298.5,217.2 L296.8,226.2 L288.3,232.0 L287.5,243.1 L283.4,247.7 L289.3,258.5 L296.1,260.6 L291.1,273.9 L263.4,302.3 L259.1,310.5 L244.3,318.6 L239.1,318.1 L239.5,312.2 L229.3,306.3 L224.3,307.4 L207.0,292.9 Z">
  <desc xmlns="http://www.highcharts.com/svg/namespace">
    <fips>34023</fips>
    <name>Middlesex</name>
    <hc-middle-x>0.57</hc-middle-x>
    <hc-middle-y>0.40</hc-middle-y>
    <hc-key>us-nj-023</hc-key>
    <hc-a2>MI</hc-a2>
  </desc>
</path>

<path fill="#CEE3F5" stroke="#6E6E6E" stroke-width="0.4" id="US.NJ.015" d="M151.6,503.7 L134.7,522.3 L127.4,530.5 L118.5,522.3 L110.4,514.9 L79.9,486.4 L69.2,486.9 L66.0,482.0 L51.8,479.5 L40.7,468.8 L28.6,452.4 L34.5,448.7 L33.3,447.8 L43.0,440.9 L62.9,433.8 L66.7,433.2 L92.7,426.6 L95.9,424.1 L105.7,435.4 L108.4,447.5 L105.2,454.1 L113.6,454.5 L119.2,468.3 L126.9,475.0 L139.8,479.8 L145.9,496.8 Z">
  <desc xmlns="http://www.highcharts.com/svg/namespace">
    <fips>34015</fips>
    <name>Gloucester</name>
    <hc-middle-x>0.40</hc-middle-x>
    <hc-middle-y>0.31</hc-middle-y>
    <hc-key>us-nj-015</hc-key>
    <hc-a2>GL</hc-a2>
  </desc>
</path>

<path fill="#CEE3F5" stroke="#6E6E6E" stroke-width="0.4" id="US.NJ.007" d="M95.9,424.1 L102.9,417.5 L99.1,404.2 L107.4,404.0 L114.7,392.2 L120.7,393.8 L121.5,406.1 L130.4,408.5 L139.8,423.2 L145.9,450.3 L152.0,453.7 L167.4,453.2 L183.1,468.8 L155.7,499.1 L151.6,503.7 L145.9,496.8 L139.8,479.8 L126.9,475.0 L119.2,468.3 L113.6,454.5 L105.2,454.1 L108.4,447.5 L105.7,435.4 Z">
  <desc xmlns="http://www.highcharts.com/svg/namespace">
    <fips>34007</fips>
    <name>Camden</name>
    <hc-middle-x>0.25</hc-middle-x>
    <hc-middle-y>0.28</hc-middle-y>
    <hc-key>us-nj-007</hc-key>
    <hc-a2>CA</hc-a2>
  </desc>
</path>

<path fill="#CEE3F5" stroke="#6E6E6E" stroke-width="0.4" id="US.NJ.013" d="M319.4,185.8 L317.6,188.3 L314.1,196.2 L301.1,193.2 L296.5,187.2 L282.6,183.0 L273.9,184.5 L263.7,178.1 L265.4,160.9 L270.8,156.9 L274.6,142.1 L271.9,130.3 L285.5,132.5 L292.4,137.4 L316.6,154.7 L314.8,160.8 L312.8,164.4 L312.8,164.4 L312.8,164.4 L312.8,164.4 L312.8,164.4 L309.7,178.9 L319.6,178.5 Z M312.8,164.4 L312.8,164.3 L312.8,164.4 L312.8,164.4 Z">
  <desc xmlns="http://www.highcharts.com/svg/namespace">
    <fips>34013</fips>
    <name>Essex</name>
    <hc-middle-x>0.44</hc-middle-x>
    <hc-middle-y>0.48</hc-middle-y>
    <hc-key>us-nj-013</hc-key>
    <hc-a2>ES</hc-a2>
  </desc>
</path>

<path fill="#CEE3F5" stroke="#6E6E6E" stroke-width="0.4" id="US.NJ.003" d="M316.6,154.7 L319.0,143.3 L314.0,112.5 L295.7,108.2 L285.3,97.7 L298.1,64.3 L313.6,72.8 L365.1,103.0 L362.8,122.3 L347.1,160.3 L341.3,153.5 L319.3,169.0 L312.8,164.4 L312.8,164.4 L312.8,164.4 L312.8,164.4 L312.8,164.4 L312.8,164.3 L314.8,160.8 Z">
  <desc xmlns="http://www.highcharts.com/svg/namespace">
    <fips>34003</fips>
    <name>Bergen</name>
    <hc-middle-x>0.55</hc-middle-x>
    <hc-middle-y>0.40</hc-middle-y>
    <hc-key>us-nj-003</hc-key>
    <hc-a2>BE</hc-a2>
  </desc>
</path>

<path fill="#CEE3F5" stroke="#6E6E6E" stroke-width="0.4" id="US.NJ.021" d="M181.0,268.8 L186.7,282.9 L201.8,278.4 L209.3,283.2 L207.0,292.9 L224.3,307.4 L229.3,306.3 L239.5,312.2 L239.1,318.1 L239.7,321.0 L226.1,328.7 L221.8,336.3 L210.4,338.5 L216.2,351.2 L208.4,350.1 L190.9,337.9 L186.1,348.5 L175.9,329.2 L160.1,318.7 L154.4,305.8 L138.0,292.4 L157.1,291.0 L154.2,282.0 L169.1,280.1 L167.7,270.9 Z">
  <desc xmlns="http://www.highcharts.com/svg/namespace">
    <fips>34021</fips>
    <name>Mercer</name>
    <hc-middle-x>0.51</hc-middle-x>
    <hc-middle-y>0.48</hc-middle-y>
    <hc-key>us-nj-021</hc-key>
    <hc-a2>ME</hc-a2>
  </desc>
</path>
</g>

<text x="350" y="714" text-anchor="middle" font-family="Verdana" font-size="8" stroke-opacity="0.6">Copyright (c) 2023 Highsoft AS, Based on data from The United States Census Bureau</text>

</svg>