<?xml version="1.0" encoding="utf-8" standalone="no"?>
<!DOCTYPE svg PUBLIC "-//W3C//DTD SVG 1.1//EN" "http://www.w3.org/Graphics/SVG/1.1/DTD/svg11.dtd">

<svg version="1.1" height="700pt" width="700pt" xmlns="http://www.w3.org/2000/svg" xmlns:xlink="http://www.w3.org/1999/xlink">
<desc>
Map version: 2.1.0
Copyright (c) 2023 Highsoft AS, Based on data from The United States Census Bureau
</desc>
<title>New Mexico</title>
<g id="admin2">

<g id="US.NM">
  <desc xmlns="http://www.highcharts.com/svg/namespace">
    <labelrank>0</labelrank>
    <hasc>US.NM</hasc>
    <alt-name>NM|N.M.</alt-name>
    <woe-id>2347590</woe-id>
    <subregion>Mountain</subregion>
    <fips>US35</fips>
    <postal-code>NM</postal-code>
    <name>New Mexico</name>
    <country>United States of America</country>
    <type-en>State</type-en>
    <region>West</region>
    <longitude>-106.024</longitude>
    <woe-name>New Mexico</woe-name>
    <latitude>34.5002</latitude>
    <woe-label>New Mexico, US, United States</woe-label>
    <type>State</type>
    <hc-key>us-nm</hc-key>
    <hc-a2>NM</hc-a2>
  </desc>
</g>

<g id="US">
  <desc xmlns="http://www.highcharts.com/svg/namespace">
    <name>United States of America</name>
    <labelrank>2</labelrank>
    <country-abbrev>U.S.A.</country-abbrev>
    <subregion>Northern America</subregion>
    <region-wb>North America</region-wb>
    <iso-a3>USA</iso-a3>
    <iso-a2>US</iso-a2>
    <woe-id>23424977</woe-id>
    <continent>North America</continent>
    <hc-key>us</hc-key>
    <hc-a2>US</hc-a2>
  </desc>
</g>

<path fill="#CEE3F5" stroke="#6E6E6E" stroke-width="0.4" id="US.NM.031" d="M188.5,213.2 L188.5,213.2 L156.4,212.9 L156.5,207.5 L145.8,207.4 L145.7,212.7 L71.7,211.1 L70.7,253.9 L12.3,252.3 L13.6,202.7 L16.0,124.1 L111.6,126.4 L157.8,127.4 L157.8,127.4 L189.6,128.0 L189.0,180.8 L189.0,199.3 L188.6,213.2 Z">
  <desc xmlns="http://www.highcharts.com/svg/namespace">
    <fips>35031</fips>
    <name>McKinley</name>
    <hc-middle-x>0.50</hc-middle-x>
    <hc-middle-y>0.34</hc-middle-y>
    <hc-key>us-nm-031</hc-key>
    <hc-a2>MC</hc-a2>
  </desc>
</path>

<path fill="#CEE3F5" stroke="#6E6E6E" stroke-width="0.4" id="US.NM.043" d="M188.5,213.2 L189.0,180.8 L189.6,128.0 L157.8,127.4 L157.8,127.4 L157.8,127.4 L157.8,127.4 L158.1,114.2 L158.4,100.4 L196.9,101.3 L232.0,101.6 L231.8,128.3 L295.6,128.2 L295.5,132.5 L290.2,131.7 L288.8,134.3 L280.3,133.3 L280.2,152.1 L284.6,151.0 L292.0,154.0 L295.5,158.4 L295.4,213.9 L295.8,224.9 L295.8,224.9 L254.1,224.5 L199.8,223.9 L195.6,213.3 L188.5,213.2 Z M292.6,146.2 L295.4,146.2 L295.4,146.2 L295.4,146.2 L295.5,148.2 Z">
  <desc xmlns="http://www.highcharts.com/svg/namespace">
    <fips>35043</fips>
    <name>Sandoval</name>
    <hc-middle-x>0.52</hc-middle-x>
    <hc-middle-y>0.50</hc-middle-y>
    <hc-key>us-nm-043</hc-key>
    <hc-a2>SA</hc-a2>
  </desc>
</path>

<path fill="#CEE3F5" stroke="#6E6E6E" stroke-width="0.4" id="US.NM.045" d="M157.8,127.4 L111.6,126.4 L16.0,124.1 L19.6,1.5 L179.8,4.8 L176.2,10.5 L177.2,15.1 L172.5,19.8 L169.5,19.9 L162.1,24.9 L160.0,28.5 L158.5,73.6 L158.4,100.4 L158.1,114.2 L157.8,127.4 L157.8,127.4 Z">
  <desc xmlns="http://www.highcharts.com/svg/namespace">
    <fips>35045</fips>
    <name>San Juan</name>
    <hc-middle-x>0.44</hc-middle-x>
    <hc-middle-y>0.49</hc-middle-y>
    <hc-key>us-nm-045</hc-key>
    <hc-a2>SJ</hc-a2>
  </desc>
</path>

<path fill="#CEE3F5" stroke="#6E6E6E" stroke-width="0.4" id="US.NM.049" d="M295.4,213.9 L295.5,158.4 L297.9,157.0 L303.1,149.5 L295.5,148.2 L295.4,146.2 L295.4,146.2 L295.4,146.2 L295.7,141.6 L295.7,136.9 L314.9,136.9 L314.9,130.1 L313.1,128.1 L348.5,128.0 L348.5,130.9 L348.3,143.6 L348.3,144.1 L348.9,213.8 L349.4,246.1 L333.1,246.1 L295.9,246.4 L295.9,246.4 L295.9,246.4 L295.9,246.4 L295.9,246.4 L295.9,246.4 L295.9,246.4 L295.9,230.8 L295.8,224.9 L295.8,224.9 Z">
  <desc xmlns="http://www.highcharts.com/svg/namespace">
    <fips>35049</fips>
    <name>Santa Fe</name>
    <hc-middle-x>0.50</hc-middle-x>
    <hc-middle-y>0.67</hc-middle-y>
    <hc-key>us-nm-049</hc-key>
    <hc-a2>SF</hc-a2>
  </desc>
</path>

<path fill="#CEE3F5" stroke="#6E6E6E" stroke-width="0.4" id="US.NM.006" d="M195.6,213.3 L199.8,223.9 L200.4,225.4 L212.6,256.2 L212.6,256.3 L212.6,256.3 L198.8,256.0 L198.3,302.6 L158.7,302.1 L145.4,302.1 L110.1,301.2 L80.3,300.8 L11.0,299.1 L11.8,272.0 L12.3,252.3 L70.7,253.9 L71.7,211.1 L145.7,212.7 L145.8,207.4 L156.5,207.5 L156.4,212.9 L188.5,213.2 L188.5,213.2 L188.6,213.2 Z">
  <desc xmlns="http://www.highcharts.com/svg/namespace">
    <fips>35006</fips>
    <name>Cibola</name>
    <hc-middle-x>0.62</hc-middle-x>
    <hc-middle-y>0.50</hc-middle-y>
    <hc-key>us-nm-006</hc-key>
    <hc-a2>CI</hc-a2>
  </desc>
</path>

<path fill="#CEE3F5" stroke="#6E6E6E" stroke-width="0.4" id="US.NM.028" d="M292.6,146.2 L295.5,148.2 L303.1,149.5 L297.9,157.0 L295.5,158.4 L292.0,154.0 L284.6,151.0 L280.2,152.1 L280.3,133.3 L288.8,134.3 L290.2,131.7 L295.5,132.5 L295.7,133.4 L295.7,136.9 L295.7,141.6 L295.4,146.2 L295.4,146.2 Z">
  <desc xmlns="http://www.highcharts.com/svg/namespace">
    <fips>35028</fips>
    <name>Los Alamos</name>
    <hc-middle-x>0.50</hc-middle-x>
    <hc-middle-y>0.50</hc-middle-y>
    <hc-key>us-nm-028</hc-key>
    <hc-a2>LA</hc-a2>
  </desc>
</path>

<path fill="#CEE3F5" stroke="#6E6E6E" stroke-width="0.4" id="US.NM.047" d="M349.4,246.1 L348.9,213.8 L348.3,144.1 L385.5,143.9 L409.4,151.4 L418.0,157.9 L418.7,155.9 L433.6,155.0 L483.9,153.5 L518.5,152.7 L522.9,150.1 L549.4,196.2 L558.2,196.0 L558.3,200.0 L558.8,218.3 L536.6,218.7 L536.5,216.0 L509.9,231.6 L509.7,222.5 L392.0,224.3 L392.2,245.7 L372.3,245.9 Z">
  <desc xmlns="http://www.highcharts.com/svg/namespace">
    <fips>35047</fips>
    <name>San Miguel</name>
    <hc-middle-x>0.47</hc-middle-x>
    <hc-middle-y>0.45</hc-middle-y>
    <hc-key>us-nm-047</hc-key>
    <hc-a2>SM</hc-a2>
  </desc>
</path>

<path fill="#CEE3F5" stroke="#6E6E6E" stroke-width="0.4" id="US.NM.001" d="M295.9,246.4 L295.9,257.1 L305.4,257.0 L305.5,267.3 L279.0,267.3 L276.8,263.2 L251.1,262.8 L247.6,267.2 L216.8,267.0 L212.6,256.3 L212.6,256.3 L212.6,256.2 L212.5,255.8 L200.4,225.4 L199.8,223.9 L254.1,224.5 L295.8,224.9 L295.8,224.9 L295.9,230.8 L295.9,246.4 L295.9,246.4 L295.9,246.4 L295.9,246.4 Z">
  <desc xmlns="http://www.highcharts.com/svg/namespace">
    <fips>35001</fips>
    <name>Bernalillo</name>
    <hc-middle-x>0.75</hc-middle-x>
    <hc-middle-y>0.50</hc-middle-y>
    <hc-key>us-nm-001</hc-key>
    <hc-a2>BE</hc-a2>
  </desc>
</path>

<path fill="#CEE3F5" stroke="#6E6E6E" stroke-width="0.4" id="US.NM.023" d="M89.8,644.7 L89.0,645.4 L88.1,700.0 L0.0,698.2 L4.9,520.6 L24.9,521.1 L24.5,542.5 L46.0,543.0 L45.7,553.7 L57.2,553.9 L55.9,607.6 L57.3,607.7 L56.8,634.2 L89.0,634.8 L88.9,640.2 Z">
  <desc xmlns="http://www.highcharts.com/svg/namespace">
    <fips>35023</fips>
    <name>Hidalgo</name>
    <hc-middle-x>0.50</hc-middle-x>
    <hc-middle-y>0.78</hc-middle-y>
    <hc-key>us-nm-023</hc-key>
    <hc-a2>HI</hc-a2>
  </desc>
</path>

<path fill="#CEE3F5" stroke="#6E6E6E" stroke-width="0.4" id="US.NM.013" d="M282.0,619.8 L256.7,619.8 L257.4,629.7 L253.9,632.8 L258.0,641.1 L264.1,643.6 L266.1,646.6 L185.4,646.0 L185.6,609.3 L186.1,545.0 L186.4,523.5 L229.1,524.0 L229.1,518.7 L285.9,490.6 L285.9,502.2 L282.2,502.3 Z">
  <desc xmlns="http://www.highcharts.com/svg/namespace">
    <fips>35013</fips>
    <name>Doña Ana</name>
    <hc-middle-x>0.49</hc-middle-x>
    <hc-middle-y>0.54</hc-middle-y>
    <hc-key>us-nm-013</hc-key>
    <hc-a2>DA</hc-a2>
  </desc>
</path>

<path fill="#CEE3F5" stroke="#6E6E6E" stroke-width="0.4" id="US.NM.009" d="M619.9,251.8 L621.2,292.9 L622.3,331.9 L551.3,333.8 L550.6,296.7 L553.8,296.6 L553.6,285.9 L574.9,285.4 L574.7,274.7 L585.3,274.5 L585.1,263.7 L595.8,263.5 L595.6,252.5 Z">
  <desc xmlns="http://www.highcharts.com/svg/namespace">
    <fips>35009</fips>
    <name>Curry</name>
    <hc-middle-x>0.49</hc-middle-x>
    <hc-middle-y>0.62</hc-middle-y>
    <hc-key>us-nm-009</hc-key>
    <hc-a2>CU</hc-a2>
  </desc>
</path>

<path fill="#CEE3F5" stroke="#6E6E6E" stroke-width="0.4" id="US.NM.007" d="M396.8,5.5 L418.5,5.5 L483.8,4.4 L516.4,3.3 L517.6,56.0 L518.5,99.0 L494.5,99.6 L476.0,99.8 L433.2,100.6 L433.2,95.3 L385.8,95.7 L387.0,78.1 L384.0,72.7 L387.7,67.5 L381.8,60.1 L384.6,59.0 L382.0,53.2 L384.3,49.7 L382.4,44.3 L386.7,42.2 L388.0,39.0 L394.2,39.7 L396.8,37.6 L395.6,30.7 L396.1,23.7 L398.9,15.3 L395.3,9.6 Z">
  <desc xmlns="http://www.highcharts.com/svg/namespace">
    <fips>35007</fips>
    <name>Colfax</name>
    <hc-middle-x>0.74</hc-middle-x>
    <hc-middle-y>0.50</hc-middle-y>
    <hc-key>us-nm-007</hc-key>
    <hc-a2>CO</hc-a2>
  </desc>
</path>

<path fill="#CEE3F5" stroke="#6E6E6E" stroke-width="0.4" id="US.NM.025" d="M624.2,421.9 L625.1,487.3 L626.0,522.3 L628.8,615.0 L559.9,616.8 L558.4,552.6 L548.9,552.9 L547.6,498.5 L552.6,498.3 L551.3,445.5 L555.9,445.3 L555.5,423.9 L577.1,423.3 L584.3,423.1 Z">
  <desc xmlns="http://www.highcharts.com/svg/namespace">
    <fips>35025</fips>
    <name>Lea</name>
    <hc-middle-x>0.53</hc-middle-x>
    <hc-middle-y>0.50</hc-middle-y>
    <hc-key>us-nm-025</hc-key>
    <hc-a2>LE</hc-a2>
  </desc>
</path>

<path fill="#CEE3F5" stroke="#6E6E6E" stroke-width="0.4" id="US.NM.033" d="M385.8,95.7 L433.2,95.3 L433.2,100.6 L476.0,99.8 L475.7,102.9 L479.3,107.6 L478.3,111.5 L482.8,118.4 L484.6,128.7 L487.4,131.4 L485.0,133.9 L485.9,137.3 L481.4,144.1 L483.9,153.5 L433.6,155.0 L418.7,155.9 L418.0,157.9 L409.4,151.4 L385.5,143.9 L348.3,144.1 L348.3,143.6 L348.5,130.9 L354.2,133.3 L357.0,130.7 L363.0,131.6 L367.2,126.5 L371.2,123.5 L378.1,111.9 L377.9,107.1 L380.3,104.5 L379.0,98.9 Z">
  <desc xmlns="http://www.highcharts.com/svg/namespace">
    <fips>35033</fips>
    <name>Mora</name>
    <hc-middle-x>0.63</hc-middle-x>
    <hc-middle-y>0.50</hc-middle-y>
    <hc-key>us-nm-033</hc-key>
    <hc-a2>MO</hc-a2>
  </desc>
</path>

<path fill="#CEE3F5" stroke="#6E6E6E" stroke-width="0.4" id="US.NM.041" d="M550.6,296.7 L551.3,333.8 L622.3,331.9 L623.6,372.2 L624.2,421.9 L584.3,423.1 L577.1,423.3 L576.9,412.6 L555.5,413.3 L555.1,393.2 L542.3,393.5 L541.6,361.3 L530.9,361.4 L530.0,336.4 L529.1,297.2 L529.1,297.2 L550.2,296.7 Z">
  <desc xmlns="http://www.highcharts.com/svg/namespace">
    <fips>35041</fips>
    <name>Roosevelt</name>
    <hc-middle-x>0.58</hc-middle-x>
    <hc-middle-y>0.64</hc-middle-y>
    <hc-key>us-nm-041</hc-key>
    <hc-a2>RO</hc-a2>
  </desc>
</path>

<path fill="#CEE3F5" stroke="#6E6E6E" stroke-width="0.4" id="US.NM.011" d="M530.0,336.4 L530.9,361.4 L509.4,361.8 L509.6,372.6 L445.1,373.1 L445.0,362.4 L434.0,362.5 L433.8,333.5 L433.7,330.7 L433.3,299.0 L478.7,298.3 L478.5,287.6 L489.2,287.3 L489.0,276.6 L510.3,276.2 L510.8,297.6 L529.1,297.2 L529.1,297.2 Z">
  <desc xmlns="http://www.highcharts.com/svg/namespace">
    <fips>35011</fips>
    <name>De Baca</name>
    <hc-middle-x>0.50</hc-middle-x>
    <hc-middle-y>0.54</hc-middle-y>
    <hc-key>us-nm-011</hc-key>
    <hc-a2>DB</hc-a2>
  </desc>
</path>

<path fill="#CEE3F5" stroke="#6E6E6E" stroke-width="0.4" id="US.NM.003" d="M6.3,467.6 L9.0,370.3 L11.0,299.1 L80.3,300.8 L110.1,301.2 L145.4,302.1 L144.7,341.2 L145.7,341.2 L145.0,388.5 L145.2,407.3 L144.7,437.4 L121.4,437.4 L115.0,436.8 L114.4,470.8 L68.0,470.0 L47.7,468.5 Z">
  <desc xmlns="http://www.highcharts.com/svg/namespace">
    <fips>35003</fips>
    <name>Catron</name>
    <hc-middle-x>0.41</hc-middle-x>
    <hc-middle-y>0.31</hc-middle-y>
    <hc-key>us-nm-003</hc-key>
    <hc-a2>CA</hc-a2>
  </desc>
</path>

<path fill="#CEE3F5" stroke="#6E6E6E" stroke-width="0.4" id="US.NM.029" d="M185.4,646.0 L150.9,645.6 L89.8,644.7 L88.9,640.2 L89.0,634.8 L89.5,608.3 L88.2,608.2 L89.2,554.5 L121.1,555.0 L121.2,544.3 L154.0,544.7 L168.9,544.9 L186.1,545.0 L185.6,609.3 Z">
  <desc xmlns="http://www.highcharts.com/svg/namespace">
    <fips>35029</fips>
    <name>Luna</name>
    <hc-middle-x>0.50</hc-middle-x>
    <hc-middle-y>0.50</hc-middle-y>
    <hc-key>us-nm-029</hc-key>
    <hc-a2>LU</hc-a2>
  </desc>
</path>

<path fill="#CEE3F5" stroke="#6E6E6E" stroke-width="0.4" id="US.NM.017" d="M154.0,544.7 L121.2,544.3 L121.1,555.0 L89.2,554.5 L88.2,608.2 L89.5,608.3 L89.0,634.8 L56.8,634.2 L57.3,607.7 L55.9,607.6 L57.2,553.9 L45.7,553.7 L46.0,543.0 L24.5,542.5 L24.9,521.1 L4.9,520.6 L5.6,494.2 L6.3,467.6 L47.7,468.5 L68.0,470.0 L114.4,470.8 L127.4,470.9 L129.3,475.5 L131.2,487.5 L128.9,495.5 L131.6,500.3 L136.7,501.8 L138.2,506.8 L137.3,513.9 L142.6,523.3 L143.1,530.3 L140.7,541.5 Z">
  <desc xmlns="http://www.highcharts.com/svg/namespace">
    <fips>35017</fips>
    <name>Grant</name>
    <hc-middle-x>0.51</hc-middle-x>
    <hc-middle-y>0.30</hc-middle-y>
    <hc-key>us-nm-017</hc-key>
    <hc-a2>GR</hc-a2>
  </desc>
</path>

<path fill="#CEE3F5" stroke="#6E6E6E" stroke-width="0.4" id="US.NM.039" d="M179.8,4.8 L233.4,5.3 L234.2,6.2 L319.3,6.0 L322.7,19.4 L321.5,28.5 L321.9,40.7 L326.2,71.5 L324.1,84.9 L316.3,88.4 L314.4,91.9 L334.4,100.0 L346.6,116.0 L367.2,126.5 L363.0,131.6 L357.0,130.7 L354.2,133.3 L348.5,130.9 L348.5,128.0 L313.1,128.1 L314.9,130.1 L314.9,136.9 L295.7,136.9 L295.7,133.4 L295.5,132.5 L295.6,128.2 L231.8,128.3 L232.0,101.6 L196.9,101.3 L158.4,100.4 L158.5,73.6 L160.0,28.5 L162.1,24.9 L169.5,19.9 L172.5,19.8 L177.2,15.1 L176.2,10.5 Z">
  <desc xmlns="http://www.highcharts.com/svg/namespace">
    <fips>35039</fips>
    <name>Rio Arriba</name>
    <hc-middle-x>0.40</hc-middle-x>
    <hc-middle-y>0.46</hc-middle-y>
    <hc-key>us-nm-039</hc-key>
    <hc-a2>RA</hc-a2>
  </desc>
</path>

<path fill="#CEE3F5" stroke="#6E6E6E" stroke-width="0.4" id="US.NM.061" d="M212.6,256.3 L216.8,267.0 L247.6,267.2 L251.1,262.8 L276.8,263.2 L279.0,267.3 L273.6,267.3 L273.4,299.4 L272.9,310.2 L278.2,310.1 L278.3,320.2 L274.3,320.5 L269.4,318.0 L242.6,308.8 L231.0,302.8 L198.3,302.6 L198.8,256.0 L212.6,256.3 L212.6,256.2 Z">
  <desc xmlns="http://www.highcharts.com/svg/namespace">
    <fips>35061</fips>
    <name>Valencia</name>
    <hc-middle-x>0.62</hc-middle-x>
    <hc-middle-y>0.55</hc-middle-y>
    <hc-key>us-nm-061</hc-key>
    <hc-a2>VA</hc-a2>
  </desc>
</path>

<path fill="#CEE3F5" stroke="#6E6E6E" stroke-width="0.4" id="US.NM.055" d="M396.8,5.5 L395.3,9.6 L398.9,15.3 L396.1,23.7 L395.6,30.7 L396.8,37.6 L394.2,39.7 L388.0,39.0 L386.7,42.2 L382.4,44.3 L384.3,49.7 L382.0,53.2 L384.6,59.0 L381.8,60.1 L387.7,67.5 L384.0,72.7 L387.0,78.1 L385.8,95.7 L379.0,98.9 L380.3,104.5 L377.9,107.1 L378.1,111.9 L371.2,123.5 L367.2,126.5 L346.6,116.0 L334.4,100.0 L314.4,91.9 L316.3,88.4 L324.1,84.9 L326.2,71.5 L321.9,40.7 L321.5,28.5 L322.7,19.4 L319.3,6.0 L370.8,5.7 Z">
  <desc xmlns="http://www.highcharts.com/svg/namespace">
    <fips>35055</fips>
    <name>Taos</name>
    <hc-middle-x>0.48</hc-middle-x>
    <hc-middle-y>0.44</hc-middle-y>
    <hc-key>us-nm-055</hc-key>
    <hc-a2>TA</hc-a2>
  </desc>
</path>

<path fill="#CEE3F5" stroke="#6E6E6E" stroke-width="0.4" id="US.NM.005" d="M434.0,362.5 L445.0,362.4 L445.1,373.1 L509.6,372.6 L509.4,361.8 L530.9,361.4 L541.6,361.3 L542.3,393.5 L555.1,393.2 L555.5,413.3 L576.9,412.6 L577.1,423.3 L555.5,423.9 L555.9,445.3 L551.3,445.5 L552.6,498.3 L547.6,498.5 L441.2,500.6 L441.8,555.0 L440.9,555.1 L388.6,555.8 L388.2,501.4 L392.0,501.3 L391.7,480.4 L423.8,479.9 L434.2,479.2 L434.2,458.6 L436.1,458.6 L435.2,447.3 L434.7,395.2 Z">
  <desc xmlns="http://www.highcharts.com/svg/namespace">
    <fips>35005</fips>
    <name>Chaves</name>
    <hc-middle-x>0.56</hc-middle-x>
    <hc-middle-y>0.38</hc-middle-y>
    <hc-key>us-nm-005</hc-key>
    <hc-a2>CH</hc-a2>
  </desc>
</path>

<path fill="#CEE3F5" stroke="#6E6E6E" stroke-width="0.4" id="US.NM.027" d="M433.7,330.7 L433.8,333.5 L434.0,362.5 L434.7,395.2 L435.2,447.3 L436.1,458.6 L434.2,458.6 L434.2,479.2 L423.8,479.9 L391.7,480.4 L391.3,459.2 L349.4,459.5 L349.2,449.0 L285.4,449.1 L282.7,449.1 L282.6,438.1 L282.5,415.9 L293.4,416.0 L315.5,417.2 L315.5,395.6 L328.6,395.6 L328.5,342.2 L328.6,342.2 L390.9,341.8 L390.8,331.2 L398.1,331.0 Z">
  <desc xmlns="http://www.highcharts.com/svg/namespace">
    <fips>35027</fips>
    <name>Lincoln</name>
    <hc-middle-x>0.65</hc-middle-x>
    <hc-middle-y>0.47</hc-middle-y>
    <hc-key>us-nm-027</hc-key>
    <hc-a2>LI</hc-a2>
  </desc>
</path>

<path fill="#CEE3F5" stroke="#6E6E6E" stroke-width="0.4" id="US.NM.053" d="M328.6,395.6 L315.5,395.6 L315.5,417.2 L293.4,416.0 L282.5,415.9 L282.6,438.1 L272.2,438.6 L223.9,438.4 L205.8,437.9 L163.1,437.8 L144.7,437.4 L145.2,407.3 L145.0,388.5 L145.7,341.2 L144.7,341.2 L145.4,302.1 L158.7,302.1 L198.3,302.6 L231.0,302.8 L242.6,308.8 L269.4,318.0 L274.3,320.5 L278.3,320.2 L278.4,342.3 L328.5,342.2 L328.6,342.2 Z">
  <desc xmlns="http://www.highcharts.com/svg/namespace">
    <fips>35053</fips>
    <name>Socorro</name>
    <hc-middle-x>0.43</hc-middle-x>
    <hc-middle-y>0.55</hc-middle-y>
    <hc-key>us-nm-053</hc-key>
    <hc-a2>SO</hc-a2>
  </desc>
</path>

<path fill="#CEE3F5" stroke="#6E6E6E" stroke-width="0.4" id="US.NM.057" d="M295.9,246.4 L333.1,246.1 L349.4,246.1 L372.3,245.9 L392.2,245.7 L392.8,299.2 L390.5,299.2 L390.8,331.2 L390.9,341.8 L328.6,342.2 L328.5,342.2 L278.4,342.3 L278.3,320.2 L278.2,310.1 L272.9,310.2 L273.4,299.4 L273.6,267.3 L279.0,267.3 L305.5,267.3 L305.4,257.0 L295.9,257.1 L295.9,246.4 L295.9,246.4 Z">
  <desc xmlns="http://www.highcharts.com/svg/namespace">
    <fips>35057</fips>
    <name>Torrance</name>
    <hc-middle-x>0.61</hc-middle-x>
    <hc-middle-y>0.50</hc-middle-y>
    <hc-key>us-nm-057</hc-key>
    <hc-a2>TO</hc-a2>
  </desc>
</path>

<path fill="#CEE3F5" stroke="#6E6E6E" stroke-width="0.4" id="US.NM.037" d="M509.9,231.6 L536.5,216.0 L536.6,218.7 L558.8,218.3 L558.3,200.0 L583.2,199.2 L584.2,198.2 L583.3,166.9 L583.4,156.1 L608.5,155.4 L616.9,155.2 L618.3,200.1 L619.9,251.8 L595.6,252.5 L595.8,263.5 L585.1,263.7 L585.3,274.5 L574.7,274.7 L574.9,285.4 L553.6,285.9 L553.8,296.6 L550.6,296.7 L550.2,296.7 L529.1,297.2 L529.1,297.2 L510.8,297.6 L510.3,276.2 L510.3,254.7 Z">
  <desc xmlns="http://www.highcharts.com/svg/namespace">
    <fips>35037</fips>
    <name>Quay</name>
    <hc-middle-x>0.51</hc-middle-x>
    <hc-middle-y>0.61</hc-middle-y>
    <hc-key>us-nm-037</hc-key>
    <hc-a2>QU</hc-a2>
  </desc>
</path>

<path fill="#CEE3F5" stroke="#6E6E6E" stroke-width="0.4" id="US.NM.021" d="M476.0,99.8 L494.5,99.6 L518.5,99.0 L518.7,104.4 L540.1,103.9 L540.3,114.8 L583.2,113.5 L583.5,124.3 L582.5,124.3 L583.4,156.1 L583.3,166.9 L584.2,198.2 L583.2,199.2 L558.3,200.0 L558.2,196.0 L549.4,196.2 L522.9,150.1 L518.5,152.7 L483.9,153.5 L481.4,144.1 L485.9,137.3 L485.0,133.9 L487.4,131.4 L484.6,128.7 L482.8,118.4 L478.3,111.5 L479.3,107.6 L475.7,102.9 Z">
  <desc xmlns="http://www.highcharts.com/svg/namespace">
    <fips>35021</fips>
    <name>Harding</name>
    <hc-middle-x>0.55</hc-middle-x>
    <hc-middle-y>0.35</hc-middle-y>
    <hc-key>us-nm-021</hc-key>
    <hc-a2>HA</hc-a2>
  </desc>
</path>

<path fill="#CEE3F5" stroke="#6E6E6E" stroke-width="0.4" id="US.NM.035" d="M442.1,618.9 L399.9,619.4 L308.3,619.7 L282.0,619.8 L282.2,502.3 L285.9,502.2 L285.9,490.6 L285.6,466.4 L285.4,449.1 L349.2,449.0 L349.4,459.5 L391.3,459.2 L391.7,480.4 L392.0,501.3 L388.2,501.4 L388.6,555.8 L440.9,555.1 L441.3,587.9 L441.7,587.9 Z">
  <desc xmlns="http://www.highcharts.com/svg/namespace">
    <fips>35035</fips>
    <name>Otero</name>
    <hc-middle-x>0.34</hc-middle-x>
    <hc-middle-y>0.50</hc-middle-y>
    <hc-key>us-nm-035</hc-key>
    <hc-a2>OT</hc-a2>
  </desc>
</path>

<path fill="#CEE3F5" stroke="#6E6E6E" stroke-width="0.4" id="US.NM.019" d="M433.7,330.7 L398.1,331.0 L390.8,331.2 L390.5,299.2 L392.8,299.2 L392.2,245.7 L392.0,224.3 L509.7,222.5 L509.9,231.6 L510.3,254.7 L510.3,276.2 L489.0,276.6 L489.2,287.3 L478.5,287.6 L478.7,298.3 L433.3,299.0 Z">
  <desc xmlns="http://www.highcharts.com/svg/namespace">
    <fips>35019</fips>
    <name>Guadalupe</name>
    <hc-middle-x>0.45</hc-middle-x>
    <hc-middle-y>0.35</hc-middle-y>
    <hc-key>us-nm-019</hc-key>
    <hc-a2>GU</hc-a2>
  </desc>
</path>

<path fill="#CEE3F5" stroke="#6E6E6E" stroke-width="0.4" id="US.NM.059" d="M608.5,155.4 L583.4,156.1 L582.5,124.3 L583.5,124.3 L583.2,113.5 L540.3,114.8 L540.1,103.9 L518.7,104.4 L518.5,99.0 L517.6,56.0 L516.4,3.3 L615.6,0.0 L617.7,61.5 L613.7,61.6 L616.9,155.2 Z">
  <desc xmlns="http://www.highcharts.com/svg/namespace">
    <fips>35059</fips>
    <name>Union</name>
    <hc-middle-x>0.50</hc-middle-x>
    <hc-middle-y>0.37</hc-middle-y>
    <hc-key>us-nm-059</hc-key>
    <hc-a2>UN</hc-a2>
  </desc>
</path>

<path fill="#CEE3F5" stroke="#6E6E6E" stroke-width="0.4" id="US.NM.051" d="M285.4,449.1 L285.6,466.4 L285.9,490.6 L229.1,518.7 L229.1,524.0 L186.4,523.5 L186.1,545.0 L168.9,544.9 L154.0,544.7 L140.7,541.5 L143.1,530.3 L142.6,523.3 L137.3,513.9 L138.2,506.8 L136.7,501.8 L131.6,500.3 L128.9,495.5 L131.2,487.5 L129.3,475.5 L127.4,470.9 L114.4,470.8 L115.0,436.8 L121.4,437.4 L144.7,437.4 L163.1,437.8 L205.8,437.9 L223.9,438.4 L272.2,438.6 L282.6,438.1 L282.7,449.1 Z">
  <desc xmlns="http://www.highcharts.com/svg/namespace">
    <fips>35051</fips>
    <name>Sierra</name>
    <hc-middle-x>0.54</hc-middle-x>
    <hc-middle-y>0.42</hc-middle-y>
    <hc-key>us-nm-051</hc-key>
    <hc-a2>SI</hc-a2>
  </desc>
</path>

<path fill="#CEE3F5" stroke="#6E6E6E" stroke-width="0.4" id="US.NM.015" d="M440.9,555.1 L441.8,555.0 L441.2,500.6 L547.6,498.5 L548.9,552.9 L558.4,552.6 L559.9,616.8 L504.4,618.0 L442.1,618.9 L441.7,587.9 L441.3,587.9 Z">
  <desc xmlns="http://www.highcharts.com/svg/namespace">
    <fips>35015</fips>
    <name>Eddy</name>
    <hc-middle-x>0.46</hc-middle-x>
    <hc-middle-y>0.50</hc-middle-y>
    <hc-key>us-nm-015</hc-key>
    <hc-a2>ED</hc-a2>
  </desc>
</path>
</g>

<text x="350" y="714" text-anchor="middle" font-family="Verdana" font-size="8" stroke-opacity="0.6">Copyright (c) 2023 Highsoft AS, Based on data from The United States Census Bureau</text>

</svg>