<?xml version="1.0" encoding="utf-8" standalone="no"?>
<!DOCTYPE svg PUBLIC "-//W3C//DTD SVG 1.1//EN" "http://www.w3.org/Graphics/SVG/1.1/DTD/svg11.dtd">

<svg version="1.1" height="700pt" width="700pt" xmlns="http://www.w3.org/2000/svg" xmlns:xlink="http://www.w3.org/1999/xlink">
<desc>
Map version: 2.1.0
Copyright (c) 2023 Highsoft AS, Based on data from Natural Earth
</desc>
<title>Argentina</title>
<g id="admin1">

<g id="AR">
  <desc xmlns="http://www.highcharts.com/svg/namespace">
    <name>Argentina</name>
    <labelrank>2</labelrank>
    <country-abbrev>Arg.</country-abbrev>
    <subregion>South America</subregion>
    <region-wb>Latin America &amp; Caribbean</region-wb>
    <iso-a3>ARG</iso-a3>
    <iso-a2>AR</iso-a2>
    <woe-id>23424747</woe-id>
    <continent>South America</continent>
    <hc-key>ar</hc-key>
    <hc-a2>AR</hc-a2>
  </desc>
</g>

<path fill="#CEE3F5" stroke="#6E6E6E" stroke-width="0.4" id="AR.TF" d="M124.3,693.1 L130.8,693.6 L128.9,695.4 L128.7,694.1 L125.3,695.7 L124.7,694.5 L120.2,697.0 L119.2,695.5 Z M72.7,696.4 L71.9,696.4 L70.4,649.7 L74.9,656.0 L75.1,657.5 L72.1,659.8 L71.8,662.3 L73.1,663.5 L77.4,664.3 L79.2,669.7 L81.6,672.3 L84.6,674.6 L84.5,676.1 L88.0,679.1 L94.6,683.1 L98.1,687.6 L106.0,691.5 L107.8,691.8 L112.5,691.1 L114.4,691.4 L112.2,697.1 L111.0,696.5 L107.9,698.3 L107.5,697.0 L104.2,697.0 L104.2,698.3 L100.2,698.8 L97.5,700.0 L94.3,697.7 L91.5,697.0 L78.8,696.0 L76.0,695.0 L75.7,696.0 Z">
  <desc xmlns="http://www.highcharts.com/svg/namespace">
    <labelrank>3</labelrank>
    <hasc>AR.TF</hasc>
    <alt-name>Feuerland|Terra del Fuoco|Terre de Feu|Terra do Fogo|Tierra del Fuego|Antártida e Islas del Atlántico Sur</alt-name>
    <woe-id>2344697</woe-id>
    <subregion>NULL</subregion>
    <fips>AR23</fips>
    <postal-code>TF</postal-code>
    <name>Tierra del Fuego</name>
    <country>Argentina</country>
    <type-en>National Territory</type-en>
    <region>NULL</region>
    <longitude>-67.5329</longitude>
    <woe-name>Tierra del Fuego</woe-name>
    <latitude>-54.3887</latitude>
    <woe-label>Tierra del Fuego, AR, Argentina</woe-label>
    <type>Territorio Nacional|Provincia</type>
    <hc-middle-x>0.22</hc-middle-x>
    <hc-middle-y>0.73</hc-middle-y>
    <hc-key>ar-tf</hc-key>
    <hc-a2>TF</hc-a2>
  </desc>
</path>

<path fill="#CEE3F5" stroke="#6E6E6E" stroke-width="0.4" id="AR.BA" d="M167.8,394.3 L166.6,396.0 L164.5,394.7 L165.7,392.0 Z M168.3,391.1 L166.5,387.9 L166.8,386.8 L168.4,387.9 Z M171.0,366.4 L171.7,368.3 L169.5,367.2 L168.1,364.9 Z M236.5,261.5 L237.4,265.4 L233.9,267.3 L235.8,269.1 L235.2,272.3 L234.0,273.2 L233.7,276.2 L235.3,277.7 L237.8,275.4 L240.4,277.6 L245.2,279.7 L251.0,284.1 L255.3,289.4 L256.9,293.2 L256.6,294.6 L252.6,299.4 L251.9,304.9 L253.5,308.9 L258.6,313.5 L261.4,313.3 L262.5,314.6 L262.1,324.2 L261.6,325.8 L257.7,330.4 L254.4,335.4 L249.6,339.9 L245.8,344.4 L245.0,348.8 L243.9,350.2 L234.0,355.2 L218.6,359.6 L204.7,361.6 L188.5,363.5 L183.9,363.8 L179.2,363.2 L177.7,363.7 L169.4,361.8 L167.4,359.0 L163.5,358.9 L164.5,362.1 L163.8,365.0 L165.3,368.3 L169.0,370.8 L168.5,371.7 L166.3,369.5 L164.8,369.5 L168.4,372.5 L167.2,380.3 L164.1,380.0 L162.7,388.4 L160.6,390.3 L161.7,393.6 L163.1,394.5 L164.5,397.9 L162.6,402.3 L156.2,405.6 L155.1,405.6 L154.2,403.4 L150.2,399.2 L145.9,398.3 L146.8,369.1 L148.7,298.8 L149.4,278.1 L149.9,265.8 L150.5,265.1 L158.9,265.4 L178.9,266.0 L192.7,251.9 L193.7,249.5 L197.8,250.0 L200.1,251.5 L201.5,250.9 L202.6,247.9 L205.2,244.7 L204.9,243.6 L207.9,246.7 L212.3,249.7 L213.7,251.6 L216.6,253.2 L218.1,252.8 L220.3,254.7 L222.6,254.6 L224.2,256.9 L226.5,257.1 L232.4,261.7 Z">
  <desc xmlns="http://www.highcharts.com/svg/namespace">
    <labelrank>3</labelrank>
    <hasc>AR.BA</hasc>
    <alt-name>NULL</alt-name>
    <woe-id>2344675</woe-id>
    <subregion>NULL</subregion>
    <fips>AR01</fips>
    <postal-code>BA</postal-code>
    <name>Buenos Aires</name>
    <country>Argentina</country>
    <type-en>Federal District</type-en>
    <region>NULL</region>
    <longitude>-60.1133</longitude>
    <woe-name>NULL</woe-name>
    <latitude>-36.6734</latitude>
    <woe-label>Buenos Aires</woe-label>
    <type>Distrito Federal</type>
    <hc-middle-x>0.40</hc-middle-x>
    <hc-middle-y>0.41</hc-middle-y>
    <hc-key>ar-ba</hc-key>
    <hc-a2>BA</hc-a2>
  </desc>
</path>

<path fill="#CEE3F5" stroke="#6E6E6E" stroke-width="0.4" id="AR.SJ" d="M28.1,222.5 L26.9,221.9 L25.7,216.7 L28.0,215.1 L26.7,213.5 L24.6,213.3 L21.4,206.7 L21.6,201.5 L23.0,197.1 L24.8,197.5 L26.8,195.4 L25.4,193.6 L25.7,190.7 L28.0,181.5 L30.6,182.0 L32.9,180.2 L33.7,176.2 L31.4,175.5 L32.3,172.3 L32.0,167.7 L29.6,160.3 L29.8,158.5 L31.9,155.6 L33.8,154.6 L33.7,151.7 L34.9,148.5 L34.7,144.9 L35.9,143.2 L36.2,139.8 L42.1,141.4 L45.4,144.2 L46.6,147.5 L50.1,151.8 L48.7,154.6 L49.9,158.5 L48.7,162.7 L49.4,165.4 L54.5,164.6 L61.4,166.4 L65.6,170.0 L68.8,173.5 L74.2,177.8 L75.5,180.6 L82.6,187.8 L84.5,191.5 L83.8,193.7 L84.9,195.2 L84.2,201.0 L85.2,204.5 L88.5,206.7 L89.1,209.3 L91.0,211.9 L86.4,212.2 L80.0,211.4 L79.2,212.4 L79.2,220.1 L77.9,219.2 L71.3,219.7 L67.9,216.2 L61.3,218.1 L56.1,222.1 L52.3,222.0 L51.8,216.7 L49.9,216.8 L47.7,214.4 L45.2,216.4 L42.3,216.5 L39.4,218.1 L39.2,220.4 L33.0,222.2 Z">
  <desc xmlns="http://www.highcharts.com/svg/namespace">
    <labelrank>6</labelrank>
    <hasc>AR.SJ</hasc>
    <alt-name>NULL</alt-name>
    <woe-id>2344692</woe-id>
    <subregion>NULL</subregion>
    <fips>AR18</fips>
    <postal-code>SJ</postal-code>
    <name>San Juan</name>
    <country>Argentina</country>
    <type-en>Province</type-en>
    <region>NULL</region>
    <longitude>-68.66119999999999</longitude>
    <woe-name>San Juan</woe-name>
    <latitude>-30.97</latitude>
    <woe-label>San Juan, AR, Argentina</woe-label>
    <type>Provincia</type>
    <hc-middle-x>0.50</hc-middle-x>
    <hc-middle-y>0.65</hc-middle-y>
    <hc-key>ar-sj</hc-key>
    <hc-a2>SJ</hc-a2>
  </desc>
</path>

<path fill="#CEE3F5" stroke="#6E6E6E" stroke-width="0.4" id="AR.MZ" d="M28.4,303.0 L29.2,301.2 L28.4,297.5 L29.4,296.3 L28.1,293.1 L28.2,289.9 L25.6,283.7 L28.3,282.7 L28.7,278.2 L29.9,274.9 L30.5,270.3 L33.3,266.2 L33.5,263.7 L37.1,262.9 L36.5,257.4 L35.5,256.9 L35.6,250.7 L37.2,244.6 L35.0,241.8 L33.2,243.1 L31.5,240.8 L31.2,237.7 L33.1,234.2 L30.5,232.0 L29.7,225.7 L28.1,222.5 L33.0,222.2 L39.2,220.4 L39.4,218.1 L42.3,216.5 L45.2,216.4 L47.7,214.4 L49.9,216.8 L51.8,216.7 L52.3,222.0 L56.1,222.1 L61.3,218.1 L67.9,216.2 L71.3,219.7 L77.9,219.2 L79.2,220.1 L81.7,228.3 L82.9,230.5 L82.3,233.8 L83.9,245.1 L86.1,248.5 L87.8,253.1 L91.0,257.9 L89.7,261.4 L89.9,264.6 L91.2,269.5 L94.2,274.4 L95.3,280.5 L95.0,288.4 L93.3,297.5 L93.5,298.6 L65.7,299.0 L64.9,301.7 L65.6,304.8 L66.4,331.8 L63.4,331.4 L61.7,329.4 L57.8,328.1 L53.3,327.6 L52.1,324.8 L49.2,323.7 L45.5,324.4 L43.0,324.0 L39.8,321.1 L40.0,318.0 L37.7,316.3 L35.1,312.9 L33.2,312.0 L31.4,307.8 L30.1,308.1 L29.8,304.7 Z">
  <desc xmlns="http://www.highcharts.com/svg/namespace">
    <labelrank>6</labelrank>
    <hasc>AR.MZ</hasc>
    <alt-name>NULL</alt-name>
    <woe-id>2344687</woe-id>
    <subregion>NULL</subregion>
    <fips>AR08</fips>
    <postal-code>MZ</postal-code>
    <name>Mendoza</name>
    <country>Argentina</country>
    <type-en>Province</type-en>
    <region>NULL</region>
    <longitude>-68.5423</longitude>
    <woe-name>Mendoza</woe-name>
    <latitude>-34.8484</latitude>
    <woe-label>Mendoza, AR, Argentina</woe-label>
    <type>Provincia</type>
    <hc-middle-x>0.53</hc-middle-x>
    <hc-middle-y>0.51</hc-middle-y>
    <hc-key>ar-mz</hc-key>
    <hc-a2>MZ</hc-a2>
  </desc>
</path>

<path fill="#CEE3F5" stroke="#6E6E6E" stroke-width="0.4" id="AR.NQ" d="M10.5,407.1 L10.6,405.6 L8.7,401.1 L9.9,399.5 L10.7,394.8 L12.6,392.8 L10.1,390.2 L10.2,387.5 L12.2,387.7 L12.9,383.4 L11.2,379.9 L11.6,376.6 L14.2,377.4 L13.7,375.7 L14.9,373.5 L15.6,369.3 L15.0,363.0 L18.0,360.1 L23.7,357.3 L23.9,353.8 L21.7,351.8 L20.8,348.5 L20.7,344.3 L17.4,336.8 L18.1,331.3 L16.5,328.2 L18.3,324.1 L16.2,318.6 L16.9,315.4 L18.1,315.5 L18.4,311.0 L20.9,309.1 L23.8,309.2 L23.9,306.0 L26.1,303.3 L28.4,303.0 L29.8,304.7 L30.1,308.1 L31.4,307.8 L33.2,312.0 L35.1,312.9 L37.7,316.3 L40.0,318.0 L39.8,321.1 L43.0,324.0 L45.5,324.4 L49.2,323.7 L52.1,324.8 L53.3,327.6 L57.8,328.1 L61.7,329.4 L63.4,331.4 L66.4,331.8 L66.9,355.0 L70.4,360.0 L70.7,361.4 L67.0,362.1 L65.9,361.4 L61.9,364.5 L58.1,368.9 L55.8,372.8 L50.9,375.2 L49.4,377.8 L46.6,380.2 L44.3,380.2 L39.8,383.6 L38.3,393.1 L36.4,395.7 L32.7,396.5 L30.5,395.7 L28.4,397.3 L24.3,398.5 L22.0,401.5 L23.7,404.6 L22.0,407.3 L18.7,408.3 L15.5,407.3 Z">
  <desc xmlns="http://www.highcharts.com/svg/namespace">
    <labelrank>3</labelrank>
    <hasc>AR.NQ</hasc>
    <alt-name>Neuquém</alt-name>
    <woe-id>2344689</woe-id>
    <subregion>NULL</subregion>
    <fips>AR15</fips>
    <postal-code>NQ</postal-code>
    <name>Neuquén</name>
    <country>Argentina</country>
    <type-en>Province</type-en>
    <region>NULL</region>
    <longitude>-69.9833</longitude>
    <woe-name>Neuquén</woe-name>
    <latitude>-38.3579</latitude>
    <woe-label>Neuquen, AR, Argentina</woe-label>
    <type>Provincia</type>
    <hc-middle-x>0.47</hc-middle-x>
    <hc-middle-y>0.51</hc-middle-y>
    <hc-key>ar-nq</hc-key>
    <hc-a2>NQ</hc-a2>
  </desc>
</path>

<path fill="#CEE3F5" stroke="#6E6E6E" stroke-width="0.4" id="AR.LP" d="M66.4,331.8 L65.6,304.8 L64.9,301.7 L65.7,299.0 L93.5,298.6 L119.7,298.6 L119.9,277.6 L139.4,277.9 L149.4,278.1 L148.7,298.8 L146.8,369.1 L145.3,369.0 L141.6,366.4 L137.0,362.2 L129.2,358.8 L123.5,357.8 L118.7,357.6 L114.5,358.3 L110.8,357.0 L109.2,357.8 L104.7,356.2 L100.5,355.7 L97.6,356.1 L94.8,355.4 L93.4,352.4 L86.4,349.3 L84.5,345.4 L78.3,346.4 L75.7,343.0 L73.4,342.1 L73.3,339.0 L75.5,336.3 L74.8,333.9 L73.1,332.5 Z">
  <desc xmlns="http://www.highcharts.com/svg/namespace">
    <labelrank>3</labelrank>
    <hasc>AR.LP</hasc>
    <alt-name>El Pampa|Eva Perln</alt-name>
    <woe-id>2344685</woe-id>
    <subregion>NULL</subregion>
    <fips>AR11</fips>
    <postal-code>LP</postal-code>
    <name>La Pampa</name>
    <country>Argentina</country>
    <type-en>Province</type-en>
    <region>NULL</region>
    <longitude>-65.8386</longitude>
    <woe-name>La Pampa</woe-name>
    <latitude>-37.3861</latitude>
    <woe-label>La Pampa, AR, Argentina</woe-label>
    <type>Provincia</type>
    <hc-middle-x>0.57</hc-middle-x>
    <hc-middle-y>0.54</hc-middle-y>
    <hc-key>ar-lp</hc-key>
    <hc-a2>LP</hc-a2>
  </desc>
</path>

<path fill="#CEE3F5" stroke="#6E6E6E" stroke-width="0.4" id="AR.RN" d="M155.1,405.6 L150.2,407.8 L139.4,407.6 L135.0,404.1 L133.2,404.3 L129.4,402.1 L124.3,400.3 L123.7,398.4 L121.9,397.7 L118.1,400.3 L117.2,404.1 L118.9,413.3 L120.0,415.5 L119.3,417.9 L119.8,420.6 L118.9,425.1 L117.8,424.9 L13.4,427.9 L12.9,425.1 L10.4,420.1 L11.5,418.9 L10.4,414.7 L10.5,407.1 L15.5,407.3 L18.7,408.3 L22.0,407.3 L23.7,404.6 L22.0,401.5 L24.3,398.5 L28.4,397.3 L30.5,395.7 L32.7,396.5 L36.4,395.7 L38.3,393.1 L39.8,383.6 L44.3,380.2 L46.6,380.2 L49.4,377.8 L50.9,375.2 L55.8,372.8 L58.1,368.9 L61.9,364.5 L65.9,361.4 L67.0,362.1 L70.7,361.4 L70.4,360.0 L66.9,355.0 L66.4,331.8 L73.1,332.5 L74.8,333.9 L75.5,336.3 L73.3,339.0 L73.4,342.1 L75.7,343.0 L78.3,346.4 L84.5,345.4 L86.4,349.3 L93.4,352.4 L94.8,355.4 L97.6,356.1 L100.5,355.7 L104.7,356.2 L109.2,357.8 L110.8,357.0 L114.5,358.3 L118.7,357.6 L123.5,357.8 L129.2,358.8 L137.0,362.2 L141.6,366.4 L145.3,369.0 L146.8,369.1 L145.9,398.3 L150.2,399.2 L154.2,403.4 Z">
  <desc xmlns="http://www.highcharts.com/svg/namespace">
    <labelrank>3</labelrank>
    <hasc>AR.RN</hasc>
    <alt-name>NULL</alt-name>
    <woe-id>2344690</woe-id>
    <subregion>NULL</subregion>
    <fips>AR16</fips>
    <postal-code>RN</postal-code>
    <name>Río Negro</name>
    <country>Argentina</country>
    <type-en>Province</type-en>
    <region>NULL</region>
    <longitude>-67.36409999999999</longitude>
    <woe-name>Río Negro</woe-name>
    <latitude>-40.1261</latitude>
    <woe-label>Rio Negro, AR, Argentina</woe-label>
    <type>Provincia</type>
    <hc-middle-x>0.56</hc-middle-x>
    <hc-middle-y>0.63</hc-middle-y>
    <hc-key>ar-rn</hc-key>
    <hc-a2>RN</hc-a2>
  </desc>
</path>

<path fill="#CEE3F5" stroke="#6E6E6E" stroke-width="0.4" id="AR.SL" d="M93.5,298.6 L93.3,297.5 L95.0,288.4 L95.3,280.5 L94.2,274.4 L91.2,269.5 L89.9,264.6 L89.7,261.4 L91.0,257.9 L87.8,253.1 L86.1,248.5 L83.9,245.1 L82.3,233.8 L82.9,230.5 L81.7,228.3 L79.2,220.1 L79.2,212.4 L80.0,211.4 L86.4,212.2 L91.0,211.9 L93.3,212.6 L100.2,212.9 L103.1,211.7 L108.4,212.0 L111.4,212.7 L117.4,216.8 L118.4,221.2 L123.3,220.8 L124.1,226.0 L121.2,237.9 L119.4,239.8 L120.1,255.8 L119.9,277.6 L119.7,298.6 Z">
  <desc xmlns="http://www.highcharts.com/svg/namespace">
    <labelrank>6</labelrank>
    <hasc>AR.SL</hasc>
    <alt-name>NULL</alt-name>
    <woe-id>2344693</woe-id>
    <subregion>NULL</subregion>
    <fips>AR19</fips>
    <postal-code>SL</postal-code>
    <name>San Luis</name>
    <country>Argentina</country>
    <type-en>Province</type-en>
    <region>NULL</region>
    <longitude>-66.13500000000001</longitude>
    <woe-name>San Luis</woe-name>
    <latitude>-33.9469</latitude>
    <woe-label>San Luis, AR, Argentina</woe-label>
    <type>Provincia</type>
    <hc-middle-x>0.50</hc-middle-x>
    <hc-middle-y>0.35</hc-middle-y>
    <hc-key>ar-sl</hc-key>
    <hc-a2>SL</hc-a2>
  </desc>
</path>

<path fill="#CEE3F5" stroke="#6E6E6E" stroke-width="0.4" id="AR.CB" d="M149.4,278.1 L139.4,277.9 L119.9,277.6 L120.1,255.8 L119.4,239.8 L121.2,237.9 L124.1,226.0 L123.3,220.8 L118.4,221.2 L117.4,216.8 L111.4,212.7 L108.4,212.0 L108.3,195.4 L112.8,180.9 L115.0,175.4 L119.8,173.8 L123.4,169.9 L123.1,164.3 L124.6,163.2 L135.5,160.5 L139.8,161.5 L139.9,162.7 L144.3,165.4 L150.7,165.7 L152.4,168.2 L172.2,168.8 L173.0,169.4 L175.6,176.9 L174.7,183.2 L179.3,189.2 L173.9,207.4 L172.0,209.4 L172.5,214.7 L171.7,218.5 L174.3,221.0 L175.2,223.9 L176.9,225.6 L178.3,230.2 L179.9,233.4 L179.2,237.0 L176.3,239.3 L158.9,265.4 L150.5,265.1 L149.9,265.8 Z">
  <desc xmlns="http://www.highcharts.com/svg/namespace">
    <labelrank>3</labelrank>
    <hasc>AR.CB</hasc>
    <alt-name>Cordova</alt-name>
    <woe-id>2344679</woe-id>
    <subregion>NULL</subregion>
    <fips>AR05</fips>
    <postal-code>CB</postal-code>
    <name>Córdoba</name>
    <country>Argentina</country>
    <type-en>Province</type-en>
    <region>NULL</region>
    <longitude>-63.7501</longitude>
    <woe-name>Córdoba</woe-name>
    <latitude>-32.3275</latitude>
    <woe-label>Cordoba, AR, Argentina</woe-label>
    <type>Provincia</type>
    <hc-middle-x>0.51</hc-middle-x>
    <hc-middle-y>0.51</hc-middle-y>
    <hc-key>ar-cb</hc-key>
    <hc-a2>CB</hc-a2>
  </desc>
</path>

<path fill="#CEE3F5" stroke="#6E6E6E" stroke-width="0.4" id="AR.CT" d="M124.6,163.2 L123.1,164.3 L123.4,169.9 L119.8,173.8 L115.0,175.4 L112.0,169.1 L109.0,161.9 L107.9,156.6 L101.8,150.8 L97.9,148.7 L97.8,145.8 L95.3,143.3 L93.2,138.9 L85.9,136.1 L83.7,137.6 L80.7,138.0 L72.4,137.7 L70.2,138.7 L68.5,136.0 L68.1,133.3 L65.3,134.0 L58.4,130.4 L58.6,125.5 L50.8,126.6 L45.5,126.3 L47.6,119.5 L49.1,118.3 L51.4,112.3 L55.5,113.3 L56.7,111.4 L60.2,110.7 L60.4,107.0 L55.5,100.4 L55.3,95.2 L58.2,92.5 L56.5,83.7 L55.3,81.7 L54.4,77.0 L56.3,71.1 L69.6,73.5 L92.6,73.0 L93.5,73.2 L95.1,77.4 L94.3,80.6 L90.1,81.5 L88.7,82.6 L89.2,86.2 L92.3,90.4 L94.0,93.8 L96.1,96.3 L97.3,96.0 L99.8,91.9 L103.1,93.7 L101.1,98.8 L106.8,103.5 L106.5,107.6 L100.4,116.1 L104.4,117.6 L105.4,123.1 L107.4,126.3 L109.7,126.7 L110.3,129.2 L112.3,131.5 L113.4,129.7 L116.5,127.5 L119.6,128.5 L121.2,136.2 L121.2,140.5 L119.3,144.0 L120.7,145.0 L121.8,157.6 Z">
  <desc xmlns="http://www.highcharts.com/svg/namespace">
    <labelrank>6</labelrank>
    <hasc>AR.CT</hasc>
    <alt-name>NULL</alt-name>
    <woe-id>2344676</woe-id>
    <subregion>NULL</subregion>
    <fips>AR02</fips>
    <postal-code>CT</postal-code>
    <name>Catamarca</name>
    <country>Argentina</country>
    <type-en>Province</type-en>
    <region>NULL</region>
    <longitude>-67.0086</longitude>
    <woe-name>Catamarca</woe-name>
    <latitude>-26.7709</latitude>
    <woe-label>Catamarca, AR, Argentina</woe-label>
    <type>Provincia</type>
    <hc-middle-x>0.45</hc-middle-x>
    <hc-middle-y>0.32</hc-middle-y>
    <hc-key>ar-ct</hc-key>
    <hc-a2>CT</hc-a2>
  </desc>
</path>

<path fill="#CEE3F5" stroke="#6E6E6E" stroke-width="0.4" id="AR.LR" d="M108.4,212.0 L103.1,211.7 L100.2,212.9 L93.3,212.6 L91.0,211.9 L89.1,209.3 L88.5,206.7 L85.2,204.5 L84.2,201.0 L84.9,195.2 L83.8,193.7 L84.5,191.5 L82.6,187.8 L75.5,180.6 L74.2,177.8 L68.8,173.5 L65.6,170.0 L61.4,166.4 L54.5,164.6 L49.4,165.4 L48.7,162.7 L49.9,158.5 L48.7,154.6 L50.1,151.8 L46.6,147.5 L45.4,144.2 L42.1,141.4 L36.2,139.8 L40.4,135.7 L42.5,131.2 L44.8,129.5 L45.5,126.3 L50.8,126.6 L58.6,125.5 L58.4,130.4 L65.3,134.0 L68.1,133.3 L68.5,136.0 L70.2,138.7 L72.4,137.7 L80.7,138.0 L83.7,137.6 L85.9,136.1 L93.2,138.9 L95.3,143.3 L97.8,145.8 L97.9,148.7 L101.8,150.8 L107.9,156.6 L109.0,161.9 L112.0,169.1 L115.0,175.4 L112.8,180.9 L108.3,195.4 Z">
  <desc xmlns="http://www.highcharts.com/svg/namespace">
    <labelrank>6</labelrank>
    <hasc>AR.LR</hasc>
    <alt-name>NULL</alt-name>
    <woe-id>2344686</woe-id>
    <subregion>NULL</subregion>
    <fips>AR12</fips>
    <postal-code>LR</postal-code>
    <name>La Rioja</name>
    <country>Argentina</country>
    <type-en>Province</type-en>
    <region>NULL</region>
    <longitude>-67.5283</longitude>
    <woe-name>La Rioja</woe-name>
    <latitude>-29.3762</latitude>
    <woe-label>La Rioja, AR, Argentina</woe-label>
    <type>Provincia</type>
    <hc-middle-x>0.57</hc-middle-x>
    <hc-middle-y>0.36</hc-middle-y>
    <hc-key>ar-lr</hc-key>
    <hc-a2>LR</hc-a2>
  </desc>
</path>

<path fill="#CEE3F5" stroke="#6E6E6E" stroke-width="0.4" id="AR.SA" d="M103.1,93.7 L99.8,91.9 L97.3,96.0 L96.1,96.3 L94.0,93.8 L92.3,90.4 L89.2,86.2 L88.7,82.6 L90.1,81.5 L94.3,80.6 L95.1,77.4 L93.5,73.2 L92.6,73.0 L69.6,73.5 L56.3,71.1 L58.6,70.6 L56.6,65.7 L54.7,63.0 L56.0,59.6 L60.9,54.8 L77.8,47.1 L79.9,40.8 L83.0,42.8 L87.5,47.7 L91.1,50.6 L94.4,51.3 L97.3,47.2 L97.5,40.6 L96.3,37.1 L97.2,33.1 L100.8,34.2 L104.3,36.8 L103.6,41.7 L104.1,45.1 L108.7,48.0 L108.7,49.6 L112.0,54.8 L118.0,56.9 L119.9,55.9 L122.7,58.3 L125.2,58.9 L126.8,56.1 L130.5,59.4 L132.8,56.6 L136.5,55.2 L139.5,50.4 L139.1,36.3 L136.1,36.1 L134.3,38.5 L130.0,35.0 L125.8,35.7 L124.2,31.7 L122.6,30.7 L122.7,25.5 L119.8,25.0 L118.3,22.1 L118.3,17.6 L116.8,16.7 L118.9,11.2 L119.9,6.5 L123.2,6.4 L131.7,8.9 L132.0,11.7 L134.7,15.9 L134.2,18.0 L135.8,19.8 L136.3,22.7 L138.2,15.9 L140.0,13.8 L144.3,4.8 L148.3,5.7 L150.3,4.7 L166.7,5.1 L166.9,7.4 L170.2,10.4 L169.9,11.3 L175.5,15.1 L175.0,37.9 L174.7,49.8 L174.6,55.7 L153.6,81.7 L143.6,81.4 L138.1,80.3 L134.0,89.1 L132.8,93.1 L127.4,92.9 L123.6,94.1 L118.0,91.8 L117.1,90.0 L114.7,90.9 L110.4,89.9 L109.5,94.6 Z">
  <desc xmlns="http://www.highcharts.com/svg/namespace">
    <labelrank>6</labelrank>
    <hasc>AR.SA</hasc>
    <alt-name>NULL</alt-name>
    <woe-id>2344691</woe-id>
    <subregion>NULL</subregion>
    <fips>AR17</fips>
    <postal-code>SA</postal-code>
    <name>Salta</name>
    <country>Argentina</country>
    <type-en>Province</type-en>
    <region>NULL</region>
    <longitude>-64.47150000000001</longitude>
    <woe-name>Salta</woe-name>
    <latitude>-25.0203</latitude>
    <woe-label>Salta, AR, Argentina</woe-label>
    <type>Provincia</type>
    <hc-middle-x>0.40</hc-middle-x>
    <hc-middle-y>0.67</hc-middle-y>
    <hc-key>ar-sa</hc-key>
    <hc-a2>SA</hc-a2>
  </desc>
</path>

<path fill="#CEE3F5" stroke="#6E6E6E" stroke-width="0.4" id="AR.SE" d="M124.6,163.2 L121.8,157.6 L120.7,145.0 L119.3,144.0 L121.2,140.5 L121.2,136.2 L119.6,128.5 L121.5,128.0 L122.8,125.8 L121.5,122.5 L123.4,120.2 L121.6,119.3 L125.1,115.9 L128.0,109.2 L128.9,105.7 L130.7,102.9 L132.3,102.9 L132.0,97.9 L132.8,93.1 L134.0,89.1 L138.1,80.3 L143.6,81.4 L153.6,81.7 L184.9,82.5 L185.5,84.3 L185.4,95.2 L184.1,131.8 L180.5,151.0 L175.6,176.9 L173.0,169.4 L172.2,168.8 L152.4,168.2 L150.7,165.7 L144.3,165.4 L139.9,162.7 L139.8,161.5 L135.5,160.5 Z">
  <desc xmlns="http://www.highcharts.com/svg/namespace">
    <labelrank>6</labelrank>
    <hasc>AR.SE</hasc>
    <alt-name>NULL</alt-name>
    <woe-id>2344696</woe-id>
    <subregion>NULL</subregion>
    <fips>AR22</fips>
    <postal-code>SE</postal-code>
    <name>Santiago del Estero</name>
    <country>Argentina</country>
    <type-en>Province</type-en>
    <region>NULL</region>
    <longitude>-63.445</longitude>
    <woe-name>Santiago del Estero</woe-name>
    <latitude>-27.6882</latitude>
    <woe-label>Santiago del Estero, AR, Argentina</woe-label>
    <type>Provincia</type>
    <hc-middle-x>0.51</hc-middle-x>
    <hc-middle-y>0.46</hc-middle-y>
    <hc-key>ar-se</hc-key>
    <hc-a2>SE</hc-a2>
  </desc>
</path>

<path fill="#CEE3F5" stroke="#6E6E6E" stroke-width="0.4" id="AR.TM" d="M119.6,128.5 L116.5,127.5 L113.4,129.7 L112.3,131.5 L110.3,129.2 L109.7,126.7 L107.4,126.3 L105.4,123.1 L104.4,117.6 L100.4,116.1 L106.5,107.6 L106.8,103.5 L101.1,98.8 L103.1,93.7 L109.5,94.6 L110.4,89.9 L114.7,90.9 L117.1,90.0 L118.0,91.8 L123.6,94.1 L127.4,92.9 L132.8,93.1 L132.0,97.9 L132.3,102.9 L130.7,102.9 L128.9,105.7 L128.0,109.2 L125.1,115.9 L121.6,119.3 L123.4,120.2 L121.5,122.5 L122.8,125.8 L121.5,128.0 Z">
  <desc xmlns="http://www.highcharts.com/svg/namespace">
    <labelrank>3</labelrank>
    <hasc>AR.TM</hasc>
    <alt-name>Tucumão</alt-name>
    <woe-id>2344698</woe-id>
    <subregion>NULL</subregion>
    <fips>AR24</fips>
    <postal-code>TM</postal-code>
    <name>Tucumán</name>
    <country>Argentina</country>
    <type-en>Province</type-en>
    <region>NULL</region>
    <longitude>-65.3387</longitude>
    <woe-name>Tucumán</woe-name>
    <latitude>-26.9711</latitude>
    <woe-label>Tucuman, AR, Argentina</woe-label>
    <type>Provincia</type>
    <hc-middle-x>0.50</hc-middle-x>
    <hc-middle-y>0.35</hc-middle-y>
    <hc-key>ar-tm</hc-key>
    <hc-a2>TM</hc-a2>
  </desc>
</path>

<path fill="#CEE3F5" stroke="#6E6E6E" stroke-width="0.4" id="AR.CC" d="M153.6,81.7 L174.6,55.7 L174.7,49.8 L180.2,51.8 L183.0,54.2 L185.4,54.8 L187.5,57.7 L189.3,58.0 L191.5,60.8 L195.1,61.5 L197.3,63.2 L198.1,66.5 L206.6,72.9 L209.3,73.9 L211.8,77.3 L215.0,83.8 L217.7,84.6 L220.9,87.4 L224.3,91.6 L224.3,93.7 L229.1,95.5 L229.5,97.7 L231.4,99.0 L234.0,98.1 L237.6,100.5 L239.2,102.7 L244.4,106.9 L248.4,111.3 L246.3,112.1 L245.2,114.8 L242.4,116.7 L243.1,120.1 L237.6,123.3 L238.5,129.5 L237.3,134.3 L202.2,132.5 L184.1,131.8 L185.4,95.2 L185.5,84.3 L184.9,82.5 Z">
  <desc xmlns="http://www.highcharts.com/svg/namespace">
    <labelrank>3</labelrank>
    <hasc>AR.CC</hasc>
    <alt-name>El Chaco|Presidente Juan Per¢n</alt-name>
    <woe-id>2344677</woe-id>
    <subregion>NULL</subregion>
    <fips>AR03</fips>
    <postal-code>CC</postal-code>
    <name>Chaco</name>
    <country>Argentina</country>
    <type-en>Province</type-en>
    <region>NULL</region>
    <longitude>-60.8752</longitude>
    <woe-name>Chaco</woe-name>
    <latitude>-26.509</latitude>
    <woe-label>Chaco, AR, Argentina</woe-label>
    <type>Provincia</type>
    <hc-middle-x>0.53</hc-middle-x>
    <hc-middle-y>0.59</hc-middle-y>
    <hc-key>ar-cc</hc-key>
    <hc-a2>CC</hc-a2>
  </desc>
</path>

<path fill="#CEE3F5" stroke="#6E6E6E" stroke-width="0.4" id="AR.FM" d="M174.7,49.8 L175.0,37.9 L175.5,15.1 L177.6,17.0 L178.7,20.4 L182.7,27.2 L184.8,28.5 L186.7,31.5 L189.4,32.7 L191.5,35.4 L195.2,36.9 L198.8,39.7 L200.6,44.0 L203.9,45.5 L208.5,46.4 L208.8,47.2 L213.6,48.9 L219.3,48.9 L230.1,56.8 L232.2,59.7 L238.6,63.3 L242.2,66.3 L248.6,68.2 L251.5,71.4 L253.3,70.4 L257.7,73.5 L259.5,73.7 L262.0,76.0 L265.4,82.1 L264.0,85.3 L261.4,86.4 L260.2,89.7 L258.1,92.5 L258.6,93.4 L254.4,95.6 L252.6,98.5 L250.5,108.8 L248.4,111.3 L244.4,106.9 L239.2,102.7 L237.6,100.5 L234.0,98.1 L231.4,99.0 L229.5,97.7 L229.1,95.5 L224.3,93.7 L224.3,91.6 L220.9,87.4 L217.7,84.6 L215.0,83.8 L211.8,77.3 L209.3,73.9 L206.6,72.9 L198.1,66.5 L197.3,63.2 L195.1,61.5 L191.5,60.8 L189.3,58.0 L187.5,57.7 L185.4,54.8 L183.0,54.2 L180.2,51.8 Z">
  <desc xmlns="http://www.highcharts.com/svg/namespace">
    <labelrank>6</labelrank>
    <hasc>AR.FM</hasc>
    <alt-name>NULL</alt-name>
    <woe-id>2344683</woe-id>
    <subregion>NULL</subregion>
    <fips>AR09</fips>
    <postal-code>FM</postal-code>
    <name>Formosa</name>
    <country>Argentina</country>
    <type-en>Province</type-en>
    <region>NULL</region>
    <longitude>-59.9494</longitude>
    <woe-name>Formosa</woe-name>
    <latitude>-24.9146</latitude>
    <woe-label>Formosa, AR, Argentina</woe-label>
    <type>Provincia</type>
    <hc-middle-x>0.52</hc-middle-x>
    <hc-middle-y>0.56</hc-middle-y>
    <hc-key>ar-fm</hc-key>
    <hc-a2>FM</hc-a2>
  </desc>
</path>

<path fill="#CEE3F5" stroke="#6E6E6E" stroke-width="0.4" id="AR.CN" d="M237.3,134.3 L238.5,129.5 L237.6,123.3 L243.1,120.1 L244.9,119.4 L254.1,119.6 L260.2,121.6 L263.1,123.3 L266.9,123.7 L269.7,125.5 L275.0,124.4 L277.4,126.5 L281.7,125.7 L284.9,128.6 L286.9,124.7 L289.9,123.0 L292.9,124.0 L291.7,126.4 L294.0,132.2 L294.3,136.3 L295.9,139.9 L297.9,141.7 L295.0,143.4 L296.8,145.5 L295.9,147.2 L293.4,145.7 L292.2,148.0 L290.0,148.6 L289.6,150.5 L286.3,153.6 L284.4,154.2 L283.9,156.3 L281.5,159.7 L277.5,161.7 L276.2,164.9 L267.7,173.5 L264.0,174.6 L263.1,178.0 L259.5,181.2 L256.9,182.1 L256.5,184.9 L252.7,188.0 L251.9,190.1 L253.0,193.6 L250.0,190.3 L248.8,186.3 L245.5,182.1 L238.9,180.0 L234.3,181.2 L231.9,180.6 L227.4,183.3 L224.8,182.3 L219.7,182.7 L221.3,175.9 L220.2,173.0 L221.9,167.6 L222.2,163.3 L223.8,159.1 L226.7,157.9 L229.9,155.5 L230.1,153.4 L232.1,148.0 L233.1,142.5 L233.1,137.4 L235.6,136.5 Z">
  <desc xmlns="http://www.highcharts.com/svg/namespace">
    <labelrank>6</labelrank>
    <hasc>AR.CN</hasc>
    <alt-name>NULL</alt-name>
    <woe-id>2344680</woe-id>
    <subregion>NULL</subregion>
    <fips>AR06</fips>
    <postal-code>CN</postal-code>
    <name>Corrientes</name>
    <country>Argentina</country>
    <type-en>Province</type-en>
    <region>NULL</region>
    <longitude>-57.6482</longitude>
    <woe-name>Corrientes</woe-name>
    <latitude>-28.8387</latitude>
    <woe-label>Corrientes, AR, Argentina</woe-label>
    <type>Provincia</type>
    <hc-middle-x>0.43</hc-middle-x>
    <hc-middle-y>0.44</hc-middle-y>
    <hc-key>ar-cn</hc-key>
    <hc-a2>CN</hc-a2>
  </desc>
</path>

<path fill="#CEE3F5" stroke="#6E6E6E" stroke-width="0.4" id="AR.ER" d="M219.7,182.7 L224.8,182.3 L227.4,183.3 L231.9,180.6 L234.3,181.2 L238.9,180.0 L245.5,182.1 L248.8,186.3 L250.0,190.3 L253.0,193.6 L252.8,196.9 L250.8,197.6 L251.7,200.1 L250.5,203.9 L247.1,208.6 L248.5,210.4 L246.8,215.7 L244.8,216.3 L244.8,220.9 L244.0,222.7 L245.3,226.2 L242.9,229.8 L243.3,241.7 L241.6,242.6 L239.1,242.0 L238.2,246.6 L236.0,249.7 L235.2,254.6 L236.4,258.0 L236.5,261.5 L232.4,261.7 L226.5,257.1 L224.2,256.9 L222.6,254.6 L220.3,254.7 L218.1,252.8 L216.6,253.2 L213.7,251.6 L212.3,249.7 L207.9,246.7 L204.9,243.6 L201.5,240.6 L198.6,234.6 L197.3,228.1 L198.7,220.4 L199.6,217.8 L198.7,215.6 L200.3,210.8 L204.6,210.1 L210.7,203.7 L219.3,191.1 L220.4,185.1 Z">
  <desc xmlns="http://www.highcharts.com/svg/namespace">
    <labelrank>3</labelrank>
    <hasc>AR.ER</hasc>
    <alt-name>Entre-Rios</alt-name>
    <woe-id>2344682</woe-id>
    <subregion>NULL</subregion>
    <fips>AR08</fips>
    <postal-code>ER</postal-code>
    <name>Entre Ríos</name>
    <country>Argentina</country>
    <type-en>Province</type-en>
    <region>NULL</region>
    <longitude>-59.2824</longitude>
    <woe-name>Entre Ríos</woe-name>
    <latitude>-32.0275</latitude>
    <woe-label>Entre Rios, AR, Argentina</woe-label>
    <type>Provincia</type>
    <hc-middle-x>0.47</hc-middle-x>
    <hc-middle-y>0.47</hc-middle-y>
    <hc-key>ar-er</hc-key>
    <hc-a2>ER</hc-a2>
  </desc>
</path>

<path fill="#CEE3F5" stroke="#6E6E6E" stroke-width="0.4" id="AR.CH" d="M21.1,512.0 L20.7,509.6 L18.5,506.7 L18.8,503.2 L22.2,501.8 L22.3,499.4 L25.1,496.9 L20.5,490.4 L17.9,489.7 L16.0,490.1 L13.1,489.4 L13.3,486.2 L16.2,486.8 L21.5,485.4 L24.0,486.5 L25.4,485.2 L25.3,483.4 L26.9,480.5 L25.4,478.5 L21.9,478.1 L16.1,478.6 L16.1,474.8 L15.1,472.4 L16.5,471.4 L17.9,468.4 L15.4,464.3 L16.9,463.0 L16.4,461.4 L14.1,460.4 L13.0,458.8 L13.3,455.9 L15.6,455.2 L15.6,452.9 L11.3,451.8 L9.0,449.3 L9.4,446.5 L8.4,440.8 L9.9,438.5 L8.3,433.8 L9.4,431.2 L10.9,431.6 L14.1,429.6 L13.4,427.9 L117.8,424.9 L118.9,425.1 L122.0,429.0 L127.7,430.3 L125.9,433.9 L128.3,434.5 L133.3,434.3 L134.5,433.0 L134.3,430.9 L130.7,430.5 L138.4,426.7 L140.0,428.1 L141.7,432.5 L141.7,437.9 L141.0,441.2 L139.2,442.7 L133.4,443.8 L131.2,441.4 L132.1,438.7 L128.4,435.7 L125.7,435.9 L120.5,438.7 L119.6,441.5 L125.0,444.5 L128.3,445.6 L130.1,445.1 L128.0,447.6 L123.1,449.1 L119.0,452.3 L118.9,453.9 L114.3,460.1 L114.5,463.5 L116.0,469.9 L114.6,472.1 L115.9,474.7 L114.2,476.7 L113.2,479.5 L111.0,480.0 L108.8,482.0 L108.3,485.3 L110.5,485.8 L109.8,489.4 L107.8,488.5 L104.6,488.9 L101.1,487.9 L95.3,491.0 L96.3,492.6 L91.1,493.1 L88.3,495.5 L84.4,501.1 L83.8,504.9 L82.6,505.6 L80.8,509.3 L69.3,509.6 Z">
  <desc xmlns="http://www.highcharts.com/svg/namespace">
    <labelrank>3</labelrank>
    <hasc>AR.CH</hasc>
    <alt-name>NULL</alt-name>
    <woe-id>2344678</woe-id>
    <subregion>NULL</subregion>
    <fips>AR04</fips>
    <postal-code>CH</postal-code>
    <name>Chubut</name>
    <country>Argentina</country>
    <type-en>Province</type-en>
    <region>NULL</region>
    <longitude>-67.8642</longitude>
    <woe-name>Chubut</woe-name>
    <latitude>-43.9995</latitude>
    <woe-label>Chubut, AR, Argentina</woe-label>
    <type>Provincia</type>
    <hc-middle-x>0.41</hc-middle-x>
    <hc-middle-y>0.50</hc-middle-y>
    <hc-key>ar-ch</hc-key>
    <hc-a2>CH</hc-a2>
  </desc>
</path>

<path fill="#CEE3F5" stroke="#6E6E6E" stroke-width="0.4" id="AR.SF" d="M158.9,265.4 L176.3,239.3 L179.2,237.0 L179.9,233.4 L178.3,230.2 L176.9,225.6 L175.2,223.9 L174.3,221.0 L171.7,218.5 L172.5,214.7 L172.0,209.4 L173.9,207.4 L179.3,189.2 L174.7,183.2 L175.6,176.9 L180.5,151.0 L184.1,131.8 L202.2,132.5 L237.3,134.3 L235.6,136.5 L233.1,137.4 L233.1,142.5 L232.1,148.0 L230.1,153.4 L229.9,155.5 L226.7,157.9 L223.8,159.1 L222.2,163.3 L221.9,167.6 L220.2,173.0 L221.3,175.9 L219.7,182.7 L220.4,185.1 L219.3,191.1 L210.7,203.7 L204.6,210.1 L200.3,210.8 L198.7,215.6 L199.6,217.8 L198.7,220.4 L197.3,228.1 L198.6,234.6 L201.5,240.6 L204.9,243.6 L205.2,244.7 L202.6,247.9 L201.5,250.9 L200.1,251.5 L197.8,250.0 L193.7,249.5 L192.7,251.9 L178.9,266.0 Z">
  <desc xmlns="http://www.highcharts.com/svg/namespace">
    <labelrank>6</labelrank>
    <hasc>AR.SF</hasc>
    <alt-name>Santa Fé</alt-name>
    <woe-id>2344695</woe-id>
    <subregion>NULL</subregion>
    <fips>AR21</fips>
    <postal-code>SF</postal-code>
    <name>Santa Fe</name>
    <country>Argentina</country>
    <type-en>Province</type-en>
    <region>NULL</region>
    <longitude>-60.8593</longitude>
    <woe-name>Santa Fe</woe-name>
    <latitude>-30.7764</latitude>
    <woe-label>Santa Fe, AR, Argentina</woe-label>
    <type>Provincia</type>
    <hc-middle-x>0.45</hc-middle-x>
    <hc-middle-y>0.39</hc-middle-y>
    <hc-key>ar-sf</hc-key>
    <hc-a2>SF</hc-a2>
  </desc>
</path>

<path fill="#CEE3F5" stroke="#6E6E6E" stroke-width="0.4" id="AR.MN" d="M292.9,124.0 L296.7,126.7 L300.0,124.5 L300.2,121.1 L302.9,119.8 L303.6,117.7 L306.6,116.6 L309.3,117.3 L309.7,115.4 L312.7,114.0 L314.3,111.4 L316.4,111.3 L316.7,108.8 L318.5,107.1 L320.2,102.0 L320.2,97.4 L321.9,93.9 L321.1,91.2 L322.1,88.9 L324.7,90.5 L325.9,89.5 L331.8,88.1 L331.3,89.2 L335.4,91.2 L336.4,95.2 L336.3,98.7 L338.8,104.2 L337.4,107.5 L336.3,114.2 L336.6,118.1 L333.5,124.0 L331.2,123.6 L328.5,126.1 L327.0,125.1 L324.5,128.8 L323.4,128.0 L319.7,129.6 L312.6,131.9 L312.1,134.3 L308.8,134.9 L309.7,136.3 L304.2,137.4 L301.5,140.6 L297.9,141.7 L295.9,139.9 L294.3,136.3 L294.0,132.2 L291.7,126.4 Z">
  <desc xmlns="http://www.highcharts.com/svg/namespace">
    <labelrank>3</labelrank>
    <hasc>AR.MN</hasc>
    <alt-name>Missões</alt-name>
    <woe-id>2344688</woe-id>
    <subregion>NULL</subregion>
    <fips>AR14</fips>
    <postal-code>MN</postal-code>
    <name>Misiones</name>
    <country>Argentina</country>
    <type-en>Province</type-en>
    <region>NULL</region>
    <longitude>-54.8406</longitude>
    <woe-name>Misiones</woe-name>
    <latitude>-27.1262</latitude>
    <woe-label>Misiones, AR, Argentina</woe-label>
    <type>Provincia</type>
    <hc-middle-x>0.56</hc-middle-x>
    <hc-middle-y>0.55</hc-middle-y>
    <hc-key>ar-mn</hc-key>
    <hc-a2>MN</hc-a2>
  </desc>
</path>

<path fill="#CEE3F5" stroke="#6E6E6E" stroke-width="0.4" id="AR.DF" d="M235.2,272.3 L236.8,273.5 L237.8,275.4 L235.3,277.7 L233.7,276.2 L234.0,273.2 Z">
  <desc xmlns="http://www.highcharts.com/svg/namespace">
    <labelrank>3</labelrank>
    <hasc>AR.DF</hasc>
    <alt-name>BUENOS AIRES D.F.|Capital Federal|Distretto Federale|Distrito Federal|Federal Capital</alt-name>
    <woe-id>2344681</woe-id>
    <subregion>NULL</subregion>
    <fips>AR07</fips>
    <postal-code>DF</postal-code>
    <name>Ciudad de Buenos Aires</name>
    <country>Argentina</country>
    <type-en>Federal District</type-en>
    <region>NULL</region>
    <longitude>-58.4527</longitude>
    <woe-name>Ciudad de Buenos Aires</woe-name>
    <latitude>-34.6202</latitude>
    <woe-label>Buenos Aires, AR, Argentina</woe-label>
    <type>Distrito Federal</type>
    <hc-middle-x>0.38</hc-middle-x>
    <hc-middle-y>0.48</hc-middle-y>
    <hc-key>ar-df</hc-key>
    <hc-a2>DF</hc-a2>
  </desc>
</path>

<path fill="#CEE3F5" stroke="#6E6E6E" stroke-width="0.4" id="AR.SC" d="M80.8,509.3 L80.3,512.8 L82.0,518.5 L83.4,521.2 L87.7,524.1 L92.7,530.4 L101.2,532.1 L104.4,531.6 L107.7,534.5 L107.9,540.9 L106.3,545.8 L106.2,548.7 L104.5,552.2 L105.4,552.9 L102.2,554.1 L99.8,556.6 L99.3,558.7 L94.9,560.4 L92.0,563.7 L88.5,565.6 L87.4,568.6 L84.5,570.5 L82.5,572.9 L81.8,576.3 L79.1,580.9 L80.3,580.8 L81.5,577.8 L80.4,589.1 L79.1,592.8 L75.9,595.6 L72.5,596.4 L69.8,592.7 L67.8,588.9 L68.7,593.4 L72.2,597.1 L71.1,598.2 L65.2,601.1 L62.7,606.1 L61.9,610.0 L62.2,613.4 L59.0,616.6 L61.9,615.0 L63.6,622.1 L65.1,625.9 L64.9,627.4 L63.1,628.1 L60.9,627.3 L56.6,628.9 L60.7,628.0 L65.6,628.9 L69.1,636.3 L73.5,642.6 L67.6,641.4 L62.4,639.4 L58.8,639.5 L52.6,637.2 L27.0,638.5 L26.3,636.0 L24.7,634.2 L21.8,632.8 L20.6,630.4 L19.3,629.9 L20.5,628.2 L21.2,622.9 L19.2,620.1 L20.4,618.7 L20.5,614.6 L19.3,613.1 L19.6,610.7 L16.8,609.9 L15.4,611.4 L13.2,610.6 L9.2,614.2 L8.1,613.9 L6.6,609.9 L5.1,603.9 L2.1,601.5 L2.5,599.0 L1.0,597.2 L2.1,593.4 L0.0,588.8 L1.3,583.9 L5.6,583.4 L4.9,582.1 L6.8,576.6 L10.4,574.7 L12.3,571.9 L11.9,564.7 L15.6,561.9 L14.5,556.4 L11.4,553.4 L13.6,546.6 L13.6,542.8 L15.8,542.3 L17.6,539.2 L19.8,536.9 L17.6,534.4 L18.2,529.2 L21.6,526.6 L21.4,523.0 L19.8,517.3 L17.5,515.5 L19.5,514.5 L21.1,512.0 L69.3,509.6 Z">
  <desc xmlns="http://www.highcharts.com/svg/namespace">
    <labelrank>3</labelrank>
    <hasc>AR.SC</hasc>
    <alt-name>NULL</alt-name>
    <woe-id>2344694</woe-id>
    <subregion>NULL</subregion>
    <fips>AR20</fips>
    <postal-code>SC</postal-code>
    <name>Santa Cruz</name>
    <country>Argentina</country>
    <type-en>Province</type-en>
    <region>NULL</region>
    <longitude>-69.6596</longitude>
    <woe-name>Santa Cruz</woe-name>
    <latitude>-49.0428</latitude>
    <woe-label>Santa Cruz, AR, Argentina</woe-label>
    <type>Provincia</type>
    <hc-middle-x>0.47</hc-middle-x>
    <hc-middle-y>0.45</hc-middle-y>
    <hc-key>ar-sc</hc-key>
    <hc-a2>SC</hc-a2>
  </desc>
</path>

<path fill="#CEE3F5" stroke="#6E6E6E" stroke-width="0.4" id="AR.JY" d="M79.9,40.8 L84.4,25.4 L80.8,21.7 L83.9,18.2 L83.9,15.4 L88.8,13.4 L89.7,9.1 L96.7,7.0 L98.3,5.4 L99.4,0.0 L102.2,0.8 L103.2,2.6 L105.4,3.2 L109.1,6.8 L112.3,6.2 L119.9,6.5 L118.9,11.2 L116.8,16.7 L118.3,17.6 L118.3,22.1 L119.8,25.0 L122.7,25.5 L122.6,30.7 L124.2,31.7 L125.8,35.7 L130.0,35.0 L134.3,38.5 L136.1,36.1 L139.1,36.3 L139.5,50.4 L136.5,55.2 L132.8,56.6 L130.5,59.4 L126.8,56.1 L125.2,58.9 L122.7,58.3 L119.9,55.9 L118.0,56.9 L112.0,54.8 L108.7,49.6 L108.7,48.0 L104.1,45.1 L103.6,41.7 L104.3,36.8 L100.8,34.2 L97.2,33.1 L96.3,37.1 L97.5,40.6 L97.3,47.2 L94.4,51.3 L91.1,50.6 L87.5,47.7 L83.0,42.8 Z">
  <desc xmlns="http://www.highcharts.com/svg/namespace">
    <labelrank>3</labelrank>
    <hasc>AR.JY</hasc>
    <alt-name>NULL</alt-name>
    <woe-id>2344684</woe-id>
    <subregion>NULL</subregion>
    <fips>AR10</fips>
    <postal-code>JY</postal-code>
    <name>Jujuy</name>
    <country>Argentina</country>
    <type-en>Province</type-en>
    <region>NULL</region>
    <longitude>-65.7054</longitude>
    <woe-name>Jujuy</woe-name>
    <latitude>-23.1764</latitude>
    <woe-label>Jujuy, AR, Argentina</woe-label>
    <type>Provincia</type>
    <hc-middle-x>0.43</hc-middle-x>
    <hc-middle-y>0.36</hc-middle-y>
    <hc-key>ar-jy</hc-key>
    <hc-a2>JY</hc-a2>
  </desc>
</path>
</g>

<text x="350" y="714" text-anchor="middle" font-family="Verdana" font-size="8" stroke-opacity="0.6">Copyright (c) 2023 Highsoft AS, Based on data from Natural Earth</text>

</svg>