<?xml version="1.0" encoding="utf-8" standalone="no"?>
<!DOCTYPE svg PUBLIC "-//W3C//DTD SVG 1.1//EN" "http://www.w3.org/Graphics/SVG/1.1/DTD/svg11.dtd">

<svg version="1.1" height="700pt" width="700pt" xmlns="http://www.w3.org/2000/svg" xmlns:xlink="http://www.w3.org/1999/xlink">
<desc>
Map version: 2.1.0
Copyright (c) 2023 Highsoft AS, Based on data from Natural Earth
</desc>
<title>Ghana</title>
<g id="admin1">

<g id="GH">
  <desc xmlns="http://www.highcharts.com/svg/namespace">
    <name>Ghana</name>
    <labelrank>3</labelrank>
    <country-abbrev>Ghana</country-abbrev>
    <subregion>Western Africa</subregion>
    <region-wb>Sub-Saharan Africa</region-wb>
    <iso-a3>GHA</iso-a3>
    <iso-a2>GH</iso-a2>
    <woe-id>23424824</woe-id>
    <continent>Africa</continent>
    <hc-key>gh</hc-key>
    <hc-a2>GH</hc-a2>
  </desc>
</g>

<path fill="#CEE3F5" stroke="#6E6E6E" stroke-width="0.4" id="GH.AH" d="M332.0,432.5 L323.8,434.4 L316.8,441.0 L309.3,443.9 L306.0,446.8 L291.5,447.1 L288.6,448.5 L269.0,475.7 L266.9,477.1 L259.0,478.2 L252.2,481.8 L252.3,487.4 L257.0,491.7 L258.4,495.7 L252.9,502.4 L238.7,516.9 L234.1,524.2 L230.0,536.9 L225.6,540.5 L226.1,545.7 L224.6,548.4 L226.3,552.3 L224.1,553.5 L220.1,564.5 L222.3,566.4 L220.4,571.8 L218.7,574.7 L214.2,575.2 L213.2,573.0 L207.0,571.5 L196.2,574.6 L194.9,578.5 L190.7,576.6 L189.6,571.6 L186.8,571.0 L173.2,571.9 L167.9,568.7 L162.2,567.1 L158.2,564.1 L158.2,560.3 L150.0,560.0 L147.1,560.9 L141.7,555.6 L140.1,551.3 L136.1,548.5 L134.5,540.0 L136.5,532.3 L134.9,530.2 L129.8,530.0 L125.8,529.7 L123.0,524.0 L112.7,520.8 L112.4,517.7 L114.2,509.6 L107.8,509.5 L102.2,506.8 L100.2,509.7 L99.0,517.3 L97.4,521.2 L94.1,523.5 L90.8,522.8 L91.1,520.2 L89.0,516.6 L89.5,513.1 L96.4,503.0 L96.7,498.2 L92.1,492.0 L92.6,487.9 L97.9,488.4 L104.2,486.1 L106.0,482.4 L106.8,476.1 L111.4,471.2 L110.1,469.6 L100.7,468.6 L95.0,469.5 L102.2,461.0 L103.6,454.6 L110.5,447.1 L115.0,446.2 L117.3,449.6 L131.6,449.1 L139.7,444.5 L144.9,438.3 L151.1,437.0 L153.3,428.0 L146.0,425.6 L139.0,419.1 L133.7,419.7 L129.2,416.2 L122.4,414.8 L123.3,408.7 L125.5,403.5 L132.9,404.0 L136.8,402.6 L144.8,403.7 L153.0,402.4 L156.0,404.3 L157.0,411.2 L166.0,416.7 L172.1,415.3 L175.6,416.4 L179.6,414.7 L183.4,410.2 L189.5,409.3 L188.4,401.7 L196.6,395.8 L202.3,387.8 L207.8,386.1 L211.9,391.4 L212.4,397.9 L215.1,402.5 L222.0,403.5 L237.2,400.9 L242.3,394.8 L252.4,396.4 L254.3,398.2 L262.9,397.1 L269.5,399.6 L279.3,394.7 L286.0,399.7 L292.2,411.1 L297.2,413.1 L308.5,415.1 L323.9,420.6 L327.2,424.0 Z">
  <desc xmlns="http://www.highcharts.com/svg/namespace">
    <labelrank>5</labelrank>
    <hasc>GH.AH</hasc>
    <alt-name>NULL</alt-name>
    <woe-id>2345463</woe-id>
    <subregion>NULL</subregion>
    <fips>GH02</fips>
    <postal-code>AH</postal-code>
    <name>Ashanti</name>
    <country>Ghana</country>
    <type-en>Region</type-en>
    <region>NULL</region>
    <longitude>-1.3296</longitude>
    <woe-name>Ashanti</woe-name>
    <latitude>6.75219</latitude>
    <woe-label>Ashanti, GH, Ghana</woe-label>
    <type>Region</type>
    <hc-middle-x>0.58</hc-middle-x>
    <hc-middle-y>0.27</hc-middle-y>
    <hc-key>gh-ah</hc-key>
    <hc-a2>AH</hc-a2>
  </desc>
</path>

<path fill="#CEE3F5" stroke="#6E6E6E" stroke-width="0.4" id="GH.EP" d="M220.4,571.8 L222.3,566.4 L220.1,564.5 L224.1,553.5 L226.3,552.3 L224.6,548.4 L226.1,545.7 L225.6,540.5 L230.0,536.9 L234.1,524.2 L238.7,516.9 L252.9,502.4 L258.4,495.7 L257.0,491.7 L252.3,487.4 L252.2,481.8 L259.0,478.2 L266.9,477.1 L269.0,475.7 L288.6,448.5 L291.5,447.1 L306.0,446.8 L309.3,443.9 L316.8,441.0 L323.8,434.4 L332.0,432.5 L359.5,433.5 L366.4,436.2 L373.0,433.4 L379.6,435.2 L380.1,441.0 L377.9,448.7 L378.8,455.8 L377.3,460.5 L373.4,464.1 L371.3,469.1 L371.8,473.7 L375.7,475.8 L378.3,479.2 L378.0,486.8 L373.7,489.3 L370.1,493.2 L367.5,504.2 L373.6,505.5 L375.0,510.7 L378.7,514.5 L379.1,517.9 L375.9,527.5 L374.4,529.6 L365.5,534.5 L367.0,539.7 L365.7,542.5 L366.1,547.4 L373.2,551.8 L382.6,551.9 L390.1,556.8 L390.5,568.4 L385.8,573.8 L382.0,576.5 L379.5,575.9 L375.4,570.9 L369.6,567.2 L367.1,563.2 L362.1,563.6 L355.6,567.2 L351.0,565.5 L349.3,571.9 L343.4,575.0 L338.4,585.7 L333.7,588.1 L327.0,586.0 L324.9,588.4 L319.5,591.0 L311.5,589.1 L308.0,585.2 L300.7,586.5 L300.3,592.4 L292.5,590.0 L274.1,591.5 L257.2,588.4 L251.9,589.2 L244.9,586.8 L233.8,586.7 L227.2,574.8 Z">
  <desc xmlns="http://www.highcharts.com/svg/namespace">
    <labelrank>5</labelrank>
    <hasc>GH.EP</hasc>
    <alt-name>NULL</alt-name>
    <woe-id>2345466</woe-id>
    <subregion>NULL</subregion>
    <fips>GH05</fips>
    <postal-code>EP</postal-code>
    <name>Eastern</name>
    <country>Ghana</country>
    <type-en>Region</type-en>
    <region>NULL</region>
    <longitude>-0.460431</longitude>
    <woe-name>Eastern</woe-name>
    <latitude>6.42584</latitude>
    <woe-label>Eastern, GH, Ghana</woe-label>
    <type>Region</type>
    <hc-middle-x>0.54</hc-middle-x>
    <hc-middle-y>0.54</hc-middle-y>
    <hc-key>gh-ep</hc-key>
    <hc-a2>EP</hc-a2>
  </desc>
</path>

<path fill="#CEE3F5" stroke="#6E6E6E" stroke-width="0.4" id="GH.WP" d="M91.1,520.2 L90.8,522.8 L94.1,523.5 L97.4,521.2 L99.0,517.3 L100.2,509.7 L102.2,506.8 L107.8,509.5 L114.2,509.6 L112.4,517.7 L112.7,520.8 L123.0,524.0 L125.8,529.7 L129.8,530.0 L125.4,535.3 L119.2,538.8 L118.9,543.4 L120.6,546.8 L129.3,550.9 L132.8,556.3 L140.0,560.3 L147.0,569.5 L153.8,573.1 L157.6,578.8 L157.0,584.2 L159.9,586.6 L158.4,589.9 L156.8,598.5 L158.1,604.4 L166.6,602.6 L170.6,604.7 L178.8,606.9 L182.8,612.3 L179.8,615.5 L180.2,622.4 L185.7,626.8 L189.0,633.0 L193.9,637.8 L198.3,640.6 L200.1,644.4 L194.2,649.5 L189.4,650.2 L186.9,652.1 L183.9,658.4 L184.4,669.3 L184.4,669.3 L180.8,668.5 L177.6,670.1 L176.8,674.6 L169.3,678.3 L164.8,682.8 L164.7,684.8 L155.2,687.2 L146.8,690.9 L142.4,696.2 L139.3,698.4 L127.3,700.0 L125.4,695.8 L121.5,694.8 L114.7,689.4 L111.3,687.8 L109.6,684.5 L98.3,680.1 L79.8,676.2 L61.8,670.1 L47.6,669.0 L31.8,666.2 L14.9,661.1 L18.5,658.6 L28.6,659.3 L31.2,662.3 L36.1,660.8 L35.8,657.9 L45.1,654.9 L52.0,654.8 L54.6,651.6 L52.2,649.3 L52.7,645.1 L50.4,640.1 L51.1,633.4 L54.8,634.1 L57.3,632.4 L57.1,628.6 L54.2,621.6 L52.3,613.8 L52.0,608.1 L49.4,603.8 L41.6,601.8 L36.3,604.6 L31.5,603.4 L32.1,593.8 L25.0,594.4 L26.1,581.9 L24.5,574.0 L18.8,562.5 L15.5,544.3 L13.2,538.2 L8.4,533.3 L0.0,494.8 L3.6,490.0 L5.7,484.0 L2.2,477.6 L4.2,469.5 L16.9,448.0 L18.2,447.2 L21.3,457.6 L24.3,459.8 L32.2,457.9 L38.3,460.7 L41.1,463.5 L45.9,474.3 L46.9,479.8 L45.7,484.3 L47.4,491.4 L52.4,493.3 L58.3,497.1 L63.8,496.8 L68.3,499.0 L70.3,503.7 L75.9,506.4 L80.7,516.7 L86.7,518.0 Z">
  <desc xmlns="http://www.highcharts.com/svg/namespace">
    <labelrank>5</labelrank>
    <hasc>GH.WP</hasc>
    <alt-name>NULL</alt-name>
    <woe-id>2345469</woe-id>
    <subregion>NULL</subregion>
    <fips>GH09</fips>
    <postal-code>WP</postal-code>
    <name>Western</name>
    <country>Ghana</country>
    <type-en>Region</type-en>
    <region>NULL</region>
    <longitude>-2.34206</longitude>
    <woe-name>Western</woe-name>
    <latitude>5.70024</latitude>
    <woe-label>Western, GH, Ghana</woe-label>
    <type>Region</type>
    <hc-middle-x>0.36</hc-middle-x>
    <hc-middle-y>0.45</hc-middle-y>
    <hc-key>gh-wp</hc-key>
    <hc-a2>WP</hc-a2>
  </desc>
</path>

<path fill="#CEE3F5" stroke="#6E6E6E" stroke-width="0.4" id="GH.AA" d="M429.1,588.5 L395.4,586.2 L390.7,586.4 L383.1,588.6 L380.1,590.4 L372.8,592.4 L368.1,596.3 L363.9,597.6 L359.4,602.9 L350.7,605.8 L345.5,608.6 L322.0,616.2 L316.4,617.1 L313.0,607.4 L306.0,602.7 L300.3,592.4 L300.7,586.5 L308.0,585.2 L311.5,589.1 L319.5,591.0 L324.9,588.4 L327.0,586.0 L333.7,588.1 L338.4,585.7 L343.4,575.0 L349.3,571.9 L351.0,565.5 L355.6,567.2 L362.1,563.6 L367.1,563.2 L369.6,567.2 L375.4,570.9 L379.5,575.9 L382.0,576.5 L385.8,573.8 L390.5,568.4 L392.4,565.5 L399.4,562.3 L408.2,562.7 L416.8,564.6 L420.3,567.2 L424.1,577.6 L428.1,581.0 L432.0,582.6 L434.2,585.3 Z">
  <desc xmlns="http://www.highcharts.com/svg/namespace">
    <labelrank>9</labelrank>
    <hasc>GH.AA</hasc>
    <alt-name>NULL</alt-name>
    <woe-id>2345462</woe-id>
    <subregion>NULL</subregion>
    <fips>GH01</fips>
    <postal-code>AA</postal-code>
    <name>Greater Accra</name>
    <country>Ghana</country>
    <type-en>Region</type-en>
    <region>NULL</region>
    <longitude>0.105309</longitude>
    <woe-name>Greater Accra</woe-name>
    <latitude>5.83921</latitude>
    <woe-label>Greater Accra, GH, Ghana</woe-label>
    <type>Region</type>
    <hc-middle-x>0.38</hc-middle-x>
    <hc-middle-y>0.43</hc-middle-y>
    <hc-key>gh-aa</hc-key>
    <hc-a2>AA</hc-a2>
  </desc>
</path>

<path fill="#CEE3F5" stroke="#6E6E6E" stroke-width="0.4" id="GH.TV" d="M429.1,588.5 L434.2,585.3 L432.0,582.6 L428.1,581.0 L424.1,577.6 L420.3,567.2 L416.8,564.6 L408.2,562.7 L399.4,562.3 L392.4,565.5 L390.5,568.4 L390.1,556.8 L382.6,551.9 L373.2,551.8 L366.1,547.4 L365.7,542.5 L367.0,539.7 L365.5,534.5 L374.4,529.6 L375.9,527.5 L379.1,517.9 L378.7,514.5 L375.0,510.7 L373.6,505.5 L367.5,504.2 L370.1,493.2 L373.7,489.3 L378.0,486.8 L378.3,479.2 L375.7,475.8 L371.8,473.7 L371.3,469.1 L373.4,464.1 L377.3,460.5 L378.8,455.8 L377.9,448.7 L380.1,441.0 L379.6,435.2 L379.3,429.9 L381.1,424.1 L381.0,416.1 L377.0,412.6 L370.0,409.8 L368.4,406.4 L368.1,399.9 L366.6,396.2 L359.4,383.9 L355.6,373.5 L348.9,371.3 L343.7,363.7 L342.9,358.6 L338.2,347.7 L335.7,344.2 L320.5,332.1 L312.2,329.5 L316.6,322.4 L324.8,320.3 L330.1,321.9 L336.4,318.9 L338.8,312.5 L342.4,309.7 L347.2,308.0 L352.1,308.5 L360.0,312.4 L366.2,318.3 L373.7,317.9 L376.5,316.8 L375.9,308.9 L381.6,307.5 L381.4,304.4 L377.6,301.6 L369.4,302.9 L365.9,302.3 L364.7,296.2 L368.7,293.0 L365.1,289.2 L366.4,284.0 L369.6,279.9 L373.9,279.2 L370.8,274.1 L375.7,265.2 L375.8,261.1 L381.3,260.0 L383.8,261.4 L394.8,261.5 L395.5,265.5 L398.7,272.3 L403.0,278.3 L407.4,281.2 L414.7,287.8 L421.8,291.1 L425.2,299.2 L429.3,302.6 L429.8,308.2 L431.9,309.1 L431.6,313.5 L425.0,316.7 L417.3,322.1 L419.5,327.9 L417.5,330.8 L419.5,342.6 L419.5,348.8 L420.7,356.5 L420.6,363.0 L421.6,369.3 L421.7,377.1 L418.6,376.6 L417.2,378.8 L416.3,386.6 L411.7,388.5 L409.5,392.1 L409.7,403.8 L411.4,408.6 L414.9,411.6 L423.0,409.9 L425.5,418.0 L423.0,429.5 L420.4,436.0 L420.4,449.9 L418.4,453.7 L409.2,456.3 L413.5,460.3 L414.6,464.5 L411.9,471.6 L414.3,473.3 L418.2,480.0 L423.6,483.0 L424.6,486.5 L424.3,494.3 L428.2,498.4 L434.7,500.0 L433.2,503.4 L433.7,509.0 L439.1,516.5 L447.2,520.9 L450.8,525.1 L454.4,526.8 L462.7,526.8 L465.6,535.5 L474.8,544.6 L483.8,545.6 L484.8,551.1 L475.4,557.0 L469.9,562.9 L466.0,570.2 L464.2,579.7 L459.8,584.9 L455.4,586.5 L434.6,588.9 Z">
  <desc xmlns="http://www.highcharts.com/svg/namespace">
    <labelrank>5</labelrank>
    <hasc>GH.TV</hasc>
    <alt-name>NULL</alt-name>
    <woe-id>2345468</woe-id>
    <subregion>NULL</subregion>
    <fips>GH08</fips>
    <postal-code>TV</postal-code>
    <name>Volta</name>
    <country>Ghana</country>
    <type-en>Region</type-en>
    <region>NULL</region>
    <longitude>0.396325</longitude>
    <woe-name>Volta</woe-name>
    <latitude>7.33855</latitude>
    <woe-label>Volta, GH, Ghana</woe-label>
    <type>Region</type>
    <hc-middle-x>0.47</hc-middle-x>
    <hc-middle-y>0.24</hc-middle-y>
    <hc-key>gh-tv</hc-key>
    <hc-a2>TV</hc-a2>
  </desc>
</path>

<path fill="#CEE3F5" stroke="#6E6E6E" stroke-width="0.4" id="GH.NP" d="M72.7,258.8 L73.6,254.1 L71.0,243.7 L69.1,242.8 L66.6,233.7 L56.9,231.2 L54.3,229.3 L56.0,220.6 L61.9,211.5 L65.4,209.7 L66.8,205.6 L60.9,201.4 L65.0,196.4 L65.2,183.9 L56.0,173.6 L55.5,168.9 L58.0,164.1 L70.2,162.5 L74.3,158.4 L78.8,156.5 L81.9,151.4 L92.8,150.0 L102.8,147.0 L113.0,147.7 L119.9,146.4 L130.7,147.1 L144.8,144.1 L164.0,144.8 L166.9,141.4 L170.9,139.7 L172.5,134.5 L171.0,128.5 L172.6,125.3 L178.1,124.0 L176.4,120.7 L182.9,120.5 L186.6,118.2 L177.1,109.3 L179.6,96.3 L182.6,92.4 L189.2,86.8 L193.6,80.3 L197.4,80.1 L207.1,84.2 L211.1,90.2 L221.4,94.3 L224.1,92.2 L223.4,85.2 L225.1,81.2 L228.9,79.4 L233.1,73.4 L244.4,69.2 L256.0,70.9 L254.9,74.6 L262.3,68.4 L264.7,62.8 L268.3,60.6 L268.9,57.4 L278.7,57.7 L278.6,62.0 L280.4,64.6 L278.4,70.1 L281.7,70.3 L285.8,67.4 L290.9,67.9 L299.0,66.4 L302.2,59.5 L305.8,61.1 L311.2,60.5 L319.2,57.2 L335.5,54.4 L344.4,50.4 L344.8,57.6 L356.5,62.5 L360.5,67.6 L367.9,73.0 L373.5,83.2 L375.6,81.9 L384.9,83.3 L384.5,86.6 L388.7,91.9 L387.7,94.1 L394.0,93.3 L397.2,95.6 L394.6,97.6 L393.0,102.5 L392.6,113.9 L397.1,118.6 L397.0,122.9 L392.3,123.4 L394.5,132.3 L391.2,138.5 L391.7,144.1 L389.4,152.6 L392.4,161.3 L391.0,164.6 L387.3,163.8 L384.4,160.8 L382.9,167.1 L384.7,169.4 L394.5,169.0 L393.0,173.2 L379.5,172.8 L378.8,177.2 L382.1,179.5 L386.4,179.0 L386.9,181.3 L379.3,183.9 L379.7,189.9 L388.7,187.9 L390.8,183.2 L401.2,182.1 L407.0,184.2 L407.0,188.9 L412.2,191.7 L412.9,194.2 L411.3,204.3 L408.1,207.2 L409.4,215.0 L405.0,220.5 L404.4,225.7 L401.5,232.4 L408.3,244.6 L409.7,250.0 L406.2,257.9 L401.5,257.8 L399.1,261.7 L395.3,259.0 L394.8,261.5 L383.8,261.4 L381.3,260.0 L375.8,261.1 L375.7,265.2 L370.8,274.1 L373.9,279.2 L369.6,279.9 L366.4,284.0 L365.1,289.2 L368.7,293.0 L364.7,296.2 L365.9,302.3 L369.4,302.9 L377.6,301.6 L381.4,304.4 L381.6,307.5 L375.9,308.9 L376.5,316.8 L373.7,317.9 L366.2,318.3 L360.0,312.4 L352.1,308.5 L347.2,308.0 L342.4,309.7 L338.8,312.5 L336.4,318.9 L330.1,321.9 L324.8,320.3 L316.6,322.4 L312.2,329.5 L302.6,328.6 L296.6,325.1 L285.3,316.0 L280.1,310.2 L266.4,310.0 L261.8,314.6 L255.4,318.6 L252.5,324.9 L244.1,329.1 L243.4,333.8 L245.7,338.7 L245.1,343.2 L241.0,348.3 L236.0,345.7 L224.5,313.4 L221.9,309.6 L217.2,305.8 L221.2,300.8 L223.3,292.4 L228.8,287.5 L231.1,282.9 L227.9,272.3 L217.3,269.9 L205.5,261.7 L195.7,262.2 L193.2,264.1 L191.9,268.9 L187.9,271.5 L182.9,272.0 L176.4,270.8 L172.9,271.9 L170.6,275.5 L166.1,277.3 L158.0,274.7 L153.6,276.6 L151.2,280.6 L150.9,291.7 L147.4,298.9 L151.3,308.0 L162.9,309.1 L164.7,313.2 L164.4,317.1 L161.3,319.2 L154.6,316.5 L149.7,317.3 L142.7,326.1 L132.4,328.2 L123.7,327.3 L119.1,320.8 L115.7,319.1 L107.1,310.4 L106.2,303.6 L103.3,295.4 L101.3,294.7 L97.9,289.0 L98.6,286.9 L95.8,281.1 L91.7,275.8 L87.7,272.7 L84.5,266.7 L77.2,260.5 Z">
  <desc xmlns="http://www.highcharts.com/svg/namespace">
    <labelrank>5</labelrank>
    <hasc>GH.NP</hasc>
    <alt-name>NULL</alt-name>
    <woe-id>2345467</woe-id>
    <subregion>NULL</subregion>
    <fips>GH06</fips>
    <postal-code>NP</postal-code>
    <name>Northern</name>
    <country>Ghana</country>
    <type-en>Region</type-en>
    <region>NULL</region>
    <longitude>-1.11905</longitude>
    <woe-name>Northern</woe-name>
    <latitude>9.27258</latitude>
    <woe-label>Northern, GH, Ghana</woe-label>
    <type>Region</type>
    <hc-middle-x>0.49</hc-middle-x>
    <hc-middle-y>0.47</hc-middle-y>
    <hc-key>gh-np</hc-key>
    <hc-a2>NP</hc-a2>
  </desc>
</path>

<path fill="#CEE3F5" stroke="#6E6E6E" stroke-width="0.4" id="GH.UE" d="M200.9,15.9 L208.3,18.2 L234.9,18.5 L238.9,16.3 L253.8,17.5 L259.1,21.3 L261.5,18.6 L279.2,18.5 L282.2,20.4 L280.7,22.9 L285.8,27.8 L287.7,26.7 L290.6,19.7 L298.6,19.0 L305.6,13.4 L306.3,9.3 L310.4,6.7 L314.4,10.7 L319.8,6.7 L322.0,3.8 L321.6,0.0 L336.2,3.0 L338.8,6.5 L343.0,8.2 L350.6,6.9 L354.2,8.3 L355.9,10.8 L355.7,19.4 L352.6,22.7 L350.3,33.7 L350.8,38.0 L345.3,44.3 L344.4,50.4 L335.5,54.4 L319.2,57.2 L311.2,60.5 L305.8,61.1 L302.2,59.5 L299.0,66.4 L290.9,67.9 L285.8,67.4 L281.7,70.3 L278.4,70.1 L280.4,64.6 L278.6,62.0 L278.7,57.7 L268.9,57.4 L268.3,60.6 L264.7,62.8 L262.3,68.4 L254.9,74.6 L256.0,70.9 L244.4,69.2 L233.1,73.4 L228.9,79.4 L225.1,81.2 L223.4,85.2 L224.1,92.2 L221.4,94.3 L211.1,90.2 L207.1,84.2 L208.1,81.1 L207.3,77.0 L204.7,74.9 L201.8,77.0 L198.7,74.6 L197.2,69.2 L193.3,67.9 L185.6,59.9 L184.2,52.8 L185.4,47.8 L192.5,41.6 L193.0,38.2 L197.7,33.9 L198.2,22.7 Z">
  <desc xmlns="http://www.highcharts.com/svg/namespace">
    <labelrank>5</labelrank>
    <hasc>GH.UE</hasc>
    <alt-name>NULL</alt-name>
    <woe-id>2345470</woe-id>
    <subregion>NULL</subregion>
    <fips>GH10</fips>
    <postal-code>UE</postal-code>
    <name>Upper East</name>
    <country>Ghana</country>
    <type-en>Region</type-en>
    <region>NULL</region>
    <longitude>-0.779779</longitude>
    <woe-name>Upper East</woe-name>
    <latitude>10.8183</latitude>
    <woe-label>Upper East, GH, Ghana</woe-label>
    <type>Region</type>
    <hc-middle-x>0.29</hc-middle-x>
    <hc-middle-y>0.52</hc-middle-y>
    <hc-key>gh-ue</hc-key>
    <hc-a2>UE</hc-a2>
  </desc>
</path>

<path fill="#CEE3F5" stroke="#6E6E6E" stroke-width="0.4" id="GH.UW" d="M207.1,84.2 L197.4,80.1 L193.6,80.3 L189.2,86.8 L182.6,92.4 L179.6,96.3 L177.1,109.3 L186.6,118.2 L182.9,120.5 L176.4,120.7 L178.1,124.0 L172.6,125.3 L171.0,128.5 L172.5,134.5 L170.9,139.7 L166.9,141.4 L164.0,144.8 L144.8,144.1 L130.7,147.1 L119.9,146.4 L113.0,147.7 L102.8,147.0 L92.8,150.0 L81.9,151.4 L78.8,156.5 L74.3,158.4 L70.2,162.5 L58.0,164.1 L52.4,156.8 L54.7,150.9 L58.8,144.5 L55.8,137.6 L57.0,129.9 L53.3,122.0 L53.4,112.7 L52.4,105.6 L56.8,100.7 L56.7,97.3 L48.7,92.9 L47.8,88.8 L50.7,83.3 L54.4,82.4 L55.4,79.9 L51.0,79.5 L45.9,75.5 L42.5,69.3 L41.8,64.9 L38.6,59.1 L38.5,56.0 L41.2,50.7 L39.3,47.6 L43.7,39.3 L45.7,32.0 L50.3,27.5 L51.0,25.0 L48.7,17.5 L58.0,17.7 L58.0,18.8 L182.1,18.1 L186.0,14.9 L200.9,15.9 L198.2,22.7 L197.7,33.9 L193.0,38.2 L192.5,41.6 L185.4,47.8 L184.2,52.8 L185.6,59.9 L193.3,67.9 L197.2,69.2 L198.7,74.6 L201.8,77.0 L204.7,74.9 L207.3,77.0 L208.1,81.1 Z">
  <desc xmlns="http://www.highcharts.com/svg/namespace">
    <labelrank>5</labelrank>
    <hasc>GH.UW</hasc>
    <alt-name>NULL</alt-name>
    <woe-id>2345471</woe-id>
    <subregion>NULL</subregion>
    <fips>GH11</fips>
    <postal-code>UW</postal-code>
    <name>Upper West</name>
    <country>Ghana</country>
    <type-en>Region</type-en>
    <region>NULL</region>
    <longitude>-2.14449</longitude>
    <woe-name>Upper West</woe-name>
    <latitude>10.404</latitude>
    <woe-label>Upper West, GH, Ghana</woe-label>
    <type>Region</type>
    <hc-middle-x>0.47</hc-middle-x>
    <hc-middle-y>0.49</hc-middle-y>
    <hc-key>gh-uw</hc-key>
    <hc-a2>UW</hc-a2>
  </desc>
</path>

<path fill="#CEE3F5" stroke="#6E6E6E" stroke-width="0.4" id="GH.BA" d="M18.2,447.2 L23.8,445.4 L25.9,438.0 L30.9,431.8 L31.9,428.2 L30.0,423.6 L35.4,390.3 L36.9,385.9 L44.8,369.1 L46.6,363.8 L51.2,359.4 L51.7,351.2 L54.1,351.8 L62.9,343.2 L71.6,340.0 L72.8,336.7 L70.7,330.9 L72.3,325.7 L75.9,326.6 L82.2,323.2 L83.0,321.6 L73.3,260.5 L72.7,258.8 L77.2,260.5 L84.5,266.7 L87.7,272.7 L91.7,275.8 L95.8,281.1 L98.6,286.9 L97.9,289.0 L101.3,294.7 L103.3,295.4 L106.2,303.6 L107.1,310.4 L115.7,319.1 L119.1,320.8 L123.7,327.3 L132.4,328.2 L142.7,326.1 L149.7,317.3 L154.6,316.5 L161.3,319.2 L164.4,317.1 L164.7,313.2 L162.9,309.1 L151.3,308.0 L147.4,298.9 L150.9,291.7 L151.2,280.6 L153.6,276.6 L158.0,274.7 L166.1,277.3 L170.6,275.5 L172.9,271.9 L176.4,270.8 L182.9,272.0 L187.9,271.5 L191.9,268.9 L193.2,264.1 L195.7,262.2 L205.5,261.7 L217.3,269.9 L227.9,272.3 L231.1,282.9 L228.8,287.5 L223.3,292.4 L221.2,300.8 L217.2,305.8 L221.9,309.6 L224.5,313.4 L236.0,345.7 L241.0,348.3 L245.1,343.2 L245.7,338.7 L243.4,333.8 L244.1,329.1 L252.5,324.9 L255.4,318.6 L261.8,314.6 L266.4,310.0 L280.1,310.2 L285.3,316.0 L296.6,325.1 L302.6,328.6 L312.2,329.5 L320.5,332.1 L335.7,344.2 L338.2,347.7 L342.9,358.6 L343.7,363.7 L348.9,371.3 L355.6,373.5 L359.4,383.9 L366.6,396.2 L368.1,399.9 L368.4,406.4 L370.0,409.8 L377.0,412.6 L381.0,416.1 L381.1,424.1 L379.3,429.9 L379.6,435.2 L373.0,433.4 L366.4,436.2 L359.5,433.5 L332.0,432.5 L327.2,424.0 L323.9,420.6 L308.5,415.1 L297.2,413.1 L292.2,411.1 L286.0,399.7 L279.3,394.7 L269.5,399.6 L262.9,397.1 L254.3,398.2 L252.4,396.4 L242.3,394.8 L237.2,400.9 L222.0,403.5 L215.1,402.5 L212.4,397.9 L211.9,391.4 L207.8,386.1 L202.3,387.8 L196.6,395.8 L188.4,401.7 L189.5,409.3 L183.4,410.2 L179.6,414.7 L175.6,416.4 L172.1,415.3 L166.0,416.7 L157.0,411.2 L156.0,404.3 L153.0,402.4 L144.8,403.7 L136.8,402.6 L132.9,404.0 L125.5,403.5 L123.3,408.7 L122.4,414.8 L129.2,416.2 L133.7,419.7 L139.0,419.1 L146.0,425.6 L153.3,428.0 L151.1,437.0 L144.9,438.3 L139.7,444.5 L131.6,449.1 L117.3,449.6 L115.0,446.2 L110.5,447.1 L103.6,454.6 L102.2,461.0 L95.0,469.5 L100.7,468.6 L110.1,469.6 L111.4,471.2 L106.8,476.1 L106.0,482.4 L104.2,486.1 L97.9,488.4 L92.6,487.9 L92.1,492.0 L96.7,498.2 L96.4,503.0 L89.5,513.1 L89.0,516.6 L91.1,520.2 L86.7,518.0 L80.7,516.7 L75.9,506.4 L70.3,503.7 L68.3,499.0 L63.8,496.8 L58.3,497.1 L52.4,493.3 L47.4,491.4 L45.7,484.3 L46.9,479.8 L45.9,474.3 L41.1,463.5 L38.3,460.7 L32.2,457.9 L24.3,459.8 L21.3,457.6 Z">
  <desc xmlns="http://www.highcharts.com/svg/namespace">
    <labelrank>5</labelrank>
    <hasc>GH.BA</hasc>
    <alt-name>NULL</alt-name>
    <woe-id>2345464</woe-id>
    <subregion>NULL</subregion>
    <fips>GH03</fips>
    <postal-code>BA</postal-code>
    <name>Brong Ahafo</name>
    <country>Ghana</country>
    <type-en>Region</type-en>
    <region>NULL</region>
    <longitude>-1.42805</longitude>
    <woe-name>Brong Ahafo</woe-name>
    <latitude>8.16555</latitude>
    <woe-label>Brong-Ahafo, GH, Ghana</woe-label>
    <type>Region</type>
    <hc-middle-x>0.20</hc-middle-x>
    <hc-middle-y>0.51</hc-middle-y>
    <hc-key>gh-ba</hc-key>
    <hc-a2>BA</hc-a2>
  </desc>
</path>

<path fill="#CEE3F5" stroke="#6E6E6E" stroke-width="0.4" id="GH.CP" d="M183.9,658.4 L186.9,652.1 L189.4,650.2 L194.2,649.5 L200.1,644.4 L198.3,640.6 L193.9,637.8 L189.0,633.0 L185.7,626.8 L180.2,622.4 L179.8,615.5 L182.8,612.3 L178.8,606.9 L170.6,604.7 L166.6,602.6 L158.1,604.4 L156.8,598.5 L158.4,589.9 L159.9,586.6 L157.0,584.2 L157.6,578.8 L153.8,573.1 L147.0,569.5 L140.0,560.3 L132.8,556.3 L129.3,550.9 L120.6,546.8 L118.9,543.4 L119.2,538.8 L125.4,535.3 L129.8,530.0 L134.9,530.2 L136.5,532.3 L134.5,540.0 L136.1,548.5 L140.1,551.3 L141.7,555.6 L147.1,560.9 L150.0,560.0 L158.2,560.3 L158.2,564.1 L162.2,567.1 L167.9,568.7 L173.2,571.9 L186.8,571.0 L189.6,571.6 L190.7,576.6 L194.9,578.5 L196.2,574.6 L207.0,571.5 L213.2,573.0 L214.2,575.2 L218.7,574.7 L220.4,571.8 L227.2,574.8 L233.8,586.7 L244.9,586.8 L251.9,589.2 L257.2,588.4 L274.1,591.5 L292.5,590.0 L300.3,592.4 L306.0,602.7 L313.0,607.4 L316.4,617.1 L307.1,624.4 L304.2,628.9 L300.3,631.3 L291.3,633.2 L287.0,635.9 L286.0,634.3 L279.0,638.8 L268.4,648.1 L260.3,649.2 L256.2,647.7 L254.4,649.0 L247.8,649.8 L246.8,647.8 L229.7,654.7 L227.5,657.2 L221.0,660.5 L211.6,661.2 L206.7,663.5 L202.3,663.4 L196.3,666.0 L188.7,667.1 L184.4,669.3 L184.4,669.3 L183.4,662.2 Z">
  <desc xmlns="http://www.highcharts.com/svg/namespace">
    <labelrank>5</labelrank>
    <hasc>GH.CP</hasc>
    <alt-name>NULL</alt-name>
    <woe-id>2345465</woe-id>
    <subregion>NULL</subregion>
    <fips>GH04</fips>
    <postal-code>CP</postal-code>
    <name>Central</name>
    <country>Ghana</country>
    <type-en>Region</type-en>
    <region>NULL</region>
    <longitude>-1.26555</longitude>
    <woe-name>Central</woe-name>
    <latitude>5.49477</latitude>
    <woe-label>Central, GH, Ghana</woe-label>
    <type>Region</type>
    <hc-middle-x>0.55</hc-middle-x>
    <hc-middle-y>0.63</hc-middle-y>
    <hc-key>gh-cp</hc-key>
    <hc-a2>CP</hc-a2>
  </desc>
</path>
</g>

<text x="350" y="714" text-anchor="middle" font-family="Verdana" font-size="8" stroke-opacity="0.6">Copyright (c) 2023 Highsoft AS, Based on data from Natural Earth</text>

</svg>